g 03_bodymesh_zombie01
v -0.6682794 -0.07902131 -0.25940695
v -0.49054638 -0.23684974 -0.17694947
v -0.49054545 -0.06958316 -0.26935825
v -0.6682821 -0.23687525 -0.17041071
v -0.6682821 -0.23687519 0.1700735
v -0.49054632 -0.23684968 0.17661212
v -0.6682793 -0.07902125 0.25906935
v -0.4905454 -0.0695831 0.26902047
v -0.6815901 -0.21333863 0.15821835
v -0.6682793 -0.07902125 0.25906935
v -0.6815901 -0.21333869 -0.15855554
v -0.6815902 -0.0840119 -0.24136093
v -0.6682794 -0.07902131 -0.25940695
v -0.6815901 -0.08401184 0.24102342
v -0.68151635 0.10584424 -0.21502638
v -0.6682946 0.11771317 0.2285919
v -0.68151623 0.10584431 0.21468867
v -0.6682947 0.11771312 -0.22892967
v -0.49054545 -0.06958316 -0.26935825
v -0.49055755 0.1274283 -0.23769459
v -0.6682812 0.2156599 -0.10803373
v -0.68158686 0.1978185 -0.102946974
v -0.4905465 0.22674468 -0.11217739
v -0.68158686 0.19781853 0.10260928
v -0.6682812 0.21565993 0.107696034
v -0.49054644 0.22674474 0.11183961
v -0.4905575 0.12742837 0.23735671
v -0.4905454 -0.0695831 0.26902047
v 1.1008185 -0.13016078 0.14307657
v 0.8808185 -0.091728285 0.19302543
v 1.1008185 -0.07077439 0.20614462
v 1.1008185 -0.01681525 0.18817186
v 0.8808185 -0.13016084 0.1430766
v 1.1008185 -0.076271944 0.057005897
v 0.8808184 -0.076271996 0.057005916
v 1.1008185 -0.017238984 0.06808023
v 0.8808185 -0.016815247 0.18817191
v 0.8808184 -0.014553035 0.06976198
v 0.8808184 0.013801465 0.13927123
v 1.1008185 0.013801472 0.13927117
v 0.88081837 -0.018206375 -0.18520899
v 1.1008185 -0.095782295 -0.18151645
v 1.1008185 -0.018206378 -0.185209
v 1.1008185 0.016608665 -0.13920274
v 0.8808184 0.016608665 -0.13920274
v 0.8808184 -0.0054974505 -0.06746126
v 1.1008185 0.014216196 -0.08237949
v 1.1008185 -0.06584892 -0.04930532
v 0.8808184 -0.06584896 -0.049305286
v 1.1008185 -0.12712725 -0.1302815
v 0.88081837 -0.09325533 -0.18342872
v 0.8808185 -0.1271273 -0.13028143
v 1.1008185 -0.018206378 -0.185209
v 1.2127782 0.11489891 -0.29720074
v 1.2127782 0.14971392 -0.25119448
v 1.1008185 0.016608665 -0.13920274
v 1.1008185 -0.095782295 -0.18151645
v 1.2127782 0.14732143 -0.19437121
v 1.1008185 0.014216196 -0.08237949
v 1.2923243 0.15936586 -0.20348577
v 1.2923243 0.16175835 -0.26030904
v 1.1999812 -0.0041201347 -0.06850355
v 1.2014873 -0.06584891 -0.04930534
v 1.1008185 -0.06584892 -0.04930532
v 1.2923243 0.12694333 -0.3063153
v 1.2014873 -0.12712723 -0.13028151
v 1.1008185 -0.12712725 -0.1302815
v 1.2127781 0.059563562 -0.31033865
v 1.1999812 -0.091878 -0.18447101
v 1.2923243 0.07160795 -0.31945318
v -0.6815901 -0.21333863 0.15821835
v -0.7715054 -0.11500424 0.17010497
v -0.77150536 -0.017218048 0.18631785
v -0.6815901 -0.08401184 0.24102342
v -0.6815901 -0.21333869 -0.15855554
v -0.77144843 0.06700884 0.1580267
v -0.68151623 0.10584431 0.21468867
v -0.7715054 -0.1150043 -0.1704425
v -0.6815902 -0.0840119 -0.24136093
v -0.7715055 -0.017218092 -0.18665543
v -0.68151635 0.10584424 -0.21502638
v -0.771503 0.1451431 0.079297885
v -0.68158686 0.19781853 0.10260928
v -0.82341224 -0.08727539 -0.12472699
v -0.77144843 0.06700879 -0.15836434
v -0.68158686 0.1978185 -0.102946974
v -0.771503 0.14514308 -0.07963555
v -0.82341224 0.0098130405 -0.11885865
v -0.85236317 -0.038731173 -0.00016878013
v -0.823376 0.050538246 -0.09396543
v -0.8234108 0.07829601 -0.050745588
v -0.8234108 0.07829603 0.050407972
v -0.823376 0.050538275 0.09362783
v -0.82341224 0.009813065 0.11852108
v -0.82341224 -0.08727535 0.12438946
v 1.1008185 -0.07077439 0.20614462
v 1.2014873 -0.13016076 0.14307655
v 1.1008185 -0.13016078 0.14307657
v 1.2014873 -0.07627192 0.05700588
v 1.1008185 -0.076271944 0.057005897
v 1.1999812 -0.013089054 0.070678495
v 1.1008185 -0.017238984 0.06808023
v 1.2923243 0.16161904 0.1893833
v 1.2127782 0.14881685 0.18136789
v 1.2923243 0.16901968 0.24577335
v 1.2127782 0.15621747 0.2377579
v 1.1008185 0.013801472 0.13927117
v 1.2923243 0.13840295 0.294674
v 1.2127782 0.12560074 0.28665856
v 1.1008185 -0.01681525 0.18817186
v 1.1999812 -0.09026432 0.19394195
v 1.2923243 0.08444375 0.31264678
v 1.2127781 0.07164161 0.30463132
v -0.8231433 -0.032143142 -0.053244893
v -0.8231433 -0.06675908 -0.037699267
v -0.8231433 -0.066759065 0.037361715
v -0.86649305 -0.032143164 -0.09213618
v -0.86649305 -0.09212379 -0.06519956
v -0.8231433 -0.03214313 0.05290733
v -0.86649305 -0.09212378 0.06486204
v -0.86649305 0.02783746 -0.065199584
v -0.8231433 0.0024728018 -0.03769928
v -0.92576414 -0.03214319 -0.092136174
v -0.92576414 -0.092123814 -0.065199554
v -0.92576414 0.027837439 -0.06519958
v -0.86649305 -0.03214314 0.09179863
v -0.8231433 0.0024728288 0.03736169
v -0.92576414 -0.0921238 0.06486205
v -0.86649305 0.052682262 -0.00016877668
v -0.8231433 0.016811198 -0.00016878237
v -0.86649305 0.027837513 0.06486199
v -0.92576414 0.052682232 -0.00016876742
v -0.92576414 -0.032143164 0.09179864
v -0.92576414 0.027837493 0.064862
v -0.9691139 -0.032143198 -0.05324487
v -0.9691139 0.0024727373 -0.037699256
v -0.9691139 -0.06675914 -0.037699245
v -0.9691139 -0.066759124 0.037361737
v -0.9691139 -0.032143187 0.05290735
v -0.9691139 0.0024727643 0.03736171
v -0.9691139 0.01681114 -0.00016875955
vt 0.3439133 0.34907395
vt 0.3431413 0.32568955
vt 0.3431413 0.32568955
vt 0.3439133 0.34907395
vt 0.35985538 0.34907395
vt 0.36062738 0.32568955
vt 0.35985538 0.34907395
vt 0.36062738 0.32568955
vt 0.35953292 0.35433722
vt 0.35985538 0.34907395
vt 0.34423575 0.35433722
vt 0.34423575 0.35433722
vt 0.3439133 0.34907395
vt 0.35953292 0.35433722
vt 0.34612468 0.35431576
vt 0.35783002 0.34907663
vt 0.357644 0.35431576
vt 0.34593865 0.34907663
vt 0.3431413 0.32568955
vt 0.3453612 0.32569468
vt 0.34872404 0.34907347
vt 0.34877864 0.35433626
vt 0.34841803 0.32568944
vt 0.35499004 0.35433626
vt 0.35504463 0.34907347
vt 0.35535064 0.32568944
vt 0.35840747 0.32569468
vt 0.36062738 0.32568955
vt 0.3454706 0.32528442
vt 0.3454706 0.32528442
vt 0.3454706 0.32528442
vt 0.3454706 0.32528442
vt 0.3454706 0.32528442
vt 0.3454706 0.32528442
vt 0.3454706 0.32528442
vt 0.3454706 0.32528442
vt 0.3454706 0.32528442
vt 0.3454706 0.32528442
vt 0.3454706 0.32528442
vt 0.3454706 0.32528442
vt 0.3454706 0.32528442
vt 0.3454706 0.32528442
vt 0.3454706 0.32528442
vt 0.3454706 0.32528442
vt 0.3454706 0.32528442
vt 0.3454706 0.32528442
vt 0.3454706 0.32528442
vt 0.3454706 0.32528442
vt 0.3454706 0.32528442
vt 0.3454706 0.32528442
vt 0.3454706 0.32528442
vt 0.3454706 0.32528442
vt 0.19290206 0.32528442
vt 0.19290206 0.32528442
vt 0.19290206 0.32528442
vt 0.19290206 0.32528442
vt 0.19290206 0.32528442
vt 0.19290206 0.32528442
vt 0.19290206 0.32528442
vt 0.19290206 0.32528442
vt 0.19290206 0.32528442
vt 0.19290206 0.32528442
vt 0.19290206 0.32528442
vt 0.19290206 0.32528442
vt 0.19290206 0.32528442
vt 0.19290206 0.32528442
vt 0.19290206 0.32528442
vt 0.19290206 0.32528442
vt 0.19290206 0.32528442
vt 0.19290206 0.32528442
vt 0.045683067 0.6399351
vt 0.045683067 0.6399351
vt 0.045683067 0.6399351
vt 0.045683067 0.6399351
vt 0.045683067 0.6399351
vt 0.045683067 0.6399351
vt 0.045683067 0.6399351
vt 0.045683067 0.6399351
vt 0.045683067 0.6399351
vt 0.045683067 0.6399351
vt 0.045683067 0.6399351
vt 0.045683067 0.6399351
vt 0.045683067 0.6399351
vt 0.045683067 0.6399351
vt 0.045683067 0.6399351
vt 0.045683067 0.6399351
vt 0.045683067 0.6399351
vt 0.045683067 0.6399351
vt 0.045683067 0.6399351
vt 0.045683067 0.6399351
vt 0.045683067 0.6399351
vt 0.045683067 0.6399351
vt 0.045683067 0.6399351
vt 0.045683067 0.6399351
vt 0.045683067 0.6399351
vt 0.19290206 0.32528442
vt 0.19290206 0.32528442
vt 0.19290206 0.32528442
vt 0.19290206 0.32528442
vt 0.19290206 0.32528442
vt 0.19290206 0.32528442
vt 0.19290206 0.32528442
vt 0.19290206 0.32528442
vt 0.19290206 0.32528442
vt 0.19290206 0.32528442
vt 0.19290206 0.32528442
vt 0.19290206 0.32528442
vt 0.19290206 0.32528442
vt 0.19290206 0.32528442
vt 0.19290206 0.32528442
vt 0.19290206 0.32528442
vt 0.19290206 0.32528442
vt 0.19290206 0.32528442
vt 0.045683067 0.6399351
vt 0.045683067 0.6399351
vt 0.045683067 0.6399351
vt 0.045683067 0.6399351
vt 0.045683067 0.6399351
vt 0.045683067 0.6399351
vt 0.045683067 0.6399351
vt 0.045683067 0.6399351
vt 0.045683067 0.6399351
vt 0.045683067 0.6399351
vt 0.045683067 0.6399351
vt 0.045683067 0.6399351
vt 0.045683067 0.6399351
vt 0.045683067 0.6399351
vt 0.045683067 0.6399351
vt 0.045683067 0.6399351
vt 0.045683067 0.6399351
vt 0.045683067 0.6399351
vt 0.045683067 0.6399351
vt 0.045683067 0.6399351
vt 0.045683067 0.6399351
vt 0.045683067 0.6399351
vt 0.045683067 0.6399351
vt 0.045683067 0.6399351
vt 0.045683067 0.6399351
vt 0.045683067 0.6399351
vt 0.045683067 0.6399351
vt 0.045683067 0.6399351
vn -0.2564827 -0.052177288 -0.96513945
vn 0.22589011 -0.7143181 -0.6623619
vn 0.21714242 -0.06741934 -0.9738089
vn -0.3317182 -0.6911206 -0.64211786
vn -0.36160365 -0.6645808 0.6538923
vn 0.22589187 -0.71431816 0.6623613
vn -0.25038028 -0.06988685 0.9656218
vn 0.2172021 -0.06742394 0.97379535
vn -0.9373356 0.1918039 0.29088348
vn -0.25038028 -0.06988685 0.9656218
vn -0.9669347 0.13477859 -0.21649949
vn -0.9943856 -0.0784185 -0.071048595
vn -0.2564827 -0.052177288 -0.96513945
vn -0.96108925 -0.26985967 0.059018094
vn -0.996534 -0.038801078 -0.0735837
vn -0.24512506 0.49692395 0.8324544
vn -0.99665797 -0.03735718 0.072645165
vn -0.2451261 0.49692333 -0.8324544
vn 0.21714242 -0.06741934 -0.9738089
vn 0.18981811 0.49794254 -0.8461809
vn -0.27540135 0.86714053 -0.41499558
vn -0.99500716 0.08415732 -0.053649984
vn 0.20173854 0.88468647 -0.42027536
vn -0.9950997 0.08566981 0.04936854
vn -0.27480775 0.867647 0.41433012
vn 0.2017387 0.8846864 0.42027548
vn 0.18981856 0.49794248 0.8461809
vn 0.2172021 -0.06742394 0.97379535
vn -0.005268944 -0.9969729 0.07757143
vn -0.6236603 -0.28730655 0.72698194
vn -0.15799214 -0.40961242 0.8984743
vn -0.5243387 0.47625694 0.70586705
vn -0.6011471 -0.7967721 0.061452314
vn 0.0018386486 -0.39588082 -0.9183001
vn -0.59800184 -0.3182199 -0.73561525
vn -0.091688 0.5489619 -0.83080333
vn -0.6176493 0.43984488 0.6519553
vn -0.61441314 0.5006091 -0.60982543
vn -0.6175213 0.7840401 0.06283798
vn -0.5092637 0.85998285 0.032864902
vn -0.6175213 0.33756754 -0.7104335
vn -0.10219905 -0.5922384 -0.7992553
vn -0.52942234 0.34186673 -0.7764272
vn -0.5118508 0.8383237 -0.18767582
vn -0.61764956 0.7657592 -0.17922552
vn -0.62366056 0.57727456 0.5270688
vn -0.14298934 0.7069508 0.69265765
vn -0.0052689053 -0.28206638 0.9593805
vn -0.6011473 -0.22593185 0.7665355
vn 0.0018388657 -0.99905556 0.043411992
vn -0.6144131 -0.39191833 -0.6847602
vn -0.5980013 -0.80069536 0.03579856
vn -0.52942234 0.34186673 -0.7764272
vn -0.510815 0.45411122 -0.72996646
vn -0.50804615 0.8199503 -0.2637624
vn -0.5118508 0.8383237 -0.18767582
vn -0.10219905 -0.5922384 -0.7992553
vn -0.36161646 0.8535651 0.37504694
vn -0.14298934 0.7069508 0.69265765
vn 0.60211694 0.5864769 0.5417564
vn 0.6745093 0.7362 -0.055197828
vn 0.48760822 0.33914807 0.8044978
vn 0.5385948 -0.37104994 0.7564639
vn -0.0052689053 -0.28206638 0.9593805
vn 0.6228815 0.2666238 -0.7354797
vn 0.5500676 -0.83318835 0.056768905
vn 0.0018388657 -0.99905556 0.043411992
vn -0.3639496 -0.20469153 -0.90864855
vn 0.56193185 -0.7117368 -0.42150125
vn 0.6417413 -0.29345992 -0.7085545
vn -0.9373356 0.1918039 0.29088348
vn -0.6334413 -0.34353307 0.69335204
vn -0.61607057 0.1035376 0.78085667
vn -0.96108925 -0.26985967 0.059018094
vn -0.9669347 0.13477859 -0.21649949
vn -0.6546204 0.38750184 0.64908737
vn -0.99665797 -0.03735718 0.072645165
vn -0.61925274 -0.34478804 -0.70544106
vn -0.9943856 -0.0784185 -0.071048595
vn -0.6423474 0.10428473 -0.7592856
vn -0.996534 -0.038801078 -0.0735837
vn -0.6721414 0.6598446 0.3359034
vn -0.9950997 0.08566981 0.04936854
vn -0.8830726 -0.17758158 -0.43433565
vn -0.65462077 0.38750166 -0.6490872
vn -0.99500716 0.08415732 -0.053649984
vn -0.6723146 0.6597078 -0.3358256
vn -0.86935437 0.17166397 -0.46341604
vn -0.99998915 -0.0027959687 0.0037332703
vn -0.88390625 0.30073535 -0.3581452
vn -0.8980636 0.3946784 -0.19419281
vn -0.8974841 0.39564344 0.19490652
vn -0.88390625 0.30073532 0.35814518
vn -0.88444746 0.16355853 0.437037
vn -0.87622213 -0.17867357 0.4475607
vn -0.15799214 -0.40961242 0.8984743
vn 0.544027 -0.8382241 0.03761758
vn -0.005268944 -0.9969729 0.07757143
vn 0.47437277 -0.4206979 -0.7732941
vn 0.0018386486 -0.39588082 -0.9183001
vn 0.4599023 0.19080399 -0.8672276
vn -0.091688 0.5489619 -0.83080333
vn 0.55765617 0.58037007 -0.59345615
vn -0.34912035 0.80336875 -0.482404
vn 0.6066826 0.79483694 0.013060417
vn -0.5043923 0.8466485 0.1696307
vn -0.5092637 0.85998285 0.032864902
vn 0.6549307 0.30993184 0.68920827
vn -0.511499 0.53372484 0.6734291
vn -0.5243387 0.47625694 0.70586705
vn 0.45237625 -0.7275951 0.5157142
vn 0.63843167 -0.27891245 0.71736526
vn -0.37523234 -0.09038616 0.9225135
vn 0.87156636 0 -0.49027765
vn 0.8675444 -0.36236614 -0.34067193
vn 0.8690646 -0.36093757 0.3383056
vn 0.3296963 0 -0.944087
vn 0.32197452 -0.6768398 -0.66198206
vn 0.8715664 0 0.4902775
vn 0.32193977 -0.6768471 0.66199154
vn 0.32320076 0.68571 -0.6521833
vn 0.86874104 0.36490053 -0.334868
vn -0.3296964 0 -0.944087
vn -0.32193935 -0.6768474 -0.66199136
vn -0.32320112 0.6857102 -0.652183
vn 0.32969645 0 0.944087
vn 0.868741 0.364901 0.33486775
vn -0.32197386 -0.6768401 0.6619822
vn 0.31648177 0.94859856 0
vn 0.8662361 0.4996348 0
vn 0.3232007 0.6857105 0.6521827
vn -0.31648248 0.9485984 0
vn -0.32969618 0 0.94408715
vn -0.32320118 0.6857104 0.65218276
vn -0.8715664 0 -0.49027735
vn -0.86874133 0.36490005 -0.33486784
vn -0.86754405 -0.3623672 -0.34067184
vn -0.8675439 -0.36236754 0.34067184
vn -0.8715664 0 0.49027747
vn -0.8687414 0.3648999 0.3348678
vn -0.86623675 0.49963382 0
g 03_bodymesh_zombie01_0
f 3/3/3 2/2/2 1/1/1
f 2/2/2 4/4/4 1/1/1
f 5/5/5 4/4/4 2/2/2
f 6/6/6 5/5/5 2/2/2
f 7/7/7 5/5/5 6/6/6
f 8/8/8 7/7/7 6/6/6
f 4/4/4 5/5/5 9/9/9
f 5/5/5 10/10/10 9/9/9
f 11/11/11 4/4/4 9/9/9
f 4/4/4 11/11/11 12/12/12
f 13/13/13 4/4/4 12/12/12
f 10/10/10 14/14/14 9/9/9
f 12/12/12 15/15/15 13/13/13
f 14/14/14 10/10/10 16/16/16
f 17/17/17 14/14/14 16/16/16
f 15/15/15 18/18/18 13/13/13
f 19/19/19 13/13/13 18/18/18
f 20/20/20 19/19/19 18/18/18
f 21/21/21 18/18/18 15/15/15
f 20/20/20 18/18/18 21/21/21
f 22/22/22 21/21/21 15/15/15
f 23/23/23 20/20/20 21/21/21
f 21/21/21 22/22/22 24/24/24
f 24/24/24 17/17/17 25/25/25
f 25/25/25 21/21/21 24/24/24
f 21/21/21 25/25/25 23/23/23
f 17/17/17 16/16/16 25/25/25
f 25/25/25 26/26/26 23/23/23
f 26/26/26 25/25/25 27/27/27
f 25/25/25 16/16/16 27/27/27
f 27/27/27 16/16/16 10/10/10
f 28/28/28 27/27/27 10/10/10
f 31/31/31 30/30/30 29/29/29
f 30/30/30 31/31/31 32/32/32
f 30/30/30 33/33/33 29/29/29
f 34/34/34 29/29/29 33/33/33
f 35/35/35 34/34/34 33/33/33
f 35/35/35 33/33/33 30/30/30
f 36/36/36 34/34/34 35/35/35
f 37/37/37 30/30/30 32/32/32
f 30/30/30 37/37/37 35/35/35
f 38/38/38 36/36/36 35/35/35
f 37/37/37 38/38/38 35/35/35
f 37/37/37 32/32/32 39/39/39
f 37/37/37 39/39/39 38/38/38
f 36/36/36 38/38/38 39/39/39
f 32/32/32 40/40/40 39/39/39
f 40/40/40 36/36/36 39/39/39
f 43/43/43 42/42/42 41/41/41
f 44/44/44 43/43/43 41/41/41
f 45/45/45 44/44/44 41/41/41
f 45/45/45 46/46/46 44/44/44
f 46/46/46 45/45/45 41/41/41
f 46/46/46 47/47/47 44/44/44
f 47/47/47 46/46/46 48/48/48
f 46/46/46 49/49/49 48/48/48
f 49/49/49 46/46/46 41/41/41
f 50/50/50 48/48/48 49/49/49
f 42/42/42 51/51/51 41/41/41
f 49/49/49 41/41/41 51/51/51
f 52/52/52 50/50/50 49/49/49
f 42/42/42 50/50/50 52/52/52
f 51/51/51 52/52/52 49/49/49
f 51/51/51 42/42/42 52/52/52
f 55/55/55 54/54/54 53/53/53
f 56/56/56 55/55/55 53/53/53
f 53/53/53 54/54/54 57/57/57
f 58/58/58 55/55/55 56/56/56
f 59/59/59 58/58/58 56/56/56
f 58/58/58 60/60/60 55/55/55
f 60/60/60 58/58/58 59/59/59
f 60/60/60 61/61/61 55/55/55
f 55/55/55 61/61/61 54/54/54
f 62/62/62 60/60/60 59/59/59
f 61/61/61 60/60/60 62/62/62
f 63/63/63 62/62/62 59/59/59
f 63/63/63 61/61/61 62/62/62
f 64/64/64 63/63/63 59/59/59
f 61/61/61 65/65/65 54/54/54
f 65/65/65 61/61/61 63/63/63
f 66/66/66 63/63/63 64/64/64
f 66/66/66 65/65/65 63/63/63
f 67/67/67 66/66/66 64/64/64
f 54/54/54 68/68/68 57/57/57
f 54/54/54 65/65/65 68/68/68
f 57/57/57 69/69/69 67/67/67
f 69/69/69 66/66/66 67/67/67
f 57/57/57 68/68/68 69/69/69
f 70/70/70 65/65/65 66/66/66
f 69/69/69 70/70/70 66/66/66
f 65/65/65 70/70/70 68/68/68
f 68/68/68 70/70/70 69/69/69
f 73/73/73 72/72/72 71/71/71
f 74/74/74 73/73/73 71/71/71
f 71/71/71 72/72/72 75/75/75
f 76/76/76 73/73/73 74/74/74
f 77/77/77 76/76/76 74/74/74
f 72/72/72 78/78/78 75/75/75
f 75/75/75 78/78/78 79/79/79
f 78/78/78 80/80/80 79/79/79
f 79/79/79 80/80/80 81/81/81
f 82/82/82 76/76/76 77/77/77
f 83/83/83 82/82/82 77/77/77
f 84/84/84 78/78/78 72/72/72
f 78/78/78 84/84/84 80/80/80
f 80/80/80 85/85/85 81/81/81
f 81/81/81 85/85/85 86/86/86
f 86/86/86 87/87/87 83/83/83
f 87/87/87 82/82/82 83/83/83
f 85/85/85 87/87/87 86/86/86
f 80/80/80 88/88/88 85/85/85
f 84/84/84 88/88/88 80/80/80
f 84/84/84 89/89/89 88/88/88
f 88/88/88 90/90/90 85/85/85
f 85/85/85 90/90/90 87/87/87
f 88/88/88 89/89/89 90/90/90
f 90/90/90 91/91/91 87/87/87
f 87/87/87 91/91/91 82/82/82
f 90/90/90 89/89/89 91/91/91
f 91/91/91 92/92/92 82/82/82
f 91/91/91 89/89/89 92/92/92
f 82/82/82 92/92/92 76/76/76
f 92/92/92 93/93/93 76/76/76
f 92/92/92 89/89/89 93/93/93
f 76/76/76 93/93/93 73/73/73
f 93/93/93 94/94/94 73/73/73
f 93/93/93 89/89/89 94/94/94
f 73/73/73 94/94/94 72/72/72
f 95/95/95 84/84/84 72/72/72
f 95/95/95 89/89/89 84/84/84
f 94/94/94 95/95/95 72/72/72
f 94/94/94 89/89/89 95/95/95
f 98/98/98 97/97/97 96/96/96
f 99/99/99 97/97/97 98/98/98
f 100/100/100 99/99/99 98/98/98
f 101/101/101 99/99/99 100/100/100
f 102/102/102 101/101/101 100/100/100
f 101/101/101 103/103/103 99/99/99
f 102/102/102 104/104/104 101/101/101
f 104/104/104 103/103/103 101/101/101
f 103/103/103 105/105/105 99/99/99
f 105/105/105 103/103/103 104/104/104
f 99/99/99 105/105/105 97/97/97
f 106/106/106 104/104/104 102/102/102
f 106/106/106 105/105/105 104/104/104
f 107/107/107 106/106/106 102/102/102
f 105/105/105 108/108/108 97/97/97
f 108/108/108 105/105/105 106/106/106
f 109/109/109 106/106/106 107/107/107
f 109/109/109 108/108/108 106/106/106
f 110/110/110 109/109/109 107/107/107
f 97/97/97 108/108/108 111/111/111
f 97/97/97 111/111/111 96/96/96
f 108/108/108 112/112/112 111/111/111
f 112/112/112 108/108/108 109/109/109
f 111/111/111 112/112/112 96/96/96
f 113/113/113 109/109/109 110/110/110
f 96/96/96 113/113/113 110/110/110
f 113/113/113 112/112/112 109/109/109
f 112/112/112 113/113/113 96/96/96
f 116/116/116 115/115/115 114/114/114
f 117/117/117 114/114/114 115/115/115
f 115/115/115 116/116/116 118/118/118
f 118/118/118 117/117/117 115/115/115
f 114/114/114 119/119/119 116/116/116
f 116/116/116 120/120/120 118/118/118
f 120/120/120 116/116/116 119/119/119
f 117/117/117 121/121/121 114/114/114
f 114/114/114 122/122/122 119/119/119
f 121/121/121 122/122/122 114/114/114
f 123/123/123 117/117/117 118/118/118
f 118/118/118 120/120/120 124/124/124
f 124/124/124 123/123/123 118/118/118
f 125/125/125 121/121/121 117/117/117
f 123/123/123 125/125/125 117/117/117
f 126/126/126 120/120/120 119/119/119
f 122/122/122 127/127/127 119/119/119
f 126/126/126 119/119/119 127/127/127
f 120/120/120 128/128/128 124/124/124
f 128/128/128 120/120/120 126/126/126
f 121/121/121 129/129/129 122/122/122
f 122/122/122 130/130/130 127/127/127
f 129/129/129 130/130/130 122/122/122
f 131/131/131 127/127/127 130/130/130
f 131/131/131 126/126/126 127/127/127
f 129/129/129 131/131/131 130/130/130
f 132/132/132 129/129/129 121/121/121
f 125/125/125 132/132/132 121/121/121
f 133/133/133 126/126/126 131/131/131
f 133/133/133 128/128/128 126/126/126
f 134/134/134 131/131/131 129/129/129
f 132/132/132 134/134/134 129/129/129
f 134/134/134 133/133/133 131/131/131
f 135/135/135 123/123/123 124/124/124
f 136/136/136 125/125/125 123/123/123
f 135/135/135 136/136/136 123/123/123
f 137/137/137 124/124/124 128/128/128
f 137/137/137 135/135/135 124/124/124
f 138/138/138 137/137/137 128/128/128
f 138/138/138 128/128/128 133/133/133
f 135/135/135 137/137/137 138/138/138
f 139/139/139 138/138/138 133/133/133
f 138/138/138 139/139/139 135/135/135
f 139/139/139 133/133/133 134/134/134
f 139/139/139 136/136/136 135/135/135
f 140/140/140 139/139/139 134/134/134
f 140/140/140 134/134/134 132/132/132
f 139/139/139 140/140/140 136/136/136
f 141/141/141 132/132/132 125/125/125
f 136/136/136 141/141/141 125/125/125
f 141/141/141 140/140/140 132/132/132
f 140/140/140 141/141/141 136/136/136
