g 03_bodymesh_NPC07_skin
v 0.19292256 1.6515917 0.17987126
v 0.14748767 1.762007 0.2169072
v 0.19373895 1.7538452 0.1722986
v 0.14480546 1.6497438 0.22928712
v 0.17761067 1.5578294 0.17261833
v 0.09703015 1.7709256 0.24014403
v 0.1343693 1.5477276 0.21604644
v 0.16014567 1.4992578 0.15465224
v 0.12588349 1.4770509 0.1734995
v 0.094843924 1.6487191 0.25418147
v 0.047767647 1.775468 0.25156173
v 0.0883538 1.5381076 0.23783536
v 0.08322888 1.4598403 0.1866926
v 0.046637222 1.648283 0.26608434
v 5.1729737E-10 1.7765483 0.2563864
v 0.04356306 1.5332313 0.24804123
v 0.041019365 1.4518971 0.19358243
v 4.8315374E-10 1.6481686 0.27097252
v 4.4912293E-10 1.5319853 0.25215602
v 4.2095502E-10 1.4499726 0.1964768
v -0.041019365 1.4518971 0.19358243
v -0.04356306 1.5332313 0.24804123
v -0.08322888 1.4598403 0.1866926
v -0.046637222 1.648283 0.26608434
v -0.047767647 1.775468 0.25156173
v -0.0883538 1.5381076 0.23783536
v -0.12588349 1.4770509 0.1734995
v -0.094843924 1.6487191 0.25418147
v -0.09703015 1.7709256 0.24014403
v -0.1343693 1.5477276 0.21604644
v -0.16014567 1.4992578 0.15465224
v -0.17761067 1.5578294 0.17261833
v -0.14480546 1.6497438 0.22928712
v -0.14748767 1.762007 0.2169072
v -0.19292256 1.6515917 0.17987126
v -0.19373895 1.7538452 0.1722986
v 0.85106796 1.2849826 0.0109304385
v 0.85475844 1.2641163 0.0445649
v 0.83956325 1.2663404 0.04040395
v 0.83452564 1.2305156 0.040257674
v 0.8773659 1.2831465 0.010944428
v 0.85116065 1.2843535 -0.045713276
v 0.8476916 1.2261751 0.04367258
v 0.8423948 1.2152042 0.012345532
v 0.8283713 1.2178317 0.012431927
v 0.83974177 1.210509 -0.02074863
v 0.8281652 1.2102787 -0.020024864
v 0.8280151 1.2158581 -0.04935276
v 0.84095377 1.213945 -0.050336603
v 0.83501923 1.2306793 -0.06785427
v 0.8754521 1.2130798 -0.056114122
v 0.84825057 1.2271272 -0.070003815
v 0.85470146 1.2623898 -0.073064245
v 0.8391551 1.2643205 -0.07031112
v 0.87488526 1.208268 -0.021511318
v 0.8756313 1.2223883 -0.082218505
v 0.9005931 1.2179639 -0.09000394
v 0.87788767 1.2833215 -0.048085667
v 0.8757357 1.2520247 -0.08222289
v 0.87726945 1.2694511 -0.07128007
v 0.90074164 1.2493583 -0.0900082
v 0.90282565 1.27391 -0.066595085
v 0.90531296 1.210891 -0.060363594
v 0.9077479 1.2848487 -0.02506758
v 0.9034824 1.2724307 0.046436317
v 0.95422137 1.2734741 0.039524138
v 0.91929305 1.2493016 -0.089952596
v 0.9528585 1.2840966 -0.023954246
v 0.87701374 1.2674391 0.043027394
v 0.8708239 1.2466925 0.06401058
v 0.94689345 1.2721506 -0.0684018
v 0.8866114 1.238177 0.07928043
v 0.93813956 1.2225586 -0.09189109
v 0.94106436 1.2501498 -0.09241257
v 0.93777275 1.2133248 -0.06419232
v 0.90943354 1.2039324 -0.023005653
v 0.912343 1.1885267 0.008638763
v 0.94206506 1.2124858 -0.022622004
v 0.9545065 1.2178532 -0.0646213
v 0.87453115 1.2010111 0.00877844
v 0.8642712 1.1997138 0.023357937
v 0.89853626 1.1882652 0.024242114
v 0.86715406 1.2203127 0.05467953
v 0.88693196 1.1930013 0.04347553
v 0.8825119 1.2130493 0.069145784
v 0.91447306 1.1899472 0.037005555
v 0.90482813 1.1944075 0.05695639
v 0.89940923 1.2099221 0.08155065
v 0.90360004 1.2333364 0.09401602
v 0.9304296 1.1986489 0.023509495
v 0.9541715 1.1986384 0.062438868
v 0.9456152 1.2076615 0.021170702
v 0.93902665 1.1946007 0.07918764
v 0.96171373 1.210212 0.049932882
v 0.97391176 1.2225853 0.049852453
v 0.96556616 1.2133068 0.017841619
v 0.96263534 1.2013304 0.07196919
v 0.9598497 1.2159535 -0.022112712
v 0.9693515 1.2144825 0.0636361
v 0.9810547 1.2065388 0.08303541
v 0.9497457 1.1947097 0.08596784
v 0.9266164 1.2062899 0.096188255
v 0.9400098 1.2041793 0.10494356
v 0.9251446 1.2274947 0.106568106
v 0.9399496 1.2249774 0.114459984
v 0.9186199 1.2630897 0.07283573
v 0.9395302 1.2538966 0.08787306
v 0.92588794 1.2687759 0.056303646
v 0.9398143 1.2622979 0.059078082
v 0.9566329 1.2506495 0.061501034
v 0.9602077 1.201374 0.11893482
v 0.959288 1.221296 0.12525156
v 0.955085 1.2480534 0.09807553
v 0.96731865 1.2416109 0.06996302
v 0.9713707 1.2464734 0.058641255
v 0.9715816 1.1931349 0.09908073
v 0.9887857 1.1886928 0.10997091
v 0.9797272 1.1989114 0.12917039
v 0.97206366 1.2738663 0.040849794
v 0.97048944 1.2846457 -0.02300954
v 0.96561736 1.2730542 -0.06924234
v 0.95825577 1.2532781 -0.09347668
v 0.9548446 1.2272607 -0.09309137
v 0.9712404 1.2223817 -0.06505029
v 0.98504186 1.2474369 0.05661493
v 0.9899061 1.2742585 0.042175464
v 0.98812026 1.2851948 -0.022064824
v 0.9843413 1.2739581 -0.070082866
v 0.9754473 1.2564064 -0.09454079
v 0.97154975 1.2319628 -0.09429165
v 1.0051155 1.2603097 -0.09366497
v 1.009268 1.2392272 -0.093578465
v 0.98326653 1.232996 0.08627531
v 0.9850452 1.2280241 0.048111297
v 0.9717423 1.2431396 0.10926974
v 0.9793351 1.219196 0.13655007
v 0.99410003 1.2391167 0.12001095
v 1.0177784 1.227644 0.10738152
v 0.9808551 1.2188152 0.016675625
v 1.0131797 1.203906 0.10421772
v 1.0031065 1.1868881 0.11834847
v 0.99475515 1.1973062 0.1370602
v 0.995258 1.217198 0.14435756
v 0.9749312 1.2195483 -0.022421237
v 1.0120082 1.2309009 -0.063766435
v 1.0131646 1.2285455 -0.021160975
v 1.0090297 1.2363185 0.1284088
v 1.0153883 1.2288195 0.014604545
v 1.0178374 1.2334534 0.046507724
v 1.0147165 1.2493004 0.054506738
v 1.0155706 1.2742616 0.04102121
v 1.0119712 1.2852505 -0.021584094
v 1.0244169 1.2742625 0.040623363
v 1.0078846 1.2746181 -0.068903245
v 1.0222116 1.2852744 -0.021377672
v 1.0192637 1.2604051 -0.09359862
v 1.019402 1.2749413 -0.06832617
v 1.0220337 1.2393665 -0.0935066
v 1.0431406 1.2605389 -0.09350547
v 1.0237509 1.2310871 -0.063653745
v 1.063486 1.2398964 -0.0932329
v 1.0244998 1.2288188 -0.02104046
v 1.0624354 1.2317953 -0.063224584
v 1.0260283 1.2292074 0.014632127
v 1.0623432 1.2298586 -0.020581454
v 1.0278807 1.2339168 0.046421677
v 1.0634403 1.2306855 0.014737203
v 1.0258456 1.2495981 0.054171216
v 1.0408496 1.274264 0.040064733
v 1.0454837 1.2500163 0.05370011
v 1.0406013 1.2853078 -0.021087855
v 1.0670911 1.2356814 0.046093967
v 1.0640905 1.2742697 0.03795399
v 1.039585 1.2753946 -0.06751589
v 1.067144 1.2507325 0.052893467
v 1.0643827 1.2854209 -0.020110963
v 1.0626559 1.2607682 -0.09334599
v 1.0620505 1.2768309 -0.06494893
v 1.0802838 1.2315252 0.01420136
v 1.097226 1.2359452 0.040808126
v 1.0978311 1.2513552 0.049616847
v 1.097521 1.2737575 0.03580232
v 1.0980326 1.2843186 -0.020215057
v 1.0959357 1.276213 -0.06334397
v 1.0938579 1.2605927 -0.09114799
v 1.0772641 1.2306297 -0.020597579
v 1.0942266 1.2392851 -0.088674806
v 1.0795956 1.2324632 -0.062676154
v 1.1072847 1.2335494 -0.061947547
v 1.1106981 1.2317989 -0.02115865
v 1.109502 1.232636 0.012623363
v 1.1398104 1.2721703 -0.021692827
v 1.1324457 1.2662926 -0.05897228
v 1.1200093 1.2595931 -0.08463335
v 1.1186061 1.2426164 -0.08493908
v 1.1393994 1.2565863 -0.06061143
v 1.1316239 1.2365927 -0.059688874
v 1.1430947 1.2354097 -0.022362536
v 1.1508693 1.2524474 -0.022301242
v 1.1384681 1.2341449 0.0072859777
v 1.1420695 1.252002 0.015123872
v 1.1303376 1.2374051 0.032965757
v 1.1276394 1.251549 0.038903754
v 1.1334106 1.2651184 0.023584383
v -0.85106796 1.2849826 0.0109304385
v -0.83956325 1.2663404 0.04040395
v -0.85475844 1.2641163 0.0445649
v -0.83452564 1.2305156 0.040257674
v -0.8773659 1.2831465 0.010944428
v -0.85116065 1.2843535 -0.045713276
v -0.8476916 1.2261751 0.04367258
v -0.8423948 1.2152042 0.012345532
v -0.8283713 1.2178317 0.012431927
v -0.83974177 1.210509 -0.02074863
v -0.8281652 1.2102787 -0.020024864
v -0.8280151 1.2158581 -0.04935276
v -0.84095377 1.213945 -0.050336603
v -0.83501923 1.2306793 -0.06785427
v -0.8754521 1.2130798 -0.056114122
v -0.84825057 1.2271272 -0.070003815
v -0.85470146 1.2623898 -0.073064245
v -0.8391551 1.2643205 -0.07031112
v -0.87488526 1.208268 -0.021511318
v -0.8756313 1.2223883 -0.082218505
v -0.9005931 1.2179639 -0.09000394
v -0.87788767 1.2833215 -0.048085667
v -0.8757357 1.2520247 -0.08222289
v -0.87726945 1.2694511 -0.07128007
v -0.90074164 1.2493583 -0.0900082
v -0.90282565 1.27391 -0.066595085
v -0.90531296 1.210891 -0.060363594
v -0.9077479 1.2848487 -0.02506758
v -0.9034824 1.2724307 0.046436317
v -0.95422137 1.2734741 0.039524138
v -0.91929305 1.2493016 -0.089952596
v -0.9528585 1.2840966 -0.023954246
v -0.87701374 1.2674391 0.043027394
v -0.8708239 1.2466925 0.06401058
v -0.94689345 1.2721506 -0.0684018
v -0.8866114 1.238177 0.07928043
v -0.93813956 1.2225586 -0.09189109
v -0.94106436 1.2501498 -0.09241257
v -0.93777275 1.2133248 -0.06419232
v -0.90943354 1.2039324 -0.023005653
v -0.912343 1.1885267 0.008638763
v -0.94206506 1.2124858 -0.022622004
v -0.9545065 1.2178532 -0.0646213
v -0.87453115 1.2010111 0.00877844
v -0.8642712 1.1997138 0.023357937
v -0.89853626 1.1882652 0.024242114
v -0.86715406 1.2203127 0.05467953
v -0.88693196 1.1930013 0.04347553
v -0.8825119 1.2130493 0.069145784
v -0.91447306 1.1899472 0.037005555
v -0.90482813 1.1944075 0.05695639
v -0.89940923 1.2099221 0.08155065
v -0.90360004 1.2333364 0.09401602
v -0.9304296 1.1986489 0.023509495
v -0.9541715 1.1986384 0.062438868
v -0.9456152 1.2076615 0.021170702
v -0.93902665 1.1946007 0.07918764
v -0.96171373 1.210212 0.049932882
v -0.97391176 1.2225853 0.049852453
v -0.96556616 1.2133068 0.017841619
v -0.96263534 1.2013304 0.07196919
v -0.9598497 1.2159535 -0.022112712
v -0.9693515 1.2144825 0.0636361
v -0.9810547 1.2065388 0.08303541
v -0.9497457 1.1947097 0.08596784
v -0.9266164 1.2062899 0.096188255
v -0.9400098 1.2041793 0.10494356
v -0.9251446 1.2274947 0.106568106
v -0.9399496 1.2249774 0.114459984
v -0.9186199 1.2630897 0.07283573
v -0.9395302 1.2538966 0.08787306
v -0.92588794 1.2687759 0.056303646
v -0.9398143 1.2622979 0.059078082
v -0.9566329 1.2506495 0.061501034
v -0.9602077 1.201374 0.11893482
v -0.959288 1.221296 0.12525156
v -0.955085 1.2480534 0.09807553
v -0.96731865 1.2416109 0.06996302
v -0.9713707 1.2464734 0.058641255
v -0.9715816 1.1931349 0.09908073
v -0.9887857 1.1886928 0.10997091
v -0.9797272 1.1989114 0.12917039
v -0.97206366 1.2738663 0.040849794
v -0.97048944 1.2846457 -0.02300954
v -0.96561736 1.2730542 -0.06924234
v -0.95825577 1.2532781 -0.09347668
v -0.9548446 1.2272607 -0.09309137
v -0.9712404 1.2223817 -0.06505029
v -0.98504186 1.2474369 0.05661493
v -0.9899061 1.2742585 0.042175464
v -0.98812026 1.2851948 -0.022064824
v -0.9843413 1.2739581 -0.070082866
v -0.9754473 1.2564064 -0.09454079
v -0.97154975 1.2319628 -0.09429165
v -1.0051155 1.2603097 -0.09366497
v -1.009268 1.2392272 -0.093578465
v -0.98326653 1.232996 0.08627531
v -0.9850452 1.2280241 0.048111297
v -0.9717423 1.2431396 0.10926974
v -0.9793351 1.219196 0.13655007
v -0.99410003 1.2391167 0.12001095
v -1.0177784 1.227644 0.10738152
v -0.9808551 1.2188152 0.016675625
v -1.0131797 1.203906 0.10421772
v -1.0031065 1.1868881 0.11834847
v -0.99475515 1.1973062 0.1370602
v -0.995258 1.217198 0.14435756
v -0.9749312 1.2195483 -0.022421237
v -1.0120082 1.2309009 -0.063766435
v -1.0131646 1.2285455 -0.021160975
v -1.0090297 1.2363185 0.1284088
v -1.0153883 1.2288195 0.014604545
v -1.0178374 1.2334534 0.046507724
v -1.0147165 1.2493004 0.054506738
v -1.0155706 1.2742616 0.04102121
v -1.0119712 1.2852505 -0.021584094
v -1.0244169 1.2742625 0.040623363
v -1.0078846 1.2746181 -0.068903245
v -1.0222116 1.2852744 -0.021377672
v -1.0192637 1.2604051 -0.09359862
v -1.019402 1.2749413 -0.06832617
v -1.0220337 1.2393665 -0.0935066
v -1.0431406 1.2605389 -0.09350547
v -1.0237509 1.2310871 -0.063653745
v -1.063486 1.2398964 -0.0932329
v -1.0244998 1.2288188 -0.02104046
v -1.0624354 1.2317953 -0.063224584
v -1.0260283 1.2292074 0.014632127
v -1.0623432 1.2298586 -0.020581454
v -1.0278807 1.2339168 0.046421677
v -1.0634403 1.2306855 0.014737203
v -1.0258456 1.2495981 0.054171216
v -1.0408496 1.274264 0.040064733
v -1.0454837 1.2500163 0.05370011
v -1.0406013 1.2853078 -0.021087855
v -1.0670911 1.2356814 0.046093967
v -1.0640905 1.2742697 0.03795399
v -1.039585 1.2753946 -0.06751589
v -1.067144 1.2507325 0.052893467
v -1.0643827 1.2854209 -0.020110963
v -1.0626559 1.2607682 -0.09334599
v -1.0620505 1.2768309 -0.06494893
v -1.0802838 1.2315252 0.01420136
v -1.097226 1.2359452 0.040808126
v -1.0978311 1.2513552 0.049616847
v -1.097521 1.2737575 0.03580232
v -1.0980326 1.2843186 -0.020215057
v -1.0959357 1.276213 -0.06334397
v -1.0938579 1.2605927 -0.09114799
v -1.0772641 1.2306297 -0.020597579
v -1.0942266 1.2392851 -0.088674806
v -1.0795956 1.2324632 -0.062676154
v -1.1072847 1.2335494 -0.061947547
v -1.1106981 1.2317989 -0.02115865
v -1.109502 1.232636 0.012623363
v -1.1398104 1.2721703 -0.021692827
v -1.1324457 1.2662926 -0.05897228
v -1.1200093 1.2595931 -0.08463335
v -1.1186061 1.2426164 -0.08493908
v -1.1393994 1.2565863 -0.06061143
v -1.1316239 1.2365927 -0.059688874
v -1.1430947 1.2354097 -0.022362536
v -1.1508693 1.2524474 -0.022301242
v -1.1384681 1.2341449 0.0072859777
v -1.1420695 1.252002 0.015123872
v -1.1303376 1.2374051 0.032965757
v -1.1276394 1.251549 0.038903754
v -1.1334106 1.2651184 0.023584383
v 0.17613527 1.4892168 0.09242671
v 0.16014567 1.4992578 0.15465224
v 0.17761067 1.5578294 0.17261833
v 0.12588349 1.4770509 0.1734995
v 0.21176006 1.5596632 0.09738311
v 0.19292256 1.6515917 0.17987126
v 0.13145384 1.4470074 0.09582598
v 0.08322888 1.4598403 0.1866926
v 0.1909098 1.4920952 0.0028897715
v 0.2326418 1.6546247 0.09961882
v 0.19373895 1.7538452 0.1722986
v 0.08497986 1.4248106 0.09974124
v 0.041019365 1.4518971 0.19358243
v 0.2315017 1.5638225 0.0032731562
v 0.14119366 1.4476683 2.6191594E-05
v 0.041384026 1.4160538 0.10248395
v 4.2095502E-10 1.4499726 0.1964768
v 0.19287735 1.507362 -0.08156848
v 0.0904872 1.4254589 -0.003347378
v 0.14630312 1.4695742 -0.089032516
v 0.2535576 1.6575334 0.0017400837
v 0.2282288 1.5711546 -0.08703885
v 0.18583739 1.526497 -0.13765536
v 0.22979537 1.7582585 0.09599161
v 4.0199266E-10 1.4141858 0.103961535
v 0.043749124 1.4171402 -0.005000205
v 0.09528616 1.4495316 -0.09893174
v 0.15012258 1.5096258 -0.15763299
v 0.20392817 1.5771985 -0.15731262
v 0.24729162 1.6571879 -0.09367141
v 0.2490797 1.7600805 -0.0004370336
v -0.041384026 1.4160538 0.10248395
v -0.041019365 1.4518971 0.19358243
v -0.08497986 1.4248106 0.09974124
v -0.08322888 1.4598403 0.1866926
v -0.13145384 1.4470074 0.09582598
v -0.12588349 1.4770509 0.1734995
v -0.17613527 1.4892168 0.09242671
v -0.16014567 1.4992578 0.15465224
v -0.17761067 1.5578294 0.17261833
v -0.21176006 1.5596632 0.09738311
v -0.19292256 1.6515917 0.17987126
v -0.1909098 1.4920952 0.0028897715
v -0.14119366 1.4476683 2.6191565E-05
v -0.0904872 1.4254589 -0.003347378
v -0.043749124 1.4171402 -0.005000205
v -0.2326418 1.6546247 0.09961882
v -0.19373895 1.7538452 0.1722986
v -0.2315017 1.5638225 0.0032731562
v -0.19287735 1.507362 -0.08156848
v -0.14630312 1.4695742 -0.089032516
v 3.917007E-10 1.4155934 -0.005273257
v -0.09528616 1.4495316 -0.09893174
v 0.046506643 1.4417834 -0.10511625
v -0.046506643 1.4417834 -0.10511625
v 0.10075618 1.4954844 -0.17526028
v 3.8856784E-10 1.440378 -0.107533164
v 0.16110799 1.5718439 -0.20104699
v 0.049924143 1.4889483 -0.1856997
v 0.2169354 1.6563013 -0.17098661
v 0.108464256 1.564376 -0.22679514
v 0.24315743 1.7530646 -0.09496373
v 0.16982624 1.6559718 -0.22198147
v 0.21543434 1.7457874 -0.16938956
v -0.049924143 1.4889483 -0.1856997
v 3.9357947E-10 1.4876351 -0.19017905
v 0.05409096 1.560382 -0.2404709
v 0.11424241 1.6558473 -0.25112513
v 0.16985895 1.7531282 -0.21673383
v -0.10075618 1.4954844 -0.17526028
v -0.15012258 1.5096258 -0.15763299
v -0.18583739 1.526497 -0.13765536
v -0.2282288 1.5711546 -0.08703885
v -0.20392817 1.5771985 -0.15731262
v -0.16110799 1.5718439 -0.20104699
v -0.108464256 1.564376 -0.22679514
v -0.2535576 1.6575334 0.0017400837
v -0.24729162 1.6571879 -0.09367141
v -0.2169354 1.6563013 -0.17098661
v -0.22979537 1.7582585 0.09599161
v -0.2490797 1.7600805 -0.00043703365
v -0.05409096 1.560382 -0.2404709
v -0.16982624 1.6559718 -0.22198147
v -0.24315743 1.7530646 -0.09496373
v 4.0798784E-10 1.5594823 -0.24640487
v -0.11424241 1.6558473 -0.25112513
v -0.21543434 1.7457874 -0.16938956
v 0.05704078 1.6557391 -0.26645216
v -0.05704078 1.6557391 -0.26645216
v -0.16985895 1.7531282 -0.21673383
v 0.11426547 1.7626395 -0.24496742
v 4.3201961E-10 1.655654 -0.27313957
v -0.11426547 1.7626395 -0.24496742
v 0.056964092 1.7675903 -0.26018095
v -0.056964092 1.7675903 -0.26018095
v 4.6393894E-10 1.7686633 -0.26692182
v -0.20412138 1.8134894 -0.15609926
v -0.1656388 1.8392512 -0.18057857
v -0.21579662 1.8370967 -0.09528354
v -0.110882506 1.8610513 -0.20183858
v -0.21767941 1.8512392 -0.0035150845
v -0.1666455 1.8934927 -0.106843196
v -0.054716423 1.8713391 -0.21471465
v -0.20369655 1.8465555 0.09046884
v -0.16475704 1.9150983 -0.007723983
v -0.1077815 1.9269286 -0.11954302
v -0.18498668 1.8270917 0.15427393
v -0.15619639 1.9043078 0.0945629
v -0.1475777 1.8542541 0.17445283
v -0.14748767 1.762007 0.2169072
v -0.104488865 1.951637 -0.011834495
v -0.05194977 1.9412761 -0.1279443
v -0.10037126 1.9372692 0.09961093
v -0.097478285 1.875449 0.18958029
v -0.09703015 1.7709256 0.24014403
v -0.04960653 1.9671309 -0.014534316
v 4.9755655E-10 1.8736409 -0.22058104
v -0.047730118 1.8850949 0.19799529
v -0.047767647 1.775468 0.25156173
v -0.0481694 1.9511275 0.10288647
v 5.2586957E-10 1.9445184 -0.13186832
v 0.054716423 1.8713391 -0.21471465
v 5.426335E-10 1.8873005 0.20167877
v 5.1729737E-10 1.7765483 0.2563864
v 0.047767647 1.775468 0.25156173
v 5.444611E-10 1.9706558 -0.015805708
v 5.5167526E-10 1.954277 0.104373716
v 0.047730118 1.8850949 0.19799529
v 0.09703015 1.7709256 0.24014403
v 0.05194977 1.9412761 -0.1279443
v 0.1108825 1.8610513 -0.20183857
v 0.04960653 1.9671309 -0.014534316
v 0.0481694 1.9511275 0.10288647
v 0.097478285 1.875449 0.18958029
v 0.14748767 1.762007 0.2169072
v 0.1077815 1.9269286 -0.11954302
v 0.1656388 1.8392512 -0.18057857
v 0.104488865 1.951637 -0.011834495
v 0.10037126 1.9372692 0.09961093
v 0.1475777 1.8542541 0.17445283
v 0.1666455 1.8934927 -0.106843196
v 0.20412138 1.8134894 -0.15609926
v 0.21579662 1.8370967 -0.09528354
v 0.21767941 1.8512392 -0.0035150845
v 0.16475704 1.9150983 -0.007723983
v 0.20369655 1.8465555 0.09046884
v 0.15619639 1.9043078 0.0945629
v 0.18498668 1.8270917 0.15427393
v 0.025384594 1.3757828 0.047796708
v 2.2974332E-21 1.3605967 0.060577467
v 1.9091185E-21 1.3745568 0.05033856
v 1.9306892E-21 1.3969259 0.050907325
v -0.025384594 1.3757828 0.047796708
v 0.023969237 1.3968891 0.047539435
v 0.045449983 1.3875276 0.039183874
v -0.023969237 1.3968891 0.047539435
v -0.045449983 1.3875276 0.039183874
v 0.04439467 1.3965964 0.038648758
v 0.06063776 1.3966982 0.025064569
v 0.041619364 1.4232492 0.039062373
v 0.022848738 1.423218 0.048041075
v -0.04439467 1.3965964 0.038648758
v -0.06063776 1.3966982 0.025064569
v -0.041619364 1.4232492 0.039062373
v -0.022848738 1.423218 0.048041075
v 0.056500424 1.4233117 0.025065478
v 0.06782039 1.4068551 0.009503872
v 1.9401564E-21 1.4225992 0.051156946
v -0.056500424 1.4233117 0.025065478
v -0.06782039 1.4068551 0.009503872
v 0.065000065 1.423434 0.009435845
v 0.07277474 1.4147961 -0.005274598
v -0.065000065 1.423434 0.009435845
v -0.07277474 1.4147961 -0.005274598
v 0.07110426 1.4233364 -0.005206345
v 0.07070639 1.420892 -0.020921633
v -0.07110426 1.4233364 -0.005206345
v -0.07070639 1.420892 -0.020921633
v -0.04083229 1.4616492 0.041447163
v -0.023050373 1.4615871 0.049566694
v -0.056797467 1.4617844 0.0288382
v -0.06631867 1.461973 0.01285138
v -0.0708703 1.4619004 -0.0031667014
v -0.070867084 1.4616804 -0.019532468
v -0.06631402 1.461471 -0.035502084
v -0.0627962 1.4229696 -0.03651209
v -0.056796543 1.4612775 -0.051354446
v -0.053302784 1.4228461 -0.051183544
v -0.04083229 1.461143 -0.063870534
v -0.03739806 1.422802 -0.06363567
v -0.023050377 1.4610873 -0.071956195
v -0.019657621 1.4228004 -0.07170656
v -2.848619E-21 1.4611162 -0.07511135
v -2.839152E-21 1.4228271 -0.07486172
v 0.019657621 1.4228004 -0.07170656
v 0.023050377 1.4610873 -0.071956195
v 0.03739806 1.422802 -0.06363567
v 0.04083229 1.461143 -0.063870534
v 0.053302784 1.4228461 -0.051183544
v 0.056796543 1.4612775 -0.051354446
v 0.0627962 1.4229696 -0.03651209
v 0.06631402 1.461471 -0.035502084
v 0.070867084 1.4616804 -0.019532468
v 0.0708703 1.4619004 -0.0031667014
v 0.06631867 1.461973 0.01285138
v 0.056797467 1.4617844 0.0288382
v 0.04083229 1.4616492 0.041447163
v 0.023050373 1.4615871 0.049566694
v 1.9306892E-21 1.4616239 0.050907314
v 1.0120196 1.2145872 0.1530287
v 1.0266345 1.2330507 0.13826105
v 1.0118673 1.1933637 0.14715827
v 1.0346048 1.2241063 0.11712046
v 1.0207841 1.18286 0.12825978
v 1.0301806 1.1999869 0.11295123
v 1.0255162 1.1947788 0.15245652
v 1.0250158 1.2100768 0.15636751
v 1.0384998 1.1875104 0.13861588
v 1.0417966 1.2220613 0.14552373
v 1.0435535 1.2019851 0.12222664
v 1.0447071 1.2175995 0.12627718
v -1.0120196 1.2145872 0.1530287
v -1.0266345 1.2330507 0.13826105
v -1.0118673 1.1933637 0.14715827
v -1.0346048 1.2241063 0.11712046
v -1.0207841 1.18286 0.12825978
v -1.0301806 1.1999869 0.11295123
v -1.0255162 1.1947788 0.15245652
v -1.0250158 1.2100768 0.15636751
v -1.0384998 1.1875104 0.13861588
v -1.0417966 1.2220613 0.14552373
v -1.0435535 1.2019851 0.12222664
v -1.0447071 1.2175995 0.12627718
vt 0.7402344 0.8935547
vt 0.7138672 0.95751953
vt 0.74072266 0.9526367
vt 0.71240234 0.8925781
vt 0.7314453 0.83984375
vt 0.6845703 0.96240234
vt 0.7060547 0.8339844
vt 0.7211914 0.80566406
vt 0.7011719 0.79296875
vt 0.68359375 0.89208984
vt 0.65625 0.96533203
vt 0.6796875 0.828125
vt 0.6767578 0.7832031
vt 0.6557617 0.89160156
vt 0.62890625 0.9658203
vt 0.6538086 0.8256836
vt 0.65234375 0.7783203
vt 0.62890625 0.89160156
vt 0.62890625 0.82470703
vt 0.62890625 0.77734375
vt 0.60498047 0.7783203
vt 0.6035156 0.8256836
vt 0.5805664 0.7832031
vt 0.6020508 0.89160156
vt 0.6010742 0.96533203
vt 0.5776367 0.828125
vt 0.55615234 0.79296875
vt 0.57421875 0.89208984
vt 0.5727539 0.96240234
vt 0.55126953 0.8339844
vt 0.5366211 0.80566406
vt 0.5263672 0.83984375
vt 0.54541016 0.8925781
vt 0.54345703 0.95751953
vt 0.5175781 0.8935547
vt 0.51708984 0.9526367
vt 0.52490234 0.7807617
vt 0.52490234 0.7807617
vt 0.52490234 0.7807617
vt 0.52490234 0.7807617
vt 0.52490234 0.7807617
vt 0.52490234 0.7807617
vt 0.52490234 0.7807617
vt 0.52490234 0.7807617
vt 0.52490234 0.7807617
vt 0.52490234 0.7807617
vt 0.52490234 0.7807617
vt 0.52490234 0.7807617
vt 0.52490234 0.7807617
vt 0.52490234 0.7807617
vt 0.52490234 0.7807617
vt 0.52490234 0.7807617
vt 0.52490234 0.7807617
vt 0.52490234 0.7807617
vt 0.52490234 0.7807617
vt 0.52490234 0.7807617
vt 0.52490234 0.7807617
vt 0.52490234 0.7807617
vt 0.52490234 0.7807617
vt 0.52490234 0.7807617
vt 0.52490234 0.7807617
vt 0.52490234 0.7807617
vt 0.52490234 0.7807617
vt 0.52490234 0.7807617
vt 0.52490234 0.7807617
vt 0.52490234 0.7807617
vt 0.52490234 0.7807617
vt 0.52490234 0.7807617
vt 0.52490234 0.7807617
vt 0.52490234 0.7807617
vt 0.52490234 0.7807617
vt 0.52490234 0.7807617
vt 0.52490234 0.7807617
vt 0.52490234 0.7807617
vt 0.52490234 0.7807617
vt 0.52490234 0.7807617
vt 0.52490234 0.7807617
vt 0.52490234 0.7807617
vt 0.52490234 0.7807617
vt 0.52490234 0.7807617
vt 0.52490234 0.7807617
vt 0.52490234 0.7807617
vt 0.52490234 0.7807617
vt 0.52490234 0.7807617
vt 0.52490234 0.7807617
vt 0.52490234 0.7807617
vt 0.52490234 0.7807617
vt 0.52490234 0.7807617
vt 0.52490234 0.7807617
vt 0.52490234 0.7807617
vt 0.52490234 0.7807617
vt 0.52490234 0.7807617
vt 0.52490234 0.7807617
vt 0.52490234 0.7807617
vt 0.52490234 0.7807617
vt 0.52490234 0.7807617
vt 0.52490234 0.7807617
vt 0.52490234 0.7807617
vt 0.52490234 0.7807617
vt 0.52490234 0.7807617
vt 0.52490234 0.7807617
vt 0.52490234 0.7807617
vt 0.52490234 0.7807617
vt 0.52490234 0.7807617
vt 0.52490234 0.7807617
vt 0.52490234 0.7807617
vt 0.52490234 0.7807617
vt 0.52490234 0.7807617
vt 0.52490234 0.7807617
vt 0.52490234 0.7807617
vt 0.52490234 0.7807617
vt 0.52490234 0.7807617
vt 0.52490234 0.7807617
vt 0.52490234 0.7807617
vt 0.52490234 0.7807617
vt 0.52490234 0.7807617
vt 0.52490234 0.7807617
vt 0.52490234 0.7807617
vt 0.52490234 0.7807617
vt 0.52490234 0.7807617
vt 0.52490234 0.7807617
vt 0.52490234 0.7807617
vt 0.52490234 0.7807617
vt 0.52490234 0.7807617
vt 0.52490234 0.7807617
vt 0.52490234 0.7807617
vt 0.52490234 0.7807617
vt 0.52490234 0.7807617
vt 0.52490234 0.7807617
vt 0.52490234 0.7807617
vt 0.52490234 0.7807617
vt 0.52490234 0.7807617
vt 0.52490234 0.7807617
vt 0.52490234 0.7807617
vt 0.52490234 0.7807617
vt 0.52490234 0.7807617
vt 0.52490234 0.7807617
vt 0.52490234 0.7807617
vt 0.52490234 0.7807617
vt 0.52490234 0.7807617
vt 0.52490234 0.7807617
vt 0.52490234 0.7807617
vt 0.52490234 0.7807617
vt 0.52490234 0.7807617
vt 0.52490234 0.7807617
vt 0.52490234 0.7807617
vt 0.52490234 0.7807617
vt 0.52490234 0.7807617
vt 0.52490234 0.7807617
vt 0.52490234 0.7807617
vt 0.52490234 0.7807617
vt 0.52490234 0.7807617
vt 0.52490234 0.7807617
vt 0.52490234 0.7807617
vt 0.52490234 0.7807617
vt 0.52490234 0.7807617
vt 0.52490234 0.7807617
vt 0.52490234 0.7807617
vt 0.52490234 0.7807617
vt 0.52490234 0.7807617
vt 0.52490234 0.7807617
vt 0.52490234 0.7807617
vt 0.52490234 0.7807617
vt 0.52490234 0.7807617
vt 0.52490234 0.7807617
vt 0.52490234 0.7807617
vt 0.52490234 0.7807617
vt 0.52490234 0.7807617
vt 0.52490234 0.7807617
vt 0.52490234 0.7807617
vt 0.52490234 0.7807617
vt 0.52490234 0.7807617
vt 0.52490234 0.7807617
vt 0.52490234 0.7807617
vt 0.52490234 0.7807617
vt 0.52490234 0.7807617
vt 0.52490234 0.7807617
vt 0.52490234 0.7807617
vt 0.52490234 0.7807617
vt 0.52490234 0.7807617
vt 0.52490234 0.7807617
vt 0.52490234 0.7807617
vt 0.52490234 0.7807617
vt 0.52490234 0.7807617
vt 0.52490234 0.7807617
vt 0.52490234 0.7807617
vt 0.52490234 0.7807617
vt 0.52490234 0.7807617
vt 0.52490234 0.7807617
vt 0.52490234 0.7807617
vt 0.52490234 0.7807617
vt 0.52490234 0.7807617
vt 0.52490234 0.7807617
vt 0.52490234 0.7807617
vt 0.52490234 0.7807617
vt 0.52490234 0.7807617
vt 0.52490234 0.7807617
vt 0.52490234 0.7807617
vt 0.52490234 0.7807617
vt 0.52490234 0.7807617
vt 0.52490234 0.7807617
vt 0.52490234 0.7807617
vt 0.52490234 0.7807617
vt 0.52490234 0.7807617
vt 0.52490234 0.7807617
vt 0.52490234 0.7807617
vt 0.52490234 0.7807617
vt 0.52490234 0.7807617
vt 0.52490234 0.7807617
vt 0.52490234 0.7807617
vt 0.52490234 0.7807617
vt 0.52490234 0.7807617
vt 0.52490234 0.7807617
vt 0.52490234 0.7807617
vt 0.52490234 0.7807617
vt 0.52490234 0.7807617
vt 0.52490234 0.7807617
vt 0.52490234 0.7807617
vt 0.52490234 0.7807617
vt 0.52490234 0.7807617
vt 0.52490234 0.7807617
vt 0.52490234 0.7807617
vt 0.52490234 0.7807617
vt 0.52490234 0.7807617
vt 0.52490234 0.7807617
vt 0.52490234 0.7807617
vt 0.52490234 0.7807617
vt 0.52490234 0.7807617
vt 0.52490234 0.7807617
vt 0.52490234 0.7807617
vt 0.52490234 0.7807617
vt 0.52490234 0.7807617
vt 0.52490234 0.7807617
vt 0.52490234 0.7807617
vt 0.52490234 0.7807617
vt 0.52490234 0.7807617
vt 0.52490234 0.7807617
vt 0.52490234 0.7807617
vt 0.52490234 0.7807617
vt 0.52490234 0.7807617
vt 0.52490234 0.7807617
vt 0.52490234 0.7807617
vt 0.52490234 0.7807617
vt 0.52490234 0.7807617
vt 0.52490234 0.7807617
vt 0.52490234 0.7807617
vt 0.52490234 0.7807617
vt 0.52490234 0.7807617
vt 0.52490234 0.7807617
vt 0.52490234 0.7807617
vt 0.52490234 0.7807617
vt 0.52490234 0.7807617
vt 0.52490234 0.7807617
vt 0.52490234 0.7807617
vt 0.52490234 0.7807617
vt 0.52490234 0.7807617
vt 0.52490234 0.7807617
vt 0.52490234 0.7807617
vt 0.52490234 0.7807617
vt 0.52490234 0.7807617
vt 0.52490234 0.7807617
vt 0.52490234 0.7807617
vt 0.52490234 0.7807617
vt 0.52490234 0.7807617
vt 0.52490234 0.7807617
vt 0.52490234 0.7807617
vt 0.52490234 0.7807617
vt 0.52490234 0.7807617
vt 0.52490234 0.7807617
vt 0.52490234 0.7807617
vt 0.52490234 0.7807617
vt 0.52490234 0.7807617
vt 0.52490234 0.7807617
vt 0.52490234 0.7807617
vt 0.52490234 0.7807617
vt 0.52490234 0.7807617
vt 0.52490234 0.7807617
vt 0.52490234 0.7807617
vt 0.52490234 0.7807617
vt 0.52490234 0.7807617
vt 0.52490234 0.7807617
vt 0.52490234 0.7807617
vt 0.52490234 0.7807617
vt 0.52490234 0.7807617
vt 0.52490234 0.7807617
vt 0.52490234 0.7807617
vt 0.52490234 0.7807617
vt 0.52490234 0.7807617
vt 0.52490234 0.7807617
vt 0.52490234 0.7807617
vt 0.52490234 0.7807617
vt 0.52490234 0.7807617
vt 0.52490234 0.7807617
vt 0.52490234 0.7807617
vt 0.52490234 0.7807617
vt 0.52490234 0.7807617
vt 0.52490234 0.7807617
vt 0.52490234 0.7807617
vt 0.52490234 0.7807617
vt 0.52490234 0.7807617
vt 0.52490234 0.7807617
vt 0.52490234 0.7807617
vt 0.52490234 0.7807617
vt 0.52490234 0.7807617
vt 0.52490234 0.7807617
vt 0.52490234 0.7807617
vt 0.52490234 0.7807617
vt 0.52490234 0.7807617
vt 0.52490234 0.7807617
vt 0.52490234 0.7807617
vt 0.52490234 0.7807617
vt 0.52490234 0.7807617
vt 0.52490234 0.7807617
vt 0.52490234 0.7807617
vt 0.52490234 0.7807617
vt 0.52490234 0.7807617
vt 0.52490234 0.7807617
vt 0.52490234 0.7807617
vt 0.52490234 0.7807617
vt 0.52490234 0.7807617
vt 0.52490234 0.7807617
vt 0.52490234 0.7807617
vt 0.52490234 0.7807617
vt 0.52490234 0.7807617
vt 0.52490234 0.7807617
vt 0.52490234 0.7807617
vt 0.52490234 0.7807617
vt 0.52490234 0.7807617
vt 0.52490234 0.7807617
vt 0.52490234 0.7807617
vt 0.52490234 0.7807617
vt 0.52490234 0.7807617
vt 0.52490234 0.7807617
vt 0.52490234 0.7807617
vt 0.52490234 0.7807617
vt 0.52490234 0.7807617
vt 0.52490234 0.7807617
vt 0.52490234 0.7807617
vt 0.52490234 0.7807617
vt 0.52490234 0.7807617
vt 0.52490234 0.7807617
vt 0.52490234 0.7807617
vt 0.52490234 0.7807617
vt 0.52490234 0.7807617
vt 0.52490234 0.7807617
vt 0.52490234 0.7807617
vt 0.52490234 0.7807617
vt 0.52490234 0.7807617
vt 0.52490234 0.7807617
vt 0.52490234 0.7807617
vt 0.52490234 0.7807617
vt 0.52490234 0.7807617
vt 0.52490234 0.7807617
vt 0.52490234 0.7807617
vt 0.52490234 0.7807617
vt 0.52490234 0.7807617
vt 0.52490234 0.7807617
vt 0.52490234 0.7807617
vt 0.52490234 0.7807617
vt 0.52490234 0.7807617
vt 0.52490234 0.7807617
vt 0.52490234 0.7807617
vt 0.52490234 0.7807617
vt 0.52490234 0.7807617
vt 0.52490234 0.7807617
vt 0.52490234 0.7807617
vt 0.52490234 0.7807617
vt 0.52490234 0.7807617
vt 0.52490234 0.7807617
vt 0.52490234 0.7807617
vt 0.52490234 0.7807617
vt 0.52490234 0.7807617
vt 0.52490234 0.7807617
vt 0.52490234 0.7807617
vt 0.52490234 0.7807617
vt 0.52490234 0.7807617
vt 0.52490234 0.7807617
vt 0.52490234 0.7807617
vt 0.52490234 0.7807617
vt 0.52490234 0.7807617
vt 0.52490234 0.7807617
vt 0.52490234 0.7807617
vt 0.52490234 0.7807617
vt 0.52490234 0.7807617
vt 0.52490234 0.7807617
vt 0.52490234 0.7807617
vt 0.52490234 0.7807617
vt 0.52490234 0.7807617
vt 0.52490234 0.7807617
vt 0.52490234 0.7807617
vt 0.52490234 0.7807617
vt 0.52490234 0.7807617
vt 0.52490234 0.7807617
vt 0.52490234 0.7807617
vt 0.52490234 0.7807617
vt 0.52490234 0.7807617
vt 0.52490234 0.7807617
vt 0.52490234 0.7807617
vt 0.52490234 0.7807617
vt 0.52490234 0.7807617
vt 0.52490234 0.7807617
vt 0.52490234 0.7807617
vt 0.52490234 0.7807617
vt 0.52490234 0.7807617
vt 0.52490234 0.7807617
vt 0.52490234 0.7807617
vt 0.52490234 0.7807617
vt 0.52490234 0.7807617
vt 0.52490234 0.7807617
vt 0.52490234 0.7807617
vt 0.52490234 0.7807617
vt 0.52490234 0.7807617
vt 0.52490234 0.7807617
vt 0.52490234 0.7807617
vt 0.52490234 0.7807617
vt 0.52490234 0.7807617
vt 0.52490234 0.7807617
vt 0.52490234 0.7807617
vt 0.52490234 0.7807617
vt 0.52490234 0.7807617
vt 0.52490234 0.7807617
vt 0.52490234 0.7807617
vt 0.52490234 0.7807617
vt 0.52490234 0.7807617
vt 0.52490234 0.7807617
vt 0.52490234 0.7807617
vt 0.52490234 0.7807617
vt 0.52490234 0.7807617
vt 0.52490234 0.7807617
vt 0.52490234 0.7807617
vt 0.52490234 0.7807617
vt 0.52490234 0.7807617
vt 0.52490234 0.7807617
vt 0.52490234 0.7807617
vt 0.52490234 0.7807617
vt 0.52490234 0.7807617
vt 0.52490234 0.7807617
vt 0.52490234 0.7807617
vt 0.52490234 0.7807617
vt 0.52490234 0.7807617
vt 0.52490234 0.7807617
vt 0.52490234 0.7807617
vt 0.52490234 0.7807617
vt 0.52490234 0.7807617
vt 0.52490234 0.7807617
vt 0.52490234 0.7807617
vt 0.52490234 0.7807617
vt 0.52490234 0.7807617
vt 0.52490234 0.7807617
vt 0.52490234 0.7807617
vt 0.52490234 0.7807617
vt 0.52490234 0.7807617
vt 0.52490234 0.7807617
vt 0.52490234 0.7807617
vt 0.52490234 0.7807617
vt 0.52490234 0.7807617
vt 0.52490234 0.7807617
vt 0.52490234 0.7807617
vt 0.52490234 0.7807617
vt 0.52490234 0.7807617
vt 0.52490234 0.7807617
vt 0.52490234 0.7807617
vt 0.52490234 0.7807617
vt 0.52490234 0.7807617
vt 0.52490234 0.7807617
vt 0.52490234 0.7807617
vt 0.52490234 0.7807617
vt 0.52490234 0.7807617
vt 0.52490234 0.7807617
vt 0.52490234 0.7807617
vt 0.52490234 0.7807617
vt 0.52490234 0.7807617
vt 0.52490234 0.7807617
vt 0.52490234 0.7807617
vt 0.52490234 0.7807617
vt 0.52490234 0.7807617
vt 0.52490234 0.7807617
vt 0.52490234 0.7807617
vt 0.52490234 0.7807617
vt 0.52490234 0.7807617
vt 0.52490234 0.7807617
vt 0.52490234 0.7807617
vt 0.52490234 0.7807617
vt 0.52490234 0.7807617
vt 0.52490234 0.7807617
vt 0.52490234 0.7807617
vt 0.52490234 0.7807617
vt 0.52490234 0.7807617
vt 0.52490234 0.7807617
vt 0.52490234 0.7807617
vt 0.52490234 0.7807617
vt 0.52490234 0.7807617
vt 0.52490234 0.7807617
vt 0.52490234 0.7807617
vt 0.52490234 0.7807617
vt 0.52490234 0.7807617
vt 0.52490234 0.7807617
vt 0.52490234 0.7807617
vt 0.52490234 0.7807617
vt 0.52490234 0.7807617
vt 0.52490234 0.7807617
vt 0.52490234 0.7807617
vt 0.52490234 0.7807617
vt 0.52490234 0.7807617
vt 0.52490234 0.7807617
vt 0.52490234 0.7807617
vt 0.52490234 0.7807617
vt 0.52490234 0.7807617
vt 0.52490234 0.7807617
vt 0.52490234 0.7807617
vt 0.52490234 0.7807617
vt 0.52490234 0.7807617
vt 0.52490234 0.7807617
vt 0.52490234 0.7807617
vt 0.52490234 0.7807617
vt 0.52490234 0.7807617
vt 0.52490234 0.7807617
vt 0.52490234 0.7807617
vt 0.52490234 0.7807617
vt 0.52490234 0.7807617
vt 0.52490234 0.7807617
vt 0.52490234 0.7807617
vt 0.52490234 0.7807617
vt 0.52490234 0.7807617
vt 0.52490234 0.7807617
vt 0.52490234 0.7807617
vt 0.52490234 0.7807617
vt 0.52490234 0.7807617
vt 0.52490234 0.7807617
vt 0.52490234 0.7807617
vt 0.52490234 0.7807617
vt 0.52490234 0.7807617
vt 0.52490234 0.7807617
vt 0.52490234 0.7807617
vt 0.52490234 0.7807617
vt 0.52490234 0.7807617
vt 0.52490234 0.7807617
vt 0.52490234 0.7807617
vt 0.52490234 0.7807617
vt 0.52490234 0.7807617
vt 0.52490234 0.7807617
vt 0.52490234 0.7807617
vt 0.52490234 0.7807617
vt 0.52490234 0.7807617
vt 0.52490234 0.7807617
vt 0.52490234 0.7807617
vt 0.52490234 0.7807617
vt 0.52490234 0.7807617
vt 0.52490234 0.7807617
vt 0.52490234 0.7807617
vt 0.52490234 0.7807617
vt 0.52490234 0.7807617
vt 0.52490234 0.7807617
vt 0.52490234 0.7807617
vt 0.52490234 0.7807617
vt 0.52490234 0.7807617
vt 0.52490234 0.7807617
vt 0.52490234 0.7807617
vt 0.52490234 0.7807617
vt 0.52490234 0.7807617
vt 0.52490234 0.7807617
vt 0.52490234 0.7807617
vt 0.52490234 0.7807617
vt 0.52490234 0.7807617
vt 0.52490234 0.7807617
vt 0.52490234 0.7807617
vt 0.52490234 0.7807617
vt 0.52490234 0.7807617
vt 0.52490234 0.7807617
vt 0.52490234 0.7807617
vt 0.52490234 0.7807617
vt 0.52490234 0.7807617
vt 0.52490234 0.7807617
vt 0.52490234 0.7807617
vt 0.52490234 0.7807617
vt 0.52490234 0.7807617
vt 0.52490234 0.7807617
vt 0.52490234 0.7807617
vt 0.52490234 0.7807617
vt 0.52490234 0.7807617
vt 0.52490234 0.7807617
vt 0.52490234 0.7807617
vt 0.52490234 0.7807617
vt 0.52490234 0.7807617
vt 0.52490234 0.7807617
vt 0.52490234 0.7807617
vt 0.52490234 0.7807617
vt 0.52490234 0.7807617
vt 0.52490234 0.7807617
vt 0.52490234 0.7807617
vt 0.52490234 0.7807617
vt 0.52490234 0.7807617
vt 0.52490234 0.7807617
vt 0.52490234 0.7807617
vt 0.52490234 0.7807617
vt 0.52490234 0.7807617
vt 0.52490234 0.7807617
vt 0.52490234 0.7807617
vt 0.52490234 0.7807617
vt 0.52490234 0.7807617
vt 0.52490234 0.7807617
vt 0.52490234 0.7807617
vt 0.52490234 0.7807617
vt 0.52490234 0.7807617
vt 0.52490234 0.7807617
vn 0.81690484 -0.068200804 0.572726
vn 0.5633436 0.20693721 0.7998881
vn 0.8049491 0.15156282 0.57365996
vn 0.5846058 -0.04441906 0.8101006
vn 0.7956017 -0.2935064 0.52997345
vn 0.33669323 0.25809094 0.9055533
vn 0.573012 -0.3145899 0.7567631
vn 0.7361515 -0.52320886 0.42934063
vn 0.55241436 -0.6447601 0.5283208
vn 0.3419644 -0.029133936 0.93926126
vn 0.16898602 0.27696592 0.9459036
vn 0.34532002 -0.35008037 0.8707456
vn 0.3389495 -0.73245525 0.5904427
vn 0.17025603 -0.023999143 0.9851076
vn -0 0.28033873 0.95990115
vn 0.1688382 -0.3647594 0.91566604
vn 0.15578079 -0.7715988 0.6167395
vn -0 -0.023232907 0.99973005
vn -0 -0.36707413 0.9301917
vn -0 -0.7782623 0.6279392
vn -0.15578073 -0.7715988 0.6167396
vn -0.16883817 -0.36475933 0.91566604
vn -0.3389494 -0.7324552 0.5904428
vn -0.170256 -0.023999127 0.9851076
vn -0.16898598 0.27696592 0.9459036
vn -0.34531987 -0.3500802 0.87074566
vn -0.5524143 -0.6447601 0.52832085
vn -0.34196433 -0.02913389 0.93926126
vn -0.3366933 0.25809097 0.9055533
vn -0.5730117 -0.31458977 0.7567634
vn -0.73615146 -0.5232088 0.4293408
vn -0.79560155 -0.29350638 0.5299738
vn -0.58460575 -0.04441904 0.8101007
vn -0.56334376 0.20693721 0.799888
vn -0.81690484 -0.068200834 0.57272613
vn -0.8049491 0.15156282 0.57365984
vn 0.041286126 0.96119153 0.27277488
vn -0.21608695 0.5706939 0.7922214
vn -0.1294674 0.49985746 0.8563764
vn -0.3080617 -0.48939988 0.81583434
vn 0.027554369 0.9737688 0.22586538
vn 0.017461397 0.9417389 -0.33589137
vn -0.52421576 -0.45164856 0.7219497
vn -0.32351127 -0.9272924 0.18833299
vn -0.17861076 -0.9293691 0.32306564
vn -0.11501142 -0.9928462 -0.03207489
vn -0.07947354 -0.9966652 0.01850155
vn -0.15895653 -0.89024514 -0.42684484
vn -0.12912185 -0.91567403 -0.38061613
vn -0.21935683 -0.42210507 -0.87960786
vn -0.14743502 -0.95553225 -0.2553842
vn -0.27861854 -0.4973709 -0.8215801
vn -0.19196874 0.44019493 -0.87714106
vn -0.11114453 0.4098003 -0.9053787
vn -0.15864536 -0.97383785 -0.16270083
vn -0.37330914 -0.5303257 -0.76118004
vn -0.13448727 -0.60768795 -0.7827059
vn 0.004993495 0.95527786 -0.29566747
vn -0.24950942 0.28422508 -0.92572194
vn -0.120448865 0.7387505 -0.66312885
vn -0.10233075 0.33609506 -0.9362524
vn 0.009513763 0.84294444 -0.5379164
vn 0.006169278 -0.98131895 -0.19228919
vn 0.03324654 0.9984666 -0.044261757
vn -0.12220013 0.9069336 0.40316075
vn 0.08080285 0.90107596 0.42606696
vn -0.044460796 0.38745618 -0.9208154
vn -0.012122858 0.9988813 -0.045708854
vn -0.16144703 0.8189571 0.550676
vn -0.513662 0.34024563 0.7876447
vn -0.045971103 0.8787302 -0.4750999
vn -0.599813 0.27310953 0.7520874
vn 0.062353987 -0.6055672 -0.7933475
vn -0.10717865 0.39322072 -0.9131759
vn 0.17174959 -0.9664071 -0.19120482
vn 0.063289315 -0.9720792 -0.22595707
vn 0.14495574 -0.96816707 -0.20405951
vn 0.2623156 -0.9548439 -0.13951258
vn 0.23901305 -0.95295656 -0.18640405
vn -0.28772262 -0.9363753 -0.20103993
vn -0.51214933 -0.8564035 0.06539135
vn -0.10321974 -0.9931035 -0.05559741
vn -0.6724144 -0.396332 0.6251238
vn -0.37944427 -0.88562816 0.26774028
vn -0.6212134 -0.4900773 0.6114886
vn 0.18106501 -0.9831213 0.026229646
vn -0.18411602 -0.9337128 0.3070532
vn -0.49545315 -0.58593404 0.6412545
vn -0.5209881 0.20612362 0.8283022
vn 0.44930938 -0.8864894 -0.1107139
vn 0.40064734 -0.89989865 -0.17223264
vn 0.4156567 -0.8976976 -0.14617963
vn -0.07943767 -0.97769576 0.19442399
vn 0.56644636 -0.8041429 -0.18025711
vn 0.6776059 -0.6615533 0.32124355
vn 0.3516987 -0.93593293 -0.018367385
vn 0.4511488 -0.8250777 -0.34016383
vn 0.24400634 -0.9661279 -0.08401153
vn 0.86284584 -0.39348924 -0.31727484
vn 0.55033296 -0.47621718 -0.68582124
vn -0.01213548 -0.99881893 0.04704734
vn -0.428199 -0.66376615 0.6132374
vn -0.437688 -0.68498075 0.582435
vn -0.44922146 0.14735658 0.8811845
vn -0.45964608 0.18597545 0.86841154
vn -0.12906788 0.8392908 0.52814054
vn 0.08653848 0.8547218 0.51182204
vn 0.10825612 0.9250424 0.36411163
vn 0.336278 0.8150386 0.47183603
vn 0.3613732 0.804254 0.471789
vn -0.44837144 -0.6660121 0.5961469
vn -0.4519292 0.20545742 0.868071
vn 0.10911768 0.90580875 0.40939444
vn 0.7654901 0.64098847 0.056202225
vn 0.4124026 0.3653507 0.8345316
vn -0.037648078 -0.9916147 -0.12362407
vn -0.026111674 -0.9847585 -0.1719559
vn -0.4269035 -0.6582974 0.6199983
vn 0.0087161 0.8438843 0.5364544
vn -0.03826552 0.998602 -0.036469012
vn -0.08105369 0.8993918 -0.4295635
vn -0.103394605 0.4330754 -0.89540786
vn 0.10881209 -0.5782632 -0.8085615
vn 0.22689971 -0.9552431 -0.18980785
vn 0.098561056 0.063728474 0.9930883
vn 0.0012280409 0.8103127 0.58599645
vn -0.02038176 0.99941504 -0.027463758
vn -0.051030137 0.9154953 -0.39907947
vn -0.068642296 0.45676595 -0.8869346
vn 0.11017242 -0.5635505 -0.818702
vn -0.008725278 0.5041314 -0.8635829
vn 0.07529894 -0.5755267 -0.8143089
vn 0.6310216 0.5731742 -0.5227647
vn 0.26877654 -0.72938067 0.6290969
vn 0.04945995 0.94285107 0.32952344
vn -0.41792843 0.23720403 0.8769664
vn 0.04136257 0.97120583 0.23462366
vn 0.48922768 0.57370186 -0.65690374
vn 0.295625 -0.9531383 0.06429003
vn 0.42814857 -0.36317003 -0.8275243
vn -0.056649137 -0.9771503 -0.204861
vn -0.44790682 -0.628692 0.6357089
vn -0.41842443 0.2606996 0.8700326
vn 0.24962401 -0.96594965 -0.06803837
vn 0.112518914 -0.97831136 -0.17391449
vn 0.1327142 -0.99040484 -0.038539335
vn 0.050164826 0.96886325 0.24246131
vn 0.14036655 -0.9872131 0.0755487
vn 0.11112471 -0.7887805 0.60454667
vn 0.05706895 0.03201361 0.9978568
vn 0.018249853 0.8117651 0.58369887
vn -0.0033392196 0.99969995 -0.024268968
vn 0.01251258 0.8137849 0.5810315
vn -0.0039581736 0.9313556 -0.36408955
vn -0.00334622 0.99980265 -0.019584471
vn 0.0017960459 0.4994142 -0.86636144
vn -0.0043420917 0.9329318 -0.360027
vn 0.01326812 -0.6072704 -0.7943844
vn 0.0026093703 0.49866095 -0.8667932
vn 0.019083017 -0.98688835 -0.16027224
vn 0.051249042 -0.6055237 -0.7941754
vn 0.026782209 -0.9994373 -0.020193933
vn 0.02850469 -0.987783 -0.1532066
vn 0.036766384 -0.9962218 0.07867834
vn 0.038235594 -0.999175 -0.013685295
vn 0.04126731 -0.80697185 0.5891464
vn 0.04211865 -0.99559325 0.08378566
vn 0.030744363 0.02453116 0.9992262
vn 0.01848171 0.81447214 0.5799082
vn 0.037727553 0.039029285 0.9985257
vn -0.0056676515 0.9998815 -0.014310676
vn 0.07269556 -0.7921917 0.6059271
vn 0.03995292 0.8263144 0.56179035
vn -0.0066769025 0.9333898 -0.3588022
vn 0.08450968 0.05424436 0.9949451
vn 0.011551879 0.9999325 -0.0012426827
vn 0.04390526 0.48790923 -0.8717895
vn 0.011497753 0.93913877 -0.3433456
vn 0.043282714 -0.9955831 0.08331286
vn 0.1448393 -0.8016705 0.5799535
vn 0.22531693 0.0657322 0.97206557
vn 0.18826672 0.81650394 0.545781
vn 0.15807344 0.98742616 -0.0015472396
vn 0.14242011 0.9334715 -0.32916185
vn 0.16284385 0.4752927 -0.86462635
vn 0.042951047 -0.99902594 -0.010119097
vn 0.13899447 -0.6449959 -0.7514392
vn 0.037518017 -0.98888725 -0.14385563
vn 0.09759137 -0.9815802 -0.16424437
vn 0.06983572 -0.9973642 -0.0196859
vn 0.06298516 -0.994612 0.08234003
vn 0.6232643 0.78197336 -0.007700692
vn 0.55015904 0.76632524 -0.33176917
vn 0.5080158 0.3881432 -0.7689374
vn 0.4462045 -0.5334975 -0.7185277
vn 0.89742476 0.13080536 -0.42132962
vn 0.5754918 -0.7454955 -0.3362229
vn 0.64527786 -0.7620705 -0.053526472
vn 0.99749064 0.05876685 -0.039484106
vn 0.6021869 -0.7742595 0.19466175
vn 0.94256467 0.07235497 0.32609278
vn 0.5276317 -0.6715437 0.52022475
vn 0.5694905 0.06547011 0.81938654
vn 0.61946124 0.650132 0.4399957
vn -0.041287985 0.9611914 0.2727751
vn 0.12924251 0.5000266 0.85631174
vn 0.21608713 0.5706941 0.7922213
vn 0.30806196 -0.4894005 0.81583387
vn -0.027554378 0.9737688 0.2258656
vn -0.01746321 0.9417389 -0.3358912
vn 0.52421594 -0.45164883 0.7219494
vn 0.32351118 -0.9272925 0.18833263
vn 0.17861065 -0.9293692 0.32306528
vn 0.11501148 -0.9928462 -0.03207495
vn 0.07947518 -0.99666506 0.018500868
vn 0.15895675 -0.89024484 -0.4268453
vn 0.12912199 -0.91567385 -0.3806166
vn 0.2193568 -0.4221045 -0.8796081
vn 0.14743498 -0.95553213 -0.25538456
vn 0.27861866 -0.4973708 -0.8215802
vn 0.19196886 0.4401948 -0.8771412
vn 0.11114442 0.40980014 -0.9053788
vn 0.15864527 -0.97383773 -0.16270149
vn 0.37330925 -0.53032565 -0.76117986
vn 0.13448732 -0.60768825 -0.78270566
vn -0.004993507 0.9552779 -0.29566723
vn 0.24950972 0.28422523 -0.9257218
vn 0.12044887 0.7387506 -0.6631287
vn 0.102330804 0.33609524 -0.9362523
vn -0.009513738 0.84294444 -0.53791636
vn -0.0061693615 -0.98131895 -0.19228904
vn -0.033246536 0.9984666 -0.04426221
vn 0.122200094 0.9069337 0.40316048
vn -0.08080282 0.9010758 0.42606717
vn 0.044460796 0.38745618 -0.9208154
vn 0.012122882 0.99888116 -0.045709386
vn 0.16144705 0.8189571 0.550676
vn 0.51366216 0.34024566 0.7876447
vn 0.045971088 0.8787298 -0.4751007
vn 0.599813 0.27310976 0.75208735
vn -0.062353868 -0.60556763 -0.79334724
vn 0.10717862 0.39322034 -0.91317606
vn -0.17174952 -0.96640736 -0.19120397
vn -0.06328949 -0.9720791 -0.22595735
vn -0.14495587 -0.96816707 -0.20405962
vn -0.26231575 -0.9548439 -0.1395119
vn -0.23901288 -0.9529567 -0.18640386
vn 0.28772253 -0.9363752 -0.20104024
vn 0.51214933 -0.85640365 0.06539118
vn 0.10321977 -0.9931035 -0.055597328
vn 0.6724147 -0.39633217 0.62512344
vn 0.37944445 -0.88562804 0.26774025
vn 0.62121356 -0.49007717 0.61148846
vn -0.1810651 -0.9831213 0.026230155
vn 0.18411621 -0.93371266 0.30705366
vn 0.49545333 -0.5859342 0.64125425
vn 0.52098805 0.20612378 0.8283021
vn -0.44930953 -0.8864893 -0.11071397
vn -0.40064773 -0.8998986 -0.17223239
vn -0.4156569 -0.8976975 -0.14617938
vn 0.07943731 -0.9776959 0.1944238
vn -0.5664466 -0.8041427 -0.18025716
vn -0.6776058 -0.66155314 0.32124418
vn -0.35169873 -0.93593305 -0.018366536
vn -0.451149 -0.8250775 -0.34016442
vn -0.2440062 -0.966128 -0.08401072
vn -0.86284596 -0.39348906 -0.31727472
vn -0.5503329 -0.47621682 -0.68582165
vn 0.012135 -0.99881893 0.047046974
vn 0.42819902 -0.6637667 0.6132369
vn 0.43768802 -0.6849805 0.5824353
vn 0.44922146 0.14735658 0.8811845
vn 0.45964625 0.18597578 0.8684115
vn 0.12906788 0.83929104 0.5281402
vn -0.08653865 0.8547218 0.51182187
vn -0.10825609 0.9250424 0.36411142
vn -0.33627796 0.8150387 0.47183582
vn -0.36137342 0.8042537 0.4717895
vn 0.4483715 -0.6660117 0.5961471
vn 0.45192945 0.20545755 0.8680708
vn -0.10911787 0.90580887 0.4093942
vn -0.7654901 0.6409884 0.056202114
vn -0.4124025 0.3653502 0.83453184
vn 0.037648086 -0.9916147 -0.123624146
vn 0.026111785 -0.9847586 -0.17195515
vn 0.42690355 -0.65829706 0.61999875
vn -0.008716026 0.8438841 0.5364547
vn 0.038265552 0.99860185 -0.036469158
vn 0.08105364 0.89939153 -0.42956382
vn 0.1033945 0.43307504 -0.89540803
vn -0.108812 -0.578263 -0.80856156
vn -0.22689961 -0.9552431 -0.18980804
vn -0.09856107 0.063728474 0.9930883
vn -0.0012280117 0.81031257 0.58599657
vn 0.020381782 0.99941504 -0.027463837
vn 0.051030107 0.9154953 -0.39907947
vn 0.068642266 0.45676625 -0.8869345
vn -0.11017243 -0.56355006 -0.8187022
vn 0.008725373 0.5041313 -0.8635829
vn -0.07529886 -0.57552695 -0.81430876
vn -0.6310214 0.5731742 -0.5227649
vn -0.26877645 -0.72938025 0.62909746
vn -0.04945986 0.9428511 0.32952303
vn 0.41792852 0.237204 0.8769664
vn -0.041362584 0.97120595 0.23462354
vn -0.48922768 0.5737017 -0.6569038
vn -0.29562473 -0.95313835 0.06429075
vn -0.4281485 -0.36317003 -0.8275243
vn 0.056649283 -0.97715056 -0.20485973
vn 0.4479067 -0.6286915 0.6357096
vn 0.41842464 0.26069948 0.8700326
vn -0.24962367 -0.9659498 -0.068038
vn -0.11251889 -0.9783115 -0.17391387
vn -0.13271411 -0.99040484 -0.038539182
vn -0.050165072 0.96886325 0.24246104
vn -0.14036648 -0.9872131 0.0755488
vn -0.11112468 -0.78878 0.60454726
vn -0.0570689 0.032014575 0.9978568
vn -0.018249787 0.8117651 0.58369887
vn 0.003339217 0.99969995 -0.024268845
vn -0.012512537 0.8137851 0.5810313
vn 0.0039581563 0.93135536 -0.36408994
vn 0.0033462155 0.99980265 -0.019584129
vn -0.0017959728 0.49941385 -0.8663616
vn 0.00434206 0.93293154 -0.36002743
vn -0.013268049 -0.6072706 -0.79438436
vn -0.0026094122 0.49866068 -0.8667934
vn -0.019083042 -0.98688847 -0.1602718
vn -0.051248994 -0.6055235 -0.79417557
vn -0.026782237 -0.9994373 -0.02019353
vn -0.0285047 -0.9877829 -0.15320696
vn -0.036766384 -0.9962218 0.07867838
vn -0.038235586 -0.999175 -0.013685277
vn -0.041267328 -0.8069718 0.5891465
vn -0.042118624 -0.99559325 0.08378558
vn -0.030744372 0.024532223 0.9992262
vn -0.018481731 0.81447226 0.5799081
vn -0.03772758 0.0390294 0.9985257
vn 0.005667644 0.9998815 -0.014310337
vn -0.07269564 -0.79219204 0.60592663
vn -0.03995297 0.8263145 0.56179005
vn 0.006676858 0.9333898 -0.35880217
vn -0.08450986 0.054244235 0.9949451
vn -0.011551885 0.9999325 -0.00124261
vn -0.043905225 0.48790896 -0.8717897
vn -0.011497763 0.93913877 -0.3433457
vn -0.043282673 -0.9955831 0.08331259
vn -0.14483929 -0.8016709 0.57995296
vn -0.22531687 0.06573201 0.9720657
vn -0.18826659 0.816504 0.545781
vn -0.15807356 0.98742616 -0.0015471012
vn -0.14242019 0.9334716 -0.32916152
vn -0.16284391 0.47529283 -0.8646262
vn -0.042951033 -0.99902594 -0.010119909
vn -0.13899459 -0.6449959 -0.7514392
vn -0.03751801 -0.98888713 -0.1438563
vn -0.09759136 -0.9815802 -0.16424476
vn -0.06983571 -0.9973642 -0.019686038
vn -0.06298521 -0.9946121 0.082339406
vn -0.6232642 0.7819734 -0.0077006896
vn -0.5501593 0.76632524 -0.33176875
vn -0.5080161 0.3881437 -0.76893705
vn -0.4462044 -0.53349763 -0.71852756
vn -0.8974249 0.13080473 -0.42132977
vn -0.57549155 -0.7454956 -0.33622292
vn -0.6452778 -0.76207054 -0.053526063
vn -0.99749064 0.058767032 -0.039484207
vn -0.60218686 -0.7742595 0.19466183
vn -0.9425646 0.0723557 0.32609284
vn -0.5276318 -0.67154413 0.520224
vn -0.5694902 0.06547002 0.8193868
vn -0.6194608 0.65013236 0.43999568
vn 0.7751049 -0.59566206 0.21071117
vn 0.7361515 -0.52320886 0.42934063
vn 0.7956017 -0.2935064 0.52997345
vn 0.55241436 -0.6447601 0.5283208
vn 0.9040253 -0.3260126 0.2765032
vn 0.81690484 -0.068200804 0.572726
vn 0.5461801 -0.8165257 0.18701057
vn 0.3389495 -0.73245525 0.5904427
vn 0.78113437 -0.62433845 0.0055323453
vn 0.94473636 -0.08480506 0.31667233
vn 0.8049491 0.15156282 0.57365996
vn 0.3145064 -0.93085426 0.18600027
vn 0.15578079 -0.7715988 0.6167395
vn 0.93319213 -0.35517237 0.054817934
vn 0.5414798 -0.8386196 -0.059301842
vn 0.12729795 -0.97501683 0.18203656
vn -0 -0.7782623 0.6279392
vn 0.75659746 -0.61933947 -0.20971155
vn 0.2965612 -0.9493637 -0.10373114
vn 0.51569307 -0.80724806 -0.28707334
vn 0.9935895 -0.08941111 0.0691773
vn 0.91666085 -0.34956485 -0.19374593
vn 0.70658827 -0.5657927 -0.42498443
vn 0.939527 0.15945387 0.30309
vn -0 -0.9831755 0.18266334
vn 0.11142416 -0.986315 -0.121520594
vn 0.29557455 -0.88957983 -0.3482575
vn 0.51156557 -0.66403425 -0.54530656
vn 0.7951096 -0.3496646 -0.4955152
vn 0.9728895 -0.09373086 -0.21142511
vn 0.9815316 0.18172549 0.05976134
vn -0.12729795 -0.97501683 0.18203664
vn -0.15578073 -0.7715988 0.6167396
vn -0.31450638 -0.93085426 0.18600027
vn -0.3389494 -0.7324552 0.5904428
vn -0.5461801 -0.8165257 0.18701048
vn -0.5524143 -0.6447601 0.52832085
vn -0.7751049 -0.59566206 0.2107112
vn -0.73615146 -0.5232088 0.4293408
vn -0.79560155 -0.29350638 0.5299738
vn -0.9040253 -0.32601258 0.27650326
vn -0.81690484 -0.068200834 0.57272613
vn -0.7811344 -0.6243384 0.005532522
vn -0.5414798 -0.8386196 -0.059301592
vn -0.29656124 -0.9493637 -0.10373084
vn -0.11142419 -0.98631513 -0.12152044
vn -0.94473636 -0.08480507 0.3166723
vn -0.8049491 0.15156282 0.57365984
vn -0.93319213 -0.35517237 0.054817975
vn -0.75659746 -0.61933935 -0.20971167
vn -0.5156931 -0.8072482 -0.28707337
vn -0 -0.9921747 -0.12485756
vn -0.29557464 -0.88957995 -0.3482573
vn 0.12113396 -0.9211 -0.3700018
vn -0.12113396 -0.9211 -0.37000167
vn 0.31609663 -0.7203619 -0.61738294
vn -0 -0.92699707 -0.37506855
vn 0.561263 -0.39272872 -0.72852445
vn 0.14923705 -0.7454971 -0.64958626
vn 0.8420003 -0.10023068 -0.5300844
vn 0.3442173 -0.43020174 -0.8345304
vn 0.96453553 0.16324432 -0.20741865
vn 0.59871364 -0.10420458 -0.7941557
vn 0.8361397 0.14541946 -0.5288891
vn -0.14923717 -0.7454973 -0.64958614
vn -0 -0.75019205 -0.66121995
vn 0.1750092 -0.44347733 -0.8790333
vn 0.36077872 -0.10473194 -0.9267523
vn 0.5919253 0.18324342 -0.7848861
vn -0.31609663 -0.72036195 -0.61738276
vn -0.5115655 -0.6640341 -0.54530656
vn -0.70658827 -0.5657926 -0.42498443
vn -0.91666085 -0.34956485 -0.19374594
vn -0.7951098 -0.34966466 -0.4955149
vn -0.5612632 -0.39272875 -0.7285244
vn -0.34421715 -0.43020165 -0.83453053
vn -0.9935895 -0.08941112 0.06917729
vn -0.9728895 -0.09373086 -0.21142514
vn -0.8420003 -0.10023069 -0.5300842
vn -0.939527 0.1594539 0.30309007
vn -0.9815316 0.18172553 0.059761304
vn -0.17500922 -0.44347742 -0.8790332
vn -0.59871364 -0.1042046 -0.7941558
vn -0.96453553 0.1632443 -0.20741871
vn -0 -0.44540393 -0.8953298
vn -0.36077857 -0.10473188 -0.92675245
vn -0.8361397 0.14541939 -0.5288891
vn 0.18716945 -0.10537564 -0.9766594
vn -0.1871693 -0.10537558 -0.9766594
vn -0.5919254 0.18324335 -0.78488606
vn 0.3682695 0.22123337 -0.9030135
vn -0 -0.10606177 -0.99435955
vn -0.36826944 0.22123331 -0.9030136
vn 0.19289806 0.23188856 -0.9534244
vn -0.1928979 0.2318885 -0.9534244
vn -0 0.23233967 -0.97263473
vn -0.7900932 0.3806574 -0.4804714
vn -0.5945357 0.5030382 -0.6272797
vn -0.8540196 0.46755272 -0.22813374
vn -0.3834462 0.5733802 -0.7240195
vn -0.871716 0.4891062 0.029769555
vn -0.6299355 0.711485 -0.31140053
vn -0.19405118 0.6022324 -0.77437735
vn -0.8411926 0.46389106 0.27784896
vn -0.64793265 0.761665 -0.007046522
vn -0.3959721 0.833605 -0.3851087
vn -0.7682454 0.38009873 0.51509607
vn -0.6178092 0.7257775 0.30258697
vn -0.5685003 0.5219123 0.63593626
vn -0.56334376 0.20693721 0.799888
vn -0.39439535 0.91842246 -0.030862337
vn -0.1841795 0.88734883 -0.42271724
vn -0.37676644 0.8623971 0.3381099
vn -0.35041413 0.6092709 0.71133596
vn -0.3366933 0.25809097 0.9055533
vn -0.17142081 0.9843292 -0.041364577
vn -0 0.60595113 -0.7955019
vn -0.16701052 0.64524525 0.74549717
vn -0.16898598 0.27696592 0.9459036
vn -0.16606402 0.9197641 0.35560757
vn -0 0.8985942 -0.4387805
vn 0.19405131 0.60223246 -0.77437735
vn -0 0.6510246 0.7590566
vn -0 0.28033873 0.95990115
vn 0.16898602 0.27696592 0.9459036
vn -0 0.99896 -0.04559474
vn -0 0.9319203 0.36266318
vn 0.16701047 0.64524525 0.74549717
vn 0.33669323 0.25809094 0.9055533
vn 0.18417951 0.88734883 -0.4227174
vn 0.38344625 0.5733801 -0.7240195
vn 0.17142078 0.9843292 -0.04136474
vn 0.16606402 0.91976416 0.35560736
vn 0.35041407 0.6092709 0.711336
vn 0.5633436 0.20693721 0.7998881
vn 0.39597207 0.833605 -0.38510874
vn 0.5945356 0.5030382 -0.62727976
vn 0.39439532 0.91842246 -0.03086255
vn 0.37676647 0.8623972 0.33810973
vn 0.5685002 0.5219123 0.63593644
vn 0.6299355 0.711485 -0.3114003
vn 0.79009324 0.38065746 -0.48047125
vn 0.85401964 0.46755272 -0.2281335
vn 0.87171614 0.48910618 0.029769551
vn 0.64793265 0.761665 -0.007046574
vn 0.8411928 0.46389112 0.27784866
vn 0.6178093 0.7257775 0.3025868
vn 0.7682454 0.3800988 0.515096
vn 0.20684205 0.12476138 0.97038704
vn 0.06526179 0.63044643 0.7734844
vn -0 0.2169972 0.9761722
vn 0.11836593 -0.0076195877 0.9929408
vn -0.2068419 0.12476132 0.97038704
vn 0.2594685 0.015280504 0.96563065
vn 0.40006942 0.13295615 0.9067895
vn -0.25946838 0.01528017 0.9656307
vn -0.4375427 0.17424037 0.8821546
vn 0.51267433 0.08066356 0.8547856
vn 0.7452067 0.11608938 0.6566508
vn 0.5413273 -0.0028668246 0.8408071
vn 0.2698481 -0.0135864485 0.962807
vn -0.512675 0.08066464 0.8547851
vn -0.73936844 0.10695944 0.6647511
vn -0.5417271 -0.002597261 0.84055036
vn -0.26989087 -0.013391057 0.9627978
vn 0.7702004 0.02085314 0.63746095
vn 0.8791658 0.18337947 0.43981746
vn -0 -0.10246782 0.99473625
vn -0.7702007 0.0208529 0.6374606
vn -0.88879555 0.17482336 0.42364985
vn 0.8950586 0.04538185 0.44363353
vn 0.94758576 0.22029668 0.23140994
vn -0.8950589 0.045380533 0.44363314
vn -0.95881474 0.2088442 0.19250527
vn 0.97817755 0.07934809 0.19202219
vn 0.98388404 0.017083958 -0.17798956
vn -0.9781778 0.07934572 0.19202216
vn -0.98388404 0.017083943 -0.17798956
vn -0.41698924 0.63479465 0.65050423
vn -0.2022751 0.64312345 0.7385641
vn -0.61117923 0.6103506 0.50391674
vn -0.69991934 0.6363568 0.32428834
vn -0.74125564 0.65813 0.13192795
vn -0.7330741 0.6648249 -0.14356239
vn -0.68475753 0.6429242 -0.34315535
vn -0.8913863 -0.05206187 -0.45024458
vn -0.5880352 0.61686504 -0.52315587
vn -0.7380928 -0.066364326 -0.67142755
vn -0.40087527 0.64044154 -0.655083
vn -0.5136659 -0.051127158 -0.85646564
vn -0.21690738 0.6586119 -0.7205426
vn -0.27573013 -0.027268253 -0.9608483
vn 5.197036E-05 0.97822547 -0.20754495
vn -0.17470507 -0.013467084 -0.9845287
vn 0.2757304 -0.027268283 -0.96084815
vn 0.21690042 0.6586119 -0.72054464
vn 0.51366585 -0.05112713 -0.85646564
vn 0.40087503 0.64044166 -0.655083
vn 0.73809254 -0.06636428 -0.67142767
vn 0.5880359 0.61686504 -0.5231553
vn 0.89138615 -0.052061893 -0.45024458
vn 0.68475884 0.6429243 -0.3431526
vn 0.7330755 0.66482484 -0.14355524
vn 0.74125624 0.65812993 0.13192457
vn 0.6999193 0.6363569 0.32428837
vn 0.61117905 0.61035055 0.5039169
vn 0.41698706 0.63479465 0.6505057
vn 0.20226955 0.64312345 0.7385656
vn -2.896739E-05 0.9697622 0.2440515
vn -0.30150756 0.2625697 0.9165971
vn 0.22316746 0.9186475 0.3260108
vn -0.34919626 -0.6431259 0.6815065
vn 0.59366995 0.5538998 -0.5837388
vn 0.0653536 -0.9896801 -0.12752323
vn 0.4812143 -0.39717752 -0.78146195
vn 0.1498898 -0.5285799 0.83554554
vn 0.1544143 0.07874729 0.984863
vn 0.636938 -0.7329568 0.23892337
vn 0.72461575 0.4427778 0.5280908
vn 0.8574648 -0.29300553 -0.42296806
vn 0.9168999 0.30417693 -0.25840062
vn 0.30150762 0.26256943 0.91659725
vn -0.22316748 0.91864747 0.3260109
vn 0.3491961 -0.64312625 0.6815063
vn -0.59367 0.55389994 -0.5837386
vn -0.06535402 -0.9896801 -0.12752298
vn -0.4812148 -0.39717746 -0.78146166
vn -0.14988965 -0.52858007 0.8355454
vn -0.15441404 0.078747526 0.984863
vn -0.63693833 -0.7329565 0.23892324
vn -0.72461504 0.44277853 0.5280912
vn -0.8574654 -0.29300457 -0.42296746
vn -0.9168998 0.30417794 -0.25840002
g 03_bodymesh_NPC07_skin_0
f 3/3/3 2/2/2 1/1/1
f 2/2/2 4/4/4 1/1/1
f 1/1/1 4/4/4 5/5/5
f 2/2/2 6/6/6 4/4/4
f 4/4/4 7/7/7 5/5/5
f 5/5/5 7/7/7 8/8/8
f 7/7/7 9/9/9 8/8/8
f 6/6/6 10/10/10 4/4/4
f 4/4/4 10/10/10 7/7/7
f 6/6/6 11/11/11 10/10/10
f 7/7/7 12/12/12 9/9/9
f 10/10/10 12/12/12 7/7/7
f 12/12/12 13/13/13 9/9/9
f 11/11/11 14/14/14 10/10/10
f 10/10/10 14/14/14 12/12/12
f 11/11/11 15/15/15 14/14/14
f 12/12/12 16/16/16 13/13/13
f 14/14/14 16/16/16 12/12/12
f 16/16/16 17/17/17 13/13/13
f 15/15/15 18/18/18 14/14/14
f 14/14/14 18/18/18 16/16/16
f 16/16/16 19/19/19 17/17/17
f 18/18/18 19/19/19 16/16/16
f 19/19/19 20/20/20 17/17/17
f 20/20/20 19/19/19 21/21/21
f 19/19/19 22/22/22 21/21/21
f 19/19/19 18/18/18 22/22/22
f 21/21/21 22/22/22 23/23/23
f 18/18/18 15/15/15 24/24/24
f 18/18/18 24/24/24 22/22/22
f 15/15/15 25/25/25 24/24/24
f 22/22/22 26/26/26 23/23/23
f 22/22/22 24/24/24 26/26/26
f 23/23/23 26/26/26 27/27/27
f 24/24/24 25/25/25 28/28/28
f 24/24/24 28/28/28 26/26/26
f 25/25/25 29/29/29 28/28/28
f 26/26/26 30/30/30 27/27/27
f 26/26/26 28/28/28 30/30/30
f 27/27/27 30/30/30 31/31/31
f 30/30/30 32/32/32 31/31/31
f 28/28/28 29/29/29 33/33/33
f 28/28/28 33/33/33 30/30/30
f 30/30/30 33/33/33 32/32/32
f 29/29/29 34/34/34 33/33/33
f 33/33/33 35/35/35 32/32/32
f 33/33/33 34/34/34 35/35/35
f 34/34/34 36/36/36 35/35/35
f 39/39/39 38/38/38 37/37/37
f 39/39/39 40/40/40 38/38/38
f 38/38/38 41/41/41 37/37/37
f 42/42/42 37/37/37 41/41/41
f 40/40/40 43/43/43 38/38/38
f 44/44/44 43/43/43 40/40/40
f 45/45/45 44/44/44 40/40/40
f 46/46/46 44/44/44 45/45/45
f 47/47/47 46/46/46 45/45/45
f 46/46/46 47/47/47 48/48/48
f 49/49/49 46/46/46 48/48/48
f 49/49/49 48/48/48 50/50/50
f 49/49/49 51/51/51 46/46/46
f 52/52/52 49/49/49 50/50/50
f 52/52/52 51/51/51 49/49/49
f 52/52/52 50/50/50 53/53/53
f 50/50/50 54/54/54 53/53/53
f 53/53/53 54/54/54 42/42/42
f 46/46/46 55/55/55 44/44/44
f 51/51/51 55/55/55 46/46/46
f 56/56/56 52/52/52 53/53/53
f 56/56/56 51/51/51 52/52/52
f 57/57/57 51/51/51 56/56/56
f 58/58/58 53/53/53 42/42/42
f 58/58/58 42/42/42 41/41/41
f 59/59/59 56/56/56 53/53/53
f 57/57/57 56/56/56 59/59/59
f 60/60/60 59/59/59 53/53/53
f 58/58/58 60/60/60 53/53/53
f 61/61/61 59/59/59 60/60/60
f 61/61/61 57/57/57 59/59/59
f 58/58/58 62/62/62 60/60/60
f 62/62/62 61/61/61 60/60/60
f 51/51/51 63/63/63 55/55/55
f 63/63/63 51/51/51 57/57/57
f 64/64/64 58/58/58 41/41/41
f 64/64/64 62/62/62 58/58/58
f 41/41/41 65/65/65 64/64/64
f 65/65/65 66/66/66 64/64/64
f 61/61/61 67/67/67 57/57/57
f 62/62/62 67/67/67 61/61/61
f 64/64/64 68/68/68 62/62/62
f 66/66/66 68/68/68 64/64/64
f 69/69/69 65/65/65 41/41/41
f 38/38/38 69/69/69 41/41/41
f 38/38/38 70/70/70 69/69/69
f 70/70/70 38/38/38 43/43/43
f 71/71/71 67/67/67 62/62/62
f 68/68/68 71/71/71 62/62/62
f 72/72/72 65/65/65 69/69/69
f 70/70/70 72/72/72 69/69/69
f 57/57/57 67/67/67 73/73/73
f 67/67/67 71/71/71 74/74/74
f 74/74/74 73/73/73 67/67/67
f 73/73/73 75/75/75 57/57/57
f 75/75/75 63/63/63 57/57/57
f 63/63/63 75/75/75 76/76/76
f 63/63/63 76/76/76 55/55/55
f 55/55/55 76/76/76 77/77/77
f 75/75/75 78/78/78 76/76/76
f 77/77/77 76/76/76 78/78/78
f 79/79/79 75/75/75 73/73/73
f 75/75/75 79/79/79 78/78/78
f 80/80/80 55/55/55 77/77/77
f 55/55/55 80/80/80 44/44/44
f 44/44/44 80/80/80 81/81/81
f 44/44/44 81/81/81 43/43/43
f 82/82/82 80/80/80 77/77/77
f 81/81/81 80/80/80 82/82/82
f 43/43/43 81/81/81 83/83/83
f 83/83/83 70/70/70 43/43/43
f 84/84/84 81/81/81 82/82/82
f 81/81/81 84/84/84 83/83/83
f 83/83/83 85/85/85 70/70/70
f 84/84/84 85/85/85 83/83/83
f 85/85/85 72/72/72 70/70/70
f 84/84/84 82/82/82 86/86/86
f 82/82/82 77/77/77 86/86/86
f 84/84/84 87/87/87 85/85/85
f 87/87/87 84/84/84 86/86/86
f 72/72/72 85/85/85 88/88/88
f 87/87/87 88/88/88 85/85/85
f 89/89/89 72/72/72 88/88/88
f 72/72/72 89/89/89 65/65/65
f 77/77/77 90/90/90 86/86/86
f 86/86/86 91/91/91 87/87/87
f 86/86/86 90/90/90 91/91/91
f 77/77/77 92/92/92 90/90/90
f 92/92/92 77/77/77 78/78/78
f 87/87/87 93/93/93 88/88/88
f 91/91/91 93/93/93 87/87/87
f 90/90/90 94/94/94 91/91/91
f 94/94/94 90/90/90 92/92/92
f 94/94/94 92/92/92 95/95/95
f 92/92/92 78/78/78 96/96/96
f 92/92/92 96/96/96 95/95/95
f 97/97/97 91/91/91 94/94/94
f 93/93/93 91/91/91 97/97/97
f 78/78/78 98/98/98 96/96/96
f 79/79/79 98/98/98 78/78/78
f 94/94/94 95/95/95 99/99/99
f 99/99/99 97/97/97 94/94/94
f 100/100/100 97/97/97 99/99/99
f 101/101/101 93/93/93 97/97/97
f 101/101/101 97/97/97 100/100/100
f 93/93/93 102/102/102 88/88/88
f 93/93/93 101/101/101 103/103/103
f 102/102/102 93/93/93 103/103/103
f 102/102/102 104/104/104 88/88/88
f 104/104/104 89/89/89 88/88/88
f 102/102/102 103/103/103 105/105/105
f 104/104/104 102/102/102 105/105/105
f 89/89/89 104/104/104 106/106/106
f 89/89/89 106/106/106 65/65/65
f 104/104/104 105/105/105 107/107/107
f 104/104/104 107/107/107 106/106/106
f 106/106/106 108/108/108 65/65/65
f 65/65/65 108/108/108 66/66/66
f 109/109/109 108/108/108 106/106/106
f 107/107/107 109/109/109 106/106/106
f 109/109/109 66/66/66 108/108/108
f 110/110/110 109/109/109 107/107/107
f 66/66/66 109/109/109 110/110/110
f 103/103/103 101/101/101 111/111/111
f 105/105/105 103/103/103 112/112/112
f 103/103/103 111/111/111 112/112/112
f 105/105/105 113/113/113 107/107/107
f 105/105/105 112/112/112 113/113/113
f 114/114/114 110/110/110 107/107/107
f 113/113/113 114/114/114 107/107/107
f 110/110/110 115/115/115 66/66/66
f 110/110/110 114/114/114 115/115/115
f 101/101/101 116/116/116 111/111/111
f 116/116/116 101/101/101 100/100/100
f 116/116/116 117/117/117 111/111/111
f 116/116/116 100/100/100 117/117/117
f 111/111/111 118/118/118 112/112/112
f 117/117/117 118/118/118 111/111/111
f 115/115/115 119/119/119 66/66/66
f 66/66/66 119/119/119 68/68/68
f 119/119/119 120/120/120 68/68/68
f 68/68/68 120/120/120 71/71/71
f 120/120/120 121/121/121 71/71/71
f 71/71/71 121/121/121 74/74/74
f 121/121/121 122/122/122 74/74/74
f 74/74/74 122/122/122 73/73/73
f 122/122/122 123/123/123 73/73/73
f 123/123/123 79/79/79 73/73/73
f 124/124/124 79/79/79 123/123/123
f 79/79/79 124/124/124 98/98/98
f 115/115/115 125/125/125 119/119/119
f 119/119/119 126/126/126 120/120/120
f 125/125/125 126/126/126 119/119/119
f 120/120/120 127/127/127 121/121/121
f 126/126/126 127/127/127 120/120/120
f 121/121/121 128/128/128 122/122/122
f 127/127/127 128/128/128 121/121/121
f 122/122/122 129/129/129 123/123/123
f 128/128/128 129/129/129 122/122/122
f 129/129/129 130/130/130 123/123/123
f 130/130/130 124/124/124 123/123/123
f 129/129/129 131/131/131 130/130/130
f 128/128/128 131/131/131 129/129/129
f 115/115/115 95/95/95 125/125/125
f 95/95/95 115/115/115 114/114/114
f 130/130/130 132/132/132 124/124/124
f 131/131/131 132/132/132 130/130/130
f 99/99/99 95/95/95 114/114/114
f 99/99/99 114/114/114 133/133/133
f 133/133/133 114/114/114 113/113/113
f 100/100/100 99/99/99 133/133/133
f 95/95/95 134/134/134 125/125/125
f 95/95/95 96/96/96 134/134/134
f 135/135/135 133/133/133 113/113/113
f 112/112/112 135/135/135 113/113/113
f 112/112/112 136/136/136 135/135/135
f 118/118/118 136/136/136 112/112/112
f 135/135/135 137/137/137 133/133/133
f 136/136/136 137/137/137 135/135/135
f 100/100/100 133/133/133 138/138/138
f 133/133/133 137/137/137 138/138/138
f 96/96/96 139/139/139 134/134/134
f 96/96/96 98/98/98 139/139/139
f 140/140/140 100/100/100 138/138/138
f 117/117/117 100/100/100 140/140/140
f 117/117/117 141/141/141 118/118/118
f 141/141/141 117/117/117 140/140/140
f 118/118/118 142/142/142 136/136/136
f 141/141/141 142/142/142 118/118/118
f 136/136/136 143/143/143 137/137/137
f 142/142/142 143/143/143 136/136/136
f 98/98/98 144/144/144 139/139/139
f 124/124/124 144/144/144 98/98/98
f 124/124/124 145/145/145 144/144/144
f 132/132/132 145/145/145 124/124/124
f 144/144/144 146/146/146 139/139/139
f 145/145/145 146/146/146 144/144/144
f 143/143/143 147/147/147 137/137/137
f 138/138/138 137/137/137 147/147/147
f 146/146/146 148/148/148 139/139/139
f 139/139/139 148/148/148 134/134/134
f 148/148/148 149/149/149 134/134/134
f 134/134/134 149/149/149 125/125/125
f 149/149/149 150/150/150 125/125/125
f 125/125/125 150/150/150 126/126/126
f 126/126/126 150/150/150 151/151/151
f 126/126/126 151/151/151 127/127/127
f 151/151/151 152/152/152 127/127/127
f 127/127/127 152/152/152 128/128/128
f 151/151/151 150/150/150 153/153/153
f 151/151/151 153/153/153 152/152/152
f 152/152/152 154/154/154 128/128/128
f 154/154/154 131/131/131 128/128/128
f 153/153/153 155/155/155 152/152/152
f 152/152/152 155/155/155 154/154/154
f 156/156/156 131/131/131 154/154/154
f 131/131/131 156/156/156 132/132/132
f 155/155/155 157/157/157 154/154/154
f 157/157/157 156/156/156 154/154/154
f 156/156/156 158/158/158 132/132/132
f 132/132/132 158/158/158 145/145/145
f 159/159/159 156/156/156 157/157/157
f 156/156/156 159/159/159 158/158/158
f 158/158/158 160/160/160 145/145/145
f 145/145/145 160/160/160 146/146/146
f 158/158/158 159/159/159 161/161/161
f 158/158/158 161/161/161 160/160/160
f 160/160/160 162/162/162 146/146/146
f 146/146/146 162/162/162 148/148/148
f 161/161/161 163/163/163 160/160/160
f 160/160/160 163/163/163 162/162/162
f 162/162/162 164/164/164 148/148/148
f 148/148/148 164/164/164 149/149/149
f 163/163/163 165/165/165 162/162/162
f 162/162/162 165/165/165 164/164/164
f 164/164/164 166/166/166 149/149/149
f 149/149/149 166/166/166 150/150/150
f 165/165/165 167/167/167 164/164/164
f 164/164/164 167/167/167 166/166/166
f 166/166/166 168/168/168 150/150/150
f 150/150/150 168/168/168 153/153/153
f 153/153/153 168/168/168 169/169/169
f 153/153/153 169/169/169 155/155/155
f 166/166/166 170/170/170 168/168/168
f 168/168/168 170/170/170 169/169/169
f 169/169/169 171/171/171 155/155/155
f 155/155/155 171/171/171 157/157/157
f 167/167/167 172/172/172 166/166/166
f 172/172/172 170/170/170 166/166/166
f 169/169/169 170/170/170 173/173/173
f 169/169/169 173/173/173 171/171/171
f 171/171/171 174/174/174 157/157/157
f 174/174/174 159/159/159 157/157/157
f 170/170/170 172/172/172 175/175/175
f 170/170/170 175/175/175 173/173/173
f 171/171/171 176/176/176 174/174/174
f 173/173/173 176/176/176 171/171/171
f 177/177/177 159/159/159 174/174/174
f 177/177/177 161/161/161 159/159/159
f 176/176/176 178/178/178 174/174/174
f 178/178/178 177/177/177 174/174/174
f 167/167/167 179/179/179 172/172/172
f 172/172/172 180/180/180 175/175/175
f 179/179/179 180/180/180 172/172/172
f 175/175/175 181/181/181 173/173/173
f 180/180/180 181/181/181 175/175/175
f 173/173/173 182/182/182 176/176/176
f 181/181/181 182/182/182 173/173/173
f 176/176/176 183/183/183 178/178/178
f 182/182/182 183/183/183 176/176/176
f 178/178/178 184/184/184 177/177/177
f 183/183/183 184/184/184 178/178/178
f 177/177/177 185/185/185 161/161/161
f 184/184/184 185/185/185 177/177/177
f 186/186/186 179/179/179 167/167/167
f 165/165/165 186/186/186 167/167/167
f 185/185/185 187/187/187 161/161/161
f 161/161/161 187/187/187 163/163/163
f 163/163/163 188/188/188 165/165/165
f 188/188/188 186/186/186 165/165/165
f 187/187/187 188/188/188 163/163/163
f 188/188/188 189/189/189 186/186/186
f 187/187/187 189/189/189 188/188/188
f 186/186/186 190/190/190 179/179/179
f 189/189/189 190/190/190 186/186/186
f 190/190/190 191/191/191 179/179/179
f 179/179/179 191/191/191 180/180/180
f 183/183/183 192/192/192 184/184/184
f 184/184/184 193/193/193 185/185/185
f 192/192/192 193/193/193 184/184/184
f 185/185/185 194/194/194 187/187/187
f 193/193/193 194/194/194 185/185/185
f 187/187/187 195/195/195 189/189/189
f 194/194/194 195/195/195 187/187/187
f 196/196/196 194/194/194 193/193/193
f 195/195/195 194/194/194 196/196/196
f 196/196/196 193/193/193 192/192/192
f 195/195/195 197/197/197 189/189/189
f 189/189/189 197/197/197 190/190/190
f 197/197/197 195/195/195 196/196/196
f 190/190/190 198/198/198 191/191/191
f 197/197/197 198/198/198 190/190/190
f 197/197/197 196/196/196 199/199/199
f 198/198/198 197/197/197 199/199/199
f 199/199/199 196/196/196 192/192/192
f 198/198/198 200/200/200 191/191/191
f 200/200/200 198/198/198 199/199/199
f 191/191/191 200/200/200 180/180/180
f 201/201/201 199/199/199 192/192/192
f 201/201/201 200/200/200 199/199/199
f 200/200/200 202/202/202 180/180/180
f 180/180/180 202/202/202 181/181/181
f 202/202/202 200/200/200 203/203/203
f 202/202/202 203/203/203 181/181/181
f 200/200/200 201/201/201 203/203/203
f 181/181/181 203/203/203 182/182/182
f 204/204/204 201/201/201 192/192/192
f 203/203/203 201/201/201 204/204/204
f 203/203/203 204/204/204 182/182/182
f 204/204/204 192/192/192 183/183/183
f 182/182/182 204/204/204 183/183/183
f 207/207/207 206/206/206 205/205/205
f 208/208/208 206/206/206 207/207/207
f 209/209/209 207/207/207 205/205/205
f 205/205/205 210/210/210 209/209/209
f 211/211/211 208/208/208 207/207/207
f 211/211/211 212/212/212 208/208/208
f 212/212/212 213/213/213 208/208/208
f 212/212/212 214/214/214 213/213/213
f 214/214/214 215/215/215 213/213/213
f 215/215/215 214/214/214 216/216/216
f 214/214/214 217/217/217 216/216/216
f 216/216/216 217/217/217 218/218/218
f 219/219/219 217/217/217 214/214/214
f 217/217/217 220/220/220 218/218/218
f 219/219/219 220/220/220 217/217/217
f 218/218/218 220/220/220 221/221/221
f 222/222/222 218/218/218 221/221/221
f 222/222/222 221/221/221 210/210/210
f 223/223/223 214/214/214 212/212/212
f 223/223/223 219/219/219 214/214/214
f 220/220/220 224/224/224 221/221/221
f 219/219/219 224/224/224 220/220/220
f 219/219/219 225/225/225 224/224/224
f 221/221/221 226/226/226 210/210/210
f 210/210/210 226/226/226 209/209/209
f 224/224/224 227/227/227 221/221/221
f 224/224/224 225/225/225 227/227/227
f 227/227/227 228/228/228 221/221/221
f 228/228/228 226/226/226 221/221/221
f 227/227/227 229/229/229 228/228/228
f 225/225/225 229/229/229 227/227/227
f 230/230/230 226/226/226 228/228/228
f 229/229/229 230/230/230 228/228/228
f 231/231/231 219/219/219 223/223/223
f 219/219/219 231/231/231 225/225/225
f 226/226/226 232/232/232 209/209/209
f 230/230/230 232/232/232 226/226/226
f 233/233/233 209/209/209 232/232/232
f 234/234/234 233/233/233 232/232/232
f 235/235/235 229/229/229 225/225/225
f 235/235/235 230/230/230 229/229/229
f 236/236/236 232/232/232 230/230/230
f 236/236/236 234/234/234 232/232/232
f 233/233/233 237/237/237 209/209/209
f 237/237/237 207/207/207 209/209/209
f 238/238/238 207/207/207 237/237/237
f 207/207/207 238/238/238 211/211/211
f 235/235/235 239/239/239 230/230/230
f 239/239/239 236/236/236 230/230/230
f 233/233/233 240/240/240 237/237/237
f 240/240/240 238/238/238 237/237/237
f 235/235/235 225/225/225 241/241/241
f 239/239/239 235/235/235 242/242/242
f 241/241/241 242/242/242 235/235/235
f 243/243/243 241/241/241 225/225/225
f 231/231/231 243/243/243 225/225/225
f 243/243/243 231/231/231 244/244/244
f 244/244/244 231/231/231 223/223/223
f 244/244/244 223/223/223 245/245/245
f 246/246/246 243/243/243 244/244/244
f 244/244/244 245/245/245 246/246/246
f 243/243/243 247/247/247 241/241/241
f 247/247/247 243/243/243 246/246/246
f 223/223/223 248/248/248 245/245/245
f 248/248/248 223/223/223 212/212/212
f 248/248/248 212/212/212 249/249/249
f 249/249/249 212/212/212 211/211/211
f 248/248/248 250/250/250 245/245/245
f 248/248/248 249/249/249 250/250/250
f 249/249/249 211/211/211 251/251/251
f 238/238/238 251/251/251 211/211/211
f 249/249/249 252/252/252 250/250/250
f 252/252/252 249/249/249 251/251/251
f 253/253/253 251/251/251 238/238/238
f 253/253/253 252/252/252 251/251/251
f 240/240/240 253/253/253 238/238/238
f 250/250/250 252/252/252 254/254/254
f 245/245/245 250/250/250 254/254/254
f 255/255/255 252/252/252 253/253/253
f 252/252/252 255/255/255 254/254/254
f 253/253/253 240/240/240 256/256/256
f 256/256/256 255/255/255 253/253/253
f 240/240/240 257/257/257 256/256/256
f 257/257/257 240/240/240 233/233/233
f 258/258/258 245/245/245 254/254/254
f 259/259/259 254/254/254 255/255/255
f 258/258/258 254/254/254 259/259/259
f 260/260/260 245/245/245 258/258/258
f 245/245/245 260/260/260 246/246/246
f 261/261/261 255/255/255 256/256/256
f 261/261/261 259/259/259 255/255/255
f 262/262/262 258/258/258 259/259/259
f 258/258/258 262/262/262 260/260/260
f 260/260/260 262/262/262 263/263/263
f 246/246/246 260/260/260 264/264/264
f 264/264/264 260/260/260 263/263/263
f 259/259/259 265/265/265 262/262/262
f 259/259/259 261/261/261 265/265/265
f 266/266/266 246/246/246 264/264/264
f 266/266/266 247/247/247 246/246/246
f 263/263/263 262/262/262 267/267/267
f 265/265/265 267/267/267 262/262/262
f 265/265/265 268/268/268 267/267/267
f 261/261/261 269/269/269 265/265/265
f 265/265/265 269/269/269 268/268/268
f 270/270/270 261/261/261 256/256/256
f 269/269/269 261/261/261 271/271/271
f 261/261/261 270/270/270 271/271/271
f 272/272/272 270/270/270 256/256/256
f 257/257/257 272/272/272 256/256/256
f 271/271/271 270/270/270 273/273/273
f 270/270/270 272/272/272 273/273/273
f 272/272/272 257/257/257 274/274/274
f 274/274/274 257/257/257 233/233/233
f 273/273/273 272/272/272 275/275/275
f 275/275/275 272/272/272 274/274/274
f 276/276/276 274/274/274 233/233/233
f 276/276/276 233/233/233 234/234/234
f 276/276/276 277/277/277 274/274/274
f 277/277/277 275/275/275 274/274/274
f 234/234/234 277/277/277 276/276/276
f 277/277/277 278/278/278 275/275/275
f 277/277/277 234/234/234 278/278/278
f 269/269/269 271/271/271 279/279/279
f 271/271/271 273/273/273 280/280/280
f 279/279/279 271/271/271 280/280/280
f 281/281/281 273/273/273 275/275/275
f 280/280/280 273/273/273 281/281/281
f 278/278/278 282/282/282 275/275/275
f 282/282/282 281/281/281 275/275/275
f 283/283/283 278/278/278 234/234/234
f 282/282/282 278/278/278 283/283/283
f 284/284/284 269/269/269 279/279/279
f 269/269/269 284/284/284 268/268/268
f 285/285/285 284/284/284 279/279/279
f 268/268/268 284/284/284 285/285/285
f 286/286/286 279/279/279 280/280/280
f 286/286/286 285/285/285 279/279/279
f 287/287/287 283/283/283 234/234/234
f 287/287/287 234/234/234 236/236/236
f 288/288/288 287/287/287 236/236/236
f 288/288/288 236/236/236 239/239/239
f 289/289/289 288/288/288 239/239/239
f 289/289/289 239/239/239 242/242/242
f 290/290/290 289/289/289 242/242/242
f 290/290/290 242/242/242 241/241/241
f 291/291/291 290/290/290 241/241/241
f 247/247/247 291/291/291 241/241/241
f 247/247/247 292/292/292 291/291/291
f 292/292/292 247/247/247 266/266/266
f 293/293/293 283/283/283 287/287/287
f 294/294/294 287/287/287 288/288/288
f 294/294/294 293/293/293 287/287/287
f 295/295/295 288/288/288 289/289/289
f 295/295/295 294/294/294 288/288/288
f 296/296/296 289/289/289 290/290/290
f 296/296/296 295/295/295 289/289/289
f 297/297/297 290/290/290 291/291/291
f 297/297/297 296/296/296 290/290/290
f 298/298/298 297/297/297 291/291/291
f 292/292/292 298/298/298 291/291/291
f 299/299/299 297/297/297 298/298/298
f 299/299/299 296/296/296 297/297/297
f 263/263/263 283/283/283 293/293/293
f 283/283/283 263/263/263 282/282/282
f 300/300/300 298/298/298 292/292/292
f 300/300/300 299/299/299 298/298/298
f 263/263/263 267/267/267 282/282/282
f 282/282/282 267/267/267 301/301/301
f 282/282/282 301/301/301 281/281/281
f 267/267/267 268/268/268 301/301/301
f 302/302/302 263/263/263 293/293/293
f 264/264/264 263/263/263 302/302/302
f 301/301/301 303/303/303 281/281/281
f 303/303/303 280/280/280 281/281/281
f 304/304/304 280/280/280 303/303/303
f 304/304/304 286/286/286 280/280/280
f 305/305/305 303/303/303 301/301/301
f 305/305/305 304/304/304 303/303/303
f 301/301/301 268/268/268 306/306/306
f 305/305/305 301/301/301 306/306/306
f 307/307/307 264/264/264 302/302/302
f 266/266/266 264/264/264 307/307/307
f 268/268/268 308/308/308 306/306/306
f 268/268/268 285/285/285 308/308/308
f 309/309/309 285/285/285 286/286/286
f 285/285/285 309/309/309 308/308/308
f 310/310/310 286/286/286 304/304/304
f 310/310/310 309/309/309 286/286/286
f 311/311/311 304/304/304 305/305/305
f 311/311/311 310/310/310 304/304/304
f 312/312/312 266/266/266 307/307/307
f 312/312/312 292/292/292 266/266/266
f 313/313/313 292/292/292 312/312/312
f 313/313/313 300/300/300 292/292/292
f 314/314/314 312/312/312 307/307/307
f 314/314/314 313/313/313 312/312/312
f 315/315/315 311/311/311 305/305/305
f 305/305/305 306/306/306 315/315/315
f 316/316/316 314/314/314 307/307/307
f 316/316/316 307/307/307 302/302/302
f 317/317/317 316/316/316 302/302/302
f 317/317/317 302/302/302 293/293/293
f 318/318/318 317/317/317 293/293/293
f 318/318/318 293/293/293 294/294/294
f 318/318/318 294/294/294 319/319/319
f 319/319/319 294/294/294 295/295/295
f 320/320/320 319/319/319 295/295/295
f 320/320/320 295/295/295 296/296/296
f 318/318/318 319/319/319 321/321/321
f 321/321/321 319/319/319 320/320/320
f 322/322/322 320/320/320 296/296/296
f 299/299/299 322/322/322 296/296/296
f 323/323/323 321/321/321 320/320/320
f 323/323/323 320/320/320 322/322/322
f 299/299/299 324/324/324 322/322/322
f 324/324/324 299/299/299 300/300/300
f 325/325/325 323/323/323 322/322/322
f 324/324/324 325/325/325 322/322/322
f 326/326/326 324/324/324 300/300/300
f 326/326/326 300/300/300 313/313/313
f 324/324/324 327/327/327 325/325/325
f 327/327/327 324/324/324 326/326/326
f 328/328/328 326/326/326 313/313/313
f 328/328/328 313/313/313 314/314/314
f 327/327/327 326/326/326 329/329/329
f 329/329/329 326/326/326 328/328/328
f 330/330/330 328/328/328 314/314/314
f 330/330/330 314/314/314 316/316/316
f 331/331/331 329/329/329 328/328/328
f 331/331/331 328/328/328 330/330/330
f 332/332/332 330/330/330 316/316/316
f 332/332/332 316/316/316 317/317/317
f 333/333/333 331/331/331 330/330/330
f 333/333/333 330/330/330 332/332/332
f 334/334/334 332/332/332 317/317/317
f 334/334/334 317/317/317 318/318/318
f 335/335/335 333/333/333 332/332/332
f 335/335/335 332/332/332 334/334/334
f 336/336/336 334/334/334 318/318/318
f 336/336/336 318/318/318 321/321/321
f 336/336/336 321/321/321 337/337/337
f 337/337/337 321/321/321 323/323/323
f 338/338/338 334/334/334 336/336/336
f 338/338/338 336/336/336 337/337/337
f 339/339/339 337/337/337 323/323/323
f 339/339/339 323/323/323 325/325/325
f 340/340/340 335/335/335 334/334/334
f 338/338/338 340/340/340 334/334/334
f 338/338/338 337/337/337 341/341/341
f 341/341/341 337/337/337 339/339/339
f 342/342/342 339/339/339 325/325/325
f 327/327/327 342/342/342 325/325/325
f 340/340/340 338/338/338 343/343/343
f 343/343/343 338/338/338 341/341/341
f 344/344/344 339/339/339 342/342/342
f 344/344/344 341/341/341 339/339/339
f 327/327/327 345/345/345 342/342/342
f 329/329/329 345/345/345 327/327/327
f 346/346/346 344/344/344 342/342/342
f 345/345/345 346/346/346 342/342/342
f 347/347/347 335/335/335 340/340/340
f 348/348/348 340/340/340 343/343/343
f 348/348/348 347/347/347 340/340/340
f 349/349/349 343/343/343 341/341/341
f 349/349/349 348/348/348 343/343/343
f 350/350/350 341/341/341 344/344/344
f 350/350/350 349/349/349 341/341/341
f 351/351/351 344/344/344 346/346/346
f 351/351/351 350/350/350 344/344/344
f 352/352/352 346/346/346 345/345/345
f 352/352/352 351/351/351 346/346/346
f 353/353/353 345/345/345 329/329/329
f 353/353/353 352/352/352 345/345/345
f 347/347/347 354/354/354 335/335/335
f 354/354/354 333/333/333 335/335/335
f 355/355/355 353/353/353 329/329/329
f 355/355/355 329/329/329 331/331/331
f 356/356/356 331/331/331 333/333/333
f 354/354/354 356/356/356 333/333/333
f 356/356/356 355/355/355 331/331/331
f 357/357/357 356/356/356 354/354/354
f 357/357/357 355/355/355 356/356/356
f 358/358/358 354/354/354 347/347/347
f 358/358/358 357/357/357 354/354/354
f 359/359/359 358/358/358 347/347/347
f 359/359/359 347/347/347 348/348/348
f 360/360/360 351/351/351 352/352/352
f 361/361/361 352/352/352 353/353/353
f 361/361/361 360/360/360 352/352/352
f 362/362/362 353/353/353 355/355/355
f 362/362/362 361/361/361 353/353/353
f 363/363/363 355/355/355 357/357/357
f 363/363/363 362/362/362 355/355/355
f 362/362/362 364/364/364 361/361/361
f 362/362/362 363/363/363 364/364/364
f 361/361/361 364/364/364 360/360/360
f 365/365/365 363/363/363 357/357/357
f 365/365/365 357/357/357 358/358/358
f 363/363/363 365/365/365 364/364/364
f 366/366/366 358/358/358 359/359/359
f 366/366/366 365/365/365 358/358/358
f 364/364/364 365/365/365 367/367/367
f 365/365/365 366/366/366 367/367/367
f 364/364/364 367/367/367 360/360/360
f 368/368/368 366/366/366 359/359/359
f 366/366/366 368/368/368 367/367/367
f 368/368/368 359/359/359 348/348/348
f 367/367/367 369/369/369 360/360/360
f 368/368/368 369/369/369 367/367/367
f 370/370/370 368/368/368 348/348/348
f 370/370/370 348/348/348 349/349/349
f 368/368/368 370/370/370 371/371/371
f 371/371/371 370/370/370 349/349/349
f 369/369/369 368/368/368 371/371/371
f 371/371/371 349/349/349 350/350/350
f 369/369/369 372/372/372 360/360/360
f 369/369/369 371/371/371 372/372/372
f 372/372/372 371/371/371 350/350/350
f 360/360/360 372/372/372 351/351/351
f 372/372/372 350/350/350 351/351/351
f 375/375/375 374/374/374 373/373/373
f 374/374/374 376/376/376 373/373/373
f 377/377/377 375/375/375 373/373/373
f 378/378/378 375/375/375 377/377/377
f 376/376/376 379/379/379 373/373/373
f 376/376/376 380/380/380 379/379/379
f 377/377/377 373/373/373 381/381/381
f 373/373/373 379/379/379 381/381/381
f 382/382/382 378/378/378 377/377/377
f 383/383/383 378/378/378 382/382/382
f 380/380/380 384/384/384 379/379/379
f 380/380/380 385/385/385 384/384/384
f 386/386/386 377/377/377 381/381/381
f 382/382/382 377/377/377 386/386/386
f 379/379/379 387/387/387 381/381/381
f 379/379/379 384/384/384 387/387/387
f 385/385/385 388/388/388 384/384/384
f 385/385/385 389/389/389 388/388/388
f 386/386/386 381/381/381 390/390/390
f 381/381/381 387/387/387 390/390/390
f 384/384/384 391/391/391 387/387/387
f 384/384/384 388/388/388 391/391/391
f 387/387/387 392/392/392 390/390/390
f 387/387/387 391/391/391 392/392/392
f 393/393/393 382/382/382 386/386/386
f 394/394/394 386/386/386 390/390/390
f 393/393/393 386/386/386 394/394/394
f 390/390/390 392/392/392 395/395/395
f 394/394/394 390/390/390 395/395/395
f 396/396/396 382/382/382 393/393/393
f 396/396/396 383/383/383 382/382/382
f 389/389/389 397/397/397 388/388/388
f 388/388/388 398/398/398 391/391/391
f 388/388/388 397/397/397 398/398/398
f 391/391/391 399/399/399 392/392/392
f 391/391/391 398/398/398 399/399/399
f 392/392/392 400/400/400 395/395/395
f 392/392/392 399/399/399 400/400/400
f 401/401/401 394/394/394 395/395/395
f 401/401/401 395/395/395 400/400/400
f 402/402/402 393/393/393 394/394/394
f 402/402/402 394/394/394 401/401/401
f 403/403/403 396/396/396 393/393/393
f 403/403/403 393/393/393 402/402/402
f 397/397/397 389/389/389 404/404/404
f 389/389/389 405/405/405 404/404/404
f 404/404/404 405/405/405 406/406/406
f 405/405/405 407/407/407 406/406/406
f 406/406/406 407/407/407 408/408/408
f 407/407/407 409/409/409 408/408/408
f 408/408/408 409/409/409 410/410/410
f 409/409/409 411/411/411 410/410/410
f 411/411/411 412/412/412 410/410/410
f 412/412/412 413/413/413 410/410/410
f 412/412/412 414/414/414 413/413/413
f 408/408/408 410/410/410 415/415/415
f 410/410/410 413/413/413 415/415/415
f 406/406/406 408/408/408 416/416/416
f 416/416/416 408/408/408 415/415/415
f 404/404/404 406/406/406 417/417/417
f 417/417/417 406/406/406 416/416/416
f 397/397/397 404/404/404 418/418/418
f 418/418/418 404/404/404 417/417/417
f 414/414/414 419/419/419 413/413/413
f 414/414/414 420/420/420 419/419/419
f 413/413/413 421/421/421 415/415/415
f 413/413/413 419/419/419 421/421/421
f 416/416/416 415/415/415 422/422/422
f 415/415/415 421/421/421 422/422/422
f 417/417/417 416/416/416 423/423/423
f 423/423/423 416/416/416 422/422/422
f 424/424/424 397/397/397 418/418/418
f 397/397/397 424/424/424 398/398/398
f 418/418/418 417/417/417 425/425/425
f 425/425/425 417/417/417 423/423/423
f 398/398/398 424/424/424 426/426/426
f 398/398/398 426/426/426 399/399/399
f 424/424/424 418/418/418 427/427/427
f 427/427/427 418/418/418 425/425/425
f 399/399/399 426/426/426 428/428/428
f 399/399/399 428/428/428 400/400/400
f 424/424/424 429/429/429 426/426/426
f 429/429/429 424/424/424 427/427/427
f 430/430/430 400/400/400 428/428/428
f 430/430/430 401/401/401 400/400/400
f 426/426/426 431/431/431 428/428/428
f 426/426/426 429/429/429 431/431/431
f 432/432/432 401/401/401 430/430/430
f 432/432/432 402/402/402 401/401/401
f 433/433/433 430/430/430 428/428/428
f 433/433/433 428/428/428 431/431/431
f 434/434/434 402/402/402 432/432/432
f 434/434/434 403/403/403 402/402/402
f 435/435/435 432/432/432 430/430/430
f 435/435/435 430/430/430 433/433/433
f 436/436/436 434/434/434 432/432/432
f 436/436/436 432/432/432 435/435/435
f 429/429/429 427/427/427 437/437/437
f 429/429/429 438/438/438 431/431/431
f 438/438/438 429/429/429 437/437/437
f 439/439/439 433/433/433 431/431/431
f 439/439/439 431/431/431 438/438/438
f 440/440/440 435/435/435 433/433/433
f 440/440/440 433/433/433 439/439/439
f 441/441/441 436/436/436 435/435/435
f 441/441/441 435/435/435 440/440/440
f 437/437/437 427/427/427 442/442/442
f 427/427/427 425/425/425 442/442/442
f 442/442/442 425/425/425 443/443/443
f 425/425/425 423/423/423 443/443/443
f 443/443/443 423/423/423 444/444/444
f 423/423/423 422/422/422 444/444/444
f 422/422/422 445/445/445 444/444/444
f 421/421/421 445/445/445 422/422/422
f 444/444/444 446/446/446 443/443/443
f 445/445/445 446/446/446 444/444/444
f 443/443/443 447/447/447 442/442/442
f 446/446/446 447/447/447 443/443/443
f 442/442/442 448/448/448 437/437/437
f 447/447/447 448/448/448 442/442/442
f 421/421/421 449/449/449 445/445/445
f 419/419/419 449/449/449 421/421/421
f 445/445/445 450/450/450 446/446/446
f 449/449/449 450/450/450 445/445/445
f 446/446/446 451/451/451 447/447/447
f 450/450/450 451/451/451 446/446/446
f 419/419/419 452/452/452 449/449/449
f 420/420/420 452/452/452 419/419/419
f 449/449/449 453/453/453 450/450/450
f 452/452/452 453/453/453 449/449/449
f 448/448/448 454/454/454 437/437/437
f 437/437/437 454/454/454 438/438/438
f 447/447/447 455/455/455 448/448/448
f 451/451/451 455/455/455 447/447/447
f 450/450/450 456/456/456 451/451/451
f 453/453/453 456/456/456 450/450/450
f 454/454/454 457/457/457 438/438/438
f 457/457/457 439/439/439 438/438/438
f 448/448/448 458/458/458 454/454/454
f 455/455/455 458/458/458 448/448/448
f 451/451/451 459/459/459 455/455/455
f 456/456/456 459/459/459 451/451/451
f 460/460/460 439/439/439 457/457/457
f 460/460/460 440/440/440 439/439/439
f 454/454/454 461/461/461 457/457/457
f 458/458/458 461/461/461 454/454/454
f 455/455/455 462/462/462 458/458/458
f 459/459/459 462/462/462 455/455/455
f 463/463/463 440/440/440 460/460/460
f 463/463/463 441/441/441 440/440/440
f 464/464/464 460/460/460 457/457/457
f 461/461/461 464/464/464 457/457/457
f 458/458/458 465/465/465 461/461/461
f 462/462/462 465/465/465 458/458/458
f 466/466/466 463/463/463 460/460/460
f 466/466/466 460/460/460 464/464/464
f 461/461/461 467/467/467 464/464/464
f 465/465/465 467/467/467 461/461/461
f 468/468/468 466/466/466 464/464/464
f 467/467/467 468/468/468 464/464/464
f 459/459/459 469/469/469 462/462/462
f 462/462/462 470/470/470 465/465/465
f 469/469/469 470/470/470 462/462/462
f 471/471/471 469/469/469 459/459/459
f 470/470/470 469/469/469 471/471/471
f 456/456/456 471/471/471 459/459/459
f 465/465/465 472/472/472 467/467/467
f 470/470/470 472/472/472 465/465/465
f 473/473/473 471/471/471 456/456/456
f 453/453/453 473/473/473 456/456/456
f 474/474/474 470/470/470 471/471/471
f 472/472/472 470/470/470 474/474/474
f 474/474/474 471/471/471 473/473/473
f 472/472/472 475/475/475 467/467/467
f 467/467/467 475/475/475 468/468/468
f 476/476/476 473/473/473 453/453/453
f 452/452/452 476/476/476 453/453/453
f 477/477/477 474/474/474 473/473/473
f 477/477/477 473/473/473 476/476/476
f 478/478/478 472/472/472 474/474/474
f 475/475/475 472/472/472 478/478/478
f 478/478/478 474/474/474 477/477/477
f 479/479/479 476/476/476 452/452/452
f 420/420/420 479/479/479 452/452/452
f 480/480/480 477/477/477 476/476/476
f 480/480/480 476/476/476 479/479/479
f 481/481/481 479/479/479 420/420/420
f 481/481/481 480/480/480 479/479/479
f 482/482/482 481/481/481 420/420/420
f 483/483/483 478/478/478 477/477/477
f 483/483/483 477/477/477 480/480/480
f 484/484/484 475/475/475 478/478/478
f 484/484/484 478/478/478 483/483/483
f 485/485/485 480/480/480 481/481/481
f 485/485/485 483/483/483 480/480/480
f 486/486/486 481/481/481 482/482/482
f 486/486/486 485/485/485 481/481/481
f 487/487/487 486/486/486 482/482/482
f 488/488/488 483/483/483 485/485/485
f 488/488/488 484/484/484 483/483/483
f 489/489/489 475/475/475 484/484/484
f 475/475/475 489/489/489 468/468/468
f 490/490/490 486/486/486 487/487/487
f 491/491/491 490/490/490 487/487/487
f 492/492/492 485/485/485 486/486/486
f 492/492/492 488/488/488 485/485/485
f 490/490/490 492/492/492 486/486/486
f 493/493/493 484/484/484 488/488/488
f 493/493/493 489/489/489 484/484/484
f 489/489/489 494/494/494 468/468/468
f 494/494/494 466/466/466 468/468/468
f 495/495/495 490/490/490 491/491/491
f 496/496/496 495/495/495 491/491/491
f 495/495/495 496/496/496 497/497/497
f 498/498/498 488/488/488 492/492/492
f 498/498/498 493/493/493 488/488/488
f 499/499/499 492/492/492 490/490/490
f 495/495/495 499/499/499 490/490/490
f 499/499/499 498/498/498 492/492/492
f 500/500/500 495/495/495 497/497/497
f 499/499/499 495/495/495 500/500/500
f 500/500/500 497/497/497 501/501/501
f 489/489/489 493/493/493 502/502/502
f 494/494/494 489/489/489 502/502/502
f 494/494/494 503/503/503 466/466/466
f 503/503/503 463/463/463 466/466/466
f 493/493/493 498/498/498 504/504/504
f 502/502/502 493/493/493 504/504/504
f 498/498/498 499/499/499 505/505/505
f 505/505/505 499/499/499 500/500/500
f 504/504/504 498/498/498 505/505/505
f 506/506/506 500/500/500 501/501/501
f 505/505/505 500/500/500 506/506/506
f 506/506/506 501/501/501 507/507/507
f 494/494/494 502/502/502 508/508/508
f 503/503/503 494/494/494 508/508/508
f 503/503/503 509/509/509 463/463/463
f 509/509/509 441/441/441 463/463/463
f 502/502/502 504/504/504 510/510/510
f 508/508/508 502/502/502 510/510/510
f 504/504/504 505/505/505 511/511/511
f 511/511/511 505/505/505 506/506/506
f 510/510/510 504/504/504 511/511/511
f 512/512/512 506/506/506 507/507/507
f 511/511/511 506/506/506 512/512/512
f 512/512/512 507/507/507 383/383/383
f 503/503/503 508/508/508 513/513/513
f 509/509/509 503/503/503 513/513/513
f 509/509/509 514/514/514 441/441/441
f 514/514/514 436/436/436 441/441/441
f 514/514/514 509/509/509 515/515/515
f 514/514/514 515/515/515 436/436/436
f 509/509/509 513/513/513 515/515/515
f 515/515/515 434/434/434 436/436/436
f 515/515/515 516/516/516 434/434/434
f 515/515/515 513/513/513 516/516/516
f 516/516/516 403/403/403 434/434/434
f 513/513/513 508/508/508 517/517/517
f 513/513/513 517/517/517 516/516/516
f 508/508/508 510/510/510 517/517/517
f 516/516/516 518/518/518 403/403/403
f 516/516/516 517/517/517 518/518/518
f 518/518/518 396/396/396 403/403/403
f 517/517/517 510/510/510 519/519/519
f 517/517/517 519/519/519 518/518/518
f 510/510/510 511/511/511 519/519/519
f 519/519/519 511/511/511 512/512/512
f 518/518/518 520/520/520 396/396/396
f 518/518/518 519/519/519 520/520/520
f 519/519/519 512/512/512 520/520/520
f 520/520/520 383/383/383 396/396/396
f 520/520/520 512/512/512 383/383/383
f 523/523/523 522/522/522 521/521/521
f 524/524/524 523/523/523 521/521/521
f 522/522/522 523/523/523 525/525/525
f 523/523/523 524/524/524 525/525/525
f 526/526/526 524/524/524 521/521/521
f 521/521/521 527/527/527 526/526/526
f 524/524/524 528/528/528 525/525/525
f 529/529/529 525/525/525 528/528/528
f 527/527/527 530/530/530 526/526/526
f 527/527/527 531/531/531 530/530/530
f 530/530/530 532/532/532 526/526/526
f 530/530/530 531/531/531 532/532/532
f 526/526/526 533/533/533 524/524/524
f 532/532/532 533/533/533 526/526/526
f 534/534/534 529/529/529 528/528/528
f 535/535/535 529/529/529 534/534/534
f 536/536/536 534/534/534 528/528/528
f 535/535/535 534/534/534 536/536/536
f 537/537/537 528/528/528 524/524/524
f 537/537/537 536/536/536 528/528/528
f 531/531/531 538/538/538 532/532/532
f 538/538/538 531/531/531 539/539/539
f 533/533/533 540/540/540 524/524/524
f 540/540/540 537/537/537 524/524/524
f 541/541/541 535/535/535 536/536/536
f 535/535/535 541/541/541 542/542/542
f 543/543/543 538/538/538 539/539/539
f 543/543/543 539/539/539 544/544/544
f 541/541/541 545/545/545 542/542/542
f 542/542/542 545/545/545 546/546/546
f 547/547/547 543/543/543 544/544/544
f 547/547/547 544/544/544 548/548/548
f 545/545/545 549/549/549 546/546/546
f 546/546/546 549/549/549 550/550/550
f 551/551/551 536/536/536 537/537/537
f 552/552/552 551/551/551 537/537/537
f 551/551/551 553/553/553 536/536/536
f 553/553/553 541/541/541 536/536/536
f 553/553/553 554/554/554 541/541/541
f 554/554/554 545/545/545 541/541/541
f 554/554/554 555/555/555 545/545/545
f 555/555/555 549/549/549 545/545/545
f 555/555/555 556/556/556 549/549/549
f 556/556/556 550/550/550 549/549/549
f 556/556/556 557/557/557 550/550/550
f 557/557/557 558/558/558 550/550/550
f 557/557/557 559/559/559 558/558/558
f 559/559/559 560/560/560 558/558/558
f 559/559/559 561/561/561 560/560/560
f 561/561/561 562/562/562 560/560/560
f 561/561/561 563/563/563 562/562/562
f 563/563/563 564/564/564 562/562/562
f 563/563/563 565/565/565 564/564/564
f 565/565/565 566/566/566 564/564/564
f 566/566/566 565/565/565 567/567/567
f 565/565/565 568/568/568 567/567/567
f 567/567/567 568/568/568 569/569/569
f 568/568/568 570/570/570 569/569/569
f 569/569/569 570/570/570 571/571/571
f 570/570/570 572/572/572 571/571/571
f 571/571/571 572/572/572 573/573/573
f 572/572/572 574/574/574 573/573/573
f 573/573/573 574/574/574 548/548/548
f 574/574/574 575/575/575 548/548/548
f 548/548/548 575/575/575 547/547/547
f 575/575/575 576/576/576 547/547/547
f 547/547/547 576/576/576 543/543/543
f 576/576/576 577/577/577 543/543/543
f 543/543/543 577/577/577 538/538/538
f 577/577/577 578/578/578 538/538/538
f 538/538/538 578/578/578 532/532/532
f 578/578/578 579/579/579 532/532/532
f 532/532/532 579/579/579 533/533/533
f 579/579/579 580/580/580 533/533/533
f 533/533/533 580/580/580 540/540/540
f 580/580/580 581/581/581 540/540/540
f 581/581/581 552/552/552 540/540/540
f 552/552/552 537/537/537 540/540/540
f 143/143/143 582/582/582 147/147/147
f 582/582/582 583/583/583 147/147/147
f 147/147/147 583/583/583 138/138/138
f 584/584/584 582/582/582 143/143/143
f 142/142/142 584/584/584 143/143/143
f 583/583/583 585/585/585 138/138/138
f 138/138/138 585/585/585 140/140/140
f 586/586/586 584/584/584 142/142/142
f 141/141/141 586/586/586 142/142/142
f 140/140/140 587/587/587 141/141/141
f 585/585/585 587/587/587 140/140/140
f 587/587/587 586/586/586 141/141/141
f 584/584/584 588/588/588 582/582/582
f 582/582/582 589/589/589 583/583/583
f 588/588/588 589/589/589 582/582/582
f 590/590/590 588/588/588 584/584/584
f 586/586/586 590/590/590 584/584/584
f 588/588/588 590/590/590 589/589/589
f 589/589/589 591/591/591 583/583/583
f 583/583/583 591/591/591 585/585/585
f 590/590/590 591/591/591 589/589/589
f 592/592/592 590/590/590 586/586/586
f 587/587/587 592/592/592 586/586/586
f 590/590/590 592/592/592 591/591/591
f 591/591/591 593/593/593 585/585/585
f 585/585/585 593/593/593 587/587/587
f 593/593/593 592/592/592 587/587/587
f 592/592/592 593/593/593 591/591/591
f 594/594/594 311/311/311 315/315/315
f 595/595/595 594/594/594 315/315/315
f 595/595/595 315/315/315 306/306/306
f 594/594/594 596/596/596 311/311/311
f 596/596/596 310/310/310 311/311/311
f 597/597/597 595/595/595 306/306/306
f 597/597/597 306/306/306 308/308/308
f 596/596/596 598/598/598 310/310/310
f 598/598/598 309/309/309 310/310/310
f 599/599/599 308/308/308 309/309/309
f 599/599/599 597/597/597 308/308/308
f 598/598/598 599/599/599 309/309/309
f 600/600/600 596/596/596 594/594/594
f 601/601/601 594/594/594 595/595/595
f 601/601/601 600/600/600 594/594/594
f 600/600/600 602/602/602 596/596/596
f 602/602/602 598/598/598 596/596/596
f 602/602/602 600/600/600 601/601/601
f 603/603/603 601/601/601 595/595/595
f 603/603/603 595/595/595 597/597/597
f 603/603/603 602/602/602 601/601/601
f 602/602/602 604/604/604 598/598/598
f 604/604/604 599/599/599 598/598/598
f 604/604/604 602/602/602 603/603/603
f 605/605/605 603/603/603 597/597/597
f 605/605/605 597/597/597 599/599/599
f 604/604/604 605/605/605 599/599/599
f 605/605/605 604/604/604 603/603/603
