g Bow05
v -0.14777814 0.05552071 -0.37520412
v -0.10262507 0.027858885 -0.3815361
v -0.0956761 -0.049274884 -0.36326516
v -0.16141 -0.035349846 -0.35481176
v -0.19068636 0.011730726 -0.27507073
v -0.22505142 -0.021868065 -0.25003764
v -0.20726195 -0.066515215 -0.27507073
v -0.18579549 -0.12394236 -0.3752041
v -0.13330458 -0.11696538 -0.38153607
v -0.11832943 -0.04447596 -0.124831714
v -0.029782077 -0.06323379 -0.26382047
v -0.032919 0.009743515 -0.2241619
v -0.080457374 0.007876374 -0.15303722
v -0.052130125 0.027806561 -0.18562485
v 0.18807818 -0.09923192 -0.76022047
v 0.18545303 -0.10882905 -0.00171003
v 0.18333773 -0.10838112 -0.76022047
v 0.19019352 -0.09967989 -0.0017100474
v 0.18807833 -0.09923162 0.75680023
v 0.18333787 -0.10838077 0.75680023
v 0.1700841 -0.10557348 -0.76022047
v 0.17693989 -0.096872225 -0.0017100319
v 0.17482455 -0.09642426 -0.76022047
v 0.17219941 -0.10602139 -0.0017100305
v 0.17008418 -0.10557311 0.75680023
v 0.1748247 -0.096423976 0.75680023
v 0.17482455 -0.09642426 -0.76022047
v 0.19019352 -0.09967989 -0.0017100474
v 0.18807818 -0.09923192 -0.76022047
v 0.17693989 -0.096872225 -0.0017100319
v 0.1748247 -0.096423976 0.75680023
v 0.18807833 -0.09923162 0.75680023
v -0.104938425 -0.10768782 -0.1530372
v -0.08712576 -0.13739228 -0.18562482
v -0.06224057 -0.12867057 -0.22416188
v -0.029782077 -0.06323379 -0.26382047
v -0.11832943 -0.04447596 -0.124831714
v 0.1839612 -0.118666574 -0.76022047
v 0.18333773 -0.10838112 -0.76022047
v 0.18545303 -0.10882905 -0.00171003
v 0.1860765 -0.119114496 -0.0017100441
v 0.18396132 -0.11866627 0.75680023
v 0.18333787 -0.10838077 0.75680023
v 0.1700841 -0.10557348 -0.76022047
v 0.17070754 -0.11585892 -0.76022047
v 0.17282286 -0.11630687 -0.0017100287
v 0.17219941 -0.10602139 -0.0017100305
v 0.17008418 -0.10557311 0.75680023
v 0.17070769 -0.11585862 0.75680023
v 0.17070754 -0.11585892 -0.76022047
v 0.1839612 -0.118666574 -0.76022047
v 0.1860765 -0.119114496 -0.0017100441
v 0.17282286 -0.11630687 -0.0017100287
v 0.17070769 -0.11585862 0.75680023
v 0.18396132 -0.11866627 0.75680023
v -0.14777803 0.055520814 0.3717841
v -0.09567601 -0.049274717 0.3598451
v -0.10262501 0.027859038 0.37811607
v -0.16140996 -0.035349682 0.35139173
v -0.19068632 0.011730823 0.27165067
v -0.22505137 -0.02186795 0.24661766
v -0.20726188 -0.066515125 0.27165067
v -0.18579538 -0.12394224 0.37178412
v -0.1333045 -0.11696525 0.3781161
v -0.032918975 0.009743573 0.22074175
v -0.029782033 -0.06323371 0.26040044
v -0.1183294 -0.044475906 0.12141166
v -0.08045733 0.007876438 0.14961712
v -0.052130084 0.027806621 0.18220474
v -0.062240526 -0.12867051 0.22074176
v -0.08712571 -0.13739222 0.18220477
v -0.10493839 -0.10768778 0.14961714
v -0.029782033 -0.06323371 0.26040044
v -0.1183294 -0.044475906 0.12141166
v -0.100107186 -0.048336126 -0.07761995
v -0.11832943 -0.04447596 -0.124831714
v -0.080457374 0.007876374 -0.15303722
v -0.104938425 -0.10768782 -0.1530372
v -0.06528454 0.003838746 -0.1211392
v -0.089431725 -0.11014935 -0.12113918
v -0.038261425 0.018607708 -0.1513268
v -0.07071838 -0.1346071 -0.15132679
v -0.052130125 0.027806561 -0.18562485
v -0.08712576 -0.13739228 -0.18562482
v -0.019809058 0.009261113 -0.17807612
v -0.032919 0.009743515 -0.2241619
v -0.050061114 -0.13354547 -0.1780761
v -0.06224057 -0.12867057 -0.22416188
v -0.029782077 -0.06323379 -0.26382047
v -0.010267814 -0.06736768 -0.20098487
v -0.090288624 -0.050416086 -0.07861778
v -0.100107186 -0.048336126 -0.07761995
v -0.06528454 0.003838746 -0.1211392
v -0.089431725 -0.11014935 -0.12113918
v -0.06394298 -0.014955312 -0.11165624
v -0.0805847 -0.0935136 -0.111656226
v -0.039265297 0.0023488654 -0.13995045
v -0.06504332 -0.11933779 -0.13995044
v -0.038261425 0.018607708 -0.1513268
v -0.07071838 -0.1346071 -0.15132679
v -0.027598623 -0.021647662 -0.16390245
v -0.019809058 0.009261113 -0.17807612
v -0.044648606 -0.102133125 -0.16390245
v -0.050061114 -0.13354547 -0.1780761
v -0.010267814 -0.06736768 -0.20098487
v -0.016960677 -0.065949865 -0.18196648
v 0.1730508 -0.124334455 -0.80215114
v 0.2136385 -0.11480004 -0.8513064
v 0.17672701 -0.106980726 -0.80215114
v 0.1804032 -0.08962698 -0.80215114
v 0.20997107 -0.13211219 -0.8513064
v 0.17558542 -0.14080581 -0.79478073
v 0.23157665 -0.118600026 -0.88028723
v 0.21277332 -0.14017506 -0.85020524
v 0.2173059 -0.09748776 -0.8513064
v 0.18968216 -0.14379205 -0.7767589
v 0.18939897 -0.07559813 -0.79478073
v 0.2233279 -0.14241095 -0.84751254
v 0.19866574 -0.12976071 -0.7694042
v 0.22313684 -0.09125379 -0.85020524
v 0.20349567 -0.07858435 -0.7767589
v 0.22914958 -0.13617499 -0.8464137
v 0.20234196 -0.11240698 -0.7694042
v 0.23369133 -0.09348965 -0.84751254
v 0.20601816 -0.09505322 -0.7694042
v 0.23648441 -0.101550534 -0.8464137
v 0.232817 -0.118862785 -0.8464137
v 0.18102962 -0.10789217 -0.75089484
v 0.20234196 -0.11240698 -0.7694042
v 0.19866574 -0.12976071 -0.7694042
v 0.20601816 -0.09505322 -0.7694042
v 0.177344 -0.12529027 -0.75089484
v 0.16585702 -0.14355841 -0.76060694
v 0.18968216 -0.14379205 -0.7767589
v 0.1481522 -0.13980787 -0.78423524
v 0.17558542 -0.14080581 -0.79478073
v 0.14504471 -0.11844801 -0.7939672
v 0.1730508 -0.124334455 -0.80215114
v 0.14873034 -0.10104991 -0.7939671
v 0.17672701 -0.106980726 -0.80215114
v 0.1804032 -0.08962698 -0.80215114
v 0.15241595 -0.08365173 -0.7939672
v 0.18939897 -0.07559813 -0.79478073
v 0.12571502 -0.09617437 -0.7791402
v 0.12203557 -0.11354349 -0.7791402
v 0.124757595 -0.1332042 -0.7700481
v 0.14061016 -0.1365624 -0.7481005
v 0.15105781 -0.119691536 -0.73902637
v 0.15473726 -0.102322415 -0.73902637
v 0.12939449 -0.07880516 -0.7791402
v 0.16391751 -0.065386675 -0.78423524
v 0.20349567 -0.07858435 -0.7767589
v 0.13985479 -0.061936993 -0.7700481
v 0.18471523 -0.09049399 -0.75089484
v 0.15841672 -0.084953226 -0.73902637
v 0.15570737 -0.06529519 -0.7481005
v 0.18162234 -0.06913726 -0.76060694
v -0.04670984 -0.059647832 -0.19215597
v -0.11524149 -0.063320264 -0.3513174
v -0.050395165 -0.077044584 -0.19215597
v -0.065571114 -0.09856281 -0.18137173
v -0.13820255 -0.08566924 -0.35148373
v -0.08963193 -0.093465775 -0.15583642
v -0.19555649 -0.0735194 -0.3422794
v -0.09476023 -0.067646295 -0.14507216
v -0.20659328 -0.043968357 -0.33723718
v -0.09107491 -0.05024953 -0.14507216
v -0.111553594 -0.045911364 -0.3513174
v -0.11522434 -0.06398767 -0.45319095
v -0.14129403 -0.08915086 -0.46351287
v -0.18744513 -0.07937422 -0.4875134
v -0.10786571 -0.028502507 -0.3513174
v -0.04302452 -0.04225106 -0.19215599
v -0.048171643 -0.016427603 -0.18137175
v -0.11979236 0.0012370554 -0.35148373
v -0.07223246 -0.011330575 -0.15583643
v -0.10757943 -0.027899425 -0.45319107
v -0.111401916 -0.04594355 -0.45319107
v -0.002562662 -0.08719364 -0.6606507
v -0.17714633 0.013386874 -0.3422794
v -0.087389596 -0.032852788 -0.14507218
v -0.12120659 0.0056731203 -0.46351287
v 0.004814525 -0.052369207 -0.6606507
v -0.19921748 -0.009150602 -0.33723718
v -0.1673577 0.015449708 -0.4875134
v -0.20290536 -0.026559459 -0.33723718
v -0.020955374 -0.11118808 -0.6715571
v 0.0011259324 -0.069781385 -0.6606507
v -0.0022689954 -0.02297792 -0.6715571
v -0.19345437 -0.00970773 -0.4978494
v -0.20109929 -0.045795973 -0.4978494
v -0.05103399 -0.104816236 -0.6973105
v 0.15105781 -0.119691536 -0.73902637
v 0.14061016 -0.1365624 -0.7481005
v 0.15473726 -0.102322415 -0.73902637
v 0.15841672 -0.084953226 -0.73902637
v 0.124757595 -0.1332042 -0.7700481
v 0.15570737 -0.06529519 -0.7481005
v -0.058139116 -0.07542035 -0.7082354
v 0.12203557 -0.11354349 -0.7791402
v -0.03234761 -0.016606087 -0.6973105
v 0.13985479 -0.061936993 -0.7700481
v -0.050761938 -0.04059594 -0.7082354
v 0.12939449 -0.07880516 -0.7791402
v -0.19727683 -0.027751867 -0.4978494
v -0.05445053 -0.058008175 -0.7082354
v 0.12571502 -0.09617437 -0.7791402
v -0.22052251 0.05283419 -0.43285957
v -0.22714391 -0.021424782 -0.34635836
v -0.25521445 -0.0154783875 -0.43317863
v -0.25120202 -0.09199007 -0.43285954
v -0.20026895 0.048543718 -0.3688721
v -0.19005154 0.04637924 -0.42698953
v -0.13807946 0.053466123 -0.41697204
v -0.14777814 0.05552071 -0.37520412
v -0.09374403 0.025977533 -0.4070332
v -0.10262507 0.027858885 -0.3815361
v -0.08409589 -0.05172804 -0.39936447
v -0.0956761 -0.049274884 -0.36326516
v -0.13330458 -0.11696538 -0.38153607
v -0.12442351 -0.11884676 -0.40703323
v -0.18579549 -0.12394236 -0.3752041
v -0.17609681 -0.12599693 -0.416972
v -0.20604473 0.010957892 -0.27255154
v -0.19068636 0.011730726 -0.27507073
v -0.22505142 -0.021868065 -0.25003764
v -0.23094845 -0.09628056 -0.36887214
v -0.22073102 -0.098445006 -0.4269896
v -0.22098769 -0.059581254 -0.27255154
v -0.20726195 -0.066515215 -0.27507073
v -0.2256326 -0.02174494 -0.27678904
v -0.08990191 0.025163608 -0.41806367
v -0.06898563 -0.054928992 -0.44646803
v -0.080528624 -0.052483726 -0.41048467
v -0.12058138 -0.11966065 -0.41806373
v -0.08106258 0.023291087 -0.44344106
v -0.111742064 -0.12153317 -0.44344103
v -0.1354601 0.05291123 -0.42825243
v -0.17347743 -0.12655182 -0.4282524
v -0.13262558 0.05231075 -0.47154495
v -0.17064293 -0.1271523 -0.47154492
v -0.18805031 0.0459553 -0.43837225
v -0.21872984 -0.098868966 -0.43837228
v -0.18725625 0.045787077 -0.5046339
v -0.22101763 0.05293911 -0.44468087
v -0.14332032 0.0010657363 -0.5830638
v -0.21793573 -0.09903719 -0.5046339
v -0.2516971 -0.09188518 -0.4446809
v -0.15964007 -0.07597259 -0.5830638
v -0.21085702 0.050786644 -0.48470652
v -0.2557485 -0.015365249 -0.4449715
v -0.20664725 -0.025766816 -0.5254267
v -0.15211532 -0.037318837 -0.6055183
v -0.24146204 -0.018391706 -0.5015505
v -0.2415365 -0.09403761 -0.4847065
v -0.14763786 -0.03826735 -0.4768077
v -0.13262558 0.05231075 -0.47154495
v -0.14332032 0.0010657363 -0.5830638
v -0.08106258 0.023291087 -0.44344106
v -0.15211532 -0.037318837 -0.6055183
v -0.06898563 -0.054928992 -0.44646803
v -0.15964007 -0.07597259 -0.5830638
v -0.111742064 -0.12153317 -0.44344103
v -0.17064293 -0.1271523 -0.47154492
v -0.100107186 -0.048336104 0.07419989
v -0.08045733 0.007876438 0.14961712
v -0.1183294 -0.044475906 0.12141166
v -0.10493839 -0.10768778 0.14961714
v -0.065284535 0.0038388148 0.117719114
v -0.08943171 -0.11014929 0.11771913
v -0.038261406 0.018607786 0.14790668
v -0.070718355 -0.13460705 0.14790669
v -0.052130084 0.027806621 0.18220474
v -0.08712571 -0.13739222 0.18220477
v -0.019809028 0.00926117 0.17465594
v -0.032918975 0.009743573 0.22074175
v -0.05006108 -0.13354537 0.17465596
v -0.062240526 -0.12867051 0.22074176
v -0.029782033 -0.06323371 0.26040044
v -0.010267778 -0.06736759 0.19756477
v -0.09028861 -0.050416064 0.07519771
v -0.065284535 0.0038388148 0.117719114
v -0.100107186 -0.048336104 0.07419989
v -0.08943171 -0.11014929 0.11771913
v -0.06394298 -0.014955276 0.10823614
v -0.0805847 -0.09351357 0.10823616
v -0.039265275 0.0023489255 0.13653031
v -0.06504331 -0.119337715 0.13653032
v -0.038261406 0.018607786 0.14790668
v -0.070718355 -0.13460705 0.14790669
v -0.027598592 -0.021647606 0.16048233
v -0.019809028 0.00926117 0.17465594
v -0.044648584 -0.10213305 0.16048235
v -0.05006108 -0.13354537 0.17465596
v -0.010267778 -0.06736759 0.19756477
v -0.016960647 -0.065949775 0.17854643
v 0.17305095 -0.12433409 0.7987309
v 0.17672715 -0.10698036 0.7987309
v 0.21363866 -0.11479967 0.8478862
v 0.18040335 -0.08962661 0.7987309
v 0.20997123 -0.13211192 0.8478862
v 0.17558552 -0.1408055 0.7913606
v 0.23157677 -0.11859966 0.87686694
v 0.21277338 -0.14017476 0.846785
v 0.217306 -0.09748744 0.8478862
v 0.1896824 -0.1437918 0.7733387
v 0.1893991 -0.07559782 0.7913606
v 0.22332811 -0.14241062 0.8440923
v 0.1986659 -0.12976035 0.765984
v 0.2231369 -0.09125344 0.846785
v 0.20349589 -0.07858409 0.7733387
v 0.22914964 -0.13617466 0.84299344
v 0.2023421 -0.11240662 0.765984
v 0.23369154 -0.09348935 0.8440923
v 0.20601833 -0.09505286 0.765984
v 0.23648453 -0.10155021 0.84299344
v 0.23281705 -0.118862405 0.84299344
v 0.18102969 -0.107891805 0.7474746
v 0.1986659 -0.12976035 0.765984
v 0.2023421 -0.11240662 0.765984
v 0.20601833 -0.09505286 0.765984
v 0.17734402 -0.12528998 0.7474746
v 0.16585723 -0.14355817 0.7571867
v 0.1896824 -0.1437918 0.7733387
v 0.14815238 -0.13980757 0.78081506
v 0.17558552 -0.1408055 0.7913606
v 0.14504482 -0.11844772 0.79054683
v 0.17305095 -0.12433409 0.7987309
v 0.14873044 -0.10104954 0.7905469
v 0.17672715 -0.10698036 0.7987309
v 0.18040335 -0.08962661 0.7987309
v 0.15241605 -0.08365143 0.79054683
v 0.1893991 -0.07559782 0.7913606
v 0.12571515 -0.09617401 0.77571994
v 0.122035705 -0.1135432 0.77571994
v 0.12475773 -0.13320392 0.76662797
v 0.14061032 -0.13656208 0.74468035
v 0.15105794 -0.11969123 0.7356062
v 0.1547374 -0.10232207 0.7356062
v 0.12939459 -0.07880489 0.77571994
v 0.16391769 -0.065386385 0.78081506
v 0.20349589 -0.07858409 0.7733387
v 0.13985494 -0.061936688 0.76662797
v 0.18471529 -0.09049368 0.7474746
v 0.15841687 -0.08495295 0.7356062
v 0.15570751 -0.06529491 0.74468035
v 0.18162255 -0.06913696 0.7571867
v -0.046709806 -0.059647735 0.18873593
v -0.050395127 -0.07704452 0.18873593
v -0.11524146 -0.06332012 0.34789732
v -0.065571085 -0.09856275 0.17795165
v -0.13820246 -0.08566911 0.34806368
v -0.08963192 -0.093465716 0.15241633
v -0.19555643 -0.07351928 0.33885926
v -0.09476019 -0.06764624 0.14165209
v -0.2065932 -0.043968223 0.33381712
v -0.09107487 -0.050249483 0.14165209
v -0.111553565 -0.04591126 0.34789732
v -0.11522431 -0.06398749 0.44977096
v -0.14129396 -0.08915068 0.46009284
v -0.18744503 -0.07937402 0.48409322
v -0.10786568 -0.02850236 0.34789732
v -0.04302449 -0.042250983 0.18873592
v -0.048171617 -0.016427532 0.17795163
v -0.11979228 0.0012371768 0.34806368
v -0.072232455 -0.011330502 0.15241632
v -0.10757938 -0.027899256 0.4497709
v -0.11140183 -0.045943353 0.4497709
v -0.0025625501 -0.08719336 0.65723044
v -0.17714627 0.013387015 0.33885926
v -0.08738954 -0.03285273 0.14165208
v -0.12120648 0.005673278 0.46009284
v 0.004814633 -0.05236895 0.65723044
v -0.19921742 -0.009150474 0.33381712
v -0.1673576 0.015449874 0.48409322
v -0.20290533 -0.026559362 0.33381712
v -0.020955255 -0.11118779 0.6681369
v 0.0011260293 -0.06978119 0.65723044
v -0.0022688743 -0.022977654 0.6681369
v -0.19345427 -0.009707562 0.4944292
v -0.20109919 -0.045795795 0.4944292
v -0.051033877 -0.10481597 0.6938903
v 0.15105794 -0.11969123 0.7356062
v 0.14061032 -0.13656208 0.74468035
v 0.1547374 -0.10232207 0.7356062
v 0.15841687 -0.08495295 0.7356062
v 0.12475773 -0.13320392 0.76662797
v 0.15570751 -0.06529491 0.74468035
v -0.058138996 -0.07542008 0.7048152
v 0.122035705 -0.1135432 0.77571994
v -0.032347493 -0.016605807 0.6938903
v 0.13985494 -0.061936688 0.76662797
v -0.050761823 -0.040595666 0.7048152
v 0.12939459 -0.07880489 0.77571994
v -0.19727673 -0.027751664 0.4944292
v -0.054450408 -0.05800784 0.7048152
v 0.12571515 -0.09617401 0.77571994
v -0.22052243 0.05283439 0.42943949
v -0.25521433 -0.015478195 0.42975855
v -0.22714388 -0.021424673 0.34293827
v -0.25120196 -0.091989905 0.4294395
v -0.20026892 0.048543874 0.3654521
v -0.19005147 0.046379395 0.42356956
v -0.1380794 0.05346627 0.41355193
v -0.14777803 0.055520814 0.3717841
v -0.09374397 0.025977673 0.40361324
v -0.10262501 0.027859038 0.37811607
v -0.08409577 -0.05172787 0.39594442
v -0.09567601 -0.049274717 0.3598451
v -0.1333045 -0.11696525 0.3781161
v -0.12442347 -0.118846595 0.40361324
v -0.18579538 -0.12394224 0.37178412
v -0.17609674 -0.12599677 0.41355196
v -0.20604467 0.01095801 0.26913148
v -0.19068632 0.011730823 0.27165067
v -0.22505137 -0.02186795 0.24661766
v -0.23094842 -0.09628041 0.3654521
v -0.22073096 -0.09844487 0.42356953
v -0.22098763 -0.05958112 0.26913148
v -0.20726188 -0.066515125 0.27165067
v -0.22563252 -0.021744851 0.27336898
v -0.08990187 0.025163773 0.4146437
v -0.080528565 -0.052483533 0.40706465
v -0.06898553 -0.0549288 0.44304797
v -0.120581366 -0.1196605 0.4146437
v -0.08106249 0.023291253 0.44002107
v -0.11174198 -0.12153302 0.4400211
v -0.13546005 0.0529114 0.42483228
v -0.17347741 -0.12655164 0.4248323
v -0.13262546 0.052310932 0.4681248
v -0.1706428 -0.1271521 0.46812484
v -0.18805028 0.04595548 0.4349523
v -0.2187298 -0.09886877 0.43495226
v -0.18725622 0.04578727 0.5012137
v -0.22101755 0.05293925 0.44126093
v -0.14332026 0.0010659853 0.5796436
v -0.2179357 -0.099037 0.5012137
v -0.25169703 -0.091885015 0.4412609
v -0.15963997 -0.075972326 0.5796436
v -0.21085691 0.05078683 0.48128644
v -0.25574842 -0.015365048 0.44155148
v -0.2066472 -0.025766648 0.52200645
v -0.15211523 -0.037318666 0.60209805
v -0.24146193 -0.018391494 0.49813026
v -0.24153638 -0.094037436 0.48128647
v -0.14763778 -0.03826715 0.4733876
v -0.15211523 -0.037318666 0.60209805
v -0.14332026 0.0010659853 0.5796436
v -0.13262546 0.052310932 0.4681248
v -0.15963997 -0.075972326 0.5796436
v -0.08106249 0.023291253 0.44002107
v -0.1706428 -0.1271521 0.46812484
v -0.06898553 -0.0549288 0.44304797
v -0.11174198 -0.12153302 0.4400211
v -0.08512617 -0.051509697 -0.061545264
v -0.090288624 -0.050416086 -0.07861778
v -0.06394298 -0.014955312 -0.11165624
v -0.0805847 -0.0935136 -0.111656226
v -0.061673924 -0.028018463 -0.06900784
v -0.08292548 -0.051975876 -0.001710028
v -0.07321369 -0.082492575 -0.06900783
v -0.031859163 -0.012503972 -0.07517641
v -0.039265297 0.0023488654 -0.13995045
v -0.052250788 -0.10876379 -0.075176395
v -0.06504332 -0.11933779 -0.13995044
v -0.016839756 -0.0387459 -0.080035605
v -0.015621328 -0.040340494 -0.0017100398
v -0.027598623 -0.021647662 -0.16390245
v -0.016960677 -0.065949865 -0.18196648
v -0.031689946 -0.014924962 -0.0017100439
v -0.0042516505 -0.06864212 -0.08323293
v -0.062702954 -0.03276335 -0.0017100363
v -0.061673917 -0.02801843 0.06558776
v -0.02788086 -0.0908661 -0.0800356
v -0.026120504 -0.08990247 -0.0017100284
v -0.044648606 -0.102133125 -0.16390245
v -0.0013166287 -0.06926386 -0.0017100313
v -0.031859156 -0.012503948 0.071756326
v -0.00425163 -0.06864209 0.07981286
v -0.051114418 -0.10661933 -0.0017100206
v -0.016839743 -0.038745858 0.07661552
v -0.072230354 -0.07773798 -0.0017100276
v -0.073213674 -0.08249255 0.06558777
v -0.08512615 -0.05150968 0.058125217
v -0.05225077 -0.10876375 0.07175634
v -0.06394298 -0.014955276 0.10823614
v -0.039265275 0.0023489255 0.13653031
v -0.09028861 -0.050416064 0.07519771
v -0.027598592 -0.021647606 0.16048233
v -0.0805847 -0.09351357 0.10823616
v -0.016960647 -0.065949775 0.17854643
v -0.06504331 -0.119337715 0.13653032
v -0.027880853 -0.09086605 0.07661553
v -0.044648584 -0.10213305 0.16048235
v -0.080528624 -0.052483726 -0.41048467
v -0.08409589 -0.05172804 -0.39936447
v -0.09374403 0.025977533 -0.4070332
v -0.12442351 -0.11884676 -0.40703323
v -0.08990191 0.025163608 -0.41806367
v -0.12058138 -0.11966065 -0.41806373
v -0.13807946 0.053466123 -0.41697204
v -0.17609681 -0.12599693 -0.416972
v -0.1354601 0.05291123 -0.42825243
v -0.17347743 -0.12655182 -0.4282524
v -0.19005154 0.04637924 -0.42698953
v -0.22073102 -0.098445006 -0.4269896
v -0.18805031 0.0459553 -0.43837225
v -0.21872984 -0.098868966 -0.43837228
v -0.22052251 0.05283419 -0.43285957
v -0.25120202 -0.09199007 -0.43285954
v -0.22101763 0.05293911 -0.44468087
v -0.2516971 -0.09188518 -0.4446809
v -0.25521445 -0.0154783875 -0.43317863
v -0.2557485 -0.015365249 -0.4449715
v -0.080528565 -0.052483533 0.40706465
v -0.09374397 0.025977673 0.40361324
v -0.08409577 -0.05172787 0.39594442
v -0.12442347 -0.118846595 0.40361324
v -0.08990187 0.025163773 0.4146437
v -0.120581366 -0.1196605 0.4146437
v -0.1380794 0.05346627 0.41355193
v -0.17609674 -0.12599677 0.41355196
v -0.13546005 0.0529114 0.42483228
v -0.17347741 -0.12655164 0.4248323
v -0.19005147 0.046379395 0.42356956
v -0.22073096 -0.09844487 0.42356953
v -0.18805028 0.04595548 0.4349523
v -0.2187298 -0.09886877 0.43495226
v -0.22052243 0.05283439 0.42943949
v -0.25120196 -0.091989905 0.4294395
v -0.22101755 0.05293925 0.44126093
v -0.25169703 -0.091885015 0.4412609
v -0.25521433 -0.015478195 0.42975855
v -0.25574842 -0.015365048 0.44155148
vt 0.28118238 0.64632994
vt 0.28118238 0.64632994
vt 0.28118238 0.64632994
vt 0.28118238 0.64632994
vt 0.28118238 0.64632994
vt 0.28118238 0.64632994
vt 0.28118238 0.64632994
vt 0.28118238 0.64632994
vt 0.28118238 0.64632994
vt 0.21655679 0.58736616
vt 0.21655679 0.58736616
vt 0.21655679 0.58736616
vt 0.21655679 0.58736616
vt 0.21655679 0.58736616
vt 0.210356 0.530784
vt 0.210356 0.530784
vt 0.210356 0.530784
vt 0.210356 0.530784
vt 0.210356 0.530784
vt 0.210356 0.530784
vt 0.210356 0.530784
vt 0.210356 0.530784
vt 0.210356 0.530784
vt 0.210356 0.530784
vt 0.210356 0.530784
vt 0.210356 0.530784
vt 0.210356 0.530784
vt 0.210356 0.530784
vt 0.210356 0.530784
vt 0.210356 0.530784
vt 0.210356 0.530784
vt 0.210356 0.530784
vt 0.21655679 0.58736616
vt 0.21655679 0.58736616
vt 0.21655679 0.58736616
vt 0.21655679 0.58736616
vt 0.21655679 0.58736616
vt 0.210356 0.530784
vt 0.210356 0.530784
vt 0.210356 0.530784
vt 0.210356 0.530784
vt 0.210356 0.530784
vt 0.210356 0.530784
vt 0.210356 0.530784
vt 0.210356 0.530784
vt 0.210356 0.530784
vt 0.210356 0.530784
vt 0.210356 0.530784
vt 0.210356 0.530784
vt 0.210356 0.530784
vt 0.210356 0.530784
vt 0.210356 0.530784
vt 0.210356 0.530784
vt 0.210356 0.530784
vt 0.210356 0.530784
vt 0.28118238 0.64632994
vt 0.28118238 0.64632994
vt 0.28118238 0.64632994
vt 0.28118238 0.64632994
vt 0.28118238 0.64632994
vt 0.28118238 0.64632994
vt 0.28118238 0.64632994
vt 0.28118238 0.64632994
vt 0.28118238 0.64632994
vt 0.21655679 0.58736616
vt 0.21655679 0.58736616
vt 0.21655679 0.58736616
vt 0.21655679 0.58736616
vt 0.21655679 0.58736616
vt 0.21655679 0.58736616
vt 0.21655679 0.58736616
vt 0.21655679 0.58736616
vt 0.21655679 0.58736616
vt 0.21655679 0.58736616
vt 0.210356 0.530784
vt 0.210356 0.530784
vt 0.210356 0.530784
vt 0.210356 0.530784
vt 0.210356 0.530784
vt 0.210356 0.530784
vt 0.210356 0.530784
vt 0.210356 0.530784
vt 0.210356 0.530784
vt 0.210356 0.530784
vt 0.210356 0.530784
vt 0.210356 0.530784
vt 0.210356 0.530784
vt 0.210356 0.530784
vt 0.210356 0.530784
vt 0.210356 0.530784
vt 0.21104574 0.56198937
vt 0.21104574 0.56198937
vt 0.21104574 0.56198937
vt 0.21104574 0.56198937
vt 0.21104574 0.56198937
vt 0.21104574 0.56198937
vt 0.21104574 0.56198937
vt 0.21104574 0.56198937
vt 0.21104574 0.56198937
vt 0.21104574 0.56198937
vt 0.21104574 0.56198937
vt 0.21104574 0.56198937
vt 0.21104574 0.56198937
vt 0.21104574 0.56198937
vt 0.21104574 0.56198937
vt 0.21104574 0.56198937
vt 0.22034399 0.5974337
vt 0.22034399 0.5974337
vt 0.22034399 0.5974337
vt 0.22034399 0.5974337
vt 0.22034399 0.5974337
vt 0.22034399 0.5974337
vt 0.22034399 0.5974337
vt 0.22034399 0.5974337
vt 0.22034399 0.5974337
vt 0.22034399 0.5974337
vt 0.22034399 0.5974337
vt 0.22034399 0.5974337
vt 0.22034399 0.5974337
vt 0.22034399 0.5974337
vt 0.22034399 0.5974337
vt 0.22034399 0.5974337
vt 0.22034399 0.5974337
vt 0.22034399 0.5974337
vt 0.22034399 0.5974337
vt 0.22034399 0.5974337
vt 0.22034399 0.5974337
vt 0.210356 0.530784
vt 0.210356 0.530784
vt 0.210356 0.530784
vt 0.210356 0.530784
vt 0.210356 0.530784
vt 0.210356 0.530784
vt 0.210356 0.530784
vt 0.210356 0.530784
vt 0.210356 0.530784
vt 0.210356 0.530784
vt 0.210356 0.530784
vt 0.210356 0.530784
vt 0.210356 0.530784
vt 0.210356 0.530784
vt 0.210356 0.530784
vt 0.210356 0.530784
vt 0.210356 0.530784
vt 0.210356 0.530784
vt 0.210356 0.530784
vt 0.210356 0.530784
vt 0.210356 0.530784
vt 0.210356 0.530784
vt 0.210356 0.530784
vt 0.210356 0.530784
vt 0.210356 0.530784
vt 0.210356 0.530784
vt 0.210356 0.530784
vt 0.210356 0.530784
vt 0.210356 0.530784
vt 0.210356 0.530784
vt 0.22034399 0.5974337
vt 0.22034399 0.5974337
vt 0.22034399 0.5974337
vt 0.22034399 0.5974337
vt 0.22034399 0.5974337
vt 0.22034399 0.5974337
vt 0.22034399 0.5974337
vt 0.22034399 0.5974337
vt 0.22034399 0.5974337
vt 0.22034399 0.5974337
vt 0.22034399 0.5974337
vt 0.22034399 0.5974337
vt 0.22034399 0.5974337
vt 0.22034399 0.5974337
vt 0.22034399 0.5974337
vt 0.22034399 0.5974337
vt 0.22034399 0.5974337
vt 0.22034399 0.5974337
vt 0.22034399 0.5974337
vt 0.22034399 0.5974337
vt 0.22034399 0.5974337
vt 0.22034399 0.5974337
vt 0.22034399 0.5974337
vt 0.22034399 0.5974337
vt 0.22034399 0.5974337
vt 0.22034399 0.5974337
vt 0.22034399 0.5974337
vt 0.22034399 0.5974337
vt 0.22034399 0.5974337
vt 0.22034399 0.5974337
vt 0.22034399 0.5974337
vt 0.22034399 0.5974337
vt 0.22034399 0.5974337
vt 0.22034399 0.5974337
vt 0.22034399 0.5974337
vt 0.22034399 0.5974337
vt 0.22034399 0.5974337
vt 0.22034399 0.5974337
vt 0.22034399 0.5974337
vt 0.22034399 0.5974337
vt 0.22034399 0.5974337
vt 0.22034399 0.5974337
vt 0.22034399 0.5974337
vt 0.22034399 0.5974337
vt 0.22034399 0.5974337
vt 0.22034399 0.5974337
vt 0.22034399 0.5974337
vt 0.22034399 0.5974337
vt 0.22034399 0.5974337
vt 0.22034399 0.5974337
vt 0.279952 0.5958839
vt 0.279952 0.5958839
vt 0.279952 0.5958839
vt 0.279952 0.5958839
vt 0.279952 0.5958839
vt 0.279952 0.5958839
vt 0.279952 0.5958839
vt 0.279952 0.5958839
vt 0.279952 0.5958839
vt 0.279952 0.5958839
vt 0.279952 0.5958839
vt 0.279952 0.5958839
vt 0.279952 0.5958839
vt 0.279952 0.5958839
vt 0.279952 0.5958839
vt 0.279952 0.5958839
vt 0.279952 0.5958839
vt 0.279952 0.5958839
vt 0.279952 0.5958839
vt 0.279952 0.5958839
vt 0.279952 0.5958839
vt 0.279952 0.5958839
vt 0.279952 0.5958839
vt 0.279952 0.5958839
vt 0.279952 0.5958839
vt 0.279952 0.5958839
vt 0.279952 0.5958839
vt 0.279952 0.5958839
vt 0.279952 0.5958839
vt 0.279952 0.5958839
vt 0.279952 0.5958839
vt 0.279952 0.5958839
vt 0.279952 0.5958839
vt 0.279952 0.5958839
vt 0.279952 0.5958839
vt 0.279952 0.5958839
vt 0.279952 0.5958839
vt 0.279952 0.5958839
vt 0.279952 0.5958839
vt 0.279952 0.5958839
vt 0.279952 0.5958839
vt 0.279952 0.5958839
vt 0.279952 0.5958839
vt 0.279952 0.5958839
vt 0.279952 0.5958839
vt 0.279952 0.5958839
vt 0.279952 0.5958839
vt 0.279952 0.5958839
vt 0.28118238 0.64632994
vt 0.28118238 0.64632994
vt 0.28118238 0.64632994
vt 0.28118238 0.64632994
vt 0.28118238 0.64632994
vt 0.28118238 0.64632994
vt 0.28118238 0.64632994
vt 0.28118238 0.64632994
vt 0.28118238 0.64632994
vt 0.210356 0.530784
vt 0.210356 0.530784
vt 0.210356 0.530784
vt 0.210356 0.530784
vt 0.210356 0.530784
vt 0.210356 0.530784
vt 0.210356 0.530784
vt 0.210356 0.530784
vt 0.210356 0.530784
vt 0.210356 0.530784
vt 0.210356 0.530784
vt 0.210356 0.530784
vt 0.210356 0.530784
vt 0.210356 0.530784
vt 0.210356 0.530784
vt 0.210356 0.530784
vt 0.21104574 0.56198937
vt 0.21104574 0.56198937
vt 0.21104574 0.56198937
vt 0.21104574 0.56198937
vt 0.21104574 0.56198937
vt 0.21104574 0.56198937
vt 0.21104574 0.56198937
vt 0.21104574 0.56198937
vt 0.21104574 0.56198937
vt 0.21104574 0.56198937
vt 0.21104574 0.56198937
vt 0.21104574 0.56198937
vt 0.21104574 0.56198937
vt 0.21104574 0.56198937
vt 0.21104574 0.56198937
vt 0.21104574 0.56198937
vt 0.22034399 0.5974337
vt 0.22034399 0.5974337
vt 0.22034399 0.5974337
vt 0.22034399 0.5974337
vt 0.22034399 0.5974337
vt 0.22034399 0.5974337
vt 0.22034399 0.5974337
vt 0.22034399 0.5974337
vt 0.22034399 0.5974337
vt 0.22034399 0.5974337
vt 0.22034399 0.5974337
vt 0.22034399 0.5974337
vt 0.22034399 0.5974337
vt 0.22034399 0.5974337
vt 0.22034399 0.5974337
vt 0.22034399 0.5974337
vt 0.22034399 0.5974337
vt 0.22034399 0.5974337
vt 0.22034399 0.5974337
vt 0.22034399 0.5974337
vt 0.22034399 0.5974337
vt 0.210356 0.530784
vt 0.210356 0.530784
vt 0.210356 0.530784
vt 0.210356 0.530784
vt 0.210356 0.530784
vt 0.210356 0.530784
vt 0.210356 0.530784
vt 0.210356 0.530784
vt 0.210356 0.530784
vt 0.210356 0.530784
vt 0.210356 0.530784
vt 0.210356 0.530784
vt 0.210356 0.530784
vt 0.210356 0.530784
vt 0.210356 0.530784
vt 0.210356 0.530784
vt 0.210356 0.530784
vt 0.210356 0.530784
vt 0.210356 0.530784
vt 0.210356 0.530784
vt 0.210356 0.530784
vt 0.210356 0.530784
vt 0.210356 0.530784
vt 0.210356 0.530784
vt 0.210356 0.530784
vt 0.210356 0.530784
vt 0.210356 0.530784
vt 0.210356 0.530784
vt 0.210356 0.530784
vt 0.210356 0.530784
vt 0.22034399 0.5974337
vt 0.22034399 0.5974337
vt 0.22034399 0.5974337
vt 0.22034399 0.5974337
vt 0.22034399 0.5974337
vt 0.22034399 0.5974337
vt 0.22034399 0.5974337
vt 0.22034399 0.5974337
vt 0.22034399 0.5974337
vt 0.22034399 0.5974337
vt 0.22034399 0.5974337
vt 0.22034399 0.5974337
vt 0.22034399 0.5974337
vt 0.22034399 0.5974337
vt 0.22034399 0.5974337
vt 0.22034399 0.5974337
vt 0.22034399 0.5974337
vt 0.22034399 0.5974337
vt 0.22034399 0.5974337
vt 0.22034399 0.5974337
vt 0.22034399 0.5974337
vt 0.22034399 0.5974337
vt 0.22034399 0.5974337
vt 0.22034399 0.5974337
vt 0.22034399 0.5974337
vt 0.22034399 0.5974337
vt 0.22034399 0.5974337
vt 0.22034399 0.5974337
vt 0.22034399 0.5974337
vt 0.22034399 0.5974337
vt 0.22034399 0.5974337
vt 0.22034399 0.5974337
vt 0.22034399 0.5974337
vt 0.22034399 0.5974337
vt 0.22034399 0.5974337
vt 0.22034399 0.5974337
vt 0.22034399 0.5974337
vt 0.22034399 0.5974337
vt 0.22034399 0.5974337
vt 0.22034399 0.5974337
vt 0.22034399 0.5974337
vt 0.22034399 0.5974337
vt 0.22034399 0.5974337
vt 0.22034399 0.5974337
vt 0.22034399 0.5974337
vt 0.22034399 0.5974337
vt 0.22034399 0.5974337
vt 0.22034399 0.5974337
vt 0.22034399 0.5974337
vt 0.22034399 0.5974337
vt 0.279952 0.5958839
vt 0.279952 0.5958839
vt 0.279952 0.5958839
vt 0.279952 0.5958839
vt 0.279952 0.5958839
vt 0.279952 0.5958839
vt 0.279952 0.5958839
vt 0.279952 0.5958839
vt 0.279952 0.5958839
vt 0.279952 0.5958839
vt 0.279952 0.5958839
vt 0.279952 0.5958839
vt 0.279952 0.5958839
vt 0.279952 0.5958839
vt 0.279952 0.5958839
vt 0.279952 0.5958839
vt 0.279952 0.5958839
vt 0.279952 0.5958839
vt 0.279952 0.5958839
vt 0.279952 0.5958839
vt 0.279952 0.5958839
vt 0.279952 0.5958839
vt 0.279952 0.5958839
vt 0.279952 0.5958839
vt 0.279952 0.5958839
vt 0.279952 0.5958839
vt 0.279952 0.5958839
vt 0.279952 0.5958839
vt 0.279952 0.5958839
vt 0.279952 0.5958839
vt 0.279952 0.5958839
vt 0.279952 0.5958839
vt 0.279952 0.5958839
vt 0.279952 0.5958839
vt 0.279952 0.5958839
vt 0.279952 0.5958839
vt 0.279952 0.5958839
vt 0.279952 0.5958839
vt 0.279952 0.5958839
vt 0.279952 0.5958839
vt 0.279952 0.5958839
vt 0.279952 0.5958839
vt 0.279952 0.5958839
vt 0.279952 0.5958839
vt 0.279952 0.5958839
vt 0.279952 0.5958839
vt 0.279952 0.5958839
vt 0.279952 0.5958839
vt 0.28118238 0.64632994
vt 0.28118238 0.64632994
vt 0.28118238 0.64632994
vt 0.28118238 0.64632994
vt 0.28118238 0.64632994
vt 0.28118238 0.64632994
vt 0.28118238 0.64632994
vt 0.28118238 0.64632994
vt 0.28118238 0.64632994
vt 0.210356 0.530784
vt 0.210356 0.530784
vt 0.210356 0.530784
vt 0.210356 0.530784
vt 0.210356 0.530784
vt 0.210356 0.530784
vt 0.210356 0.530784
vt 0.210356 0.530784
vt 0.210356 0.530784
vt 0.210356 0.530784
vt 0.210356 0.530784
vt 0.210356 0.530784
vt 0.210356 0.530784
vt 0.210356 0.530784
vt 0.210356 0.530784
vt 0.210356 0.530784
vt 0.210356 0.530784
vt 0.210356 0.530784
vt 0.210356 0.530784
vt 0.210356 0.530784
vt 0.210356 0.530784
vt 0.210356 0.530784
vt 0.210356 0.530784
vt 0.210356 0.530784
vt 0.210356 0.530784
vt 0.210356 0.530784
vt 0.210356 0.530784
vt 0.210356 0.530784
vt 0.210356 0.530784
vt 0.210356 0.530784
vt 0.210356 0.530784
vt 0.210356 0.530784
vt 0.210356 0.530784
vt 0.210356 0.530784
vt 0.210356 0.530784
vt 0.210356 0.530784
vt 0.210356 0.530784
vt 0.210356 0.530784
vt 0.210356 0.530784
vt 0.210356 0.530784
vt 0.031518787 0.97935146
vt 0.031518787 0.97935146
vt 0.031518787 0.97935146
vt 0.031518787 0.97935146
vt 0.031518787 0.97935146
vt 0.031518787 0.97935146
vt 0.031518787 0.97935146
vt 0.031518787 0.97935146
vt 0.031518787 0.97935146
vt 0.031518787 0.97935146
vt 0.031518787 0.97935146
vt 0.031518787 0.97935146
vt 0.031518787 0.97935146
vt 0.031518787 0.97935146
vt 0.031518787 0.97935146
vt 0.031518787 0.97935146
vt 0.031518787 0.97935146
vt 0.031518787 0.97935146
vt 0.031518787 0.97935146
vt 0.031518787 0.97935146
vt 0.031518787 0.97935146
vt 0.031518787 0.97935146
vt 0.031518787 0.97935146
vt 0.031518787 0.97935146
vt 0.031518787 0.97935146
vt 0.031518787 0.97935146
vt 0.031518787 0.97935146
vt 0.031518787 0.97935146
vt 0.031518787 0.97935146
vt 0.031518787 0.97935146
vt 0.031518787 0.97935146
vt 0.031518787 0.97935146
vt 0.031518787 0.97935146
vt 0.031518787 0.97935146
vt 0.031518787 0.97935146
vt 0.031518787 0.97935146
vt 0.031518787 0.97935146
vt 0.031518787 0.97935146
vt 0.031518787 0.97935146
vt 0.031518787 0.97935146
vn 0.30488572 0.86634547 0.39558846
vn 0.64337206 0.5050598 0.57531464
vn 0.6471314 -0.13709272 0.74995095
vn 0.617348 -0.13077597 0.77574414
vn 0.5746225 0.41134277 0.7075352
vn -0.37419167 0.079257466 0.9239583
vn 0.3584529 -0.6090189 0.7075362
vn -0.0725753 -0.9155537 0.39559343
vn 0.38328812 -0.7225679 0.57531375
vn -0.7984375 0.27085957 -0.5377105
vn -0.7984375 0.27085957 -0.5377105
vn -0.7984375 0.27085957 -0.5377105
vn -0.7984375 0.27085957 -0.5377105
vn -0.7984375 0.27085957 -0.5377105
vn -0.88789177 0.46004406 0.0027478144
vn -0.88789177 0.46004406 0.0027478144
vn -0.88789177 0.46004406 0.0027478144
vn -0.88789177 0.46004406 0.0027478144
vn -0.8878914 0.46004483 -0.002747846
vn -0.8878914 0.46004483 -0.002747846
vn 0.88789225 -0.46004334 -0.00274782
vn 0.88789225 -0.46004334 -0.00274782
vn 0.88789225 -0.46004334 -0.00274782
vn 0.88789225 -0.46004334 -0.00274782
vn 0.88789046 -0.46004665 0.0027478882
vn 0.88789046 -0.46004665 0.0027478882
vn -0.20724195 -0.97828966 0
vn -0.20724195 -0.97828966 0
vn -0.20724195 -0.97828966 0
vn -0.20724195 -0.97828966 0
vn -0.20724142 -0.9782898 0
vn -0.20724142 -0.9782898 0
vn -0.8396829 0.07615885 -0.5377105
vn -0.8396829 0.07615885 -0.5377105
vn -0.8396829 0.07615885 -0.5377105
vn -0.8396829 0.07615885 -0.5377105
vn -0.8396829 0.07615885 -0.5377105
vn -0.9981641 -0.06050475 0.0027479061
vn -0.9981641 -0.06050475 0.0027479061
vn -0.9981641 -0.06050475 0.0027479061
vn -0.9981641 -0.06050475 0.0027479061
vn -0.99816424 -0.06050431 -0.002747718
vn -0.99816424 -0.06050431 -0.002747718
vn 0.99816424 0.060502786 -0.002747928
vn 0.99816424 0.060502786 -0.002747928
vn 0.99816424 0.060502786 -0.002747928
vn 0.99816424 0.060502786 -0.002747928
vn 0.9981641 0.06050452 0.0027477562
vn 0.9981641 0.06050452 0.0027477562
vn 0.20724012 0.97829014 0
vn 0.20724012 0.97829014 0
vn 0.20724012 0.97829014 0
vn 0.20724012 0.97829014 0
vn 0.20723988 0.97829014 0
vn 0.20723988 0.97829014 0
vn 0.30488572 0.86634547 -0.39558846
vn 0.6471314 -0.13709272 -0.74995095
vn 0.64337206 0.5050598 -0.57531464
vn 0.617348 -0.13077597 -0.77574414
vn 0.5746225 0.41134277 -0.7075352
vn -0.37419167 0.079257466 -0.9239583
vn 0.3584529 -0.6090189 -0.7075362
vn -0.0725753 -0.9155537 -0.39559343
vn 0.38328812 -0.7225679 -0.57531375
vn -0.79843736 0.27086017 0.53771055
vn -0.79843736 0.27086017 0.53771055
vn -0.79843736 0.27086017 0.53771055
vn -0.79843736 0.27086017 0.53771055
vn -0.79843736 0.27086017 0.53771055
vn -0.8396829 0.07615845 0.53771055
vn -0.8396829 0.07615845 0.53771055
vn -0.8396829 0.07615845 0.53771055
vn -0.8396829 0.07615845 0.53771055
vn -0.8396829 0.07615845 0.53771055
vn -0.41615728 0.088138916 0.9050108
vn -0.97770905 0.20710243 0.03454759
vn -0.70750403 0.7019495 -0.08188393
vn -0.9313651 -0.35475922 -0.081883945
vn -0.040255263 0.7664065 0.6410933
vn -0.34758478 -0.6842436 0.64108926
vn 0.4724654 0.7633119 0.44060346
vn 0.12235085 -0.8893249 0.44060344
vn -0.2745545 0.91766393 -0.28725067
vn -0.62305516 -0.72752327 -0.2872493
vn 0.8790063 0.46803835 0.091037974
vn 0.15174352 0.6693867 -0.7272518
vn 0.6137168 -0.78425986 0.091039695
vn -0.13269705 -0.67343444 -0.7272396
vn 0.19199668 -0.040651657 -0.9805533
vn 0.97828853 -0.20722443 0.0030824253
vn -0.48864552 0.103491165 0.8663227
vn -0.41615728 0.088138916 0.9050108
vn -0.040255263 0.7664065 0.6410933
vn -0.34758478 -0.6842436 0.64108926
vn -0.02194334 0.77610445 0.63022244
vn -0.3347651 -0.70053774 0.63022155
vn 0.736488 0.49010694 0.46624094
vn 0.47448105 -0.7466507 0.46624085
vn 0.4724654 0.7633119 0.44060346
vn 0.12235085 -0.8893249 0.44060344
vn 0.9534197 0.19941242 0.22633037
vn 0.8790063 0.46803835 0.091037974
vn 0.7906641 -0.56888014 0.2263313
vn 0.6137168 -0.78425986 0.091039695
vn 0.97828853 -0.20722443 0.0030824253
vn 0.94814813 -0.20084858 0.24632257
vn -0.5832853 -0.16514005 -0.795303
vn -0.8022014 0.1699318 -0.5723601
vn -0.5502362 0.116554 -0.8268345
vn -0.46621382 0.38747388 -0.7953041
vn -0.78400815 -0.12662423 -0.6076986
vn -0.33723608 -0.84693563 -0.4110618
vn 0.25440732 -0.053896755 -0.9655942
vn -0.42805967 -0.7580923 -0.491997
vn -0.6653029 0.43365696 -0.60771185
vn 0.32075313 -0.90677613 0.27363202
vn 0.035127368 0.9109311 -0.41106042
vn 0.37895563 -0.91316193 -0.15009291
vn 0.7091029 -0.4124913 0.57186013
vn -0.08386782 0.8665426 -0.49200624
vn 0.6608874 0.6988225 0.27363274
vn 0.8744918 -0.47566932 0.09488361
vn 0.7931065 -0.16800904 0.58545285
vn 0.71667767 0.68106204 -0.15009244
vn 0.81545734 0.08954497 0.5718487
vn 0.9922524 0.080202974 0.09488244
vn 0.9636089 -0.2041115 0.17261584
vn 0.5197146 -0.110083416 0.8472181
vn 0.7931065 -0.16800904 0.58545285
vn 0.7091029 -0.4124913 0.57186013
vn 0.81545734 0.08954497 0.5718487
vn 0.44869396 -0.36281282 0.81672555
vn 0.10150819 -0.91015553 0.40163794
vn 0.32075313 -0.90677613 0.27363202
vn -0.35814595 -0.8063854 -0.4706102
vn -0.33723608 -0.84693563 -0.4110618
vn -0.4434746 -0.16950367 -0.88011295
vn -0.5832853 -0.16514005 -0.795303
vn -0.39930776 0.084567554 -0.9129084
vn -0.5502362 0.116554 -0.8268345
vn -0.46621382 0.38747388 -0.7953041
vn -0.3366566 0.33476442 -0.8801109
vn 0.035127368 0.9109311 -0.41106042
vn -0.4386261 0.09290132 -0.89385486
vn -0.47509626 -0.1704206 -0.86327314
vn -0.39650604 -0.807875 -0.43602845
vn 0.026796179 -0.8876615 0.45971623
vn 0.34654158 -0.34181115 0.87354106
vn 0.41615728 -0.088138916 0.9050108
vn -0.3651922 0.3484372 -0.8632648
vn -0.00039675058 0.88234276 -0.47060722
vn 0.6608874 0.6988225 0.27363274
vn -0.034852277 0.89926195 -0.43601966
vn 0.557278 0.14969598 0.8167205
vn 0.45537373 0.17191343 0.8735448
vn 0.3844475 0.8005431 0.45970726
vn 0.4618476 0.79081446 0.4016331
vn 0.9031111 -0.19129159 -0.38444483
vn 0.85594434 -0.479092 -0.19449951
vn 0.8078891 -0.45835924 -0.3704351
vn 0.179817 -0.9722387 -0.14972544
vn 0.22742975 -0.9716731 -0.0642431
vn -0.6369395 -0.7152523 0.28761467
vn -0.6825374 -0.7175432 0.13883306
vn -0.86628896 -0.08365327 0.49248913
vn -0.967732 -0.07724399 0.23985007
vn -0.84077024 0.17810939 0.51125574
vn 0.9594641 -0.20322767 -0.19526215
vn 0.83375776 -0.5011886 0.23164175
vn 0.17487456 -0.97764957 0.11670513
vn -0.65809584 -0.73769116 -0.1507367
vn 0.97668546 0.0908566 -0.19450085
vn 0.92434996 0.09140346 -0.37043583
vn 0.5586173 0.8157997 -0.14972554
vn 0.6018909 0.7959902 -0.06424198
vn -0.2921883 0.91208893 0.28761044
vn 0.9653688 0.12003022 0.23163724
vn 0.94693506 -0.20056908 0.25116912
vn 0.575527 -0.43175206 0.69452053
vn -0.33293617 0.932673 0.13883276
vn -0.75795406 0.42773208 0.49249464
vn 0.5562718 0.8227646 0.11670507
vn 0.7011516 0.16129477 0.69452894
vn -0.85328585 0.46300653 0.23985027
vn -0.30244273 0.94117373 -0.15073307
vn -0.94778544 0.20075777 0.24778844
vn 0.09457858 -0.9590921 0.26682815
vn 0.6766214 -0.14332046 0.7222484
vn 0.47536153 0.8383527 0.26682624
vn -0.82773465 0.46895403 -0.3081192
vn -0.9467864 -0.093051985 -0.30811834
vn -0.48137742 -0.7583075 -0.43959677
vn 0.34654158 -0.34181115 0.87354106
vn 0.026796179 -0.8876615 0.45971623
vn 0.41615728 -0.088138916 0.9050108
vn 0.45537373 0.17191343 0.8735448
vn -0.39650604 -0.807875 -0.43602845
vn 0.3844475 0.8005431 0.45970726
vn -0.6430391 -0.14334859 -0.75229776
vn -0.47509626 -0.1704206 -0.86327314
vn -0.13254581 0.8883591 -0.43960163
vn -0.034852277 0.89926195 -0.43601966
vn -0.5296936 0.39180723 -0.7522711
vn -0.3651922 0.3484372 -0.8632648
vn -0.9282519 0.19663744 -0.31572467
vn -0.60430187 0.12799565 -0.7864073
vn -0.4386261 0.09290132 -0.89385486
vn -0.4589715 0.8805575 0.1181686
vn -0.9636581 0.20413952 0.17230852
vn -0.96312636 0.20402116 0.1753941
vn -0.7765989 -0.6188131 0.11817145
vn -0.47164783 0.85384303 0.22022846
vn 0.041536264 0.9985489 -0.034272764
vn 0.20573051 0.97850937 0.013947314
vn 0.30488572 0.86634547 0.39558846
vn 0.8032189 0.553781 0.21946757
vn 0.64337206 0.5050598 0.57531464
vn 0.9260143 -0.19614705 0.32252714
vn 0.6471314 -0.13709272 0.74995095
vn 0.38328812 -0.7225679 0.57531375
vn 0.5096774 -0.8319034 0.21946648
vn -0.0725753 -0.9155537 0.39559343
vn -0.20865826 -0.9778892 0.013947174
vn -0.4345674 0.72798204 0.53027654
vn 0.5746225 0.41134277 0.7075352
vn -0.37419167 0.079257466 0.9239583
vn -0.7773496 -0.589261 0.22022514
vn -0.36690637 -0.92962635 -0.034273487
vn -0.6924192 -0.48925298 0.53027076
vn 0.3584529 -0.6090189 0.7075362
vn -0.97589797 0.20673399 0.06988793
vn 0.80125034 0.5606982 0.20884271
vn 0.91020447 -0.19282028 -0.3665355
vn 0.9260234 -0.19614899 0.3224998
vn 0.5050571 -0.83743834 0.20884077
vn 0.8326205 0.44411314 -0.33091798
vn 0.58102643 -0.7435723 -0.33092082
vn 0.21519041 0.97636807 0.019959513
vn -0.1991691 -0.97976184 0.019959636
vn 0.45302296 0.82437724 -0.33937046
vn 0.0798369 -0.93725955 -0.33936787
vn 0.03558538 0.9991679 -0.019929033
vn -0.3726057 -0.9277757 -0.019928865
vn -0.23981737 0.8347524 -0.49565718
vn -0.46664208 0.88179785 -0.06839404
vn 0.44008416 0.46330914 -0.7692012
vn -0.55770284 -0.66580087 -0.49565786
vn -0.7841265 -0.616821 -0.068393245
vn 0.21439731 -0.6019605 -0.7692057
vn -0.3900691 0.84575504 -0.36406654
vn -0.9731861 0.20615505 -0.102024615
vn -0.69701815 0.14764978 -0.70168746
vn 0.21043177 -0.04455843 -0.9765926
vn -0.8027585 0.17005552 -0.5715416
vn -0.6995059 -0.61493653 -0.3640666
vn 0.8184002 -0.17334849 -0.54787886
vn 0.45302296 0.82437724 -0.33937046
vn 0.44008416 0.46330914 -0.7692012
vn 0.8326205 0.44411314 -0.33091798
vn 0.21043177 -0.04455843 -0.9765926
vn 0.91020447 -0.19282028 -0.3665355
vn 0.21439731 -0.6019605 -0.7692057
vn 0.58102643 -0.7435723 -0.33092082
vn 0.0798369 -0.93725955 -0.33936787
vn -0.41615728 0.088138916 -0.9050108
vn -0.70750403 0.7019495 0.08188393
vn -0.97770905 0.20710243 -0.03454759
vn -0.9313651 -0.35475922 0.081883945
vn -0.040255263 0.7664065 -0.6410933
vn -0.34758478 -0.6842436 -0.64108926
vn 0.4724654 0.7633119 -0.44060346
vn 0.12235085 -0.8893249 -0.44060344
vn -0.2745545 0.91766393 0.28725067
vn -0.62305516 -0.72752327 0.2872493
vn 0.87901884 0.46801454 -0.09103927
vn 0.15174042 0.66940355 0.727237
vn 0.6137168 -0.78425986 -0.091039695
vn -0.13269705 -0.67343444 0.7272396
vn 0.19199668 -0.040651657 0.9805533
vn 0.97828853 -0.20722443 -0.0030824253
vn -0.48864552 0.103491165 -0.8663227
vn -0.040255263 0.7664065 -0.6410933
vn -0.41615728 0.088138916 -0.9050108
vn -0.34758478 -0.6842436 -0.64108926
vn -0.02194334 0.77610445 -0.63022244
vn -0.3347651 -0.70053774 -0.63022155
vn 0.736488 0.49010694 -0.46624094
vn 0.47448105 -0.7466507 -0.46624085
vn 0.4724654 0.7633119 -0.44060346
vn 0.12235085 -0.8893249 -0.44060344
vn 0.9534197 0.19941242 -0.22633037
vn 0.87901884 0.46801454 -0.09103927
vn 0.7906641 -0.56888014 -0.2263313
vn 0.6137168 -0.78425986 -0.091039695
vn 0.97828853 -0.20722443 -0.0030824253
vn 0.94814813 -0.20084858 -0.24632257
vn -0.5832853 -0.16514005 0.795303
vn -0.5502362 0.116554 0.8268345
vn -0.8022014 0.1699318 0.5723601
vn -0.46621382 0.38747388 0.7953041
vn -0.78400815 -0.12662423 0.6076986
vn -0.33723608 -0.84693563 0.4110618
vn 0.25440732 -0.053896755 0.9655942
vn -0.42805967 -0.7580923 0.491997
vn -0.6653199 0.43364817 0.6076995
vn 0.32075313 -0.90677613 -0.27363202
vn 0.035127368 0.9109311 0.41106042
vn 0.37895563 -0.91316193 0.15009291
vn 0.7091029 -0.4124913 -0.57186013
vn -0.08386782 0.8665426 0.49200624
vn 0.6608874 0.6988225 -0.27363274
vn 0.87450445 -0.4756457 -0.094884984
vn 0.7930923 -0.16800605 -0.5854729
vn 0.71667767 0.68106204 0.15009244
vn 0.81544316 0.08954341 -0.57186925
vn 0.9922524 0.080202974 -0.09488244
vn 0.9636089 -0.2041115 -0.17261584
vn 0.5197146 -0.110083416 -0.8472181
vn 0.7091029 -0.4124913 -0.57186013
vn 0.7930923 -0.16800605 -0.5854729
vn 0.81544316 0.08954341 -0.57186925
vn 0.44869396 -0.36281282 -0.81672555
vn 0.10150819 -0.91015553 -0.40163794
vn 0.32075313 -0.90677613 -0.27363202
vn -0.35814595 -0.8063854 0.4706102
vn -0.33723608 -0.84693563 0.4110618
vn -0.4434746 -0.16950367 0.88011295
vn -0.5832853 -0.16514005 0.795303
vn -0.39930776 0.084567554 0.9129084
vn -0.5502362 0.116554 0.8268345
vn -0.46621382 0.38747388 0.7953041
vn -0.3366566 0.33476442 0.8801109
vn 0.035127368 0.9109311 0.41106042
vn -0.4386261 0.09290132 0.89385486
vn -0.47509626 -0.1704206 0.86327314
vn -0.39650604 -0.807875 0.43602845
vn 0.026796179 -0.8876615 -0.45971623
vn 0.34654158 -0.34181115 -0.87354106
vn 0.41615728 -0.088138916 -0.9050108
vn -0.36516577 0.3484411 0.86327446
vn -0.00039675058 0.88234276 0.47060722
vn 0.6608874 0.6988225 -0.27363274
vn -0.03485324 0.89925617 0.43603164
vn 0.557278 0.14969598 -0.8167205
vn 0.45537373 0.17191343 -0.8735448
vn 0.3844475 0.8005431 -0.45970726
vn 0.4618476 0.79081446 -0.4016331
vn 0.9031111 -0.19129159 0.38444483
vn 0.8078891 -0.45835924 0.3704351
vn 0.85594434 -0.479092 0.19449951
vn 0.179817 -0.9722387 0.14972544
vn 0.22742975 -0.9716731 0.0642431
vn -0.6369395 -0.7152523 -0.28761467
vn -0.6825374 -0.7175432 -0.13883306
vn -0.86628896 -0.08365327 -0.49248913
vn -0.967732 -0.07724399 -0.23985007
vn -0.84077024 0.17810939 -0.51125574
vn 0.9594641 -0.20322767 0.19526215
vn 0.83375776 -0.5011886 -0.23164175
vn 0.17487456 -0.97764957 -0.11670513
vn -0.65809584 -0.73769116 0.1507367
vn 0.97668546 0.0908566 0.19450085
vn 0.92434996 0.09140346 0.37043583
vn 0.5586173 0.8157997 0.14972554
vn 0.6018909 0.7959902 0.06424198
vn -0.2921883 0.91208893 -0.28761044
vn 0.9653688 0.12003022 -0.23163724
vn 0.9469423 -0.20057061 -0.25114053
vn 0.575527 -0.43175206 -0.69452053
vn -0.33293477 0.93266904 -0.1388627
vn -0.75795406 0.42773208 -0.49249464
vn 0.5562718 0.8227646 -0.11670507
vn 0.7011516 0.16129477 -0.69452894
vn -0.85328585 0.46300653 -0.23985027
vn -0.30244273 0.94117373 0.15073307
vn -0.94778544 0.20075777 -0.24778844
vn 0.09457858 -0.9590921 -0.26682815
vn 0.6766214 -0.14332046 -0.7222484
vn 0.47536153 0.8383527 -0.26682624
vn -0.82773465 0.46895403 0.3081192
vn -0.9467864 -0.093051985 0.30811834
vn -0.48137742 -0.7583075 0.43959677
vn 0.34654158 -0.34181115 -0.87354106
vn 0.026796179 -0.8876615 -0.45971623
vn 0.41615728 -0.088138916 -0.9050108
vn 0.45537373 0.17191343 -0.8735448
vn -0.39650604 -0.807875 0.43602845
vn 0.3844475 0.8005431 -0.45970726
vn -0.6430391 -0.14334859 0.75229776
vn -0.47509626 -0.1704206 0.86327314
vn -0.13254581 0.8883591 0.43960163
vn -0.03485324 0.89925617 0.43603164
vn -0.5296814 0.39179823 0.7522843
vn -0.36516577 0.3484411 0.86327446
vn -0.9282519 0.19663744 0.31572467
vn -0.60430187 0.12799565 0.7864073
vn -0.4386261 0.09290132 0.89385486
vn -0.4589715 0.8805575 -0.1181686
vn -0.96312636 0.20402116 -0.1753941
vn -0.9636581 0.20413952 -0.17230852
vn -0.7765989 -0.6188131 -0.11817145
vn -0.47164783 0.85384303 -0.22022846
vn 0.041536264 0.9985489 0.034272764
vn 0.20573051 0.97850937 -0.013947314
vn 0.30488572 0.86634547 -0.39558846
vn 0.8032189 0.553781 -0.21946757
vn 0.64337206 0.5050598 -0.57531464
vn 0.9260143 -0.19614705 -0.32252714
vn 0.6471314 -0.13709272 -0.74995095
vn 0.38328812 -0.7225679 -0.57531375
vn 0.5096774 -0.8319034 -0.21946648
vn -0.0725753 -0.9155537 -0.39559343
vn -0.20865826 -0.9778892 -0.013947174
vn -0.4345674 0.72798204 -0.53027654
vn 0.5746225 0.41134277 -0.7075352
vn -0.37419167 0.079257466 -0.9239583
vn -0.7773496 -0.589261 -0.22022514
vn -0.36690637 -0.92962635 0.034273487
vn -0.6924192 -0.48925298 -0.53027076
vn 0.3584529 -0.6090189 -0.7075362
vn -0.97589797 0.20673399 -0.06988793
vn 0.80125034 0.5606982 -0.20884271
vn 0.9260234 -0.19614899 -0.3224998
vn 0.91020447 -0.19282028 0.3665355
vn 0.5050571 -0.83743834 -0.20884077
vn 0.8326205 0.44411314 0.33091798
vn 0.58102643 -0.7435723 0.33092082
vn 0.21519041 0.97636807 -0.019959513
vn -0.1991691 -0.97976184 -0.019959636
vn 0.45302296 0.82437724 0.33937046
vn 0.0798369 -0.93725955 0.33936787
vn 0.03558538 0.9991679 0.019929033
vn -0.3726057 -0.9277757 0.019928865
vn -0.23981737 0.8347524 0.49565718
vn -0.46664208 0.88179785 0.06839404
vn 0.44008416 0.46330914 0.7692012
vn -0.55770284 -0.66580087 0.49565786
vn -0.7841265 -0.616821 0.068393245
vn 0.21439731 -0.6019605 0.7692057
vn -0.3900691 0.84575504 0.36406654
vn -0.9731861 0.20615505 0.102024615
vn -0.69701815 0.14764978 0.70168746
vn 0.21043177 -0.04455843 0.9765926
vn -0.8027585 0.17005552 0.5715416
vn -0.6995059 -0.61493653 0.3640666
vn 0.8184002 -0.17334849 0.54787886
vn 0.21043177 -0.04455843 0.9765926
vn 0.44008416 0.46330914 0.7692012
vn 0.45302296 0.82437724 0.33937046
vn 0.21439731 -0.6019605 0.7692057
vn 0.8326205 0.44411314 0.33091798
vn 0.0798369 -0.93725955 0.33936787
vn 0.91020447 -0.19282028 0.3665355
vn 0.58102643 -0.7435723 0.33092082
vn -0.96487015 0.20438829 0.16507931
vn -0.48864552 0.103491165 0.8663227
vn -0.02194334 0.77610445 0.63022244
vn -0.3347651 -0.70053774 0.63022155
vn -0.5613732 0.81318843 0.15357344
vn -0.97829324 0.20722541 0
vn -0.8428833 -0.5157159 0.15357333
vn 0.34141788 0.93348956 0.10968586
vn 0.736488 0.49010694 0.46624094
vn -0.06640934 -0.9917454 0.10968528
vn 0.47448105 -0.7466507 0.46624085
vn 0.90344864 0.42775178 -0.028443541
vn 0.8848679 0.465842 0
vn 0.9534197 0.19941242 0.22633037
vn 0.94814813 -0.20084858 0.24632257
vn 0.2673448 0.963601 0
vn 0.97628593 -0.20679964 -0.06402975
vn -0.5959834 0.8029967 0
vn -0.5613732 0.81318843 -0.15357344
vn 0.65237594 -0.7573616 -0.028443785
vn 0.6199569 -0.78463584 0
vn 0.7906641 -0.56888014 0.2263313
vn 0.97829324 -0.20722541 0
vn 0.34141788 0.93348956 -0.10968586
vn 0.97628593 -0.20679964 0.06402975
vn -0.14630753 -0.9892391 0
vn 0.90344864 0.42775178 0.028443541
vn -0.87040585 -0.49233472 0
vn -0.8428833 -0.5157159 -0.15357333
vn -0.96487015 0.20438829 -0.16507931
vn -0.06640934 -0.9917454 -0.10968528
vn -0.02194334 0.77610445 -0.63022244
vn 0.736488 0.49010694 -0.46624094
vn -0.48864552 0.103491165 -0.8663227
vn 0.9534197 0.19941242 -0.22633037
vn -0.3347651 -0.70053774 -0.63022155
vn 0.94814813 -0.20084858 -0.24632257
vn 0.47448105 -0.7466507 -0.46624085
vn 0.65237594 -0.7573616 0.028443785
vn 0.7906641 -0.56888014 -0.2263313
vn 0.9260234 -0.19614899 0.3224998
vn 0.9260143 -0.19614705 0.32252714
vn 0.8032189 0.553781 0.21946757
vn 0.5096774 -0.8319034 0.21946648
vn 0.80125034 0.5606982 0.20884271
vn 0.5050571 -0.83743834 0.20884077
vn 0.20573051 0.97850937 0.013947314
vn -0.20865826 -0.9778892 0.013947174
vn 0.21519041 0.97636807 0.019959513
vn -0.1991691 -0.97976184 0.019959636
vn 0.041536264 0.9985489 -0.034272764
vn -0.36690637 -0.92962635 -0.034273487
vn 0.03558538 0.9991679 -0.019929033
vn -0.3726057 -0.9277757 -0.019928865
vn -0.4589715 0.8805575 0.1181686
vn -0.7765989 -0.6188131 0.11817145
vn -0.46664208 0.88179785 -0.06839404
vn -0.7841265 -0.616821 -0.068393245
vn -0.96312636 0.20402116 0.1753941
vn -0.9731861 0.20615505 -0.102024615
vn 0.9260234 -0.19614899 -0.3224998
vn 0.8032189 0.553781 -0.21946757
vn 0.9260143 -0.19614705 -0.32252714
vn 0.5096774 -0.8319034 -0.21946648
vn 0.80125034 0.5606982 -0.20884271
vn 0.5050571 -0.83743834 -0.20884077
vn 0.20573051 0.97850937 -0.013947314
vn -0.20865826 -0.9778892 -0.013947174
vn 0.21519041 0.97636807 -0.019959513
vn -0.1991691 -0.97976184 -0.019959636
vn 0.041536264 0.9985489 0.034272764
vn -0.36690637 -0.92962635 0.034273487
vn 0.03558538 0.9991679 0.019929033
vn -0.3726057 -0.9277757 0.019928865
vn -0.4589715 0.8805575 -0.1181686
vn -0.7765989 -0.6188131 -0.11817145
vn -0.46664208 0.88179785 0.06839404
vn -0.7841265 -0.616821 0.068393245
vn -0.96312636 0.20402116 -0.1753941
vn -0.9731861 0.20615505 0.102024615
g Bow05_0
f 3/3/3 2/2/2 1/1/1
f 4/4/4 3/3/3 1/1/1
f 5/5/5 4/4/4 1/1/1
f 6/6/6 4/4/4 5/5/5
f 4/4/4 6/6/6 7/7/7
f 4/4/4 7/7/7 8/8/8
f 3/3/3 4/4/4 8/8/8
f 9/9/9 3/3/3 8/8/8
f 12/12/12 11/11/11 10/10/10
f 10/10/10 13/13/13 12/12/12
f 13/13/13 14/14/14 12/12/12
f 17/17/17 16/16/16 15/15/15
f 16/16/16 18/18/18 15/15/15
f 18/18/18 16/16/16 19/19/19
f 16/16/16 20/20/20 19/19/19
f 23/23/23 22/22/22 21/21/21
f 22/22/22 24/24/24 21/21/21
f 24/24/24 22/22/22 25/25/25
f 22/22/22 26/26/26 25/25/25
f 29/29/29 28/28/28 27/27/27
f 28/28/28 30/30/30 27/27/27
f 30/30/30 28/28/28 31/31/31
f 28/28/28 32/32/32 31/31/31
f 35/35/35 34/34/34 33/33/33
f 33/33/33 36/36/36 35/35/35
f 33/33/33 37/37/37 36/36/36
f 40/40/40 39/39/39 38/38/38
f 41/41/41 40/40/40 38/38/38
f 40/40/40 41/41/41 42/42/42
f 43/43/43 40/40/40 42/42/42
f 46/46/46 45/45/45 44/44/44
f 47/47/47 46/46/46 44/44/44
f 46/46/46 47/47/47 48/48/48
f 49/49/49 46/46/46 48/48/48
f 52/52/52 51/51/51 50/50/50
f 53/53/53 52/52/52 50/50/50
f 52/52/52 53/53/53 54/54/54
f 55/55/55 52/52/52 54/54/54
f 58/58/58 57/57/57 56/56/56
f 57/57/57 59/59/59 56/56/56
f 59/59/59 60/60/60 56/56/56
f 59/59/59 61/61/61 60/60/60
f 61/61/61 59/59/59 62/62/62
f 62/62/62 59/59/59 63/63/63
f 59/59/59 57/57/57 63/63/63
f 57/57/57 64/64/64 63/63/63
f 67/67/67 66/66/66 65/65/65
f 65/65/65 68/68/68 67/67/67
f 65/65/65 69/69/69 68/68/68
f 72/72/72 71/71/71 70/70/70
f 70/70/70 73/73/73 72/72/72
f 73/73/73 74/74/74 72/72/72
f 77/77/77 76/76/76 75/75/75
f 76/76/76 78/78/78 75/75/75
f 79/79/79 77/77/77 75/75/75
f 78/78/78 80/80/80 75/75/75
f 79/79/79 81/81/81 77/77/77
f 82/82/82 80/80/80 78/78/78
f 81/81/81 83/83/83 77/77/77
f 84/84/84 82/82/82 78/78/78
f 81/81/81 85/85/85 83/83/83
f 85/85/85 86/86/86 83/83/83
f 87/87/87 82/82/82 84/84/84
f 88/88/88 87/87/87 84/84/84
f 86/86/86 85/85/85 89/89/89
f 87/87/87 88/88/88 89/89/89
f 85/85/85 90/90/90 89/89/89
f 90/90/90 87/87/87 89/89/89
f 93/93/93 92/92/92 91/91/91
f 92/92/92 94/94/94 91/91/91
f 95/95/95 93/93/93 91/91/91
f 94/94/94 96/96/96 91/91/91
f 95/95/95 97/97/97 93/93/93
f 98/98/98 96/96/96 94/94/94
f 97/97/97 99/99/99 93/93/93
f 100/100/100 98/98/98 94/94/94
f 97/97/97 101/101/101 99/99/99
f 101/101/101 102/102/102 99/99/99
f 103/103/103 98/98/98 100/100/100
f 104/104/104 103/103/103 100/100/100
f 102/102/102 101/101/101 105/105/105
f 103/103/103 104/104/104 105/105/105
f 101/101/101 106/106/106 105/105/105
f 106/106/106 103/103/103 105/105/105
f 109/109/109 108/108/108 107/107/107
f 108/108/108 109/109/109 110/110/110
f 108/108/108 111/111/111 107/107/107
f 107/107/107 111/111/111 112/112/112
f 108/108/108 113/113/113 111/111/111
f 111/111/111 113/113/113 114/114/114
f 111/111/111 114/114/114 112/112/112
f 113/113/113 108/108/108 115/115/115
f 115/115/115 108/108/108 110/110/110
f 112/112/112 114/114/114 116/116/116
f 115/115/115 110/110/110 117/117/117
f 114/114/114 118/118/118 116/116/116
f 114/114/114 113/113/113 118/118/118
f 116/116/116 118/118/118 119/119/119
f 120/120/120 115/115/115 117/117/117
f 113/113/113 115/115/115 120/120/120
f 120/120/120 117/117/117 121/121/121
f 118/118/118 122/122/122 119/119/119
f 118/118/118 113/113/113 122/122/122
f 119/119/119 122/122/122 123/123/123
f 124/124/124 120/120/120 121/121/121
f 113/113/113 120/120/120 124/124/124
f 124/124/124 121/121/121 125/125/125
f 126/126/126 124/124/124 125/125/125
f 126/126/126 125/125/125 123/123/123
f 113/113/113 124/124/124 126/126/126
f 122/122/122 127/127/127 123/123/123
f 127/127/127 126/126/126 123/123/123
f 122/122/122 113/113/113 127/127/127
f 113/113/113 126/126/126 127/127/127
f 130/130/130 129/129/129 128/128/128
f 129/129/129 131/131/131 128/128/128
f 132/132/132 130/130/130 128/128/128
f 132/132/132 133/133/133 130/130/130
f 133/133/133 134/134/134 130/130/130
f 134/134/134 133/133/133 135/135/135
f 136/136/136 134/134/134 135/135/135
f 135/135/135 137/137/137 136/136/136
f 137/137/137 138/138/138 136/136/136
f 138/138/138 137/137/137 139/139/139
f 140/140/140 138/138/138 139/139/139
f 141/141/141 140/140/140 139/139/139
f 142/142/142 141/141/141 139/139/139
f 141/141/141 142/142/142 143/143/143
f 139/139/139 137/137/137 144/144/144
f 142/142/142 139/139/139 144/144/144
f 137/137/137 145/145/145 144/144/144
f 145/145/145 137/137/137 135/135/135
f 146/146/146 145/145/145 135/135/135
f 135/135/135 133/133/133 146/146/146
f 133/133/133 147/147/147 146/146/146
f 147/147/147 133/133/133 132/132/132
f 148/148/148 147/147/147 132/132/132
f 148/148/148 132/132/132 149/149/149
f 150/150/150 142/142/142 144/144/144
f 132/132/132 128/128/128 149/149/149
f 142/142/142 151/151/151 143/143/143
f 142/142/142 150/150/150 151/151/151
f 152/152/152 143/143/143 151/151/151
f 150/150/150 153/153/153 151/151/151
f 128/128/128 154/154/154 149/149/149
f 154/154/154 155/155/155 149/149/149
f 131/131/131 154/154/154 128/128/128
f 156/156/156 155/155/155 154/154/154
f 157/157/157 152/152/152 151/151/151
f 157/157/157 151/151/151 153/153/153
f 152/152/152 157/157/157 131/131/131
f 157/157/157 154/154/154 131/131/131
f 157/157/157 156/156/156 154/154/154
f 156/156/156 157/157/157 153/153/153
f 160/160/160 159/159/159 158/158/158
f 160/160/160 161/161/161 159/159/159
f 161/161/161 162/162/162 159/159/159
f 162/162/162 161/161/161 163/163/163
f 164/164/164 162/162/162 163/163/163
f 163/163/163 165/165/165 164/164/164
f 165/165/165 166/166/166 164/164/164
f 166/166/166 165/165/165 167/167/167
f 159/159/159 168/168/168 158/158/158
f 159/159/159 162/162/162 169/169/169
f 159/159/159 169/169/169 168/168/168
f 170/170/170 162/162/162 164/164/164
f 162/162/162 170/170/170 169/169/169
f 164/164/164 166/166/166 171/171/171
f 171/171/171 170/170/170 164/164/164
f 168/168/168 172/172/172 158/158/158
f 172/172/172 173/173/173 158/158/158
f 174/174/174 173/173/173 172/172/172
f 175/175/175 174/174/174 172/172/172
f 174/174/174 175/175/175 176/176/176
f 177/177/177 172/172/172 168/168/168
f 175/175/175 172/172/172 177/177/177
f 169/169/169 178/178/178 168/168/168
f 178/178/178 177/177/177 168/168/168
f 169/169/169 170/170/170 179/179/179
f 169/169/169 179/179/179 178/178/178
f 175/175/175 180/180/180 176/176/176
f 181/181/181 176/176/176 180/180/180
f 182/182/182 175/175/175 177/177/177
f 175/175/175 182/182/182 180/180/180
f 183/183/183 177/177/177 178/178/178
f 182/182/182 177/177/177 183/183/183
f 184/184/184 181/181/181 180/180/180
f 181/181/181 184/184/184 167/167/167
f 182/182/182 185/185/185 180/180/180
f 184/184/184 180/180/180 185/185/185
f 184/184/184 186/186/186 167/167/167
f 186/186/186 166/166/166 167/167/167
f 170/170/170 187/187/187 179/179/179
f 187/187/187 170/170/170 171/171/171
f 179/179/179 188/188/188 178/178/178
f 188/188/188 183/183/183 178/178/178
f 189/189/189 182/182/182 183/183/183
f 182/182/182 189/189/189 185/185/185
f 190/190/190 184/184/184 185/185/185
f 184/184/184 190/190/190 186/186/186
f 191/191/191 166/166/166 186/186/186
f 166/166/166 191/191/191 171/171/171
f 192/192/192 187/187/187 171/171/171
f 171/171/171 191/191/191 192/192/192
f 179/179/179 187/187/187 193/193/193
f 179/179/179 193/193/193 188/188/188
f 187/187/187 194/194/194 193/193/193
f 194/194/194 187/187/187 192/192/192
f 193/193/193 195/195/195 188/188/188
f 195/195/195 196/196/196 188/188/188
f 196/196/196 183/183/183 188/188/188
f 189/189/189 183/183/183 196/196/196
f 197/197/197 194/194/194 192/192/192
f 198/198/198 189/189/189 196/196/196
f 192/192/192 199/199/199 197/197/197
f 191/191/191 199/199/199 192/192/192
f 199/199/199 200/200/200 197/197/197
f 189/189/189 198/198/198 201/201/201
f 189/189/189 201/201/201 185/185/185
f 198/198/198 202/202/202 201/201/201
f 190/190/190 185/185/185 201/201/201
f 203/203/203 201/201/201 202/202/202
f 203/203/203 190/190/190 201/201/201
f 204/204/204 203/203/203 202/202/202
f 199/199/199 191/191/191 205/205/205
f 190/190/190 203/203/203 205/205/205
f 205/205/205 191/191/191 186/186/186
f 190/190/190 205/205/205 186/186/186
f 200/200/200 199/199/199 206/206/206
f 206/206/206 199/199/199 205/205/205
f 203/203/203 206/206/206 205/205/205
f 203/203/203 204/204/204 206/206/206
f 207/207/207 200/200/200 206/206/206
f 204/204/204 207/207/207 206/206/206
f 210/210/210 209/209/209 208/208/208
f 209/209/209 210/210/210 211/211/211
f 209/209/209 212/212/212 208/208/208
f 212/212/212 213/213/213 208/208/208
f 214/214/214 213/213/213 212/212/212
f 215/215/215 214/214/214 212/212/212
f 216/216/216 214/214/214 215/215/215
f 217/217/217 216/216/216 215/215/215
f 218/218/218 216/216/216 217/217/217
f 219/219/219 218/218/218 217/217/217
f 218/218/218 219/219/219 220/220/220
f 221/221/221 218/218/218 220/220/220
f 221/221/221 220/220/220 222/222/222
f 223/223/223 221/221/221 222/222/222
f 212/212/212 224/224/224 215/215/215
f 224/224/224 212/212/212 209/209/209
f 224/224/224 225/225/225 215/215/215
f 226/226/226 225/225/225 224/224/224
f 223/223/223 222/222/222 227/227/227
f 228/228/228 223/223/223 227/227/227
f 228/228/228 227/227/227 211/211/211
f 227/227/227 209/209/209 211/211/211
f 229/229/229 227/227/227 222/222/222
f 209/209/209 227/227/227 229/229/229
f 229/229/229 226/226/226 209/209/209
f 230/230/230 229/229/229 222/222/222
f 230/230/230 226/226/226 229/229/229
f 231/231/231 226/226/226 224/224/224
f 224/224/224 209/209/209 231/231/231
f 226/226/226 231/231/231 209/209/209
f 234/234/234 233/233/233 232/232/232
f 233/233/233 234/234/234 235/235/235
f 233/233/233 236/236/236 232/232/232
f 237/237/237 233/233/233 235/235/235
f 232/232/232 236/236/236 238/238/238
f 237/237/237 235/235/235 239/239/239
f 236/236/236 240/240/240 238/238/238
f 241/241/241 237/237/237 239/239/239
f 238/238/238 240/240/240 242/242/242
f 241/241/241 239/239/239 243/243/243
f 240/240/240 244/244/244 242/242/242
f 242/242/242 244/244/244 245/245/245
f 240/240/240 246/246/246 244/244/244
f 247/247/247 241/241/241 243/243/243
f 247/247/247 243/243/243 248/248/248
f 249/249/249 241/241/241 247/247/247
f 244/244/244 250/250/250 245/245/245
f 251/251/251 245/245/245 250/250/250
f 244/244/244 246/246/246 252/252/252
f 249/249/249 247/247/247 252/252/252
f 246/246/246 253/253/253 252/252/252
f 253/253/253 249/249/249 252/252/252
f 254/254/254 250/250/250 244/244/244
f 252/252/252 254/254/254 244/244/244
f 254/254/254 251/251/251 250/250/250
f 254/254/254 252/252/252 247/247/247
f 248/248/248 251/251/251 255/255/255
f 255/255/255 247/247/247 248/248/248
f 255/255/255 254/254/254 247/247/247
f 251/251/251 254/254/254 255/255/255
f 258/258/258 257/257/257 256/256/256
f 256/256/256 257/257/257 259/259/259
f 260/260/260 258/258/258 256/256/256
f 261/261/261 256/256/256 259/259/259
f 262/262/262 260/260/260 256/256/256
f 256/256/256 261/261/261 263/263/263
f 264/264/264 262/262/262 256/256/256
f 264/264/264 256/256/256 263/263/263
f 267/267/267 266/266/266 265/265/265
f 268/268/268 267/267/267 265/265/265
f 266/266/266 269/269/269 265/265/265
f 270/270/270 268/268/268 265/265/265
f 271/271/271 269/269/269 266/266/266
f 270/270/270 272/272/272 268/268/268
f 273/273/273 271/271/271 266/266/266
f 272/272/272 274/274/274 268/268/268
f 275/275/275 271/271/271 273/273/273
f 276/276/276 275/275/275 273/273/273
f 272/272/272 277/277/277 274/274/274
f 277/277/277 278/278/278 274/274/274
f 275/275/275 276/276/276 279/279/279
f 278/278/278 277/277/277 279/279/279
f 280/280/280 275/275/275 279/279/279
f 277/277/277 280/280/280 279/279/279
f 283/283/283 282/282/282 281/281/281
f 284/284/284 283/283/283 281/281/281
f 282/282/282 285/285/285 281/281/281
f 286/286/286 284/284/284 281/281/281
f 287/287/287 285/285/285 282/282/282
f 286/286/286 288/288/288 284/284/284
f 289/289/289 287/287/287 282/282/282
f 288/288/288 290/290/290 284/284/284
f 291/291/291 287/287/287 289/289/289
f 292/292/292 291/291/291 289/289/289
f 288/288/288 293/293/293 290/290/290
f 293/293/293 294/294/294 290/290/290
f 291/291/291 292/292/292 295/295/295
f 294/294/294 293/293/293 295/295/295
f 296/296/296 291/291/291 295/295/295
f 293/293/293 296/296/296 295/295/295
f 299/299/299 298/298/298 297/297/297
f 298/298/298 299/299/299 300/300/300
f 301/301/301 299/299/299 297/297/297
f 301/301/301 297/297/297 302/302/302
f 303/303/303 299/299/299 301/301/301
f 303/303/303 301/301/301 304/304/304
f 304/304/304 301/301/301 302/302/302
f 299/299/299 303/303/303 305/305/305
f 299/299/299 305/305/305 300/300/300
f 304/304/304 302/302/302 306/306/306
f 300/300/300 305/305/305 307/307/307
f 308/308/308 304/304/304 306/306/306
f 303/303/303 304/304/304 308/308/308
f 308/308/308 306/306/306 309/309/309
f 305/305/305 310/310/310 307/307/307
f 305/305/305 303/303/303 310/310/310
f 307/307/307 310/310/310 311/311/311
f 312/312/312 308/308/308 309/309/309
f 303/303/303 308/308/308 312/312/312
f 312/312/312 309/309/309 313/313/313
f 310/310/310 314/314/314 311/311/311
f 310/310/310 303/303/303 314/314/314
f 311/311/311 314/314/314 315/315/315
f 314/314/314 316/316/316 315/315/315
f 315/315/315 316/316/316 313/313/313
f 314/314/314 303/303/303 316/316/316
f 317/317/317 312/312/312 313/313/313
f 316/316/316 317/317/317 313/313/313
f 303/303/303 312/312/312 317/317/317
f 316/316/316 303/303/303 317/317/317
f 320/320/320 319/319/319 318/318/318
f 321/321/321 320/320/320 318/318/318
f 319/319/319 322/322/322 318/318/318
f 323/323/323 322/322/322 319/319/319
f 324/324/324 323/323/323 319/319/319
f 323/323/323 324/324/324 325/325/325
f 324/324/324 326/326/326 325/325/325
f 327/327/327 325/325/325 326/326/326
f 328/328/328 327/327/327 326/326/326
f 327/327/327 328/328/328 329/329/329
f 328/328/328 330/330/330 329/329/329
f 330/330/330 331/331/331 329/329/329
f 331/331/331 332/332/332 329/329/329
f 332/332/332 331/331/331 333/333/333
f 327/327/327 329/329/329 334/334/334
f 329/329/329 332/332/332 334/334/334
f 335/335/335 327/327/327 334/334/334
f 327/327/327 335/335/335 325/325/325
f 335/335/335 336/336/336 325/325/325
f 323/323/323 325/325/325 336/336/336
f 337/337/337 323/323/323 336/336/336
f 323/323/323 337/337/337 322/322/322
f 337/337/337 338/338/338 322/322/322
f 322/322/322 338/338/338 339/339/339
f 332/332/332 340/340/340 334/334/334
f 318/318/318 322/322/322 339/339/339
f 341/341/341 332/332/332 333/333/333
f 340/340/340 332/332/332 341/341/341
f 333/333/333 342/342/342 341/341/341
f 343/343/343 340/340/340 341/341/341
f 344/344/344 318/318/318 339/339/339
f 345/345/345 344/344/344 339/339/339
f 344/344/344 321/321/321 318/318/318
f 345/345/345 346/346/346 344/344/344
f 342/342/342 347/347/347 341/341/341
f 341/341/341 347/347/347 343/343/343
f 347/347/347 342/342/342 321/321/321
f 344/344/344 347/347/347 321/321/321
f 346/346/346 347/347/347 344/344/344
f 347/347/347 346/346/346 343/343/343
f 350/350/350 349/349/349 348/348/348
f 351/351/351 349/349/349 350/350/350
f 352/352/352 351/351/351 350/350/350
f 351/351/351 352/352/352 353/353/353
f 352/352/352 354/354/354 353/353/353
f 355/355/355 353/353/353 354/354/354
f 356/356/356 355/355/355 354/354/354
f 355/355/355 356/356/356 357/357/357
f 358/358/358 350/350/350 348/348/348
f 352/352/352 350/350/350 359/359/359
f 359/359/359 350/350/350 358/358/358
f 352/352/352 360/360/360 354/354/354
f 360/360/360 352/352/352 359/359/359
f 356/356/356 354/354/354 361/361/361
f 360/360/360 361/361/361 354/354/354
f 362/362/362 358/358/358 348/348/348
f 363/363/363 362/362/362 348/348/348
f 363/363/363 364/364/364 362/362/362
f 364/364/364 365/365/365 362/362/362
f 365/365/365 364/364/364 366/366/366
f 362/362/362 367/367/367 358/358/358
f 362/362/362 365/365/365 367/367/367
f 368/368/368 359/359/359 358/358/358
f 367/367/367 368/368/368 358/358/358
f 360/360/360 359/359/359 369/369/369
f 369/369/369 359/359/359 368/368/368
f 370/370/370 365/365/365 366/366/366
f 366/366/366 371/371/371 370/370/370
f 365/365/365 372/372/372 367/367/367
f 372/372/372 365/365/365 370/370/370
f 367/367/367 373/373/373 368/368/368
f 367/367/367 372/372/372 373/373/373
f 371/371/371 374/374/374 370/370/370
f 374/374/374 371/371/371 357/357/357
f 375/375/375 372/372/372 370/370/370
f 370/370/370 374/374/374 375/375/375
f 376/376/376 374/374/374 357/357/357
f 356/356/356 376/376/376 357/357/357
f 377/377/377 360/360/360 369/369/369
f 360/360/360 377/377/377 361/361/361
f 378/378/378 369/369/369 368/368/368
f 373/373/373 378/378/378 368/368/368
f 372/372/372 379/379/379 373/373/373
f 379/379/379 372/372/372 375/375/375
f 374/374/374 380/380/380 375/375/375
f 380/380/380 374/374/374 376/376/376
f 356/356/356 381/381/381 376/376/376
f 381/381/381 356/356/356 361/361/361
f 377/377/377 382/382/382 361/361/361
f 381/381/381 361/361/361 382/382/382
f 377/377/377 369/369/369 383/383/383
f 383/383/383 369/369/369 378/378/378
f 384/384/384 377/377/377 383/383/383
f 377/377/377 384/384/384 382/382/382
f 385/385/385 383/383/383 378/378/378
f 386/386/386 385/385/385 378/378/378
f 373/373/373 386/386/386 378/378/378
f 373/373/373 379/379/379 386/386/386
f 384/384/384 387/387/387 382/382/382
f 379/379/379 388/388/388 386/386/386
f 389/389/389 382/382/382 387/387/387
f 389/389/389 381/381/381 382/382/382
f 390/390/390 389/389/389 387/387/387
f 388/388/388 379/379/379 391/391/391
f 391/391/391 379/379/379 375/375/375
f 392/392/392 388/388/388 391/391/391
f 375/375/375 380/380/380 391/391/391
f 391/391/391 393/393/393 392/392/392
f 380/380/380 393/393/393 391/391/391
f 393/393/393 394/394/394 392/392/392
f 381/381/381 389/389/389 395/395/395
f 393/393/393 380/380/380 395/395/395
f 381/381/381 395/395/395 376/376/376
f 395/395/395 380/380/380 376/376/376
f 389/389/389 390/390/390 396/396/396
f 389/389/389 396/396/396 395/395/395
f 396/396/396 393/393/393 395/395/395
f 394/394/394 393/393/393 396/396/396
f 390/390/390 397/397/397 396/396/396
f 397/397/397 394/394/394 396/396/396
f 400/400/400 399/399/399 398/398/398
f 399/399/399 400/400/400 401/401/401
f 402/402/402 400/400/400 398/398/398
f 403/403/403 402/402/402 398/398/398
f 403/403/403 404/404/404 402/402/402
f 404/404/404 405/405/405 402/402/402
f 404/404/404 406/406/406 405/405/405
f 406/406/406 407/407/407 405/405/405
f 406/406/406 408/408/408 407/407/407
f 408/408/408 409/409/409 407/407/407
f 409/409/409 408/408/408 410/410/410
f 408/408/408 411/411/411 410/410/410
f 410/410/410 411/411/411 412/412/412
f 411/411/411 413/413/413 412/412/412
f 414/414/414 402/402/402 405/405/405
f 400/400/400 402/402/402 414/414/414
f 415/415/415 414/414/414 405/405/405
f 415/415/415 416/416/416 414/414/414
f 412/412/412 413/413/413 417/417/417
f 413/413/413 418/418/418 417/417/417
f 417/417/417 418/418/418 401/401/401
f 400/400/400 417/417/417 401/401/401
f 417/417/417 419/419/419 412/412/412
f 419/419/419 417/417/417 400/400/400
f 419/419/419 420/420/420 412/412/412
f 416/416/416 420/420/420 419/419/419
f 414/414/414 416/416/416 421/421/421
f 421/421/421 400/400/400 414/414/414
f 400/400/400 421/421/421 419/419/419
f 421/421/421 416/416/416 419/419/419
f 424/424/424 423/423/423 422/422/422
f 423/423/423 424/424/424 425/425/425
f 426/426/426 424/424/424 422/422/422
f 424/424/424 427/427/427 425/425/425
f 426/426/426 422/422/422 428/428/428
f 425/425/425 427/427/427 429/429/429
f 430/430/430 426/426/426 428/428/428
f 427/427/427 431/431/431 429/429/429
f 430/430/430 428/428/428 432/432/432
f 429/429/429 431/431/431 433/433/433
f 434/434/434 430/430/430 432/432/432
f 434/434/434 432/432/432 435/435/435
f 436/436/436 430/430/430 434/434/434
f 431/431/431 437/437/437 433/433/433
f 433/433/433 437/437/437 438/438/438
f 431/431/431 439/439/439 437/437/437
f 440/440/440 434/434/434 435/435/435
f 435/435/435 441/441/441 440/440/440
f 436/436/436 434/434/434 442/442/442
f 437/437/437 439/439/439 442/442/442
f 443/443/443 436/436/436 442/442/442
f 439/439/439 443/443/443 442/442/442
f 440/440/440 444/444/444 434/434/434
f 444/444/444 442/442/442 434/434/434
f 441/441/441 444/444/444 440/440/440
f 442/442/442 444/444/444 437/437/437
f 441/441/441 438/438/438 445/445/445
f 437/437/437 445/445/445 438/438/438
f 444/444/444 445/445/445 437/437/437
f 444/444/444 441/441/441 445/445/445
f 448/448/448 447/447/447 446/446/446
f 449/449/449 448/448/448 446/446/446
f 447/447/447 450/450/450 446/446/446
f 449/449/449 446/446/446 451/451/451
f 450/450/450 452/452/452 446/446/446
f 446/446/446 453/453/453 451/451/451
f 446/446/446 452/452/452 454/454/454
f 453/453/453 446/446/446 454/454/454
f 457/457/457 456/456/456 455/455/455
f 456/456/456 458/458/458 455/455/455
f 459/459/459 457/457/457 455/455/455
f 459/459/459 455/455/455 460/460/460
f 458/458/458 461/461/461 455/455/455
f 455/455/455 461/461/461 460/460/460
f 459/459/459 462/462/462 457/457/457
f 462/462/462 463/463/463 457/457/457
f 464/464/464 461/461/461 458/458/458
f 465/465/465 464/464/464 458/458/458
f 462/462/462 466/466/466 463/463/463
f 467/467/467 466/466/466 462/462/462
f 466/466/466 468/468/468 463/463/463
f 468/468/468 466/466/466 469/469/469
f 470/470/470 462/462/462 459/459/459
f 470/470/470 467/467/467 462/462/462
f 466/466/466 471/471/471 469/469/469
f 466/466/466 467/467/467 471/471/471
f 472/472/472 459/459/459 460/460/460
f 472/472/472 470/470/470 459/459/459
f 470/470/470 472/472/472 473/473/473
f 473/473/473 472/472/472 460/460/460
f 474/474/474 464/464/464 465/465/465
f 471/471/471 474/474/474 469/469/469
f 474/474/474 475/475/475 464/464/464
f 475/475/475 474/474/474 471/471/471
f 476/476/476 474/474/474 465/465/465
f 474/474/474 476/476/476 469/469/469
f 467/467/467 477/477/477 471/471/471
f 477/477/477 475/475/475 471/471/471
f 467/467/467 470/470/470 478/478/478
f 478/478/478 470/470/470 473/473/473
f 477/477/477 467/467/467 479/479/479
f 475/475/475 477/477/477 479/479/479
f 475/475/475 480/480/480 464/464/464
f 464/464/464 480/480/480 461/461/461
f 481/481/481 467/467/467 478/478/478
f 467/467/467 481/481/481 479/479/479
f 480/480/480 482/482/482 461/461/461
f 461/461/461 482/482/482 460/460/460
f 482/482/482 480/480/480 483/483/483
f 482/482/482 483/483/483 460/460/460
f 484/484/484 473/473/473 460/460/460
f 483/483/483 484/484/484 460/460/460
f 480/480/480 475/475/475 485/485/485
f 480/480/480 485/485/485 483/483/483
f 478/478/478 473/473/473 486/486/486
f 486/486/486 473/473/473 484/484/484
f 487/487/487 478/478/478 486/486/486
f 481/481/481 478/478/478 487/487/487
f 488/488/488 486/486/486 484/484/484
f 489/489/489 481/481/481 487/487/487
f 490/490/490 488/488/488 484/484/484
f 483/483/483 490/490/490 484/484/484
f 483/483/483 485/485/485 490/490/490
f 481/481/481 489/489/489 491/491/491
f 485/485/485 492/492/492 490/490/490
f 479/479/479 481/481/481 491/491/491
f 475/475/475 493/493/493 485/485/485
f 485/485/485 493/493/493 492/492/492
f 493/493/493 475/475/475 479/479/479
f 493/493/493 479/479/479 491/491/491
f 493/493/493 494/494/494 492/492/492
f 494/494/494 493/493/493 491/491/491
f 497/497/497 496/496/496 495/495/495
f 496/496/496 498/498/498 495/495/495
f 499/499/499 497/497/497 495/495/495
f 498/498/498 500/500/500 495/495/495
f 501/501/501 497/497/497 499/499/499
f 498/498/498 502/502/502 500/500/500
f 503/503/503 501/501/501 499/499/499
f 502/502/502 504/504/504 500/500/500
f 505/505/505 501/501/501 503/503/503
f 502/502/502 506/506/506 504/504/504
f 507/507/507 505/505/505 503/503/503
f 506/506/506 508/508/508 504/504/504
f 505/505/505 507/507/507 509/509/509
f 508/508/508 506/506/506 510/510/510
f 507/507/507 511/511/511 509/509/509
f 512/512/512 508/508/508 510/510/510
f 513/513/513 509/509/509 511/511/511
f 510/510/510 513/513/513 512/512/512
f 514/514/514 513/513/513 511/511/511
f 513/513/513 514/514/514 512/512/512
f 517/517/517 516/516/516 515/515/515
f 518/518/518 517/517/517 515/515/515
f 516/516/516 519/519/519 515/515/515
f 520/520/520 518/518/518 515/515/515
f 516/516/516 521/521/521 519/519/519
f 522/522/522 518/518/518 520/520/520
f 521/521/521 523/523/523 519/519/519
f 524/524/524 522/522/522 520/520/520
f 521/521/521 525/525/525 523/523/523
f 526/526/526 522/522/522 524/524/524
f 525/525/525 527/527/527 523/523/523
f 528/528/528 526/526/526 524/524/524
f 527/527/527 525/525/525 529/529/529
f 526/526/526 528/528/528 530/530/530
f 531/531/531 527/527/527 529/529/529
f 528/528/528 532/532/532 530/530/530
f 529/529/529 533/533/533 531/531/531
f 533/533/533 530/530/530 532/532/532
f 533/533/533 534/534/534 531/531/531
f 534/534/534 533/533/533 532/532/532
