g Bow04
v 0.21818557 -0.11362494 -0.6906083
v 0.19158962 -0.117184736 -0.6861871
v 0.19680896 -0.11817875 0.7551501
v 0.2234049 -0.114618935 0.75908566
v 0.19158962 -0.117184736 -0.6861871
v 0.19639654 -0.10084965 -0.6864621
v 0.20161588 -0.10184365 0.75539964
v 0.19680896 -0.11817875 0.7551501
v 0.19639654 -0.10084965 -0.6864621
v 0.21818557 -0.11362494 -0.6906083
v 0.2234049 -0.114618935 0.75908566
v 0.20161588 -0.10184365 0.75539964
v 0.21732597 -0.09097144 0.8374329
v 0.20286383 -0.084995985 0.74625236
v 0.22660697 -0.085518286 0.74542695
v 0.20054364 -0.09080278 0.8364792
v 0.231483 -0.101206794 0.8382612
v 0.18459043 -0.10722616 0.7452155
v 0.24714327 -0.09938921 0.7443814
v 0.18742616 -0.107766286 0.8355005
v 0.23081799 -0.11603072 0.8380572
v 0.18853521 -0.13368802 0.7455137
v 0.24626966 -0.11897363 0.7432224
v 0.18969746 -0.12766074 0.8360887
v 0.22315103 -0.12952104 0.83784497
v 0.21004927 -0.14178546 0.74446535
v 0.23613605 -0.1367944 0.74369097
v 0.20479248 -0.13356343 0.83688927
v -0.07037179 -0.008369873 0.39583194
v -0.09853501 -0.007853918 0.32189584
v -0.06413856 -0.009100318 0.32143703
v -0.108129606 -0.007139513 0.4038605
v -0.121770754 -0.045843713 0.32203916
v -0.03379184 -0.03289981 0.38779157
v -0.03019859 -0.033822663 0.32081336
v -0.13378605 -0.044879273 0.40647146
v -0.11832891 -0.09003562 0.32192892
v -0.03473252 -0.06582693 0.3855348
v -0.031025844 -0.06696269 0.32068095
v -0.1297898 -0.08880452 0.40410393
v -0.086963125 -0.1040672 0.32148558
v -0.050158974 -0.09563479 0.3879156
v -0.045375716 -0.09695461 0.32085264
v -0.095173515 -0.102739684 0.39606974
v -0.05338033 -0.013274403 0.44769368
v -0.020203259 -0.036354195 0.43017465
v -0.088202134 -0.012886181 0.46543992
v -0.02249929 -0.068210386 0.42510092
v -0.11377913 -0.04988471 0.47122177
v -0.110598564 -0.09251554 0.46594897
v -0.036923744 -0.09752538 0.43035623
v -0.078910865 -0.105291754 0.44812167
v -0.0014772083 -0.026335293 0.49453616
v 0.023784284 -0.04673693 0.47406468
v -0.02955137 -0.02697826 0.5152985
v 0.019671839 -0.07633848 0.46788937
v -0.053279266 -0.061916057 0.52188593
v -0.051324666 -0.10179577 0.51580954
v 0.007438741 -0.10421169 0.47416183
v -0.026380463 -0.112792276 0.49489242
v 0.08756758 -0.047688786 0.56502515
v 0.108734645 -0.06549632 0.5466813
v 0.06368652 -0.048667945 0.58518213
v 0.104742125 -0.09205186 0.54019535
v 0.042281553 -0.08012177 0.59149796
v 0.043885265 -0.11595785 0.58494216
v 0.09351717 -0.11718829 0.5462399
v 0.0646859 -0.1254471 0.5645446
v 0.18030189 -0.07049372 0.6567549
v 0.20342578 -0.08693761 0.6436072
v 0.15574875 -0.07065253 0.67005116
v 0.20185626 -0.11051455 0.6386576
v 0.13514358 -0.09780841 0.67270523
v 0.13842754 -0.12951425 0.66929007
v 0.19011964 -0.13215509 0.6428357
v 0.160286 -0.13851264 0.65571237
v 0.22660697 -0.085518286 0.74542695
v 0.20286383 -0.084995985 0.74625236
v 0.24714327 -0.09938921 0.7443814
v 0.18459043 -0.10722616 0.7452155
v 0.18853521 -0.13368802 0.7455137
v 0.24626966 -0.11897363 0.7432224
v 0.21004927 -0.14178546 0.74446535
v 0.23613605 -0.1367944 0.74369097
v -0.050490927 -0.012236522 -0.1894053
v -0.10032379 -0.007439982 -0.2971682
v -0.065918446 -0.008685995 -0.29699513
v -0.080731586 -0.010981978 -0.18796551
v -0.12356429 -0.045429815 -0.29719573
v -0.020705841 -0.036931567 -0.19086571
v -0.031973172 -0.03340816 -0.29670188
v -0.10109119 -0.049004547 -0.18751305
v -0.120121635 -0.0896217 -0.29719985
v -0.021594182 -0.07004844 -0.19128935
v -0.03280042 -0.06654846 -0.29662645
v -0.09813275 -0.09320916 -0.18796557
v -0.08874749 -0.10365291 -0.29704103
v -0.03409429 -0.100098416 -0.19086571
v -0.047153883 -0.09654009 -0.29673868
v -0.070614845 -0.10725595 -0.18940525
v -0.041570704 -0.014781604 -0.057710942
v -0.014033519 -0.039497036 -0.058430463
v -0.0695714 -0.013506712 -0.0570121
v -0.014837332 -0.07262011 -0.058628548
v -0.08840749 -0.05152318 -0.05678524
v -0.08564262 -0.09573393 -0.05701211
v -0.026379382 -0.1026639 -0.058430463
v -0.060142063 -0.10980103 -0.057710957
v -0.04124287 -0.0148756 0.08208155
v -0.013703074 -0.03959179 0.08247555
v -0.06924619 -0.013599994 0.08166685
v -0.014506079 -0.072715096 0.08261655
v -0.08808309 -0.051616207 0.08155463
v -0.08531742 -0.09582719 0.08166684
v -0.026048938 -0.102758646 0.08247555
v -0.05981418 -0.10989505 0.082081534
v -0.049470555 -0.0125065325 0.2138046
v -0.019680154 -0.03720331 0.21493964
v -0.079716474 -0.011250268 0.21264878
v -0.020566242 -0.07032071 0.21530636
v -0.10007697 -0.049272332 0.21231101
v -0.097116545 -0.093477465 0.2126488
v -0.033067696 -0.10037016 0.21493965
v -0.06959309 -0.10752598 0.21380465
v -0.06413856 -0.009100318 0.32143703
v -0.09853501 -0.007853918 0.32189584
v -0.03019859 -0.033822663 0.32081336
v -0.121770754 -0.045843713 0.32203916
v -0.11832891 -0.09003562 0.32192892
v -0.031025844 -0.06696269 0.32068095
v -0.086963125 -0.1040672 0.32148558
v -0.045375716 -0.09695461 0.32085264
v 0.17223342 -0.06895699 -0.63418984
v 0.19754152 -0.08398228 -0.7242926
v 0.22131862 -0.08451106 -0.7236619
v 0.1485871 -0.0692885 -0.6474799
v 0.17925768 -0.106210455 -0.7231556
v 0.1937979 -0.08510386 -0.6209294
v 0.24188906 -0.09838846 -0.7228091
v 0.12893201 -0.09662534 -0.6501747
v 0.18321292 -0.13267434 -0.723547
v 0.19151868 -0.10854565 -0.6158808
v 0.2410257 -0.11797485 -0.72168654
v 0.13126595 -0.12815022 -0.64672637
v 0.204761 -0.14077823 -0.722693
v 0.18049167 -0.13032134 -0.6201641
v 0.23088184 -0.13579364 -0.7221148
v 0.15221769 -0.13697596 -0.6331575
v 0.079547584 -0.0461613 -0.54183835
v 0.09972969 -0.06378193 -0.52352226
v 0.056780312 -0.04735257 -0.56195176
v 0.09585702 -0.09035992 -0.5170659
v 0.036229312 -0.07896904 -0.5682259
v 0.03697881 -0.11464244 -0.56172144
v 0.08451426 -0.11547395 -0.5230972
v 0.056665864 -0.12391959 -0.541378
v -0.0062021273 -0.025414685 -0.47073352
v 0.018633014 -0.045720346 -0.4504961
v -0.033989534 -0.026123224 -0.4912626
v 0.01461545 -0.07533583 -0.44434744
v -0.057515815 -0.06110291 -0.4977206
v -0.05576496 -0.10094076 -0.49176258
v 0.0022853422 -0.1031951 -0.45058766
v -0.031108864 -0.111871704 -0.47107866
v -0.056359842 -0.012672784 -0.42341164
v -0.023013253 -0.035776824 -0.40620252
v -0.09135137 -0.012260159 -0.44088507
v -0.025260044 -0.067640446 -0.401174
v -0.11698209 -0.04925128 -0.4465451
v -0.11375177 -0.091889516 -0.4413835
v -0.039737377 -0.09694799 -0.4063741
v -0.08189531 -0.1046902 -0.42382565
v -0.07282009 -0.007848919 -0.37139225
v -0.036169946 -0.032388255 -0.3636907
v -0.11065393 -0.006609092 -0.37912548
v -0.037094172 -0.06531839 -0.36149007
v -0.13633579 -0.04434597 -0.38161388
v -0.13231918 -0.08827409 -0.37936255
v -0.052541185 -0.09512323 -0.3638078
v -0.09762789 -0.1022187 -0.37162107
v -0.065918446 -0.008685995 -0.29699513
v -0.10032379 -0.007439982 -0.2971682
v -0.031973172 -0.03340816 -0.29670188
v -0.12356429 -0.045429815 -0.29719573
v -0.120121635 -0.0896217 -0.29719985
v -0.03280042 -0.06654846 -0.29662645
v -0.08874749 -0.10365291 -0.29704103
v -0.047153883 -0.09654009 -0.29673868
v 0.21135215 -0.08983364 -0.8154933
v 0.1945623 -0.089663535 -0.81440073
v 0.19445707 -0.09589219 -0.90803903
v 0.20280038 -0.095425665 -0.9112887
v 0.19477794 -0.10916647 -0.92596346
v 0.22551687 -0.10007043 -0.8164589
v 0.18840899 -0.10795343 -0.90685385
v 0.18144242 -0.10662657 -0.8133503
v 0.2091445 -0.101752385 -0.9143741
v 0.22485411 -0.11489478 -0.81628203
v 0.18709329 -0.12091604 -0.9079302
v 0.1837161 -0.12652148 -0.81400365
v 0.20868234 -0.11181471 -0.91520923
v 0.21718483 -0.1283847 -0.81603795
v 0.19429101 -0.12434253 -0.9111341
v 0.19881871 -0.13242565 -0.81494206
v 0.20348765 -0.12097569 -0.9142531
v 0.2010976 -0.09715699 0.9300395
v 0.19504371 -0.10921712 0.9288788
v 0.18742616 -0.107766286 0.8355005
v 0.2027598 -0.11068673 0.94957536
v 0.20054364 -0.09080278 0.8364792
v 0.18969746 -0.12766074 0.8360887
v 0.20945972 -0.09669405 0.93321717
v 0.21732597 -0.09097144 0.8374329
v 0.19373381 -0.122180834 0.92993444
v 0.20479248 -0.13356343 0.83688927
v 0.21582279 -0.10302439 0.93623275
v 0.231483 -0.101206794 0.8382612
v 0.20095037 -0.12561089 0.9330666
v 0.22315103 -0.12952104 0.83784497
v 0.21536636 -0.11308782 0.9370475
v 0.23081799 -0.11603072 0.8380572
v 0.21016599 -0.122247696 0.93611425
v 0.19754152 -0.08398228 -0.7242926
v 0.17925768 -0.106210455 -0.7231556
v 0.18144242 -0.10662657 -0.8133503
v 0.1945623 -0.089663535 -0.81440073
v 0.1837161 -0.12652148 -0.81400365
v 0.22131862 -0.08451106 -0.7236619
v 0.18321292 -0.13267434 -0.723547
v 0.21135215 -0.08983364 -0.8154933
v 0.19881871 -0.13242565 -0.81494206
v 0.24188906 -0.09838846 -0.7228091
v 0.204761 -0.14077823 -0.722693
v 0.22551687 -0.10007043 -0.8164589
v 0.21718483 -0.1283847 -0.81603795
v 0.2410257 -0.11797485 -0.72168654
v 0.23088184 -0.13579364 -0.7221148
v 0.22485411 -0.11489478 -0.81628203
vt 0.22103423 0.6570749
vt 0.2210342 0.6570749
vt 0.2210342 0.6570749
vt 0.22103423 0.6570749
vt 0.2210342 0.6570749
vt 0.2210342 0.6570749
vt 0.2210342 0.6570749
vt 0.2210342 0.6570749
vt 0.2210342 0.6570749
vt 0.22103417 0.6570749
vt 0.22103417 0.6570749
vt 0.2210342 0.6570749
vt 0.21285835 0.6636568
vt 0.21285835 0.6636568
vt 0.21285835 0.6636568
vt 0.21285835 0.6636568
vt 0.21285835 0.6636568
vt 0.21285835 0.6636568
vt 0.21285835 0.6636568
vt 0.21285835 0.6636568
vt 0.21285835 0.6636568
vt 0.21285835 0.6636568
vt 0.21285835 0.6636568
vt 0.21285835 0.6636568
vt 0.21285835 0.6636568
vt 0.21285835 0.6636568
vt 0.21285835 0.6636568
vt 0.21285835 0.6636568
vt 0.28108892 0.65990824
vt 0.28108892 0.65990824
vt 0.28108892 0.65990824
vt 0.28108892 0.65990824
vt 0.28108892 0.65990824
vt 0.28108892 0.65990824
vt 0.28108892 0.65990824
vt 0.28108892 0.65990824
vt 0.28108892 0.65990824
vt 0.28108892 0.65990824
vt 0.28108892 0.65990824
vt 0.28108892 0.65990824
vt 0.28108892 0.65990824
vt 0.28108892 0.65990824
vt 0.28108892 0.65990824
vt 0.28108892 0.65990824
vt 0.28108892 0.65990824
vt 0.28108892 0.65990824
vt 0.28108892 0.65990824
vt 0.28108892 0.65990824
vt 0.28108892 0.65990824
vt 0.28108892 0.65990824
vt 0.28108892 0.65990824
vt 0.28108892 0.65990824
vt 0.28108892 0.65990824
vt 0.28108892 0.65990824
vt 0.28108892 0.65990824
vt 0.28108892 0.65990824
vt 0.28108892 0.65990824
vt 0.28108892 0.65990824
vt 0.28108892 0.65990824
vt 0.28108892 0.65990824
vt 0.28108892 0.65990824
vt 0.28108892 0.65990824
vt 0.28108892 0.65990824
vt 0.28108892 0.65990824
vt 0.28108892 0.65990824
vt 0.28108892 0.65990824
vt 0.28108892 0.65990824
vt 0.28108892 0.65990824
vt 0.28108892 0.65990824
vt 0.28108892 0.65990824
vt 0.28108892 0.65990824
vt 0.28108892 0.65990824
vt 0.28108892 0.65990824
vt 0.28108892 0.65990824
vt 0.28108892 0.65990824
vt 0.28108892 0.65990824
vt 0.28108892 0.65990824
vt 0.28108892 0.65990824
vt 0.28108892 0.65990824
vt 0.28108892 0.65990824
vt 0.28108892 0.65990824
vt 0.28108892 0.65990824
vt 0.28108892 0.65990824
vt 0.28108892 0.65990824
vt 0.28920332 0.5883727
vt 0.28920332 0.5883727
vt 0.28920332 0.5883727
vt 0.28920332 0.5883727
vt 0.28920332 0.5883727
vt 0.28920332 0.5883727
vt 0.28920332 0.5883727
vt 0.28920332 0.5883727
vt 0.28920332 0.5883727
vt 0.28920332 0.5883727
vt 0.28920332 0.5883727
vt 0.28920332 0.5883727
vt 0.28920332 0.5883727
vt 0.28920332 0.5883727
vt 0.28920332 0.5883727
vt 0.28920332 0.5883727
vt 0.28920332 0.5883727
vt 0.28920332 0.5883727
vt 0.28920332 0.5883727
vt 0.28920332 0.5883727
vt 0.28920332 0.5883727
vt 0.28920332 0.5883727
vt 0.28920332 0.5883727
vt 0.28920332 0.5883727
vt 0.28920332 0.5883727
vt 0.28920332 0.5883727
vt 0.28920332 0.5883727
vt 0.28920332 0.5883727
vt 0.28920332 0.5883727
vt 0.28920332 0.5883727
vt 0.28920332 0.5883727
vt 0.28920332 0.5883727
vt 0.28920332 0.5883727
vt 0.28920332 0.5883727
vt 0.28920332 0.5883727
vt 0.28920332 0.5883727
vt 0.28920332 0.5883727
vt 0.28920332 0.5883727
vt 0.28920332 0.5883727
vt 0.28920332 0.5883727
vt 0.28920332 0.5883727
vt 0.28920332 0.5883727
vt 0.28920332 0.5883727
vt 0.28920332 0.5883727
vt 0.28920332 0.5883727
vt 0.28920332 0.5883727
vt 0.28920332 0.5883727
vt 0.28920332 0.5883727
vt 0.28108892 0.65990824
vt 0.28108892 0.65990824
vt 0.28108892 0.65990824
vt 0.28108892 0.65990824
vt 0.28108892 0.65990824
vt 0.28108892 0.65990824
vt 0.28108892 0.65990824
vt 0.28108892 0.65990824
vt 0.28108892 0.65990824
vt 0.28108892 0.65990824
vt 0.28108892 0.65990824
vt 0.28108892 0.65990824
vt 0.28108892 0.65990824
vt 0.28108892 0.65990824
vt 0.28108892 0.65990824
vt 0.28108892 0.65990824
vt 0.28108892 0.65990824
vt 0.28108892 0.65990824
vt 0.28108892 0.65990824
vt 0.28108892 0.65990824
vt 0.28108892 0.65990824
vt 0.28108892 0.65990824
vt 0.28108892 0.65990824
vt 0.28108892 0.65990824
vt 0.28108892 0.65990824
vt 0.28108892 0.65990824
vt 0.28108892 0.65990824
vt 0.28108892 0.65990824
vt 0.28108892 0.65990824
vt 0.28108892 0.65990824
vt 0.28108892 0.65990824
vt 0.28108892 0.65990824
vt 0.28108892 0.65990824
vt 0.28108892 0.65990824
vt 0.28108892 0.65990824
vt 0.28108892 0.65990824
vt 0.28108892 0.65990824
vt 0.28108892 0.65990824
vt 0.28108892 0.65990824
vt 0.28108892 0.65990824
vt 0.28108892 0.65990824
vt 0.28108892 0.65990824
vt 0.28108892 0.65990824
vt 0.28108892 0.65990824
vt 0.28108892 0.65990824
vt 0.28108892 0.65990824
vt 0.28108892 0.65990824
vt 0.28108892 0.65990824
vt 0.28108892 0.65990824
vt 0.28108892 0.65990824
vt 0.28108892 0.65990824
vt 0.28108892 0.65990824
vt 0.28108892 0.65990824
vt 0.28108892 0.65990824
vt 0.28108892 0.65990824
vt 0.28108892 0.65990824
vt 0.28108892 0.65990824
vt 0.28108892 0.65990824
vt 0.28108892 0.65990824
vt 0.28108892 0.65990824
vt 0.28108892 0.65990824
vt 0.28108892 0.65990824
vt 0.28108892 0.65990824
vt 0.28108892 0.65990824
vt 0.28108892 0.65990824
vt 0.28108892 0.65990824
vt 0.28108892 0.65990824
vt 0.28108892 0.65990824
vt 0.28108892 0.65990824
vt 0.28108892 0.65990824
vt 0.28108892 0.65990824
vt 0.28108892 0.65990824
vt 0.28108892 0.65990824
vt 0.28108892 0.65990824
vt 0.28108892 0.65990824
vt 0.28108892 0.65990824
vt 0.28108892 0.65990824
vt 0.28108892 0.65990824
vt 0.28108892 0.65990824
vt 0.28108892 0.65990824
vt 0.28108892 0.65990824
vt 0.28108892 0.65990824
vt 0.28108892 0.65990824
vt 0.28108892 0.65990824
vt 0.28108892 0.65990824
vt 0.28108892 0.65990824
vt 0.28108892 0.65990824
vt 0.28108892 0.65990824
vt 0.28108892 0.65990824
vt 0.28108892 0.65990824
vt 0.21285835 0.6636568
vt 0.21285835 0.6636568
vt 0.21285835 0.6636568
vt 0.21285835 0.6636568
vt 0.21285835 0.6636568
vt 0.21285835 0.6636568
vt 0.21285835 0.6636568
vt 0.21285835 0.6636568
vt 0.21285835 0.6636568
vt 0.21285835 0.6636568
vt 0.21285835 0.6636568
vt 0.21285835 0.6636568
vt 0.21285835 0.6636568
vt 0.21285835 0.6636568
vt 0.21285835 0.6636568
vt 0.21285835 0.6636568
vn 0.13265407 -0.9911617 -0.0011605425
vn 0.13265407 -0.9911617 -0.0011605425
vn 0.13265407 -0.9911617 -0.0011605425
vn 0.13265407 -0.9911617 -0.0011605425
vn -0.9593188 0.2823014 0.0036678833
vn -0.9593188 0.2823014 0.0036678833
vn -0.9593188 0.2823014 0.0036678833
vn -0.9593188 0.2823014 0.0036678833
vn 0.50578046 0.86266136 -0.001232804
vn 0.50578046 0.86266136 -0.001232804
vn 0.50578046 0.86266136 -0.001232804
vn 0.50578046 0.86266136 -0.001232804
vn 0.30793285 0.9472369 0.08899229
vn -0.3355334 0.92163336 0.19495973
vn 0.35234615 0.9354493 0.028047305
vn -0.4578745 0.8870918 0.058474142
vn 0.8914046 0.42748237 0.15052067
vn -0.90715396 0.25419477 0.33534545
vn 0.905222 0.41786522 -0.07721289
vn -0.96177167 0.270092 0.04522896
vn 0.9477881 -0.27567524 0.16031462
vn -0.6968389 -0.68298334 0.21897338
vn 0.9552088 -0.26850465 -0.12442526
vn -0.80697626 -0.58711934 0.063875705
vn 0.5880446 -0.79716235 0.13687876
vn -0.034425057 -0.9989981 0.028595991
vn 0.6093722 -0.78906786 -0.077701285
vn -0.08237207 -0.9929207 0.085576616
vn 0.2763523 0.9610528 0.0026246598
vn -0.47539943 0.8748058 -0.09332808
vn 0.32401714 0.9459884 0.010895179
vn -0.48962346 0.86876655 0.07425381
vn -0.9596742 0.23087727 -0.16037804
vn 0.86372876 0.496184 -0.08817047
vn 0.8945743 0.44209892 0.06546335
vn -0.96483916 0.24586402 0.092931464
vn -0.8142215 -0.5680232 -0.11997094
vn 0.96178895 -0.24778716 -0.116462104
vn 0.96940786 -0.2302359 0.08508717
vn -0.8278052 -0.5582894 0.055239912
vn -0.13141601 -0.9913272 0.00048830843
vn 0.5469362 -0.83381754 -0.07489434
vn 0.6011727 -0.7955817 0.07510843
vn -0.15036935 -0.9885861 -0.009308433
vn 0.26432556 0.9644327 -0.0012207623
vn 0.749209 0.53859794 -0.3854845
vn -0.37755 0.83603626 0.39811978
vn 0.827051 -0.22553994 -0.51489645
vn -0.8055841 0.2139089 0.55251914
vn -0.7060592 -0.5801069 0.40614814
vn 0.43859497 -0.8276264 -0.35024118
vn -0.14118204 -0.9899833 0.0007935004
vn 0.28502154 0.9569386 -0.05505716
vn 0.6382178 0.5190403 -0.56857294
vn -0.22309859 0.8224128 0.5233203
vn 0.6514077 -0.18232334 -0.736496
vn -0.5874888 0.16583969 0.7920569
vn -0.5321925 -0.6397115 0.5545631
vn 0.36178315 -0.766691 -0.53037524
vn -0.10288027 -0.99388874 -0.04001069
vn 0.29207212 0.95370555 -0.07169044
vn 0.646327 0.511495 -0.56624573
vn -0.22196758 0.83675027 0.5005791
vn 0.6515222 -0.18045956 -0.7368536
vn -0.5928403 0.16620891 0.7879816
vn -0.52873623 -0.6581355 0.53599966
vn 0.37297934 -0.7578003 -0.5353738
vn -0.08829266 -0.9943224 -0.059390772
vn 0.3155366 0.9478305 -0.04532081
vn 0.7704894 0.47140062 -0.4291009
vn -0.27876213 0.8680263 0.41087964
vn 0.79530555 -0.21833594 -0.5655249
vn -0.7101245 0.19556804 0.67637
vn -0.60099626 -0.66292095 0.4464744
vn 0.4839464 -0.7738198 -0.408655
vn -0.06708044 -0.9969897 -0.03888101
vn 0.35234615 0.9354493 0.028047305
vn -0.3355334 0.92163336 0.19495973
vn 0.905222 0.41786522 -0.07721289
vn -0.90715396 0.25419477 0.33534545
vn -0.6968389 -0.68298334 0.21897338
vn 0.9552088 -0.26850465 -0.12442526
vn -0.034425057 -0.9989981 0.028595991
vn 0.6093722 -0.78906786 -0.077701285
vn 0.36167735 0.9322553 -0.009460803
vn -0.47442102 0.8748025 0.0982108
vn 0.3240489 0.94596153 -0.01220753
vn -0.4774118 0.8740393 0.09018423
vn -0.9583778 0.23066008 0.16824943
vn 0.90886515 0.41204125 -0.064700946
vn 0.8940569 0.44213015 -0.07199455
vn -0.966142 0.212138 0.14685774
vn -0.8130986 -0.56842434 0.12555693
vn 0.97384596 -0.21079803 -0.0847831
vn 0.96870327 -0.23008268 -0.09314396
vn -0.81993693 -0.5629932 0.10364423
vn -0.13120206 -0.99135524 -0.00088505686
vn 0.6310125 -0.77207166 -0.07568732
vn 0.60070604 -0.79535633 -0.0809975
vn -0.12915756 -0.99160177 -0.0066532018
vn 0.38014987 0.9249215 -0.0025025923
vn 0.9178184 0.39640698 -0.021698775
vn -0.49462768 0.8685207 0.03186224
vn 0.9797008 -0.19837558 -0.02887128
vn -0.97842944 0.20066044 0.049104583
vn -0.8358352 -0.5479151 0.034181748
vn 0.6477404 -0.7613941 -0.026673818
vn -0.13675761 -0.9906 -0.0029909052
vn 0.38011354 0.9249379 0.0018921751
vn 0.9179283 0.39635387 0.017640142
vn -0.49490222 0.8684899 -0.028230421
vn 0.9798338 -0.19840214 0.023713037
vn -0.9786647 0.20069538 -0.04400893
vn -0.8360483 -0.5477926 -0.030763552
vn 0.6478486 -0.7614388 0.022431163
vn -0.13681774 -0.9905934 0.0024110198
vn 0.36159065 0.93229836 0.008484318
vn 0.909253 0.41194564 0.05966467
vn -0.47826648 0.8739785 -0.08615572
vn 0.9743474 -0.21091634 0.0784947
vn -0.9670255 0.21229027 -0.14069267
vn -0.82070637 -0.5626314 -0.09943332
vn 0.63138413 -0.7722309 0.07080488
vn -0.12930807 -0.99158573 0.006103756
vn 0.32401714 0.9459884 0.010895179
vn -0.47539943 0.8748058 -0.09332808
vn 0.8945743 0.44209892 0.06546335
vn -0.9596742 0.23087727 -0.16037804
vn -0.8142215 -0.5680232 -0.11997094
vn 0.96940786 -0.2302359 0.08508717
vn -0.13141601 -0.9913272 0.00048830843
vn 0.6011727 -0.7955817 0.07510843
vn 0.31724986 0.9471106 0.048312314
vn -0.33568308 0.92132014 -0.19617881
vn 0.35575807 0.93430364 -0.022644976
vn -0.2857821 0.8621073 -0.4184492
vn -0.9061986 0.25413114 -0.33796662
vn 0.767503 0.4653605 0.44088387
vn 0.9069087 0.41197878 0.088261545
vn -0.71042526 0.19617723 -0.6758775
vn -0.6968767 -0.6825021 -0.22034901
vn 0.7871548 -0.21647367 0.5775175
vn 0.95360893 -0.26802132 0.13709311
vn -0.6051938 -0.6537802 -0.4542158
vn -0.031067966 -0.999241 -0.023499345
vn 0.48445973 -0.7678293 0.41920996
vn 0.6135263 -0.7846471 0.08896329
vn -0.065645784 -0.99698573 0.041352876
vn 0.29484564 0.9529609 0.070224606
vn 0.6561396 0.5054036 0.56039983
vn -0.23206839 0.83341974 -0.5015534
vn 0.6634016 -0.18397135 0.72529507
vn -0.60199064 0.16932037 -0.7803447
vn -0.5376194 -0.6501423 -0.5369175
vn 0.38310772 -0.7572734 0.5289286
vn -0.08606303 -0.9946079 0.05786366
vn 0.28782332 0.9562472 0.05243139
vn 0.6542087 0.51485825 0.5540143
vn -0.23213264 0.82302403 -0.51840717
vn 0.6717876 -0.18796746 0.7164982
vn -0.5991542 0.1692293 -0.7825444
vn -0.5416784 -0.63619524 -0.54939973
vn 0.3760259 -0.7696918 0.51592547
vn -0.10062211 -0.99419653 0.038057562
vn 0.2656395 0.9640724 0.00015259621
vn 0.75859547 0.53424585 0.37298018
vn -0.38206765 0.8371674 -0.391376
vn 0.83748454 -0.22822453 0.49652112
vn -0.8119024 0.21555711 -0.5425399
vn -0.71104056 -0.5792274 -0.39864415
vn 0.44750986 -0.8274797 0.3391345
vn -0.14001976 -0.9901484 -0.0007629673
vn 0.27637944 0.96104115 -0.0037843476
vn 0.86462045 0.4959131 0.08063279
vn -0.4901356 0.86896837 -0.06827108
vn 0.9628269 -0.2480619 0.10690956
vn -0.9656335 0.24610837 -0.08356209
vn -0.82821167 -0.5583264 -0.048343122
vn 0.5476942 -0.833871 0.068484664
vn -0.15015599 -0.9886185 0.009308451
vn 0.3240489 0.94596153 -0.01220753
vn -0.47442102 0.8748025 0.0982108
vn 0.8940569 0.44213015 -0.07199455
vn -0.9583778 0.23066008 0.16824943
vn -0.8130986 -0.56842434 0.12555693
vn 0.96870327 -0.23008268 -0.09314396
vn -0.13120206 -0.99135524 -0.00088505686
vn 0.60070604 -0.79535633 -0.0809975
vn 0.30705214 0.94743335 -0.08993964
vn -0.45808443 0.8872677 -0.053987432
vn -0.5116511 0.8216326 -0.25126293
vn 0.20481761 0.90023917 -0.3842123
vn -0.26961035 0.06152756 -0.96100193
vn 0.89009786 0.42803437 -0.15656444
vn -0.94520754 0.27079612 -0.18235171
vn -0.9620579 0.2701868 -0.037996445
vn 0.7527298 0.41903096 -0.5077508
vn 0.9465565 -0.27543682 -0.1678257
vn -0.82628 -0.4967019 -0.26560962
vn -0.8073489 -0.58712405 -0.058932137
vn 0.8283185 -0.2379268 -0.50722724
vn 0.5867662 -0.79713655 -0.14240359
vn -0.17331646 -0.904212 -0.3903359
vn -0.08319484 -0.99278355 -0.086368814
vn 0.47817725 -0.73368526 -0.4827551
vn -0.5135491 0.8190783 0.2556911
vn -0.94146264 0.26963896 0.20234366
vn -0.96177167 0.270092 0.04522896
vn -0.19422145 0.042909395 0.9800188
vn -0.4578745 0.8870918 0.058474142
vn -0.80697626 -0.58711934 0.063875705
vn 0.21045817 0.90570873 0.36796612
vn 0.30793285 0.9472369 0.08899229
vn -0.8264088 -0.49377608 0.270617
vn -0.08237207 -0.9929207 0.085576616
vn 0.7753665 0.42339054 0.4685587
vn 0.8914046 0.42748237 0.15052067
vn -0.17057154 -0.91151553 0.37422583
vn 0.5880446 -0.79716235 0.13687876
vn 0.85674757 -0.24595784 0.4533083
vn 0.9477881 -0.27567524 0.16031462
vn 0.49566582 -0.74769515 0.44189057
vn -0.33568308 0.92132014 -0.19617881
vn -0.9061986 0.25413114 -0.33796662
vn -0.9620579 0.2701868 -0.037996445
vn -0.45808443 0.8872677 -0.053987432
vn -0.8073489 -0.58712405 -0.058932137
vn 0.35575807 0.93430364 -0.022644976
vn -0.6968767 -0.6825021 -0.22034901
vn 0.30705214 0.94743335 -0.08993964
vn -0.08319484 -0.99278355 -0.086368814
vn 0.9069087 0.41197878 0.088261545
vn -0.031067966 -0.999241 -0.023499345
vn 0.89009786 0.42803437 -0.15656444
vn 0.5867662 -0.79713655 -0.14240359
vn 0.95360893 -0.26802132 0.13709311
vn 0.6135263 -0.7846471 0.08896329
vn 0.9465565 -0.27543682 -0.1678257
g Bow04_0
f 3/3/3 2/2/2 1/1/1
f 4/4/4 3/3/3 1/1/1
f 7/7/7 6/6/6 5/5/5
f 8/8/8 7/7/7 5/5/5
f 11/11/11 10/10/10 9/9/9
f 12/12/12 11/11/11 9/9/9
f 15/15/15 14/14/14 13/13/13
f 14/14/14 16/16/16 13/13/13
f 15/15/15 13/13/13 17/17/17
f 14/14/14 18/18/18 16/16/16
f 19/19/19 15/15/15 17/17/17
f 18/18/18 20/20/20 16/16/16
f 19/19/19 17/17/17 21/21/21
f 18/18/18 22/22/22 20/20/20
f 23/23/23 19/19/19 21/21/21
f 22/22/22 24/24/24 20/20/20
f 23/23/23 21/21/21 25/25/25
f 22/22/22 26/26/26 24/24/24
f 27/27/27 23/23/23 25/25/25
f 26/26/26 28/28/28 24/24/24
f 27/27/27 25/25/25 28/28/28
f 26/26/26 27/27/27 28/28/28
f 31/31/31 30/30/30 29/29/29
f 30/30/30 32/32/32 29/29/29
f 30/30/30 33/33/33 32/32/32
f 31/31/31 29/29/29 34/34/34
f 35/35/35 31/31/31 34/34/34
f 33/33/33 36/36/36 32/32/32
f 33/33/33 37/37/37 36/36/36
f 35/35/35 34/34/34 38/38/38
f 39/39/39 35/35/35 38/38/38
f 37/37/37 40/40/40 36/36/36
f 37/37/37 41/41/41 40/40/40
f 39/39/39 38/38/38 42/42/42
f 43/43/43 39/39/39 42/42/42
f 41/41/41 43/43/43 44/44/44
f 41/41/41 44/44/44 40/40/40
f 43/43/43 42/42/42 44/44/44
f 29/29/29 32/32/32 45/45/45
f 34/34/34 29/29/29 46/46/46
f 29/29/29 45/45/45 46/46/46
f 32/32/32 36/36/36 47/47/47
f 32/32/32 47/47/47 45/45/45
f 38/38/38 34/34/34 48/48/48
f 34/34/34 46/46/46 48/48/48
f 36/36/36 40/40/40 49/49/49
f 36/36/36 49/49/49 47/47/47
f 40/40/40 44/44/44 50/50/50
f 40/40/40 50/50/50 49/49/49
f 42/42/42 38/38/38 51/51/51
f 38/38/38 48/48/48 51/51/51
f 44/44/44 42/42/42 52/52/52
f 44/44/44 52/52/52 50/50/50
f 42/42/42 51/51/51 52/52/52
f 45/45/45 47/47/47 53/53/53
f 46/46/46 45/45/45 54/54/54
f 45/45/45 53/53/53 54/54/54
f 47/47/47 49/49/49 55/55/55
f 47/47/47 55/55/55 53/53/53
f 48/48/48 46/46/46 56/56/56
f 46/46/46 54/54/54 56/56/56
f 49/49/49 50/50/50 57/57/57
f 49/49/49 57/57/57 55/55/55
f 50/50/50 52/52/52 58/58/58
f 50/50/50 58/58/58 57/57/57
f 51/51/51 48/48/48 59/59/59
f 48/48/48 56/56/56 59/59/59
f 52/52/52 51/51/51 60/60/60
f 52/52/52 60/60/60 58/58/58
f 51/51/51 59/59/59 60/60/60
f 53/53/53 55/55/55 61/61/61
f 54/54/54 53/53/53 62/62/62
f 53/53/53 61/61/61 62/62/62
f 55/55/55 57/57/57 63/63/63
f 55/55/55 63/63/63 61/61/61
f 56/56/56 54/54/54 64/64/64
f 54/54/54 62/62/62 64/64/64
f 57/57/57 58/58/58 65/65/65
f 57/57/57 65/65/65 63/63/63
f 58/58/58 60/60/60 66/66/66
f 58/58/58 66/66/66 65/65/65
f 59/59/59 56/56/56 67/67/67
f 56/56/56 64/64/64 67/67/67
f 60/60/60 59/59/59 68/68/68
f 60/60/60 68/68/68 66/66/66
f 59/59/59 67/67/67 68/68/68
f 61/61/61 63/63/63 69/69/69
f 62/62/62 61/61/61 70/70/70
f 61/61/61 69/69/69 70/70/70
f 63/63/63 65/65/65 71/71/71
f 63/63/63 71/71/71 69/69/69
f 64/64/64 62/62/62 72/72/72
f 62/62/62 70/70/70 72/72/72
f 65/65/65 66/66/66 73/73/73
f 65/65/65 73/73/73 71/71/71
f 66/66/66 68/68/68 74/74/74
f 66/66/66 74/74/74 73/73/73
f 67/67/67 64/64/64 75/75/75
f 64/64/64 72/72/72 75/75/75
f 68/68/68 67/67/67 76/76/76
f 68/68/68 76/76/76 74/74/74
f 67/67/67 75/75/75 76/76/76
f 69/69/69 71/71/71 77/77/77
f 71/71/71 78/78/78 77/77/77
f 71/71/71 73/73/73 78/78/78
f 69/69/69 77/77/77 79/79/79
f 73/73/73 80/80/80 78/78/78
f 73/73/73 74/74/74 80/80/80
f 70/70/70 69/69/69 79/79/79
f 74/74/74 81/81/81 80/80/80
f 74/74/74 76/76/76 81/81/81
f 70/70/70 79/79/79 82/82/82
f 76/76/76 83/83/83 81/81/81
f 76/76/76 75/75/75 83/83/83
f 72/72/72 70/70/70 82/82/82
f 75/75/75 84/84/84 83/83/83
f 72/72/72 82/82/82 84/84/84
f 75/75/75 72/72/72 84/84/84
f 87/87/87 86/86/86 85/85/85
f 86/86/86 88/88/88 85/85/85
f 86/86/86 89/89/89 88/88/88
f 87/87/87 85/85/85 90/90/90
f 91/91/91 87/87/87 90/90/90
f 89/89/89 92/92/92 88/88/88
f 89/89/89 93/93/93 92/92/92
f 91/91/91 90/90/90 94/94/94
f 95/95/95 91/91/91 94/94/94
f 93/93/93 96/96/96 92/92/92
f 93/93/93 97/97/97 96/96/96
f 95/95/95 94/94/94 98/98/98
f 99/99/99 95/95/95 98/98/98
f 97/97/97 99/99/99 100/100/100
f 97/97/97 100/100/100 96/96/96
f 99/99/99 98/98/98 100/100/100
f 85/85/85 88/88/88 101/101/101
f 90/90/90 85/85/85 102/102/102
f 85/85/85 101/101/101 102/102/102
f 88/88/88 92/92/92 103/103/103
f 88/88/88 103/103/103 101/101/101
f 94/94/94 90/90/90 104/104/104
f 90/90/90 102/102/102 104/104/104
f 92/92/92 96/96/96 105/105/105
f 92/92/92 105/105/105 103/103/103
f 96/96/96 100/100/100 106/106/106
f 96/96/96 106/106/106 105/105/105
f 98/98/98 94/94/94 107/107/107
f 94/94/94 104/104/104 107/107/107
f 100/100/100 98/98/98 108/108/108
f 100/100/100 108/108/108 106/106/106
f 98/98/98 107/107/107 108/108/108
f 101/101/101 103/103/103 109/109/109
f 102/102/102 101/101/101 110/110/110
f 101/101/101 109/109/109 110/110/110
f 103/103/103 105/105/105 111/111/111
f 103/103/103 111/111/111 109/109/109
f 104/104/104 102/102/102 112/112/112
f 102/102/102 110/110/110 112/112/112
f 105/105/105 106/106/106 113/113/113
f 105/105/105 113/113/113 111/111/111
f 106/106/106 108/108/108 114/114/114
f 106/106/106 114/114/114 113/113/113
f 107/107/107 104/104/104 115/115/115
f 104/104/104 112/112/112 115/115/115
f 108/108/108 107/107/107 116/116/116
f 108/108/108 116/116/116 114/114/114
f 107/107/107 115/115/115 116/116/116
f 109/109/109 111/111/111 117/117/117
f 110/110/110 109/109/109 118/118/118
f 109/109/109 117/117/117 118/118/118
f 111/111/111 113/113/113 119/119/119
f 111/111/111 119/119/119 117/117/117
f 112/112/112 110/110/110 120/120/120
f 110/110/110 118/118/118 120/120/120
f 113/113/113 114/114/114 121/121/121
f 113/113/113 121/121/121 119/119/119
f 114/114/114 116/116/116 122/122/122
f 114/114/114 122/122/122 121/121/121
f 115/115/115 112/112/112 123/123/123
f 112/112/112 120/120/120 123/123/123
f 116/116/116 115/115/115 124/124/124
f 116/116/116 124/124/124 122/122/122
f 115/115/115 123/123/123 124/124/124
f 117/117/117 119/119/119 125/125/125
f 119/119/119 126/126/126 125/125/125
f 119/119/119 121/121/121 126/126/126
f 117/117/117 125/125/125 127/127/127
f 121/121/121 128/128/128 126/126/126
f 121/121/121 122/122/122 128/128/128
f 118/118/118 117/117/117 127/127/127
f 122/122/122 129/129/129 128/128/128
f 122/122/122 124/124/124 129/129/129
f 118/118/118 127/127/127 130/130/130
f 124/124/124 131/131/131 129/129/129
f 124/124/124 123/123/123 131/131/131
f 120/120/120 118/118/118 130/130/130
f 123/123/123 132/132/132 131/131/131
f 120/120/120 130/130/130 132/132/132
f 123/123/123 120/120/120 132/132/132
f 135/135/135 134/134/134 133/133/133
f 134/134/134 136/136/136 133/133/133
f 134/134/134 137/137/137 136/136/136
f 135/135/135 133/133/133 138/138/138
f 139/139/139 135/135/135 138/138/138
f 137/137/137 140/140/140 136/136/136
f 137/137/137 141/141/141 140/140/140
f 139/139/139 138/138/138 142/142/142
f 143/143/143 139/139/139 142/142/142
f 141/141/141 144/144/144 140/140/140
f 141/141/141 145/145/145 144/144/144
f 143/143/143 142/142/142 146/146/146
f 147/147/147 143/143/143 146/146/146
f 145/145/145 147/147/147 148/148/148
f 145/145/145 148/148/148 144/144/144
f 147/147/147 146/146/146 148/148/148
f 133/133/133 136/136/136 149/149/149
f 138/138/138 133/133/133 150/150/150
f 133/133/133 149/149/149 150/150/150
f 136/136/136 140/140/140 151/151/151
f 136/136/136 151/151/151 149/149/149
f 142/142/142 138/138/138 152/152/152
f 138/138/138 150/150/150 152/152/152
f 140/140/140 144/144/144 153/153/153
f 140/140/140 153/153/153 151/151/151
f 144/144/144 148/148/148 154/154/154
f 144/144/144 154/154/154 153/153/153
f 146/146/146 142/142/142 155/155/155
f 142/142/142 152/152/152 155/155/155
f 148/148/148 146/146/146 156/156/156
f 148/148/148 156/156/156 154/154/154
f 146/146/146 155/155/155 156/156/156
f 149/149/149 151/151/151 157/157/157
f 150/150/150 149/149/149 158/158/158
f 149/149/149 157/157/157 158/158/158
f 151/151/151 153/153/153 159/159/159
f 151/151/151 159/159/159 157/157/157
f 152/152/152 150/150/150 160/160/160
f 150/150/150 158/158/158 160/160/160
f 153/153/153 154/154/154 161/161/161
f 153/153/153 161/161/161 159/159/159
f 154/154/154 156/156/156 162/162/162
f 154/154/154 162/162/162 161/161/161
f 155/155/155 152/152/152 163/163/163
f 152/152/152 160/160/160 163/163/163
f 156/156/156 155/155/155 164/164/164
f 156/156/156 164/164/164 162/162/162
f 155/155/155 163/163/163 164/164/164
f 157/157/157 159/159/159 165/165/165
f 158/158/158 157/157/157 166/166/166
f 157/157/157 165/165/165 166/166/166
f 159/159/159 161/161/161 167/167/167
f 159/159/159 167/167/167 165/165/165
f 160/160/160 158/158/158 168/168/168
f 158/158/158 166/166/166 168/168/168
f 161/161/161 162/162/162 169/169/169
f 161/161/161 169/169/169 167/167/167
f 162/162/162 164/164/164 170/170/170
f 162/162/162 170/170/170 169/169/169
f 163/163/163 160/160/160 171/171/171
f 160/160/160 168/168/168 171/171/171
f 164/164/164 163/163/163 172/172/172
f 164/164/164 172/172/172 170/170/170
f 163/163/163 171/171/171 172/172/172
f 165/165/165 167/167/167 173/173/173
f 166/166/166 165/165/165 174/174/174
f 165/165/165 173/173/173 174/174/174
f 167/167/167 169/169/169 175/175/175
f 167/167/167 175/175/175 173/173/173
f 168/168/168 166/166/166 176/176/176
f 166/166/166 174/174/174 176/176/176
f 169/169/169 170/170/170 177/177/177
f 169/169/169 177/177/177 175/175/175
f 170/170/170 172/172/172 178/178/178
f 170/170/170 178/178/178 177/177/177
f 171/171/171 168/168/168 179/179/179
f 168/168/168 176/176/176 179/179/179
f 172/172/172 171/171/171 180/180/180
f 172/172/172 180/180/180 178/178/178
f 171/171/171 179/179/179 180/180/180
f 173/173/173 175/175/175 181/181/181
f 175/175/175 182/182/182 181/181/181
f 175/175/175 177/177/177 182/182/182
f 173/173/173 181/181/181 183/183/183
f 177/177/177 184/184/184 182/182/182
f 177/177/177 178/178/178 184/184/184
f 174/174/174 173/173/173 183/183/183
f 178/178/178 185/185/185 184/184/184
f 178/178/178 180/180/180 185/185/185
f 174/174/174 183/183/183 186/186/186
f 180/180/180 187/187/187 185/185/185
f 180/180/180 179/179/179 187/187/187
f 176/176/176 174/174/174 186/186/186
f 179/179/179 188/188/188 187/187/187
f 176/176/176 186/186/186 188/188/188
f 179/179/179 176/176/176 188/188/188
f 191/191/191 190/190/190 189/189/189
f 192/192/192 191/191/191 189/189/189
f 192/192/192 193/193/193 191/191/191
f 192/192/192 189/189/189 194/194/194
f 191/191/191 195/195/195 190/190/190
f 191/191/191 193/193/193 195/195/195
f 195/195/195 196/196/196 190/190/190
f 197/197/197 192/192/192 194/194/194
f 197/197/197 193/193/193 192/192/192
f 197/197/197 194/194/194 198/198/198
f 195/195/195 199/199/199 196/196/196
f 195/195/195 193/193/193 199/199/199
f 199/199/199 200/200/200 196/196/196
f 201/201/201 197/197/197 198/198/198
f 201/201/201 193/193/193 197/197/197
f 201/201/201 198/198/198 202/202/202
f 199/199/199 203/203/203 200/200/200
f 199/199/199 193/193/193 203/203/203
f 203/203/203 204/204/204 200/200/200
f 205/205/205 201/201/201 202/202/202
f 205/205/205 193/193/193 201/201/201
f 205/205/205 202/202/202 204/204/204
f 203/203/203 193/193/193 205/205/205
f 203/203/203 205/205/205 204/204/204
f 208/208/208 207/207/207 206/206/206
f 207/207/207 209/209/209 206/206/206
f 210/210/210 208/208/208 206/206/206
f 208/208/208 211/211/211 207/207/207
f 210/210/210 206/206/206 212/212/212
f 206/206/206 209/209/209 212/212/212
f 213/213/213 210/210/210 212/212/212
f 211/211/211 214/214/214 207/207/207
f 214/214/214 209/209/209 207/207/207
f 211/211/211 215/215/215 214/214/214
f 213/213/213 212/212/212 216/216/216
f 212/212/212 209/209/209 216/216/216
f 217/217/217 213/213/213 216/216/216
f 215/215/215 218/218/218 214/214/214
f 218/218/218 209/209/209 214/214/214
f 215/215/215 219/219/219 218/218/218
f 217/217/217 216/216/216 220/220/220
f 216/216/216 209/209/209 220/220/220
f 221/221/221 217/217/217 220/220/220
f 222/222/222 209/209/209 218/218/218
f 219/219/219 222/222/222 218/218/218
f 220/220/220 209/209/209 222/222/222
f 221/221/221 220/220/220 222/222/222
f 219/219/219 221/221/221 222/222/222
f 225/225/225 224/224/224 223/223/223
f 226/226/226 225/225/225 223/223/223
f 225/225/225 227/227/227 224/224/224
f 226/226/226 223/223/223 228/228/228
f 227/227/227 229/229/229 224/224/224
f 230/230/230 226/226/226 228/228/228
f 227/227/227 231/231/231 229/229/229
f 230/230/230 228/228/228 232/232/232
f 231/231/231 233/233/233 229/229/229
f 234/234/234 230/230/230 232/232/232
f 231/231/231 235/235/235 233/233/233
f 234/234/234 232/232/232 236/236/236
f 235/235/235 237/237/237 233/233/233
f 238/238/238 234/234/234 236/236/236
f 238/238/238 236/236/236 237/237/237
f 235/235/235 238/238/238 237/237/237
