g Bow07
v 0.19757645 -0.10010272 0.7583449
v 0.19342767 -0.10774311 0.7583449
v 0.19555594 -0.10812461 -4.830622E-07
v 0.19970497 -0.10048306 -4.843894E-07
v 0.19757643 -0.10010291 -0.75834584
v 0.19342764 -0.10774329 -0.75834584
v 0.18009238 -0.10535315 0.7583449
v 0.18423983 -0.09772021 0.7583449
v 0.1863684 -0.09810058 -4.8445645E-07
v 0.1822207 -0.10573466 -4.831305E-07
v 0.18009236 -0.10535334 -0.75834584
v 0.1842398 -0.09772041 -0.75834584
v 0.18423983 -0.09772021 0.7583449
v 0.19757645 -0.10010272 0.7583449
v 0.19970497 -0.10048306 -4.843894E-07
v 0.1863684 -0.09810058 -4.8445645E-07
v 0.1842398 -0.09772041 -0.75834584
v 0.19757643 -0.10010291 -0.75834584
v -0.14429295 -0.030338649 0.1380835
v -0.1404462 -0.029338695 0.14104597
v -0.14378676 -0.047307502 0.1409405
v -0.14734966 -0.046668958 0.13796943
v -0.14689444 -0.06531804 0.14104599
v -0.17516808 -0.04168332 0.2234138
v -0.1781718 -0.05900066 0.22350149
v -0.21691398 -0.034201603 0.33720985
v -0.21981138 -0.05100401 0.33727896
v -0.2153923 -0.034474313 0.50499755
v -0.2175065 -0.047115687 0.504979
v -0.13898051 -0.04816884 0.63624936
v -0.14135283 -0.06203625 0.6362355
v -0.11925183 -0.10485856 0.14970575
v -0.15519202 -0.09187135 0.23070048
v -0.19602306 -0.08401959 0.3393922
v -0.19611372 -0.083734296 0.4860006
v -0.12025607 -0.10581164 0.14744997
v -0.1501545 -0.06304441 0.13808352
v -0.13622633 -0.08850024 0.6012216
v -0.13256255 -0.06605592 0.6082378
v -0.12719643 -0.08596061 0.57758605
v -0.11825463 -0.1179861 0.5131151
v -0.114076205 -0.10172367 0.51476073
v -0.14197889 -0.12071932 0.44634742
v -0.13848345 -0.11825916 0.34507865
v -0.10509795 -0.10382358 0.46226996
v -0.106133796 -0.091778986 0.48009872
v -0.10977261 -0.09295471 0.4274662
v -0.09856321 -0.05541244 0.4222741
v -0.10512862 -0.09482521 0.34686673
v -0.09230607 -0.056533862 0.34573445
v -0.053952985 -0.063407525 0.25396693
v -0.06697417 -0.102197245 0.25405475
v 0.0020242129 -0.07343977 0.17769317
v -0.010529509 -0.111479975 0.17779882
v -0.099584766 -0.12576458 0.24727072
v -0.04975716 -0.13982937 0.16963829
v -0.0023865607 -0.112361245 0.17783561
v -0.044815406 -0.14302412 0.1690091
v 0.0015553832 -0.13620186 0.1435461
v -0.11466186 -0.116735645 0.1165843
v 0.059045848 -0.09486913 0.15455627
v 0.010360297 -0.07493377 0.17772132
v 0.060905542 -0.08399251 0.1544637
v 0.026710156 -0.09308418 0.12746248
v 0.029223744 -0.07831448 0.12734818
v -0.11246917 -0.05292025 0.09440929
v -0.011381384 -0.12047006 0.120167494
v -0.08838364 -0.107572325 0.10230333
v -0.15524386 -0.05897604 0.10484224
v -0.11527209 -0.06930244 0.09452336
v -0.15294746 -0.04566572 0.10474998
v 0.010360297 -0.07493377 0.17772132
v 0.0020242129 -0.07343977 0.17769317
v 0.0034626634 -0.0334075 0.17779881
v 0.011404838 -0.035409007 0.17783557
v -0.13638923 -0.034340616 0.6362355
v -0.12675005 -0.033623874 0.6082378
v -0.13188747 -0.049440064 0.61152345
v -0.13898051 -0.04816884 0.63624936
v -0.10507507 -0.05424538 0.45227635
v -0.093033016 -0.018680237 0.4800987
v -0.08787871 -0.007745037 0.46226993
v -0.08787871 -0.007745037 0.46226993
v -0.093033016 -0.018680237 0.4800987
v -0.09702743 -0.006596186 0.51476073
v -0.09529807 0.010105199 0.5131151
v -0.114805326 -0.016821707 0.57758605
v -0.09603703 -0.016313972 0.42746618
v -0.09856321 -0.05541244 0.4222741
v -0.122391224 -0.0113041345 0.6012216
v -0.12675005 -0.033623874 0.6082378
v -0.13638923 -0.034340616 0.6362355
v -0.11659652 0.020907352 0.44634736
v -0.18020634 0.005024569 0.4860006
v -0.21298473 -0.021885477 0.504979
v -0.13898051 -0.04816884 0.63624936
v -0.2153923 -0.034474313 0.50499755
v -0.21379581 -0.017438754 0.33727896
v -0.21691398 -0.034201603 0.33720985
v -0.18002225 0.0052605947 0.33939224
v -0.11417301 0.017386362 0.34507862
v -0.09103248 -0.01617267 0.3468667
v -0.17197078 -0.02440067 0.22350147
v -0.17516808 -0.04168332 0.2234138
v -0.13900575 -0.0015564287 0.23070045
v -0.09230607 -0.056533862 0.34573445
v -0.053952985 -0.063407525 0.25396693
v -0.052692607 -0.022510003 0.25405473
v 0.0020242129 -0.07343977 0.17769317
v 0.0034626634 -0.0334075 0.17779881
v -0.07508888 0.010915674 0.2472707
v -0.02347809 0.0068006315 0.16963826
v 0.011404838 -0.035409007 0.17783557
v -0.100792214 -0.0018590845 0.14970575
v -0.017734423 0.008080321 0.16900907
v -0.1404462 -0.029338695 0.14104597
v -0.14378676 -0.047307502 0.1409405
v -0.101402976 -0.000616559 0.14744996
v -0.14429295 -0.030338649 0.1380835
v 0.023380939 -0.014421249 0.14354609
v -0.0923632 0.007684739 0.11658428
v -0.15047845 -0.032386344 0.10484224
v -0.15294746 -0.04566572 0.10474998
v -0.14734966 -0.046668958 0.13796943
v -0.1501545 -0.06304441 0.13808352
v -0.14689444 -0.06531804 0.14104599
v -0.11246917 -0.05292025 0.09440929
v -0.109408334 -0.03658428 0.094523355
v -0.07090285 -0.010034305 0.10230332
v 0.0057859425 -0.024681108 0.12016748
v 0.029223744 -0.07831448 0.12734818
v 0.062938884 -0.073147 0.15455627
v 0.010360297 -0.07493377 0.17772132
v 0.060905542 -0.08399251 0.1544637
v 0.031995907 -0.06359113 0.12746248
v 0.19466484 -0.11634875 0.7583449
v 0.19555594 -0.10812461 -4.830622E-07
v 0.19342767 -0.10774311 0.7583449
v 0.19679293 -0.11673145 -4.8170745E-07
v 0.19466482 -0.116348885 -0.75834584
v 0.19342764 -0.10774329 -0.75834584
v 0.18009238 -0.10535315 0.7583449
v 0.18345903 -0.11433404 -4.817769E-07
v 0.18133087 -0.113951355 0.7583449
v 0.1822207 -0.10573466 -4.831305E-07
v 0.18009236 -0.10535334 -0.75834584
v 0.18133086 -0.11395148 -0.75834584
v 0.18133087 -0.113951355 0.7583449
v 0.19679293 -0.11673145 -4.8170745E-07
v 0.19466484 -0.11634875 0.7583449
v 0.18345903 -0.11433404 -4.817769E-07
v 0.18133086 -0.11395148 -0.75834584
v 0.19466482 -0.116348885 -0.75834584
v 0.010360297 -0.07493377 0.17772132
v -0.0023865607 -0.112361245 0.17783561
v -0.010529509 -0.111479975 0.17779882
v 0.0020242129 -0.07343977 0.17769317
v -0.14135283 -0.06203625 0.6362355
v -0.13898051 -0.04816884 0.63624936
v -0.13188747 -0.049440064 0.61152345
v -0.13256255 -0.06605592 0.6082378
v -0.10509795 -0.10382358 0.46226996
v -0.106133796 -0.091778986 0.48009872
v -0.10507507 -0.05424538 0.45227635
v -0.14429295 -0.030338686 -0.13808452
v -0.14378676 -0.047307532 -0.14094149
v -0.14044622 -0.029338725 -0.14104699
v -0.14734964 -0.046668988 -0.13797042
v -0.15294744 -0.04566575 -0.10475093
v -0.1501545 -0.06304445 -0.1380845
v -0.15524386 -0.05897607 -0.10484319
v -0.11246917 -0.05292027 -0.094410256
v -0.120256096 -0.10581167 -0.14745095
v -0.14689445 -0.06531807 -0.14104697
v -0.17516807 -0.041683376 -0.22341481
v -0.1781718 -0.05900072 -0.22350247
v -0.216914 -0.034201685 -0.3372108
v -0.11925183 -0.10485859 -0.14970675
v -0.21981141 -0.051004093 -0.33727992
v -0.21539232 -0.03447442 -0.5049985
v -0.15519202 -0.091871396 -0.23070148
v -0.21750651 -0.04711582 -0.50497997
v -0.13898052 -0.048168987 -0.6362503
v -0.14135285 -0.0620364 -0.6362364
v -0.19602309 -0.08401966 -0.3393932
v -0.19611377 -0.0837344 -0.48600155
v -0.13622636 -0.088500366 -0.6012226
v -0.13256255 -0.06605606 -0.60823876
v -0.12719646 -0.08596074 -0.577587
v -0.11825466 -0.11798623 -0.51311606
v -0.11407621 -0.10172377 -0.5147617
v -0.14197892 -0.12071942 -0.44634828
v -0.13848346 -0.11825925 -0.34507954
v -0.09958478 -0.12576465 -0.2472717
v -0.105097964 -0.10382367 -0.46227086
v -0.10613381 -0.09177906 -0.48009962
v -0.10977263 -0.0929548 -0.4274671
v -0.09856325 -0.055412546 -0.42227507
v -0.10512863 -0.09482529 -0.34686762
v -0.092306085 -0.05653394 -0.3457354
v -0.053952992 -0.063407585 -0.25396788
v -0.06697418 -0.10219731 -0.25405565
v 0.0020242035 -0.073439814 -0.17769416
v -0.010529518 -0.111480035 -0.1777998
v -0.049757175 -0.13982943 -0.16963924
v -0.0023865718 -0.112361304 -0.17783657
v -0.044815414 -0.14302418 -0.16901006
v -0.11466186 -0.11673568 -0.11658524
v 0.0015553776 -0.13620189 -0.14354709
v -0.11527209 -0.06930246 -0.09452432
v -0.088383645 -0.107572354 -0.10230429
v 0.059045833 -0.09486917 -0.15455726
v 0.010360286 -0.07493381 -0.1777223
v 0.060905527 -0.08399254 -0.15446468
v -0.011381391 -0.12047011 -0.12016843
v 0.026710149 -0.093084216 -0.12746346
v 0.02922374 -0.07831451 -0.12734917
v 0.010360286 -0.07493381 -0.1777223
v 0.011404835 -0.035409037 -0.17783661
v 0.003462656 -0.033407543 -0.17779982
v 0.0020242035 -0.073439814 -0.17769416
v -0.13638923 -0.03434076 -0.6362364
v -0.13898052 -0.048168987 -0.6362503
v -0.13188748 -0.0494402 -0.6115244
v -0.12675008 -0.033624016 -0.60823876
v -0.087878734 -0.007745154 -0.4622709
v -0.09303304 -0.018680364 -0.48009965
v -0.1050751 -0.054245498 -0.4522773
v -0.087878734 -0.007745154 -0.4622709
v -0.09702744 -0.006596294 -0.5147617
v -0.09303304 -0.018680364 -0.48009965
v -0.0952981 0.010105061 -0.51311606
v -0.11480537 -0.016821837 -0.577587
v -0.09603705 -0.01631405 -0.42746714
v -0.09856325 -0.055412546 -0.42227507
v -0.12239125 -0.011304334 -0.6012226
v -0.12675008 -0.033624016 -0.60823876
v -0.13638923 -0.03434076 -0.6362364
v -0.116596535 0.020907266 -0.44634834
v -0.18020636 0.005024463 -0.48600155
v -0.21298474 -0.021885585 -0.50497997
v -0.13898052 -0.048168987 -0.6362503
v -0.21539232 -0.03447442 -0.5049985
v -0.21379584 -0.017438836 -0.33727992
v -0.216914 -0.034201685 -0.3372108
v -0.18002228 0.0052605136 -0.33939314
v -0.11417301 0.01738628 -0.34507957
v -0.0910325 -0.016172782 -0.34686765
v -0.17197078 -0.02440073 -0.22350249
v -0.17516807 -0.041683376 -0.22341481
v -0.13900575 -0.001556489 -0.23070148
v -0.092306085 -0.05653394 -0.3457354
v -0.053952992 -0.063407585 -0.25396788
v -0.0526926 -0.022510055 -0.25405568
v 0.0020242035 -0.073439814 -0.17769416
v 0.003462656 -0.033407543 -0.17779982
v -0.075088896 0.010915624 -0.24727172
v -0.023478098 0.006800599 -0.16963927
v 0.011404835 -0.035409037 -0.17783661
v -0.10079222 -0.0018591334 -0.14970675
v -0.017734429 0.00808028 -0.16901009
v -0.14044622 -0.029338725 -0.14104699
v -0.14378676 -0.047307532 -0.14094149
v -0.10140298 -0.0006165922 -0.14745097
v -0.14429295 -0.030338686 -0.13808452
v 0.023380931 -0.014421288 -0.1435471
v -0.09236319 0.007684723 -0.11658526
v -0.15047845 -0.032386374 -0.10484319
v -0.15294744 -0.04566575 -0.10475093
v -0.14734964 -0.046668988 -0.13797042
v -0.1501545 -0.06304445 -0.1380845
v -0.14689445 -0.06531807 -0.14104697
v -0.11246917 -0.05292027 -0.094410256
v -0.109408334 -0.03658431 -0.094524324
v -0.07090285 -0.010034339 -0.1023043
v 0.005785935 -0.024681149 -0.12016845
v 0.02922374 -0.07831451 -0.12734917
v 0.06293887 -0.07314703 -0.15455726
v 0.010360286 -0.07493381 -0.1777223
v 0.060905527 -0.08399254 -0.15446468
v 0.031995904 -0.06359117 -0.12746346
v 0.010360286 -0.07493381 -0.1777223
v 0.0020242035 -0.073439814 -0.17769416
v -0.010529518 -0.111480035 -0.1777998
v -0.0023865718 -0.112361304 -0.17783657
v -0.14135285 -0.0620364 -0.6362364
v -0.13256255 -0.06605606 -0.60823876
v -0.13188748 -0.0494402 -0.6115244
v -0.13898052 -0.048168987 -0.6362503
v -0.1050751 -0.054245498 -0.4522773
v -0.10613381 -0.09177906 -0.48009962
v -0.105097964 -0.10382367 -0.46227086
v 0.1895983 -0.090748005 0.80027556
v 0.22391509 -0.11320706 0.8494308
v 0.1867762 -0.10655102 0.80027556
v 0.1839345 -0.12235047 0.80027556
v 0.22673345 -0.097425036 0.8494308
v 0.19814096 -0.0764388 0.79290515
v 0.24196374 -0.11644173 0.87841165
v 0.232362 -0.09100778 0.84832966
v 0.22107716 -0.12898557 0.8494308
v 0.21232593 -0.07897281 0.77488333
v 0.18697606 -0.13873588 0.79290515
v 0.24298269 -0.09290504 0.84563696
v 0.21537367 -0.09535252 0.76752853
v 0.22412676 -0.13695808 0.84832966
v 0.2011582 -0.14128578 0.77488333
v 0.246032 -0.10087254 0.8445381
v 0.21254893 -0.111170016 0.7675286
v 0.23474526 -0.1388673 0.84563696
v 0.20970465 -0.12698399 0.76752853
v 0.24037182 -0.13245477 0.8445381
v 0.24321169 -0.11666541 0.8445381
v 0.19110532 -0.107326895 0.74901927
v 0.21254893 -0.111170016 0.7675286
v 0.21537367 -0.09535252 0.76752853
v 0.20970465 -0.12698399 0.76752853
v 0.19393583 -0.091476776 0.74901927
v 0.19016172 -0.07022988 0.75873137
v 0.21232593 -0.07897281 0.77488333
v 0.17234607 -0.067047246 0.7823597
v 0.19814096 -0.0764388 0.79290515
v 0.16143431 -0.08567072 0.7920916
v 0.1895983 -0.090748005 0.80027556
v 0.15860707 -0.10150254 0.79209155
v 0.1867762 -0.10655102 0.80027556
v 0.1839345 -0.12235047 0.80027556
v 0.15576017 -0.11733084 0.7920916
v 0.18697606 -0.13873588 0.79290515
v 0.13544995 -0.09735232 0.7772646
v 0.13826965 -0.08156262 0.7772646
v 0.14818531 -0.06436864 0.7681725
v 0.16413715 -0.06721822 0.74622494
v 0.16747363 -0.086779684 0.7371508
v 0.16465098 -0.10258574 0.7371508
v 0.13261062 -0.113138504 0.7772646
v 0.15952511 -0.13858469 0.7823597
v 0.2011582 -0.14128578 0.77488333
v 0.13593788 -0.1327059 0.7681725
v 0.18825515 -0.12317345 0.74901927
v 0.16180873 -0.1183883 0.7371508
v 0.15188654 -0.13557348 0.74622494
v 0.1773372 -0.14178728 0.75873137
v 0.008326897 -0.0745693 0.66882163
v 0.16465098 -0.10258574 0.7371508
v 0.16747363 -0.086779684 0.7371508
v 0.16180873 -0.1183883 0.7371508
v 0.011148922 -0.058805276 0.6688246
v 0.005498667 -0.090332165 0.6688246
v 0.0032677338 -0.030183991 0.67956823
v -0.011831772 -0.11443508 0.67956823
v 0.16413715 -0.06721822 0.74622494
v 0.15188654 -0.13557348 0.74622494
v -0.017076474 -0.035564728 0.6995702
v -0.029041078 -0.10232393 0.6995702
v 0.14818531 -0.06436864 0.7681725
v 0.13593788 -0.1327059 0.7681725
v -0.042257294 -0.049265467 0.71794736
v -0.047896553 -0.080730975 0.71794736
v 0.13826965 -0.08156262 0.7772646
v 0.13261062 -0.113138504 0.7772646
v -0.045091543 -0.06499563 0.7179393
v 0.13544995 -0.09735232 0.7772646
v -0.07030947 -0.043547206 0.12044394
v -0.07324412 -0.059950177 0.120437846
v -0.07248809 -0.060085688 -4.8443434E-07
v -0.076188624 -0.07635136 0.12044395
v -0.06954907 -0.04365846 -4.8714566E-07
v -0.057646804 -0.033489395 0.12057528
v -0.07543694 -0.076511145 -4.8172296E-07
v -0.067807056 -0.09018074 0.12057529
v -0.056886427 -0.033600632 -4.8720057E-07
v -0.032668836 -0.037958913 0.12086728
v -0.06705537 -0.09034052 -4.8156033E-07
v -0.042831514 -0.094663896 0.12086729
v -0.03190845 -0.03807016 -4.8707386E-07
v -0.024253283 -0.051788457 0.120982304
v -0.042079825 -0.09482368 -4.814313E-07
v -0.030136958 -0.08461772 0.12098232
v -0.023492888 -0.051899705 -4.8691203E-07
v -0.027190186 -0.06820397 0.12097625
v -0.029385254 -0.0847775 -4.814852E-07
v -0.026434142 -0.06833948 -4.8419855E-07
v -0.027190194 -0.06820401 -0.120977215
v -0.024253286 -0.05178848 -0.12098328
v -0.030136954 -0.08461775 -0.120983265
v -0.03266884 -0.037958935 -0.12086825
v -0.042831525 -0.09466393 -0.12086824
v -0.05764682 -0.033489417 -0.12057625
v -0.067807056 -0.09018077 -0.12057624
v -0.07030947 -0.043547235 -0.12044491
v -0.07618864 -0.0763514 -0.1204449
v -0.07324412 -0.059950206 -0.120438814
v -0.19926202 -0.037365187 0.5041148
v -0.05864697 -0.046307877 0.7058567
v -0.06146027 -0.062062025 0.70585674
v -0.06429326 -0.07781259 0.7058567
v -0.19635366 -0.021078605 0.5041148
v -0.032737505 -0.032666456 0.6866409
v -0.20219074 -0.053648066 0.5041148
v -0.044733893 -0.09960301 0.6866409
v -0.16300417 -0.0061055627 0.48563778
v -0.011850737 -0.026824709 0.66630614
v -0.19519483 -0.03809411 0.3353616
v -0.1761169 -0.079270974 0.4856378
v -0.027175877 -0.11233478 0.66630614
v -0.12635168 -0.0030879912 0.46745226
v -0.0036262106 -0.056133356 0.65526074
v -0.19240129 -0.022449935 0.3353616
v -0.19800816 -0.05373475 0.3353616
v -0.14279366 -0.094829604 0.4674523
v -0.009284787 -0.08770665 0.65526074
v -0.0834635 -0.058118645 0.1513396
v -0.08065782 -0.042424075 0.15134673
v -0.08628295 -0.07381075 0.15134674
v -0.17106187 0.00078168564 0.34040383
v -0.18606494 -0.08293129 0.34040383
v -0.061687566 -0.02123637 0.1515005
v -0.113348804 -0.00952827 0.34960815
v -0.07585161 -0.10026783 0.15150051
v -0.12836349 -0.093305916 0.34960818
v -0.11165811 -0.036207728 0.4571303
v -0.026789237 -0.02747683 0.15184237
v -0.11751261 -0.06887416 0.4571303
v -0.040958147 -0.106535465 0.15184239
v -0.106102794 -0.07025924 0.34944183
v -0.11457521 -0.05254276 0.45713046
v -0.0064429585 -0.07192225 0.6552657
v -0.10328032 -0.054567054 0.34944183
v -0.10047744 -0.038871318 0.34944183
v -0.021943893 -0.08536747 0.15197706
v -0.019119957 -0.069650315 0.15196995
v -0.016309788 -0.053930692 0.15197706
v 0.18959825 -0.09074819 -0.8002765
v 0.18677616 -0.106551215 -0.8002765
v 0.22391503 -0.113207266 -0.84943175
v 0.18393445 -0.12235065 -0.8002765
v 0.2267334 -0.09742521 -0.84943175
v 0.19814092 -0.07643899 -0.7929061
v 0.24196365 -0.11644195 -0.8784126
v 0.23236194 -0.09100799 -0.8483306
v 0.2210771 -0.12898576 -0.84943175
v 0.21232592 -0.078972995 -0.7748843
v 0.186976 -0.13873601 -0.7929061
v 0.24298263 -0.092905246 -0.8456379
v 0.21537362 -0.09535271 -0.7675295
v 0.22412671 -0.13695829 -0.8483306
v 0.20115817 -0.14128596 -0.7748843
v 0.24603197 -0.10087274 -0.84453905
v 0.21254891 -0.11117021 -0.76752955
v 0.23474526 -0.13886751 -0.8456379
v 0.20970464 -0.12698415 -0.7675295
v 0.24037182 -0.13245492 -0.84453905
v 0.24321169 -0.11666562 -0.84453905
v 0.1911053 -0.10732708 -0.7490202
v 0.21537362 -0.09535271 -0.7675295
v 0.21254891 -0.11117021 -0.76752955
v 0.20970464 -0.12698415 -0.7675295
v 0.19393581 -0.09147694 -0.7490202
v 0.1901617 -0.07023007 -0.7587323
v 0.21232592 -0.078972995 -0.7748843
v 0.17234606 -0.067047425 -0.7823607
v 0.19814092 -0.07643899 -0.7929061
v 0.16143428 -0.08567085 -0.79209256
v 0.18959825 -0.09074819 -0.8002765
v 0.15860702 -0.10150273 -0.7920925
v 0.18677616 -0.106551215 -0.8002765
v 0.18393445 -0.12235065 -0.8002765
v 0.15576012 -0.11733103 -0.79209256
v 0.186976 -0.13873601 -0.7929061
v 0.13544995 -0.09735251 -0.77726555
v 0.13826963 -0.08156281 -0.77726555
v 0.1481853 -0.06436883 -0.76817346
v 0.16413714 -0.06721839 -0.7462259
v 0.16747361 -0.086779855 -0.73715174
v 0.16465096 -0.10258592 -0.73715174
v 0.13261059 -0.1131387 -0.77726555
v 0.1595251 -0.1385849 -0.7823607
v 0.20115817 -0.14128596 -0.7748843
v 0.13593787 -0.13270608 -0.76817346
v 0.18825512 -0.123173624 -0.7490202
v 0.16180871 -0.11838842 -0.73715174
v 0.1518865 -0.13557366 -0.7462259
v 0.17733717 -0.14178745 -0.7587323
v 0.008326877 -0.074569464 -0.6688226
v 0.16747361 -0.086779855 -0.73715174
v 0.16465096 -0.10258592 -0.73715174
v 0.16180871 -0.11838842 -0.73715174
v 0.0111489035 -0.058805432 -0.66882557
v 0.0054986463 -0.09033233 -0.66882557
v 0.0032677245 -0.030184092 -0.6795692
v -0.011831788 -0.11443524 -0.6795692
v 0.16413714 -0.06721839 -0.7462259
v 0.1518865 -0.13557366 -0.7462259
v -0.0170765 -0.035564896 -0.69957113
v -0.0290411 -0.10232409 -0.69957113
v 0.1481853 -0.06436883 -0.76817346
v 0.13593787 -0.13270608 -0.76817346
v -0.04225732 -0.04926563 -0.7179483
v -0.047896575 -0.08073115 -0.7179483
v 0.13826963 -0.08156281 -0.77726555
v 0.13261059 -0.1131387 -0.77726555
v -0.04509157 -0.0649958 -0.7179403
v 0.13544995 -0.09735251 -0.77726555
v -0.19926204 -0.0373653 -0.50411576
v -0.061460294 -0.062062196 -0.7058577
v -0.058646984 -0.046308048 -0.70585763
v -0.06429327 -0.07781275 -0.70585763
v -0.19635367 -0.021078717 -0.50411576
v -0.032737527 -0.032666624 -0.6866419
v -0.20219076 -0.053648174 -0.50411576
v -0.044733915 -0.099603176 -0.6866419
v -0.16300419 -0.0061056614 -0.48563877
v -0.011850756 -0.026824862 -0.6663071
v -0.19519486 -0.038094193 -0.33536255
v -0.17611691 -0.07927108 -0.48563874
v -0.0271759 -0.112334944 -0.6663071
v -0.12635171 -0.0030881062 -0.4674532
v -0.003626231 -0.056133512 -0.6552617
v -0.1924013 -0.022450013 -0.33536255
v -0.19800818 -0.053734835 -0.33536255
v -0.14279366 -0.09482972 -0.46745318
v -0.009284807 -0.087706804 -0.6552617
v -0.08346351 -0.058118682 -0.15134059
v -0.08065783 -0.042424113 -0.15134774
v -0.08628297 -0.07381079 -0.15134773
v -0.17106189 0.0007816045 -0.34040478
v -0.18606496 -0.08293133 -0.34040478
v -0.061687566 -0.021236395 -0.1515015
v -0.11334881 -0.009528346 -0.3496091
v -0.07585161 -0.10026786 -0.15150149
v -0.12836349 -0.093306035 -0.34960908
v -0.11165814 -0.03620784 -0.45713127
v -0.02678924 -0.027476864 -0.15184338
v -0.11751263 -0.06887428 -0.45713127
v -0.040958155 -0.106535494 -0.15184337
v -0.1061028 -0.070259325 -0.34944278
v -0.11457524 -0.05254288 -0.45713142
v -0.006442981 -0.0719224 -0.65526664
v -0.103280336 -0.054567132 -0.34944278
v -0.10047745 -0.038871396 -0.34944278
v -0.0219439 -0.0853675 -0.15197805
v -0.01911996 -0.069650345 -0.15197094
v -0.016309794 -0.05393073 -0.15197805
v -0.05864697 -0.046307877 0.7058567
v -0.045091543 -0.06499563 0.7179393
v -0.06146027 -0.062062025 0.70585674
v -0.06429326 -0.07781259 0.7058567
v -0.042257294 -0.049265467 0.71794736
v -0.047896553 -0.080730975 0.71794736
v -0.032737505 -0.032666456 0.6866409
v -0.044733893 -0.09960301 0.6866409
v -0.017076474 -0.035564728 0.6995702
v -0.029041078 -0.10232393 0.6995702
v -0.011850737 -0.026824709 0.66630614
v -0.027175877 -0.11233478 0.66630614
v 0.0032677338 -0.030183991 0.67956823
v -0.011831772 -0.11443508 0.67956823
v -0.0036262106 -0.056133356 0.65526074
v -0.009284787 -0.08770665 0.65526074
v 0.011148922 -0.058805276 0.6688246
v 0.005498667 -0.090332165 0.6688246
v -0.0064429585 -0.07192225 0.6552657
v 0.008326897 -0.0745693 0.66882163
v -0.058646984 -0.046308048 -0.70585763
v -0.061460294 -0.062062196 -0.7058577
v -0.04509157 -0.0649958 -0.7179403
v -0.06429327 -0.07781275 -0.70585763
v -0.04225732 -0.04926563 -0.7179483
v -0.047896575 -0.08073115 -0.7179483
v -0.032737527 -0.032666624 -0.6866419
v -0.044733915 -0.099603176 -0.6866419
v -0.0170765 -0.035564896 -0.69957113
v -0.0290411 -0.10232409 -0.69957113
v -0.011850756 -0.026824862 -0.6663071
v -0.0271759 -0.112334944 -0.6663071
v 0.0032677245 -0.030184092 -0.6795692
v -0.011831788 -0.11443524 -0.6795692
v -0.003626231 -0.056133512 -0.6552617
v -0.009284807 -0.087706804 -0.6552617
v 0.0111489035 -0.058805432 -0.66882557
v 0.0054986463 -0.09033233 -0.66882557
v -0.006442981 -0.0719224 -0.65526664
v 0.008326877 -0.074569464 -0.6688226
vt 0.21842065 0.75848097
vt 0.21842065 0.75848097
vt 0.21842065 0.75848097
vt 0.21842065 0.75848097
vt 0.21842065 0.75848097
vt 0.21842065 0.75848097
vt 0.21842065 0.75848097
vt 0.21842065 0.75848097
vt 0.21842065 0.75848097
vt 0.21842065 0.75848097
vt 0.21842065 0.75848097
vt 0.21842065 0.75848097
vt 0.21842065 0.75848097
vt 0.21842065 0.75848097
vt 0.21842065 0.75848097
vt 0.21842065 0.75848097
vt 0.21842065 0.75848097
vt 0.21842065 0.75848097
vt 0.2080247 0.70365834
vt 0.20782542 0.7038219
vt 0.20783195 0.70381606
vt 0.20803177 0.7036521
vt 0.20782542 0.7038219
vt 0.20959198 0.7083691
vt 0.20958656 0.70837396
vt 0.21193333 0.71465135
vt 0.21192713 0.71465516
vt 0.21184799 0.7239142
vt 0.21183977 0.7239132
vt 0.20756239 0.7311601
vt 0.20755625 0.7311593
vt 0.20593823 0.7043
vt 0.2080177 0.70877135
vt 0.21031295 0.7147718
vt 0.21032065 0.72286546
vt 0.20598352 0.7041755
vt 0.2080247 0.70365834
vt 0.20701994 0.72922635
vt 0.20703943 0.72961366
vt 0.206554 0.72792155
vt 0.20575619 0.7243624
vt 0.20568752 0.7244532
vt 0.20701875 0.72067636
vt 0.20685278 0.71508574
vt 0.20517918 0.7215554
vt 0.20535278 0.72253966
vt 0.20553906 0.719634
vt 0.20529556 0.7193474
vt 0.2052685 0.71518445
vt 0.20494463 0.7151219
vt 0.20279357 0.7100558
vt 0.20312336 0.71006066
vt 0.19965406 0.70584506
vt 0.19996575 0.7058509
vt 0.20466591 0.70968616
vt 0.2018213 0.70540035
vt 0.19951469 0.7058529
vt 0.20152165 0.70536566
vt 0.1990683 0.70395994
vt 0.20557313 0.7024715
vt 0.19634677 0.70456773
vt 0.19918652 0.7058466
vt 0.19635165 0.7045626
vt 0.1981213 0.703072
vt 0.19812855 0.7030657
vt 0.20607549 0.7012473
vt 0.1999245 0.70266926
vt 0.20423442 0.7016831
vt 0.20834088 0.70182323
vt 0.20606825 0.70125353
vt 0.20834573 0.70181817
vt 0.19918652 0.7058466
vt 0.19965406 0.70584506
vt 0.19996575 0.7058509
vt 0.19951469 0.7058529
vt 0.20755625 0.7311593
vt 0.20703943 0.72961366
vt 0.20716457 0.7297951
vt 0.20756239 0.7311601
vt 0.20566078 0.7210037
vt 0.20535278 0.72253966
vt 0.20517918 0.7215554
vt 0.20517918 0.7215554
vt 0.20535278 0.72253966
vt 0.20568752 0.7244532
vt 0.20575619 0.7243624
vt 0.206554 0.72792155
vt 0.20553906 0.719634
vt 0.20529556 0.7193474
vt 0.20701994 0.72922635
vt 0.20703943 0.72961366
vt 0.20755625 0.7311593
vt 0.20701875 0.72067636
vt 0.21032065 0.72286546
vt 0.21183977 0.7239132
vt 0.20756239 0.7311601
vt 0.21184799 0.7239142
vt 0.21192713 0.71465516
vt 0.21193333 0.71465135
vt 0.21031295 0.7147718
vt 0.20685278 0.71508574
vt 0.2052685 0.71518445
vt 0.20958656 0.70837396
vt 0.20959198 0.7083691
vt 0.2080177 0.70877135
vt 0.20494463 0.7151219
vt 0.20279357 0.7100558
vt 0.20312336 0.71006066
vt 0.19965406 0.70584506
vt 0.19996575 0.7058509
vt 0.20466591 0.70968616
vt 0.2018213 0.70540035
vt 0.19951469 0.7058529
vt 0.20593823 0.7043
vt 0.20152165 0.70536566
vt 0.20782542 0.7038219
vt 0.20783195 0.70381606
vt 0.20598352 0.7041755
vt 0.2080247 0.70365834
vt 0.1990683 0.70395994
vt 0.20557313 0.7024715
vt 0.20834088 0.70182323
vt 0.20834573 0.70181817
vt 0.20803177 0.7036521
vt 0.2080247 0.70365834
vt 0.20782542 0.7038219
vt 0.20607549 0.7012473
vt 0.20606825 0.70125353
vt 0.20423442 0.7016831
vt 0.1999245 0.70266926
vt 0.19812855 0.7030657
vt 0.19634677 0.70456773
vt 0.19918652 0.7058466
vt 0.19635165 0.7045626
vt 0.1981213 0.703072
vt 0.21842065 0.75848097
vt 0.21842065 0.75848097
vt 0.21842065 0.75848097
vt 0.21842065 0.75848097
vt 0.21842065 0.75848097
vt 0.21842065 0.75848097
vt 0.21842065 0.75848097
vt 0.21842065 0.75848097
vt 0.21842065 0.75848097
vt 0.21842065 0.75848097
vt 0.21842065 0.75848097
vt 0.21842065 0.75848097
vt 0.21842065 0.75848097
vt 0.21842065 0.75848097
vt 0.21842065 0.75848097
vt 0.21842065 0.75848097
vt 0.21842065 0.75848097
vt 0.21842065 0.75848097
vt 0.19918652 0.7058466
vt 0.19951469 0.7058529
vt 0.19996575 0.7058509
vt 0.19965406 0.70584506
vt 0.20755625 0.7311593
vt 0.20756239 0.7311601
vt 0.20716457 0.7297951
vt 0.20703943 0.72961366
vt 0.20517918 0.7215554
vt 0.20535278 0.72253966
vt 0.20566078 0.7210037
vt 0.2080247 0.70365834
vt 0.20783195 0.70381606
vt 0.20782542 0.7038219
vt 0.20803177 0.7036521
vt 0.20834573 0.70181817
vt 0.2080247 0.70365834
vt 0.20834088 0.70182323
vt 0.20607549 0.7012473
vt 0.20598352 0.7041755
vt 0.20782542 0.7038219
vt 0.20959198 0.7083691
vt 0.20958656 0.70837396
vt 0.21193333 0.71465135
vt 0.20593823 0.7043
vt 0.21192713 0.71465516
vt 0.21184799 0.7239142
vt 0.2080177 0.70877135
vt 0.21183977 0.7239132
vt 0.20756239 0.7311601
vt 0.20755625 0.7311593
vt 0.21031295 0.7147718
vt 0.21032065 0.72286546
vt 0.20701994 0.72922635
vt 0.20703943 0.72961366
vt 0.206554 0.72792155
vt 0.20575619 0.7243624
vt 0.20568752 0.7244532
vt 0.20701875 0.72067636
vt 0.20685278 0.71508574
vt 0.20466591 0.70968616
vt 0.20517918 0.7215554
vt 0.20535278 0.72253966
vt 0.20553906 0.719634
vt 0.20529556 0.7193474
vt 0.2052685 0.71518445
vt 0.20494463 0.7151219
vt 0.20279357 0.7100558
vt 0.20312336 0.71006066
vt 0.19965406 0.70584506
vt 0.19996575 0.7058509
vt 0.2018213 0.70540035
vt 0.19951469 0.7058529
vt 0.20152165 0.70536566
vt 0.20557313 0.7024715
vt 0.1990683 0.70395994
vt 0.20606825 0.70125353
vt 0.20423442 0.7016831
vt 0.19634677 0.70456773
vt 0.19918652 0.7058466
vt 0.19635165 0.7045626
vt 0.1999245 0.70266926
vt 0.1981213 0.703072
vt 0.19812855 0.7030657
vt 0.19918652 0.7058466
vt 0.19951469 0.7058529
vt 0.19996575 0.7058509
vt 0.19965406 0.70584506
vt 0.20755625 0.7311593
vt 0.20756239 0.7311601
vt 0.20716457 0.7297951
vt 0.20703943 0.72961366
vt 0.20517918 0.7215554
vt 0.20535278 0.72253966
vt 0.20566078 0.7210037
vt 0.20517918 0.7215554
vt 0.20568752 0.7244532
vt 0.20535278 0.72253966
vt 0.20575619 0.7243624
vt 0.206554 0.72792155
vt 0.20553906 0.719634
vt 0.20529556 0.7193474
vt 0.20701994 0.72922635
vt 0.20703943 0.72961366
vt 0.20755625 0.7311593
vt 0.20701875 0.72067636
vt 0.21032065 0.72286546
vt 0.21183977 0.7239132
vt 0.20756239 0.7311601
vt 0.21184799 0.7239142
vt 0.21192713 0.71465516
vt 0.21193333 0.71465135
vt 0.21031295 0.7147718
vt 0.20685278 0.71508574
vt 0.2052685 0.71518445
vt 0.20958656 0.70837396
vt 0.20959198 0.7083691
vt 0.2080177 0.70877135
vt 0.20494463 0.7151219
vt 0.20279357 0.7100558
vt 0.20312336 0.71006066
vt 0.19965406 0.70584506
vt 0.19996575 0.7058509
vt 0.20466591 0.70968616
vt 0.2018213 0.70540035
vt 0.19951469 0.7058529
vt 0.20593823 0.7043
vt 0.20152165 0.70536566
vt 0.20782542 0.7038219
vt 0.20783195 0.70381606
vt 0.20598352 0.7041755
vt 0.2080247 0.70365834
vt 0.1990683 0.70395994
vt 0.20557313 0.7024715
vt 0.20834088 0.70182323
vt 0.20834573 0.70181817
vt 0.20803177 0.7036521
vt 0.2080247 0.70365834
vt 0.20782542 0.7038219
vt 0.20607549 0.7012473
vt 0.20606825 0.70125353
vt 0.20423442 0.7016831
vt 0.1999245 0.70266926
vt 0.19812855 0.7030657
vt 0.19634677 0.70456773
vt 0.19918652 0.7058466
vt 0.19635165 0.7045626
vt 0.1981213 0.703072
vt 0.19918652 0.7058466
vt 0.19965406 0.70584506
vt 0.19996575 0.7058509
vt 0.19951469 0.7058529
vt 0.20755625 0.7311593
vt 0.20703943 0.72961366
vt 0.20716457 0.7297951
vt 0.20756239 0.7311601
vt 0.20566078 0.7210037
vt 0.20535278 0.72253966
vt 0.20517918 0.7215554
vt 0.0986536 0.95552903
vt 0.0986536 0.95552903
vt 0.0986536 0.95552903
vt 0.0986536 0.95552903
vt 0.0986536 0.95552903
vt 0.0986536 0.95552903
vt 0.0986536 0.95552903
vt 0.0986536 0.95552903
vt 0.0986536 0.95552903
vt 0.0986536 0.95552903
vt 0.0986536 0.95552903
vt 0.0986536 0.95552903
vt 0.0986536 0.95552903
vt 0.0986536 0.95552903
vt 0.0986536 0.95552903
vt 0.0986536 0.95552903
vt 0.0986536 0.95552903
vt 0.0986536 0.95552903
vt 0.0986536 0.95552903
vt 0.0986536 0.95552903
vt 0.0986536 0.95552903
vt 0.22334222 0.780628
vt 0.22334222 0.780628
vt 0.22334222 0.780628
vt 0.22334222 0.780628
vt 0.22334222 0.780628
vt 0.22334222 0.780628
vt 0.22334222 0.780628
vt 0.22334222 0.780628
vt 0.22334222 0.780628
vt 0.22334222 0.780628
vt 0.22334222 0.780628
vt 0.22334222 0.780628
vt 0.22334222 0.780628
vt 0.22334222 0.780628
vt 0.22334222 0.780628
vt 0.22334222 0.780628
vt 0.22334222 0.780628
vt 0.22334222 0.780628
vt 0.22334222 0.780628
vt 0.22334222 0.780628
vt 0.22334222 0.780628
vt 0.22334222 0.780628
vt 0.22334222 0.780628
vt 0.22334222 0.780628
vt 0.22334222 0.780628
vt 0.22334222 0.780628
vt 0.22334222 0.780628
vt 0.22334222 0.780628
vt 0.22334222 0.780628
vt 0.22334222 0.780628
vt 0.0986536 0.95552903
vt 0.0986536 0.95552903
vt 0.0986536 0.95552903
vt 0.0986536 0.95552903
vt 0.0986536 0.95552903
vt 0.0986536 0.95552903
vt 0.0986536 0.95552903
vt 0.0986536 0.95552903
vt 0.0986536 0.95552903
vt 0.0986536 0.95552903
vt 0.0986536 0.95552903
vt 0.0986536 0.95552903
vt 0.0986536 0.95552903
vt 0.0986536 0.95552903
vt 0.0986536 0.95552903
vt 0.0986536 0.95552903
vt 0.0986536 0.95552903
vt 0.0986536 0.95552903
vt 0.0986536 0.955529
vt 0.0986536 0.95552903
vt 0.09324504 0.9213587
vt 0.09324504 0.9213587
vt 0.09324504 0.9213587
vt 0.09324504 0.9213587
vt 0.09324504 0.9213587
vt 0.09324504 0.9213587
vt 0.09324504 0.9213587
vt 0.09324504 0.9213587
vt 0.09324504 0.9213587
vt 0.09324504 0.9213587
vt 0.09324504 0.9213587
vt 0.09324504 0.9213587
vt 0.09324504 0.9213587
vt 0.09324504 0.9213587
vt 0.09324504 0.9213587
vt 0.09324504 0.9213587
vt 0.09324504 0.9213587
vt 0.09324504 0.9213587
vt 0.09324504 0.9213587
vt 0.09324504 0.9213587
vt 0.09324504 0.9213587
vt 0.09324504 0.9213587
vt 0.09324504 0.9213587
vt 0.09324504 0.9213587
vt 0.09324504 0.9213587
vt 0.09324504 0.9213587
vt 0.09324504 0.9213587
vt 0.09324504 0.9213587
vt 0.09324504 0.9213587
vt 0.09324504 0.9213587
vt 0.0986536 0.95552903
vt 0.0986536 0.95552903
vt 0.0986536 0.95552903
vt 0.0986536 0.95552903
vt 0.0986536 0.95552903
vt 0.0986536 0.95552903
vt 0.0986536 0.95552903
vt 0.0986536 0.95552903
vt 0.0986536 0.95552903
vt 0.09865359 0.95552903
vt 0.0986536 0.95552903
vt 0.0986536 0.95552903
vt 0.09865359 0.95552903
vt 0.0986536 0.95552903
vt 0.09865359 0.95552903
vt 0.0986536 0.95552903
vt 0.0986536 0.95552903
vt 0.0986536 0.95552903
vt 0.09865359 0.95552903
vt 0.0986536 0.95552903
vt 0.0986536 0.95552903
vt 0.0986536 0.95552903
vt 0.0986536 0.95552903
vt 0.0986536 0.95552903
vt 0.0986536 0.95552903
vt 0.0986536 0.95552903
vt 0.0986536 0.95552903
vt 0.0986536 0.95552903
vt 0.0986536 0.95552903
vt 0.0986536 0.95552903
vt 0.0986536 0.95552903
vt 0.0986536 0.95552903
vt 0.0986536 0.95552903
vt 0.0986536 0.95552903
vt 0.0986536 0.95552903
vt 0.0986536 0.95552903
vt 0.0986536 0.95552903
vt 0.0986536 0.95552903
vt 0.0986536 0.95552903
vt 0.0986536 0.95552903
vt 0.0986536 0.95552903
vt 0.0986536 0.95552903
vt 0.0986536 0.95552903
vt 0.0986536 0.95552903
vt 0.0986536 0.95552903
vt 0.0986536 0.95552903
vt 0.0986536 0.95552903
vt 0.0986536 0.95552903
vt 0.0986536 0.95552903
vt 0.0986536 0.95552903
vt 0.0986536 0.95552903
vt 0.0986536 0.95552903
vt 0.0986536 0.95552903
vt 0.0986536 0.95552903
vt 0.0986536 0.95552903
vt 0.0986536 0.95552903
vt 0.0986536 0.95552903
vt 0.0986536 0.95552903
vt 0.0986536 0.95552903
vt 0.0986536 0.95552903
vt 0.0986536 0.95552903
vt 0.22334222 0.780628
vt 0.22334222 0.780628
vt 0.22334222 0.780628
vt 0.22334222 0.780628
vt 0.22334222 0.780628
vt 0.22334222 0.780628
vt 0.22334222 0.780628
vt 0.22334222 0.780628
vt 0.22334222 0.780628
vt 0.22334222 0.780628
vt 0.22334222 0.780628
vt 0.22334222 0.780628
vt 0.22334222 0.780628
vt 0.22334222 0.780628
vt 0.22334222 0.780628
vt 0.22334222 0.780628
vt 0.22334222 0.780628
vt 0.22334222 0.780628
vt 0.22334222 0.780628
vt 0.22334222 0.780628
vt 0.22334222 0.780628
vt 0.22334222 0.780628
vt 0.22334222 0.780628
vt 0.22334222 0.780628
vt 0.22334222 0.780628
vt 0.22334222 0.780628
vt 0.22334222 0.780628
vt 0.22334222 0.780628
vt 0.22334222 0.780628
vt 0.22334222 0.780628
vt 0.0986536 0.95552903
vt 0.0986536 0.95552903
vt 0.0986536 0.95552903
vt 0.0986536 0.95552903
vt 0.0986536 0.95552903
vt 0.0986536 0.95552903
vt 0.0986536 0.95552903
vt 0.0986536 0.95552903
vt 0.0986536 0.95552903
vt 0.0986536 0.95552903
vt 0.0986536 0.95552903
vt 0.0986536 0.95552903
vt 0.0986536 0.95552903
vt 0.0986536 0.95552903
vt 0.0986536 0.95552903
vt 0.0986536 0.95552903
vt 0.0986536 0.95552903
vt 0.0986536 0.95552903
vt 0.0986536 0.955529
vt 0.0986536 0.95552903
vt 0.0986536 0.95552903
vt 0.0986536 0.95552903
vt 0.0986536 0.95552903
vt 0.0986536 0.95552903
vt 0.0986536 0.95552903
vt 0.0986536 0.95552903
vt 0.0986536 0.95552903
vt 0.0986536 0.95552903
vt 0.0986536 0.95552903
vt 0.09865359 0.95552903
vt 0.0986536 0.95552903
vt 0.0986536 0.95552903
vt 0.09865359 0.95552903
vt 0.0986536 0.95552903
vt 0.09865359 0.95552903
vt 0.0986536 0.95552903
vt 0.0986536 0.95552903
vt 0.0986536 0.95552903
vt 0.09865359 0.95552903
vt 0.0986536 0.95552903
vt 0.0986536 0.95552903
vt 0.0986536 0.95552903
vt 0.0986536 0.95552903
vt 0.0986536 0.95552903
vt 0.0986536 0.95552903
vt 0.0986536 0.95552903
vt 0.0986536 0.95552903
vt 0.0986536 0.95552903
vt 0.0986536 0.95552903
vt 0.0986536 0.95552903
vt 0.0986536 0.95552903
vt 0.0986536 0.95552903
vt 0.0986536 0.95552903
vt 0.0986536 0.95552903
vt 0.0986536 0.95552903
vt 0.0986536 0.95552903
vt 0.0986536 0.95552903
vt 0.0986536 0.95552903
vt 0.0986536 0.95552903
vt 0.0986536 0.95552903
vt 0.21677117 0.70083797
vt 0.21677117 0.70083797
vt 0.21677117 0.70083797
vt 0.21677117 0.70083797
vt 0.21677117 0.70083797
vt 0.21677117 0.70083797
vt 0.21677117 0.70083797
vt 0.21677117 0.70083797
vt 0.21677117 0.70083797
vt 0.21677117 0.70083797
vt 0.21677117 0.70083797
vt 0.21677117 0.70083797
vt 0.21677117 0.70083797
vt 0.21677117 0.70083797
vt 0.21677116 0.70083797
vt 0.21677116 0.70083797
vt 0.21677117 0.70083797
vt 0.21677117 0.70083797
vt 0.21677117 0.70083797
vt 0.21677117 0.70083797
vt 0.21677117 0.70083797
vt 0.21677117 0.70083797
vt 0.21677117 0.70083797
vt 0.21677117 0.70083797
vt 0.21677117 0.70083797
vt 0.21677117 0.70083797
vt 0.21677117 0.70083797
vt 0.21677117 0.70083797
vt 0.21677117 0.70083797
vt 0.21677117 0.70083797
vt 0.21677117 0.70083797
vt 0.21677117 0.70083797
vt 0.21677117 0.70083797
vt 0.21677117 0.70083797
vt 0.21677116 0.70083797
vt 0.21677116 0.70083797
vt 0.21677117 0.70083797
vt 0.21677117 0.70083797
vt 0.21677117 0.70083797
vt 0.21677117 0.70083797
vn -0.87880504 0.4771733 -0.0027061729
vn -0.87880504 0.4771733 -0.0027061729
vn -0.87880504 0.4771733 -0.0027061729
vn -0.87880504 0.4771733 -0.0027061729
vn -0.8788041 0.4771751 0.0027060797
vn -0.8788041 0.4771751 0.0027060797
vn 0.87867314 -0.4774163 0.002705994
vn 0.87867314 -0.4774163 0.002705994
vn 0.87867314 -0.4774163 0.002705994
vn 0.87867314 -0.4774163 0.002705994
vn 0.87867314 -0.4774163 -0.0027058946
vn 0.87867314 -0.4774163 -0.0027058946
vn -0.17585951 -0.98441523 0
vn -0.17585951 -0.98441523 0
vn -0.17585951 -0.98441523 0
vn -0.17585951 -0.98441523 0
vn -0.17585899 -0.98441535 0
vn -0.17585899 -0.98441535 0
vn -0.78279895 0.46765286 0.41052002
vn -0.7743491 0.5928782 0.22108565
vn -0.95122963 0.17048153 0.2570957
vn -0.8519766 0.15268803 0.50082153
vn -0.932051 -0.28706196 0.22107983
vn -0.92023015 0.16492303 -0.3549324
vn -0.91676885 -0.23167191 -0.32536614
vn -0.96946317 0.17374407 -0.17307265
vn -0.9666631 -0.20426458 -0.1543963
vn -0.94829136 0.16993068 0.26808026
vn -0.94285834 -0.20560744 0.26218992
vn 0.10821986 -0.019379474 0.9939381
vn 0.013428528 -0.36385205 0.93135995
vn -0.65276974 -0.737002 0.1752703
vn -0.6434725 -0.7425998 -0.18571098
vn -0.69370556 -0.71326846 -0.10010357
vn -0.67746574 -0.7215355 0.14292154
vn -0.6559814 -0.7239479 0.21351288
vn -0.8964848 -0.16669843 0.41052008
vn 0.18284178 -0.8185306 0.5445884
vn 0.92533576 -0.21094726 0.31504753
vn 0.9097209 -0.29838774 0.28874362
vn 0.40120107 -0.88367385 0.24116011
vn 0.9356913 -0.26927182 0.2279792
vn -0.045076843 -0.99883205 -0.017395938
vn -0.020172788 -0.9993618 0.02948096
vn 0.8501721 -0.5233425 -0.057620164
vn 0.9786341 -0.12375604 0.16419421
vn 0.81134814 -0.5789458 -0.08084489
vn 0.9834457 -0.17624748 0.042085763
vn 0.78311163 -0.5881272 0.2020953
vn 0.95561105 -0.17124213 0.23975728
vn 0.85112286 -0.15253557 0.5023175
vn 0.6909794 -0.5667673 0.4486895
vn 0.40590099 -0.07272647 0.9110188
vn 0.30494812 -0.33558944 0.8912835
vn -0.0108038 -0.99147755 0.12982872
vn -0.19913499 -0.8344137 0.5139056
vn 0.2573046 -0.3874371 0.88526094
vn -0.109595 -0.8450809 0.5232848
vn 0.37346408 -0.92235285 -0.09894342
vn -0.43850642 -0.77828175 -0.44943246
vn 0.8795782 -0.45845124 0.12714072
vn 0.21949579 -0.039309032 0.97482127
vn 0.9749449 -0.17472406 0.1376734
vn 0.45696837 -0.26561114 -0.8488997
vn 0.43779632 -0.078464575 -0.8956437
vn -0.011597291 0.0020753047 -0.9999306
vn 0.22602352 -0.5119558 -0.82874274
vn 0.006500544 -0.47484487 -0.88004553
vn -0.84746426 -0.17487648 -0.50122106
vn -0.10330772 -0.16935141 -0.9801263
vn -0.82426333 0.14771305 -0.5465994
vn 0.21949579 -0.039309032 0.97482127
vn 0.40590099 -0.07272647 0.9110188
vn 0.40251613 0.20881154 0.89127916
vn 0.37583974 0.27396777 0.88526046
vn 0.13895494 0.3365377 0.93136126
vn 0.94099987 -0.1235419 0.31505018
vn 0.9395928 -0.16837409 0.2980194
vn 0.10821986 -0.019379474 0.9939381
vn 0.9730253 -0.17438343 0.15103668
vn 0.9607128 -0.2237665 0.16419311
vn 0.979002 0.19553792 -0.05762067
vn 0.979002 0.19553792 -0.05762067
vn 0.9607128 -0.2237665 0.16419311
vn 0.9709711 -0.07239174 0.22797908
vn 0.68311596 0.6893419 0.24116437
vn 0.95672613 -0.036074083 0.28874525
vn 0.9619136 0.26112485 -0.08084615
vn 0.9834457 -0.17624748 0.042085763
vn 0.45571905 0.70408773 0.5445922
vn 0.94099987 -0.1235419 0.31505018
vn 0.13895494 0.3365377 0.93136126
vn 0.30461112 0.95231795 -0.017395886
vn -0.38469395 0.9119124 0.14292121
vn -0.8127614 0.52026373 0.26219192
vn 0.10821986 -0.019379474 0.9939381
vn -0.94829136 0.16993068 0.26808026
vn -0.8355487 0.52727646 -0.15439554
vn -0.96946317 0.17374407 -0.17307265
vn -0.4028266 0.9097857 -0.10010389
vn 0.3281411 0.94416857 0.029481426
vn 0.9386185 0.279556 0.20209825
vn -0.77924645 0.53564227 -0.32536507
vn -0.92023015 0.16492303 -0.3549324
vn -0.34551042 0.9198555 -0.1857107
vn 0.95561105 -0.17124213 0.23975728
vn 0.85112286 -0.15253557 0.5023175
vn 0.8448022 0.29151946 0.44869336
vn 0.40590099 -0.07272647 0.9110188
vn 0.40251613 0.20881154 0.89127916
vn 0.33418572 0.9335226 0.12982886
vn 0.10300211 0.8516367 0.51391184
vn 0.37583974 0.27396777 0.88526046
vn -0.3561876 0.9178293 0.1752708
vn 0.19068423 0.83055073 0.523283
vn -0.7743491 0.5928782 0.22108565
vn -0.95122963 0.17048153 0.2570957
vn -0.36373124 0.9067034 0.21351433
vn -0.78279895 0.46765286 0.41052002
vn 0.67054236 0.7352435 -0.09894398
vn -0.14090812 0.88213307 -0.44942883
vn -0.7339868 0.45830685 -0.5012168
vn -0.82426333 0.14771305 -0.5465994
vn -0.8519766 0.15268803 0.50082153
vn -0.8964848 -0.16669843 0.41052008
vn -0.932051 -0.28706196 0.22107983
vn -0.011597291 0.0020753047 -0.9999306
vn -0.03802688 0.19471227 -0.980123
vn 0.17099716 0.4430423 -0.88004184
vn 0.38975635 0.40159765 -0.8287396
vn 0.43779632 -0.078464575 -0.8956437
vn 0.98404574 0.124455355 0.127141
vn 0.21949579 -0.039309032 0.97482127
vn 0.9749449 -0.17472406 0.1376734
vn 0.5207574 0.0903993 -0.848905
vn -0.98982286 -0.14227909 -0.0027061058
vn -0.98982286 -0.14227909 -0.0027061058
vn -0.98982286 -0.14227909 -0.0027061058
vn -0.98982286 -0.14227909 -0.0027061058
vn -0.98982286 -0.14227948 0.0027061582
vn -0.98982286 -0.14227948 0.0027061582
vn 0.9897842 0.14254832 0.002705924
vn 0.9897842 0.14254832 0.002705924
vn 0.9897842 0.14254832 0.002705924
vn 0.9897842 0.14254832 0.002705924
vn 0.9897837 0.14255105 -0.0027059729
vn 0.9897837 0.14255105 -0.0027059729
vn 0.17695946 0.9842181 0
vn 0.17695946 0.9842181 0
vn 0.17695946 0.9842181 0
vn 0.17695946 0.9842181 0
vn 0.17695996 0.984218 0
vn 0.17695996 0.984218 0
vn 0.21949579 -0.039309032 0.97482127
vn 0.2573046 -0.3874371 0.88526094
vn 0.30494812 -0.33558944 0.8912835
vn 0.40590099 -0.07272647 0.9110188
vn 0.013428528 -0.36385205 0.93135995
vn 0.10821986 -0.019379474 0.9939381
vn 0.9395928 -0.16837409 0.2980194
vn 0.92533576 -0.21094726 0.31504753
vn 0.8501721 -0.5233425 -0.057620164
vn 0.9786341 -0.12375604 0.16419421
vn 0.9730253 -0.17438343 0.15103668
vn -0.78279895 0.46765286 -0.41052002
vn -0.95122963 0.17048153 -0.2570957
vn -0.7743491 0.5928782 -0.22108565
vn -0.8519766 0.15268803 -0.50082153
vn -0.82426333 0.14771305 0.5465994
vn -0.8964848 -0.16669843 -0.41052008
vn -0.84746426 -0.17487648 0.50122106
vn -0.011597291 0.0020753047 0.9999306
vn -0.6559814 -0.7239479 -0.21351288
vn -0.932051 -0.28706196 -0.22107983
vn -0.92023015 0.16492303 0.3549324
vn -0.91676885 -0.23167191 0.32536614
vn -0.96946317 0.17374407 0.17307265
vn -0.65276974 -0.737002 -0.1752703
vn -0.9666631 -0.20426458 0.1543963
vn -0.94829136 0.16993068 -0.26808026
vn -0.6434725 -0.7425998 0.18571098
vn -0.94285834 -0.20560744 -0.26218992
vn 0.10821986 -0.019379474 -0.9939381
vn 0.013428528 -0.36385205 -0.93135995
vn -0.69370556 -0.71326846 0.10010357
vn -0.67746574 -0.7215355 -0.14292154
vn 0.18284178 -0.8185306 -0.5445884
vn 0.92533576 -0.21094726 -0.31504753
vn 0.9097209 -0.29838774 -0.28874362
vn 0.40120107 -0.88367385 -0.24116011
vn 0.9356913 -0.26927182 -0.2279792
vn -0.045076843 -0.99883205 0.017395938
vn -0.020172788 -0.9993618 -0.02948096
vn -0.0108038 -0.99147755 -0.12982872
vn 0.8501721 -0.5233425 0.057620164
vn 0.9786341 -0.12375604 -0.16419421
vn 0.81134814 -0.5789458 0.08084489
vn 0.9834457 -0.17624748 -0.042085763
vn 0.78311163 -0.5881272 -0.2020953
vn 0.95561105 -0.17124213 -0.23975728
vn 0.85112286 -0.15253557 -0.5023175
vn 0.6909794 -0.5667673 -0.4486895
vn 0.40590099 -0.07272647 -0.9110188
vn 0.30494812 -0.33558944 -0.8912835
vn -0.19916429 -0.83440864 -0.5139025
vn 0.2573046 -0.3874371 -0.88526094
vn -0.109595 -0.8450809 -0.5232848
vn -0.43850642 -0.77828175 0.44943246
vn 0.37346408 -0.92235285 0.09894342
vn -0.10330772 -0.16935141 0.9801263
vn 0.006500544 -0.47484487 0.88004553
vn 0.8795782 -0.45845124 -0.12714072
vn 0.21949579 -0.039309032 -0.97482127
vn 0.9749449 -0.17472406 -0.1376734
vn 0.22602352 -0.5119558 0.82874274
vn 0.45696837 -0.26561114 0.8488997
vn 0.43779632 -0.078464575 0.8956437
vn 0.21949579 -0.039309032 -0.97482127
vn 0.37583974 0.27396777 -0.88526046
vn 0.4025187 0.20878235 -0.8912848
vn 0.40590099 -0.07272647 -0.9110188
vn 0.13895494 0.3365377 -0.93136126
vn 0.10821986 -0.019379474 -0.9939381
vn 0.9395928 -0.16837409 -0.2980194
vn 0.94099987 -0.1235419 -0.31505018
vn 0.9790077 0.19550855 0.057621006
vn 0.9607128 -0.2237665 -0.16419311
vn 0.9730253 -0.17438343 -0.15103668
vn 0.9790077 0.19550855 0.057621006
vn 0.9709711 -0.07239174 -0.22797908
vn 0.9607128 -0.2237665 -0.16419311
vn 0.68311596 0.6893419 -0.24116437
vn 0.95672613 -0.036074083 -0.28874525
vn 0.9619136 0.26112485 0.08084615
vn 0.9834457 -0.17624748 -0.042085763
vn 0.45571905 0.70408773 -0.5445922
vn 0.94099987 -0.1235419 -0.31505018
vn 0.13895494 0.3365377 -0.93136126
vn 0.30461112 0.95231795 0.017395886
vn -0.38469395 0.9119124 -0.14292121
vn -0.8127614 0.52026373 -0.26219192
vn 0.10821986 -0.019379474 -0.9939381
vn -0.94829136 0.16993068 -0.26808026
vn -0.8355487 0.52727646 0.15439554
vn -0.96946317 0.17374407 0.17307265
vn -0.4028266 0.9097857 0.10010389
vn 0.3281411 0.94416857 -0.029481426
vn 0.9386185 0.279556 -0.20209825
vn -0.77924645 0.53564227 0.32536507
vn -0.92023015 0.16492303 0.3549324
vn -0.34551042 0.9198555 0.1857107
vn 0.95561105 -0.17124213 -0.23975728
vn 0.85112286 -0.15253557 -0.5023175
vn 0.8448022 0.29151946 -0.44869336
vn 0.40590099 -0.07272647 -0.9110188
vn 0.4025187 0.20878235 -0.8912848
vn 0.33418572 0.9335226 -0.12982886
vn 0.10300211 0.8516367 -0.51391184
vn 0.37583974 0.27396777 -0.88526046
vn -0.3561876 0.9178293 -0.1752708
vn 0.19068423 0.83055073 -0.523283
vn -0.7743491 0.5928782 -0.22108565
vn -0.95122963 0.17048153 -0.2570957
vn -0.36373124 0.9067034 -0.21351433
vn -0.78279895 0.46765286 -0.41052002
vn 0.67054236 0.7352435 0.09894398
vn -0.14090812 0.88213307 0.44942883
vn -0.7339868 0.45830685 0.5012168
vn -0.82426333 0.14771305 0.5465994
vn -0.8519766 0.15268803 -0.50082153
vn -0.8964848 -0.16669843 -0.41052008
vn -0.932051 -0.28706196 -0.22107983
vn -0.011597291 0.0020753047 0.9999306
vn -0.03802688 0.19471227 0.980123
vn 0.17099716 0.4430423 0.88004184
vn 0.38975635 0.40159765 0.8287396
vn 0.43779632 -0.078464575 0.8956437
vn 0.98404574 0.124455355 -0.127141
vn 0.21949579 -0.039309032 -0.97482127
vn 0.9749449 -0.17472406 -0.1376734
vn 0.5207574 0.0903993 0.848905
vn 0.21949579 -0.039309032 -0.97482127
vn 0.40590099 -0.07272647 -0.9110188
vn 0.30494812 -0.33558944 -0.8912835
vn 0.2573046 -0.3874371 -0.88526094
vn 0.013428528 -0.36385205 -0.93135995
vn 0.92533576 -0.21094726 -0.31504753
vn 0.9395928 -0.16837409 -0.2980194
vn 0.10821986 -0.019379474 -0.9939381
vn 0.9730253 -0.17438343 -0.15103668
vn 0.9786341 -0.12375604 -0.16419421
vn 0.8501721 -0.5233425 0.057620164
vn -0.47836185 0.3723678 0.7953063
vn -0.80714625 0.14463137 0.5723606
vn -0.5537016 0.09921644 0.8267833
vn -0.5779138 -0.18305486 0.79530287
vn -0.6839381 0.41170573 0.60226834
vn 0.005981814 0.91158575 0.4110666
vn 0.25611436 -0.045900386 0.965556
vn -0.11707044 0.86832327 0.48198473
vn -0.78434694 -0.14856812 0.6022685
vn 0.63821894 0.7195833 -0.27363575
vn -0.31092787 -0.85694385 0.4110608
vn 0.6941382 0.7065597 0.13764349
vn 0.8121817 0.11557688 -0.5718416
vn -0.41133404 -0.7736242 0.48198536
vn 0.34859085 -0.8964419 -0.27363557
vn 0.98865205 0.109867185 -0.10245115
vn 0.7980168 -0.1430131 -0.58541983
vn 0.4055436 -0.90365297 0.13764311
vn 0.7214794 -0.39046565 -0.5718427
vn 0.8889624 -0.44637337 -0.10245285
vn 0.9695505 -0.17374331 -0.1725836
vn 0.5229394 -0.09372319 -0.8472015
vn 0.7980168 -0.1430131 -0.58541983
vn 0.8121817 0.11557688 -0.5718416
vn 0.7214794 -0.39046565 -0.5718427
vn 0.5522084 0.16745703 -0.8167154
vn 0.4363387 0.805168 -0.40163788
vn 0.63821894 0.7195833 -0.27363575
vn -0.028596416 0.8818805 0.47060487
vn 0.005981814 0.91158575 0.4110666
vn -0.3471849 0.32383782 0.88010883
vn -0.47836185 0.3723678 0.7953063
vn -0.40172622 0.071995154 0.91292536
vn -0.5537016 0.09921644 0.8267833
vn -0.5779138 -0.18305486 0.79530287
vn -0.43804225 -0.18308474 0.880113
vn -0.31092787 -0.85694385 0.4110608
vn -0.41714266 0.07474264 0.9057624
vn -0.3428566 0.4008437 0.84957266
vn -0.06027546 0.9060546 0.41884577
vn 0.3342757 0.8273728 -0.45134693
vn 0.42574435 0.18760219 -0.885182
vn 0.3933268 -0.070468 -0.9166943
vn -0.46072376 -0.25682238 0.8495739
vn -0.3330859 -0.8170584 0.47060516
vn 0.34859085 -0.8964419 -0.27363557
vn -0.37117893 -0.8287282 0.41885048
vn 0.4596782 -0.34880245 -0.8167208
vn 0.3340949 -0.3237794 -0.88518214
vn 0.026124693 -0.891963 -0.45135292
vn 0.12955253 -0.9065931 -0.40162814
vn 0.5315857 -0.09525083 -0.8416316
vn 0.3933268 -0.070468 -0.9166943
vn 0.42574435 0.18760219 -0.885182
vn 0.3340949 -0.3237794 -0.88518214
vn 0.5528486 0.18003058 -0.8136015
vn 0.45589548 -0.3608282 -0.81361073
vn 0.36113805 0.8934298 -0.2671378
vn 0.028382696 -0.9632416 -0.26713306
vn 0.3342757 0.8273728 -0.45134693
vn 0.026124693 -0.891963 -0.45135292
vn -0.05679648 0.9056002 0.42031223
vn -0.3677836 -0.82950443 0.42030665
vn -0.06027546 0.9060546 0.41884577
vn -0.37117893 -0.8287282 0.41885048
vn -0.34034818 0.49581215 0.79895765
vn -0.49135512 -0.34675634 0.7989557
vn -0.3428566 0.4008437 0.84957266
vn -0.46072376 -0.25682238 0.8495739
vn -0.44628212 0.07996028 0.8913129
vn -0.41714266 0.07474264 0.9057624
vn -0.8583305 0.5130634 -0.005890264
vn -0.9842981 0.1763997 -0.0063479473
vn -0.9843189 0.17639795 0
vn -0.9830852 -0.18305431 -0.00589021
vn -0.85829705 0.5131532 0
vn -0.24332474 0.969942 -0.002410969
vn -0.9830912 -0.18311645 0
vn -0.5650367 -0.8250622 -0.002411035
vn -0.24305262 0.9700131 0
vn 0.5661043 0.82432896 0.0027772652
vn -0.5648218 -0.82521296 0
vn 0.24458076 -0.969625 0.0027772458
vn 0.56634355 0.8241692 0
vn 0.98301655 0.18341911 0.0059817214
vn 0.24488309 -0.96955264 0
vn 0.858134 -0.5133911 0.0059817294
vn 0.9830572 0.18329892 0
vn 0.9842981 -0.1763997 0.0063479473
vn 0.8582057 -0.5133059 0
vn 0.9843189 -0.17639795 0
vn 0.9842981 -0.1763997 -0.0063479473
vn 0.98301655 0.18341911 -0.0059817214
vn 0.858134 -0.5133911 -0.0059817294
vn 0.5661043 0.82432896 -0.0027772652
vn 0.24458076 -0.969625 -0.0027772458
vn -0.24333195 0.9699402 0.0024110402
vn -0.5650367 -0.8250622 0.002411035
vn -0.8583305 0.5130634 0.005890264
vn -0.9830852 -0.18305431 0.00589021
vn -0.9842981 0.1763997 0.0063479473
vn -0.9429052 0.16898741 0.28700697
vn -0.5402806 0.5755607 0.6138622
vn -0.7034331 0.12604359 0.69949615
vn -0.7065293 -0.35210493 0.6138717
vn -0.7774441 0.5685407 0.26896504
vn -0.1315389 0.94759893 0.2911252
vn -0.9264995 -0.26316637 0.268965
vn -0.45244506 -0.84293646 0.2911213
vn -0.25734013 0.95840275 0.12345123
vn 0.39696342 0.9032772 -0.16282001
vn -0.9436049 0.16910908 -0.28462574
vn -0.57415056 -0.80938965 0.12344864
vn 0.058566377 -0.9849161 -0.16282001
vn 0.44409138 0.89471394 -0.047641166
vn 0.7866389 0.16147843 -0.5959228
vn -0.8392303 0.47235316 -0.26939726
vn -0.95103943 -0.15149732 -0.269393
vn 0.10571922 -0.9932541 -0.047640793
vn 0.6815944 -0.4246193 -0.59592587
vn -0.47536606 0.08517891 -0.87565506
vn -0.48345646 0.27326995 -0.8316209
vn -0.5482768 -0.08835298 -0.8316167
vn -0.3259417 0.93549544 -0.13641942
vn -0.63056266 -0.7640548 -0.136422
vn -0.110998794 0.7209886 -0.6839992
vn 0.5642449 0.8190219 0.104071565
vn -0.3544854 -0.6375549 -0.68400574
vn 0.24467115 -0.96400493 0.104069926
vn 0.97234243 0.15180261 -0.1774998
vn 0.6037068 0.60709447 -0.5166957
vn 0.8590987 -0.48004416 -0.17750251
vn 0.35527653 -0.7789776 -0.5166937
vn 0.8613402 -0.44225213 0.25001237
vn 0.9646816 -0.1728913 -0.19874108
vn 0.77075654 -0.13812885 -0.62197655
vn 0.9518949 -0.170572 0.25456095
vn 0.96132 0.11557569 0.2500122
vn 0.78543633 -0.37437627 -0.49288148
vn 0.8253243 -0.14789489 -0.5449466
vn 0.86656284 0.07831233 -0.49288547
vn -0.47836185 0.3723678 -0.7953063
vn -0.5537016 0.09921644 -0.8267833
vn -0.80714625 0.14463137 -0.5723606
vn -0.5779138 -0.18305486 -0.79530287
vn -0.6839381 0.41170573 -0.60226834
vn 0.005981814 0.91158575 -0.4110666
vn 0.25611436 -0.045900386 -0.965556
vn -0.11707044 0.86832327 -0.48198473
vn -0.78434694 -0.14856812 -0.6022685
vn 0.63821894 0.7195833 0.27363575
vn -0.31092787 -0.85694385 -0.4110608
vn 0.69413525 0.7065567 -0.13767341
vn 0.8121817 0.11557688 0.5718416
vn -0.41133404 -0.7736242 -0.48198536
vn 0.34859085 -0.8964419 0.27363557
vn 0.98865205 0.109867185 0.10245115
vn 0.7980168 -0.1430131 0.58541983
vn 0.4055436 -0.90365297 -0.13764311
vn 0.7214794 -0.39046565 0.5718427
vn 0.8889624 -0.44637337 0.10245285
vn 0.9695505 -0.17374331 0.1725836
vn 0.5229394 -0.09372319 0.8472015
vn 0.8121817 0.11557688 0.5718416
vn 0.7980168 -0.1430131 0.58541983
vn 0.7214794 -0.39046565 0.5718427
vn 0.5522084 0.16745703 0.8167154
vn 0.4363387 0.805168 0.40163788
vn 0.63821894 0.7195833 0.27363575
vn -0.028596416 0.8818805 -0.47060487
vn 0.005981814 0.91158575 -0.4110666
vn -0.3471849 0.32383782 -0.88010883
vn -0.47836185 0.3723678 -0.7953063
vn -0.40172622 0.071995154 -0.91292536
vn -0.5537016 0.09921644 -0.8267833
vn -0.5779138 -0.18305486 -0.79530287
vn -0.43804225 -0.18308474 -0.880113
vn -0.31092787 -0.85694385 -0.4110608
vn -0.41714266 0.07474264 -0.9057624
vn -0.3428566 0.4008437 -0.84957266
vn -0.06027546 0.9060546 -0.41884577
vn 0.3342757 0.8273728 0.45134693
vn 0.42574435 0.18760219 0.885182
vn 0.3933268 -0.070468 0.9166943
vn -0.46072376 -0.25682238 -0.8495739
vn -0.3330859 -0.8170584 -0.47060516
vn 0.34859085 -0.8964419 0.27363557
vn -0.37117893 -0.8287282 -0.41885048
vn 0.4596782 -0.34880245 0.8167208
vn 0.3340949 -0.3237794 0.88518214
vn 0.026124693 -0.891963 0.45135292
vn 0.12955253 -0.9065931 0.40162814
vn 0.5315857 -0.09525083 0.8416316
vn 0.42574435 0.18760219 0.885182
vn 0.3933268 -0.070468 0.9166943
vn 0.3340949 -0.3237794 0.88518214
vn 0.5528486 0.18003058 0.8136015
vn 0.4559196 -0.36082315 0.81359935
vn 0.36113805 0.8934298 0.2671378
vn 0.028382696 -0.9632416 0.26713306
vn 0.3342757 0.8273728 0.45134693
vn 0.026124693 -0.891963 0.45135292
vn -0.05679648 0.9056002 -0.42031223
vn -0.3677836 -0.82950443 -0.42030665
vn -0.06027546 0.9060546 -0.41884577
vn -0.37117893 -0.8287282 -0.41885048
vn -0.34034818 0.49581215 -0.79895765
vn -0.49135512 -0.34675634 -0.7989557
vn -0.3428566 0.4008437 -0.84957266
vn -0.46072376 -0.25682238 -0.8495739
vn -0.44628212 0.07996028 -0.8913129
vn -0.41714266 0.07474264 -0.9057624
vn -0.9429052 0.16898741 -0.28700697
vn -0.7034331 0.12604359 -0.69949615
vn -0.5402806 0.5755607 -0.6138622
vn -0.7065293 -0.35210493 -0.6138717
vn -0.7774441 0.5685407 -0.26896504
vn -0.1315389 0.94759893 -0.2911252
vn -0.9264995 -0.26316637 -0.268965
vn -0.45244506 -0.84293646 -0.2911213
vn -0.25734013 0.95840275 -0.12345123
vn 0.39696342 0.9032772 0.16282001
vn -0.9436049 0.16910908 0.28462574
vn -0.57415056 -0.80938965 -0.12344864
vn 0.058566377 -0.9849161 0.16282001
vn 0.44409138 0.89471394 0.047641166
vn 0.7866389 0.16147843 0.5959228
vn -0.8392303 0.47235316 0.26939726
vn -0.95103943 -0.15149732 0.269393
vn 0.10571922 -0.9932541 0.047640793
vn 0.6815944 -0.4246193 0.59592587
vn -0.47536606 0.08517891 0.87565506
vn -0.48345646 0.27326995 0.8316209
vn -0.5482768 -0.08835298 0.8316167
vn -0.3259417 0.93549544 0.13641942
vn -0.63056266 -0.7640548 0.136422
vn -0.110998794 0.7209886 0.6839992
vn 0.5642449 0.8190219 -0.104071565
vn -0.3544854 -0.6375549 0.68400574
vn 0.24467115 -0.96400493 -0.104069926
vn 0.97234243 0.15180261 0.1774998
vn 0.6037068 0.60709447 0.5166957
vn 0.8590987 -0.48004416 0.17750251
vn 0.35527653 -0.7789776 0.5166937
vn 0.8613402 -0.44225213 -0.25001237
vn 0.9646816 -0.1728913 0.19874108
vn 0.77075654 -0.13812885 0.62197655
vn 0.9518949 -0.170572 -0.25456095
vn 0.96132 0.11557569 -0.2500122
vn 0.78543633 -0.37437627 0.49288148
vn 0.8253243 -0.14789489 0.5449466
vn 0.86656284 0.07831233 0.49288547
vn -0.5402806 0.5755607 0.6138622
vn -0.44628212 0.07996028 0.8913129
vn -0.7034331 0.12604359 0.69949615
vn -0.7065293 -0.35210493 0.6138717
vn -0.34034818 0.49581215 0.79895765
vn -0.49135512 -0.34675634 0.7989557
vn -0.1315389 0.94759893 0.2911252
vn -0.45244506 -0.84293646 0.2911213
vn -0.05679648 0.9056002 0.42031223
vn -0.3677836 -0.82950443 0.42030665
vn 0.39696342 0.9032772 -0.16282001
vn 0.058566377 -0.9849161 -0.16282001
vn 0.36113805 0.8934298 -0.2671378
vn 0.028382696 -0.9632416 -0.26713306
vn 0.7866389 0.16147843 -0.5959228
vn 0.6815944 -0.4246193 -0.59592587
vn 0.5528486 0.18003058 -0.8136015
vn 0.45589548 -0.3608282 -0.81361073
vn 0.77075654 -0.13812885 -0.62197655
vn 0.5315857 -0.09525083 -0.8416316
vn -0.5402806 0.5755607 -0.6138622
vn -0.7034331 0.12604359 -0.69949615
vn -0.44628212 0.07996028 -0.8913129
vn -0.7065293 -0.35210493 -0.6138717
vn -0.34034818 0.49581215 -0.79895765
vn -0.49135512 -0.34675634 -0.7989557
vn -0.1315389 0.94759893 -0.2911252
vn -0.45244506 -0.84293646 -0.2911213
vn -0.05679648 0.9056002 -0.42031223
vn -0.3677836 -0.82950443 -0.42030665
vn 0.39696342 0.9032772 0.16282001
vn 0.058566377 -0.9849161 0.16282001
vn 0.36113805 0.8934298 0.2671378
vn 0.028382696 -0.9632416 0.26713306
vn 0.7866389 0.16147843 0.5959228
vn 0.6815944 -0.4246193 0.59592587
vn 0.5528486 0.18003058 0.8136015
vn 0.4559196 -0.36082315 0.81359935
vn 0.77075654 -0.13812885 0.62197655
vn 0.5315857 -0.09525083 0.8416316
g Bow07_0
f 3/3/3 2/2/2 1/1/1
f 4/4/4 3/3/3 1/1/1
f 3/3/3 4/4/4 5/5/5
f 6/6/6 3/3/3 5/5/5
f 9/9/9 8/8/8 7/7/7
f 10/10/10 9/9/9 7/7/7
f 9/9/9 10/10/10 11/11/11
f 12/12/12 9/9/9 11/11/11
f 15/15/15 14/14/14 13/13/13
f 16/16/16 15/15/15 13/13/13
f 15/15/15 16/16/16 17/17/17
f 18/18/18 15/15/15 17/17/17
f 21/21/21 20/20/20 19/19/19
f 22/22/22 21/21/21 19/19/19
f 24/24/24 21/21/21 23/23/23
f 25/25/25 24/24/24 23/23/23
f 26/26/26 24/24/24 25/25/25
f 27/27/27 26/26/26 25/25/25
f 28/28/28 26/26/26 27/27/27
f 29/29/29 28/28/28 27/27/27
f 30/30/30 28/28/28 29/29/29
f 31/31/31 30/30/30 29/29/29
f 25/25/25 23/23/23 32/32/32
f 27/27/27 25/25/25 33/33/33
f 33/33/33 25/25/25 32/32/32
f 29/29/29 27/27/27 34/34/34
f 34/34/34 27/27/27 33/33/33
f 31/31/31 29/29/29 35/35/35
f 35/35/35 29/29/29 34/34/34
f 32/32/32 23/23/23 36/36/36
f 23/23/23 37/37/37 36/36/36
f 38/38/38 31/31/31 35/35/35
f 39/39/39 31/31/31 38/38/38
f 40/40/40 39/39/39 38/38/38
f 40/40/40 38/38/38 41/41/41
f 42/42/42 40/40/40 41/41/41
f 38/38/38 35/35/35 43/43/43
f 41/41/41 38/38/38 43/43/43
f 35/35/35 34/34/34 44/44/44
f 43/43/43 35/35/35 44/44/44
f 42/42/42 41/41/41 45/45/45
f 46/46/46 42/42/42 45/45/45
f 45/45/45 41/41/41 47/47/47
f 41/41/41 43/43/43 47/47/47
f 47/47/47 48/48/48 45/45/45
f 47/47/47 43/43/43 49/49/49
f 43/43/43 44/44/44 49/49/49
f 48/48/48 47/47/47 50/50/50
f 47/47/47 49/49/49 50/50/50
f 50/50/50 49/49/49 51/51/51
f 49/49/49 52/52/52 51/51/51
f 49/49/49 44/44/44 52/52/52
f 51/51/51 52/52/52 53/53/53
f 52/52/52 54/54/54 53/53/53
f 44/44/44 34/34/34 55/55/55
f 44/44/44 55/55/55 52/52/52
f 52/52/52 55/55/55 54/54/54
f 34/34/34 33/33/33 55/55/55
f 55/55/55 56/56/56 54/54/54
f 55/55/55 33/33/33 56/56/56
f 33/33/33 32/32/32 56/56/56
f 54/54/54 56/56/56 57/57/57
f 56/56/56 32/32/32 58/58/58
f 56/56/56 58/58/58 57/57/57
f 32/32/32 36/36/36 58/58/58
f 57/57/57 58/58/58 59/59/59
f 58/58/58 36/36/36 60/60/60
f 59/59/59 58/58/58 60/60/60
f 61/61/61 57/57/57 59/59/59
f 62/62/62 57/57/57 61/61/61
f 63/63/63 62/62/62 61/61/61
f 63/63/63 61/61/61 64/64/64
f 65/65/65 63/63/63 64/64/64
f 66/66/66 65/65/65 64/64/64
f 64/64/64 61/61/61 67/67/67
f 61/61/61 59/59/59 67/67/67
f 64/64/64 67/67/67 66/66/66
f 67/67/67 59/59/59 68/68/68
f 59/59/59 60/60/60 68/68/68
f 67/67/67 68/68/68 66/66/66
f 60/60/60 36/36/36 69/69/69
f 36/36/36 37/37/37 69/69/69
f 68/68/68 60/60/60 70/70/70
f 68/68/68 70/70/70 66/66/66
f 60/60/60 69/69/69 70/70/70
f 70/70/70 69/69/69 66/66/66
f 69/69/69 71/71/71 66/66/66
f 69/69/69 37/37/37 71/71/71
f 37/37/37 22/22/22 71/71/71
f 74/74/74 73/73/73 72/72/72
f 75/75/75 74/74/74 72/72/72
f 78/78/78 77/77/77 76/76/76
f 79/79/79 78/78/78 76/76/76
f 81/81/81 80/80/80 48/48/48
f 82/82/82 81/81/81 48/48/48
f 85/85/85 84/84/84 83/83/83
f 86/86/86 85/85/85 83/83/83
f 87/87/87 85/85/85 86/86/86
f 86/86/86 83/83/83 88/88/88
f 89/89/89 88/88/88 83/83/83
f 90/90/90 87/87/87 86/86/86
f 91/91/91 87/87/87 90/90/90
f 92/92/92 91/91/91 90/90/90
f 90/90/90 86/86/86 93/93/93
f 93/93/93 86/86/86 88/88/88
f 92/92/92 90/90/90 94/94/94
f 94/94/94 90/90/90 93/93/93
f 95/95/95 92/92/92 94/94/94
f 96/96/96 92/92/92 95/95/95
f 97/97/97 96/96/96 95/95/95
f 97/97/97 95/95/95 98/98/98
f 99/99/99 97/97/97 98/98/98
f 95/95/95 94/94/94 100/100/100
f 98/98/98 95/95/95 100/100/100
f 94/94/94 93/93/93 101/101/101
f 100/100/100 94/94/94 101/101/101
f 93/93/93 88/88/88 102/102/102
f 101/101/101 93/93/93 102/102/102
f 99/99/99 98/98/98 103/103/103
f 104/104/104 99/99/99 103/103/103
f 98/98/98 100/100/100 105/105/105
f 103/103/103 98/98/98 105/105/105
f 102/102/102 88/88/88 106/106/106
f 88/88/88 89/89/89 106/106/106
f 102/102/102 106/106/106 107/107/107
f 108/108/108 102/102/102 107/107/107
f 101/101/101 102/102/102 108/108/108
f 108/108/108 107/107/107 109/109/109
f 110/110/110 108/108/108 109/109/109
f 100/100/100 101/101/101 111/111/111
f 111/111/111 101/101/101 108/108/108
f 111/111/111 108/108/108 110/110/110
f 105/105/105 100/100/100 111/111/111
f 112/112/112 111/111/111 110/110/110
f 105/105/105 111/111/111 112/112/112
f 112/112/112 110/110/110 113/113/113
f 103/103/103 105/105/105 114/114/114
f 114/114/114 105/105/105 112/112/112
f 115/115/115 112/112/112 113/113/113
f 114/114/114 112/112/112 115/115/115
f 116/116/116 103/103/103 114/114/114
f 104/104/104 103/103/103 116/116/116
f 117/117/117 104/104/104 116/116/116
f 116/116/116 114/114/114 118/118/118
f 118/118/118 114/114/114 115/115/115
f 119/119/119 116/116/116 118/118/118
f 115/115/115 113/113/113 120/120/120
f 118/118/118 115/115/115 121/121/121
f 115/115/115 120/120/120 121/121/121
f 119/119/119 118/118/118 122/122/122
f 118/118/118 121/121/121 122/122/122
f 119/119/119 122/122/122 123/123/123
f 124/124/124 119/119/119 123/123/123
f 117/117/117 124/124/124 125/125/125
f 126/126/126 117/117/117 125/125/125
f 123/123/123 122/122/122 127/127/127
f 122/122/122 121/121/121 128/128/128
f 122/122/122 128/128/128 127/127/127
f 121/121/121 129/129/129 128/128/128
f 127/127/127 128/128/128 129/129/129
f 121/121/121 120/120/120 129/129/129
f 127/127/127 129/129/129 130/130/130
f 120/120/120 130/130/130 129/129/129
f 131/131/131 127/127/127 130/130/130
f 120/120/120 132/132/132 130/130/130
f 113/113/113 132/132/132 120/120/120
f 113/113/113 133/133/133 132/132/132
f 133/133/133 134/134/134 132/132/132
f 130/130/130 135/135/135 131/131/131
f 132/132/132 135/135/135 130/130/130
f 134/134/134 131/131/131 135/135/135
f 132/132/132 134/134/134 135/135/135
f 138/138/138 137/137/137 136/136/136
f 137/137/137 139/139/139 136/136/136
f 139/139/139 137/137/137 140/140/140
f 137/137/137 141/141/141 140/140/140
f 144/144/144 143/143/143 142/142/142
f 143/143/143 145/145/145 142/142/142
f 145/145/145 143/143/143 146/146/146
f 143/143/143 147/147/147 146/146/146
f 150/150/150 149/149/149 148/148/148
f 149/149/149 151/151/151 148/148/148
f 151/151/151 149/149/149 152/152/152
f 149/149/149 153/153/153 152/152/152
f 156/156/156 155/155/155 154/154/154
f 157/157/157 156/156/156 154/154/154
f 160/160/160 159/159/159 158/158/158
f 161/161/161 160/160/160 158/158/158
f 163/163/163 162/162/162 89/89/89
f 164/164/164 163/163/163 89/89/89
f 167/167/167 166/166/166 165/165/165
f 166/166/166 168/168/168 165/165/165
f 168/168/168 170/170/170 169/169/169
f 170/170/170 171/171/171 169/169/169
f 169/169/169 171/171/171 172/172/172
f 170/170/170 173/173/173 171/171/171
f 170/170/170 174/174/174 173/173/173
f 166/166/166 175/175/175 174/174/174
f 175/175/175 176/176/176 174/174/174
f 175/175/175 177/177/177 176/176/176
f 174/174/174 178/178/178 173/173/173
f 174/174/174 176/176/176 178/178/178
f 177/177/177 179/179/179 176/176/176
f 177/177/177 180/180/180 179/179/179
f 176/176/176 181/181/181 178/178/178
f 176/176/176 179/179/179 181/181/181
f 180/180/180 182/182/182 179/179/179
f 180/180/180 183/183/183 182/182/182
f 183/183/183 184/184/184 182/182/182
f 179/179/179 182/182/182 185/185/185
f 179/179/179 185/185/185 181/181/181
f 182/182/182 184/184/184 186/186/186
f 182/182/182 186/186/186 185/185/185
f 184/184/184 187/187/187 186/186/186
f 184/184/184 188/188/188 187/187/187
f 188/188/188 189/189/189 187/187/187
f 187/187/187 189/189/189 190/190/190
f 189/189/189 191/191/191 190/190/190
f 186/186/186 187/187/187 192/192/192
f 187/187/187 190/190/190 192/192/192
f 185/185/185 186/186/186 193/193/193
f 186/186/186 192/192/192 193/193/193
f 181/181/181 185/185/185 194/194/194
f 185/185/185 193/193/193 194/194/194
f 190/190/190 191/191/191 195/195/195
f 191/191/191 196/196/196 195/195/195
f 190/190/190 195/195/195 197/197/197
f 192/192/192 190/190/190 197/197/197
f 198/198/198 197/197/197 195/195/195
f 193/193/193 192/192/192 199/199/199
f 192/192/192 197/197/197 199/199/199
f 197/197/197 198/198/198 200/200/200
f 199/199/199 197/197/197 200/200/200
f 199/199/199 200/200/200 201/201/201
f 193/193/193 199/199/199 202/202/202
f 202/202/202 199/199/199 201/201/201
f 194/194/194 193/193/193 202/202/202
f 202/202/202 201/201/201 203/203/203
f 204/204/204 202/202/202 203/203/203
f 194/194/194 202/202/202 204/204/204
f 205/205/205 194/194/194 204/204/204
f 181/181/181 194/194/194 205/205/205
f 178/178/178 181/181/181 205/205/205
f 205/205/205 204/204/204 206/206/206
f 178/178/178 205/205/205 207/207/207
f 207/207/207 205/205/205 206/206/206
f 173/173/173 178/178/178 207/207/207
f 173/173/173 207/207/207 208/208/208
f 173/173/173 208/208/208 171/171/171
f 207/207/207 206/206/206 209/209/209
f 207/207/207 209/209/209 208/208/208
f 171/171/171 208/208/208 210/210/210
f 171/171/171 210/210/210 172/172/172
f 208/208/208 211/211/211 210/210/210
f 208/208/208 209/209/209 211/211/211
f 172/172/172 210/210/210 211/211/211
f 206/206/206 212/212/212 209/209/209
f 206/206/206 213/213/213 212/212/212
f 213/213/213 214/214/214 212/212/212
f 209/209/209 215/215/215 211/211/211
f 172/172/172 211/211/211 215/215/215
f 209/209/209 212/212/212 215/215/215
f 212/212/212 214/214/214 216/216/216
f 212/212/212 216/216/216 215/215/215
f 172/172/172 215/215/215 216/216/216
f 214/214/214 217/217/217 216/216/216
f 216/216/216 217/217/217 172/172/172
f 220/220/220 219/219/219 218/218/218
f 221/221/221 220/220/220 218/218/218
f 224/224/224 223/223/223 222/222/222
f 225/225/225 224/224/224 222/222/222
f 227/227/227 226/226/226 198/198/198
f 228/228/228 227/227/227 198/198/198
f 231/231/231 230/230/230 229/229/229
f 230/230/230 232/232/232 229/229/229
f 230/230/230 233/233/233 232/232/232
f 229/229/229 232/232/232 234/234/234
f 234/234/234 235/235/235 229/229/229
f 233/233/233 236/236/236 232/232/232
f 233/233/233 237/237/237 236/236/236
f 237/237/237 238/238/238 236/236/236
f 232/232/232 236/236/236 239/239/239
f 232/232/232 239/239/239 234/234/234
f 236/236/236 238/238/238 240/240/240
f 236/236/236 240/240/240 239/239/239
f 238/238/238 241/241/241 240/240/240
f 238/238/238 242/242/242 241/241/241
f 242/242/242 243/243/243 241/241/241
f 241/241/241 243/243/243 244/244/244
f 243/243/243 245/245/245 244/244/244
f 240/240/240 241/241/241 246/246/246
f 241/241/241 244/244/244 246/246/246
f 239/239/239 240/240/240 247/247/247
f 240/240/240 246/246/246 247/247/247
f 234/234/234 239/239/239 248/248/248
f 239/239/239 247/247/247 248/248/248
f 244/244/244 245/245/245 249/249/249
f 245/245/245 250/250/250 249/249/249
f 246/246/246 244/244/244 251/251/251
f 244/244/244 249/249/249 251/251/251
f 234/234/234 248/248/248 252/252/252
f 235/235/235 234/234/234 252/252/252
f 252/252/252 248/248/248 253/253/253
f 248/248/248 254/254/254 253/253/253
f 248/248/248 247/247/247 254/254/254
f 253/253/253 254/254/254 255/255/255
f 254/254/254 256/256/256 255/255/255
f 247/247/247 246/246/246 257/257/257
f 247/247/247 257/257/257 254/254/254
f 254/254/254 257/257/257 256/256/256
f 246/246/246 251/251/251 257/257/257
f 257/257/257 258/258/258 256/256/256
f 257/257/257 251/251/251 258/258/258
f 256/256/256 258/258/258 259/259/259
f 251/251/251 249/249/249 260/260/260
f 251/251/251 260/260/260 258/258/258
f 258/258/258 261/261/261 259/259/259
f 258/258/258 260/260/260 261/261/261
f 249/249/249 262/262/262 260/260/260
f 249/249/249 250/250/250 262/262/262
f 250/250/250 263/263/263 262/262/262
f 260/260/260 262/262/262 264/264/264
f 260/260/260 264/264/264 261/261/261
f 262/262/262 265/265/265 264/264/264
f 259/259/259 261/261/261 266/266/266
f 261/261/261 264/264/264 267/267/267
f 266/266/266 261/261/261 267/267/267
f 264/264/264 265/265/265 268/268/268
f 267/267/267 264/264/264 268/268/268
f 268/268/268 265/265/265 269/269/269
f 265/265/265 270/270/270 269/269/269
f 270/270/270 263/263/263 271/271/271
f 263/263/263 272/272/272 271/271/271
f 268/268/268 269/269/269 273/273/273
f 267/267/267 268/268/268 274/274/274
f 274/274/274 268/268/268 273/273/273
f 275/275/275 267/267/267 274/274/274
f 275/275/275 274/274/274 273/273/273
f 266/266/266 267/267/267 275/275/275
f 276/276/276 275/275/275 273/273/273
f 276/276/276 266/266/266 275/275/275
f 276/276/276 273/273/273 277/277/277
f 278/278/278 266/266/266 276/276/276
f 278/278/278 259/259/259 266/266/266
f 279/279/279 259/259/259 278/278/278
f 280/280/280 279/279/279 278/278/278
f 277/277/277 281/281/281 276/276/276
f 281/281/281 278/278/278 276/276/276
f 280/280/280 278/278/278 281/281/281
f 277/277/277 280/280/280 281/281/281
f 284/284/284 283/283/283 282/282/282
f 285/285/285 284/284/284 282/282/282
f 288/288/288 287/287/287 286/286/286
f 289/289/289 288/288/288 286/286/286
f 291/291/291 290/290/290 235/235/235
f 292/292/292 291/291/291 235/235/235
f 295/295/295 294/294/294 293/293/293
f 294/294/294 295/295/295 296/296/296
f 294/294/294 297/297/297 293/293/293
f 293/293/293 297/297/297 298/298/298
f 294/294/294 299/299/299 297/297/297
f 297/297/297 299/299/299 300/300/300
f 297/297/297 300/300/300 298/298/298
f 299/299/299 294/294/294 301/301/301
f 301/301/301 294/294/294 296/296/296
f 298/298/298 300/300/300 302/302/302
f 301/301/301 296/296/296 303/303/303
f 300/300/300 304/304/304 302/302/302
f 300/300/300 299/299/299 304/304/304
f 302/302/302 304/304/304 305/305/305
f 306/306/306 301/301/301 303/303/303
f 299/299/299 301/301/301 306/306/306
f 306/306/306 303/303/303 307/307/307
f 304/304/304 308/308/308 305/305/305
f 304/304/304 299/299/299 308/308/308
f 305/305/305 308/308/308 309/309/309
f 310/310/310 306/306/306 307/307/307
f 299/299/299 306/306/306 310/310/310
f 310/310/310 307/307/307 311/311/311
f 312/312/312 310/310/310 311/311/311
f 312/312/312 311/311/311 309/309/309
f 299/299/299 310/310/310 312/312/312
f 308/308/308 313/313/313 309/309/309
f 313/313/313 312/312/312 309/309/309
f 308/308/308 299/299/299 313/313/313
f 299/299/299 312/312/312 313/313/313
f 316/316/316 315/315/315 314/314/314
f 315/315/315 317/317/317 314/314/314
f 318/318/318 316/316/316 314/314/314
f 318/318/318 319/319/319 316/316/316
f 319/319/319 320/320/320 316/316/316
f 320/320/320 319/319/319 321/321/321
f 322/322/322 320/320/320 321/321/321
f 321/321/321 323/323/323 322/322/322
f 323/323/323 324/324/324 322/322/322
f 324/324/324 323/323/323 325/325/325
f 326/326/326 324/324/324 325/325/325
f 327/327/327 326/326/326 325/325/325
f 328/328/328 327/327/327 325/325/325
f 327/327/327 328/328/328 329/329/329
f 325/325/325 323/323/323 330/330/330
f 328/328/328 325/325/325 330/330/330
f 323/323/323 331/331/331 330/330/330
f 331/331/331 323/323/323 321/321/321
f 332/332/332 331/331/331 321/321/321
f 321/321/321 319/319/319 332/332/332
f 319/319/319 333/333/333 332/332/332
f 333/333/333 319/319/319 318/318/318
f 334/334/334 333/333/333 318/318/318
f 334/334/334 318/318/318 335/335/335
f 336/336/336 328/328/328 330/330/330
f 318/318/318 314/314/314 335/335/335
f 328/328/328 337/337/337 329/329/329
f 328/328/328 336/336/336 337/337/337
f 338/338/338 329/329/329 337/337/337
f 336/336/336 339/339/339 337/337/337
f 314/314/314 340/340/340 335/335/335
f 340/340/340 341/341/341 335/335/335
f 317/317/317 340/340/340 314/314/314
f 342/342/342 341/341/341 340/340/340
f 343/343/343 338/338/338 337/337/337
f 343/343/343 337/337/337 339/339/339
f 338/338/338 343/343/343 317/317/317
f 343/343/343 340/340/340 317/317/317
f 343/343/343 342/342/342 340/340/340
f 342/342/342 343/343/343 339/339/339
f 346/346/346 345/345/345 344/344/344
f 345/345/345 347/347/347 344/344/344
f 348/348/348 346/346/346 344/344/344
f 347/347/347 349/349/349 344/344/344
f 348/348/348 350/350/350 346/346/346
f 351/351/351 349/349/349 347/347/347
f 350/350/350 352/352/352 346/346/346
f 353/353/353 351/351/351 347/347/347
f 352/352/352 350/350/350 354/354/354
f 351/351/351 353/353/353 355/355/355
f 356/356/356 352/352/352 354/354/354
f 353/353/353 357/357/357 355/355/355
f 354/354/354 358/358/358 356/356/356
f 359/359/359 355/355/355 357/357/357
f 358/358/358 360/360/360 356/356/356
f 361/361/361 359/359/359 357/357/357
f 360/360/360 358/358/358 362/362/362
f 359/359/359 361/361/361 362/362/362
f 363/363/363 360/360/360 362/362/362
f 361/361/361 363/363/363 362/362/362
f 366/366/366 365/365/365 364/364/364
f 365/365/365 366/366/366 367/367/367
f 368/368/368 366/366/366 364/364/364
f 368/368/368 364/364/364 369/369/369
f 366/366/366 370/370/370 367/367/367
f 367/367/367 370/370/370 371/371/371
f 372/372/372 368/368/368 369/369/369
f 372/372/372 369/369/369 373/373/373
f 370/370/370 374/374/374 371/371/371
f 371/371/371 374/374/374 375/375/375
f 376/376/376 372/372/372 373/373/373
f 376/376/376 373/373/373 377/377/377
f 374/374/374 378/378/378 375/375/375
f 375/375/375 378/378/378 379/379/379
f 380/380/380 376/376/376 377/377/377
f 380/380/380 377/377/377 381/381/381
f 379/379/379 382/382/382 381/381/381
f 378/378/378 382/382/382 379/379/379
f 383/383/383 380/380/380 381/381/381
f 382/382/382 383/383/383 381/381/381
f 380/380/380 383/383/383 384/384/384
f 383/383/383 382/382/382 384/384/384
f 385/385/385 380/380/380 384/384/384
f 376/376/376 380/380/380 385/385/385
f 382/382/382 386/386/386 384/384/384
f 382/382/382 378/378/378 386/386/386
f 387/387/387 376/376/376 385/385/385
f 372/372/372 376/376/376 387/387/387
f 378/378/378 388/388/388 386/386/386
f 378/378/378 374/374/374 388/388/388
f 389/389/389 372/372/372 387/387/387
f 374/374/374 390/390/390 388/388/388
f 368/368/368 372/372/372 389/389/389
f 374/374/374 370/370/370 390/390/390
f 391/391/391 368/368/368 389/389/389
f 370/370/370 392/392/392 390/390/390
f 366/366/366 368/368/368 391/391/391
f 370/370/370 366/366/366 392/392/392
f 393/393/393 366/366/366 391/391/391
f 366/366/366 393/393/393 392/392/392
f 396/396/396 395/395/395 394/394/394
f 397/397/397 396/396/396 394/394/394
f 395/395/395 398/398/398 394/394/394
f 398/398/398 395/395/395 399/399/399
f 400/400/400 397/397/397 394/394/394
f 397/397/397 400/400/400 401/401/401
f 402/402/402 398/398/398 399/399/399
f 399/399/399 403/403/403 402/402/402
f 394/394/394 398/398/398 404/404/404
f 400/400/400 394/394/394 404/404/404
f 400/400/400 405/405/405 401/401/401
f 406/406/406 401/401/401 405/405/405
f 403/403/403 407/407/407 402/402/402
f 407/407/407 403/403/403 408/408/408
f 409/409/409 398/398/398 402/402/402
f 398/398/398 409/409/409 404/404/404
f 410/410/410 400/400/400 404/404/404
f 400/400/400 410/410/410 405/405/405
f 411/411/411 406/406/406 405/405/405
f 406/406/406 411/411/411 412/412/412
f 404/404/404 409/409/409 413/413/413
f 410/410/410 404/404/404 413/413/413
f 409/409/409 414/414/414 413/413/413
f 415/415/415 410/410/410 413/413/413
f 416/416/416 409/409/409 402/402/402
f 414/414/414 409/409/409 416/416/416
f 402/402/402 407/407/407 416/416/416
f 410/410/410 417/417/417 405/405/405
f 410/410/410 415/415/415 417/417/417
f 411/411/411 405/405/405 417/417/417
f 418/418/418 414/414/414 416/416/416
f 413/413/413 414/414/414 418/418/418
f 407/407/407 419/419/419 416/416/416
f 416/416/416 419/419/419 418/418/418
f 415/415/415 420/420/420 417/417/417
f 420/420/420 415/415/415 413/413/413
f 421/421/421 411/411/411 417/417/417
f 421/421/421 417/417/417 420/420/420
f 419/419/419 407/407/407 422/422/422
f 422/422/422 407/407/407 408/408/408
f 419/419/419 423/423/423 418/418/418
f 413/413/413 418/418/418 423/423/423
f 411/411/411 421/421/421 424/424/424
f 411/411/411 424/424/424 412/412/412
f 425/425/425 421/421/421 420/420/420
f 425/425/425 420/420/420 413/413/413
f 421/421/421 425/425/425 426/426/426
f 421/421/421 426/426/426 424/424/424
f 412/412/412 424/424/424 427/427/427
f 422/422/422 408/408/408 427/427/427
f 428/428/428 412/412/412 427/427/427
f 408/408/408 428/428/428 427/427/427
f 427/427/427 424/424/424 429/429/429
f 422/422/422 427/427/427 429/429/429
f 424/424/424 426/426/426 429/429/429
f 430/430/430 419/419/419 422/422/422
f 430/430/430 422/422/422 429/429/429
f 423/423/423 419/419/419 430/430/430
f 431/431/431 425/425/425 413/413/413
f 425/425/425 431/431/431 426/426/426
f 429/429/429 426/426/426 432/432/432
f 426/426/426 431/431/431 432/432/432
f 413/413/413 432/432/432 431/431/431
f 430/430/430 429/429/429 432/432/432
f 432/432/432 413/413/413 423/423/423
f 433/433/433 430/430/430 432/432/432
f 433/433/433 423/423/423 430/430/430
f 423/423/423 433/433/433 432/432/432
f 436/436/436 435/435/435 434/434/434
f 435/435/435 436/436/436 437/437/437
f 438/438/438 436/436/436 434/434/434
f 438/438/438 434/434/434 439/439/439
f 440/440/440 436/436/436 438/438/438
f 440/440/440 438/438/438 441/441/441
f 441/441/441 438/438/438 439/439/439
f 436/436/436 440/440/440 442/442/442
f 436/436/436 442/442/442 437/437/437
f 441/441/441 439/439/439 443/443/443
f 437/437/437 442/442/442 444/444/444
f 445/445/445 441/441/441 443/443/443
f 440/440/440 441/441/441 445/445/445
f 445/445/445 443/443/443 446/446/446
f 442/442/442 447/447/447 444/444/444
f 442/442/442 440/440/440 447/447/447
f 444/444/444 447/447/447 448/448/448
f 449/449/449 445/445/445 446/446/446
f 440/440/440 445/445/445 449/449/449
f 449/449/449 446/446/446 450/450/450
f 447/447/447 451/451/451 448/448/448
f 447/447/447 440/440/440 451/451/451
f 448/448/448 451/451/451 452/452/452
f 451/451/451 453/453/453 452/452/452
f 452/452/452 453/453/453 450/450/450
f 451/451/451 440/440/440 453/453/453
f 454/454/454 449/449/449 450/450/450
f 453/453/453 454/454/454 450/450/450
f 440/440/440 449/449/449 454/454/454
f 453/453/453 440/440/440 454/454/454
f 457/457/457 456/456/456 455/455/455
f 458/458/458 457/457/457 455/455/455
f 456/456/456 459/459/459 455/455/455
f 460/460/460 459/459/459 456/456/456
f 461/461/461 460/460/460 456/456/456
f 460/460/460 461/461/461 462/462/462
f 461/461/461 463/463/463 462/462/462
f 464/464/464 462/462/462 463/463/463
f 465/465/465 464/464/464 463/463/463
f 464/464/464 465/465/465 466/466/466
f 465/465/465 467/467/467 466/466/466
f 467/467/467 468/468/468 466/466/466
f 468/468/468 469/469/469 466/466/466
f 469/469/469 468/468/468 470/470/470
f 464/464/464 466/466/466 471/471/471
f 466/466/466 469/469/469 471/471/471
f 472/472/472 464/464/464 471/471/471
f 464/464/464 472/472/472 462/462/462
f 472/472/472 473/473/473 462/462/462
f 460/460/460 462/462/462 473/473/473
f 474/474/474 460/460/460 473/473/473
f 460/460/460 474/474/474 459/459/459
f 474/474/474 475/475/475 459/459/459
f 459/459/459 475/475/475 476/476/476
f 469/469/469 477/477/477 471/471/471
f 455/455/455 459/459/459 476/476/476
f 478/478/478 469/469/469 470/470/470
f 477/477/477 469/469/469 478/478/478
f 470/470/470 479/479/479 478/478/478
f 480/480/480 477/477/477 478/478/478
f 481/481/481 455/455/455 476/476/476
f 482/482/482 481/481/481 476/476/476
f 481/481/481 458/458/458 455/455/455
f 482/482/482 483/483/483 481/481/481
f 479/479/479 484/484/484 478/478/478
f 478/478/478 484/484/484 480/480/480
f 484/484/484 479/479/479 458/458/458
f 481/481/481 484/484/484 458/458/458
f 483/483/483 484/484/484 481/481/481
f 484/484/484 483/483/483 480/480/480
f 487/487/487 486/486/486 485/485/485
f 488/488/488 487/487/487 485/485/485
f 486/486/486 489/489/489 485/485/485
f 490/490/490 488/488/488 485/485/485
f 491/491/491 489/489/489 486/486/486
f 490/490/490 492/492/492 488/488/488
f 493/493/493 491/491/491 486/486/486
f 492/492/492 494/494/494 488/488/488
f 491/491/491 493/493/493 495/495/495
f 494/494/494 492/492/492 496/496/496
f 493/493/493 497/497/497 495/495/495
f 498/498/498 494/494/494 496/496/496
f 499/499/499 495/495/495 497/497/497
f 496/496/496 500/500/500 498/498/498
f 501/501/501 499/499/499 497/497/497
f 500/500/500 502/502/502 498/498/498
f 499/499/499 501/501/501 503/503/503
f 502/502/502 500/500/500 503/503/503
f 501/501/501 504/504/504 503/503/503
f 504/504/504 502/502/502 503/503/503
f 507/507/507 506/506/506 505/505/505
f 506/506/506 508/508/508 505/505/505
f 509/509/509 507/507/507 505/505/505
f 507/507/507 509/509/509 510/510/510
f 508/508/508 511/511/511 505/505/505
f 511/511/511 508/508/508 512/512/512
f 509/509/509 513/513/513 510/510/510
f 514/514/514 510/510/510 513/513/513
f 509/509/509 505/505/505 515/515/515
f 505/505/505 511/511/511 515/515/515
f 516/516/516 511/511/511 512/512/512
f 512/512/512 517/517/517 516/516/516
f 518/518/518 514/514/514 513/513/513
f 514/514/514 518/518/518 519/519/519
f 509/509/509 520/520/520 513/513/513
f 520/520/520 509/509/509 515/515/515
f 511/511/511 521/521/521 515/515/515
f 521/521/521 511/511/511 516/516/516
f 517/517/517 522/522/522 516/516/516
f 522/522/522 517/517/517 523/523/523
f 520/520/520 515/515/515 524/524/524
f 515/515/515 521/521/521 524/524/524
f 525/525/525 520/520/520 524/524/524
f 521/521/521 526/526/526 524/524/524
f 520/520/520 527/527/527 513/513/513
f 520/520/520 525/525/525 527/527/527
f 518/518/518 513/513/513 527/527/527
f 528/528/528 521/521/521 516/516/516
f 526/526/526 521/521/521 528/528/528
f 516/516/516 522/522/522 528/528/528
f 525/525/525 529/529/529 527/527/527
f 529/529/529 525/525/525 524/524/524
f 530/530/530 518/518/518 527/527/527
f 530/530/530 527/527/527 529/529/529
f 531/531/531 526/526/526 528/528/528
f 524/524/524 526/526/526 531/531/531
f 522/522/522 532/532/532 528/528/528
f 528/528/528 532/532/532 531/531/531
f 518/518/518 530/530/530 533/533/533
f 518/518/518 533/533/533 519/519/519
f 534/534/534 530/530/530 529/529/529
f 534/534/534 529/529/529 524/524/524
f 532/532/532 522/522/522 535/535/535
f 535/535/535 522/522/522 523/523/523
f 532/532/532 536/536/536 531/531/531
f 524/524/524 531/531/531 536/536/536
f 536/536/536 532/532/532 537/537/537
f 537/537/537 532/532/532 535/535/535
f 535/535/535 523/523/523 538/538/538
f 519/519/519 533/533/533 538/538/538
f 523/523/523 539/539/539 538/538/538
f 539/539/539 519/519/519 538/538/538
f 535/535/535 538/538/538 540/540/540
f 538/538/538 533/533/533 540/540/540
f 537/537/537 535/535/535 540/540/540
f 530/530/530 541/541/541 533/533/533
f 533/533/533 541/541/541 540/540/540
f 530/530/530 534/534/534 541/541/541
f 524/524/524 536/536/536 542/542/542
f 542/542/542 536/536/536 537/537/537
f 537/537/537 540/540/540 543/543/543
f 542/542/542 537/537/537 543/543/543
f 542/542/542 543/543/543 524/524/524
f 540/540/540 541/541/541 543/543/543
f 534/534/534 524/524/524 543/543/543
f 541/541/541 544/544/544 543/543/543
f 534/534/534 544/544/544 541/541/541
f 543/543/543 544/544/544 534/534/534
f 547/547/547 546/546/546 545/545/545
f 546/546/546 547/547/547 548/548/548
f 546/546/546 549/549/549 545/545/545
f 550/550/550 546/546/546 548/548/548
f 545/545/545 549/549/549 551/551/551
f 550/550/550 548/548/548 552/552/552
f 549/549/549 553/553/553 551/551/551
f 554/554/554 550/550/550 552/552/552
f 551/551/551 553/553/553 555/555/555
f 554/554/554 552/552/552 556/556/556
f 553/553/553 557/557/557 555/555/555
f 558/558/558 554/554/554 556/556/556
f 555/555/555 557/557/557 559/559/559
f 558/558/558 556/556/556 560/560/560
f 557/557/557 561/561/561 559/559/559
f 562/562/562 558/558/558 560/560/560
f 559/559/559 561/561/561 563/563/563
f 562/562/562 560/560/560 563/563/563
f 561/561/561 564/564/564 563/563/563
f 564/564/564 562/562/562 563/563/563
f 567/567/567 566/566/566 565/565/565
f 566/566/566 567/567/567 568/568/568
f 569/569/569 567/567/567 565/565/565
f 567/567/567 570/570/570 568/568/568
f 569/569/569 565/565/565 571/571/571
f 568/568/568 570/570/570 572/572/572
f 573/573/573 569/569/569 571/571/571
f 570/570/570 574/574/574 572/572/572
f 573/573/573 571/571/571 575/575/575
f 572/572/572 574/574/574 576/576/576
f 577/577/577 573/573/573 575/575/575
f 574/574/574 578/578/578 576/576/576
f 577/577/577 575/575/575 579/579/579
f 576/576/576 578/578/578 580/580/580
f 581/581/581 577/577/577 579/579/579
f 578/578/578 582/582/582 580/580/580
f 581/581/581 579/579/579 583/583/583
f 580/580/580 582/582/582 583/583/583
f 584/584/584 581/581/581 583/583/583
f 582/582/582 584/584/584 583/583/583
