g Gun04
v -0.61273926 -0.06046531 0.14887281
v -0.6127378 -0.07766568 0.14868021
v -0.7920295 -0.07766568 0.14734967
v -0.79203093 -0.060465313 0.14754228
v -0.612484 -0.07737509 0.11448483
v -0.6124855 -0.060174715 0.11467746
v -0.7917774 -0.060174715 0.11334692
v -0.7917758 -0.0773751 0.11315439
v -0.7979305 -0.0773751 0.113108665
v -0.7979319 -0.060174715 0.11330127
v -0.8244123 -0.060174715 0.11310478
v -0.8244108 -0.0773751 0.11291224
v -0.6124855 -0.060174715 0.11467746
v -0.6126131 -0.051719822 0.13187139
v -0.7919048 -0.051719822 0.13054088
v -0.7917774 -0.060174715 0.11334692
v -0.7979319 -0.060174715 0.11330127
v -0.79805946 -0.051719822 0.13049524
v -0.8245398 -0.051719822 0.13029873
v -0.8244123 -0.060174715 0.11310478
v -0.6126131 -0.051719822 0.13187139
v -0.61273926 -0.06046531 0.14887281
v -0.79203093 -0.060465313 0.14754228
v -0.7919048 -0.051719822 0.13054088
v -0.79805946 -0.051719822 0.13049524
v -0.7981857 -0.060465313 0.14749669
v -0.8246659 -0.060465313 0.1473002
v -0.8245398 -0.051719822 0.13029873
v -0.82466453 -0.07766568 0.14710759
v -0.824537 -0.08612057 0.12991355
v -0.8244108 -0.0773751 0.11291224
v -0.8246659 -0.060465313 0.1473002
v -0.8244123 -0.060174715 0.11310478
v -0.8245398 -0.051719822 0.13029873
v -0.7982977 -0.060593653 0.16260041
v -0.792143 -0.060593653 0.16264616
v -0.79214156 -0.07779403 0.16245359
v -0.79829615 -0.07779403 0.16240786
v -0.6127378 -0.07766568 0.14868021
v -0.6126102 -0.08612057 0.1314862
v -0.79190207 -0.08612057 0.13015576
v -0.7920295 -0.07766568 0.14734967
v -0.7981842 -0.07766568 0.14730406
v -0.7980566 -0.08612057 0.1301101
v -0.824537 -0.08612057 0.12991355
v -0.82466453 -0.07766568 0.14710759
v -0.6126102 -0.08612057 0.1314862
v -0.612484 -0.07737509 0.11448483
v -0.7917758 -0.0773751 0.11315439
v -0.79190207 -0.08612057 0.13015576
v -0.7980566 -0.08612057 0.1301101
v -0.7979305 -0.0773751 0.113108665
v -0.8244108 -0.0773751 0.11291224
v -0.824537 -0.08612057 0.12991355
v -0.79203093 -0.060465313 0.14754228
v -0.792143 -0.060593653 0.16264616
v -0.7982977 -0.060593653 0.16260041
v -0.7981857 -0.060465313 0.14749669
v -0.7981857 -0.060465313 0.14749669
v -0.7981842 -0.07766568 0.14730406
v -0.82466453 -0.07766568 0.14710759
v -0.8246659 -0.060465313 0.1473002
v -0.7920295 -0.07766568 0.14734967
v -0.79214156 -0.07779403 0.16245359
v -0.792143 -0.060593653 0.16264616
v -0.79203093 -0.060465313 0.14754228
v -0.7981857 -0.060465313 0.14749669
v -0.7982977 -0.060593653 0.16260041
v -0.79829615 -0.07779403 0.16240786
v -0.7981842 -0.07766568 0.14730406
v -0.7981842 -0.07766568 0.14730406
v -0.79829615 -0.07779403 0.16240786
v -0.79214156 -0.07779403 0.16245359
v -0.7920295 -0.07766568 0.14734967
v -0.602613 -0.07445708 0.10312281
v -0.6026143 -0.06310962 0.10331537
v -0.78190625 -0.06310962 0.10198488
v -0.7819047 -0.07445708 0.10179235
v -0.60265654 -0.074489936 0.10898302
v -0.7819482 -0.074489936 0.10765249
v -0.7819496 -0.06314248 0.10784513
v -0.60265785 -0.06314248 0.10917558
v -0.602613 -0.07445708 0.10312281
v -0.7819047 -0.07445708 0.10179235
v -0.7819482 -0.074489936 0.10765249
v -0.60265654 -0.074489936 0.10898302
v -0.6026143 -0.06310962 0.10331537
v -0.602613 -0.07445708 0.10312281
v -0.60265654 -0.074489936 0.10898302
v -0.60265785 -0.06314248 0.10917558
v -0.78190625 -0.06310962 0.10198488
v -0.6026143 -0.06310962 0.10331537
v -0.60265785 -0.06314248 0.10917558
v -0.7819496 -0.06314248 0.10784513
v -0.7819047 -0.07445708 0.10179235
v -0.78190625 -0.06310962 0.10198488
v -0.7819496 -0.06314248 0.10784513
v -0.7819482 -0.074489936 0.10765249
v -0.50876874 -0.04467954 0.1338328
v -0.51084507 -0.047247842 0.10260946
v -0.17371029 -0.046091054 0.094808236
v -0.17678241 -0.04338659 0.14336863
v -0.17732304 -0.053644974 0.17062667
v -0.5086777 -0.054417837 0.15736596
v -0.5086777 -0.0833723 0.15736596
v -0.17732304 -0.08414523 0.17062667
v -0.5086777 -0.0833723 0.15736596
v -0.17678246 -0.094402365 0.1433701
v -0.5087687 -0.09310942 0.13383424
v -0.5108452 -0.09054111 0.102603145
v -0.17371014 -0.0916979 0.0948015
v -0.17243156 -0.08414523 0.072258145
v -0.51160717 -0.08337131 0.08254784
v -0.51160717 -0.054416656 0.082547836
v -0.51160717 -0.08337131 0.08254784
v -0.17243156 -0.05364265 0.07225814
v -0.12775183 -0.08424474 0.17238505
v 0.020435601 -0.09499461 0.14807321
v -0.12720203 -0.09457018 0.14465596
v 0.023671865 -0.08449942 0.17706797
v 0.023671865 -0.053290814 0.17706797
v -0.12775183 -0.053545475 0.17238505
v -0.12720203 -0.04321878 0.14465451
v 0.33078837 -0.085631266 0.10091554
v 0.020435393 -0.042794336 0.14807168
v -0.007177323 -0.04556259 0.091337256
v -0.12398435 -0.045927975 0.093724705
v -0.122689515 -0.053528894 0.07074491
v 0.329674 -0.040539715 0.0853865
v 0.33009112 -0.047941953 0.09982378
v -0.018259495 -0.053289507 0.06755905
v -0.018259495 -0.08449834 0.067559056
v -0.122689515 -0.08425899 0.07074492
v -0.12398419 -0.09186098 0.09371789
v -0.12720203 -0.09457018 0.14465596
v -0.007178396 -0.092226356 0.09133028
v 0.33065718 -0.09368014 0.086933844
v 0.2792384 -0.052315366 -0.058904722
v 0.34273565 -0.078353435 0.07209614
v 0.34218115 -0.057041336 0.07122777
v 0.34015608 -0.04608459 -0.027995246
v 0.3426311 -0.08290484 0.060975436
v 0.34184927 -0.052855615 0.059744783
v 0.3275453 -0.028565519 -0.02492707
v 0.29180557 -0.044185307 -0.05013804
v 0.34093797 -0.09299988 -0.026770944
v 0.3117299 -0.054917075 -0.0480472
v 0.32852817 -0.111532696 -0.02338772
v 0.31245983 -0.084589206 -0.04696562
v 0.29272342 -0.09665886 -0.04877811
v 0.2798738 -0.08909824 -0.057988144
v 0.3022396 -0.0803139 -0.054291047
v 0.30173427 -0.05951435 -0.055019986
v -0.51160717 -0.054416656 0.082547836
v -0.17243156 -0.05364265 0.07225814
v -0.17371029 -0.046091054 0.094808236
v -0.51084507 -0.047247842 0.10260946
v -0.11751625 -0.063004375 0.1927313
v -0.096167654 -0.063004375 0.19288974
v -0.09616621 -0.075347066 0.19269717
v -0.11751479 -0.075347066 0.19253874
v -0.09598768 -0.06291227 0.16863666
v -0.096167654 -0.063004375 0.19288974
v -0.11751625 -0.063004375 0.1927313
v -0.11733624 -0.06291227 0.16847824
v -0.09598622 -0.07525496 0.16844413
v -0.09616621 -0.075347066 0.19269717
v -0.096167654 -0.063004375 0.19288974
v -0.09598768 -0.06291227 0.16863666
v -0.11733624 -0.06291227 0.16847824
v -0.11751625 -0.063004375 0.1927313
v -0.11751479 -0.075347066 0.19253874
v -0.11733484 -0.07525496 0.16828568
v -0.11733484 -0.07525496 0.16828568
v -0.11751479 -0.075347066 0.19253874
v -0.09616621 -0.075347066 0.19269717
v -0.09598622 -0.07525496 0.16844413
v -0.08694349 -0.055264834 0.06154059
v -0.068055436 -0.055264827 0.019471588
v -0.068055436 -0.084171236 0.019471591
v -0.08694349 -0.08417123 0.061540596
v -0.08694349 -0.08417123 0.061540596
v -0.10666233 -0.08417122 0.0771284
v -0.10666233 -0.055264834 0.077128395
v -0.08694349 -0.055264834 0.06154059
v -0.09878111 -0.055264834 0.05793012
v -0.11849992 -0.055264834 0.07351788
v -0.11849992 -0.08417122 0.07351789
v -0.09878111 -0.08417123 0.057930127
v 0.08339584 -0.08417123 0.025801403
v -0.038619697 -0.084171236 0.01574204
v 0.077658296 -0.08417123 0.03958363
v -0.03583294 -0.08417122 0.00064040604
v -0.068055436 -0.084171236 0.019471591
v -0.075209945 -0.08417122 0.008457891
v -0.09878111 -0.08417123 0.057930127
v -0.08694349 -0.08417123 0.061540596
v -0.10666233 -0.08417122 0.0771284
v -0.11849992 -0.08417122 0.07351789
v -0.038619697 -0.084171236 0.01574204
v -0.038619697 -0.055264827 0.015742036
v 0.077658296 -0.055264823 0.039583623
v 0.077658296 -0.08417123 0.03958363
v 0.08339584 -0.055264827 0.0258014
v -0.03583294 -0.05526483 0.0006404013
v -0.03583294 -0.08417122 0.00064040604
v 0.08339584 -0.08417123 0.025801403
v 0.08339584 -0.055264827 0.0258014
v 0.08339584 -0.08417123 0.025801403
v 0.077658296 -0.08417123 0.03958363
v 0.077658296 -0.055264823 0.039583623
v -0.075209945 -0.08417122 0.008457891
v -0.075209945 -0.05526483 0.008457886
v -0.09878111 -0.055264834 0.05793012
v -0.09878111 -0.08417123 0.057930127
v -0.03583294 -0.05526483 0.0006404013
v -0.075209945 -0.05526483 0.008457886
v -0.075209945 -0.08417122 0.008457891
v -0.03583294 -0.08417122 0.00064040604
v -0.038619697 -0.084171236 0.01574204
v -0.068055436 -0.084171236 0.019471591
v -0.068055436 -0.055264827 0.019471588
v -0.038619697 -0.055264827 0.015742036
v -0.03583294 -0.05526483 0.0006404013
v 0.08339584 -0.055264827 0.0258014
v 0.077658296 -0.055264823 0.039583623
v -0.038619697 -0.055264827 0.015742036
v -0.075209945 -0.05526483 0.008457886
v -0.068055436 -0.055264827 0.019471588
v -0.08694349 -0.055264834 0.06154059
v -0.09878111 -0.055264834 0.05793012
v -0.11849992 -0.055264834 0.07351788
v -0.10666233 -0.055264834 0.077128395
v -0.051608577 -0.055264834 0.07656408
v -0.051608577 -0.08417122 0.07656409
v -0.041244745 -0.08417123 0.030432915
v -0.041244745 -0.055264827 0.030432912
v -0.02398932 -0.055264834 0.07534775
v -0.027555168 -0.055264827 0.029371219
v -0.027555168 -0.08417123 0.029371222
v -0.02398932 -0.08417122 0.07534776
v -0.051608577 -0.08417122 0.07656409
v -0.02398932 -0.08417122 0.07534776
v -0.027555168 -0.08417123 0.029371222
v -0.041244745 -0.08417123 0.030432915
v -0.041244745 -0.08417123 0.030432915
v -0.027555168 -0.08417123 0.029371222
v -0.027555168 -0.055264827 0.029371219
v -0.041244745 -0.055264827 0.030432912
v -0.041244745 -0.055264827 0.030432912
v -0.027555168 -0.055264827 0.029371219
v -0.02398932 -0.055264834 0.07534775
v -0.051608577 -0.055264834 0.07656408
v -0.051608577 -0.055264834 0.07656408
v -0.02398932 -0.055264834 0.07534775
v -0.02398932 -0.08417122 0.07534776
v -0.051608577 -0.08417122 0.07656409
v -0.68218845 -0.09222637 0.10497813
v -0.6823188 -0.081833415 0.11611878
v -0.6825259 -0.085624926 0.12988149
v -0.6431911 -0.07705085 0.1095991
v -0.62202907 -0.092226356 0.10589115
v -0.682572 -0.09499463 0.12963286
v -0.6826891 -0.07649339 0.14723743
v -0.6828157 -0.08449944 0.15358739
v -0.6826891 -0.06129626 0.14723743
v -0.62241256 -0.09499461 0.13054599
v -0.6828157 -0.053290773 0.15358739
v -0.68252575 -0.05216404 0.12988077
v -0.62265617 -0.084499426 0.15450047
v -0.682572 -0.042794343 0.12963144
v -0.682319 -0.05595557 0.11612224
v -0.5394683 -0.09310942 0.13299397
v -0.541447 -0.09054111 0.10332403
v -0.53937167 -0.0833723 0.15628879
v -0.5422052 -0.08337131 0.08342939
v -0.53937167 -0.054417823 0.15628879
v -0.62265617 -0.05329076 0.15450047
v -0.62241256 -0.042794336 0.13054457
v -0.53946835 -0.04467954 0.13299254
v -0.5414469 -0.04724784 0.10333028
v -0.6821885 -0.045562595 0.1049848
v -0.62202907 -0.045562588 0.10589792
v -0.6431911 -0.06073756 0.10959909
v -0.62180805 -0.053289503 0.08511942
v -0.5422052 -0.054416656 0.08342938
v -0.62180805 -0.08449839 0.085119426
v -0.51084507 -0.047247842 0.10260946
v -0.5157835 -0.05246191 0.077792875
v -0.51160717 -0.054416656 0.082547836
v -0.51490366 -0.044329803 0.10053449
v -0.50876874 -0.04467954 0.1338328
v -0.5157835 -0.08532593 0.07779288
v -0.51160717 -0.08337131 0.08254784
v -0.51256865 -0.04141454 0.13566115
v -0.5086777 -0.054417837 0.15736596
v -0.51490355 -0.09345916 0.100527406
v -0.5108452 -0.09054111 0.102603145
v -0.51245713 -0.052467305 0.16231738
v -0.5086777 -0.0833723 0.15736596
v -0.5125686 -0.096374415 0.13566275
v -0.5087687 -0.09310942 0.13383424
v -0.51245713 -0.085322976 0.16231738
v -0.5383439 -0.052435715 0.07837754
v -0.5383439 -0.08535211 0.078377545
v -0.5374881 -0.044288177 0.10103556
v -0.5374882 -0.09350078 0.101028435
v -0.5352093 -0.041365456 0.13507049
v -0.5352093 -0.096423484 0.13507205
v -0.5350567 -0.05242801 0.16162664
v -0.5350567 -0.085362256 0.16162664
v -0.5422052 -0.08337131 0.08342939
v -0.5422052 -0.054416656 0.08342938
v -0.541447 -0.09054111 0.10332403
v -0.5414469 -0.04724784 0.10333028
v -0.5394683 -0.09310942 0.13299397
v -0.53946835 -0.04467954 0.13299254
v -0.53937167 -0.0833723 0.15628879
v -0.53937167 -0.054417823 0.15628879
v -0.122689515 -0.053528894 0.07074491
v -0.1298871 -0.050787885 0.062181532
v -0.12988715 -0.08699981 0.0621815
v -0.122689515 -0.08425899 0.07074492
v -0.12398435 -0.045927975 0.093724705
v -0.13137022 -0.09593701 0.08921407
v -0.12398419 -0.09186098 0.09371789
v -0.13137037 -0.041851956 0.089222096
v -0.12720203 -0.04321878 0.14465451
v -0.1352292 -0.09918802 0.14875533
v -0.12720203 -0.09457018 0.14465596
v -0.13522917 -0.038600944 0.14875357
v -0.12775183 -0.053545475 0.17238505
v -0.13601737 -0.08705358 0.18155609
v -0.12775183 -0.08424474 0.17238505
v -0.13601734 -0.05073686 0.18155606
v -0.16390859 -0.08704422 0.062827185
v -0.16558589 -0.09595017 0.08981702
v -0.16390859 -0.050743464 0.06282721
v -0.16929024 -0.09913746 0.147932
v -0.16558613 -0.0418388 0.08982508
v -0.16980672 -0.0870243 0.18048663
v -0.16929021 -0.038651507 0.1479302
v -0.16980672 -0.05076614 0.18048663
v -0.17371014 -0.0916979 0.0948015
v -0.17678246 -0.094402365 0.1433701
v -0.17243156 -0.08414523 0.072258145
v -0.17732304 -0.08414523 0.17062667
v -0.17243156 -0.05364265 0.07225814
v -0.17732304 -0.053644974 0.17062667
v -0.17371029 -0.046091054 0.094808236
v -0.17678241 -0.04338659 0.14336863
v -0.127202 -0.040805843 0.14465447
v 0.031767428 -0.034237575 0.13184115
v 0.020435393 -0.040381398 0.14807166
v 0.020464867 -0.045071132 0.14865248
v 0.03179699 -0.04587007 0.132422
v -0.12717246 -0.04549558 0.1452353
v -0.12634635 -0.034583513 0.13111128
v -0.12631683 -0.046216007 0.13169213
v 0.020249248 -0.04703675 0.10851182
v 0.020219773 -0.035404257 0.107931
v -0.12483999 -0.03585185 0.10726787
v -0.12481046 -0.04748435 0.1078487
v -0.007147789 -0.04783939 0.091918044
v -0.007177323 -0.043149654 0.091337256
v -0.1239548 -0.04820478 0.094305515
v -0.12398435 -0.043515038 0.093724705
v -0.127202 -0.09896045 0.14465448
v 0.031767428 -0.10552872 0.13184117
v 0.020435393 -0.0993849 0.14807168
v 0.020464867 -0.09469516 0.1486525
v 0.03179699 -0.09389623 0.13242199
v -0.12717246 -0.09427071 0.14523531
v -0.12634635 -0.105182774 0.1311113
v -0.12631683 -0.09355029 0.13169211
v 0.020249248 -0.09272955 0.10851183
v 0.020219773 -0.104362056 0.10793101
v -0.12483999 -0.103914455 0.10726788
v -0.12481046 -0.09228195 0.107848704
v -0.007147789 -0.09192692 0.09191805
v -0.007177323 -0.096616656 0.091337234
v -0.1239548 -0.091561526 0.09430552
v -0.12398435 -0.096251264 0.0937247
vt 0.09518146 0.90586203
vt 0.09518143 0.90586203
vt 0.09518146 0.90586203
vt 0.09518149 0.90586203
vt 0.09518146 0.90586203
vt 0.09518146 0.90586203
vt 0.09518152 0.90586203
vt 0.09518146 0.90586203
vt 0.09518146 0.90586203
vt 0.09518149 0.90586203
vt 0.09518146 0.90586203
vt 0.09518146 0.90586203
vt 0.09518146 0.90586203
vt 0.09518146 0.90586203
vt 0.09518152 0.90586203
vt 0.09518149 0.90586203
vt 0.09518149 0.90586203
vt 0.09518149 0.90586203
vt 0.09518146 0.90586203
vt 0.09518146 0.90586203
vt 0.09518146 0.90586203
vt 0.09518146 0.90586203
vt 0.09518152 0.90586203
vt 0.09518149 0.90586203
vt 0.09518149 0.90586203
vt 0.09518149 0.90586203
vt 0.09518146 0.90586203
vt 0.09518146 0.90586203
vt 0.09518146 0.90586203
vt 0.09518146 0.90586203
vt 0.09518146 0.90586203
vt 0.09518146 0.90586203
vt 0.09518146 0.90586203
vt 0.09518146 0.90586203
vt 0.09518149 0.90586203
vt 0.09518149 0.90586203
vt 0.09518146 0.90586203
vt 0.09518143 0.90586203
vt 0.09518146 0.90586203
vt 0.09518146 0.90586203
vt 0.09518152 0.90586203
vt 0.09518143 0.90586203
vt 0.09518143 0.90586203
vt 0.09518149 0.90586203
vt 0.09518146 0.90586203
vt 0.09518146 0.90586203
vt 0.09518146 0.90586203
vt 0.09518146 0.90586203
vt 0.09518149 0.90586203
vt 0.09518149 0.90586203
vt 0.09518149 0.90586203
vt 0.09518146 0.90586203
vt 0.09518146 0.90586203
vt 0.09518146 0.90586203
vt 0.09518152 0.90586203
vt 0.09518152 0.90586203
vt 0.09518149 0.90586203
vt 0.09518149 0.90586203
vt 0.09518149 0.90586203
vt 0.09518143 0.90586203
vt 0.09518143 0.90586203
vt 0.09518146 0.90586203
vt 0.09518146 0.90586203
vt 0.09518146 0.90586203
vt 0.09518149 0.90586203
vt 0.09518149 0.90586203
vt 0.09518149 0.90586203
vt 0.09518149 0.90586203
vt 0.09518143 0.90586203
vt 0.09518143 0.90586203
vt 0.09518143 0.90586203
vt 0.09518143 0.90586203
vt 0.09518143 0.90586203
vt 0.09518143 0.90586203
vt 0.09518146 0.90586203
vt 0.09518146 0.90586203
vt 0.09518152 0.90586203
vt 0.09518146 0.90586203
vt 0.09518146 0.90586203
vt 0.09518146 0.90586203
vt 0.09518152 0.90586203
vt 0.09518146 0.90586203
vt 0.09518146 0.90586203
vt 0.09518146 0.90586203
vt 0.09518146 0.90586203
vt 0.09518146 0.90586203
vt 0.09518146 0.90586203
vt 0.09518146 0.90586203
vt 0.09518146 0.90586203
vt 0.09518146 0.90586203
vt 0.09518152 0.90586203
vt 0.09518146 0.90586203
vt 0.09518146 0.90586203
vt 0.09518152 0.90586203
vt 0.09518146 0.90586203
vt 0.09518152 0.90586203
vt 0.09518152 0.90586203
vt 0.09518146 0.90586203
vt 0.022407413 0.8442997
vt 0.022407413 0.8442997
vt 0.022407413 0.8442997
vt 0.022407413 0.8442997
vt 0.022407413 0.8442997
vt 0.022407413 0.8442998
vt 0.022407353 0.8442997
vt 0.022407353 0.8442997
vt 0.022407353 0.8442997
vt 0.022407353 0.8442997
vt 0.022407413 0.8442997
vt 0.022407413 0.8442997
vt 0.022407413 0.8442997
vt 0.022407413 0.8442997
vt 0.022407413 0.8442998
vt 0.022407353 0.8442998
vt 0.022407413 0.8442997
vt 0.022407353 0.8442997
vt 0.022407353 0.8442997
vt 0.022407413 0.8442997
vt 0.022407353 0.84429955
vt 0.022407413 0.8442997
vt 0.022407413 0.8442997
vt 0.022407413 0.8442997
vt 0.022407413 0.8442998
vt 0.022407413 0.8442997
vt 0.022407413 0.8442997
vt 0.022407413 0.8442997
vt 0.022407413 0.8442997
vt 0.022407353 0.8442997
vt 0.022407413 0.8442997
vt 0.022407413 0.8442997
vt 0.022407413 0.8442997
vt 0.022407413 0.8442997
vt 0.022407413 0.8442997
vt 0.022407413 0.8442997
vt 0.022407353 0.8442997
vt 0.022407413 0.8442997
vt 0.022407413 0.8442997
vt 0.022407413 0.8442997
vt 0.022407413 0.8442997
vt 0.022407413 0.8442997
vt 0.022407413 0.8442997
vt 0.022407413 0.8442997
vt 0.022407413 0.8442997
vt 0.022407413 0.8442997
vt 0.022407413 0.8442997
vt 0.022407413 0.8442997
vt 0.022407413 0.8442997
vt 0.022407413 0.8442997
vt 0.022407413 0.8442997
vt 0.022407413 0.8442997
vt 0.022407413 0.8442997
vt 0.022407413 0.8442997
vt 0.022407413 0.8442997
vt 0.022407353 0.8442997
vt 0.022407353 0.8442997
vt 0.022407413 0.8442997
vt 0.022407413 0.8442998
vt 0.09518149 0.90586203
vt 0.09518149 0.90586203
vt 0.09518146 0.90586203
vt 0.09518143 0.90586203
vt 0.09518152 0.90586203
vt 0.09518152 0.90586203
vt 0.09518149 0.90586203
vt 0.09518149 0.90586203
vt 0.09518146 0.90586203
vt 0.09518146 0.90586203
vt 0.09518149 0.90586203
vt 0.09518149 0.90586203
vt 0.09518149 0.90586203
vt 0.09518149 0.90586203
vt 0.09518143 0.90586203
vt 0.09518143 0.90586203
vt 0.09518143 0.90586203
vt 0.09518143 0.90586203
vt 0.09518143 0.90586203
vt 0.09518143 0.90586203
vt 0.094435535 0.9057587
vt 0.094435535 0.9057587
vt 0.094435535 0.9057587
vt 0.094435535 0.9057587
vt 0.094435535 0.9057587
vt 0.094435535 0.9057587
vt 0.094435535 0.9057587
vt 0.094435535 0.9057587
vt 0.094435535 0.9057587
vt 0.094435535 0.9057587
vt 0.094435535 0.9057587
vt 0.094435535 0.9057587
vt 0.094435535 0.9057587
vt 0.094435535 0.9057587
vt 0.094435535 0.9057587
vt 0.094435535 0.9057587
vt 0.094435535 0.9057587
vt 0.094435535 0.9057587
vt 0.094435535 0.9057587
vt 0.094435535 0.9057587
vt 0.094435535 0.9057587
vt 0.094435535 0.9057587
vt 0.094435535 0.9057587
vt 0.094435535 0.9057587
vt 0.094435535 0.9057587
vt 0.094435535 0.9057587
vt 0.094435535 0.9057587
vt 0.094435535 0.9057587
vt 0.094435535 0.9057587
vt 0.094435535 0.9057587
vt 0.094435535 0.9057587
vt 0.094435535 0.9057587
vt 0.094435535 0.9057587
vt 0.094435535 0.9057587
vt 0.094435535 0.9057587
vt 0.094435535 0.9057587
vt 0.094435535 0.9057587
vt 0.094435535 0.9057587
vt 0.094435535 0.9057587
vt 0.094435535 0.9057587
vt 0.094435535 0.9057587
vt 0.094435535 0.9057587
vt 0.094435535 0.9057587
vt 0.094435535 0.9057587
vt 0.094435535 0.9057587
vt 0.094435535 0.9057587
vt 0.094435535 0.9057587
vt 0.094435535 0.9057587
vt 0.094435535 0.9057587
vt 0.094435535 0.9057587
vt 0.094435535 0.9057587
vt 0.094435535 0.9057587
vt 0.094435535 0.9057587
vt 0.094435535 0.9057587
vt 0.094435535 0.9057587
vt 0.094435535 0.9057587
vt 0.094435535 0.9057587
vt 0.094435535 0.9057587
vt 0.094435535 0.9057587
vt 0.094435535 0.9057587
vt 0.094435535 0.9057587
vt 0.094435535 0.9057587
vt 0.094435535 0.9057587
vt 0.094435535 0.9057587
vt 0.094435535 0.9057587
vt 0.094435535 0.9057587
vt 0.094435535 0.9057587
vt 0.094435535 0.9057587
vt 0.094435535 0.9057587
vt 0.094435535 0.9057587
vt 0.094435535 0.9057587
vt 0.094435535 0.9057587
vt 0.094435535 0.9057587
vt 0.094435535 0.9057587
vt 0.094435535 0.9057587
vt 0.094435535 0.9057587
vt 0.094435535 0.9057587
vt 0.094435535 0.9057587
vt 0.094435535 0.9057587
vt 0.094435535 0.9057587
vt 0.022407413 0.8442997
vt 0.022407413 0.8442997
vt 0.022407413 0.8442997
vt 0.022407413 0.8442997
vt 0.022407413 0.8442997
vt 0.022407413 0.8442997
vt 0.022407413 0.8442997
vt 0.022407413 0.8442997
vt 0.022407413 0.8442997
vt 0.022407413 0.8442997
vt 0.022407413 0.8442997
vt 0.022407413 0.8442997
vt 0.022407413 0.8442997
vt 0.022407413 0.8442997
vt 0.022407413 0.8442997
vt 0.022407413 0.8442997
vt 0.022407413 0.8442997
vt 0.022407353 0.8442997
vt 0.022407413 0.8442997
vt 0.022407413 0.8442998
vt 0.022407413 0.8442997
vt 0.022407413 0.8442997
vt 0.022407413 0.8442997
vt 0.022407413 0.8442997
vt 0.022407413 0.8442997
vt 0.022407413 0.8442997
vt 0.022407413 0.8442997
vt 0.022407413 0.8442997
vt 0.022407353 0.8442997
vt 0.022407413 0.8442997
vt 0.28079346 0.58912426
vt 0.28079346 0.58912426
vt 0.28079346 0.58912426
vt 0.28079346 0.58912426
vt 0.28079346 0.58912426
vt 0.28079346 0.58912426
vt 0.28079346 0.58912426
vt 0.28079346 0.58912426
vt 0.28079346 0.58912426
vt 0.28079346 0.58912426
vt 0.28079346 0.58912426
vt 0.28079346 0.58912426
vt 0.28079346 0.58912426
vt 0.28079346 0.58912426
vt 0.28079346 0.58912426
vt 0.28079346 0.58912426
vt 0.28079346 0.58912426
vt 0.28079346 0.58912426
vt 0.28079346 0.58912426
vt 0.28079346 0.58912426
vt 0.28079346 0.58912426
vt 0.28079346 0.58912426
vt 0.28079346 0.58912426
vt 0.28079346 0.58912426
vt 0.28079346 0.58912426
vt 0.28079346 0.58912426
vt 0.28079346 0.58912426
vt 0.28079346 0.58912426
vt 0.28079346 0.58912426
vt 0.28079346 0.58912426
vt 0.28079346 0.58912426
vt 0.28079346 0.58912426
vt 0.28079346 0.58912426
vt 0.28079346 0.58912426
vt 0.28079346 0.58912426
vt 0.28079346 0.58912426
vt 0.28079346 0.58912426
vt 0.28079346 0.58912426
vt 0.28079346 0.58912426
vt 0.28079346 0.58912426
vt 0.28079346 0.58912426
vt 0.28079346 0.58912426
vt 0.28079346 0.58912426
vt 0.28079346 0.58912426
vt 0.28079346 0.58912426
vt 0.28079346 0.58912426
vt 0.28079346 0.58912426
vt 0.28079346 0.58912426
vt 0.28079346 0.58912426
vt 0.28079346 0.58912426
vt 0.28079346 0.58912426
vt 0.28079346 0.58912426
vt 0.28079346 0.58912426
vt 0.28079346 0.58912426
vt 0.28079346 0.58912426
vt 0.28079346 0.58912426
vt 0.28079346 0.58912426
vt 0.28079346 0.58912426
vt 0.28079346 0.58912426
vt 0.28079346 0.58912426
vt 0.28079346 0.58912426
vt 0.28079346 0.58912426
vt 0.28079346 0.58912426
vt 0.28079346 0.58912426
vt 0.28142923 0.5891913
vt 0.28142923 0.58919126
vt 0.28142923 0.58919126
vt 0.28142923 0.58919126
vt 0.28142923 0.58919126
vt 0.28142923 0.5891913
vt 0.28142923 0.58919126
vt 0.28142923 0.58919126
vt 0.28142923 0.58919126
vt 0.28142923 0.58919126
vt 0.28142923 0.58919126
vt 0.28142923 0.58919126
vt 0.28142923 0.58919126
vt 0.28142923 0.58919126
vt 0.28142923 0.58919126
vt 0.28142923 0.58919126
vt 0.28142923 0.5891913
vt 0.28142923 0.58919126
vt 0.28142923 0.58919126
vt 0.28142923 0.58919126
vt 0.28142923 0.58919126
vt 0.28142923 0.5891913
vt 0.28142923 0.58919126
vt 0.28142923 0.58919126
vt 0.28142923 0.58919126
vt 0.28142923 0.58919126
vt 0.28142923 0.58919126
vt 0.28142923 0.58919126
vt 0.28142923 0.58919126
vt 0.28142923 0.58919126
vt 0.28142923 0.58919126
vt 0.28142923 0.58919126
vn -0.0074203718 -0.011197312 0.99990976
vn -0.0074203718 -0.011197312 0.99990976
vn -0.0074203718 -0.011197312 0.99990976
vn -0.0074203718 -0.011197312 0.99990976
vn 0.007420169 0.011195856 -0.99990976
vn 0.007420169 0.011195856 -0.99990976
vn 0.007420169 0.011195856 -0.99990976
vn 0.007420169 0.011195856 -0.99990976
vn 0.007418167 0.011195583 -0.9999099
vn 0.007418167 0.011195583 -0.9999099
vn 0.007418167 0.011195583 -0.9999099
vn 0.007418167 0.011195583 -0.9999099
vn 0.0032745146 0.89737856 -0.44124943
vn 0.0032745146 0.89737856 -0.44124943
vn 0.0032745146 0.89737856 -0.44124943
vn 0.0032745146 0.89737856 -0.44124943
vn 0.0032740629 0.8973782 -0.44125006
vn 0.0032740629 0.8973782 -0.44125006
vn 0.0032740629 0.8973782 -0.44125006
vn 0.0032740629 0.8973782 -0.44125006
vn -0.0033944158 0.8892523 0.45740435
vn -0.0033944158 0.8892523 0.45740435
vn -0.0033944158 0.8892523 0.45740435
vn -0.0033944158 0.8892523 0.45740435
vn -0.0033942852 0.8892528 0.45740348
vn -0.0033942852 0.8892528 0.45740348
vn -0.0033942852 0.8892528 0.45740348
vn -0.0033942852 0.8892528 0.45740348
vn -0.99997246 0 -0.0074182553
vn -0.99997246 0 -0.0074182553
vn -0.99997246 0 -0.0074182553
vn -0.99997246 0 -0.0074182553
vn -0.99997246 0 -0.0074182553
vn -0.99997246 0 -0.0074182553
vn -0.0074332003 -0.011194884 0.99990976
vn -0.0074332003 -0.011194884 0.99990976
vn -0.0074332003 -0.011194884 0.99990976
vn -0.0074332003 -0.011194884 0.99990976
vn -0.0032744105 -0.8973787 0.4412491
vn -0.0032744105 -0.8973787 0.4412491
vn -0.0032744105 -0.8973787 0.4412491
vn -0.0032744105 -0.8973787 0.4412491
vn -0.0032745046 -0.89737934 0.44124776
vn -0.0032745046 -0.89737934 0.44124776
vn -0.0032745046 -0.89737934 0.44124776
vn -0.0032745046 -0.89737934 0.44124776
vn 0.003394217 -0.8892523 -0.45740432
vn 0.003394217 -0.8892523 -0.45740432
vn 0.003394217 -0.8892523 -0.45740432
vn 0.003394217 -0.8892523 -0.45740432
vn 0.00339406 -0.88925225 -0.45740458
vn 0.00339406 -0.88925225 -0.45740458
vn 0.00339406 -0.88925225 -0.45740458
vn 0.00339406 -0.88925225 -0.45740458
vn -6.304011E-05 0.9999639 0.008496133
vn -6.304011E-05 0.9999639 0.008496133
vn -6.304011E-05 0.9999639 0.008496133
vn -6.304011E-05 0.9999639 0.008496133
vn -0.00741922 -0.011198154 0.99990976
vn -0.00741922 -0.011198154 0.99990976
vn -0.00741922 -0.011198154 0.99990976
vn -0.00741922 -0.011198154 0.99990976
vn 0.99997246 0 0.007418855
vn 0.99997246 0 0.007418855
vn 0.99997246 0 0.007418855
vn 0.99997246 0 0.007418855
vn -0.9999726 0 -0.0074130534
vn -0.9999726 0 -0.0074130534
vn -0.9999726 0 -0.0074130534
vn -0.9999726 0 -0.0074130534
vn 6.302169E-05 -0.9999639 -0.008497538
vn 6.302169E-05 -0.9999639 -0.008497538
vn 6.302169E-05 -0.9999639 -0.008497538
vn 6.302169E-05 -0.9999639 -0.008497538
vn 0.0074195326 0.016966157 -0.9998286
vn 0.0074195326 0.016966157 -0.9998286
vn 0.0074195326 0.016966157 -0.9998286
vn 0.0074195326 0.016966157 -0.9998286
vn -0.007419534 -0.016970709 0.99982846
vn -0.007419534 -0.016970709 0.99982846
vn -0.007419534 -0.016970709 0.99982846
vn -0.007419534 -0.016970709 0.99982846
vn 4.1604373E-05 -0.99998426 -0.005606609
vn 4.1604373E-05 -0.99998426 -0.005606609
vn 4.1604373E-05 -0.99998426 -0.005606609
vn 4.1604373E-05 -0.99998426 -0.005606609
vn 0.99997234 -1.0502594E-05 0.0074348007
vn 0.99997234 -1.0502594E-05 0.0074348007
vn 0.99997234 -1.0502594E-05 0.0074348007
vn 0.99997234 -1.0502594E-05 0.0074348007
vn -4.1603307E-05 0.99998426 0.0056062792
vn -4.1603307E-05 0.99998426 0.0056062792
vn -4.1603307E-05 0.99998426 0.0056062792
vn -4.1603307E-05 0.99998426 0.0056062792
vn -0.9999726 0 -0.0074094506
vn -0.9999726 0 -0.0074094506
vn -0.9999726 0 -0.0074094506
vn -0.9999726 0 -0.0074094506
vn 0.36403397 0.9250089 0.10880124
vn 0.34471124 0.9171242 -0.20014311
vn -0.28727898 0.93941724 -0.18699229
vn -0.30507255 0.9461949 0.10791682
vn -0.5115003 0.5415921 0.66711724
vn 0.51488584 0.51781565 0.68319803
vn 0.5148966 -0.51782644 0.68318176
vn -0.5115332 -0.5415947 0.6670899
vn 0.5148966 -0.51782644 0.68318176
vn -0.30507255 -0.9461949 0.10791682
vn 0.36403397 -0.9250089 0.10880124
vn 0.34474567 -0.91710407 -0.20017588
vn -0.28727567 -0.9394064 -0.18705116
vn -0.47514898 -0.5512937 -0.68579054
vn 0.48754567 -0.53433174 -0.69049895
vn 0.48755032 0.5343979 -0.69044447
vn 0.48754567 -0.53433174 -0.69049895
vn -0.47515294 0.55135924 -0.68573517
vn 0.45104435 -0.5567631 0.6975485
vn 0.009399751 -0.9809007 0.19428188
vn 0.28923243 -0.94778025 0.13437696
vn 0.08936074 -0.5352488 0.8399543
vn 0.08572864 0.5448301 0.83415276
vn 0.45104435 0.5567631 0.6975485
vn 0.28923243 0.94778025 0.13437696
vn 0.57867384 -0.45479658 0.6769761
vn 0.0032044696 0.9833754 0.18155609
vn -0.05307221 0.984903 -0.16477104
vn 0.27671823 0.95030916 -0.14261656
vn 0.45913124 0.58764774 -0.66623473
vn 0.46214816 0.86835515 0.17993961
vn 0.5678501 0.49222222 0.65974504
vn -0.171977 0.6095341 -0.77388126
vn -0.17212668 -0.6176723 -0.76736766
vn 0.45913017 -0.5876158 -0.66626364
vn 0.27674523 -0.950297 -0.14264525
vn 0.28923243 -0.94778025 0.13437696
vn -0.050935637 -0.98700386 -0.15241016
vn 0.47454306 -0.85441554 0.21162014
vn -0.09393773 0.48153004 -0.8713808
vn 0.9636395 -0.17197494 0.20450827
vn 0.9590295 0.21082535 0.18924841
vn 0.8275946 0.33076927 -0.45351827
vn 0.94942 -0.3096472 0.052157212
vn 0.94031125 0.33829963 0.03698865
vn 0.4056043 0.8666931 -0.2903931
vn 0.13910623 0.8334777 -0.53475636
vn 0.8379839 -0.3222475 -0.4403856
vn 0.48345605 0.24375755 -0.8407453
vn 0.4211924 -0.8662202 -0.26881117
vn 0.4909641 -0.25208947 -0.8339096
vn 0.15781592 -0.84099317 -0.5175178
vn -0.08575966 -0.5122995 -0.8545141
vn 0.37691724 -0.19740085 -0.9049676
vn 0.36604482 0.17426345 -0.9141354
vn 0.48755032 0.5343979 -0.69044447
vn -0.47515294 0.55135924 -0.68573517
vn -0.28727898 0.93941724 -0.18699229
vn 0.34471124 0.9171242 -0.20014311
vn -0.0074203424 -0.015600305 0.99985075
vn -0.0074203424 -0.015600305 0.99985075
vn -0.0074203424 -0.015600305 0.99985075
vn -0.0074203424 -0.015600305 0.99985075
vn -2.8180591E-05 0.99999285 0.003797544
vn -2.8180591E-05 0.99999285 0.003797544
vn -2.8180591E-05 0.99999285 0.003797544
vn -2.8180591E-05 0.99999285 0.003797544
vn 0.99997246 0 0.0074208695
vn 0.99997246 0 0.0074208695
vn 0.99997246 0 0.0074208695
vn 0.99997246 0 0.0074208695
vn -0.99997246 0 -0.00742056
vn -0.99997246 0 -0.00742056
vn -0.99997246 0 -0.00742056
vn -0.99997246 0 -0.00742056
vn 2.8184093E-05 -0.99999285 -0.0037973174
vn 2.8184093E-05 -0.99999285 -0.0037973174
vn 2.8184093E-05 -0.99999285 -0.0037973174
vn 2.8184093E-05 -0.99999285 -0.0037973174
vn 0.91227007 0 0.4095893
vn 0.91227007 0 0.4095893
vn 0.91227007 0 0.4095893
vn 0.91227007 0 0.4095893
vn 0.6201416 0 0.78448987
vn 0.6201416 0 0.78448987
vn 0.6201416 0 0.78448987
vn 0.6201416 0 0.78448987
vn -0.6201413 0 -0.78449005
vn -0.6201413 0 -0.78449005
vn -0.6201413 0 -0.78449005
vn -0.6201413 0 -0.78449005
vn -0 -1 0
vn -0 -1 0
vn -0 -1 0
vn -0 -1 0
vn -0 -1 0
vn -0 -1 0
vn -0 -1 0
vn -0 -1 0
vn -0 -1 0
vn -0 -1 0
vn -0.20086077 0 0.9796198
vn -0.20086077 0 0.9796198
vn -0.20086077 0 0.9796198
vn -0.20086077 0 0.9796198
vn 0.20648357 0 -0.9784501
vn 0.20648357 0 -0.9784501
vn 0.20648357 0 -0.9784501
vn 0.20648357 0 -0.9784501
vn 0.923197 0 0.38432705
vn 0.923197 0 0.38432705
vn 0.923197 0 0.38432705
vn 0.923197 0 0.38432705
vn -0.9027687 0 -0.43012628
vn -0.9027687 0 -0.43012628
vn -0.9027687 0 -0.43012628
vn -0.9027687 0 -0.43012628
vn -0.19472876 0 -0.98085713
vn -0.19472876 0 -0.98085713
vn -0.19472876 0 -0.98085713
vn -0.19472876 0 -0.98085713
vn 0.12569654 0 0.99206877
vn 0.12569654 0 0.99206877
vn 0.12569654 0 0.99206877
vn 0.12569654 0 0.99206877
vn -0 1 0
vn -0 1 0
vn -0 1 0
vn -0 1 0
vn -0 1 0
vn -0 1 0
vn -0 1 0
vn -0 1 0
vn -0 1 0
vn -0 1 0
vn -0.9756807 0 -0.21919645
vn -0.9756807 0 -0.21919645
vn -0.9756807 0 -0.21919645
vn -0.9756807 0 -0.21919645
vn 0.9970059 0 -0.07732577
vn 0.9970059 0 -0.07732577
vn 0.9970059 0 -0.07732577
vn 0.9970059 0 -0.07732577
vn -0 -1 0
vn -0 -1 0
vn -0 -1 0
vn -0 -1 0
vn -0.07732257 0 -0.9970061
vn -0.07732257 0 -0.9970061
vn -0.07732257 0 -0.9970061
vn -0.07732257 0 -0.9970061
vn -0 1 0
vn -0 1 0
vn -0 1 0
vn -0 1 0
vn 0.043996613 0 0.99903166
vn 0.043996613 0 0.99903166
vn 0.043996613 0 0.99903166
vn 0.043996613 0 0.99903166
vn -0.47729698 -0.4139992 -0.77510786
vn -0.8209095 0.25865152 -0.50912386
vn -0.999897 0.0049135736 -0.013489438
vn -0.480492 0.13492474 -0.866558
vn -0.15262581 -0.93534803 -0.31910726
vn -0.6568288 -0.7467682 0.10446637
vn -0.999856 0.0022889078 -0.016815845
vn -0.612273 -0.4358424 0.6596691
vn -0.999856 -0.0022889078 -0.016815845
vn 0.006164843 -0.98869437 0.1498179
vn -0.6122811 0.4358177 0.65967786
vn -0.999897 -0.0049135736 -0.013489438
vn -0.010712287 -0.55105716 0.8343987
vn -0.6568288 0.7467682 0.10446637
vn -0.8209036 -0.25849706 -0.5092117
vn -0.36042714 -0.9220648 0.14102742
vn -0.33699274 -0.9245479 -0.17789628
vn -0.5112285 -0.5072 0.69382536
vn -0.5227985 -0.5358608 -0.66297436
vn -0.511206 0.50720793 0.6938362
vn -0.010712287 0.55105716 0.8343987
vn 0.006164843 0.98869437 0.1498179
vn -0.36042714 0.9220648 0.14102742
vn -0.33695984 0.9245719 -0.17783397
vn -0.47729018 0.41408488 -0.7750663
vn -0.1525648 0.9353788 -0.31904632
vn -0.4804951 -0.13468145 -0.86659414
vn -0.37163526 0.5185864 -0.770036
vn -0.5227919 0.53591514 -0.66293555
vn -0.37162957 -0.5185174 -0.7700853
vn 0.34471124 0.9171242 -0.20014311
vn 0.3640036 0.51864487 -0.77363354
vn 0.48755032 0.5343979 -0.69044447
vn 0.3275285 0.9179771 -0.22370331
vn 0.36403397 0.9250089 0.10880124
vn 0.36400077 -0.51861036 -0.77365804
vn 0.48754567 -0.53433174 -0.69049895
vn 0.35051262 0.92451704 0.14969651
vn 0.51488584 0.51781565 0.68319803
vn 0.3275332 -0.91795975 -0.22376756
vn 0.34474567 -0.91710407 -0.20017588
vn 0.39043447 0.49743536 0.77467346
vn 0.5148966 -0.51782644 0.68318176
vn 0.35053942 -0.92450726 0.14969493
vn 0.36403397 -0.9250089 0.10880124
vn 0.39043775 -0.4974701 0.7746495
vn -0.40947336 0.5194028 -0.75003487
vn -0.409477 -0.51934636 -0.750072
vn -0.33870605 0.920775 -0.19352451
vn -0.33870202 -0.920764 -0.19358324
vn -0.3296026 0.92957085 0.16510648
vn -0.3296026 -0.92957085 0.16510648
vn -0.39958596 0.5002073 0.7681951
vn -0.39958596 -0.5002073 0.7681951
vn -0.5227985 -0.5358608 -0.66297436
vn -0.5227919 0.53591514 -0.66293555
vn -0.33699274 -0.9245479 -0.17789628
vn -0.33695984 0.9245719 -0.17783397
vn -0.36042714 -0.9220648 0.14102742
vn -0.36042714 0.9220648 0.14102742
vn -0.5112285 -0.5072 0.69382536
vn -0.511206 0.50720793 0.6938362
vn 0.45913124 0.58764774 -0.66623473
vn 0.37129366 0.52898514 -0.7630961
vn 0.37129703 -0.52892894 -0.7631335
vn 0.45913017 -0.5876158 -0.66626364
vn 0.27671823 0.95030916 -0.14261656
vn 0.27775365 -0.94410604 -0.17752919
vn 0.27674523 -0.950297 -0.14264525
vn 0.27772853 0.94412434 -0.17747156
vn 0.28923243 0.94778025 0.13437696
vn 0.27534726 -0.946014 0.17100094
vn 0.28923243 -0.94778025 0.13437696
vn 0.27534583 0.9460091 0.17103058
vn 0.45104435 0.5567631 0.6975485
vn 0.3494459 -0.5138839 0.7834608
vn 0.45104435 -0.5567631 0.6975485
vn 0.34944308 0.51384914 0.78348494
vn -0.3636634 -0.52681756 -0.7682527
vn -0.28392017 -0.9363291 -0.20658448
vn -0.36366025 0.526874 -0.7682155
vn -0.30482513 -0.94035566 0.15103921
vn -0.2839156 0.9363447 -0.20652016
vn -0.4036196 -0.5107734 0.7590796
vn -0.30482513 0.94035566 0.15103921
vn -0.40362588 0.5107508 0.7590914
vn -0.28727567 -0.9394064 -0.18705116
vn -0.30507255 -0.9461949 0.10791682
vn -0.47514898 -0.5512937 -0.68579054
vn -0.5115332 -0.5415947 0.6670899
vn -0.47515294 0.55135924 -0.68573517
vn -0.5115003 0.5415921 0.66711724
vn -0.28727898 0.93941724 -0.18699229
vn -0.30507255 0.9461949 0.10791682
vn -0.6466817 0.4752221 0.59662944
vn 0.7556625 0.6457008 0.10974808
vn 0.349019 0.50536954 0.7891687
vn 0.35493812 -0.5594777 0.7490018
vn 0.7935906 -0.60061777 0.09732571
vn -0.5983623 -0.5263672 0.6040695
vn -0.6624259 0.7433637 0.09274878
vn -0.70362157 -0.71051896 -0.008911625
vn 0.564579 -0.67521197 -0.47469926
vn 0.5421527 0.6228163 -0.5640658
vn -0.6538438 0.721688 -0.22727662
vn -0.70340675 -0.7107314 -0.008942129
vn 0.20121208 -0.6990998 -0.68612915
vn 0.18393956 0.41857162 -0.8893616
vn -0.56325823 -0.62951493 -0.5352113
vn -0.59155947 0.37181905 -0.71540755
vn 0.6466817 0.4752221 -0.59662944
vn -0.7556625 0.6457008 -0.10974808
vn -0.349019 0.50536954 -0.7891687
vn -0.35493812 -0.5594777 -0.7490018
vn -0.7935906 -0.60061777 -0.09732571
vn 0.5983623 -0.5263672 -0.6040695
vn 0.6624259 0.7433637 -0.09274878
vn 0.70362157 -0.71051896 0.008911625
vn -0.564579 -0.67521197 0.47469926
vn -0.5421527 0.6228163 0.5640658
vn 0.6538438 0.721688 0.22727662
vn 0.70340675 -0.7107314 0.008942129
vn -0.20121208 -0.6990998 0.68612915
vn -0.18393956 0.41857162 0.8893616
vn 0.56325823 -0.62951493 0.5352113
vn 0.59155947 0.37181905 0.71540755
g Gun04_0
f 3/3/3 2/2/2 1/1/1
f 4/4/4 3/3/3 1/1/1
f 7/7/7 6/6/6 5/5/5
f 8/8/8 7/7/7 5/5/5
f 7/7/7 8/8/8 9/9/9
f 10/10/10 7/7/7 9/9/9
f 11/11/11 10/10/10 9/9/9
f 12/12/12 11/11/11 9/9/9
f 15/15/15 14/14/14 13/13/13
f 16/16/16 15/15/15 13/13/13
f 15/15/15 16/16/16 17/17/17
f 18/18/18 15/15/15 17/17/17
f 19/19/19 18/18/18 17/17/17
f 20/20/20 19/19/19 17/17/17
f 23/23/23 22/22/22 21/21/21
f 24/24/24 23/23/23 21/21/21
f 23/23/23 24/24/24 25/25/25
f 26/26/26 23/23/23 25/25/25
f 27/27/27 26/26/26 25/25/25
f 28/28/28 27/27/27 25/25/25
f 31/31/31 30/30/30 29/29/29
f 29/29/29 32/32/32 31/31/31
f 32/32/32 33/33/33 31/31/31
f 32/32/32 34/34/34 33/33/33
f 37/37/37 36/36/36 35/35/35
f 38/38/38 37/37/37 35/35/35
f 41/41/41 40/40/40 39/39/39
f 42/42/42 41/41/41 39/39/39
f 41/41/41 42/42/42 43/43/43
f 44/44/44 41/41/41 43/43/43
f 45/45/45 44/44/44 43/43/43
f 46/46/46 45/45/45 43/43/43
f 49/49/49 48/48/48 47/47/47
f 50/50/50 49/49/49 47/47/47
f 49/49/49 50/50/50 51/51/51
f 52/52/52 49/49/49 51/51/51
f 53/53/53 52/52/52 51/51/51
f 54/54/54 53/53/53 51/51/51
f 57/57/57 56/56/56 55/55/55
f 58/58/58 57/57/57 55/55/55
f 61/61/61 60/60/60 59/59/59
f 62/62/62 61/61/61 59/59/59
f 65/65/65 64/64/64 63/63/63
f 66/66/66 65/65/65 63/63/63
f 69/69/69 68/68/68 67/67/67
f 70/70/70 69/69/69 67/67/67
f 73/73/73 72/72/72 71/71/71
f 74/74/74 73/73/73 71/71/71
f 77/77/77 76/76/76 75/75/75
f 78/78/78 77/77/77 75/75/75
f 81/81/81 80/80/80 79/79/79
f 82/82/82 81/81/81 79/79/79
f 85/85/85 84/84/84 83/83/83
f 86/86/86 85/85/85 83/83/83
f 89/89/89 88/88/88 87/87/87
f 90/90/90 89/89/89 87/87/87
f 93/93/93 92/92/92 91/91/91
f 94/94/94 93/93/93 91/91/91
f 97/97/97 96/96/96 95/95/95
f 98/98/98 97/97/97 95/95/95
f 101/101/101 100/100/100 99/99/99
f 102/102/102 101/101/101 99/99/99
f 103/103/103 102/102/102 99/99/99
f 104/104/104 103/103/103 99/99/99
f 103/103/103 104/104/104 105/105/105
f 106/106/106 103/103/103 105/105/105
f 108/108/108 106/106/106 107/107/107
f 109/109/109 108/108/108 107/107/107
f 108/108/108 109/109/109 110/110/110
f 111/111/111 108/108/108 110/110/110
f 111/111/111 110/110/110 112/112/112
f 110/110/110 113/113/113 112/112/112
f 112/112/112 115/115/115 114/114/114
f 116/116/116 112/112/112 114/114/114
f 119/119/119 118/118/118 117/117/117
f 118/118/118 120/120/120 117/117/117
f 120/120/120 121/121/121 117/117/117
f 121/121/121 122/122/122 117/117/117
f 122/122/122 121/121/121 123/123/123
f 120/120/120 118/118/118 124/124/124
f 121/121/121 120/120/120 124/124/124
f 121/121/121 125/125/125 123/123/123
f 125/125/125 126/126/126 123/123/123
f 126/126/126 127/127/127 123/123/123
f 127/127/127 126/126/126 128/128/128
f 129/129/129 125/125/125 121/121/121
f 126/126/126 125/125/125 129/129/129
f 130/130/130 121/121/121 124/124/124
f 130/130/130 129/129/129 121/121/121
f 126/126/126 131/131/131 128/128/128
f 131/131/131 132/132/132 128/128/128
f 132/132/132 133/133/133 128/128/128
f 134/134/134 133/133/133 132/132/132
f 118/118/118 135/135/135 134/134/134
f 136/136/136 118/118/118 134/134/134
f 136/136/136 134/134/134 132/132/132
f 118/118/118 137/137/137 124/124/124
f 137/137/137 118/118/118 136/136/136
f 138/138/138 131/131/131 126/126/126
f 132/132/132 131/131/131 138/138/138
f 124/124/124 139/139/139 130/130/130
f 130/130/130 140/140/140 129/129/129
f 139/139/139 140/140/140 130/130/130
f 141/141/141 140/140/140 139/139/139
f 141/141/141 139/139/139 142/142/142
f 142/142/142 139/139/139 124/124/124
f 137/137/137 142/142/142 124/124/124
f 140/140/140 143/143/143 129/129/129
f 141/141/141 143/143/143 140/140/140
f 129/129/129 143/143/143 144/144/144
f 126/126/126 129/129/129 144/144/144
f 143/143/143 141/141/141 144/144/144
f 144/144/144 145/145/145 126/126/126
f 145/145/145 138/138/138 126/126/126
f 144/144/144 141/141/141 145/145/145
f 146/146/146 142/142/142 137/137/137
f 142/142/142 146/146/146 141/141/141
f 141/141/141 147/147/147 145/145/145
f 145/145/145 147/147/147 138/138/138
f 148/148/148 146/146/146 137/137/137
f 148/148/148 137/137/137 136/136/136
f 141/141/141 146/146/146 149/149/149
f 149/149/149 146/146/146 148/148/148
f 149/149/149 147/147/147 141/141/141
f 136/136/136 150/150/150 148/148/148
f 150/150/150 149/149/149 148/148/148
f 136/136/136 132/132/132 150/150/150
f 151/151/151 132/132/132 138/138/138
f 132/132/132 151/151/151 150/150/150
f 152/152/152 149/149/149 150/150/150
f 149/149/149 152/152/152 147/147/147
f 151/151/151 152/152/152 150/150/150
f 147/147/147 153/153/153 138/138/138
f 152/152/152 153/153/153 147/147/147
f 153/153/153 152/152/152 151/151/151
f 138/138/138 153/153/153 151/151/151
f 156/156/156 155/155/155 154/154/154
f 157/157/157 156/156/156 154/154/154
f 160/160/160 159/159/159 158/158/158
f 161/161/161 160/160/160 158/158/158
f 164/164/164 163/163/163 162/162/162
f 165/165/165 164/164/164 162/162/162
f 168/168/168 167/167/167 166/166/166
f 169/169/169 168/168/168 166/166/166
f 172/172/172 171/171/171 170/170/170
f 173/173/173 172/172/172 170/170/170
f 176/176/176 175/175/175 174/174/174
f 177/177/177 176/176/176 174/174/174
f 180/180/180 179/179/179 178/178/178
f 181/181/181 180/180/180 178/178/178
f 184/184/184 183/183/183 182/182/182
f 185/185/185 184/184/184 182/182/182
f 188/188/188 187/187/187 186/186/186
f 189/189/189 188/188/188 186/186/186
f 192/192/192 191/191/191 190/190/190
f 191/191/191 193/193/193 190/190/190
f 193/193/193 191/191/191 194/194/194
f 195/195/195 193/193/193 194/194/194
f 196/196/196 195/195/195 194/194/194
f 197/197/197 196/196/196 194/194/194
f 197/197/197 198/198/198 196/196/196
f 198/198/198 199/199/199 196/196/196
f 202/202/202 201/201/201 200/200/200
f 203/203/203 202/202/202 200/200/200
f 206/206/206 205/205/205 204/204/204
f 207/207/207 206/206/206 204/204/204
f 210/210/210 209/209/209 208/208/208
f 211/211/211 210/210/210 208/208/208
f 214/214/214 213/213/213 212/212/212
f 215/215/215 214/214/214 212/212/212
f 218/218/218 217/217/217 216/216/216
f 219/219/219 218/218/218 216/216/216
f 222/222/222 221/221/221 220/220/220
f 223/223/223 222/222/222 220/220/220
f 226/226/226 225/225/225 224/224/224
f 227/227/227 226/226/226 224/224/224
f 224/224/224 228/228/228 227/227/227
f 228/228/228 229/229/229 227/227/227
f 230/230/230 229/229/229 228/228/228
f 231/231/231 230/230/230 228/228/228
f 231/231/231 232/232/232 230/230/230
f 232/232/232 233/233/233 230/230/230
f 236/236/236 235/235/235 234/234/234
f 237/237/237 236/236/236 234/234/234
f 240/240/240 239/239/239 238/238/238
f 241/241/241 240/240/240 238/238/238
f 244/244/244 243/243/243 242/242/242
f 245/245/245 244/244/244 242/242/242
f 248/248/248 247/247/247 246/246/246
f 249/249/249 248/248/248 246/246/246
f 252/252/252 251/251/251 250/250/250
f 253/253/253 252/252/252 250/250/250
f 256/256/256 255/255/255 254/254/254
f 257/257/257 256/256/256 254/254/254
f 260/260/260 259/259/259 258/258/258
f 258/258/258 259/259/259 261/261/261
f 262/262/262 258/258/258 261/261/261
f 263/263/263 260/260/260 258/258/258
f 263/263/263 258/258/258 262/262/262
f 264/264/264 260/260/260 263/263/263
f 265/265/265 264/264/264 263/263/263
f 266/266/266 264/264/264 265/265/265
f 267/267/267 263/263/263 262/262/262
f 265/265/265 263/263/263 267/267/267
f 268/268/268 266/266/266 265/265/265
f 269/269/269 266/266/266 268/268/268
f 270/270/270 265/265/265 267/267/267
f 268/268/268 265/265/265 270/270/270
f 271/271/271 269/269/269 268/268/268
f 272/272/272 269/269/269 271/271/271
f 273/273/273 267/267/267 262/262/262
f 267/267/267 273/273/273 270/270/270
f 274/274/274 273/273/273 262/262/262
f 273/273/273 275/275/275 270/270/270
f 274/274/274 262/262/262 276/276/276
f 275/275/275 277/277/277 270/270/270
f 278/278/278 268/268/268 270/270/270
f 277/277/277 278/278/278 270/270/270
f 271/271/271 268/268/268 278/278/278
f 278/278/278 277/277/277 279/279/279
f 279/279/279 271/271/271 278/278/278
f 277/277/277 280/280/280 279/279/279
f 280/280/280 281/281/281 279/279/279
f 282/282/282 272/272/272 271/271/271
f 282/282/282 271/271/271 279/279/279
f 272/272/272 282/282/282 283/283/283
f 283/283/283 282/282/282 279/279/279
f 281/281/281 283/283/283 279/279/279
f 284/284/284 272/272/272 283/283/283
f 283/283/283 281/281/281 285/285/285
f 285/285/285 284/284/284 283/283/283
f 281/281/281 286/286/286 285/285/285
f 261/261/261 284/284/284 285/285/285
f 286/286/286 276/276/276 285/285/285
f 287/287/287 261/261/261 285/285/285
f 276/276/276 287/287/287 285/285/285
f 262/262/262 261/261/261 287/287/287
f 262/262/262 287/287/287 276/276/276
f 290/290/290 289/289/289 288/288/288
f 289/289/289 291/291/291 288/288/288
f 288/288/288 291/291/291 292/292/292
f 293/293/293 289/289/289 290/290/290
f 294/294/294 293/293/293 290/290/290
f 291/291/291 295/295/295 292/292/292
f 292/292/292 295/295/295 296/296/296
f 293/293/293 294/294/294 297/297/297
f 294/294/294 298/298/298 297/297/297
f 295/295/295 299/299/299 296/296/296
f 296/296/296 299/299/299 300/300/300
f 301/301/301 297/297/297 298/298/298
f 302/302/302 301/301/301 298/298/298
f 300/300/300 303/303/303 302/302/302
f 299/299/299 303/303/303 300/300/300
f 303/303/303 301/301/301 302/302/302
f 291/291/291 289/289/289 304/304/304
f 289/289/289 293/293/293 305/305/305
f 304/304/304 289/289/289 305/305/305
f 295/295/295 291/291/291 306/306/306
f 306/306/306 291/291/291 304/304/304
f 297/297/297 307/307/307 293/293/293
f 307/307/307 305/305/305 293/293/293
f 299/299/299 295/295/295 308/308/308
f 308/308/308 295/295/295 306/306/306
f 297/297/297 301/301/301 309/309/309
f 307/307/307 297/297/297 309/309/309
f 303/303/303 299/299/299 310/310/310
f 310/310/310 299/299/299 308/308/308
f 301/301/301 303/303/303 311/311/311
f 309/309/309 301/301/301 311/311/311
f 311/311/311 303/303/303 310/310/310
f 305/305/305 312/312/312 304/304/304
f 312/312/312 313/313/313 304/304/304
f 304/304/304 313/313/313 306/306/306
f 312/312/312 305/305/305 314/314/314
f 305/305/305 307/307/307 314/314/314
f 313/313/313 315/315/315 306/306/306
f 306/306/306 315/315/315 308/308/308
f 316/316/316 314/314/314 307/307/307
f 309/309/309 316/316/316 307/307/307
f 315/315/315 317/317/317 308/308/308
f 308/308/308 317/317/317 310/310/310
f 318/318/318 316/316/316 309/309/309
f 311/311/311 318/318/318 309/309/309
f 317/317/317 319/319/319 310/310/310
f 319/319/319 318/318/318 311/311/311
f 310/310/310 319/319/319 311/311/311
f 322/322/322 321/321/321 320/320/320
f 323/323/323 322/322/322 320/320/320
f 320/320/320 321/321/321 324/324/324
f 322/322/322 323/323/323 325/325/325
f 323/323/323 326/326/326 325/325/325
f 321/321/321 327/327/327 324/324/324
f 324/324/324 327/327/327 328/328/328
f 329/329/329 325/325/325 326/326/326
f 330/330/330 329/329/329 326/326/326
f 327/327/327 331/331/331 328/328/328
f 328/328/328 331/331/331 332/332/332
f 333/333/333 329/329/329 330/330/330
f 334/334/334 333/333/333 330/330/330
f 332/332/332 335/335/335 334/334/334
f 331/331/331 335/335/335 332/332/332
f 335/335/335 333/333/333 334/334/334
f 321/321/321 322/322/322 336/336/336
f 325/325/325 337/337/337 322/322/322
f 337/337/337 336/336/336 322/322/322
f 327/327/327 321/321/321 338/338/338
f 338/338/338 321/321/321 336/336/336
f 325/325/325 329/329/329 339/339/339
f 337/337/337 325/325/325 339/339/339
f 331/331/331 327/327/327 340/340/340
f 340/340/340 327/327/327 338/338/338
f 329/329/329 333/333/333 341/341/341
f 339/339/339 329/329/329 341/341/341
f 335/335/335 331/331/331 342/342/342
f 342/342/342 331/331/331 340/340/340
f 333/333/333 335/335/335 343/343/343
f 341/341/341 333/333/333 343/343/343
f 343/343/343 335/335/335 342/342/342
f 336/336/336 337/337/337 344/344/344
f 345/345/345 344/344/344 337/337/337
f 339/339/339 345/345/345 337/337/337
f 346/346/346 336/336/336 344/344/344
f 336/336/336 346/346/346 338/338/338
f 347/347/347 345/345/345 339/339/339
f 341/341/341 347/347/347 339/339/339
f 346/346/346 348/348/348 338/338/338
f 338/338/338 348/348/348 340/340/340
f 349/349/349 347/347/347 341/341/341
f 343/343/343 349/349/349 341/341/341
f 348/348/348 350/350/350 340/340/340
f 340/340/340 350/350/350 342/342/342
f 351/351/351 349/349/349 343/343/343
f 342/342/342 351/351/351 343/343/343
f 350/350/350 351/351/351 342/342/342
f 354/354/354 353/353/353 352/352/352
f 355/355/355 354/354/354 352/352/352
f 355/355/355 356/356/356 354/354/354
f 356/356/356 353/353/353 354/354/354
f 357/357/357 355/355/355 352/352/352
f 356/356/356 355/355/355 357/357/357
f 357/357/357 352/352/352 358/358/358
f 353/353/353 358/358/358 352/352/352
f 359/359/359 356/356/356 357/357/357
f 359/359/359 357/357/357 358/358/358
f 356/356/356 360/360/360 353/353/353
f 356/356/356 359/359/359 360/360/360
f 358/358/358 353/353/353 361/361/361
f 360/360/360 361/361/361 353/353/353
f 359/359/359 358/358/358 362/362/362
f 362/362/362 358/358/358 361/361/361
f 359/359/359 363/363/363 360/360/360
f 363/363/363 359/359/359 362/362/362
f 360/360/360 364/364/364 361/361/361
f 364/364/364 360/360/360 363/363/363
f 361/361/361 365/365/365 362/362/362
f 364/364/364 365/365/365 361/361/361
f 366/366/366 364/364/364 363/363/363
f 364/364/364 366/366/366 365/365/365
f 365/365/365 367/367/367 362/362/362
f 363/363/363 362/362/362 367/367/367
f 366/366/366 363/363/363 367/367/367
f 366/366/366 367/367/367 365/365/365
f 370/370/370 369/369/369 368/368/368
f 371/371/371 370/370/370 368/368/368
f 371/371/371 372/372/372 370/370/370
f 372/372/372 369/369/369 370/370/370
f 373/373/373 371/371/371 368/368/368
f 372/372/372 371/371/371 373/373/373
f 373/373/373 368/368/368 374/374/374
f 369/369/369 374/374/374 368/368/368
f 375/375/375 372/372/372 373/373/373
f 375/375/375 373/373/373 374/374/374
f 372/372/372 376/376/376 369/369/369
f 372/372/372 375/375/375 376/376/376
f 374/374/374 369/369/369 377/377/377
f 376/376/376 377/377/377 369/369/369
f 375/375/375 374/374/374 378/378/378
f 378/378/378 374/374/374 377/377/377
f 375/375/375 379/379/379 376/376/376
f 379/379/379 375/375/375 378/378/378
f 376/376/376 380/380/380 377/377/377
f 380/380/380 376/376/376 379/379/379
f 377/377/377 381/381/381 378/378/378
f 380/380/380 381/381/381 377/377/377
f 382/382/382 380/380/380 379/379/379
f 380/380/380 382/382/382 381/381/381
f 381/381/381 383/383/383 378/378/378
f 379/379/379 378/378/378 383/383/383
f 382/382/382 379/379/379 383/383/383
f 382/382/382 383/383/383 381/381/381
