g ShortSword08
v -0.089433245 -0.0751306 -0.041619327
v -0.089433245 -0.05228971 -0.0689524
v -0.11376388 -0.05535063 -0.04210016
v -0.089433245 -0.058274735 -0.014154727
v -0.089433245 -0.0751306 -0.041619327
v -0.11376388 -0.05535063 -0.04210016
v -0.08943325 -0.07595816 0.014704854
v -0.089433245 -0.060711518 -0.003540387
v -0.10791925 -0.06275473 0.014383889
v -0.08943325 -0.06470661 0.033037893
v -0.08943325 -0.07595816 0.014704854
v -0.10791925 -0.06275473 0.014383889
v -0.08943325 -0.07170996 0.05518758
v -0.08943325 -0.060987223 0.042355977
v -0.104214974 -0.062424183 0.054961845
v -0.08943326 -0.063796915 0.068080924
v -0.08943325 -0.07170996 0.05518758
v -0.104214974 -0.062424183 0.054961845
v -0.13848218 -0.030670721 0.59237695
v -0.08943336 -0.030670715 0.76468796
v -0.08943334 -0.060176283 0.59237695
v -0.16022938 -0.05569332 0.29891962
v -0.08943328 -0.086845234 0.26096562
v -0.10798143 -0.05796521 0.2482265
v -0.089433245 0.013789126 -0.04161932
v -0.11376388 -0.005990851 -0.04210017
v -0.089433245 -0.009051768 -0.068952404
v -0.08943325 -0.0030667377 -0.014154728
v -0.11376388 -0.005990851 -0.04210017
v -0.089433245 0.013789126 -0.04161932
v -0.08943325 0.014616682 0.014704847
v -0.10791925 0.0014132545 0.014383886
v -0.08943325 -0.0006299565 -0.0035403892
v -0.08943325 0.0033651383 0.03303789
v -0.10791925 0.0014132545 0.014383886
v -0.08943325 0.014616682 0.014704847
v -0.08943326 0.010368483 0.05518758
v -0.104214974 0.0010827124 0.054961845
v -0.08943326 -0.00035424586 0.042355973
v -0.08943326 0.0024554431 0.06808093
v -0.104214974 0.0010827124 0.054961845
v -0.08943326 0.010368483 0.05518758
v -0.13848218 -0.030670721 0.59237695
v -0.08943334 -0.0011651594 0.59237695
v -0.08943336 -0.030670715 0.76468796
v -0.16022938 -0.005648143 0.29891962
v -0.10798143 -0.003376246 0.24822648
v -0.08943329 0.025503775 0.26096562
v -0.089433245 -0.0751306 -0.041619327
v -0.06510261 -0.055350624 -0.04210016
v -0.089433245 -0.05228971 -0.0689524
v -0.089433245 -0.058274735 -0.014154727
v -0.06510261 -0.055350624 -0.04210016
v -0.089433245 -0.0751306 -0.041619327
v -0.08943325 -0.07595816 0.014704854
v -0.07094726 -0.06275473 0.014383889
v -0.089433245 -0.060711518 -0.003540387
v -0.08943325 -0.06470661 0.033037893
v -0.07094726 -0.06275473 0.014383889
v -0.08943325 -0.07595816 0.014704854
v -0.08943325 -0.07170996 0.05518758
v -0.07465155 -0.062424183 0.054961856
v -0.08943325 -0.060987223 0.042355977
v -0.08943326 -0.063796915 0.068080924
v -0.07465155 -0.062424183 0.054961856
v -0.08943325 -0.07170996 0.05518758
v -0.040384486 -0.030670717 0.59237695
v -0.08943334 -0.060176283 0.59237695
v -0.08943336 -0.030670715 0.76468796
v -0.018637195 -0.055693313 0.29891962
v -0.07088515 -0.05796521 0.2482265
v -0.08943328 -0.086845234 0.26096562
v -0.089433245 0.013789126 -0.04161932
v -0.089433245 -0.009051768 -0.068952404
v -0.06510261 -0.0059908493 -0.04210017
v -0.08943325 -0.0030667377 -0.014154728
v -0.089433245 0.013789126 -0.04161932
v -0.06510261 -0.0059908493 -0.04210017
v -0.08943325 0.014616682 0.014704847
v -0.08943325 -0.0006299565 -0.0035403892
v -0.07094726 0.0014132545 0.014383886
v -0.08943325 0.0033651383 0.03303789
v -0.08943325 0.014616682 0.014704847
v -0.07094726 0.0014132545 0.014383886
v -0.08943326 0.010368483 0.05518758
v -0.08943326 -0.00035424586 0.042355973
v -0.074651554 0.0010827124 0.054961853
v -0.08943326 0.0024554431 0.06808093
v -0.08943326 0.010368483 0.05518758
v -0.074651554 0.0010827124 0.054961853
v -0.040384486 -0.030670717 0.59237695
v -0.08943336 -0.030670715 0.76468796
v -0.08943334 -0.0011651594 0.59237695
v -0.018637203 -0.0056481375 0.29891962
v -0.08943329 0.025503775 0.26096562
v -0.07088515 -0.003376246 0.24822648
v -0.11171541 -0.045853134 -0.08454951
v -0.11640751 -0.049367487 -0.09458726
v -0.13014647 -0.030670742 -0.09458726
v -0.12070905 -0.03067074 -0.08454951
v -0.14563495 -0.03067074 -0.012177638
v -0.12070908 -0.030670736 0.14186016
v -0.11171545 -0.04585313 0.14186022
v -0.13664135 -0.045853134 -0.012177642
v -0.11171545 -0.04585313 0.14186022
v -0.104309216 -0.04203911 0.18571778
v -0.089433275 -0.045396898 0.18571778
v -0.08943327 -0.059125245 0.14186022
v -0.12070905 -0.03067074 -0.08454951
v -0.14563495 -0.03067074 -0.012177638
v -0.13664135 -0.045853134 -0.012177642
v -0.11171541 -0.045853134 -0.08454951
v -0.08943327 -0.059125245 0.14186022
v -0.089433245 -0.05912525 -0.012177633
v -0.13664135 -0.045853134 -0.012177642
v -0.11171545 -0.04585313 0.14186022
v -0.089433245 -0.05912525 -0.012177633
v -0.089433245 -0.049575567 -0.08454951
v -0.11171541 -0.045853134 -0.08454951
v -0.13664135 -0.045853134 -0.012177642
v -0.089433245 -0.05228971 -0.0689524
v -0.089433245 -0.041893408 -0.0646379
v -0.12131342 -0.044954326 -0.04293208
v -0.11376388 -0.05535063 -0.04210016
v -0.11376388 -0.05535063 -0.04210016
v -0.12131342 -0.044954326 -0.04293208
v -0.089433245 -0.04787843 -0.009840224
v -0.089433245 -0.058274735 -0.014154727
v -0.089433245 -0.060711518 -0.003540387
v -0.08943325 -0.053771827 -0.00066039205
v -0.11295867 -0.055815037 0.013828574
v -0.10791925 -0.06275473 0.014383889
v -0.10791925 -0.06275473 0.014383889
v -0.11295867 -0.055815037 0.013828574
v -0.08943325 -0.05776692 0.033368018
v -0.08943325 -0.06470661 0.033037893
v -0.08943325 -0.060987223 0.042355977
v -0.08943325 -0.056106642 0.04438143
v -0.10775912 -0.057543606 0.054571312
v -0.104214974 -0.062424183 0.054961845
v -0.104214974 -0.062424183 0.054961845
v -0.10775912 -0.057543606 0.054571312
v -0.08943326 -0.058916334 0.0683131
v -0.08943326 -0.063796915 0.068080924
v -0.12070908 -0.030670736 0.14186016
v -0.10658458 -0.030670732 0.18571778
v -0.104309216 -0.04203911 0.18571778
v -0.11171545 -0.04585313 0.14186022
v -0.11415422 -0.030670732 0.21018752
v -0.12551124 -0.03067073 0.2361867
v -0.08943328 -0.04401249 0.2361867
v -0.08943328 -0.04401249 0.21018752
v -0.12551124 -0.03067073 0.2361867
v -0.10798143 -0.05796521 0.2482265
v -0.08943328 -0.086845234 0.26096562
v -0.08943328 -0.04401249 0.2361867
v -0.13824858 -0.05681406 0.4188485
v -0.16022938 -0.05569332 0.29891962
v -0.21709593 -0.030670736 0.32940584
v -0.13848218 -0.030670721 0.59237695
v -0.11198597 -0.0579348 0.46384597
v -0.08943334 -0.060176283 0.59237695
v -0.21709593 -0.030670736 0.32940584
v -0.16022938 -0.05569332 0.29891962
v -0.10798143 -0.05796521 0.2482265
v -0.12551124 -0.03067073 0.2361867
v -0.089433245 -0.055053994 -0.09458726
v -0.08943324 -0.049426265 -0.120040126
v -0.11225184 -0.046090566 -0.120040126
v -0.11640751 -0.049367487 -0.09458726
v -0.089433245 -0.049575567 -0.08454951
v -0.089433245 -0.055053994 -0.09458726
v -0.11640751 -0.049367487 -0.09458726
v -0.11171541 -0.045853134 -0.08454951
v -0.08943324 -0.049426265 -0.120040126
v -0.08943324 -0.042044308 -0.13437983
v -0.105460644 -0.04111996 -0.13437983
v -0.11225184 -0.046090566 -0.120040126
v -0.11640751 -0.049367487 -0.09458726
v -0.11225184 -0.046090566 -0.120040126
v -0.1203111 -0.030670742 -0.120040126
v -0.13014647 -0.030670742 -0.09458726
v -0.08943324 -0.042044308 -0.13437983
v -0.10769393 -0.030670743 -0.13437983
v -0.105460644 -0.04111996 -0.13437983
v -0.08943324 -0.030670742 -0.13437983
v -0.07117254 -0.03067074 -0.13437983
v -0.073405825 -0.04111996 -0.13437983
v -0.08943324 -0.019297175 -0.13437983
v -0.10546065 -0.020221526 -0.13437983
v -0.073405825 -0.020221524 -0.13437983
v -0.11225184 -0.046090566 -0.120040126
v -0.105460644 -0.04111996 -0.13437983
v -0.10769393 -0.030670743 -0.13437983
v -0.1203111 -0.030670742 -0.120040126
v -0.16022938 -0.05569332 0.29891962
v -0.14379157 -0.073855005 0.31771457
v -0.11892897 -0.085731566 0.29274863
v -0.08943328 -0.086845234 0.26096562
v -0.08943331 -0.07180475 0.44787157
v -0.08943329 -0.08379257 0.28819615
v -0.11131017 -0.07446397 0.306929
v -0.12567788 -0.0654402 0.32299882
v -0.11487836 -0.067807645 0.37204808
v -0.11275451 -0.07056683 0.41245252
v -0.08943332 -0.065990515 0.52012426
v -0.1044218 -0.08210172 0.45067823
v -0.12342469 -0.073506705 0.41596735
v -0.16022938 -0.05569332 0.29891962
v -0.14379157 -0.073855005 0.31771457
v -0.08943334 -0.060176283 0.59237695
v -0.11198597 -0.0579348 0.46384597
v -0.13824858 -0.05681406 0.4188485
v -0.08943329 -0.08379257 0.28819615
v -0.08943328 -0.086845234 0.26096562
v -0.11892897 -0.085731566 0.29274863
v -0.11131017 -0.07446397 0.306929
v -0.14379157 -0.073855005 0.31771457
v -0.12567788 -0.0654402 0.32299882
v -0.12567788 -0.0654402 0.32299882
v -0.14379157 -0.073855005 0.31771457
v -0.12342469 -0.073506705 0.41596735
v -0.11487836 -0.067807645 0.37204808
v -0.11275451 -0.07056683 0.41245252
v -0.08943331 -0.07180475 0.44787157
v -0.1044218 -0.08210172 0.45067823
v -0.08943332 -0.065990515 0.52012426
v -0.08943324 -0.03338849 -0.15173656
v -0.08943324 -0.03067074 -0.15173656
v -0.101299085 -0.030670742 -0.14589025
v -0.09947804 -0.03263477 -0.14589025
v -0.101299085 -0.030670742 -0.14589025
v -0.1053915 -0.030670742 -0.133613
v -0.103570476 -0.032634772 -0.133613
v -0.09947804 -0.03263477 -0.14589025
v -0.103570476 -0.032634772 -0.133613
v -0.09863465 -0.032702174 -0.13396318
v -0.09564007 -0.032702174 -0.1429469
v -0.09947804 -0.03263477 -0.14589025
v -0.09947804 -0.03263477 -0.14589025
v -0.09564007 -0.032702174 -0.1429469
v -0.08943324 -0.0332537 -0.14722483
v -0.08943324 -0.03338849 -0.15173656
v -0.08943323 -0.054324128 -0.17343934
v -0.110238425 -0.030670742 -0.17343935
v -0.08943324 -0.03067074 -0.15376283
v -0.119124785 -0.030670743 -0.20881397
v -0.08943323 -0.06321045 -0.20881395
v -0.09201656 -0.06274508 -0.21001846
v -0.12801114 -0.030670745 -0.24418853
v -0.11866383 -0.036097832 -0.21001844
v -0.08943322 -0.07209677 -0.24418852
v -0.09762436 -0.07116603 -0.24659756
v -0.13689749 -0.030670747 -0.2795632
v -0.1270892 -0.041701186 -0.24659751
v -0.08943322 -0.08098311 -0.2795632
v -0.10323216 -0.07958698 -0.28317666
v -0.1411862 -0.030670747 -0.318802
v -0.1355146 -0.04730455 -0.2831766
v -0.08943321 -0.08527181 -0.318802
v -0.112727486 -0.09189549 -0.3197557
v -0.14547491 -0.030670749 -0.35804087
v -0.08943321 -0.08956052 -0.35804087
v -0.08943321 -0.030670747 -0.3933543
v -0.14782752 -0.056795448 -0.31975573
v -0.1283223 -0.11030344 -0.35633478
v -0.16623992 -0.07238582 -0.3563348
v -0.11171543 -0.015488346 -0.08454952
v -0.12070905 -0.03067074 -0.08454951
v -0.13014647 -0.030670742 -0.09458726
v -0.11640751 -0.011974 -0.09458727
v -0.14563495 -0.03067074 -0.012177638
v -0.13664135 -0.015488344 -0.01217764
v -0.11171545 -0.01548834 0.1418602
v -0.12070908 -0.030670736 0.14186016
v -0.11171545 -0.01548834 0.1418602
v -0.089433275 -0.002216223 0.1418602
v -0.089433275 -0.015944567 0.18571778
v -0.104309216 -0.019302357 0.18571778
v -0.12070905 -0.03067074 -0.08454951
v -0.11171543 -0.015488346 -0.08454952
v -0.13664135 -0.015488344 -0.01217764
v -0.14563495 -0.03067074 -0.012177638
v -0.089433275 -0.002216223 0.1418602
v -0.11171545 -0.01548834 0.1418602
v -0.13664135 -0.015488344 -0.01217764
v -0.08943325 -0.0022162276 -0.012177635
v -0.08943325 -0.0022162276 -0.012177635
v -0.13664135 -0.015488344 -0.01217764
v -0.11171543 -0.015488346 -0.08454952
v -0.089433245 -0.011765913 -0.08454952
v -0.089433245 -0.009051768 -0.068952404
v -0.11376388 -0.005990851 -0.04210017
v -0.12131342 -0.016387153 -0.042932082
v -0.089433245 -0.01944807 -0.06463791
v -0.11376388 -0.005990851 -0.04210017
v -0.08943325 -0.0030667377 -0.014154728
v -0.08943325 -0.013463045 -0.009840226
v -0.12131342 -0.016387153 -0.042932082
v -0.08943325 -0.0006299565 -0.0035403892
v -0.10791925 0.0014132545 0.014383886
v -0.11295867 -0.005526436 0.013828571
v -0.08943325 -0.0075696446 -0.00066038844
v -0.10791925 0.0014132545 0.014383886
v -0.08943325 0.0033651383 0.03303789
v -0.08943325 -0.0035745504 0.033368018
v -0.11295867 -0.005526436 0.013828571
v -0.08943326 -0.00035424586 0.042355973
v -0.104214974 0.0010827124 0.054961845
v -0.107759126 -0.0037978669 0.0545713
v -0.08943326 -0.0052348264 0.04438143
v -0.104214974 0.0010827124 0.054961845
v -0.08943326 0.0024554431 0.06808093
v -0.08943326 -0.002425136 0.06831311
v -0.107759126 -0.0037978669 0.0545713
v -0.12070908 -0.030670736 0.14186016
v -0.11171545 -0.01548834 0.1418602
v -0.104309216 -0.019302357 0.18571778
v -0.10658458 -0.030670732 0.18571778
v -0.11415422 -0.030670732 0.21018752
v -0.08943328 -0.017328972 0.21018752
v -0.08943328 -0.017328972 0.2361867
v -0.12551124 -0.03067073 0.2361867
v -0.12551124 -0.03067073 0.2361867
v -0.08943328 -0.017328972 0.2361867
v -0.08943329 0.025503775 0.26096562
v -0.10798143 -0.003376246 0.24822648
v -0.21709593 -0.030670736 0.32940584
v -0.16022938 -0.005648143 0.29891962
v -0.13824858 -0.004527396 0.4188485
v -0.13848218 -0.030670721 0.59237695
v -0.11198597 -0.0034066502 0.46384597
v -0.08943334 -0.0011651594 0.59237695
v -0.21709593 -0.030670736 0.32940584
v -0.12551124 -0.03067073 0.2361867
v -0.10798143 -0.003376246 0.24822648
v -0.16022938 -0.005648143 0.29891962
v -0.089433245 -0.0062874802 -0.09458727
v -0.11640751 -0.011974 -0.09458727
v -0.11225184 -0.015250917 -0.12004013
v -0.089433245 -0.011915212 -0.12004013
v -0.089433245 -0.011765913 -0.08454952
v -0.11171543 -0.015488346 -0.08454952
v -0.11640751 -0.011974 -0.09458727
v -0.089433245 -0.0062874802 -0.09458727
v -0.089433245 -0.011915212 -0.12004013
v -0.11225184 -0.015250917 -0.12004013
v -0.10546065 -0.020221526 -0.13437983
v -0.08943324 -0.019297175 -0.13437983
v -0.11640751 -0.011974 -0.09458727
v -0.13014647 -0.030670742 -0.09458726
v -0.1203111 -0.030670742 -0.120040126
v -0.11225184 -0.015250917 -0.12004013
v -0.11225184 -0.015250917 -0.12004013
v -0.1203111 -0.030670742 -0.120040126
v -0.10769393 -0.030670743 -0.13437983
v -0.10546065 -0.020221526 -0.13437983
v -0.16022938 -0.005648143 0.29891962
v -0.08943329 0.025503775 0.26096562
v -0.11892897 0.024390101 0.29274863
v -0.14379157 0.012513544 0.31771457
v -0.11131017 0.013122523 0.306929
v -0.08943329 0.022451116 0.28819615
v -0.08943331 0.010463307 0.44787157
v -0.12567788 0.0040987474 0.32299882
v -0.11487836 0.006466192 0.37204808
v -0.11275451 0.009225383 0.41245252
v -0.1044218 0.02076027 0.45067823
v -0.089433335 0.0046490794 0.52012426
v -0.123424694 0.012165253 0.41596735
v -0.14379157 0.012513544 0.31771457
v -0.08943334 -0.0011651594 0.59237695
v -0.11198597 -0.0034066502 0.46384597
v -0.13824858 -0.004527396 0.4188485
v -0.16022938 -0.005648143 0.29891962
v -0.11892897 0.024390101 0.29274863
v -0.08943329 0.025503775 0.26096562
v -0.08943329 0.022451116 0.28819615
v -0.11131017 0.013122523 0.306929
v -0.14379157 0.012513544 0.31771457
v -0.12567788 0.0040987474 0.32299882
v -0.123424694 0.012165253 0.41596735
v -0.14379157 0.012513544 0.31771457
v -0.12567788 0.0040987474 0.32299882
v -0.11487836 0.006466192 0.37204808
v -0.11275451 0.009225383 0.41245252
v -0.08943331 0.010463307 0.44787157
v -0.1044218 0.02076027 0.45067823
v -0.089433335 0.0046490794 0.52012426
v -0.08943324 -0.027952991 -0.15173656
v -0.09947804 -0.028706713 -0.14589025
v -0.101299085 -0.030670742 -0.14589025
v -0.08943324 -0.03067074 -0.15173656
v -0.101299085 -0.030670742 -0.14589025
v -0.09947804 -0.028706713 -0.14589025
v -0.103570476 -0.028706713 -0.133613
v -0.1053915 -0.030670742 -0.133613
v -0.103570476 -0.028706713 -0.133613
v -0.09947804 -0.028706713 -0.14589025
v -0.09564007 -0.028639307 -0.1429469
v -0.09863465 -0.028639307 -0.13396318
v -0.09947804 -0.028706713 -0.14589025
v -0.08943324 -0.027952991 -0.15173656
v -0.08943324 -0.028087784 -0.14722483
v -0.09564007 -0.028639307 -0.1429469
v -0.08943324 -0.0070173615 -0.17343935
v -0.08943324 -0.03067074 -0.15376283
v -0.110238425 -0.030670742 -0.17343935
v -0.119124785 -0.030670743 -0.20881397
v -0.08943323 0.0018689628 -0.20881397
v -0.09201656 0.0014035918 -0.21001847
v -0.12801114 -0.030670745 -0.24418853
v -0.11866383 -0.025243655 -0.21001844
v -0.08943323 0.010755298 -0.24418853
v -0.09762436 0.009824549 -0.24659757
v -0.13689749 -0.030670747 -0.2795632
v -0.1270892 -0.019640308 -0.24659751
v -0.08943322 0.01964162 -0.2795632
v -0.10323216 0.018245505 -0.28317666
v -0.1411862 -0.030670747 -0.318802
v -0.1355146 -0.014036944 -0.2831766
v -0.089433216 0.023930315 -0.318802
v -0.1127275 0.030554004 -0.31975573
v -0.14547491 -0.030670749 -0.35804087
v -0.08943321 0.02821902 -0.35804087
v -0.08943321 -0.030670747 -0.3933543
v -0.14782752 -0.0045460463 -0.31975573
v -0.1283223 0.048961952 -0.3563348
v -0.16623992 0.011044314 -0.3563348
v -0.067151055 -0.04585313 -0.08454951
v -0.058157437 -0.030670738 -0.08454951
v -0.04872001 -0.030670738 -0.09458726
v -0.062458977 -0.04936748 -0.09458726
v -0.033231538 -0.030670736 -0.012177627
v -0.042225167 -0.04585313 -0.0121776275
v -0.06715109 -0.045853127 0.14186022
v -0.058157466 -0.030670732 0.1418602
v -0.06715109 -0.045853127 0.14186022
v -0.08943327 -0.059125245 0.14186022
v -0.089433275 -0.045396898 0.18571778
v -0.074557334 -0.042039104 0.18571778
v -0.058157437 -0.030670738 -0.08454951
v -0.067151055 -0.04585313 -0.08454951
v -0.042225167 -0.04585313 -0.0121776275
v -0.033231538 -0.030670736 -0.012177627
v -0.08943327 -0.059125245 0.14186022
v -0.06715109 -0.045853127 0.14186022
v -0.042225167 -0.04585313 -0.0121776275
v -0.089433245 -0.05912525 -0.012177633
v -0.089433245 -0.05912525 -0.012177633
v -0.042225167 -0.04585313 -0.0121776275
v -0.067151055 -0.04585313 -0.08454951
v -0.089433245 -0.049575567 -0.08454951
v -0.089433245 -0.05228971 -0.0689524
v -0.06510261 -0.055350624 -0.04210016
v -0.05755308 -0.044954326 -0.042932056
v -0.089433245 -0.041893408 -0.0646379
v -0.06510261 -0.055350624 -0.04210016
v -0.089433245 -0.058274735 -0.014154727
v -0.089433245 -0.04787843 -0.009840224
v -0.05755308 -0.044954326 -0.042932056
v -0.089433245 -0.060711518 -0.003540387
v -0.07094726 -0.06275473 0.014383889
v -0.06590784 -0.055815034 0.013828579
v -0.08943325 -0.053771827 -0.00066039205
v -0.07094726 -0.06275473 0.014383889
v -0.08943325 -0.06470661 0.033037893
v -0.08943325 -0.05776692 0.033368018
v -0.06590784 -0.055815034 0.013828579
v -0.08943325 -0.060987223 0.042355977
v -0.07465155 -0.062424183 0.054961856
v -0.071107395 -0.057543606 0.054571312
v -0.08943325 -0.056106642 0.04438143
v -0.07465155 -0.062424183 0.054961856
v -0.08943326 -0.063796915 0.068080924
v -0.08943326 -0.058916334 0.0683131
v -0.071107395 -0.057543606 0.054571312
v -0.058157466 -0.030670732 0.1418602
v -0.06715109 -0.045853127 0.14186022
v -0.074557334 -0.042039104 0.18571778
v -0.07228199 -0.030670732 0.18571778
v -0.06471235 -0.03067073 0.21018752
v -0.08943328 -0.04401249 0.21018752
v -0.08943328 -0.04401249 0.2361867
v -0.05335533 -0.030670727 0.2361867
v -0.05335533 -0.030670727 0.2361867
v -0.08943328 -0.04401249 0.2361867
v -0.08943328 -0.086845234 0.26096562
v -0.07088515 -0.05796521 0.2482265
v 0.038229346 -0.03067072 0.3294059
v -0.018637195 -0.055693313 0.29891962
v -0.040618036 -0.056814056 0.4188485
v -0.040384486 -0.030670717 0.59237695
v -0.066880666 -0.0579348 0.46384597
v -0.08943334 -0.060176283 0.59237695
v 0.038229346 -0.03067072 0.3294059
v -0.05335533 -0.030670727 0.2361867
v -0.07088515 -0.05796521 0.2482265
v -0.018637195 -0.055693313 0.29891962
v -0.089433245 -0.055053994 -0.09458726
v -0.062458977 -0.04936748 -0.09458726
v -0.06661464 -0.046090562 -0.120040126
v -0.08943324 -0.049426265 -0.120040126
v -0.089433245 -0.049575567 -0.08454951
v -0.067151055 -0.04585313 -0.08454951
v -0.062458977 -0.04936748 -0.09458726
v -0.089433245 -0.055053994 -0.09458726
v -0.08943324 -0.049426265 -0.120040126
v -0.06661464 -0.046090562 -0.120040126
v -0.073405825 -0.04111996 -0.13437983
v -0.08943324 -0.042044308 -0.13437983
v -0.062458977 -0.04936748 -0.09458726
v -0.04872001 -0.030670738 -0.09458726
v -0.058555376 -0.03067074 -0.120040126
v -0.06661464 -0.046090562 -0.120040126
v -0.06661464 -0.046090562 -0.120040126
v -0.058555376 -0.03067074 -0.120040126
v -0.07117254 -0.03067074 -0.13437983
v -0.073405825 -0.04111996 -0.13437983
v -0.018637195 -0.055693313 0.29891962
v -0.08943328 -0.086845234 0.26096562
v -0.059937626 -0.085731566 0.29274863
v -0.03507503 -0.073855005 0.31771457
v -0.067556426 -0.07446397 0.306929
v -0.08943329 -0.08379257 0.28819615
v -0.08943331 -0.07180475 0.44787157
v -0.053188708 -0.0654402 0.32299882
v -0.06398825 -0.067807645 0.37204808
v -0.0661121 -0.07056683 0.41245252
v -0.018637195 -0.055693313 0.29891962
v -0.03507503 -0.073855005 0.31771457
v -0.055441923 -0.073506705 0.41596735
v -0.08943332 -0.065990515 0.52012426
v -0.07444483 -0.08210172 0.45067823
v -0.08943334 -0.060176283 0.59237695
v -0.066880666 -0.0579348 0.46384597
v -0.040618036 -0.056814056 0.4188485
v -0.059937626 -0.085731566 0.29274863
v -0.08943328 -0.086845234 0.26096562
v -0.08943329 -0.08379257 0.28819615
v -0.067556426 -0.07446397 0.306929
v -0.03507503 -0.073855005 0.31771457
v -0.053188708 -0.0654402 0.32299882
v -0.055441923 -0.073506705 0.41596735
v -0.03507503 -0.073855005 0.31771457
v -0.053188708 -0.0654402 0.32299882
v -0.06398825 -0.067807645 0.37204808
v -0.0661121 -0.07056683 0.41245252
v -0.08943331 -0.07180475 0.44787157
v -0.07444483 -0.08210172 0.45067823
v -0.08943332 -0.065990515 0.52012426
v -0.08943324 -0.03338849 -0.15173656
v -0.079388425 -0.03263477 -0.14589025
v -0.07756739 -0.03067074 -0.14589025
v -0.08943324 -0.03067074 -0.15173656
v -0.07756739 -0.03067074 -0.14589025
v -0.079388425 -0.03263477 -0.14589025
v -0.075296 -0.032634772 -0.133613
v -0.07347496 -0.03067074 -0.133613
v -0.075296 -0.032634772 -0.133613
v -0.079388425 -0.03263477 -0.14589025
v -0.0832264 -0.032702174 -0.1429469
v -0.08023183 -0.032702174 -0.13396318
v -0.079388425 -0.03263477 -0.14589025
v -0.08943324 -0.03338849 -0.15173656
v -0.08943324 -0.0332537 -0.14722483
v -0.0832264 -0.032702174 -0.1429469
v -0.08943323 -0.054324128 -0.17343934
v -0.08943324 -0.03067074 -0.15376283
v -0.06862804 -0.03067074 -0.17343935
v -0.059741665 -0.030670742 -0.20881397
v -0.08943323 -0.06321045 -0.20881395
v -0.08684988 -0.06274508 -0.21001846
v -0.05085529 -0.030670742 -0.24418853
v -0.06020262 -0.03609783 -0.21001844
v -0.08943322 -0.07209677 -0.24418852
v -0.08124208 -0.07116603 -0.24659756
v -0.041968927 -0.030670743 -0.2795632
v -0.051777232 -0.041701183 -0.24659751
v -0.08943322 -0.08098311 -0.2795632
v -0.07563428 -0.079587 -0.28317666
v -0.03768023 -0.030670743 -0.318802
v -0.043351833 -0.047304545 -0.2831766
v -0.08943321 -0.08527181 -0.318802
v -0.06613892 -0.09189549 -0.3197557
v -0.033391505 -0.030670743 -0.35804087
v -0.08943321 -0.08956052 -0.35804087
v -0.08943321 -0.030670747 -0.3933543
v -0.031038895 -0.056795448 -0.31975573
v -0.05054411 -0.11030344 -0.35633478
v -0.012626499 -0.07238581 -0.3563348
v -0.067151055 -0.015488343 -0.08454952
v -0.062458977 -0.0119739985 -0.09458727
v -0.04872001 -0.030670738 -0.09458726
v -0.058157437 -0.030670738 -0.08454951
v -0.033231538 -0.030670736 -0.012177627
v -0.058157466 -0.030670732 0.1418602
v -0.06715109 -0.015488338 0.1418602
v -0.042225167 -0.01548834 -0.012177628
v -0.06715109 -0.015488338 0.1418602
v -0.074557334 -0.019302355 0.18571778
v -0.089433275 -0.015944567 0.18571778
v -0.089433275 -0.002216223 0.1418602
v -0.058157437 -0.030670738 -0.08454951
v -0.033231538 -0.030670736 -0.012177627
v -0.042225167 -0.01548834 -0.012177628
v -0.067151055 -0.015488343 -0.08454952
v -0.089433275 -0.002216223 0.1418602
v -0.08943325 -0.0022162276 -0.012177635
v -0.042225167 -0.01548834 -0.012177628
v -0.06715109 -0.015488338 0.1418602
v -0.08943325 -0.0022162276 -0.012177635
v -0.089433245 -0.011765913 -0.08454952
v -0.067151055 -0.015488343 -0.08454952
v -0.042225167 -0.01548834 -0.012177628
v -0.089433245 -0.009051768 -0.068952404
v -0.089433245 -0.01944807 -0.06463791
v -0.05755308 -0.016387153 -0.04293206
v -0.06510261 -0.0059908493 -0.04210017
v -0.06510261 -0.0059908493 -0.04210017
v -0.05755308 -0.016387153 -0.04293206
v -0.08943325 -0.013463045 -0.009840226
v -0.08943325 -0.0030667377 -0.014154728
v -0.08943325 -0.0006299565 -0.0035403892
v -0.08943325 -0.0075696446 -0.00066038844
v -0.06590784 -0.005526434 0.013828578
v -0.07094726 0.0014132545 0.014383886
v -0.07094726 0.0014132545 0.014383886
v -0.06590784 -0.005526434 0.013828578
v -0.08943325 -0.0035745504 0.033368018
v -0.08943325 0.0033651383 0.03303789
v -0.08943326 -0.00035424586 0.042355973
v -0.08943326 -0.0052348264 0.04438143
v -0.071107395 -0.0037978669 0.0545713
v -0.074651554 0.0010827124 0.054961853
v -0.074651554 0.0010827124 0.054961853
v -0.071107395 -0.0037978669 0.0545713
v -0.08943326 -0.002425136 0.06831311
v -0.08943326 0.0024554431 0.06808093
v -0.058157466 -0.030670732 0.1418602
v -0.07228199 -0.030670732 0.18571778
v -0.074557334 -0.019302355 0.18571778
v -0.06715109 -0.015488338 0.1418602
v -0.06471235 -0.03067073 0.21018752
v -0.05335533 -0.030670727 0.2361867
v -0.08943328 -0.017328972 0.2361867
v -0.08943328 -0.017328972 0.21018752
v -0.05335533 -0.030670727 0.2361867
v -0.07088515 -0.003376246 0.24822648
v -0.08943329 0.025503775 0.26096562
v -0.08943328 -0.017328972 0.2361867
v -0.04061804 -0.0045273905 0.4188485
v -0.018637203 -0.0056481375 0.29891962
v 0.038229346 -0.03067072 0.3294059
v -0.040384486 -0.030670717 0.59237695
v -0.066880666 -0.003406652 0.46384597
v -0.08943334 -0.0011651594 0.59237695
v 0.038229346 -0.03067072 0.3294059
v -0.018637203 -0.0056481375 0.29891962
v -0.07088515 -0.003376246 0.24822648
v -0.05335533 -0.030670727 0.2361867
v -0.089433245 -0.0062874802 -0.09458727
v -0.089433245 -0.011915212 -0.12004013
v -0.06661464 -0.015250915 -0.12004013
v -0.062458977 -0.0119739985 -0.09458727
v -0.089433245 -0.011765913 -0.08454952
v -0.089433245 -0.0062874802 -0.09458727
v -0.062458977 -0.0119739985 -0.09458727
v -0.067151055 -0.015488343 -0.08454952
v -0.089433245 -0.011915212 -0.12004013
v -0.08943324 -0.019297175 -0.13437983
v -0.073405825 -0.020221524 -0.13437983
v -0.06661464 -0.015250915 -0.12004013
v -0.062458977 -0.0119739985 -0.09458727
v -0.06661464 -0.015250915 -0.12004013
v -0.058555376 -0.03067074 -0.120040126
v -0.04872001 -0.030670738 -0.09458726
v -0.06661464 -0.015250915 -0.12004013
v -0.073405825 -0.020221524 -0.13437983
v -0.07117254 -0.03067074 -0.13437983
v -0.058555376 -0.03067074 -0.120040126
v -0.018637203 -0.0056481375 0.29891962
v -0.03507503 0.012513556 0.31771457
v -0.059937626 0.024390101 0.29274863
v -0.08943329 0.025503775 0.26096562
v -0.08943331 0.010463307 0.44787157
v -0.08943329 0.022451116 0.28819615
v -0.067556426 0.0131225195 0.306929
v -0.05318871 0.0040987437 0.32299882
v -0.06398825 0.006466192 0.37204808
v -0.0661121 0.009225383 0.41245252
v -0.03507503 0.012513556 0.31771457
v -0.018637203 -0.0056481375 0.29891962
v -0.04061804 -0.0045273905 0.4188485
v -0.066880666 -0.003406652 0.46384597
v -0.08943334 -0.0011651594 0.59237695
v -0.089433335 0.0046490794 0.52012426
v -0.05544193 0.012165253 0.41596735
v -0.07444483 0.02076027 0.45067823
v -0.08943329 0.022451116 0.28819615
v -0.08943329 0.025503775 0.26096562
v -0.059937626 0.024390101 0.29274863
v -0.067556426 0.0131225195 0.306929
v -0.03507503 0.012513556 0.31771457
v -0.05318871 0.0040987437 0.32299882
v -0.05318871 0.0040987437 0.32299882
v -0.03507503 0.012513556 0.31771457
v -0.05544193 0.012165253 0.41596735
v -0.06398825 0.006466192 0.37204808
v -0.0661121 0.009225383 0.41245252
v -0.08943331 0.010463307 0.44787157
v -0.07444483 0.02076027 0.45067823
v -0.089433335 0.0046490794 0.52012426
v -0.08943324 -0.027952991 -0.15173656
v -0.08943324 -0.03067074 -0.15173656
v -0.07756739 -0.03067074 -0.14589025
v -0.079388425 -0.02870671 -0.14589025
v -0.07756739 -0.03067074 -0.14589025
v -0.07347496 -0.03067074 -0.133613
v -0.075296 -0.02870671 -0.133613
v -0.079388425 -0.02870671 -0.14589025
v -0.075296 -0.02870671 -0.133613
v -0.08023183 -0.028639305 -0.13396318
v -0.0832264 -0.028639307 -0.1429469
v -0.079388425 -0.02870671 -0.14589025
v -0.079388425 -0.02870671 -0.14589025
v -0.0832264 -0.028639307 -0.1429469
v -0.08943324 -0.028087784 -0.14722483
v -0.08943324 -0.027952991 -0.15173656
v -0.08943324 -0.0070173615 -0.17343935
v -0.06862804 -0.03067074 -0.17343935
v -0.08943324 -0.03067074 -0.15376283
v -0.059741665 -0.030670742 -0.20881397
v -0.08943323 0.0018689628 -0.20881397
v -0.08684988 0.0014035918 -0.21001847
v -0.05085529 -0.030670742 -0.24418853
v -0.06020262 -0.025243653 -0.21001844
v -0.08943323 0.010755298 -0.24418853
v -0.08124208 0.009824549 -0.24659757
v -0.041968927 -0.030670743 -0.2795632
v -0.051777232 -0.019640304 -0.24659751
v -0.08943322 0.01964162 -0.2795632
v -0.07563428 0.018245498 -0.28317666
v -0.03768023 -0.030670743 -0.318802
v -0.043351833 -0.014036939 -0.2831766
v -0.089433216 0.023930315 -0.318802
v -0.06613893 0.030554004 -0.31975573
v -0.033391505 -0.030670743 -0.35804087
v -0.08943321 0.02821902 -0.35804087
v -0.08943321 -0.030670747 -0.3933543
v -0.031038895 -0.0045460444 -0.31975573
v -0.050544113 0.048961952 -0.3563348
v -0.012626506 0.011044322 -0.3563348
v -0.089433275 -0.030670732 0.18571778
v -0.104309216 -0.04203911 0.18571778
v -0.10658458 -0.030670732 0.18571778
v -0.089433275 -0.045396898 0.18571778
v -0.104309216 -0.019302357 0.18571778
v -0.074557334 -0.042039104 0.18571778
v -0.089433275 -0.015944567 0.18571778
v -0.07228199 -0.030670732 0.18571778
v -0.074557334 -0.019302355 0.18571778
v -0.11119575 -0.064404696 0.19395997
v -0.089433275 -0.05859929 0.17807084
v -0.089433275 -0.03067073 0.17807083
v -0.089433275 -0.06296965 0.19523226
v -0.06767081 -0.06440469 0.19395997
v -0.11415422 -0.030670732 0.17807083
v -0.12704854 -0.07260263 0.20550132
v -0.1232832 -0.049873807 0.1935025
v -0.13455988 -0.06357291 0.20535918
v -0.116782255 -0.030670732 0.19523224
v -0.11415422 -0.030670732 0.2168309
v -0.1232832 -0.04987381 0.21683091
v -0.089433275 -0.05859929 0.21683091
v -0.11119575 -0.06440469 0.21683091
v -0.051818013 -0.07260263 0.20550132
v -0.06767082 -0.06440469 0.21683091
v -0.05558336 -0.049873803 0.21683091
v -0.06471235 -0.03067073 0.2168309
v -0.044306673 -0.063572906 0.20535918
v -0.08943328 -0.03067073 0.2168309
v -0.08943328 -0.0027421694 0.2168309
v -0.1345599 0.0022314414 0.20535916
v -0.1232832 -0.01146766 0.2168309
v -0.1232832 -0.011467656 0.19350249
v -0.11119575 0.0030632261 0.19395995
v -0.12704854 0.011261161 0.2055013
v -0.089433275 0.0016281811 0.19523224
v -0.089433275 -0.002742172 0.17807083
v -0.11119575 0.0030632261 0.2168309
v -0.06767081 0.0030632298 0.19395995
v -0.064712346 -0.03067073 0.17807083
v -0.055583358 -0.049873807 0.1935025
v -0.062084302 -0.03067073 0.19523224
v -0.055583358 -0.011467654 0.19350249
v -0.044306677 0.0022314452 0.20535916
v -0.05558336 -0.0114676505 0.2168309
v -0.05181802 0.011261161 0.2055013
v -0.06767082 0.0030632261 0.2168309
vt 0.14704742 0.7160432
vt 0.14704742 0.7160432
vt 0.14704742 0.7160432
vt 0.14704742 0.7160432
vt 0.14704742 0.7160432
vt 0.14704742 0.7160432
vt 0.14704742 0.7160432
vt 0.14704742 0.7160432
vt 0.14704742 0.7160432
vt 0.14704742 0.7160432
vt 0.14704742 0.7160432
vt 0.14704742 0.7160432
vt 0.14704742 0.7160432
vt 0.14704742 0.7160432
vt 0.14704742 0.7160432
vt 0.14704742 0.7160432
vt 0.14704742 0.7160432
vt 0.14704742 0.7160432
vt 0.12361015 0.7393853
vt 0.12217325 0.73757565
vt 0.11802775 0.73618627
vt 0.1632859 0.7010033
vt 0.1632859 0.7010033
vt 0.1632859 0.7010033
vt 0.14704742 0.7160432
vt 0.14704742 0.7160432
vt 0.14704742 0.7160432
vt 0.14704742 0.7160432
vt 0.14704742 0.7160432
vt 0.14704742 0.7160432
vt 0.14704742 0.7160432
vt 0.14704742 0.7160432
vt 0.14704742 0.7160432
vt 0.14704742 0.7160432
vt 0.14704742 0.7160432
vt 0.14704742 0.7160432
vt 0.14704742 0.7160432
vt 0.14704742 0.7160432
vt 0.14704742 0.7160432
vt 0.14704742 0.7160432
vt 0.14704742 0.7160432
vt 0.14704742 0.7160432
vt 0.12361015 0.7393853
vt 0.11802775 0.73618627
vt 0.12217325 0.73757565
vt 0.1632859 0.7010033
vt 0.1632859 0.7010033
vt 0.1632859 0.7010033
vt 0.14704742 0.7160432
vt 0.14704742 0.7160432
vt 0.14704742 0.7160432
vt 0.14704742 0.7160432
vt 0.14704742 0.7160432
vt 0.14704742 0.7160432
vt 0.14704742 0.7160432
vt 0.14704742 0.7160432
vt 0.14704742 0.7160432
vt 0.14704742 0.7160432
vt 0.14704742 0.7160432
vt 0.14704742 0.7160432
vt 0.14704742 0.7160432
vt 0.14704742 0.7160432
vt 0.14704742 0.7160432
vt 0.14704742 0.7160432
vt 0.14704742 0.7160432
vt 0.14704742 0.7160432
vt 0.12361015 0.7393853
vt 0.11802775 0.73618627
vt 0.12217325 0.73757565
vt 0.1632859 0.7010033
vt 0.1632859 0.7010033
vt 0.1632859 0.7010033
vt 0.14704742 0.7160432
vt 0.14704742 0.7160432
vt 0.14704742 0.7160432
vt 0.14704742 0.7160432
vt 0.14704742 0.7160432
vt 0.14704742 0.7160432
vt 0.14704742 0.7160432
vt 0.14704742 0.7160432
vt 0.14704742 0.7160432
vt 0.14704742 0.7160432
vt 0.14704742 0.7160432
vt 0.14704742 0.7160432
vt 0.14704742 0.7160432
vt 0.14704742 0.7160432
vt 0.14704742 0.7160432
vt 0.14704742 0.7160432
vt 0.14704742 0.7160432
vt 0.14704742 0.7160432
vt 0.12361015 0.7393853
vt 0.12217325 0.73757565
vt 0.11802775 0.73618627
vt 0.1632859 0.7010033
vt 0.1632859 0.7010033
vt 0.1632859 0.7010033
vt 0.1632859 0.7010033
vt 0.1632859 0.7010033
vt 0.1632859 0.7010033
vt 0.1632859 0.7010033
vt 0.10364193 0.96407455
vt 0.10364193 0.96407455
vt 0.10364193 0.96407455
vt 0.10364193 0.96407455
vt 0.10364193 0.96407455
vt 0.10364193 0.96407455
vt 0.10364193 0.96407455
vt 0.10364193 0.96407455
vt 0.10364193 0.96407455
vt 0.10364193 0.96407455
vt 0.10364193 0.96407455
vt 0.10364193 0.96407455
vt 0.10364193 0.96407455
vt 0.10364193 0.96407455
vt 0.10364193 0.96407455
vt 0.10364193 0.96407455
vt 0.10364193 0.96407455
vt 0.10364193 0.96407455
vt 0.10364193 0.96407455
vt 0.10364193 0.96407455
vt 0.14704742 0.7160432
vt 0.14704742 0.7160432
vt 0.14704742 0.7160432
vt 0.14704742 0.7160432
vt 0.14704742 0.7160432
vt 0.14704742 0.7160432
vt 0.14704742 0.7160432
vt 0.14704742 0.7160432
vt 0.14704742 0.7160432
vt 0.14704742 0.7160432
vt 0.14704742 0.7160432
vt 0.14704742 0.7160432
vt 0.14704742 0.7160432
vt 0.14704742 0.7160432
vt 0.14704742 0.7160432
vt 0.14704742 0.7160432
vt 0.14704742 0.7160432
vt 0.14704742 0.7160432
vt 0.14704742 0.7160432
vt 0.14704742 0.7160432
vt 0.14704742 0.7160432
vt 0.14704742 0.7160432
vt 0.14704742 0.7160432
vt 0.14704742 0.7160432
vt 0.10364193 0.96407455
vt 0.10364193 0.96407455
vt 0.10364193 0.96407455
vt 0.10364193 0.96407455
vt 0.10364193 0.95915306
vt 0.10364193 0.95915306
vt 0.10364193 0.95915306
vt 0.10364193 0.95915306
vt 0.10364193 0.95915306
vt 0.10364193 0.95915306
vt 0.10364193 0.95915306
vt 0.10364193 0.95915306
vt 0.115519114 0.7366256
vt 0.11581548 0.73723483
vt 0.12369152 0.7400699
vt 0.12361015 0.7393853
vt 0.11328584 0.73544246
vt 0.11802775 0.73618627
vt 0.12369152 0.7400699
vt 0.11581548 0.73723483
vt 0.11196281 0.7362912
vt 0.123992145 0.7408874
vt 0.1632859 0.7010033
vt 0.1632859 0.7010033
vt 0.1632859 0.7010033
vt 0.1632859 0.7010033
vt 0.1632859 0.7010033
vt 0.1632859 0.7010033
vt 0.1632859 0.7010033
vt 0.1632859 0.7010033
vt 0.1632859 0.7010033
vt 0.1632859 0.7010033
vt 0.1632859 0.7010033
vt 0.1632859 0.7010033
vt 0.1632859 0.7010033
vt 0.1632859 0.7010033
vt 0.1632859 0.7010033
vt 0.1632859 0.7010033
vt 0.1632859 0.7010033
vt 0.1632859 0.7010033
vt 0.1632859 0.7010033
vt 0.1632859 0.7010033
vt 0.1632859 0.7010033
vt 0.1632859 0.7010033
vt 0.1632859 0.7010033
vt 0.1632859 0.7010033
vt 0.1632859 0.7010033
vt 0.1632859 0.7010033
vt 0.1632859 0.7010033
vt 0.1632859 0.7010033
vt 0.1632859 0.7010033
vt 0.1632859 0.7010033
vt 0.1632859 0.7010033
vt 0.1632859 0.7010033
vt 0.1632859 0.7010033
vt 0.089892544 0.7350668
vt 0.089892544 0.7350668
vt 0.089892544 0.7350668
vt 0.089892544 0.7350668
vt 0.08989254 0.7350668
vt 0.08989255 0.7350668
vt 0.1632859 0.7010033
vt 0.1632859 0.7010033
vt 0.1632859 0.7010033
vt 0.1632859 0.7010033
vt 0.1632859 0.7010033
vt 0.1632859 0.7010033
vt 0.1632859 0.7010033
vt 0.1632859 0.7010033
vt 0.1632859 0.7010033
vt 0.1632859 0.7010033
vt 0.1632859 0.7010033
vt 0.1632859 0.7010033
vt 0.1632859 0.7010033
vt 0.1632859 0.7010033
vt 0.1632859 0.7010033
vt 0.1632859 0.7010033
vt 0.1632859 0.7010033
vt 0.1632859 0.7010033
vt 0.1632859 0.7010033
vt 0.1632859 0.7010033
vt 0.1632859 0.7010033
vt 0.1632859 0.7010033
vt 0.1632859 0.7010033
vt 0.1632859 0.7010033
vt 0.1632859 0.7010033
vt 0.1632859 0.7010033
vt 0.1632859 0.7010033
vt 0.1632859 0.7010033
vt 0.1632859 0.7010033
vt 0.1632859 0.7010033
vt 0.1632859 0.7010033
vt 0.1632859 0.7010033
vt 0.1632859 0.7010033
vt 0.1632859 0.7010033
vt 0.1632859 0.7010033
vt 0.1632859 0.7010033
vt 0.1632859 0.7010033
vt 0.1632859 0.7010033
vt 0.23145932 0.78680545
vt 0.22340359 0.7863391
vt 0.23107424 0.79345715
vt 0.22109179 0.7742066
vt 0.23215155 0.7748469
vt 0.2302794 0.77432996
vt 0.21878006 0.76207423
vt 0.22127123 0.7738085
vt 0.23284386 0.7628884
vt 0.22909956 0.7618545
vt 0.2164683 0.7499418
vt 0.21913886 0.76127785
vt 0.23353615 0.75092983
vt 0.22791974 0.7493791
vt 0.21578643 0.736593
vt 0.21700649 0.7487473
vt 0.2343041 0.73766506
vt 0.22542566 0.73682755
vt 0.21510452 0.7232442
vt 0.23507205 0.72440016
vt 0.23637268 0.7124976
vt 0.21355993 0.7361406
vt 0.22086963 0.7241566
vt 0.20805144 0.72341454
vt 0.1632859 0.7010033
vt 0.1632859 0.7010033
vt 0.1632859 0.7010033
vt 0.1632859 0.7010033
vt 0.10364193 0.96407455
vt 0.10364193 0.96407455
vt 0.10364193 0.96407455
vt 0.10364193 0.96407455
vt 0.10364193 0.96407455
vt 0.10364193 0.96407455
vt 0.10364193 0.96407455
vt 0.10364193 0.96407455
vt 0.10364193 0.96407455
vt 0.10364193 0.96407455
vt 0.10364193 0.96407455
vt 0.10364193 0.96407455
vt 0.10364193 0.96407455
vt 0.10364193 0.96407455
vt 0.10364193 0.96407455
vt 0.10364193 0.96407455
vt 0.10364193 0.96407455
vt 0.10364193 0.96407455
vt 0.10364193 0.96407455
vt 0.10364193 0.96407455
vt 0.14704742 0.7160432
vt 0.14704742 0.7160432
vt 0.14704742 0.7160432
vt 0.14704742 0.7160432
vt 0.14704742 0.7160432
vt 0.14704742 0.7160432
vt 0.14704742 0.7160432
vt 0.14704742 0.7160432
vt 0.14704742 0.7160432
vt 0.14704742 0.7160432
vt 0.14704742 0.7160432
vt 0.14704742 0.7160432
vt 0.14704742 0.7160432
vt 0.14704742 0.7160432
vt 0.14704742 0.7160432
vt 0.14704742 0.7160432
vt 0.14704742 0.7160432
vt 0.14704742 0.7160432
vt 0.14704742 0.7160432
vt 0.14704742 0.7160432
vt 0.14704742 0.7160432
vt 0.14704742 0.7160432
vt 0.14704742 0.7160432
vt 0.14704742 0.7160432
vt 0.10364193 0.96407455
vt 0.10364193 0.96407455
vt 0.10364193 0.96407455
vt 0.10364193 0.96407455
vt 0.10364193 0.95915306
vt 0.10364193 0.95915306
vt 0.10364193 0.95915306
vt 0.10364193 0.95915306
vt 0.10364193 0.95915306
vt 0.10364193 0.95915306
vt 0.10364193 0.95915306
vt 0.10364193 0.95915306
vt 0.12369152 0.7400699
vt 0.11581548 0.73723483
vt 0.115519114 0.7366256
vt 0.12361015 0.7393853
vt 0.11328584 0.73544246
vt 0.11802775 0.73618627
vt 0.12369152 0.7400699
vt 0.123992145 0.7408874
vt 0.11196281 0.7362912
vt 0.11581548 0.73723483
vt 0.1632859 0.7010033
vt 0.1632859 0.7010033
vt 0.1632859 0.7010033
vt 0.1632859 0.7010033
vt 0.1632859 0.7010033
vt 0.1632859 0.7010033
vt 0.1632859 0.7010033
vt 0.1632859 0.7010033
vt 0.1632859 0.7010033
vt 0.1632859 0.7010033
vt 0.1632859 0.7010033
vt 0.1632859 0.7010033
vt 0.1632859 0.7010033
vt 0.1632859 0.7010033
vt 0.1632859 0.7010033
vt 0.1632859 0.7010033
vt 0.1632859 0.7010033
vt 0.1632859 0.7010033
vt 0.1632859 0.7010033
vt 0.1632859 0.7010033
vt 0.1632859 0.7010033
vt 0.1632859 0.7010033
vt 0.1632859 0.7010033
vt 0.1632859 0.7010033
vt 0.089892544 0.7350668
vt 0.089892544 0.7350668
vt 0.089892544 0.7350668
vt 0.089892544 0.7350668
vt 0.08989254 0.7350668
vt 0.08989255 0.7350668
vt 0.1632859 0.7010033
vt 0.1632859 0.7010033
vt 0.1632859 0.7010033
vt 0.1632859 0.7010033
vt 0.1632859 0.7010033
vt 0.1632859 0.7010033
vt 0.1632859 0.7010033
vt 0.1632859 0.7010033
vt 0.1632859 0.7010033
vt 0.1632859 0.7010033
vt 0.1632859 0.7010033
vt 0.1632859 0.7010033
vt 0.1632859 0.7010033
vt 0.1632859 0.7010033
vt 0.1632859 0.7010033
vt 0.1632859 0.7010033
vt 0.1632859 0.7010033
vt 0.1632859 0.7010033
vt 0.1632859 0.7010033
vt 0.1632859 0.7010033
vt 0.1632859 0.7010033
vt 0.1632859 0.7010033
vt 0.1632859 0.7010033
vt 0.1632859 0.7010033
vt 0.1632859 0.7010033
vt 0.1632859 0.7010033
vt 0.1632859 0.7010033
vt 0.1632859 0.7010033
vt 0.1632859 0.7010033
vt 0.1632859 0.7010033
vt 0.1632859 0.7010033
vt 0.1632859 0.7010033
vt 0.1632859 0.7010033
vt 0.1632859 0.7010033
vt 0.1632859 0.7010033
vt 0.1632859 0.7010033
vt 0.1632859 0.7010033
vt 0.1632859 0.7010033
vt 0.23145932 0.78680545
vt 0.23107424 0.79345715
vt 0.22340359 0.7863391
vt 0.22109179 0.7742066
vt 0.23215155 0.7748469
vt 0.2302794 0.77432996
vt 0.21878006 0.76207423
vt 0.22127123 0.7738085
vt 0.23284386 0.7628884
vt 0.22909956 0.7618545
vt 0.2164683 0.7499418
vt 0.21913886 0.76127785
vt 0.23353615 0.75092983
vt 0.22791974 0.7493791
vt 0.21578643 0.736593
vt 0.21700649 0.7487473
vt 0.2343041 0.73766506
vt 0.22542566 0.73682755
vt 0.21510452 0.7232442
vt 0.23507205 0.72440016
vt 0.23637268 0.7124976
vt 0.21355993 0.7361406
vt 0.22086963 0.7241566
vt 0.20805144 0.72341454
vt 0.1632859 0.7010033
vt 0.1632859 0.7010033
vt 0.1632859 0.7010033
vt 0.1632859 0.7010033
vt 0.10364193 0.96407455
vt 0.10364193 0.96407455
vt 0.10364193 0.96407455
vt 0.10364193 0.96407455
vt 0.10364193 0.96407455
vt 0.10364193 0.96407455
vt 0.10364193 0.96407455
vt 0.10364193 0.96407455
vt 0.10364193 0.96407455
vt 0.10364193 0.96407455
vt 0.10364193 0.96407455
vt 0.10364193 0.96407455
vt 0.10364193 0.96407455
vt 0.10364193 0.96407455
vt 0.10364193 0.96407455
vt 0.10364193 0.96407455
vt 0.10364193 0.96407455
vt 0.10364193 0.96407455
vt 0.10364193 0.96407455
vt 0.10364193 0.96407455
vt 0.14704742 0.7160432
vt 0.14704742 0.7160432
vt 0.14704742 0.7160432
vt 0.14704742 0.7160432
vt 0.14704742 0.7160432
vt 0.14704742 0.7160432
vt 0.14704742 0.7160432
vt 0.14704742 0.7160432
vt 0.14704742 0.7160432
vt 0.14704742 0.7160432
vt 0.14704742 0.7160432
vt 0.14704742 0.7160432
vt 0.14704742 0.7160432
vt 0.14704742 0.7160432
vt 0.14704742 0.7160432
vt 0.14704742 0.7160432
vt 0.14704742 0.7160432
vt 0.14704742 0.7160432
vt 0.14704742 0.7160432
vt 0.14704742 0.7160432
vt 0.14704742 0.7160432
vt 0.14704742 0.7160432
vt 0.14704742 0.7160432
vt 0.14704742 0.7160432
vt 0.10364193 0.96407455
vt 0.10364193 0.96407455
vt 0.10364193 0.96407455
vt 0.10364193 0.96407455
vt 0.10364193 0.95915306
vt 0.10364193 0.95915306
vt 0.10364193 0.95915306
vt 0.10364193 0.95915306
vt 0.10364193 0.95915306
vt 0.10364193 0.95915306
vt 0.10364193 0.95915306
vt 0.10364193 0.95915306
vt 0.12369152 0.7400699
vt 0.11581548 0.73723483
vt 0.115519114 0.7366256
vt 0.12361015 0.7393853
vt 0.11328584 0.73544246
vt 0.11802775 0.73618627
vt 0.12369152 0.7400699
vt 0.123992145 0.7408874
vt 0.11196281 0.7362912
vt 0.11581548 0.73723483
vt 0.1632859 0.7010033
vt 0.1632859 0.7010033
vt 0.1632859 0.7010033
vt 0.1632859 0.7010033
vt 0.1632859 0.7010033
vt 0.1632859 0.7010033
vt 0.1632859 0.7010033
vt 0.1632859 0.7010033
vt 0.1632859 0.7010033
vt 0.1632859 0.7010033
vt 0.1632859 0.7010033
vt 0.1632859 0.7010033
vt 0.1632859 0.7010033
vt 0.1632859 0.7010033
vt 0.1632859 0.7010033
vt 0.1632859 0.7010033
vt 0.1632859 0.7010033
vt 0.1632859 0.7010033
vt 0.1632859 0.7010033
vt 0.1632859 0.7010033
vt 0.1632859 0.7010033
vt 0.1632859 0.7010033
vt 0.1632859 0.7010033
vt 0.1632859 0.7010033
vt 0.089892544 0.7350668
vt 0.089892544 0.7350668
vt 0.089892544 0.7350668
vt 0.089892544 0.7350668
vt 0.08989254 0.7350668
vt 0.08989255 0.7350668
vt 0.1632859 0.7010033
vt 0.1632859 0.7010033
vt 0.1632859 0.7010033
vt 0.1632859 0.7010033
vt 0.1632859 0.7010033
vt 0.1632859 0.7010033
vt 0.1632859 0.7010033
vt 0.1632859 0.7010033
vt 0.1632859 0.7010033
vt 0.1632859 0.7010033
vt 0.1632859 0.7010033
vt 0.1632859 0.7010033
vt 0.1632859 0.7010033
vt 0.1632859 0.7010033
vt 0.1632859 0.7010033
vt 0.1632859 0.7010033
vt 0.1632859 0.7010033
vt 0.1632859 0.7010033
vt 0.1632859 0.7010033
vt 0.1632859 0.7010033
vt 0.1632859 0.7010033
vt 0.1632859 0.7010033
vt 0.1632859 0.7010033
vt 0.1632859 0.7010033
vt 0.1632859 0.7010033
vt 0.1632859 0.7010033
vt 0.1632859 0.7010033
vt 0.1632859 0.7010033
vt 0.1632859 0.7010033
vt 0.1632859 0.7010033
vt 0.1632859 0.7010033
vt 0.1632859 0.7010033
vt 0.1632859 0.7010033
vt 0.1632859 0.7010033
vt 0.1632859 0.7010033
vt 0.1632859 0.7010033
vt 0.1632859 0.7010033
vt 0.1632859 0.7010033
vt 0.23145932 0.78680545
vt 0.23107424 0.79345715
vt 0.22340359 0.7863391
vt 0.22109179 0.7742066
vt 0.23215155 0.7748469
vt 0.2302794 0.77432996
vt 0.21878006 0.76207423
vt 0.22127123 0.7738085
vt 0.23284386 0.7628884
vt 0.22909956 0.7618545
vt 0.2164683 0.7499418
vt 0.21913886 0.76127785
vt 0.23353615 0.75092983
vt 0.22791974 0.7493791
vt 0.21578643 0.736593
vt 0.21700649 0.7487473
vt 0.2343041 0.73766506
vt 0.22542566 0.73682755
vt 0.21510452 0.7232442
vt 0.23507205 0.72440016
vt 0.23637268 0.7124976
vt 0.21355993 0.7361406
vt 0.22086963 0.7241566
vt 0.20805144 0.72341454
vt 0.1632859 0.7010033
vt 0.1632859 0.7010033
vt 0.1632859 0.7010033
vt 0.1632859 0.7010033
vt 0.10364193 0.96407455
vt 0.10364193 0.96407455
vt 0.10364193 0.96407455
vt 0.10364193 0.96407455
vt 0.10364193 0.96407455
vt 0.10364193 0.96407455
vt 0.10364193 0.96407455
vt 0.10364193 0.96407455
vt 0.10364193 0.96407455
vt 0.10364193 0.96407455
vt 0.10364193 0.96407455
vt 0.10364193 0.96407455
vt 0.10364193 0.96407455
vt 0.10364193 0.96407455
vt 0.10364193 0.96407455
vt 0.10364193 0.96407455
vt 0.10364193 0.96407455
vt 0.10364193 0.96407455
vt 0.10364193 0.96407455
vt 0.10364193 0.96407455
vt 0.14704742 0.7160432
vt 0.14704742 0.7160432
vt 0.14704742 0.7160432
vt 0.14704742 0.7160432
vt 0.14704742 0.7160432
vt 0.14704742 0.7160432
vt 0.14704742 0.7160432
vt 0.14704742 0.7160432
vt 0.14704742 0.7160432
vt 0.14704742 0.7160432
vt 0.14704742 0.7160432
vt 0.14704742 0.7160432
vt 0.14704742 0.7160432
vt 0.14704742 0.7160432
vt 0.14704742 0.7160432
vt 0.14704742 0.7160432
vt 0.14704742 0.7160432
vt 0.14704742 0.7160432
vt 0.14704742 0.7160432
vt 0.14704742 0.7160432
vt 0.14704742 0.7160432
vt 0.14704742 0.7160432
vt 0.14704742 0.7160432
vt 0.14704742 0.7160432
vt 0.10364193 0.96407455
vt 0.10364193 0.96407455
vt 0.10364193 0.96407455
vt 0.10364193 0.96407455
vt 0.10364193 0.95915306
vt 0.10364193 0.95915306
vt 0.10364193 0.95915306
vt 0.10364193 0.95915306
vt 0.10364193 0.95915306
vt 0.10364193 0.95915306
vt 0.10364193 0.95915306
vt 0.10364193 0.95915306
vt 0.115519114 0.7366256
vt 0.11581548 0.73723483
vt 0.12369152 0.7400699
vt 0.12361015 0.7393853
vt 0.11328584 0.73544246
vt 0.11802775 0.73618627
vt 0.12369152 0.7400699
vt 0.11581548 0.73723483
vt 0.11196281 0.7362912
vt 0.123992145 0.7408874
vt 0.1632859 0.7010033
vt 0.1632859 0.7010033
vt 0.1632859 0.7010033
vt 0.1632859 0.7010033
vt 0.1632859 0.7010033
vt 0.1632859 0.7010033
vt 0.1632859 0.7010033
vt 0.1632859 0.7010033
vt 0.1632859 0.7010033
vt 0.1632859 0.7010033
vt 0.1632859 0.7010033
vt 0.1632859 0.7010033
vt 0.1632859 0.7010033
vt 0.1632859 0.7010033
vt 0.1632859 0.7010033
vt 0.1632859 0.7010033
vt 0.1632859 0.7010033
vt 0.1632859 0.7010033
vt 0.1632859 0.7010033
vt 0.1632859 0.7010033
vt 0.1632859 0.7010033
vt 0.1632859 0.7010033
vt 0.1632859 0.7010033
vt 0.1632859 0.7010033
vt 0.089892544 0.7350668
vt 0.089892544 0.7350668
vt 0.089892544 0.7350668
vt 0.089892544 0.7350668
vt 0.08989254 0.7350668
vt 0.08989255 0.7350668
vt 0.1632859 0.7010033
vt 0.1632859 0.7010033
vt 0.1632859 0.7010033
vt 0.1632859 0.7010033
vt 0.1632859 0.7010033
vt 0.1632859 0.7010033
vt 0.1632859 0.7010033
vt 0.1632859 0.7010033
vt 0.1632859 0.7010033
vt 0.1632859 0.7010033
vt 0.1632859 0.7010033
vt 0.1632859 0.7010033
vt 0.1632859 0.7010033
vt 0.1632859 0.7010033
vt 0.1632859 0.7010033
vt 0.1632859 0.7010033
vt 0.1632859 0.7010033
vt 0.1632859 0.7010033
vt 0.1632859 0.7010033
vt 0.1632859 0.7010033
vt 0.1632859 0.7010033
vt 0.1632859 0.7010033
vt 0.1632859 0.7010033
vt 0.1632859 0.7010033
vt 0.1632859 0.7010033
vt 0.1632859 0.7010033
vt 0.1632859 0.7010033
vt 0.1632859 0.7010033
vt 0.1632859 0.7010033
vt 0.1632859 0.7010033
vt 0.1632859 0.7010033
vt 0.1632859 0.7010033
vt 0.1632859 0.7010033
vt 0.1632859 0.7010033
vt 0.1632859 0.7010033
vt 0.1632859 0.7010033
vt 0.1632859 0.7010033
vt 0.1632859 0.7010033
vt 0.23145932 0.78680545
vt 0.22340359 0.7863391
vt 0.23107424 0.79345715
vt 0.22109179 0.7742066
vt 0.23215155 0.7748469
vt 0.2302794 0.77432996
vt 0.21878006 0.76207423
vt 0.22127123 0.7738085
vt 0.23284386 0.7628884
vt 0.22909956 0.7618545
vt 0.2164683 0.7499418
vt 0.21913886 0.76127785
vt 0.23353615 0.75092983
vt 0.22791974 0.7493791
vt 0.21578643 0.736593
vt 0.21700649 0.7487473
vt 0.2343041 0.73766506
vt 0.22542566 0.73682755
vt 0.21510452 0.7232442
vt 0.23507205 0.72440016
vt 0.23637268 0.7124976
vt 0.21355993 0.7361406
vt 0.22086963 0.7241566
vt 0.20805144 0.72341454
vt 0.10364193 0.96407455
vt 0.10364193 0.96407455
vt 0.10364193 0.96407455
vt 0.10364193 0.96407455
vt 0.10364193 0.96407455
vt 0.10364193 0.96407455
vt 0.10364193 0.96407455
vt 0.10364193 0.96407455
vt 0.10364193 0.96407455
vt 0.1632859 0.7010033
vt 0.1632859 0.7010033
vt 0.1632859 0.7010033
vt 0.1632859 0.7010033
vt 0.1632859 0.7010033
vt 0.1632859 0.7010033
vt 0.1632859 0.7010033
vt 0.1632859 0.7010033
vt 0.1632859 0.7010033
vt 0.1632859 0.7010033
vt 0.1632859 0.7010033
vt 0.1632859 0.7010033
vt 0.1632859 0.7010033
vt 0.1632859 0.7010033
vt 0.1632859 0.7010033
vt 0.1632859 0.7010033
vt 0.1632859 0.7010033
vt 0.1632859 0.7010033
vt 0.1632859 0.7010033
vt 0.1632859 0.7010033
vt 0.1632859 0.7010033
vt 0.1632859 0.7010033
vt 0.1632859 0.7010033
vt 0.1632859 0.7010033
vt 0.1632859 0.7010033
vt 0.1632859 0.7010033
vt 0.1632859 0.7010033
vt 0.1632859 0.7010033
vt 0.1632859 0.7010033
vt 0.1632859 0.7010033
vt 0.1632859 0.7010033
vt 0.1632859 0.7010033
vt 0.1632859 0.7010033
vt 0.1632859 0.7010033
vt 0.1632859 0.7010033
vt 0.1632859 0.7010033
vt 0.1632859 0.7010033
vt 0.1632859 0.7010033
vn -0.5214766 -0.65474993 -0.54714227
vn -0.5214766 -0.65474993 -0.54714227
vn -0.5214766 -0.65474993 -0.54714227
vn -0.575227 -0.6971655 0.4278717
vn -0.575227 -0.6971655 0.4278717
vn -0.575227 -0.6971655 0.4278717
vn -0.47305733 -0.6760563 -0.5649467
vn -0.47305733 -0.6760563 -0.5649467
vn -0.47305733 -0.6760563 -0.5649467
vn -0.5255991 -0.7250679 0.44499663
vn -0.5255991 -0.7250679 0.44499663
vn -0.5255991 -0.7250679 0.44499663
vn -0.42702666 -0.6938643 -0.5798282
vn -0.42702666 -0.6938643 -0.5798282
vn -0.42702666 -0.6938643 -0.5798282
vn -0.47745213 -0.74886864 0.45960322
vn -0.47745213 -0.74886864 0.45960322
vn -0.47745213 -0.74886864 0.45960322
vn -0.5100143 -0.84782606 0.14517687
vn -0.5100143 -0.84782606 0.14517687
vn -0.5100143 -0.84782606 0.14517687
vn -0.5659394 -0.6087355 -0.556016
vn -0.5659394 -0.6087355 -0.556016
vn -0.5659394 -0.6087355 -0.556016
vn -0.52147657 0.6547502 -0.5471421
vn -0.52147657 0.6547502 -0.5471421
vn -0.52147657 0.6547502 -0.5471421
vn -0.5752277 0.6971649 0.42787164
vn -0.5752277 0.6971649 0.42787164
vn -0.5752277 0.6971649 0.42787164
vn -0.47305703 0.6760564 -0.5649468
vn -0.47305703 0.6760564 -0.5649468
vn -0.47305703 0.6760564 -0.5649468
vn -0.52559865 0.7250682 0.44499665
vn -0.52559865 0.7250682 0.44499665
vn -0.52559865 0.7250682 0.44499665
vn -0.42702612 0.6938651 -0.5798275
vn -0.42702612 0.6938651 -0.5798275
vn -0.42702612 0.6938651 -0.5798275
vn -0.47745252 0.7488685 0.45960313
vn -0.47745252 0.7488685 0.45960313
vn -0.47745252 0.7488685 0.45960313
vn -0.5100143 0.84782606 0.14517684
vn -0.5100143 0.84782606 0.14517684
vn -0.5100143 0.84782606 0.14517684
vn -0.5659395 0.6087355 -0.55601585
vn -0.5659395 0.6087355 -0.55601585
vn -0.5659395 0.6087355 -0.55601585
vn 0.52147657 -0.65475017 -0.5471421
vn 0.52147657 -0.65475017 -0.5471421
vn 0.52147657 -0.65475017 -0.5471421
vn 0.5752275 -0.69716525 0.4278715
vn 0.5752275 -0.69716525 0.4278715
vn 0.5752275 -0.69716525 0.4278715
vn 0.47305757 -0.6760562 -0.56494653
vn 0.47305757 -0.6760562 -0.56494653
vn 0.47305757 -0.6760562 -0.56494653
vn 0.52559894 -0.72506857 0.44499594
vn 0.52559894 -0.72506857 0.44499594
vn 0.52559894 -0.72506857 0.44499594
vn 0.42702708 -0.693864 -0.5798282
vn 0.42702708 -0.693864 -0.5798282
vn 0.42702708 -0.693864 -0.5798282
vn 0.47745243 -0.7488677 0.4596044
vn 0.47745243 -0.7488677 0.4596044
vn 0.47745243 -0.7488677 0.4596044
vn 0.51001394 -0.8478263 0.14517704
vn 0.51001394 -0.8478263 0.14517704
vn 0.51001394 -0.8478263 0.14517704
vn 0.56593996 -0.6087348 -0.55601615
vn 0.56593996 -0.6087348 -0.55601615
vn 0.56593996 -0.6087348 -0.55601615
vn 0.5214767 0.65474993 -0.54714227
vn 0.5214767 0.65474993 -0.54714227
vn 0.5214767 0.65474993 -0.54714227
vn 0.57522714 0.69716537 0.42787164
vn 0.57522714 0.69716537 0.42787164
vn 0.57522714 0.69716537 0.42787164
vn 0.4730574 0.6760559 -0.56494695
vn 0.4730574 0.6760559 -0.56494695
vn 0.4730574 0.6760559 -0.56494695
vn 0.52559865 0.7250685 0.44499648
vn 0.52559865 0.7250685 0.44499648
vn 0.52559865 0.7250685 0.44499648
vn 0.42702672 0.69386435 -0.57982796
vn 0.42702672 0.69386435 -0.57982796
vn 0.42702672 0.69386435 -0.57982796
vn 0.47745287 0.74886817 0.45960322
vn 0.47745287 0.74886817 0.45960322
vn 0.47745287 0.74886817 0.45960322
vn 0.5100142 0.8478261 0.14517698
vn 0.5100142 0.8478261 0.14517698
vn 0.5100142 0.8478261 0.14517698
vn 0.5659396 0.6087352 -0.55601597
vn 0.5659396 0.6087352 -0.55601597
vn 0.5659396 0.6087352 -0.55601597
vn -0.6860376 -0.46032467 0.5634302
vn -0.6860376 -0.46032467 0.5634302
vn -0.6860376 -0.46032467 0.5634302
vn -0.6860376 -0.46032467 0.5634302
vn -0.8521566 -0.50479174 0.13789316
vn -0.8521566 -0.50479174 0.13789316
vn -0.8521566 -0.50479174 0.13789316
vn -0.8521566 -0.50479174 0.13789316
vn -0.3992056 -0.89199156 0.21209858
vn -0.3992056 -0.89199156 0.21209858
vn -0.3992056 -0.89199156 0.21209858
vn -0.3992056 -0.89199156 0.21209858
vn -0.82491934 -0.48865864 -0.2841142
vn -0.82491934 -0.48865864 -0.2841142
vn -0.82491934 -0.48865864 -0.2841142
vn -0.82491934 -0.48865864 -0.2841142
vn -0.35668865 -0.9337774 0.028859122
vn -0.35668865 -0.9337774 0.028859122
vn -0.35668865 -0.9337774 0.028859122
vn -0.35668865 -0.9337774 0.028859122
vn -0.23626032 -0.96606255 -0.104423195
vn -0.23626032 -0.96606255 -0.104423195
vn -0.23626032 -0.96606255 -0.104423195
vn -0.23626032 -0.96606255 -0.104423195
vn -0.6433167 -0.1065988 -0.7581427
vn -0.6433167 -0.1065988 -0.7581427
vn -0.6433167 -0.1065988 -0.7581427
vn -0.6433167 -0.1065988 -0.7581427
vn -0.7036189 -0.3582575 0.6136547
vn -0.7036189 -0.3582575 0.6136547
vn -0.7036189 -0.3582575 0.6136547
vn -0.7036189 -0.3582575 0.6136547
vn -0.60330576 -0.086261325 -0.79283106
vn -0.60330576 -0.086261325 -0.79283106
vn -0.60330576 -0.086261325 -0.79283106
vn -0.60330576 -0.086261325 -0.79283106
vn -0.66622245 -0.23038952 0.70927304
vn -0.66622245 -0.23038952 0.70927304
vn -0.66622245 -0.23038952 0.70927304
vn -0.66622245 -0.23038952 0.70927304
vn -0.5619835 -0.06594883 -0.8245152
vn -0.5619835 -0.06594883 -0.8245152
vn -0.5619835 -0.06594883 -0.8245152
vn -0.5619835 -0.06594883 -0.8245152
vn -0.6259854 -0.21512638 0.7495753
vn -0.6259854 -0.21512638 0.7495753
vn -0.6259854 -0.21512638 0.7495753
vn -0.6259854 -0.21512638 0.7495753
vn -0.8945011 -0.3796537 0.23607408
vn -0.8945011 -0.3796537 0.23607408
vn -0.8945011 -0.3796537 0.23607408
vn -0.8945011 -0.3796537 0.23607408
vn -0.4003411 -0.9121851 -0.0874389
vn -0.4003411 -0.9121851 -0.0874389
vn -0.4003411 -0.9121851 -0.0874389
vn -0.4003411 -0.9121851 -0.0874389
vn -0.18208352 -0.49237835 -0.8511223
vn -0.18208352 -0.49237835 -0.8511223
vn -0.18208352 -0.49237835 -0.8511223
vn -0.18208352 -0.49237835 -0.8511223
vn -0.423016 -0.89988023 0.10617512
vn -0.423016 -0.89988023 0.10617512
vn -0.423016 -0.89988023 0.10617512
vn -0.423016 -0.89988023 0.10617512
vn -0.423016 -0.89988023 0.10617512
vn -0.423016 -0.89988023 0.10617512
vn -0.56593895 -0.6087359 -0.55601597
vn -0.56593895 -0.6087359 -0.55601597
vn -0.56593895 -0.6087359 -0.55601597
vn -0.56593895 -0.6087359 -0.55601597
vn -0.1752638 -0.9672683 -0.1835063
vn -0.1752638 -0.9672683 -0.1835063
vn -0.1752638 -0.9672683 -0.1835063
vn -0.1752638 -0.9672683 -0.1835063
vn -0.16889599 -0.8841817 0.43554214
vn -0.16889599 -0.8841817 0.43554214
vn -0.16889599 -0.8841817 0.43554214
vn -0.16889599 -0.8841817 0.43554214
vn -0.09926231 -0.9051411 -0.41336015
vn -0.09926231 -0.9051411 -0.41336015
vn -0.09926231 -0.9051411 -0.41336015
vn -0.09926231 -0.9051411 -0.41336015
vn -0.8143079 -0.5202884 -0.25729838
vn -0.8143079 -0.5202884 -0.25729838
vn -0.8143079 -0.5202884 -0.25729838
vn -0.8143079 -0.5202884 -0.25729838
vn -0 0 -1
vn -0 0 -1
vn -0 0 -1
vn -0 0 -1
vn -0 0 -1
vn -0 0 -1
vn -0 0 -1
vn -0 0 -1
vn -0 0 -1
vn -0.7637463 -0.30387262 -0.5695199
vn -0.7637463 -0.30387262 -0.5695199
vn -0.7637463 -0.30387262 -0.5695199
vn -0.7637463 -0.30387262 -0.5695199
vn -0.57891 -0.71569604 -0.3906948
vn -0.57891 -0.71569604 -0.3906948
vn -0.57891 -0.71569604 -0.3906948
vn -0.57891 -0.71569604 -0.3906948
vn -0.3245358 -0.94426006 0.055222034
vn -0.3245358 -0.94426006 0.055222034
vn -0.3245358 -0.94426006 0.055222034
vn -0.3245358 -0.94426006 0.055222034
vn -0.3245358 -0.94426006 0.055222034
vn -0.3245358 -0.94426006 0.055222034
vn -0.74655914 -0.6331352 0.20442422
vn -0.74655914 -0.6331352 0.20442422
vn -0.74655914 -0.6331352 0.20442422
vn -0.74655914 -0.6331352 0.20442422
vn -0.74655914 -0.6331352 0.20442422
vn -0.74655914 -0.6331352 0.20442422
vn -0.74655914 -0.6331352 0.20442422
vn -0.74655914 -0.6331352 0.20442422
vn 0.1419342 -0.8886879 0.43599144
vn 0.1419342 -0.8886879 0.43599144
vn 0.1419342 -0.8886879 0.43599144
vn 0.1419342 -0.8886879 0.43599144
vn 0.1419342 -0.8886879 0.43599144
vn 0.1419342 -0.8886879 0.43599144
vn 0.4078322 -0.9068188 -0.106548615
vn 0.4078322 -0.9068188 -0.106548615
vn 0.4078322 -0.9068188 -0.106548615
vn 0.4078322 -0.9068188 -0.106548615
vn 0.4078322 -0.9068188 -0.106548615
vn 0.4078322 -0.9068188 -0.106548615
vn 0.4078322 -0.9068188 -0.106548615
vn 0.4078322 -0.9068188 -0.106548615
vn -0.46781 -0.18196173 -0.8648953
vn -0.46781 -0.18196173 -0.8648953
vn -0.46781 -0.18196173 -0.8648953
vn -0.46781 -0.18196173 -0.8648953
vn -0.7123288 -0.66046065 -0.23744364
vn -0.7123288 -0.66046065 -0.23744364
vn -0.7123288 -0.66046065 -0.23744364
vn -0.7123288 -0.66046065 -0.23744364
vn -0.01398515 -0.9998914 -0.0046613794
vn -0.01398515 -0.9998914 -0.0046613794
vn -0.01398515 -0.9998914 -0.0046613794
vn -0.01398515 -0.9998914 -0.0046613794
vn -0.056416802 -0.9976815 0.038062315
vn -0.056416802 -0.9976815 0.038062315
vn -0.056416802 -0.9976815 0.038062315
vn -0.056416802 -0.9976815 0.038062315
vn -0 -0.9064628 0.42228556
vn -0.9145926 0 0.40437642
vn -0 0 1
vn -0.97235703 0 0.23349874
vn -0 -0.9670401 0.254624
vn -0.6944317 -0.67544883 0.24805929
vn -0.9718188 0 0.2357293
vn -0.6946469 -0.67532825 0.24778515
vn -0 -0.9677115 0.25206032
vn -0.6824582 -0.6824582 0.26172802
vn -0.98600346 0 0.16672455
vn -0.6824582 -0.6824582 0.26172802
vn -0 -0.9843349 0.17630926
vn -0.66802204 -0.66802204 0.32786152
vn -0.994383 0 0.10584127
vn -0.66801876 -0.66801876 0.3278749
vn -0 -0.9937558 0.11157703
vn -0.622904 -0.622904 0.47326666
vn -0.93112564 0 -0.3646985
vn -0 -0.93031937 -0.36675027
vn -0 0 -1
vn -0.622904 -0.622904 0.47326666
vn -0.5908831 -0.5908831 0.5492853
vn -0.5908831 -0.5908831 0.5492853
vn -0.68603814 0.46032488 0.56342936
vn -0.68603814 0.46032488 0.56342936
vn -0.68603814 0.46032488 0.56342936
vn -0.68603814 0.46032488 0.56342936
vn -0.85215646 0.5047918 0.1378931
vn -0.85215646 0.5047918 0.1378931
vn -0.85215646 0.5047918 0.1378931
vn -0.85215646 0.5047918 0.1378931
vn -0.39920563 0.89199156 0.21209852
vn -0.39920563 0.89199156 0.21209852
vn -0.39920563 0.89199156 0.21209852
vn -0.39920563 0.89199156 0.21209852
vn -0.8249195 0.48865843 -0.28411412
vn -0.8249195 0.48865843 -0.28411412
vn -0.8249195 0.48865843 -0.28411412
vn -0.8249195 0.48865843 -0.28411412
vn -0.35668883 0.9337774 0.028859053
vn -0.35668883 0.9337774 0.028859053
vn -0.35668883 0.9337774 0.028859053
vn -0.35668883 0.9337774 0.028859053
vn -0.23626034 0.96606255 -0.10442317
vn -0.23626034 0.96606255 -0.10442317
vn -0.23626034 0.96606255 -0.10442317
vn -0.23626034 0.96606255 -0.10442317
vn -0.6433168 0.106599 -0.7581426
vn -0.6433168 0.106599 -0.7581426
vn -0.6433168 0.106599 -0.7581426
vn -0.6433168 0.106599 -0.7581426
vn -0.70361876 0.35825807 0.61365443
vn -0.70361876 0.35825807 0.61365443
vn -0.70361876 0.35825807 0.61365443
vn -0.70361876 0.35825807 0.61365443
vn -0.60330576 0.08626016 -0.7928312
vn -0.60330576 0.08626016 -0.7928312
vn -0.60330576 0.08626016 -0.7928312
vn -0.60330576 0.08626016 -0.7928312
vn -0.66622275 0.23038915 0.70927286
vn -0.66622275 0.23038915 0.70927286
vn -0.66622275 0.23038915 0.70927286
vn -0.66622275 0.23038915 0.70927286
vn -0.5619833 0.065949135 -0.8245153
vn -0.5619833 0.065949135 -0.8245153
vn -0.5619833 0.065949135 -0.8245153
vn -0.5619833 0.065949135 -0.8245153
vn -0.6259856 0.2151265 0.74957496
vn -0.6259856 0.2151265 0.74957496
vn -0.6259856 0.2151265 0.74957496
vn -0.6259856 0.2151265 0.74957496
vn -0.8945009 0.37965426 0.23607387
vn -0.8945009 0.37965426 0.23607387
vn -0.8945009 0.37965426 0.23607387
vn -0.8945009 0.37965426 0.23607387
vn -0.4003411 0.9121851 -0.08743903
vn -0.4003411 0.9121851 -0.08743903
vn -0.4003411 0.9121851 -0.08743903
vn -0.4003411 0.9121851 -0.08743903
vn -0.18208252 0.49237818 -0.85112256
vn -0.18208252 0.49237818 -0.85112256
vn -0.18208252 0.49237818 -0.85112256
vn -0.18208252 0.49237818 -0.85112256
vn -0.4230161 0.8998802 0.10617507
vn -0.4230161 0.8998802 0.10617507
vn -0.4230161 0.8998802 0.10617507
vn -0.4230161 0.8998802 0.10617507
vn -0.4230161 0.8998802 0.10617507
vn -0.4230161 0.8998802 0.10617507
vn -0.5659391 0.6087359 -0.55601585
vn -0.5659391 0.6087359 -0.55601585
vn -0.5659391 0.6087359 -0.55601585
vn -0.5659391 0.6087359 -0.55601585
vn -0.1752643 0.9672683 -0.18350632
vn -0.1752643 0.9672683 -0.18350632
vn -0.1752643 0.9672683 -0.18350632
vn -0.1752643 0.9672683 -0.18350632
vn -0.16889611 0.88418174 0.43554202
vn -0.16889611 0.88418174 0.43554202
vn -0.16889611 0.88418174 0.43554202
vn -0.16889611 0.88418174 0.43554202
vn -0.09926262 0.90514094 -0.4133604
vn -0.09926262 0.90514094 -0.4133604
vn -0.09926262 0.90514094 -0.4133604
vn -0.09926262 0.90514094 -0.4133604
vn -0.81430787 0.5202885 -0.25729847
vn -0.81430787 0.5202885 -0.25729847
vn -0.81430787 0.5202885 -0.25729847
vn -0.81430787 0.5202885 -0.25729847
vn -0.7637465 0.3038725 -0.56951976
vn -0.7637465 0.3038725 -0.56951976
vn -0.7637465 0.3038725 -0.56951976
vn -0.7637465 0.3038725 -0.56951976
vn -0.5789099 0.71569633 -0.39069447
vn -0.5789099 0.71569633 -0.39069447
vn -0.5789099 0.71569633 -0.39069447
vn -0.5789099 0.71569633 -0.39069447
vn -0.3245358 0.94426006 0.05522207
vn -0.3245358 0.94426006 0.05522207
vn -0.3245358 0.94426006 0.05522207
vn -0.3245358 0.94426006 0.05522207
vn -0.3245358 0.94426006 0.05522207
vn -0.3245358 0.94426006 0.05522207
vn -0.74655926 0.6331351 0.20442413
vn -0.74655926 0.6331351 0.20442413
vn -0.74655926 0.6331351 0.20442413
vn -0.74655926 0.6331351 0.20442413
vn -0.74655926 0.6331351 0.20442413
vn -0.74655926 0.6331351 0.20442413
vn -0.74655926 0.6331351 0.20442413
vn -0.74655926 0.6331351 0.20442413
vn 0.14193349 0.8886882 0.43599105
vn 0.14193349 0.8886882 0.43599105
vn 0.14193349 0.8886882 0.43599105
vn 0.14193349 0.8886882 0.43599105
vn 0.14193349 0.8886882 0.43599105
vn 0.14193349 0.8886882 0.43599105
vn 0.40783194 0.90681887 -0.10654879
vn 0.40783194 0.90681887 -0.10654879
vn 0.40783194 0.90681887 -0.10654879
vn 0.40783194 0.90681887 -0.10654879
vn 0.40783194 0.90681887 -0.10654879
vn 0.40783194 0.90681887 -0.10654879
vn 0.40783194 0.90681887 -0.10654879
vn 0.40783194 0.90681887 -0.10654879
vn -0.46781173 0.1819622 -0.8648942
vn -0.46781173 0.1819622 -0.8648942
vn -0.46781173 0.1819622 -0.8648942
vn -0.46781173 0.1819622 -0.8648942
vn -0.71232873 0.6604606 -0.23744385
vn -0.71232873 0.6604606 -0.23744385
vn -0.71232873 0.6604606 -0.23744385
vn -0.71232873 0.6604606 -0.23744385
vn -0.013985584 0.9998914 -0.004661808
vn -0.013985584 0.9998914 -0.004661808
vn -0.013985584 0.9998914 -0.004661808
vn -0.013985584 0.9998914 -0.004661808
vn -0.056416623 0.9976815 0.038061593
vn -0.056416623 0.9976815 0.038061593
vn -0.056416623 0.9976815 0.038061593
vn -0.056416623 0.9976815 0.038061593
vn -0 0.9064628 0.42228556
vn -0 0 1
vn -0.9145926 0 0.40437642
vn -0.97235703 0 0.23349874
vn -0 0.9670401 0.254624
vn -0.6944317 0.67544883 0.24805929
vn -0.9718188 0 0.2357293
vn -0.6946469 0.67532825 0.24778515
vn -0 0.9677115 0.25206032
vn -0.6824582 0.6824582 0.26172802
vn -0.98600346 0 0.16672455
vn -0.6824582 0.6824582 0.26172802
vn -0 0.9843349 0.17630926
vn -0.66802204 0.66802204 0.32786152
vn -0.994383 0 0.10584127
vn -0.66801876 0.66801876 0.3278749
vn -0 0.9937558 0.11157703
vn -0.622904 0.622904 0.47326666
vn -0.93112564 0 -0.3646985
vn -0 0.93031937 -0.36675027
vn -0 0 -1
vn -0.622904 0.622904 0.47326666
vn -0.5908831 0.5908831 0.5492853
vn -0.590893 0.590893 0.549264
vn 0.68603814 -0.46032524 0.5634291
vn 0.68603814 -0.46032524 0.5634291
vn 0.68603814 -0.46032524 0.5634291
vn 0.68603814 -0.46032524 0.5634291
vn 0.8521556 -0.5047933 0.13789323
vn 0.8521556 -0.5047933 0.13789323
vn 0.8521556 -0.5047933 0.13789323
vn 0.8521556 -0.5047933 0.13789323
vn 0.39920595 -0.8919915 0.21209855
vn 0.39920595 -0.8919915 0.21209855
vn 0.39920595 -0.8919915 0.21209855
vn 0.39920595 -0.8919915 0.21209855
vn 0.82491916 -0.48865902 -0.28411382
vn 0.82491916 -0.48865902 -0.28411382
vn 0.82491916 -0.48865902 -0.28411382
vn 0.82491916 -0.48865902 -0.28411382
vn 0.35668892 -0.9337773 0.028859224
vn 0.35668892 -0.9337773 0.028859224
vn 0.35668892 -0.9337773 0.028859224
vn 0.35668892 -0.9337773 0.028859224
vn 0.23626044 -0.96606255 -0.10442309
vn 0.23626044 -0.96606255 -0.10442309
vn 0.23626044 -0.96606255 -0.10442309
vn 0.23626044 -0.96606255 -0.10442309
vn 0.64331716 -0.10659774 -0.7581424
vn 0.64331716 -0.10659774 -0.7581424
vn 0.64331716 -0.10659774 -0.7581424
vn 0.64331716 -0.10659774 -0.7581424
vn 0.70361876 -0.35825765 0.61365473
vn 0.70361876 -0.35825765 0.61365473
vn 0.70361876 -0.35825765 0.61365473
vn 0.70361876 -0.35825765 0.61365473
vn 0.603306 -0.08625988 -0.792831
vn 0.603306 -0.08625988 -0.792831
vn 0.603306 -0.08625988 -0.792831
vn 0.603306 -0.08625988 -0.792831
vn 0.6662226 -0.23038885 0.7092731
vn 0.6662226 -0.23038885 0.7092731
vn 0.6662226 -0.23038885 0.7092731
vn 0.6662226 -0.23038885 0.7092731
vn 0.5619838 -0.06595051 -0.8245149
vn 0.5619838 -0.06595051 -0.8245149
vn 0.5619838 -0.06595051 -0.8245149
vn 0.5619838 -0.06595051 -0.8245149
vn 0.62598515 -0.2151262 0.74957544
vn 0.62598515 -0.2151262 0.74957544
vn 0.62598515 -0.2151262 0.74957544
vn 0.62598515 -0.2151262 0.74957544
vn 0.8945009 -0.37965396 0.23607434
vn 0.8945009 -0.37965396 0.23607434
vn 0.8945009 -0.37965396 0.23607434
vn 0.8945009 -0.37965396 0.23607434
vn 0.4003412 -0.91218495 -0.08743906
vn 0.4003412 -0.91218495 -0.08743906
vn 0.4003412 -0.91218495 -0.08743906
vn 0.4003412 -0.91218495 -0.08743906
vn 0.18208362 -0.49237835 -0.85112226
vn 0.18208362 -0.49237835 -0.85112226
vn 0.18208362 -0.49237835 -0.85112226
vn 0.18208362 -0.49237835 -0.85112226
vn 0.4230161 -0.8998802 0.10617528
vn 0.4230161 -0.8998802 0.10617528
vn 0.4230161 -0.8998802 0.10617528
vn 0.4230161 -0.8998802 0.10617528
vn 0.4230161 -0.8998802 0.10617528
vn 0.4230161 -0.8998802 0.10617528
vn 0.56593925 -0.60873574 -0.5560158
vn 0.56593925 -0.60873574 -0.5560158
vn 0.56593925 -0.60873574 -0.5560158
vn 0.56593925 -0.60873574 -0.5560158
vn 0.17526415 -0.9672683 -0.1835064
vn 0.17526415 -0.9672683 -0.1835064
vn 0.17526415 -0.9672683 -0.1835064
vn 0.17526415 -0.9672683 -0.1835064
vn 0.16889605 -0.88418186 0.43554193
vn 0.16889605 -0.88418186 0.43554193
vn 0.16889605 -0.88418186 0.43554193
vn 0.16889605 -0.88418186 0.43554193
vn 0.09926237 -0.90514123 -0.41335982
vn 0.09926237 -0.90514123 -0.41335982
vn 0.09926237 -0.90514123 -0.41335982
vn 0.09926237 -0.90514123 -0.41335982
vn 0.8143078 -0.52028894 -0.25729802
vn 0.8143078 -0.52028894 -0.25729802
vn 0.8143078 -0.52028894 -0.25729802
vn 0.8143078 -0.52028894 -0.25729802
vn 0.7637462 -0.303873 -0.56952
vn 0.7637462 -0.303873 -0.56952
vn 0.7637462 -0.303873 -0.56952
vn 0.7637462 -0.303873 -0.56952
vn 0.57890975 -0.7156965 -0.3906942
vn 0.57890975 -0.7156965 -0.3906942
vn 0.57890975 -0.7156965 -0.3906942
vn 0.57890975 -0.7156965 -0.3906942
vn 0.32453585 -0.94426006 0.05522214
vn 0.32453585 -0.94426006 0.05522214
vn 0.32453585 -0.94426006 0.05522214
vn 0.32453585 -0.94426006 0.05522214
vn 0.32453585 -0.94426006 0.05522214
vn 0.32453585 -0.94426006 0.05522214
vn 0.74655914 -0.6331351 0.20442432
vn 0.74655914 -0.6331351 0.20442432
vn 0.74655914 -0.6331351 0.20442432
vn 0.74655914 -0.6331351 0.20442432
vn 0.74655914 -0.6331351 0.20442432
vn 0.74655914 -0.6331351 0.20442432
vn 0.74655914 -0.6331351 0.20442432
vn 0.74655914 -0.6331351 0.20442432
vn -0.14193416 -0.8886879 0.43599147
vn -0.14193416 -0.8886879 0.43599147
vn -0.14193416 -0.8886879 0.43599147
vn -0.14193416 -0.8886879 0.43599147
vn -0.14193416 -0.8886879 0.43599147
vn -0.14193416 -0.8886879 0.43599147
vn -0.4078324 -0.9068186 -0.10654896
vn -0.4078324 -0.9068186 -0.10654896
vn -0.4078324 -0.9068186 -0.10654896
vn -0.4078324 -0.9068186 -0.10654896
vn -0.4078324 -0.9068186 -0.10654896
vn -0.4078324 -0.9068186 -0.10654896
vn -0.4078324 -0.9068186 -0.10654896
vn -0.4078324 -0.9068186 -0.10654896
vn 0.4678099 -0.1819609 -0.86489546
vn 0.4678099 -0.1819609 -0.86489546
vn 0.4678099 -0.1819609 -0.86489546
vn 0.4678099 -0.1819609 -0.86489546
vn 0.7123259 -0.6604641 -0.23744285
vn 0.7123259 -0.6604641 -0.23744285
vn 0.7123259 -0.6604641 -0.23744285
vn 0.7123259 -0.6604641 -0.23744285
vn 0.013985181 -0.9998914 -0.0046613896
vn 0.013985181 -0.9998914 -0.0046613896
vn 0.013985181 -0.9998914 -0.0046613896
vn 0.013985181 -0.9998914 -0.0046613896
vn 0.056416683 -0.9976815 0.038061872
vn 0.056416683 -0.9976815 0.038061872
vn 0.056416683 -0.9976815 0.038061872
vn 0.056416683 -0.9976815 0.038061872
vn -0 -0.9064628 0.42228556
vn -0 0 1
vn 0.9145926 0 0.40437642
vn 0.97235703 0 0.23349874
vn -0 -0.9670401 0.254624
vn 0.6944317 -0.67544883 0.24805929
vn 0.9718188 0 0.2357293
vn 0.6946612 -0.6753116 0.24779025
vn -0 -0.9677115 0.25206032
vn 0.6824582 -0.6824582 0.26172802
vn 0.98600346 0 0.16672455
vn 0.6824582 -0.6824582 0.26172802
vn -0 -0.9843349 0.17630926
vn 0.66802204 -0.66802204 0.32786152
vn 0.994383 0 0.10584127
vn 0.66801876 -0.66801876 0.3278749
vn -0 -0.9937558 0.11157703
vn 0.622904 -0.622904 0.47326666
vn 0.93112564 0 -0.3646985
vn -0 -0.93031937 -0.36675027
vn -0 0 -1
vn 0.622904 -0.622904 0.47326666
vn 0.590893 -0.590893 0.549264
vn 0.590893 -0.590893 0.549264
vn 0.68603814 0.46032545 0.563429
vn 0.68603814 0.46032545 0.563429
vn 0.68603814 0.46032545 0.563429
vn 0.68603814 0.46032545 0.563429
vn 0.8521556 0.5047933 0.13789317
vn 0.8521556 0.5047933 0.13789317
vn 0.8521556 0.5047933 0.13789317
vn 0.8521556 0.5047933 0.13789317
vn 0.39920565 0.89199156 0.21209855
vn 0.39920565 0.89199156 0.21209855
vn 0.39920565 0.89199156 0.21209855
vn 0.39920565 0.89199156 0.21209855
vn 0.8249194 0.48865873 -0.28411376
vn 0.8249194 0.48865873 -0.28411376
vn 0.8249194 0.48865873 -0.28411376
vn 0.8249194 0.48865873 -0.28411376
vn 0.35668877 0.9337774 0.028859144
vn 0.35668877 0.9337774 0.028859144
vn 0.35668877 0.9337774 0.028859144
vn 0.35668877 0.9337774 0.028859144
vn 0.23626022 0.96606266 -0.104423076
vn 0.23626022 0.96606266 -0.104423076
vn 0.23626022 0.96606266 -0.104423076
vn 0.23626022 0.96606266 -0.104423076
vn 0.64331716 0.10659738 -0.75814235
vn 0.64331716 0.10659738 -0.75814235
vn 0.64331716 0.10659738 -0.75814235
vn 0.64331716 0.10659738 -0.75814235
vn 0.7036188 0.35825703 0.6136549
vn 0.7036188 0.35825703 0.6136549
vn 0.7036188 0.35825703 0.6136549
vn 0.7036188 0.35825703 0.6136549
vn 0.60330606 0.08625954 -0.792831
vn 0.60330606 0.08625954 -0.792831
vn 0.60330606 0.08625954 -0.792831
vn 0.60330606 0.08625954 -0.792831
vn 0.66622263 0.23039019 0.7092726
vn 0.66622263 0.23039019 0.7092726
vn 0.66622263 0.23039019 0.7092726
vn 0.66622263 0.23039019 0.7092726
vn 0.5619833 0.0659517 -0.82451516
vn 0.5619833 0.0659517 -0.82451516
vn 0.5619833 0.0659517 -0.82451516
vn 0.5619833 0.0659517 -0.82451516
vn 0.6259858 0.21512632 0.74957484
vn 0.6259858 0.21512632 0.74957484
vn 0.6259858 0.21512632 0.74957484
vn 0.6259858 0.21512632 0.74957484
vn 0.8945009 0.37965387 0.23607431
vn 0.8945009 0.37965387 0.23607431
vn 0.8945009 0.37965387 0.23607431
vn 0.8945009 0.37965387 0.23607431
vn 0.40034142 0.9121849 -0.08743912
vn 0.40034142 0.9121849 -0.08743912
vn 0.40034142 0.9121849 -0.08743912
vn 0.40034142 0.9121849 -0.08743912
vn 0.18208314 0.4923782 -0.8511225
vn 0.18208314 0.4923782 -0.8511225
vn 0.18208314 0.4923782 -0.8511225
vn 0.18208314 0.4923782 -0.8511225
vn 0.42301592 0.89988023 0.1061752
vn 0.42301592 0.89988023 0.1061752
vn 0.42301592 0.89988023 0.1061752
vn 0.42301592 0.89988023 0.1061752
vn 0.42301592 0.89988023 0.1061752
vn 0.42301592 0.89988023 0.1061752
vn 0.56593907 0.6087358 -0.55601573
vn 0.56593907 0.6087358 -0.55601573
vn 0.56593907 0.6087358 -0.55601573
vn 0.56593907 0.6087358 -0.55601573
vn 0.1752642 0.9672683 -0.18350628
vn 0.1752642 0.9672683 -0.18350628
vn 0.1752642 0.9672683 -0.18350628
vn 0.1752642 0.9672683 -0.18350628
vn 0.16889611 0.88418174 0.43554196
vn 0.16889611 0.88418174 0.43554196
vn 0.16889611 0.88418174 0.43554196
vn 0.16889611 0.88418174 0.43554196
vn 0.09926248 0.90514094 -0.41336036
vn 0.09926248 0.90514094 -0.41336036
vn 0.09926248 0.90514094 -0.41336036
vn 0.09926248 0.90514094 -0.41336036
vn 0.8143076 0.5202892 -0.25729817
vn 0.8143076 0.5202892 -0.25729817
vn 0.8143076 0.5202892 -0.25729817
vn 0.8143076 0.5202892 -0.25729817
vn 0.7637466 0.30387232 -0.56951964
vn 0.7637466 0.30387232 -0.56951964
vn 0.7637466 0.30387232 -0.56951964
vn 0.7637466 0.30387232 -0.56951964
vn 0.5789101 0.7156962 -0.39069426
vn 0.5789101 0.7156962 -0.39069426
vn 0.5789101 0.7156962 -0.39069426
vn 0.5789101 0.7156962 -0.39069426
vn 0.32453588 0.94426006 0.055222128
vn 0.32453588 0.94426006 0.055222128
vn 0.32453588 0.94426006 0.055222128
vn 0.32453588 0.94426006 0.055222128
vn 0.32453588 0.94426006 0.055222128
vn 0.32453588 0.94426006 0.055222128
vn 0.7465591 0.6331353 0.20442429
vn 0.7465591 0.6331353 0.20442429
vn 0.7465591 0.6331353 0.20442429
vn 0.7465591 0.6331353 0.20442429
vn 0.7465591 0.6331353 0.20442429
vn 0.7465591 0.6331353 0.20442429
vn 0.7465591 0.6331353 0.20442429
vn 0.7465591 0.6331353 0.20442429
vn -0.1419339 0.88868815 0.4359911
vn -0.1419339 0.88868815 0.4359911
vn -0.1419339 0.88868815 0.4359911
vn -0.1419339 0.88868815 0.4359911
vn -0.1419339 0.88868815 0.4359911
vn -0.1419339 0.88868815 0.4359911
vn -0.40783235 0.9068187 -0.106549
vn -0.40783235 0.9068187 -0.106549
vn -0.40783235 0.9068187 -0.106549
vn -0.40783235 0.9068187 -0.106549
vn -0.40783235 0.9068187 -0.106549
vn -0.40783235 0.9068187 -0.106549
vn -0.40783235 0.9068187 -0.106549
vn -0.40783235 0.9068187 -0.106549
vn 0.4678105 0.18196113 -0.8648951
vn 0.4678105 0.18196113 -0.8648951
vn 0.4678105 0.18196113 -0.8648951
vn 0.4678105 0.18196113 -0.8648951
vn 0.7123255 0.6604645 -0.23744257
vn 0.7123255 0.6604645 -0.23744257
vn 0.7123255 0.6604645 -0.23744257
vn 0.7123255 0.6604645 -0.23744257
vn 0.013985386 0.9998914 -0.0046618157
vn 0.013985386 0.9998914 -0.0046618157
vn 0.013985386 0.9998914 -0.0046618157
vn 0.013985386 0.9998914 -0.0046618157
vn 0.05641632 0.9976815 0.038062233
vn 0.05641632 0.9976815 0.038062233
vn 0.05641632 0.9976815 0.038062233
vn 0.05641632 0.9976815 0.038062233
vn -0 0.9064628 0.42228556
vn 0.9145926 0 0.40437642
vn -0 0 1
vn 0.97235703 0 0.23349874
vn -0 0.9670401 0.254624
vn 0.6944317 0.67544883 0.24805929
vn 0.9718188 0 0.2357293
vn 0.6946612 0.6753116 0.24779025
vn -0 0.9677115 0.25206032
vn 0.6824582 0.6824582 0.26172802
vn 0.98600346 0 0.16672455
vn 0.6824582 0.6824582 0.26172802
vn -0 0.9843349 0.17630926
vn 0.66802204 0.66802204 0.32786152
vn 0.994383 0 0.10584127
vn 0.66801876 0.66801876 0.3278749
vn -0 0.9937558 0.11157703
vn 0.622904 0.622904 0.47326666
vn 0.93112564 0 -0.3646985
vn -0 0.93031937 -0.36675027
vn -0 0 -1
vn 0.622904 0.622904 0.47326666
vn 0.5908831 0.5908831 0.5492853
vn 0.5908831 0.5908831 0.5492853
vn -0 0 1
vn -0 0 1
vn -0 0 1
vn -0 0 1
vn -0 0 1
vn -0 0 1
vn -0 0 1
vn -0 0 1
vn -0 0 1
vn -0.16443898 -0.6601364 -0.73292536
vn -0 -0.6083028 -0.7937051
vn -0 0 -1
vn -0 -0.9965485 -0.08301265
vn 0.16443898 -0.6601364 -0.73292536
vn -0.6173956 0 -0.7866529
vn -0.4516189 -0.89215946 0.009582939
vn -0.69641715 -0.012024556 -0.7175364
vn -0.96233666 -0.27180547 -0.005462967
vn -0.9985201 0 -0.05438483
vn -0.5008414 0 0.86553913
vn -0.60284734 0.15525158 0.7826059
vn -0 -0.54776484 0.8366324
vn 0.026887411 -0.60769826 0.79371274
vn 0.4516189 -0.89215946 0.009582939
vn -0.026887411 -0.60769826 0.79371274
vn 0.60284734 0.15525158 0.7826059
vn 0.5008414 0 0.86553913
vn 0.96233666 -0.27180547 -0.005462967
vn -0 0 1
vn -0 0.54776484 0.8366324
vn -0.96233666 0.27180547 -0.005462967
vn -0.60284734 -0.15525158 0.7826059
vn -0.69641715 0.012024556 -0.7175364
vn -0.16443898 0.6601364 -0.73292536
vn -0.4516189 0.89215946 0.009582939
vn -0 0.9965485 -0.08301265
vn -0 0.6083028 -0.7937051
vn 0.026887411 0.60769826 0.79371274
vn 0.16443898 0.6601364 -0.73292536
vn 0.6173956 0 -0.7866529
vn 0.69641715 -0.012024556 -0.7175364
vn 0.9985201 0 -0.05438483
vn 0.69641715 0.012024556 -0.7175364
vn 0.96233666 0.27180547 -0.005462967
vn 0.60284734 -0.15525158 0.7826059
vn 0.4516189 0.89215946 0.009582939
vn -0.026887411 0.60769826 0.79371274
g ShortSword08_0
f 3/3/3 2/2/2 1/1/1
f 6/6/6 5/5/5 4/4/4
f 9/9/9 8/8/8 7/7/7
f 12/12/12 11/11/11 10/10/10
f 15/15/15 14/14/14 13/13/13
f 18/18/18 17/17/17 16/16/16
f 21/21/21 20/20/20 19/19/19
f 24/24/24 23/23/23 22/22/22
f 27/27/27 26/26/26 25/25/25
f 30/30/30 29/29/29 28/28/28
f 33/33/33 32/32/32 31/31/31
f 36/36/36 35/35/35 34/34/34
f 39/39/39 38/38/38 37/37/37
f 42/42/42 41/41/41 40/40/40
f 45/45/45 44/44/44 43/43/43
f 48/48/48 47/47/47 46/46/46
f 51/51/51 50/50/50 49/49/49
f 54/54/54 53/53/53 52/52/52
f 57/57/57 56/56/56 55/55/55
f 60/60/60 59/59/59 58/58/58
f 63/63/63 62/62/62 61/61/61
f 66/66/66 65/65/65 64/64/64
f 69/69/69 68/68/68 67/67/67
f 72/72/72 71/71/71 70/70/70
f 75/75/75 74/74/74 73/73/73
f 78/78/78 77/77/77 76/76/76
f 81/81/81 80/80/80 79/79/79
f 84/84/84 83/83/83 82/82/82
f 87/87/87 86/86/86 85/85/85
f 90/90/90 89/89/89 88/88/88
f 93/93/93 92/92/92 91/91/91
f 96/96/96 95/95/95 94/94/94
f 99/99/99 98/98/98 97/97/97
f 100/100/100 99/99/99 97/97/97
f 103/103/103 102/102/102 101/101/101
f 104/104/104 103/103/103 101/101/101
f 107/107/107 106/106/106 105/105/105
f 108/108/108 107/107/107 105/105/105
f 111/111/111 110/110/110 109/109/109
f 112/112/112 111/111/111 109/109/109
f 115/115/115 114/114/114 113/113/113
f 116/116/116 115/115/115 113/113/113
f 119/119/119 118/118/118 117/117/117
f 120/120/120 119/119/119 117/117/117
f 123/123/123 122/122/122 121/121/121
f 124/124/124 123/123/123 121/121/121
f 127/127/127 126/126/126 125/125/125
f 128/128/128 127/127/127 125/125/125
f 131/131/131 130/130/130 129/129/129
f 132/132/132 131/131/131 129/129/129
f 135/135/135 134/134/134 133/133/133
f 136/136/136 135/135/135 133/133/133
f 139/139/139 138/138/138 137/137/137
f 140/140/140 139/139/139 137/137/137
f 143/143/143 142/142/142 141/141/141
f 144/144/144 143/143/143 141/141/141
f 147/147/147 146/146/146 145/145/145
f 148/148/148 147/147/147 145/145/145
f 151/151/151 150/150/150 149/149/149
f 152/152/152 151/151/151 149/149/149
f 155/155/155 154/154/154 153/153/153
f 156/156/156 155/155/155 153/153/153
f 159/159/159 158/158/158 157/157/157
f 157/157/157 160/160/160 159/159/159
f 157/157/157 161/161/161 160/160/160
f 161/161/161 162/162/162 160/160/160
f 165/165/165 164/164/164 163/163/163
f 166/166/166 165/165/165 163/163/163
f 169/169/169 168/168/168 167/167/167
f 170/170/170 169/169/169 167/167/167
f 173/173/173 172/172/172 171/171/171
f 174/174/174 173/173/173 171/171/171
f 177/177/177 176/176/176 175/175/175
f 178/178/178 177/177/177 175/175/175
f 181/181/181 180/180/180 179/179/179
f 182/182/182 181/181/181 179/179/179
f 185/185/185 184/184/184 183/183/183
f 184/184/184 186/186/186 183/183/183
f 186/186/186 187/187/187 183/183/183
f 187/187/187 188/188/188 183/183/183
f 186/186/186 184/184/184 189/189/189
f 187/187/187 186/186/186 189/189/189
f 184/184/184 190/190/190 189/189/189
f 191/191/191 187/187/187 189/189/189
f 194/194/194 193/193/193 192/192/192
f 195/195/195 194/194/194 192/192/192
f 198/198/198 197/197/197 196/196/196
f 199/199/199 198/198/198 196/196/196
f 202/202/202 201/201/201 200/200/200
f 200/200/200 203/203/203 202/202/202
f 200/200/200 204/204/204 203/203/203
f 200/200/200 205/205/205 204/204/204
f 208/208/208 207/207/207 206/206/206
f 208/208/208 206/206/206 209/209/209
f 209/209/209 210/210/210 208/208/208
f 206/206/206 211/211/211 209/209/209
f 211/211/211 212/212/212 209/209/209
f 212/212/212 213/213/213 209/209/209
f 216/216/216 215/215/215 214/214/214
f 214/214/214 217/217/217 216/216/216
f 217/217/217 218/218/218 216/216/216
f 217/217/217 219/219/219 218/218/218
f 222/222/222 221/221/221 220/220/220
f 220/220/220 223/223/223 222/222/222
f 223/223/223 224/224/224 222/222/222
f 224/224/224 225/225/225 222/222/222
f 225/225/225 226/226/226 222/222/222
f 225/225/225 227/227/227 226/226/226
f 230/230/230 229/229/229 228/228/228
f 231/231/231 230/230/230 228/228/228
f 234/234/234 233/233/233 232/232/232
f 235/235/235 234/234/234 232/232/232
f 238/238/238 237/237/237 236/236/236
f 239/239/239 238/238/238 236/236/236
f 242/242/242 241/241/241 240/240/240
f 243/243/243 242/242/242 240/240/240
f 246/246/246 245/245/245 244/244/244
f 245/245/245 247/247/247 244/244/244
f 247/247/247 248/248/248 244/244/244
f 249/249/249 244/244/244 245/245/245
f 247/247/247 250/250/250 248/248/248
f 251/251/251 249/249/249 245/245/245
f 250/250/250 252/252/252 248/248/248
f 253/253/253 249/249/249 251/251/251
f 250/250/250 254/254/254 252/252/252
f 255/255/255 253/253/253 251/251/251
f 254/254/254 256/256/256 252/252/252
f 257/257/257 253/253/253 255/255/255
f 254/254/254 258/258/258 256/256/256
f 259/259/259 257/257/257 255/255/255
f 258/258/258 260/260/260 256/256/256
f 261/261/261 257/257/257 259/259/259
f 258/258/258 262/262/262 260/260/260
f 262/262/262 263/263/263 260/260/260
f 262/262/262 264/264/264 263/263/263
f 265/265/265 261/261/261 259/259/259
f 266/266/266 261/261/261 265/265/265
f 267/267/267 266/266/266 265/265/265
f 270/270/270 269/269/269 268/268/268
f 271/271/271 270/270/270 268/268/268
f 274/274/274 273/273/273 272/272/272
f 275/275/275 274/274/274 272/272/272
f 278/278/278 277/277/277 276/276/276
f 279/279/279 278/278/278 276/276/276
f 282/282/282 281/281/281 280/280/280
f 283/283/283 282/282/282 280/280/280
f 286/286/286 285/285/285 284/284/284
f 287/287/287 286/286/286 284/284/284
f 290/290/290 289/289/289 288/288/288
f 291/291/291 290/290/290 288/288/288
f 294/294/294 293/293/293 292/292/292
f 295/295/295 294/294/294 292/292/292
f 298/298/298 297/297/297 296/296/296
f 299/299/299 298/298/298 296/296/296
f 302/302/302 301/301/301 300/300/300
f 303/303/303 302/302/302 300/300/300
f 306/306/306 305/305/305 304/304/304
f 307/307/307 306/306/306 304/304/304
f 310/310/310 309/309/309 308/308/308
f 311/311/311 310/310/310 308/308/308
f 314/314/314 313/313/313 312/312/312
f 315/315/315 314/314/314 312/312/312
f 318/318/318 317/317/317 316/316/316
f 319/319/319 318/318/318 316/316/316
f 322/322/322 321/321/321 320/320/320
f 323/323/323 322/322/322 320/320/320
f 326/326/326 325/325/325 324/324/324
f 327/327/327 326/326/326 324/324/324
f 330/330/330 329/329/329 328/328/328
f 328/328/328 331/331/331 330/330/330
f 331/331/331 332/332/332 330/330/330
f 331/331/331 333/333/333 332/332/332
f 336/336/336 335/335/335 334/334/334
f 337/337/337 336/336/336 334/334/334
f 340/340/340 339/339/339 338/338/338
f 341/341/341 340/340/340 338/338/338
f 344/344/344 343/343/343 342/342/342
f 345/345/345 344/344/344 342/342/342
f 348/348/348 347/347/347 346/346/346
f 349/349/349 348/348/348 346/346/346
f 352/352/352 351/351/351 350/350/350
f 353/353/353 352/352/352 350/350/350
f 356/356/356 355/355/355 354/354/354
f 357/357/357 356/356/356 354/354/354
f 360/360/360 359/359/359 358/358/358
f 361/361/361 360/360/360 358/358/358
f 364/364/364 363/363/363 362/362/362
f 362/362/362 365/365/365 364/364/364
f 365/365/365 366/366/366 364/364/364
f 366/366/366 367/367/367 364/364/364
f 370/370/370 369/369/369 368/368/368
f 369/369/369 370/370/370 371/371/371
f 372/372/372 369/369/369 371/371/371
f 373/373/373 372/372/372 371/371/371
f 374/374/374 373/373/373 371/371/371
f 371/371/371 375/375/375 374/374/374
f 378/378/378 377/377/377 376/376/376
f 376/376/376 379/379/379 378/378/378
f 376/376/376 380/380/380 379/379/379
f 380/380/380 381/381/381 379/379/379
f 384/384/384 383/383/383 382/382/382
f 382/382/382 385/385/385 384/384/384
f 382/382/382 386/386/386 385/385/385
f 382/382/382 387/387/387 386/386/386
f 382/382/382 388/388/388 387/387/387
f 388/388/388 389/389/389 387/387/387
f 392/392/392 391/391/391 390/390/390
f 393/393/393 392/392/392 390/390/390
f 396/396/396 395/395/395 394/394/394
f 397/397/397 396/396/396 394/394/394
f 400/400/400 399/399/399 398/398/398
f 401/401/401 400/400/400 398/398/398
f 404/404/404 403/403/403 402/402/402
f 405/405/405 404/404/404 402/402/402
f 408/408/408 407/407/407 406/406/406
f 409/409/409 408/408/408 406/406/406
f 410/410/410 409/409/409 406/406/406
f 406/406/406 411/411/411 408/408/408
f 412/412/412 409/409/409 410/410/410
f 411/411/411 413/413/413 408/408/408
f 414/414/414 412/412/412 410/410/410
f 411/411/411 415/415/415 413/413/413
f 416/416/416 412/412/412 414/414/414
f 415/415/415 417/417/417 413/413/413
f 418/418/418 416/416/416 414/414/414
f 415/415/415 419/419/419 417/417/417
f 420/420/420 416/416/416 418/418/418
f 419/419/419 421/421/421 417/417/417
f 422/422/422 420/420/420 418/418/418
f 419/419/419 423/423/423 421/421/421
f 424/424/424 420/420/420 422/422/422
f 425/425/425 424/424/424 422/422/422
f 426/426/426 424/424/424 425/425/425
f 423/423/423 427/427/427 421/421/421
f 423/423/423 428/428/428 427/427/427
f 428/428/428 429/429/429 427/427/427
f 432/432/432 431/431/431 430/430/430
f 433/433/433 432/432/432 430/430/430
f 436/436/436 435/435/435 434/434/434
f 437/437/437 436/436/436 434/434/434
f 440/440/440 439/439/439 438/438/438
f 441/441/441 440/440/440 438/438/438
f 444/444/444 443/443/443 442/442/442
f 445/445/445 444/444/444 442/442/442
f 448/448/448 447/447/447 446/446/446
f 449/449/449 448/448/448 446/446/446
f 452/452/452 451/451/451 450/450/450
f 453/453/453 452/452/452 450/450/450
f 456/456/456 455/455/455 454/454/454
f 457/457/457 456/456/456 454/454/454
f 460/460/460 459/459/459 458/458/458
f 461/461/461 460/460/460 458/458/458
f 464/464/464 463/463/463 462/462/462
f 465/465/465 464/464/464 462/462/462
f 468/468/468 467/467/467 466/466/466
f 469/469/469 468/468/468 466/466/466
f 472/472/472 471/471/471 470/470/470
f 473/473/473 472/472/472 470/470/470
f 476/476/476 475/475/475 474/474/474
f 477/477/477 476/476/476 474/474/474
f 480/480/480 479/479/479 478/478/478
f 481/481/481 480/480/480 478/478/478
f 484/484/484 483/483/483 482/482/482
f 485/485/485 484/484/484 482/482/482
f 488/488/488 487/487/487 486/486/486
f 489/489/489 488/488/488 486/486/486
f 492/492/492 491/491/491 490/490/490
f 490/490/490 493/493/493 492/492/492
f 493/493/493 494/494/494 492/492/492
f 493/493/493 495/495/495 494/494/494
f 498/498/498 497/497/497 496/496/496
f 499/499/499 498/498/498 496/496/496
f 502/502/502 501/501/501 500/500/500
f 503/503/503 502/502/502 500/500/500
f 506/506/506 505/505/505 504/504/504
f 507/507/507 506/506/506 504/504/504
f 510/510/510 509/509/509 508/508/508
f 511/511/511 510/510/510 508/508/508
f 514/514/514 513/513/513 512/512/512
f 515/515/515 514/514/514 512/512/512
f 518/518/518 517/517/517 516/516/516
f 519/519/519 518/518/518 516/516/516
f 522/522/522 521/521/521 520/520/520
f 523/523/523 522/522/522 520/520/520
f 526/526/526 525/525/525 524/524/524
f 524/524/524 527/527/527 526/526/526
f 527/527/527 528/528/528 526/526/526
f 528/528/528 529/529/529 526/526/526
f 532/532/532 531/531/531 530/530/530
f 530/530/530 533/533/533 532/532/532
f 534/534/534 532/532/532 533/533/533
f 530/530/530 535/535/535 533/533/533
f 530/530/530 536/536/536 535/535/535
f 530/530/530 537/537/537 536/536/536
f 540/540/540 539/539/539 538/538/538
f 538/538/538 541/541/541 540/540/540
f 538/538/538 542/542/542 541/541/541
f 542/542/542 543/543/543 541/541/541
f 546/546/546 545/545/545 544/544/544
f 544/544/544 547/547/547 546/546/546
f 544/544/544 548/548/548 547/547/547
f 544/544/544 549/549/549 548/548/548
f 544/544/544 550/550/550 549/549/549
f 550/550/550 551/551/551 549/549/549
f 554/554/554 553/553/553 552/552/552
f 555/555/555 554/554/554 552/552/552
f 558/558/558 557/557/557 556/556/556
f 559/559/559 558/558/558 556/556/556
f 562/562/562 561/561/561 560/560/560
f 563/563/563 562/562/562 560/560/560
f 566/566/566 565/565/565 564/564/564
f 567/567/567 566/566/566 564/564/564
f 570/570/570 569/569/569 568/568/568
f 571/571/571 570/570/570 568/568/568
f 572/572/572 571/571/571 568/568/568
f 568/568/568 573/573/573 570/570/570
f 574/574/574 571/571/571 572/572/572
f 573/573/573 575/575/575 570/570/570
f 576/576/576 574/574/574 572/572/572
f 573/573/573 577/577/577 575/575/575
f 578/578/578 574/574/574 576/576/576
f 577/577/577 579/579/579 575/575/575
f 580/580/580 578/578/578 576/576/576
f 577/577/577 581/581/581 579/579/579
f 582/582/582 578/578/578 580/580/580
f 581/581/581 583/583/583 579/579/579
f 584/584/584 582/582/582 580/580/580
f 581/581/581 585/585/585 583/583/583
f 586/586/586 582/582/582 584/584/584
f 587/587/587 586/586/586 584/584/584
f 588/588/588 586/586/586 587/587/587
f 585/585/585 589/589/589 583/583/583
f 585/585/585 590/590/590 589/589/589
f 590/590/590 591/591/591 589/589/589
f 594/594/594 593/593/593 592/592/592
f 595/595/595 594/594/594 592/592/592
f 598/598/598 597/597/597 596/596/596
f 599/599/599 598/598/598 596/596/596
f 602/602/602 601/601/601 600/600/600
f 603/603/603 602/602/602 600/600/600
f 606/606/606 605/605/605 604/604/604
f 607/607/607 606/606/606 604/604/604
f 610/610/610 609/609/609 608/608/608
f 611/611/611 610/610/610 608/608/608
f 614/614/614 613/613/613 612/612/612
f 615/615/615 614/614/614 612/612/612
f 618/618/618 617/617/617 616/616/616
f 619/619/619 618/618/618 616/616/616
f 622/622/622 621/621/621 620/620/620
f 623/623/623 622/622/622 620/620/620
f 626/626/626 625/625/625 624/624/624
f 627/627/627 626/626/626 624/624/624
f 630/630/630 629/629/629 628/628/628
f 631/631/631 630/630/630 628/628/628
f 634/634/634 633/633/633 632/632/632
f 635/635/635 634/634/634 632/632/632
f 638/638/638 637/637/637 636/636/636
f 639/639/639 638/638/638 636/636/636
f 642/642/642 641/641/641 640/640/640
f 643/643/643 642/642/642 640/640/640
f 646/646/646 645/645/645 644/644/644
f 647/647/647 646/646/646 644/644/644
f 650/650/650 649/649/649 648/648/648
f 651/651/651 650/650/650 648/648/648
f 654/654/654 653/653/653 652/652/652
f 652/652/652 655/655/655 654/654/654
f 652/652/652 656/656/656 655/655/655
f 656/656/656 657/657/657 655/655/655
f 660/660/660 659/659/659 658/658/658
f 661/661/661 660/660/660 658/658/658
f 664/664/664 663/663/663 662/662/662
f 665/665/665 664/664/664 662/662/662
f 668/668/668 667/667/667 666/666/666
f 669/669/669 668/668/668 666/666/666
f 672/672/672 671/671/671 670/670/670
f 673/673/673 672/672/672 670/670/670
f 676/676/676 675/675/675 674/674/674
f 677/677/677 676/676/676 674/674/674
f 680/680/680 679/679/679 678/678/678
f 681/681/681 680/680/680 678/678/678
f 684/684/684 683/683/683 682/682/682
f 685/685/685 684/684/684 682/682/682
f 688/688/688 687/687/687 686/686/686
f 686/686/686 689/689/689 688/688/688
f 686/686/686 690/690/690 689/689/689
f 686/686/686 691/691/691 690/690/690
f 694/694/694 693/693/693 692/692/692
f 692/692/692 695/695/695 694/694/694
f 692/692/692 696/696/696 695/695/695
f 692/692/692 697/697/697 696/696/696
f 692/692/692 698/698/698 697/697/697
f 697/697/697 698/698/698 699/699/699
f 702/702/702 701/701/701 700/700/700
f 700/700/700 703/703/703 702/702/702
f 703/703/703 704/704/704 702/702/702
f 703/703/703 705/705/705 704/704/704
f 708/708/708 707/707/707 706/706/706
f 706/706/706 709/709/709 708/708/708
f 709/709/709 710/710/710 708/708/708
f 710/710/710 711/711/711 708/708/708
f 711/711/711 712/712/712 708/708/708
f 711/711/711 713/713/713 712/712/712
f 716/716/716 715/715/715 714/714/714
f 717/717/717 716/716/716 714/714/714
f 720/720/720 719/719/719 718/718/718
f 721/721/721 720/720/720 718/718/718
f 724/724/724 723/723/723 722/722/722
f 725/725/725 724/724/724 722/722/722
f 728/728/728 727/727/727 726/726/726
f 729/729/729 728/728/728 726/726/726
f 732/732/732 731/731/731 730/730/730
f 731/731/731 733/733/733 730/730/730
f 733/733/733 734/734/734 730/730/730
f 735/735/735 730/730/730 731/731/731
f 733/733/733 736/736/736 734/734/734
f 737/737/737 735/735/735 731/731/731
f 736/736/736 738/738/738 734/734/734
f 739/739/739 735/735/735 737/737/737
f 736/736/736 740/740/740 738/738/738
f 741/741/741 739/739/739 737/737/737
f 740/740/740 742/742/742 738/738/738
f 743/743/743 739/739/739 741/741/741
f 740/740/740 744/744/744 742/742/742
f 745/745/745 743/743/743 741/741/741
f 744/744/744 746/746/746 742/742/742
f 747/747/747 743/743/743 745/745/745
f 744/744/744 748/748/748 746/746/746
f 748/748/748 749/749/749 746/746/746
f 748/748/748 750/750/750 749/749/749
f 751/751/751 747/747/747 745/745/745
f 752/752/752 747/747/747 751/751/751
f 753/753/753 752/752/752 751/751/751
f 756/756/756 755/755/755 754/754/754
f 755/755/755 757/757/757 754/754/754
f 758/758/758 756/756/756 754/754/754
f 757/757/757 759/759/759 754/754/754
f 760/760/760 758/758/758 754/754/754
f 759/759/759 761/761/761 754/754/754
f 762/762/762 760/760/760 754/754/754
f 761/761/761 762/762/762 754/754/754
f 765/765/765 764/764/764 763/763/763
f 766/766/766 763/763/763 764/764/764
f 767/767/767 764/764/764 765/765/765
f 767/767/767 766/766/766 764/764/764
f 763/763/763 768/768/768 765/765/765
f 769/769/769 763/763/763 766/766/766
f 763/763/763 770/770/770 768/768/768
f 771/771/771 770/770/770 763/763/763
f 769/769/769 771/771/771 763/763/763
f 770/770/770 772/772/772 768/768/768
f 771/771/771 772/772/772 770/770/770
f 773/773/773 772/772/772 771/771/771
f 774/774/774 771/771/771 769/769/769
f 774/774/774 773/773/773 771/771/771
f 775/775/775 773/773/773 774/774/774
f 776/776/776 774/774/774 769/769/769
f 776/776/776 769/769/769 766/766/766
f 776/776/776 775/775/775 774/774/774
f 775/775/775 776/776/776 766/766/766
f 767/767/767 777/777/777 766/766/766
f 778/778/778 775/775/775 766/766/766
f 777/777/777 778/778/778 766/766/766
f 779/779/779 778/778/778 777/777/777
f 775/775/775 778/778/778 779/779/779
f 780/780/780 775/775/775 779/779/779
f 781/781/781 779/779/779 777/777/777
f 781/781/781 777/777/777 767/767/767
f 780/780/780 779/779/779 781/781/781
f 775/775/775 782/782/782 773/773/773
f 782/782/782 775/775/775 780/780/780
f 782/782/782 783/783/783 773/773/773
f 783/783/783 782/782/782 780/780/780
f 772/772/772 773/773/773 784/784/784
f 773/773/773 783/783/783 785/785/785
f 773/773/773 785/785/785 784/784/784
f 772/772/772 784/784/784 786/786/786
f 772/772/772 786/786/786 768/768/768
f 786/786/786 784/784/784 787/787/787
f 768/768/768 786/786/786 787/787/787
f 784/784/784 785/785/785 788/788/788
f 784/784/784 788/788/788 787/787/787
f 787/787/787 788/788/788 789/789/789
f 768/768/768 787/787/787 790/790/790
f 787/787/787 789/789/789 790/790/790
f 790/790/790 765/765/765 768/768/768
f 785/785/785 791/791/791 788/788/788
f 783/783/783 791/791/791 785/785/785
f 788/788/788 791/791/791 789/789/789
f 791/791/791 783/783/783 789/789/789
f 765/765/765 790/790/790 792/792/792
f 789/789/789 792/792/792 790/790/790
f 793/793/793 765/765/765 792/792/792
f 767/767/767 765/765/765 793/793/793
f 793/793/793 794/794/794 767/767/767
f 794/794/794 781/781/781 767/767/767
f 795/795/795 781/781/781 794/794/794
f 795/795/795 794/794/794 793/793/793
f 795/795/795 780/780/780 781/781/781
f 796/796/796 795/795/795 793/793/793
f 792/792/792 796/796/796 793/793/793
f 797/797/797 795/795/795 796/796/796
f 780/780/780 795/795/795 797/797/797
f 797/797/797 796/796/796 792/792/792
f 783/783/783 780/780/780 798/798/798
f 798/798/798 780/780/780 797/797/797
f 799/799/799 797/797/797 792/792/792
f 799/799/799 792/792/792 789/789/789
f 798/798/798 797/797/797 799/799/799
f 783/783/783 800/800/800 789/789/789
f 800/800/800 799/799/799 789/789/789
f 800/800/800 783/783/783 798/798/798
f 800/800/800 798/798/798 799/799/799
