g ShortSword13
v -0.093673125 -0.058004178 -0.038481403
v -0.093673125 -0.02249963 -0.03848141
v -0.08220543 -0.02249966 -0.21242008
v -0.08220543 -0.058004204 -0.21242006
v -0.03334357 -0.040251933 -0.23226368
v -0.047419347 -0.040251944 -0.28616542
v -0.05874923 -0.022499667 -0.26286125
v -0.047789004 -0.02249966 -0.21460867
v -0.13952146 -0.040251877 0.10380066
v -0.17971927 -0.040251862 0.20253602
v -0.16176566 -0.022499591 0.20196655
v -0.13046531 -0.02249961 0.086235255
v -0.17971927 -0.040251862 0.20253602
v -0.01749383 -0.040251862 0.20253602
v -0.03544748 -0.022499591 0.20196655
v -0.16176566 -0.022499591 0.20196655
v -0.09860661 -0.040251948 -0.31860757
v -0.14979383 -0.040251944 -0.28616542
v -0.13846397 -0.022499667 -0.26286125
v -0.098606616 -0.022499673 -0.29190344
v -0.10354014 -0.058004178 -0.038481403
v -0.10354014 -0.02249963 -0.03848141
v -0.093673125 -0.02249963 -0.03848141
v -0.093673125 -0.058004178 -0.038481403
v -0.03544748 -0.022499591 0.20196655
v -0.13046531 -0.02249961 0.086235255
v -0.16176566 -0.022499591 0.20196655
v -0.066747844 -0.02249961 0.086235255
v -0.1274744 -0.022499627 -0.015701976
v -0.069738805 -0.022499627 -0.015701976
v -0.10354014 -0.02249963 -0.03848141
v -0.11500777 -0.02249966 -0.21242008
v -0.093673125 -0.02249963 -0.03848141
v -0.14942421 -0.02249966 -0.21460867
v -0.047789004 -0.02249966 -0.21460867
v -0.10837233 -0.022499662 -0.22987565
v -0.08220543 -0.02249966 -0.21242008
v -0.13846397 -0.022499667 -0.26286125
v -0.05874923 -0.022499667 -0.26286125
v -0.09860661 -0.022499664 -0.24453074
v -0.08884089 -0.022499662 -0.22987565
v -0.098606616 -0.022499673 -0.29190344
v -0.13568035 -0.040251896 -0.010070556
v -0.13952146 -0.040251877 0.10380066
v -0.13046531 -0.02249961 0.086235255
v -0.1274744 -0.022499627 -0.015701976
v -0.01749383 -0.040251862 0.20253602
v -0.05769165 -0.040251877 0.10380066
v -0.066747844 -0.02249961 0.086235255
v -0.03544748 -0.022499591 0.20196655
v -0.16176566 -0.058004137 0.20196657
v -0.066747844 -0.058004156 0.08623526
v -0.03544748 -0.058004137 0.20196657
v -0.13046531 -0.058004156 0.08623526
v -0.069738805 -0.058004174 -0.01570197
v -0.1274744 -0.058004174 -0.01570197
v -0.093673125 -0.058004178 -0.038481403
v -0.08220543 -0.058004204 -0.21242006
v -0.10354014 -0.058004178 -0.038481403
v -0.047789004 -0.058004204 -0.21460865
v -0.14942421 -0.058004204 -0.21460865
v -0.08884089 -0.058004208 -0.22987564
v -0.11500777 -0.058004204 -0.21242006
v -0.05874923 -0.05800421 -0.26286125
v -0.13846397 -0.05800421 -0.26286125
v -0.09860661 -0.05800421 -0.24453072
v -0.10837233 -0.058004208 -0.22987564
v -0.098606616 -0.05800422 -0.29190344
v -0.16386962 -0.040251933 -0.23226368
v -0.13568035 -0.040251896 -0.010070556
v -0.1274744 -0.022499627 -0.015701976
v -0.14942421 -0.02249966 -0.21460867
v -0.05769165 -0.040251877 0.10380066
v -0.06153282 -0.040251896 -0.010070556
v -0.069738805 -0.022499627 -0.015701976
v -0.066747844 -0.02249961 0.086235255
v -0.14979383 -0.040251944 -0.28616542
v -0.16386962 -0.040251933 -0.23226368
v -0.14942421 -0.02249966 -0.21460867
v -0.13846397 -0.022499667 -0.26286125
v -0.11500777 -0.058004204 -0.21242006
v -0.11500777 -0.02249966 -0.21242008
v -0.10354014 -0.02249963 -0.03848141
v -0.10354014 -0.058004178 -0.038481403
v -0.06153282 -0.040251896 -0.010070556
v -0.03334357 -0.040251933 -0.23226368
v -0.047789004 -0.02249966 -0.21460867
v -0.069738805 -0.022499627 -0.015701976
v -0.10837233 -0.058004208 -0.22987564
v -0.10837233 -0.022499662 -0.22987565
v -0.11500777 -0.02249966 -0.21242008
v -0.11500777 -0.058004204 -0.21242006
v -0.08220543 -0.058004204 -0.21242006
v -0.08220543 -0.02249966 -0.21242008
v -0.08884089 -0.022499662 -0.22987565
v -0.08884089 -0.058004208 -0.22987564
v -0.09860661 -0.05800421 -0.24453072
v -0.09860661 -0.022499664 -0.24453074
v -0.10837233 -0.022499662 -0.22987565
v -0.10837233 -0.058004208 -0.22987564
v -0.08884089 -0.058004208 -0.22987564
v -0.08884089 -0.022499662 -0.22987565
v -0.09860661 -0.022499664 -0.24453074
v -0.09860661 -0.05800421 -0.24453072
v -0.047419347 -0.040251944 -0.28616542
v -0.09860661 -0.040251948 -0.31860757
v -0.098606616 -0.022499673 -0.29190344
v -0.05874923 -0.022499667 -0.26286125
v -0.05874923 -0.05800421 -0.26286125
v -0.098606616 -0.05800422 -0.29190344
v -0.09860661 -0.040251948 -0.31860757
v -0.047419347 -0.040251944 -0.28616542
v -0.069738805 -0.058004174 -0.01570197
v -0.047789004 -0.058004204 -0.21460865
v -0.03334357 -0.040251933 -0.23226368
v -0.06153282 -0.040251896 -0.010070556
v -0.13846397 -0.05800421 -0.26286125
v -0.14942421 -0.058004204 -0.21460865
v -0.16386962 -0.040251933 -0.23226368
v -0.14979383 -0.040251944 -0.28616542
v -0.066747844 -0.058004156 0.08623526
v -0.069738805 -0.058004174 -0.01570197
v -0.06153282 -0.040251896 -0.010070556
v -0.05769165 -0.040251877 0.10380066
v -0.14942421 -0.058004204 -0.21460865
v -0.1274744 -0.058004174 -0.01570197
v -0.13568035 -0.040251896 -0.010070556
v -0.16386962 -0.040251933 -0.23226368
v -0.03544748 -0.058004137 0.20196657
v -0.066747844 -0.058004156 0.08623526
v -0.05769165 -0.040251877 0.10380066
v -0.01749383 -0.040251862 0.20253602
v -0.1274744 -0.058004174 -0.01570197
v -0.13046531 -0.058004156 0.08623526
v -0.13952146 -0.040251877 0.10380066
v -0.13568035 -0.040251896 -0.010070556
v -0.098606616 -0.05800422 -0.29190344
v -0.13846397 -0.05800421 -0.26286125
v -0.14979383 -0.040251944 -0.28616542
v -0.09860661 -0.040251948 -0.31860757
v -0.16176566 -0.058004137 0.20196657
v -0.03544748 -0.058004137 0.20196657
v -0.01749383 -0.040251862 0.20253602
v -0.17971927 -0.040251862 0.20253602
v -0.13046531 -0.058004156 0.08623526
v -0.16176566 -0.058004137 0.20196657
v -0.17971927 -0.040251862 0.20253602
v -0.13952146 -0.040251877 0.10380066
v -0.047789004 -0.058004204 -0.21460865
v -0.05874923 -0.05800421 -0.26286125
v -0.047419347 -0.040251944 -0.28616542
v -0.03334357 -0.040251933 -0.23226368
v -0.18602735 -0.06575393 0.26521158
v -0.09751558 -0.06575394 0.24760558
v -0.0090038255 -0.06575393 0.2652116
v -0.26106405 -0.06575392 0.31534946
v 0.06603283 -0.06575392 0.31534946
v -0.31120187 -0.06575391 0.39038607
v 0.11617069 -0.06575391 0.39038613
v -0.32077748 -0.0657539 0.43852583
v 0.12574628 -0.0657539 0.4385259
v -0.32410383 -0.0657539 0.4788979
v 0.1290726 -0.0657539 0.47889796
v 0.1290726 -0.0657539 0.47889796
v -0.32077748 -0.06575389 0.51926994
v -0.32410383 -0.0657539 0.4788979
v 0.12574628 -0.06575389 0.51926994
v -0.31120187 -0.065753885 0.56740963
v 0.11617069 -0.065753885 0.56740963
v -0.261064 -0.06575387 0.6424463
v 0.06603283 -0.06575387 0.6424463
v -0.18602735 -0.06575386 0.69258416
v -0.0090038255 -0.06575386 0.69258416
v -0.097515605 -0.065753855 0.7101902
v 0.0041637495 -0.09007897 0.23342232
v -0.09751559 -0.09007897 0.21319707
v -0.19919491 -0.09007897 0.23342226
v -0.28539455 -0.090078965 0.29101902
v 0.090363294 -0.090078965 0.29101896
v 0.14796002 -0.09007895 0.37721857
v -0.34299117 -0.09007895 0.3772185
v -0.35518956 -0.09007895 0.43854365
v 0.16015834 -0.090078935 0.4385437
v -0.35851437 -0.090078935 0.4788979
v 0.1634832 -0.090078935 0.47889796
v -0.35518953 -0.09007893 0.5192522
v 0.16015834 -0.09007893 0.5192522
v 0.14796002 -0.09007891 0.58057725
v -0.34299117 -0.09007891 0.58057725
v 0.090363294 -0.0900789 0.6667768
v -0.2853945 -0.0900789 0.6667768
v 0.0041637495 -0.09007889 0.7243736
v -0.19919491 -0.09007889 0.7243736
v -0.09751561 -0.09007889 0.74459887
v 0.17257178 -0.008095303 0.5907718
v 0.12574628 -0.06575389 0.51926994
v 0.18679398 -0.008095314 0.51927185
v 0.21523416 -0.00809532 0.47889796
v 0.11617069 -0.065753885 0.56740963
v 0.1290726 -0.0657539 0.47889796
v 0.10920034 -0.008095287 0.6856139
v 0.06603283 -0.06575387 0.6424463
v 0.014358282 -0.008095277 0.7489853
v -0.0090038255 -0.06575386 0.69258416
v -0.097515605 -0.008095273 0.7712383
v -0.097515605 -0.065753855 0.7101902
v -0.20938945 -0.008095277 0.7489853
v -0.18602735 -0.06575386 0.69258416
v -0.30423152 -0.008095287 0.6856139
v -0.261064 -0.06575387 0.6424463
v -0.36760297 -0.008095303 0.5907718
v -0.31120187 -0.065753885 0.56740963
v 0.18679398 -0.008095327 0.43852398
v 0.12574628 -0.0657539 0.4385259
v 0.11617069 -0.06575391 0.39038613
v 0.17257178 -0.008095339 0.367024
v 0.06603283 -0.06575392 0.31534946
v 0.10920034 -0.008095354 0.27218196
v -0.0090038255 -0.06575393 0.2652116
v 0.014358282 -0.008095364 0.20881054
v -0.09751558 -0.06575394 0.24760558
v -0.097515576 -0.008095368 0.18655744
v -0.18602735 -0.06575393 0.26521158
v -0.20938945 -0.008095364 0.20881048
v -0.26106405 -0.06575392 0.31534946
v -0.30423158 -0.008095354 0.27218196
v -0.31120187 -0.06575391 0.39038607
v -0.36760297 -0.008095339 0.36702397
v -0.32077748 -0.0657539 0.43852583
v -0.38182518 -0.008095327 0.43852395
v -0.41026536 -0.00809532 0.4788979
v -0.32410383 -0.0657539 0.4788979
v -0.38182518 -0.008095314 0.51927185
v -0.32077748 -0.06575389 0.51926994
v -0.3991696 -0.008095321 0.5192628
v -0.38182518 -0.008095314 0.51927185
v -0.36760297 -0.008095303 0.5907718
v -0.41026536 -0.00809532 0.4788979
v -0.38362542 -0.008095308 0.59740853
v -0.42912328 -0.008095328 0.4788979
v -0.30423152 -0.008095287 0.6856139
v -0.31649458 -0.008095292 0.69787693
v -0.20938945 -0.008095277 0.7489853
v -0.21602616 -0.008095281 0.76500773
v -0.097515605 -0.008095273 0.7712383
v -0.0975156 -0.0080952775 0.788581
v 0.014358282 -0.008095277 0.7489853
v 0.02099502 -0.008095281 0.76500773
v 0.10920034 -0.008095287 0.6856139
v 0.12146342 -0.008095292 0.69787693
v 0.17257178 -0.008095303 0.5907718
v 0.18859428 -0.008095308 0.59740853
v -0.38182518 -0.008095327 0.43852395
v -0.3991696 -0.008095334 0.438533
v -0.38362542 -0.008095347 0.36038727
v -0.36760297 -0.008095339 0.36702397
v -0.3164946 -0.008095364 0.25991893
v -0.30423158 -0.008095354 0.27218196
v -0.21602616 -0.008095374 0.192788
v -0.20938945 -0.008095364 0.20881048
v -0.09751557 -0.008095378 0.16921487
v -0.097515576 -0.008095368 0.18655744
v 0.02099502 -0.008095374 0.19278806
v 0.014358282 -0.008095364 0.20881054
v 0.12146342 -0.008095364 0.2599189
v 0.10920034 -0.008095354 0.27218196
v 0.18859428 -0.008095347 0.3603873
v 0.17257178 -0.008095339 0.367024
v 0.20413843 -0.008095334 0.43853304
v 0.18679398 -0.008095327 0.43852398
v 0.21523416 -0.00809532 0.47889796
v 0.23409212 -0.008095328 0.47889796
v 0.18679398 -0.008095314 0.51927185
v 0.20413843 -0.008095321 0.5192628
v -0.09751559 -0.09007897 0.21319707
v 0.0041637495 -0.09007897 0.23342232
v 0.02099502 -0.008095374 0.19278806
v -0.09751557 -0.008095378 0.16921487
v 0.12146342 -0.008095364 0.2599189
v -0.19919491 -0.09007897 0.23342226
v 0.090363294 -0.090078965 0.29101896
v -0.21602616 -0.008095374 0.192788
v 0.18859428 -0.008095347 0.3603873
v -0.28539455 -0.090078965 0.29101902
v 0.14796002 -0.09007895 0.37721857
v -0.3164946 -0.008095364 0.25991893
v 0.20413843 -0.008095334 0.43853304
v -0.34299117 -0.09007895 0.3772185
v 0.16015834 -0.090078935 0.4385437
v -0.38362542 -0.008095347 0.36038727
v 0.23409212 -0.008095328 0.47889796
v -0.35518956 -0.09007895 0.43854365
v 0.1634832 -0.090078935 0.47889796
v -0.3991696 -0.008095334 0.438533
v 0.20413843 -0.008095321 0.5192628
v -0.35851437 -0.090078935 0.4788979
v 0.16015834 -0.09007893 0.5192522
v -0.42912328 -0.008095328 0.4788979
v 0.18859428 -0.008095308 0.59740853
v -0.35518953 -0.09007893 0.5192522
v 0.14796002 -0.09007891 0.58057725
v -0.3991696 -0.008095321 0.5192628
v 0.12146342 -0.008095292 0.69787693
v -0.34299117 -0.09007891 0.58057725
v 0.090363294 -0.0900789 0.6667768
v -0.38362542 -0.008095308 0.59740853
v 0.02099502 -0.008095281 0.76500773
v -0.2853945 -0.0900789 0.6667768
v 0.0041637495 -0.09007889 0.7243736
v -0.31649458 -0.008095292 0.69787693
v -0.0975156 -0.0080952775 0.788581
v -0.19919491 -0.09007889 0.7243736
v -0.09751561 -0.09007889 0.74459887
v -0.21602616 -0.008095281 0.76500773
vt 0.08471811 0.9376674
vt 0.08471811 0.9376674
vt 0.08471811 0.9376674
vt 0.08471811 0.9376674
vt 0.08471811 0.9376674
vt 0.08471811 0.9376674
vt 0.08471811 0.9376674
vt 0.08471811 0.9376674
vt 0.08471811 0.9376674
vt 0.08471811 0.9376674
vt 0.08471811 0.9376674
vt 0.08471811 0.9376674
vt 0.08471811 0.9376674
vt 0.08471811 0.9376674
vt 0.08471811 0.9376674
vt 0.08471811 0.9376674
vt 0.08471811 0.9376674
vt 0.08471811 0.9376674
vt 0.08471811 0.9376674
vt 0.08471811 0.9376674
vt 0.08471811 0.9376674
vt 0.08471811 0.9376674
vt 0.08471811 0.9376674
vt 0.08471811 0.9376674
vt 0.08471811 0.9376674
vt 0.08471811 0.9376674
vt 0.08471811 0.9376674
vt 0.08471811 0.9376674
vt 0.08471811 0.9376674
vt 0.08471811 0.9376674
vt 0.08471811 0.9376674
vt 0.08471811 0.9376674
vt 0.08471811 0.9376674
vt 0.08471811 0.9376674
vt 0.08471811 0.9376674
vt 0.08471811 0.9376674
vt 0.08471811 0.9376674
vt 0.08471811 0.9376674
vt 0.08471811 0.9376674
vt 0.08471811 0.9376674
vt 0.08471811 0.9376674
vt 0.08471811 0.9376674
vt 0.08471811 0.9376674
vt 0.08471811 0.9376674
vt 0.08471811 0.9376674
vt 0.08471811 0.9376674
vt 0.08471811 0.9376674
vt 0.08471811 0.9376674
vt 0.08471811 0.9376674
vt 0.08471811 0.9376674
vt 0.08471811 0.9376674
vt 0.08471811 0.9376674
vt 0.08471811 0.9376674
vt 0.08471811 0.9376674
vt 0.08471811 0.9376674
vt 0.08471811 0.9376674
vt 0.08471811 0.9376674
vt 0.08471811 0.9376674
vt 0.08471811 0.9376674
vt 0.08471811 0.9376674
vt 0.08471811 0.9376674
vt 0.08471811 0.9376674
vt 0.08471811 0.9376674
vt 0.08471811 0.9376674
vt 0.08471811 0.9376674
vt 0.08471811 0.9376674
vt 0.08471811 0.9376674
vt 0.08471811 0.9376674
vt 0.08471811 0.9376674
vt 0.08471811 0.9376674
vt 0.08471811 0.9376674
vt 0.08471811 0.9376674
vt 0.08471811 0.9376674
vt 0.08471811 0.9376674
vt 0.08471811 0.9376674
vt 0.08471811 0.9376674
vt 0.08471811 0.9376674
vt 0.08471811 0.9376674
vt 0.08471811 0.9376674
vt 0.08471811 0.9376674
vt 0.08471811 0.9376674
vt 0.08471811 0.9376674
vt 0.08471811 0.9376674
vt 0.08471811 0.9376674
vt 0.08471811 0.9376674
vt 0.08471811 0.9376674
vt 0.08471811 0.9376674
vt 0.08471811 0.9376674
vt 0.08471811 0.9376674
vt 0.08471811 0.9376674
vt 0.08471811 0.9376674
vt 0.08471811 0.9376674
vt 0.08471811 0.9376674
vt 0.08471811 0.9376674
vt 0.08471811 0.9376674
vt 0.08471811 0.9376674
vt 0.08471811 0.9376674
vt 0.08471811 0.9376674
vt 0.08471811 0.9376674
vt 0.08471811 0.9376674
vt 0.08471811 0.9376674
vt 0.08471811 0.9376674
vt 0.08471811 0.9376674
vt 0.08471811 0.9376674
vt 0.08471811 0.9376674
vt 0.08471811 0.9376674
vt 0.08471811 0.9376674
vt 0.08471811 0.9376674
vt 0.08471811 0.9376674
vt 0.08471811 0.9376674
vt 0.08471811 0.9376674
vt 0.08471811 0.9376674
vt 0.08471811 0.9376674
vt 0.08471811 0.9376674
vt 0.08471811 0.9376674
vt 0.08471811 0.9376674
vt 0.08471811 0.9376674
vt 0.08471811 0.9376674
vt 0.08471811 0.9376674
vt 0.08471811 0.9376674
vt 0.08471811 0.9376674
vt 0.08471811 0.9376674
vt 0.08471811 0.9376674
vt 0.08471811 0.9376674
vt 0.08471811 0.9376674
vt 0.08471811 0.9376674
vt 0.08471811 0.9376674
vt 0.08471811 0.9376674
vt 0.08471811 0.9376674
vt 0.08471811 0.9376674
vt 0.08471811 0.9376674
vt 0.08471811 0.9376674
vt 0.08471811 0.9376674
vt 0.08471811 0.9376674
vt 0.08471811 0.9376674
vt 0.08471811 0.9376674
vt 0.08471811 0.9376674
vt 0.08471811 0.9376674
vt 0.08471811 0.9376674
vt 0.08471811 0.9376674
vt 0.08471811 0.9376674
vt 0.08471811 0.9376674
vt 0.08471811 0.9376674
vt 0.08471811 0.9376674
vt 0.08471811 0.9376674
vt 0.08471811 0.9376674
vt 0.08471811 0.9376674
vt 0.08471811 0.9376674
vt 0.08471811 0.9376674
vt 0.08471811 0.9376674
vt 0.08471811 0.9376674
vt 0.08471811 0.9376674
vt 0.08960092 0.9327846
vt 0.08960092 0.9327846
vt 0.08960092 0.9327846
vt 0.08960092 0.9327846
vt 0.08960092 0.9327846
vt 0.08960092 0.9327846
vt 0.08960092 0.9327846
vt 0.08960092 0.9327846
vt 0.08960092 0.93278456
vt 0.089600936 0.93278474
vt 0.08960093 0.9327846
vt 0.08960093 0.9327846
vt 0.08960092 0.93278456
vt 0.089600936 0.93278474
vt 0.08960092 0.93278456
vt 0.08960092 0.9327846
vt 0.08960092 0.9327846
vt 0.08960092 0.9327846
vt 0.08960092 0.9327846
vt 0.08960092 0.9327846
vt 0.08960092 0.9327846
vt 0.08960092 0.9327846
vt 0.08960092 0.9327846
vt 0.08960092 0.9327846
vt 0.08960092 0.9327846
vt 0.08960092 0.9327846
vt 0.08960092 0.9327846
vt 0.08960092 0.9327846
vt 0.08960092 0.9327846
vt 0.08960092 0.9327846
vt 0.08960092 0.93278456
vt 0.08960093 0.9327846
vt 0.08960094 0.93278474
vt 0.08960092 0.9327846
vt 0.08960092 0.9327846
vt 0.08960092 0.9327846
vt 0.08960092 0.9327846
vt 0.08960092 0.9327846
vt 0.08960092 0.9327846
vt 0.08960092 0.9327846
vt 0.08960092 0.9327846
vt 0.08960092 0.9327846
vt 0.08471811 0.9376674
vt 0.08471811 0.9376675
vt 0.08471811 0.9376674
vt 0.08471811 0.9376674
vt 0.08471811 0.9376674
vt 0.08471811 0.9376674
vt 0.08471811 0.9376674
vt 0.08471811 0.9376674
vt 0.08471811 0.9376674
vt 0.08471811 0.9376674
vt 0.08471811 0.9376674
vt 0.08471811 0.9376674
vt 0.08471811 0.9376674
vt 0.08471811 0.9376674
vt 0.08471811 0.9376674
vt 0.08471811 0.9376674
vt 0.08471811 0.9376674
vt 0.08471811 0.9376674
vt 0.08471811 0.93766737
vt 0.08471811 0.9376674
vt 0.08471811 0.9376674
vt 0.08471811 0.9376674
vt 0.08471811 0.9376674
vt 0.08471811 0.9376674
vt 0.08471811 0.9376674
vt 0.08471811 0.9376674
vt 0.08471811 0.9376674
vt 0.08471811 0.9376674
vt 0.08471811 0.9376674
vt 0.08471811 0.9376674
vt 0.08471811 0.9376674
vt 0.08471811 0.9376674
vt 0.08471811 0.9376674
vt 0.08471811 0.9376674
vt 0.08471811 0.9376675
vt 0.08471811 0.93766737
vt 0.08471811 0.9376674
vt 0.08471811 0.9376674
vt 0.08471811 0.9376674
vt 0.08471811 0.9376674
vt 0.08960092 0.9327846
vt 0.08960092 0.9327846
vt 0.08960092 0.9327846
vt 0.08960092 0.9327846
vt 0.08960092 0.9327846
vt 0.08960092 0.93278456
vt 0.08960092 0.9327846
vt 0.08960092 0.9327846
vt 0.08960092 0.9327846
vt 0.08960092 0.9327846
vt 0.08960092 0.9327846
vt 0.08960092 0.9327846
vt 0.08960092 0.9327846
vt 0.08960092 0.9327846
vt 0.08960092 0.9327846
vt 0.08960092 0.9327846
vt 0.08960092 0.9327846
vt 0.08960092 0.9327846
vt 0.08960092 0.9327847
vt 0.08960092 0.9327847
vt 0.08960092 0.9327846
vt 0.08960092 0.9327846
vt 0.08960092 0.9327846
vt 0.08960092 0.9327846
vt 0.08960092 0.9327846
vt 0.08960092 0.9327846
vt 0.08960092 0.9327846
vt 0.08960092 0.9327846
vt 0.08960092 0.9327846
vt 0.08960092 0.9327846
vt 0.08960092 0.9327846
vt 0.08960092 0.9327846
vt 0.08960092 0.9327846
vt 0.08960092 0.9327846
vt 0.08960092 0.9327846
vt 0.08960092 0.9327847
vt 0.08960092 0.9327846
vt 0.08960092 0.93278456
vt 0.08960092 0.9327846
vt 0.08960092 0.9327847
vt 0.08471811 0.9376674
vt 0.08471811 0.9376674
vt 0.08471811 0.9376674
vt 0.08471811 0.9376674
vt 0.08471811 0.9376674
vt 0.08471811 0.9376674
vt 0.08471811 0.9376674
vt 0.08471811 0.9376674
vt 0.08471811 0.9376674
vt 0.08471811 0.9376674
vt 0.08471811 0.9376674
vt 0.08471811 0.9376674
vt 0.08471811 0.9376674
vt 0.08471811 0.9376674
vt 0.08471811 0.9376675
vt 0.08471811 0.9376674
vt 0.08471811 0.9376674
vt 0.08471811 0.9376674
vt 0.08471811 0.9376674
vt 0.08471811 0.9376674
vt 0.08471811 0.93766737
vt 0.08471811 0.9376674
vt 0.08471811 0.93766737
vt 0.08471811 0.9376674
vt 0.08471811 0.9376674
vt 0.08471811 0.9376675
vt 0.08471811 0.9376674
vt 0.08471811 0.9376674
vt 0.08471811 0.9376674
vt 0.08471811 0.9376674
vt 0.08471811 0.9376674
vt 0.08471811 0.9376674
vt 0.08471811 0.9376674
vt 0.08471811 0.9376674
vt 0.08471811 0.9376674
vt 0.08471811 0.9376674
vt 0.08471811 0.9376674
vt 0.08471811 0.9376674
vt 0.08471811 0.9376674
vt 0.08471811 0.9376674
vn 0.99783367 0 0.065786704
vn 0.99783367 0 0.065786704
vn 0.99783367 0 0.065786704
vn 0.99783367 0 0.065786704
vn -0.69378406 -0.6998232 0.17003292
vn -0.69378406 -0.6998232 0.17003292
vn -0.69378406 -0.6998232 0.17003292
vn -0.69378406 -0.6998232 0.17003292
vn 0.82766694 -0.4887053 0.27592477
vn 0.82766694 -0.4887053 0.27592477
vn 0.82766694 -0.4887053 0.27592477
vn 0.82766694 -0.4887053 0.27592477
vn -0 -0.03206182 -0.99948585
vn -0 -0.03206182 -0.99948585
vn -0 -0.03206182 -0.99948585
vn -0 -0.03206182 -0.99948585
vn 0.33378404 -0.80268025 0.49425974
vn 0.33378404 -0.80268025 0.49425974
vn 0.33378404 -0.80268025 0.49425974
vn 0.33378404 -0.80268025 0.49425974
vn -0 0 1
vn -0 0 1
vn -0 0 1
vn -0 0 1
vn -0 -1 0
vn -0 -1 0
vn -0 -1 0
vn -0 -1 0
vn -0 -1 0
vn -0 -1 0
vn -0 -1 0
vn -0 -1 0
vn -0 -1 0
vn -0 -1 0
vn -0 -1 0
vn -0 -1 0
vn -0 -1 0
vn -0 -1 0
vn -0 -1 0
vn -0 -1 0
vn -0 -1 0
vn -0 -1 0
vn 0.9062113 -0.42185056 0.028688796
vn 0.9062113 -0.42185056 0.028688796
vn 0.9062113 -0.42185056 0.028688796
vn 0.9062113 -0.42185056 0.028688796
vn -0.82766646 -0.4887062 0.27592474
vn -0.82766646 -0.4887062 0.27592474
vn -0.82766646 -0.4887062 0.27592474
vn -0.82766646 -0.4887062 0.27592474
vn -0 1 0
vn -0 1 0
vn -0 1 0
vn -0 1 0
vn -0 1 0
vn -0 1 0
vn -0 1 0
vn -0 1 0
vn -0 1 0
vn -0 1 0
vn -0 1 0
vn -0 1 0
vn -0 1 0
vn -0 1 0
vn -0 1 0
vn -0 1 0
vn -0 1 0
vn -0 1 0
vn 0.85392857 -0.510361 -0.101674646
vn 0.85392857 -0.510361 -0.101674646
vn 0.85392857 -0.510361 -0.101674646
vn 0.85392857 -0.510361 -0.101674646
vn -0.9062104 -0.4218526 0.028689185
vn -0.9062104 -0.4218526 0.028689185
vn -0.9062104 -0.4218526 0.028689185
vn -0.9062104 -0.4218526 0.028689185
vn 0.6937844 -0.6998228 0.1700331
vn 0.6937844 -0.6998228 0.1700331
vn 0.6937844 -0.6998228 0.1700331
vn 0.6937844 -0.6998228 0.1700331
vn -0.9978338 0 0.06578638
vn -0.9978338 0 0.06578638
vn -0.9978338 0 0.06578638
vn -0.9978338 0 0.06578638
vn -0.8539276 -0.51036257 -0.10167444
vn -0.8539276 -0.51036257 -0.10167444
vn -0.8539276 -0.51036257 -0.10167444
vn -0.8539276 -0.51036257 -0.10167444
vn -0.9347423 0 -0.3553265
vn -0.9347423 0 -0.3553265
vn -0.9347423 0 -0.3553265
vn -0.9347423 0 -0.3553265
vn 0.934742 0 -0.3553272
vn 0.934742 0 -0.3553272
vn 0.934742 0 -0.3553272
vn 0.934742 0 -0.3553272
vn -0.8321642 0 -0.55452925
vn -0.8321642 0 -0.55452925
vn -0.8321642 0 -0.55452925
vn -0.8321642 0 -0.55452925
vn 0.8321642 0 -0.55452925
vn 0.8321642 0 -0.55452925
vn 0.8321642 0 -0.55452925
vn 0.8321642 0 -0.55452925
vn -0.3337836 -0.80268055 0.4942596
vn -0.3337836 -0.80268055 0.4942596
vn -0.3337836 -0.80268055 0.4942596
vn -0.3337836 -0.80268055 0.4942596
vn -0.33378366 0.8026806 0.4942592
vn -0.33378366 0.8026806 0.4942592
vn -0.33378366 0.8026806 0.4942592
vn -0.33378366 0.8026806 0.4942592
vn -0.8539277 0.5103623 -0.10167464
vn -0.8539277 0.5103623 -0.10167464
vn -0.8539277 0.5103623 -0.10167464
vn -0.8539277 0.5103623 -0.10167464
vn 0.6937844 0.6998228 0.17003286
vn 0.6937844 0.6998228 0.17003286
vn 0.6937844 0.6998228 0.17003286
vn 0.6937844 0.6998228 0.17003286
vn -0.90621054 0.42185232 0.02868903
vn -0.90621054 0.42185232 0.02868903
vn -0.90621054 0.42185232 0.02868903
vn -0.90621054 0.42185232 0.02868903
vn 0.8539287 0.5103606 -0.101674765
vn 0.8539287 0.5103606 -0.101674765
vn 0.8539287 0.5103606 -0.101674765
vn 0.8539287 0.5103606 -0.101674765
vn -0.8276665 0.488706 0.27592468
vn -0.8276665 0.488706 0.27592468
vn -0.8276665 0.488706 0.27592468
vn -0.8276665 0.488706 0.27592468
vn 0.90621144 0.42185053 0.02868866
vn 0.90621144 0.42185053 0.02868866
vn 0.90621144 0.42185053 0.02868866
vn 0.90621144 0.42185053 0.02868866
vn 0.33378404 0.8026803 0.49425957
vn 0.33378404 0.8026803 0.49425957
vn 0.33378404 0.8026803 0.49425957
vn 0.33378404 0.8026803 0.49425957
vn -0 0.03206097 -0.99948585
vn -0 0.03206097 -0.99948585
vn -0 0.03206097 -0.99948585
vn -0 0.03206097 -0.99948585
vn 0.8276672 0.48870492 0.2759248
vn 0.8276672 0.48870492 0.2759248
vn 0.8276672 0.48870492 0.2759248
vn 0.8276672 0.48870492 0.2759248
vn -0.693784 0.69982326 0.17003267
vn -0.693784 0.69982326 0.17003267
vn -0.693784 0.69982326 0.17003267
vn -0.693784 0.69982326 0.17003267
vn -0 1 0
vn -0 1 0
vn -0 1 0
vn -0 1 0
vn -0 1 0
vn -0 1 0
vn -0 1 0
vn -0 1 0
vn -0 1 0
vn -0 1 0
vn -0 1 0
vn -0 1 0
vn -0 1 0
vn -0 1 0
vn -0 1 0
vn -0 1 0
vn -0 1 0
vn -0 1 0
vn -0 1 0
vn -0 1 0
vn -0 1 0
vn -0 1 0
vn -0 -1 0
vn -0 -1 0
vn -0 -1 0
vn -0 -1 0
vn -0 -1 0
vn -0 -1 0
vn -0 -1 0
vn -0 -1 0
vn -0 -1 0
vn -0 -1 0
vn -0 -1 0
vn -0 -1 0
vn -0 -1 0
vn -0 -1 0
vn -0 -1 0
vn -0 -1 0
vn -0 -1 0
vn -0 -1 0
vn -0 -1 0
vn -0 -1 0
vn -0.30330265 0.944578 -0.12561819
vn -0.35524556 0.92931503 -0.100866534
vn -0.37754798 0.9187377 -0.11566623
vn -0.20905803 0.9779033 0
vn -0.37688157 0.91301227 -0.1561057
vn -0.33717147 0.94144326 0
vn -0.23213148 0.94457924 -0.23213148
vn -0.28843936 0.91302 -0.28843936
vn -0.12561819 0.944578 -0.30330265
vn -0.1561057 0.91301227 -0.37688157
vn -0 0.94457453 -0.32829684
vn -0 0.913017 -0.4079217
vn 0.12561819 0.944578 -0.30330265
vn 0.1561057 0.91301227 -0.37688157
vn 0.23213148 0.94457924 -0.23213148
vn 0.28843936 0.91302 -0.28843936
vn 0.30330265 0.944578 -0.12561819
vn 0.37688157 0.91301227 -0.1561057
vn -0.37754798 0.9187377 0.11566623
vn -0.35524556 0.92931503 0.100866534
vn -0.37688157 0.91301227 0.1561057
vn -0.30330265 0.944578 0.12561819
vn -0.28843936 0.91302 0.28843936
vn -0.23213148 0.94457924 0.23213148
vn -0.1561057 0.91301227 0.37688157
vn -0.12561819 0.944578 0.30330265
vn -0 0.913017 0.4079217
vn -0 0.94457453 0.32829684
vn 0.1561057 0.91301227 0.37688157
vn 0.12561819 0.944578 0.30330265
vn 0.28843936 0.91302 0.28843936
vn 0.23213148 0.94457924 0.23213148
vn 0.37688157 0.91301227 0.1561057
vn 0.30330265 0.944578 0.12561819
vn 0.35524556 0.92931503 0.100866534
vn 0.37754798 0.9187377 0.11566623
vn 0.20905803 0.9779033 0
vn 0.33717147 0.94144326 0
vn 0.37754798 0.9187377 -0.11566623
vn 0.35524556 0.92931503 -0.100866534
vn -0.79627043 0.55166084 0.24824129
vn 0.37754798 0.9187377 -0.11566623
vn 0.30330265 0.944578 -0.12561819
vn 0.20905803 0.9779033 0
vn -0.81476265 0.47145575 0.33747783
vn -0.9507112 0.31007758 0
vn 0.23213148 0.94457924 -0.23213148
vn -0.6235907 0.4714545 0.6235907
vn 0.12561819 0.944578 -0.30330265
vn -0.33747783 0.47145575 0.81476265
vn -0 0.94457453 -0.32829684
vn -0 0.47146243 0.8818862
vn -0.12561819 0.944578 -0.30330265
vn 0.33747783 0.47145575 0.81476265
vn -0.23213148 0.94457924 -0.23213148
vn 0.6235907 0.4714545 0.6235907
vn -0.30330265 0.944578 -0.12561819
vn 0.81476265 0.47145575 0.33747783
vn 0.37754798 0.9187377 0.11566623
vn -0.79627043 0.55166084 -0.24824129
vn -0.81476265 0.47145575 -0.33747783
vn 0.30330265 0.944578 0.12561819
vn -0.6235907 0.4714545 -0.6235907
vn 0.23213148 0.94457924 0.23213148
vn -0.33747783 0.47145575 -0.81476265
vn 0.12561819 0.944578 0.30330265
vn -0 0.47146243 -0.8818862
vn -0 0.94457453 0.32829684
vn 0.33747783 0.47145575 -0.81476265
vn -0.12561819 0.944578 0.30330265
vn 0.6235907 0.4714545 -0.6235907
vn -0.23213148 0.94457924 0.23213148
vn 0.81476265 0.47145575 -0.33747783
vn -0.30330265 0.944578 0.12561819
vn 0.79627043 0.55166084 -0.24824129
vn -0.37754798 0.9187377 0.11566623
vn -0.20905803 0.9779033 0
vn 0.9507112 0.31007758 0
vn -0.37754798 0.9187377 -0.11566623
vn 0.79627043 0.55166084 0.24824129
vn -0 -0.83009666 -0.55761963
vn 0.21338883 -0.83008623 -0.51519126
vn 0.33747783 0.47145575 -0.81476265
vn -0 0.47146243 -0.8818862
vn 0.6235907 0.4714545 -0.6235907
vn -0.21338883 -0.83008623 -0.51519126
vn 0.3943061 -0.8300876 -0.3943061
vn -0.33747783 0.47145575 -0.81476265
vn 0.81476265 0.47145575 -0.33747783
vn -0.3943061 -0.8300876 -0.3943061
vn 0.51519126 -0.83008623 -0.21338883
vn -0.6235907 0.4714545 -0.6235907
vn 0.79627043 0.55166084 -0.24824129
vn -0.51519126 -0.83008623 -0.21338883
vn 0.48891425 -0.8602998 -0.14438535
vn -0.81476265 0.47145575 -0.33747783
vn 0.9507112 0.31007758 0
vn -0.48891425 -0.8602998 -0.14438535
vn 0.4698119 -0.8827666 0
vn -0.79627043 0.55166084 -0.24824129
vn 0.79627043 0.55166084 0.24824129
vn -0.4698119 -0.8827666 0
vn 0.48891425 -0.8602998 0.14438535
vn -0.9507112 0.31007758 0
vn 0.81476265 0.47145575 0.33747783
vn -0.48891425 -0.8602998 0.14438535
vn 0.51519126 -0.83008623 0.21338883
vn -0.79627043 0.55166084 0.24824129
vn 0.6235907 0.4714545 0.6235907
vn -0.51519126 -0.83008623 0.21338883
vn 0.3943061 -0.8300876 0.3943061
vn -0.81476265 0.47145575 0.33747783
vn 0.33747783 0.47145575 0.81476265
vn -0.3943061 -0.8300876 0.3943061
vn 0.21338883 -0.83008623 0.51519126
vn -0.6235907 0.4714545 0.6235907
vn -0 0.47146243 0.8818862
vn -0.21338883 -0.83008623 0.51519126
vn -0 -0.83009666 0.55761963
vn -0.33747783 0.47145575 0.81476265
g ShortSword13_0
f 3/3/3 2/2/2 1/1/1
f 4/4/4 3/3/3 1/1/1
f 7/7/7 6/6/6 5/5/5
f 8/8/8 7/7/7 5/5/5
f 11/11/11 10/10/10 9/9/9
f 12/12/12 11/11/11 9/9/9
f 15/15/15 14/14/14 13/13/13
f 16/16/16 15/15/15 13/13/13
f 19/19/19 18/18/18 17/17/17
f 20/20/20 19/19/19 17/17/17
f 23/23/23 22/22/22 21/21/21
f 24/24/24 23/23/23 21/21/21
f 27/27/27 26/26/26 25/25/25
f 26/26/26 28/28/28 25/25/25
f 26/26/26 29/29/29 28/28/28
f 29/29/29 30/30/30 28/28/28
f 30/30/30 29/29/29 31/31/31
f 31/31/31 29/29/29 32/32/32
f 33/33/33 30/30/30 31/31/31
f 29/29/29 34/34/34 32/32/32
f 35/35/35 30/30/30 33/33/33
f 32/32/32 34/34/34 36/36/36
f 37/37/37 35/35/35 33/33/33
f 34/34/34 38/38/38 36/36/36
f 39/39/39 35/35/35 37/37/37
f 36/36/36 38/38/38 40/40/40
f 41/41/41 39/39/39 37/37/37
f 38/38/38 42/42/42 40/40/40
f 42/42/42 39/39/39 41/41/41
f 40/40/40 42/42/42 41/41/41
f 45/45/45 44/44/44 43/43/43
f 46/46/46 45/45/45 43/43/43
f 49/49/49 48/48/48 47/47/47
f 50/50/50 49/49/49 47/47/47
f 53/53/53 52/52/52 51/51/51
f 52/52/52 54/54/54 51/51/51
f 52/52/52 55/55/55 54/54/54
f 55/55/55 56/56/56 54/54/54
f 56/56/56 55/55/55 57/57/57
f 57/57/57 55/55/55 58/58/58
f 59/59/59 56/56/56 57/57/57
f 55/55/55 60/60/60 58/58/58
f 61/61/61 56/56/56 59/59/59
f 58/58/58 60/60/60 62/62/62
f 63/63/63 61/61/61 59/59/59
f 60/60/60 64/64/64 62/62/62
f 65/65/65 61/61/61 63/63/63
f 62/62/62 64/64/64 66/66/66
f 67/67/67 65/65/65 63/63/63
f 64/64/64 68/68/68 66/66/66
f 68/68/68 65/65/65 67/67/67
f 66/66/66 68/68/68 67/67/67
f 71/71/71 70/70/70 69/69/69
f 72/72/72 71/71/71 69/69/69
f 75/75/75 74/74/74 73/73/73
f 76/76/76 75/75/75 73/73/73
f 79/79/79 78/78/78 77/77/77
f 80/80/80 79/79/79 77/77/77
f 83/83/83 82/82/82 81/81/81
f 84/84/84 83/83/83 81/81/81
f 87/87/87 86/86/86 85/85/85
f 88/88/88 87/87/87 85/85/85
f 91/91/91 90/90/90 89/89/89
f 92/92/92 91/91/91 89/89/89
f 95/95/95 94/94/94 93/93/93
f 96/96/96 95/95/95 93/93/93
f 99/99/99 98/98/98 97/97/97
f 100/100/100 99/99/99 97/97/97
f 103/103/103 102/102/102 101/101/101
f 104/104/104 103/103/103 101/101/101
f 107/107/107 106/106/106 105/105/105
f 108/108/108 107/107/107 105/105/105
f 111/111/111 110/110/110 109/109/109
f 112/112/112 111/111/111 109/109/109
f 115/115/115 114/114/114 113/113/113
f 116/116/116 115/115/115 113/113/113
f 119/119/119 118/118/118 117/117/117
f 120/120/120 119/119/119 117/117/117
f 123/123/123 122/122/122 121/121/121
f 124/124/124 123/123/123 121/121/121
f 127/127/127 126/126/126 125/125/125
f 128/128/128 127/127/127 125/125/125
f 131/131/131 130/130/130 129/129/129
f 132/132/132 131/131/131 129/129/129
f 135/135/135 134/134/134 133/133/133
f 136/136/136 135/135/135 133/133/133
f 139/139/139 138/138/138 137/137/137
f 140/140/140 139/139/139 137/137/137
f 143/143/143 142/142/142 141/141/141
f 144/144/144 143/143/143 141/141/141
f 147/147/147 146/146/146 145/145/145
f 148/148/148 147/147/147 145/145/145
f 151/151/151 150/150/150 149/149/149
f 152/152/152 151/151/151 149/149/149
f 155/155/155 154/154/154 153/153/153
f 153/153/153 156/156/156 155/155/155
f 156/156/156 157/157/157 155/155/155
f 156/156/156 158/158/158 157/157/157
f 158/158/158 159/159/159 157/157/157
f 158/158/158 160/160/160 159/159/159
f 160/160/160 161/161/161 159/159/159
f 160/160/160 162/162/162 161/161/161
f 162/162/162 163/163/163 161/161/161
f 166/166/166 165/165/165 164/164/164
f 165/165/165 167/167/167 164/164/164
f 165/165/165 168/168/168 167/167/167
f 168/168/168 169/169/169 167/167/167
f 168/168/168 170/170/170 169/169/169
f 170/170/170 171/171/171 169/169/169
f 170/170/170 172/172/172 171/171/171
f 172/172/172 173/173/173 171/171/171
f 172/172/172 174/174/174 173/173/173
f 177/177/177 176/176/176 175/175/175
f 175/175/175 178/178/178 177/177/177
f 175/175/175 179/179/179 178/178/178
f 179/179/179 180/180/180 178/178/178
f 180/180/180 181/181/181 178/178/178
f 180/180/180 182/182/182 181/181/181
f 180/180/180 183/183/183 182/182/182
f 183/183/183 184/184/184 182/182/182
f 183/183/183 185/185/185 184/184/184
f 185/185/185 186/186/186 184/184/184
f 185/185/185 187/187/187 186/186/186
f 187/187/187 188/188/188 186/186/186
f 188/188/188 189/189/189 186/186/186
f 188/188/188 190/190/190 189/189/189
f 190/190/190 191/191/191 189/189/189
f 190/190/190 192/192/192 191/191/191
f 192/192/192 193/193/193 191/191/191
f 192/192/192 194/194/194 193/193/193
f 197/197/197 196/196/196 195/195/195
f 197/197/197 198/198/198 196/196/196
f 196/196/196 199/199/199 195/195/195
f 198/198/198 200/200/200 196/196/196
f 195/195/195 199/199/199 201/201/201
f 199/199/199 202/202/202 201/201/201
f 201/201/201 202/202/202 203/203/203
f 202/202/202 204/204/204 203/203/203
f 203/203/203 204/204/204 205/205/205
f 204/204/204 206/206/206 205/205/205
f 205/205/205 206/206/206 207/207/207
f 206/206/206 208/208/208 207/207/207
f 207/207/207 208/208/208 209/209/209
f 208/208/208 210/210/210 209/209/209
f 209/209/209 210/210/210 211/211/211
f 210/210/210 212/212/212 211/211/211
f 198/198/198 213/213/213 200/200/200
f 213/213/213 214/214/214 200/200/200
f 215/215/215 214/214/214 213/213/213
f 216/216/216 215/215/215 213/213/213
f 217/217/217 215/215/215 216/216/216
f 218/218/218 217/217/217 216/216/216
f 219/219/219 217/217/217 218/218/218
f 220/220/220 219/219/219 218/218/218
f 221/221/221 219/219/219 220/220/220
f 222/222/222 221/221/221 220/220/220
f 223/223/223 221/221/221 222/222/222
f 224/224/224 223/223/223 222/222/222
f 225/225/225 223/223/223 224/224/224
f 226/226/226 225/225/225 224/224/224
f 227/227/227 225/225/225 226/226/226
f 228/228/228 227/227/227 226/226/226
f 229/229/229 227/227/227 228/228/228
f 230/230/230 229/229/229 228/228/228
f 230/230/230 231/231/231 229/229/229
f 231/231/231 232/232/232 229/229/229
f 231/231/231 233/233/233 232/232/232
f 233/233/233 234/234/234 232/232/232
f 212/212/212 234/234/234 233/233/233
f 211/211/211 212/212/212 233/233/233
f 237/237/237 236/236/236 235/235/235
f 236/236/236 238/238/238 235/235/235
f 239/239/239 237/237/237 235/235/235
f 238/238/238 240/240/240 235/235/235
f 241/241/241 237/237/237 239/239/239
f 242/242/242 241/241/241 239/239/239
f 243/243/243 241/241/241 242/242/242
f 244/244/244 243/243/243 242/242/242
f 245/245/245 243/243/243 244/244/244
f 246/246/246 245/245/245 244/244/244
f 247/247/247 245/245/245 246/246/246
f 248/248/248 247/247/247 246/246/246
f 249/249/249 247/247/247 248/248/248
f 250/250/250 249/249/249 248/248/248
f 251/251/251 249/249/249 250/250/250
f 252/252/252 251/251/251 250/250/250
f 238/238/238 253/253/253 240/240/240
f 253/253/253 254/254/254 240/240/240
f 254/254/254 253/253/253 255/255/255
f 253/253/253 256/256/256 255/255/255
f 255/255/255 256/256/256 257/257/257
f 256/256/256 258/258/258 257/257/257
f 257/257/257 258/258/258 259/259/259
f 258/258/258 260/260/260 259/259/259
f 259/259/259 260/260/260 261/261/261
f 260/260/260 262/262/262 261/261/261
f 261/261/261 262/262/262 263/263/263
f 262/262/262 264/264/264 263/263/263
f 263/263/263 264/264/264 265/265/265
f 264/264/264 266/266/266 265/265/265
f 265/265/265 266/266/266 267/267/267
f 266/266/266 268/268/268 267/267/267
f 267/267/267 268/268/268 269/269/269
f 268/268/268 270/270/270 269/269/269
f 270/270/270 271/271/271 269/269/269
f 271/271/271 272/272/272 269/269/269
f 271/271/271 273/273/273 272/272/272
f 273/273/273 274/274/274 272/272/272
f 274/274/274 273/273/273 252/252/252
f 273/273/273 251/251/251 252/252/252
f 277/277/277 276/276/276 275/275/275
f 278/278/278 277/277/277 275/275/275
f 277/277/277 279/279/279 276/276/276
f 278/278/278 275/275/275 280/280/280
f 279/279/279 281/281/281 276/276/276
f 282/282/282 278/278/278 280/280/280
f 279/279/279 283/283/283 281/281/281
f 282/282/282 280/280/280 284/284/284
f 283/283/283 285/285/285 281/281/281
f 286/286/286 282/282/282 284/284/284
f 283/283/283 287/287/287 285/285/285
f 286/286/286 284/284/284 288/288/288
f 287/287/287 289/289/289 285/285/285
f 290/290/290 286/286/286 288/288/288
f 289/289/289 287/287/287 291/291/291
f 290/290/290 288/288/288 292/292/292
f 293/293/293 289/289/289 291/291/291
f 294/294/294 290/290/290 292/292/292
f 293/293/293 291/291/291 295/295/295
f 292/292/292 296/296/296 294/294/294
f 297/297/297 293/293/293 295/295/295
f 296/296/296 298/298/298 294/294/294
f 295/295/295 299/299/299 297/297/297
f 296/296/296 300/300/300 298/298/298
f 299/299/299 301/301/301 297/297/297
f 300/300/300 302/302/302 298/298/298
f 299/299/299 303/303/303 301/301/301
f 302/302/302 300/300/300 304/304/304
f 303/303/303 305/305/305 301/301/301
f 306/306/306 302/302/302 304/304/304
f 303/303/303 307/307/307 305/305/305
f 306/306/306 304/304/304 308/308/308
f 307/307/307 309/309/309 305/305/305
f 310/310/310 306/306/306 308/308/308
f 307/307/307 311/311/311 309/309/309
f 310/310/310 308/308/308 312/312/312
f 311/311/311 313/313/313 309/309/309
f 314/314/314 310/310/310 312/312/312
f 314/314/314 312/312/312 313/313/313
f 311/311/311 314/314/314 313/313/313
