g ShortSword01
v -0.06848618 -0.013339865 0.20739728
v -0.05451619 -0.02461902 0.20739728
v -0.05451619 -0.04051827 0.20739728
v -0.06848618 -0.05179742 0.2073973
v -0.105381906 -0.013339865 0.20739728
v -0.105381906 -0.05179742 0.2073973
v -0.11935188 -0.02461902 0.20739728
v -0.11935188 -0.04051827 0.20739728
v -0.105381906 -0.05179746 -0.05672028
v -0.10389112 -0.05024359 -0.055958413
v -0.06997694 -0.05024359 -0.055958413
v -0.06848618 -0.05179746 -0.05672028
v -0.105381906 -0.05179746 -0.05672028
v -0.116732195 -0.039875902 -0.055958413
v -0.10389112 -0.05024359 -0.055958413
v -0.11935188 -0.04051831 -0.05672028
v -0.105381906 -0.05179747 -0.10225124
v -0.06848618 -0.05179746 -0.05672028
v -0.11935188 -0.024619063 -0.056720283
v -0.116732195 -0.025261464 -0.055958416
v -0.10389112 -0.014893779 -0.055958416
v -0.11935188 -0.02461907 -0.10225124
v -0.105381906 -0.013339908 -0.056720283
v -0.11935188 -0.040518317 -0.10225124
v -0.105381906 -0.013339915 -0.10225125
v -0.06848618 -0.013339908 -0.056720283
v -0.06997694 -0.014893779 -0.055958416
v -0.05713587 -0.025261464 -0.055958416
v -0.06848618 -0.013339915 -0.10225125
v -0.05451619 -0.024619063 -0.056720283
v -0.06848618 -0.05179747 -0.10225124
v -0.05451619 -0.02461907 -0.10225124
v -0.05451619 -0.040518317 -0.10225124
v -0.05451619 -0.04051831 -0.05672028
v -0.05713587 -0.039875902 -0.055958413
v -0.06997694 -0.05024359 -0.055958413
v -0.105381906 -0.051797424 0.18063052
v -0.105381906 -0.05179742 0.2073973
v -0.06848618 -0.05179742 0.2073973
v -0.11935188 -0.04051827 0.20739728
v -0.06848618 -0.051797424 0.18063052
v -0.11935188 -0.040518273 0.1806305
v -0.05451619 -0.040518273 0.1806305
v -0.05451619 -0.04051827 0.20739728
v -0.11935188 -0.024619024 0.1806305
v -0.11935188 -0.02461902 0.20739728
v -0.05451619 -0.02461902 0.20739728
v -0.05451619 -0.024619024 0.1806305
v -0.105381906 -0.013339865 0.20739728
v -0.105381906 -0.013339869 0.1806305
v -0.06848618 -0.013339869 0.1806305
v -0.06848618 -0.013339865 0.20739728
v -0.11935188 -0.040518273 0.1806305
v -0.11935188 -0.040518273 0.17657802
v -0.11935188 -0.024619026 0.17657802
v -0.105381906 -0.051797424 0.17657803
v -0.11935188 -0.024619024 0.1806305
v -0.105381906 -0.051797424 0.18063052
v -0.105381906 -0.013339869 0.1806305
v -0.105381906 -0.01333987 0.17657802
v -0.06848618 -0.051797424 0.18063052
v -0.06848618 -0.051797424 0.17657803
v -0.06848618 -0.01333987 0.17657802
v -0.06848618 -0.013339869 0.1806305
v -0.05451619 -0.040518273 0.17657802
v -0.05451619 -0.040518273 0.1806305
v -0.05451619 -0.024619024 0.1806305
v -0.05451619 -0.024619026 0.17657802
v -0.105381906 -0.05179743 0.1457587
v -0.11935188 -0.040518273 0.17657802
v -0.105381906 -0.051797424 0.17657803
v -0.06848618 -0.051797424 0.17657803
v -0.11935188 -0.04051828 0.14575869
v -0.11935188 -0.02461903 0.14575869
v -0.11935188 -0.024619026 0.17657802
v -0.105381906 -0.01333987 0.17657802
v -0.06848618 -0.05179743 0.1457587
v -0.10421883 -0.05058514 0.1442278
v -0.117308065 -0.04001709 0.14422779
v -0.06964924 -0.05058514 0.1442278
v -0.117308065 -0.025120223 0.14422779
v -0.056560002 -0.04001709 0.14422779
v -0.05451619 -0.04051828 0.14575869
v -0.05451619 -0.040518273 0.17657802
v -0.05451619 -0.024619026 0.17657802
v -0.105381906 -0.013339875 0.14575869
v -0.10421883 -0.014552176 0.14422779
v -0.06964924 -0.014552176 0.14422779
v -0.05451619 -0.02461903 0.14575869
v -0.056560002 -0.025120223 0.14422779
v -0.06848618 -0.013339875 0.14575869
v -0.06848618 -0.01333987 0.17657802
v -0.06997694 -0.014893779 -0.055958416
v -0.05713587 -0.025261464 -0.055958416
v -0.056560002 -0.025120223 0.14422779
v -0.05713587 -0.039875902 -0.055958413
v -0.06964924 -0.014552176 0.14422779
v -0.056560002 -0.04001709 0.14422779
v -0.10421883 -0.014552176 0.14422779
v -0.10389112 -0.014893779 -0.055958416
v -0.06964924 -0.05058514 0.1442278
v -0.06997694 -0.05024359 -0.055958413
v -0.116732195 -0.025261464 -0.055958416
v -0.117308065 -0.025120223 0.14422779
v -0.10389112 -0.05024359 -0.055958413
v -0.10421883 -0.05058514 0.1442278
v -0.117308065 -0.04001709 0.14422779
v -0.116732195 -0.039875902 -0.055958413
v -0.13017839 -0.04284976 0.20406616
v -0.17967933 -0.03363235 0.20406616
v -0.17377779 -0.03373845 0.37038037
v -0.13216294 -0.04162672 0.36912256
v -0.10872406 -0.04037117 0.5104905
v -0.1432618 -0.03349499 0.51158696
v -0.13017839 -0.020831348 0.20406616
v -0.17377779 -0.029943833 0.37038037
v -0.17967933 -0.030048748 0.20406616
v -0.13216294 -0.022055559 0.36912256
v -0.1432618 -0.030187234 0.51158696
v -0.10872406 -0.023311054 0.5104905
v -0.1432618 -0.03349499 0.51158696
v -0.0842872 -0.035680894 0.5783572
v -0.10872406 -0.04037117 0.5104905
v -0.068353795 -0.023311054 0.50968015
v -0.047460906 -0.02855294 0.6032406
v -0.0842872 -0.0280014 0.5783572
v -0.10872406 -0.023311054 0.5104905
v -0.07320001 -0.022055559 0.3681929
v -0.052520454 -0.027971733 0.36767405
v -0.13216294 -0.022055559 0.36912256
v -0.13017839 -0.020831348 0.20406616
v -0.0664956 -0.020831348 0.20406616
v -0.0431815 -0.027487319 0.20406616
v -0.05295214 -0.028468162 0.5092278
v -0.047460906 -0.02855294 0.6032406
v -0.0664956 -0.04284976 0.20406616
v -0.13017839 -0.04284976 0.20406616
v -0.13216294 -0.04162672 0.36912256
v -0.07320001 -0.04162672 0.3681929
v -0.0431815 -0.036193777 0.20406616
v -0.068353795 -0.04037117 0.50968015
v -0.10872406 -0.04037117 0.5104905
v -0.052520454 -0.035710517 0.36767405
v -0.05295214 -0.035214037 0.5092278
v -0.047460906 -0.035129357 0.6032406
v -0.0842872 -0.035680894 0.5783572
v -0.0431815 -0.027487319 0.20406616
v -0.0431815 -0.036193777 0.20406616
v -0.052520454 -0.035710517 0.36767405
v -0.052520454 -0.027971733 0.36767405
v -0.05295214 -0.028468162 0.5092278
v -0.05295214 -0.035214037 0.5092278
v -0.047460906 -0.02855294 0.6032406
v -0.047460906 -0.035129357 0.6032406
v -0.17967933 -0.03363235 0.20406616
v -0.17967933 -0.030048748 0.20406616
v -0.17377779 -0.029943833 0.37038037
v -0.17377779 -0.03373845 0.37038037
v -0.0664956 -0.04284976 0.20406616
v -0.0431815 -0.036193777 0.20406616
v -0.0431815 -0.027487319 0.20406616
v -0.0664956 -0.020831348 0.20406616
v -0.13017839 -0.04284976 0.20406616
v -0.13017839 -0.020831348 0.20406616
v -0.17967933 -0.03363235 0.20406616
v -0.17967933 -0.030048748 0.20406616
v -0.17377779 -0.029943833 0.37038037
v -0.1432618 -0.030187234 0.51158696
v -0.1432618 -0.03349499 0.51158696
v -0.17377779 -0.03373845 0.37038037
v -0.1432618 -0.030187234 0.51158696
v -0.0842872 -0.0280014 0.5783572
v -0.0842872 -0.035680894 0.5783572
v -0.1432618 -0.03349499 0.51158696
v -0.10872406 -0.023311054 0.5104905
v -0.0842872 -0.0280014 0.5783572
v -0.1432618 -0.030187234 0.51158696
v -0.0842872 -0.0280014 0.5783572
v -0.047460906 -0.02855294 0.6032406
v -0.047460906 -0.035129357 0.6032406
v -0.0842872 -0.035680894 0.5783572
vt 0.027980983 0.5983327
vt 0.027980983 0.5983327
vt 0.027980983 0.5983327
vt 0.027980983 0.5983327
vt 0.027980983 0.5983327
vt 0.027980983 0.5983327
vt 0.027980983 0.5983327
vt 0.027980983 0.5983327
vt 0.027980983 0.5983327
vt 0.027980983 0.5983327
vt 0.027980983 0.5983327
vt 0.027980983 0.5983327
vt 0.041284516 0.64451486
vt 0.041284516 0.64451486
vt 0.041284516 0.64451486
vt 0.041284516 0.64451486
vt 0.041284516 0.64451486
vt 0.041284516 0.64451486
vt 0.041284516 0.64451486
vt 0.041284516 0.64451486
vt 0.041284516 0.64451486
vt 0.041284516 0.64451486
vt 0.041284516 0.64451486
vt 0.041284516 0.64451486
vt 0.041284516 0.64451486
vt 0.041284516 0.64451486
vt 0.041284516 0.64451486
vt 0.041284516 0.64451486
vt 0.041284516 0.64451486
vt 0.041284516 0.64451486
vt 0.041284516 0.64451486
vt 0.041284516 0.64451486
vt 0.041284516 0.64451486
vt 0.041284516 0.64451486
vt 0.041284516 0.64451486
vt 0.041284516 0.64451486
vt 0.041284516 0.64451486
vt 0.041284516 0.64451486
vt 0.041284516 0.64451486
vt 0.041284516 0.64451486
vt 0.041284516 0.64451486
vt 0.041284516 0.64451486
vt 0.041284516 0.64451486
vt 0.041284516 0.64451486
vt 0.041284516 0.64451486
vt 0.041284516 0.64451486
vt 0.041284516 0.64451486
vt 0.041284516 0.64451486
vt 0.041284516 0.64451486
vt 0.041284516 0.64451486
vt 0.041284516 0.64451486
vt 0.041284516 0.64451486
vt 0.027980983 0.5983327
vt 0.027980983 0.5983327
vt 0.027980983 0.5983327
vt 0.027980983 0.5983327
vt 0.027980983 0.5983327
vt 0.027980983 0.5983327
vt 0.027980983 0.5983327
vt 0.027980983 0.5983327
vt 0.027980983 0.5983327
vt 0.027980983 0.5983327
vt 0.027980983 0.5983327
vt 0.027980983 0.5983327
vt 0.027980983 0.5983327
vt 0.027980983 0.5983327
vt 0.027980983 0.5983327
vt 0.027980983 0.5983327
vt 0.041284516 0.64451486
vt 0.041284516 0.64451486
vt 0.041284516 0.64451486
vt 0.041284516 0.64451486
vt 0.041284516 0.64451486
vt 0.041284516 0.64451486
vt 0.041284516 0.64451486
vt 0.041284516 0.64451486
vt 0.041284516 0.64451486
vt 0.041284516 0.64451486
vt 0.041284516 0.64451486
vt 0.041284516 0.64451486
vt 0.041284516 0.64451486
vt 0.041284516 0.64451486
vt 0.041284516 0.64451486
vt 0.041284516 0.64451486
vt 0.041284516 0.64451486
vt 0.041284516 0.64451486
vt 0.041284516 0.64451486
vt 0.041284516 0.64451486
vt 0.041284516 0.64451486
vt 0.041284516 0.64451486
vt 0.041284516 0.64451486
vt 0.041284516 0.64451486
vt 0.1055354 0.6631955
vt 0.1055354 0.6631955
vt 0.1055354 0.6631955
vt 0.1055354 0.6631955
vt 0.1055354 0.6631955
vt 0.1055354 0.6631955
vt 0.1055354 0.6631955
vt 0.1055354 0.6631955
vt 0.1055354 0.6631955
vt 0.1055354 0.6631955
vt 0.1055354 0.6631955
vt 0.1055354 0.6631955
vt 0.1055354 0.6631955
vt 0.1055354 0.6631955
vt 0.1055354 0.6631955
vt 0.1055354 0.6631955
vt 0.23523434 0.47496784
vt 0.23523434 0.4749679
vt 0.23523434 0.47496778
vt 0.23523434 0.47496784
vt 0.23523434 0.47496784
vt 0.23523434 0.47496778
vt 0.23523434 0.47496784
vt 0.23523434 0.47496778
vt 0.23523434 0.47496784
vt 0.23523434 0.47496784
vt 0.23523434 0.47496778
vt 0.23523434 0.47496784
vt 0.23523434 0.47496778
vt 0.23523434 0.47496778
vt 0.23523434 0.47496784
vt 0.14573796 0.9037696
vt 0.14573796 0.9037696
vt 0.14545573 0.9118591
vt 0.14545573 0.9118591
vt 0.14573796 0.9037696
vt 0.14589562 0.89925426
vt 0.14545573 0.9118591
vt 0.14687999 0.9114745
vt 0.14719559 0.9023543
vt 0.14737178 0.8972636
vt 0.14589562 0.89925426
vt 0.14589562 0.89925426
vt 0.14719559 0.9023543
vt 0.14687999 0.9114745
vt 0.14545573 0.9118591
vt 0.14573796 0.9037696
vt 0.14737178 0.8972636
vt 0.14573796 0.9037696
vt 0.14545573 0.9118591
vt 0.14589562 0.89925426
vt 0.14589562 0.89925426
vt 0.14573796 0.9037696
vt 0.14545573 0.9118591
vt 0.14735807 0.88506854
vt 0.14735807 0.88506854
vt 0.14735807 0.88506854
vt 0.14735807 0.88506854
vt 0.14735807 0.88506854
vt 0.14735807 0.88506854
vt 0.14735807 0.88506854
vt 0.14735807 0.88506854
vt 0.23523434 0.4749679
vt 0.23523434 0.47496784
vt 0.23523434 0.47496778
vt 0.23523434 0.47496778
vt 0.09024247 0.84460306
vt 0.09024247 0.84460306
vt 0.09024247 0.84460306
vt 0.09024247 0.84460306
vt 0.09024247 0.84460306
vt 0.09024247 0.84460306
vt 0.09024247 0.84460306
vt 0.09024247 0.84460306
vt 0.23523434 0.47496778
vt 0.23523434 0.47496778
vt 0.23523434 0.47496778
vt 0.23523434 0.47496778
vt 0.23523434 0.47496778
vt 0.23523434 0.47496778
vt 0.23523434 0.47496778
vt 0.23523434 0.47496778
vt 0.23523434 0.47496784
vt 0.23523434 0.47496784
vt 0.23523434 0.47496778
vt 0.101677775 0.8523545
vt 0.101677775 0.8523545
vt 0.101677775 0.8523545
vt 0.101677775 0.8523545
vn 0.25614855 0.72507775 0.63925743
vn 0.7067077 0.3376974 0.6217111
vn 0.7067077 -0.3376974 0.6217111
vn 0.25614855 -0.72507775 0.63925743
vn -0.25614855 0.72507775 0.63925743
vn -0.25614855 -0.72507775 0.63925743
vn -0.7067077 0.3376974 0.6217111
vn -0.7067077 -0.3376974 0.6217111
vn -0.29701248 -0.80192155 0.51836795
vn -0.23307957 -0.7507866 0.61805606
vn 0.23307957 -0.7507866 0.61805606
vn 0.29701248 -0.80192155 0.51836795
vn -0.29701248 -0.80192155 0.51836795
vn -0.64337736 -0.32768574 0.69187254
vn -0.23307957 -0.7507866 0.61805606
vn -0.76588136 -0.35933402 0.53320235
vn -0.25614855 -0.72507775 -0.63925743
vn 0.29701248 -0.80192155 0.51836795
vn -0.76588136 0.35933402 0.53320235
vn -0.64337736 0.32768574 0.69187254
vn -0.23307957 0.7507866 0.61805606
vn -0.7067077 0.3376974 -0.6217111
vn -0.29701248 0.80192155 0.51836795
vn -0.7067077 -0.3376974 -0.6217111
vn -0.25614855 0.72507775 -0.63925743
vn 0.29701248 0.80192155 0.51836795
vn 0.23307957 0.7507866 0.61805606
vn 0.64337736 0.32768574 0.69187254
vn 0.25614855 0.72507775 -0.63925743
vn 0.76588136 0.35933402 0.53320235
vn 0.25614855 -0.72507775 -0.63925743
vn 0.7067077 0.3376974 -0.6217111
vn 0.7067077 -0.3376974 -0.6217111
vn 0.76588136 -0.35933402 0.53320235
vn 0.64337736 -0.32768574 0.69187254
vn 0.23307957 -0.7507866 0.61805606
vn -0.33311546 -0.9428861 0
vn -0.25614855 -0.72507775 0.63925743
vn 0.25614855 -0.72507775 0.63925743
vn -0.7067077 -0.3376974 0.6217111
vn 0.33311546 -0.9428861 0
vn -0.9022684 -0.4311747 0
vn 0.9022684 -0.4311747 0
vn 0.7067077 -0.3376974 0.6217111
vn -0.9022804 0.43114987 0
vn -0.7067077 0.3376974 0.6217111
vn 0.7067077 0.3376974 0.6217111
vn 0.9022684 0.4311747 0
vn -0.25614855 0.72507775 0.63925743
vn -0.33311546 0.9428861 0
vn 0.33311546 0.9428861 0
vn 0.25614855 0.72507775 0.63925743
vn -0.9022684 -0.4311747 0
vn -0.9022684 -0.4311747 0
vn -0.9022804 0.43114987 0
vn -0.33311546 -0.9428861 0
vn -0.9022804 0.43114987 0
vn -0.33311546 -0.9428861 0
vn -0.33311546 0.9428861 0
vn -0.33311546 0.9428861 0
vn 0.33311546 -0.9428861 0
vn 0.33311546 -0.9428861 0
vn 0.33311546 0.9428861 0
vn 0.33311546 0.9428861 0
vn 0.9022684 -0.4311747 0
vn 0.9022684 -0.4311747 0
vn 0.9022684 0.4311747 0
vn 0.9022684 0.4311747 0
vn -0.3285115 -0.87264305 -0.36135045
vn -0.9022684 -0.4311747 0
vn -0.33311546 -0.9428861 0
vn 0.33311546 -0.9428861 0
vn -0.8285047 -0.38441983 -0.40718716
vn -0.8285047 0.38441983 -0.40718716
vn -0.9022804 0.43114987 0
vn -0.33311546 0.9428861 0
vn 0.3285115 -0.87264305 -0.36135045
vn -0.2711906 -0.8732362 -0.4048632
vn -0.76752865 -0.3950412 -0.5048189
vn 0.2711906 -0.8732362 -0.4048632
vn -0.76752865 0.3950412 -0.5048189
vn 0.76752865 -0.3950412 -0.5048189
vn 0.8285047 -0.38441983 -0.40718716
vn 0.9022684 -0.4311747 0
vn 0.9022684 0.4311747 0
vn -0.3285115 0.87264305 -0.36135045
vn -0.2711906 0.8732362 -0.4048632
vn 0.2711906 0.8732362 -0.4048632
vn 0.8285047 0.38441983 -0.40718716
vn 0.76752865 0.3950412 -0.5048189
vn 0.3285115 0.87264305 -0.36135045
vn 0.33311546 0.9428861 0
vn 0.23307957 0.7507866 0.61805606
vn 0.64337736 0.32768574 0.69187254
vn 0.76752865 0.3950412 -0.5048189
vn 0.64337736 -0.32768574 0.69187254
vn 0.2711906 0.8732362 -0.4048632
vn 0.76752865 -0.3950412 -0.5048189
vn -0.2711906 0.8732362 -0.4048632
vn -0.23307957 0.7507866 0.61805606
vn 0.2711906 -0.8732362 -0.4048632
vn 0.23307957 -0.7507866 0.61805606
vn -0.64337736 0.32768574 0.69187254
vn -0.76752865 0.3950412 -0.5048189
vn -0.23307957 -0.7507866 0.61805606
vn -0.2711906 -0.8732362 -0.4048632
vn -0.76752865 -0.3950412 -0.5048189
vn -0.64337736 -0.32768574 0.69187254
vn -0.18443625 -0.98282915 0.0054929215
vn -0.18443625 -0.98282915 0.0054929215
vn -0.18443625 -0.98282915 0.0054929215
vn -0.18443625 -0.98282915 0.0054929215
vn -0.18894303 -0.98111993 0.04128153
vn -0.18894303 -0.98111993 0.04128153
vn -0.18443604 0.98282915 0.005499923
vn -0.18443604 0.98282915 0.005499923
vn -0.18443604 0.98282915 0.005499923
vn -0.18443604 0.98282915 0.005499923
vn -0.1889431 0.98111993 0.041281126
vn -0.1889431 0.98111993 0.041281126
vn -0.18932572 -0.9725365 0.1353828
vn -0.18932572 -0.9725365 0.1353828
vn -0.18932572 -0.9725365 0.1353828
vn 0.14124224 0.98982495 0.017243272
vn 0.42137673 0.5318863 0.7345329
vn -0.48696935 0.65620005 0.57642204
vn -0.102939576 0.9925291 0.06549312
vn 0.14032601 0.99006444 0.009003082
vn 0.79709804 0.6033323 0.02499515
vn -0.098943256 0.99495655 0.01648037
vn -0.066929944 0.7257917 -0.684651
vn 0.10532025 0.73269445 -0.6723588
vn 0.6588086 0.48457694 -0.57546186
vn 0.80378413 0.59451395 -0.02200434
vn 0.42137673 0.5318863 0.7345329
vn 0.10532025 -0.73269445 -0.6723588
vn -0.06692854 -0.7257765 -0.68466717
vn -0.098943256 -0.99495655 0.01648037
vn 0.14032601 -0.99006444 0.009003082
vn 0.6588086 -0.48457694 -0.57546186
vn 0.14124224 -0.98982495 0.017243272
vn -0.102939576 -0.9925291 0.06549312
vn 0.79709804 -0.6033323 0.02499515
vn 0.80378413 -0.59451395 -0.02200434
vn 0.42137673 -0.5318863 0.7345329
vn -0.48696935 -0.65620005 0.57642204
vn 0.6588086 0.48457694 -0.57546186
vn 0.6588086 -0.48457694 -0.57546186
vn 0.79709804 -0.6033323 0.02499515
vn 0.79709804 0.6033323 0.02499515
vn 0.80378413 0.59451395 -0.02200434
vn 0.80378413 -0.59451395 -0.02200434
vn 0.42137673 0.5318863 0.7345329
vn 0.42137673 -0.5318863 0.7345329
vn -0.9993711 0 0.03546202
vn -0.9993711 0 0.03546202
vn -0.9993711 0 0.03546202
vn -0.9993711 0 0.03546202
vn -0 0 -1
vn -0 0 -1
vn -0 0 -1
vn -0 0 -1
vn -0 0 -1
vn -0 0 -1
vn -0 0 -1
vn -0 0 -1
vn -0.97743577 0 0.21123257
vn -0.97743577 0 0.21123257
vn -0.97743577 0 0.21123257
vn -0.97743577 0 0.21123257
vn -0.74950564 0 0.6619979
vn -0.74950564 0 0.6619979
vn -0.74950564 0 0.6619979
vn -0.74950564 0 0.6619979
vn -0.18932563 0.97253644 0.1353837
vn -0.18932563 0.97253644 0.1353837
vn -0.18932563 0.97253644 0.1353837
vn -0.48696935 0.65620005 0.57642204
vn 0.42137673 0.5318863 0.7345329
vn 0.42137673 -0.5318863 0.7345329
vn -0.48696935 -0.65620005 0.57642204
g ShortSword01_0
f 3/3/3 2/2/2 1/1/1
f 1/1/1 4/4/4 3/3/3
f 1/1/1 5/5/5 4/4/4
f 5/5/5 6/6/6 4/4/4
f 5/5/5 7/7/7 6/6/6
f 7/7/7 8/8/8 6/6/6
f 11/11/11 10/10/10 9/9/9
f 12/12/12 11/11/11 9/9/9
f 15/15/15 14/14/14 13/13/13
f 14/14/14 16/16/16 13/13/13
f 13/13/13 16/16/16 17/17/17
f 18/18/18 13/13/13 17/17/17
f 19/19/19 16/16/16 14/14/14
f 20/20/20 19/19/19 14/14/14
f 19/19/19 20/20/20 21/21/21
f 19/19/19 22/22/22 16/16/16
f 23/23/23 19/19/19 21/21/21
f 22/22/22 19/19/19 23/23/23
f 22/22/22 24/24/24 16/16/16
f 16/16/16 24/24/24 17/17/17
f 24/24/24 22/22/22 25/25/25
f 25/25/25 22/22/22 23/23/23
f 17/17/17 24/24/24 25/25/25
f 23/23/23 21/21/21 26/26/26
f 21/21/21 27/27/27 26/26/26
f 27/27/27 28/28/28 26/26/26
f 25/25/25 23/23/23 29/29/29
f 17/17/17 25/25/25 29/29/29
f 23/23/23 26/26/26 29/29/29
f 28/28/28 30/30/30 26/26/26
f 26/26/26 30/30/30 29/29/29
f 31/31/31 17/17/17 29/29/29
f 31/31/31 18/18/18 17/17/17
f 31/31/31 29/29/29 32/32/32
f 30/30/30 32/32/32 29/29/29
f 32/32/32 33/33/33 31/31/31
f 31/31/31 33/33/33 18/18/18
f 32/32/32 30/30/30 33/33/33
f 30/30/30 28/28/28 34/34/34
f 30/30/30 34/34/34 33/33/33
f 33/33/33 34/34/34 18/18/18
f 28/28/28 35/35/35 34/34/34
f 18/18/18 34/34/34 36/36/36
f 34/34/34 35/35/35 36/36/36
f 39/39/39 38/38/38 37/37/37
f 38/38/38 40/40/40 37/37/37
f 41/41/41 39/39/39 37/37/37
f 40/40/40 42/42/42 37/37/37
f 41/41/41 43/43/43 39/39/39
f 43/43/43 44/44/44 39/39/39
f 45/45/45 42/42/42 40/40/40
f 46/46/46 45/45/45 40/40/40
f 47/47/47 44/44/44 43/43/43
f 48/48/48 47/47/47 43/43/43
f 45/45/45 46/46/46 49/49/49
f 50/50/50 45/45/45 49/49/49
f 47/47/47 48/48/48 51/51/51
f 50/50/50 49/49/49 51/51/51
f 52/52/52 47/47/47 51/51/51
f 49/49/49 52/52/52 51/51/51
f 55/55/55 54/54/54 53/53/53
f 53/53/53 54/54/54 56/56/56
f 57/57/57 55/55/55 53/53/53
f 58/58/58 53/53/53 56/56/56
f 55/55/55 57/57/57 59/59/59
f 60/60/60 55/55/55 59/59/59
f 61/61/61 58/58/58 56/56/56
f 62/62/62 61/61/61 56/56/56
f 60/60/60 59/59/59 63/63/63
f 59/59/59 64/64/64 63/63/63
f 62/62/62 65/65/65 61/61/61
f 65/65/65 66/66/66 61/61/61
f 64/64/64 67/67/67 63/63/63
f 67/67/67 66/66/66 65/65/65
f 67/67/67 68/68/68 63/63/63
f 68/68/68 67/67/67 65/65/65
f 71/71/71 70/70/70 69/69/69
f 72/72/72 71/71/71 69/69/69
f 70/70/70 73/73/73 69/69/69
f 74/74/74 73/73/73 70/70/70
f 75/75/75 74/74/74 70/70/70
f 74/74/74 75/75/75 76/76/76
f 77/77/77 72/72/72 69/69/69
f 69/69/69 73/73/73 78/78/78
f 77/77/77 69/69/69 78/78/78
f 73/73/73 79/79/79 78/78/78
f 80/80/80 77/77/77 78/78/78
f 81/81/81 79/79/79 73/73/73
f 74/74/74 81/81/81 73/73/73
f 80/80/80 82/82/82 77/77/77
f 77/77/77 83/83/83 72/72/72
f 82/82/82 83/83/83 77/77/77
f 83/83/83 84/84/84 72/72/72
f 85/85/85 84/84/84 83/83/83
f 81/81/81 74/74/74 86/86/86
f 86/86/86 74/74/74 76/76/76
f 87/87/87 81/81/81 86/86/86
f 87/87/87 86/86/86 88/88/88
f 89/89/89 83/83/83 82/82/82
f 89/89/89 85/85/85 83/83/83
f 90/90/90 89/89/89 82/82/82
f 89/89/89 90/90/90 88/88/88
f 86/86/86 76/76/76 91/91/91
f 86/86/86 91/91/91 88/88/88
f 91/91/91 89/89/89 88/88/88
f 85/85/85 89/89/89 91/91/91
f 76/76/76 92/92/92 91/91/91
f 92/92/92 85/85/85 91/91/91
f 95/95/95 94/94/94 93/93/93
f 96/96/96 94/94/94 95/95/95
f 97/97/97 95/95/95 93/93/93
f 98/98/98 96/96/96 95/95/95
f 97/97/97 93/93/93 99/99/99
f 93/93/93 100/100/100 99/99/99
f 96/96/96 98/98/98 101/101/101
f 102/102/102 96/96/96 101/101/101
f 100/100/100 103/103/103 99/99/99
f 103/103/103 104/104/104 99/99/99
f 105/105/105 102/102/102 101/101/101
f 106/106/106 105/105/105 101/101/101
f 107/107/107 104/104/104 103/103/103
f 106/106/106 107/107/107 105/105/105
f 108/108/108 107/107/107 103/103/103
f 107/107/107 108/108/108 105/105/105
f 111/111/111 110/110/110 109/109/109
f 111/111/111 110/110/110 109/109/109
f 112/112/112 111/111/111 109/109/109
f 112/112/112 111/111/111 109/109/109
f 112/112/112 113/113/113 111/111/111
f 112/112/112 113/113/113 111/111/111
f 113/113/113 114/114/114 111/111/111
f 113/113/113 114/114/114 111/111/111
f 117/117/117 116/116/116 115/115/115
f 117/117/117 116/116/116 115/115/115
f 116/116/116 118/118/118 115/115/115
f 116/116/116 118/118/118 115/115/115
f 116/116/116 119/119/119 118/118/118
f 116/116/116 119/119/119 118/118/118
f 119/119/119 120/120/120 118/118/118
f 119/119/119 120/120/120 118/118/118
f 123/123/123 122/122/122 121/121/121
f 123/123/123 122/122/122 121/121/121
f 126/126/126 125/125/125 124/124/124
f 126/126/126 125/125/125 124/124/124
f 127/127/127 126/126/126 124/124/124
f 127/127/127 126/126/126 124/124/124
f 127/127/127 124/124/124 128/128/128
f 127/127/127 124/124/124 128/128/128
f 128/128/128 124/124/124 129/129/129
f 128/128/128 124/124/124 129/129/129
f 130/130/130 127/127/127 128/128/128
f 130/130/130 127/127/127 128/128/128
f 130/130/130 128/128/128 131/131/131
f 130/130/130 128/128/128 131/131/131
f 128/128/128 132/132/132 131/131/131
f 128/128/128 132/132/132 131/131/131
f 128/128/128 129/129/129 132/132/132
f 128/128/128 129/129/129 132/132/132
f 129/129/129 133/133/133 132/132/132
f 129/129/129 133/133/133 132/132/132
f 124/124/124 134/134/134 129/129/129
f 124/124/124 134/134/134 129/129/129
f 124/124/124 135/135/135 134/134/134
f 124/124/124 135/135/135 134/134/134
f 138/138/138 137/137/137 136/136/136
f 138/138/138 137/137/137 136/136/136
f 139/139/139 138/138/138 136/136/136
f 139/139/139 138/138/138 136/136/136
f 139/139/139 136/136/136 140/140/140
f 139/139/139 136/136/136 140/140/140
f 139/139/139 141/141/141 138/138/138
f 139/139/139 141/141/141 138/138/138
f 141/141/141 142/142/142 138/138/138
f 141/141/141 142/142/142 138/138/138
f 143/143/143 139/139/139 140/140/140
f 143/143/143 139/139/139 140/140/140
f 143/143/143 144/144/144 139/139/139
f 143/143/143 144/144/144 139/139/139
f 144/144/144 141/141/141 139/139/139
f 144/144/144 141/141/141 139/139/139
f 144/144/144 145/145/145 141/141/141
f 144/144/144 145/145/145 141/141/141
f 141/141/141 145/145/145 142/142/142
f 141/141/141 145/145/145 142/142/142
f 145/145/145 146/146/146 142/142/142
f 145/145/145 146/146/146 142/142/142
f 149/149/149 148/148/148 147/147/147
f 149/149/149 148/148/148 147/147/147
f 150/150/150 149/149/149 147/147/147
f 150/150/150 149/149/149 147/147/147
f 150/150/150 151/151/151 149/149/149
f 150/150/150 151/151/151 149/149/149
f 151/151/151 152/152/152 149/149/149
f 151/151/151 152/152/152 149/149/149
f 151/151/151 153/153/153 152/152/152
f 151/151/151 153/153/153 152/152/152
f 153/153/153 154/154/154 152/152/152
f 153/153/153 154/154/154 152/152/152
f 157/157/157 156/156/156 155/155/155
f 157/157/157 156/156/156 155/155/155
f 158/158/158 157/157/157 155/155/155
f 158/158/158 157/157/157 155/155/155
f 161/161/161 160/160/160 159/159/159
f 161/161/161 160/160/160 159/159/159
f 159/159/159 162/162/162 161/161/161
f 159/159/159 162/162/162 161/161/161
f 159/159/159 163/163/163 162/162/162
f 159/159/159 163/163/163 162/162/162
f 163/163/163 164/164/164 162/162/162
f 163/163/163 164/164/164 162/162/162
f 163/163/163 165/165/165 164/164/164
f 163/163/163 165/165/165 164/164/164
f 165/165/165 166/166/166 164/164/164
f 165/165/165 166/166/166 164/164/164
f 169/169/169 168/168/168 167/167/167
f 169/169/169 168/168/168 167/167/167
f 170/170/170 169/169/169 167/167/167
f 170/170/170 169/169/169 167/167/167
f 173/173/173 172/172/172 171/171/171
f 173/173/173 172/172/172 171/171/171
f 174/174/174 173/173/173 171/171/171
f 174/174/174 173/173/173 171/171/171
f 177/177/177 176/176/176 175/175/175
f 177/177/177 176/176/176 175/175/175
f 180/180/180 179/179/179 178/178/178
f 180/180/180 179/179/179 178/178/178
f 181/181/181 180/180/180 178/178/178
f 181/181/181 180/180/180 178/178/178
