g ShortSword10
v -0.0911554 -0.014616675 0.72990656
v -0.10325496 -0.02881426 0.7502073
v -0.12633424 -0.03256578 0.75672364
v -0.14358218 -0.032565784 0.7353376
v -0.12633424 -0.04515489 0.76474667
v -0.14358218 -0.045154892 0.7353376
v -0.12633424 -0.057743996 0.75672364
v -0.14358218 -0.057744 0.7353376
v -0.10325496 -0.0614956 0.7502073
v -0.0911554 -0.0756932 0.72990656
v -0.09326413 -0.01461666 0.6925727
v -0.09326413 -0.07569318 0.6925727
v -0.065392084 -0.014616657 0.7073862
v -0.032849967 -0.032565765 0.7134605
v -0.032849967 -0.032565784 0.7353376
v -0.07454639 -0.02881426 0.7519651
v -0.029589303 -0.045154873 0.7134605
v -0.050097935 -0.03256578 0.75848144
v -0.032849967 -0.045154892 0.7353376
v -0.032849967 -0.05774398 0.7134605
v -0.050097935 -0.045154884 0.76650447
v -0.032849967 -0.057744 0.7353376
v -0.065392084 -0.07569318 0.7073862
v -0.050097935 -0.057743996 0.75848144
v -0.07454639 -0.0614956 0.7519651
v -0.2032529 -0.07131182 0.62577677
v -0.14358218 -0.05774398 0.7134605
v -0.12058623 -0.10860574 0.62577677
v -0.21161315 -0.08030813 0.5391356
v -0.21002772 -0.04515482 0.62577677
v -0.14684284 -0.045154873 0.7134605
v -0.17369562 -0.10663991 0.5353033
v -0.121770464 -0.12875295 0.5309407
v -0.121673584 -0.1296038 0.5226721
v -0.11779256 -0.11321704 0.35568357
v -0.2230757 -0.045154803 0.5391356
v -0.21161315 -0.010001475 0.5391356
v -0.2032529 -0.018997822 0.62577677
v -0.14358218 -0.032565765 0.7134605
v -0.12058623 0.018295905 0.62577677
v -0.17369565 0.016330028 0.5353033
v -0.121770464 0.03844308 0.5309407
v -0.121673584 0.039293934 0.5226721
v -0.11779256 0.022907129 0.35568354
v -0.18504506 -0.017096903 0.35568354
v -0.111427374 0.009308165 0.27413872
v -0.19650762 -0.045154847 0.35568354
v -0.15706274 -0.022702958 0.27413872
v -0.10506219 -0.004290799 0.1925939
v -0.18504506 -0.073212795 0.35568354
v -0.1290804 -0.028309012 0.1925939
v -0.1002245 -0.016025808 0.1323412
v -0.11734535 -0.033146657 0.1323412
v -0.16279401 -0.045154855 0.27413872
v -0.15706274 -0.06760675 0.27413872
v -0.111427374 -0.09961805 0.27413875
v -0.1290804 -0.04515486 0.1925939
v -0.11734535 -0.045154843 0.1323412
v -0.1290804 -0.062000703 0.19259392
v -0.10506219 -0.08601905 0.19259392
v -0.11734535 -0.05716303 0.13234122
v -0.1002245 -0.07428397 0.13234122
v -0.12633424 -0.04515489 0.76474667
v -0.12633424 -0.03256578 0.75672364
v -0.10325496 -0.02881426 0.7502073
v -0.10325496 -0.04515493 0.7582303
v -0.12633424 -0.057743996 0.75672364
v -0.10325496 -0.0614956 0.7502073
v -0.0911554 -0.0756932 0.72990656
v -0.0911554 -0.045154937 0.72990656
v -0.0911554 -0.014616675 0.72990656
v -0.07454639 -0.0614956 0.7519651
v -0.07454639 -0.04515493 0.7599881
v -0.07454639 -0.02881426 0.7519651
v -0.050097935 -0.03256578 0.75848144
v -0.050097935 -0.045154884 0.76650447
v -0.050097935 -0.057743996 0.75848144
v -0.09326413 -0.01461666 0.6925727
v -0.14358218 -0.032565784 0.7353376
v -0.14358218 -0.032565765 0.7134605
v -0.14358218 -0.045154892 0.7353376
v -0.14684284 -0.045154873 0.7134605
v -0.14358218 -0.057744 0.7353376
v -0.14358218 -0.05774398 0.7134605
v -0.09326413 -0.07569318 0.6925727
v -0.12058623 -0.10860574 0.62577677
v -0.09326413 -0.07569318 0.6925727
v -0.065392084 -0.07569318 0.7073862
v -0.04079355 -0.10860574 0.62493026
v -0.121770464 -0.12875295 0.5309407
v -0.03761389 -0.12873964 0.53093785
v 0.01404991 -0.106167465 0.535504
v -0.032849967 -0.05774398 0.7134605
v 0.035181038 -0.08030813 0.5391356
v 0.026820779 -0.07131182 0.62577677
v -0.029589303 -0.045154873 0.7134605
v 0.033595614 -0.04515482 0.62577677
v -0.032849967 -0.032565765 0.7134605
v 0.026820779 -0.018997822 0.62577677
v -0.065392084 -0.014616657 0.7073862
v 0.048508294 -0.045154803 0.5391356
v -0.04079355 0.018295905 0.62493026
v -0.09326413 -0.01461666 0.6925727
v -0.12058623 0.018295905 0.62577677
v -0.03761389 0.038429767 0.53093785
v -0.121770464 0.03844308 0.5309407
v 0.035181038 -0.010001475 0.5391356
v 0.01404994 0.015857605 0.535504
v -0.03761389 0.038429767 0.53093785
v -0.03787209 0.039293937 0.5226721
v 0.02189698 -0.013549188 0.44958553
v -0.043085806 0.031100532 0.43917784
v 0.035224237 -0.045154825 0.45047566
v 0.02189698 -0.07676046 0.44958553
v -0.03787209 -0.1296038 0.5226721
v 0.01404991 -0.106167465 0.535504
v -0.043085806 -0.12141042 0.43917787
v 0.008612923 -0.017096903 0.36003542
v 0.019839622 -0.014098639 0.4357165
v -0.048299517 0.022907129 0.35568354
v -0.048299517 -0.11321704 0.35568357
v 0.019998187 -0.07625336 0.43678543
v 0.008612923 -0.073212795 0.36003542
v -0.043085806 0.031100532 0.43917784
v -0.03787209 0.039293937 0.5226721
v -0.121673584 0.039293934 0.5226721
v -0.048299517 0.022907129 0.35568354
v -0.11779256 0.022907129 0.35568354
v -0.05983501 0.009308165 0.27413872
v -0.111427374 0.009308165 0.27413872
v -0.016449682 -0.022117982 0.28005874
v 0.0060711205 -0.017606132 0.34380066
v -0.005453836 -0.045154855 0.28151664
v 0.019659366 -0.04515485 0.3452498
v -0.0713705 -0.004290799 0.1925939
v -0.10506219 -0.004290799 0.1925939
v -0.07620813 -0.016025808 0.1323412
v -0.1002245 -0.016025808 0.1323412
v -0.059087135 -0.033146657 0.1323412
v -0.047352083 -0.028309012 0.1925939
v -0.020640481 -0.022957573 0.2681973
v -0.059087135 -0.045154843 0.1323412
v -0.040492672 -0.04515486 0.1925939
v -0.010416653 -0.045154855 0.26892185
v -0.059087135 -0.05716303 0.13234122
v -0.040492672 -0.04515486 0.1925939
v -0.047352083 -0.062000703 0.19259392
v -0.010416653 -0.045154855 0.26892185
v -0.07620813 -0.07428397 0.13234122
v -0.020200681 -0.06744024 0.2684573
v -0.0713705 -0.08601905 0.19259392
v -0.1002245 -0.07428397 0.13234122
v -0.10506219 -0.08601905 0.19259392
v -0.05983501 -0.09961805 0.27413875
v -0.111427374 -0.09961805 0.27413875
v -0.048299517 -0.11321704 0.35568357
v -0.11779256 -0.11321704 0.35568357
v -0.016073111 -0.06826717 0.27999008
v -0.043085806 -0.12141042 0.43917787
v -0.121673584 -0.1296038 0.5226721
v -0.03787209 -0.1296038 0.5226721
v 0.006950721 -0.072879784 0.34432065
v 0.019659366 -0.04515485 0.3452498
v -0.005453836 -0.045154855 0.28151664
v 0.0060711205 -0.017606132 0.34380066
v 0.008612923 -0.017096903 0.36003542
v -0.048299517 0.022907129 0.35568354
v 0.019659366 -0.04515485 0.3452498
v 0.02194018 -0.045154847 0.36181572
v -0.05983501 -0.09961805 0.27413875
v -0.016073111 -0.06826717 0.27999008
v -0.020200681 -0.06744024 0.2684573
v -0.005453836 -0.045154855 0.28151664
v -0.010416653 -0.045154855 0.26892185
v -0.06596174 -0.045154892 -0.06103982
v -0.059087135 -0.05716303 0.13234122
v -0.059087135 -0.045154843 0.1323412
v -0.059087135 -0.033146657 0.1323412
v -0.11734535 -0.05716303 0.13234122
v -0.1104708 -0.045154892 -0.06103982
v -0.11734535 -0.033146657 0.1323412
v -0.11734535 -0.045154843 0.1323412
v -0.1002245 -0.016025808 0.1323412
v -0.11734535 -0.033146657 0.1323412
v -0.1104708 -0.045154892 -0.06103982
v -0.09739054 -0.022900416 -0.061039824
v -0.07904212 -0.022900416 -0.061039824
v -0.07620813 -0.016025808 0.1323412
v -0.059087135 -0.033146657 0.1323412
v -0.06596174 -0.045154892 -0.06103982
v -0.09739054 -0.06740943 -0.061039817
v -0.11734535 -0.05716303 0.13234122
v -0.1002245 -0.07428397 0.13234122
v -0.07620813 -0.07428397 0.13234122
v -0.059087135 -0.05716303 0.13234122
v -0.07904212 -0.06740943 -0.061039817
v -0.03787209 0.039293937 0.5226721
v 0.01404994 0.015857605 0.535504
v -0.03761389 0.038429767 0.53093785
v -0.121770464 0.03844308 0.5309407
v -0.121673584 0.039293934 0.5226721
v -0.17369565 0.016330028 0.5353033
v -0.03761389 -0.12873964 0.53093785
v 0.01404991 -0.106167465 0.535504
v -0.03787209 -0.1296038 0.5226721
v -0.121673584 -0.1296038 0.5226721
v -0.121770464 -0.12875295 0.5309407
v -0.17369562 -0.10663991 0.5353033
v -0.010416653 -0.045154855 0.26892185
v -0.005453836 -0.045154855 0.28151664
v -0.016449682 -0.022117982 0.28005874
v -0.020640481 -0.022957573 0.2681973
v -0.05983501 0.009308165 0.27413872
v -0.048299517 -0.11321704 0.35568357
v 0.008612923 -0.073212795 0.36003542
v 0.006950721 -0.072879784 0.34432065
v 0.02194018 -0.045154847 0.36181572
v 0.019659366 -0.04515485 0.3452498
v 0.008612923 -0.073212795 0.36003542
v 0.019998187 -0.07625336 0.43678543
v 0.03273688 -0.04515483 0.43387464
v 0.02194018 -0.045154847 0.36181572
v 0.03273688 -0.04515483 0.43387464
v 0.019839622 -0.014098639 0.4357165
v 0.008612923 -0.017096903 0.36003542
v -0.043085806 -0.12141042 0.43917787
v 0.02189698 -0.07676046 0.44958553
v 0.019998187 -0.07625336 0.43678543
v 0.035224237 -0.045154825 0.45047566
v 0.03273688 -0.04515483 0.43387464
v 0.03273688 -0.04515483 0.43387464
v 0.035224237 -0.045154825 0.45047566
v 0.02189698 -0.013549188 0.44958553
v 0.019839622 -0.014098639 0.4357165
v -0.043085806 0.031100532 0.43917784
v -0.023167733 0.017864065 0.6009415
v -0.021728095 0.023802595 0.6026994
v -0.06827137 0.023353895 0.642331
v -0.06971105 0.01741538 0.6405731
v -0.06971105 0.01741538 0.6405731
v -0.06827137 0.023353895 0.642331
v -0.060192686 0.018602744 0.65176487
v -0.061632335 0.012664219 0.6500069
v -0.061632335 0.012664219 0.6500069
v -0.060192686 0.018602744 0.65176487
v -0.0136493705 0.01905143 0.61213326
v -0.015089009 0.013112904 0.6103752
v -0.015089009 0.013112904 0.6103752
v -0.0136493705 0.01905143 0.61213326
v -0.021728095 0.023802595 0.6026994
v -0.023167733 0.017864065 0.6009415
v -0.06971105 0.01741538 0.6405731
v -0.061632335 0.012664219 0.6500069
v -0.015089009 0.013112904 0.6103752
v -0.023167733 0.017864065 0.6009415
v -0.060192686 0.018602744 0.65176487
v -0.06827137 0.023353895 0.642331
v -0.021728095 0.023802595 0.6026994
v -0.0136493705 0.01905143 0.61213326
v -0.018768415 0.004392143 0.64284784
v -0.017328775 0.008741763 0.6446058
v -0.054467455 0.03058335 0.6012375
v -0.0559071 0.026233729 0.59947956
v -0.0559071 0.026233729 0.59947956
v -0.054467455 0.03058335 0.6012375
v -0.064591914 0.030485736 0.6098585
v -0.06603156 0.026136123 0.6081005
v -0.06603156 0.026136123 0.6081005
v -0.064591914 0.030485736 0.6098585
v -0.02745328 0.008644171 0.6532268
v -0.028892918 0.004294552 0.6514689
v -0.028892918 0.004294552 0.6514689
v -0.02745328 0.008644171 0.6532268
v -0.017328775 0.008741763 0.6446058
v -0.018768415 0.004392143 0.64284784
v -0.0559071 0.026233729 0.59947956
v -0.06603156 0.026136123 0.6081005
v -0.028892918 0.004294552 0.6514689
v -0.018768415 0.004392143 0.64284784
v -0.064591914 0.030485736 0.6098585
v -0.054467455 0.03058335 0.6012375
v -0.017328775 0.008741763 0.6446058
v -0.02745328 0.008644171 0.6532268
v -0.072185315 -0.10641507 0.6377538
v -0.071335785 -0.11220429 0.6402423
v -0.018929288 -0.11782585 0.60927296
v -0.019778788 -0.112036675 0.6067844
v -0.019778788 -0.112036675 0.6067844
v -0.018929288 -0.11782585 0.60927296
v -0.012317011 -0.11246415 0.61948895
v -0.01316659 -0.10667496 0.61700046
v -0.01316659 -0.10667496 0.61700046
v -0.012317011 -0.11246415 0.61948895
v -0.06472353 -0.10684259 0.6504583
v -0.06557317 -0.10105338 0.6479698
v -0.06557317 -0.10105338 0.6479698
v -0.06472353 -0.10684259 0.6504583
v -0.071335785 -0.11220429 0.6402423
v -0.072185315 -0.10641507 0.6377538
v -0.019778788 -0.112036675 0.6067844
v -0.01316659 -0.10667496 0.61700046
v -0.06557317 -0.10105338 0.6479698
v -0.072185315 -0.10641507 0.6377538
v -0.012317011 -0.11246415 0.61948895
v -0.018929288 -0.11782585 0.60927296
v -0.071335785 -0.11220429 0.6402423
v -0.06472353 -0.10684259 0.6504583
v -0.03317736 -0.09360945 0.65422755
v -0.032327775 -0.099398665 0.656716
v -0.062724926 -0.12404694 0.60975194
v -0.06357445 -0.11825773 0.60726345
v -0.06357445 -0.11825773 0.60726345
v -0.062724926 -0.12404694 0.60975194
v -0.051324993 -0.12526977 0.6030153
v -0.05217463 -0.11948057 0.6005268
v -0.05217463 -0.11948057 0.6005268
v -0.051324993 -0.12526977 0.6030153
v -0.02092789 -0.100621514 0.6499793
v -0.021777412 -0.09483231 0.64749086
v -0.021777412 -0.09483231 0.64749086
v -0.02092789 -0.100621514 0.6499793
v -0.032327775 -0.099398665 0.656716
v -0.03317736 -0.09360945 0.65422755
v -0.06357445 -0.11825773 0.60726345
v -0.05217463 -0.11948057 0.6005268
v -0.021777412 -0.09483231 0.64749086
v -0.03317736 -0.09360945 0.65422755
v -0.051324993 -0.12526977 0.6030153
v -0.062724926 -0.12404694 0.60975194
v -0.032327775 -0.099398665 0.656716
v -0.02092789 -0.100621514 0.6499793
v -0.1539557 -0.0451549 -0.114530355
v -0.17373228 -0.045154907 -0.16392717
v -0.14788793 -0.045154963 -0.22800115
v -0.119050644 -0.06740945 -0.114530355
v -0.09739054 -0.06740943 -0.061039817
v -0.08821625 -0.05990652 -0.13897003
v -0.1104708 -0.045154892 -0.06103982
v -0.07904212 -0.06740943 -0.061039817
v -0.119050644 -0.022900425 -0.114530355
v -0.09739054 -0.022900416 -0.061039824
v -0.08821625 -0.030403366 -0.13897005
v -0.07904212 -0.022900416 -0.061039824
v -0.05738186 -0.06740945 -0.114530355
v -0.06596174 -0.045154892 -0.06103982
v -0.02854459 -0.045154963 -0.22800115
v -0.022476427 -0.0451549 -0.114530355
v -0.05738186 -0.022900425 -0.114530355
v -0.0026997775 -0.045154907 -0.16392717
v 0.008142129 -0.037752103 0.38217366
v 0.07135342 -0.036951784 0.4636227
v 0.0010467619 -0.036951765 0.56753784
v 0.008142129 -0.04874165 0.3822211
v 0.0010467619 -0.047941312 0.5675853
v 0.07135342 -0.04794133 0.46367013
v 0.09566792 -0.037752103 0.38217366
v 0.09566792 -0.04874165 0.3822211
v -0.06926212 0.019240046 0.51498765
v -0.11738899 0.07299481 0.42207825
v -0.06792726 0.026735488 0.40854943
v -0.077108204 0.011567403 0.51440424
v -0.07577334 0.019062843 0.40796608
v -0.12523508 0.06532218 0.42149487
v -0.1124375 0.054288883 0.4727964
v -0.12028359 0.046616238 0.47221312
v -0.06926212 -0.111273326 0.51498765
v -0.06792726 -0.118768804 0.40854946
v -0.11738899 -0.16502811 0.42207828
v -0.077108204 -0.10360069 0.51440424
v -0.07577334 -0.111096166 0.4079661
v -0.12523508 -0.15735547 0.4214949
v -0.1124375 -0.14632218 0.47279644
v -0.12028359 -0.13864954 0.47221315
v -0.21748714 -0.03438354 0.5021769
v -0.24532935 -0.030319314 0.55369854
v -0.2787706 -0.043079082 0.51181597
v -0.21618415 -0.04525874 0.50307304
v -0.2774676 -0.05395428 0.51271206
v -0.24402636 -0.041194517 0.55459464
v -0.1990053 -0.024564417 0.5648836
v -0.19770232 -0.035439614 0.5657797
vt 0.22210848 0.47293136
vt 0.22210848 0.47293136
vt 0.22210848 0.47293136
vt 0.22210848 0.47293136
vt 0.22210848 0.47293136
vt 0.22210848 0.47293136
vt 0.22210848 0.47293136
vt 0.22210848 0.47293136
vt 0.22210851 0.47293136
vt 0.22210851 0.47293136
vt 0.22210848 0.47293136
vt 0.22210851 0.47293136
vt 0.22210848 0.47293136
vt 0.22210848 0.47293136
vt 0.22210848 0.47293136
vt 0.22210848 0.47293136
vt 0.22210848 0.47293136
vt 0.22210848 0.47293136
vt 0.22210848 0.47293136
vt 0.22210848 0.47293136
vt 0.22210848 0.47293136
vt 0.22210848 0.47293136
vt 0.22210848 0.47293136
vt 0.22210848 0.47293136
vt 0.22210848 0.47293136
vt 0.22210848 0.47293136
vt 0.22210848 0.47293136
vt 0.22210851 0.47293136
vt 0.22210848 0.47293136
vt 0.22210848 0.47293136
vt 0.22210848 0.47293136
vt 0.22210851 0.47293136
vt 0.22210851 0.47293136
vt 0.22210851 0.47293136
vt 0.22210851 0.47293136
vt 0.22210848 0.47293136
vt 0.22210848 0.47293136
vt 0.22210848 0.47293136
vt 0.22210848 0.47293136
vt 0.22210848 0.47293136
vt 0.22210848 0.47293136
vt 0.22210848 0.47293136
vt 0.22210848 0.47293136
vt 0.22210848 0.47293136
vt 0.22210848 0.47293136
vt 0.22210848 0.47293136
vt 0.22210848 0.47293136
vt 0.22210848 0.47293136
vt 0.22210848 0.47293136
vt 0.22210848 0.47293136
vt 0.22210848 0.47293136
vt 0.22210848 0.47293136
vt 0.22210848 0.47293136
vt 0.22210848 0.47293136
vt 0.22210848 0.47293136
vt 0.22210851 0.47293136
vt 0.22210848 0.47293136
vt 0.22210848 0.47293136
vt 0.22210848 0.47293136
vt 0.22210851 0.47293136
vt 0.22210848 0.47293136
vt 0.22210851 0.47293136
vt 0.26578736 0.44832352
vt 0.26578736 0.44832352
vt 0.26578736 0.44832352
vt 0.26578736 0.44832352
vt 0.26578736 0.44832352
vt 0.26578736 0.44832352
vt 0.26578736 0.44832352
vt 0.26578736 0.44832352
vt 0.26578736 0.44832352
vt 0.26578736 0.44832352
vt 0.26578736 0.44832352
vt 0.26578736 0.44832352
vt 0.26578736 0.44832352
vt 0.26578736 0.44832352
vt 0.26578736 0.44832352
vt 0.24923691 0.46207997
vt 0.24923691 0.46207997
vt 0.24923691 0.46207997
vt 0.24923691 0.46207997
vt 0.24923691 0.46207997
vt 0.24923691 0.46207997
vt 0.24923691 0.46207997
vt 0.24923694 0.46207997
vt 0.24573126 0.3941168
vt 0.24629782 0.3877307
vt 0.24900714 0.3871027
vt 0.25046712 0.3941168
vt 0.24566096 0.39886424
vt 0.25065583 0.39886114
vt 0.25105906 0.39925906
vt 0.2509386 0.38674214
vt 0.25594527 0.3986778
vt 0.25544906 0.39353547
vt 0.2509386 0.38674214
vt 0.25544906 0.39353547
vt 0.2509386 0.38674214
vt 0.25544906 0.39353547
vt 0.24900714 0.3871027
vt 0.25594527 0.3986778
vt 0.25046712 0.3941168
vt 0.24629782 0.3877307
vt 0.24573126 0.3941168
vt 0.25065583 0.39886108
vt 0.24566096 0.39886424
vt 0.25594527 0.3986778
vt 0.25105906 0.39925912
vt 0.25065583 0.39886114
vt 0.2506405 0.39978096
vt 0.25515682 0.4041219
vt 0.25033107 0.40496418
vt 0.25515682 0.4041219
vt 0.25515682 0.4041219
vt 0.2506405 0.39978096
vt 0.25105906 0.39925912
vt 0.25033107 0.40496418
vt 0.25436836 0.40956607
vt 0.25503471 0.40496507
vt 0.25002164 0.4101474
vt 0.25002164 0.4101474
vt 0.2550441 0.4049001
vt 0.25436836 0.40956607
vt 0.25033107 0.40496424
vt 0.2506405 0.39978102
vt 0.24566671 0.39978102
vt 0.25002164 0.4101474
vt 0.24589707 0.4101474
vt 0.24933697 0.41498724
vt 0.24627486 0.41498724
vt 0.25244695 0.41416124
vt 0.25417352 0.41003212
vt 0.2524858 0.41406843
vt 0.25421163 0.409941
vt 0.24865231 0.41982713
vt 0.24665263 0.41982713
vt 0.2483652 0.42340323
vt 0.24693975 0.42340323
vt 0.24938136 0.42340323
vt 0.25007784 0.41982713
vt 0.25212568 0.41492966
vt 0.24938136 0.42340323
vt 0.25007784 0.41982713
vt 0.25214475 0.41488406
vt 0.24938136 0.42340323
vt 0.25007784 0.41982713
vt 0.25007784 0.41982713
vt 0.25214475 0.41488406
vt 0.2483652 0.42340323
vt 0.25215942 0.41484895
vt 0.24865231 0.41982713
vt 0.24693975 0.42340323
vt 0.24665263 0.41982713
vt 0.24933697 0.41498724
vt 0.24627486 0.41498724
vt 0.25002164 0.4101474
vt 0.24589707 0.4101474
vt 0.25247586 0.4140922
vt 0.25033107 0.40496424
vt 0.24566671 0.39978102
vt 0.2506405 0.39978102
vt 0.25424096 0.40987083
vt 0.25421163 0.409941
vt 0.2524858 0.41406843
vt 0.38215643 0.4664742
vt 0.3827319 0.46279857
vt 0.36984667 0.4637839
vt 0.38523287 0.46614614
vt 0.38574925 0.46239552
vt 0.37291378 0.46520957
vt 0.38282168 0.46388474
vt 0.3818872 0.46649584
vt 0.38522592 0.46353915
vt 0.38410234 0.46639064
vt 0.29741496 0.5373378
vt 0.29741496 0.5373378
vt 0.29741496 0.5373378
vt 0.29741496 0.5373378
vt 0.2927644 0.5357876
vt 0.2927644 0.5357876
vt 0.2927644 0.5357876
vt 0.2927644 0.5357876
vt 0.28904378 0.5342374
vt 0.28904378 0.5342374
vt 0.28904378 0.5342374
vt 0.28904378 0.5342374
vt 0.28904378 0.5342374
vt 0.28904378 0.5342374
vt 0.28904378 0.5342374
vt 0.28904378 0.5342374
vt 0.2890438 0.5342374
vt 0.28904378 0.5342374
vt 0.2890438 0.5342374
vt 0.28904378 0.5342374
vt 0.28904378 0.5342374
vt 0.28904378 0.5342374
vt 0.2840116 0.39927176
vt 0.2840116 0.39927176
vt 0.2840116 0.39927176
vt 0.2840116 0.39927176
vt 0.2840116 0.39927176
vt 0.2840116 0.39927176
vt 0.2840116 0.39927176
vt 0.2840116 0.39927176
vt 0.2840116 0.39927176
vt 0.2840116 0.39927176
vt 0.2840116 0.39927176
vt 0.2840116 0.39927176
vt 0.38410234 0.46639064
vt 0.38522592 0.46353915
vt 0.3827364 0.46386924
vt 0.38178763 0.46655473
vt 0.37291378 0.46520957
vt 0.36984667 0.4637839
vt 0.3827319 0.46279857
vt 0.3823556 0.4663565
vt 0.38574925 0.46239552
vt 0.38523287 0.46614614
vt 0.25436836 0.40956607
vt 0.2550441 0.4049001
vt 0.25500917 0.40514126
vt 0.25436836 0.40956607
vt 0.25500917 0.40514126
vt 0.25503471 0.40496507
vt 0.25436836 0.40956607
vt 0.35556924 0.47160348
vt 0.38663778 0.4666275
vt 0.38573003 0.4727473
vt 0.39300966 0.46620193
vt 0.3918204 0.47413895
vt 0.3918204 0.47413895
vt 0.39300966 0.46620193
vt 0.38663778 0.4666275
vt 0.38565418 0.47325835
vt 0.35556924 0.47160348
vt 0.097183436 0.95961964
vt 0.097183436 0.95961964
vt 0.097183436 0.95961964
vt 0.097183436 0.95961964
vt 0.097183436 0.95961964
vt 0.097183436 0.95961964
vt 0.097183436 0.95961964
vt 0.097183436 0.95961964
vt 0.097183436 0.95961964
vt 0.097183436 0.95961964
vt 0.097183436 0.95961964
vt 0.097183436 0.95961964
vt 0.097183436 0.95961964
vt 0.097183436 0.95961964
vt 0.097183436 0.95961964
vt 0.097183436 0.95961964
vt 0.097183436 0.95961964
vt 0.097183436 0.95961964
vt 0.097183436 0.95961964
vt 0.097183436 0.95961964
vt 0.097183436 0.95961964
vt 0.097183436 0.95961964
vt 0.097183436 0.95961964
vt 0.097183436 0.95961964
vt 0.097183436 0.95961964
vt 0.097183436 0.95961964
vt 0.097183436 0.95961964
vt 0.097183436 0.95961964
vt 0.097183436 0.95961964
vt 0.097183436 0.95961964
vt 0.097183436 0.95961964
vt 0.097183436 0.95961964
vt 0.097183436 0.95961964
vt 0.097183436 0.95961964
vt 0.097183436 0.95961964
vt 0.097183436 0.95961964
vt 0.097183436 0.95961964
vt 0.097183436 0.95961964
vt 0.097183436 0.95961964
vt 0.097183436 0.95961964
vt 0.097183436 0.95961964
vt 0.097183436 0.95961964
vt 0.097183436 0.95961964
vt 0.097183436 0.95961964
vt 0.097183436 0.95961964
vt 0.097183436 0.95961964
vt 0.097183436 0.95961964
vt 0.097183436 0.95961964
vt 0.097183436 0.95961964
vt 0.097183436 0.95961964
vt 0.097183436 0.95961964
vt 0.097183436 0.95961964
vt 0.097183436 0.95961964
vt 0.097183436 0.95961964
vt 0.097183436 0.95961964
vt 0.097183436 0.95961964
vt 0.097183436 0.95961964
vt 0.097183436 0.95961964
vt 0.097183436 0.95961964
vt 0.097183436 0.95961964
vt 0.097183436 0.95961964
vt 0.097183436 0.95961964
vt 0.097183436 0.95961964
vt 0.097183436 0.95961964
vt 0.097183436 0.95961964
vt 0.097183436 0.95961964
vt 0.097183436 0.95961964
vt 0.097183436 0.95961964
vt 0.097183436 0.95961964
vt 0.097183436 0.95961964
vt 0.097183436 0.95961964
vt 0.097183436 0.95961964
vt 0.097183436 0.95961964
vt 0.097183436 0.95961964
vt 0.097183436 0.95961964
vt 0.097183436 0.95961964
vt 0.097183436 0.95961964
vt 0.097183436 0.95961964
vt 0.097183436 0.95961964
vt 0.097183436 0.95961964
vt 0.097183436 0.95961964
vt 0.097183436 0.95961964
vt 0.097183436 0.95961964
vt 0.097183436 0.95961964
vt 0.097183436 0.95961964
vt 0.097183436 0.95961964
vt 0.097183436 0.95961964
vt 0.097183436 0.95961964
vt 0.097183436 0.95961964
vt 0.097183436 0.95961964
vt 0.097183436 0.95961964
vt 0.097183436 0.95961964
vt 0.097183436 0.95961964
vt 0.097183436 0.95961964
vt 0.097183436 0.95961964
vt 0.097183436 0.95961964
vt 0.22210848 0.47293136
vt 0.22210848 0.47293136
vt 0.22210848 0.47293136
vt 0.22210851 0.47293136
vt 0.22210851 0.47293136
vt 0.22210851 0.47293136
vt 0.22210848 0.47293136
vt 0.22210848 0.47293136
vt 0.22210848 0.47293136
vt 0.22210848 0.47293136
vt 0.22210848 0.47293136
vt 0.22210848 0.47293136
vt 0.22210848 0.47293136
vt 0.22210848 0.47293136
vt 0.22210848 0.47293136
vt 0.22210848 0.47293136
vt 0.22210848 0.47293136
vt 0.22210848 0.47293136
vt 0.34569705 0.48249045
vt 0.34727395 0.4716021
vt 0.34727395 0.4716021
vt 0.34569705 0.48249045
vt 0.34727395 0.4716021
vt 0.34727395 0.4716021
vt 0.34569705 0.48249045
vt 0.34569705 0.48249045
vt 0.34569705 0.48249045
vt 0.34727395 0.4716021
vt 0.34727395 0.4716021
vt 0.34569705 0.48249045
vt 0.34727395 0.4716021
vt 0.34727395 0.4716021
vt 0.34569705 0.48249045
vt 0.34569705 0.48249045
vt 0.34569705 0.48249045
vt 0.34727395 0.4716021
vt 0.34727395 0.4716021
vt 0.34569705 0.48249045
vt 0.34727395 0.4716021
vt 0.34727395 0.4716021
vt 0.34569705 0.48249045
vt 0.34569705 0.48249045
vt 0.34569705 0.48249045
vt 0.34727395 0.4716021
vt 0.34727395 0.4716021
vt 0.34569705 0.48249045
vt 0.34727395 0.4716021
vt 0.34727395 0.4716021
vt 0.34569705 0.48249045
vt 0.34569705 0.48249045
vn -0.047824178 0.93808025 0.34310108
vn 0.41833323 0.6320016 0.6523582
vn -0.34584954 0.62953043 0.6957582
vn -0.7501523 0.59670377 0.28498462
vn -0.3115362 0 0.95023423
vn -0.94458735 0 0.3282602
vn -0.34584954 -0.62953043 0.6957582
vn -0.7501523 -0.59670377 0.28498462
vn 0.41833323 -0.6320016 0.6523582
vn -0.047824178 -0.93808025 0.34310108
vn -0.1669987 0.94705844 0.27421114
vn -0.1669987 -0.94705844 0.27421114
vn 0.21732739 0.9370928 0.27317756
vn 0.7025562 0.61255455 0.36220402
vn 0.7442827 0.5849396 0.32231802
vn -0.3624764 0.6541788 0.6638229
vn 0.93465686 0 0.35555106
vn 0.36244953 0.6390782 0.67838734
vn 0.94944054 0 0.3139471
vn 0.7025562 -0.61255455 0.36220402
vn 0.32768598 0 0.94478667
vn 0.7442827 -0.5849396 0.32231802
vn 0.21732739 -0.9370928 0.27317756
vn 0.36244953 -0.6390782 0.67838734
vn -0.3624764 -0.6541788 0.6638229
vn -0.7208361 -0.5938452 0.35741192
vn -0.68387526 -0.6648312 0.30052304
vn -0.21005982 -0.92727846 0.30988628
vn -0.76660556 -0.64169157 0.023408037
vn -0.93282074 0 0.3603407
vn -0.93465686 0 0.35555106
vn -0.46819314 -0.8826422 0.04168906
vn -0.20670733 -0.96682143 0.150094
vn -0.23118305 -0.97283053 -0.01245184
vn -0.26933074 -0.95109606 -0.15125248
vn -0.9999876 0 -0.0049746074
vn -0.76660556 0.64169157 0.023408037
vn -0.7208361 0.5938452 0.35741192
vn -0.68387526 0.6648312 0.30052304
vn -0.21003065 0.9272844 0.30988827
vn -0.46819314 0.8826422 0.04168906
vn -0.20670733 0.96682143 0.150094
vn -0.23118305 0.97283053 -0.01245184
vn -0.26933074 0.95109606 -0.15125248
vn -0.7623081 0.61023104 -0.21564855
vn -0.29805297 0.93377316 -0.19807126
vn -0.9677358 0 -0.25196716
vn -0.78476256 0.5420154 -0.300611
vn -0.34690896 0.91538554 -0.20426336
vn -0.7623081 -0.61023104 -0.21564855
vn -0.86060476 0.43825254 -0.25941133
vn -0.40813455 0.9034933 -0.13086675
vn -0.9265978 0.3536887 -0.12775399
vn -0.9326675 0 -0.3607372
vn -0.78476256 -0.5420154 -0.300611
vn -0.29805297 -0.93377316 -0.19807126
vn -0.96138906 0 -0.2751927
vn -0.99351704 0 -0.11368345
vn -0.86060476 -0.43825254 -0.25941133
vn -0.34690896 -0.91538554 -0.20426336
vn -0.9265978 -0.3536887 -0.12775399
vn -0.40813455 -0.9034933 -0.13086675
vn -0.3115362 0 0.95023423
vn -0.34584954 0.62953043 0.6957582
vn 0.41833323 0.6320016 0.6523582
vn 0.56648993 0 0.8240686
vn -0.34584954 -0.62953043 0.6957582
vn 0.41833323 -0.6320016 0.6523582
vn -0.047824178 -0.93808025 0.34310108
vn 0.05438483 0 0.9985201
vn -0.047824178 0.93808025 0.34310108
vn -0.3624764 -0.6541788 0.6638229
vn -0.5260593 0 0.8504479
vn -0.3624764 0.6541788 0.6638229
vn 0.36244953 0.6390782 0.67838734
vn 0.32768598 0 0.94478667
vn 0.36244953 -0.6390782 0.67838734
vn -0.1669987 0.94705844 0.27421114
vn -0.7501523 0.59670377 0.28498462
vn -0.68387526 0.6648312 0.30052304
vn -0.94458735 0 0.3282602
vn -0.93465686 0 0.35555106
vn -0.7501523 -0.59670377 0.28498462
vn -0.68387526 -0.6648312 0.30052304
vn -0.1669987 -0.94705844 0.27421114
vn -0.21005982 -0.92727846 0.30988628
vn -0.1669987 -0.94705844 0.27421114
vn 0.21732739 -0.9370928 0.27317756
vn 0.23969826 -0.915944 0.3218561
vn -0.20670733 -0.96682143 0.150094
vn 0.2296539 -0.9607315 0.15573739
vn 0.54442734 -0.8383552 0.0275586
vn 0.7025562 -0.61255455 0.36220402
vn 0.7837332 -0.62073016 0.021363445
vn 0.7428129 -0.5635111 0.3615029
vn 0.93465686 0 0.35555106
vn 0.9302841 0 0.36683995
vn 0.7025562 0.61255455 0.36220402
vn 0.7428129 0.5635111 0.3615029
vn 0.21732739 0.9370928 0.27317756
vn 0.9999989 0 -0.0014649315
vn 0.23969826 0.915944 0.3218561
vn -0.1669987 0.94705844 0.27421114
vn -0.21003065 0.9272844 0.30988827
vn 0.2296539 0.9607315 0.15573739
vn -0.20670733 0.96682143 0.150094
vn 0.7837332 0.62073016 0.021363445
vn 0.54442734 0.8383552 0.0275586
vn 0.2296539 0.9607315 0.15573739
vn 0.26145768 0.9647108 -0.031190585
vn 0.77595156 0.61227685 -0.15171112
vn 0.3029339 0.94469243 -0.12564768
vn 0.9879326 0 -0.15488423
vn 0.77598536 -0.61224896 -0.15165074
vn 0.26145768 -0.9647108 -0.031190585
vn 0.54442734 -0.8383552 0.0275586
vn 0.30296165 -0.94468373 -0.12564653
vn 0.7638611 0.63159156 -0.1326968
vn 0.77002925 0.6235983 -0.13483371
vn 0.30543742 0.93932384 -0.15613689
vn 0.3040339 -0.9399659 -0.15500785
vn 0.7701283 -0.6234822 -0.1348045
vn 0.76573116 -0.63233095 -0.117530115
vn 0.3029339 0.94469243 -0.12564768
vn 0.26145768 0.9647108 -0.031190585
vn -0.23118305 0.97283053 -0.01245184
vn 0.30543742 0.93932384 -0.15613689
vn -0.26933074 0.95109606 -0.15125248
vn 0.31660262 0.92429405 -0.21317422
vn -0.29805297 0.93377316 -0.19807126
vn 0.739175 0.6040055 -0.2979895
vn 0.7534179 0.62081367 -0.21668357
vn 0.9313729 0.008514746 -0.36396727
vn 0.9698962 0.00692783 -0.24342011
vn 0.34792328 0.9134818 -0.21095139
vn -0.34690896 0.91538554 -0.20426336
vn 0.40813455 0.9034933 -0.13086675
vn -0.40813455 0.9034933 -0.13086675
vn 0.90156454 0.40910843 -0.14075404
vn 0.8062647 0.5301546 -0.26243737
vn 0.7560172 0.5804718 -0.30247402
vn 0.9896371 0 -0.14359152
vn 0.95020205 0.0021057953 -0.3116272
vn 0.9315246 0.005859605 -0.36363122
vn 0.90157574 -0.409083 -0.14075579
vn 0.95020205 0.0021057953 -0.3116272
vn 0.8064413 -0.52929574 -0.2636255
vn 0.9315246 0.005859605 -0.36363122
vn 0.40813455 -0.9034933 -0.13086675
vn 0.757077 -0.5775283 -0.30544332
vn 0.34706455 -0.91374546 -0.21122353
vn -0.40813455 -0.9034933 -0.13086675
vn -0.34690896 -0.91538554 -0.20426336
vn 0.3141932 -0.9250311 -0.2135415
vn -0.29805297 -0.93377316 -0.19807126
vn 0.3040339 -0.9399659 -0.15500785
vn -0.26933074 -0.95109606 -0.15125248
vn 0.74143595 -0.5995517 -0.3013476
vn 0.30296165 -0.94468373 -0.12564653
vn -0.23118305 -0.97283053 -0.01245184
vn 0.26145768 -0.9647108 -0.031190585
vn 0.760532 -0.61675733 -0.20298149
vn 0.9698962 0.00692783 -0.24342011
vn 0.9313729 0.008514746 -0.36396727
vn 0.7534179 0.62081367 -0.21668357
vn 0.7638611 0.63159156 -0.1326968
vn 0.30543742 0.93932384 -0.15613689
vn 0.9698962 0.00692783 -0.24342011
vn 0.98893166 0.0024109862 -0.14835195
vn 0.3141932 -0.9250311 -0.2135415
vn 0.74143595 -0.5995517 -0.3013476
vn 0.757077 -0.5775283 -0.30544332
vn 0.9313729 0.008514746 -0.36396727
vn 0.9315246 0.005859605 -0.36363122
vn 0.9673542 0 0.25342807
vn 0.90157574 -0.409083 -0.14075579
vn 0.9896371 0 -0.14359152
vn 0.90156454 0.40910843 -0.14075404
vn -0.9265978 -0.3536887 -0.12775399
vn -0.9673542 0 0.25342807
vn -0.9265978 0.3536887 -0.12775399
vn -0.99351704 0 -0.11368345
vn -0.40813455 0.9034933 -0.13086675
vn -0.9265978 0.3536887 -0.12775399
vn -0.9673542 0 0.25342807
vn -0.3507875 0.9357182 0.03714185
vn 0.3507875 0.9357182 0.03714185
vn 0.40813455 0.9034933 -0.13086675
vn 0.90156454 0.40910843 -0.14075404
vn 0.9673542 0 0.25342807
vn -0.3507875 -0.9357182 0.03714185
vn -0.9265978 -0.3536887 -0.12775399
vn -0.40813455 -0.9034933 -0.13086675
vn 0.40813455 -0.9034933 -0.13086675
vn 0.90157574 -0.409083 -0.14075579
vn 0.3507875 -0.9357182 0.03714185
vn 0.26145768 0.9647108 -0.031190585
vn 0.54442734 0.8383552 0.0275586
vn 0.2296539 0.9607315 0.15573739
vn -0.20670733 0.96682143 0.150094
vn -0.23118305 0.97283053 -0.01245184
vn -0.46819314 0.8826422 0.04168906
vn 0.2296539 -0.9607315 0.15573739
vn 0.54442734 -0.8383552 0.0275586
vn 0.26145768 -0.9647108 -0.031190585
vn -0.23118305 -0.97283053 -0.01245184
vn -0.20670733 -0.96682143 0.150094
vn -0.46819314 -0.8826422 0.04168906
vn 0.9315246 0.005859605 -0.36363122
vn 0.9313729 0.008514746 -0.36396727
vn 0.739175 0.6040055 -0.2979895
vn 0.7560172 0.5804718 -0.30247402
vn 0.31660262 0.92429405 -0.21317422
vn 0.3040339 -0.9399659 -0.15500785
vn 0.76573116 -0.63233095 -0.117530115
vn 0.760532 -0.61675733 -0.20298149
vn 0.98893166 0.0024109862 -0.14835195
vn 0.9698962 0.00692783 -0.24342011
vn 0.76573116 -0.63233095 -0.117530115
vn 0.7701283 -0.6234822 -0.1348045
vn 0.9878462 -3.0519222E-05 -0.1554344
vn 0.98893166 0.0024109862 -0.14835195
vn 0.9878462 -3.0519222E-05 -0.1554344
vn 0.77002925 0.6235983 -0.13483371
vn 0.7638611 0.63159156 -0.1326968
vn 0.30296165 -0.94468373 -0.12564653
vn 0.77598536 -0.61224896 -0.15165074
vn 0.7701283 -0.6234822 -0.1348045
vn 0.9879326 0 -0.15488423
vn 0.9878462 -3.0519222E-05 -0.1554344
vn 0.9878462 -3.0519222E-05 -0.1554344
vn 0.9879326 0 -0.15488423
vn 0.77595156 0.61227685 -0.15171112
vn 0.77002925 0.6235983 -0.13483371
vn 0.3029339 0.94469243 -0.12564768
vn -0.60751486 0.3572806 -0.7094197
vn -0.60751486 0.3572806 -0.7094197
vn -0.60751486 0.3572806 -0.7094197
vn -0.60751486 0.3572806 -0.7094197
vn -0.76135266 -0.007336426 0.6482965
vn -0.76135266 -0.007336426 0.6482965
vn -0.76135266 -0.007336426 0.6482965
vn -0.76135266 -0.007336426 0.6482965
vn 0.60751325 -0.35728794 0.7094174
vn 0.60751325 -0.35728794 0.7094174
vn 0.60751325 -0.35728794 0.7094174
vn 0.60751325 -0.35728794 0.7094174
vn 0.76135314 0.0073439763 -0.6482957
vn 0.76135314 0.0073439763 -0.6482957
vn 0.76135314 0.0073439763 -0.6482957
vn 0.76135314 0.0073439763 -0.6482957
vn -0.22641921 -0.9339664 -0.27647972
vn -0.22641921 -0.9339664 -0.27647972
vn -0.22641921 -0.9339664 -0.27647972
vn -0.22641921 -0.9339664 -0.27647972
vn 0.22641787 0.9339671 0.2764786
vn 0.22641787 0.9339671 0.2764786
vn 0.22641787 0.9339671 0.2764786
vn 0.22641787 0.9339671 0.2764786
vn 0.7618934 0.009574338 -0.64763165
vn 0.7618934 0.009574338 -0.64763165
vn 0.7618934 0.009574338 -0.64763165
vn 0.7618934 0.009574338 -0.64763165
vn -0.5772437 0.46292922 -0.6726709
vn -0.5772437 0.46292922 -0.6726709
vn -0.5772437 0.46292922 -0.6726709
vn -0.5772437 0.46292922 -0.6726709
vn -0.76189667 -0.009577817 0.64762783
vn -0.76189667 -0.009577817 0.64762783
vn -0.76189667 -0.009577817 0.64762783
vn -0.76189667 -0.009577817 0.64762783
vn 0.57724154 -0.462926 0.672675
vn 0.57724154 -0.462926 0.672675
vn 0.57724154 -0.462926 0.672675
vn 0.57724154 -0.462926 0.672675
vn -0.22641905 -0.93396664 -0.2764791
vn -0.22641905 -0.93396664 -0.2764791
vn -0.22641905 -0.93396664 -0.2764791
vn -0.22641905 -0.93396664 -0.2764791
vn 0.22642097 0.93396634 0.27647886
vn 0.22642097 0.93396634 0.27647886
vn 0.22642097 0.93396634 0.27647886
vn 0.22642097 0.93396634 0.27647886
vn -0.49723673 -0.403196 -0.7682374
vn -0.49723673 -0.403196 -0.7682374
vn -0.49723673 -0.403196 -0.7682374
vn -0.49723673 -0.403196 -0.7682374
vn 0.85726637 -0.09196267 -0.5065936
vn 0.85726637 -0.09196267 -0.5065936
vn 0.85726637 -0.09196267 -0.5065936
vn 0.85726637 -0.09196267 -0.5065936
vn 0.4972345 0.40320036 0.76823646
vn 0.4972345 0.40320036 0.76823646
vn 0.4972345 0.40320036 0.76823646
vn 0.4972345 0.40320036 0.76823646
vn -0.8572661 0.091953404 0.50659597
vn -0.8572661 0.091953404 0.50659597
vn -0.8572661 0.091953404 0.50659597
vn -0.8572661 0.091953404 0.50659597
vn -0.13361181 0.9104813 -0.39137164
vn -0.13361181 0.9104813 -0.39137164
vn -0.13361181 0.9104813 -0.39137164
vn -0.13361181 0.9104813 -0.39137164
vn 0.13361302 -0.91048104 0.3913716
vn 0.13361302 -0.91048104 0.3913716
vn 0.13361302 -0.91048104 0.3913716
vn 0.13361302 -0.91048104 0.3913716
vn -0.85726464 0.091957346 0.5065977
vn -0.85726464 0.091957346 0.5065977
vn -0.85726464 0.091957346 0.5065977
vn -0.85726464 0.091957346 0.5065977
vn -0.49723303 -0.4031986 -0.7682384
vn -0.49723303 -0.4031986 -0.7682384
vn -0.49723303 -0.4031986 -0.7682384
vn -0.49723303 -0.4031986 -0.7682384
vn 0.8572635 -0.09195423 -0.5066
vn 0.8572635 -0.09195423 -0.5066
vn 0.8572635 -0.09195423 -0.5066
vn 0.8572635 -0.09195423 -0.5066
vn 0.49723718 0.40318885 0.7682408
vn 0.49723718 0.40318885 0.7682408
vn 0.49723718 0.40318885 0.7682408
vn 0.49723718 0.40318885 0.7682408
vn -0.13361171 0.9104816 -0.39137104
vn -0.13361171 0.9104816 -0.39137104
vn -0.13361171 0.9104816 -0.39137104
vn -0.13361171 0.9104816 -0.39137104
vn 0.13361272 -0.91048133 0.3913712
vn 0.13361272 -0.91048133 0.3913712
vn 0.13361272 -0.91048133 0.3913712
vn 0.13361272 -0.91048133 0.3913712
vn -0.9665483 0 0.25648475
vn -0.9985744 0 -0.05337734
vn -0.5271896 0 -0.84974766
vn -0.2229432 -0.97301507 0.059482038
vn -0.3507875 -0.9357182 0.03714185
vn -0 -0.9000674 -0.43575078
vn -0.9673542 0 0.25342807
vn 0.3507875 -0.9357182 0.03714185
vn -0.2229432 0.97301507 0.059482038
vn -0.3507875 0.9357182 0.03714185
vn -0 0.9000674 -0.43575078
vn 0.3507875 0.9357182 0.03714185
vn 0.2229432 -0.97301507 0.059482038
vn 0.9673542 0 0.25342807
vn 0.5271896 0 -0.84974766
vn 0.9665483 0 0.25648475
vn 0.2229432 0.97301507 0.059482038
vn 0.9985744 0 -0.05337734
vn -0.566467 0.5755923 -0.58975315
vn 0.6650179 0.678477 0.31212202
vn -0.2609131 0.5451738 0.7966868
vn -0.563936 -0.5831632 -0.5847196
vn -0.2622807 -0.53878325 0.8005757
vn 0.6693714 -0.67043954 0.3200824
vn 0.66211414 0.5613702 -0.49645588
vn 0.66269165 -0.5658241 -0.49059448
vn 0.64676106 0.08740675 0.75766754
vn -0.08316405 0.9239602 -0.3733379
vn 0.7892867 0.1015983 -0.6055613
vn -0.1427107 -0.678242 0.7208477
vn 0.016327482 -0.72991467 -0.68334323
vn -0.88437575 0.11633792 -0.45204544
vn -0.076939344 0.8619282 0.5011587
vn -0.91985655 -0.10159928 0.37886858
vn 0.64676106 -0.08740675 0.75766754
vn 0.7892867 -0.1015983 -0.6055613
vn -0.08316405 -0.9239602 -0.3733379
vn -0.1427107 0.678242 0.7208477
vn 0.016327482 0.72991467 -0.68334323
vn -0.88437575 -0.11633792 -0.45204544
vn -0.076939344 -0.8619282 0.5011587
vn -0.91985655 0.10159928 0.37886858
vn 0.3626268 0.55895555 -0.7457014
vn -0.49676466 0.66291237 0.5601535
vn -0.84507847 0.4048991 -0.3491404
vn 0.5086632 -0.595826 -0.6214926
vn -0.68570095 -0.6869217 -0.24073389
vn -0.33327284 -0.59769374 0.7291717
vn 0.5207567 0.6815037 0.51416445
vn 0.67011046 -0.4122536 0.61725116
g ShortSword10_0
f 3/3/3 2/2/2 1/1/1
f 4/4/4 3/3/3 1/1/1
f 5/5/5 3/3/3 4/4/4
f 6/6/6 5/5/5 4/4/4
f 7/7/7 5/5/5 6/6/6
f 8/8/8 7/7/7 6/6/6
f 9/9/9 7/7/7 8/8/8
f 10/10/10 9/9/9 8/8/8
f 11/11/11 4/4/4 1/1/1
f 10/10/10 8/8/8 12/12/12
f 11/11/11 1/1/1 13/13/13
f 13/13/13 1/1/1 14/14/14
f 1/1/1 15/15/15 14/14/14
f 1/1/1 16/16/16 15/15/15
f 14/14/14 15/15/15 17/17/17
f 16/16/16 18/18/18 15/15/15
f 15/15/15 19/19/19 17/17/17
f 15/15/15 18/18/18 19/19/19
f 17/17/17 19/19/19 20/20/20
f 18/18/18 21/21/21 19/19/19
f 19/19/19 22/22/22 20/20/20
f 19/19/19 21/21/21 22/22/22
f 20/20/20 22/22/22 23/23/23
f 23/23/23 10/10/10 12/12/12
f 22/22/22 10/10/10 23/23/23
f 21/21/21 24/24/24 22/22/22
f 22/22/22 24/24/24 10/10/10
f 24/24/24 25/25/25 10/10/10
f 12/12/12 27/27/27 26/26/26
f 28/28/28 12/12/12 26/26/26
f 28/28/28 26/26/26 29/29/29
f 26/26/26 27/27/27 30/30/30
f 27/27/27 31/31/31 30/30/30
f 28/28/28 29/29/29 32/32/32
f 32/32/32 33/33/33 28/28/28
f 34/34/34 32/32/32 29/29/29
f 35/35/35 34/34/34 29/29/29
f 26/26/26 30/30/30 36/36/36
f 29/29/29 26/26/26 36/36/36
f 36/36/36 30/30/30 37/37/37
f 30/30/30 31/31/31 38/38/38
f 30/30/30 38/38/38 37/37/37
f 31/31/31 39/39/39 38/38/38
f 38/38/38 39/39/39 40/40/40
f 37/37/37 38/38/38 40/40/40
f 39/39/39 11/11/11 40/40/40
f 41/41/41 37/37/37 40/40/40
f 40/40/40 42/42/42 41/41/41
f 37/37/37 41/41/41 43/43/43
f 37/37/37 43/43/43 44/44/44
f 44/44/44 45/45/45 37/37/37
f 36/36/36 37/37/37 45/45/45
f 45/45/45 44/44/44 46/46/46
f 29/29/29 36/36/36 47/47/47
f 47/47/47 36/36/36 45/45/45
f 48/48/48 45/45/45 46/46/46
f 47/47/47 45/45/45 48/48/48
f 48/48/48 46/46/46 49/49/49
f 50/50/50 29/29/29 47/47/47
f 29/29/29 50/50/50 35/35/35
f 51/51/51 48/48/48 49/49/49
f 51/51/51 49/49/49 52/52/52
f 53/53/53 51/51/51 52/52/52
f 54/54/54 47/47/47 48/48/48
f 50/50/50 47/47/47 54/54/54
f 54/54/54 48/48/48 51/51/51
f 35/35/35 50/50/50 55/55/55
f 55/55/55 50/50/50 54/54/54
f 56/56/56 35/35/35 55/55/55
f 57/57/57 51/51/51 53/53/53
f 57/57/57 54/54/54 51/51/51
f 55/55/55 54/54/54 57/57/57
f 58/58/58 57/57/57 53/53/53
f 56/56/56 55/55/55 59/59/59
f 59/59/59 55/55/55 57/57/57
f 59/59/59 57/57/57 58/58/58
f 60/60/60 56/56/56 59/59/59
f 61/61/61 59/59/59 58/58/58
f 60/60/60 59/59/59 61/61/61
f 62/62/62 60/60/60 61/61/61
f 65/65/65 64/64/64 63/63/63
f 66/66/66 65/65/65 63/63/63
f 66/66/66 63/63/63 67/67/67
f 68/68/68 66/66/66 67/67/67
f 66/66/66 68/68/68 69/69/69
f 65/65/65 66/66/66 70/70/70
f 70/70/70 66/66/66 69/69/69
f 71/71/71 65/65/65 70/70/70
f 69/69/69 72/72/72 70/70/70
f 70/70/70 73/73/73 71/71/71
f 72/72/72 73/73/73 70/70/70
f 73/73/73 74/74/74 71/71/71
f 75/75/75 74/74/74 73/73/73
f 76/76/76 75/75/75 73/73/73
f 76/76/76 73/73/73 72/72/72
f 77/77/77 76/76/76 72/72/72
f 80/80/80 79/79/79 78/78/78
f 81/81/81 79/79/79 80/80/80
f 82/82/82 81/81/81 80/80/80
f 83/83/83 81/81/81 82/82/82
f 84/84/84 83/83/83 82/82/82
f 85/85/85 83/83/83 84/84/84
f 88/88/88 87/87/87 86/86/86
f 89/89/89 88/88/88 86/86/86
f 89/89/89 86/86/86 90/90/90
f 91/91/91 89/89/89 90/90/90
f 89/89/89 91/91/91 92/92/92
f 93/93/93 88/88/88 89/89/89
f 92/92/92 94/94/94 89/89/89
f 95/95/95 93/93/93 89/89/89
f 94/94/94 95/95/95 89/89/89
f 96/96/96 93/93/93 95/95/95
f 97/97/97 96/96/96 95/95/95
f 97/97/97 95/95/95 94/94/94
f 98/98/98 96/96/96 97/97/97
f 99/99/99 98/98/98 97/97/97
f 100/100/100 98/98/98 99/99/99
f 101/101/101 97/97/97 94/94/94
f 99/99/99 97/97/97 101/101/101
f 102/102/102 100/100/100 99/99/99
f 103/103/103 100/100/100 102/102/102
f 104/104/104 103/103/103 102/102/102
f 104/104/104 102/102/102 105/105/105
f 106/106/106 104/104/104 105/105/105
f 102/102/102 99/99/99 107/107/107
f 107/107/107 99/99/99 101/101/101
f 102/102/102 107/107/107 108/108/108
f 108/108/108 109/109/109 102/102/102
f 110/110/110 108/108/108 107/107/107
f 110/110/110 107/107/107 111/111/111
f 111/111/111 112/112/112 110/110/110
f 111/111/111 107/107/107 113/113/113
f 107/107/107 101/101/101 113/113/113
f 113/113/113 101/101/101 114/114/114
f 101/101/101 94/94/94 114/114/114
f 114/114/114 94/94/94 115/115/115
f 94/94/94 116/116/116 115/115/115
f 115/115/115 117/117/117 114/114/114
f 112/112/112 119/119/119 118/118/118
f 120/120/120 112/112/112 118/118/118
f 122/122/122 117/117/117 121/121/121
f 123/123/123 122/122/122 121/121/121
f 126/126/126 125/125/125 124/124/124
f 126/126/126 124/124/124 127/127/127
f 127/127/127 128/128/128 126/126/126
f 128/128/128 127/127/127 129/129/129
f 130/130/130 128/128/128 129/129/129
f 129/129/129 127/127/127 131/131/131
f 127/127/127 132/132/132 131/131/131
f 131/131/131 132/132/132 133/133/133
f 132/132/132 134/134/134 133/133/133
f 130/130/130 129/129/129 135/135/135
f 136/136/136 130/130/130 135/135/135
f 136/136/136 135/135/135 137/137/137
f 138/138/138 136/136/136 137/137/137
f 137/137/137 135/135/135 139/139/139
f 135/135/135 129/129/129 140/140/140
f 135/135/135 140/140/140 139/139/139
f 129/129/129 141/141/141 140/140/140
f 139/139/139 140/140/140 142/142/142
f 140/140/140 141/141/141 143/143/143
f 140/140/140 143/143/143 142/142/142
f 141/141/141 144/144/144 143/143/143
f 142/142/142 146/146/146 145/145/145
f 146/146/146 147/147/147 145/145/145
f 146/146/146 148/148/148 147/147/147
f 145/145/145 147/147/147 149/149/149
f 148/148/148 150/150/150 147/147/147
f 147/147/147 151/151/151 149/149/149
f 147/147/147 150/150/150 151/151/151
f 149/149/149 151/151/151 152/152/152
f 151/151/151 153/153/153 152/152/152
f 150/150/150 154/154/154 151/151/151
f 151/151/151 154/154/154 153/153/153
f 154/154/154 155/155/155 153/153/153
f 154/154/154 156/156/156 155/155/155
f 156/156/156 157/157/157 155/155/155
f 156/156/156 154/154/154 158/158/158
f 157/157/157 156/156/156 159/159/159
f 159/159/159 160/160/160 157/157/157
f 159/159/159 161/161/161 160/160/160
f 162/162/162 156/156/156 158/158/158
f 163/163/163 162/162/162 158/158/158
f 164/164/164 163/163/163 158/158/158
f 167/167/167 166/166/166 165/165/165
f 165/165/165 166/166/166 168/168/168
f 166/166/166 169/169/169 168/168/168
f 172/172/172 171/171/171 170/170/170
f 173/173/173 171/171/171 172/172/172
f 174/174/174 173/173/173 172/172/172
f 177/177/177 176/176/176 175/175/175
f 178/178/178 177/177/177 175/175/175
f 181/181/181 180/180/180 179/179/179
f 182/182/182 181/181/181 179/179/179
f 185/185/185 184/184/184 183/183/183
f 186/186/186 185/185/185 183/183/183
f 186/186/186 183/183/183 187/187/187
f 183/183/183 188/188/188 187/187/187
f 188/188/188 189/189/189 187/187/187
f 189/189/189 190/190/190 187/187/187
f 192/192/192 185/185/185 191/191/191
f 193/193/193 192/192/192 191/191/191
f 194/194/194 193/193/193 191/191/191
f 190/190/190 195/195/195 194/194/194
f 196/196/196 194/194/194 191/191/191
f 196/196/196 190/190/190 194/194/194
f 199/199/199 198/198/198 197/197/197
f 200/200/200 199/199/199 197/197/197
f 201/201/201 200/200/200 197/197/197
f 201/201/201 202/202/202 200/200/200
f 205/205/205 204/204/204 203/203/203
f 206/206/206 205/205/205 203/203/203
f 207/207/207 206/206/206 203/203/203
f 207/207/207 208/208/208 206/206/206
f 211/211/211 210/210/210 209/209/209
f 212/212/212 211/211/211 209/209/209
f 213/213/213 211/211/211 212/212/212
f 216/216/216 215/215/215 214/214/214
f 217/217/217 215/215/215 216/216/216
f 218/218/218 217/217/217 216/216/216
f 221/221/221 220/220/220 219/219/219
f 222/222/222 221/221/221 219/219/219
f 224/224/224 223/223/223 222/222/222
f 225/225/225 224/224/224 222/222/222
f 228/228/228 227/227/227 226/226/226
f 229/229/229 227/227/227 228/228/228
f 230/230/230 229/229/229 228/228/228
f 233/233/233 232/232/232 231/231/231
f 234/234/234 233/233/233 231/231/231
f 235/235/235 233/233/233 234/234/234
f 238/238/238 237/237/237 236/236/236
f 239/239/239 238/238/238 236/236/236
f 242/242/242 241/241/241 240/240/240
f 243/243/243 242/242/242 240/240/240
f 246/246/246 245/245/245 244/244/244
f 247/247/247 246/246/246 244/244/244
f 250/250/250 249/249/249 248/248/248
f 251/251/251 250/250/250 248/248/248
f 254/254/254 253/253/253 252/252/252
f 255/255/255 254/254/254 252/252/252
f 258/258/258 257/257/257 256/256/256
f 259/259/259 258/258/258 256/256/256
f 262/262/262 261/261/261 260/260/260
f 263/263/263 262/262/262 260/260/260
f 266/266/266 265/265/265 264/264/264
f 267/267/267 266/266/266 264/264/264
f 270/270/270 269/269/269 268/268/268
f 271/271/271 270/270/270 268/268/268
f 274/274/274 273/273/273 272/272/272
f 275/275/275 274/274/274 272/272/272
f 278/278/278 277/277/277 276/276/276
f 279/279/279 278/278/278 276/276/276
f 282/282/282 281/281/281 280/280/280
f 283/283/283 282/282/282 280/280/280
f 286/286/286 285/285/285 284/284/284
f 287/287/287 286/286/286 284/284/284
f 290/290/290 289/289/289 288/288/288
f 291/291/291 290/290/290 288/288/288
f 294/294/294 293/293/293 292/292/292
f 295/295/295 294/294/294 292/292/292
f 298/298/298 297/297/297 296/296/296
f 299/299/299 298/298/298 296/296/296
f 302/302/302 301/301/301 300/300/300
f 303/303/303 302/302/302 300/300/300
f 306/306/306 305/305/305 304/304/304
f 307/307/307 306/306/306 304/304/304
f 310/310/310 309/309/309 308/308/308
f 311/311/311 310/310/310 308/308/308
f 314/314/314 313/313/313 312/312/312
f 315/315/315 314/314/314 312/312/312
f 318/318/318 317/317/317 316/316/316
f 319/319/319 318/318/318 316/316/316
f 322/322/322 321/321/321 320/320/320
f 323/323/323 322/322/322 320/320/320
f 326/326/326 325/325/325 324/324/324
f 327/327/327 326/326/326 324/324/324
f 330/330/330 329/329/329 328/328/328
f 331/331/331 330/330/330 328/328/328
f 334/334/334 333/333/333 332/332/332
f 332/332/332 333/333/333 335/335/335
f 333/333/333 334/334/334 335/335/335
f 332/332/332 335/335/335 336/336/336
f 335/335/335 337/337/337 336/336/336
f 335/335/335 334/334/334 337/337/337
f 338/338/338 332/332/332 336/336/336
f 336/336/336 337/337/337 339/339/339
f 340/340/340 332/332/332 338/338/338
f 340/340/340 334/334/334 332/332/332
f 341/341/341 340/340/340 338/338/338
f 342/342/342 334/334/334 340/340/340
f 341/341/341 342/342/342 340/340/340
f 337/337/337 334/334/334 342/342/342
f 343/343/343 342/342/342 341/341/341
f 339/339/339 337/337/337 344/344/344
f 339/339/339 344/344/344 345/345/345
f 342/342/342 346/346/346 337/337/337
f 337/337/337 346/346/346 344/344/344
f 344/344/344 347/347/347 345/345/345
f 345/345/345 347/347/347 343/343/343
f 344/344/344 346/346/346 347/347/347
f 348/348/348 342/342/342 343/343/343
f 347/347/347 348/348/348 343/343/343
f 348/348/348 346/346/346 342/342/342
f 347/347/347 349/349/349 348/348/348
f 349/349/349 346/346/346 348/348/348
f 346/346/346 349/349/349 347/347/347
f 352/352/352 351/351/351 350/350/350
f 350/350/350 353/353/353 352/352/352
f 352/352/352 354/354/354 351/351/351
f 353/353/353 354/354/354 352/352/352
f 354/354/354 355/355/355 351/351/351
f 355/355/355 354/354/354 353/353/353
f 351/351/351 356/356/356 350/350/350
f 351/351/351 355/355/355 356/356/356
f 357/357/357 355/355/355 353/353/353
f 357/357/357 353/353/353 350/350/350
f 356/356/356 357/357/357 350/350/350
f 355/355/355 357/357/357 356/356/356
f 360/360/360 359/359/359 358/358/358
f 358/358/358 361/361/361 360/360/360
f 360/360/360 362/362/362 359/359/359
f 361/361/361 362/362/362 360/360/360
f 362/362/362 363/363/363 359/359/359
f 363/363/363 362/362/362 361/361/361
f 359/359/359 364/364/364 358/358/358
f 359/359/359 363/363/363 364/364/364
f 365/365/365 363/363/363 361/361/361
f 365/365/365 361/361/361 358/358/358
f 364/364/364 365/365/365 358/358/358
f 363/363/363 365/365/365 364/364/364
f 368/368/368 367/367/367 366/366/366
f 369/369/369 366/366/366 367/367/367
f 370/370/370 367/367/367 368/368/368
f 370/370/370 369/369/369 367/367/367
f 371/371/371 370/370/370 368/368/368
f 370/370/370 371/371/371 369/369/369
f 372/372/372 368/368/368 366/366/366
f 371/371/371 368/368/368 372/372/372
f 371/371/371 373/373/373 369/369/369
f 369/369/369 373/373/373 366/366/366
f 373/373/373 372/372/372 366/366/366
f 373/373/373 371/371/371 372/372/372
f 376/376/376 375/375/375 374/374/374
f 374/374/374 377/377/377 376/376/376
f 376/376/376 378/378/378 375/375/375
f 377/377/377 378/378/378 376/376/376
f 378/378/378 379/379/379 375/375/375
f 379/379/379 378/378/378 377/377/377
f 375/375/375 380/380/380 374/374/374
f 375/375/375 379/379/379 380/380/380
f 381/381/381 379/379/379 377/377/377
f 381/381/381 377/377/377 374/374/374
f 380/380/380 381/381/381 374/374/374
f 379/379/379 381/381/381 380/380/380
