g Spear07
v -0.08213203 -0.037677467 2.0074267
v -0.08213203 -0.05703586 2.0654874
v -0.11644981 -0.03770971 1.9415638
v -0.13074994 -0.0150678465 1.1362337
v -0.19111137 -0.015067842 1.1666291
v -0.13556656 -0.015067856 1.0798403
v -0.08213203 -0.037677467 2.0074267
v -0.047814243 -0.03770971 1.9415638
v -0.08213203 -0.05703586 2.0654874
v -0.0335141 -0.0150678465 1.1362337
v -0.028697494 -0.015067856 1.0798403
v 0.026847318 -0.015067842 1.1666291
v -0.08213203 -0.076394275 2.0074267
v -0.11644981 -0.07636205 1.9415638
v -0.08213203 -0.05703586 2.0654874
v -0.13074994 -0.09900417 1.1362337
v -0.13556656 -0.09900418 1.0798403
v -0.19111137 -0.099004164 1.1666291
v -0.08213203 -0.076394275 2.0074267
v -0.08213203 -0.05703586 2.0654874
v -0.047814243 -0.07636205 1.9415638
v -0.0335141 -0.09900417 1.1362337
v 0.026847318 -0.099004164 1.1666291
v -0.028697494 -0.09900418 1.0798403
v -0.0416834 -0.06706617 -0.642856
v -0.08116455 -0.054161638 -0.67425054
v -0.06826016 -0.09364298 -0.642856
v -0.12064585 -0.04125732 -0.642856
v -0.08116455 -0.054161638 -0.67425054
v -0.09406904 -0.014680523 -0.642856
v -0.12064585 -0.06706617 -0.642856
v -0.08116455 -0.054161638 -0.67425054
v -0.12064585 -0.04125732 -0.642856
v -0.09406904 -0.09364298 -0.642856
v -0.08116455 -0.054161638 -0.67425054
v -0.12064585 -0.06706617 -0.642856
v -0.06826016 -0.014680523 -0.642856
v -0.08116455 -0.054161638 -0.67425054
v -0.0416834 -0.041257303 -0.642856
v -0.0416834 -0.041257303 -0.642856
v -0.08116455 -0.054161638 -0.67425054
v -0.0416834 -0.06706617 -0.642856
v -0.12104391 -0.03770984 1.1387614
v -0.111511745 -0.037709843 1.12173
v -0.08213203 -0.008596122 1.12173
v -0.08213203 -0.011954782 1.1621634
v -0.11893031 -0.037709836 1.1627604
v -0.11644981 -0.03770971 1.9415638
v -0.08213203 -0.05703586 2.0654874
v -0.15283257 -0.057035875 1.9559181
v -0.17352045 -0.05703589 1.8660715
v -0.12786661 -0.03770972 1.8660715
v -0.182286 -0.057035927 1.6381671
v -0.13663214 -0.037709758 1.6381671
v -0.2239223 -0.057035953 1.4825788
v -0.17826846 -0.037709784 1.4825788
v -0.2611758 -0.057035964 1.4102632
v -0.21552198 -0.037709795 1.4102632
v -0.29668438 -0.05703597 1.3633412
v -0.2510305 -0.037709802 1.3633412
v -0.309366 -0.05703598 1.3164191
v -0.26371214 -0.03770981 1.3164191
v -0.26371214 -0.05703598 1.3164191
v -0.26371214 -0.07636215 1.3164191
v -0.21298566 -0.05703598 1.3265646
v -0.21298566 -0.03770981 1.3265646
v -0.21298566 -0.07636215 1.3265646
v -0.13583913 -0.057035986 1.2832357
v -0.13583913 -0.037709817 1.2832357
v -0.13583913 -0.076362155 1.2832357
v -0.12104391 -0.057035994 1.233566
v -0.12104391 -0.037709825 1.233566
v -0.12104391 -0.07636216 1.233566
v -0.11893031 -0.057036005 1.1627604
v -0.11893031 -0.037709836 1.1627604
v -0.11893031 -0.07636218 1.1627604
v -0.12104391 -0.03770984 1.1387614
v -0.111511745 -0.057036012 1.12173
v -0.111511745 -0.037709843 1.12173
v -0.12104391 -0.05703601 1.1387614
v -0.11893031 -0.037709836 1.1627604
v -0.11893031 -0.057036005 1.1627604
v -0.11893031 -0.07636218 1.1627604
v -0.12104391 -0.07636218 1.1387614
v -0.111511745 -0.07636218 1.12173
v -0.14162849 -0.05703605 0.88303554
v -0.12637492 -0.015067888 0.88303554
v -0.17085034 -0.015067862 1.0393293
v -0.18610391 -0.057036024 1.0469095
v -0.13556656 -0.015067856 1.0798403
v -0.17085034 -0.09900419 1.0393293
v -0.12637492 -0.09900422 0.88303554
v -0.13556656 -0.09900418 1.0798403
v -0.15082014 -0.057036016 1.0874205
v -0.19111137 -0.015067842 1.1666291
v -0.2064265 -0.057036005 1.1743054
v -0.19111137 -0.099004164 1.1666291
v -0.08213203 0.0148831485 1.0674772
v -0.13074994 -0.0150678465 1.1362337
v -0.08213203 0.01488316 1.136143
v -0.10425347 -9.238489E-05 0.88303554
v -0.0335141 -0.0150678465 1.1362337
v -0.08213203 0.014883118 0.88303554
v -0.060010582 -9.238489E-05 0.88303554
v -0.028697494 -0.015067856 1.0798403
v -0.08213203 -0.12895519 1.0674772
v -0.13074994 -0.09900417 1.1362337
v -0.08213203 -0.12895519 1.136143
v -0.10425347 -0.11397972 0.88303554
v -0.0335141 -0.09900417 1.1362337
v -0.08213203 -0.12895522 0.88303554
v -0.060010582 -0.11397972 0.88303554
v -0.028697494 -0.09900418 1.0798403
v -0.013443924 -0.057036016 1.0874205
v 0.026847318 -0.015067842 1.1666291
v 0.04216245 -0.057036005 1.1743054
v 0.026847318 -0.099004164 1.1666291
v 0.021839865 -0.057036024 1.0469095
v 0.006586292 -0.015067862 1.0393293
v 0.006586292 -0.09900419 1.0393293
v -0.022635568 -0.05703605 0.88303554
v -0.037889138 -0.015067888 0.88303554
v -0.037889138 -0.09900422 0.88303554
v -0.10425347 -9.238489E-05 0.88303554
v -0.12637492 -0.015067888 0.88303554
v -0.14162849 -0.05703605 0.88303554
v -0.08213203 0.014883118 0.88303554
v -0.08213203 -0.05703605 0.88303554
v -0.060010582 -9.238489E-05 0.88303554
v -0.037889138 -0.015067888 0.88303554
v -0.022635568 -0.05703605 0.88303554
v -0.037889138 -0.09900422 0.88303554
v -0.060010582 -0.11397972 0.88303554
v -0.08213203 -0.12895522 0.88303554
v -0.10425347 -0.11397972 0.88303554
v -0.12637492 -0.09900422 0.88303554
v -0.20373112 -0.057036 1.1815047
v -0.19260512 -0.025466265 1.175012
v -0.12973233 -0.025329713 1.1457274
v -0.1286044 -0.05703601 1.1514541
v -0.1286044 -0.05703601 1.1514541
v -0.12973233 -0.025329713 1.1457274
v -0.08213203 0.0042178784 1.144998
v -0.08213203 -0.05703601 1.1514541
v -0.12637492 -0.015067888 0.88303554
v -0.10425347 -9.238489E-05 0.88303554
v -0.13556656 -0.015067856 1.0798403
v -0.17085034 -0.015067862 1.0393293
v -0.2510305 -0.037709802 1.3633412
v -0.26371214 -0.03770981 1.3164191
v -0.21298566 -0.03770981 1.3265646
v -0.21552198 -0.037709795 1.4102632
v -0.17826846 -0.037709784 1.4825788
v -0.13663214 -0.037709758 1.6381671
v -0.13583913 -0.037709817 1.2832357
v -0.08213203 -0.037677467 2.0074267
v -0.12104391 -0.037709825 1.233566
v -0.12786661 -0.03770972 1.8660715
v -0.11644981 -0.03770971 1.9415638
v -0.11893031 -0.037709836 1.1627604
v -0.08213203 -0.011954782 1.1621634
v -0.13074994 -0.0150678465 1.1362337
v -0.12973233 -0.025329713 1.1457274
v -0.19260512 -0.025466265 1.175012
v -0.19111137 -0.015067842 1.1666291
v -0.08213203 0.01488316 1.136143
v -0.08213203 0.0042178784 1.144998
v -0.12973233 -0.025329713 1.1457274
v -0.13074994 -0.0150678465 1.1362337
v -0.19111137 -0.015067842 1.1666291
v -0.19260512 -0.025466265 1.175012
v -0.20373112 -0.057036 1.1815047
v -0.2064265 -0.057036005 1.1743054
v -0.06396305 -0.029617744 -0.46439284
v -0.08213203 -0.025189847 0.43480152
v -0.08213203 -0.025189994 -0.46439284
v -0.06396305 -0.029617596 0.43480146
v -0.05186624 -0.04171455 -0.46439284
v -0.05186624 -0.041714404 0.43480146
v -0.047438502 -0.05703627 -0.46439284
v -0.047438502 -0.057036124 0.43480146
v -0.05186624 -0.07235784 0.43480146
v -0.05186624 -0.07235799 -0.46439284
v -0.06396305 -0.084454656 0.43480146
v -0.06396305 -0.084454805 -0.46439284
v -0.08213203 -0.0888824 0.43480152
v -0.08213203 -0.08888255 -0.46439284
v -0.100301 -0.084454805 -0.46439284
v -0.100301 -0.084454656 0.43480146
v -0.11239781 -0.07235799 -0.46439284
v -0.11239781 -0.07235784 0.43480146
v -0.11682555 -0.05703627 -0.46439284
v -0.11682555 -0.057036124 0.43480146
v -0.11239781 -0.041714404 0.43480146
v -0.11239781 -0.04171455 -0.46439284
v -0.100301 -0.029617596 0.43480146
v -0.100301 -0.029617744 -0.46439284
v -0.08213203 -0.025189847 0.43480152
v -0.08213203 -0.025189994 -0.46439284
v -0.08213203 -0.011954782 1.1621634
v -0.08213203 -0.008596122 1.12173
v -0.05275231 -0.037709843 1.12173
v -0.043220136 -0.03770984 1.1387614
v -0.045333743 -0.037709836 1.1627604
v -0.047814243 -0.03770971 1.9415638
v -0.011431477 -0.057035875 1.9559181
v -0.08213203 -0.05703586 2.0654874
v 0.009256401 -0.05703589 1.8660715
v -0.036397442 -0.03770972 1.8660715
v 0.018021941 -0.057035927 1.6381671
v -0.027631897 -0.037709758 1.6381671
v 0.059658244 -0.057035953 1.4825788
v 0.014004403 -0.037709784 1.4825788
v 0.09691177 -0.057035964 1.4102632
v 0.051257923 -0.037709795 1.4102632
v 0.13242032 -0.05703597 1.3633412
v 0.08676648 -0.037709802 1.3633412
v 0.14510192 -0.05703598 1.3164191
v 0.099448085 -0.03770981 1.3164191
v 0.099448085 -0.05703598 1.3164191
v 0.099448085 -0.07636215 1.3164191
v 0.04872161 -0.05703598 1.3265646
v 0.04872161 -0.03770981 1.3265646
v 0.04872161 -0.07636215 1.3265646
v -0.028424919 -0.057035986 1.2832357
v -0.028424919 -0.037709817 1.2832357
v -0.028424919 -0.076362155 1.2832357
v -0.043220136 -0.057035994 1.233566
v -0.043220136 -0.037709825 1.233566
v -0.043220136 -0.07636216 1.233566
v -0.045333743 -0.057036005 1.1627604
v -0.045333743 -0.037709836 1.1627604
v -0.045333743 -0.07636218 1.1627604
v -0.043220136 -0.03770984 1.1387614
v -0.05275231 -0.037709843 1.12173
v -0.05275231 -0.057036012 1.12173
v -0.043220136 -0.05703601 1.1387614
v -0.045333743 -0.037709836 1.1627604
v -0.045333743 -0.057036005 1.1627604
v -0.045333743 -0.07636218 1.1627604
v -0.043220136 -0.07636218 1.1387614
v -0.05275231 -0.07636218 1.12173
v 0.03946708 -0.057036 1.1815047
v -0.035659645 -0.05703601 1.1514541
v -0.03453172 -0.025329713 1.1457274
v 0.02834107 -0.025466265 1.175012
v -0.035659645 -0.05703601 1.1514541
v -0.08213203 -0.05703601 1.1514541
v -0.08213203 0.0042178784 1.144998
v -0.03453172 -0.025329713 1.1457274
v -0.037889138 -0.015067888 0.88303554
v 0.006586292 -0.015067862 1.0393293
v -0.028697494 -0.015067856 1.0798403
v -0.060010582 -9.238489E-05 0.88303554
v -0.08213203 -0.037677467 2.0074267
v -0.08213203 -0.011954782 1.1621634
v -0.045333743 -0.037709836 1.1627604
v -0.043220136 -0.037709825 1.233566
v -0.028424919 -0.037709817 1.2832357
v -0.027631897 -0.037709758 1.6381671
v 0.04872161 -0.03770981 1.3265646
v -0.036397442 -0.03770972 1.8660715
v -0.047814243 -0.03770971 1.9415638
v 0.014004403 -0.037709784 1.4825788
v 0.051257923 -0.037709795 1.4102632
v 0.08676648 -0.037709802 1.3633412
v 0.099448085 -0.03770981 1.3164191
v -0.0335141 -0.0150678465 1.1362337
v 0.026847318 -0.015067842 1.1666291
v 0.02834107 -0.025466265 1.175012
v -0.03453172 -0.025329713 1.1457274
v -0.08213203 0.01488316 1.136143
v -0.0335141 -0.0150678465 1.1362337
v -0.03453172 -0.025329713 1.1457274
v -0.08213203 0.0042178784 1.144998
v 0.026847318 -0.015067842 1.1666291
v 0.04216245 -0.057036005 1.1743054
v 0.03946708 -0.057036 1.1815047
v 0.02834107 -0.025466265 1.175012
v -0.06396305 -0.029617587 0.48657095
v -0.08213203 -0.025189754 1.0060766
v -0.08213203 -0.025189837 0.486571
v -0.06396305 -0.029617503 1.0060766
v -0.05186624 -0.041714396 0.48657095
v -0.05186624 -0.04171431 1.0060766
v -0.047438502 -0.057036117 0.48657095
v -0.047438502 -0.05703603 1.0060766
v -0.05186624 -0.07235775 1.0060766
v -0.05186624 -0.07235783 0.48657095
v -0.06396305 -0.084454566 1.0060766
v -0.06396305 -0.08445465 0.48657095
v -0.08213203 -0.08888231 1.0060766
v -0.08213203 -0.088882394 0.486571
v -0.100301 -0.08445465 0.48657095
v -0.100301 -0.084454566 1.0060766
v -0.11239781 -0.07235783 0.48657095
v -0.11239781 -0.07235775 1.0060766
v -0.11682555 -0.057036117 0.48657095
v -0.11682555 -0.05703603 1.0060766
v -0.11239781 -0.04171431 1.0060766
v -0.11239781 -0.041714396 0.48657095
v -0.100301 -0.029617503 1.0060766
v -0.100301 -0.029617587 0.48657095
v -0.08213203 -0.025189754 1.0060766
v -0.08213203 -0.025189837 0.486571
v -0.08213203 -0.10211723 1.1621634
v -0.08213203 -0.105475895 1.12173
v -0.111511745 -0.07636218 1.12173
v -0.12104391 -0.07636218 1.1387614
v -0.11893031 -0.07636218 1.1627604
v -0.11644981 -0.07636205 1.9415638
v -0.15283257 -0.057035875 1.9559181
v -0.08213203 -0.05703586 2.0654874
v -0.17352045 -0.05703589 1.8660715
v -0.12786661 -0.07636206 1.8660715
v -0.182286 -0.057035927 1.6381671
v -0.13663214 -0.076362096 1.6381671
v -0.2239223 -0.057035953 1.4825788
v -0.17826846 -0.076362126 1.4825788
v -0.2611758 -0.057035964 1.4102632
v -0.21552198 -0.07636213 1.4102632
v -0.29668438 -0.05703597 1.3633412
v -0.2510305 -0.07636214 1.3633412
v -0.309366 -0.05703598 1.3164191
v -0.26371214 -0.07636215 1.3164191
v -0.20373112 -0.057036 1.1815047
v -0.1286044 -0.05703601 1.1514541
v -0.12973233 -0.08874231 1.1457274
v -0.19260512 -0.08860575 1.175012
v -0.1286044 -0.05703601 1.1514541
v -0.08213203 -0.05703601 1.1514541
v -0.08213203 -0.118289895 1.144998
v -0.12973233 -0.08874231 1.1457274
v -0.12637492 -0.09900422 0.88303554
v -0.17085034 -0.09900419 1.0393293
v -0.13556656 -0.09900418 1.0798403
v -0.10425347 -0.11397972 0.88303554
v -0.08213203 -0.076394275 2.0074267
v -0.08213203 -0.10211723 1.1621634
v -0.11893031 -0.07636218 1.1627604
v -0.12104391 -0.07636216 1.233566
v -0.13583913 -0.076362155 1.2832357
v -0.13663214 -0.076362096 1.6381671
v -0.21298566 -0.07636215 1.3265646
v -0.12786661 -0.07636206 1.8660715
v -0.11644981 -0.07636205 1.9415638
v -0.17826846 -0.076362126 1.4825788
v -0.21552198 -0.07636213 1.4102632
v -0.2510305 -0.07636214 1.3633412
v -0.26371214 -0.07636215 1.3164191
v -0.13074994 -0.09900417 1.1362337
v -0.19111137 -0.099004164 1.1666291
v -0.19260512 -0.08860575 1.175012
v -0.12973233 -0.08874231 1.1457274
v -0.08213203 -0.12895519 1.136143
v -0.13074994 -0.09900417 1.1362337
v -0.12973233 -0.08874231 1.1457274
v -0.08213203 -0.118289895 1.144998
v -0.19111137 -0.099004164 1.1666291
v -0.2064265 -0.057036005 1.1743054
v -0.20373112 -0.057036 1.1815047
v -0.19260512 -0.08860575 1.175012
v -0.043220136 -0.07636218 1.1387614
v -0.05275231 -0.07636218 1.12173
v -0.08213203 -0.105475895 1.12173
v -0.08213203 -0.10211723 1.1621634
v -0.045333743 -0.07636218 1.1627604
v -0.047814243 -0.07636205 1.9415638
v -0.08213203 -0.05703586 2.0654874
v -0.011431477 -0.057035875 1.9559181
v 0.009256401 -0.05703589 1.8660715
v -0.036397442 -0.07636206 1.8660715
v 0.018021941 -0.057035927 1.6381671
v -0.027631897 -0.076362096 1.6381671
v 0.059658244 -0.057035953 1.4825788
v 0.014004403 -0.076362126 1.4825788
v 0.09691177 -0.057035964 1.4102632
v 0.051257923 -0.07636213 1.4102632
v 0.13242032 -0.05703597 1.3633412
v 0.08676648 -0.07636214 1.3633412
v 0.14510192 -0.05703598 1.3164191
v 0.099448085 -0.07636215 1.3164191
v 0.03946708 -0.057036 1.1815047
v 0.02834107 -0.08860575 1.175012
v -0.03453172 -0.08874231 1.1457274
v -0.035659645 -0.05703601 1.1514541
v -0.035659645 -0.05703601 1.1514541
v -0.03453172 -0.08874231 1.1457274
v -0.08213203 -0.118289895 1.144998
v -0.08213203 -0.05703601 1.1514541
v -0.037889138 -0.09900422 0.88303554
v -0.060010582 -0.11397972 0.88303554
v -0.028697494 -0.09900418 1.0798403
v 0.006586292 -0.09900419 1.0393293
v 0.08676648 -0.07636214 1.3633412
v 0.099448085 -0.07636215 1.3164191
v 0.04872161 -0.07636215 1.3265646
v 0.051257923 -0.07636213 1.4102632
v 0.014004403 -0.076362126 1.4825788
v -0.027631897 -0.076362096 1.6381671
v -0.028424919 -0.076362155 1.2832357
v -0.08213203 -0.076394275 2.0074267
v -0.043220136 -0.07636216 1.233566
v -0.036397442 -0.07636206 1.8660715
v -0.047814243 -0.07636205 1.9415638
v -0.045333743 -0.07636218 1.1627604
v -0.08213203 -0.10211723 1.1621634
v -0.0335141 -0.09900417 1.1362337
v -0.03453172 -0.08874231 1.1457274
v 0.02834107 -0.08860575 1.175012
v 0.026847318 -0.099004164 1.1666291
v -0.08213203 -0.12895519 1.136143
v -0.08213203 -0.118289895 1.144998
v -0.03453172 -0.08874231 1.1457274
v -0.0335141 -0.09900417 1.1362337
v 0.026847318 -0.099004164 1.1666291
v 0.02834107 -0.08860575 1.175012
v 0.03946708 -0.057036 1.1815047
v 0.04216245 -0.057036005 1.1743054
v -0.097819105 -0.10511672 -0.4906676
v -0.0932298 -0.09107566 -0.45837393
v -0.0811645 -0.09107566 -0.45837393
v -0.081164494 -0.10511672 -0.4906676
v -0.0690992 -0.09107566 -0.45837393
v -0.064509876 -0.10511672 -0.4906676
v -0.10726314 -0.04563136 -0.52804285
v -0.13346298 -0.037067838 -0.59217167
v -0.09825827 -0.0018631365 -0.59217167
v -0.08969488 -0.028063107 -0.52804285
v -0.08116451 -0.086570024 -0.5235771
v -0.08969488 -0.08026024 -0.52804285
v -0.09175714 -0.086570024 -0.5235771
v -0.081164576 -0.08026024 -0.52804285
v -0.07057187 -0.086570024 -0.5235771
v -0.072634265 -0.08026024 -0.52804285
v -0.11357278 -0.04356912 -0.5235771
v -0.10726314 -0.04563136 -0.52804285
v -0.08969488 -0.028063107 -0.52804285
v -0.09175714 -0.021753483 -0.5235771
v -0.11357278 -0.06475439 -0.5235771
v -0.10726314 -0.06269198 -0.52804285
v -0.10726314 -0.04563136 -0.52804285
v -0.11357278 -0.04356912 -0.5235771
v -0.09175714 -0.086570024 -0.5235771
v -0.08969488 -0.08026024 -0.52804285
v -0.10726314 -0.06269198 -0.52804285
v -0.11357278 -0.06475439 -0.5235771
v -0.07057187 -0.021753483 -0.5235771
v -0.072634265 -0.028063107 -0.52804285
v -0.05506602 -0.045631353 -0.52804285
v -0.048756234 -0.043569114 -0.5235771
v -0.08116451 -0.021753483 -0.5235771
v -0.072634265 -0.028063107 -0.52804285
v -0.07057187 -0.021753483 -0.5235771
v -0.081164576 -0.028063107 -0.52804285
v -0.09175714 -0.021753483 -0.5235771
v -0.08969488 -0.028063107 -0.52804285
v -0.048756234 -0.043569114 -0.5235771
v -0.05506602 -0.045631353 -0.52804285
v -0.05506602 -0.06269198 -0.52804285
v -0.048756234 -0.06475439 -0.5235771
v -0.048756234 -0.06475439 -0.5235771
v -0.05506602 -0.06269198 -0.52804285
v -0.072634265 -0.08026024 -0.52804285
v -0.07057187 -0.086570024 -0.5235771
v -0.0690992 -0.01724786 -0.45837393
v -0.0442506 -0.042096455 -0.45837393
v -0.0442506 -0.06622706 -0.45837393
v -0.0690992 -0.09107566 -0.45837393
v -0.0811645 -0.01724786 -0.45837393
v -0.0811645 -0.09107566 -0.45837393
v -0.0932298 -0.01724786 -0.45837393
v -0.0932298 -0.09107566 -0.45837393
v -0.118078396 -0.042096466 -0.45837393
v -0.118078396 -0.06622706 -0.45837393
v -0.097819105 -0.0032068135 -0.49066764
v -0.0932298 -0.01724786 -0.45837393
v -0.118078396 -0.042096466 -0.45837393
v -0.13211945 -0.03750715 -0.49066764
v -0.13211945 -0.03750715 -0.49066764
v -0.118078396 -0.042096466 -0.45837393
v -0.118078396 -0.06622706 -0.45837393
v -0.13211945 -0.07081638 -0.49066764
v -0.13211945 -0.07081638 -0.49066764
v -0.118078396 -0.06622706 -0.45837393
v -0.0932298 -0.09107566 -0.45837393
v -0.097819105 -0.10511672 -0.4906676
v -0.030209538 -0.037507135 -0.49066764
v -0.0442506 -0.042096455 -0.45837393
v -0.0690992 -0.01724786 -0.45837393
v -0.064509876 -0.0032068135 -0.49066764
v -0.064509876 -0.0032068135 -0.49066764
v -0.0690992 -0.01724786 -0.45837393
v -0.0811645 -0.01724786 -0.45837393
v -0.081164494 -0.0032068135 -0.49066764
v -0.0932298 -0.01724786 -0.45837393
v -0.097819105 -0.0032068135 -0.49066764
v -0.030209538 -0.07081638 -0.49066764
v -0.0442506 -0.06622706 -0.45837393
v -0.0442506 -0.042096455 -0.45837393
v -0.030209538 -0.037507135 -0.49066764
v -0.064509876 -0.10511672 -0.4906676
v -0.0690992 -0.09107566 -0.45837393
v -0.0442506 -0.06622706 -0.45837393
v -0.030209538 -0.07081638 -0.49066764
v -0.08116451 -0.021753483 -0.5235771
v -0.097819105 -0.0032068135 -0.49066764
v -0.09175714 -0.021753483 -0.5235771
v -0.081164494 -0.0032068135 -0.49066764
v -0.07057187 -0.021753483 -0.5235771
v -0.064509876 -0.0032068135 -0.49066764
v -0.07057187 -0.086570024 -0.5235771
v -0.064509876 -0.10511672 -0.4906676
v -0.030209538 -0.07081638 -0.49066764
v -0.048756234 -0.06475439 -0.5235771
v -0.048756234 -0.06475439 -0.5235771
v -0.030209538 -0.07081638 -0.49066764
v -0.030209538 -0.037507135 -0.49066764
v -0.048756234 -0.043569114 -0.5235771
v -0.048756234 -0.043569114 -0.5235771
v -0.030209538 -0.037507135 -0.49066764
v -0.064509876 -0.0032068135 -0.49066764
v -0.07057187 -0.021753483 -0.5235771
v -0.11357278 -0.06475439 -0.5235771
v -0.13211945 -0.07081638 -0.49066764
v -0.097819105 -0.10511672 -0.4906676
v -0.09175714 -0.086570024 -0.5235771
v -0.11357278 -0.04356912 -0.5235771
v -0.13211945 -0.03750715 -0.49066764
v -0.13211945 -0.07081638 -0.49066764
v -0.11357278 -0.06475439 -0.5235771
v -0.08116451 -0.086570024 -0.5235771
v -0.064509876 -0.10511672 -0.4906676
v -0.07057187 -0.086570024 -0.5235771
v -0.081164494 -0.10511672 -0.4906676
v -0.09175714 -0.086570024 -0.5235771
v -0.097819105 -0.10511672 -0.4906676
v -0.09175714 -0.021753483 -0.5235771
v -0.097819105 -0.0032068135 -0.49066764
v -0.13211945 -0.03750715 -0.49066764
v -0.11357278 -0.04356912 -0.5235771
v -0.09825827 -0.10645998 -0.59217167
v -0.09825827 -0.10645998 -0.6129283
v -0.13346298 -0.071255274 -0.6129283
v -0.13346298 -0.071255274 -0.59217167
v -0.072634265 -0.08026024 -0.52804285
v -0.06407082 -0.10645998 -0.59217167
v -0.08116456 -0.10645998 -0.59217167
v -0.081164576 -0.08026024 -0.52804285
v -0.09825827 -0.10645998 -0.59217167
v -0.08969488 -0.08026024 -0.52804285
v -0.10726314 -0.06269198 -0.52804285
v -0.13346298 -0.071255274 -0.59217167
v -0.13346298 -0.037067838 -0.59217167
v -0.10726314 -0.04563136 -0.52804285
v -0.08969488 -0.08026024 -0.52804285
v -0.09825827 -0.10645998 -0.59217167
v -0.13346298 -0.071255274 -0.59217167
v -0.10726314 -0.06269198 -0.52804285
v -0.072634265 -0.028063107 -0.52804285
v -0.06407082 -0.0018631365 -0.59217167
v -0.028866138 -0.037067823 -0.59217167
v -0.05506602 -0.045631353 -0.52804285
v -0.081164576 -0.028063107 -0.52804285
v -0.06407082 -0.0018631365 -0.59217167
v -0.072634265 -0.028063107 -0.52804285
v -0.08116456 -0.0018631365 -0.59217167
v -0.08969488 -0.028063107 -0.52804285
v -0.09825827 -0.0018631365 -0.59217167
v -0.05506602 -0.045631353 -0.52804285
v -0.028866138 -0.037067823 -0.59217167
v -0.028866138 -0.071255274 -0.59217167
v -0.05506602 -0.06269198 -0.52804285
v -0.05506602 -0.06269198 -0.52804285
v -0.028866138 -0.071255274 -0.59217167
v -0.06407082 -0.10645998 -0.59217167
v -0.072634265 -0.08026024 -0.52804285
v -0.06407082 -0.0018631474 -0.6129283
v -0.07120532 -0.023691224 -0.61585325
v -0.05069409 -0.044202454 -0.61585325
v -0.028866138 -0.037067827 -0.6129283
v -0.06407082 -0.0018631365 -0.59217167
v -0.06407082 -0.0018631474 -0.6129283
v -0.028866138 -0.037067827 -0.6129283
v -0.028866138 -0.037067823 -0.59217167
v -0.08116456 -0.0018631365 -0.59217167
v -0.06407082 -0.0018631474 -0.6129283
v -0.06407082 -0.0018631365 -0.59217167
v -0.08116456 -0.0018631474 -0.6129283
v -0.09825827 -0.0018631365 -0.59217167
v -0.09825827 -0.0018631474 -0.6129283
v -0.028866138 -0.037067823 -0.59217167
v -0.028866138 -0.037067827 -0.6129283
v -0.028866138 -0.071255274 -0.6129283
v -0.028866138 -0.071255274 -0.59217167
v -0.028866138 -0.071255274 -0.59217167
v -0.028866138 -0.071255274 -0.6129283
v -0.06407082 -0.10645998 -0.6129283
v -0.06407082 -0.10645998 -0.59217167
v -0.08116456 -0.10645998 -0.59217167
v -0.09825827 -0.10645998 -0.6129283
v -0.09825827 -0.10645998 -0.59217167
v -0.08116456 -0.10645998 -0.6129283
v -0.06407082 -0.10645998 -0.59217167
v -0.06407082 -0.10645998 -0.6129283
v -0.13346298 -0.037067838 -0.59217167
v -0.13346298 -0.03706784 -0.6129283
v -0.09825827 -0.0018631474 -0.6129283
v -0.09825827 -0.0018631365 -0.59217167
v -0.13346298 -0.071255274 -0.59217167
v -0.13346298 -0.071255274 -0.6129283
v -0.13346298 -0.03706784 -0.6129283
v -0.13346298 -0.037067838 -0.59217167
v -0.05069409 -0.044202454 -0.61585325
v -0.0416834 -0.041257303 -0.642856
v -0.0416834 -0.06706617 -0.642856
v -0.05069409 -0.06412103 -0.61585325
v -0.08116456 -0.0018631474 -0.6129283
v -0.07120532 -0.023691224 -0.61585325
v -0.06407082 -0.0018631474 -0.6129283
v -0.08116461 -0.023691224 -0.61585325
v -0.09825827 -0.0018631474 -0.6129283
v -0.091123894 -0.023691224 -0.61585325
v -0.028866138 -0.037067827 -0.6129283
v -0.05069409 -0.044202454 -0.61585325
v -0.05069409 -0.06412103 -0.61585325
v -0.028866138 -0.071255274 -0.6129283
v -0.028866138 -0.071255274 -0.6129283
v -0.05069409 -0.06412103 -0.61585325
v -0.07120532 -0.084632285 -0.61585325
v -0.06407082 -0.10645998 -0.6129283
v -0.08116456 -0.10645998 -0.6129283
v -0.091123894 -0.084632285 -0.61585325
v -0.09825827 -0.10645998 -0.6129283
v -0.08116461 -0.084632285 -0.61585325
v -0.06407082 -0.10645998 -0.6129283
v -0.07120532 -0.084632285 -0.61585325
v -0.13346298 -0.03706784 -0.6129283
v -0.11163515 -0.044202473 -0.61585325
v -0.091123894 -0.023691224 -0.61585325
v -0.09825827 -0.0018631474 -0.6129283
v -0.13346298 -0.071255274 -0.6129283
v -0.11163515 -0.06412103 -0.61585325
v -0.11163515 -0.044202473 -0.61585325
v -0.13346298 -0.03706784 -0.6129283
v -0.09825827 -0.10645998 -0.6129283
v -0.091123894 -0.084632285 -0.61585325
v -0.11163515 -0.06412103 -0.61585325
v -0.13346298 -0.071255274 -0.6129283
v -0.05069409 -0.06412103 -0.61585325
v -0.0416834 -0.06706617 -0.642856
v -0.06826016 -0.09364298 -0.642856
v -0.07120532 -0.084632285 -0.61585325
v -0.091123894 -0.023691224 -0.61585325
v -0.09406904 -0.014680523 -0.642856
v -0.08116461 -0.014680523 -0.642856
v -0.08116461 -0.023691224 -0.61585325
v -0.06826016 -0.014680523 -0.642856
v -0.07120532 -0.023691224 -0.61585325
v -0.08116461 -0.084632285 -0.61585325
v -0.09406904 -0.09364298 -0.642856
v -0.091123894 -0.084632285 -0.61585325
v -0.08116461 -0.09364298 -0.642856
v -0.07120532 -0.084632285 -0.61585325
v -0.06826016 -0.09364298 -0.642856
v -0.11163515 -0.044202473 -0.61585325
v -0.12064585 -0.04125732 -0.642856
v -0.09406904 -0.014680523 -0.642856
v -0.091123894 -0.023691224 -0.61585325
v -0.11163515 -0.06412103 -0.61585325
v -0.12064585 -0.06706617 -0.642856
v -0.12064585 -0.04125732 -0.642856
v -0.11163515 -0.044202473 -0.61585325
v -0.091123894 -0.084632285 -0.61585325
v -0.09406904 -0.09364298 -0.642856
v -0.12064585 -0.06706617 -0.642856
v -0.11163515 -0.06412103 -0.61585325
v -0.07120532 -0.023691224 -0.61585325
v -0.06826016 -0.014680523 -0.642856
v -0.0416834 -0.041257303 -0.642856
v -0.05069409 -0.044202454 -0.61585325
v -0.09406904 -0.014680523 -0.642856
v -0.08116455 -0.054161638 -0.67425054
v -0.08116461 -0.014680523 -0.642856
v -0.06826016 -0.014680523 -0.642856
v -0.08116461 -0.09364298 -0.642856
v -0.08116455 -0.054161638 -0.67425054
v -0.09406904 -0.09364298 -0.642856
v -0.06826016 -0.09364298 -0.642856
v -0.11869453 -0.0385268 0.434461
v -0.11239781 -0.041714404 0.43480146
v -0.100301 -0.029617596 0.43480146
v -0.10408099 -0.023913275 0.434461
v -0.08213203 -0.025189847 0.43480152
v -0.12404345 -0.05703618 0.434461
v -0.11682555 -0.057036124 0.43480146
v -0.082132 -0.01856434 0.43446112
v -0.06396305 -0.029617596 0.43480146
v -0.11869453 -0.07554556 0.434461
v -0.11239781 -0.07235784 0.43480146
v -0.060182996 -0.023913275 0.434461
v -0.05186624 -0.041714404 0.43480146
v -0.10408099 -0.09015909 0.434461
v -0.100301 -0.084454656 0.43480146
v -0.045569465 -0.0385268 0.434461
v -0.047438502 -0.057036124 0.43480146
v -0.082132 -0.095508024 0.43446115
v -0.08213203 -0.0888824 0.43480152
v -0.040220544 -0.05703618 0.434461
v -0.05186624 -0.07235784 0.43480146
v -0.060182996 -0.09015909 0.434461
v -0.06396305 -0.084454656 0.43480146
v -0.045569465 -0.07554556 0.434461
v -0.10408099 -0.09015908 0.48691142
v -0.082132 -0.09550802 0.4869115
v -0.060182996 -0.09015908 0.48691142
v -0.045569465 -0.07554555 0.48691142
v -0.040220544 -0.057036173 0.48691142
v -0.045569465 -0.038526792 0.48691142
v -0.11869453 -0.07554555 0.48691142
v -0.060182996 -0.023913266 0.48691142
v -0.12404345 -0.057036173 0.48691142
v -0.082132 -0.01856433 0.48691148
v -0.11869453 -0.038526792 0.48691142
v -0.10408099 -0.023913266 0.48691142
v -0.05186624 -0.041714396 0.48657095
v -0.047438502 -0.057036117 0.48657095
v -0.06396305 -0.029617587 0.48657095
v -0.08213203 -0.025189837 0.486571
v -0.05186624 -0.07235783 0.48657095
v -0.100301 -0.029617587 0.48657095
v -0.11239781 -0.041714396 0.48657095
v -0.06396305 -0.08445465 0.48657095
v -0.11682555 -0.057036117 0.48657095
v -0.08213203 -0.088882394 0.486571
v -0.11239781 -0.07235783 0.48657095
v -0.100301 -0.08445465 0.48657095
vt 0.15887024 0.8268004
vt 0.15912071 0.8268004
vt 0.15864801 0.823512
vt 0.16406247 0.7011718
vt 0.16406247 0.7011718
vt 0.16406247 0.7011718
vt 0.15887024 0.8268004
vt 0.15864801 0.823512
vt 0.15912071 0.8268004
vt 0.16406247 0.7011718
vt 0.16406247 0.7011718
vt 0.16406247 0.7011718
vt 0.15887024 0.8268004
vt 0.15864801 0.823512
vt 0.15912071 0.8268004
vt 0.16406247 0.7011718
vt 0.16406247 0.7011718
vt 0.16406247 0.7011718
vt 0.15887024 0.8268004
vt 0.15912071 0.8268004
vt 0.15864801 0.823512
vt 0.16406247 0.7011718
vt 0.16406247 0.7011718
vt 0.16406247 0.7011718
vt 0.15623227 0.7029817
vt 0.15623227 0.7029817
vt 0.15623227 0.7029817
vt 0.15623227 0.7029817
vt 0.15623227 0.7029817
vt 0.15623227 0.7029817
vt 0.15623227 0.7029817
vt 0.15623227 0.7029817
vt 0.15623227 0.7029817
vt 0.15623227 0.7029817
vt 0.15623227 0.7029817
vt 0.15623227 0.7029817
vt 0.15623227 0.7029817
vt 0.15623227 0.7029817
vt 0.15623227 0.7029817
vt 0.15623227 0.7029817
vt 0.15623227 0.7029817
vt 0.15623227 0.7029817
vt 0.096158445 0.9016041
vt 0.096158445 0.9016041
vt 0.096158445 0.9016041
vt 0.096158445 0.9016041
vt 0.096158445 0.9016041
vt 0.15126567 0.8407375
vt 0.15173836 0.8440259
vt 0.15126567 0.83986306
vt 0.15087804 0.838645
vt 0.15087804 0.8413331
vt 0.14989482 0.83812886
vt 0.14989482 0.840817
vt 0.14922357 0.8356774
vt 0.14922357 0.83836544
vt 0.14891158 0.8334839
vt 0.14891158 0.836172
vt 0.14870915 0.8313931
vt 0.14870915 0.83408123
vt 0.14850672 0.83064646
vt 0.14850672 0.83333457
vt 0.14850672 0.83333457
vt 0.14850672 0.83333457
vt 0.14855048 0.8363213
vt 0.14855048 0.8363213
vt 0.14855048 0.8363213
vt 0.14836356 0.84086365
vt 0.14836356 0.84086365
vt 0.14836356 0.84086365
vt 0.14814927 0.84173477
vt 0.14814927 0.84173477
vt 0.14814927 0.84173477
vt 0.1478438 0.8418592
vt 0.1478438 0.8418592
vt 0.1478438 0.8418592
vt 0.096158445 0.9016041
vt 0.096158445 0.9016041
vt 0.096158445 0.9016041
vt 0.096158445 0.9016041
vt 0.096158445 0.9016041
vt 0.096158445 0.9016041
vt 0.096158445 0.9016041
vt 0.096158445 0.9016041
vt 0.096158445 0.9016041
vt 0.16406247 0.7011718
vt 0.16406247 0.7011718
vt 0.16406247 0.7011718
vt 0.16406247 0.7011718
vt 0.16406247 0.7011718
vt 0.16406247 0.7011718
vt 0.16406247 0.7011718
vt 0.16406247 0.7011718
vt 0.16406247 0.7011718
vt 0.16406247 0.7011718
vt 0.16406247 0.7011718
vt 0.16406247 0.7011718
vt 0.16406247 0.7011718
vt 0.16406247 0.7011718
vt 0.16406247 0.7011718
vt 0.16406247 0.7011718
vt 0.16406247 0.7011718
vt 0.16406247 0.7011718
vt 0.16406247 0.7011718
vt 0.16406247 0.7011718
vt 0.16406247 0.7011718
vt 0.16406247 0.7011718
vt 0.16406247 0.7011718
vt 0.16406247 0.7011718
vt 0.16406247 0.7011718
vt 0.16406247 0.7011718
vt 0.16406247 0.7011718
vt 0.16406247 0.7011718
vt 0.16406247 0.7011718
vt 0.16406247 0.7011718
vt 0.16406247 0.7011718
vt 0.16406247 0.7011718
vt 0.16406247 0.7011718
vt 0.16406247 0.7011718
vt 0.16406247 0.7011718
vt 0.16406247 0.7011718
vt 0.16406247 0.7011718
vt 0.16406247 0.7011718
vt 0.16406247 0.7011718
vt 0.16406247 0.7011718
vt 0.16406247 0.7011718
vt 0.16406247 0.7011718
vt 0.16406247 0.7011718
vt 0.16406247 0.7011718
vt 0.16406247 0.7011718
vt 0.16406247 0.7011718
vt 0.16406247 0.7011718
vt 0.16406247 0.7011718
vt 0.16406247 0.7011718
vt 0.16406247 0.7011718
vt 0.16406247 0.7011718
vt 0 0
vt 0 0
vt 0 0
vt 0 0
vt 0 0
vt 0 0
vt 0 0
vt 0 0
vt 0.16406247 0.7011718
vt 0.16406247 0.7011718
vt 0.16406247 0.7011718
vt 0.16406247 0.7011718
vt 0.15046574 0.8622891
vt 0.1497985 0.859828
vt 0.14994277 0.8696725
vt 0.15113297 0.86918026
vt 0.15216129 0.87641
vt 0.15437375 0.8844904
vt 0.14932664 0.88464427
vt 0.1596246 0.8950672
vt 0.14862034 0.88751554
vt 0.15761453 0.8861915
vt 0.15889215 0.8842286
vt 0.14761348 0.8879258
vt 0.147605 0.8950672
vt 0.22322825 0.7006886
vt 0.22322825 0.7006886
vt 0.22322825 0.7006886
vt 0.22322825 0.7006886
vt 0.22322825 0.7006886
vt 0.22322825 0.7006886
vt 0.22322825 0.7006886
vt 0.22322825 0.7006886
vt 0.22322825 0.7006886
vt 0.22322825 0.7006886
vt 0.22322825 0.7006886
vt 0.22322825 0.7006886
vt 0.09231954 0.65694433
vt 0.09231953 0.6569443
vt 0.09231954 0.65694433
vt 0.09231955 0.65694433
vt 0.09231954 0.65694433
vt 0.09231954 0.65694433
vt 0.09231954 0.65694433
vt 0.09231954 0.65694433
vt 0.09231954 0.65694433
vt 0.09231954 0.65694433
vt 0.09231955 0.65694433
vt 0.09231954 0.65694433
vt 0.09231953 0.65694433
vt 0.09231954 0.65694433
vt 0.09231954 0.65694433
vt 0.09231955 0.65694433
vt 0.09231954 0.65694433
vt 0.09231955 0.6569444
vt 0.09231954 0.65694433
vt 0.09231954 0.65694433
vt 0.09231954 0.65694433
vt 0.09231954 0.65694433
vt 0.09231955 0.65694433
vt 0.09231954 0.65694433
vt 0.09231953 0.6569443
vt 0.09231954 0.65694433
vt 0.096158445 0.9016041
vt 0.096158445 0.9016041
vt 0.096158445 0.9016041
vt 0.096158445 0.9016041
vt 0.096158445 0.9016041
vt 0.15126567 0.8407375
vt 0.15126567 0.83986306
vt 0.15173836 0.8440259
vt 0.15087804 0.838645
vt 0.15087804 0.8413331
vt 0.14989482 0.83812886
vt 0.14989482 0.840817
vt 0.14922357 0.8356774
vt 0.14922357 0.83836544
vt 0.14891158 0.8334839
vt 0.14891158 0.836172
vt 0.14870915 0.8313931
vt 0.14870915 0.83408123
vt 0.14850672 0.83064646
vt 0.14850672 0.83333457
vt 0.14850672 0.83333457
vt 0.14850672 0.83333457
vt 0.14855048 0.8363213
vt 0.14855048 0.8363213
vt 0.14855048 0.8363213
vt 0.14836356 0.84086365
vt 0.14836356 0.84086365
vt 0.14836356 0.84086365
vt 0.14814927 0.84173477
vt 0.14814927 0.84173477
vt 0.14814927 0.84173477
vt 0.1478438 0.8418592
vt 0.1478438 0.8418592
vt 0.1478438 0.8418592
vt 0.096158445 0.9016041
vt 0.096158445 0.9016041
vt 0.096158445 0.9016041
vt 0.096158445 0.9016041
vt 0.096158445 0.9016041
vt 0.096158445 0.9016041
vt 0.096158445 0.9016041
vt 0.096158445 0.9016041
vt 0.096158445 0.9016041
vt 0 0
vt 0 0
vt 0 0
vt 0 0
vt 0 0
vt 0 0
vt 0 0
vt 0 0
vt 0.16406247 0.7011718
vt 0.16406247 0.7011718
vt 0.16406247 0.7011718
vt 0.16406247 0.7011718
vt 0.1596246 0.8950672
vt 0.147605 0.8950672
vt 0.14761348 0.8879258
vt 0.14862034 0.88751554
vt 0.14932664 0.88464427
vt 0.15437375 0.8844904
vt 0.14994277 0.8696725
vt 0.15761453 0.8861915
vt 0.15889215 0.8842286
vt 0.15216129 0.87641
vt 0.15113297 0.86918026
vt 0.15046574 0.8622891
vt 0.1497985 0.859828
vt 0.22322825 0.7006886
vt 0.22322825 0.7006886
vt 0.22322825 0.7006886
vt 0.22322825 0.7006886
vt 0.22322825 0.7006886
vt 0.22322825 0.7006886
vt 0.22322825 0.7006886
vt 0.22322825 0.7006886
vt 0.22322825 0.7006886
vt 0.22322825 0.7006886
vt 0.22322825 0.7006886
vt 0.22322825 0.7006886
vt 0.09231955 0.65694433
vt 0.09231954 0.65694433
vt 0.09231953 0.6569443
vt 0.09231954 0.65694433
vt 0.09231954 0.65694433
vt 0.09231954 0.65694433
vt 0.09231954 0.65694433
vt 0.09231954 0.65694433
vt 0.09231954 0.65694433
vt 0.09231954 0.65694433
vt 0.09231954 0.65694433
vt 0.09231955 0.65694433
vt 0.09231954 0.65694433
vt 0.09231953 0.65694433
vt 0.09231955 0.65694433
vt 0.09231954 0.65694433
vt 0.09231955 0.6569444
vt 0.09231954 0.65694433
vt 0.09231954 0.65694433
vt 0.09231954 0.65694433
vt 0.09231954 0.65694433
vt 0.09231954 0.65694433
vt 0.09231954 0.65694433
vt 0.09231955 0.65694433
vt 0.09231954 0.65694433
vt 0.09231953 0.6569443
vt 0.096158445 0.9016041
vt 0.096158445 0.9016041
vt 0.096158445 0.9016041
vt 0.096158445 0.9016041
vt 0.096158445 0.9016041
vt 0.15126567 0.8407375
vt 0.15126567 0.83986306
vt 0.15173836 0.8440259
vt 0.15087804 0.838645
vt 0.15087804 0.8413331
vt 0.14989482 0.83812886
vt 0.14989482 0.840817
vt 0.14922357 0.8356774
vt 0.14922357 0.83836544
vt 0.14891158 0.8334839
vt 0.14891158 0.836172
vt 0.14870915 0.8313931
vt 0.14870915 0.83408123
vt 0.14850672 0.83064646
vt 0.14850672 0.83333457
vt 0 0
vt 0 0
vt 0 0
vt 0 0
vt 0 0
vt 0 0
vt 0 0
vt 0 0
vt 0.16406247 0.7011718
vt 0.16406247 0.7011718
vt 0.16406247 0.7011718
vt 0.16406247 0.7011718
vt 0.1596246 0.8950672
vt 0.147605 0.8950672
vt 0.14761348 0.8879258
vt 0.14862034 0.88751554
vt 0.14932664 0.88464427
vt 0.15437375 0.8844904
vt 0.14994277 0.8696725
vt 0.15761453 0.8861915
vt 0.15889215 0.8842286
vt 0.15216129 0.87641
vt 0.15113297 0.86918026
vt 0.15046574 0.8622891
vt 0.1497985 0.859828
vt 0.22322825 0.7006886
vt 0.22322825 0.7006886
vt 0.22322825 0.7006886
vt 0.22322825 0.7006886
vt 0.22322825 0.7006886
vt 0.22322825 0.7006886
vt 0.22322825 0.7006886
vt 0.22322825 0.7006886
vt 0.22322825 0.7006886
vt 0.22322825 0.7006886
vt 0.22322825 0.7006886
vt 0.22322825 0.7006886
vt 0.096158445 0.9016041
vt 0.096158445 0.9016041
vt 0.096158445 0.9016041
vt 0.096158445 0.9016041
vt 0.096158445 0.9016041
vt 0.15126567 0.8407375
vt 0.15173836 0.8440259
vt 0.15126567 0.83986306
vt 0.15087804 0.838645
vt 0.15087804 0.8413331
vt 0.14989482 0.83812886
vt 0.14989482 0.840817
vt 0.14922357 0.8356774
vt 0.14922357 0.83836544
vt 0.14891158 0.8334839
vt 0.14891158 0.836172
vt 0.14870915 0.8313931
vt 0.14870915 0.83408123
vt 0.14850672 0.83064646
vt 0.14850672 0.83333457
vt 0 0
vt 0 0
vt 0 0
vt 0 0
vt 0 0
vt 0 0
vt 0 0
vt 0 0
vt 0.16406247 0.7011718
vt 0.16406247 0.7011718
vt 0.16406247 0.7011718
vt 0.16406247 0.7011718
vt 0.15046574 0.8622891
vt 0.1497985 0.859828
vt 0.14994277 0.8696725
vt 0.15113297 0.86918026
vt 0.15216129 0.87641
vt 0.15437375 0.8844904
vt 0.14932664 0.88464427
vt 0.1596246 0.8950672
vt 0.14862034 0.88751554
vt 0.15761453 0.8861915
vt 0.15889215 0.8842286
vt 0.14761348 0.8879258
vt 0.147605 0.8950672
vt 0.22322825 0.7006886
vt 0.22322825 0.7006886
vt 0.22322825 0.7006886
vt 0.22322825 0.7006886
vt 0.22322825 0.7006886
vt 0.22322825 0.7006886
vt 0.22322825 0.7006886
vt 0.22322825 0.7006886
vt 0.22322825 0.7006886
vt 0.22322825 0.7006886
vt 0.22322825 0.7006886
vt 0.22322825 0.7006886
vt 0.15623227 0.7029817
vt 0.15623227 0.7029817
vt 0.15623227 0.7029817
vt 0.15623227 0.7029817
vt 0.15623227 0.7029817
vt 0.15623227 0.7029817
vt 0.15623227 0.7029817
vt 0.15623227 0.7029817
vt 0.15623227 0.7029817
vt 0.15623227 0.7029817
vt 0.09959161 0.9510286
vt 0.09959161 0.9510286
vt 0.09959161 0.9510286
vt 0.09959161 0.9510286
vt 0.09959161 0.9510286
vt 0.09959161 0.9510286
vt 0.09959161 0.9510286
vt 0.09959161 0.9510286
vt 0.09959161 0.9510286
vt 0.09959161 0.9510286
vt 0.09959161 0.9510286
vt 0.09959161 0.9510286
vt 0.09959161 0.9510286
vt 0.09959161 0.9510286
vt 0.09959161 0.9510286
vt 0.09959161 0.9510286
vt 0.09959161 0.9510286
vt 0.09959161 0.9510286
vt 0.09959161 0.9510286
vt 0.09959161 0.9510286
vt 0.09959161 0.9510286
vt 0.09959161 0.9510286
vt 0.09959161 0.9510286
vt 0.09959161 0.9510286
vt 0.09959161 0.9510286
vt 0.09959161 0.9510286
vt 0.09959161 0.9510286
vt 0.09959161 0.9510286
vt 0.09959161 0.9510286
vt 0.09959161 0.9510286
vt 0.09959161 0.9510286
vt 0.09959161 0.9510286
vt 0.09959161 0.9510286
vt 0.09959161 0.9510286
vt 0.09959161 0.9510286
vt 0.09959161 0.9510286
vt 0.15623227 0.7029817
vt 0.15623227 0.7029817
vt 0.15623227 0.7029817
vt 0.15623227 0.7029817
vt 0.15623227 0.7029817
vt 0.15623227 0.7029817
vt 0.15623227 0.7029817
vt 0.15623227 0.7029817
vt 0.15623227 0.7029817
vt 0.15623227 0.7029817
vt 0.15623227 0.7029817
vt 0.15623227 0.7029817
vt 0.15623227 0.7029817
vt 0.15623227 0.7029817
vt 0.15623227 0.7029817
vt 0.15623227 0.7029817
vt 0.15623227 0.7029817
vt 0.15623227 0.7029817
vt 0.15623227 0.7029817
vt 0.15623227 0.7029817
vt 0.15623227 0.7029817
vt 0.15623227 0.7029817
vt 0.15623227 0.7029817
vt 0.15623227 0.7029817
vt 0.15623227 0.7029817
vt 0.15623227 0.7029817
vt 0.15623227 0.7029817
vt 0.15623227 0.7029817
vt 0.15623227 0.7029817
vt 0.15623227 0.7029817
vt 0.15623227 0.7029817
vt 0.15623227 0.7029817
vt 0.15623227 0.7029817
vt 0.15623227 0.7029817
vt 0.15623227 0.7029817
vt 0.15623227 0.7029817
vt 0.15623227 0.7029817
vt 0.15623227 0.7029817
vt 0.15623227 0.7029817
vt 0.15623227 0.7029817
vt 0.15623227 0.7029817
vt 0.15623227 0.7029817
vt 0.15623227 0.7029817
vt 0.15623227 0.7029817
vt 0.15623227 0.7029817
vt 0.15623227 0.7029817
vt 0.15623227 0.7029817
vt 0.15623227 0.7029817
vt 0.15623227 0.7029817
vt 0.15623227 0.7029817
vt 0.15623227 0.7029817
vt 0.15623227 0.7029817
vt 0.15623227 0.7029817
vt 0.15623227 0.7029817
vt 0.15623227 0.7029817
vt 0.15623227 0.7029817
vt 0.15623227 0.7029817
vt 0.15623227 0.7029817
vt 0.15623227 0.7029817
vt 0.15623227 0.7029817
vt 0.15623227 0.7029817
vt 0.15623227 0.7029817
vt 0.15623227 0.7029817
vt 0.15623227 0.7029817
vt 0.15623227 0.7029817
vt 0.15623227 0.7029817
vt 0.15623227 0.7029817
vt 0.15623227 0.7029817
vt 0.15623227 0.7029817
vt 0.15623227 0.7029817
vt 0.15623227 0.7029817
vt 0.15623227 0.7029817
vt 0.15623227 0.7029817
vt 0.15623227 0.7029817
vt 0.15623227 0.7029817
vt 0.15623227 0.7029817
vt 0.15623227 0.7029817
vt 0.15623227 0.7029817
vt 0.15623227 0.7029817
vt 0.15623227 0.7029817
vt 0.15623227 0.7029817
vt 0.15623227 0.7029817
vt 0.15623227 0.7029817
vt 0.15623227 0.7029817
vt 0.15623227 0.7029817
vt 0.15623227 0.7029817
vt 0.15623227 0.7029817
vt 0.15623227 0.7029817
vt 0.15623227 0.7029817
vt 0.15623227 0.7029817
vt 0.15623227 0.7029817
vt 0.15623227 0.7029817
vt 0.15623227 0.7029817
vt 0.15623227 0.7029817
vt 0.15623227 0.7029817
vt 0.15623227 0.7029817
vt 0.15623227 0.7029817
vt 0.15623227 0.7029817
vt 0.15623227 0.7029817
vt 0.15623227 0.7029817
vt 0.15623227 0.7029817
vt 0.15623227 0.7029817
vt 0.15623227 0.7029817
vt 0.15623227 0.7029817
vt 0.15623227 0.7029817
vt 0.15623227 0.7029817
vt 0.15623227 0.7029817
vt 0.15623227 0.7029817
vt 0.15623227 0.7029817
vt 0.15623227 0.7029817
vt 0.15623227 0.7029817
vt 0.15623227 0.7029817
vt 0.15623227 0.7029817
vt 0.15623227 0.7029817
vt 0.15623227 0.7029817
vt 0.15623227 0.7029817
vt 0.15623227 0.7029817
vt 0.15623227 0.7029817
vt 0.15623227 0.7029817
vt 0.15623227 0.7029817
vt 0.15623227 0.7029817
vt 0.15623227 0.7029817
vt 0.15623227 0.7029817
vt 0.15623227 0.7029817
vt 0.15623227 0.7029817
vt 0.15623227 0.7029817
vt 0.15623227 0.7029817
vt 0.15623227 0.7029817
vt 0.15623227 0.7029817
vt 0.15623227 0.7029817
vt 0.15623227 0.7029817
vt 0.15623227 0.7029817
vt 0.15623227 0.7029817
vt 0.15623227 0.7029817
vt 0.15623227 0.7029817
vt 0.15623227 0.7029817
vt 0.15623227 0.7029817
vt 0.15623227 0.7029817
vt 0.15623227 0.7029817
vt 0.15623227 0.7029817
vt 0.15623227 0.7029817
vt 0.15623227 0.7029817
vt 0.15623227 0.7029817
vt 0.15623227 0.7029817
vt 0.15623227 0.7029817
vt 0.15623227 0.7029817
vt 0.15623227 0.7029817
vt 0.15623227 0.7029817
vt 0.15623227 0.7029817
vt 0.15623227 0.7029817
vt 0.15623227 0.7029817
vt 0.15623227 0.7029817
vt 0.15623227 0.7029817
vt 0.15623227 0.7029817
vt 0.15623227 0.7029817
vt 0.15623227 0.7029817
vt 0.15623227 0.7029817
vt 0.15623227 0.7029817
vt 0.15623227 0.7029817
vt 0.15623227 0.7029817
vt 0.15623227 0.7029817
vt 0.15623227 0.7029817
vt 0.15623227 0.7029817
vt 0.15623227 0.7029817
vt 0.15623227 0.7029817
vt 0.15623227 0.7029817
vt 0.15623227 0.7029817
vt 0.15623227 0.7029817
vt 0.15623227 0.7029817
vt 0.15623227 0.7029817
vt 0.15623227 0.7029817
vt 0.15623227 0.7029817
vt 0.15623227 0.7029817
vt 0.15623227 0.7029817
vt 0.15623227 0.7029817
vt 0.15623227 0.7029817
vt 0.15623227 0.7029817
vt 0.15623227 0.7029817
vt 0.15623227 0.7029817
vt 0.15623227 0.7029817
vt 0.15623227 0.7029817
vt 0.15623227 0.7029817
vt 0.15623227 0.7029817
vt 0.15623227 0.7029817
vt 0.15623227 0.7029817
vt 0.15623227 0.7029817
vt 0.15623227 0.7029817
vt 0.15623227 0.7029817
vt 0.15623227 0.7029817
vt 0.15623227 0.7029817
vt 0.15623227 0.7029817
vt 0.15623227 0.7029817
vt 0.15623227 0.7029817
vt 0.15623227 0.7029817
vt 0.15623227 0.7029817
vt 0.15623227 0.7029817
vt 0.15623227 0.7029817
vt 0.15623227 0.7029817
vt 0.15623227 0.7029817
vt 0.15623227 0.7029817
vt 0.15623227 0.7029817
vt 0.15623227 0.7029817
vt 0.15623227 0.7029817
vt 0.15623227 0.7029817
vt 0.15623227 0.7029817
vt 0.15623227 0.7029817
vt 0.15623227 0.7029817
vt 0.15623227 0.7029817
vt 0.15623227 0.7029817
vt 0.15623227 0.7029817
vt 0.15623227 0.7029817
vt 0.15623227 0.7029817
vt 0.15623227 0.7029817
vt 0.15623227 0.7029817
vt 0.15623227 0.7029817
vt 0.15623227 0.7029817
vt 0.15623227 0.7029817
vt 0.15623227 0.7029817
vt 0.15623227 0.7029817
vt 0.15623227 0.7029817
vt 0.15623227 0.7029817
vt 0.15623227 0.7029817
vt 0.15623227 0.7029817
vt 0.15623227 0.7029817
vt 0.09395896 0.9586667
vt 0.09395896 0.9586667
vt 0.09395896 0.9586667
vt 0.09395896 0.9586667
vt 0.09395896 0.9586666
vt 0.09395896 0.9586667
vt 0.09395896 0.9586667
vt 0.09395896 0.95866656
vt 0.09395896 0.9586667
vt 0.09395896 0.95866674
vt 0.09395896 0.95866674
vt 0.09395896 0.9586667
vt 0.09395896 0.9586667
vt 0.09395896 0.9586667
vt 0.09395896 0.9586667
vt 0.09395896 0.9586667
vt 0.09395896 0.9586667
vt 0.09395896 0.9586667
vt 0.09395896 0.9586667
vt 0.09395896 0.9586667
vt 0.09395896 0.9586667
vt 0.09395896 0.9586667
vt 0.09395896 0.9586667
vt 0.09395896 0.9586667
vt 0.09395896 0.9586667
vt 0.09395896 0.9586667
vt 0.09395896 0.9586667
vt 0.09395896 0.9586667
vt 0.09395896 0.9586667
vt 0.09395896 0.9586667
vt 0.09395896 0.95866674
vt 0.09395896 0.9586667
vt 0.09395896 0.9586667
vt 0.09395896 0.9586666
vt 0.09395896 0.9586667
vt 0.09395896 0.9586667
vt 0.09395896 0.9586667
vt 0.09395896 0.9586667
vt 0.09395896 0.9586667
vt 0.09395896 0.9586666
vt 0.09395896 0.9586667
vt 0.09395896 0.9586667
vt 0.09395896 0.9586667
vt 0.09395896 0.9586667
vt 0.09395896 0.9586667
vt 0.09395896 0.9586667
vt 0.09395896 0.95866674
vt 0.09395896 0.9586667
vn -0.51947004 0.81061894 0.2702737
vn -0.51947004 0.81061894 0.2702737
vn -0.51947004 0.81061894 0.2702737
vn -0 1 0
vn -0 1 0
vn -0 1 0
vn 0.51947004 0.81061894 0.2702737
vn 0.51947004 0.81061894 0.2702737
vn 0.51947004 0.81061894 0.2702737
vn -0 1 0
vn -0 1 0
vn -0 1 0
vn -0.5194722 -0.8106175 0.2702736
vn -0.5194722 -0.8106175 0.2702736
vn -0.5194722 -0.8106175 0.2702736
vn -0 -1 0
vn -0 -1 0
vn -0 -1 0
vn 0.5194722 -0.8106175 0.2702736
vn 0.5194722 -0.8106175 0.2702736
vn 0.5194722 -0.8106175 0.2702736
vn -0 -1 0
vn -0 -1 0
vn -0 -1 0
vn 0.45718282 -0.4571831 -0.7628679
vn 0.45718282 -0.4571831 -0.7628679
vn 0.45718282 -0.4571831 -0.7628679
vn -0.45718294 0.457184 -0.7628674
vn -0.45718294 0.457184 -0.7628674
vn -0.45718294 0.457184 -0.7628674
vn -0.62238824 0 -0.78270864
vn -0.62238824 0 -0.78270864
vn -0.62238824 0 -0.78270864
vn -0.45718098 -0.4571831 -0.76286906
vn -0.45718098 -0.4571831 -0.76286906
vn -0.45718098 -0.4571831 -0.76286906
vn 0.45718402 0.45718428 -0.7628665
vn 0.45718402 0.45718428 -0.7628665
vn 0.45718402 0.45718428 -0.7628665
vn 0.62239045 0 -0.7827069
vn 0.62239045 0 -0.7827069
vn 0.62239045 0 -0.7827069
vn -0.602456 0.79776305 -0.024916269
vn -0.602456 0.79776305 -0.024916269
vn -0.602456 0.79776305 -0.024916269
vn -0.602456 0.79776305 -0.024916269
vn -0.602456 0.79776305 -0.024916269
vn -0.3103469 0.9459949 0.093693085
vn -0 0 1
vn -0.92646164 0 0.37638935
vn -0.99376595 0 0.111486614
vn -0.29872313 0.95388144 0.029573224
vn -0.98710537 0 0.16007197
vn -0.28840292 0.95697886 0.031861655
vn -0.923435 0 0.38375485
vn -0.28733838 0.9549157 0.074650005
vn -0.8298889 0 0.5579288
vn -0.28526765 0.95111597 0.11832488
vn -0.9162812 0 0.4005354
vn -0.29670915 0.94671035 0.12531248
vn -0.8917625 0 -0.45250383
vn -0.15864009 0.7291706 -0.66569024
vn 0.09851558 0 -0.9951355
vn -0.15864009 -0.7291706 -0.66569024
vn -0.15650007 0 -0.9876779
vn -0.23518462 0.6195189 -0.7489223
vn -0.23518462 -0.6195189 -0.7489223
vn -0.7811635 0 -0.6243265
vn -0.6771394 0.5825895 -0.44952384
vn -0.6771394 -0.5825895 -0.44952384
vn -0.987283 0 -0.15897241
vn -0.7821139 0.61465544 -0.10245275
vn -0.7821139 -0.61465544 -0.10245275
vn -0.9995796 0 0.028992783
vn -0.83723056 0.5467192 0.0119634885
vn -0.83723056 -0.5467192 0.0119634885
vn -0.9015641 0.40944394 -0.13977736
vn -0.8726241 0 -0.48839238
vn -0.82420117 0.5002095 -0.26548642
vn -0.97777915 0 -0.20963745
vn -0.83723056 0.5467192 0.0119634885
vn -0.9995796 0 0.028992783
vn -0.83723056 -0.5467192 0.0119634885
vn -0.9015641 -0.40944394 -0.13977736
vn -0.82420117 -0.5002095 -0.26548642
vn -0.67894787 0 -0.73418653
vn -0.44103009 0.5414986 -0.71573156
vn -0.71432686 0.6907662 0.11215719
vn -0.9695599 0 0.24485439
vn -0.6151725 0.7872389 0.042635113
vn -0.71432686 -0.6907662 0.11215719
vn -0.44103009 -0.5414986 -0.71573156
vn -0.6151725 -0.7872389 0.042635113
vn -0.99998236 0 0.005951186
vn -0.4947107 0.8443042 0.20594126
vn -0.9982529 0 -0.059085198
vn -0.4947107 -0.8443042 0.20594126
vn -0 0.99999034 0.004394757
vn -0.18055052 0.9013487 0.39366484
vn -0 0.9242876 0.38169667
vn -0.27806488 0.6423479 -0.7141912
vn 0.18055052 0.9013487 0.39366484
vn -0 0.8065835 -0.59112024
vn 0.27806488 0.6423479 -0.7141912
vn 0.6151725 0.7872389 0.042635113
vn -0 -0.99999034 0.004394757
vn -0.18055052 -0.9013487 0.39366484
vn -0 -0.9242876 0.38169667
vn -0.27809367 -0.6423744 -0.71415627
vn 0.18055052 -0.9013487 0.39366484
vn -0 -0.8065835 -0.59112024
vn 0.27809367 -0.6423744 -0.71415627
vn 0.6151725 -0.7872389 0.042635113
vn 0.99998236 0 0.005951186
vn 0.4947107 0.8443042 0.20594126
vn 0.9982529 0 -0.059085198
vn 0.4947107 -0.8443042 0.20594126
vn 0.9695599 0 0.24485439
vn 0.71432686 0.6907662 0.11215719
vn 0.71432686 -0.6907662 0.11215719
vn 0.67894787 0 -0.73418653
vn 0.44103009 0.5414986 -0.71573156
vn 0.44103009 -0.5414986 -0.71573156
vn -0 0 -1
vn -0 0 -1
vn -0 0 -1
vn -0 0 -1
vn -0 0 -1
vn -0 0 -1
vn -0 0 -1
vn -0 0 -1
vn -0 0 -1
vn -0 0 -1
vn -0 0 -1
vn -0 0 -1
vn -0 0 -1
vn 0.3923193 0.114265785 0.9127042
vn 0.3923193 0.114265785 0.9127042
vn 0.3923193 0.114265785 0.9127042
vn 0.3923193 0.114265785 0.9127042
vn -0.032985974 0.12947898 0.9910334
vn -0.032985974 0.12947898 0.9910334
vn -0.032985974 0.12947898 0.9910334
vn -0.032985974 0.12947898 0.9910334
vn -0.24484557 0.9694947 -0.011435531
vn -0.24484557 0.9694947 -0.011435531
vn -0.24484557 0.9694947 -0.011435531
vn -0.24484557 0.9694947 -0.011435531
vn -0.18357298 0.9829737 0.007978738
vn -0.18357298 0.9829737 0.007978738
vn -0.18357298 0.9829737 0.007978738
vn -0.18357298 0.9829737 0.007978738
vn -0.18357298 0.9829737 0.007978738
vn -0.18357298 0.9829737 0.007978738
vn -0.18357298 0.9829737 0.007978738
vn -0.18357298 0.9829737 0.007978738
vn -0.18357298 0.9829737 0.007978738
vn -0.18357298 0.9829737 0.007978738
vn -0.18357298 0.9829737 0.007978738
vn -0.18357298 0.9829737 0.007978738
vn -0.18357298 0.9829737 0.007978738
vn 0.3449624 0.6096015 0.71371347
vn 0.3449624 0.6096015 0.71371347
vn 0.3449624 0.6096015 0.71371347
vn 0.3449624 0.6096015 0.71371347
vn -0.36692113 0.6031325 0.70823735
vn -0.36692113 0.6031325 0.70823735
vn -0.36692113 0.6031325 0.70823735
vn -0.36692113 0.6031325 0.70823735
vn -0.871385 0.3743964 0.31704178
vn -0.871385 0.3743964 0.31704178
vn -0.871385 0.3743964 0.31704178
vn -0.871385 0.3743964 0.31704178
vn 0.4901091 0.8716611 0
vn -0 0.6214367 -0.7834644
vn -0 1 0
vn 0.29997075 0.53215885 -0.79172254
vn 0.861107 0.5084239 0
vn 0.53292537 0.31407255 -0.78571546
vn 1 0 0
vn 0.60946006 0 -0.7928169
vn 0.53292537 -0.31407255 -0.78571546
vn 0.861107 -0.5084239 0
vn 0.29997075 -0.53215885 -0.79172254
vn 0.4901091 -0.8716611 0
vn -0 -0.6214367 -0.7834644
vn -0 -1 0
vn -0.4901091 -0.8716611 0
vn -0.29997075 -0.53215885 -0.79172254
vn -0.861107 -0.5084239 0
vn -0.53292537 -0.31407255 -0.78571546
vn -1 0 0
vn -0.60946006 0 -0.7928169
vn -0.53292537 0.31407255 -0.78571546
vn -0.861107 0.5084239 0
vn -0.29997075 0.53215885 -0.79172254
vn -0.4901091 0.8716611 0
vn -0 0.6214367 -0.7834644
vn -0 1 0
vn 0.60245615 0.797763 -0.024916252
vn 0.60245615 0.797763 -0.024916252
vn 0.60245615 0.797763 -0.024916252
vn 0.60245615 0.797763 -0.024916252
vn 0.60245615 0.797763 -0.024916252
vn 0.3103469 0.9459949 0.093693085
vn 0.92646164 0 0.37638935
vn -0 0 1
vn 0.99376595 0 0.111486614
vn 0.29872313 0.95388144 0.029573224
vn 0.98710537 0 0.16007197
vn 0.28840292 0.95697886 0.031861655
vn 0.923435 0 0.38375485
vn 0.28733838 0.9549157 0.074650005
vn 0.8298889 0 0.5579288
vn 0.28526765 0.95111597 0.11832488
vn 0.9162812 0 0.4005354
vn 0.29670915 0.94671035 0.12531248
vn 0.8917625 0 -0.45250383
vn 0.15864009 0.7291706 -0.66569024
vn -0.09851558 0 -0.9951355
vn 0.15864009 -0.7291706 -0.66569024
vn 0.15650007 0 -0.9876779
vn 0.23518462 0.6195189 -0.7489223
vn 0.23518462 -0.6195189 -0.7489223
vn 0.7811635 0 -0.6243265
vn 0.6771394 0.5825895 -0.44952384
vn 0.6771394 -0.5825895 -0.44952384
vn 0.987283 0 -0.15897241
vn 0.7821139 0.61465544 -0.10245275
vn 0.7821139 -0.61465544 -0.10245275
vn 0.9995796 0 0.028992783
vn 0.83723056 0.5467192 0.0119634885
vn 0.83723056 -0.5467192 0.0119634885
vn 0.9015641 0.40944394 -0.13977736
vn 0.82420117 0.5002095 -0.26548642
vn 0.8726241 0 -0.48839238
vn 0.97777915 0 -0.20963745
vn 0.83723056 0.5467192 0.0119634885
vn 0.9995796 0 0.028992783
vn 0.83723056 -0.5467192 0.0119634885
vn 0.9015641 -0.40944394 -0.13977736
vn 0.82420117 -0.5002095 -0.26548642
vn -0.3923194 0.11426569 0.9127041
vn -0.3923194 0.11426569 0.9127041
vn -0.3923194 0.11426569 0.9127041
vn -0.3923194 0.11426569 0.9127041
vn 0.032985967 0.12947898 0.9910334
vn 0.032985967 0.12947898 0.9910334
vn 0.032985967 0.12947898 0.9910334
vn 0.032985967 0.12947898 0.9910334
vn 0.24484557 0.9694947 -0.011435521
vn 0.24484557 0.9694947 -0.011435521
vn 0.24484557 0.9694947 -0.011435521
vn 0.24484557 0.9694947 -0.011435521
vn 0.18357296 0.9829737 0.007978733
vn 0.18357296 0.9829737 0.007978733
vn 0.18357296 0.9829737 0.007978733
vn 0.18357296 0.9829737 0.007978733
vn 0.18357296 0.9829737 0.007978733
vn 0.18357296 0.9829737 0.007978733
vn 0.18357296 0.9829737 0.007978733
vn 0.18357296 0.9829737 0.007978733
vn 0.18357296 0.9829737 0.007978733
vn 0.18357296 0.9829737 0.007978733
vn 0.18357296 0.9829737 0.007978733
vn 0.18357296 0.9829737 0.007978733
vn 0.18357296 0.9829737 0.007978733
vn -0.3449622 0.60960144 0.7137136
vn -0.3449622 0.60960144 0.7137136
vn -0.3449622 0.60960144 0.7137136
vn -0.3449622 0.60960144 0.7137136
vn 0.36691883 0.603133 0.708238
vn 0.36691883 0.603133 0.708238
vn 0.36691883 0.603133 0.708238
vn 0.36691883 0.603133 0.708238
vn 0.87138563 0.37439615 0.31704038
vn 0.87138563 0.37439615 0.31704038
vn 0.87138563 0.37439615 0.31704038
vn 0.87138563 0.37439615 0.31704038
vn 0.29997557 0.532137 0.79173535
vn -0 1 0
vn -0 0.6214367 0.7834644
vn 0.4901091 0.8716611 0
vn 0.53292537 0.31407255 0.78571546
vn 0.861107 0.5084239 0
vn 0.60946006 0 0.7928169
vn 1 0 0
vn 0.861107 -0.5084239 0
vn 0.53292537 -0.31407255 0.78571546
vn 0.4901091 -0.8716611 0
vn 0.29997557 -0.532137 0.79173535
vn -0 -1 0
vn -0 -0.6214367 0.7834644
vn -0.29997557 -0.532137 0.79173535
vn -0.4901091 -0.8716611 0
vn -0.53292537 -0.31407255 0.78571546
vn -0.861107 -0.5084239 0
vn -0.60946006 0 0.7928169
vn -1 0 0
vn -0.861107 0.5084239 0
vn -0.53292537 0.31407255 0.78571546
vn -0.4901091 0.8716611 0
vn -0.29997557 0.532137 0.79173535
vn -0 1 0
vn -0 0.6214367 0.7834644
vn -0.6024573 -0.79776216 -0.02491613
vn -0.6024573 -0.79776216 -0.02491613
vn -0.6024573 -0.79776216 -0.02491613
vn -0.6024573 -0.79776216 -0.02491613
vn -0.6024573 -0.79776216 -0.02491613
vn -0.3103469 -0.9459949 0.093693085
vn -0.92646164 0 0.37638935
vn -0 0 1
vn -0.99376595 0 0.111486614
vn -0.29872313 -0.95388144 0.029573224
vn -0.98710537 0 0.16007197
vn -0.28840292 -0.95697886 0.031861655
vn -0.923435 0 0.38375485
vn -0.28733838 -0.9549157 0.074650005
vn -0.8298889 0 0.5579288
vn -0.28526765 -0.95111597 0.11832488
vn -0.9162812 0 0.4005354
vn -0.29670915 -0.94671035 0.12531248
vn -0.8917625 0 -0.45250383
vn -0.15864009 -0.7291706 -0.66569024
vn 0.3923207 -0.11426561 0.91270363
vn 0.3923207 -0.11426561 0.91270363
vn 0.3923207 -0.11426561 0.91270363
vn 0.3923207 -0.11426561 0.91270363
vn -0.032985974 -0.12947898 0.9910334
vn -0.032985974 -0.12947898 0.9910334
vn -0.032985974 -0.12947898 0.9910334
vn -0.032985974 -0.12947898 0.9910334
vn -0.24484551 -0.9694947 -0.011435167
vn -0.24484551 -0.9694947 -0.011435167
vn -0.24484551 -0.9694947 -0.011435167
vn -0.24484551 -0.9694947 -0.011435167
vn -0.1835731 -0.9829737 0.007979042
vn -0.1835731 -0.9829737 0.007979042
vn -0.1835731 -0.9829737 0.007979042
vn -0.1835731 -0.9829737 0.007979042
vn -0.1835731 -0.9829737 0.007979042
vn -0.1835731 -0.9829737 0.007979042
vn -0.1835731 -0.9829737 0.007979042
vn -0.1835731 -0.9829737 0.007979042
vn -0.1835731 -0.9829737 0.007979042
vn -0.1835731 -0.9829737 0.007979042
vn -0.1835731 -0.9829737 0.007979042
vn -0.1835731 -0.9829737 0.007979042
vn -0.1835731 -0.9829737 0.007979042
vn 0.3449622 -0.6096017 0.71371335
vn 0.3449622 -0.6096017 0.71371335
vn 0.3449622 -0.6096017 0.71371335
vn 0.3449622 -0.6096017 0.71371335
vn -0.36692315 -0.60313153 0.7082371
vn -0.36692315 -0.60313153 0.7082371
vn -0.36692315 -0.60313153 0.7082371
vn -0.36692315 -0.60313153 0.7082371
vn -0.8713845 -0.37439722 0.31704217
vn -0.8713845 -0.37439722 0.31704217
vn -0.8713845 -0.37439722 0.31704217
vn -0.8713845 -0.37439722 0.31704217
vn 0.60245705 -0.7977622 -0.024916023
vn 0.60245705 -0.7977622 -0.024916023
vn 0.60245705 -0.7977622 -0.024916023
vn 0.60245705 -0.7977622 -0.024916023
vn 0.60245705 -0.7977622 -0.024916023
vn 0.3103469 -0.9459949 0.093693085
vn -0 0 1
vn 0.92646164 0 0.37638935
vn 0.99376595 0 0.111486614
vn 0.29872313 -0.95388144 0.029573224
vn 0.98710537 0 0.16007197
vn 0.28840292 -0.95697886 0.031861655
vn 0.923435 0 0.38375485
vn 0.28733838 -0.9549157 0.074650005
vn 0.8298889 0 0.5579288
vn 0.28526765 -0.95111597 0.11832488
vn 0.9162812 0 0.4005354
vn 0.29670915 -0.94671035 0.12531248
vn 0.8917625 0 -0.45250383
vn 0.15864009 -0.7291706 -0.66569024
vn -0.3923204 -0.114265606 0.91270375
vn -0.3923204 -0.114265606 0.91270375
vn -0.3923204 -0.114265606 0.91270375
vn -0.3923204 -0.114265606 0.91270375
vn 0.032985967 -0.12947899 0.9910334
vn 0.032985967 -0.12947899 0.9910334
vn 0.032985967 -0.12947899 0.9910334
vn 0.032985967 -0.12947899 0.9910334
vn 0.24484554 -0.9694947 -0.011435126
vn 0.24484554 -0.9694947 -0.011435126
vn 0.24484554 -0.9694947 -0.011435126
vn 0.24484554 -0.9694947 -0.011435126
vn 0.1835731 -0.9829737 0.007979066
vn 0.1835731 -0.9829737 0.007979066
vn 0.1835731 -0.9829737 0.007979066
vn 0.1835731 -0.9829737 0.007979066
vn 0.1835731 -0.9829737 0.007979066
vn 0.1835731 -0.9829737 0.007979066
vn 0.1835731 -0.9829737 0.007979066
vn 0.1835731 -0.9829737 0.007979066
vn 0.1835731 -0.9829737 0.007979066
vn 0.1835731 -0.9829737 0.007979066
vn 0.1835731 -0.9829737 0.007979066
vn 0.1835731 -0.9829737 0.007979066
vn 0.1835731 -0.9829737 0.007979066
vn -0.34496203 -0.6096017 0.71371347
vn -0.34496203 -0.6096017 0.71371347
vn -0.34496203 -0.6096017 0.71371347
vn -0.34496203 -0.6096017 0.71371347
vn 0.36692524 -0.603131 0.70823646
vn 0.36692524 -0.603131 0.70823646
vn 0.36692524 -0.603131 0.70823646
vn 0.36692524 -0.603131 0.70823646
vn 0.8713853 -0.37439695 0.31704068
vn 0.8713853 -0.37439695 0.31704068
vn 0.8713853 -0.37439695 0.31704068
vn 0.8713853 -0.37439695 0.31704068
vn -0 -0.9170666 0.398734
vn -0 -0.9170666 0.398734
vn -0 -0.9170666 0.398734
vn -0 -0.9170666 0.398734
vn -0 -0.9170667 0.39873382
vn -0 -0.9170667 0.39873382
vn -0.66026294 0.6602626 0.35791937
vn -0.66026294 0.6602626 0.35791937
vn -0.66026294 0.6602626 0.35791937
vn -0.66026294 0.6602626 0.35791937
vn -0 -0.57770085 -0.8162486
vn -0 -0.57770085 -0.8162486
vn -0 -0.57770085 -0.8162486
vn -0 -0.57770085 -0.8162486
vn -0 -0.5777012 -0.81624836
vn -0 -0.5777012 -0.81624836
vn -0.42584935 0.42584172 -0.7983177
vn -0.42584935 0.42584172 -0.7983177
vn -0.42584935 0.42584172 -0.7983177
vn -0.42584935 0.42584172 -0.7983177
vn -0.5777105 0 -0.8162417
vn -0.5777105 0 -0.8162417
vn -0.5777105 0 -0.8162417
vn -0.5777105 0 -0.8162417
vn -0.42584014 -0.42583704 -0.7983251
vn -0.42584014 -0.42583704 -0.7983251
vn -0.42584014 -0.42583704 -0.7983251
vn -0.42584014 -0.42583704 -0.7983251
vn 0.42584097 0.42583773 -0.7983243
vn 0.42584097 0.42583773 -0.7983243
vn 0.42584097 0.42583773 -0.7983243
vn 0.42584097 0.42583773 -0.7983243
vn -0 0.57771057 -0.8162417
vn -0 0.57771057 -0.8162417
vn -0 0.57771057 -0.8162417
vn -0 0.57771057 -0.8162417
vn -0 0.5777107 -0.8162415
vn -0 0.5777107 -0.8162415
vn 0.57770133 0 -0.8162482
vn 0.57770133 0 -0.8162482
vn 0.57770133 0 -0.8162482
vn 0.57770133 0 -0.8162482
vn 0.42583537 -0.42583215 -0.7983303
vn 0.42583537 -0.42583215 -0.7983303
vn 0.42583537 -0.42583215 -0.7983303
vn 0.42583537 -0.42583215 -0.7983303
vn -0 0 1
vn -0 0 1
vn -0 0 1
vn -0 0 1
vn -0 0 1
vn -0 0 1
vn -0 0 1
vn -0 0 1
vn -0 0 1
vn -0 0 1
vn -0.65472645 0.6547257 0.37771368
vn -0.65472645 0.6547257 0.37771368
vn -0.65472645 0.6547257 0.37771368
vn -0.65472645 0.6547257 0.37771368
vn -0.917067 0 0.3987332
vn -0.917067 0 0.3987332
vn -0.917067 0 0.3987332
vn -0.917067 0 0.3987332
vn -0.65472585 -0.654726 0.3777141
vn -0.65472585 -0.654726 0.3777141
vn -0.65472585 -0.654726 0.3777141
vn -0.65472585 -0.654726 0.3777141
vn 0.65472627 0.6547256 0.37771392
vn 0.65472627 0.6547256 0.37771392
vn 0.65472627 0.6547256 0.37771392
vn 0.65472627 0.6547256 0.37771392
vn -0 0.9170668 0.39873356
vn -0 0.9170668 0.39873356
vn -0 0.9170668 0.39873356
vn -0 0.9170668 0.39873356
vn -0 0.9170669 0.39873332
vn -0 0.9170669 0.39873332
vn 0.9170668 0 0.3987336
vn 0.9170668 0 0.3987336
vn 0.9170668 0 0.3987336
vn 0.9170668 0 0.3987336
vn 0.6547261 -0.6547256 0.37771434
vn 0.6547261 -0.6547256 0.37771434
vn 0.6547261 -0.6547256 0.37771434
vn 0.6547261 -0.6547256 0.37771434
vn -0 0.8711782 -0.49096698
vn -0 0.8711782 -0.49096698
vn -0 0.8711782 -0.49096698
vn -0 0.8711782 -0.49096698
vn -0 0.8711782 -0.49096698
vn -0 0.8711782 -0.49096698
vn 0.62510246 -0.62510294 -0.4674327
vn 0.62510246 -0.62510294 -0.4674327
vn 0.62510246 -0.62510294 -0.4674327
vn 0.62510246 -0.62510294 -0.4674327
vn 0.8711779 0 -0.4909675
vn 0.8711779 0 -0.4909675
vn 0.8711779 0 -0.4909675
vn 0.8711779 0 -0.4909675
vn 0.6251019 0.62510335 -0.4674329
vn 0.6251019 0.62510335 -0.4674329
vn 0.6251019 0.62510335 -0.4674329
vn 0.6251019 0.62510335 -0.4674329
vn -0.6251026 -0.6251032 -0.46743214
vn -0.6251026 -0.6251032 -0.46743214
vn -0.6251026 -0.6251032 -0.46743214
vn -0.6251026 -0.6251032 -0.46743214
vn -0.87117827 0 -0.49096683
vn -0.87117827 0 -0.49096683
vn -0.87117827 0 -0.49096683
vn -0.87117827 0 -0.49096683
vn -0 -0.87117827 -0.49096674
vn -0 -0.87117827 -0.49096674
vn -0 -0.87117827 -0.49096674
vn -0 -0.87117827 -0.49096674
vn -0 -0.87117803 -0.49096733
vn -0 -0.87117803 -0.49096733
vn -0.62510204 0.6251035 -0.46743247
vn -0.62510204 0.6251035 -0.46743247
vn -0.62510204 0.6251035 -0.46743247
vn -0.62510204 0.6251035 -0.46743247
vn -0.707107 -0.70710653 0
vn -0.707107 -0.70710653 0
vn -0.707107 -0.70710653 0
vn -0.707107 -0.70710653 0
vn -0 -0.9257228 0.37820277
vn -0 -0.9257228 0.37820277
vn -0 -0.9257228 0.37820277
vn -0 -0.9257228 0.37820277
vn -0 -0.9257228 0.37820292
vn -0 -0.9257228 0.37820292
vn -0.92572224 0 0.37820402
vn -0.92572224 0 0.37820402
vn -0.92572224 0 0.37820402
vn -0.92572224 0 0.37820402
vn -0.6602635 -0.6602631 0.3579173
vn -0.6602635 -0.6602631 0.3579173
vn -0.6602635 -0.6602631 0.3579173
vn -0.6602635 -0.6602631 0.3579173
vn 0.6602627 0.6602624 0.35791993
vn 0.6602627 0.6602624 0.35791993
vn 0.6602627 0.6602624 0.35791993
vn 0.6602627 0.6602624 0.35791993
vn -0 0.92572165 0.37820557
vn -0 0.92572165 0.37820557
vn -0 0.92572165 0.37820557
vn -0 0.92572165 0.37820557
vn -0 0.92572165 0.37820566
vn -0 0.92572165 0.37820566
vn 0.9257221 0 0.3782042
vn 0.9257221 0 0.3782042
vn 0.9257221 0 0.3782042
vn 0.9257221 0 0.3782042
vn 0.6602637 -0.6602627 0.35791785
vn 0.6602637 -0.6602627 0.35791785
vn 0.6602637 -0.6602627 0.35791785
vn 0.6602637 -0.6602627 0.35791785
vn 0.09997632 0.09997711 -0.9899541
vn 0.09997632 0.09997711 -0.9899541
vn 0.09997632 0.09997711 -0.9899541
vn 0.09997632 0.09997711 -0.9899541
vn 0.70710725 0.7071063 0
vn 0.70710725 0.7071063 0
vn 0.70710725 0.7071063 0
vn 0.70710725 0.7071063 0
vn -0 1 0
vn -0 1 0
vn -0 1 0
vn -0 1 0
vn -0 1 0
vn -0 1 0
vn 1 0 0
vn 1 0 0
vn 1 0 0
vn 1 0 0
vn 0.70710725 -0.7071063 0
vn 0.70710725 -0.7071063 0
vn 0.70710725 -0.7071063 0
vn 0.70710725 -0.7071063 0
vn -0 -1 0
vn -0 -1 0
vn -0 -1 0
vn -0 -1 0
vn -0 -1 0
vn -0 -1 0
vn -0.707107 0.70710653 0
vn -0.707107 0.70710653 0
vn -0.707107 0.70710653 0
vn -0.707107 0.70710653 0
vn -1 0 0
vn -1 0 0
vn -1 0 0
vn -1 0 0
vn 0.9485802 0 0.31653696
vn 0.9485802 0 0.31653696
vn 0.9485802 0 0.31653696
vn 0.9485802 0 0.31653696
vn -0 0.13281362 -0.9911411
vn -0 0.13281362 -0.9911411
vn -0 0.13281362 -0.9911411
vn -0 0.13281362 -0.9911411
vn -0 0.13281368 -0.99114096
vn -0 0.13281368 -0.99114096
vn 0.13281497 0 -0.9911409
vn 0.13281497 0 -0.9911409
vn 0.13281497 0 -0.9911409
vn 0.13281497 0 -0.9911409
vn 0.09997645 -0.09997838 -0.989954
vn 0.09997645 -0.09997838 -0.989954
vn 0.09997645 -0.09997838 -0.989954
vn 0.09997645 -0.09997838 -0.989954
vn -0 -0.13281596 -0.9911408
vn -0 -0.13281596 -0.9911408
vn -0 -0.13281596 -0.9911408
vn -0 -0.13281596 -0.9911408
vn -0 -0.13281587 -0.9911408
vn -0 -0.13281587 -0.9911408
vn -0.09997777 0.09997752 -0.989954
vn -0.09997777 0.09997752 -0.989954
vn -0.09997777 0.09997752 -0.989954
vn -0.09997777 0.09997752 -0.989954
vn -0.13281573 0 -0.9911408
vn -0.13281573 0 -0.9911408
vn -0.13281573 0 -0.9911408
vn -0.13281573 0 -0.9911408
vn -0.09997793 -0.09997883 -0.98995376
vn -0.09997793 -0.09997883 -0.98995376
vn -0.09997793 -0.09997883 -0.98995376
vn -0.09997793 -0.09997883 -0.98995376
vn 0.67480826 -0.6748067 0.29878005
vn 0.67480826 -0.6748067 0.29878005
vn 0.67480826 -0.6748067 0.29878005
vn 0.67480826 -0.6748067 0.29878005
vn -0 0.94858015 0.31653708
vn -0 0.94858015 0.31653708
vn -0 0.94858015 0.31653708
vn -0 0.94858015 0.31653708
vn -0 0.94858015 0.3165371
vn -0 0.94858015 0.3165371
vn -0 -0.9485802 0.3165368
vn -0 -0.9485802 0.3165368
vn -0 -0.9485802 0.3165368
vn -0 -0.9485802 0.3165368
vn -0 -0.94858015 0.31653705
vn -0 -0.94858015 0.31653705
vn -0.67480785 0.6748071 0.29878047
vn -0.67480785 0.6748071 0.29878047
vn -0.67480785 0.6748071 0.29878047
vn -0.67480785 0.6748071 0.29878047
vn -0.94858015 0 0.31653705
vn -0.94858015 0 0.31653705
vn -0.94858015 0 0.31653705
vn -0.94858015 0 0.31653705
vn -0.67480797 -0.67480725 0.29878002
vn -0.67480797 -0.67480725 0.29878002
vn -0.67480797 -0.67480725 0.29878002
vn -0.67480797 -0.67480725 0.29878002
vn 0.6748073 0.67480767 0.2987805
vn 0.6748073 0.67480767 0.2987805
vn 0.6748073 0.67480767 0.2987805
vn 0.6748073 0.67480767 0.2987805
vn -0 0.62239134 -0.78270626
vn -0 0.62239134 -0.78270626
vn -0 0.62239134 -0.78270626
vn -0 0.6223919 -0.7827057
vn -0 -0.622389 -0.782708
vn -0 -0.622389 -0.782708
vn -0 -0.622389 -0.782708
vn -0 -0.6223898 -0.7827075
vn -0.6386758 0.37740073 -0.6705684
vn -0.53292537 0.31407255 -0.78571546
vn -0.29997075 0.53215885 -0.79172254
vn -0.36485934 0.6496053 -0.66700125
vn -0 0.6214367 -0.7834644
vn -0.74717855 0 -0.66462326
vn -0.60946006 0 -0.7928169
vn -0 0.73868763 -0.6740479
vn 0.29997075 0.53215885 -0.79172254
vn -0.6386758 -0.37740073 -0.6705684
vn -0.53292537 -0.31407255 -0.78571546
vn 0.36485934 0.6496053 -0.66700125
vn 0.53292537 0.31407255 -0.78571546
vn -0.36485934 -0.6496053 -0.66700125
vn -0.29997075 -0.53215885 -0.79172254
vn 0.6386758 0.37740073 -0.6705684
vn 0.60946006 0 -0.7928169
vn -0 -0.73868763 -0.6740479
vn -0 -0.6214367 -0.7834644
vn 0.74717855 0 -0.66462326
vn 0.53292537 -0.31407255 -0.78571546
vn 0.36485934 -0.6496053 -0.66700125
vn 0.29997075 -0.53215885 -0.79172254
vn 0.6386758 -0.37740073 -0.6705684
vn -0.36485934 -0.6496053 0.66700125
vn -0 -0.73868763 0.6740479
vn 0.36485934 -0.6496053 0.66700125
vn 0.6386758 -0.37740073 0.6705684
vn 0.74717855 0 0.66462326
vn 0.6386758 0.37740073 0.6705684
vn -0.6386758 -0.37740073 0.6705684
vn 0.36485934 0.6496053 0.66700125
vn -0.74717855 0 0.66462326
vn -0 0.73868763 0.6740479
vn -0.6386758 0.37740073 0.6705684
vn -0.36485934 0.6496053 0.66700125
vn 0.53292537 0.31407255 0.78571546
vn 0.60946006 0 0.7928169
vn 0.29997557 0.532137 0.79173535
vn -0 0.6214367 0.7834644
vn 0.53292537 -0.31407255 0.78571546
vn -0.29997557 0.532137 0.79173535
vn -0.53292537 0.31407255 0.78571546
vn 0.29997557 -0.532137 0.79173535
vn -0.60946006 0 0.7928169
vn -0 -0.6214367 0.7834644
vn -0.53292537 -0.31407255 0.78571546
vn -0.29997557 -0.532137 0.79173535
g Spear07_0
f 3/3/3 2/2/2 1/1/1
f 6/6/6 5/5/5 4/4/4
f 9/9/9 8/8/8 7/7/7
f 12/12/12 11/11/11 10/10/10
f 15/15/15 14/14/14 13/13/13
f 18/18/18 17/17/17 16/16/16
f 21/21/21 20/20/20 19/19/19
f 24/24/24 23/23/23 22/22/22
f 27/27/27 26/26/26 25/25/25
f 30/30/30 29/29/29 28/28/28
f 33/33/33 32/32/32 31/31/31
f 36/36/36 35/35/35 34/34/34
f 39/39/39 38/38/38 37/37/37
f 42/42/42 41/41/41 40/40/40
f 45/45/45 44/44/44 43/43/43
f 43/43/43 46/46/46 45/45/45
f 43/43/43 47/47/47 46/46/46
f 50/50/50 49/49/49 48/48/48
f 51/51/51 50/50/50 48/48/48
f 52/52/52 51/51/51 48/48/48
f 53/53/53 51/51/51 52/52/52
f 54/54/54 53/53/53 52/52/52
f 55/55/55 53/53/53 54/54/54
f 56/56/56 55/55/55 54/54/54
f 57/57/57 55/55/55 56/56/56
f 58/58/58 57/57/57 56/56/56
f 59/59/59 57/57/57 58/58/58
f 60/60/60 59/59/59 58/58/58
f 61/61/61 59/59/59 60/60/60
f 62/62/62 61/61/61 60/60/60
f 63/63/63 61/61/61 62/62/62
f 61/61/61 63/63/63 64/64/64
f 65/65/65 63/63/63 62/62/62
f 63/63/63 65/65/65 64/64/64
f 66/66/66 65/65/65 62/62/62
f 65/65/65 67/67/67 64/64/64
f 68/68/68 65/65/65 66/66/66
f 65/65/65 68/68/68 67/67/67
f 69/69/69 68/68/68 66/66/66
f 68/68/68 70/70/70 67/67/67
f 71/71/71 68/68/68 69/69/69
f 68/68/68 71/71/71 70/70/70
f 72/72/72 71/71/71 69/69/69
f 71/71/71 73/73/73 70/70/70
f 74/74/74 71/71/71 72/72/72
f 71/71/71 74/74/74 73/73/73
f 75/75/75 74/74/74 72/72/72
f 74/74/74 76/76/76 73/73/73
f 79/79/79 78/78/78 77/77/77
f 78/78/78 80/80/80 77/77/77
f 77/77/77 80/80/80 81/81/81
f 80/80/80 82/82/82 81/81/81
f 82/82/82 80/80/80 83/83/83
f 80/80/80 84/84/84 83/83/83
f 80/80/80 78/78/78 84/84/84
f 78/78/78 85/85/85 84/84/84
f 88/88/88 87/87/87 86/86/86
f 89/89/89 88/88/88 86/86/86
f 90/90/90 88/88/88 89/89/89
f 91/91/91 89/89/89 86/86/86
f 92/92/92 91/91/91 86/86/86
f 91/91/91 93/93/93 89/89/89
f 94/94/94 90/90/90 89/89/89
f 93/93/93 94/94/94 89/89/89
f 95/95/95 90/90/90 94/94/94
f 96/96/96 95/95/95 94/94/94
f 97/97/97 96/96/96 94/94/94
f 93/93/93 97/97/97 94/94/94
f 90/90/90 99/99/99 98/98/98
f 99/99/99 100/100/100 98/98/98
f 90/90/90 98/98/98 101/101/101
f 100/100/100 102/102/102 98/98/98
f 98/98/98 103/103/103 101/101/101
f 103/103/103 98/98/98 104/104/104
f 102/102/102 105/105/105 98/98/98
f 98/98/98 105/105/105 104/104/104
f 107/107/107 93/93/93 106/106/106
f 108/108/108 107/107/107 106/106/106
f 106/106/106 93/93/93 109/109/109
f 110/110/110 108/108/108 106/106/106
f 111/111/111 106/106/106 109/109/109
f 106/106/106 111/111/111 112/112/112
f 113/113/113 110/110/110 106/106/106
f 113/113/113 106/106/106 112/112/112
f 105/105/105 115/115/115 114/114/114
f 115/115/115 116/116/116 114/114/114
f 116/116/116 117/117/117 114/114/114
f 117/117/117 113/113/113 114/114/114
f 105/105/105 114/114/114 118/118/118
f 114/114/114 113/113/113 118/118/118
f 119/119/119 105/105/105 118/118/118
f 113/113/113 120/120/120 118/118/118
f 119/119/119 118/118/118 121/121/121
f 118/118/118 120/120/120 121/121/121
f 122/122/122 119/119/119 121/121/121
f 120/120/120 123/123/123 121/121/121
f 126/126/126 125/125/125 124/124/124
f 126/126/126 124/124/124 127/127/127
f 127/127/127 128/128/128 126/126/126
f 128/128/128 127/127/127 129/129/129
f 128/128/128 129/129/129 130/130/130
f 130/130/130 131/131/131 128/128/128
f 128/128/128 131/131/131 132/132/132
f 132/132/132 133/133/133 128/128/128
f 133/133/133 134/134/134 128/128/128
f 128/128/128 134/134/134 135/135/135
f 135/135/135 126/126/126 128/128/128
f 135/135/135 136/136/136 126/126/126
f 139/139/139 138/138/138 137/137/137
f 140/140/140 139/139/139 137/137/137
f 143/143/143 142/142/142 141/141/141
f 144/144/144 143/143/143 141/141/141
f 147/147/147 146/146/146 145/145/145
f 148/148/148 147/147/147 145/145/145
f 151/151/151 150/150/150 149/149/149
f 151/151/151 149/149/149 152/152/152
f 151/151/151 152/152/152 153/153/153
f 151/151/151 153/153/153 154/154/154
f 155/155/155 151/151/151 154/154/154
f 155/155/155 154/154/154 156/156/156
f 157/157/157 155/155/155 156/156/156
f 154/154/154 158/158/158 156/156/156
f 158/158/158 159/159/159 156/156/156
f 160/160/160 157/157/157 156/156/156
f 156/156/156 161/161/161 160/160/160
f 164/164/164 163/163/163 162/162/162
f 165/165/165 164/164/164 162/162/162
f 168/168/168 167/167/167 166/166/166
f 169/169/169 168/168/168 166/166/166
f 172/172/172 171/171/171 170/170/170
f 173/173/173 172/172/172 170/170/170
f 176/176/176 175/175/175 174/174/174
f 175/175/175 177/177/177 174/174/174
f 174/174/174 177/177/177 178/178/178
f 177/177/177 179/179/179 178/178/178
f 178/178/178 179/179/179 180/180/180
f 179/179/179 181/181/181 180/180/180
f 181/181/181 182/182/182 180/180/180
f 182/182/182 183/183/183 180/180/180
f 182/182/182 184/184/184 183/183/183
f 184/184/184 185/185/185 183/183/183
f 184/184/184 186/186/186 185/185/185
f 186/186/186 187/187/187 185/185/185
f 187/187/187 186/186/186 188/188/188
f 186/186/186 189/189/189 188/188/188
f 188/188/188 189/189/189 190/190/190
f 189/189/189 191/191/191 190/190/190
f 190/190/190 191/191/191 192/192/192
f 191/191/191 193/193/193 192/192/192
f 193/193/193 194/194/194 192/192/192
f 194/194/194 195/195/195 192/192/192
f 194/194/194 196/196/196 195/195/195
f 196/196/196 197/197/197 195/195/195
f 196/196/196 198/198/198 197/197/197
f 198/198/198 199/199/199 197/197/197
f 202/202/202 201/201/201 200/200/200
f 200/200/200 203/203/203 202/202/202
f 200/200/200 204/204/204 203/203/203
f 207/207/207 206/206/206 205/205/205
f 206/206/206 208/208/208 205/205/205
f 208/208/208 209/209/209 205/205/205
f 208/208/208 210/210/210 209/209/209
f 210/210/210 211/211/211 209/209/209
f 210/210/210 212/212/212 211/211/211
f 212/212/212 213/213/213 211/211/211
f 212/212/212 214/214/214 213/213/213
f 214/214/214 215/215/215 213/213/213
f 214/214/214 216/216/216 215/215/215
f 216/216/216 217/217/217 215/215/215
f 216/216/216 218/218/218 217/217/217
f 218/218/218 219/219/219 217/217/217
f 218/218/218 220/220/220 219/219/219
f 220/220/220 218/218/218 221/221/221
f 220/220/220 222/222/222 219/219/219
f 222/222/222 220/220/220 221/221/221
f 222/222/222 223/223/223 219/219/219
f 224/224/224 222/222/222 221/221/221
f 222/222/222 225/225/225 223/223/223
f 225/225/225 222/222/222 224/224/224
f 225/225/225 226/226/226 223/223/223
f 227/227/227 225/225/225 224/224/224
f 225/225/225 228/228/228 226/226/226
f 228/228/228 225/225/225 227/227/227
f 228/228/228 229/229/229 226/226/226
f 230/230/230 228/228/228 227/227/227
f 228/228/228 231/231/231 229/229/229
f 231/231/231 228/228/228 230/230/230
f 231/231/231 232/232/232 229/229/229
f 233/233/233 231/231/231 230/230/230
f 236/236/236 235/235/235 234/234/234
f 237/237/237 236/236/236 234/234/234
f 237/237/237 234/234/234 238/238/238
f 239/239/239 237/237/237 238/238/238
f 237/237/237 239/239/239 240/240/240
f 241/241/241 237/237/237 240/240/240
f 236/236/236 237/237/237 241/241/241
f 242/242/242 236/236/236 241/241/241
f 245/245/245 244/244/244 243/243/243
f 246/246/246 245/245/245 243/243/243
f 249/249/249 248/248/248 247/247/247
f 250/250/250 249/249/249 247/247/247
f 253/253/253 252/252/252 251/251/251
f 254/254/254 253/253/253 251/251/251
f 257/257/257 256/256/256 255/255/255
f 255/255/255 258/258/258 257/257/257
f 255/255/255 259/259/259 258/258/258
f 255/255/255 260/260/260 259/259/259
f 260/260/260 261/261/261 259/259/259
f 255/255/255 262/262/262 260/260/260
f 255/255/255 263/263/263 262/262/262
f 260/260/260 264/264/264 261/261/261
f 264/264/264 265/265/265 261/261/261
f 265/265/265 266/266/266 261/261/261
f 267/267/267 261/261/261 266/266/266
f 270/270/270 269/269/269 268/268/268
f 271/271/271 270/270/270 268/268/268
f 274/274/274 273/273/273 272/272/272
f 275/275/275 274/274/274 272/272/272
f 278/278/278 277/277/277 276/276/276
f 279/279/279 278/278/278 276/276/276
f 282/282/282 281/281/281 280/280/280
f 281/281/281 283/283/283 280/280/280
f 280/280/280 283/283/283 284/284/284
f 283/283/283 285/285/285 284/284/284
f 284/284/284 285/285/285 286/286/286
f 285/285/285 287/287/287 286/286/286
f 287/287/287 288/288/288 286/286/286
f 288/288/288 289/289/289 286/286/286
f 288/288/288 290/290/290 289/289/289
f 290/290/290 291/291/291 289/289/289
f 290/290/290 292/292/292 291/291/291
f 292/292/292 293/293/293 291/291/291
f 293/293/293 292/292/292 294/294/294
f 292/292/292 295/295/295 294/294/294
f 294/294/294 295/295/295 296/296/296
f 295/295/295 297/297/297 296/296/296
f 296/296/296 297/297/297 298/298/298
f 297/297/297 299/299/299 298/298/298
f 299/299/299 300/300/300 298/298/298
f 300/300/300 301/301/301 298/298/298
f 300/300/300 302/302/302 301/301/301
f 302/302/302 303/303/303 301/301/301
f 302/302/302 304/304/304 303/303/303
f 304/304/304 305/305/305 303/303/303
f 308/308/308 307/307/307 306/306/306
f 306/306/306 309/309/309 308/308/308
f 306/306/306 310/310/310 309/309/309
f 313/313/313 312/312/312 311/311/311
f 312/312/312 314/314/314 311/311/311
f 314/314/314 315/315/315 311/311/311
f 314/314/314 316/316/316 315/315/315
f 316/316/316 317/317/317 315/315/315
f 316/316/316 318/318/318 317/317/317
f 318/318/318 319/319/319 317/317/317
f 318/318/318 320/320/320 319/319/319
f 320/320/320 321/321/321 319/319/319
f 320/320/320 322/322/322 321/321/321
f 322/322/322 323/323/323 321/321/321
f 322/322/322 324/324/324 323/323/323
f 324/324/324 325/325/325 323/323/323
f 328/328/328 327/327/327 326/326/326
f 329/329/329 328/328/328 326/326/326
f 332/332/332 331/331/331 330/330/330
f 333/333/333 332/332/332 330/330/330
f 336/336/336 335/335/335 334/334/334
f 337/337/337 336/336/336 334/334/334
f 340/340/340 339/339/339 338/338/338
f 338/338/338 341/341/341 340/340/340
f 338/338/338 342/342/342 341/341/341
f 338/338/338 343/343/343 342/342/342
f 343/343/343 344/344/344 342/342/342
f 338/338/338 345/345/345 343/343/343
f 338/338/338 346/346/346 345/345/345
f 343/343/343 347/347/347 344/344/344
f 347/347/347 348/348/348 344/344/344
f 348/348/348 349/349/349 344/344/344
f 350/350/350 344/344/344 349/349/349
f 353/353/353 352/352/352 351/351/351
f 354/354/354 353/353/353 351/351/351
f 357/357/357 356/356/356 355/355/355
f 358/358/358 357/357/357 355/355/355
f 361/361/361 360/360/360 359/359/359
f 362/362/362 361/361/361 359/359/359
f 365/365/365 364/364/364 363/363/363
f 363/363/363 366/366/366 365/365/365
f 363/363/363 367/367/367 366/366/366
f 370/370/370 369/369/369 368/368/368
f 371/371/371 370/370/370 368/368/368
f 372/372/372 371/371/371 368/368/368
f 373/373/373 371/371/371 372/372/372
f 374/374/374 373/373/373 372/372/372
f 375/375/375 373/373/373 374/374/374
f 376/376/376 375/375/375 374/374/374
f 377/377/377 375/375/375 376/376/376
f 378/378/378 377/377/377 376/376/376
f 379/379/379 377/377/377 378/378/378
f 380/380/380 379/379/379 378/378/378
f 381/381/381 379/379/379 380/380/380
f 382/382/382 381/381/381 380/380/380
f 385/385/385 384/384/384 383/383/383
f 386/386/386 385/385/385 383/383/383
f 389/389/389 388/388/388 387/387/387
f 390/390/390 389/389/389 387/387/387
f 393/393/393 392/392/392 391/391/391
f 394/394/394 393/393/393 391/391/391
f 397/397/397 396/396/396 395/395/395
f 397/397/397 395/395/395 398/398/398
f 397/397/397 398/398/398 399/399/399
f 397/397/397 399/399/399 400/400/400
f 401/401/401 397/397/397 400/400/400
f 401/401/401 400/400/400 402/402/402
f 403/403/403 401/401/401 402/402/402
f 400/400/400 404/404/404 402/402/402
f 404/404/404 405/405/405 402/402/402
f 406/406/406 403/403/403 402/402/402
f 402/402/402 407/407/407 406/406/406
f 410/410/410 409/409/409 408/408/408
f 411/411/411 410/410/410 408/408/408
f 414/414/414 413/413/413 412/412/412
f 415/415/415 414/414/414 412/412/412
f 418/418/418 417/417/417 416/416/416
f 419/419/419 418/418/418 416/416/416
f 422/422/422 421/421/421 420/420/420
f 423/423/423 422/422/422 420/420/420
f 424/424/424 422/422/422 423/423/423
f 425/425/425 424/424/424 423/423/423
f 428/428/428 427/427/427 426/426/426
f 429/429/429 428/428/428 426/426/426
f 432/432/432 431/431/431 430/430/430
f 431/431/431 433/433/433 430/430/430
f 430/430/430 433/433/433 434/434/434
f 433/433/433 435/435/435 434/434/434
f 438/438/438 437/437/437 436/436/436
f 439/439/439 438/438/438 436/436/436
f 442/442/442 441/441/441 440/440/440
f 443/443/443 442/442/442 440/440/440
f 446/446/446 445/445/445 444/444/444
f 447/447/447 446/446/446 444/444/444
f 450/450/450 449/449/449 448/448/448
f 451/451/451 450/450/450 448/448/448
f 454/454/454 453/453/453 452/452/452
f 453/453/453 455/455/455 452/452/452
f 452/452/452 455/455/455 456/456/456
f 455/455/455 457/457/457 456/456/456
f 460/460/460 459/459/459 458/458/458
f 461/461/461 460/460/460 458/458/458
f 464/464/464 463/463/463 462/462/462
f 465/465/465 464/464/464 462/462/462
f 468/468/468 467/467/467 466/466/466
f 466/466/466 469/469/469 468/468/468
f 466/466/466 470/470/470 469/469/469
f 470/470/470 471/471/471 469/469/469
f 470/470/470 472/472/472 471/471/471
f 472/472/472 473/473/473 471/471/471
f 472/472/472 474/474/474 473/473/473
f 474/474/474 475/475/475 473/473/473
f 478/478/478 477/477/477 476/476/476
f 479/479/479 478/478/478 476/476/476
f 482/482/482 481/481/481 480/480/480
f 483/483/483 482/482/482 480/480/480
f 486/486/486 485/485/485 484/484/484
f 487/487/487 486/486/486 484/484/484
f 490/490/490 489/489/489 488/488/488
f 491/491/491 490/490/490 488/488/488
f 494/494/494 493/493/493 492/492/492
f 495/495/495 494/494/494 492/492/492
f 496/496/496 494/494/494 495/495/495
f 497/497/497 496/496/496 495/495/495
f 500/500/500 499/499/499 498/498/498
f 501/501/501 500/500/500 498/498/498
f 504/504/504 503/503/503 502/502/502
f 505/505/505 504/504/504 502/502/502
f 508/508/508 507/507/507 506/506/506
f 507/507/507 509/509/509 506/506/506
f 506/506/506 509/509/509 510/510/510
f 509/509/509 511/511/511 510/510/510
f 514/514/514 513/513/513 512/512/512
f 515/515/515 514/514/514 512/512/512
f 518/518/518 517/517/517 516/516/516
f 519/519/519 518/518/518 516/516/516
f 522/522/522 521/521/521 520/520/520
f 523/523/523 522/522/522 520/520/520
f 526/526/526 525/525/525 524/524/524
f 527/527/527 526/526/526 524/524/524
f 530/530/530 529/529/529 528/528/528
f 531/531/531 530/530/530 528/528/528
f 534/534/534 533/533/533 532/532/532
f 533/533/533 535/535/535 532/532/532
f 532/532/532 535/535/535 536/536/536
f 535/535/535 537/537/537 536/536/536
f 540/540/540 539/539/539 538/538/538
f 541/541/541 540/540/540 538/538/538
f 544/544/544 543/543/543 542/542/542
f 545/545/545 544/544/544 542/542/542
f 548/548/548 547/547/547 546/546/546
f 549/549/549 548/548/548 546/546/546
f 550/550/550 548/548/548 549/549/549
f 551/551/551 550/550/550 549/549/549
f 554/554/554 553/553/553 552/552/552
f 555/555/555 554/554/554 552/552/552
f 558/558/558 557/557/557 556/556/556
f 559/559/559 558/558/558 556/556/556
f 562/562/562 561/561/561 560/560/560
f 563/563/563 562/562/562 560/560/560
f 566/566/566 565/565/565 564/564/564
f 565/565/565 567/567/567 564/564/564
f 564/564/564 567/567/567 568/568/568
f 567/567/567 569/569/569 568/568/568
f 572/572/572 571/571/571 570/570/570
f 573/573/573 572/572/572 570/570/570
f 576/576/576 575/575/575 574/574/574
f 577/577/577 576/576/576 574/574/574
f 580/580/580 579/579/579 578/578/578
f 581/581/581 580/580/580 578/578/578
f 584/584/584 583/583/583 582/582/582
f 585/585/585 584/584/584 582/582/582
f 588/588/588 587/587/587 586/586/586
f 587/587/587 589/589/589 586/586/586
f 586/586/586 589/589/589 590/590/590
f 589/589/589 591/591/591 590/590/590
f 594/594/594 593/593/593 592/592/592
f 595/595/595 594/594/594 592/592/592
f 598/598/598 597/597/597 596/596/596
f 599/599/599 598/598/598 596/596/596
f 602/602/602 601/601/601 600/600/600
f 601/601/601 603/603/603 600/600/600
f 600/600/600 603/603/603 604/604/604
f 603/603/603 605/605/605 604/604/604
f 608/608/608 607/607/607 606/606/606
f 609/609/609 608/608/608 606/606/606
f 612/612/612 611/611/611 610/610/610
f 613/613/613 612/612/612 610/610/610
f 616/616/616 615/615/615 614/614/614
f 617/617/617 616/616/616 614/614/614
f 620/620/620 619/619/619 618/618/618
f 619/619/619 621/621/621 618/618/618
f 618/618/618 621/621/621 622/622/622
f 621/621/621 623/623/623 622/622/622
f 626/626/626 625/625/625 624/624/624
f 627/627/627 626/626/626 624/624/624
f 630/630/630 629/629/629 628/628/628
f 631/631/631 630/630/630 628/628/628
f 634/634/634 633/633/633 632/632/632
f 633/633/633 635/635/635 632/632/632
f 632/632/632 635/635/635 636/636/636
f 635/635/635 637/637/637 636/636/636
f 640/640/640 639/639/639 638/638/638
f 641/641/641 640/640/640 638/638/638
f 644/644/644 643/643/643 642/642/642
f 645/645/645 644/644/644 642/642/642
f 648/648/648 647/647/647 646/646/646
f 649/649/649 648/648/648 646/646/646
f 652/652/652 651/651/651 650/650/650
f 653/653/653 652/652/652 650/650/650
f 656/656/656 655/655/655 654/654/654
f 657/657/657 656/656/656 654/654/654
f 658/658/658 656/656/656 657/657/657
f 659/659/659 658/658/658 657/657/657
f 662/662/662 661/661/661 660/660/660
f 661/661/661 663/663/663 660/660/660
f 660/660/660 663/663/663 664/664/664
f 663/663/663 665/665/665 664/664/664
f 668/668/668 667/667/667 666/666/666
f 669/669/669 668/668/668 666/666/666
f 672/672/672 671/671/671 670/670/670
f 673/673/673 672/672/672 670/670/670
f 676/676/676 675/675/675 674/674/674
f 677/677/677 676/676/676 674/674/674
f 680/680/680 679/679/679 678/678/678
f 681/681/681 680/680/680 678/678/678
f 684/684/684 683/683/683 682/682/682
f 685/685/685 683/683/683 684/684/684
f 688/688/688 687/687/687 686/686/686
f 686/686/686 687/687/687 689/689/689
f 692/692/692 691/691/691 690/690/690
f 693/693/693 692/692/692 690/690/690
f 694/694/694 692/692/692 693/693/693
f 690/690/690 691/691/691 695/695/695
f 691/691/691 696/696/696 695/695/695
f 697/697/697 694/694/694 693/693/693
f 698/698/698 694/694/694 697/697/697
f 695/695/695 696/696/696 699/699/699
f 696/696/696 700/700/700 699/699/699
f 701/701/701 698/698/698 697/697/697
f 702/702/702 698/698/698 701/701/701
f 699/699/699 700/700/700 703/703/703
f 700/700/700 704/704/704 703/703/703
f 705/705/705 702/702/702 701/701/701
f 706/706/706 702/702/702 705/705/705
f 703/703/703 704/704/704 707/707/707
f 704/704/704 708/708/708 707/707/707
f 709/709/709 706/706/706 705/705/705
f 710/710/710 706/706/706 709/709/709
f 707/707/707 708/708/708 711/711/711
f 708/708/708 712/712/712 711/711/711
f 712/712/712 710/710/710 713/713/713
f 713/713/713 710/710/710 709/709/709
f 711/711/711 712/712/712 713/713/713
f 703/703/703 714/714/714 699/699/699
f 707/707/707 715/715/715 703/703/703
f 715/715/715 714/714/714 703/703/703
f 711/711/711 716/716/716 707/707/707
f 716/716/716 715/715/715 707/707/707
f 713/713/713 717/717/717 711/711/711
f 717/717/717 716/716/716 711/711/711
f 709/709/709 718/718/718 713/713/713
f 718/718/718 717/717/717 713/713/713
f 705/705/705 719/719/719 709/709/709
f 719/719/719 718/718/718 709/709/709
f 714/714/714 720/720/720 699/699/699
f 699/699/699 720/720/720 695/695/695
f 721/721/721 719/719/719 705/705/705
f 701/701/701 721/721/721 705/705/705
f 720/720/720 722/722/722 695/695/695
f 695/695/695 722/722/722 690/690/690
f 723/723/723 721/721/721 701/701/701
f 697/697/697 723/723/723 701/701/701
f 722/722/722 724/724/724 690/690/690
f 690/690/690 724/724/724 693/693/693
f 693/693/693 725/725/725 697/697/697
f 725/725/725 723/723/723 697/697/697
f 724/724/724 725/725/725 693/693/693
f 718/718/718 719/719/719 726/726/726
f 727/727/727 718/718/718 726/726/726
f 726/726/726 719/719/719 728/728/728
f 719/719/719 721/721/721 728/728/728
f 717/717/717 718/718/718 727/727/727
f 728/728/728 721/721/721 729/729/729
f 721/721/721 723/723/723 729/729/729
f 730/730/730 717/717/717 727/727/727
f 729/729/729 723/723/723 731/731/731
f 723/723/723 725/725/725 731/731/731
f 716/716/716 717/717/717 730/730/730
f 731/731/731 725/725/725 732/732/732
f 725/725/725 724/724/724 732/732/732
f 733/733/733 716/716/716 730/730/730
f 732/732/732 724/724/724 734/734/734
f 715/715/715 716/716/716 733/733/733
f 724/724/724 722/722/722 734/734/734
f 735/735/735 715/715/715 733/733/733
f 734/734/734 722/722/722 736/736/736
f 714/714/714 715/715/715 735/735/735
f 722/722/722 720/720/720 736/736/736
f 737/737/737 714/714/714 735/735/735
f 736/736/736 720/720/720 737/737/737
f 720/720/720 714/714/714 737/737/737
