g Spear10
v -0.13526958 -0.067478806 1.8419482
v -0.11495544 -0.06258801 1.7932533
v -0.09197854 -0.07939923 1.7154127
v -0.09854639 -0.09434759 1.717538
v -0.08091164 -0.079392634 1.6883178
v -0.08085854 -0.09433705 1.6742332
v -0.06988691 -0.07938607 1.6613255
v -0.06323809 -0.094326556 1.6310922
v -0.09859228 -0.014472883 1.7807678
v -0.09200726 -0.029423365 1.7549744
v -0.11500462 -0.0462425 1.814344
v -0.13534819 -0.04135433 1.8756567
v -0.080855265 -0.014484037 1.7349774
v -0.09200726 -0.029423365 1.7549744
v -0.09859228 -0.014472883 1.7807678
v -0.08090959 -0.029430345 1.7263242
v -0.0631895 -0.014495149 1.689371
v -0.0698565 -0.029437298 1.6977893
v -0.06323809 -0.094326556 1.6310922
v -0.06988691 -0.07938607 1.6613255
v -0.047260948 -0.062574856 1.6274799
v -0.027075794 -0.06745777 1.5769981
v -0.027029388 -0.041376628 1.5960188
v -0.047231913 -0.046256453 1.6393807
v -0.0698565 -0.029437298 1.6977893
v -0.0631895 -0.014495149 1.689371
v -0.027075794 -0.06745777 1.5769981
v -0.047260948 -0.062574856 1.6274799
v -0.047231913 -0.046256453 1.6393807
v -0.027029388 -0.041376628 1.5960188
v -0.13534819 -0.04135433 1.8756567
v -0.11500462 -0.0462425 1.814344
v -0.11495544 -0.06258801 1.7932533
v -0.13526958 -0.067478806 1.8419482
v -0.38412213 -0.19281806 1.3164207
v -0.35703328 -0.13577653 1.2415488
v -0.3581572 -0.13256286 1.2425376
v -0.38645136 -0.18027824 1.319155
v -0.26932952 -0.08742069 1.1854069
v -0.16569409 -0.072730996 1.1340727
v -0.16611806 -0.07073255 1.134245
v -0.2702164 -0.08488462 1.1861873
v -0.1361019 -0.089636624 1.1383563
v -0.14545795 -0.07107294 1.1646148
v -0.14588188 -0.06907448 1.1647873
v -0.13652587 -0.078073844 1.1385288
v -0.23179598 -0.088405214 1.2312666
v -0.30519158 -0.13713641 1.3048909
v -0.3063154 -0.1339227 1.3058797
v -0.23268282 -0.08586912 1.2320471
v -0.26698345 -0.12241014 1.222061
v -0.23179598 -0.088405214 1.2312666
v -0.14545795 -0.07107294 1.1646148
v -0.1361019 -0.089636624 1.1383563
v -0.2668216 -0.09300315 1.2175349
v -0.23268282 -0.08586912 1.2320471
v -0.3063154 -0.1339227 1.3058797
v -0.38645136 -0.18027824 1.319155
v -0.2702164 -0.08488462 1.1861873
v -0.2668216 -0.09300315 1.2175349
v -0.38645136 -0.18027824 1.319155
v -0.3581572 -0.13256286 1.2425376
v -0.26932952 -0.08742069 1.1854069
v -0.26698345 -0.12241014 1.222061
v -0.1361019 -0.089636624 1.1383563
v -0.16569409 -0.072730996 1.1340727
v -0.16569409 -0.072730996 1.1340727
v -0.1361019 -0.089636624 1.1383563
v -0.13652587 -0.078073844 1.1385288
v -0.16611806 -0.07073255 1.134245
v -0.30519158 -0.13713641 1.3048909
v -0.38412213 -0.19281806 1.3164207
v -0.38645136 -0.18027824 1.319155
v -0.3063154 -0.1339227 1.3058797
v -0.3963864 0.06832158 1.1073025
v -0.34360388 0.019451726 1.0784515
v -0.34219107 0.021993022 1.0775222
v -0.39497358 0.08151353 1.1063732
v -0.34360388 0.019451726 1.0784515
v -0.16813298 -0.063786745 1.1154999
v -0.1673159 -0.062317133 1.1149625
v -0.34219107 0.021993022 1.0775222
v -0.14314385 -0.061780196 1.1344444
v -0.1662544 -0.05388666 1.1454273
v -0.16543733 -0.052417044 1.14489
v -0.14232673 -0.049659863 1.1339068
v -0.1662544 -0.05388666 1.1454273
v -0.33941078 0.04154993 1.1452532
v -0.3379978 0.044091206 1.1443238
v -0.16543733 -0.052417044 1.14489
v -0.3963864 0.06832158 1.1073025
v -0.33941078 0.04154993 1.1452532
v -0.1662544 -0.05388666 1.1454273
v -0.14314385 -0.061780196 1.1344444
v -0.14232673 -0.049659863 1.1339068
v -0.16543733 -0.052417044 1.14489
v -0.3379978 0.044091206 1.1443238
v -0.39497358 0.08151353 1.1063732
v -0.1673159 -0.062317133 1.1149625
v -0.14232673 -0.049659863 1.1339068
v -0.39497358 0.08151353 1.1063732
v -0.34219107 0.021993022 1.0775222
v -0.34360388 0.019451726 1.0784515
v -0.3963864 0.06832158 1.1073025
v -0.14314385 -0.061780196 1.1344444
v -0.16813298 -0.063786745 1.1154999
v -0.16813298 -0.063786745 1.1154999
v -0.14314385 -0.061780196 1.1344444
v -0.14232673 -0.049659863 1.1339068
v -0.1673159 -0.062317133 1.1149625
v -0.33941078 0.04154993 1.1452532
v -0.3963864 0.06832158 1.1073025
v -0.39497358 0.08151353 1.1063732
v -0.3379978 0.044091206 1.1443238
v -0.35703328 -0.13577653 1.2415488
v -0.38412213 -0.19281806 1.3164207
v -0.26698345 -0.12241014 1.222061
v -0.26932952 -0.08742069 1.1854069
v -0.16611806 -0.07073255 1.134245
v -0.13652587 -0.078073844 1.1385288
v -0.2668216 -0.09300315 1.2175349
v -0.2702164 -0.08488462 1.1861873
v -0.13652587 -0.078073844 1.1385288
v -0.14588188 -0.06907448 1.1647873
v -0.23268282 -0.08586912 1.2320471
v -0.2668216 -0.09300315 1.2175349
v -0.38412213 -0.19281806 1.3164207
v -0.30519158 -0.13713641 1.3048909
v -0.23179598 -0.088405214 1.2312666
v -0.26698345 -0.12241014 1.222061
v -0.14545795 -0.07107294 1.1646148
v -0.23179598 -0.088405214 1.2312666
v -0.23268282 -0.08586912 1.2320471
v -0.14588188 -0.06907448 1.1647873
v -0.35703328 -0.13577653 1.2415488
v -0.26932952 -0.08742069 1.1854069
v -0.2702164 -0.08488462 1.1861873
v -0.3581572 -0.13256286 1.2425376
v -0.39381334 -0.037810095 0.63388085
v -0.3411911 -0.0128447255 0.6216735
v -0.34079835 -0.01165137 0.6234232
v -0.3911289 -0.033783153 0.64015687
v -0.27267218 -0.023148283 0.613598
v -0.21098377 -0.05198053 0.5940918
v -0.2105009 -0.05124299 0.5949719
v -0.27236217 -0.022206564 0.6149788
v -0.20627312 -0.07162309 0.5888457
v -0.21110012 -0.06902725 0.60844225
v -0.21061735 -0.068289675 0.60932225
v -0.20242518 -0.068054296 0.5935243
v -0.27119508 -0.053026706 0.6336448
v -0.33915094 -0.054113157 0.6493624
v -0.33875814 -0.052919827 0.6511121
v -0.27088517 -0.052085035 0.6350257
v -0.294644 -0.044566095 0.6165048
v -0.27119508 -0.053026706 0.6336448
v -0.21110012 -0.06902725 0.60844225
v -0.20627312 -0.07162309 0.5888457
v -0.28292283 -0.034700807 0.6261014
v -0.27088517 -0.052085035 0.6350257
v -0.33875814 -0.052919827 0.6511121
v -0.3911289 -0.033783153 0.64015687
v -0.27236217 -0.022206564 0.6149788
v -0.28292283 -0.034700807 0.6261014
v -0.3911289 -0.033783153 0.64015687
v -0.34079835 -0.01165137 0.6234232
v -0.27267218 -0.023148283 0.613598
v -0.294644 -0.044566095 0.6165048
v -0.20627312 -0.07162309 0.5888457
v -0.21098377 -0.05198053 0.5940918
v -0.21098377 -0.05198053 0.5940918
v -0.20627312 -0.07162309 0.5888457
v -0.20242518 -0.068054296 0.5935243
v -0.2105009 -0.05124299 0.5949719
v -0.33915094 -0.054113157 0.6493624
v -0.39381334 -0.037810095 0.63388085
v -0.3911289 -0.033783153 0.64015687
v -0.33875814 -0.052919827 0.6511121
v -0.32887676 -0.19614562 0.70789784
v -0.28009534 -0.16503641 0.7046976
v -0.27927762 -0.1668444 0.7035702
v -0.32964733 -0.2051307 0.7037082
v -0.28009534 -0.16503641 0.7046976
v -0.20252708 -0.075449824 0.6163289
v -0.20205416 -0.07649537 0.6156768
v -0.27927762 -0.1668444 0.7035702
v -0.20102985 -0.067965746 0.59411
v -0.21947198 -0.07297764 0.6000753
v -0.21899901 -0.07402318 0.5994232
v -0.20214514 -0.07618845 0.5903957
v -0.21947198 -0.07297764 0.6000753
v -0.31791836 -0.15951826 0.66841763
v -0.31710064 -0.16132621 0.6672901
v -0.21899901 -0.07402318 0.5994232
v -0.32887676 -0.19614562 0.70789784
v -0.31791836 -0.15951826 0.66841763
v -0.21947198 -0.07297764 0.6000753
v -0.20102985 -0.067965746 0.59411
v -0.20214514 -0.07618845 0.5903957
v -0.21899901 -0.07402318 0.5994232
v -0.31710064 -0.16132621 0.6672901
v -0.32964733 -0.2051307 0.7037082
v -0.20205416 -0.07649537 0.6156768
v -0.20214514 -0.07618845 0.5903957
v -0.32964733 -0.2051307 0.7037082
v -0.27927762 -0.1668444 0.7035702
v -0.28009534 -0.16503641 0.7046976
v -0.32887676 -0.19614562 0.70789784
v -0.20102985 -0.067965746 0.59411
v -0.20252708 -0.075449824 0.6163289
v -0.20252708 -0.075449824 0.6163289
v -0.20102985 -0.067965746 0.59411
v -0.20214514 -0.07618845 0.5903957
v -0.20205416 -0.07649537 0.6156768
v -0.31791836 -0.15951826 0.66841763
v -0.32887676 -0.19614562 0.70789784
v -0.32964733 -0.2051307 0.7037082
v -0.31710064 -0.16132621 0.6672901
v -0.3411911 -0.0128447255 0.6216735
v -0.39381334 -0.037810095 0.63388085
v -0.294644 -0.044566095 0.6165048
v -0.27267218 -0.023148283 0.613598
v -0.2105009 -0.05124299 0.5949719
v -0.20242518 -0.068054296 0.5935243
v -0.28292283 -0.034700807 0.6261014
v -0.27236217 -0.022206564 0.6149788
v -0.20242518 -0.068054296 0.5935243
v -0.21061735 -0.068289675 0.60932225
v -0.27088517 -0.052085035 0.6350257
v -0.28292283 -0.034700807 0.6261014
v -0.39381334 -0.037810095 0.63388085
v -0.33915094 -0.054113157 0.6493624
v -0.27119508 -0.053026706 0.6336448
v -0.294644 -0.044566095 0.6165048
v -0.21110012 -0.06902725 0.60844225
v -0.27119508 -0.053026706 0.6336448
v -0.27088517 -0.052085035 0.6350257
v -0.21061735 -0.068289675 0.60932225
v -0.3411911 -0.0128447255 0.6216735
v -0.27267218 -0.023148283 0.613598
v -0.27236217 -0.022206564 0.6149788
v -0.34079835 -0.01165137 0.6234232
v -0.1421676 -0.18107577 0.76934075
v -0.18306962 -0.13551158 0.7444565
v -0.18254979 -0.13355835 0.74573606
v -0.1404531 -0.17317003 0.7728102
v -0.20012152 -0.09076714 0.6835498
v -0.21202606 -0.067061976 0.6094883
v -0.21193285 -0.065790124 0.61002445
v -0.19971123 -0.08922574 0.6845595
v -0.20393412 -0.07554841 0.58949476
v -0.18827364 -0.06591263 0.6026341
v -0.18818046 -0.06464062 0.6031703
v -0.20352176 -0.06792797 0.59114784
v -0.16314797 -0.090618394 0.6683018
v -0.13200125 -0.13530624 0.7233959
v -0.13148142 -0.1333528 0.7246754
v -0.16273762 -0.089076936 0.6693116
v -0.17722255 -0.11617106 0.68497175
v -0.16314797 -0.090618394 0.6683018
v -0.18827364 -0.06591263 0.6026341
v -0.20393412 -0.07554841 0.58949476
v -0.1791231 -0.096336275 0.68743825
v -0.16273762 -0.089076936 0.6693116
v -0.13148142 -0.1333528 0.7246754
v -0.1404531 -0.17317003 0.7728102
v -0.19971123 -0.08922574 0.6845595
v -0.1791231 -0.096336275 0.68743825
v -0.1404531 -0.17317003 0.7728102
v -0.18254979 -0.13355835 0.74573606
v -0.20012152 -0.09076714 0.6835498
v -0.17722255 -0.11617106 0.68497175
v -0.20393412 -0.07554841 0.58949476
v -0.21202606 -0.067061976 0.6094883
v -0.21202606 -0.067061976 0.6094883
v -0.20393412 -0.07554841 0.58949476
v -0.20352176 -0.06792797 0.59114784
v -0.21193285 -0.065790124 0.61002445
v -0.13200125 -0.13530624 0.7233959
v -0.1421676 -0.18107577 0.76934075
v -0.1404531 -0.17317003 0.7728102
v -0.13148142 -0.1333528 0.7246754
v -0.18306962 -0.13551158 0.7444565
v -0.1421676 -0.18107577 0.76934075
v -0.17722255 -0.11617106 0.68497175
v -0.20012152 -0.09076714 0.6835498
v -0.21193285 -0.065790124 0.61002445
v -0.20352176 -0.06792797 0.59114784
v -0.1791231 -0.096336275 0.68743825
v -0.19971123 -0.08922574 0.6845595
v -0.20352176 -0.06792797 0.59114784
v -0.18818046 -0.06464062 0.6031703
v -0.16273762 -0.089076936 0.6693116
v -0.1791231 -0.096336275 0.68743825
v -0.1421676 -0.18107577 0.76934075
v -0.13200125 -0.13530624 0.7233959
v -0.16314797 -0.090618394 0.6683018
v -0.17722255 -0.11617106 0.68497175
v -0.18827364 -0.06591263 0.6026341
v -0.16314797 -0.090618394 0.6683018
v -0.16273762 -0.089076936 0.6693116
v -0.18818046 -0.06464062 0.6031703
v -0.18306962 -0.13551158 0.7444565
v -0.20012152 -0.09076714 0.6835498
v -0.19971123 -0.08922574 0.6845595
v -0.18254979 -0.13355835 0.74573606
v -0.066485874 -0.009323436 -0.51760995
v -0.036130253 -0.039679054 -0.51760995
v -0.036130253 -0.039678995 -0.15721896
v -0.036130253 -0.06915757 -0.51760995
v -0.066485874 -0.009323377 -0.15721896
v -0.036130253 -0.06915751 -0.15721895
v -0.081225134 -0.009323377 -0.15721896
v -0.081225134 -0.009323436 -0.51760995
v -0.066485874 -0.09951312 -0.15721895
v -0.066485874 -0.09951318 -0.51760995
v -0.081225134 -0.09951318 -0.51760995
v -0.081225134 -0.09951312 -0.15721895
v -0.09596438 -0.009323377 -0.15721896
v -0.09596438 -0.009323436 -0.51760995
v -0.09596438 -0.09951318 -0.51760995
v -0.09596438 -0.09951312 -0.15721895
v -0.12632002 -0.039679065 -0.51760995
v -0.12632002 -0.039679006 -0.15721896
v -0.12632002 -0.06915751 -0.15721895
v -0.12632002 -0.06915757 -0.51760995
v -0.04051255 -0.06772516 -0.1175509
v -0.038993202 -0.042712707 0.25917754
v -0.04051255 -0.04111133 -0.1175509
v -0.06791824 -0.013705642 -0.11755091
v -0.038993202 -0.06612364 0.25917754
v -0.0672986 -0.018605193 0.25917715
v -0.08104236 -0.018605193 0.25917706
v -0.08122516 -0.013705642 -0.11755091
v -0.0672986 -0.090231165 0.25917706
v -0.06791824 -0.095130846 -0.117550895
v -0.08122516 -0.095130846 -0.117550895
v -0.08104236 -0.090231165 0.25917706
v -0.09478611 -0.018605193 0.25917706
v -0.094532065 -0.013705642 -0.11755091
v -0.094532065 -0.095130846 -0.117550895
v -0.09478611 -0.090231165 0.25917706
v -0.121937774 -0.04111134 -0.1175509
v -0.12309149 -0.042712715 0.25917745
v -0.12309149 -0.06612364 0.25917745
v -0.121937774 -0.06772516 -0.1175509
v -0.06368577 -0.014640116 1.3179885
v -0.0631895 -0.014495149 1.689371
v -0.080855265 -0.014484037 1.7349774
v -0.027029388 -0.041376628 1.5960188
v -0.08088785 -0.014631079 1.3196385
v -0.09859228 -0.014472883 1.7807678
v -0.09814793 -0.0146220075 1.3212951
v -0.13534819 -0.04135433 1.8756567
v -0.13387945 -0.041404538 1.3247281
v -0.13526958 -0.067478806 1.8419482
v -0.08091044 -0.014733013 1.1560489
v -0.09783975 -0.014725403 1.1573961
v -0.06402979 -0.0147405965 1.154705
v -0.13286035 -0.041439343 1.1601843
v -0.028439194 -0.041422658 1.3146111
v -0.029416038 -0.041454542 1.1519575
v -0.029447734 -0.06738049 1.1513983
v -0.13381547 -0.06742927 1.3235086
v -0.13280669 -0.067394875 1.1591959
v -0.09780842 -0.09410015 1.1555395
v -0.028476968 -0.067412116 1.3139229
v -0.027075794 -0.06745777 1.5769981
v -0.064062975 -0.094085775 1.152991
v -0.09811057 -0.09420147 1.3190075
v -0.09854639 -0.09434759 1.717538
v -0.08085854 -0.09433705 1.6742332
v -0.06372532 -0.09418434 1.31588
v -0.06323809 -0.094326556 1.6310922
v -0.08091268 -0.09409295 1.1542637
v -0.080890514 -0.09419289 1.3174407
v -0.06497005 -0.015015217 0.7290394
v -0.03208726 -0.04154173 0.727727
v -0.029716974 -0.041464362 1.0895653
v -0.032102622 -0.06729397 0.72745997
v -0.06413547 -0.014771465 1.0922964
v -0.029746976 -0.067370735 1.0890085
v -0.080917366 -0.0147642875 1.093629
v -0.06498613 -0.09381629 0.72822064
v -0.08097217 -0.01501154 0.72968096
v -0.064166896 -0.094055444 1.0905902
v -0.09774534 -0.014757079 1.0949693
v -0.08097326 -0.09381977 0.7288279
v -0.096997894 -0.015007851 0.7303247
v -0.08091949 -0.09406223 1.0918498
v -0.13254909 -0.04144998 1.0977491
v -0.13007791 -0.04153437 0.7316575
v -0.096982695 -0.093823254 0.72943705
v -0.09771566 -0.09406904 1.0931158
v -0.13249823 -0.06738436 1.09676
v -0.1300519 -0.06730094 0.7311847
v -0.09620365 -0.093562014 0.2998474
v -0.12978749 -0.06729193 0.6776651
v -0.09690318 -0.09379659 0.6759228
v -0.0809791 -0.09379343 0.6753171
v -0.12745304 -0.06721233 0.2998473
v -0.08103042 -0.093562014 0.29984736
v -0.12745304 -0.041624017 0.2998473
v -0.06507524 -0.09379028 0.67471415
v -0.1298111 -0.041543484 0.678138
v -0.065857194 -0.093562014 0.29984736
v -0.09620365 -0.015274331 0.29984733
v -0.032359242 -0.067285605 0.6739573
v -0.096916966 -0.015035008 0.6768089
v -0.034607798 -0.06721233 0.2998473
v -0.08103042 -0.015274331 0.29984733
v -0.08097812 -0.015038352 0.67616814
v -0.032345317 -0.04155016 0.67422384
v -0.034607798 -0.04162401 0.2998473
v -0.065857194 -0.015274331 0.29984745
v -0.06506066 -0.015041685 0.6755305
v -0.081225134 -0.09951318 -0.51760995
v -0.090209 -0.08190458 -0.51760995
v -0.09596438 -0.09951318 -0.51760995
v -0.08122512 -0.08190458 -0.51760995
v -0.10871141 -0.06340219 -0.51760995
v -0.066485874 -0.09951318 -0.51760995
v -0.12632002 -0.06915757 -0.51760995
v -0.07224123 -0.08190458 -0.51760995
v -0.10871141 -0.045434423 -0.51760995
v -0.036130253 -0.06915757 -0.51760995
v -0.12632002 -0.039679065 -0.51760995
v -0.053738836 -0.06340219 -0.51760995
v -0.090209 -0.026932022 -0.51760995
v -0.036130253 -0.039679054 -0.51760995
v -0.09596438 -0.009323436 -0.51760995
v -0.053738836 -0.045434415 -0.51760995
v -0.08122512 -0.026932022 -0.51760995
v -0.066485874 -0.009323436 -0.51760995
v -0.081225134 -0.009323436 -0.51760995
v -0.07224123 -0.026932022 -0.51760995
v -0.059919707 -0.11960225 -0.1373849
v -0.06791824 -0.095130846 -0.117550895
v -0.04051255 -0.06772516 -0.1175509
v -0.016041093 -0.07572365 -0.1373849
v -0.04051255 -0.04111133 -0.1175509
v -0.08122509 -0.11960225 -0.1373849
v -0.08122516 -0.095130846 -0.117550895
v -0.016041093 -0.03311287 -0.13738492
v -0.06791824 -0.013705642 -0.11755091
v -0.10253047 -0.11960225 -0.1373849
v -0.094532065 -0.095130846 -0.117550895
v -0.059919707 0.010765739 -0.13738492
v -0.08122516 -0.013705642 -0.11755091
v -0.14640912 -0.07572365 -0.1373849
v -0.121937774 -0.06772516 -0.1175509
v -0.08122509 0.010765739 -0.13738492
v -0.094532065 -0.013705642 -0.11755091
v -0.14640912 -0.033112887 -0.13738492
v -0.121937774 -0.04111134 -0.1175509
v -0.10253047 0.010765739 -0.13738492
v -0.09596438 -0.09951312 -0.15721895
v -0.081225134 -0.09951312 -0.15721895
v -0.12632002 -0.06915751 -0.15721895
v -0.12632002 -0.039679006 -0.15721896
v -0.066485874 -0.09951312 -0.15721895
v -0.09596438 -0.009323377 -0.15721896
v -0.081225134 -0.009323377 -0.15721896
v -0.036130253 -0.06915751 -0.15721895
v -0.066485874 -0.009323377 -0.15721896
v -0.036130253 -0.039678995 -0.15721896
v -0.065857194 -0.015274331 0.29984745
v -0.061855834 -0.004688191 0.2795123
v -0.022353277 -0.038163934 0.2795125
v -0.034607798 -0.04162401 0.2998473
v -0.08103042 -0.015274331 0.29984733
v -0.022353277 -0.070672415 0.2795125
v -0.034607798 -0.06721233 0.2998473
v -0.0810364 -0.004688191 0.27951214
v -0.09620365 -0.015274331 0.29984733
v -0.061855834 -0.10414818 0.27951217
v -0.065857194 -0.093562014 0.29984736
v -0.10021696 -0.004688191 0.27951214
v -0.12745304 -0.041624017 0.2998473
v -0.0810364 -0.10414818 0.27951217
v -0.08103042 -0.093562014 0.29984736
v -0.13971955 -0.038163945 0.27951244
v -0.12745304 -0.06721233 0.2998473
v -0.10021696 -0.10414818 0.2795122
v -0.09620365 -0.093562014 0.2998474
v -0.13971955 -0.070672415 0.27951244
v -0.0672986 -0.090231165 0.25917706
v -0.08104236 -0.090231165 0.25917706
v -0.038993202 -0.06612364 0.25917754
v -0.09478611 -0.090231165 0.25917706
v -0.12309149 -0.06612364 0.25917745
v -0.038993202 -0.042712707 0.25917754
v -0.12309149 -0.042712715 0.25917745
v -0.09478611 -0.018605193 0.25917706
v -0.0672986 -0.018605193 0.25917715
v -0.08104236 -0.018605193 0.25917706
v -0.06988691 -0.07938607 1.6613255
v -0.06988691 -0.079386115 1.3606652
v -0.047260948 -0.06257491 1.335615
v -0.047260948 -0.062574856 1.6274799
v -0.08091164 -0.079392634 1.6883178
v -0.047231913 -0.0462565 1.3444232
v -0.08091164 -0.07939269 1.380643
v -0.047231913 -0.046256453 1.6393807
v -0.09197854 -0.07939923 1.7154127
v -0.0698565 -0.02943735 1.3876532
v -0.09197854 -0.07939928 1.400697
v -0.0698565 -0.029437298 1.6977893
v -0.11495544 -0.06258801 1.7932533
v -0.08090959 -0.029430397 1.4087728
v -0.11495544 -0.062588066 1.4583093
v -0.08090959 -0.029430345 1.7263242
v -0.11500462 -0.0462425 1.814344
v -0.09200726 -0.02942342 1.4299778
v -0.11500462 -0.046242557 1.4739193
v -0.09200726 -0.029423365 1.7549744
v -0.096997894 -0.015007851 0.7303247
v -0.100646935 -0.00590095 0.70379055
v -0.08096456 -0.005905279 0.70299965
v -0.08097217 -0.01501154 0.72968096
v -0.13007791 -0.04153437 0.7316575
v -0.061309874 -0.0059095966 0.7022119
v -0.06497005 -0.015015217 0.7290394
v -0.14127092 -0.038557574 0.7054297
v -0.1300519 -0.06730094 0.7311847
v -0.020917423 -0.038566213 0.70059925
v -0.03208726 -0.04154173 0.727727
v -0.14124036 -0.070278265 0.70484734
v -0.096982695 -0.093823254 0.72943705
v -0.020935457 -0.070270084 0.7002707
v -0.032102622 -0.06729397 0.72745997
v -0.10062909 -0.10292995 0.7026984
v -0.08097326 -0.09381977 0.7288279
v -0.061328758 -0.10292178 0.70120513
v -0.06498613 -0.09381629 0.72822064
v -0.08096583 -0.10292586 0.7019503
v -0.032345317 -0.04155016 0.67422384
v -0.06506066 -0.015041685 0.6755305
v -0.032359242 -0.067285605 0.6739573
v -0.06507524 -0.09379028 0.67471415
v -0.08097812 -0.015038352 0.67616814
v -0.0809791 -0.09379343 0.6753171
v -0.09690318 -0.09379659 0.6759228
v -0.096916966 -0.015035008 0.6768089
v -0.12978749 -0.06729193 0.6776651
v -0.1298111 -0.041543484 0.678138
v -0.07224123 -0.026932022 -0.51760995
v -0.07224123 -0.026931988 -0.30758926
v -0.053738836 -0.045434378 -0.30758926
v -0.053738836 -0.045434415 -0.51760995
v -0.08122512 -0.026932022 -0.51760995
v -0.053738836 -0.06340216 -0.30758926
v -0.08122512 -0.026931988 -0.30758926
v -0.053738836 -0.06340219 -0.51760995
v -0.090209 -0.026932022 -0.51760995
v -0.07224123 -0.08190455 -0.30758926
v -0.090209 -0.026931988 -0.30758926
v -0.07224123 -0.08190458 -0.51760995
v -0.10871141 -0.045434423 -0.51760995
v -0.08122512 -0.08190455 -0.30758926
v -0.10871141 -0.045434386 -0.30758926
v -0.08122512 -0.08190458 -0.51760995
v -0.10871141 -0.06340219 -0.51760995
v -0.090209 -0.08190455 -0.30758926
v -0.10871141 -0.06340216 -0.30758926
v -0.090209 -0.08190458 -0.51760995
v -0.09774534 -0.014757079 1.0949693
v -0.10232185 -0.004033844 1.1267284
v -0.14665641 -0.037944205 1.1302638
v -0.13254909 -0.04144998 1.0977491
v -0.080917366 -0.0147642875 1.093629
v -0.14659005 -0.070891395 1.1290082
v -0.13249823 -0.06738436 1.09676
v -0.080887854 -0.004043254 1.125022
v -0.06413547 -0.014771465 1.0922964
v -0.10228311 -0.10479104 1.1243727
v -0.09771566 -0.09406904 1.0931158
v -0.059514023 -0.0040526236 1.1233226
v -0.029716974 -0.041464362 1.0895653
v -0.080890626 -0.10478214 1.1227589
v -0.08091949 -0.09406223 1.0918498
v -0.0156824 -0.037962984 1.119844
v -0.029746976 -0.067370735 1.0890085
v -0.059555046 -0.104773276 1.121151
v -0.064166896 -0.094055444 1.0905902
v -0.015721582 -0.07087362 1.1191354
v -0.09780842 -0.09410015 1.1555395
v -0.13280669 -0.067394875 1.1591959
v -0.08091268 -0.09409295 1.1542637
v -0.064062975 -0.094085775 1.152991
v -0.13286035 -0.041439343 1.1601843
v -0.029447734 -0.06738049 1.1513983
v -0.029416038 -0.041454542 1.1519575
v -0.09783975 -0.014725403 1.1573961
v -0.06402979 -0.0147405965 1.154705
v -0.08091044 -0.014733013 1.1560489
v -0.20647706 -0.07184224 0.59561324
v -0.0975046 -0.06721233 0.3278081
v -0.0975046 -0.041624013 0.3278081
v -0.20173968 -0.07184075 0.5969983
v -0.08556752 -0.06721084 0.3314359
v -0.08556752 -0.04162252 0.3314359
v -0.20651528 -0.06560201 0.5957214
v -0.20178005 -0.06560052 0.5971057
vt 0.14255244 0.39239725
vt 0.14255244 0.39239725
vt 0.14255244 0.39239725
vt 0.14255244 0.39239725
vt 0.14255244 0.39239725
vt 0.14255244 0.39239725
vt 0.14255244 0.39239725
vt 0.14255244 0.39239725
vt 0.14255244 0.39239725
vt 0.14255244 0.39239725
vt 0.14255244 0.39239725
vt 0.14255244 0.39239725
vt 0.14255244 0.39239725
vt 0.14255244 0.39239725
vt 0.14255244 0.39239725
vt 0.14255244 0.39239725
vt 0.14255244 0.39239725
vt 0.14255244 0.39239725
vt 0.14255244 0.39239725
vt 0.14255244 0.39239725
vt 0.14255244 0.39239725
vt 0.14255244 0.39239725
vt 0.14255244 0.39239725
vt 0.14255244 0.39239725
vt 0.14255244 0.39239725
vt 0.14255244 0.39239725
vt 0.14255244 0.39239725
vt 0.14255244 0.39239725
vt 0.14255244 0.39239725
vt 0.14255244 0.39239725
vt 0.14255244 0.39239725
vt 0.14255244 0.39239725
vt 0.14255244 0.39239725
vt 0.14255244 0.39239725
vt 0.07708896 0.41037387
vt 0.071164474 0.40887377
vt 0.071164474 0.40887377
vt 0.07708896 0.41037387
vt 0.06401412 0.41090584
vt 0.056863762 0.41293788
vt 0.056863762 0.41293788
vt 0.06401412 0.41090584
vt 0.05597607 0.41468656
vt 0.05747843 0.41594702
vt 0.05747843 0.41594702
vt 0.05597607 0.41468656
vt 0.06485291 0.41501212
vt 0.07222738 0.41407722
vt 0.07222738 0.41407722
vt 0.06485291 0.41501212
vt 0.066532515 0.4125302
vt 0.06485291 0.41501212
vt 0.05747843 0.41594702
vt 0.05597607 0.41468656
vt 0.066532515 0.4125302
vt 0.06485291 0.41501212
vt 0.07222738 0.41407722
vt 0.07708896 0.41037387
vt 0.06401412 0.41090584
vt 0.066532515 0.4125302
vt 0.07708896 0.41037387
vt 0.071164474 0.40887377
vt 0.06401412 0.41090584
vt 0.066532515 0.4125302
vt 0.05597607 0.41468656
vt 0.056863762 0.41293788
vt 0.056863762 0.41293788
vt 0.05597607 0.41468656
vt 0.05597607 0.41468656
vt 0.056863762 0.41293788
vt 0.07222738 0.41407722
vt 0.07708896 0.41037387
vt 0.07708896 0.41037387
vt 0.07222738 0.41407722
vt 0.07708896 0.41037387
vt 0.071164474 0.40887377
vt 0.071164474 0.40887377
vt 0.07708896 0.41037387
vt 0.071164474 0.40887377
vt 0.056863762 0.41293788
vt 0.056863762 0.41293788
vt 0.071164474 0.40887377
vt 0.05597607 0.41468656
vt 0.05747843 0.41594702
vt 0.05747843 0.41594702
vt 0.05597607 0.41468656
vt 0.05747843 0.41594702
vt 0.07222738 0.41407722
vt 0.07222738 0.41407722
vt 0.05747843 0.41594702
vt 0.07708896 0.41037387
vt 0.07222738 0.41407722
vt 0.05747843 0.41594702
vt 0.05597607 0.41468656
vt 0.05597607 0.41468656
vt 0.05747843 0.41594702
vt 0.07222738 0.41407722
vt 0.07708896 0.41037387
vt 0.056863762 0.41293788
vt 0.05597607 0.41468656
vt 0.07708896 0.41037387
vt 0.071164474 0.40887377
vt 0.071164474 0.40887377
vt 0.07708896 0.41037387
vt 0.05597607 0.41468656
vt 0.056863762 0.41293788
vt 0.056863762 0.41293788
vt 0.05597607 0.41468656
vt 0.05597607 0.41468656
vt 0.056863762 0.41293788
vt 0.07222738 0.41407722
vt 0.07708896 0.41037387
vt 0.07708896 0.41037387
vt 0.07222738 0.41407722
vt 0.071164474 0.40887377
vt 0.07708896 0.41037387
vt 0.066532515 0.4125302
vt 0.06401412 0.41090584
vt 0.056863762 0.41293788
vt 0.05597607 0.41468656
vt 0.066532515 0.4125302
vt 0.06401412 0.41090584
vt 0.05597607 0.41468656
vt 0.05747843 0.41594702
vt 0.06485291 0.41501212
vt 0.066532515 0.4125302
vt 0.07708896 0.41037387
vt 0.07222738 0.41407722
vt 0.06485291 0.41501212
vt 0.066532515 0.4125302
vt 0.05747843 0.41594702
vt 0.06485291 0.41501212
vt 0.06485291 0.41501212
vt 0.05747843 0.41594702
vt 0.071164474 0.40887377
vt 0.06401412 0.41090584
vt 0.06401412 0.41090584
vt 0.071164474 0.40887377
vt 0.07708896 0.41037387
vt 0.071164474 0.40887377
vt 0.071164474 0.40887377
vt 0.07708896 0.41037387
vt 0.06401412 0.41090584
vt 0.056863762 0.41293788
vt 0.056863762 0.41293788
vt 0.06401412 0.41090584
vt 0.05597607 0.41468656
vt 0.05747843 0.41594702
vt 0.05747843 0.41594702
vt 0.05597607 0.41468656
vt 0.06485291 0.41501212
vt 0.07222738 0.41407722
vt 0.07222738 0.41407722
vt 0.06485291 0.41501212
vt 0.066532515 0.4125302
vt 0.06485291 0.41501212
vt 0.05747843 0.41594702
vt 0.05597607 0.41468656
vt 0.066532515 0.4125302
vt 0.06485291 0.41501212
vt 0.07222738 0.41407722
vt 0.07708896 0.41037387
vt 0.06401412 0.41090584
vt 0.066532515 0.4125302
vt 0.07708896 0.41037387
vt 0.071164474 0.40887377
vt 0.06401412 0.41090584
vt 0.066532515 0.4125302
vt 0.05597607 0.41468656
vt 0.056863762 0.41293788
vt 0.056863762 0.41293788
vt 0.05597607 0.41468656
vt 0.05597607 0.41468656
vt 0.056863762 0.41293788
vt 0.07222738 0.41407722
vt 0.07708896 0.41037387
vt 0.07708896 0.41037387
vt 0.07222738 0.41407722
vt 0.07708896 0.41037387
vt 0.071164474 0.40887377
vt 0.071164474 0.40887377
vt 0.07708896 0.41037387
vt 0.071164474 0.40887377
vt 0.056863762 0.41293788
vt 0.056863762 0.41293788
vt 0.071164474 0.40887377
vt 0.05597607 0.41468656
vt 0.05747843 0.41594702
vt 0.05747843 0.41594702
vt 0.05597607 0.41468656
vt 0.05747843 0.41594702
vt 0.07222738 0.41407722
vt 0.07222738 0.41407722
vt 0.05747843 0.41594702
vt 0.07708896 0.41037387
vt 0.07222738 0.41407722
vt 0.05747843 0.41594702
vt 0.05597607 0.41468656
vt 0.05597607 0.41468656
vt 0.05747843 0.41594702
vt 0.07222738 0.41407722
vt 0.07708896 0.41037387
vt 0.056863762 0.41293788
vt 0.05597607 0.41468656
vt 0.07708896 0.41037387
vt 0.071164474 0.40887377
vt 0.071164474 0.40887377
vt 0.07708896 0.41037387
vt 0.05597607 0.41468656
vt 0.056863762 0.41293788
vt 0.056863762 0.41293788
vt 0.05597607 0.41468656
vt 0.05597607 0.41468656
vt 0.056863762 0.41293788
vt 0.07222738 0.41407722
vt 0.07708896 0.41037387
vt 0.07708896 0.41037387
vt 0.07222738 0.41407722
vt 0.071164474 0.40887377
vt 0.07708896 0.41037387
vt 0.066532515 0.4125302
vt 0.06401412 0.41090584
vt 0.056863762 0.41293788
vt 0.05597607 0.41468656
vt 0.066532515 0.4125302
vt 0.06401412 0.41090584
vt 0.05597607 0.41468656
vt 0.05747843 0.41594702
vt 0.06485291 0.41501212
vt 0.066532515 0.4125302
vt 0.07708896 0.41037387
vt 0.07222738 0.41407722
vt 0.06485291 0.41501212
vt 0.066532515 0.4125302
vt 0.05747843 0.41594702
vt 0.06485291 0.41501212
vt 0.06485291 0.41501212
vt 0.05747843 0.41594702
vt 0.071164474 0.40887377
vt 0.06401412 0.41090584
vt 0.06401412 0.41090584
vt 0.071164474 0.40887377
vt 0.07708896 0.41037387
vt 0.071164474 0.40887377
vt 0.071164474 0.40887377
vt 0.07708896 0.41037387
vt 0.06401412 0.41090584
vt 0.056863762 0.41293788
vt 0.056863762 0.41293788
vt 0.06401412 0.41090584
vt 0.05597607 0.41468656
vt 0.05747843 0.41594702
vt 0.05747843 0.41594702
vt 0.05597607 0.41468656
vt 0.06485291 0.41501212
vt 0.07222738 0.41407722
vt 0.07222738 0.41407722
vt 0.06485291 0.41501212
vt 0.066532515 0.4125302
vt 0.06485291 0.41501212
vt 0.05747843 0.41594702
vt 0.05597607 0.41468656
vt 0.066532515 0.4125302
vt 0.06485291 0.41501212
vt 0.07222738 0.41407722
vt 0.07708896 0.41037387
vt 0.06401412 0.41090584
vt 0.066532515 0.4125302
vt 0.07708896 0.41037387
vt 0.071164474 0.40887377
vt 0.06401412 0.41090584
vt 0.066532515 0.4125302
vt 0.05597607 0.41468656
vt 0.056863762 0.41293788
vt 0.056863762 0.41293788
vt 0.05597607 0.41468656
vt 0.05597607 0.41468656
vt 0.056863762 0.41293788
vt 0.07222738 0.41407722
vt 0.07708896 0.41037387
vt 0.07708896 0.41037387
vt 0.07222738 0.41407722
vt 0.071164474 0.40887377
vt 0.07708896 0.41037387
vt 0.066532515 0.4125302
vt 0.06401412 0.41090584
vt 0.056863762 0.41293788
vt 0.05597607 0.41468656
vt 0.066532515 0.4125302
vt 0.06401412 0.41090584
vt 0.05597607 0.41468656
vt 0.05747843 0.41594702
vt 0.06485291 0.41501212
vt 0.066532515 0.4125302
vt 0.07708896 0.41037387
vt 0.07222738 0.41407722
vt 0.06485291 0.41501212
vt 0.066532515 0.4125302
vt 0.05747843 0.41594702
vt 0.06485291 0.41501212
vt 0.06485291 0.41501212
vt 0.05747843 0.41594702
vt 0.071164474 0.40887377
vt 0.06401412 0.41090584
vt 0.06401412 0.41090584
vt 0.071164474 0.40887377
vt 0.04087526 0.42338595
vt 0.04087526 0.42338595
vt 0.04087526 0.42338595
vt 0.04087526 0.42338595
vt 0.04087526 0.42338595
vt 0.04087526 0.42338595
vt 0.04087526 0.42338595
vt 0.04087526 0.42338595
vt 0.04087526 0.42338595
vt 0.04087526 0.42338595
vt 0.04087526 0.42338595
vt 0.04087526 0.42338595
vt 0.04087526 0.42338595
vt 0.04087526 0.42338595
vt 0.04087526 0.42338595
vt 0.04087526 0.42338595
vt 0.04087526 0.42338595
vt 0.04087526 0.42338595
vt 0.04087526 0.42338595
vt 0.04087526 0.42338595
vt 0.04087526 0.42338595
vt 0.04087526 0.42338595
vt 0.04087526 0.42338595
vt 0.04087526 0.42338595
vt 0.04087526 0.42338595
vt 0.04087526 0.42338595
vt 0.04087526 0.42338595
vt 0.04087526 0.42338595
vt 0.04087526 0.42338595
vt 0.04087526 0.42338595
vt 0.04087526 0.42338595
vt 0.04087526 0.42338595
vt 0.04087526 0.42338595
vt 0.04087526 0.42338595
vt 0.04087526 0.42338595
vt 0.04087526 0.42338595
vt 0.04087526 0.42338595
vt 0.04087526 0.42338598
vt 0.04087526 0.42338595
vt 0.04087526 0.42338595
vt 0.04087526 0.42338595
vt 0.04087526 0.42338595
vt 0.04087526 0.42338595
vt 0.04087526 0.42338595
vt 0.04087526 0.42338595
vt 0.04087526 0.42338595
vt 0.04087526 0.42338595
vt 0.04087526 0.42338595
vt 0.04087526 0.42338595
vt 0.04087526 0.42338598
vt 0.04087526 0.42338595
vt 0.04087526 0.42338592
vt 0.04087526 0.42338595
vt 0.04087526 0.42338595
vt 0.04087526 0.42338592
vt 0.04087526 0.42338595
vt 0.04087526 0.423386
vt 0.04087526 0.42338595
vt 0.04087526 0.42338598
vt 0.04087526 0.42338595
vt 0.04087526 0.42338598
vt 0.04087526 0.42338595
vt 0.04087526 0.42338595
vt 0.04087526 0.42338595
vt 0.04087526 0.42338595
vt 0.04087526 0.42338595
vt 0.04087526 0.42338595
vt 0.04087526 0.42338595
vt 0.04087526 0.42338595
vt 0.04087526 0.42338595
vt 0.04087526 0.42338595
vt 0.04087526 0.42338598
vt 0.04087526 0.42338595
vt 0.04087526 0.423386
vt 0.04087526 0.42338595
vt 0.04087526 0.423386
vt 0.04087526 0.42338595
vt 0.04087526 0.42338595
vt 0.04087526 0.42338595
vt 0.04087526 0.42338595
vt 0.04087526 0.42338592
vt 0.04087526 0.42338598
vt 0.04087526 0.42338595
vt 0.04087526 0.42338595
vt 0.04087526 0.42338595
vt 0.04087526 0.42338598
vt 0.04087526 0.42338595
vt 0.04087526 0.42338595
vt 0.04087526 0.42338595
vt 0.04087526 0.423386
vt 0.04087526 0.42338595
vt 0.04087526 0.423386
vt 0.04087526 0.42338595
vt 0.04087526 0.42338598
vt 0.04087526 0.42338595
vt 0.04087526 0.42338598
vt 0.04087526 0.42338595
vt 0.04087526 0.42338595
vt 0.04087526 0.42338598
vt 0.04087526 0.42338595
vt 0.04087526 0.42338598
vt 0.04087526 0.423386
vt 0.04087526 0.42338595
vt 0.04087526 0.42338598
vt 0.04087526 0.42338595
vt 0.04087526 0.42338595
vt 0.04087526 0.42338598
vt 0.04087526 0.42338595
vt 0.04087526 0.42338595
vt 0.04087526 0.42338595
vt 0.1446187 0.39074424
vt 0.1446187 0.39074424
vt 0.1446187 0.39074424
vt 0.1446187 0.39074424
vt 0.1446187 0.39074424
vt 0.1446187 0.39074424
vt 0.1446187 0.39074424
vt 0.1446187 0.39074424
vt 0.1446187 0.39074424
vt 0.1446187 0.39074424
vt 0.1446187 0.39074424
vt 0.1446187 0.39074424
vt 0.1446187 0.39074424
vt 0.1446187 0.39074424
vt 0.1446187 0.39074424
vt 0.1446187 0.39074424
vt 0.1446187 0.39074424
vt 0.1446187 0.39074424
vt 0.1446187 0.39074424
vt 0.1446187 0.39074424
vt 0.123500094 0.41308826
vt 0.123500094 0.41308826
vt 0.123500094 0.41308826
vt 0.123500094 0.41308826
vt 0.123500094 0.41308826
vt 0.123500094 0.41308826
vt 0.123500094 0.41308826
vt 0.123500094 0.41308826
vt 0.123500094 0.41308826
vt 0.123500094 0.41308826
vt 0.123500094 0.41308826
vt 0.123500094 0.41308826
vt 0.123500094 0.41308826
vt 0.123500094 0.41308826
vt 0.123500094 0.41308826
vt 0.123500094 0.41308826
vt 0.123500094 0.41308826
vt 0.123500094 0.41308826
vt 0.123500094 0.41308826
vt 0.123500094 0.41308826
vt 0.123500094 0.41308826
vt 0.123500094 0.41308826
vt 0.123500094 0.41308826
vt 0.123500094 0.41308826
vt 0.123500094 0.41308826
vt 0.123500094 0.41308826
vt 0.123500094 0.41308826
vt 0.123500094 0.41308826
vt 0.123500094 0.41308826
vt 0.123500094 0.41308826
vt 0.123500094 0.41308826
vt 0.123500094 0.41308826
vt 0.123500094 0.41308826
vt 0.123500094 0.41308826
vt 0.123500094 0.41308826
vt 0.123500094 0.41308826
vt 0.123500094 0.41308826
vt 0.123500094 0.41308826
vt 0.123500094 0.41308826
vt 0.123500094 0.41308826
vt 0.123500094 0.41308826
vt 0.123500094 0.41308826
vt 0.123500094 0.41308826
vt 0.123500094 0.41308826
vt 0.123500094 0.41308826
vt 0.123500094 0.41308826
vt 0.123500094 0.41308826
vt 0.123500094 0.41308826
vt 0.123500094 0.41308826
vt 0.123500094 0.41308826
vt 0.123500094 0.41308826
vt 0.123500094 0.41308826
vt 0.123500094 0.41308826
vt 0.123500094 0.41308826
vt 0.123500094 0.41308826
vt 0.123500094 0.41308826
vt 0.123500094 0.41308826
vt 0.123500094 0.41308826
vt 0.123500094 0.41308826
vt 0.123500094 0.41308826
vt 0.109912574 0.6046517
vt 0.109912574 0.6046517
vt 0.109912574 0.6046517
vt 0.109912574 0.6046517
vt 0.109912574 0.6046517
vt 0.109912574 0.6046517
vt 0.109912574 0.6046517
vt 0.109912574 0.6046517
vt 0.109912574 0.6046517
vt 0.109912574 0.6046517
vt 0.109912574 0.6046517
vt 0.109912574 0.6046517
vt 0.109912574 0.6046517
vt 0.109912574 0.6046517
vt 0.109912574 0.6046517
vt 0.109912574 0.6046517
vt 0.109912574 0.6046517
vt 0.109912574 0.6046517
vt 0.109912574 0.6046517
vt 0.109912574 0.6046517
vt 0.123500094 0.41308826
vt 0.123500094 0.41308826
vt 0.123500094 0.41308826
vt 0.123500094 0.41308826
vt 0.123500094 0.41308826
vt 0.123500094 0.41308826
vt 0.123500094 0.41308826
vt 0.123500094 0.41308826
vt 0.123500094 0.41308826
vt 0.123500094 0.41308826
vt 0.123500094 0.41308826
vt 0.123500094 0.41308826
vt 0.123500094 0.41308826
vt 0.123500094 0.41308826
vt 0.123500094 0.41308826
vt 0.123500094 0.41308826
vt 0.123500094 0.41308826
vt 0.123500094 0.41308826
vt 0.123500094 0.41308826
vt 0.123500094 0.41308826
vt 0.123500094 0.41308826
vt 0.123500094 0.41308826
vt 0.123500094 0.41308826
vt 0.123500094 0.41308826
vt 0.123500094 0.41308826
vt 0.123500094 0.41308826
vt 0.123500094 0.41308826
vt 0.123500094 0.41308826
vt 0.123500094 0.41308826
vt 0.123500094 0.41308826
vt 0.109912574 0.6046517
vt 0.109912574 0.6046517
vt 0.109912574 0.6046517
vt 0.109912574 0.6046517
vt 0.109912574 0.6046517
vt 0.109912574 0.6046517
vt 0.109912574 0.6046517
vt 0.109912574 0.6046517
vt 0.109912574 0.6046517
vt 0.109912574 0.6046517
vt 0.109912574 0.6046517
vt 0.109912574 0.6046517
vt 0.109912574 0.6046517
vt 0.109912574 0.6046517
vt 0.109912574 0.6046517
vt 0.109912574 0.6046517
vt 0.109912574 0.6046517
vt 0.109912574 0.6046517
vt 0.109912574 0.6046517
vt 0.109912574 0.6046517
vt 0.123500094 0.41308826
vt 0.123500094 0.41308826
vt 0.123500094 0.41308826
vt 0.123500094 0.41308826
vt 0.123500094 0.41308826
vt 0.123500094 0.41308826
vt 0.123500094 0.41308826
vt 0.123500094 0.41308826
vt 0.123500094 0.41308826
vt 0.123500094 0.41308826
vt 0.123500094 0.41308826
vt 0.123500094 0.41308826
vt 0.123500094 0.41308826
vt 0.123500094 0.41308826
vt 0.123500094 0.41308826
vt 0.123500094 0.41308826
vt 0.123500094 0.41308826
vt 0.123500094 0.41308826
vt 0.123500094 0.41308826
vt 0.123500094 0.41308826
vt 0.123500094 0.41308826
vt 0.123500094 0.41308826
vt 0.123500094 0.41308826
vt 0.123500094 0.41308826
vt 0.123500094 0.41308826
vt 0.123500094 0.41308826
vt 0.123500094 0.41308826
vt 0.123500094 0.41308826
vt 0.123500094 0.41308826
vt 0.123500094 0.41308826
vt 0.04087526 0.423386
vt 0.04087526 0.42338595
vt 0.04087526 0.42338595
vt 0.04087526 0.423386
vt 0.04087526 0.42338595
vt 0.04087526 0.42338595
vt 0.04087526 0.42338598
vt 0.04087526 0.42338598
vn 0.87980986 -0.3392205 0.33296245
vn 0.87980986 -0.3392205 0.33296245
vn 0.87980986 -0.3392205 0.33296245
vn 0.87980986 -0.3392205 0.33296245
vn 0.87298656 -0.3328795 0.35649097
vn 0.87298656 -0.3328795 0.35649097
vn 0.8729932 -0.33287096 0.35648245
vn 0.8729932 -0.33287096 0.35648245
vn 0.9358639 -0.14322469 0.32194
vn 0.9358639 -0.14322469 0.32194
vn 0.9358639 -0.14322469 0.32194
vn 0.9358639 -0.14322469 0.32194
vn 0.91209906 -0.2078873 0.3533527
vn 0.91209906 -0.2078873 0.3533527
vn 0.91209906 -0.2078873 0.3533527
vn 0.91209906 -0.2078873 0.3533527
vn 0.9120981 -0.20788941 0.35335413
vn 0.9120981 -0.20788941 0.35335413
vn 0.8446206 -0.38237542 0.37470677
vn 0.8446206 -0.38237542 0.37470677
vn 0.8446206 -0.38237542 0.37470677
vn 0.8446206 -0.38237542 0.37470677
vn 0.8996765 -0.1764619 0.39930373
vn 0.8996765 -0.1764619 0.39930373
vn 0.8996765 -0.1764619 0.39930373
vn 0.8996765 -0.1764619 0.39930373
vn 0.8822078 -0.2784715 0.37968808
vn 0.8822078 -0.2784715 0.37968808
vn 0.8822078 -0.2784715 0.37968808
vn 0.8822078 -0.2784715 0.37968808
vn 0.8571359 -0.40616384 0.31677923
vn 0.8571359 -0.40616384 0.31677923
vn 0.8571359 -0.40616384 0.31677923
vn 0.8571359 -0.40616384 0.31677923
vn -0.9088564 -0.10373436 -0.40400398
vn -0.9088564 -0.10373436 -0.40400398
vn -0.9088564 -0.10373436 -0.40400398
vn -0.9088564 -0.10373436 -0.40400398
vn -0.45077714 0.056857947 -0.8908238
vn -0.45077714 0.056857947 -0.8908238
vn -0.45077714 0.056857947 -0.8908238
vn -0.45077714 0.056857947 -0.8908238
vn 0.9489733 0.051418163 0.31113642
vn 0.9489733 0.051418163 0.31113642
vn 0.9489733 0.051418163 0.31113642
vn 0.9489733 0.051418163 0.31113642
vn 0.6996701 0.024961064 0.71402997
vn 0.6996701 0.024961064 0.71402997
vn 0.6996701 0.024961064 0.71402997
vn 0.6996701 0.024961064 0.71402997
vn 0.53251904 -0.63738567 0.5569228
vn 0.53251904 -0.63738567 0.5569228
vn 0.53251904 -0.63738567 0.5569228
vn 0.53251904 -0.63738567 0.5569228
vn -0.4152501 0.88198113 0.2228828
vn -0.4152501 0.88198113 0.2228828
vn -0.4152501 0.88198113 0.2228828
vn -0.4152501 0.88198113 0.2228828
vn -0.27344862 0.87867886 0.3913429
vn -0.27344862 0.87867886 0.3913429
vn -0.27344862 0.87867886 0.3913429
vn -0.27344862 0.87867886 0.3913429
vn -0.25119275 -0.6900492 -0.6787743
vn -0.25119275 -0.6900492 -0.6787743
vn -0.25119275 -0.6900492 -0.6787743
vn -0.25119275 -0.6900492 -0.6787743
vn 0.15717483 0.034926996 -0.986953
vn 0.15717483 0.034926996 -0.986953
vn 0.15717483 0.034926996 -0.986953
vn 0.15717483 0.034926996 -0.986953
vn 0.25661293 -0.16867203 0.95168245
vn 0.25661293 -0.16867203 0.95168245
vn 0.25661293 -0.16867203 0.95168245
vn 0.25661293 -0.16867203 0.95168245
vn -0.49113962 -0.014683895 -0.87095714
vn -0.49113962 -0.014683895 -0.87095714
vn -0.49113962 -0.014683895 -0.87095714
vn -0.49113962 -0.014683895 -0.87095714
vn 0.02784715 -0.35692412 -0.93371826
vn 0.02784715 -0.35692412 -0.93371826
vn 0.02784715 -0.35692412 -0.93371826
vn 0.02784715 -0.35692412 -0.93371826
vn 0.43092367 0.01953996 0.90217686
vn 0.43092367 0.01953996 0.90217686
vn 0.43092367 0.01953996 0.90217686
vn 0.43092367 0.01953996 0.90217686
vn 0.14622737 0.26703358 0.9525285
vn 0.14622737 0.26703358 0.9525285
vn 0.14622737 0.26703358 0.9525285
vn 0.14622737 0.26703358 0.9525285
vn -0.46656874 -0.8842964 -0.018259292
vn -0.46656874 -0.8842964 -0.018259292
vn -0.46656874 -0.8842964 -0.018259292
vn -0.46656874 -0.8842964 -0.018259292
vn 0.41489187 0.82278156 0.38845238
vn 0.41489187 0.82278156 0.38845238
vn 0.41489187 0.82278156 0.38845238
vn 0.41489187 0.82278156 0.38845238
vn 0.4098151 0.6080561 -0.67994064
vn 0.4098151 0.6080561 -0.67994064
vn 0.4098151 0.6080561 -0.67994064
vn 0.4098151 0.6080561 -0.67994064
vn -0.4415389 -0.7305581 0.5208918
vn -0.4415389 -0.7305581 0.5208918
vn -0.4415389 -0.7305581 0.5208918
vn -0.4415389 -0.7305581 0.5208918
vn 0.62353045 -0.13587579 -0.7699011
vn 0.62353045 -0.13587579 -0.7699011
vn 0.62353045 -0.13587579 -0.7699011
vn 0.62353045 -0.13587579 -0.7699011
vn -0.46979362 0.18631874 0.8628901
vn -0.46979362 0.18631874 0.8628901
vn -0.46979362 0.18631874 0.8628901
vn -0.46979362 0.18631874 0.8628901
vn -0.024334744 -0.768413 -0.6394915
vn -0.024334744 -0.768413 -0.6394915
vn -0.024334744 -0.768413 -0.6394915
vn -0.024334744 -0.768413 -0.6394915
vn 0.07314264 0.9378639 0.33920723
vn 0.07314264 0.9378639 0.33920723
vn 0.07314264 0.9378639 0.33920723
vn 0.07314264 0.9378639 0.33920723
vn -0.27507523 0.9394152 -0.2045304
vn -0.27507523 0.9394152 -0.2045304
vn -0.27507523 0.9394152 -0.2045304
vn -0.27507523 0.9394152 -0.2045304
vn 0.61322546 -0.7765201 0.14481412
vn 0.61322546 -0.7765201 0.14481412
vn 0.61322546 -0.7765201 0.14481412
vn 0.61322546 -0.7765201 0.14481412
vn 0.6105302 0.0100491075 0.79192924
vn 0.6105302 0.0100491075 0.79192924
vn 0.6105302 0.0100491075 0.79192924
vn 0.6105302 0.0100491075 0.79192924
vn -0.56072176 0.05804599 -0.8259672
vn -0.56072176 0.05804599 -0.8259672
vn -0.56072176 0.05804599 -0.8259672
vn -0.56072176 0.05804599 -0.8259672
vn -0.46913788 0.8116447 -0.34805545
vn -0.46913788 0.8116447 -0.34805545
vn -0.46913788 0.8116447 -0.34805545
vn -0.46913788 0.8116447 -0.34805545
vn 0.15882178 0.76512915 -0.62398165
vn 0.15882178 0.76512915 -0.62398165
vn 0.15882178 0.76512915 -0.62398165
vn 0.15882178 0.76512915 -0.62398165
vn 0.50961775 -0.8255182 0.24250641
vn 0.50961775 -0.8255182 0.24250641
vn 0.50961775 -0.8255182 0.24250641
vn 0.50961775 -0.8255182 0.24250641
vn 0.13747339 -0.83241105 0.536836
vn 0.13747339 -0.83241105 0.536836
vn 0.13747339 -0.83241105 0.536836
vn 0.13747339 -0.83241105 0.536836
vn -0.28189635 -0.9593899 -0.010267502
vn -0.28189635 -0.9593899 -0.010267502
vn -0.28189635 -0.9593899 -0.010267502
vn -0.28189635 -0.9593899 -0.010267502
vn 0.1298253 0.64082056 0.75663364
vn 0.1298253 0.64082056 0.75663364
vn 0.1298253 0.64082056 0.75663364
vn 0.1298253 0.64082056 0.75663364
vn 0.14153408 0.4573909 0.87793034
vn 0.14153408 0.4573909 0.87793034
vn 0.14153408 0.4573909 0.87793034
vn 0.14153408 0.4573909 0.87793034
vn -0.24262057 0.15654057 -0.95740813
vn -0.24262057 0.15654057 -0.95740813
vn -0.24262057 0.15654057 -0.95740813
vn -0.24262057 0.15654057 -0.95740813
vn 0.5942032 0.3420816 -0.7279441
vn 0.5942032 0.3420816 -0.7279441
vn 0.5942032 0.3420816 -0.7279441
vn 0.5942032 0.3420816 -0.7279441
vn -0.38102624 -0.7014335 0.6023371
vn -0.38102624 -0.7014335 0.6023371
vn -0.38102624 -0.7014335 0.6023371
vn -0.38102624 -0.7014335 0.6023371
vn 0.32079744 -0.41743943 0.85019606
vn 0.32079744 -0.41743943 0.85019606
vn 0.32079744 -0.41743943 0.85019606
vn 0.32079744 -0.41743943 0.85019606
vn 0.7729742 -0.04503527 0.63283706
vn 0.7729742 -0.04503527 0.63283706
vn 0.7729742 -0.04503527 0.63283706
vn 0.7729742 -0.04503527 0.63283706
vn -0.3838346 0.41517615 -0.8248029
vn -0.3838346 0.41517615 -0.8248029
vn -0.3838346 0.41517615 -0.8248029
vn -0.3838346 0.41517615 -0.8248029
vn -0.6554643 0.16336627 -0.73734534
vn -0.6554643 0.16336627 -0.73734534
vn -0.6554643 0.16336627 -0.73734534
vn -0.6554643 0.16336627 -0.73734534
vn -0.11410291 0.70982563 0.69507414
vn -0.11410291 0.70982563 0.69507414
vn -0.11410291 0.70982563 0.69507414
vn -0.11410291 0.70982563 0.69507414
vn -0.1783376 -0.5159373 -0.83785695
vn -0.1783376 -0.5159373 -0.83785695
vn -0.1783376 -0.5159373 -0.83785695
vn -0.1783376 -0.5159373 -0.83785695
vn 0.6434551 -0.74837583 -0.16093265
vn 0.6434551 -0.74837583 -0.16093265
vn 0.6434551 -0.74837583 -0.16093265
vn 0.6434551 -0.74837583 -0.16093265
vn -0.5232258 0.79006875 0.31941515
vn -0.5232258 0.79006875 0.31941515
vn -0.5232258 0.79006875 0.31941515
vn -0.5232258 0.79006875 0.31941515
vn 0.9968849 -0.077042975 0.016875999
vn 0.9968849 -0.077042975 0.016875999
vn 0.9968849 -0.077042975 0.016875999
vn 0.9968849 -0.077042975 0.016875999
vn -0.97491384 0.09492336 -0.20132716
vn -0.97491384 0.09492336 -0.20132716
vn -0.97491384 0.09492336 -0.20132716
vn -0.97491384 0.09492336 -0.20132716
vn -0.15658128 -0.06922669 -0.98523605
vn -0.15658128 -0.06922669 -0.98523605
vn -0.15658128 -0.06922669 -0.98523605
vn -0.15658128 -0.06922669 -0.98523605
vn 0.42999327 0.24995068 0.86754274
vn 0.42999327 0.24995068 0.86754274
vn 0.42999327 0.24995068 0.86754274
vn 0.42999327 0.24995068 0.86754274
vn 0.45936427 0.7555559 0.4670328
vn 0.45936427 0.7555559 0.4670328
vn 0.45936427 0.7555559 0.4670328
vn 0.45936427 0.7555559 0.4670328
vn -0.1128267 -0.90273994 -0.41512743
vn -0.1128267 -0.90273994 -0.41512743
vn -0.1128267 -0.90273994 -0.41512743
vn -0.1128267 -0.90273994 -0.41512743
vn 0.032773174 -0.80782044 0.5885168
vn 0.032773174 -0.80782044 0.5885168
vn 0.032773174 -0.80782044 0.5885168
vn 0.032773174 -0.80782044 0.5885168
vn 0.05584912 0.81897837 -0.5711001
vn 0.05584912 0.81897837 -0.5711001
vn 0.05584912 0.81897837 -0.5711001
vn 0.05584912 0.81897837 -0.5711001
vn -0.6590393 -0.19989704 0.7250576
vn -0.6590393 -0.19989704 0.7250576
vn -0.6590393 -0.19989704 0.7250576
vn -0.6590393 -0.19989704 0.7250576
vn -0.9802679 0.074920796 0.1829254
vn -0.9802679 0.074920796 0.1829254
vn -0.9802679 0.074920796 0.1829254
vn -0.9802679 0.074920796 0.1829254
vn 0.5796984 0.16357234 -0.7982443
vn 0.5796984 0.16357234 -0.7982443
vn 0.5796984 0.16357234 -0.7982443
vn 0.5796984 0.16357234 -0.7982443
vn 0.8891444 0.060484353 -0.453612
vn 0.8891444 0.060484353 -0.453612
vn 0.8891444 0.060484353 -0.453612
vn 0.8891444 0.060484353 -0.453612
vn 0.6571339 -0.6009479 -0.455013
vn 0.6571339 -0.6009479 -0.455013
vn 0.6571339 -0.6009479 -0.455013
vn 0.6571339 -0.6009479 -0.455013
vn 0.13361232 0.7830377 0.60745335
vn 0.13361232 0.7830377 0.60745335
vn 0.13361232 0.7830377 0.60745335
vn 0.13361232 0.7830377 0.60745335
vn 0.3360577 0.7847495 0.52080077
vn 0.3360577 0.7847495 0.52080077
vn 0.3360577 0.7847495 0.52080077
vn 0.3360577 0.7847495 0.52080077
vn -0.75593394 -0.6503841 -0.07459409
vn -0.75593394 -0.6503841 -0.07459409
vn -0.75593394 -0.6503841 -0.07459409
vn -0.75593394 -0.6503841 -0.07459409
vn -0.8935032 0.15459558 -0.42160696
vn -0.8935032 0.15459558 -0.42160696
vn -0.8935032 0.15459558 -0.42160696
vn -0.8935032 0.15459558 -0.42160696
vn 0.9754608 -0.22016521 -0.0018601655
vn 0.9754608 -0.22016521 -0.0018601655
vn 0.9754608 -0.22016521 -0.0018601655
vn 0.9754608 -0.22016521 -0.0018601655
vn -0.6553244 -0.6970255 -0.29104203
vn -0.6553244 -0.6970255 -0.29104203
vn -0.6553244 -0.6970255 -0.29104203
vn -0.6553244 -0.6970255 -0.29104203
vn 0.39161217 0.9004421 0.18932483
vn 0.39161217 0.9004421 0.18932483
vn 0.39161217 0.9004421 0.18932483
vn 0.39161217 0.9004421 0.18932483
vn -0.22994497 0.9024992 0.36417103
vn -0.22994497 0.9024992 0.36417103
vn -0.22994497 0.9024992 0.36417103
vn -0.22994497 0.9024992 0.36417103
vn 0.28089708 -0.6853265 -0.6718814
vn 0.28089708 -0.6853265 -0.6718814
vn 0.28089708 -0.6853265 -0.6718814
vn 0.28089708 -0.6853265 -0.6718814
vn 0.93641335 0.024752986 -0.35002488
vn 0.93641335 0.024752986 -0.35002488
vn 0.93641335 0.024752986 -0.35002488
vn 0.93641335 0.024752986 -0.35002488
vn -0.95079947 0.05311556 0.30521974
vn -0.95079947 0.05311556 0.30521974
vn -0.95079947 0.05311556 0.30521974
vn -0.95079947 0.05311556 0.30521974
vn 0.2971048 0.7172937 -0.63025284
vn 0.7172937 0.2971048 -0.63025284
vn 0.8283034 0.35134226 -0.43643102
vn 0.7172937 -0.2971048 -0.63025284
vn 0.35134226 0.8283034 -0.43643102
vn 0.8283034 -0.35134226 -0.43643102
vn -0 0.92265016 -0.385638
vn -0 0.70710677 -0.70710677
vn 0.35134226 -0.8283034 -0.43643102
vn 0.2971048 -0.7172937 -0.63025284
vn -0 -0.70710677 -0.70710677
vn -0 -0.92265016 -0.385638
vn -0.35134226 0.8283034 -0.43643102
vn -0.2971048 0.7172937 -0.63025284
vn -0.2971048 -0.7172937 -0.63025284
vn -0.35134226 -0.8283034 -0.43643102
vn -0.7172937 0.2971048 -0.63025284
vn -0.8283034 0.35134226 -0.43643102
vn -0.8283034 -0.35134226 -0.43643102
vn -0.7172937 -0.2971048 -0.63025284
vn 0.79766214 -0.35009116 0.49109206
vn 0.8401205 0.39582834 -0.3708335
vn 0.79766214 0.35009116 0.49109206
vn 0.33080184 0.8053509 0.49191475
vn 0.8401205 -0.39582834 -0.3708335
vn 0.33412164 0.8824254 -0.3311918
vn -0 0.9572152 -0.28937715
vn -0 0.8998591 0.43618062
vn 0.33412164 -0.8824254 -0.3311918
vn 0.33080184 -0.8053509 0.49191475
vn -0 -0.8998591 0.43618062
vn -0 -0.9572152 -0.28937715
vn -0.33412167 0.88251704 -0.3309477
vn -0.33085576 0.805242 0.49205676
vn -0.33085576 -0.805242 0.49205676
vn -0.33412167 -0.88251704 -0.3309477
vn -0.7974937 0.3499316 0.49147904
vn -0.84031427 0.39595544 -0.37025833
vn -0.84031427 -0.39595544 -0.37025833
vn -0.7974937 -0.3499316 0.49147904
vn 0.31834155 0.94797486 -0.001495421
vn 0.7145296 0.643571 0.27434248
vn 0.72476274 0.62933016 0.28046864
vn 0.9352028 0.30378908 0.18195604
vn 0.0002441555 0.9999999 -0.000488311
vn 0.4278748 0.8236132 0.3722694
vn -0.31609017 0.94872826 -0.0013123372
vn -0.15674834 0.13700221 0.97809017
vn -0.89470214 0.4466491 -0.0035707515
vn -0.2687793 -0.81683636 0.51042736
vn 0.013550664 0.9862381 0.16477486
vn -0.29811487 0.9366752 0.18375814
vn 0.32661262 0.92743707 0.18216696
vn -0.8664498 0.44854566 0.21925238
vn 0.895563 0.4449127 -0.0044253217
vn 0.87434787 0.43532753 0.21448973
vn 0.8703132 -0.44344252 0.21427462
vn -0.8941526 -0.4477477 -0.003631789
vn -0.8601172 -0.4598299 0.220805
vn -0.2969867 -0.93731946 0.18229386
vn 0.89538056 -0.44527927 -0.004486364
vn 0.89370775 -0.43841517 0.095282435
vn 0.323964 -0.9286154 0.18088879
vn -0.3163648 -0.94863665 -0.001373376
vn 0.231366 -0.9377022 0.2591995
vn 0.5347305 -0.81639403 0.21809165
vn 0.31843302 -0.94794405 -0.0015564582
vn 0.5222222 -0.83074564 0.19273178
vn 0.0126655325 -0.9866297 0.16248505
vn 0.00021363606 -0.9999999 -0.000488311
vn 0.32982385 0.92669296 0.18015638
vn 0.8785322 0.43059856 0.20679963
vn 0.86458236 0.44765764 -0.22825412
vn 0.87663096 -0.43450058 0.20670593
vn 0.30491778 0.93416363 -0.18537392
vn 0.8677242 -0.44155297 -0.22822319
vn -0.012665301 0.9863675 -0.16406906
vn 0.32853833 -0.9272625 0.17957452
vn 0.0068058376 0.9865413 0.16337064
vn 0.3075444 -0.9330404 -0.18668741
vn -0.32807904 0.9266783 -0.18338856
vn 0.0064088977 -0.98672605 0.16226718
vn -0.31559628 0.93149894 0.1808552
vn -0.012177111 -0.98597974 -0.16642052
vn -0.8699972 0.43888977 -0.22467883
vn -0.87474155 0.4372487 0.20890398
vn -0.31507596 -0.93179953 0.18021342
vn -0.32950947 -0.9259042 -0.18472916
vn -0.87462866 -0.43063053 -0.2226705
vn -0.87184405 -0.4426515 0.20963688
vn -0.32795796 -0.9070573 0.26398996
vn -0.87943834 -0.42470378 -0.21497653
vn -0.3346717 -0.9243299 -0.18332781
vn -0.0060733724 -0.9863279 -0.164683
vn -0.86015815 -0.4178408 0.29246718
vn 3.051894E-05 -0.9714177 0.23737629
vn -0.86023676 0.41768196 0.2924628
vn 0.32366112 -0.9280727 -0.18418622
vn -0.87730724 0.42861277 -0.2159239
vn 0.32832634 -0.90694124 0.26393068
vn -0.32793072 0.9070664 0.2639926
vn 0.876272 -0.4299873 -0.21738943
vn -0.33397236 0.9247033 -0.18271886
vn 0.8603693 -0.41753444 0.29228324
vn 3.051894E-05 0.9714177 0.23737629
vn -0.0063785524 0.9865088 -0.16358393
vn 0.87483627 0.432886 -0.21741961
vn 0.8604291 0.4174117 0.29228282
vn 0.32832634 0.90694124 0.26393068
vn 0.3223736 0.92863613 -0.18360311
vn -0 -0.70710677 -0.70710677
vn 0.22746067 0.5491345 -0.8041847
vn -0.2971048 -0.7172937 -0.63025284
vn -0 0.70710677 -0.70710677
vn 0.5491345 0.22746067 -0.8041847
vn 0.2971048 -0.7172937 -0.63025284
vn -0.7172937 -0.2971048 -0.63025284
vn -0.22746067 0.5491345 -0.8041847
vn 0.5491345 -0.22746067 -0.8041847
vn 0.7172937 -0.2971048 -0.63025284
vn -0.7172937 0.2971048 -0.63025284
vn -0.5491345 0.22746067 -0.8041847
vn 0.22746067 -0.5491345 -0.8041847
vn 0.7172937 0.2971048 -0.63025284
vn -0.2971048 0.7172937 -0.63025284
vn -0.5491345 -0.22746067 -0.8041847
vn -0 -0.70710677 -0.70710677
vn 0.2971048 0.7172937 -0.63025284
vn -0 0.70710677 -0.70710677
vn -0.22746067 -0.5491345 -0.8041847
vn 0.37200186 -0.9273036 0.04150648
vn 0.33080184 -0.8053509 0.49191475
vn 0.79766214 -0.35009116 0.49109206
vn 0.9273036 -0.37200186 0.04150648
vn 0.79766214 0.35009116 0.49109206
vn -0 -0.99880266 0.04892232
vn -0 -0.8998591 0.43618062
vn 0.9273036 0.37200186 0.04150648
vn 0.33080184 0.8053509 0.49191475
vn -0.37200186 -0.9273036 0.04150648
vn -0.33085576 -0.805242 0.49205676
vn 0.37200186 0.9273036 0.04150648
vn -0 0.8998591 0.43618062
vn -0.9273036 -0.37200186 0.04150648
vn -0.7974937 -0.3499316 0.49147904
vn -0 0.99880266 0.04892232
vn -0.33085576 0.805242 0.49205676
vn -0.9273036 0.37200186 0.04150648
vn -0.7974937 0.3499316 0.49147904
vn -0.37200186 0.9273036 0.04150648
vn -0.35134226 -0.8283034 -0.43643102
vn -0 -0.92265016 -0.385638
vn -0.8283034 -0.35134226 -0.43643102
vn -0.8283034 0.35134226 -0.43643102
vn 0.35134226 -0.8283034 -0.43643102
vn -0.35134226 0.8283034 -0.43643102
vn -0 0.92265016 -0.385638
vn 0.8283034 -0.35134226 -0.43643102
vn 0.35134226 0.8283034 -0.43643102
vn 0.8283034 0.35134226 -0.43643102
vn 0.32832634 0.90694124 0.26393068
vn 0.3451688 0.9367778 -0.057497613
vn 0.91410416 0.40077507 -0.061587274
vn 0.8604291 0.4174117 0.29228282
vn 3.051894E-05 0.9714177 0.23737629
vn 0.91410416 -0.40077507 -0.061587274
vn 0.8603693 -0.41753444 0.29228324
vn -0 0.99819463 -0.060061976
vn -0.32793072 0.9070664 0.2639926
vn 0.3451688 -0.9367778 -0.057497613
vn 0.32832634 -0.90694124 0.26393068
vn -0.3451987 0.9367761 -0.057344917
vn -0.86023676 0.41768196 0.2924628
vn -0 -0.99819654 -0.06003157
vn 3.051894E-05 -0.9714177 0.23737629
vn -0.9141212 0.40078256 -0.061283235
vn -0.86015815 -0.4178408 0.29246718
vn -0.3451987 -0.9367761 -0.057344917
vn -0.32795796 -0.9070573 0.26398996
vn -0.9141212 -0.40078256 -0.061283235
vn 0.33412164 -0.8824254 -0.3311918
vn -0 -0.9572152 -0.28937715
vn 0.8401205 -0.39582834 -0.3708335
vn -0.33412167 -0.88251704 -0.3309477
vn -0.84031427 -0.39595544 -0.37025833
vn 0.8401205 0.39582834 -0.3708335
vn -0.84031427 0.39595544 -0.37025833
vn -0.33412167 0.88251704 -0.3309477
vn 0.33412164 0.8824254 -0.3311918
vn -0 0.9572152 -0.28937715
vn 0.7390514 0.5718371 0.3560973
vn -0.50402284 0.8636903 0
vn -0.918571 0.39525595 0
vn 0.27064732 0.17802052 0.9460754
vn 0.7555647 0.5777596 0.30873257
vn -0.9822682 -0.18748093 0
vn -0.0005798693 0.9999999 0
vn 0.2671344 -0.8562156 0.44219244
vn 0.92374176 0.30323437 0.23398732
vn -0.51599395 -0.8565922 0
vn 0.08920659 0.99601316 0
vn 0.5751425 -0.7766332 0.25700584
vn 0.9662361 -0.16523065 0.19770302
vn -0.00061038876 -0.9999999 0
vn 0.7411003 0.6713943 0
vn 0.58657384 -0.77731717 0.22739656
vn 0.91828907 -0.2863912 0.27335954
vn 0.10752016 -0.9942029 0
vn 0.88120306 -0.47273794 0
vn 0.80986667 -0.55063367 0.20228353
vn -0.31559628 0.93149894 0.1808552
vn -0.33479837 0.94228804 0.0018311671
vn 0.00021363606 0.9999999 0.00039675267
vn 0.0068058376 0.9865413 0.16337064
vn -0.87474155 0.4372487 0.20890398
vn 0.33628875 0.94175506 -0.0027161902
vn 0.32982385 0.92669296 0.18015638
vn -0.9095468 0.41551116 0.008667291
vn -0.87184405 -0.4426515 0.20963688
vn 0.90991765 0.4146893 -0.009094599
vn 0.8785322 0.43059856 0.20679963
vn -0.9091722 -0.41640636 0.0034181701
vn -0.31507596 -0.93179953 0.18021342
vn 0.90971 -0.41508874 -0.011353063
vn 0.87663096 -0.43450058 0.20670593
vn -0.3349436 -0.9422367 -0.001648014
vn 0.0064088977 -0.98672605 0.16226718
vn 0.33616602 -0.9417837 -0.0059817107
vn 0.32853833 -0.9272625 0.17957452
vn 0.00012207756 -0.99999833 -0.0018311634
vn 0.87483627 0.432886 -0.21741961
vn 0.3223736 0.92863613 -0.18360311
vn 0.876272 -0.4299873 -0.21738943
vn 0.32366112 -0.9280727 -0.18418622
vn -0.0063785524 0.9865088 -0.16358393
vn -0.0060733724 -0.9863279 -0.164683
vn -0.3346717 -0.9243299 -0.18332781
vn -0.33397236 0.9247033 -0.18271886
vn -0.87943834 -0.42470378 -0.21497653
vn -0.87730724 0.42861277 -0.2159239
vn -0.22746067 -0.5491345 -0.8041847
vn -0.38268155 -0.92388034 0
vn -0.92388034 -0.38268155 0
vn -0.5491345 -0.22746067 -0.8041847
vn -0 -0.70710677 -0.70710677
vn -0.92388034 0.38268155 0
vn -0 -1 0
vn -0.5491345 0.22746067 -0.8041847
vn 0.22746067 -0.5491345 -0.8041847
vn -0.38268155 0.92388034 0
vn 0.38268155 -0.92388034 0
vn -0.22746067 0.5491345 -0.8041847
vn 0.5491345 -0.22746067 -0.8041847
vn -0 1 0
vn 0.92388034 -0.38268155 0
vn -0 0.70710677 -0.70710677
vn 0.5491345 0.22746067 -0.8041847
vn 0.38268155 0.92388034 0
vn 0.92388034 0.38268155 0
vn 0.22746067 0.5491345 -0.8041847
vn -0.32807904 0.9266783 -0.18338856
vn -0.32463494 0.945827 0.0048220665
vn -0.90589553 0.42293233 0.021943163
vn -0.8699972 0.43888977 -0.22467883
vn -0.012665301 0.9863675 -0.16406906
vn -0.90506124 -0.4251554 0.010345824
vn -0.87462866 -0.43063053 -0.2226705
vn 0.00054934935 0.9999989 0.001342854
vn 0.30491778 0.93416363 -0.18537392
vn -0.3252766 -0.9456156 -0.0025025974
vn -0.32950947 -0.9259042 -0.18472916
vn 0.32774752 0.94475764 -0.0038149212
vn 0.86458236 0.44765764 -0.22825412
vn 0.00015259635 -0.9999944 -0.0033571196
vn -0.012177111 -0.98597974 -0.16642052
vn 0.90663624 0.4216239 -0.015625872
vn 0.8677242 -0.44155297 -0.22822319
vn 0.32728454 -0.9448648 -0.0107426485
vn 0.3075444 -0.9330404 -0.18668741
vn 0.90624744 -0.4222379 -0.020753292
vn -0.2969867 -0.93731946 0.18229386
vn -0.8601172 -0.4598299 0.220805
vn 0.0126655325 -0.9866297 0.16248505
vn 0.323964 -0.9286154 0.18088879
vn -0.8664498 0.44854566 0.21925238
vn 0.8703132 -0.44344252 0.21427462
vn 0.87434787 0.43532753 0.21448973
vn -0.29811487 0.9366752 0.18375814
vn 0.32661262 0.92743707 0.18216696
vn 0.013550664 0.9862381 0.16477486
vn -0.7352694 -0.58215445 0.34709528
vn -0.34902105 -0.57703227 -0.7383889
vn -0.353446 0.60889405 -0.71015763
vn 0.34694436 -0.5940293 0.7257815
vn 0.7474845 -0.5666257 -0.34670192
vn 0.73429924 0.5958017 -0.32530737
vn -0.75033766 0.5411611 0.3796551
vn 0.3371472 0.5519119 0.76270896
g Spear10_0
f 3/3/3 2/2/2 1/1/1
f 4/4/4 3/3/3 1/1/1
f 5/5/5 3/3/3 4/4/4
f 6/6/6 5/5/5 4/4/4
f 7/7/7 5/5/5 6/6/6
f 8/8/8 7/7/7 6/6/6
f 11/11/11 10/10/10 9/9/9
f 12/12/12 11/11/11 9/9/9
f 15/15/15 14/14/14 13/13/13
f 14/14/14 16/16/16 13/13/13
f 13/13/13 16/16/16 17/17/17
f 16/16/16 18/18/18 17/17/17
f 21/21/21 20/20/20 19/19/19
f 22/22/22 21/21/21 19/19/19
f 25/25/25 24/24/24 23/23/23
f 26/26/26 25/25/25 23/23/23
f 29/29/29 28/28/28 27/27/27
f 30/30/30 29/29/29 27/27/27
f 33/33/33 32/32/32 31/31/31
f 34/34/34 33/33/33 31/31/31
f 37/37/37 36/36/36 35/35/35
f 38/38/38 37/37/37 35/35/35
f 41/41/41 40/40/40 39/39/39
f 42/42/42 41/41/41 39/39/39
f 45/45/45 44/44/44 43/43/43
f 46/46/46 45/45/45 43/43/43
f 49/49/49 48/48/48 47/47/47
f 50/50/50 49/49/49 47/47/47
f 53/53/53 52/52/52 51/51/51
f 54/54/54 53/53/53 51/51/51
f 57/57/57 56/56/56 55/55/55
f 58/58/58 57/57/57 55/55/55
f 61/61/61 60/60/60 59/59/59
f 62/62/62 61/61/61 59/59/59
f 65/65/65 64/64/64 63/63/63
f 66/66/66 65/65/65 63/63/63
f 69/69/69 68/68/68 67/67/67
f 70/70/70 69/69/69 67/67/67
f 73/73/73 72/72/72 71/71/71
f 74/74/74 73/73/73 71/71/71
f 77/77/77 76/76/76 75/75/75
f 78/78/78 77/77/77 75/75/75
f 81/81/81 80/80/80 79/79/79
f 82/82/82 81/81/81 79/79/79
f 85/85/85 84/84/84 83/83/83
f 86/86/86 85/85/85 83/83/83
f 89/89/89 88/88/88 87/87/87
f 90/90/90 89/89/89 87/87/87
f 93/93/93 92/92/92 91/91/91
f 94/94/94 93/93/93 91/91/91
f 97/97/97 96/96/96 95/95/95
f 98/98/98 97/97/97 95/95/95
f 101/101/101 100/100/100 99/99/99
f 102/102/102 101/101/101 99/99/99
f 105/105/105 104/104/104 103/103/103
f 106/106/106 105/105/105 103/103/103
f 109/109/109 108/108/108 107/107/107
f 110/110/110 109/109/109 107/107/107
f 113/113/113 112/112/112 111/111/111
f 114/114/114 113/113/113 111/111/111
f 117/117/117 116/116/116 115/115/115
f 118/118/118 117/117/117 115/115/115
f 121/121/121 120/120/120 119/119/119
f 122/122/122 121/121/121 119/119/119
f 125/125/125 124/124/124 123/123/123
f 126/126/126 125/125/125 123/123/123
f 129/129/129 128/128/128 127/127/127
f 130/130/130 129/129/129 127/127/127
f 133/133/133 132/132/132 131/131/131
f 134/134/134 133/133/133 131/131/131
f 137/137/137 136/136/136 135/135/135
f 138/138/138 137/137/137 135/135/135
f 141/141/141 140/140/140 139/139/139
f 142/142/142 141/141/141 139/139/139
f 145/145/145 144/144/144 143/143/143
f 146/146/146 145/145/145 143/143/143
f 149/149/149 148/148/148 147/147/147
f 150/150/150 149/149/149 147/147/147
f 153/153/153 152/152/152 151/151/151
f 154/154/154 153/153/153 151/151/151
f 157/157/157 156/156/156 155/155/155
f 158/158/158 157/157/157 155/155/155
f 161/161/161 160/160/160 159/159/159
f 162/162/162 161/161/161 159/159/159
f 165/165/165 164/164/164 163/163/163
f 166/166/166 165/165/165 163/163/163
f 169/169/169 168/168/168 167/167/167
f 170/170/170 169/169/169 167/167/167
f 173/173/173 172/172/172 171/171/171
f 174/174/174 173/173/173 171/171/171
f 177/177/177 176/176/176 175/175/175
f 178/178/178 177/177/177 175/175/175
f 181/181/181 180/180/180 179/179/179
f 182/182/182 181/181/181 179/179/179
f 185/185/185 184/184/184 183/183/183
f 186/186/186 185/185/185 183/183/183
f 189/189/189 188/188/188 187/187/187
f 190/190/190 189/189/189 187/187/187
f 193/193/193 192/192/192 191/191/191
f 194/194/194 193/193/193 191/191/191
f 197/197/197 196/196/196 195/195/195
f 198/198/198 197/197/197 195/195/195
f 201/201/201 200/200/200 199/199/199
f 202/202/202 201/201/201 199/199/199
f 205/205/205 204/204/204 203/203/203
f 206/206/206 205/205/205 203/203/203
f 209/209/209 208/208/208 207/207/207
f 210/210/210 209/209/209 207/207/207
f 213/213/213 212/212/212 211/211/211
f 214/214/214 213/213/213 211/211/211
f 217/217/217 216/216/216 215/215/215
f 218/218/218 217/217/217 215/215/215
f 221/221/221 220/220/220 219/219/219
f 222/222/222 221/221/221 219/219/219
f 225/225/225 224/224/224 223/223/223
f 226/226/226 225/225/225 223/223/223
f 229/229/229 228/228/228 227/227/227
f 230/230/230 229/229/229 227/227/227
f 233/233/233 232/232/232 231/231/231
f 234/234/234 233/233/233 231/231/231
f 237/237/237 236/236/236 235/235/235
f 238/238/238 237/237/237 235/235/235
f 241/241/241 240/240/240 239/239/239
f 242/242/242 241/241/241 239/239/239
f 245/245/245 244/244/244 243/243/243
f 246/246/246 245/245/245 243/243/243
f 249/249/249 248/248/248 247/247/247
f 250/250/250 249/249/249 247/247/247
f 253/253/253 252/252/252 251/251/251
f 254/254/254 253/253/253 251/251/251
f 257/257/257 256/256/256 255/255/255
f 258/258/258 257/257/257 255/255/255
f 261/261/261 260/260/260 259/259/259
f 262/262/262 261/261/261 259/259/259
f 265/265/265 264/264/264 263/263/263
f 266/266/266 265/265/265 263/263/263
f 269/269/269 268/268/268 267/267/267
f 270/270/270 269/269/269 267/267/267
f 273/273/273 272/272/272 271/271/271
f 274/274/274 273/273/273 271/271/271
f 277/277/277 276/276/276 275/275/275
f 278/278/278 277/277/277 275/275/275
f 281/281/281 280/280/280 279/279/279
f 282/282/282 281/281/281 279/279/279
f 285/285/285 284/284/284 283/283/283
f 286/286/286 285/285/285 283/283/283
f 289/289/289 288/288/288 287/287/287
f 290/290/290 289/289/289 287/287/287
f 293/293/293 292/292/292 291/291/291
f 294/294/294 293/293/293 291/291/291
f 297/297/297 296/296/296 295/295/295
f 298/298/298 297/297/297 295/295/295
f 301/301/301 300/300/300 299/299/299
f 302/302/302 301/301/301 299/299/299
f 305/305/305 304/304/304 303/303/303
f 306/306/306 305/305/305 303/303/303
f 309/309/309 308/308/308 307/307/307
f 308/308/308 309/309/309 310/310/310
f 311/311/311 309/309/309 307/307/307
f 309/309/309 312/312/312 310/310/310
f 313/313/313 311/311/311 307/307/307
f 314/314/314 313/313/313 307/307/307
f 310/310/310 312/312/312 315/315/315
f 316/316/316 310/310/310 315/315/315
f 316/316/316 315/315/315 317/317/317
f 315/315/315 318/318/318 317/317/317
f 319/319/319 313/313/313 314/314/314
f 320/320/320 319/319/319 314/314/314
f 317/317/317 318/318/318 321/321/321
f 318/318/318 322/322/322 321/321/321
f 320/320/320 323/323/323 319/319/319
f 323/323/323 324/324/324 319/319/319
f 322/322/322 325/325/325 321/321/321
f 324/324/324 323/323/323 325/325/325
f 325/325/325 326/326/326 321/321/321
f 323/323/323 326/326/326 325/325/325
f 329/329/329 328/328/328 327/327/327
f 328/328/328 329/329/329 330/330/330
f 328/328/328 331/331/331 327/327/327
f 332/332/332 328/328/328 330/330/330
f 333/333/333 332/332/332 330/330/330
f 334/334/334 333/333/333 330/330/330
f 327/327/327 331/331/331 335/335/335
f 336/336/336 327/327/327 335/335/335
f 336/336/336 335/335/335 337/337/337
f 335/335/335 338/338/338 337/337/337
f 339/339/339 333/333/333 334/334/334
f 340/340/340 339/339/339 334/334/334
f 337/337/337 338/338/338 341/341/341
f 338/338/338 342/342/342 341/341/341
f 340/340/340 343/343/343 339/339/339
f 343/343/343 344/344/344 339/339/339
f 342/342/342 345/345/345 341/341/341
f 344/344/344 343/343/343 345/345/345
f 345/345/345 346/346/346 341/341/341
f 343/343/343 346/346/346 345/345/345
f 349/349/349 348/348/348 347/347/347
f 348/348/348 350/350/350 347/347/347
f 351/351/351 349/349/349 347/347/347
f 352/352/352 349/349/349 351/351/351
f 353/353/353 352/352/352 351/351/351
f 352/352/352 353/353/353 354/354/354
f 353/353/353 355/355/355 354/354/354
f 354/354/354 355/355/355 356/356/356
f 353/353/353 351/351/351 357/357/357
f 358/358/358 353/353/353 357/357/357
f 353/353/353 358/358/358 355/355/355
f 357/357/357 351/351/351 359/359/359
f 351/351/351 347/347/347 359/359/359
f 358/358/358 360/360/360 355/355/355
f 347/347/347 361/361/361 359/359/359
f 350/350/350 361/361/361 347/347/347
f 361/361/361 362/362/362 359/359/359
f 362/362/362 361/361/361 363/363/363
f 355/355/355 360/360/360 364/364/364
f 355/355/355 364/364/364 356/356/356
f 360/360/360 365/365/365 364/364/364
f 364/364/364 365/365/365 366/366/366
f 361/361/361 350/350/350 367/367/367
f 361/361/361 367/367/367 363/363/363
f 350/350/350 368/368/368 367/367/367
f 369/369/369 363/363/363 367/367/367
f 356/356/356 364/364/364 370/370/370
f 370/370/370 364/364/364 366/366/366
f 371/371/371 356/356/356 370/370/370
f 372/372/372 371/371/371 370/370/370
f 373/373/373 367/367/367 368/368/368
f 373/373/373 369/369/369 367/367/367
f 374/374/374 373/373/373 368/368/368
f 369/369/369 373/373/373 375/375/375
f 376/376/376 370/370/370 366/366/366
f 376/376/376 372/372/372 370/370/370
f 374/374/374 372/372/372 376/376/376
f 375/375/375 376/376/376 366/366/366
f 373/373/373 374/374/374 376/376/376
f 373/373/373 376/376/376 375/375/375
f 379/379/379 378/378/378 377/377/377
f 378/378/378 379/379/379 380/380/380
f 381/381/381 379/379/379 377/377/377
f 379/379/379 382/382/382 380/380/380
f 383/383/383 381/381/381 377/377/377
f 384/384/384 380/380/380 382/382/382
f 385/385/385 383/383/383 377/377/377
f 386/386/386 384/384/384 382/382/382
f 387/387/387 383/383/383 385/385/385
f 384/384/384 386/386/386 388/388/388
f 389/389/389 387/387/387 385/385/385
f 386/386/386 390/390/390 388/388/388
f 387/387/387 389/389/389 391/391/391
f 389/389/389 392/392/392 391/391/391
f 388/388/388 390/390/390 393/393/393
f 390/390/390 394/394/394 393/393/393
f 391/391/391 392/392/392 395/395/395
f 394/394/394 395/395/395 393/393/393
f 392/392/392 396/396/396 395/395/395
f 395/395/395 396/396/396 393/393/393
f 399/399/399 398/398/398 397/397/397
f 400/400/400 399/399/399 397/397/397
f 398/398/398 401/401/401 397/397/397
f 402/402/402 400/400/400 397/397/397
f 403/403/403 401/401/401 398/398/398
f 404/404/404 400/400/400 402/402/402
f 405/405/405 403/403/403 398/398/398
f 406/406/406 404/404/404 402/402/402
f 407/407/407 403/403/403 405/405/405
f 404/404/404 406/406/406 408/408/408
f 409/409/409 407/407/407 405/405/405
f 406/406/406 410/410/410 408/408/408
f 407/407/407 409/409/409 411/411/411
f 409/409/409 412/412/412 411/411/411
f 413/413/413 408/408/408 410/410/410
f 414/414/414 413/413/413 410/410/410
f 411/411/411 412/412/412 415/415/415
f 413/413/413 414/414/414 415/415/415
f 412/412/412 416/416/416 415/415/415
f 416/416/416 413/413/413 415/415/415
f 419/419/419 418/418/418 417/417/417
f 418/418/418 420/420/420 417/417/417
f 421/421/421 418/418/418 419/419/419
f 417/417/417 420/420/420 422/422/422
f 423/423/423 421/421/421 419/419/419
f 420/420/420 424/424/424 422/422/422
f 425/425/425 421/421/421 423/423/423
f 422/422/422 424/424/424 426/426/426
f 427/427/427 425/425/425 423/423/423
f 424/424/424 428/428/428 426/426/426
f 429/429/429 425/425/425 427/427/427
f 426/426/426 428/428/428 430/430/430
f 431/431/431 429/429/429 427/427/427
f 428/428/428 432/432/432 430/430/430
f 433/433/433 429/429/429 431/431/431
f 430/430/430 432/432/432 434/434/434
f 435/435/435 433/433/433 431/431/431
f 432/432/432 436/436/436 434/434/434
f 436/436/436 433/433/433 435/435/435
f 434/434/434 436/436/436 435/435/435
f 439/439/439 438/438/438 437/437/437
f 440/440/440 439/439/439 437/437/437
f 439/439/439 440/440/440 441/441/441
f 442/442/442 437/437/437 438/438/438
f 443/443/443 442/442/442 438/438/438
f 440/440/440 444/444/444 441/441/441
f 441/441/441 444/444/444 445/445/445
f 446/446/446 442/442/442 443/443/443
f 447/447/447 446/446/446 443/443/443
f 444/444/444 448/448/448 445/445/445
f 445/445/445 448/448/448 449/449/449
f 450/450/450 446/446/446 447/447/447
f 451/451/451 450/450/450 447/447/447
f 448/448/448 452/452/452 449/449/449
f 449/449/449 452/452/452 453/453/453
f 450/450/450 451/451/451 454/454/454
f 451/451/451 455/455/455 454/454/454
f 455/455/455 453/453/453 456/456/456
f 452/452/452 456/456/456 453/453/453
f 454/454/454 455/455/455 456/456/456
f 446/446/446 457/457/457 442/442/442
f 457/457/457 458/458/458 442/442/442
f 459/459/459 457/457/457 446/446/446
f 450/450/450 459/459/459 446/446/446
f 442/442/442 458/458/458 437/437/437
f 459/459/459 450/450/450 460/460/460
f 450/450/450 454/454/454 460/460/460
f 458/458/458 461/461/461 437/437/437
f 460/460/460 454/454/454 462/462/462
f 454/454/454 456/456/456 462/462/462
f 440/440/440 437/437/437 461/461/461
f 463/463/463 462/462/462 456/456/456
f 452/452/452 463/463/463 456/456/456
f 464/464/464 440/440/440 461/461/461
f 465/465/465 463/463/463 452/452/452
f 440/440/440 464/464/464 444/444/444
f 448/448/448 465/465/465 452/452/452
f 464/464/464 466/466/466 444/444/444
f 466/466/466 465/465/465 448/448/448
f 444/444/444 466/466/466 448/448/448
f 469/469/469 468/468/468 467/467/467
f 470/470/470 469/469/469 467/467/467
f 467/467/467 468/468/468 471/471/471
f 472/472/472 469/469/469 470/470/470
f 473/473/473 472/472/472 470/470/470
f 468/468/468 474/474/474 471/471/471
f 471/471/471 474/474/474 475/475/475
f 472/472/472 473/473/473 476/476/476
f 473/473/473 477/477/477 476/476/476
f 474/474/474 478/478/478 475/475/475
f 479/479/479 475/475/475 478/478/478
f 480/480/480 476/476/476 477/477/477
f 481/481/481 480/480/480 477/477/477
f 482/482/482 479/479/479 478/478/478
f 483/483/483 479/479/479 482/482/482
f 484/484/484 480/480/480 481/481/481
f 485/485/485 484/484/484 481/481/481
f 483/483/483 486/486/486 485/485/485
f 486/486/486 483/483/483 482/482/482
f 486/486/486 484/484/484 485/485/485
f 472/472/472 476/476/476 487/487/487
f 488/488/488 487/487/487 476/476/476
f 480/480/480 488/488/488 476/476/476
f 489/489/489 472/472/472 487/487/487
f 490/490/490 488/488/488 480/480/480
f 484/484/484 490/490/490 480/480/480
f 472/472/472 489/489/489 469/469/469
f 491/491/491 490/490/490 484/484/484
f 486/486/486 491/491/491 484/484/484
f 489/489/489 492/492/492 469/469/469
f 491/491/491 486/486/486 493/493/493
f 486/486/486 482/482/482 493/493/493
f 469/469/469 492/492/492 468/468/468
f 493/493/493 482/482/482 494/494/494
f 492/492/492 495/495/495 468/468/468
f 482/482/482 478/478/478 494/494/494
f 468/468/468 495/495/495 474/474/474
f 496/496/496 494/494/494 478/478/478
f 474/474/474 496/496/496 478/478/478
f 495/495/495 496/496/496 474/474/474
f 499/499/499 498/498/498 497/497/497
f 500/500/500 499/499/499 497/497/497
f 497/497/497 498/498/498 501/501/501
f 502/502/502 499/499/499 500/500/500
f 498/498/498 503/503/503 501/501/501
f 504/504/504 502/502/502 500/500/500
f 501/501/501 503/503/503 505/505/505
f 506/506/506 502/502/502 504/504/504
f 503/503/503 507/507/507 505/505/505
f 508/508/508 506/506/506 504/504/504
f 505/505/505 507/507/507 509/509/509
f 510/510/510 506/506/506 508/508/508
f 507/507/507 511/511/511 509/509/509
f 512/512/512 510/510/510 508/508/508
f 509/509/509 511/511/511 513/513/513
f 514/514/514 510/510/510 512/512/512
f 511/511/511 515/515/515 513/513/513
f 516/516/516 514/514/514 512/512/512
f 513/513/513 515/515/515 516/516/516
f 515/515/515 514/514/514 516/516/516
f 519/519/519 518/518/518 517/517/517
f 520/520/520 519/519/519 517/517/517
f 521/521/521 517/517/517 518/518/518
f 522/522/522 519/519/519 520/520/520
f 523/523/523 522/522/522 520/520/520
f 524/524/524 521/521/521 518/518/518
f 525/525/525 521/521/521 524/524/524
f 526/526/526 522/522/522 523/523/523
f 527/527/527 526/526/526 523/523/523
f 528/528/528 525/525/525 524/524/524
f 525/525/525 528/528/528 529/529/529
f 530/530/530 526/526/526 527/527/527
f 531/531/531 530/530/530 527/527/527
f 528/528/528 532/532/532 529/529/529
f 529/529/529 532/532/532 533/533/533
f 530/530/530 531/531/531 534/534/534
f 531/531/531 535/535/535 534/534/534
f 533/533/533 536/536/536 535/535/535
f 532/532/532 536/536/536 533/533/533
f 536/536/536 534/534/534 535/535/535
f 526/526/526 537/537/537 522/522/522
f 537/537/537 538/538/538 522/522/522
f 539/539/539 537/537/537 526/526/526
f 530/530/530 539/539/539 526/526/526
f 522/522/522 538/538/538 519/519/519
f 539/539/539 530/530/530 540/540/540
f 530/530/530 534/534/534 540/540/540
f 538/538/538 541/541/541 519/519/519
f 542/542/542 540/540/540 534/534/534
f 536/536/536 542/542/542 534/534/534
f 519/519/519 541/541/541 518/518/518
f 543/543/543 542/542/542 536/536/536
f 532/532/532 543/543/543 536/536/536
f 541/541/541 544/544/544 518/518/518
f 545/545/545 543/543/543 532/532/532
f 524/524/524 518/518/518 544/544/544
f 528/528/528 545/545/545 532/532/532
f 546/546/546 524/524/524 544/544/544
f 545/545/545 528/528/528 546/546/546
f 528/528/528 524/524/524 546/546/546
f 549/549/549 548/548/548 547/547/547
f 550/550/550 549/549/549 547/547/547
f 547/547/547 548/548/548 551/551/551
f 552/552/552 549/549/549 550/550/550
f 548/548/548 553/553/553 551/551/551
f 554/554/554 552/552/552 550/550/550
f 551/551/551 553/553/553 555/555/555
f 556/556/556 552/552/552 554/554/554
f 553/553/553 557/557/557 555/555/555
f 558/558/558 556/556/556 554/554/554
f 555/555/555 557/557/557 559/559/559
f 560/560/560 556/556/556 558/558/558
f 557/557/557 561/561/561 559/559/559
f 562/562/562 560/560/560 558/558/558
f 559/559/559 561/561/561 563/563/563
f 564/564/564 560/560/560 562/562/562
f 561/561/561 565/565/565 563/563/563
f 566/566/566 564/564/564 562/562/562
f 563/563/563 565/565/565 566/566/566
f 565/565/565 564/564/564 566/566/566
f 569/569/569 568/568/568 567/567/567
f 570/570/570 569/569/569 567/567/567
f 571/571/571 567/567/567 568/568/568
f 572/572/572 569/569/569 570/570/570
f 573/573/573 572/572/572 570/570/570
f 574/574/574 571/571/571 568/568/568
f 575/575/575 571/571/571 574/574/574
f 572/572/572 573/573/573 576/576/576
f 573/573/573 577/577/577 576/576/576
f 578/578/578 575/575/575 574/574/574
f 579/579/579 575/575/575 578/578/578
f 576/576/576 577/577/577 580/580/580
f 577/577/577 581/581/581 580/580/580
f 582/582/582 579/579/579 578/578/578
f 583/583/583 579/579/579 582/582/582
f 580/580/580 581/581/581 584/584/584
f 581/581/581 585/585/585 584/584/584
f 583/583/583 586/586/586 585/585/585
f 586/586/586 583/583/583 582/582/582
f 586/586/586 584/584/584 585/585/585
f 572/572/572 576/576/576 587/587/587
f 588/588/588 572/572/572 587/587/587
f 587/587/587 576/576/576 589/589/589
f 576/576/576 580/580/580 589/589/589
f 572/572/572 588/588/588 569/569/569
f 589/589/589 580/580/580 590/590/590
f 580/580/580 584/584/584 590/590/590
f 588/588/588 591/591/591 569/569/569
f 592/592/592 590/590/590 584/584/584
f 586/586/586 592/592/592 584/584/584
f 569/569/569 591/591/591 568/568/568
f 592/592/592 586/586/586 593/593/593
f 591/591/591 594/594/594 568/568/568
f 586/586/586 582/582/582 593/593/593
f 574/574/574 568/568/568 594/594/594
f 593/593/593 582/582/582 595/595/595
f 596/596/596 574/574/574 594/594/594
f 582/582/582 578/578/578 595/595/595
f 578/578/578 574/574/574 596/596/596
f 595/595/595 578/578/578 596/596/596
f 599/599/599 598/598/598 597/597/597
f 600/600/600 597/597/597 598/598/598
f 601/601/601 598/598/598 599/599/599
f 601/601/601 600/600/600 598/598/598
f 602/602/602 601/601/601 599/599/599
f 601/601/601 602/602/602 600/600/600
f 603/603/603 599/599/599 597/597/597
f 602/602/602 599/599/599 603/603/603
f 602/602/602 604/604/604 600/600/600
f 600/600/600 604/604/604 597/597/597
f 604/604/604 602/602/602 603/603/603
f 604/604/604 603/603/603 597/597/597
