g Sword10
v -0.048158385 -0.057854638 0.2838694
v -0.059160218 0.00200952 0.2838694
v -0.048158385 -0.008992301 0.2838694
v -0.11660497 -0.03342356 -0.1844306
v -0.10969129 -0.0095403325 -0.1844306
v -0.09403408 0.006116889 -0.1844306
v -0.077269085 -0.03342356 -0.1844306
v -0.077269085 0.006116889 -0.1844306
v -0.060504094 0.006116889 -0.1844306
v -0.044846874 -0.0095403325 -0.1844306
v -0.0379332 -0.03342356 -0.1844306
v -0.0379332 -0.03342356 -0.1844306
v -0.044846874 -0.057306796 -0.18443058
v -0.0379332 -0.03342357 -0.21740572
v -0.044846874 -0.0095403325 -0.1844306
v -0.044846874 -0.009540338 -0.21740572
v -0.060504094 0.006116889 -0.1844306
v -0.060504094 0.006116884 -0.21740572
v -0.077269085 0.006116889 -0.1844306
v -0.077269085 0.006116884 -0.21740572
v -0.09403408 0.006116884 -0.21740572
v -0.09403408 0.006116889 -0.1844306
v -0.10969129 -0.009540338 -0.21740572
v -0.10969129 -0.0095403325 -0.1844306
v -0.11660497 -0.03342357 -0.21740572
v -0.044846874 -0.057306804 -0.2174057
v -0.11660497 -0.03342356 -0.1844306
v -0.060504094 -0.07296401 -0.18443058
v -0.060504094 -0.07296402 -0.2174057
v -0.077269085 -0.07296401 -0.18443058
v -0.077269085 -0.07296402 -0.2174057
v -0.09403408 -0.07296402 -0.2174057
v -0.09403408 -0.07296401 -0.18443058
v -0.10969129 -0.057306804 -0.2174057
v -0.10969129 -0.057306796 -0.18443058
v -0.09403408 0.006116877 -0.25941217
v -0.10969129 -0.009540345 -0.25941217
v -0.11660497 -0.033423573 -0.25941217
v -0.077269085 0.006116877 -0.25941217
v -0.077269085 -0.033423573 -0.25941217
v -0.060504094 0.006116877 -0.25941217
v -0.044846874 -0.009540345 -0.25941217
v -0.0379332 -0.033423573 -0.25941217
v -0.044846874 -0.057306807 -0.25941217
v -0.060504094 -0.07296403 -0.25941217
v -0.077269085 -0.07296403 -0.25941217
v -0.09403408 -0.07296403 -0.25941217
v -0.10969129 -0.057306807 -0.25941217
v -0.10969129 -0.00954034 -0.22643702
v -0.11660497 -0.03342357 -0.226437
v -0.11660497 -0.033423573 -0.25941217
v -0.10969129 -0.057306804 -0.226437
v -0.10969129 -0.009540345 -0.25941217
v -0.10969129 -0.057306807 -0.25941217
v -0.09403408 0.0061168824 -0.22643702
v -0.09403408 -0.07296402 -0.226437
v -0.09403408 0.006116877 -0.25941217
v -0.09403408 -0.07296403 -0.25941217
v -0.077269085 0.0061168824 -0.22643702
v -0.077269085 0.006116877 -0.25941217
v -0.060504094 0.006116877 -0.25941217
v -0.060504094 0.0061168824 -0.22643702
v -0.044846874 -0.009540345 -0.25941217
v -0.044846874 -0.00954034 -0.22643702
v -0.077269085 -0.07296402 -0.226437
v -0.077269085 -0.07296403 -0.25941217
v -0.060504094 -0.07296403 -0.25941217
v -0.060504094 -0.07296402 -0.226437
v -0.044846874 -0.057306807 -0.25941217
v -0.044846874 -0.057306804 -0.226437
v -0.0379332 -0.033423573 -0.25941217
v -0.0379332 -0.03342357 -0.226437
v -0.077269085 -0.07296402 -0.2174057
v -0.060504094 -0.07296402 -0.226437
v -0.077269085 -0.07296402 -0.226437
v -0.09403408 -0.07296402 -0.226437
v -0.060504094 -0.07296402 -0.2174057
v -0.09403408 -0.07296402 -0.2174057
v -0.044846874 -0.057306804 -0.226437
v -0.10969129 -0.057306804 -0.226437
v -0.044846874 -0.057306804 -0.2174057
v -0.10969129 -0.057306804 -0.2174057
v -0.0379332 -0.03342357 -0.226437
v -0.0379332 -0.03342357 -0.21740572
v -0.044846874 -0.009540338 -0.21740572
v -0.044846874 -0.00954034 -0.22643702
v -0.060504094 0.006116884 -0.21740572
v -0.060504094 0.0061168824 -0.22643702
v -0.11660497 -0.03342357 -0.226437
v -0.11660497 -0.03342357 -0.21740572
v -0.10969129 -0.009540338 -0.21740572
v -0.10969129 -0.00954034 -0.22643702
v -0.09403408 0.006116884 -0.21740572
v -0.09403408 0.0061168824 -0.22643702
v -0.077269085 0.006116884 -0.21740572
v -0.077269085 0.0061168824 -0.22643702
v -0.06148471 -0.06580882 -0.18992601
v -0.077269085 -0.06526252 0.058959674
v -0.060997017 -0.06526252 0.058959674
v -0.05111112 -0.055376615 0.058959655
v -0.077269085 -0.06580882 -0.18992601
v -0.077269085 -0.03342356 -0.18992603
v -0.09305347 -0.06580882 -0.18992601
v -0.093541145 -0.06526252 0.058959674
v -0.11005701 -0.03342356 -0.18992603
v -0.103671744 -0.05519054 -0.18992601
v -0.103427045 -0.055376615 0.058959655
v -0.10975315 -0.03342352 0.05895965
v -0.103427045 -0.01147043 0.05895965
v -0.050866432 -0.05519054 -0.18992601
v -0.04448119 -0.03342356 -0.18992603
v -0.044785064 -0.03342352 0.05895965
v -0.05111112 -0.01147043 0.05895965
v -0.050866432 -0.011656585 -0.18992603
v -0.06148471 -0.0010383104 -0.18992603
v -0.060997017 -0.0015845314 0.058959663
v -0.077269085 -0.0015845314 0.058959663
v -0.077269085 -0.0010383104 -0.18992603
v -0.09305347 -0.0010383104 -0.18992603
v -0.093541145 -0.0015845314 0.058959663
v -0.103671744 -0.011656585 -0.18992603
v -0.07726908 -0.06885647 0.2483057
v -0.059160218 -0.06885646 0.2838694
v -0.059160218 -0.06885647 0.2483057
v -0.07726908 -0.06885646 0.2838694
v -0.09537794 -0.06885647 0.2483057
v -0.048158385 -0.057854638 0.2838694
v -0.048158385 -0.05785464 0.2483057
v -0.041118246 -0.03342347 0.2838694
v -0.041118246 -0.033423472 0.24830568
v -0.048158385 -0.008992301 0.2838694
v -0.048158385 -0.008992308 0.24830568
v -0.059160218 0.00200952 0.2838694
v -0.059160218 0.0020095143 0.24830568
v -0.07726908 0.00200952 0.2838694
v -0.07726908 0.0020095143 0.24830568
v -0.09537794 0.00200952 0.2838694
v -0.09537794 0.0020095143 0.24830568
v -0.09537794 -0.06885646 0.2838694
v -0.10637976 -0.05785464 0.2483057
v -0.10637976 -0.008992301 0.2838694
v -0.10637976 -0.008992308 0.24830568
v -0.10637976 -0.057854638 0.2838694
v -0.11341996 -0.033423472 0.24830568
v -0.11341996 -0.03342347 0.2838694
v -0.060997017 -0.0652625 0.201705
v -0.05722644 -0.07264022 0.23358968
v -0.04504978 -0.060463555 0.23358966
v -0.05111112 -0.055376593 0.20170498
v -0.077269085 -0.0652625 0.201705
v -0.03725785 -0.03342349 0.23358965
v -0.044785064 -0.0334235 0.20170496
v -0.07726907 -0.07264022 0.23358968
v -0.093541145 -0.0652625 0.201705
v -0.04504978 -0.0063834237 0.23358965
v -0.05111112 -0.011470406 0.20170496
v -0.0973117 -0.07264022 0.23358968
v -0.103427045 -0.055376593 0.20170498
v -0.05722644 0.0057932334 0.23358966
v -0.060997017 -0.0015845082 0.20170498
v -0.10948835 -0.060463555 0.23358966
v -0.10975315 -0.0334235 0.20170496
v -0.07726907 0.0057932334 0.23358966
v -0.077269085 -0.0015845082 0.20170498
v -0.117280334 -0.03342349 0.23358965
v -0.103427045 -0.011470406 0.20170496
v -0.0973117 0.0057932334 0.23358966
v -0.093541145 -0.0015845082 0.20170498
v -0.10948835 -0.0063834237 0.23358965
v -0.059160218 0.0020095143 0.24830568
v -0.048158385 -0.008992308 0.24830568
v -0.07726908 0.0020095143 0.24830568
v -0.09537794 0.0020095143 0.24830568
v -0.041118246 -0.033423472 0.24830568
v -0.10637976 -0.008992308 0.24830568
v -0.11341996 -0.033423472 0.24830568
v -0.048158385 -0.05785464 0.2483057
v -0.10637976 -0.05785464 0.2483057
v -0.059160218 -0.06885647 0.2483057
v -0.09537794 -0.06885647 0.2483057
v -0.07726908 -0.06885647 0.2483057
v -0.10975315 -0.03342352 0.05895965
v -0.10975315 -0.0334235 0.20170496
v -0.103427045 -0.055376593 0.20170498
v -0.103427045 -0.055376615 0.058959655
v -0.103427045 -0.01147043 0.05895965
v -0.093541145 -0.0652625 0.201705
v -0.103427045 -0.011470406 0.20170496
v -0.093541145 -0.06526252 0.058959674
v -0.093541145 -0.0015845314 0.058959663
v -0.077269085 -0.0652625 0.201705
v -0.093541145 -0.0015845082 0.20170498
v -0.077269085 -0.06526252 0.058959674
v -0.077269085 -0.0015845314 0.058959663
v -0.060997017 -0.0652625 0.201705
v -0.077269085 -0.0015845082 0.20170498
v -0.060997017 -0.06526252 0.058959674
v -0.060997017 -0.0015845314 0.058959663
v -0.05111112 -0.055376593 0.20170498
v -0.060997017 -0.0015845082 0.20170498
v -0.05111112 -0.055376615 0.058959655
v -0.05111112 -0.01147043 0.05895965
v -0.044785064 -0.0334235 0.20170496
v -0.05111112 -0.011470406 0.20170496
v -0.044785064 -0.03342352 0.05895965
v -0.106208414 -0.009136101 0.28529707
v -0.11320718 -0.03342347 0.28529707
v -0.106208414 -0.057710834 0.28529707
v -0.11320718 -0.033423252 1.5992086
v -0.106208414 -0.057710618 1.5992086
v -0.09527135 0.0018009635 0.28529707
v -0.106208414 -0.009135887 1.5992086
v -0.09527135 -0.06864769 1.5992086
v -0.09527135 -0.068647906 0.28529707
v -0.102141164 -0.054297153 1.6144203
v -0.108156286 -0.033423238 1.6144203
v -0.09274124 -0.06369708 1.6144203
v -0.09527135 0.0018011776 1.5992086
v -0.07726908 0.0018009635 0.28529707
v -0.102141164 -0.01254933 1.6144203
v -0.07726908 -0.06864769 1.5992086
v -0.077269085 -0.06369708 1.6144203
v -0.07726908 -0.068647906 0.28529707
v -0.090695165 -0.044691138 1.6266248
v -0.085621044 -0.049765255 1.6266248
v -0.09394214 -0.033423312 1.6266248
v -0.090695165 -0.022155486 1.6266248
v -0.09274124 -0.0031494065 1.6144203
v -0.07726908 0.0018011776 1.5992086
v -0.07726911 -0.049765255 1.6266248
v -0.085621044 -0.01708137 1.6266248
v -0.077269085 -0.0031494065 1.6144203
v -0.059266806 0.0018009635 0.28529707
v -0.07726911 -0.01708137 1.6266248
v -0.06891718 -0.049765255 1.6266248
v -0.059266806 0.0018011776 1.5992086
v -0.06179693 -0.0031494065 1.6144203
v -0.06179693 -0.06369708 1.6144203
v -0.059266806 -0.06864769 1.5992086
v -0.059266806 -0.068647906 0.28529707
v -0.06891718 -0.01708137 1.6266248
v -0.04832973 -0.009136101 0.28529707
v -0.06384305 -0.044691138 1.6266248
v -0.052396998 -0.054297153 1.6144203
v -0.04832973 -0.009135887 1.5992086
v -0.04832973 -0.057710618 1.5992086
v -0.052396998 -0.01254933 1.6144203
v -0.06384305 -0.022155486 1.6266248
v -0.04832973 -0.057710834 0.28529707
v -0.060596094 -0.033423312 1.6266248
v -0.046381928 -0.033423238 1.6144203
v -0.041331027 -0.033423252 1.5992086
v -0.041331027 -0.03342347 0.28529707
vt 0.08972362 0.9509703
vt 0.08972362 0.9509704
vt 0.0897236 0.95097023
vt 0.09008323 0.9381513
vt 0.09008323 0.9381513
vt 0.09008323 0.9381513
vt 0.09008323 0.9381513
vt 0.09008323 0.9381513
vt 0.09008323 0.9381513
vt 0.09008323 0.9381513
vt 0.09008323 0.9381513
vt 0.09008323 0.9381513
vt 0.09008323 0.9381513
vt 0.09008323 0.93815124
vt 0.09008323 0.9381513
vt 0.09008323 0.93815124
vt 0.09008323 0.9381513
vt 0.09008323 0.93815124
vt 0.09008323 0.9381513
vt 0.09008323 0.93815124
vt 0.09008323 0.93815124
vt 0.09008323 0.9381513
vt 0.09008323 0.93815124
vt 0.09008323 0.9381513
vt 0.09008323 0.93815124
vt 0.09008323 0.93815124
vt 0.09008323 0.9381513
vt 0.09008323 0.9381513
vt 0.09008323 0.93815124
vt 0.09008323 0.9381513
vt 0.09008323 0.93815124
vt 0.09008323 0.93815124
vt 0.09008323 0.9381513
vt 0.09008323 0.93815124
vt 0.09008323 0.9381513
vt 0.09008323 0.9381513
vt 0.09008323 0.9381513
vt 0.09008323 0.9381513
vt 0.09008323 0.9381513
vt 0.09008323 0.9381513
vt 0.09008323 0.9381513
vt 0.09008323 0.9381513
vt 0.09008323 0.9381513
vt 0.09008323 0.9381513
vt 0.09008323 0.9381513
vt 0.09008323 0.9381513
vt 0.09008323 0.9381513
vt 0.09008323 0.9381513
vt 0.09008323 0.93815124
vt 0.09008323 0.93815124
vt 0.09008323 0.9381513
vt 0.09008323 0.93815124
vt 0.09008323 0.9381513
vt 0.09008323 0.9381513
vt 0.09008323 0.93815124
vt 0.09008323 0.93815124
vt 0.09008323 0.9381513
vt 0.09008323 0.9381513
vt 0.09008323 0.93815124
vt 0.09008323 0.9381513
vt 0.09008323 0.9381513
vt 0.09008323 0.93815124
vt 0.09008323 0.9381513
vt 0.09008323 0.93815124
vt 0.09008323 0.93815124
vt 0.09008323 0.9381513
vt 0.09008323 0.9381513
vt 0.09008323 0.93815124
vt 0.09008323 0.9381513
vt 0.09008323 0.93815124
vt 0.09008323 0.9381513
vt 0.09008323 0.93815124
vt 0.040867567 0.9110826
vt 0.040867567 0.9110826
vt 0.040867567 0.9110826
vt 0.040867567 0.9110826
vt 0.040867567 0.9110826
vt 0.040867567 0.9110826
vt 0.040867567 0.9110826
vt 0.040867567 0.9110826
vt 0.040867567 0.9110826
vt 0.040867567 0.9110826
vt 0.040867567 0.9110826
vt 0.040867567 0.9110826
vt 0.040867567 0.9110826
vt 0.040867567 0.9110826
vt 0.040867567 0.9110826
vt 0.040867567 0.9110826
vt 0.040867567 0.9110826
vt 0.040867567 0.9110826
vt 0.040867567 0.9110826
vt 0.040867567 0.9110826
vt 0.040867567 0.9110826
vt 0.040867567 0.9110826
vt 0.040867567 0.9110826
vt 0.040867567 0.9110826
vt 0.042968743 0.85253894
vt 0.042968743 0.85253894
vt 0.042968746 0.852539
vt 0.042968743 0.85253894
vt 0.042968743 0.85253894
vt 0.042968743 0.85253894
vt 0.042968743 0.85253894
vt 0.042968743 0.85253894
vt 0.042968743 0.85253894
vt 0.042968743 0.85253894
vt 0.04296874 0.8525389
vt 0.042968743 0.85253894
vt 0.042968743 0.85253894
vt 0.042968743 0.85253894
vt 0.042968743 0.85253894
vt 0.042968743 0.852539
vt 0.04296874 0.8525389
vt 0.042968743 0.85253894
vt 0.042968743 0.85253894
vt 0.04296875 0.85253906
vt 0.042968743 0.85253894
vt 0.042968743 0.85253894
vt 0.042968743 0.85253894
vt 0.042968743 0.85253894
vt 0.042968743 0.85253894
vt 0.08972362 0.9509703
vt 0.08972362 0.95097035
vt 0.08972362 0.95097035
vt 0.08972362 0.9509703
vt 0.08972362 0.9509703
vt 0.08972362 0.9509703
vt 0.08972362 0.9509703
vt 0.08972362 0.95097035
vt 0.08972362 0.95097035
vt 0.0897236 0.95097023
vt 0.0897236 0.95097023
vt 0.08972362 0.9509704
vt 0.08972362 0.9509704
vt 0.08972362 0.9509703
vt 0.08972362 0.9509703
vt 0.08972362 0.9509703
vt 0.08972362 0.9509703
vt 0.08972362 0.9509703
vt 0.0897236 0.95097023
vt 0.08972362 0.9509703
vt 0.08972362 0.9509703
vt 0.0897236 0.95097023
vt 0.08972362 0.9509703
vt 0.08972362 0.9509703
vt 0.038047176 0.9017547
vt 0.038047176 0.9017547
vt 0.038047176 0.9017546
vt 0.038047176 0.9017546
vt 0.038047176 0.9017546
vt 0.038047176 0.9017547
vt 0.038047176 0.9017547
vt 0.038047176 0.9017546
vt 0.038047176 0.9017546
vt 0.03804717 0.90175456
vt 0.03804717 0.90175456
vt 0.038047176 0.9017546
vt 0.03804717 0.90175456
vt 0.038047176 0.90175474
vt 0.038047176 0.90175474
vt 0.03804717 0.90175456
vt 0.038047176 0.9017546
vt 0.038047176 0.9017546
vt 0.038047176 0.9017546
vt 0.038047176 0.9017546
vt 0.038047176 0.9017546
vt 0.038047176 0.9017546
vt 0.038047176 0.9017546
vt 0.038047176 0.9017546
vt 0.038047176 0.90175474
vt 0.03804717 0.90175456
vt 0.038047176 0.9017546
vt 0.038047176 0.9017546
vt 0.038047176 0.9017547
vt 0.038047176 0.9017546
vt 0.038047176 0.9017546
vt 0.038047176 0.9017546
vt 0.03804717 0.90175456
vt 0.038047176 0.9017547
vt 0.038047176 0.9017546
vt 0.038047176 0.9017546
vt 0.095875576 0.93620557
vt 0.095875576 0.93620557
vt 0.09587557 0.9362055
vt 0.09587557 0.9362055
vt 0.095875576 0.93620557
vt 0.095875576 0.93620557
vt 0.095875576 0.93620557
vt 0.095875576 0.93620557
vt 0.095875576 0.93620557
vt 0.095875576 0.93620557
vt 0.095875576 0.93620557
vt 0.095875576 0.93620557
vt 0.095875576 0.93620557
vt 0.095875576 0.9362056
vt 0.095875576 0.93620557
vt 0.095875576 0.9362056
vt 0.095875576 0.9362057
vt 0.095875576 0.93620557
vt 0.095875576 0.9362057
vt 0.095875576 0.93620557
vt 0.09587557 0.9362055
vt 0.095875576 0.9362056
vt 0.09587557 0.9362055
vt 0.095875576 0.9362056
vt 0.032101363 0.97325706
vt 0.032101363 0.97325706
vt 0.032101363 0.97325706
vt 0.032101363 0.97325706
vt 0.032101363 0.97325706
vt 0.032101363 0.97325706
vt 0.032101363 0.97325706
vt 0.032101363 0.97325706
vt 0.032101363 0.97325706
vt 0.032101363 0.97325706
vt 0.032101363 0.97325706
vt 0.032101363 0.97325706
vt 0.032101363 0.97325706
vt 0.032101363 0.97325706
vt 0.032101363 0.97325706
vt 0.032101363 0.97325706
vt 0.032101363 0.97325706
vt 0.032101363 0.97325706
vt 0.032101363 0.97325706
vt 0.032101363 0.97325706
vt 0.032101363 0.97325706
vt 0.032101363 0.97325706
vt 0.032101363 0.97325706
vt 0.032101363 0.97325706
vt 0.032101363 0.97325706
vt 0.032101363 0.97325706
vt 0.032101363 0.97325706
vt 0.032101363 0.97325706
vt 0.032101363 0.97325706
vt 0.032101363 0.97325706
vt 0.032101363 0.97325706
vt 0.032101363 0.97325706
vt 0.032101363 0.97325706
vt 0.032101363 0.97325706
vt 0.032101363 0.97325706
vt 0.032101363 0.97325706
vt 0.032101363 0.97325706
vt 0.032101363 0.97325706
vt 0.032101363 0.97325706
vt 0.032101363 0.97325706
vt 0.032101363 0.97325706
vt 0.032101363 0.97325706
vt 0.032101363 0.97325706
vt 0.032101363 0.97325706
vt 0.032101363 0.97325706
vt 0.032101363 0.97325706
vt 0.032101363 0.97325706
vt 0.032101363 0.97325706
vn 0.65085196 -0.38393128 0.6549721
vn 0.2971048 0.7172937 0.63025284
vn 0.65085196 0.38393128 0.6549721
vn -0 0 1
vn -0 0 1
vn -0 0 1
vn -0 0 1
vn -0 0 1
vn -0 0 1
vn -0 0 1
vn -0 0 1
vn 0.76032627 0 0.6495414
vn 0.65051484 -0.3842967 0.6550927
vn 1 0 0
vn 0.65051484 0.3842967 0.6550927
vn 0.8609818 0.5086357 0
vn 0.2971048 0.7172937 0.63025284
vn 0.38268155 0.92388034 0
vn -0 0.70710677 0.70710677
vn -0 1 0
vn -0.38268155 0.92388034 0
vn -0.2971048 0.7172937 0.63025284
vn -0.8609818 0.5086357 0
vn -0.65051484 0.3842967 0.6550927
vn -1 0 0
vn 0.8609897 -0.50862235 0
vn -0.76032627 0 0.6495414
vn 0.2971048 -0.7172937 0.63025284
vn 0.38268155 -0.92388034 0
vn -0 -0.70710677 0.70710677
vn -0 -1 0
vn -0.38268155 -0.92388034 0
vn -0.2971048 -0.7172937 0.63025284
vn -0.8609897 -0.50862235 0
vn -0.65051484 -0.3842967 0.6550927
vn -0 0 -1
vn -0 0 -1
vn -0 0 -1
vn -0 0 -1
vn -0 0 -1
vn -0 0 -1
vn -0 0 -1
vn -0 0 -1
vn -0 0 -1
vn -0 0 -1
vn -0 0 -1
vn -0 0 -1
vn -0 0 -1
vn -0.8609818 0.5086357 0
vn -1 0 0
vn -0.76032627 0 -0.6495414
vn -0.8609897 -0.50862235 0
vn -0.65051484 0.3842967 -0.6550927
vn -0.65051484 -0.3842967 -0.6550927
vn -0.38268155 0.92388034 0
vn -0.38268155 -0.92388034 0
vn -0.2971048 0.7172937 -0.63025284
vn -0.2971048 -0.7172937 -0.63025284
vn -0 1 0
vn -0 0.70710677 -0.70710677
vn 0.2971048 0.7172937 -0.63025284
vn 0.38268155 0.92388034 0
vn 0.65051484 0.3842967 -0.6550927
vn 0.8609818 0.5086357 0
vn -0 -1 0
vn -0 -0.70710677 -0.70710677
vn 0.2971048 -0.7172937 -0.63025284
vn 0.38268155 -0.92388034 0
vn 0.65051484 -0.3842967 -0.6550927
vn 0.8609897 -0.50862235 0
vn 0.76032627 0 -0.6495414
vn 1 0 0
vn -0 -1 0
vn 0.38268155 -0.92388034 0
vn -0 -1 0
vn -0.38268155 -0.92388034 0
vn 0.38268155 -0.92388034 0
vn -0.38268155 -0.92388034 0
vn 0.8609897 -0.50862235 0
vn -0.8609897 -0.50862235 0
vn 0.8609897 -0.50862235 0
vn -0.8609897 -0.50862235 0
vn 1 0 0
vn 1 0 0
vn 0.8609818 0.5086357 0
vn 0.8609818 0.5086357 0
vn 0.38268155 0.92388034 0
vn 0.38268155 0.92388034 0
vn -1 0 0
vn -1 0 0
vn -0.8609818 0.5086357 0
vn -0.8609818 0.5086357 0
vn -0.38268155 0.92388034 0
vn -0.38268155 0.92388034 0
vn -0 1 0
vn -0 1 0
vn 0.29679507 -0.71783215 -0.6297854
vn -0 -0.9999994 0.0010681798
vn 0.38298506 -0.9237543 0.0006103834
vn 0.86094713 -0.5086943 0.00027467296
vn -0 -0.7078846 -0.7063282
vn -0 0 -1
vn -0.29679507 -0.71783215 -0.6297854
vn -0.38298506 -0.9237543 0.0006103834
vn -0.76139385 0 -0.64828956
vn -0.65019196 -0.3844568 -0.6553193
vn -0.86094713 -0.5086943 0.00027467296
vn -0.9999999 0 0.000488311
vn -0.86094713 0.5086943 0.00027467296
vn 0.65019196 -0.3844568 -0.6553193
vn 0.76139385 0 -0.64828956
vn 0.9999999 0 0.000488311
vn 0.86094713 0.5086943 0.00027467296
vn 0.65019196 0.3844568 -0.6553193
vn 0.29679507 0.71783215 -0.6297854
vn 0.38298506 0.9237543 0.0006103834
vn -0 0.9999994 0.0010681798
vn -0 0.7078846 -0.7063282
vn -0.29679507 0.71783215 -0.6297854
vn -0.38298506 0.9237543 0.0006103834
vn -0.65019196 0.3844568 -0.6553193
vn -0 -0.9920941 0.12549578
vn 0.2971048 -0.7172937 0.63025284
vn 0.37587345 -0.91532934 0.14453852
vn -0 -0.70710677 0.70710677
vn -0.37587345 -0.91532934 0.14453852
vn 0.65085196 -0.38393128 0.6549721
vn 0.8552684 -0.5002698 0.13507773
vn 0.76014346 0 0.6497553
vn 0.99140036 0 0.13086425
vn 0.65085196 0.38393128 0.6549721
vn 0.8552684 0.5002698 0.13507773
vn 0.2971048 0.7172937 0.63025284
vn 0.37587345 0.91532934 0.14453852
vn -0 0.70710677 0.70710677
vn -0 0.9920941 0.12549578
vn -0.2971048 0.7172937 0.63025284
vn -0.37587345 0.91532934 0.14453852
vn -0.2971048 -0.7172937 0.63025284
vn -0.8552684 -0.5002698 0.13507773
vn -0.65085196 0.38393128 0.6549721
vn -0.8552684 0.5002698 0.13507773
vn -0.65085196 -0.38393128 0.6549721
vn -0.99140036 0 0.13086425
vn -0.76014346 0 0.6497553
vn 0.37690735 -0.9170293 -0.13037637
vn 0.3869781 -0.9220028 0.012604255
vn 0.85803336 -0.5134467 0.012299038
vn 0.85656077 -0.50143564 -0.121925466
vn -0 -0.99354506 -0.113439016
vn 0.9999299 0 0.011841436
vn 0.9930078 0 -0.11804881
vn -0 -0.99992657 0.012116068
vn -0.37690735 -0.9170293 -0.13037637
vn 0.85803366 0.51344687 0.012268524
vn 0.85656077 0.50143564 -0.121925466
vn -0.3869781 -0.9220028 0.012604255
vn -0.85656077 -0.50143564 -0.121925466
vn 0.3869781 0.9220028 0.012604255
vn 0.37690735 0.9170293 -0.13037637
vn -0.85803336 -0.5134467 0.012299038
vn -0.9930078 0 -0.11804881
vn -0 0.99992657 0.012116068
vn -0 0.99354506 -0.113439016
vn -0.9999299 0 0.011841436
vn -0.85656077 0.50143564 -0.121925466
vn -0.3869781 0.9220028 0.012604255
vn -0.37690735 0.9170293 -0.13037637
vn -0.85803366 0.51344687 0.012268524
vn 0.37587345 0.91532934 0.14453852
vn 0.8552684 0.5002698 0.13507773
vn -0 0.9920941 0.12549578
vn -0.37587345 0.91532934 0.14453852
vn 0.99140036 0 0.13086425
vn -0.8552684 0.5002698 0.13507773
vn -0.99140036 0 0.13086425
vn 0.8552684 -0.5002698 0.13507773
vn -0.8552684 -0.5002698 0.13507773
vn 0.37587345 -0.91532934 0.14453852
vn -0.37587345 -0.91532934 0.14453852
vn -0 -0.9920941 0.12549578
vn -0.9999999 0 0.000488311
vn -0.9930078 0 -0.11804881
vn -0.85656077 -0.50143564 -0.121925466
vn -0.86094713 -0.5086943 0.00027467296
vn -0.86094713 0.5086943 0.00027467296
vn -0.37690735 -0.9170293 -0.13037637
vn -0.85656077 0.50143564 -0.121925466
vn -0.38298506 -0.9237543 0.0006103834
vn -0.38298506 0.9237543 0.0006103834
vn -0 -0.99354506 -0.113439016
vn -0.37690735 0.9170293 -0.13037637
vn -0 -0.9999994 0.0010681798
vn -0 0.9999994 0.0010681798
vn 0.37690735 -0.9170293 -0.13037637
vn -0 0.99354506 -0.113439016
vn 0.38298506 -0.9237543 0.0006103834
vn 0.38298506 0.9237543 0.0006103834
vn 0.85656077 -0.50143564 -0.121925466
vn 0.37690735 0.9170293 -0.13037637
vn 0.86094713 -0.5086943 0.00027467296
vn 0.86094713 0.5086943 0.00027467296
vn 0.9930078 0 -0.11804881
vn 0.85656077 0.50143564 -0.121925466
vn 0.9999999 0 0.000488311
vn -0.65085196 0.38393128 -0.6549721
vn -0.76014346 0 -0.6497553
vn -0.65085196 -0.38393128 -0.6549721
vn -0.987861 0 0.15534036
vn -0.8481299 -0.5046968 0.16111112
vn -0.2971048 0.7172937 -0.63025284
vn -0.8481299 0.5046968 0.16111112
vn -0.3798081 -0.9098609 0.16703011
vn -0.2971048 -0.7172937 -0.63025284
vn -0.7191494 -0.42454967 0.5500742
vn -0.8440157 0 0.53631854
vn -0.3168821 -0.7672557 0.557588
vn -0.3798081 0.9098609 0.16703011
vn -0 0.70710677 -0.70710677
vn -0.7191494 0.42454967 0.5500742
vn -0 -0.98765355 0.15665366
vn -0 -0.8348148 0.55053097
vn -0 -0.70710677 -0.70710677
vn -0.3375753 -0.18803012 0.9223273
vn -0.14331906 -0.36812484 0.91866404
vn -0.39940786 0 0.9167733
vn -0.3375753 0.18803012 0.9223273
vn -0.3168821 0.7672557 0.557588
vn -0 0.98765355 0.15665366
vn -0 -0.35198286 0.9360065
vn -0.14331906 0.36812484 0.91866404
vn -0 0.8348148 0.55053097
vn 0.2971048 0.7172937 -0.63025284
vn -0 0.35198286 0.9360065
vn 0.14331906 -0.36812484 0.91866404
vn 0.3798081 0.9098609 0.16703011
vn 0.3168821 0.7672557 0.557588
vn 0.3168821 -0.7672557 0.557588
vn 0.3798081 -0.9098609 0.16703011
vn 0.2971048 -0.7172937 -0.63025284
vn 0.14331906 0.36812484 0.91866404
vn 0.65085196 0.38393128 -0.6549721
vn 0.3375753 -0.18803012 0.9223273
vn 0.7191494 -0.42454967 0.5500742
vn 0.8481299 0.5046968 0.16111112
vn 0.8481299 -0.5046968 0.16111112
vn 0.7191494 0.42454967 0.5500742
vn 0.3375753 0.18803012 0.9223273
vn 0.65085196 -0.38393128 -0.6549721
vn 0.39940786 0 0.9167733
vn 0.8440157 0 0.53631854
vn 0.987861 0 0.15534036
vn 0.76014346 0 -0.6497553
g Sword10_0
f 3/3/3 2/2/2 1/1/1
f 6/6/6 5/5/5 4/4/4
f 6/6/6 4/4/4 7/7/7
f 7/7/7 8/8/8 6/6/6
f 9/9/9 8/8/8 7/7/7
f 10/10/10 9/9/9 7/7/7
f 7/7/7 11/11/11 10/10/10
f 13/13/13 12/12/12 7/7/7
f 14/14/14 12/12/12 13/13/13
f 12/12/12 14/14/14 15/15/15
f 14/14/14 16/16/16 15/15/15
f 15/15/15 16/16/16 17/17/17
f 16/16/16 18/18/18 17/17/17
f 17/17/17 18/18/18 19/19/19
f 18/18/18 20/20/20 19/19/19
f 20/20/20 21/21/21 19/19/19
f 21/21/21 22/22/22 19/19/19
f 21/21/21 23/23/23 22/22/22
f 23/23/23 24/24/24 22/22/22
f 23/23/23 25/25/25 24/24/24
f 26/26/26 14/14/14 13/13/13
f 25/25/25 27/27/27 24/24/24
f 26/26/26 13/13/13 28/28/28
f 7/7/7 28/28/28 13/13/13
f 29/29/29 26/26/26 28/28/28
f 7/7/7 30/30/30 28/28/28
f 29/29/29 28/28/28 30/30/30
f 30/30/30 7/7/7 27/27/27
f 31/31/31 29/29/29 30/30/30
f 32/32/32 31/31/31 30/30/30
f 33/33/33 32/32/32 30/30/30
f 27/27/27 33/33/33 30/30/30
f 34/34/34 32/32/32 33/33/33
f 25/25/25 34/34/34 35/35/35
f 27/27/27 25/25/25 35/35/35
f 27/27/27 35/35/35 33/33/33
f 35/35/35 34/34/34 33/33/33
f 38/38/38 37/37/37 36/36/36
f 38/38/38 36/36/36 39/39/39
f 39/39/39 40/40/40 38/38/38
f 40/40/40 39/39/39 41/41/41
f 40/40/40 41/41/41 42/42/42
f 42/42/42 43/43/43 40/40/40
f 40/40/40 43/43/43 44/44/44
f 44/44/44 45/45/45 40/40/40
f 45/45/45 46/46/46 40/40/40
f 40/40/40 46/46/46 47/47/47
f 47/47/47 38/38/38 40/40/40
f 47/47/47 48/48/48 38/38/38
f 51/51/51 50/50/50 49/49/49
f 50/50/50 51/51/51 52/52/52
f 53/53/53 51/51/51 49/49/49
f 51/51/51 54/54/54 52/52/52
f 53/53/53 49/49/49 55/55/55
f 52/52/52 54/54/54 56/56/56
f 57/57/57 53/53/53 55/55/55
f 54/54/54 58/58/58 56/56/56
f 57/57/57 55/55/55 59/59/59
f 60/60/60 57/57/57 59/59/59
f 61/61/61 60/60/60 59/59/59
f 62/62/62 61/61/61 59/59/59
f 63/63/63 61/61/61 62/62/62
f 64/64/64 63/63/63 62/62/62
f 56/56/56 58/58/58 65/65/65
f 58/58/58 66/66/66 65/65/65
f 66/66/66 67/67/67 65/65/65
f 67/67/67 68/68/68 65/65/65
f 67/67/67 69/69/69 68/68/68
f 69/69/69 70/70/70 68/68/68
f 71/71/71 63/63/63 64/64/64
f 69/69/69 71/71/71 70/70/70
f 72/72/72 71/71/71 64/64/64
f 71/71/71 72/72/72 70/70/70
f 75/75/75 74/74/74 73/73/73
f 76/76/76 75/75/75 73/73/73
f 74/74/74 77/77/77 73/73/73
f 78/78/78 76/76/76 73/73/73
f 74/74/74 79/79/79 77/77/77
f 80/80/80 76/76/76 78/78/78
f 79/79/79 81/81/81 77/77/77
f 82/82/82 80/80/80 78/78/78
f 79/79/79 83/83/83 81/81/81
f 83/83/83 84/84/84 81/81/81
f 84/84/84 83/83/83 85/85/85
f 83/83/83 86/86/86 85/85/85
f 85/85/85 86/86/86 87/87/87
f 86/86/86 88/88/88 87/87/87
f 89/89/89 80/80/80 82/82/82
f 90/90/90 89/89/89 82/82/82
f 89/89/89 90/90/90 91/91/91
f 92/92/92 89/89/89 91/91/91
f 92/92/92 91/91/91 93/93/93
f 94/94/94 92/92/92 93/93/93
f 87/87/87 88/88/88 95/95/95
f 94/94/94 93/93/93 95/95/95
f 88/88/88 96/96/96 95/95/95
f 96/96/96 94/94/94 95/95/95
f 99/99/99 98/98/98 97/97/97
f 100/100/100 99/99/99 97/97/97
f 98/98/98 101/101/101 97/97/97
f 97/97/97 101/101/101 102/102/102
f 102/102/102 101/101/101 103/103/103
f 101/101/101 98/98/98 103/103/103
f 98/98/98 104/104/104 103/103/103
f 103/103/103 105/105/105 102/102/102
f 103/103/103 106/106/106 105/105/105
f 104/104/104 107/107/107 103/103/103
f 107/107/107 106/106/106 103/103/103
f 106/106/106 107/107/107 105/105/105
f 107/107/107 108/108/108 105/105/105
f 108/108/108 109/109/109 105/105/105
f 110/110/110 100/100/100 97/97/97
f 110/110/110 97/97/97 102/102/102
f 100/100/100 110/110/110 111/111/111
f 102/102/102 111/111/111 110/110/110
f 112/112/112 100/100/100 111/111/111
f 113/113/113 112/112/112 111/111/111
f 114/114/114 113/113/113 111/111/111
f 114/114/114 111/111/111 102/102/102
f 113/113/113 114/114/114 115/115/115
f 102/102/102 115/115/115 114/114/114
f 116/116/116 113/113/113 115/115/115
f 117/117/117 116/116/116 115/115/115
f 102/102/102 118/118/118 115/115/115
f 118/118/118 117/117/117 115/115/115
f 118/118/118 102/102/102 105/105/105
f 117/117/117 118/118/118 119/119/119
f 105/105/105 119/119/119 118/118/118
f 120/120/120 117/117/117 119/119/119
f 109/109/109 120/120/120 119/119/119
f 105/105/105 121/121/121 119/119/119
f 109/109/109 121/121/121 105/105/105
f 121/121/121 109/109/109 119/119/119
f 124/124/124 123/123/123 122/122/122
f 123/123/123 125/125/125 122/122/122
f 122/122/122 125/125/125 126/126/126
f 127/127/127 123/123/123 124/124/124
f 128/128/128 127/127/127 124/124/124
f 129/129/129 127/127/127 128/128/128
f 130/130/130 129/129/129 128/128/128
f 127/127/127 129/129/129 131/131/131
f 131/131/131 129/129/129 130/130/130
f 132/132/132 131/131/131 130/130/130
f 133/133/133 131/131/131 132/132/132
f 133/133/133 123/123/123 127/127/127
f 134/134/134 133/133/133 132/132/132
f 133/133/133 135/135/135 123/123/123
f 135/135/135 133/133/133 134/134/134
f 135/135/135 125/125/125 123/123/123
f 136/136/136 135/135/135 134/134/134
f 137/137/137 135/135/135 136/136/136
f 135/135/135 137/137/137 125/125/125
f 138/138/138 137/137/137 136/136/136
f 137/137/137 139/139/139 125/125/125
f 125/125/125 139/139/139 126/126/126
f 126/126/126 139/139/139 140/140/140
f 141/141/141 137/137/137 138/138/138
f 137/137/137 141/141/141 139/139/139
f 142/142/142 141/141/141 138/138/138
f 139/139/139 143/143/143 140/140/140
f 141/141/141 143/143/143 139/139/139
f 140/140/140 143/143/143 144/144/144
f 145/145/145 141/141/141 142/142/142
f 144/144/144 145/145/145 142/142/142
f 141/141/141 145/145/145 143/143/143
f 143/143/143 145/145/145 144/144/144
f 148/148/148 147/147/147 146/146/146
f 149/149/149 148/148/148 146/146/146
f 146/146/146 147/147/147 150/150/150
f 151/151/151 148/148/148 149/149/149
f 152/152/152 151/151/151 149/149/149
f 147/147/147 153/153/153 150/150/150
f 150/150/150 153/153/153 154/154/154
f 155/155/155 151/151/151 152/152/152
f 156/156/156 155/155/155 152/152/152
f 153/153/153 157/157/157 154/154/154
f 154/154/154 157/157/157 158/158/158
f 159/159/159 155/155/155 156/156/156
f 160/160/160 159/159/159 156/156/156
f 157/157/157 161/161/161 158/158/158
f 158/158/158 161/161/161 162/162/162
f 163/163/163 159/159/159 160/160/160
f 164/164/164 163/163/163 160/160/160
f 161/161/161 165/165/165 162/162/162
f 162/162/162 165/165/165 166/166/166
f 167/167/167 163/163/163 164/164/164
f 168/168/168 167/167/167 164/164/164
f 166/166/166 169/169/169 168/168/168
f 165/165/165 169/169/169 166/166/166
f 169/169/169 167/167/167 168/168/168
f 159/159/159 170/170/170 155/155/155
f 170/170/170 171/171/171 155/155/155
f 172/172/172 170/170/170 159/159/159
f 163/163/163 172/172/172 159/159/159
f 155/155/155 171/171/171 151/151/151
f 173/173/173 172/172/172 163/163/163
f 167/167/167 173/173/173 163/163/163
f 171/171/171 174/174/174 151/151/151
f 175/175/175 173/173/173 167/167/167
f 169/169/169 175/175/175 167/167/167
f 151/151/151 174/174/174 148/148/148
f 176/176/176 175/175/175 169/169/169
f 165/165/165 176/176/176 169/169/169
f 174/174/174 177/177/177 148/148/148
f 178/178/178 176/176/176 165/165/165
f 148/148/148 177/177/177 147/147/147
f 161/161/161 178/178/178 165/165/165
f 177/177/177 179/179/179 147/147/147
f 180/180/180 178/178/178 161/161/161
f 147/147/147 179/179/179 153/153/153
f 157/157/157 180/180/180 161/161/161
f 179/179/179 181/181/181 153/153/153
f 181/181/181 180/180/180 157/157/157
f 153/153/153 181/181/181 157/157/157
f 184/184/184 183/183/183 182/182/182
f 185/185/185 184/184/184 182/182/182
f 182/182/182 183/183/183 186/186/186
f 187/187/187 184/184/184 185/185/185
f 183/183/183 188/188/188 186/186/186
f 189/189/189 187/187/187 185/185/185
f 186/186/186 188/188/188 190/190/190
f 191/191/191 187/187/187 189/189/189
f 188/188/188 192/192/192 190/190/190
f 193/193/193 191/191/191 189/189/189
f 190/190/190 192/192/192 194/194/194
f 195/195/195 191/191/191 193/193/193
f 192/192/192 196/196/196 194/194/194
f 197/197/197 195/195/195 193/193/193
f 194/194/194 196/196/196 198/198/198
f 199/199/199 195/195/195 197/197/197
f 196/196/196 200/200/200 198/198/198
f 201/201/201 199/199/199 197/197/197
f 198/198/198 200/200/200 202/202/202
f 203/203/203 199/199/199 201/201/201
f 200/200/200 204/204/204 202/202/202
f 205/205/205 203/203/203 201/201/201
f 202/202/202 204/204/204 205/205/205
f 204/204/204 203/203/203 205/205/205
g Sword10_1
f 208/208/208 207/207/207 206/206/206
f 207/207/207 209/209/209 206/206/206
f 208/208/208 210/210/210 207/207/207
f 210/210/210 209/209/209 207/207/207
f 208/208/208 206/206/206 211/211/211
f 209/209/209 212/212/212 206/206/206
f 206/206/206 212/212/212 211/211/211
f 213/213/213 210/210/210 208/208/208
f 214/214/214 208/208/208 211/211/211
f 214/214/214 213/213/213 208/208/208
f 210/210/210 215/215/215 209/209/209
f 209/209/209 216/216/216 212/212/212
f 215/215/215 216/216/216 209/209/209
f 213/213/213 217/217/217 210/210/210
f 217/217/217 215/215/215 210/210/210
f 212/212/212 218/218/218 211/211/211
f 214/214/214 211/211/211 219/219/219
f 211/211/211 218/218/218 219/219/219
f 216/216/216 220/220/220 212/212/212
f 212/212/212 220/220/220 218/218/218
f 221/221/221 213/213/213 214/214/214
f 222/222/222 217/217/217 213/213/213
f 221/221/221 222/222/222 213/213/213
f 223/223/223 214/214/214 219/219/219
f 223/223/223 221/221/221 214/214/214
f 215/215/215 224/224/224 216/216/216
f 217/217/217 225/225/225 215/215/215
f 225/225/225 224/224/224 215/215/215
f 224/224/224 226/226/226 216/216/216
f 216/216/216 226/226/226 220/220/220
f 227/227/227 226/226/226 224/224/224
f 226/226/226 227/227/227 220/220/220
f 227/227/227 224/224/224 225/225/225
f 220/220/220 228/228/228 218/218/218
f 220/220/220 227/227/227 228/228/228
f 218/218/218 229/229/229 219/219/219
f 218/218/218 228/228/228 229/229/229
f 230/230/230 225/225/225 217/217/217
f 222/222/222 230/230/230 217/217/217
f 231/231/231 227/227/227 225/225/225
f 227/227/227 231/231/231 228/228/228
f 231/231/231 225/225/225 230/230/230
f 228/228/228 231/231/231 232/232/232
f 228/228/228 232/232/232 229/229/229
f 219/219/219 229/229/229 233/233/233
f 223/223/223 219/219/219 233/233/233
f 234/234/234 231/231/231 230/230/230
f 231/231/231 234/234/234 232/232/232
f 235/235/235 230/230/230 222/222/222
f 234/234/234 230/230/230 235/235/235
f 229/229/229 232/232/232 236/236/236
f 229/229/229 236/236/236 233/233/233
f 232/232/232 234/234/234 237/237/237
f 232/232/232 237/237/237 236/236/236
f 238/238/238 235/235/235 222/222/222
f 238/238/238 222/222/222 221/221/221
f 239/239/239 221/221/221 223/223/223
f 239/239/239 238/238/238 221/221/221
f 240/240/240 223/223/223 233/233/233
f 240/240/240 239/239/239 223/223/223
f 241/241/241 234/234/234 235/235/235
f 234/234/234 241/241/241 237/237/237
f 233/233/233 236/236/236 242/242/242
f 240/240/240 233/233/233 242/242/242
f 243/243/243 235/235/235 238/238/238
f 241/241/241 235/235/235 243/243/243
f 244/244/244 238/238/238 239/239/239
f 244/244/244 243/243/243 238/238/238
f 236/236/236 237/237/237 245/245/245
f 236/236/236 245/245/245 242/242/242
f 246/246/246 239/239/239 240/240/240
f 246/246/246 244/244/244 239/239/239
f 237/237/237 241/241/241 247/247/247
f 237/237/237 247/247/247 245/245/245
f 248/248/248 241/241/241 243/243/243
f 241/241/241 248/248/248 247/247/247
f 249/249/249 240/240/240 242/242/242
f 249/249/249 246/246/246 240/240/240
f 250/250/250 243/243/243 244/244/244
f 243/243/243 250/250/250 248/248/248
f 251/251/251 250/250/250 244/244/244
f 248/248/248 250/250/250 251/251/251
f 247/247/247 248/248/248 251/251/251
f 251/251/251 244/244/244 246/246/246
f 247/247/247 251/251/251 252/252/252
f 252/252/252 251/251/251 246/246/246
f 245/245/245 247/247/247 252/252/252
f 252/252/252 246/246/246 249/249/249
f 242/242/242 253/253/253 249/249/249
f 242/242/242 245/245/245 253/253/253
f 253/253/253 252/252/252 249/249/249
f 245/245/245 252/252/252 253/253/253
