g W_Arrow
v 0.015543784 0.004164339 0.0047541247
v 0.015543784 0.004164337 -0.0049697105
v 3.1539963E-07 -0.022677839 -0.00010779328
v -0.0048616077 0.0041643404 0.015435674
v 0.004862227 0.0041643404 0.015435674
v 3.1539963E-07 -0.022677839 -0.00010779328
v -0.015543151 0.004164337 -0.0049697123
v -0.015543155 0.004164339 0.0047541247
v 3.1539963E-07 -0.022677839 -0.00010779328
v 3.1539963E-07 -0.022677839 -0.00010779328
v 0.0048622293 0.004164336 -0.015651258
v -0.0048616105 0.004164336 -0.015651256
v 3.1539963E-07 -0.022677839 -0.00010779328
v -0.015543155 0.004164339 0.0047541247
v -0.007638806 0.0030155194 0.0075313183
v 3.1539963E-07 -0.022677839 -0.00010779328
v -0.0048616105 0.004164336 -0.015651256
v -0.007638809 0.003015517 -0.007746919
v 3.1539963E-07 -0.022677839 -0.00010779328
v 0.015543784 0.004164337 -0.0049697105
v 0.0076394337 0.003015517 -0.007746919
v 3.1539963E-07 -0.022677839 -0.00010779328
v 0.0076394337 0.0030155194 0.0075313183
v 0.015543784 0.004164339 0.0047541247
v 3.1539963E-07 -0.022677839 -0.00010779328
v -0.007638806 0.0030155194 0.0075313183
v -0.0048616077 0.0041643404 0.015435674
v 3.1539963E-07 -0.022677839 -0.00010779328
v -0.007638809 0.003015517 -0.007746919
v -0.015543151 0.004164337 -0.0049697123
v 3.1539963E-07 -0.022677839 -0.00010779328
v 0.0076394337 0.003015517 -0.007746919
v 0.0048622293 0.004164336 -0.015651258
v 3.1539963E-07 -0.022677839 -0.00010779328
v 0.004862227 0.0041643404 0.015435674
v 0.0076394337 0.0030155194 0.0075313183
v -0.021159487 0.15857393 -0.021267528
v -0.0045587216 0.15857391 -0.068515904
v -0.007361164 0.2797676 -0.019632235
v -0.014073945 0.28074673 -0.014181992
v 0.06840838 0.15857393 0.0044511827
v 0.021159971 0.15857393 0.021051915
v 0.01407438 0.28074673 0.01396632
v 0.019524634 0.2797676 0.0072535835
v 0.0076394337 0.0030155194 0.0075313183
v 0.004862227 0.0041643404 0.015435674
v 0.004559165 0.15857394 0.068300374
v 0.021159971 0.15857393 0.021051915
v -0.004558724 0.15857394 0.068300374
v -0.021159481 0.15857393 0.021051915
v -0.014073939 0.28074673 0.01396632
v -0.007361169 0.2797676 0.01941656
v -0.0684079 0.15857393 -0.0046667117
v -0.021159487 0.15857393 -0.021267528
v -0.014073945 0.28074673 -0.014181992
v -0.01952413 0.2797676 -0.0074692727
v 0.004559173 0.15857391 -0.068515904
v 0.021159971 0.15857393 -0.021267528
v 0.01407438 0.28074673 -0.014181992
v 0.0073616826 0.2797676 -0.019632204
v 0.021159971 0.15857393 0.021051915
v 0.004559165 0.15857394 0.068300374
v 0.007361686 0.2797676 0.01941653
v 0.01407438 0.28074673 0.01396632
v 0.0048622293 0.004164336 -0.015651258
v 0.0076394337 0.003015517 -0.007746919
v 0.021159971 0.15857393 -0.021267528
v 0.004559173 0.15857391 -0.068515904
v -0.015543151 0.004164337 -0.0049697123
v -0.007638809 0.003015517 -0.007746919
v -0.021159487 0.15857393 -0.021267528
v -0.0684079 0.15857393 -0.0046667117
v -0.0048616077 0.0041643404 0.015435674
v -0.007638806 0.0030155194 0.0075313183
v -0.021159481 0.15857393 0.021051915
v -0.004558724 0.15857394 0.068300374
v 0.015543784 0.004164339 0.0047541247
v 0.0076394337 0.0030155194 0.0075313183
v 0.021159971 0.15857393 0.021051915
v 0.06840838 0.15857393 0.0044511827
v -0.021159481 0.15857393 0.021051915
v -0.0684079 0.15857393 0.0044511794
v -0.01952413 0.2797676 0.0072536035
v -0.014073939 0.28074673 0.01396632
v 0.0076394337 0.003015517 -0.007746919
v 0.015543784 0.004164337 -0.0049697105
v 0.06840838 0.15857393 -0.004666707
v 0.021159971 0.15857393 -0.021267528
v -0.014073939 0.28074673 0.01396632
v -0.014073624 1.3200171 0.0139661515
v -0.007360854 1.3190377 0.019416392
v -0.007361169 0.2797676 0.01941656
v -0.007638809 0.003015517 -0.007746919
v -0.0048616105 0.004164336 -0.015651256
v -0.0045587216 0.15857391 -0.068515904
v -0.021159487 0.15857393 -0.021267528
v 0.021159971 0.15857393 -0.021267528
v 0.06840838 0.15857393 -0.004666707
v 0.019524636 0.2797676 -0.007469249
v 0.01407438 0.28074673 -0.014181992
v -0.007638806 0.0030155194 0.0075313183
v -0.015543155 0.004164339 0.0047541247
v -0.0684079 0.15857393 0.0044511794
v -0.021159481 0.15857393 0.021051915
v -0.0045587216 0.15857391 -0.068515904
v 0.004559173 0.15857391 -0.068515904
v 0.0073616826 0.2797676 -0.019632204
v -0.007361164 0.2797676 -0.019632235
v -0.0048616105 0.004164336 -0.015651256
v 0.0048622293 0.004164336 -0.015651258
v 0.004559173 0.15857391 -0.068515904
v -0.0045587216 0.15857391 -0.068515904
v 0.019524634 0.2797676 0.0072535835
v 0.019524636 0.2797676 -0.007469249
v 0.06840838 0.15857393 -0.004666707
v 0.06840838 0.15857393 0.0044511827
v -0.007361169 0.2797676 0.01941656
v 0.007361686 0.2797676 0.01941653
v 0.004559165 0.15857394 0.068300374
v -0.004558724 0.15857394 0.068300374
v -0.01952413 0.2797676 -0.0074692727
v -0.01952413 0.2797676 0.0072536035
v -0.0684079 0.15857393 0.0044511794
v -0.0684079 0.15857393 -0.0046667117
v -0.0684079 0.15857393 -0.0046667117
v -0.0684079 0.15857393 0.0044511794
v -0.015543155 0.004164339 0.0047541247
v -0.015543151 0.004164337 -0.0049697123
v -0.004558724 0.15857394 0.068300374
v 0.004559165 0.15857394 0.068300374
v 0.004862227 0.0041643404 0.015435674
v -0.0048616077 0.0041643404 0.015435674
v 0.06840838 0.15857393 0.0044511827
v 0.06840838 0.15857393 -0.004666707
v 0.015543784 0.004164337 -0.0049697105
v 0.015543784 0.004164339 0.0047541247
v -0.014073631 1.3200171 -0.014182161
v -0.0073608486 1.3190377 -0.019632403
v 0.007361999 1.3190377 -0.019632373
v 0.014074695 1.3200171 -0.014182161
v -0.019523814 1.3190377 -0.0074694403
v 0.01952495 1.3190377 -0.0074694166
v -0.019523814 1.3190377 0.0072534364
v 0.019524949 1.3190377 0.007253416
v 0.014074695 1.3200171 0.0139661515
v -0.014073624 1.3200171 0.0139661515
v -0.007360854 1.3190377 0.019416392
v 0.0073620016 1.3190377 0.019416362
v -0.01952413 0.2797676 -0.0074692727
v -0.019523814 1.3190377 -0.0074694403
v -0.019523814 1.3190377 0.0072534364
v -0.01952413 0.2797676 0.0072536035
v -0.007361164 0.2797676 -0.019632235
v -0.0073608486 1.3190377 -0.019632403
v -0.014073631 1.3200171 -0.014182161
v -0.014073945 0.28074673 -0.014181992
v -0.007361169 0.2797676 0.01941656
v -0.007360854 1.3190377 0.019416392
v 0.0073620016 1.3190377 0.019416362
v 0.007361686 0.2797676 0.01941653
v 0.007361686 0.2797676 0.01941653
v 0.0073620016 1.3190377 0.019416362
v 0.014074695 1.3200171 0.0139661515
v 0.01407438 0.28074673 0.01396632
v 0.019524634 0.2797676 0.0072535835
v 0.019524949 1.3190377 0.007253416
v 0.01952495 1.3190377 -0.0074694166
v 0.019524636 0.2797676 -0.007469249
v -0.014073945 0.28074673 -0.014181992
v -0.014073631 1.3200171 -0.014182161
v -0.019523814 1.3190377 -0.0074694403
v -0.01952413 0.2797676 -0.0074692727
v 0.019524636 0.2797676 -0.007469249
v 0.01952495 1.3190377 -0.0074694166
v 0.014074695 1.3200171 -0.014182161
v 0.01407438 0.28074673 -0.014181992
v 0.01407438 0.28074673 0.01396632
v 0.014074695 1.3200171 0.0139661515
v 0.019524949 1.3190377 0.007253416
v 0.019524634 0.2797676 0.0072535835
v 0.0073616826 0.2797676 -0.019632204
v 0.007361999 1.3190377 -0.019632373
v -0.0073608486 1.3190377 -0.019632403
v -0.007361164 0.2797676 -0.019632235
v -0.01952413 0.2797676 0.0072536035
v -0.019523814 1.3190377 0.0072534364
v -0.014073624 1.3200171 0.0139661515
v -0.014073939 0.28074673 0.01396632
v 0.01407438 0.28074673 -0.014181992
v 0.014074695 1.3200171 -0.014182161
v 0.007361999 1.3190377 -0.019632373
v 0.0073616826 0.2797676 -0.019632204
v -0.0076129427 0.9977782 -0.0014461204
v -0.0076129427 1.0505278 -0.08093808
v -0.0076129427 1.2941613 -0.080938116
v -0.0076129427 1.2414117 -0.0014461601
v -0.0076129427 1.0505278 0.07804582
v -0.0076129427 1.2941613 0.078045785
v -0.0076129427 1.0505278 -0.08093808
v 0.0076129767 1.0505278 -0.08093808
v 0.0076129767 1.2941613 -0.080938116
v -0.0076129427 1.2941613 -0.080938116
v 0.0076129767 0.9977782 -0.0014461204
v 0.0076129767 1.0505278 0.07804582
v 0.0076129767 1.2941613 0.078045785
v 0.0076129767 1.2414117 -0.0014461601
v 0.0076129767 1.0505278 -0.08093808
v 0.0076129767 1.2941613 -0.080938116
v 0.0076129767 1.0505278 0.07804582
v -0.0076129427 1.0505278 0.07804582
v -0.0076129427 1.2941613 0.078045785
v 0.0076129767 1.2941613 0.078045785
v -0.0076129427 0.9977782 -0.0014461204
v -0.0076129427 1.0505278 0.07804582
v 0.0076129767 1.0505278 0.07804582
v 0.0076129767 0.9977782 -0.0014461204
v 0.0076129767 1.2414117 -0.0014461601
v 0.0076129767 1.2941613 0.078045785
v -0.0076129427 1.2941613 0.078045785
v -0.0076129427 1.2414117 -0.0014461601
v 0.0076129767 1.2941613 -0.080938116
v 0.0076129767 1.2414117 -0.0014461601
v -0.0076129427 1.2414117 -0.0014461601
v -0.0076129427 1.2941613 -0.080938116
v -0.0076129427 1.0505278 -0.08093808
v -0.0076129427 0.9977782 -0.0014461204
v 0.0076129767 0.9977782 -0.0014461204
v 0.0076129767 1.0505278 -0.08093808
v -1.3221998E-07 0.9977782 -0.009059242
v 0.07949182 1.0505278 -0.009059246
v 0.07949182 1.2941613 -0.009059285
v -1.3221998E-07 1.2414117 -0.009059281
v -0.079492085 1.0505278 -0.009059258
v -0.079492085 1.2941613 -0.009059297
v 0.07949182 1.0505278 -0.009059246
v 0.07949182 1.0505278 0.00616667
v 0.07949182 1.2941613 0.0061666304
v 0.07949182 1.2941613 -0.009059285
v -1.3221998E-07 0.9977782 0.006166677
v -0.079492085 1.0505278 0.006166664
v -0.079492085 1.2941613 0.0061666244
v -1.3221998E-07 1.2414117 0.0061666374
v 0.07949182 1.0505278 0.00616667
v 0.07949182 1.2941613 0.0061666304
v -0.079492085 1.0505278 0.006166664
v -0.079492085 1.0505278 -0.009059258
v -0.079492085 1.2941613 -0.009059297
v -0.079492085 1.2941613 0.0061666244
v -1.3221998E-07 0.9977782 -0.009059242
v -0.079492085 1.0505278 -0.009059258
v -0.079492085 1.0505278 0.006166664
v -1.3221998E-07 0.9977782 0.006166677
v -1.3221998E-07 1.2414117 0.0061666374
v -0.079492085 1.2941613 0.0061666244
v -0.079492085 1.2941613 -0.009059297
v -1.3221998E-07 1.2414117 -0.009059281
v 0.07949182 1.2941613 0.0061666304
v -1.3221998E-07 1.2414117 0.0061666374
v -1.3221998E-07 1.2414117 -0.009059281
v 0.07949182 1.2941613 -0.009059285
v 0.07949182 1.0505278 -0.009059246
v -1.3221998E-07 0.9977782 -0.009059242
v -1.3221998E-07 0.9977782 0.006166677
v 0.07949182 1.0505278 0.00616667
vt 0.04006958 0.84716797
vt 0.04006958 0.84716797
vt 0.04006958 0.84716797
vt 0.04006958 0.84716797
vt 0.04006958 0.84716797
vt 0.04006958 0.84716797
vt 0.04006958 0.84716797
vt 0.04006958 0.84716797
vt 0.04006958 0.84716797
vt 0.04006958 0.84716797
vt 0.04006958 0.84716797
vt 0.04006958 0.84716797
vt 0.04006958 0.84716797
vt 0.04006958 0.84716797
vt 0.04006958 0.84716797
vt 0.04006958 0.84716797
vt 0.04006958 0.84716797
vt 0.04006958 0.84716797
vt 0.04006958 0.84716797
vt 0.04006958 0.84716797
vt 0.04006958 0.84716797
vt 0.04006958 0.84716797
vt 0.04006958 0.84716797
vt 0.04006958 0.84716797
vt 0.04006958 0.84716797
vt 0.04006958 0.84716797
vt 0.04006958 0.84716797
vt 0.04006958 0.84716797
vt 0.04006958 0.84716797
vt 0.04006958 0.84716797
vt 0.04006958 0.84716797
vt 0.04006958 0.84716797
vt 0.04006958 0.84716797
vt 0.04006958 0.84716797
vt 0.04006958 0.84716797
vt 0.04006958 0.84716797
vt 0.04006958 0.84716797
vt 0.04006958 0.84716797
vt 0.04006958 0.84716797
vt 0.04006958 0.84716797
vt 0.04006958 0.84716797
vt 0.04006958 0.84716797
vt 0.04006958 0.84716797
vt 0.04006958 0.84716797
vt 0.04006958 0.84716797
vt 0.04006958 0.84716797
vt 0.04006958 0.84716797
vt 0.04006958 0.84716797
vt 0.04006958 0.84716797
vt 0.04006958 0.84716797
vt 0.04006958 0.84716797
vt 0.04006958 0.84716797
vt 0.04006958 0.84716797
vt 0.04006958 0.84716797
vt 0.04006958 0.84716797
vt 0.04006958 0.84716797
vt 0.04006958 0.84716797
vt 0.04006958 0.84716797
vt 0.04006958 0.84716797
vt 0.04006958 0.84716797
vt 0.04006958 0.84716797
vt 0.04006958 0.84716797
vt 0.04006958 0.84716797
vt 0.04006958 0.84716797
vt 0.04006958 0.84716797
vt 0.04006958 0.84716797
vt 0.04006958 0.84716797
vt 0.04006958 0.84716797
vt 0.04006958 0.84716797
vt 0.04006958 0.84716797
vt 0.04006958 0.84716797
vt 0.04006958 0.84716797
vt 0.04006958 0.84716797
vt 0.04006958 0.84716797
vt 0.04006958 0.84716797
vt 0.04006958 0.84716797
vt 0.04006958 0.84716797
vt 0.04006958 0.84716797
vt 0.04006958 0.84716797
vt 0.04006958 0.84716797
vt 0.04006958 0.84716797
vt 0.04006958 0.84716797
vt 0.04006958 0.84716797
vt 0.04006958 0.84716797
vt 0.04006958 0.84716797
vt 0.04006958 0.84716797
vt 0.04006958 0.84716797
vt 0.04006958 0.84716797
vt 0.3408203 0.78222656
vt 0.3408203 0.78222656
vt 0.3408203 0.78222656
vt 0.3408203 0.78222656
vt 0.04006958 0.84716797
vt 0.04006958 0.84716797
vt 0.04006958 0.84716797
vt 0.04006958 0.84716797
vt 0.04006958 0.84716797
vt 0.04006958 0.84716797
vt 0.04006958 0.84716797
vt 0.04006958 0.84716797
vt 0.04006958 0.84716797
vt 0.04006958 0.84716797
vt 0.04006958 0.84716797
vt 0.04006958 0.84716797
vt 0.04006958 0.84716797
vt 0.04006958 0.84716797
vt 0.04006958 0.84716797
vt 0.04006958 0.84716797
vt 0.04006958 0.84716797
vt 0.04006958 0.84716797
vt 0.04006958 0.84716797
vt 0.04006958 0.84716797
vt 0.04006958 0.84716797
vt 0.04006958 0.84716797
vt 0.04006958 0.84716797
vt 0.04006958 0.84716797
vt 0.04006958 0.84716797
vt 0.04006958 0.84716797
vt 0.04006958 0.84716797
vt 0.04006958 0.84716797
vt 0.04006958 0.84716797
vt 0.04006958 0.84716797
vt 0.04006958 0.84716797
vt 0.04006958 0.84716797
vt 0.04006958 0.84716797
vt 0.04006958 0.84716797
vt 0.04006958 0.84716797
vt 0.04006958 0.84716797
vt 0.04006958 0.84716797
vt 0.04006958 0.84716797
vt 0.04006958 0.84716797
vt 0.04006958 0.84716797
vt 0.04006958 0.84716797
vt 0.04006958 0.84716797
vt 0.04006958 0.84716797
vt 0.04006958 0.84716797
vt 0.3408203 0.78222656
vt 0.3408203 0.78222656
vt 0.3408203 0.78222656
vt 0.3408203 0.78222656
vt 0.3408203 0.78222656
vt 0.3408203 0.78222656
vt 0.3408203 0.78222656
vt 0.3408203 0.78222656
vt 0.3408203 0.78222656
vt 0.3408203 0.78222656
vt 0.3408203 0.78222656
vt 0.3408203 0.78222656
vt 0.3408203 0.78222656
vt 0.3408203 0.78222656
vt 0.3408203 0.78222656
vt 0.3408203 0.78222656
vt 0.3408203 0.78222656
vt 0.3408203 0.78222656
vt 0.3408203 0.78222656
vt 0.3408203 0.78222656
vt 0.3408203 0.78222656
vt 0.3408203 0.78222656
vt 0.3408203 0.78222656
vt 0.3408203 0.78222656
vt 0.3408203 0.78222656
vt 0.3408203 0.78222656
vt 0.3408203 0.78222656
vt 0.3408203 0.78222656
vt 0.3408203 0.78222656
vt 0.3408203 0.78222656
vt 0.3408203 0.78222656
vt 0.3408203 0.78222656
vt 0.3408203 0.78222656
vt 0.3408203 0.78222656
vt 0.3408203 0.78222656
vt 0.3408203 0.78222656
vt 0.3408203 0.78222656
vt 0.3408203 0.78222656
vt 0.3408203 0.78222656
vt 0.3408203 0.78222656
vt 0.3408203 0.78222656
vt 0.3408203 0.78222656
vt 0.3408203 0.78222656
vt 0.3408203 0.78222656
vt 0.3408203 0.78222656
vt 0.3408203 0.78222656
vt 0.3408203 0.78222656
vt 0.3408203 0.78222656
vt 0.3408203 0.78222656
vt 0.3408203 0.78222656
vt 0.3408203 0.78222656
vt 0.3408203 0.78222656
vt 0.3408203 0.78222656
vt 0.3408203 0.78222656
vt 0.3408203 0.78222656
vt 0.3408203 0.78222656
vt 0.29125977 0.7294922
vt 0.29125977 0.7294922
vt 0.29125977 0.7294922
vt 0.29125977 0.7294922
vt 0.29125977 0.7294922
vt 0.29125977 0.7294922
vt 0.29125977 0.7294922
vt 0.29125977 0.7294922
vt 0.29125977 0.7294922
vt 0.29125977 0.7294922
vt 0.29125977 0.7294922
vt 0.29125977 0.7294922
vt 0.29125977 0.7294922
vt 0.29125977 0.7294922
vt 0.29125977 0.7294922
vt 0.29125977 0.7294922
vt 0.29125977 0.7294922
vt 0.29125977 0.7294922
vt 0.29125977 0.7294922
vt 0.29125977 0.7294922
vt 0.29125977 0.7294922
vt 0.29125977 0.7294922
vt 0.29125977 0.7294922
vt 0.29125977 0.7294922
vt 0.29125977 0.7294922
vt 0.29125977 0.7294922
vt 0.29125977 0.7294922
vt 0.29125977 0.7294922
vt 0.29125977 0.7294922
vt 0.29125977 0.7294922
vt 0.29125977 0.7294922
vt 0.29125977 0.7294922
vt 0.29125977 0.7294922
vt 0.29125977 0.7294922
vt 0.29125977 0.7294922
vt 0.29125977 0.7294922
vt 0.29125977 0.7294922
vt 0.29125977 0.7294922
vt 0.29125977 0.7294922
vt 0.29125977 0.7294922
vt 0.29125977 0.7294922
vt 0.29125977 0.7294922
vt 0.29125977 0.7294922
vt 0.29125977 0.7294922
vt 0.29125977 0.7294922
vt 0.29125977 0.7294922
vt 0.29125977 0.7294922
vt 0.29125977 0.7294922
vt 0.29125977 0.7294922
vt 0.29125977 0.7294922
vt 0.29125977 0.7294922
vt 0.29125977 0.7294922
vt 0.29125977 0.7294922
vt 0.29125977 0.7294922
vt 0.29125977 0.7294922
vt 0.29125977 0.7294922
vt 0.29125977 0.7294922
vt 0.29125977 0.7294922
vt 0.29125977 0.7294922
vt 0.29125977 0.7294922
vt 0.29125977 0.7294922
vt 0.29125977 0.7294922
vt 0.29125977 0.7294922
vt 0.29125977 0.7294922
vt 0.29125977 0.7294922
vt 0.29125977 0.7294922
vt 0.29125977 0.7294922
vt 0.29125977 0.7294922
vt 0.29125977 0.7294922
vt 0.29125977 0.7294922
vt 0.29125977 0.7294922
vt 0.29125977 0.7294922
vn 0.8652344 -0.50097656 0
vn 0.8652344 -0.50097656 0
vn 0.8652344 -0.50097656 0
vn -0 -0.50097656 0.8652344
vn -0 -0.50097656 0.8652344
vn -0 -0.50097656 0.8652344
vn -0.8652344 -0.50097656 0
vn -0.8652344 -0.50097656 0
vn -0.8652344 -0.50097656 0
vn -0 -0.50097656 -0.8652344
vn -0 -0.50097656 -0.8652344
vn -0 -0.50097656 -0.8652344
vn -0.35546875 -0.3618164 0.8618164
vn -0.35546875 -0.3618164 0.8618164
vn -0.35546875 -0.3618164 0.8618164
vn -0.8618164 -0.3618164 -0.35546875
vn -0.8618164 -0.3618164 -0.35546875
vn -0.8618164 -0.3618164 -0.35546875
vn 0.35546875 -0.3618164 -0.8618164
vn 0.35546875 -0.3618164 -0.8618164
vn 0.35546875 -0.3618164 -0.8618164
vn 0.35546875 -0.3618164 0.8618164
vn 0.35546875 -0.3618164 0.8618164
vn 0.35546875 -0.3618164 0.8618164
vn -0.8618164 -0.3618164 0.35546875
vn -0.8618164 -0.3618164 0.35546875
vn -0.8618164 -0.3618164 0.35546875
vn -0.35546875 -0.3618164 -0.8618164
vn -0.35546875 -0.3618164 -0.8618164
vn -0.35546875 -0.3618164 -0.8618164
vn 0.8618164 -0.3618164 -0.35546875
vn 0.8618164 -0.3618164 -0.35546875
vn 0.8618164 -0.3618164 -0.35546875
vn 0.8618164 -0.3618164 0.35546875
vn 0.8618164 -0.3618164 0.35546875
vn 0.8618164 -0.3618164 0.35546875
vn -0.9082031 0.10888672 -0.4038086
vn -0.9082031 0.10888672 -0.4038086
vn -0.9082031 0.10888672 -0.4038086
vn -0.9082031 0.10888672 -0.4038086
vn 0.4038086 0.10888672 0.9082031
vn 0.4038086 0.10888672 0.9082031
vn 0.4038086 0.10888672 0.9082031
vn 0.4038086 0.10888672 0.9082031
vn 0.9370117 -0.110961914 0.33154297
vn 0.9370117 -0.110961914 0.33154297
vn 0.9370117 -0.110961914 0.33154297
vn 0.9370117 -0.110961914 0.33154297
vn -0.9082031 0.10888672 0.4038086
vn -0.9082031 0.10888672 0.4038086
vn -0.9082031 0.10888672 0.4038086
vn -0.9082031 0.10888672 0.4038086
vn -0.4038086 0.10888672 -0.9082031
vn -0.4038086 0.10888672 -0.9082031
vn -0.4038086 0.10888672 -0.9082031
vn -0.4038086 0.10888672 -0.9082031
vn 0.9082031 0.10888672 -0.4038086
vn 0.9082031 0.10888672 -0.4038086
vn 0.9082031 0.10888672 -0.4038086
vn 0.9082031 0.10888672 -0.4038086
vn 0.9082031 0.10888672 0.4038086
vn 0.9082031 0.10888672 0.4038086
vn 0.9082031 0.10888672 0.4038086
vn 0.9082031 0.10888672 0.4038086
vn 0.9370117 -0.110961914 -0.33154297
vn 0.9370117 -0.110961914 -0.33154297
vn 0.9370117 -0.110961914 -0.33154297
vn 0.9370117 -0.110961914 -0.33154297
vn -0.33154297 -0.110961914 -0.9370117
vn -0.33154297 -0.110961914 -0.9370117
vn -0.33154297 -0.110961914 -0.9370117
vn -0.33154297 -0.110961914 -0.9370117
vn -0.9370117 -0.110961914 0.33154297
vn -0.9370117 -0.110961914 0.33154297
vn -0.9370117 -0.110961914 0.33154297
vn -0.9370117 -0.110961914 0.33154297
vn 0.33154297 -0.110961914 0.9370117
vn 0.33154297 -0.110961914 0.9370117
vn 0.33154297 -0.110961914 0.9370117
vn 0.33154297 -0.110961914 0.9370117
vn -0.4038086 0.10888672 0.9082031
vn -0.4038086 0.10888672 0.9082031
vn -0.4038086 0.10888672 0.9082031
vn -0.4038086 0.10888672 0.9082031
vn 0.33154297 -0.110961914 -0.9370117
vn 0.33154297 -0.110961914 -0.9370117
vn 0.33154297 -0.110961914 -0.9370117
vn 0.33154297 -0.110961914 -0.9370117
vn -0.6303711 0 0.7763672
vn -0.6303711 0 0.7763672
vn -0.6303711 0 0.7763672
vn -0.6303711 0 0.7763672
vn -0.9370117 -0.110961914 -0.33154297
vn -0.9370117 -0.110961914 -0.33154297
vn -0.9370117 -0.110961914 -0.33154297
vn -0.9370117 -0.110961914 -0.33154297
vn 0.4038086 0.10888672 -0.9082031
vn 0.4038086 0.10888672 -0.9082031
vn 0.4038086 0.10888672 -0.9082031
vn 0.4038086 0.10888672 -0.9082031
vn -0.33154297 -0.110961914 0.9370117
vn -0.33154297 -0.110961914 0.9370117
vn -0.33154297 -0.110961914 0.9370117
vn -0.33154297 -0.110961914 0.9370117
vn -0 0.37402344 -0.9272461
vn -0 0.37402344 -0.9272461
vn -0 0.37402344 -0.9272461
vn -0 0.37402344 -0.9272461
vn -0 -0.3239746 -0.94628906
vn -0 -0.3239746 -0.94628906
vn -0 -0.3239746 -0.94628906
vn -0 -0.3239746 -0.94628906
vn 0.9272461 0.37402344 0
vn 0.9272461 0.37402344 0
vn 0.9272461 0.37402344 0
vn 0.9272461 0.37402344 0
vn -0 0.37402344 0.9272461
vn -0 0.37402344 0.9272461
vn -0 0.37402344 0.9272461
vn -0 0.37402344 0.9272461
vn -0.9272461 0.37402344 0
vn -0.9272461 0.37402344 0
vn -0.9272461 0.37402344 0
vn -0.9272461 0.37402344 0
vn -0.94628906 -0.3239746 0
vn -0.94628906 -0.3239746 0
vn -0.94628906 -0.3239746 0
vn -0.94628906 -0.3239746 0
vn -0 -0.3239746 0.94628906
vn -0 -0.3239746 0.94628906
vn -0 -0.3239746 0.94628906
vn -0 -0.3239746 0.94628906
vn 0.94628906 -0.3239746 0
vn 0.94628906 -0.3239746 0
vn 0.94628906 -0.3239746 0
vn 0.94628906 -0.3239746 0
vn -0 1 0
vn -0 1 0
vn -0 1 0
vn -0 1 0
vn -0 1 0
vn -0 1 0
vn -0 1 0
vn -0 1 0
vn -0 1 0
vn -0 1 0
vn -0 1 0
vn -0 1 0
vn -1 0 0
vn -1 0 0
vn -1 0 0
vn -1 0 0
vn -0.6303711 0 -0.7763672
vn -0.6303711 0 -0.7763672
vn -0.6303711 0 -0.7763672
vn -0.6303711 0 -0.7763672
vn -0 0 1
vn -0 0 1
vn -0 0 1
vn -0 0 1
vn 0.6303711 0 0.7763672
vn 0.6303711 0 0.7763672
vn 0.6303711 0 0.7763672
vn 0.6303711 0 0.7763672
vn 1 0 0
vn 1 0 0
vn 1 0 0
vn 1 0 0
vn -0.7763672 0 -0.6303711
vn -0.7763672 0 -0.6303711
vn -0.7763672 0 -0.6303711
vn -0.7763672 0 -0.6303711
vn 0.7763672 0 -0.6303711
vn 0.7763672 0 -0.6303711
vn 0.7763672 0 -0.6303711
vn 0.7763672 0 -0.6303711
vn 0.7763672 0 0.6303711
vn 0.7763672 0 0.6303711
vn 0.7763672 0 0.6303711
vn 0.7763672 0 0.6303711
vn -0 0 -1
vn -0 0 -1
vn -0 0 -1
vn -0 0 -1
vn -0.7763672 0 0.6303711
vn -0.7763672 0 0.6303711
vn -0.7763672 0 0.6303711
vn -0.7763672 0 0.6303711
vn 0.6303711 0 -0.7763672
vn 0.6303711 0 -0.7763672
vn 0.6303711 0 -0.7763672
vn 0.6303711 0 -0.7763672
vn -1 0 0
vn -1 0 0
vn -1 0 0
vn -1 0 0
vn -1 0 0
vn -1 0 0
vn -0 0 -1
vn -0 0 -1
vn -0 0 -1
vn -0 0 -1
vn 1 0 0
vn 1 0 0
vn 1 0 0
vn 1 0 0
vn 1 0 0
vn 1 0 0
vn -0 0 1
vn -0 0 1
vn -0 0 1
vn -0 0 1
vn -0 -0.8330078 0.5527344
vn -0 -0.8330078 0.5527344
vn -0 -0.8330078 0.5527344
vn -0 -0.8330078 0.5527344
vn -0 0.8330078 -0.5527344
vn -0 0.8330078 -0.5527344
vn -0 0.8330078 -0.5527344
vn -0 0.8330078 -0.5527344
vn -0 0.8330078 0.5527344
vn -0 0.8330078 0.5527344
vn -0 0.8330078 0.5527344
vn -0 0.8330078 0.5527344
vn -0 -0.8330078 -0.5527344
vn -0 -0.8330078 -0.5527344
vn -0 -0.8330078 -0.5527344
vn -0 -0.8330078 -0.5527344
vn -0 0 -1
vn -0 0 -1
vn -0 0 -1
vn -0 0 -1
vn -0 0 -1
vn -0 0 -1
vn 1 0 0
vn 1 0 0
vn 1 0 0
vn 1 0 0
vn -0 0 1
vn -0 0 1
vn -0 0 1
vn -0 0 1
vn -0 0 1
vn -0 0 1
vn -1 0 0
vn -1 0 0
vn -1 0 0
vn -1 0 0
vn -0.5527344 -0.8330078 0
vn -0.5527344 -0.8330078 0
vn -0.5527344 -0.8330078 0
vn -0.5527344 -0.8330078 0
vn 0.5527344 0.8330078 0
vn 0.5527344 0.8330078 0
vn 0.5527344 0.8330078 0
vn 0.5527344 0.8330078 0
vn -0.5527344 0.8330078 0
vn -0.5527344 0.8330078 0
vn -0.5527344 0.8330078 0
vn -0.5527344 0.8330078 0
vn 0.5527344 -0.8330078 0
vn 0.5527344 -0.8330078 0
vn 0.5527344 -0.8330078 0
vn 0.5527344 -0.8330078 0
g W_Arrow_0
f 3/3/3 2/2/2 1/1/1
f 6/6/6 5/5/5 4/4/4
f 9/9/9 8/8/8 7/7/7
f 12/12/12 11/11/11 10/10/10
f 15/15/15 14/14/14 13/13/13
f 18/18/18 17/17/17 16/16/16
f 21/21/21 20/20/20 19/19/19
f 24/24/24 23/23/23 22/22/22
f 27/27/27 26/26/26 25/25/25
f 30/30/30 29/29/29 28/28/28
f 33/33/33 32/32/32 31/31/31
f 36/36/36 35/35/35 34/34/34
f 39/39/39 38/38/38 37/37/37
f 40/40/40 39/39/39 37/37/37
f 43/43/43 42/42/42 41/41/41
f 44/44/44 43/43/43 41/41/41
f 47/47/47 46/46/46 45/45/45
f 48/48/48 47/47/47 45/45/45
f 51/51/51 50/50/50 49/49/49
f 52/52/52 51/51/51 49/49/49
f 55/55/55 54/54/54 53/53/53
f 56/56/56 55/55/55 53/53/53
f 59/59/59 58/58/58 57/57/57
f 60/60/60 59/59/59 57/57/57
f 63/63/63 62/62/62 61/61/61
f 64/64/64 63/63/63 61/61/61
f 67/67/67 66/66/66 65/65/65
f 68/68/68 67/67/67 65/65/65
f 71/71/71 70/70/70 69/69/69
f 72/72/72 71/71/71 69/69/69
f 75/75/75 74/74/74 73/73/73
f 76/76/76 75/75/75 73/73/73
f 79/79/79 78/78/78 77/77/77
f 80/80/80 79/79/79 77/77/77
f 83/83/83 82/82/82 81/81/81
f 84/84/84 83/83/83 81/81/81
f 87/87/87 86/86/86 85/85/85
f 88/88/88 87/87/87 85/85/85
f 91/91/91 90/90/90 89/89/89
f 92/92/92 91/91/91 89/89/89
f 95/95/95 94/94/94 93/93/93
f 96/96/96 95/95/95 93/93/93
f 99/99/99 98/98/98 97/97/97
f 100/100/100 99/99/99 97/97/97
f 103/103/103 102/102/102 101/101/101
f 104/104/104 103/103/103 101/101/101
f 107/107/107 106/106/106 105/105/105
f 108/108/108 107/107/107 105/105/105
f 111/111/111 110/110/110 109/109/109
f 112/112/112 111/111/111 109/109/109
f 115/115/115 114/114/114 113/113/113
f 116/116/116 115/115/115 113/113/113
f 119/119/119 118/118/118 117/117/117
f 120/120/120 119/119/119 117/117/117
f 123/123/123 122/122/122 121/121/121
f 124/124/124 123/123/123 121/121/121
f 127/127/127 126/126/126 125/125/125
f 128/128/128 127/127/127 125/125/125
f 131/131/131 130/130/130 129/129/129
f 132/132/132 131/131/131 129/129/129
f 135/135/135 134/134/134 133/133/133
f 136/136/136 135/135/135 133/133/133
f 139/139/139 138/138/138 137/137/137
f 137/137/137 140/140/140 139/139/139
f 137/137/137 141/141/141 140/140/140
f 141/141/141 142/142/142 140/140/140
f 141/141/141 143/143/143 142/142/142
f 143/143/143 144/144/144 142/142/142
f 143/143/143 145/145/145 144/144/144
f 143/143/143 146/146/146 145/145/145
f 146/146/146 147/147/147 145/145/145
f 147/147/147 148/148/148 145/145/145
f 151/151/151 150/150/150 149/149/149
f 152/152/152 151/151/151 149/149/149
f 155/155/155 154/154/154 153/153/153
f 156/156/156 155/155/155 153/153/153
f 159/159/159 158/158/158 157/157/157
f 160/160/160 159/159/159 157/157/157
f 163/163/163 162/162/162 161/161/161
f 164/164/164 163/163/163 161/161/161
f 167/167/167 166/166/166 165/165/165
f 168/168/168 167/167/167 165/165/165
f 171/171/171 170/170/170 169/169/169
f 172/172/172 171/171/171 169/169/169
f 175/175/175 174/174/174 173/173/173
f 176/176/176 175/175/175 173/173/173
f 179/179/179 178/178/178 177/177/177
f 180/180/180 179/179/179 177/177/177
f 183/183/183 182/182/182 181/181/181
f 184/184/184 183/183/183 181/181/181
f 187/187/187 186/186/186 185/185/185
f 188/188/188 187/187/187 185/185/185
f 191/191/191 190/190/190 189/189/189
f 192/192/192 191/191/191 189/189/189
f 195/195/195 194/194/194 193/193/193
f 196/196/196 195/195/195 193/193/193
f 196/196/196 193/193/193 197/197/197
f 198/198/198 196/196/196 197/197/197
f 201/201/201 200/200/200 199/199/199
f 202/202/202 201/201/201 199/199/199
f 205/205/205 204/204/204 203/203/203
f 206/206/206 205/205/205 203/203/203
f 206/206/206 203/203/203 207/207/207
f 208/208/208 206/206/206 207/207/207
f 211/211/211 210/210/210 209/209/209
f 212/212/212 211/211/211 209/209/209
f 215/215/215 214/214/214 213/213/213
f 216/216/216 215/215/215 213/213/213
f 219/219/219 218/218/218 217/217/217
f 220/220/220 219/219/219 217/217/217
f 223/223/223 222/222/222 221/221/221
f 224/224/224 223/223/223 221/221/221
f 227/227/227 226/226/226 225/225/225
f 228/228/228 227/227/227 225/225/225
f 231/231/231 230/230/230 229/229/229
f 232/232/232 231/231/231 229/229/229
f 232/232/232 229/229/229 233/233/233
f 234/234/234 232/232/232 233/233/233
f 237/237/237 236/236/236 235/235/235
f 238/238/238 237/237/237 235/235/235
f 241/241/241 240/240/240 239/239/239
f 242/242/242 241/241/241 239/239/239
f 242/242/242 239/239/239 243/243/243
f 244/244/244 242/242/242 243/243/243
f 247/247/247 246/246/246 245/245/245
f 248/248/248 247/247/247 245/245/245
f 251/251/251 250/250/250 249/249/249
f 252/252/252 251/251/251 249/249/249
f 255/255/255 254/254/254 253/253/253
f 256/256/256 255/255/255 253/253/253
f 259/259/259 258/258/258 257/257/257
f 260/260/260 259/259/259 257/257/257
f 263/263/263 262/262/262 261/261/261
f 264/264/264 263/263/263 261/261/261
