g Curve_2
v -2.4500031 0.5326867 1.1175871E-08
v -2.7494507 0.35149282 -1.1175871E-08
v -2.586918 0.17160484 -7.450581E-09
v -2.3776236 0.45213255 7.450581E-09
v -2.3816895 0.07216303 5.5879354E-09
v -2.2797117 0.40697724 -5.5879354E-09
v -2.1597426 0.03821239 6.519258E-09
v -2.1399207 0.38765064 -6.519258E-09
v -1.930823 0.045223936 -1.1874363E-08
v -1.9581358 0.39415663 1.1874363E-08
v -1.6954362 0.074240595 3.7252903E-09
v -1.7434826 0.42092714 -3.7252903E-09
v -1.4547465 0.1111217 4.656613E-10
v -1.5044274 0.4575777 -4.656613E-10
v -1.2120224 0.14361805 1.1641532E-08
v -1.2473329 0.49183235 -1.1641532E-08
v -0.97196704 0.16046683 3.8999133E-09
v -0.977127 0.5104288 -3.8999133E-09
v -0.73977065 0.15149067 -2.4214387E-08
v -0.6982503 0.4990192 2.4214387E-08
v -0.51958567 0.10769585 9.313226E-09
v -0.41618127 0.44207224 -9.313226E-09
v -0.31261778 0.020022692 -2.0489097E-08
v -0.13934517 0.3241224 2.0489097E-08
v -0.11731756 -0.1235712 5.5879354E-09
v 0.12107718 0.13268645 -5.5879354E-09
vt 1 0
vt 1 1
vt 0.9166667 1
vt 0.9166666 0
vt 0.8333334 1
vt 0.83333325 0
vt 0.75 1
vt 0.74999994 0
vt 0.6666667 1
vt 0.6666666 0
vt 0.5833334 1
vt 0.5833333 0
vt 0.50000006 1
vt 0.49999997 0
vt 0.41666675 1
vt 0.41666663 0
vt 0.33333337 1
vt 0.33333325 0
vt 0.25000006 1
vt 0.25 0
vt 0.16666669 1
vt 0.16666669 0
vt 0.08333331 1
vt 0.08333331 0
vt 0 1
vt 0 0
vn -0 0 -1
vn -0 0 -1
vn -0 0 -1
vn -0 0 -1
vn -0 0 -1
vn -0 0 -1
vn -0 0 -1
vn -0 0 -1
vn -0 0 -1
vn -0 0 -1
vn -0 0 -1
vn -0 0 -1
vn -0 0 -1
vn -0 0 -1
vn -0 0 -1
vn -0 0 -1
vn -0 0 -1
vn -0 0 -1
vn -0 0 -1
vn -0 0 -1
vn -0 0 -1
vn -0 0 -1
vn -0 0 -1
vn -0 0 -1
vn -0 0 -1
vn -0 0 -1
g Curve_2_0
f 3/3/3 2/2/2 1/1/1
f 4/4/4 3/3/3 1/1/1
f 5/5/5 3/3/3 4/4/4
f 6/6/6 5/5/5 4/4/4
f 7/7/7 5/5/5 6/6/6
f 8/8/8 7/7/7 6/6/6
f 9/9/9 7/7/7 8/8/8
f 10/10/10 9/9/9 8/8/8
f 11/11/11 9/9/9 10/10/10
f 12/12/12 11/11/11 10/10/10
f 13/13/13 11/11/11 12/12/12
f 14/14/14 13/13/13 12/12/12
f 15/15/15 13/13/13 14/14/14
f 16/16/16 15/15/15 14/14/14
f 17/17/17 15/15/15 16/16/16
f 18/18/18 17/17/17 16/16/16
f 19/19/19 17/17/17 18/18/18
f 20/20/20 19/19/19 18/18/18
f 21/21/21 19/19/19 20/20/20
f 22/22/22 21/21/21 20/20/20
f 23/23/23 21/21/21 22/22/22
f 24/24/24 23/23/23 22/22/22
f 25/25/25 23/23/23 24/24/24
f 26/26/26 25/25/25 24/24/24
