g Prison_Piece01
v -0.5 -0.10000004 -0.069999985
v -0.6 -0.10000006 -0.21
v -0.6 0.09999999 -0.21000002
v -0.5 0.10000001 -0.070000015
v -0.6 -0.10000006 -0.21
v 0.5 -0.10000006 -0.21
v 0.5 0.09999999 -0.21000002
v -0.6 0.09999999 -0.21000002
v 0.5 -0.10000001 0.070000015
v 0.6 -0.09999999 0.21000002
v 0.6 0.10000006 0.21
v 0.5 0.10000004 0.069999985
v 0.6 -0.09999999 0.21000002
v -0.5 -0.09999999 0.21000002
v -0.5 0.10000006 0.21
v 0.6 0.10000006 0.21
v -0.6 -0.10000001 0.070000015
v -0.5 -0.09999999 0.21000002
v 0.6 -0.09999999 0.21000002
v 0.5 -0.10000001 0.070000015
v -0.5 -0.10000004 -0.069999985
v 0.6 -0.10000004 -0.069999985
v -0.6 -0.10000006 -0.21
v 0.5 -0.10000006 -0.21
v 0.5 0.10000004 0.069999985
v 0.6 0.10000006 0.21
v -0.5 0.10000006 0.21
v -0.6 0.10000004 0.069999985
v 0.6 0.10000001 -0.070000015
v -0.5 0.10000001 -0.070000015
v 0.5 0.09999999 -0.21000002
v -0.6 0.09999999 -0.21000002
v 0.5 -0.10000006 -0.21
v 0.6 -0.10000004 -0.069999985
v 0.6 0.10000001 -0.070000015
v 0.5 0.09999999 -0.21000002
v 0.6 -0.10000004 -0.069999985
v 0.5 -0.10000001 0.070000015
v 0.5 0.10000004 0.069999985
v 0.6 0.10000001 -0.070000015
v -0.5 -0.09999999 0.21000002
v -0.6 -0.10000001 0.070000015
v -0.6 0.10000004 0.069999985
v -0.5 0.10000006 0.21
v -0.6 -0.10000001 0.070000015
v -0.5 -0.10000004 -0.069999985
v -0.5 0.10000001 -0.070000015
v -0.6 0.10000004 0.069999985
vt 0.15549037 0.03614241
vt 0.15549037 0.03614241
vt 0.15549037 0.03614241
vt 0.15549037 0.03614241
vt 0.15549037 0.03614241
vt 0.15549037 0.03614241
vt 0.15549037 0.03614241
vt 0.15549037 0.03614241
vt 0.15549037 0.03614241
vt 0.15549037 0.03614241
vt 0.15549037 0.03614241
vt 0.15549037 0.03614241
vt 0.15549037 0.03614241
vt 0.15549037 0.03614241
vt 0.15549037 0.03614241
vt 0.15549037 0.03614241
vt 0.15549037 0.03614241
vt 0.15549037 0.03614241
vt 0.15549037 0.03614241
vt 0.15549037 0.03614241
vt 0.15549037 0.03614241
vt 0.15549037 0.03614241
vt 0.15549037 0.03614241
vt 0.15549037 0.03614241
vt 0.15549037 0.03614241
vt 0.15549037 0.03614241
vt 0.15549037 0.03614241
vt 0.15549037 0.03614241
vt 0.15549037 0.03614241
vt 0.15549037 0.03614241
vt 0.15549037 0.03614241
vt 0.15549037 0.03614241
vt 0.15549037 0.03614241
vt 0.15549037 0.03614241
vt 0.15549037 0.03614241
vt 0.15549037 0.03614241
vt 0.15549037 0.03614241
vt 0.15549037 0.03614241
vt 0.15549037 0.03614241
vt 0.15549037 0.03614241
vt 0.15549037 0.03614241
vt 0.15549037 0.03614241
vt 0.15549037 0.03614241
vt 0.15549037 0.03614241
vt 0.15549037 0.03614241
vt 0.15549037 0.03614241
vt 0.15549037 0.03614241
vt 0.15549037 0.03614241
vn -0.81373346 0 0.58123827
vn -0.81373346 0 0.58123827
vn -0.81373346 0 0.58123827
vn -0.81373346 0 0.58123827
vn -0 0 -1
vn -0 0 -1
vn -0 0 -1
vn -0 0 -1
vn 0.81373346 0 -0.58123827
vn 0.81373346 0 -0.58123827
vn 0.81373346 0 -0.58123827
vn 0.81373346 0 -0.58123827
vn -0 0 1
vn -0 0 1
vn -0 0 1
vn -0 0 1
vn -0 -1 0
vn -0 -1 0
vn -0 -1 0
vn -0 -1 0
vn -0 -1 0
vn -0 -1 0
vn -0 -1 0
vn -0 -1 0
vn -0 1 0
vn -0 1 0
vn -0 1 0
vn -0 1 0
vn -0 1 0
vn -0 1 0
vn -0 1 0
vn -0 1 0
vn 0.81373346 0 -0.58123827
vn 0.81373346 0 -0.58123827
vn 0.81373346 0 -0.58123827
vn 0.81373346 0 -0.58123827
vn 0.81373346 0 0.58123827
vn 0.81373346 0 0.58123827
vn 0.81373346 0 0.58123827
vn 0.81373346 0 0.58123827
vn -0.81373346 0 0.58123827
vn -0.81373346 0 0.58123827
vn -0.81373346 0 0.58123827
vn -0.81373346 0 0.58123827
vn -0.81373346 0 -0.58123827
vn -0.81373346 0 -0.58123827
vn -0.81373346 0 -0.58123827
vn -0.81373346 0 -0.58123827
g Prison_Piece01_0
f 3/3/3 2/2/2 1/1/1
f 4/4/4 3/3/3 1/1/1
f 7/7/7 6/6/6 5/5/5
f 8/8/8 7/7/7 5/5/5
f 11/11/11 10/10/10 9/9/9
f 12/12/12 11/11/11 9/9/9
f 15/15/15 14/14/14 13/13/13
f 16/16/16 15/15/15 13/13/13
f 19/19/19 18/18/18 17/17/17
f 20/20/20 19/19/19 17/17/17
f 20/20/20 17/17/17 21/21/21
f 22/22/22 20/20/20 21/21/21
f 22/22/22 21/21/21 23/23/23
f 24/24/24 22/22/22 23/23/23
f 27/27/27 26/26/26 25/25/25
f 28/28/28 27/27/27 25/25/25
f 28/28/28 25/25/25 29/29/29
f 30/30/30 28/28/28 29/29/29
f 30/30/30 29/29/29 31/31/31
f 32/32/32 30/30/30 31/31/31
f 35/35/35 34/34/34 33/33/33
f 36/36/36 35/35/35 33/33/33
f 39/39/39 38/38/38 37/37/37
f 40/40/40 39/39/39 37/37/37
f 43/43/43 42/42/42 41/41/41
f 44/44/44 43/43/43 41/41/41
f 47/47/47 46/46/46 45/45/45
f 48/48/48 47/47/47 45/45/45
