g Rock_6
v 0.33053365 0.664632 -0.008707336
v 0.3469476 0.6424317 -0.009091389
v 0.32365486 0.6127765 0.13515581
v -0.39975855 0.6534914 0.22159314
v -0.41499725 0.6814651 0.010115366
v -0.4118315 0.700396 0.010009012
v -0.34441948 0.0058673704 -0.6566309
v -0.3184361 0.005867365 -0.6662905
v -0.3040329 0.5243315 -0.63387585
v 0.33053365 0.664632 -0.008707336
v 0.29007727 0.6123772 -0.24378562
v 0.3469476 0.6424317 -0.009091389
v -0.31400144 0.0069650104 0.453772
v -0.22229229 0.18729761 0.46557277
v -0.25742313 0.00710715 0.46943554
v 0.32365486 0.6127765 0.13515581
v 0.3469476 0.6424317 -0.009091389
v 0.38356683 0.5806976 -0.009931235
v 0.3622855 0.5779296 0.13005203
v 0.07040449 0.5287761 0.22096878
v 0.058730938 0.48696855 0.28356695
v -0.2441015 0.5255116 0.2641764
v -0.3077165 0.5515662 0.22649004
v -0.33065933 0.006964788 0.2709772
v -0.24969603 0.2381283 0.27361053
v -0.22229229 0.18729761 0.46557277
v -0.31400144 0.0069650104 0.453772
v -0.39975855 0.6534914 0.22159314
v -0.3077165 0.5515662 0.22649004
v -0.33065933 0.006964788 0.2709772
v -0.4899704 0.0064108167 0.20824853
v 0.119123675 0.21938775 0.464923
v 0.10830503 0.006806828 0.46330786
v 0.030993948 0.0070510507 0.4756605
v 0.047082573 0.24087974 0.4702669
v 0.19990665 0.64639914 0.19112776
v -0.39975855 0.6534914 0.22159314
v -0.4118315 0.700396 0.010009012
v 0.19649369 0.71368635 -0.005387186
v -0.24969603 0.2381283 0.27361053
v -0.33065933 0.006964788 0.2709772
v -0.3077165 0.5515662 0.22649004
v -0.2441015 0.5255116 0.2641764
v -0.41499725 0.6814651 0.010115366
v -0.39975855 0.6534914 0.22159314
v -0.4899704 0.0064108167 0.20824853
v -0.52846354 0.0059103565 0.013923085
v 0.20660986 0.49330303 0.17567231
v 0.12695652 0.45009294 0.2832975
v 0.058730938 0.48696855 0.28356695
v 0.07040449 0.5287761 0.22096878
v 0.32365486 0.6127765 0.13515581
v 0.19990665 0.64639914 0.19112776
v 0.19649369 0.71368635 -0.005387186
v 0.33053365 0.664632 -0.008707336
v 0.32365486 0.6127765 0.13515581
v 0.20660986 0.49330303 0.17567231
v 0.07040449 0.5287761 0.22096878
v 0.19990665 0.64639914 0.19112776
v 0.19990665 0.64639914 0.19112776
v 0.07040449 0.5287761 0.22096878
v -0.3077165 0.5515662 0.22649004
v -0.39975855 0.6534914 0.22159314
v 0.33524054 0.0061502033 0.093590215
v 0.3622855 0.5779296 0.13005203
v 0.38356683 0.5806976 -0.009931235
v 0.34581593 0.005868174 -0.008177576
v 0.3622855 0.5779296 0.13005203
v 0.33524054 0.0061502033 0.093590215
v 0.17281102 0.006678614 0.2610149
v 0.17719565 0.18756364 0.26177543
v 0.24757576 0.45772263 0.18304704
v 0.18037015 0.40369263 0.2623259
v 0.12695652 0.45009294 0.2832975
v 0.20660986 0.49330303 0.17567231
v 0.24757576 0.45772263 0.18304704
v 0.18037015 0.40369263 0.2623259
v 0.20660986 0.49330303 0.17567231
v 0.32365486 0.6127765 0.13515581
v 0.3622855 0.5779296 0.13005203
v 0.24757576 0.45772263 0.18304704
v 0.11912369 0.2639315 0.28212819
v 0.12695652 0.45009294 0.2832975
v 0.18037015 0.40369263 0.2623259
v 0.17719565 0.18756364 0.26177543
v 0.29007727 0.6123772 -0.24378562
v 0.32856864 0.5775418 -0.25112322
v 0.38356683 0.5806976 -0.009931235
v 0.3469476 0.6424317 -0.009091389
v 0.010304019 0.5278186 -0.41719213
v -0.32548186 0.55058885 -0.5167585
v -0.3040329 0.5243315 -0.63387585
v -0.0057439916 0.4858407 -0.5153791
v 0.13302353 0.44916824 -0.50609815
v -0.0057439916 0.4858407 -0.5153791
v -0.035322215 0.0058675692 -0.53709036
v 0.113828674 0.0058676032 -0.506583
v -0.41046095 0.65290236 -0.29058447
v -0.499838 0.0058678826 -0.2591876
v -0.35060486 0.00586746 -0.58336455
v -0.32548186 0.55058885 -0.5167585
v 0.14509037 0.64585274 -0.27922386
v 0.19649369 0.71368635 -0.005387186
v -0.4118315 0.700396 0.010009012
v -0.41046095 0.65290236 -0.29058447
v -0.35060486 0.00586746 -0.58336455
v -0.34441948 0.0058673704 -0.6566309
v -0.3040329 0.5243315 -0.63387585
v -0.32548186 0.55058885 -0.5167585
v -0.41499725 0.6814651 0.010115366
v -0.52846354 0.0059103565 0.013923085
v -0.499838 0.0058678826 -0.2591876
v -0.41046095 0.65290236 -0.29058447
v -0.4118315 0.700396 0.010009012
v 0.22455801 0.49274454 -0.31629488
v 0.010304019 0.5278186 -0.41719213
v -0.0057439916 0.4858407 -0.5153791
v 0.13302353 0.44916824 -0.50609815
v 0.29007727 0.6123772 -0.24378562
v 0.33053365 0.664632 -0.008707336
v 0.19649369 0.71368635 -0.005387186
v 0.14509037 0.64585274 -0.27922386
v 0.29007727 0.6123772 -0.24378562
v 0.14509037 0.64585274 -0.27922386
v 0.010304019 0.5278186 -0.41719213
v 0.22455801 0.49274454 -0.31629488
v 0.14509037 0.64585274 -0.27922386
v -0.41046095 0.65290236 -0.29058447
v -0.32548186 0.55058885 -0.5167585
v 0.010304019 0.5278186 -0.41719213
v -0.0057439916 0.4858407 -0.5153791
v -0.3040329 0.5243315 -0.63387585
v -0.3184361 0.005867365 -0.6662905
v -0.035322215 0.0058675692 -0.53709036
v 0.32452014 0.0058680135 -0.18360506
v 0.34581593 0.005868174 -0.008177576
v 0.38356683 0.5806976 -0.009931235
v 0.32856864 0.5775418 -0.25112322
v 0.19157878 0.4028863 -0.45561138
v 0.1841278 0.005867661 -0.45462352
v 0.32452014 0.0058680135 -0.18360506
v 0.26812208 0.4571964 -0.31290314
v 0.32856864 0.5775418 -0.25112322
v 0.13302353 0.44916824 -0.50609815
v 0.19157878 0.4028863 -0.45561138
v 0.26812208 0.4571964 -0.31290314
v 0.22455801 0.49274454 -0.31629488
v 0.22455801 0.49274454 -0.31629488
v 0.26812208 0.4571964 -0.31290314
v 0.32856864 0.5775418 -0.25112322
v 0.29007727 0.6123772 -0.24378562
v 0.113828674 0.0058676032 -0.506583
v 0.1841278 0.005867661 -0.45462352
v 0.19157878 0.4028863 -0.45561138
v 0.13302353 0.44916824 -0.50609815
v -0.035322215 0.0058675692 -0.53709036
v -0.3184361 0.005867365 -0.6662905
v -0.34441948 0.0058673704 -0.6566309
v -0.35060486 0.00586746 -0.58336455
v -0.499838 0.0058678826 -0.2591876
v 0.113828674 0.0058676032 -0.506583
v 0.1841278 0.005867661 -0.45462352
v 0.32452014 0.0058680135 -0.18360506
v -0.52846354 0.0059103565 0.013923085
v 0.34581593 0.005868174 -0.008177576
v 0.33524054 0.0061502033 0.093590215
v -0.4899704 0.0064108167 0.20824853
v 0.17281102 0.006678614 0.2610149
v -0.33065933 0.006964788 0.2709772
v 0.10830505 0.0068066055 0.28051308
v 0.10830503 0.006806828 0.46330786
v 0.15282714 0.006678835 0.44380972
v 0.030993948 0.0070510507 0.4756605
v -0.25742316 0.007106928 0.28664073
v -0.31400144 0.0069650104 0.453772
v -0.25742313 0.00710715 0.46943554
v 0.030993955 0.0070508267 0.29286572
v 0.058730938 0.48696855 0.28356695
v 0.047082588 0.2854235 0.287472
v -0.24969603 0.2381283 0.27361053
v -0.2441015 0.5255116 0.2641764
v 0.12695652 0.45009294 0.2832975
v 0.11912369 0.2639315 0.28212819
v 0.047082588 0.2854235 0.287472
v 0.058730938 0.48696855 0.28356695
v 0.17719565 0.18756364 0.26177543
v 0.17281102 0.006678614 0.2610149
v 0.15282714 0.006678835 0.44380972
v 0.15721178 0.14301987 0.4445702
v 0.047082573 0.24087974 0.4702669
v 0.030993948 0.0070510507 0.4756605
v -0.25742313 0.00710715 0.46943554
v -0.22229229 0.18729761 0.46557277
v 0.10830503 0.006806828 0.46330786
v 0.119123675 0.21938775 0.464923
v 0.15721178 0.14301987 0.4445702
v 0.15282714 0.006678835 0.44380972
v 0.11912369 0.2639315 0.28212819
v 0.17719565 0.18756364 0.26177543
v 0.15721178 0.14301987 0.4445702
v 0.119123675 0.21938775 0.464923
v -0.24969603 0.2381283 0.27361053
v 0.047082588 0.2854235 0.287472
v 0.047082573 0.24087974 0.4702669
v -0.22229229 0.18729761 0.46557277
v 0.047082588 0.2854235 0.287472
v 0.11912369 0.2639315 0.28212819
v 0.119123675 0.21938775 0.464923
v 0.047082573 0.24087974 0.4702669
vt 0.109313965 0.32421875
vt 0.109313965 0.32421875
vt 0.109313965 0.32421875
vt 0.109313965 0.32421875
vt 0.109313965 0.32421875
vt 0.109313965 0.32421875
vt 0.109313965 0.32421875
vt 0.109313965 0.32421875
vt 0.109313965 0.32421875
vt 0.109313965 0.32421875
vt 0.109313965 0.32421875
vt 0.109313965 0.32421875
vt 0.109313965 0.32421875
vt 0.109313965 0.32421875
vt 0.109313965 0.32421875
vt 0.109313965 0.32421875
vt 0.109313965 0.32421875
vt 0.109313965 0.32421875
vt 0.109313965 0.32421875
vt 0.109313965 0.32421875
vt 0.109313965 0.32421875
vt 0.109313965 0.32421875
vt 0.109313965 0.32421875
vt 0.109313965 0.32421875
vt 0.109313965 0.32421875
vt 0.109313965 0.32421875
vt 0.109313965 0.32421875
vt 0.109313965 0.32421875
vt 0.109313965 0.32421875
vt 0.109313965 0.32421875
vt 0.109313965 0.32421875
vt 0.109313965 0.32421875
vt 0.109313965 0.32421875
vt 0.109313965 0.32421875
vt 0.109313965 0.32421875
vt 0.109313965 0.32421875
vt 0.109313965 0.32421875
vt 0.109313965 0.32421875
vt 0.109313965 0.32421875
vt 0.109313965 0.32421875
vt 0.109313965 0.32421875
vt 0.109313965 0.32421875
vt 0.109313965 0.32421875
vt 0.109313965 0.32421875
vt 0.109313965 0.32421875
vt 0.109313965 0.32421875
vt 0.109313965 0.32421875
vt 0.109313965 0.32421875
vt 0.109313965 0.32421875
vt 0.109313965 0.32421875
vt 0.109313965 0.32421875
vt 0.109313965 0.32421875
vt 0.109313965 0.32421875
vt 0.109313965 0.32421875
vt 0.109313965 0.32421875
vt 0.109313965 0.32421875
vt 0.109313965 0.32421875
vt 0.109313965 0.32421875
vt 0.109313965 0.32421875
vt 0.109313965 0.32421875
vt 0.109313965 0.32421875
vt 0.109313965 0.32421875
vt 0.109313965 0.32421875
vt 0.109313965 0.32421875
vt 0.109313965 0.32421875
vt 0.109313965 0.32421875
vt 0.109313965 0.32421875
vt 0.109313965 0.32421875
vt 0.109313965 0.32421875
vt 0.109313965 0.32421875
vt 0.109313965 0.32421875
vt 0.109313965 0.32421875
vt 0.109313965 0.32421875
vt 0.109313965 0.32421875
vt 0.109313965 0.32421875
vt 0.109313965 0.32421875
vt 0.109313965 0.32421875
vt 0.109313965 0.32421875
vt 0.109313965 0.32421875
vt 0.109313965 0.32421875
vt 0.109313965 0.32421875
vt 0.109313965 0.32421875
vt 0.109313965 0.32421875
vt 0.109313965 0.32421875
vt 0.109313965 0.32421875
vt 0.109313965 0.32421875
vt 0.109313965 0.32421875
vt 0.109313965 0.32421875
vt 0.109313965 0.32421875
vt 0.109313965 0.32421875
vt 0.109313965 0.32421875
vt 0.109313965 0.32421875
vt 0.109313965 0.32421875
vt 0.109313965 0.32421875
vt 0.109313965 0.32421875
vt 0.109313965 0.32421875
vt 0.109313965 0.32421875
vt 0.109313965 0.32421875
vt 0.109313965 0.32421875
vt 0.109313965 0.32421875
vt 0.109313965 0.32421875
vt 0.109313965 0.32421875
vt 0.109313965 0.32421875
vt 0.109313965 0.32421875
vt 0.109313965 0.32421875
vt 0.109313965 0.32421875
vt 0.109313965 0.32421875
vt 0.109313965 0.32421875
vt 0.109313965 0.32421875
vt 0.109313965 0.32421875
vt 0.109313965 0.32421875
vt 0.109313965 0.32421875
vt 0.109313965 0.32421875
vt 0.109313965 0.32421875
vt 0.109313965 0.32421875
vt 0.109313965 0.32421875
vt 0.109313965 0.32421875
vt 0.109313965 0.32421875
vt 0.109313965 0.32421875
vt 0.109313965 0.32421875
vt 0.109313965 0.32421875
vt 0.109313965 0.32421875
vt 0.109313965 0.32421875
vt 0.109313965 0.32421875
vt 0.109313965 0.32421875
vt 0.109313965 0.32421875
vt 0.109313965 0.32421875
vt 0.109313965 0.32421875
vt 0.109313965 0.32421875
vt 0.109313965 0.32421875
vt 0.109313965 0.32421875
vt 0.109313965 0.32421875
vt 0.109313965 0.32421875
vt 0.109313965 0.32421875
vt 0.109313965 0.32421875
vt 0.109313965 0.32421875
vt 0.109313965 0.32421875
vt 0.109313965 0.32421875
vt 0.109313965 0.32421875
vt 0.109313965 0.32421875
vt 0.109313965 0.32421875
vt 0.109313965 0.32421875
vt 0.109313965 0.32421875
vt 0.109313965 0.32421875
vt 0.109313965 0.32421875
vt 0.109313965 0.32421875
vt 0.109313965 0.32421875
vt 0.109313965 0.32421875
vt 0.109313965 0.32421875
vt 0.109313965 0.32421875
vt 0.109313965 0.32421875
vt 0.109313965 0.32421875
vt 0.109313965 0.32421875
vt 0.109313965 0.32421875
vt 0.109313965 0.32421875
vt 0.109313965 0.32421875
vt 0.109313965 0.32421875
vt 0.109313965 0.32421875
vt 0.109313965 0.32421875
vt 0.109313965 0.32421875
vt 0.109313965 0.32421875
vt 0.109313965 0.32421875
vt 0.109313965 0.32421875
vt 0.109313965 0.32421875
vt 0.109313965 0.32421875
vt 0.109313965 0.32421875
vt 0.109313965 0.32421875
vt 0.109313965 0.32421875
vt 0.109313965 0.32421875
vt 0.109313965 0.32421875
vt 0.109313965 0.32421875
vt 0.109313965 0.32421875
vt 0.109313965 0.32421875
vt 0.109313965 0.32421875
vt 0.109313965 0.32421875
vt 0.109313965 0.32421875
vt 0.109313965 0.32421875
vt 0.109313965 0.32421875
vt 0.109313965 0.32421875
vt 0.109313965 0.32421875
vt 0.109313965 0.32421875
vt 0.109313965 0.32421875
vt 0.109313965 0.32421875
vt 0.109313965 0.32421875
vt 0.109313965 0.32421875
vt 0.109313965 0.32421875
vt 0.109313965 0.32421875
vt 0.109313965 0.32421875
vt 0.109313965 0.32421875
vt 0.109313965 0.32421875
vt 0.109313965 0.32421875
vt 0.109313965 0.32421875
vt 0.109313965 0.32421875
vt 0.109313965 0.32421875
vt 0.109313965 0.32421875
vt 0.109313965 0.32421875
vt 0.109313965 0.32421875
vt 0.109313965 0.32421875
vt 0.109313965 0.32421875
vt 0.109313965 0.32421875
vt 0.109313965 0.32421875
vt 0.109313965 0.32421875
vt 0.109313965 0.32421875
vt 0.109313965 0.32421875
vt 0.109313965 0.32421875
vt 0.109313965 0.32421875
vt 0.109313965 0.32421875
vt 0.109313965 0.32421875
vt 0.109313965 0.32421875
vn 0.7817383 0.57373047 0.24414062
vn 0.7817383 0.57373047 0.24414062
vn 0.7817383 0.57373047 0.24414062
vn -0.9819336 0.16467285 0.0925293
vn -0.9819336 0.16467285 0.0925293
vn -0.9819336 0.16467285 0.0925293
vn -0.34765625 0.068115234 -0.9350586
vn -0.34765625 0.068115234 -0.9350586
vn -0.34765625 0.068115234 -0.9350586
vn 0.7739258 0.57666016 -0.2614746
vn 0.7739258 0.57666016 -0.2614746
vn 0.7739258 0.57666016 -0.2614746
vn -0.26635742 0.072509766 0.9609375
vn -0.26635742 0.072509766 0.9609375
vn -0.26635742 0.072509766 0.9609375
vn 0.78027344 0.5961914 0.19030762
vn 0.78027344 0.5961914 0.19030762
vn 0.78027344 0.5961914 0.19030762
vn 0.78027344 0.5961914 0.19030762
vn 0.06488037 0.8417969 0.5361328
vn 0.06488037 0.8417969 0.5361328
vn 0.06488037 0.8417969 0.5361328
vn 0.06488037 0.8417969 0.5361328
vn -0.91259766 0.37719727 0.15844727
vn -0.91259766 0.37719727 0.15844727
vn -0.91259766 0.37719727 0.15844727
vn -0.91259766 0.37719727 0.15844727
vn -0.24133301 0.04824829 0.9692383
vn -0.24133301 0.04824829 0.9692383
vn -0.24133301 0.04824829 0.9692383
vn -0.24133301 0.04824829 0.9692383
vn 0.11785889 0.0013017654 0.99316406
vn 0.11785889 0.0013017654 0.99316406
vn 0.11785889 0.0013017654 0.99316406
vn 0.11785889 0.0013017654 0.99316406
vn 0.0052833557 0.9628906 0.2692871
vn 0.0052833557 0.9628906 0.2692871
vn 0.0052833557 0.9628906 0.2692871
vn 0.0052833557 0.9628906 0.2692871
vn -0.3623047 0.072631836 0.9291992
vn -0.3623047 0.072631836 0.9291992
vn -0.3623047 0.072631836 0.9291992
vn -0.3623047 0.072631836 0.9291992
vn -0.9790039 0.14978027 0.13977051
vn -0.9790039 0.14978027 0.13977051
vn -0.9790039 0.14978027 0.13977051
vn -0.9790039 0.14978027 0.13977051
vn 0.3840332 0.7270508 0.56933594
vn 0.3840332 0.7270508 0.56933594
vn 0.3840332 0.7270508 0.56933594
vn 0.3840332 0.7270508 0.56933594
vn 0.3544922 0.88134766 0.31225586
vn 0.3544922 0.88134766 0.31225586
vn 0.3544922 0.88134766 0.31225586
vn 0.3544922 0.88134766 0.31225586
vn 0.34350586 -0.07940674 0.93603516
vn 0.34350586 -0.07940674 0.93603516
vn 0.34350586 -0.07940674 0.93603516
vn 0.34350586 -0.07940674 0.93603516
vn 0.040924072 0.14929199 0.98779297
vn 0.040924072 0.14929199 0.98779297
vn 0.040924072 0.14929199 0.98779297
vn 0.040924072 0.14929199 0.98779297
vn 0.9897461 -0.05984497 0.12976074
vn 0.9897461 -0.05984497 0.12976074
vn 0.9897461 -0.05984497 0.12976074
vn 0.9897461 -0.05984497 0.12976074
vn 0.65966797 -0.028625488 0.75097656
vn 0.65966797 -0.028625488 0.75097656
vn 0.65966797 -0.028625488 0.75097656
vn 0.65966797 -0.028625488 0.75097656
vn 0.65966797 -0.028625488 0.75097656
vn 0.65966797 -0.028625488 0.75097656
vn 0.5336914 0.5019531 0.68066406
vn 0.5336914 0.5019531 0.68066406
vn 0.5336914 0.5019531 0.68066406
vn 0.5336914 0.5019531 0.68066406
vn 0.16418457 0.2166748 0.96240234
vn 0.16418457 0.2166748 0.96240234
vn 0.16418457 0.2166748 0.96240234
vn 0.16418457 0.2166748 0.96240234
vn 0.3347168 -0.013183594 0.9423828
vn 0.3347168 -0.013183594 0.9423828
vn 0.3347168 -0.013183594 0.9423828
vn 0.3347168 -0.013183594 0.9423828
vn 0.7607422 0.61035156 -0.22143555
vn 0.7607422 0.61035156 -0.22143555
vn 0.7607422 0.61035156 -0.22143555
vn 0.7607422 0.61035156 -0.22143555
vn 0.19104004 0.9370117 -0.29223633
vn 0.19104004 0.9370117 -0.29223633
vn 0.19104004 0.9370117 -0.29223633
vn 0.19104004 0.9370117 -0.29223633
vn 0.13891602 0.016464233 -0.9902344
vn 0.13891602 0.016464233 -0.9902344
vn 0.13891602 0.016464233 -0.9902344
vn 0.13891602 0.016464233 -0.9902344
vn -0.9086914 0.0993042 -0.40527344
vn -0.9086914 0.0993042 -0.40527344
vn -0.9086914 0.0993042 -0.40527344
vn -0.9086914 0.0993042 -0.40527344
vn -0.0059394836 0.98046875 -0.19628906
vn -0.0059394836 0.98046875 -0.19628906
vn -0.0059394836 0.98046875 -0.19628906
vn -0.0059394836 0.98046875 -0.19628906
vn -0.98535156 0.0736084 -0.15319824
vn -0.98535156 0.0736084 -0.15319824
vn -0.98535156 0.0736084 -0.15319824
vn -0.98535156 0.0736084 -0.15319824
vn -0.9868164 0.1496582 -0.064453125
vn -0.9868164 0.1496582 -0.064453125
vn -0.9868164 0.1496582 -0.064453125
vn -0.9868164 0.1496582 -0.064453125
vn -0.98583984 0.16467285 -0.030517578
vn 0.29492188 0.8803711 -0.37158203
vn 0.29492188 0.8803711 -0.37158203
vn 0.29492188 0.8803711 -0.37158203
vn 0.29492188 0.8803711 -0.37158203
vn 0.30151367 0.9145508 -0.27026367
vn 0.30151367 0.9145508 -0.27026367
vn 0.30151367 0.9145508 -0.27026367
vn 0.30151367 0.9145508 -0.27026367
vn 0.39086914 0.4033203 -0.82714844
vn 0.39086914 0.4033203 -0.82714844
vn 0.39086914 0.4033203 -0.82714844
vn 0.39086914 0.4033203 -0.82714844
vn 0.09362793 0.8461914 -0.52490234
vn 0.09362793 0.8461914 -0.52490234
vn 0.09362793 0.8461914 -0.52490234
vn 0.09362793 0.8461914 -0.52490234
vn 0.3935547 0.032470703 -0.9189453
vn 0.3935547 0.032470703 -0.9189453
vn 0.3935547 0.032470703 -0.9189453
vn 0.3935547 0.032470703 -0.9189453
vn 0.9824219 -0.046661377 -0.17956543
vn 0.9824219 -0.046661377 -0.17956543
vn 0.9824219 -0.046661377 -0.17956543
vn 0.9824219 -0.046661377 -0.17956543
vn 0.8671875 -0.03250122 -0.49682617
vn 0.8671875 -0.03250122 -0.49682617
vn 0.8671875 -0.03250122 -0.49682617
vn 0.8671875 -0.03250122 -0.49682617
vn 0.8671875 -0.03250122 -0.49682617
vn 0.68652344 0.5263672 -0.5019531
vn 0.68652344 0.5263672 -0.5019531
vn 0.68652344 0.5263672 -0.5019531
vn 0.68652344 0.5263672 -0.5019531
vn 0.26611328 0.3605957 -0.89404297
vn 0.26611328 0.3605957 -0.89404297
vn 0.26611328 0.3605957 -0.89404297
vn 0.26611328 0.3605957 -0.89404297
vn 0.6176758 -0.020065308 -0.7861328
vn 0.6176758 -0.020065308 -0.7861328
vn 0.6176758 -0.020065308 -0.7861328
vn 0.6176758 -0.020065308 -0.7861328
vn -1.257658E-05 -1 4.374981E-05
vn -1.257658E-05 -1 4.374981E-05
vn -1.257658E-05 -1 4.374981E-05
vn -1.257658E-05 -1 4.374981E-05
vn -1.257658E-05 -1 4.374981E-05
vn -1.257658E-05 -1 4.374981E-05
vn -1.257658E-05 -1 4.374981E-05
vn -1.257658E-05 -1 4.374981E-05
vn -0 -1 0.0018444061
vn -0 -1 0.0018491745
vn -0 -1 0.0036964417
vn -0 -1 0.0036964417
vn -0.0019283295 -1 0.0006136894
vn 0.0018224716 -1 0.00057411194
vn -0.0028514862 -1 -6.836653E-05
vn -0.0028514862 -1 -5.1259995E-05
vn -0.0023937225 -1 -0.0001296997
vn -0.0016078949 -1 0
vn 0.0009589195 -1 -0.00036478043
vn 0.0022144318 -1 -9.9658966E-05
vn 0.002084732 -1 -9.429455E-05
vn -0.0017194748 -1 -0.0003077984
vn -0.055786133 0.029190063 0.9980469
vn -0.055786133 0.029190063 0.9980469
vn -0.055786133 0.029190063 0.9980469
vn -0.055786133 0.029190063 0.9980469
vn 0.042022705 0.0049362183 0.99902344
vn 0.042022705 0.0049362183 0.99902344
vn 0.042022705 0.0049362183 0.99902344
vn 0.042022705 0.0049362183 0.99902344
vn 0.9941406 -0.02798462 0.105285645
vn 0.9941406 -0.02798462 0.105285645
vn 0.9941406 -0.02798462 0.105285645
vn 0.9941406 -0.02798462 0.105285645
vn -0.021972656 0.02507019 0.9995117
vn -0.021972656 0.02507019 0.9995117
vn -0.021972656 0.02507019 0.9995117
vn -0.021972656 0.02507019 0.9995117
vn 0.41601562 -0.02432251 0.9091797
vn 0.41601562 -0.02432251 0.9091797
vn 0.41601562 -0.02432251 0.9091797
vn 0.41601562 -0.02432251 0.9091797
vn 0.8540039 0.49316406 0.16687012
vn 0.8540039 0.49316406 0.16687012
vn 0.8540039 0.49316406 0.16687012
vn 0.8540039 0.49316406 0.16687012
vn -0.17773438 0.9506836 0.2548828
vn -0.17773438 0.9506836 0.2548828
vn -0.17773438 0.9506836 0.2548828
vn -0.17773438 0.9506836 0.2548828
vn 0.2939453 0.92871094 0.22631836
vn 0.2939453 0.92871094 0.22631836
vn 0.2939453 0.92871094 0.22631836
vn 0.2939453 0.92871094 0.22631836
g Rock_6_0
f 3/3/3 2/2/2 1/1/1
f 6/6/6 5/5/5 4/4/4
f 9/9/9 8/8/8 7/7/7
f 12/12/12 11/11/11 10/10/10
f 15/15/15 14/14/14 13/13/13
f 18/18/18 17/17/17 16/16/16
f 19/19/19 18/18/18 16/16/16
f 22/22/22 21/21/21 20/20/20
f 23/23/23 22/22/22 20/20/20
f 26/26/26 25/25/25 24/24/24
f 27/27/27 26/26/26 24/24/24
f 30/30/30 29/29/29 28/28/28
f 31/31/31 30/30/30 28/28/28
f 34/34/34 33/33/33 32/32/32
f 35/35/35 34/34/34 32/32/32
f 38/38/38 37/37/37 36/36/36
f 39/39/39 38/38/38 36/36/36
f 42/42/42 41/41/41 40/40/40
f 43/43/43 42/42/42 40/40/40
f 46/46/46 45/45/45 44/44/44
f 47/47/47 46/46/46 44/44/44
f 50/50/50 49/49/49 48/48/48
f 51/51/51 50/50/50 48/48/48
f 54/54/54 53/53/53 52/52/52
f 55/55/55 54/54/54 52/52/52
f 58/58/58 57/57/57 56/56/56
f 59/59/59 58/58/58 56/56/56
f 62/62/62 61/61/61 60/60/60
f 63/63/63 62/62/62 60/60/60
f 66/66/66 65/65/65 64/64/64
f 67/67/67 66/66/66 64/64/64
f 70/70/70 69/69/69 68/68/68
f 68/68/68 71/71/71 70/70/70
f 68/68/68 72/72/72 71/71/71
f 72/72/72 73/73/73 71/71/71
f 76/76/76 75/75/75 74/74/74
f 77/77/77 76/76/76 74/74/74
f 80/80/80 79/79/79 78/78/78
f 81/81/81 80/80/80 78/78/78
f 84/84/84 83/83/83 82/82/82
f 85/85/85 84/84/84 82/82/82
f 88/88/88 87/87/87 86/86/86
f 89/89/89 88/88/88 86/86/86
f 92/92/92 91/91/91 90/90/90
f 93/93/93 92/92/92 90/90/90
f 96/96/96 95/95/95 94/94/94
f 97/97/97 96/96/96 94/94/94
f 100/100/100 99/99/99 98/98/98
f 101/101/101 100/100/100 98/98/98
f 104/104/104 103/103/103 102/102/102
f 105/105/105 104/104/104 102/102/102
f 108/108/108 107/107/107 106/106/106
f 109/109/109 108/108/108 106/106/106
f 112/112/112 111/111/111 110/110/110
f 113/113/113 112/112/112 110/110/110
f 110/110/110 114/114/114 113/113/113
f 117/117/117 116/116/116 115/115/115
f 118/118/118 117/117/117 115/115/115
f 121/121/121 120/120/120 119/119/119
f 122/122/122 121/121/121 119/119/119
f 125/125/125 124/124/124 123/123/123
f 126/126/126 125/125/125 123/123/123
f 129/129/129 128/128/128 127/127/127
f 130/130/130 129/129/129 127/127/127
f 133/133/133 132/132/132 131/131/131
f 134/134/134 133/133/133 131/131/131
f 137/137/137 136/136/136 135/135/135
f 138/138/138 137/137/137 135/135/135
f 141/141/141 140/140/140 139/139/139
f 139/139/139 142/142/142 141/141/141
f 142/142/142 143/143/143 141/141/141
f 146/146/146 145/145/145 144/144/144
f 147/147/147 146/146/146 144/144/144
f 150/150/150 149/149/149 148/148/148
f 151/151/151 150/150/150 148/148/148
f 154/154/154 153/153/153 152/152/152
f 155/155/155 154/154/154 152/152/152
f 158/158/158 157/157/157 156/156/156
f 156/156/156 159/159/159 158/158/158
f 156/156/156 160/160/160 159/159/159
f 156/156/156 161/161/161 160/160/160
f 161/161/161 162/162/162 160/160/160
f 162/162/162 163/163/163 160/160/160
f 163/163/163 164/164/164 160/160/160
f 163/163/163 165/165/165 164/164/164
f 164/164/164 165/165/165 166/166/166
f 166/166/166 167/167/167 164/164/164
f 166/166/166 168/168/168 167/167/167
f 168/168/168 169/169/169 167/167/167
f 168/168/168 170/170/170 169/169/169
f 171/171/171 170/170/170 168/168/168
f 172/172/172 171/171/171 168/168/168
f 171/171/171 173/173/173 170/170/170
f 170/170/170 174/174/174 169/169/169
f 175/175/175 169/169/169 174/174/174
f 176/176/176 175/175/175 174/174/174
f 173/173/173 176/176/176 177/177/177
f 173/173/173 177/177/177 170/170/170
f 170/170/170 177/177/177 174/174/174
f 176/176/176 174/174/174 177/177/177
f 180/180/180 179/179/179 178/178/178
f 181/181/181 180/180/180 178/178/178
f 184/184/184 183/183/183 182/182/182
f 185/185/185 184/184/184 182/182/182
f 188/188/188 187/187/187 186/186/186
f 189/189/189 188/188/188 186/186/186
f 192/192/192 191/191/191 190/190/190
f 193/193/193 192/192/192 190/190/190
f 196/196/196 195/195/195 194/194/194
f 197/197/197 196/196/196 194/194/194
f 200/200/200 199/199/199 198/198/198
f 201/201/201 200/200/200 198/198/198
f 204/204/204 203/203/203 202/202/202
f 205/205/205 204/204/204 202/202/202
f 208/208/208 207/207/207 206/206/206
f 209/209/209 208/208/208 206/206/206
