g Tile_Town_01
v 0.45998752 8.145452E-08 0.5
v -0.45998752 8.146034E-08 0.5
v -0.43498752 0.05000008 0.475
v 0.43498752 0.05000008 0.475
v 0.5 -7.49473E-08 -0.45998752
v 0.5 7.494148E-08 0.45998752
v 0.475 0.05000007 0.43498752
v 0.475 0.04999993 -0.43498752
v -0.475 0.04999993 -0.43498752
v -0.43498752 0.049999923 -0.475
v 0.43498752 0.049999923 -0.475
v 0.475 0.04999993 -0.43498752
v -0.475 0.05000007 0.43498752
v 0.475 0.05000007 0.43498752
v -0.43498752 0.05000008 0.475
v 0.43498752 0.05000008 0.475
v -0.45998752 -8.146616E-08 -0.5
v 0.45998752 -8.146034E-08 -0.5
v 0.43498752 0.049999923 -0.475
v -0.43498752 0.049999923 -0.475
v -0.45998752 8.146034E-08 0.5
v -0.5 7.493566E-08 0.45998752
v -0.475 0.05000007 0.43498752
v -0.43498752 0.05000008 0.475
v -0.43498752 0.049999923 -0.475
v -0.475 0.04999993 -0.43498752
v -0.5 -7.494148E-08 -0.45998752
v -0.45998752 -8.146616E-08 -0.5
v 0.475 0.04999993 -0.43498752
v 0.43498752 0.049999923 -0.475
v 0.45998752 -8.146034E-08 -0.5
v 0.5 -7.49473E-08 -0.45998752
v 0.43498752 0.05000008 0.475
v 0.475 0.05000007 0.43498752
v 0.5 7.494148E-08 0.45998752
v 0.45998752 8.145452E-08 0.5
v -0.5 7.493566E-08 0.45998752
v -0.5 -7.494148E-08 -0.45998752
v -0.475 0.04999993 -0.43498752
v -0.475 0.05000007 0.43498752
vt 0.201015 0.041064024
vt 0.201015 0.041064024
vt 0.201015 0.041064024
vt 0.201015 0.041064024
vt 0.201015 0.041064024
vt 0.201015 0.041064024
vt 0.201015 0.041064024
vt 0.201015 0.041064024
vt 0.11857876 0.029990524
vt 0.11857876 0.029990524
vt 0.11857876 0.029990524
vt 0.11857876 0.029990524
vt 0.11857876 0.029990524
vt 0.11857876 0.029990524
vt 0.11857876 0.029990524
vt 0.11857876 0.029990524
vt 0.053290516 0.0411416
vt 0.053290516 0.0411416
vt 0.053290516 0.0411416
vt 0.053290516 0.0411416
vt 0.11550278 0.04290961
vt 0.11550278 0.04290961
vt 0.11550278 0.04290961
vt 0.11550278 0.04290961
vt 0.053290516 0.0411416
vt 0.053290516 0.0411416
vt 0.053290516 0.0411416
vt 0.053290516 0.0411416
vt 0.11550278 0.04290961
vt 0.11550278 0.04290961
vt 0.11550278 0.04290961
vt 0.11550278 0.04290961
vt 0.201015 0.041064024
vt 0.201015 0.041064024
vt 0.201015 0.041064024
vt 0.201015 0.041064024
vt 0.053290516 0.0411416
vt 0.053290516 0.0411416
vt 0.053290516 0.0411416
vt 0.053290516 0.0411416
vn -0 0.4472137 0.8944272
vn -0 0.4472137 0.8944272
vn -0 0.4472137 0.8944272
vn -0 0.4472137 0.8944272
vn 0.8944273 0.4472135 0
vn 0.8944273 0.4472135 0
vn 0.8944273 0.4472135 0
vn 0.8944273 0.4472135 0
vn -0 1 0
vn -0 1 0
vn -0 1 0
vn -0 1 0
vn -0 1 0
vn -0 1 0
vn -0 1 0
vn -0 1 0
vn -0 0.4472137 -0.8944272
vn -0 0.4472137 -0.8944272
vn -0 0.4472137 -0.8944272
vn -0 0.4472137 -0.8944272
vn -0.5773504 0.57735014 0.5773502
vn -0.5773504 0.57735014 0.5773502
vn -0.5773504 0.57735014 0.5773502
vn -0.5773504 0.57735014 0.5773502
vn -0.57735026 0.57735026 -0.57735026
vn -0.57735026 0.57735026 -0.57735026
vn -0.57735026 0.57735026 -0.57735026
vn -0.57735026 0.57735026 -0.57735026
vn 0.5773504 0.57735014 -0.5773504
vn 0.5773504 0.57735014 -0.5773504
vn 0.5773504 0.57735014 -0.5773504
vn 0.5773504 0.57735014 -0.5773504
vn 0.5773504 0.5773504 0.57735014
vn 0.5773504 0.5773504 0.57735014
vn 0.5773504 0.5773504 0.57735014
vn 0.5773504 0.5773504 0.57735014
vn -0.8944273 0.4472135 0
vn -0.8944273 0.4472135 0
vn -0.8944273 0.4472135 0
vn -0.8944273 0.4472135 0
g Tile_Town_01_0
f 3/3/3 2/2/2 1/1/1
f 4/4/4 3/3/3 1/1/1
f 7/7/7 6/6/6 5/5/5
f 8/8/8 7/7/7 5/5/5
f 11/11/11 10/10/10 9/9/9
f 9/9/9 12/12/12 11/11/11
f 9/9/9 13/13/13 12/12/12
f 13/13/13 14/14/14 12/12/12
f 13/13/13 15/15/15 14/14/14
f 15/15/15 16/16/16 14/14/14
f 19/19/19 18/18/18 17/17/17
f 20/20/20 19/19/19 17/17/17
f 23/23/23 22/22/22 21/21/21
f 24/24/24 23/23/23 21/21/21
f 27/27/27 26/26/26 25/25/25
f 28/28/28 27/27/27 25/25/25
f 31/31/31 30/30/30 29/29/29
f 32/32/32 31/31/31 29/29/29
f 35/35/35 34/34/34 33/33/33
f 36/36/36 35/35/35 33/33/33
f 39/39/39 38/38/38 37/37/37
f 40/40/40 39/39/39 37/37/37
