g Box_02
v 0.5 3.3611144E-08 0.20630372
v 0.39318657 8.146034E-08 0.5
v 0.5 0.32742608 0.49999994
v 0.33882904 1.0000001 0.49999985
v 0.5 1 0.245367
v 0.5 0.7998586 0.49999988
v -0.5 0.75717276 -0.5000001
v -0.21129751 0.99999994 -0.5000002
v -0.2882588 0.99999994 -0.19505648
v -0.5 6.3207615E-08 0.38796556
v -0.5 0.19335748 0.49999997
v -0.35881996 8.146034E-08 0.5
v 0.0074605793 0.7246931 0.49999988
v -0.0569409 1 0.29657313
v 0.25204387 1.0000001 0.49999985
v 0.5 0.9521381 -0.5000002
v 0.5 0.99999994 -0.37494695
v 0.38857555 0.99999994 -0.5000002
v -0.0569409 1 0.29657313
v 0.0074605793 0.7246931 0.49999988
v -0.1597275 1.0000001 0.49999985
v 0.5 0.10605482 -0.5
v 0.07228279 -8.146034E-08 -0.5
v 0.5 -6.166075E-08 -0.37847096
v -0.5 0.88225824 0.49999985
v -0.5 1.0000001 0.3860676
v -0.4381924 1.0000001 0.49999985
v -0.13081074 1 0.5263049
v -0.4212979 1 0.38123623
v -0.4031601 1.3274261 0.4864984
v -0.27938712 2.0071688 0.29370892
v -0.38067394 1.9679816 0.10848336
v -0.2150905 1.9463552 -0.23997232
v -0.27938712 2.0071688 0.29370892
v -0.0010840744 2.0071688 0.40930045
v -0.25201893 1.8070275 0.45253927
v 0.39542705 1.5571727 -0.57910854
v 0.40849566 1.7999998 -0.503265
v 0.09491196 1.7999998 -0.5273266
v -0.4796427 0.9999999 -0.42832443
v -0.5900501 1.1933573 -0.40930012
v -0.5660765 0.9999999 -0.27017036
v -0.40462697 1.6710483 -0.14196253
v -0.2150905 1.9463552 -0.23997232
v -0.38067394 1.9679816 0.10848336
v 0.5332073 1.7521383 0.40636846
v 0.44199836 1.8000001 0.4276036
v 0.51428646 1.8 0.29656228
v -0.4330169 1.9463552 -0.30672264
v -0.44463462 1.9463551 -0.3741456
v -0.2150905 1.9463552 -0.23997232
v -0.2150905 1.9463552 -0.23997232
v -0.40462697 1.6710483 -0.14196253
v -0.4330169 1.9463552 -0.30672264
v 0.5332073 1.106055 0.40636858
v 0.49260545 0.99999994 -0.01513687
v 0.4454713 1 0.42700532
v -0.45513 1.8286133 -0.43505555
v -0.34285238 1.9463551 -0.45440224
v -0.44463462 1.9463551 -0.3741456
v 0.07228279 -8.146034E-08 -0.5
v 0.5 0.10605482 -0.5
v 0.5 0.9521381 -0.5000002
v 0.38857555 0.99999994 -0.5000002
v -0.21129751 0.99999994 -0.5000002
v -0.5 -8.146034E-08 -0.5
v -0.5 0.75717276 -0.5000001
v 0.5 -6.166075E-08 -0.37847096
v 0.07228279 -8.146034E-08 -0.5
v -0.5 -8.146034E-08 -0.5
v -0.5 6.3207615E-08 0.38796556
v 0.5 3.3611144E-08 0.20630372
v 0.39318657 8.146034E-08 0.5
v -0.35881996 8.146034E-08 0.5
v 0.33882904 1.0000001 0.49999985
v 0.25204387 1.0000001 0.49999985
v -0.0569409 1 0.29657313
v 0.5 1 0.245367
v -0.2882588 0.99999994 -0.19505648
v 0.5 0.99999994 -0.37494695
v 0.38857555 0.99999994 -0.5000002
v -0.21129751 0.99999994 -0.5000002
v -0.5 1.0000001 0.3860676
v -0.4381924 1.0000001 0.49999985
v -0.1597275 1.0000001 0.49999985
v -0.5 6.3207615E-08 0.38796556
v -0.5 -8.146034E-08 -0.5
v -0.5 0.75717276 -0.5000001
v -0.5 0.19335748 0.49999997
v -0.5 0.88225824 0.49999985
v -0.2882588 0.99999994 -0.19505648
v -0.5 1.0000001 0.3860676
v 0.33882904 1.0000001 0.49999985
v 0.5 0.7998586 0.49999988
v 0.5 0.32742608 0.49999994
v 0.39318657 8.146034E-08 0.5
v -0.35881996 8.146034E-08 0.5
v 0.25204387 1.0000001 0.49999985
v 0.0074605793 0.7246931 0.49999988
v -0.1597275 1.0000001 0.49999985
v -0.4381924 1.0000001 0.49999985
v -0.5 0.19335748 0.49999997
v -0.5 0.88225824 0.49999985
v 0.5 0.10605482 -0.5
v 0.5 -6.166075E-08 -0.37847096
v 0.5 3.3611144E-08 0.20630372
v 0.5 0.32742608 0.49999994
v 0.5 0.9521381 -0.5000002
v 0.5 0.7998586 0.49999988
v 0.5 1 0.245367
v 0.5 0.99999994 -0.37494695
v 0.39542705 1.5571727 -0.57910854
v 0.39542705 0.9999998 -0.5791085
v 0.49260545 0.99999994 -0.01513687
v 0.5240873 1.8 0.16756669
v 0.40849566 1.7999998 -0.503265
v 0.49260545 0.99999994 -0.01513687
v 0.39542705 0.9999998 -0.5791085
v -0.4796427 0.9999999 -0.42832443
v -0.5660765 0.9999999 -0.27017036
v -0.4212979 1 0.38123623
v 0.4454713 1 0.42700532
v -0.13081074 1 0.5263049
v -0.4796427 0.9999999 -0.42832443
v 0.39542705 0.9999998 -0.5791085
v 0.39542705 1.5571727 -0.57910854
v 0.09491196 1.7999998 -0.5273266
v -0.34285238 1.9463551 -0.45440224
v -0.45513 1.8286133 -0.43505555
v -0.5900501 1.1933573 -0.40930012
v -0.4031601 1.3274261 0.4864984
v -0.4212979 1 0.38123623
v -0.40462697 1.6710483 -0.14196253
v -0.25201893 1.8070275 0.45253927
v -0.38067394 1.9679816 0.10848336
v -0.27938712 2.0071688 0.29370892
v -0.34285238 1.9463551 -0.45440224
v 0.09491196 1.7999998 -0.5273266
v 0.40849566 1.7999998 -0.503265
v 0.5240873 1.8 0.16756669
v -0.44463462 1.9463551 -0.3741456
v -0.2150905 1.9463552 -0.23997232
v -0.27938712 2.0071688 0.29370892
v 0.51428646 1.8 0.29656228
v -0.0010840744 2.0071688 0.40930045
v 0.44199836 1.8000001 0.4276036
v 0.44199836 1.8000001 0.4276036
v 0.5332073 1.7521383 0.40636846
v 0.5332073 1.106055 0.40636858
v 0.4454713 1 0.42700532
v -0.13081074 1 0.5263049
v -0.0010840744 2.0071688 0.40930045
v -0.25201893 1.8070275 0.45253927
v -0.4031601 1.3274261 0.4864984
v 0.5240873 1.8 0.16756669
v 0.49260545 0.99999994 -0.01513687
v 0.5332073 1.106055 0.40636858
v 0.5332073 1.7521383 0.40636846
v 0.51428646 1.8 0.29656228
v -0.4212979 1 0.38123623
v -0.5660765 0.9999999 -0.27017036
v -0.5900501 1.1933573 -0.40930012
v -0.40462697 1.6710483 -0.14196253
v -0.45513 1.8286133 -0.43505555
v -0.4330169 1.9463552 -0.30672264
v -0.44463462 1.9463551 -0.3741456
vt 0.39664713 0.9084899
vt 0.39664713 0.9084899
vt 0.39664713 0.9084899
vt 0.39664713 0.9084899
vt 0.39664713 0.9084899
vt 0.39664713 0.9084899
vt 0.39664713 0.9084899
vt 0.39664713 0.9084899
vt 0.39664713 0.9084899
vt 0.39664713 0.9084899
vt 0.39664713 0.9084899
vt 0.39664713 0.9084899
vt 0.39664713 0.9084899
vt 0.39664713 0.9084899
vt 0.39664713 0.9084899
vt 0.39664713 0.9084899
vt 0.39664713 0.9084899
vt 0.39664713 0.9084899
vt 0.39664713 0.9084899
vt 0.39664713 0.9084899
vt 0.39664713 0.9084899
vt 0.39664713 0.9084899
vt 0.39664713 0.9084899
vt 0.39664713 0.9084899
vt 0.39664713 0.9084899
vt 0.39664713 0.9084899
vt 0.39664713 0.9084899
vt 0.39664713 0.9084899
vt 0.39664713 0.9084899
vt 0.39664713 0.9084899
vt 0.39664713 0.9084899
vt 0.39664713 0.9084899
vt 0.39664713 0.9084899
vt 0.39664713 0.9084899
vt 0.39664713 0.9084899
vt 0.39664713 0.9084899
vt 0.39664713 0.9084899
vt 0.39664713 0.9084899
vt 0.39664713 0.9084899
vt 0.39664713 0.9084899
vt 0.39664713 0.9084899
vt 0.39664713 0.9084899
vt 0.39664713 0.9084899
vt 0.39664713 0.9084899
vt 0.39664713 0.9084899
vt 0.39664713 0.9084899
vt 0.39664713 0.9084899
vt 0.39664713 0.9084899
vt 0.39664713 0.9084899
vt 0.39664713 0.9084899
vt 0.39664713 0.9084899
vt 0.39664713 0.9084899
vt 0.39664713 0.9084899
vt 0.39664713 0.9084899
vt 0.39664713 0.9084899
vt 0.39664713 0.9084899
vt 0.39664713 0.9084899
vt 0.39664713 0.9084899
vt 0.39664713 0.9084899
vt 0.39664713 0.9084899
vt 0.39664713 0.9084899
vt 0.39664713 0.9084899
vt 0.39664713 0.9084899
vt 0.39664713 0.9084899
vt 0.39664713 0.9084899
vt 0.39664713 0.9084899
vt 0.39664713 0.9084899
vt 0.39664713 0.9084899
vt 0.39664713 0.9084899
vt 0.39664713 0.9084899
vt 0.39664713 0.9084899
vt 0.39664713 0.9084899
vt 0.39664713 0.9084899
vt 0.39664713 0.9084899
vt 0.39664713 0.9084899
vt 0.39664713 0.9084899
vt 0.39664713 0.9084899
vt 0.39664713 0.9084899
vt 0.39664713 0.9084899
vt 0.39664713 0.9084899
vt 0.39664713 0.9084899
vt 0.39664713 0.9084899
vt 0.39664713 0.9084899
vt 0.39664713 0.9084899
vt 0.39664713 0.9084899
vt 0.39664713 0.9084899
vt 0.39664713 0.9084899
vt 0.39664713 0.9084899
vt 0.39664713 0.9084899
vt 0.39664713 0.9084899
vt 0.39664713 0.9084899
vt 0.39664713 0.9084899
vt 0.39664713 0.9084899
vt 0.39664713 0.9084899
vt 0.39664713 0.9084899
vt 0.39664713 0.9084899
vt 0.39664713 0.9084899
vt 0.39664713 0.9084899
vt 0.39664713 0.9084899
vt 0.39664713 0.9084899
vt 0.39664713 0.9084899
vt 0.39664713 0.9084899
vt 0.39664713 0.9084899
vt 0.39664713 0.9084899
vt 0.39664713 0.9084899
vt 0.39664713 0.9084899
vt 0.39664713 0.9084899
vt 0.39664713 0.9084899
vt 0.39664713 0.9084899
vt 0.39664713 0.9084899
vt 0.39664713 0.9084899
vt 0.39664713 0.9084899
vt 0.39664713 0.9084899
vt 0.39664713 0.9084899
vt 0.39664713 0.9084899
vt 0.39664713 0.9084899
vt 0.39664713 0.9084899
vt 0.39664713 0.9084899
vt 0.39664713 0.9084899
vt 0.39664713 0.9084899
vt 0.39664713 0.9084899
vt 0.39664713 0.9084899
vt 0.39664713 0.9084899
vt 0.39664713 0.9084899
vt 0.39664713 0.9084899
vt 0.39664713 0.9084899
vt 0.39664713 0.9084899
vt 0.39664713 0.9084899
vt 0.39664713 0.9084899
vt 0.39664713 0.9084899
vt 0.39664713 0.9084899
vt 0.39664713 0.9084899
vt 0.39664713 0.9084899
vt 0.39664713 0.9084899
vt 0.39664713 0.9084899
vt 0.39664713 0.9084899
vt 0.39664713 0.9084899
vt 0.39664713 0.9084899
vt 0.39664713 0.9084899
vt 0.39664713 0.9084899
vt 0.39664713 0.9084899
vt 0.39664713 0.9084899
vt 0.39664713 0.9084899
vt 0.39664713 0.9084899
vt 0.39664713 0.9084899
vt 0.39664713 0.9084899
vt 0.39664713 0.9084899
vt 0.39664713 0.9084899
vt 0.39664713 0.9084899
vt 0.39664713 0.9084899
vt 0.39664713 0.9084899
vt 0.39664713 0.9084899
vt 0.39664713 0.9084899
vt 0.39664713 0.9084899
vt 0.39664713 0.9084899
vt 0.39664713 0.9084899
vt 0.39664713 0.9084899
vt 0.39664713 0.9084899
vt 0.39664713 0.9084899
vt 0.39664713 0.9084899
vt 0.39664713 0.9084899
vt 0.39664713 0.9084899
vt 0.39664713 0.9084899
vt 0.39664713 0.9084899
vt 0.39664713 0.9084899
vt 0.39664713 0.9084899
vn 0.89850175 -0.29311058 0.3267733
vn 0.89850175 -0.29311058 0.3267733
vn 0.89850175 -0.29311058 0.3267733
vn 0.69858116 0.5625573 0.44216934
vn 0.69858116 0.5625573 0.44216934
vn 0.69858116 0.5625573 0.44216934
vn -0.63535553 0.75538814 -0.1603501
vn -0.63535553 0.75538814 -0.1603501
vn -0.63535553 0.75538814 -0.1603501
vn -0.5660395 -0.41329378 0.71329355
vn -0.5660395 -0.41329378 0.71329355
vn -0.5660395 -0.41329378 0.71329355
vn -0.49408716 0.43894807 0.7504682
vn -0.49408716 0.43894807 0.7504682
vn -0.49408716 0.43894807 0.7504682
vn 0.3723239 0.8667866 -0.3317466
vn 0.3723239 0.8667866 -0.3317466
vn 0.3723239 0.8667866 -0.3317466
vn 0.7846843 0.47652206 0.39648113
vn 0.7846843 0.47652206 0.39648113
vn 0.7846843 0.47652206 0.39648113
vn 0.18364379 -0.7406317 -0.64632785
vn 0.18364379 -0.7406317 -0.64632785
vn 0.18364379 -0.7406317 -0.64632785
vn -0.7981215 0.41896755 0.4329762
vn -0.7981215 0.41896755 0.4329762
vn -0.7981215 0.41896755 0.4329762
vn -0.43210343 -0.25422695 0.8652486
vn -0.43210343 -0.25422695 0.8652486
vn -0.43210343 -0.25422695 0.8652486
vn -0.14352839 0.9811896 -0.12909952
vn -0.14352839 0.9811896 -0.12909952
vn -0.14352839 0.9811896 -0.12909952
vn -0.31712338 0.5625572 0.7635195
vn -0.31712338 0.5625572 0.7635195
vn -0.31712338 0.5625572 0.7635195
vn 0.07313045 0.29374516 -0.95308214
vn 0.07313045 0.29374516 -0.95308214
vn 0.07313045 0.29374516 -0.95308214
vn -0.7990525 -0.41329432 -0.4366955
vn -0.7990525 -0.41329432 -0.4366955
vn -0.7990525 -0.41329432 -0.4366955
vn -0.81247264 0.41278517 -0.41169947
vn -0.81247264 0.41278517 -0.41169947
vn -0.81247264 0.41278517 -0.41169947
vn 0.4961101 0.82400006 0.2736762
vn 0.4961101 0.82400006 0.2736762
vn 0.4961101 0.82400006 0.2736762
vn -0 1 0
vn -0 1 0
vn -0 1 0
vn -0.2574781 0.4765222 0.84061384
vn -0.2574781 0.4765222 0.84061384
vn -0.2574781 0.4765222 0.84061384
vn 0.7757191 -0.6256369 0.08269488
vn 0.7757191 -0.6256369 0.08269488
vn 0.7757191 -0.6256369 0.08269488
vn -0.5622164 0.41896716 -0.7130073
vn -0.5622164 0.41896716 -0.7130073
vn -0.5622164 0.41896716 -0.7130073
vn -0 0 -1
vn -0 0 -1
vn -0 0 -1
vn -0 0 -1
vn -0 0 -1
vn -0 0 -1
vn -0 0 -1
vn -0 -1 0
vn -0 -1 0
vn -0 -1 0
vn -0 -1 0
vn -0 -1 0
vn -0 -1 0
vn -0 -1 0
vn -0 1 0
vn -0 1 0
vn -0 1 0
vn -0 1 0
vn -0 1 0
vn -0 1 0
vn -0 1 0
vn -0 1 0
vn -0 1 0
vn -0 1 0
vn -0 1 0
vn -0.99474937 0.09870143 -0.027049169
vn -0.99474937 0.09870143 -0.027049169
vn -0.99474937 0.09870143 -0.027049169
vn -0.99474937 0.09870143 -0.027049169
vn -0.99474937 0.09870143 -0.027049169
vn -0.99474937 0.09870143 -0.027049169
vn -0.99474937 0.09870143 -0.027049169
vn -0 0 1
vn -0 0 1
vn -0 0 1
vn -0 0 1
vn -0 0 1
vn -0 0 1
vn -0 0 1
vn -0 0 1
vn -0 0 1
vn -0 0 1
vn -0 0 1
vn 1 0 0
vn 1 0 0
vn 1 0 0
vn 1 0 0
vn 1 0 0
vn 1 0 0
vn 1 0 0
vn 1 0 0
vn 0.98547703 0 -0.16980842
vn 0.98547703 0 -0.16980842
vn 0.98547703 0 -0.16980842
vn 0.98547703 0 -0.16980842
vn 0.98547703 0 -0.16980842
vn -0 -1 0
vn -0 -1 0
vn -0 -1 0
vn -0 -1 0
vn -0 -1 0
vn -0 -1 0
vn -0 -1 0
vn -0.16863985 -0.0013240644 -0.9856769
vn -0.16863985 -0.0013240644 -0.9856769
vn -0.16863985 -0.0013240644 -0.9856769
vn -0.16863985 -0.0013240644 -0.9856769
vn -0.16863985 -0.0013240644 -0.9856769
vn -0.16863985 -0.0013240644 -0.9856769
vn -0.16863985 -0.0013240644 -0.9856769
vn -0.97767466 0.12716554 0.16727592
vn -0.97767466 0.12716554 0.16727592
vn -0.97767466 0.12716554 0.16727592
vn -0.97767466 0.12716554 0.16727592
vn -0.97767466 0.12716554 0.16727592
vn -0.97767466 0.12716554 0.16727592
vn 0.22417171 0.9680157 -0.112661116
vn 0.22417171 0.9680157 -0.112661116
vn 0.22417171 0.9680157 -0.112661116
vn 0.22417171 0.9680157 -0.112661116
vn 0.22417171 0.9680157 -0.112661116
vn 0.22417171 0.9680157 -0.112661116
vn 0.22417171 0.9680157 -0.112661116
vn 0.22417171 0.9680157 -0.112661116
vn 0.22417171 0.9680157 -0.112661116
vn 0.22417171 0.9680157 -0.112661116
vn 0.08633994 0.06305123 0.99426854
vn 0.08633994 0.06305123 0.99426854
vn 0.08633994 0.06305123 0.99426854
vn 0.08633994 0.06305123 0.99426854
vn 0.08633994 0.06305123 0.99426854
vn 0.08633994 0.06305123 0.99426854
vn 0.08633994 0.06305123 0.99426854
vn 0.08633994 0.06305123 0.99426854
vn 0.9973869 -0.004868773 -0.07208119
vn 0.9973869 -0.004868773 -0.07208119
vn 0.9973869 -0.004868773 -0.07208119
vn 0.9973869 -0.004868773 -0.07208119
vn 0.9973869 -0.004868773 -0.07208119
vn -0.9527437 0.17486069 0.24840137
vn -0.9527437 0.17486069 0.24840137
vn -0.9527437 0.17486069 0.24840137
vn -0.9527437 0.17486069 0.24840137
vn -0.9527437 0.17486069 0.24840137
vn -0.9527437 0.17486069 0.24840137
vn -0.9527437 0.17486069 0.24840137
g Box_02_0
f 3/3/3 2/2/2 1/1/1
f 6/6/6 5/5/5 4/4/4
f 9/9/9 8/8/8 7/7/7
f 12/12/12 11/11/11 10/10/10
f 15/15/15 14/14/14 13/13/13
f 18/18/18 17/17/17 16/16/16
f 21/21/21 20/20/20 19/19/19
f 24/24/24 23/23/23 22/22/22
f 27/27/27 26/26/26 25/25/25
f 30/30/30 29/29/29 28/28/28
f 33/33/33 32/32/32 31/31/31
f 36/36/36 35/35/35 34/34/34
f 39/39/39 38/38/38 37/37/37
f 42/42/42 41/41/41 40/40/40
f 45/45/45 44/44/44 43/43/43
f 48/48/48 47/47/47 46/46/46
f 51/51/51 50/50/50 49/49/49
f 54/54/54 53/53/53 52/52/52
f 57/57/57 56/56/56 55/55/55
f 60/60/60 59/59/59 58/58/58
f 63/63/63 62/62/62 61/61/61
f 61/61/61 64/64/64 63/63/63
f 61/61/61 65/65/65 64/64/64
f 61/61/61 66/66/66 65/65/65
f 66/66/66 67/67/67 65/65/65
f 70/70/70 69/69/69 68/68/68
f 68/68/68 71/71/71 70/70/70
f 68/68/68 72/72/72 71/71/71
f 72/72/72 73/73/73 71/71/71
f 73/73/73 74/74/74 71/71/71
f 77/77/77 76/76/76 75/75/75
f 78/78/78 77/77/77 75/75/75
f 79/79/79 77/77/77 78/78/78
f 79/79/79 78/78/78 80/80/80
f 79/79/79 80/80/80 81/81/81
f 81/81/81 82/82/82 79/79/79
f 79/79/79 83/83/83 77/77/77
f 83/83/83 84/84/84 77/77/77
f 77/77/77 84/84/84 85/85/85
f 88/88/88 87/87/87 86/86/86
f 86/86/86 89/89/89 88/88/88
f 89/89/89 90/90/90 88/88/88
f 90/90/90 91/91/91 88/88/88
f 90/90/90 92/92/92 91/91/91
f 95/95/95 94/94/94 93/93/93
f 93/93/93 96/96/96 95/95/95
f 93/93/93 97/97/97 96/96/96
f 93/93/93 98/98/98 97/97/97
f 98/98/98 99/99/99 97/97/97
f 99/99/99 100/100/100 97/97/97
f 100/100/100 101/101/101 97/97/97
f 101/101/101 102/102/102 97/97/97
f 101/101/101 103/103/103 102/102/102
f 106/106/106 105/105/105 104/104/104
f 104/104/104 107/107/107 106/106/106
f 104/104/104 108/108/108 107/107/107
f 108/108/108 109/109/109 107/107/107
f 108/108/108 110/110/110 109/109/109
f 108/108/108 111/111/111 110/110/110
f 114/114/114 113/113/113 112/112/112
f 112/112/112 115/115/115 114/114/114
f 112/112/112 116/116/116 115/115/115
f 119/119/119 118/118/118 117/117/117
f 117/117/117 120/120/120 119/119/119
f 117/117/117 121/121/121 120/120/120
f 117/117/117 122/122/122 121/121/121
f 122/122/122 123/123/123 121/121/121
f 126/126/126 125/125/125 124/124/124
f 124/124/124 127/127/127 126/126/126
f 124/124/124 128/128/128 127/127/127
f 124/124/124 129/129/129 128/128/128
f 124/124/124 130/130/130 129/129/129
f 133/133/133 132/132/132 131/131/131
f 131/131/131 134/134/134 133/133/133
f 134/134/134 135/135/135 133/133/133
f 134/134/134 136/136/136 135/135/135
f 139/139/139 138/138/138 137/137/137
f 137/137/137 140/140/140 139/139/139
f 137/137/137 141/141/141 140/140/140
f 141/141/141 142/142/142 140/140/140
f 142/142/142 143/143/143 140/140/140
f 143/143/143 144/144/144 140/140/140
f 143/143/143 145/145/145 144/144/144
f 145/145/145 146/146/146 144/144/144
f 149/149/149 148/148/148 147/147/147
f 147/147/147 150/150/150 149/149/149
f 147/147/147 151/151/151 150/150/150
f 147/147/147 152/152/152 151/151/151
f 152/152/152 153/153/153 151/151/151
f 153/153/153 154/154/154 151/151/151
f 157/157/157 156/156/156 155/155/155
f 155/155/155 158/158/158 157/157/157
f 155/155/155 159/159/159 158/158/158
f 162/162/162 161/161/161 160/160/160
f 160/160/160 163/163/163 162/162/162
f 163/163/163 164/164/164 162/162/162
f 163/163/163 165/165/165 164/164/164
f 165/165/165 166/166/166 164/164/164
