g Box_01
v 0.5 3.3611144E-08 0.20630372
v 0.39318657 8.146034E-08 0.5
v 0.5 0.32742608 0.49999994
v 0.33882904 1.0000001 0.49999985
v 0.5 1 0.245367
v 0.5 0.7998586 0.49999988
v -0.5 0.75717276 -0.5000001
v -0.21129751 0.99999994 -0.5000002
v -0.2882588 0.99999994 -0.19505648
v -0.5 6.3207615E-08 0.38796556
v -0.5 0.19335748 0.49999997
v -0.35881996 8.146034E-08 0.5
v -0.5 0.88225824 0.49999985
v -0.5 1.0000001 0.3860676
v -0.4381924 1.0000001 0.49999985
v 0.24352738 0.19870235 -0.50000006
v 0.07228279 -8.146034E-08 -0.5
v 0.5 -2.7194647E-08 -0.16691954
v 0.5 0.15624131 -0.378471
v 0.5 -2.7194647E-08 -0.16691954
v 0.07228279 -8.146034E-08 -0.5
v -0.5 -8.146034E-08 -0.5
v -0.5 6.3207615E-08 0.38796556
v 0.5 3.3611144E-08 0.20630372
v 0.39318657 8.146034E-08 0.5
v -0.35881996 8.146034E-08 0.5
v -0.5 6.3207615E-08 0.38796556
v -0.5 -8.146034E-08 -0.5
v -0.5 0.75717276 -0.5000001
v -0.5 0.19335748 0.49999997
v -0.5 0.88225824 0.49999985
v -0.2882588 0.99999994 -0.19505648
v -0.5 1.0000001 0.3860676
v 0.33882904 1.0000001 0.49999985
v 0.5 0.7998586 0.49999988
v 0.5 0.32742608 0.49999994
v 0.39318657 8.146034E-08 0.5
v -0.35881996 8.146034E-08 0.5
v -0.4381924 1.0000001 0.49999985
v -0.5 0.19335748 0.49999997
v -0.5 0.88225824 0.49999985
v -0.2882588 0.99999994 -0.19505648
v -0.21129751 0.99999994 -0.5000002
v 0.1760862 0.99999994 -0.5000002
v 0.5 1 -0.13646723
v -0.5 1.0000001 0.3860676
v 0.5 1 0.245367
v 0.33882904 1.0000001 0.49999985
v -0.4381924 1.0000001 0.49999985
v 0.5 0.8568265 -0.37494695
v 0.38857555 0.8568265 -0.5000001
v 0.24352738 0.19870235 -0.50000006
v 0.5 0.15624131 -0.378471
v 0.24352738 0.19870235 -0.50000006
v 0.38857555 0.8568265 -0.5000001
v 0.1760862 0.99999994 -0.5000002
v 0.07228279 -8.146034E-08 -0.5
v -0.21129751 0.99999994 -0.5000002
v -0.5 -8.146034E-08 -0.5
v -0.5 0.75717276 -0.5000001
v 0.5 0.8568265 -0.37494695
v 0.5 1 -0.13646723
v 0.1760862 0.99999994 -0.5000002
v 0.38857555 0.8568265 -0.5000001
v 0.5 0.15624131 -0.378471
v 0.5 -2.7194647E-08 -0.16691954
v 0.5 3.3611144E-08 0.20630372
v 0.5 0.32742608 0.49999994
v 0.5 0.8568265 -0.37494695
v 0.5 0.7998586 0.49999988
v 0.5 1 0.245367
v 0.5 1 -0.13646723
vt 0.3929559 0.91833305
vt 0.3929559 0.91833305
vt 0.3929559 0.91833305
vt 0.3929559 0.91833305
vt 0.3929559 0.91833305
vt 0.3929559 0.91833305
vt 0.3929559 0.91833305
vt 0.3929559 0.91833305
vt 0.3929559 0.91833305
vt 0.3929559 0.91833305
vt 0.3929559 0.91833305
vt 0.3929559 0.91833305
vt 0.3929559 0.91833305
vt 0.3929559 0.91833305
vt 0.3929559 0.91833305
vt 0.3929559 0.91833305
vt 0.3929559 0.91833305
vt 0.3929559 0.91833305
vt 0.3929559 0.91833305
vt 0.3929559 0.91833305
vt 0.3929559 0.91833305
vt 0.3929559 0.91833305
vt 0.3929559 0.91833305
vt 0.3929559 0.91833305
vt 0.3929559 0.91833305
vt 0.3929559 0.91833305
vt 0.3929559 0.91833305
vt 0.3929559 0.91833305
vt 0.3929559 0.91833305
vt 0.3929559 0.91833305
vt 0.3929559 0.91833305
vt 0.3929559 0.91833305
vt 0.3929559 0.91833305
vt 0.3929559 0.91833305
vt 0.3929559 0.91833305
vt 0.3929559 0.91833305
vt 0.3929559 0.91833305
vt 0.3929559 0.91833305
vt 0.3929559 0.91833305
vt 0.3929559 0.91833305
vt 0.3929559 0.91833305
vt 0.3929559 0.91833305
vt 0.3929559 0.91833305
vt 0.3929559 0.91833305
vt 0.3929559 0.91833305
vt 0.3929559 0.91833305
vt 0.3929559 0.91833305
vt 0.3929559 0.91833305
vt 0.3929559 0.91833305
vt 0.3929559 0.91833305
vt 0.3929559 0.91833305
vt 0.3929559 0.91833305
vt 0.3929559 0.91833305
vt 0.3929559 0.91833305
vt 0.3929559 0.91833305
vt 0.3929559 0.91833305
vt 0.3929559 0.91833305
vt 0.3929559 0.91833305
vt 0.3929559 0.91833305
vt 0.3929559 0.91833305
vt 0.3929559 0.91833305
vt 0.3929559 0.91833305
vt 0.3929559 0.91833305
vt 0.3929559 0.91833305
vt 0.3929559 0.91833305
vt 0.3929559 0.91833305
vt 0.3929559 0.91833305
vt 0.3929559 0.91833305
vt 0.3929559 0.91833305
vt 0.3929559 0.91833305
vt 0.3929559 0.91833305
vt 0.3929559 0.91833305
vn 0.89850175 -0.29311058 0.3267733
vn 0.89850175 -0.29311058 0.3267733
vn 0.89850175 -0.29311058 0.3267733
vn 0.69858116 0.5625573 0.44216934
vn 0.69858116 0.5625573 0.44216934
vn 0.69858116 0.5625573 0.44216934
vn -0.63535553 0.75538814 -0.1603501
vn -0.63535553 0.75538814 -0.1603501
vn -0.63535553 0.75538814 -0.1603501
vn -0.5660395 -0.41329378 0.71329355
vn -0.5660395 -0.41329378 0.71329355
vn -0.5660395 -0.41329378 0.71329355
vn -0.7981215 0.41896755 0.4329762
vn -0.7981215 0.41896755 0.4329762
vn -0.7981215 0.41896755 0.4329762
vn 0.41422105 -0.6050857 -0.6799208
vn 0.41422105 -0.6050857 -0.6799208
vn 0.41422105 -0.6050857 -0.6799208
vn 0.41422105 -0.6050857 -0.6799208
vn -0 -1 0
vn -0 -1 0
vn -0 -1 0
vn -0 -1 0
vn -0 -1 0
vn -0 -1 0
vn -0 -1 0
vn -0.99474937 0.09870143 -0.027049169
vn -0.99474937 0.09870143 -0.027049169
vn -0.99474937 0.09870143 -0.027049169
vn -0.99474937 0.09870143 -0.027049169
vn -0.99474937 0.09870143 -0.027049169
vn -0.99474937 0.09870143 -0.027049169
vn -0.99474937 0.09870143 -0.027049169
vn -0 0 1
vn -0 0 1
vn -0 0 1
vn -0 0 1
vn -0 0 1
vn -0 0 1
vn -0 0 1
vn -0 0 1
vn -0 1 0
vn -0 1 0
vn -0 1 0
vn -0 1 0
vn -0 1 0
vn -0 1 0
vn -0 1 0
vn -0 1 0
vn 0.5513388 -0.05669901 -0.8323526
vn 0.5513388 -0.05669901 -0.8323526
vn 0.5513388 -0.05669901 -0.8323526
vn 0.5513388 -0.05669901 -0.8323526
vn -0 0 -1
vn -0 0 -1
vn -0 0 -1
vn -0 0 -1
vn -0 0 -1
vn -0 0 -1
vn -0 0 -1
vn 0.50021386 0.74238694 -0.4456992
vn 0.50021386 0.74238694 -0.4456992
vn 0.50021386 0.74238694 -0.4456992
vn 0.50021386 0.74238694 -0.4456992
vn 1 0 0
vn 1 0 0
vn 1 0 0
vn 1 0 0
vn 1 0 0
vn 1 0 0
vn 1 0 0
vn 1 0 0
g Box_01_0
f 3/3/3 2/2/2 1/1/1
f 6/6/6 5/5/5 4/4/4
f 9/9/9 8/8/8 7/7/7
f 12/12/12 11/11/11 10/10/10
f 15/15/15 14/14/14 13/13/13
f 18/18/18 17/17/17 16/16/16
f 19/19/19 18/18/18 16/16/16
f 22/22/22 21/21/21 20/20/20
f 20/20/20 23/23/23 22/22/22
f 20/20/20 24/24/24 23/23/23
f 24/24/24 25/25/25 23/23/23
f 25/25/25 26/26/26 23/23/23
f 29/29/29 28/28/28 27/27/27
f 27/27/27 30/30/30 29/29/29
f 30/30/30 31/31/31 29/29/29
f 31/31/31 32/32/32 29/29/29
f 31/31/31 33/33/33 32/32/32
f 36/36/36 35/35/35 34/34/34
f 34/34/34 37/37/37 36/36/36
f 34/34/34 38/38/38 37/37/37
f 34/34/34 39/39/39 38/38/38
f 39/39/39 40/40/40 38/38/38
f 39/39/39 41/41/41 40/40/40
f 44/44/44 43/43/43 42/42/42
f 42/42/42 45/45/45 44/44/44
f 42/42/42 46/46/46 45/45/45
f 46/46/46 47/47/47 45/45/45
f 46/46/46 48/48/48 47/47/47
f 46/46/46 49/49/49 48/48/48
f 52/52/52 51/51/51 50/50/50
f 53/53/53 52/52/52 50/50/50
f 56/56/56 55/55/55 54/54/54
f 54/54/54 57/57/57 56/56/56
f 57/57/57 58/58/58 56/56/56
f 57/57/57 59/59/59 58/58/58
f 59/59/59 60/60/60 58/58/58
f 63/63/63 62/62/62 61/61/61
f 64/64/64 63/63/63 61/61/61
f 67/67/67 66/66/66 65/65/65
f 65/65/65 68/68/68 67/67/67
f 65/65/65 69/69/69 68/68/68
f 69/69/69 70/70/70 68/68/68
f 69/69/69 71/71/71 70/70/70
f 69/69/69 72/72/72 71/71/71
