g Bridge
v 0.8 -0.050000086 -0.5
v 0.8 0.68857145 -0.5000001
v 0.8 0.73857147 -0.4500001
v 0.8 -7.3314304E-08 -0.45
v 0.8 0.7385715 -0.05000012
v 0.8 -8.146034E-09 -0.05
v 0.8 0.7385715 -1.2069891E-07
v 0.8 -0.050000004 8.146035E-09
v 0.8 0.7385715 0.04999988
v 0.8 8.146034E-09 0.05
v 0.8 0.7385716 0.44999987
v 0.8 7.3314304E-08 0.45
v 0.8 0.6885716 0.49999988
v 0.8 -0.049999923 0.5
v 0.8 -0.39999995 0.16666672
v 0.8 -0.3999999 0.50000006
v 1 -0.3999999 0.50000006
v 1 -0.39999995 0.16666672
v 0.8 -0.40000007 -0.49999994
v 1 -0.40000007 -0.49999994
v 1 -0.050000086 -0.5
v 0.8 -0.050000086 -0.5
v 1 -7.3314304E-08 -0.45
v 1 0.68857145 -0.5000001
v 1 -0.050000086 -0.5
v 1 0.73857147 -0.4500001
v 1 -8.146034E-09 -0.05
v 1 0.7385715 -0.05000012
v 1 -0.050000004 8.146035E-09
v 1 0.7385715 -1.2069891E-07
v 1 8.146034E-09 0.05
v 1 0.7385715 0.04999988
v 1 7.3314304E-08 0.45
v 1 0.7385716 0.44999987
v 1 -0.04999992 0.5
v 1 0.6885716 0.49999988
v -0.79999995 -0.3999999 0.50000006
v -1 -0.3999999 0.50000006
v -1 -0.049999923 0.5
v -0.79999995 -0.049999923 0.5
v 1 -0.3999999 0.50000006
v 0.8 -0.3999999 0.50000006
v 0.8 -0.049999923 0.5
v 1 -0.04999992 0.5
v 0.8 -0.3999999 0.50000006
v -0.79999995 -0.3999999 0.50000006
v -0.79999995 -0.049999923 0.5
v 0.8 -0.049999923 0.5
v -0.79999995 -7.3314304E-08 -0.45
v -0.79999995 0.68857145 -0.5000001
v -0.79999995 -0.050000086 -0.5
v -0.79999995 0.73857147 -0.4500001
v -0.79999995 -8.146034E-09 -0.05
v -0.79999995 0.7385715 -0.05000012
v -0.79999995 -0.050000004 8.146035E-09
v -0.79999995 0.7385715 -1.2069891E-07
v -0.79999995 8.146034E-09 0.05
v -0.79999995 0.7385715 0.04999988
v -0.79999995 7.3314304E-08 0.45
v -0.79999995 0.7385716 0.44999987
v -0.79999995 -0.049999923 0.5
v -0.79999995 0.6885716 0.49999988
v 0.8 7.3314304E-08 0.45
v 0.8 -0.049999923 0.5
v -0.79999995 -0.049999923 0.5
v -0.79999995 7.3314304E-08 0.45
v -0.79999995 -7.3314304E-08 -0.45
v -0.79999995 -0.050000086 -0.5
v 0.8 -0.050000086 -0.5
v 0.8 -7.3314304E-08 -0.45
v -1 -0.40000007 -0.49999994
v -0.79999995 -0.40000007 -0.49999994
v -0.79999995 -0.050000086 -0.5
v -1 -0.050000083 -0.5
v -0.79999995 -0.40000007 -0.49999994
v 0.8 -0.40000007 -0.49999994
v 0.8 -0.050000086 -0.5
v -0.79999995 -0.050000086 -0.5
v -1 -0.39999995 0.16666672
v -1 -0.3999999 0.50000006
v -0.79999995 -0.3999999 0.50000006
v -0.79999995 -0.39999995 0.16666672
v -0.79999995 -0.39999995 0.16666672
v -0.79999995 -0.3999999 0.50000006
v 0.8 -0.3999999 0.50000006
v 0.8 -0.39999995 0.16666672
v -0.79999995 -0.4 -0.1666666
v 0.8 -0.4 -0.1666666
v -0.79999995 -0.40000007 -0.49999994
v 0.8 -0.40000007 -0.49999994
v 0.8 8.146034E-09 0.05
v 0.8 7.3314304E-08 0.45
v -0.79999995 7.3314304E-08 0.45
v -0.79999995 8.146034E-09 0.05
v 0.8 -7.3314304E-08 -0.45
v 0.8 -8.146034E-09 -0.05
v -0.79999995 -8.146034E-09 -0.05
v -0.79999995 -7.3314304E-08 -0.45
v 1 -0.050000004 8.146035E-09
v 1 -8.146034E-09 -0.05
v 1 -7.3314304E-08 -0.45
v 1 -0.050000086 -0.5
v 1 -0.3999999 0.50000006
v 1 -0.04999992 0.5
v 1 8.146034E-09 0.05
v 1 7.3314304E-08 0.45
v 1 -0.39999995 0.16666672
v 1 -0.4 -0.1666666
v 1 -0.40000007 -0.49999994
v 1 -2 0.16666698
v 1 -2 -0.16666633
v -1 -0.4 -0.1666666
v -1 -0.40000007 -0.49999994
v -1 -0.050000083 -0.5
v -1 -0.39999995 0.16666672
v -1 -2 -0.16666633
v -1 -2 0.16666698
v -1 -0.3999999 0.50000006
v -1 -0.050000004 8.146035E-09
v -1 -7.3314304E-08 -0.45
v -1 -8.146034E-09 -0.05
v -1 -0.049999923 0.5
v -1 8.146034E-09 0.05
v -1 7.3314304E-08 0.45
v -0.79999995 -0.050000004 8.146035E-09
v -0.79999995 -8.146034E-09 -0.05
v 0.8 -8.146034E-09 -0.05
v 0.8 -0.050000004 8.146035E-09
v -1 -0.050000083 -0.5
v -1 0.68857145 -0.5000001
v -1 0.73857147 -0.4500001
v -1 -7.3314304E-08 -0.45
v -1 0.7385715 -0.05000012
v -1 -8.146034E-09 -0.05
v -1 0.7385715 -1.2069891E-07
v -1 -0.050000004 8.146035E-09
v -1 0.7385715 0.04999988
v -1 8.146034E-09 0.05
v -1 0.7385716 0.44999987
v -1 7.3314304E-08 0.45
v -1 0.6885716 0.49999988
v -1 -0.049999923 0.5
v -0.79999995 8.146034E-09 0.05
v -0.79999995 -0.050000004 8.146035E-09
v 0.8 -0.050000004 8.146035E-09
v 0.8 8.146034E-09 0.05
v -1 -0.40000007 -0.49999994
v -1 -0.4 -0.1666666
v -0.79999995 -0.4 -0.1666666
v -0.79999995 -0.40000007 -0.49999994
v 1 -0.39999995 0.16666672
v 1 -2 0.16666698
v 0.8 -2 0.16666698
v 0.8 -0.39999995 0.16666672
v 0.8 -0.40000007 -0.49999994
v 0.8 -0.4 -0.1666666
v 1 -0.4 -0.1666666
v 1 -0.40000007 -0.49999994
v -1 -0.4 -0.1666666
v -1 -2 -0.16666633
v -0.79999995 -2 -0.16666633
v -0.79999995 -0.4 -0.1666666
v -1 -2 -0.16666633
v -1 -2 0.16666698
v -0.79999995 -2 0.16666698
v -0.79999995 -2 -0.16666633
v 0.8 -2 -0.16666633
v 0.8 -2 0.16666698
v 1 -2 0.16666698
v 1 -2 -0.16666633
v -0.79999995 -0.39999995 0.16666672
v -0.79999995 -2 0.16666698
v -1 -2 0.16666698
v -1 -0.39999995 0.16666672
v 0.8 -0.39999995 0.16666672
v 0.8 -2 0.16666698
v 0.8 -2 -0.16666633
v 0.8 -0.4 -0.1666666
v -0.79999995 -0.4 -0.1666666
v -0.79999995 -2 -0.16666633
v -0.79999995 -2 0.16666698
v -0.79999995 -0.39999995 0.16666672
v 0.8 -0.4 -0.1666666
v 0.8 -2 -0.16666633
v 1 -2 -0.16666633
v 1 -0.4 -0.1666666
v 1 0.73857147 -0.4500001
v 0.8 0.7385715 -0.05000012
v 0.8 0.73857147 -0.4500001
v 1 0.7385715 -0.05000012
v 0.8 0.7385715 -1.2069891E-07
v 1 0.7385715 -1.2069891E-07
v 0.8 0.7385715 0.04999988
v 1 0.7385715 0.04999988
v 0.8 0.7385716 0.44999987
v 1 0.7385716 0.44999987
v -0.79999995 0.7385715 0.04999988
v -0.79999995 0.7385716 0.44999987
v -1 0.7385716 0.44999987
v -1 0.7385715 0.04999988
v -0.79999995 0.7385715 -1.2069891E-07
v -1 0.7385715 -1.2069891E-07
v -0.79999995 0.7385715 -0.05000012
v -1 0.7385715 -0.05000012
v -0.79999995 0.73857147 -0.4500001
v -1 0.73857147 -0.4500001
v 0.8 0.73857147 -0.4500001
v 0.8 0.68857145 -0.5000001
v 1 0.68857145 -0.5000001
v 1 0.73857147 -0.4500001
v -0.79999995 0.7385716 0.44999987
v -0.79999995 0.6885716 0.49999988
v -1 0.6885716 0.49999988
v -1 0.7385716 0.44999987
v 1 0.7385716 0.44999987
v 1 0.6885716 0.49999988
v 0.8 0.6885716 0.49999988
v 0.8 0.7385716 0.44999987
v -1 0.73857147 -0.4500001
v -1 0.68857145 -0.5000001
v -0.79999995 0.68857145 -0.5000001
v -0.79999995 0.73857147 -0.4500001
v -0.79999995 -0.050000086 -0.5
v -0.79999995 0.68857145 -0.5000001
v -1 0.68857145 -0.5000001
v -1 -0.050000083 -0.5
v 1 -0.050000086 -0.5
v 1 0.68857145 -0.5000001
v 0.8 0.68857145 -0.5000001
v 0.8 -0.050000086 -0.5
v 0.8 -0.049999923 0.5
v 0.8 0.6885716 0.49999988
v 1 0.6885716 0.49999988
v 1 -0.04999992 0.5
v -1 -0.049999923 0.5
v -1 0.6885716 0.49999988
v -0.79999995 0.6885716 0.49999988
v -0.79999995 -0.049999923 0.5
vt 0.4121094 0.120117255
vt 0.4121094 0.120117255
vt 0.4121094 0.120117255
vt 0.4121094 0.120117255
vt 0.4121094 0.120117255
vt 0.4121094 0.120117255
vt 0.4121094 0.120117255
vt 0.4121094 0.120117255
vt 0.4121094 0.120117255
vt 0.4121094 0.120117255
vt 0.4121094 0.120117255
vt 0.4121094 0.120117255
vt 0.4121094 0.120117255
vt 0.4121094 0.120117255
vt 0.43164062 0.11425787
vt 0.43164062 0.11425787
vt 0.43164062 0.11425787
vt 0.43164065 0.11425788
vt 0.43164062 0.11425787
vt 0.43164062 0.11425787
vt 0.43164062 0.11425787
vt 0.43164062 0.11425787
vt 0.4121094 0.120117255
vt 0.4121094 0.120117255
vt 0.4121094 0.120117255
vt 0.4121094 0.120117255
vt 0.4121094 0.120117255
vt 0.4121094 0.120117255
vt 0.4121094 0.120117255
vt 0.4121094 0.120117255
vt 0.4121094 0.120117255
vt 0.4121094 0.120117255
vt 0.4121094 0.120117255
vt 0.4121094 0.120117255
vt 0.4121094 0.120117255
vt 0.4121094 0.120117255
vt 0.43164062 0.11425787
vt 0.43164062 0.11425787
vt 0.43164062 0.11425787
vt 0.43164062 0.11425787
vt 0.43164062 0.11425787
vt 0.43164062 0.11425787
vt 0.43164062 0.11425787
vt 0.43164062 0.11425787
vt 0.3515625 0.1083985
vt 0.3515625 0.1083985
vt 0.3515625 0.1083985
vt 0.3515625 0.1083985
vt 0.4121094 0.120117255
vt 0.4121094 0.120117255
vt 0.4121094 0.120117255
vt 0.4121094 0.120117255
vt 0.4121094 0.120117255
vt 0.4121094 0.120117255
vt 0.4121094 0.120117255
vt 0.4121094 0.120117255
vt 0.4121094 0.120117255
vt 0.4121094 0.120117255
vt 0.4121094 0.120117255
vt 0.4121094 0.120117255
vt 0.4121094 0.120117255
vt 0.4121094 0.120117255
vt 0.3515625 0.1083985
vt 0.3515625 0.1083985
vt 0.3515625 0.1083985
vt 0.3515625 0.1083985
vt 0.42382812 0.09375006
vt 0.42382812 0.09375006
vt 0.42382812 0.09375006
vt 0.42382812 0.09375006
vt 0.43164062 0.11425787
vt 0.43164062 0.11425787
vt 0.43164062 0.11425787
vt 0.43164062 0.11425787
vt 0.3515625 0.1083985
vt 0.3515625 0.1083985
vt 0.3515625 0.1083985
vt 0.3515625 0.1083985
vt 0.43164065 0.11425788
vt 0.43164062 0.11425787
vt 0.43164062 0.11425787
vt 0.43164062 0.11425787
vt 0.3515625 0.1083985
vt 0.3515625 0.1083985
vt 0.3515625 0.1083985
vt 0.3515625 0.1083985
vt 0.3515625 0.1083985
vt 0.3515625 0.1083985
vt 0.3515625 0.1083985
vt 0.3515625 0.1083985
vt 0.3515625 0.1083985
vt 0.3515625 0.1083985
vt 0.3515625 0.1083985
vt 0.3515625 0.1083985
vt 0.3515625 0.1083985
vt 0.3515625 0.1083985
vt 0.3515625 0.1083985
vt 0.3515625 0.1083985
vt 0.43164068 0.11425789
vt 0.43164065 0.11425788
vt 0.43164062 0.11425787
vt 0.43164062 0.11425787
vt 0.43164062 0.11425787
vt 0.43164062 0.11425787
vt 0.43164065 0.11425788
vt 0.43164062 0.11425787
vt 0.43164065 0.11425788
vt 0.43164065 0.11425788
vt 0.43164062 0.11425787
vt 0.43164065 0.11425788
vt 0.43164065 0.11425788
vt 0.43164065 0.11425788
vt 0.43164062 0.11425787
vt 0.43164062 0.11425787
vt 0.43164065 0.11425788
vt 0.43164065 0.11425788
vt 0.43164065 0.11425788
vt 0.43164062 0.11425787
vt 0.43164068 0.11425789
vt 0.43164062 0.11425787
vt 0.43164065 0.11425788
vt 0.43164062 0.11425787
vt 0.43164065 0.11425788
vt 0.43164062 0.11425787
vt 0.3515625 0.1083985
vt 0.3515625 0.1083985
vt 0.3515625 0.1083985
vt 0.3515625 0.1083985
vt 0.4121094 0.120117255
vt 0.4121094 0.120117255
vt 0.4121094 0.120117255
vt 0.4121094 0.120117255
vt 0.4121094 0.120117255
vt 0.4121094 0.120117255
vt 0.4121094 0.120117255
vt 0.4121094 0.120117255
vt 0.4121094 0.120117255
vt 0.4121094 0.120117255
vt 0.4121094 0.120117255
vt 0.4121094 0.120117255
vt 0.4121094 0.120117255
vt 0.4121094 0.120117255
vt 0.42382812 0.09375006
vt 0.42382812 0.09375006
vt 0.42382812 0.09375006
vt 0.42382812 0.09375006
vt 0.43164062 0.11425787
vt 0.43164065 0.11425788
vt 0.43164062 0.11425787
vt 0.43164062 0.11425787
vt 0.43164065 0.11425788
vt 0.43164065 0.11425788
vt 0.43164062 0.11425787
vt 0.43164062 0.11425787
vt 0.43164062 0.11425787
vt 0.43164062 0.11425787
vt 0.43164065 0.11425788
vt 0.43164062 0.11425787
vt 0.43164065 0.11425788
vt 0.43164065 0.11425788
vt 0.43164062 0.11425787
vt 0.43164062 0.11425787
vt 0.43164065 0.11425788
vt 0.43164065 0.11425788
vt 0.43164062 0.11425787
vt 0.43164062 0.11425787
vt 0.43164062 0.11425787
vt 0.43164062 0.11425787
vt 0.43164065 0.11425788
vt 0.43164065 0.11425788
vt 0.43164062 0.11425787
vt 0.43164062 0.11425787
vt 0.43164065 0.11425788
vt 0.43164065 0.11425788
vt 0.3515625 0.1083985
vt 0.3515625 0.1083985
vt 0.3515625 0.1083985
vt 0.3515625 0.1083985
vt 0.3515625 0.1083985
vt 0.3515625 0.1083985
vt 0.3515625 0.1083985
vt 0.3515625 0.1083985
vt 0.43164062 0.11425787
vt 0.43164062 0.11425787
vt 0.43164065 0.11425788
vt 0.43164065 0.11425788
vt 0.4121094 0.120117255
vt 0.4121094 0.120117255
vt 0.4121094 0.120117255
vt 0.4121094 0.120117255
vt 0.4121094 0.120117255
vt 0.4121094 0.120117255
vt 0.4121094 0.120117255
vt 0.4121094 0.120117255
vt 0.4121094 0.120117255
vt 0.4121094 0.120117255
vt 0.4121094 0.120117255
vt 0.4121094 0.120117255
vt 0.4121094 0.120117255
vt 0.4121094 0.120117255
vt 0.4121094 0.120117255
vt 0.4121094 0.120117255
vt 0.4121094 0.120117255
vt 0.4121094 0.120117255
vt 0.4121094 0.120117255
vt 0.4121094 0.120117255
vt 0.4121094 0.120117255
vt 0.4121094 0.120117255
vt 0.4121094 0.120117255
vt 0.4121094 0.120117255
vt 0.4121094 0.120117255
vt 0.4121094 0.120117255
vt 0.4121094 0.120117255
vt 0.4121094 0.120117255
vt 0.4121094 0.120117255
vt 0.4121094 0.120117255
vt 0.4121094 0.120117255
vt 0.4121094 0.120117255
vt 0.4121094 0.120117255
vt 0.4121094 0.120117255
vt 0.4121094 0.120117255
vt 0.4121094 0.120117255
vt 0.4121094 0.120117255
vt 0.4121094 0.120117255
vt 0.4121094 0.120117255
vt 0.4121094 0.120117255
vt 0.4121094 0.120117255
vt 0.4121094 0.120117255
vt 0.4121094 0.120117255
vt 0.4121094 0.120117255
vt 0.4121094 0.120117255
vt 0.4121094 0.120117255
vt 0.4121094 0.120117255
vt 0.4121094 0.120117255
vt 0.4121094 0.120117255
vt 0.4121094 0.120117255
vt 0.4121094 0.120117255
vt 0.4121094 0.120117255
vn -1 0 0
vn -1 0 0
vn -1 0 0
vn -1 0 0
vn -1 0 0
vn -1 0 0
vn -1 0 0
vn -1 0 0
vn -1 0 0
vn -1 0 0
vn -1 0 0
vn -1 0 0
vn -1 0 0
vn -1 0 0
vn -0 -1 0
vn -0 -1 0
vn -0 -1 0
vn -0 -1 0
vn -0 0 -1
vn -0 0 -1
vn -0 0 -1
vn -0 0 -1
vn 1 0 0
vn 1 0 0
vn 1 0 0
vn 1 0 0
vn 1 0 0
vn 1 0 0
vn 1 0 0
vn 1 0 0
vn 1 0 0
vn 1 0 0
vn 1 0 0
vn 1 0 0
vn 1 0 0
vn 1 0 0
vn -0 0 1
vn -0 0 1
vn -0 0 1
vn -0 0 1
vn -0 0 1
vn -0 0 1
vn -0 0 1
vn -0 0 1
vn -0 0 1
vn -0 0 1
vn -0 0 1
vn -0 0 1
vn 1 0 0
vn 1 0 0
vn 1 0 0
vn 1 0 0
vn 1 0 0
vn 1 0 0
vn 1 0 0
vn 1 0 0
vn 1 0 0
vn 1 0 0
vn 1 0 0
vn 1 0 0
vn 1 0 0
vn 1 0 0
vn -0 0.7071068 0.70710665
vn -0 0.7071068 0.70710665
vn -0 0.7071068 0.70710665
vn -0 0.7071068 0.70710665
vn -0 0.70710677 -0.70710677
vn -0 0.70710677 -0.70710677
vn -0 0.70710677 -0.70710677
vn -0 0.70710677 -0.70710677
vn -0 0 -1
vn -0 0 -1
vn -0 0 -1
vn -0 0 -1
vn -0 0 -1
vn -0 0 -1
vn -0 0 -1
vn -0 0 -1
vn -0 -1 0
vn -0 -1 0
vn -0 -1 0
vn -0 -1 0
vn -0 -1 0
vn -0 -1 0
vn -0 -1 0
vn -0 -1 0
vn -0 -1 0
vn -0 -1 0
vn -0 -1 0
vn -0 -1 0
vn -0 1 0
vn -0 1 0
vn -0 1 0
vn -0 1 0
vn -0 1 0
vn -0 1 0
vn -0 1 0
vn -0 1 0
vn 1 0 0
vn 1 0 0
vn 1 0 0
vn 1 0 0
vn 1 0 0
vn 1 0 0
vn 1 0 0
vn 1 0 0
vn 1 0 0
vn 1 0 0
vn 1 0 0
vn 1 0 0
vn 1 0 0
vn -1 0 0
vn -1 0 0
vn -1 0 0
vn -1 0 0
vn -1 0 0
vn -1 0 0
vn -1 0 0
vn -1 0 0
vn -1 0 0
vn -1 0 0
vn -1 0 0
vn -1 0 0
vn -1 0 0
vn -0 0.7071068 0.70710665
vn -0 0.7071068 0.70710665
vn -0 0.7071068 0.70710665
vn -0 0.7071068 0.70710665
vn -1 0 0
vn -1 0 0
vn -1 0 0
vn -1 0 0
vn -1 0 0
vn -1 0 0
vn -1 0 0
vn -1 0 0
vn -1 0 0
vn -1 0 0
vn -1 0 0
vn -1 0 0
vn -1 0 0
vn -1 0 0
vn -0 0.7071066 -0.7071069
vn -0 0.7071066 -0.7071069
vn -0 0.7071066 -0.7071069
vn -0 0.7071066 -0.7071069
vn -0 -1 0
vn -0 -1 0
vn -0 -1 0
vn -0 -1 0
vn -0 0 1
vn -0 0 1
vn -0 0 1
vn -0 0 1
vn -0 -1 0
vn -0 -1 0
vn -0 -1 0
vn -0 -1 0
vn -0 0 -1
vn -0 0 -1
vn -0 0 -1
vn -0 0 -1
vn -0 -1 0
vn -0 -1 0
vn -0 -1 0
vn -0 -1 0
vn -0 -1 0
vn -0 -1 0
vn -0 -1 0
vn -0 -1 0
vn -0 0 1
vn -0 0 1
vn -0 0 1
vn -0 0 1
vn -1 0 0
vn -1 0 0
vn -1 0 0
vn -1 0 0
vn 1 0 0
vn 1 0 0
vn 1 0 0
vn 1 0 0
vn -0 0 -1
vn -0 0 -1
vn -0 0 -1
vn -0 0 -1
vn -0 1 0
vn -0 1 0
vn -0 1 0
vn -0 1 0
vn -0 1 0
vn -0 1 0
vn -0 1 0
vn -0 1 0
vn -0 1 0
vn -0 1 0
vn -0 1 0
vn -0 1 0
vn -0 1 0
vn -0 1 0
vn -0 1 0
vn -0 1 0
vn -0 1 0
vn -0 1 0
vn -0 1 0
vn -0 1 0
vn -0 0.7071066 -0.7071069
vn -0 0.7071066 -0.7071069
vn -0 0.7071066 -0.7071069
vn -0 0.7071066 -0.7071069
vn -0 0.70710677 0.70710677
vn -0 0.70710677 0.70710677
vn -0 0.70710677 0.70710677
vn -0 0.70710677 0.70710677
vn -0 0.7071071 0.70710635
vn -0 0.7071071 0.70710635
vn -0 0.7071071 0.70710635
vn -0 0.7071071 0.70710635
vn -0 0.70710677 -0.70710677
vn -0 0.70710677 -0.70710677
vn -0 0.70710677 -0.70710677
vn -0 0.70710677 -0.70710677
vn -0 0 -1
vn -0 0 -1
vn -0 0 -1
vn -0 0 -1
vn -0 0 -1
vn -0 0 -1
vn -0 0 -1
vn -0 0 -1
vn -0 0 1
vn -0 0 1
vn -0 0 1
vn -0 0 1
vn -0 0 1
vn -0 0 1
vn -0 0 1
vn -0 0 1
g Bridge_0
f 3/3/3 2/2/2 1/1/1
f 4/4/4 3/3/3 1/1/1
f 5/5/5 3/3/3 4/4/4
f 6/6/6 5/5/5 4/4/4
f 7/7/7 5/5/5 6/6/6
f 8/8/8 7/7/7 6/6/6
f 9/9/9 7/7/7 8/8/8
f 10/10/10 9/9/9 8/8/8
f 11/11/11 9/9/9 10/10/10
f 12/12/12 11/11/11 10/10/10
f 13/13/13 11/11/11 12/12/12
f 14/14/14 13/13/13 12/12/12
f 17/17/17 16/16/16 15/15/15
f 18/18/18 17/17/17 15/15/15
f 21/21/21 20/20/20 19/19/19
f 22/22/22 21/21/21 19/19/19
f 25/25/25 24/24/24 23/23/23
f 24/24/24 26/26/26 23/23/23
f 23/23/23 26/26/26 27/27/27
f 26/26/26 28/28/28 27/27/27
f 27/27/27 28/28/28 29/29/29
f 28/28/28 30/30/30 29/29/29
f 29/29/29 30/30/30 31/31/31
f 30/30/30 32/32/32 31/31/31
f 31/31/31 32/32/32 33/33/33
f 32/32/32 34/34/34 33/33/33
f 33/33/33 34/34/34 35/35/35
f 34/34/34 36/36/36 35/35/35
f 39/39/39 38/38/38 37/37/37
f 40/40/40 39/39/39 37/37/37
f 43/43/43 42/42/42 41/41/41
f 44/44/44 43/43/43 41/41/41
f 47/47/47 46/46/46 45/45/45
f 48/48/48 47/47/47 45/45/45
f 51/51/51 50/50/50 49/49/49
f 50/50/50 52/52/52 49/49/49
f 49/49/49 52/52/52 53/53/53
f 52/52/52 54/54/54 53/53/53
f 53/53/53 54/54/54 55/55/55
f 54/54/54 56/56/56 55/55/55
f 55/55/55 56/56/56 57/57/57
f 56/56/56 58/58/58 57/57/57
f 57/57/57 58/58/58 59/59/59
f 58/58/58 60/60/60 59/59/59
f 59/59/59 60/60/60 61/61/61
f 60/60/60 62/62/62 61/61/61
f 65/65/65 64/64/64 63/63/63
f 66/66/66 65/65/65 63/63/63
f 69/69/69 68/68/68 67/67/67
f 70/70/70 69/69/69 67/67/67
f 73/73/73 72/72/72 71/71/71
f 74/74/74 73/73/73 71/71/71
f 77/77/77 76/76/76 75/75/75
f 78/78/78 77/77/77 75/75/75
f 81/81/81 80/80/80 79/79/79
f 82/82/82 81/81/81 79/79/79
f 85/85/85 84/84/84 83/83/83
f 86/86/86 85/85/85 83/83/83
f 86/86/86 83/83/83 87/87/87
f 88/88/88 86/86/86 87/87/87
f 88/88/88 87/87/87 89/89/89
f 90/90/90 88/88/88 89/89/89
f 93/93/93 92/92/92 91/91/91
f 94/94/94 93/93/93 91/91/91
f 97/97/97 96/96/96 95/95/95
f 98/98/98 97/97/97 95/95/95
f 101/101/101 100/100/100 99/99/99
f 99/99/99 102/102/102 101/101/101
f 102/102/102 99/99/99 103/103/103
f 99/99/99 104/104/104 103/103/103
f 99/99/99 105/105/105 104/104/104
f 105/105/105 106/106/106 104/104/104
f 102/102/102 103/103/103 107/107/107
f 102/102/102 107/107/107 108/108/108
f 108/108/108 109/109/109 102/102/102
f 107/107/107 110/110/110 108/108/108
f 110/110/110 111/111/111 108/108/108
f 114/114/114 113/113/113 112/112/112
f 112/112/112 115/115/115 114/114/114
f 112/112/112 116/116/116 115/115/115
f 116/116/116 117/117/117 115/115/115
f 115/115/115 118/118/118 114/114/114
f 118/118/118 119/119/119 114/114/114
f 120/120/120 114/114/114 119/119/119
f 119/119/119 121/121/121 120/120/120
f 118/118/118 122/122/122 119/119/119
f 122/122/122 123/123/123 119/119/119
f 122/122/122 124/124/124 123/123/123
f 127/127/127 126/126/126 125/125/125
f 128/128/128 127/127/127 125/125/125
f 131/131/131 130/130/130 129/129/129
f 132/132/132 131/131/131 129/129/129
f 133/133/133 131/131/131 132/132/132
f 134/134/134 133/133/133 132/132/132
f 135/135/135 133/133/133 134/134/134
f 136/136/136 135/135/135 134/134/134
f 137/137/137 135/135/135 136/136/136
f 138/138/138 137/137/137 136/136/136
f 139/139/139 137/137/137 138/138/138
f 140/140/140 139/139/139 138/138/138
f 141/141/141 139/139/139 140/140/140
f 142/142/142 141/141/141 140/140/140
f 145/145/145 144/144/144 143/143/143
f 146/146/146 145/145/145 143/143/143
f 149/149/149 148/148/148 147/147/147
f 150/150/150 149/149/149 147/147/147
f 153/153/153 152/152/152 151/151/151
f 154/154/154 153/153/153 151/151/151
f 157/157/157 156/156/156 155/155/155
f 158/158/158 157/157/157 155/155/155
f 161/161/161 160/160/160 159/159/159
f 162/162/162 161/161/161 159/159/159
f 165/165/165 164/164/164 163/163/163
f 166/166/166 165/165/165 163/163/163
f 169/169/169 168/168/168 167/167/167
f 170/170/170 169/169/169 167/167/167
f 173/173/173 172/172/172 171/171/171
f 174/174/174 173/173/173 171/171/171
f 177/177/177 176/176/176 175/175/175
f 178/178/178 177/177/177 175/175/175
f 181/181/181 180/180/180 179/179/179
f 182/182/182 181/181/181 179/179/179
f 185/185/185 184/184/184 183/183/183
f 186/186/186 185/185/185 183/183/183
f 189/189/189 188/188/188 187/187/187
f 188/188/188 190/190/190 187/187/187
f 190/190/190 188/188/188 191/191/191
f 192/192/192 190/190/190 191/191/191
f 192/192/192 191/191/191 193/193/193
f 194/194/194 192/192/192 193/193/193
f 193/193/193 195/195/195 194/194/194
f 195/195/195 196/196/196 194/194/194
f 199/199/199 198/198/198 197/197/197
f 200/200/200 199/199/199 197/197/197
f 197/197/197 201/201/201 200/200/200
f 201/201/201 202/202/202 200/200/200
f 201/201/201 203/203/203 202/202/202
f 203/203/203 204/204/204 202/202/202
f 204/204/204 203/203/203 205/205/205
f 206/206/206 204/204/204 205/205/205
f 209/209/209 208/208/208 207/207/207
f 210/210/210 209/209/209 207/207/207
f 213/213/213 212/212/212 211/211/211
f 214/214/214 213/213/213 211/211/211
f 217/217/217 216/216/216 215/215/215
f 218/218/218 217/217/217 215/215/215
f 221/221/221 220/220/220 219/219/219
f 222/222/222 221/221/221 219/219/219
f 225/225/225 224/224/224 223/223/223
f 226/226/226 225/225/225 223/223/223
f 229/229/229 228/228/228 227/227/227
f 230/230/230 229/229/229 227/227/227
f 233/233/233 232/232/232 231/231/231
f 234/234/234 233/233/233 231/231/231
f 237/237/237 236/236/236 235/235/235
f 238/238/238 237/237/237 235/235/235
