g Buff_SpeedUp
v 0.22882223 0.055466723 0.056110755
v 0.37600553 0.20800008 0.09666444
v 0.1105025 0.20800006 0.05611073
v 0.4602285 0.069333404 0.096664466
v 0.22882223 -0.05546662 0.05611077
v 0.47268558 0.2080001 0.2004255
v 0.4602285 -0.069333255 0.096664496
v 0.110502526 -0.20799994 0.056110796
v 0.3760056 -0.20799993 0.09666452
v 0.5569085 0.11093344 0.20042549
v 0.5569085 -0.110933244 0.20042552
v 0.47268564 -0.20799991 0.20042554
v 0.5569084 0.11093347 0.34361312
v 0.47268564 -0.20799989 0.34361318
v 0.5569084 -0.110933214 0.34361318
v 0.22068141 -0.20799989 0.42387557
v 0.3760056 -0.20799993 0.09666452
v 0.110502526 -0.20799994 0.056110796
v 0.43398887 -0.20799987 0.42387563
v 0.5290662 -0.110933214 0.42387563
v 0.5290662 0.11093347 0.42387557
v 0.4339888 0.20800014 0.42387557
v -0.31219873 -0.20799994 0.42387557
v 0.47268558 0.20800012 0.34361312
v 0.22068138 0.20800012 0.4238755
v 0.37600553 0.20800008 0.09666444
v 0.1105025 0.20800006 0.05611073
v -0.31219876 0.20800002 0.05611067
v 0.1575301 0.23999795 -0.4495962
v -0.3121988 0.20800008 0.4238755
v -0.35483092 0.23999791 -0.44959623
v -0.43935803 0.06933333 0.05611069
v -0.43935806 0.06933339 0.42387548
v -0.49036008 0.077727266 -0.4495962
v -0.43935803 -0.06933334 0.056110714
v -0.43935806 -0.06933328 0.42387548
v -0.49036008 -0.07772757 -0.4495962
v -0.3121987 -0.208 0.056110736
v -0.35483086 -0.23999818 -0.44959617
v 0.15753013 -0.23999813 -0.44959614
v 0.1575301 0.23999795 -0.4495962
v 0.1575301 0.23999794 -0.58948493
v 0.28662097 0.063999385 -0.5894849
v 0.27542916 0.062181868 -0.44959614
v 0.28662097 -0.06399958 -0.5894849
v 0.27542916 -0.062182017 -0.44959614
v 0.15753013 -0.23999815 -0.5894848
v 0.15753013 -0.23999813 -0.44959614
v 0.22882223 -0.05546662 0.05611077
v 0.15753013 -0.23999813 -0.44959614
v 0.110502526 -0.20799994 0.056110796
v 0.27542916 -0.062182017 -0.44959614
v 0.22882223 0.055466723 0.056110755
v 0.27542916 0.062181868 -0.44959614
v 0.1105025 0.20800006 0.05611073
v 0.1575301 0.23999795 -0.4495962
v 0.15753013 -0.23999813 -0.44959614
v 0.15753013 -0.23999815 -0.5894848
v -0.35483086 -0.23999819 -0.5894849
v -0.35483086 -0.23999818 -0.44959617
v -0.50155187 -0.079999514 -0.58948493
v -0.49036008 -0.07772757 -0.4495962
v -0.50155187 0.07999917 -0.58948493
v -0.49036008 0.077727266 -0.4495962
v -0.35483092 0.2399979 -0.589485
v -0.35483092 0.23999791 -0.44959623
v 0.1575301 0.23999794 -0.58948493
v 0.1575301 0.23999795 -0.4495962
v -0.37389398 0.051973585 -0.13869308
v 0.06572215 0.15497856 -0.13869305
v -0.27943704 0.15497851 -0.1386931
v 0.16243353 0.047285516 -0.13869302
v -0.37389398 -0.05197376 -0.13869305
v 0.16243353 -0.047285568 -0.13869299
v -0.27943704 -0.15497868 -0.13869303
v 0.06572218 -0.15497865 -0.13869299
v -0.4393581 -0.06933326 0.5238754
v 0.18540405 -0.20799987 0.52387553
v -0.31219876 -0.20799993 0.52387553
v 0.18540405 -0.11093322 0.5238755
v 0.32815698 -0.20799986 0.52387553
v 0.4123799 -0.11093321 0.52387553
v 0.18540402 0.11093346 0.5238755
v -0.4393581 0.069333404 0.5238754
v -0.31219882 0.2080001 0.5238754
v 0.18540402 0.20800014 0.5238754
v 0.4123799 0.110933475 0.52387553
v 0.32815692 0.20800015 0.5238754
v 0.5290662 -0.110933214 0.42387563
v 0.5290662 0.11093347 0.42387557
v 0.32815692 0.20800015 0.5238754
v 0.4339888 0.20800014 0.42387557
v 0.43398887 -0.20799987 0.42387563
v 0.32815698 -0.20799986 0.52387553
v 0.32815692 0.20800015 0.5238754
v 0.18540402 0.20800014 0.5238754
v 0.22068138 0.20800012 0.4238755
v -0.31219882 0.2080001 0.5238754
v -0.3121988 0.20800008 0.4238755
v -0.4393581 0.069333404 0.5238754
v -0.43935806 0.06933339 0.42387548
v -0.4393581 -0.06933326 0.5238754
v -0.43935806 -0.06933328 0.42387548
v -0.31219876 -0.20799993 0.52387553
v -0.31219873 -0.20799994 0.42387557
v 0.18540405 -0.20799987 0.52387553
v 0.22068141 -0.20799989 0.42387557
v 0.32815698 -0.20799986 0.52387553
v 0.44882262 0.049999945 -0.5688345
v 0.44882262 -0.050000086 -0.5688345
v 0.7188227 -0.050000086 -0.5688344
v 0.7188227 0.049999945 -0.5688344
v 0.44882268 0.04999997 -0.40883437
v 0.44882262 0.049999945 -0.5688345
v 0.7188227 0.049999945 -0.5688344
v 0.7188227 0.04999997 -0.40883437
v 0.8688227 0.049999956 -0.4888344
v 0.7188227 0.04999993 -0.6525294
v 0.7188227 0.049999986 -0.3251394
v 0.44882268 -0.05000006 -0.40883437
v 0.44882268 0.04999997 -0.40883437
v 0.7188227 0.04999997 -0.40883437
v 0.7188227 -0.05000006 -0.40883437
v 0.44882262 -0.050000086 -0.5688345
v 0.44882268 -0.05000006 -0.40883437
v 0.7188227 -0.05000006 -0.40883437
v 0.7188227 -0.050000086 -0.5688344
v 0.8688227 -0.05000007 -0.4888344
v 0.7188227 -0.050000045 -0.3251394
v 0.7188227 -0.0500001 -0.6525294
v 0.86882275 0.050000012 -0.12906615
v 0.71882266 0.050000045 0.03462881
v 0.7188227 0.05000003 -0.049066156
v 0.7188227 0.050000004 -0.2090662
v 0.7188227 0.04999999 -0.29276115
v 0.44882268 0.05000003 -0.049066126
v 0.44882268 0.050000004 -0.2090662
v 0.44882268 -0.05000006 -0.40883437
v 0.44882262 -0.050000086 -0.5688345
v 0.44882262 0.049999945 -0.5688345
v 0.44882268 0.04999997 -0.40883437
v 0.7188227 0.05000003 -0.049066156
v 0.71882266 0.050000045 0.03462881
v 0.71882266 -0.049999986 0.034628823
v 0.7188227 -0.05 -0.04906614
v 0.7188227 -0.0500001 -0.6525294
v 0.8688227 -0.05000007 -0.4888344
v 0.8688227 0.049999956 -0.4888344
v 0.7188227 0.04999993 -0.6525294
v 0.7188227 -0.05000004 -0.29276115
v 0.86882275 -0.050000016 -0.12906612
v 0.86882275 0.050000012 -0.12906615
v 0.7188227 0.04999999 -0.29276115
v 0.44882268 -0.05 -0.04906611
v 0.44882268 0.05000003 -0.049066126
v 0.7188227 0.05000003 -0.049066156
v 0.7188227 -0.05 -0.04906614
v 0.44882268 0.050000004 -0.2090662
v 0.44882268 -0.050000027 -0.20906617
v 0.7188227 -0.050000027 -0.20906617
v 0.7188227 0.050000004 -0.2090662
v 0.7188227 -0.05 -0.04906614
v 0.71882266 -0.049999986 0.034628823
v 0.86882275 -0.050000016 -0.12906612
v 0.7188227 -0.050000027 -0.20906617
v 0.7188227 -0.05000004 -0.29276115
v 0.44882268 -0.050000027 -0.20906617
v 0.44882268 -0.05 -0.04906611
v 0.7188227 0.049999986 -0.3251394
v 0.8688227 0.049999956 -0.4888344
v 0.8688227 -0.05000007 -0.4888344
v 0.7188227 -0.050000045 -0.3251394
v 0.7188227 -0.050000086 -0.5688344
v 0.7188227 -0.0500001 -0.6525294
v 0.7188227 0.04999993 -0.6525294
v 0.7188227 0.049999945 -0.5688344
v 0.44882268 -0.05 -0.04906611
v 0.44882268 -0.050000027 -0.20906617
v 0.44882268 0.050000004 -0.2090662
v 0.44882268 0.05000003 -0.049066126
v 0.71882266 0.050000045 0.03462881
v 0.86882275 0.050000012 -0.12906615
v 0.86882275 -0.050000016 -0.12906612
v 0.71882266 -0.049999986 0.034628823
v 0.7188227 0.04999997 -0.40883437
v 0.7188227 0.049999986 -0.3251394
v 0.7188227 -0.050000045 -0.3251394
v 0.7188227 -0.05000006 -0.40883437
v 0.7188227 -0.050000027 -0.20906617
v 0.7188227 -0.05000004 -0.29276115
v 0.7188227 0.04999999 -0.29276115
v 0.7188227 0.050000004 -0.2090662
v 0.1055394 0.17833924 -0.5894849
v 0.06572215 0.15497856 -0.13869305
v 0.16243353 0.047285516 -0.13869302
v 0.2095476 0.05441303 -0.5894849
v -0.3157836 0.17833917 -0.58948493
v 0.16243353 -0.047285568 -0.13869299
v -0.27943704 0.15497851 -0.1386931
v 0.2095476 -0.054413248 -0.5894849
v -0.4244786 0.059807766 -0.58948493
v 0.06572218 -0.15497865 -0.13869299
v -0.37389398 0.051973585 -0.13869308
v 0.105539426 -0.17833944 -0.5894849
v -0.4244786 -0.05980811 -0.58948493
v -0.27943704 -0.15497868 -0.13869303
v -0.37389398 -0.05197376 -0.13869305
v -0.31578365 -0.17833948 -0.58948493
v 0.1055394 0.17833924 -0.5894849
v -0.35483092 0.2399979 -0.589485
v -0.3157836 0.17833917 -0.58948493
v 0.1575301 0.23999794 -0.58948493
v -0.50155187 0.07999917 -0.58948493
v 0.2095476 0.05441303 -0.5894849
v -0.4244786 0.059807766 -0.58948493
v 0.28662097 0.063999385 -0.5894849
v -0.50155187 -0.079999514 -0.58948493
v 0.2095476 -0.054413248 -0.5894849
v -0.4244786 -0.05980811 -0.58948493
v 0.28662097 -0.06399958 -0.5894849
v -0.35483086 -0.23999819 -0.5894849
v 0.105539426 -0.17833944 -0.5894849
v -0.31578365 -0.17833948 -0.58948493
v 0.15753013 -0.23999815 -0.5894848
vt 0.37280273 0.5991211
vt 0.37280273 0.5991211
vt 0.37280273 0.5991211
vt 0.37280273 0.5991211
vt 0.37280273 0.5991211
vt 0.37280273 0.5991211
vt 0.37280273 0.5991211
vt 0.37280273 0.5991211
vt 0.37280273 0.5991211
vt 0.37280273 0.5991211
vt 0.37280273 0.5991211
vt 0.37280273 0.5991211
vt 0.37280273 0.5991211
vt 0.37280273 0.5991211
vt 0.37280273 0.5991211
vt 0.37280273 0.5991211
vt 0.37280273 0.5991211
vt 0.37280273 0.5991211
vt 0.37280273 0.5991211
vt 0.37280273 0.5991211
vt 0.37280273 0.5991211
vt 0.37280273 0.5991211
vt 0.37280273 0.5991211
vt 0.37280273 0.5991211
vt 0.37280273 0.5991211
vt 0.37280273 0.5991211
vt 0.37280273 0.5991211
vt 0.37280273 0.5991211
vt 0.37280273 0.5991211
vt 0.37280273 0.5991211
vt 0.37280273 0.5991211
vt 0.37280273 0.5991211
vt 0.37280273 0.5991211
vt 0.37280273 0.5991211
vt 0.37280273 0.5991211
vt 0.37280273 0.5991211
vt 0.37280273 0.5991211
vt 0.37280273 0.5991211
vt 0.37280273 0.5991211
vt 0.37280273 0.5991211
vt 0.20080566 0.5991211
vt 0.20080566 0.5991211
vt 0.20080566 0.5991211
vt 0.20080566 0.5991211
vt 0.20080566 0.5991211
vt 0.20080566 0.5991211
vt 0.20080566 0.5991211
vt 0.20080566 0.5991211
vt 0.37280273 0.5991211
vt 0.37280273 0.5991211
vt 0.37280273 0.5991211
vt 0.37280273 0.5991211
vt 0.37280273 0.5991211
vt 0.37280273 0.5991211
vt 0.37280273 0.5991211
vt 0.37280273 0.5991211
vt 0.20080566 0.5991211
vt 0.20080566 0.5991211
vt 0.20080566 0.5991211
vt 0.20080566 0.5991211
vt 0.20080566 0.5991211
vt 0.20080566 0.5991211
vt 0.20080566 0.5991211
vt 0.20080566 0.5991211
vt 0.20080566 0.5991211
vt 0.20080566 0.5991211
vt 0.20080566 0.5991211
vt 0.20080566 0.5991211
vt 0.09460449 0.61621094
vt 0.09460449 0.61621094
vt 0.09460449 0.61621094
vt 0.09460449 0.61621094
vt 0.09460449 0.61621094
vt 0.09460449 0.61621094
vt 0.09460449 0.61621094
vt 0.09460449 0.61621094
vt 0.1977539 0.5991211
vt 0.1977539 0.5991211
vt 0.1977539 0.5991211
vt 0.1977539 0.5991211
vt 0.1977539 0.5991211
vt 0.1977539 0.5991211
vt 0.1977539 0.5991211
vt 0.1977539 0.5991211
vt 0.1977539 0.5991211
vt 0.1977539 0.5991211
vt 0.1977539 0.5991211
vt 0.1977539 0.5991211
vt 0.1977539 0.5991211
vt 0.1977539 0.5991211
vt 0.1977539 0.5991211
vt 0.1977539 0.5991211
vt 0.1977539 0.5991211
vt 0.1977539 0.5991211
vt 0.1977539 0.5991211
vt 0.1977539 0.5991211
vt 0.1977539 0.5991211
vt 0.1977539 0.5991211
vt 0.1977539 0.5991211
vt 0.1977539 0.5991211
vt 0.1977539 0.5991211
vt 0.1977539 0.5991211
vt 0.1977539 0.5991211
vt 0.1977539 0.5991211
vt 0.1977539 0.5991211
vt 0.1977539 0.5991211
vt 0.1977539 0.5991211
vt 0.1977539 0.5991211
vt 0.08300781 0.90771484
vt 0.08300781 0.90771484
vt 0.08300781 0.90771484
vt 0.08300781 0.90771484
vt 0.08300781 0.90771484
vt 0.08300781 0.90771484
vt 0.08300781 0.90771484
vt 0.08300781 0.90771484
vt 0.08300781 0.90771484
vt 0.08300781 0.90771484
vt 0.08300781 0.90771484
vt 0.08300781 0.90771484
vt 0.08300781 0.90771484
vt 0.08300781 0.90771484
vt 0.08300781 0.90771484
vt 0.08300781 0.90771484
vt 0.08300781 0.90771484
vt 0.08300781 0.90771484
vt 0.08300781 0.90771484
vt 0.08300781 0.90771484
vt 0.08300781 0.90771484
vt 0.08300781 0.90771484
vt 0.08300781 0.90771484
vt 0.08300781 0.90771484
vt 0.08300781 0.90771484
vt 0.08300781 0.90771484
vt 0.08300781 0.90771484
vt 0.08300781 0.90771484
vt 0.08300781 0.90771484
vt 0.08300781 0.90771484
vt 0.08300781 0.90771484
vt 0.08300781 0.90771484
vt 0.08300781 0.90771484
vt 0.08300781 0.90771484
vt 0.08300781 0.90771484
vt 0.08300781 0.90771484
vt 0.08300781 0.90771484
vt 0.08300781 0.90771484
vt 0.08300781 0.90771484
vt 0.08300781 0.90771484
vt 0.08300781 0.90771484
vt 0.08300781 0.90771484
vt 0.08300781 0.90771484
vt 0.08300781 0.90771484
vt 0.08300781 0.90771484
vt 0.08300781 0.90771484
vt 0.08300781 0.90771484
vt 0.08300781 0.90771484
vt 0.08300781 0.90771484
vt 0.08300781 0.90771484
vt 0.08300781 0.90771484
vt 0.08300781 0.90771484
vt 0.08300781 0.90771484
vt 0.08300781 0.90771484
vt 0.08300781 0.90771484
vt 0.08300781 0.90771484
vt 0.08300781 0.90771484
vt 0.08300781 0.90771484
vt 0.08300781 0.90771484
vt 0.08300781 0.90771484
vt 0.08300781 0.90771484
vt 0.08300781 0.90771484
vt 0.08300781 0.90771484
vt 0.08300781 0.90771484
vt 0.08300781 0.90771484
vt 0.08300781 0.90771484
vt 0.08300781 0.90771484
vt 0.08300781 0.90771484
vt 0.08300781 0.90771484
vt 0.08300781 0.90771484
vt 0.08300781 0.90771484
vt 0.08300781 0.90771484
vt 0.08300781 0.90771484
vt 0.08300781 0.90771484
vt 0.08300781 0.90771484
vt 0.08300781 0.90771484
vt 0.08300781 0.90771484
vt 0.08300781 0.90771484
vt 0.08300781 0.90771484
vt 0.08300781 0.90771484
vt 0.08300781 0.90771484
vt 0.08300781 0.90771484
vt 0.08300781 0.90771484
vt 0.08300781 0.90771484
vt 0.09460449 0.61621094
vt 0.09460449 0.61621094
vt 0.09460449 0.61621094
vt 0.09460449 0.61621094
vt 0.09460449 0.61621094
vt 0.09460449 0.61621094
vt 0.09460449 0.61621094
vt 0.09460449 0.61621094
vt 0.09460449 0.61621094
vt 0.09460449 0.61621094
vt 0.09460449 0.61621094
vt 0.09460449 0.61621094
vt 0.09460449 0.61621094
vt 0.09460449 0.61621094
vt 0.09460449 0.61621094
vt 0.09460449 0.61621094
vt 0.20080566 0.5991211
vt 0.20080566 0.5991211
vt 0.20080566 0.5991211
vt 0.20080566 0.5991211
vt 0.20080566 0.5991211
vt 0.20080566 0.5991211
vt 0.20080566 0.5991211
vt 0.20080566 0.5991211
vt 0.20080566 0.5991211
vt 0.20080566 0.5991211
vt 0.20080566 0.5991211
vt 0.20080566 0.5991211
vt 0.20080566 0.5991211
vt 0.20080566 0.5991211
vt 0.20080566 0.5991211
vt 0.20080566 0.5991211
vn 0.1640625 0.062408447 -0.984375
vn 0.33984375 0.2409668 -0.9091797
vn 0.15710449 0.109313965 -0.9814453
vn 0.49047852 0.14819336 -0.8588867
vn 0.1640625 -0.062408447 -0.984375
vn 0.47436523 0.8408203 -0.26123047
vn 0.49047852 -0.14819336 -0.8588867
vn 0.15710449 -0.109313965 -0.9814453
vn 0.33984375 -0.2409668 -0.9091797
vn 0.88378906 0.3166504 -0.3449707
vn 0.88378906 -0.3166504 -0.3449707
vn 0.47436523 -0.8408203 -0.26123047
vn 0.92626953 0.34033203 0.16223145
vn 0.44921875 -0.8881836 0.097595215
vn 0.92626953 -0.34033203 0.16223145
vn -0 -1 0
vn -0 -1 0
vn -0 -0.9995117 0.022583008
vn 0.38476562 -0.86816406 0.3137207
vn 0.79296875 -0.31030273 0.5239258
vn 0.79296875 0.31030273 0.5239258
vn 0.38476562 0.86816406 0.3137207
vn -0.4025879 -0.91552734 0
vn 0.44921875 0.8881836 0.097595215
vn -0 1 0
vn -0 1 0
vn -0 0.9995117 0.022583008
vn -0.4013672 0.91503906 0.04373169
vn -0 0.9995117 0.03062439
vn -0.4025879 0.91552734 0
vn -0.41845703 0.9067383 0.05316162
vn -0.9321289 0.35864258 0.05307007
vn -0.9321289 0.36254883 0
vn -0.93310547 0.34985352 0.08258057
vn -0.9321289 -0.35864258 0.05307007
vn -0.9321289 -0.36254883 0
vn -0.93310547 -0.34985352 0.08258057
vn -0.4013672 -0.91503906 0.04373169
vn -0.41845703 -0.9067383 0.05316162
vn -0 -0.9995117 0.03062439
vn 0.8149414 0.5756836 0.066833496
vn 0.81933594 0.5722656 0.036499023
vn 0.9526367 0.29760742 0.06109619
vn 0.9501953 0.30151367 0.07965088
vn 0.9526367 -0.29760742 0.06109619
vn 0.9501953 -0.30151367 0.07965088
vn 0.81933594 -0.5722656 0.036499023
vn 0.8149414 -0.5756836 0.066833496
vn 0.94677734 -0.30688477 0.09918213
vn 0.8149414 -0.5756836 0.066833496
vn 0.8095703 -0.57910156 0.09710693
vn 0.9501953 -0.30151367 0.07965088
vn 0.94677734 0.30688477 0.09918213
vn 0.9501953 0.30151367 0.07965088
vn 0.8095703 0.57910156 0.09710693
vn 0.8149414 0.5756836 0.066833496
vn -0 -0.9995117 0.03062439
vn -0 -1 0
vn -0.4128418 -0.91064453 0.019454956
vn -0.41845703 -0.9067383 0.05316162
vn -0.9350586 -0.34887695 0.061706543
vn -0.93310547 -0.34985352 0.08258057
vn -0.9350586 0.34887695 0.061706543
vn -0.93310547 0.34985352 0.08258057
vn -0.4128418 0.91064453 0.019454956
vn -0.41845703 0.9067383 0.05316162
vn -0 1 0
vn -0 0.9995117 0.03062439
vn -0 0 -1
vn -0 0 -1
vn -0 0 -1
vn -0 0 -1
vn -0 0 -1
vn -0 0 -1
vn -0 0 -1
vn -0 0 -1
vn -0 0 1
vn -0 0 1
vn -0 0 1
vn -0 0 1
vn -0 0 1
vn 0.40039062 -0.19885254 0.89453125
vn -0 0 1
vn -0 0 1
vn -0 0 1
vn -0 0 1
vn 0.40039062 0.19885254 0.89453125
vn -0 0 1
vn 0.79296875 -0.31030273 0.5239258
vn 0.79296875 0.31030273 0.5239258
vn 0.56884766 0.5253906 0.6328125
vn 0.38476562 0.86816406 0.3137207
vn 0.38476562 -0.86816406 0.3137207
vn 0.56884766 -0.5253906 0.6328125
vn -0 1 0
vn -0 1 0
vn -0 1 0
vn -0.4025879 0.91552734 0
vn -0.4025879 0.91552734 0
vn -0.9321289 0.36254883 0
vn -0.9321289 0.36254883 0
vn -0.9321289 -0.36254883 0
vn -0.9321289 -0.36254883 0
vn -0.4025879 -0.91552734 0
vn -0.4025879 -0.91552734 0
vn -0 -1 0
vn -0 -1 0
vn -0 -1 0
vn -0 0 -1
vn -0 0 -1
vn -0 0 -1
vn -0 0 -1
vn -0 1 0
vn -0 1 0
vn -0 1 0
vn -0 1 0
vn -0 1 0
vn -0 1 0
vn -0 1 0
vn -0 0 1
vn -0 0 1
vn -0 0 1
vn -0 0 1
vn -0 -1 0
vn -0 -1 0
vn -0 -1 0
vn -0 -1 0
vn -0 -1 0
vn -0 -1 0
vn -0 -1 0
vn -0 1 0
vn -0 1 0
vn -0 1 0
vn -0 1 0
vn -0 1 0
vn -0 1 0
vn -0 1 0
vn -1 0 0
vn -1 0 0
vn -1 0 0
vn -1 0 0
vn -1 0 0
vn -1 0 0
vn -1 0 0
vn -1 0 0
vn 0.7373047 0 -0.67578125
vn 0.7373047 0 -0.67578125
vn 0.7373047 0 -0.67578125
vn 0.7373047 0 -0.67578125
vn 0.7373047 0 -0.67578125
vn 0.7373047 0 -0.67578125
vn 0.7373047 0 -0.67578125
vn 0.7373047 0 -0.67578125
vn -0 0 1
vn -0 0 1
vn -0 0 1
vn -0 0 1
vn -0 0 -1
vn -0 0 -1
vn -0 0 -1
vn -0 0 -1
vn -0 -1 0
vn -0 -1 0
vn -0 -1 0
vn -0 -1 0
vn -0 -1 0
vn -0 -1 0
vn -0 -1 0
vn 0.7373047 0 0.67578125
vn 0.7373047 0 0.67578125
vn 0.7373047 0 0.67578125
vn 0.7373047 0 0.67578125
vn -1 0 0
vn -1 0 0
vn -1 0 0
vn -1 0 0
vn -1 0 0
vn -1 0 0
vn -1 0 0
vn -1 0 0
vn 0.7373047 0 0.67578125
vn 0.7373047 0 0.67578125
vn 0.7373047 0 0.67578125
vn 0.7373047 0 0.67578125
vn -1 0 0
vn -1 0 0
vn -1 0 0
vn -1 0 0
vn -1 0 0
vn -1 0 0
vn -1 0 0
vn -1 0 0
vn -0.42749023 -0.9003906 -0.08117676
vn -0.39941406 -0.91308594 -0.079589844
vn -0.9296875 -0.35229492 -0.10583496
vn -0.93310547 -0.34326172 -0.10595703
vn 0.41333008 -0.90722656 -0.080322266
vn -0.9296875 0.35229492 -0.10583496
vn 0.38867188 -0.91796875 -0.07891846
vn -0.93310547 0.34326172 -0.10595703
vn 0.92822266 -0.35546875 -0.11035156
vn -0.39941406 0.91308594 -0.079589844
vn 0.9243164 -0.36572266 -0.11004639
vn -0.42749023 0.9003906 -0.08117676
vn 0.92822266 0.35546875 -0.11035156
vn 0.38867188 0.91796875 -0.07891846
vn 0.9243164 0.36572266 -0.11004639
vn 0.41333008 0.90722656 -0.080322266
vn -0 0 -1
vn -0 0 -1
vn -0 0 -1
vn -0 0 -1
vn -0 0 -1
vn -0 0 -1
vn -0 0 -1
vn -0 0 -1
vn -0 0 -1
vn -0 0 -1
vn -0 0 -1
vn -0 0 -1
vn -0 0 -1
vn -0 0 -1
vn -0 0 -1
vn -0 0 -1
g Buff_SpeedUp_0
f 3/3/3 2/2/2 1/1/1
f 2/2/2 4/4/4 1/1/1
f 1/1/1 4/4/4 5/5/5
f 2/2/2 6/6/6 4/4/4
f 4/4/4 7/7/7 5/5/5
f 5/5/5 7/7/7 8/8/8
f 7/7/7 9/9/9 8/8/8
f 7/7/7 4/4/4 10/10/10
f 6/6/6 10/10/10 4/4/4
f 7/7/7 11/11/11 9/9/9
f 11/11/11 7/7/7 10/10/10
f 11/11/11 12/12/12 9/9/9
f 10/10/10 6/6/6 13/13/13
f 11/11/11 10/10/10 13/13/13
f 12/12/12 11/11/11 14/14/14
f 15/15/15 11/11/11 13/13/13
f 11/11/11 15/15/15 14/14/14
f 12/12/12 14/14/14 16/16/16
f 17/17/17 12/12/12 16/16/16
f 16/16/16 18/18/18 17/17/17
f 14/14/14 19/19/19 16/16/16
f 19/19/19 14/14/14 20/20/20
f 14/14/14 15/15/15 20/20/20
f 21/21/21 20/20/20 15/15/15
f 13/13/13 21/21/21 15/15/15
f 21/21/21 13/13/13 22/22/22
f 18/18/18 16/16/16 23/23/23
f 13/13/13 24/24/24 22/22/22
f 6/6/6 24/24/24 13/13/13
f 25/25/25 22/22/22 24/24/24
f 25/25/25 24/24/24 6/6/6
f 25/25/25 6/6/6 26/26/26
f 26/26/26 27/27/27 25/25/25
f 27/27/27 28/28/28 25/25/25
f 27/27/27 29/29/29 28/28/28
f 28/28/28 30/30/30 25/25/25
f 29/29/29 31/31/31 28/28/28
f 28/28/28 32/32/32 30/30/30
f 28/28/28 31/31/31 32/32/32
f 32/32/32 33/33/33 30/30/30
f 31/31/31 34/34/34 32/32/32
f 32/32/32 35/35/35 33/33/33
f 32/32/32 34/34/34 35/35/35
f 35/35/35 36/36/36 33/33/33
f 34/34/34 37/37/37 35/35/35
f 35/35/35 38/38/38 36/36/36
f 35/35/35 37/37/37 38/38/38
f 38/38/38 23/23/23 36/36/36
f 37/37/37 39/39/39 38/38/38
f 38/38/38 18/18/18 23/23/23
f 38/38/38 39/39/39 18/18/18
f 39/39/39 40/40/40 18/18/18
f 43/43/43 42/42/42 41/41/41
f 44/44/44 43/43/43 41/41/41
f 45/45/45 43/43/43 44/44/44
f 46/46/46 45/45/45 44/44/44
f 47/47/47 45/45/45 46/46/46
f 48/48/48 47/47/47 46/46/46
f 51/51/51 50/50/50 49/49/49
f 50/50/50 52/52/52 49/49/49
f 49/49/49 52/52/52 53/53/53
f 52/52/52 54/54/54 53/53/53
f 53/53/53 54/54/54 55/55/55
f 54/54/54 56/56/56 55/55/55
f 59/59/59 58/58/58 57/57/57
f 60/60/60 59/59/59 57/57/57
f 61/61/61 59/59/59 60/60/60
f 62/62/62 61/61/61 60/60/60
f 63/63/63 61/61/61 62/62/62
f 64/64/64 63/63/63 62/62/62
f 65/65/65 63/63/63 64/64/64
f 66/66/66 65/65/65 64/64/64
f 67/67/67 65/65/65 66/66/66
f 68/68/68 67/67/67 66/66/66
f 71/71/71 70/70/70 69/69/69
f 70/70/70 72/72/72 69/69/69
f 69/69/69 72/72/72 73/73/73
f 72/72/72 74/74/74 73/73/73
f 73/73/73 74/74/74 75/75/75
f 74/74/74 76/76/76 75/75/75
f 79/79/79 78/78/78 77/77/77
f 78/78/78 80/80/80 77/77/77
f 78/78/78 81/81/81 80/80/80
f 81/81/81 82/82/82 80/80/80
f 80/80/80 83/83/83 77/77/77
f 80/80/80 82/82/82 83/83/83
f 83/83/83 84/84/84 77/77/77
f 84/84/84 83/83/83 85/85/85
f 83/83/83 86/86/86 85/85/85
f 83/83/83 87/87/87 86/86/86
f 82/82/82 87/87/87 83/83/83
f 87/87/87 88/88/88 86/86/86
f 87/87/87 82/82/82 89/89/89
f 90/90/90 87/87/87 89/89/89
f 91/91/91 87/87/87 90/90/90
f 92/92/92 91/91/91 90/90/90
f 89/89/89 82/82/82 93/93/93
f 82/82/82 94/94/94 93/93/93
f 96/96/96 95/95/95 92/92/92
f 97/97/97 96/96/96 92/92/92
f 98/98/98 96/96/96 97/97/97
f 99/99/99 98/98/98 97/97/97
f 100/100/100 98/98/98 99/99/99
f 101/101/101 100/100/100 99/99/99
f 102/102/102 100/100/100 101/101/101
f 103/103/103 102/102/102 101/101/101
f 104/104/104 102/102/102 103/103/103
f 105/105/105 104/104/104 103/103/103
f 106/106/106 104/104/104 105/105/105
f 107/107/107 106/106/106 105/105/105
f 108/108/108 106/106/106 107/107/107
f 93/93/93 108/108/108 107/107/107
f 111/111/111 110/110/110 109/109/109
f 112/112/112 111/111/111 109/109/109
f 115/115/115 114/114/114 113/113/113
f 116/116/116 115/115/115 113/113/113
f 116/116/116 117/117/117 115/115/115
f 117/117/117 118/118/118 115/115/115
f 116/116/116 119/119/119 117/117/117
f 122/122/122 121/121/121 120/120/120
f 123/123/123 122/122/122 120/120/120
f 126/126/126 125/125/125 124/124/124
f 127/127/127 126/126/126 124/124/124
f 127/127/127 128/128/128 126/126/126
f 128/128/128 129/129/129 126/126/126
f 127/127/127 130/130/130 128/128/128
f 133/133/133 132/132/132 131/131/131
f 133/133/133 131/131/131 134/134/134
f 131/131/131 135/135/135 134/134/134
f 133/133/133 134/134/134 136/136/136
f 134/134/134 137/137/137 136/136/136
f 140/140/140 139/139/139 138/138/138
f 141/141/141 140/140/140 138/138/138
f 144/144/144 143/143/143 142/142/142
f 145/145/145 144/144/144 142/142/142
f 148/148/148 147/147/147 146/146/146
f 149/149/149 148/148/148 146/146/146
f 152/152/152 151/151/151 150/150/150
f 153/153/153 152/152/152 150/150/150
f 156/156/156 155/155/155 154/154/154
f 157/157/157 156/156/156 154/154/154
f 160/160/160 159/159/159 158/158/158
f 161/161/161 160/160/160 158/158/158
f 164/164/164 163/163/163 162/162/162
f 165/165/165 164/164/164 162/162/162
f 165/165/165 166/166/166 164/164/164
f 165/165/165 162/162/162 167/167/167
f 162/162/162 168/168/168 167/167/167
f 171/171/171 170/170/170 169/169/169
f 172/172/172 171/171/171 169/169/169
f 175/175/175 174/174/174 173/173/173
f 176/176/176 175/175/175 173/173/173
f 179/179/179 178/178/178 177/177/177
f 180/180/180 179/179/179 177/177/177
f 183/183/183 182/182/182 181/181/181
f 184/184/184 183/183/183 181/181/181
f 187/187/187 186/186/186 185/185/185
f 188/188/188 187/187/187 185/185/185
f 191/191/191 190/190/190 189/189/189
f 192/192/192 191/191/191 189/189/189
f 195/195/195 194/194/194 193/193/193
f 196/196/196 195/195/195 193/193/193
f 193/193/193 194/194/194 197/197/197
f 198/198/198 195/195/195 196/196/196
f 194/194/194 199/199/199 197/197/197
f 200/200/200 198/198/198 196/196/196
f 197/197/197 199/199/199 201/201/201
f 202/202/202 198/198/198 200/200/200
f 199/199/199 203/203/203 201/201/201
f 204/204/204 202/202/202 200/200/200
f 201/201/201 203/203/203 205/205/205
f 206/206/206 202/202/202 204/204/204
f 203/203/203 207/207/207 205/205/205
f 208/208/208 206/206/206 204/204/204
f 205/205/205 207/207/207 208/208/208
f 207/207/207 206/206/206 208/208/208
f 211/211/211 210/210/210 209/209/209
f 210/210/210 212/212/212 209/209/209
f 213/213/213 210/210/210 211/211/211
f 209/209/209 212/212/212 214/214/214
f 215/215/215 213/213/213 211/211/211
f 212/212/212 216/216/216 214/214/214
f 217/217/217 213/213/213 215/215/215
f 214/214/214 216/216/216 218/218/218
f 219/219/219 217/217/217 215/215/215
f 216/216/216 220/220/220 218/218/218
f 221/221/221 217/217/217 219/219/219
f 218/218/218 220/220/220 222/222/222
f 223/223/223 221/221/221 219/219/219
f 220/220/220 224/224/224 222/222/222
f 224/224/224 221/221/221 223/223/223
f 222/222/222 224/224/224 223/223/223
