g Castle_Door_Left
v 0.718292 0.0002397984 -0.3965791
v 1.4047198 -0.00023992966 -0.4034211
v 1.3996129 3.4727726 -0.40000066
v 0.21925235 2.8522196 -0.40000057
v 0.21925235 2.8522196 -4.6468557E-07
v 0.021269321 2.3431072 -3.8174062E-07
v 0.021269321 2.3431075 -0.40000048
v 0.21925235 2.8522196 -4.6468557E-07
v 0.21925235 2.8522196 -0.40000057
v 0.5969929 3.2468128 -0.40000063
v 0.5969929 3.2468126 -5.289729E-07
v 0.021269321 2.3431075 -0.40000048
v 0.021269321 2.3431072 -3.8174062E-07
v 0.03182113 0 0
v 0.03182113 -6.516829E-08 -0.4000001
v 0.7200746 3.3009698 -0.10000053
v 0.67006254 3.278964 -5.3421104E-07
v 0.5969929 3.2468126 -5.289729E-07
v 0.5969929 3.2468128 -0.40000063
v 1.0969846 3.4668143 -5.6481576E-07
v 1.0969846 3.4668143 -0.40000066
v 0.77008665 3.3229756 -5.4138144E-07
v 0.5969929 3.2468126 -5.289729E-07
v 0.67006254 3.278964 -5.3421104E-07
v 0.6682748 1.8189894E-12 -2.96351E-19
v 0.03182113 0 0
v 0.21925235 2.8522196 -4.6468557E-07
v 0.021269321 2.3431072 -3.8174062E-07
v 1.3996129 3.4727726 -0.40000066
v 1.0969846 3.4668143 -0.40000066
v 0.718292 0.0002397984 -0.3965791
v 0.5969929 3.2468128 -0.40000063
v 0.03182113 -6.516829E-08 -0.4000001
v 0.21925235 2.8522196 -0.40000057
v 0.021269321 2.3431075 -0.40000048
v 1.0969846 3.4668143 -5.6481576E-07
v 1.0969846 3.4668143 -0.40000066
v 1.3996129 3.4727726 -0.40000066
v 1.3996129 3.4727726 -0.10000056
v 1.3402032 3.4708037 -5.654657E-07
v 0.718292 0.0002397984 -0.3965791
v 0.03182113 -6.516829E-08 -0.4000001
v 0.03182113 0 0
v 0.71827483 -1.6291159E-08 -0.099999994
v 0.6682748 1.8189894E-12 -2.96351E-19
v 1.4047198 -5.9473743E-05 -0.099999994
v 1.4047198 -0.00023992966 -0.4034211
v 1.3432657 0 0
v 0.76827484 0 0
v 0.76827484 0 0
v 0.71827483 -1.6291159E-08 -0.099999994
v 0.7200746 3.3009698 -0.10000053
v 0.77008665 3.3229756 -5.4138144E-07
v 0.71827483 -1.6291159E-08 -0.099999994
v 0.6682748 1.8189894E-12 -2.96351E-19
v 0.67006254 3.278964 -5.3421104E-07
v 0.7200746 3.3009698 -0.10000053
v 1.3402032 3.4708037 -5.654657E-07
v 1.3432657 0 0
v 0.76827484 0 0
v 1.0969846 3.4668143 -5.6481576E-07
v 0.77008665 3.3229756 -5.4138144E-07
v 1.3402032 3.4708037 -5.654657E-07
v 1.3996129 3.4727726 -0.10000056
v 1.4047198 -5.9473743E-05 -0.099999994
v 1.3432657 0 0
v 1.4047198 -5.9473743E-05 -0.099999994
v 1.3996129 3.4727726 -0.10000056
v 1.3996129 3.4727726 -0.40000066
v 1.4047198 -0.00023992966 -0.4034211
vt 0.19625981 0.4132645
vt 0.19625981 0.41326445
vt 0.19625984 0.41326445
vt 0.19625981 0.4132644
vt 0.19625981 0.4132644
vt 0.19625981 0.4132644
vt 0.19625981 0.4132644
vt 0.19625981 0.4132644
vt 0.19625981 0.4132644
vt 0.19625981 0.4132644
vt 0.19625981 0.4132644
vt 0.19625981 0.4132644
vt 0.19625981 0.4132644
vt 0.19625981 0.4132644
vt 0.19625981 0.4132644
vt 0.19625984 0.41326433
vt 0.19625981 0.41326433
vt 0.19625981 0.4132644
vt 0.19625981 0.4132644
vt 0.19625981 0.4132644
vt 0.19625981 0.4132644
vt 0.19625984 0.4132644
vt 0.19625981 0.4132644
vt 0.19625981 0.41326433
vt 0.19625981 0.41326445
vt 0.19625981 0.4132644
vt 0.19625981 0.4132644
vt 0.19625981 0.4132644
vt 0.19625984 0.41326445
vt 0.19625981 0.4132644
vt 0.19625981 0.4132645
vt 0.19625981 0.4132644
vt 0.19625981 0.4132644
vt 0.19625981 0.4132644
vt 0.19625981 0.4132644
vt 0.19625981 0.4132644
vt 0.19625981 0.4132644
vt 0.19625984 0.41326445
vt 0.19625984 0.41326445
vt 0.19625981 0.41326445
vt 0.19625981 0.4132645
vt 0.19625981 0.4132644
vt 0.19625981 0.4132644
vt 0.19625981 0.41326445
vt 0.19625981 0.4132644
vt 0.19625981 0.41326445
vt 0.19625981 0.41326445
vt 0.19625981 0.41326445
vt 0.19625981 0.41326445
vt 0.36325198 0.4093582
vt 0.36325198 0.4093582
vt 0.363252 0.40935808
vt 0.36325198 0.40935808
vt 0.36325198 0.4093582
vt 0.36325198 0.4093582
vt 0.36325198 0.40935808
vt 0.363252 0.40935808
vt 0.19625984 0.41326445
vt 0.19625981 0.41326445
vt 0.19625981 0.41326445
vt 0.19625981 0.4132644
vt 0.19625981 0.41326433
vt 0.363252 0.4093582
vt 0.363252 0.4093582
vt 0.36325198 0.4093582
vt 0.36325198 0.4093582
vt 0.19625981 0.41326445
vt 0.19625984 0.41326445
vt 0.19625984 0.41326445
vt 0.19625981 0.41326445
vn -0.0013527512 -0.00026956233 -0.99999905
vn -0.0013527512 -0.00026956233 -0.99999905
vn -0.0013527512 -0.00026956233 -0.99999905
vn -0.9320078 0.36243823 0
vn -0.9320078 0.36243823 0
vn -0.9320078 0.36243823 0
vn -0.9320078 0.36243823 0
vn -0.7223642 0.6915129 0
vn -0.7223642 0.6915129 0
vn -0.7223642 0.6915129 0
vn -0.7223642 0.6915129 0
vn -0.99998987 -0.0045032953 0
vn -0.99998987 -0.0045032953 0
vn -0.99998987 -0.0045032953 0
vn -0.99998987 -0.0045032953 0
vn -0.40274662 0.9153116 0
vn -0.40274662 0.9153116 0
vn -0.40274662 0.9153116 0
vn -0.40274662 0.9153116 0
vn -0.40274662 0.9153116 0
vn -0.40274662 0.9153116 0
vn -0.40274662 0.9153116 0
vn -0 0 1
vn -0 0 1
vn -0 0 1
vn -0 0 1
vn -0 0 1
vn -0 0 1
vn -0.0013527512 -0.00026956233 -0.99999905
vn -0.0013527512 -0.00026956233 -0.99999905
vn -0.0013527512 -0.00026956233 -0.99999905
vn -0.0013527512 -0.00026956233 -0.99999905
vn -0.0013527512 -0.00026956233 -0.99999905
vn -0.0013527512 -0.00026956233 -0.99999905
vn -0.0013527512 -0.00026956233 -0.99999905
vn -0.019346539 0.9998123 0.001022741
vn -0.019346539 0.9998123 0.001022741
vn -0.019346539 0.9998123 0.001022741
vn -0.019346539 0.9998123 0.001022741
vn -0.019346539 0.9998123 0.001022741
vn 0.0001328097 -1 -0.00030372935
vn 0.0001328097 -1 -0.00030372935
vn 0.0001328097 -1 -0.00030372935
vn 0.0001328097 -1 -0.00030372935
vn 0.0001328097 -1 -0.00030372935
vn -0.00031208707 -1 0
vn -0.00031208707 -1 0
vn -0.00031208707 -1 0
vn -0.00031208707 -1 0
vn -0.8944269 0.00048773593 0.44721377
vn -0.8944269 0.00048773593 0.44721377
vn -0.8944269 0.00048773593 0.44721377
vn -0.8944269 0.00048773593 0.44721377
vn 0.8944269 -0.00048757027 0.44721377
vn 0.8944269 -0.00048757027 0.44721377
vn 0.8944269 -0.00048757027 0.44721377
vn 0.8944269 -0.00048757027 0.44721377
vn -0 0 1
vn -0 0 1
vn -0 0 1
vn -0 0 1
vn -0 0 1
vn 0.8558529 0.0010069859 0.51721835
vn 0.8558529 0.0010069859 0.51721835
vn 0.8558529 0.0010069859 0.51721835
vn 0.8558529 0.0010069859 0.51721835
vn 0.9999989 0.0014704649 0
vn 0.9999989 0.0014704649 0
vn 0.9999989 0.0014704649 0
vn 0.9999989 0.0014704649 0
g Castle_Door_Left_0
f 3/3/3 2/2/2 1/1/1
f 6/6/6 5/5/5 4/4/4
f 7/7/7 6/6/6 4/4/4
f 10/10/10 9/9/9 8/8/8
f 11/11/11 10/10/10 8/8/8
f 14/14/14 13/13/13 12/12/12
f 15/15/15 14/14/14 12/12/12
f 18/18/18 17/17/17 16/16/16
f 16/16/16 19/19/19 18/18/18
f 19/19/19 16/16/16 20/20/20
f 20/20/20 21/21/21 19/19/19
f 16/16/16 22/22/22 20/20/20
f 25/25/25 24/24/24 23/23/23
f 23/23/23 26/26/26 25/25/25
f 23/23/23 27/27/27 26/26/26
f 27/27/27 28/28/28 26/26/26
f 31/31/31 30/30/30 29/29/29
f 31/31/31 32/32/32 30/30/30
f 31/31/31 33/33/33 32/32/32
f 33/33/33 34/34/34 32/32/32
f 33/33/33 35/35/35 34/34/34
f 38/38/38 37/37/37 36/36/36
f 36/36/36 39/39/39 38/38/38
f 36/36/36 40/40/40 39/39/39
f 43/43/43 42/42/42 41/41/41
f 41/41/41 44/44/44 43/43/43
f 44/44/44 45/45/45 43/43/43
f 46/46/46 44/44/44 41/41/41
f 41/41/41 47/47/47 46/46/46
f 46/46/46 48/48/48 44/44/44
f 48/48/48 49/49/49 44/44/44
f 52/52/52 51/51/51 50/50/50
f 53/53/53 52/52/52 50/50/50
f 56/56/56 55/55/55 54/54/54
f 57/57/57 56/56/56 54/54/54
f 60/60/60 59/59/59 58/58/58
f 58/58/58 61/61/61 60/60/60
f 61/61/61 62/62/62 60/60/60
f 65/65/65 64/64/64 63/63/63
f 66/66/66 65/65/65 63/63/63
f 69/69/69 68/68/68 67/67/67
f 70/70/70 69/69/69 67/67/67
