g Cherry_leaf
v -0.05000004 9.2751856E-05 -0.10575286
v 4.1455226E-13 0.01477206 -0.14013496
v 0.050000023 9.275408E-05 -0.10575286
v -0.08660258 -0.020895407 -0.05742695
v 0.08660258 -0.020895407 -0.057426956
v 0.100000046 -0.023214148 -0.00047201323
v -0.100000046 -0.023214148 -0.00047201884
v -0.09993954 -0.023214148 -0.00024620382
v -0.08660258 -0.010364807 0.047939107
v 0.086602576 -0.010275572 0.047939327
v -0.050000023 0.01169539 0.07853143
v 0.050000027 0.011763291 0.07853216
v -8.741867E-09 0.016562207 0.087926134
v -0.05000004 -0.007415146 -0.10578196
v -0.05000004 9.2751856E-05 -0.10575286
v -0.08660258 -0.020895407 -0.05742695
v 4.1455226E-13 0.01477206 -0.14013496
v -0.08660258 -0.028176753 -0.057431985
v -0.100000046 -0.023214148 -0.00047201884
v 0.050000023 -0.0074151447 -0.10578196
v 0.050000023 9.275408E-05 -0.10575286
v 0.08660258 -0.028176753 -0.057431996
v 0.100000046 -0.030480616 -0.00047201203
v 0.08660258 -0.020895407 -0.057426956
v 0.100000046 -0.023214148 -0.00047201323
v -0.100000046 -0.030480616 -0.00047201765
v -0.09993954 -0.023214148 -0.00024620382
v -0.09993954 -0.030480616 -0.00024620263
v -0.08660258 -0.010364807 0.047939107
v -0.08660258 -0.01780339 0.048059385
v -0.050000023 0.01169539 0.07853143
v 0.086602576 -0.017714683 0.048059266
v 0.086602576 -0.010275572 0.047939327
v -0.050000023 0.0042128465 0.0786116
v -8.741867E-09 0.016562207 0.087926134
v 0.050000027 0.004282004 0.07861145
v 0.050000027 0.011763291 0.07853216
vt 0.12999997 0.45784608
vt 0.25 0.49
vt 0.37 0.4578461
vt 0.042153895 0.36999997
vt 0.4578461 0.37
vt 0.49 0.24999999
vt 0.010000005 0.25
vt 0.010145223 0.24945804
vt 0.042153895 0.13000003
vt 0.4578461 0.13
vt 0.13 0.04215391
vt 0.37 0.04215391
vt 0.24999999 0.010000005
vt 0.12999997 0.45784608
vt 0.12999997 0.45784608
vt 0.042153895 0.36999997
vt 0.25 0.49
vt 0.042153895 0.36999997
vt 0.010000005 0.25
vt 0.37 0.4578461
vt 0.37 0.4578461
vt 0.4578461 0.37
vt 0.49 0.24999999
vt 0.4578461 0.37
vt 0.49 0.24999999
vt 0.010000005 0.25
vt 0.010145223 0.24945804
vt 0.010145223 0.24945804
vt 0.042153895 0.13000003
vt 0.042153895 0.13000003
vt 0.13 0.04215391
vt 0.4578461 0.13
vt 0.4578461 0.13
vt 0.13 0.04215391
vt 0.24999999 0.010000005
vt 0.37 0.04215391
vt 0.37 0.04215391
vn -0.5804103 0.7481122 -0.32163972
vn -0 0.46899232 -0.88320225
vn 0.5804103 0.7481122 -0.32163972
vn -0.7222378 0.644841 -0.25010517
vn 0.7222378 0.644841 -0.25010517
vn 0.78613794 0.61678827 -0.039491538
vn -0.7586496 0.6505196 0.03570762
vn -0.71925056 0.68094873 0.13779506
vn -0.70111823 0.6656244 0.2556901
vn 0.7007468 0.6660161 0.2556882
vn -0.40605673 0.8191328 0.40514114
vn 0.4053588 0.8194462 0.40520623
vn -0.00039674403 0.6433967 0.76553285
vn -0.46087787 -0.536994 -0.7065614
vn -0.5804103 0.7481122 -0.32163972
vn -0.7222378 0.644841 -0.25010517
vn -0 0.46899232 -0.88320225
vn -0.635202 -0.66660655 -0.3900695
vn -0.7586496 0.6505196 0.03570762
vn 0.46087787 -0.536994 -0.7065614
vn 0.5804103 0.7481122 -0.32163972
vn 0.635202 -0.66660655 -0.3900695
vn 0.7263001 -0.68345094 0.07336858
vn 0.7222378 0.644841 -0.25010517
vn 0.78613794 0.61678827 -0.039491538
vn -0.75090295 -0.6602904 -0.012696132
vn -0.71925056 0.68094873 0.13779506
vn -0.6507299 -0.72132075 0.23716454
vn -0.70111823 0.6656244 0.2556901
vn -0.597986 -0.58040714 0.5527571
vn -0.40605673 0.8191328 0.40514114
vn 0.5983865 -0.5801362 0.552608
vn 0.7007468 0.6660161 0.2556882
vn -0.2990274 -0.3991 0.8667767
vn -0.00039674403 0.6433967 0.76553285
vn 0.2994227 -0.39894542 0.8667114
vn 0.4053588 0.8194462 0.40520623
g Cherry_leaf_0
f 3/3/3 2/2/2 1/1/1
f 1/1/1 4/4/4 3/3/3
f 4/4/4 5/5/5 3/3/3
f 6/6/6 5/5/5 4/4/4
f 4/4/4 7/7/7 6/6/6
f 7/7/7 8/8/8 6/6/6
f 8/8/8 9/9/9 6/6/6
f 9/9/9 10/10/10 6/6/6
f 9/9/9 11/11/11 10/10/10
f 11/11/11 12/12/12 10/10/10
f 11/11/11 13/13/13 12/12/12
f 16/16/16 15/15/15 14/14/14
f 14/14/14 15/15/15 17/17/17
f 18/18/18 16/16/16 14/14/14
f 19/19/19 16/16/16 18/18/18
f 17/17/17 20/20/20 14/14/14
f 18/18/18 14/14/14 20/20/20
f 17/17/17 21/21/21 20/20/20
f 20/20/20 21/21/21 22/22/22
f 22/22/22 18/18/18 20/20/20
f 18/18/18 22/22/22 23/23/23
f 21/21/21 24/24/24 22/22/22
f 22/22/22 24/24/24 23/23/23
f 24/24/24 25/25/25 23/23/23
f 26/26/26 19/19/19 18/18/18
f 23/23/23 26/26/26 18/18/18
f 27/27/27 19/19/19 26/26/26
f 28/28/28 27/27/27 26/26/26
f 23/23/23 28/28/28 26/26/26
f 29/29/29 27/27/27 28/28/28
f 30/30/30 29/29/29 28/28/28
f 30/30/30 28/28/28 23/23/23
f 31/31/31 29/29/29 30/30/30
f 23/23/23 25/25/25 32/32/32
f 32/32/32 30/30/30 23/23/23
f 25/25/25 33/33/33 32/32/32
f 34/34/34 31/31/31 30/30/30
f 34/34/34 30/30/30 32/32/32
f 35/35/35 31/31/31 34/34/34
f 32/32/32 33/33/33 36/36/36
f 36/36/36 34/34/34 32/32/32
f 35/35/35 34/34/34 36/36/36
f 33/33/33 37/37/37 36/36/36
f 36/36/36 37/37/37 35/35/35
