g Curve_1
v -2.7159386 -0.0025068205 1.4901161E-08
v -2.4197083 -0.18891358 -1.4901161E-08
v -2.2218418 0.08401249 -3.7252903E-09
v -2.4872723 0.31214952 3.7252903E-09
v -2.03103 0.27279487 -2.6077032E-08
v -2.249725 0.5460574 2.6077032E-08
v -1.8492407 0.38998476 -1.8626451E-08
v -2.0017815 0.7049948 1.8626451E-08
v -1.6738155 0.4502573 -2.4214387E-08
v -1.7465518 0.7926159 2.4214387E-08
v -1.497751 0.46545917 -1.094304E-08
v -1.4914925 0.8154032 1.094304E-08
v -1.3146788 0.4423031 -2.7939677E-09
v -1.243424 0.78497314 2.7939677E-09
v -1.1225893 0.38542846 -1.3038516E-08
v -1.0048084 0.71501553 1.3038516E-08
v -0.9226419 0.30069393 -2.2351742E-08
v -0.77493876 0.618001 2.2351742E-08
v -0.716723 0.19567046 -2.7939677E-08
v -0.55238086 0.5046878 2.7939677E-08
v -0.50623536 0.07892507 -2.2351742E-08
v -0.33618462 0.38483807 2.2351742E-08
v -0.29179096 -0.040552914 -4.0978193E-08
v -0.1261903 0.26779178 4.0978193E-08
v -0.07418275 -0.15304784 -1.3038516E-08
v 0.07794237 0.1621631 1.3038516E-08
vt 1 0
vt 1 1
vt 0.9166667 1
vt 0.9166666 0
vt 0.8333334 1
vt 0.83333325 0
vt 0.75 1
vt 0.74999994 0
vt 0.6666667 1
vt 0.6666666 0
vt 0.5833334 1
vt 0.5833333 0
vt 0.50000006 1
vt 0.49999997 0
vt 0.41666675 1
vt 0.41666663 0
vt 0.33333337 1
vt 0.33333325 0
vt 0.25000006 1
vt 0.25 0
vt 0.16666669 1
vt 0.16666669 0
vt 0.08333331 1
vt 0.08333331 0
vt 0 1
vt 0 0
vn -0 0 -1
vn -0 0 -1
vn -0 0 -1
vn -0 0 -1
vn -0 0 -1
vn -0 0 -1
vn -0 0 -1
vn -0 0 -1
vn -0 0 -1
vn -0 0 -1
vn -0 0 -1
vn -0 0 -1
vn -0 0 -1
vn -0 0 -1
vn -0 0 -1
vn -0 0 -1
vn -0 0 -1
vn -0 0 -1
vn -0 0 -1
vn -0 0 -1
vn -0 0 -1
vn -0 0 -1
vn -0 0 -1
vn -0 0 -1
vn -0 0 -1
vn -0 0 -1
g Curve_1_0
f 3/3/3 2/2/2 1/1/1
f 4/4/4 3/3/3 1/1/1
f 5/5/5 3/3/3 4/4/4
f 6/6/6 5/5/5 4/4/4
f 7/7/7 5/5/5 6/6/6
f 8/8/8 7/7/7 6/6/6
f 9/9/9 7/7/7 8/8/8
f 10/10/10 9/9/9 8/8/8
f 11/11/11 9/9/9 10/10/10
f 12/12/12 11/11/11 10/10/10
f 13/13/13 11/11/11 12/12/12
f 14/14/14 13/13/13 12/12/12
f 15/15/15 13/13/13 14/14/14
f 16/16/16 15/15/15 14/14/14
f 17/17/17 15/15/15 16/16/16
f 18/18/18 17/17/17 16/16/16
f 19/19/19 17/17/17 18/18/18
f 20/20/20 19/19/19 18/18/18
f 21/21/21 19/19/19 20/20/20
f 22/22/22 21/21/21 20/20/20
f 23/23/23 21/21/21 22/22/22
f 24/24/24 23/23/23 22/22/22
f 25/25/25 23/23/23 24/24/24
f 26/26/26 25/25/25 24/24/24
