g Cylinder001
v 0.26607028 0.17778248 0
v 0.30106324 0.30106327 0.106892504
v 0.22627416 0.22627416 0
v 0.35401294 0.23654388 0.106892504
v 0.29564142 0.122458704 0
v 0.3933581 0.16293426 0.106892504
v 0.31385127 0.062428903 0
v 0.41758668 0.08306316 0.106892504
v 0.32 0 0
v 0.42576778 -1.2535783E-08 0.106892504
v 0.31385136 -0.062428422 0
v 0.41758686 -0.083062544 0.106892504
v 0.29564163 -0.122458264 0
v 0.39335835 -0.1629337 0.106892504
v 0.26607051 -0.17778212 0
v 0.3540133 -0.2365434 0.106892504
v 0.22627445 -0.22627388 0
v 0.3010636 -0.30106288 0.106892504
v 0.22627416 0.22627416 0
v 0.30106324 0.30106327 0.106892504
v 0.23654383 0.35401297 0.106892504
v 0.17778246 0.26607028 0
v 0.16293423 0.3933581 0.106892504
v 0.1224587 0.29564142 0
v 0.08306317 0.41758668 0.106892504
v 0.06242891 0.31385127 0
v 2.0868839E-08 0.42576778 0.106892504
v 2.4159327E-08 0.32 0
v -0.08306313 0.41758674 0.106892504
v -0.062428866 0.3138513 0
v -0.16293423 0.39335814 0.106892504
v -0.122458644 0.29564145 0
v -0.23654388 0.35401297 0.106892504
v -0.17778246 0.26607028 0
v -0.30106327 0.30106327 0.106892504
v -0.22627416 0.22627416 0
v -0.22627416 0.22627416 0
v -0.30106327 0.30106327 0.106892504
v -0.35401297 0.23654386 0.106892504
v -0.26607028 0.17778246 0
v -0.39335814 0.16293418 0.106892504
v -0.29564148 0.122458644 0
v -0.41758674 0.08306306 0.106892504
v -0.3138513 0.062428825 0
v -0.42576778 -1.5126852E-07 0.106892504
v -0.32 -1.0426923E-07 0
v -0.41758668 -0.08306335 0.106892504
v -0.31385127 -0.06242903 0
v -0.39335802 -0.16293445 0.106892504
v -0.29564136 -0.12245884 0
v -0.3540128 -0.23654409 0.106892504
v -0.26607016 -0.17778262 0
v -0.3010631 -0.30106345 0.106892504
v -0.22627403 -0.22627431 0
v -0.22627403 -0.22627431 0
v -0.3010631 -0.30106345 0.106892504
v -0.23654366 -0.35401312 0.106892504
v -0.17778228 -0.2660704 0
v -0.16293398 -0.39335826 0.106892504
v -0.12245846 -0.29564154 0
v -0.08306281 -0.4175868 0.106892504
v -0.062428627 -0.31385133 0
v 3.9984525E-07 -0.42576778 0.106892504
v 3.0899173E-07 -0.32 0
v 0.08306359 -0.41758665 0.106892504
v 0.06242923 -0.3138512 0
v 0.16293466 -0.3933579 0.106892504
v 0.122459024 -0.2956413 0
v 0.2365443 -0.35401264 0.106892504
v 0.1777828 -0.26607007 0
v 0.3010636 -0.30106288 0.106892504
v 0.22627445 -0.22627388 0
v 0.26607013 0.17778248 0
v 0.22627403 0.22627416 0
v 0.30106306 0.30106327 0.106892504
v 0.35401276 0.23654388 0.106892504
v 0.29564133 0.122458704 0
v 0.39335796 0.16293426 0.106892504
v 0.31385115 0.062428903 0
v 0.4175866 0.08306316 0.106892504
v 0.31999987 0 0
v 0.42576763 -1.2535783E-08 0.106892504
v 0.31385124 -0.062428422 0
v 0.41758665 -0.083062544 0.106892504
v 0.2956415 -0.122458264 0
v 0.39335823 -0.1629337 0.106892504
v 0.2660704 -0.17778212 0
v 0.35401312 -0.2365434 0.106892504
v 0.22627433 -0.22627388 0
v 0.30106348 -0.30106288 0.106892504
v 0.22627403 0.22627416 0
v 0.2365437 0.35401297 0.106892504
v 0.30106306 0.30106327 0.106892504
v 0.17778234 0.26607028 0
v 0.16293405 0.3933581 0.106892504
v 0.12245857 0.29564142 0
v 0.08306301 0.41758668 0.106892504
v 0.06242879 0.31385127 0
v -1.3816442E-07 0.42576778 0.106892504
v -9.5367426E-08 0.32 0
v -0.08306329 0.41758674 0.106892504
v -0.062428985 0.3138513 0
v -0.16293438 0.39335814 0.106892504
v -0.12245876 0.29564145 0
v -0.23654407 0.35401297 0.106892504
v -0.1777826 0.26607028 0
v -0.30106345 0.30106327 0.106892504
v -0.2262743 0.22627416 0
v -0.2262743 0.22627416 0
v -0.35401312 0.23654386 0.106892504
v -0.30106345 0.30106327 0.106892504
v -0.2660704 0.17778246 0
v -0.3933583 0.16293418 0.106892504
v -0.2956416 0.122458644 0
v -0.41758692 0.08306306 0.106892504
v -0.31385142 0.062428825 0
v -0.4257679 -1.5126852E-07 0.106892504
v -0.3200001 -1.0426923E-07 0
v -0.4175869 -0.08306335 0.106892504
v -0.3138514 -0.06242903 0
v -0.39335823 -0.16293445 0.106892504
v -0.2956415 -0.12245884 0
v -0.35401297 -0.23654409 0.106892504
v -0.26607028 -0.17778262 0
v -0.30106324 -0.30106345 0.106892504
v -0.22627415 -0.22627431 0
v -0.22627415 -0.22627431 0
v -0.2365438 -0.35401312 0.106892504
v -0.30106324 -0.30106345 0.106892504
v -0.1777824 -0.2660704 0
v -0.16293412 -0.39335826 0.106892504
v -0.12245857 -0.29564154 0
v -0.08306297 -0.4175868 0.106892504
v -0.062428746 -0.31385133 0
v 2.425016E-07 -0.42576778 0.106892504
v 1.9073485E-07 -0.32 0
v 0.083063446 -0.41758665 0.106892504
v 0.062429115 -0.3138512 0
v 0.16293453 -0.3933579 0.106892504
v 0.12245891 -0.2956413 0
v 0.23654415 -0.35401264 0.106892504
v 0.17778268 -0.26607007 0
v 0.30106348 -0.30106288 0.106892504
v 0.22627433 -0.22627388 0
vt 1.6125456 0.05997455
vt 1.916002 0.94002545
vt 1.916002 0.05997455
vt 1.6125456 0.94002545
vt 1.2663347 0.05997455
vt 1.2663347 0.94002545
vt 0.89067376 0.05997455
vt 0.89067376 0.94002545
vt 0.49999952 0.05997455
vt 0.49999952 0.94002545
vt 0.10932833 0.05997455
vt 0.10932833 0.94002545
vt -0.26633275 0.05997455
vt -0.26633275 0.94002545
vt -0.61254406 0.05997455
vt -0.61254406 0.94002545
vt -0.91600096 0.05997455
vt -0.91600096 0.94002545
vt -0.91600275 0.05997455
vt -0.91600275 0.94002545
vt -0.6125462 0.94002545
vt -0.6125462 0.05997455
vt -0.2663355 0.94002545
vt -0.2663355 0.05997455
vt 0.10932529 0.94002545
vt 0.10932529 0.05997455
vt 0.49999934 0.94002545
vt 0.49999934 0.05997455
vt 0.8906735 0.94002545
vt 0.8906735 0.05997455
vt 1.2663343 0.94002545
vt 1.2663343 0.05997455
vt 1.6125455 0.94002545
vt 1.6125455 0.05997455
vt 1.916002 0.94002545
vt 1.916002 0.05997455
vt -0.91600275 0.05997455
vt -0.91600275 0.94002545
vt -0.6125462 0.94002545
vt -0.6125462 0.05997455
vt -0.26633513 0.94002545
vt -0.26633513 0.05997455
vt 0.10932577 0.94002545
vt 0.10932577 0.05997455
vt 0.5000002 0.94002545
vt 0.5000002 0.05997455
vt 0.89067453 0.94002545
vt 0.89067453 0.05997455
vt 1.2663355 0.94002545
vt 1.2663355 0.05997455
vt 1.6125466 0.94002545
vt 1.6125466 0.05997455
vt 1.916003 0.94002545
vt 1.916003 0.05997455
vt -0.9160019 0.05997455
vt -0.9160019 0.94002545
vt -0.61254513 0.94002545
vt -0.61254513 0.05997455
vt -0.26633394 0.94002545
vt -0.26633394 0.05997455
vt 0.10932705 0.94002545
vt 0.10932705 0.05997455
vt 0.50000143 0.94002545
vt 0.50000143 0.05997455
vt 0.8906758 0.94002545
vt 0.8906758 0.05997455
vt 1.2663367 0.94002545
vt 1.2663367 0.05997455
vt 1.6125476 0.94002545
vt 1.6125476 0.05997455
vt 1.9160038 0.94002545
vt 1.9160038 0.05997455
vt 1.6125456 0.05997455
vt 1.916002 0.05997455
vt 1.916002 0.94002545
vt 1.6125456 0.94002545
vt 1.2663347 0.05997455
vt 1.2663347 0.94002545
vt 0.89067376 0.05997455
vt 0.89067376 0.94002545
vt 0.49999952 0.05997455
vt 0.49999952 0.94002545
vt 0.10932833 0.05997455
vt 0.10932833 0.94002545
vt -0.26633275 0.05997455
vt -0.26633275 0.94002545
vt -0.61254406 0.05997455
vt -0.61254406 0.94002545
vt -0.91600096 0.05997455
vt -0.91600096 0.94002545
vt -0.91600275 0.05997455
vt -0.6125462 0.94002545
vt -0.91600275 0.94002545
vt -0.6125462 0.05997455
vt -0.2663355 0.94002545
vt -0.2663355 0.05997455
vt 0.10932529 0.94002545
vt 0.10932529 0.05997455
vt 0.49999934 0.94002545
vt 0.49999934 0.05997455
vt 0.8906735 0.94002545
vt 0.8906735 0.05997455
vt 1.2663343 0.94002545
vt 1.2663343 0.05997455
vt 1.6125455 0.94002545
vt 1.6125455 0.05997455
vt 1.916002 0.94002545
vt 1.916002 0.05997455
vt -0.91600275 0.05997455
vt -0.6125462 0.94002545
vt -0.91600275 0.94002545
vt -0.6125462 0.05997455
vt -0.26633513 0.94002545
vt -0.26633513 0.05997455
vt 0.10932577 0.94002545
vt 0.10932577 0.05997455
vt 0.5000002 0.94002545
vt 0.5000002 0.05997455
vt 0.89067453 0.94002545
vt 0.89067453 0.05997455
vt 1.2663355 0.94002545
vt 1.2663355 0.05997455
vt 1.6125466 0.94002545
vt 1.6125466 0.05997455
vt 1.916003 0.94002545
vt 1.916003 0.05997455
vt -0.9160019 0.05997455
vt -0.61254513 0.94002545
vt -0.9160019 0.94002545
vt -0.61254513 0.05997455
vt -0.26633394 0.94002545
vt -0.26633394 0.05997455
vt 0.10932705 0.94002545
vt 0.10932705 0.05997455
vt 0.50000143 0.94002545
vt 0.50000143 0.05997455
vt 0.8906758 0.94002545
vt 0.8906758 0.05997455
vt 1.2663367 0.94002545
vt 1.2663367 0.05997455
vt 1.6125476 0.94002545
vt 1.6125476 0.05997455
vt 1.9160038 0.94002545
vt 1.9160038 0.05997455
vn 0.5910392 0.3949198 -0.70335704
vn 0.5026375 0.5026375 -0.7033571
vn 0.5026375 0.5026375 -0.7033571
vn 0.5910392 0.39491978 -0.70335704
vn 0.65672755 0.27202535 -0.70335704
vn 0.65672755 0.27202535 -0.70335704
vn 0.6971782 0.13867745 -0.70335704
vn 0.6971782 0.13867745 -0.70335704
vn 0.71083665 3.621015E-07 -0.70335716
vn 0.7108367 3.257474E-07 -0.70335704
vn 0.69717824 -0.13867664 -0.7033571
vn 0.69717824 -0.13867663 -0.7033571
vn 0.6567279 -0.27202436 -0.70335716
vn 0.6567279 -0.27202442 -0.7033571
vn 0.5910396 -0.39491898 -0.7033571
vn 0.59103966 -0.39491898 -0.7033571
vn 0.5026381 -0.50263697 -0.70335704
vn 0.5026381 -0.5026369 -0.70335704
vn 0.5026375 0.5026375 -0.7033571
vn 0.5026375 0.5026375 -0.7033571
vn 0.39491966 0.5910392 -0.7033571
vn 0.39491966 0.5910392 -0.7033571
vn 0.2720253 0.65672755 -0.70335704
vn 0.2720253 0.65672755 -0.70335704
vn 0.13867751 0.6971782 -0.70335704
vn 0.13867751 0.6971782 -0.70335704
vn 1.3676423E-07 0.7108367 -0.70335716
vn 1.5258361E-07 0.7108367 -0.70335704
vn -0.13867736 0.6971781 -0.7033571
vn -0.13867734 0.6971781 -0.7033571
vn -0.27202526 0.65672743 -0.70335716
vn -0.27202526 0.65672755 -0.70335716
vn -0.39491963 0.591039 -0.70335716
vn -0.39491963 0.59103906 -0.70335716
vn -0.5026375 0.5026374 -0.7033571
vn -0.50263745 0.5026374 -0.70335716
vn -0.50263745 0.5026374 -0.70335716
vn -0.5026375 0.5026374 -0.7033571
vn -0.5910391 0.39491963 -0.70335716
vn -0.5910391 0.39491966 -0.70335716
vn -0.6567276 0.27202523 -0.7033571
vn -0.65672755 0.2720252 -0.7033571
vn -0.6971782 0.13867721 -0.70335704
vn -0.6971782 0.13867722 -0.70335704
vn -0.7108367 -1.9644315E-07 -0.70335716
vn -0.7108367 -1.8446676E-07 -0.70335716
vn -0.6971781 -0.13867776 -0.7033571
vn -0.69717807 -0.13867775 -0.7033571
vn -0.6567273 -0.27202582 -0.7033571
vn -0.65672725 -0.27202582 -0.70335716
vn -0.59103894 -0.39492005 -0.7033571
vn -0.59103894 -0.39492002 -0.70335704
vn -0.50263727 -0.5026377 -0.7033571
vn -0.5026372 -0.5026377 -0.70335716
vn -0.5026372 -0.5026377 -0.70335716
vn -0.50263727 -0.5026377 -0.7033571
vn -0.39491934 -0.5910393 -0.70335716
vn -0.39491934 -0.5910393 -0.70335716
vn -0.27202484 -0.6567276 -0.70335716
vn -0.27202484 -0.6567277 -0.70335716
vn -0.13867673 -0.6971783 -0.70335704
vn -0.13867673 -0.69717824 -0.7033571
vn 6.514948E-07 -0.7108367 -0.70335704
vn 6.5360445E-07 -0.7108367 -0.70335716
vn 0.1386782 -0.69717795 -0.7033571
vn 0.1386782 -0.69717795 -0.7033571
vn 0.2720262 -0.65672725 -0.70335704
vn 0.27202624 -0.65672725 -0.70335704
vn 0.39492047 -0.59103876 -0.70335704
vn 0.3949205 -0.59103876 -0.703357
vn 0.5026381 -0.5026369 -0.70335704
vn 0.5026381 -0.50263697 -0.70335704
vn -0.5910391 -0.39491996 0.7033569
vn -0.5026376 -0.50263745 0.7033569
vn -0.5026376 -0.5026375 0.7033569
vn -0.5910392 -0.39491996 0.7033569
vn -0.65672755 -0.27202561 0.70335704
vn -0.65672755 -0.27202561 0.703357
vn -0.6971782 -0.13867748 0.70335704
vn -0.6971783 -0.13867748 0.70335704
vn -0.71083677 -1.1159101E-07 0.70335704
vn -0.71083677 0 0.70335704
vn -0.6971784 0.13867663 0.7033569
vn -0.6971785 0.1386766 0.70335704
vn -0.656728 0.2720243 0.70335704
vn -0.656728 0.27202436 0.70335704
vn -0.5910397 0.3949191 0.70335704
vn -0.5910397 0.39491907 0.70335704
vn -0.5026381 0.50263697 0.703357
vn -0.5026381 0.50263697 0.70335704
vn -0.5026376 -0.50263745 0.7033569
vn -0.39491972 -0.5910392 0.70335704
vn -0.5026376 -0.5026375 0.7033569
vn -0.39491978 -0.59103924 0.703357
vn -0.2720253 -0.65672773 0.70335704
vn -0.2720253 -0.6567277 0.703357
vn -0.13867752 -0.6971783 0.70335704
vn -0.13867755 -0.6971783 0.70335704
vn -1.2184447E-07 -0.7108367 0.70335704
vn -1.5941572E-07 -0.7108367 0.70335716
vn 0.13867734 -0.6971781 0.70335716
vn 0.13867731 -0.6971781 0.7033571
vn 0.2720252 -0.65672743 0.70335716
vn 0.27202514 -0.65672755 0.70335716
vn 0.3949195 -0.591039 0.7033573
vn 0.3949195 -0.591039 0.7033573
vn 0.50263745 -0.50263727 0.7033573
vn 0.50263745 -0.50263727 0.7033572
vn 0.50263745 -0.50263727 0.7033572
vn 0.5910391 -0.39491954 0.7033572
vn 0.50263745 -0.50263727 0.7033573
vn 0.5910391 -0.39491957 0.7033572
vn 0.65672743 -0.2720253 0.70335716
vn 0.6567275 -0.27202532 0.7033571
vn 0.69717807 -0.1386771 0.7033572
vn 0.69717807 -0.13867712 0.7033572
vn 0.7108366 1.9644304E-07 0.7033572
vn 0.7108366 1.8674413E-07 0.7033572
vn 0.697178 0.1386775 0.7033573
vn 0.697178 0.1386775 0.7033573
vn 0.6567271 0.27202567 0.70335734
vn 0.6567272 0.27202573 0.7033573
vn 0.5910388 0.39492 0.7033573
vn 0.59103876 0.39492 0.7033573
vn 0.5026371 0.5026377 0.7033573
vn 0.5026371 0.5026377 0.7033572
vn 0.5026371 0.5026377 0.7033572
vn 0.39491925 0.5910393 0.7033573
vn 0.5026371 0.5026377 0.7033573
vn 0.3949192 0.5910393 0.7033572
vn 0.2720248 0.6567276 0.7033572
vn 0.2720248 0.6567277 0.7033573
vn 0.13867673 0.6971783 0.70335716
vn 0.13867672 0.6971782 0.70335716
vn -6.36575E-07 0.7108366 0.7033572
vn -6.6271383E-07 0.71083665 0.70335716
vn -0.1386782 0.69717807 0.70335704
vn -0.13867822 0.69717795 0.7033571
vn -0.27202627 0.65672725 0.70335704
vn -0.2720263 0.65672725 0.70335704
vn -0.39492044 0.5910388 0.703357
vn -0.3949205 0.59103876 0.703357
vn -0.5026381 0.50263697 0.70335704
vn -0.5026381 0.50263697 0.703357
g Cylinder001_0
f 3/3/3 2/2/2 1/1/1
f 2/2/2 4/4/4 1/1/1
f 1/1/1 4/4/4 5/5/5
f 4/4/4 6/6/6 5/5/5
f 5/5/5 6/6/6 7/7/7
f 6/6/6 8/8/8 7/7/7
f 7/7/7 8/8/8 9/9/9
f 8/8/8 10/10/10 9/9/9
f 9/9/9 10/10/10 11/11/11
f 10/10/10 12/12/12 11/11/11
f 11/11/11 12/12/12 13/13/13
f 12/12/12 14/14/14 13/13/13
f 13/13/13 14/14/14 15/15/15
f 14/14/14 16/16/16 15/15/15
f 15/15/15 16/16/16 17/17/17
f 16/16/16 18/18/18 17/17/17
f 21/21/21 20/20/20 19/19/19
f 22/22/22 21/21/21 19/19/19
f 23/23/23 21/21/21 22/22/22
f 24/24/24 23/23/23 22/22/22
f 25/25/25 23/23/23 24/24/24
f 26/26/26 25/25/25 24/24/24
f 27/27/27 25/25/25 26/26/26
f 28/28/28 27/27/27 26/26/26
f 29/29/29 27/27/27 28/28/28
f 30/30/30 29/29/29 28/28/28
f 31/31/31 29/29/29 30/30/30
f 32/32/32 31/31/31 30/30/30
f 33/33/33 31/31/31 32/32/32
f 34/34/34 33/33/33 32/32/32
f 35/35/35 33/33/33 34/34/34
f 36/36/36 35/35/35 34/34/34
f 39/39/39 38/38/38 37/37/37
f 40/40/40 39/39/39 37/37/37
f 41/41/41 39/39/39 40/40/40
f 42/42/42 41/41/41 40/40/40
f 43/43/43 41/41/41 42/42/42
f 44/44/44 43/43/43 42/42/42
f 45/45/45 43/43/43 44/44/44
f 46/46/46 45/45/45 44/44/44
f 47/47/47 45/45/45 46/46/46
f 48/48/48 47/47/47 46/46/46
f 49/49/49 47/47/47 48/48/48
f 50/50/50 49/49/49 48/48/48
f 51/51/51 49/49/49 50/50/50
f 52/52/52 51/51/51 50/50/50
f 53/53/53 51/51/51 52/52/52
f 54/54/54 53/53/53 52/52/52
f 57/57/57 56/56/56 55/55/55
f 58/58/58 57/57/57 55/55/55
f 59/59/59 57/57/57 58/58/58
f 60/60/60 59/59/59 58/58/58
f 61/61/61 59/59/59 60/60/60
f 62/62/62 61/61/61 60/60/60
f 63/63/63 61/61/61 62/62/62
f 64/64/64 63/63/63 62/62/62
f 65/65/65 63/63/63 64/64/64
f 66/66/66 65/65/65 64/64/64
f 67/67/67 65/65/65 66/66/66
f 68/68/68 67/67/67 66/66/66
f 69/69/69 67/67/67 68/68/68
f 70/70/70 69/69/69 68/68/68
f 71/71/71 69/69/69 70/70/70
f 72/72/72 71/71/71 70/70/70
f 75/75/75 74/74/74 73/73/73
f 76/76/76 75/75/75 73/73/73
f 76/76/76 73/73/73 77/77/77
f 78/78/78 76/76/76 77/77/77
f 78/78/78 77/77/77 79/79/79
f 80/80/80 78/78/78 79/79/79
f 80/80/80 79/79/79 81/81/81
f 82/82/82 80/80/80 81/81/81
f 82/82/82 81/81/81 83/83/83
f 84/84/84 82/82/82 83/83/83
f 84/84/84 83/83/83 85/85/85
f 86/86/86 84/84/84 85/85/85
f 86/86/86 85/85/85 87/87/87
f 88/88/88 86/86/86 87/87/87
f 88/88/88 87/87/87 89/89/89
f 90/90/90 88/88/88 89/89/89
f 93/93/93 92/92/92 91/91/91
f 92/92/92 94/94/94 91/91/91
f 92/92/92 95/95/95 94/94/94
f 95/95/95 96/96/96 94/94/94
f 95/95/95 97/97/97 96/96/96
f 97/97/97 98/98/98 96/96/96
f 97/97/97 99/99/99 98/98/98
f 99/99/99 100/100/100 98/98/98
f 99/99/99 101/101/101 100/100/100
f 101/101/101 102/102/102 100/100/100
f 101/101/101 103/103/103 102/102/102
f 103/103/103 104/104/104 102/102/102
f 103/103/103 105/105/105 104/104/104
f 105/105/105 106/106/106 104/104/104
f 105/105/105 107/107/107 106/106/106
f 107/107/107 108/108/108 106/106/106
f 111/111/111 110/110/110 109/109/109
f 110/110/110 112/112/112 109/109/109
f 110/110/110 113/113/113 112/112/112
f 113/113/113 114/114/114 112/112/112
f 113/113/113 115/115/115 114/114/114
f 115/115/115 116/116/116 114/114/114
f 115/115/115 117/117/117 116/116/116
f 117/117/117 118/118/118 116/116/116
f 117/117/117 119/119/119 118/118/118
f 119/119/119 120/120/120 118/118/118
f 119/119/119 121/121/121 120/120/120
f 121/121/121 122/122/122 120/120/120
f 121/121/121 123/123/123 122/122/122
f 123/123/123 124/124/124 122/122/122
f 123/123/123 125/125/125 124/124/124
f 125/125/125 126/126/126 124/124/124
f 129/129/129 128/128/128 127/127/127
f 128/128/128 130/130/130 127/127/127
f 128/128/128 131/131/131 130/130/130
f 131/131/131 132/132/132 130/130/130
f 131/131/131 133/133/133 132/132/132
f 133/133/133 134/134/134 132/132/132
f 133/133/133 135/135/135 134/134/134
f 135/135/135 136/136/136 134/134/134
f 135/135/135 137/137/137 136/136/136
f 137/137/137 138/138/138 136/136/136
f 137/137/137 139/139/139 138/138/138
f 139/139/139 140/140/140 138/138/138
f 139/139/139 141/141/141 140/140/140
f 141/141/141 142/142/142 140/140/140
f 141/141/141 143/143/143 142/142/142
f 143/143/143 144/144/144 142/142/142
