g ETFX_CirclePlane2
v 0.4371741 -0.25240263 -8.592606E-07
v 0.17779486 -0.10264996 -8.106232E-07
v 0.19830438 -0.053135563 -8.106232E-07
v 0.48760432 -0.13065328 -8.592606E-07
v 0.20529982 -2.9437151E-08 -8.106232E-07
v 0.5048052 -1.05330614E-07 -8.592606E-07
v 0.19830444 0.053135473 -8.106232E-07
v 0.4876044 0.13065307 -8.592606E-07
v 0.17779493 0.10264986 -8.106232E-07
v 0.43717423 0.25240245 -8.592606E-07
v 0.14516892 0.14516886 -8.106232E-07
v 0.3569513 0.35695106 -8.592606E-07
v 0.10264997 0.17779487 -8.106232E-07
v 0.25240278 0.43717402 -8.592606E-07
v 0.05313561 0.19830444 -8.106232E-07
v 0.13065343 0.48760432 -8.592606E-07
v 1.4964117E-07 0.20529982 -8.106232E-07
v 2.6379726E-07 0.5048052 -8.592606E-07
v -0.053135376 0.19830441 -8.106232E-07
v -0.13065292 0.48760444 -8.592606E-07
v -0.102649845 0.17779492 -8.106232E-07
v -0.25240234 0.43717426 -8.592606E-07
v -0.14516878 0.145169 -8.106232E-07
v -0.35695097 0.35695142 -8.592606E-07
v -0.17779481 0.10265 -8.106232E-07
v -0.437174 0.2524028 -8.592606E-07
v -0.19830438 0.0531356 -8.106232E-07
v -0.4876043 0.13065346 -8.592606E-07
v -0.20529982 1.4498876E-07 -8.106232E-07
v -0.5048052 3.0190904E-07 -8.592606E-07
vt 0.75000006 0.9330126
vt 0.6016728 0.6761024
vt 0.55262977 0.69641674
vt 0.6294097 0.98296285
vt 0.50000006 0.7033456
vt 0.5000002 1
vt 0.44737035 0.6964168
vt 0.3705907 0.9829629
vt 0.3983273 0.6761025
vt 0.2500002 0.9330128
vt 0.35621303 0.6437871
vt 0.14644682 0.85355353
vt 0.32389754 0.6016729
vt 0.066987455 0.7500002
vt 0.30358323 0.5526298
vt 0.017037183 0.6294098
vt 0.2966544 0.5000002
vt 2.9802322E-08 0.5000003
vt 0.30358323 0.44737044
vt 0.017037064 0.3705908
vt 0.32389748 0.3983273
vt 0.06698719 0.25000033
vt 0.35621285 0.3562131
vt 0.14644635 0.14644691
vt 0.3983271 0.32389763
vt 0.24999979 0.066987485
vt 0.44737017 0.3035833
vt 0.37059018 0.017037213
vt 0.49999982 0.2966544
vt 0.49999964 2.9802322E-08
vn -0 0 1
vn -0 0 1
vn -0 0 1
vn -0 0 1
vn -0 0 1
vn -0 0 1
vn -0 0 1
vn -0 0 1
vn -0 0 1
vn -0 0 1
vn -0 0 1
vn -0 0 1
vn -0 0 1
vn -0 0 1
vn -0 0 1
vn -0 0 1
vn -0 0 1
vn -0 0 1
vn -0 0 1
vn -0 0 1
vn -0 0 1
vn -0 0 1
vn -0 0 1
vn -0 0 1
vn -0 0 1
vn -0 0 1
vn -0 0 1
vn -0 0 1
vn -0 0 1
vn -0 0 1
g ETFX_CirclePlane2_0
f 3/3/3 2/2/2 1/1/1
f 4/4/4 3/3/3 1/1/1
f 5/5/5 3/3/3 4/4/4
f 6/6/6 5/5/5 4/4/4
f 7/7/7 5/5/5 6/6/6
f 8/8/8 7/7/7 6/6/6
f 9/9/9 7/7/7 8/8/8
f 10/10/10 9/9/9 8/8/8
f 11/11/11 9/9/9 10/10/10
f 12/12/12 11/11/11 10/10/10
f 13/13/13 11/11/11 12/12/12
f 14/14/14 13/13/13 12/12/12
f 15/15/15 13/13/13 14/14/14
f 16/16/16 15/15/15 14/14/14
f 17/17/17 15/15/15 16/16/16
f 18/18/18 17/17/17 16/16/16
f 19/19/19 17/17/17 18/18/18
f 20/20/20 19/19/19 18/18/18
f 21/21/21 19/19/19 20/20/20
f 22/22/22 21/21/21 20/20/20
f 23/23/23 21/21/21 22/22/22
f 24/24/24 23/23/23 22/22/22
f 25/25/25 23/23/23 24/24/24
f 26/26/26 25/25/25 24/24/24
f 27/27/27 25/25/25 26/26/26
f 28/28/28 27/27/27 26/26/26
f 29/29/29 27/27/27 28/28/28
f 30/30/30 29/29/29 28/28/28
