g ETFX_AuraVerticalCentered
v 0.31999996 -1.9073486E-08 -0.14671247
v 0.31385124 0.062428884 -0.14671247
v 0.31389302 0.0624372 0.14671247
v 0.3200426 -1.9455355E-08 0.14671247
v 0.3138513 -0.06242844 -0.14671247
v 0.31389308 -0.062436752 0.14671247
v 0.2956416 -0.12245829 -0.14671247
v 0.295681 -0.12247458 0.14671247
v 0.2660705 -0.17778213 -0.14671247
v 0.26610592 -0.17780578 0.14671247
v 0.22627442 -0.2262739 -0.14671247
v 0.22630455 -0.22630401 0.14671247
v 0.17778276 -0.26607007 -0.14671247
v 0.17780644 -0.26610544 0.14671247
v 0.12245899 -0.29564133 -0.14671247
v 0.12247529 -0.29568067 0.14671247
v 0.062429193 -0.31385124 -0.14671247
v 0.062437516 -0.313893 0.14671247
v 2.670288E-07 -0.32 -0.14671247
v 2.7133558E-07 -0.32004264 0.14671247
v -0.06242867 -0.31385136 -0.14671247
v -0.062436976 -0.3138931 0.14671247
v -0.122458495 -0.29564157 -0.14671247
v -0.12247481 -0.2956809 0.14671247
v -0.17778233 -0.26607043 -0.14671247
v -0.17780598 -0.26610583 0.14671247
v -0.22627407 -0.22627433 -0.14671247
v -0.22630419 -0.22630443 0.14671247
v -0.26607022 -0.17778264 -0.14671247
v -0.26610562 -0.1778063 0.14671247
v -0.29564142 -0.12245885 -0.14671247
v -0.2956808 -0.122475155 0.14671247
v -0.3138513 -0.06242905 -0.14671247
v -0.31389305 -0.062437363 0.14671247
v -0.32000002 -1.2334272E-07 -0.14671247
v -0.3200426 -1.2373847E-07 0.14671247
v -0.31385136 0.062428806 -0.14671247
v -0.3138931 0.062437125 0.14671247
v -0.2956415 0.12245863 -0.14671247
v -0.29568085 0.12247493 0.14671247
v -0.26607034 0.17778243 -0.14671247
v -0.26610574 0.17780612 0.14671247
v -0.22627422 0.22627415 -0.14671247
v -0.22630434 0.2263043 0.14671247
v -0.1777825 0.26607028 -0.14671247
v -0.17780618 0.2661057 0.14671247
v -0.12245868 0.29564142 -0.14671247
v -0.122475 0.29568085 0.14671247
v -0.062428907 0.31385127 -0.14671247
v -0.062437214 0.31389305 0.14671247
v -1.9073486E-08 0.31999996 -0.14671247
v -1.4804809E-08 0.32004264 0.14671247
v 0.06242887 0.31385127 -0.14671247
v 0.062437184 0.31389302 0.14671247
v 0.122458644 0.29564142 -0.14671247
v 0.122474924 0.2956808 0.14671247
v 0.17778242 0.26607028 -0.14671247
v 0.17780611 0.2661057 0.14671247
v 0.2262741 0.22627415 -0.14671247
v 0.22630423 0.2263043 0.14671247
v 0.26607022 0.17778246 -0.14671247
v 0.26610565 0.17780612 0.14671247
v 0.2956414 0.12245868 -0.14671247
v 0.2956808 0.12247499 0.14671247
v 0.31385124 0.062428884 -0.14671247
v 0.31389302 0.0624372 0.14671247
vt 0.031718656 0.0005
vt 0.0005 0.0005
vt 0.0005 0.99950004
vt 0.031718656 0.99950004
vt 0.06293731 0.0005
vt 0.06293731 0.99950004
vt 0.094155975 0.0005
vt 0.094155975 0.99950004
vt 0.12537475 0.0005
vt 0.12537475 0.99950004
vt 0.15659349 0.0005
vt 0.15659349 0.99950004
vt 0.18781227 0.0005
vt 0.18781227 0.99950004
vt 0.219031 0.0005
vt 0.219031 0.99950004
vt 0.25024977 0.0005
vt 0.25024977 0.99950004
vt 0.2814685 0.0005
vt 0.2814685 0.99950004
vt 0.31268725 0.0005
vt 0.31268725 0.99950004
vt 0.34390604 0.0005
vt 0.34390604 0.99950004
vt 0.37512475 0.0005
vt 0.37512475 0.99950004
vt 0.4063435 0.0005
vt 0.4063435 0.99950004
vt 0.43756223 0.0005
vt 0.43756223 0.99950004
vt 0.468781 0.0005
vt 0.468781 0.99950004
vt 0.4999997 0.0005
vt 0.4999997 0.99950004
vt 0.53121847 0.0005
vt 0.53121847 0.99950004
vt 0.56243724 0.0005
vt 0.56243724 0.99950004
vt 0.593656 0.0005
vt 0.593656 0.99950004
vt 0.6248747 0.0005
vt 0.6248747 0.99950004
vt 0.6560935 0.0005
vt 0.6560935 0.99950004
vt 0.68731225 0.0005
vt 0.68731225 0.99950004
vt 0.718531 0.0005
vt 0.718531 0.99950004
vt 0.7497497 0.0005
vt 0.7497497 0.99950004
vt 0.7809684 0.0005
vt 0.7809684 0.99950004
vt 0.8121872 0.0005
vt 0.8121872 0.99950004
vt 0.8434059 0.0005
vt 0.8434059 0.99950004
vt 0.87462467 0.0005
vt 0.87462467 0.99950004
vt 0.90584344 0.0005
vt 0.90584344 0.99950004
vt 0.9370622 0.0005
vt 0.9370622 0.99950004
vt 0.9682809 0.0005
vt 0.9682809 0.99950004
vt 0.9994997 0.0005
vt 0.9994997 0.99950004
vn -1 -1.3821672E-07 0.0001452632
vn -0.98078525 -0.19509044 0.0001452646
vn -0.98078525 -0.19509044 0.0001452646
vn -1 -1.3821924E-07 0.0001452632
vn -0.9807854 0.19508922 0.0001452443
vn -0.9807854 0.1950892 0.00014524428
vn -0.9238802 0.38268173 0.00014526812
vn -0.9238802 0.3826817 0.00014526812
vn -0.83147025 0.5555692 0.00014525962
vn -0.83147025 0.5555692 0.0001452596
vn -0.70710754 0.70710605 0.00014518289
vn -0.7071076 0.70710593 0.00014518287
vn -0.55557126 0.83146894 0.00014512432
vn -0.5555712 0.83146894 0.00014512432
vn -0.3826845 0.9238791 0.00014511518
vn -0.38268447 0.9238791 0.00014511518
vn -0.19509147 0.980785 0.00014513683
vn -0.19509147 0.980785 0.00014513683
vn -9.10324E-07 1 0.00014514934
vn -9.1034053E-07 1 0.00014514934
vn 0.19508949 0.9807854 0.00014513584
vn 0.19508944 0.9807854 0.00014513584
vn 0.38268262 0.9238799 0.00014514483
vn 0.3826826 0.9238799 0.00014514482
vn 0.55556965 0.83146995 0.00014514446
vn 0.55556965 0.83146995 0.00014514446
vn 0.70710635 0.7071072 0.00014512625
vn 0.7071063 0.70710725 0.00014512625
vn 0.8314692 0.5555708 0.00014515422
vn 0.8314692 0.5555708 0.00014515422
vn 0.9238793 0.38268393 0.00014516465
vn 0.9238793 0.38268387 0.00014516467
vn 0.98078525 0.1950905 0.00014511675
vn 0.98078525 0.19509052 0.00014511676
vn 1 3.0503E-07 0.00014508418
vn 1 3.0503554E-07 0.00014508418
vn 0.98078537 -0.19508994 0.00014510477
vn 0.98078537 -0.19508994 0.00014510477
vn 0.9238796 -0.38268322 0.00014515681
vn 0.9238796 -0.38268322 0.00014515682
vn 0.8314697 -0.5555701 0.0001452102
vn 0.8314697 -0.55557007 0.00014521019
vn 0.7071068 -0.7071066 0.0001452525
vn 0.7071068 -0.70710665 0.0001452525
vn 0.5555702 -0.8314697 0.00014529933
vn 0.5555701 -0.8314697 0.00014529933
vn 0.38268307 -0.9238796 0.00014528733
vn 0.38268307 -0.9238796 0.00014528733
vn 0.1950903 -0.98078525 0.00014524699
vn 0.1950903 -0.98078525 0.00014524696
vn -1.4774892E-07 -1 0.0001452463
vn -1.5251779E-07 -1 0.00014524632
vn -0.19509055 -0.98078525 0.00014522592
vn -0.19509056 -0.98078525 0.00014522593
vn -0.38268313 -0.9238796 0.00014524316
vn -0.38268313 -0.9238796 0.00014524316
vn -0.5555702 -0.8314697 0.0001452968
vn -0.5555702 -0.8314697 0.0001452968
vn -0.7071068 -0.7071066 0.00014528702
vn -0.7071068 -0.7071066 0.00014528702
vn -0.83146954 -0.55557036 0.00014526228
vn -0.83146954 -0.55557036 0.00014526228
vn -0.92387944 -0.38268352 0.00014525547
vn -0.92387944 -0.38268352 0.00014525549
vn -0.98078525 -0.19509044 0.0001452646
vn -0.98078525 -0.19509044 0.0001452646
g ETFX_AuraVerticalCentered_0
f 3/3/3 2/2/2 1/1/1
f 4/4/4 3/3/3 1/1/1
f 4/4/4 1/1/1 5/5/5
f 6/6/6 4/4/4 5/5/5
f 6/6/6 5/5/5 7/7/7
f 8/8/8 6/6/6 7/7/7
f 8/8/8 7/7/7 9/9/9
f 10/10/10 8/8/8 9/9/9
f 10/10/10 9/9/9 11/11/11
f 12/12/12 10/10/10 11/11/11
f 12/12/12 11/11/11 13/13/13
f 14/14/14 12/12/12 13/13/13
f 14/14/14 13/13/13 15/15/15
f 16/16/16 14/14/14 15/15/15
f 16/16/16 15/15/15 17/17/17
f 18/18/18 16/16/16 17/17/17
f 18/18/18 17/17/17 19/19/19
f 20/20/20 18/18/18 19/19/19
f 20/20/20 19/19/19 21/21/21
f 22/22/22 20/20/20 21/21/21
f 22/22/22 21/21/21 23/23/23
f 24/24/24 22/22/22 23/23/23
f 24/24/24 23/23/23 25/25/25
f 26/26/26 24/24/24 25/25/25
f 26/26/26 25/25/25 27/27/27
f 28/28/28 26/26/26 27/27/27
f 28/28/28 27/27/27 29/29/29
f 30/30/30 28/28/28 29/29/29
f 30/30/30 29/29/29 31/31/31
f 32/32/32 30/30/30 31/31/31
f 32/32/32 31/31/31 33/33/33
f 34/34/34 32/32/32 33/33/33
f 34/34/34 33/33/33 35/35/35
f 36/36/36 34/34/34 35/35/35
f 36/36/36 35/35/35 37/37/37
f 38/38/38 36/36/36 37/37/37
f 38/38/38 37/37/37 39/39/39
f 40/40/40 38/38/38 39/39/39
f 40/40/40 39/39/39 41/41/41
f 42/42/42 40/40/40 41/41/41
f 42/42/42 41/41/41 43/43/43
f 44/44/44 42/42/42 43/43/43
f 44/44/44 43/43/43 45/45/45
f 46/46/46 44/44/44 45/45/45
f 46/46/46 45/45/45 47/47/47
f 48/48/48 46/46/46 47/47/47
f 48/48/48 47/47/47 49/49/49
f 50/50/50 48/48/48 49/49/49
f 50/50/50 49/49/49 51/51/51
f 52/52/52 50/50/50 51/51/51
f 52/52/52 51/51/51 53/53/53
f 54/54/54 52/52/52 53/53/53
f 54/54/54 53/53/53 55/55/55
f 56/56/56 54/54/54 55/55/55
f 56/56/56 55/55/55 57/57/57
f 58/58/58 56/56/56 57/57/57
f 58/58/58 57/57/57 59/59/59
f 60/60/60 58/58/58 59/59/59
f 60/60/60 59/59/59 61/61/61
f 62/62/62 60/60/60 61/61/61
f 62/62/62 61/61/61 63/63/63
f 64/64/64 62/62/62 63/63/63
f 64/64/64 63/63/63 65/65/65
f 66/66/66 64/64/64 65/65/65
