g floor_main
v -0 1.2795157E-06 2
v -0 0 0
v -0 1 -6.3975784E-07
v -0 1.0000013 1.9999994
v 2.9000087 0 0
v 3 0 0
v 3 1 -6.3975784E-07
v 2.9000087 1 -6.3975784E-07
v 0.09998971 0 0
v 0.09998971 1 -6.3975784E-07
v -0 0 0
v -0 1 -6.3975784E-07
v 3 0 0
v 3 1.2795157E-06 2
v 3 1.0000013 1.9999994
v 3 1 -6.3975784E-07
v 0.09998971 1.2795157E-06 2
v -0 1.2795157E-06 2
v -0 1.0000013 1.9999994
v 0.09998971 1.0000013 1.9999994
v 2.9000087 1.2795157E-06 2
v 2.9000087 1.0000013 1.9999994
v 3 1.2795157E-06 2
v 3 1.0000013 1.9999994
v 2.9000087 0 0
v 3 1.2795157E-06 2
v 3 0 0
v 2.9000087 1.2795157E-06 2
v 0.09998971 0 0
v 0.09998971 1.2795157E-06 2
v -0 0 0
v -0 1.2795157E-06 2
v 2.9000087 1 -6.3975784E-07
v 2.9000087 1.0000013 1.9999994
v 0.09998971 1.0000013 1.9999994
v 0.09998971 1 -6.3975784E-07
v -0 1.0781392 1.9999994
v 0.09998971 1.0781392 1.9999994
v -0 1.0781379 -6.8974714E-07
v -0 1.0781392 1.9999994
v 0.09998971 1.0781379 -6.8974714E-07
v 0.09998971 1.0781392 1.9999994
v -0 1.0781392 1.9999994
v -0 1.0781379 -6.8974714E-07
v 3 1.0781379 -6.8974714E-07
v 3 1.0781392 1.9999994
v 2.9000087 1.0781392 1.9999994
v 2.9000087 1.0781379 -6.8974714E-07
v 2.9000087 1 -6.3975784E-07
v 2.9000087 1.0781379 -6.8974714E-07
v 2.9000087 1.0781392 1.9999994
v 2.9000087 1.0000013 1.9999994
v 2.9000087 1.0781392 1.9999994
v 3 1.0781392 1.9999994
v 3 1.0781379 -6.8974714E-07
v 2.9000087 1.0781379 -6.8974714E-07
v 0.09998971 1.0781379 -6.8974714E-07
v -0 1.0781379 -6.8974714E-07
v 0.09998971 1.0000013 1.9999994
v 0.09998971 1.0781392 1.9999994
v 0.09998971 1.0781379 -6.8974714E-07
v 0.09998971 1 -6.3975784E-07
v 3 1.0781392 1.9999994
v 3 1.0781379 -6.8974714E-07
vt 0.90933096 0.7315295
vt 0.90933096 0.7315295
vt 0.90933096 0.7315295
vt 0.90933096 0.7315295
vt 0.90933096 0.7315295
vt 0.90933096 0.7315295
vt 0.90933096 0.7315295
vt 0.90933096 0.7315295
vt 0.90933096 0.7315295
vt 0.90933096 0.7315295
vt 0.90933096 0.7315295
vt 0.90933096 0.7315295
vt 0.90933096 0.7315295
vt 0.90933096 0.7315295
vt 0.90933096 0.7315295
vt 0.90933096 0.7315295
vt 0.90933096 0.7315295
vt 0.90933096 0.7315295
vt 0.90933096 0.7315295
vt 0.90933096 0.7315295
vt 0.90933096 0.7315295
vt 0.90933096 0.7315295
vt 0.90933096 0.7315295
vt 0.90933096 0.7315295
vt 0.90933096 0.7315295
vt 0.90933096 0.7315295
vt 0.90933096 0.7315295
vt 0.90933096 0.7315295
vt 0.90933096 0.7315295
vt 0.90933096 0.7315295
vt 0.90933096 0.7315295
vt 0.90933096 0.7315295
vt 0.8578961 -0.001057446
vt 0.14210439 -0.001057446
vt 0.14210439 1.0010569
vt 0.8578961 1.0010574
vt 0.90933096 0.7315295
vt 0.90933096 0.7315295
vt 0.90933096 0.7315295
vt 0.90933096 0.7315295
vt 0.90933096 0.7315295
vt 0.90933096 0.7315295
vt 0.90933096 0.7315295
vt 0.90933096 0.7315295
vt 0.90933096 0.7315295
vt 0.90933096 0.7315295
vt 0.90933096 0.7315295
vt 0.90933096 0.7315295
vt 0.90933096 0.7315295
vt 0.90933096 0.7315295
vt 0.90933096 0.7315295
vt 0.90933096 0.7315295
vt 0.90933096 0.7315295
vt 0.90933096 0.7315295
vt 0.90933096 0.7315295
vt 0.90933096 0.7315295
vt 0.90933096 0.7315295
vt 0.90933096 0.7315295
vt 0.90933096 0.7315295
vt 0.90933096 0.7315295
vt 0.90933096 0.7315295
vt 0.90933096 0.7315295
vt 0.90933096 0.7315295
vt 0.90933096 0.7315295
vn -1 0 0
vn -1 0 0
vn -1 0 0
vn -1 0 0
vn -0 0 -1
vn -0 0 -1
vn -0 0 -1
vn -0 0 -1
vn -0 0 -1
vn -0 0 -1
vn -0 0 -1
vn -0 0 -1
vn 1 0 0
vn 1 0 0
vn 1 0 0
vn 1 0 0
vn -0 0 1
vn -0 0 1
vn -0 0 1
vn -0 0 1
vn -0 0 1
vn -0 0 1
vn -0 0 1
vn -0 0 1
vn -0 -1 0
vn -0 -1 0
vn -0 -1 0
vn -0 -1 0
vn -0 -1 0
vn -0 -1 0
vn -0 -1 0
vn -0 -1 0
vn -0 1 0
vn -0 1 0
vn -0 1 0
vn -0 1 0
vn -0 0 1
vn -0 0 1
vn -1 0 0
vn -1 0 0
vn -0 1 0
vn -0 1 0
vn -0 1 0
vn -0 1 0
vn -0 1 0
vn -0 1 0
vn -0 1 0
vn -0 1 0
vn -1 0 0
vn -1 0 0
vn -1 0 0
vn -1 0 0
vn -0 0 1
vn -0 0 1
vn -0 0 -1
vn -0 0 -1
vn -0 0 -1
vn -0 0 -1
vn 1 0 0
vn 1 0 0
vn 1 0 0
vn 1 0 0
vn 1 0 0
vn 1 0 0
g floor_main_0
f 3/3/3 2/2/2 1/1/1
f 4/4/4 3/3/3 1/1/1
f 7/7/7 6/6/6 5/5/5
f 8/8/8 7/7/7 5/5/5
f 8/8/8 5/5/5 9/9/9
f 10/10/10 8/8/8 9/9/9
f 10/10/10 9/9/9 11/11/11
f 12/12/12 10/10/10 11/11/11
f 15/15/15 14/14/14 13/13/13
f 16/16/16 15/15/15 13/13/13
f 19/19/19 18/18/18 17/17/17
f 20/20/20 19/19/19 17/17/17
f 20/20/20 17/17/17 21/21/21
f 22/22/22 20/20/20 21/21/21
f 22/22/22 21/21/21 23/23/23
f 24/24/24 22/22/22 23/23/23
f 27/27/27 26/26/26 25/25/25
f 26/26/26 28/28/28 25/25/25
f 25/25/25 28/28/28 29/29/29
f 28/28/28 30/30/30 29/29/29
f 29/29/29 30/30/30 31/31/31
f 30/30/30 32/32/32 31/31/31
f 35/35/35 34/34/34 33/33/33
f 36/36/36 35/35/35 33/33/33
g floor_main_1
f 38/38/38 37/37/37 19/19/19
f 20/20/20 38/38/38 19/19/19
f 40/40/40 39/39/39 3/3/3
f 4/4/4 40/40/40 3/3/3
f 43/43/43 42/42/42 41/41/41
f 44/44/44 43/43/43 41/41/41
f 47/47/47 46/46/46 45/45/45
f 48/48/48 47/47/47 45/45/45
f 51/51/51 50/50/50 49/49/49
f 52/52/52 51/51/51 49/49/49
f 54/54/54 53/53/53 22/22/22
f 24/24/24 54/54/54 22/22/22
f 56/56/56 55/55/55 7/7/7
f 8/8/8 56/56/56 7/7/7
f 58/58/58 57/57/57 10/10/10
f 12/12/12 58/58/58 10/10/10
f 61/61/61 60/60/60 59/59/59
f 62/62/62 61/61/61 59/59/59
f 64/64/64 63/63/63 15/15/15
f 16/16/16 64/64/64 15/15/15
