g Jar_cover_1x1
v 5.245209E-07 3.2782648E-08 5.7260337E-07
v 0.16164146 -1.2830313E-08 -0.27996978
v 5.245209E-07 -1.9886663E-08 -0.32328135
v 0.27997085 6.4479924E-09 -0.16164039
v -0.1616404 -1.2830309E-08 -0.27996975
v 0.32328245 3.2782648E-08 5.637453E-07
v -0.27996978 6.447994E-09 -0.16164038
v 0.27997088 5.9117305E-08 0.16164152
v -0.32328135 3.2782648E-08 5.637453E-07
v 0.1616415 7.83956E-08 0.27997088
v -0.27996978 5.91173E-08 0.16164151
v 5.485622E-07 8.545196E-08 0.32328245
v -0.1616404 7.83956E-08 0.27997088
v 6.456098E-07 1.0939672 -0.2931403
v 0.14657092 1.0939672 -0.25386688
v 5.8519976E-07 1.085224 3.045473E-07
v -0.14656956 1.0939672 -0.25386682
v 0.25386786 1.0939672 -0.14657
v -0.25386646 1.0939672 -0.14656997
v 0.29314128 1.0939672 3.1488912E-07
v -0.29313985 1.0939672 3.0002616E-07
v 0.25386786 1.0939672 0.14657062
v -0.25386652 1.0939672 0.14657058
v 0.14657092 1.0939672 0.25386754
v -0.14656965 1.0939672 0.25386748
v 6.376835E-07 1.0939672 0.29314092
v 0.26154107 0.7127663 0.45300198
v 0.2241366 0.8436581 0.3882154
v 0.3810214 0.8581929 0.21998282
v 5.157796E-07 0.7127663 0.5230816
v 0.45300207 0.7127663 0.26154104
v 0.52308166 0.71276623 4.57757E-07
v 0.52308166 0.46803498 4.874927E-07
v 0.45300204 0.46803495 -0.26154006
v 0.45300204 0.468035 0.261541
v 0.26154104 0.46803504 0.45300198
v 0.32328245 3.2782648E-08 5.637453E-07
v 0.27997085 6.4479924E-09 -0.16164039
v 0.27997088 5.9117305E-08 0.16164152
v 0.16164146 -1.2830313E-08 -0.27996978
v 0.1616415 7.83956E-08 0.27997088
v 0.26154107 0.46803492 -0.45300105
v 5.245209E-07 -1.9886663E-08 -0.32328135
v 0.2615411 0.7127662 -0.4530011
v 5.157796E-07 0.46803507 0.5230816
v 5.485622E-07 8.545196E-08 0.32328245
v 5.649534E-07 0.4680349 -0.52308047
v -0.1616404 -1.2830309E-08 -0.27996975
v -0.26154006 0.7127663 0.45300198
v -0.2262908 0.83611614 0.39194837
v -0.26154003 0.46803504 0.45300195
v -0.1616404 7.83956E-08 0.27997088
v -0.453001 0.7127663 0.26154098
v -0.41622764 0.78706163 0.2403098
v -0.5230805 0.71276623 4.3122967E-07
v -0.45300093 0.468035 0.26154098
v -0.27996978 5.91173E-08 0.16164151
v -0.52308047 0.46803498 4.7110146E-07
v -0.4530009 0.56354135 -0.26154006
v -0.32328135 3.2782648E-08 5.637453E-07
v -0.45300084 0.46803495 -0.26154003
v -0.27996978 6.447994E-09 -0.16164038
v -0.26153997 0.7127662 -0.45300105
v -0.26153994 0.46803492 -0.45300093
v 5.3995063E-07 0.7127662 -0.52308065
v 5.2637625E-07 0.87560904 -0.43001083
v 0.45300204 0.46803495 -0.26154006
v 0.52308166 0.71276623 4.57757E-07
v 0.45300207 0.7127662 -0.2615401
v 0.2615411 0.7127662 -0.4530011
v 0.20864557 0.89786667 -0.3613836
v 5.2637625E-07 0.87560904 -0.43001083
v 0.36138436 0.89786667 -0.2086448
v 5.245209E-07 0.89786667 -0.41728988
v 0.41729063 0.8978667 2.525726E-07
v -0.20864446 0.89786667 -0.36138356
v 0.3810214 0.8581929 0.21998282
v 0.36138436 0.8978668 0.20864531
v -0.26153997 0.7127662 -0.45300105
v 0.2241366 0.8436581 0.3882154
v 0.20864557 0.8978668 0.3613841
v 5.163411E-07 0.8978668 0.4172904
v 5.157796E-07 0.7127663 0.5230816
v -0.2262908 0.83611614 0.39194837
v -0.20864452 0.8978668 0.3613841
v -0.41622764 0.78706163 0.2403098
v -0.36138332 0.8978668 0.2086453
v -0.41728956 0.8978667 2.2781815E-07
v -0.36138326 0.89786667 -0.20864482
v -0.5230805 0.71276623 4.3122967E-07
v -0.45300093 0.7127662 -0.2615401
v -0.4530009 0.56354135 -0.26154006
v 5.245209E-07 0.89786667 -0.41728988
v 5.797291E-07 0.9645267 -0.43792972
v -0.2189643 0.9645267 -0.3792582
v -0.20864446 0.89786667 -0.36138356
v 0.20864557 0.89786667 -0.3613836
v -0.37925777 0.9645267 -0.21896479
v 0.21896555 0.9645267 -0.37925825
v -0.36138326 0.89786667 -0.20864482
v 0.36138436 0.89786667 -0.2086448
v -0.43792927 0.9645268 1.6414774E-07
v 0.37925902 0.9645267 -0.21896477
v -0.41728956 0.8978667 2.2781815E-07
v 0.41729063 0.8978667 2.525726E-07
v -0.37925783 0.96452683 0.21896513
v 0.4379305 0.9645268 1.9012651E-07
v -0.36138332 0.8978668 0.2086453
v 0.36138436 0.8978668 0.20864531
v -0.21896437 0.96452683 0.3792586
v 0.37925902 0.96452683 0.21896514
v -0.20864452 0.8978668 0.3613841
v 0.20864557 0.8978668 0.3613841
v 5.7114477E-07 0.96452683 0.43793014
v 0.21896555 0.96452683 0.3792586
v 5.163411E-07 0.8978668 0.4172904
v 0.37925902 0.9645267 -0.21896477
v 0.29314128 1.0939672 3.1488912E-07
v 0.25386786 1.0939672 -0.14657
v 0.4379305 0.9645268 1.9012651E-07
v 0.21896555 0.9645267 -0.37925825
v 0.25386786 1.0939672 0.14657062
v 0.14657092 1.0939672 -0.25386688
v 0.37925902 0.96452683 0.21896514
v 5.797291E-07 0.9645267 -0.43792972
v 0.14657092 1.0939672 0.25386754
v 6.456098E-07 1.0939672 -0.2931403
v 0.21896555 0.96452683 0.3792586
v -0.2189643 0.9645267 -0.3792582
v 6.376835E-07 1.0939672 0.29314092
v -0.14656956 1.0939672 -0.25386682
v 5.7114477E-07 0.96452683 0.43793014
v -0.37925777 0.9645267 -0.21896479
v -0.14656965 1.0939672 0.25386748
v -0.25386646 1.0939672 -0.14656997
v -0.21896437 0.96452683 0.3792586
v -0.43792927 0.9645268 1.6414774E-07
v -0.25386652 1.0939672 0.14657058
v -0.29313985 1.0939672 3.0002616E-07
v -0.37925783 0.96452683 0.21896513
vt 0.11765224 0.49830514
vt 0.11765224 0.49830514
vt 0.11765224 0.49830514
vt 0.11765224 0.49830514
vt 0.11765224 0.49830514
vt 0.11765224 0.49830514
vt 0.11765224 0.49830514
vt 0.11765224 0.49830514
vt 0.11765224 0.49830514
vt 0.11765224 0.49830514
vt 0.11765224 0.49830514
vt 0.11765224 0.49830514
vt 0.11765224 0.49830514
vt 0.11455184 0.48435336
vt 0.11455184 0.48435336
vt 0.11455184 0.48435336
vt 0.11455184 0.48435336
vt 0.11455184 0.48435336
vt 0.11455184 0.48435336
vt 0.11455184 0.48435336
vt 0.11455184 0.48435336
vt 0.11455184 0.48435336
vt 0.11455184 0.48435336
vt 0.11455184 0.48435336
vt 0.11455184 0.48435336
vt 0.11455184 0.48435336
vt 0.11765224 0.49830514
vt 0.11765224 0.49830514
vt 0.11765224 0.49830514
vt 0.11765224 0.49830514
vt 0.11765224 0.49830514
vt 0.11765224 0.49830514
vt 0.11765224 0.49830514
vt 0.11765224 0.49830514
vt 0.11765224 0.49830514
vt 0.11765224 0.49830514
vt 0.11765224 0.49830514
vt 0.11765224 0.49830514
vt 0.11765224 0.49830514
vt 0.11765224 0.49830514
vt 0.11765224 0.49830514
vt 0.11765224 0.49830514
vt 0.11765224 0.49830514
vt 0.11765224 0.49830514
vt 0.11765224 0.49830514
vt 0.11765224 0.49830514
vt 0.11765224 0.49830514
vt 0.11765224 0.49830514
vt 0.11765224 0.49830514
vt 0.11765224 0.49830514
vt 0.11765224 0.49830514
vt 0.11765224 0.49830514
vt 0.11765224 0.49830514
vt 0.11765224 0.49830514
vt 0.11765224 0.49830514
vt 0.11765224 0.49830514
vt 0.11765224 0.49830514
vt 0.11765224 0.49830514
vt 0.11765224 0.49830514
vt 0.11765224 0.49830514
vt 0.11765224 0.49830514
vt 0.11765224 0.49830514
vt 0.11765224 0.49830514
vt 0.11765224 0.49830514
vt 0.11765224 0.49830514
vt 0.11765224 0.49830514
vt 0.36219618 0.33266675
vt 0.36219618 0.33266675
vt 0.36219618 0.33266675
vt 0.36219618 0.33266675
vt 0.36219618 0.33266675
vt 0.36219618 0.33266675
vt 0.36219618 0.33266675
vt 0.36219618 0.33266675
vt 0.36219618 0.33266675
vt 0.36219618 0.33266675
vt 0.36219618 0.33266675
vt 0.36219618 0.33266675
vt 0.36219618 0.33266675
vt 0.36219618 0.33266675
vt 0.36219618 0.33266675
vt 0.36219618 0.33266675
vt 0.36219618 0.33266675
vt 0.36219618 0.33266675
vt 0.36219618 0.33266675
vt 0.36219618 0.33266675
vt 0.36219618 0.33266675
vt 0.36219618 0.33266675
vt 0.36219618 0.33266675
vt 0.36219618 0.33266675
vt 0.36219618 0.33266675
vt 0.36219618 0.33266675
vt 0.050993808 0.48590356
vt 0.050993808 0.48590356
vt 0.050993808 0.48590356
vt 0.050993808 0.48590356
vt 0.050993808 0.48590356
vt 0.050993808 0.48590356
vt 0.050993808 0.48590356
vt 0.050993808 0.48590356
vt 0.050993808 0.48590356
vt 0.050993808 0.48590356
vt 0.050993808 0.48590356
vt 0.050993808 0.48590356
vt 0.050993808 0.48590356
vt 0.050993808 0.48590356
vt 0.050993808 0.48590356
vt 0.050993808 0.48590356
vt 0.050993808 0.48590356
vt 0.050993808 0.48590356
vt 0.050993808 0.48590356
vt 0.050993808 0.48590356
vt 0.050993808 0.48590356
vt 0.050993808 0.48590356
vt 0.050993808 0.48590356
vt 0.050993808 0.48590356
vt 0.040142424 0.49830514
vt 0.040142424 0.49830514
vt 0.040142424 0.49830514
vt 0.040142424 0.49830514
vt 0.040142424 0.49830514
vt 0.040142424 0.49830514
vt 0.040142424 0.49830514
vt 0.040142424 0.49830514
vt 0.040142424 0.49830514
vt 0.040142424 0.49830514
vt 0.040142424 0.49830514
vt 0.040142424 0.49830514
vt 0.040142424 0.49830514
vt 0.040142424 0.49830514
vt 0.040142424 0.49830514
vt 0.040142424 0.49830514
vt 0.040142424 0.49830514
vt 0.040142424 0.49830514
vt 0.040142424 0.49830514
vt 0.040142424 0.49830514
vt 0.040142424 0.49830514
vt 0.040142424 0.49830514
vt 0.040142424 0.49830514
vt 0.040142424 0.49830514
vn -0 -1 0
vn -0 -1 0
vn -0 -1 0
vn -0 -1 0
vn -0 -1 0
vn -0 -1 0
vn -0 -1 0
vn -0 -1 0
vn -0 -1 0
vn -0 -1 0
vn -0 -1 0
vn -0 -1 0
vn -0 -1 0
vn -0 0.9995555 0.02981272
vn -0.014906291 0.9995554 0.02581931
vn -0 1 0
vn 0.014906307 0.9995555 0.02581781
vn -0.025818454 0.9995554 0.014907113
vn 0.025818473 0.9995555 0.01490644
vn -0.029812584 0.9995555 0
vn 0.029812608 0.9995555 0
vn -0.02581845 0.9995554 -0.0149071105
vn 0.025818473 0.9995555 -0.014905743
vn -0.014906287 0.9995554 -0.025819251
vn 0.014906303 0.9995555 -0.025818286
vn -0 0.9995554 -0.02981314
vn 0.48453504 0.24678582 0.8392393
vn 0.43410203 0.4962078 0.7518865
vn 0.75188667 0.49620765 0.4341018
vn -0 0.24678585 0.9690701
vn 0.83923924 0.2467858 0.4845351
vn 0.9690701 0.24678557 0
vn 0.9809668 -0.19417536 0
vn 0.8495422 -0.19417547 -0.49048337
vn 0.8495422 -0.19417538 0.49048355
vn 0.4904834 -0.1941753 0.84954226
vn 0.9197042 -0.392612 0
vn 0.7964872 -0.39261207 -0.45985216
vn 0.79648715 -0.39261192 0.45985225
vn 0.45985204 -0.39261207 -0.7964872
vn 0.45985204 -0.39261186 0.7964873
vn 0.49048337 -0.19417554 -0.8495422
vn -0 -0.39261204 -0.9197042
vn 0.48453516 0.24678501 -0.83923936
vn -0 -0.1941753 0.9809668
vn -0 -0.39261192 0.9197042
vn -0 -0.19417562 -0.9809668
vn -0.4598522 -0.39261195 -0.7964872
vn -0.48453513 0.24678569 0.83923924
vn -0.43410197 0.49620777 0.75188655
vn -0.49048355 -0.19417538 0.8495422
vn -0.45985213 -0.39261192 0.7964873
vn -0.83923936 0.2467856 0.484535
vn -0.7518867 0.49620748 0.43410182
vn -0.9690702 0.24678536 0
vn -0.84954226 -0.1941754 0.4904834
vn -0.7964873 -0.3926119 0.45985213
vn -0.9809668 -0.19417535 0
vn -0.8660253 0 -0.50000006
vn -0.91970426 -0.3926119 0
vn -0.8495422 -0.1941754 -0.49048352
vn -0.7964872 -0.39261192 -0.45985216
vn -0.48453522 0.24678493 -0.8392395
vn -0.49048346 -0.19417557 -0.8495422
vn -0 0.24678482 -0.9690703
vn -0 0.49620643 -0.86820453
vn 0.8495422 -0.19417547 -0.49048337
vn 0.9690701 0.24678557 0
vn 0.8392395 0.24678518 -0.48453507
vn 0.48453516 0.24678501 -0.83923936
vn 0.43410215 0.49620664 -0.7518871
vn -0 0.49620643 -0.86820453
vn 0.75188696 0.49620697 -0.43410218
vn -0 0.49620652 -0.86820453
vn 0.8682041 0.4962074 0
vn -0.4341024 0.49620664 -0.751887
vn 0.75188667 0.49620765 0.4341018
vn 0.7518867 0.49620765 0.43410158
vn -0.48453522 0.24678493 -0.8392395
vn 0.43410203 0.4962078 0.7518865
vn 0.4341021 0.49620792 0.75188637
vn -0 0.49620783 0.86820376
vn -0 0.24678585 0.9690701
vn -0.43410197 0.49620777 0.75188655
vn -0.4341019 0.49620786 0.7518865
vn -0.7518867 0.49620748 0.43410182
vn -0.75188684 0.49620757 0.43410176
vn -0.8682042 0.49620706 0
vn -0.75188696 0.49620673 -0.43410236
vn -0.9690702 0.24678536 0
vn -0.8392395 0.24678493 -0.4845352
vn -0.8660253 0 -0.50000006
vn -0 -0.29577485 -0.9552576
vn -0 -0.29577482 -0.9552577
vn -0.47762862 -0.2957742 -0.82727784
vn -0.47762898 -0.2957742 -0.8272776
vn 0.4776286 -0.29577556 -0.82727736
vn -0.8272774 -0.2957739 -0.47762948
vn 0.47762874 -0.29577553 -0.82727724
vn -0.8272776 -0.2957739 -0.47762913
vn 0.82727724 -0.29577562 -0.47762874
vn -0.95525813 -0.2957732 0
vn 0.82727724 -0.29577565 -0.47762874
vn -0.95525813 -0.2957732 0
vn 0.9552576 -0.29577506 0
vn -0.827278 -0.29577303 0.47762892
vn 0.9552576 -0.29577506 0
vn -0.827278 -0.29577306 0.47762892
vn 0.8272776 -0.29577455 0.4776288
vn -0.4776294 -0.29577336 0.8272776
vn 0.8272778 -0.29577455 0.47762844
vn -0.47762942 -0.29577336 0.8272776
vn 0.47762892 -0.29577404 0.82727766
vn -0 -0.29577342 0.95525813
vn 0.47762936 -0.29577404 0.8272774
vn -0 -0.29577342 0.95525813
vn 0.5771939 0.7455172 -0.3332434
vn 0.66648644 0.7455172 0
vn 0.57719404 0.7455172 -0.33324328
vn 0.6664863 0.7455172 0
vn 0.33324298 0.74551725 -0.57719415
vn 0.57719415 0.74551713 0.3332434
vn 0.3332431 0.7455173 -0.57719404
vn 0.57719415 0.7455172 0.33324328
vn -0 0.74551755 -0.6664861
vn 0.33324313 0.74551713 0.5771943
vn -0 0.74551755 -0.6664861
vn 0.33324322 0.7455171 0.5771943
vn -0.33324313 0.7455176 -0.5771937
vn -0 0.74551725 0.6664863
vn -0.33324313 0.7455176 -0.5771937
vn -0 0.7455172 0.6664863
vn -0.5771937 0.74551755 -0.33324325
vn -0.33324313 0.7455174 0.5771939
vn -0.5771938 0.74551755 -0.3332432
vn -0.33324322 0.7455174 0.5771939
vn -0.6664861 0.74551755 0
vn -0.5771939 0.7455175 0.3332429
vn -0.666486 0.74551755 0
vn -0.577194 0.7455175 0.33324277
g Jar_cover_1x1_0
f 3/3/3 2/2/2 1/1/1
f 2/2/2 4/4/4 1/1/1
f 5/5/5 3/3/3 1/1/1
f 4/4/4 6/6/6 1/1/1
f 7/7/7 5/5/5 1/1/1
f 6/6/6 8/8/8 1/1/1
f 9/9/9 7/7/7 1/1/1
f 8/8/8 10/10/10 1/1/1
f 11/11/11 9/9/9 1/1/1
f 10/10/10 12/12/12 1/1/1
f 13/13/13 11/11/11 1/1/1
f 12/12/12 13/13/13 1/1/1
f 16/16/16 15/15/15 14/14/14
f 16/16/16 14/14/14 17/17/17
f 16/16/16 18/18/18 15/15/15
f 16/16/16 17/17/17 19/19/19
f 16/16/16 20/20/20 18/18/18
f 16/16/16 19/19/19 21/21/21
f 16/16/16 22/22/22 20/20/20
f 16/16/16 21/21/21 23/23/23
f 16/16/16 24/24/24 22/22/22
f 16/16/16 23/23/23 25/25/25
f 16/16/16 26/26/26 24/24/24
f 16/16/16 25/25/25 26/26/26
f 29/29/29 28/28/28 27/27/27
f 27/27/27 28/28/28 30/30/30
f 31/31/31 29/29/29 27/27/27
f 32/32/32 29/29/29 31/31/31
f 32/32/32 31/31/31 33/33/33
f 33/33/33 34/34/34 32/32/32
f 31/31/31 27/27/27 35/35/35
f 31/31/31 35/35/35 33/33/33
f 27/27/27 30/30/30 36/36/36
f 27/27/27 36/36/36 35/35/35
f 33/33/33 35/35/35 37/37/37
f 33/33/33 37/37/37 38/38/38
f 34/34/34 33/33/33 38/38/38
f 35/35/35 39/39/39 37/37/37
f 35/35/35 36/36/36 39/39/39
f 34/34/34 38/38/38 40/40/40
f 36/36/36 41/41/41 39/39/39
f 42/42/42 34/34/34 40/40/40
f 42/42/42 40/40/40 43/43/43
f 44/44/44 34/34/34 42/42/42
f 36/36/36 45/45/45 41/41/41
f 30/30/30 45/45/45 36/36/36
f 45/45/45 46/46/46 41/41/41
f 47/47/47 42/42/42 43/43/43
f 44/44/44 42/42/42 47/47/47
f 47/47/47 43/43/43 48/48/48
f 30/30/30 49/49/49 45/45/45
f 30/30/30 50/50/50 49/49/49
f 45/45/45 51/51/51 46/46/46
f 49/49/49 51/51/51 45/45/45
f 51/51/51 52/52/52 46/46/46
f 49/49/49 50/50/50 53/53/53
f 49/49/49 53/53/53 51/51/51
f 50/50/50 54/54/54 53/53/53
f 53/53/53 54/54/54 55/55/55
f 51/51/51 56/56/56 52/52/52
f 53/53/53 56/56/56 51/51/51
f 53/53/53 55/55/55 56/56/56
f 56/56/56 57/57/57 52/52/52
f 55/55/55 58/58/58 56/56/56
f 56/56/56 58/58/58 57/57/57
f 55/55/55 59/59/59 58/58/58
f 58/58/58 60/60/60 57/57/57
f 59/59/59 61/61/61 58/58/58
f 58/58/58 61/61/61 60/60/60
f 61/61/61 62/62/62 60/60/60
f 59/59/59 63/63/63 61/61/61
f 61/61/61 64/64/64 62/62/62
f 63/63/63 64/64/64 61/61/61
f 64/64/64 48/48/48 62/62/62
f 64/64/64 47/47/47 48/48/48
f 63/63/63 65/65/65 64/64/64
f 65/65/65 47/47/47 64/64/64
f 63/63/63 66/66/66 65/65/65
f 65/65/65 44/44/44 47/47/47
f 65/65/65 66/66/66 44/44/44
f 69/69/69 68/68/68 67/67/67
f 70/70/70 69/69/69 67/67/67
f 70/70/70 71/71/71 69/69/69
f 71/71/71 70/70/70 72/72/72
f 71/71/71 73/73/73 69/69/69
f 69/69/69 73/73/73 68/68/68
f 74/74/74 71/71/71 72/72/72
f 73/73/73 75/75/75 68/68/68
f 76/76/76 74/74/74 72/72/72
f 68/68/68 75/75/75 77/77/77
f 75/75/75 78/78/78 77/77/77
f 79/79/79 76/76/76 72/72/72
f 77/77/77 78/78/78 80/80/80
f 78/78/78 81/81/81 80/80/80
f 81/81/81 82/82/82 80/80/80
f 82/82/82 83/83/83 80/80/80
f 83/83/83 82/82/82 84/84/84
f 82/82/82 85/85/85 84/84/84
f 84/84/84 85/85/85 86/86/86
f 85/85/85 87/87/87 86/86/86
f 87/87/87 88/88/88 86/86/86
f 89/89/89 76/76/76 79/79/79
f 88/88/88 90/90/90 86/86/86
f 91/91/91 89/89/89 79/79/79
f 88/88/88 89/89/89 91/91/91
f 90/90/90 88/88/88 91/91/91
f 92/92/92 91/91/91 79/79/79
f 90/90/90 91/91/91 92/92/92
f 95/95/95 94/94/94 93/93/93
f 96/96/96 95/95/95 93/93/93
f 93/93/93 94/94/94 97/97/97
f 98/98/98 95/95/95 96/96/96
f 94/94/94 99/99/99 97/97/97
f 100/100/100 98/98/98 96/96/96
f 97/97/97 99/99/99 101/101/101
f 102/102/102 98/98/98 100/100/100
f 99/99/99 103/103/103 101/101/101
f 104/104/104 102/102/102 100/100/100
f 101/101/101 103/103/103 105/105/105
f 106/106/106 102/102/102 104/104/104
f 103/103/103 107/107/107 105/105/105
f 108/108/108 106/106/106 104/104/104
f 105/105/105 107/107/107 109/109/109
f 110/110/110 106/106/106 108/108/108
f 107/107/107 111/111/111 109/109/109
f 112/112/112 110/110/110 108/108/108
f 109/109/109 111/111/111 113/113/113
f 114/114/114 110/110/110 112/112/112
f 111/111/111 115/115/115 113/113/113
f 116/116/116 114/114/114 112/112/112
f 113/113/113 115/115/115 116/116/116
f 115/115/115 114/114/114 116/116/116
f 119/119/119 118/118/118 117/117/117
f 118/118/118 120/120/120 117/117/117
f 119/119/119 117/117/117 121/121/121
f 118/118/118 122/122/122 120/120/120
f 123/123/123 119/119/119 121/121/121
f 122/122/122 124/124/124 120/120/120
f 123/123/123 121/121/121 125/125/125
f 122/122/122 126/126/126 124/124/124
f 127/127/127 123/123/123 125/125/125
f 126/126/126 128/128/128 124/124/124
f 127/127/127 125/125/125 129/129/129
f 126/126/126 130/130/130 128/128/128
f 131/131/131 127/127/127 129/129/129
f 130/130/130 132/132/132 128/128/128
f 131/131/131 129/129/129 133/133/133
f 130/130/130 134/134/134 132/132/132
f 135/135/135 131/131/131 133/133/133
f 134/134/134 136/136/136 132/132/132
f 135/135/135 133/133/133 137/137/137
f 134/134/134 138/138/138 136/136/136
f 139/139/139 135/135/135 137/137/137
f 138/138/138 140/140/140 136/136/136
f 139/139/139 137/137/137 140/140/140
f 138/138/138 139/139/139 140/140/140
