g leaf_04
v -0.21089743 -1.6302787 0.5253483
v -1.0230154 -0.55795187 -0.020285396
v -0.5971713 -1.2438459 0.2821386
v -0.31764504 -0.95097494 0.14924584
v -0 -1.7077013 0.51216733
v -1.1181663 -0.03912774 -0.03321474
v -0 -1.0267999 0.14786087
v 0.21089743 -1.6302787 0.5253483
v -0.5213456 -0.026952095 -0.033993468
v -1.0690824 0.4988906 -0.014004121
v 0.31764504 -0.95097494 0.14924584
v 0.5971713 -1.2438459 0.2821386
v 1.0230154 -0.55795187 -0.020285396
v -0.48200738 0.88089705 0.07757809
v -0.8127791 1.1881138 0.18157923
v -0.4040367 1.7430462 0.31389794
v -0 -0.048979938 -0.03321474
v 0.5213456 -0.026952095 -0.033993468
v 1.1181663 -0.03912774 -0.03321474
v -0 1.0764067 0.07369908
v -0 2.0317292 0.44262618
v 0.48200738 0.88089705 0.07757809
v 1.0690824 0.4988906 -0.014004121
v 0.4040367 1.7430462 0.31389794
v 0.8127791 1.1881138 0.18157923
v 0.21089743 -1.6302787 0.5878324
v 1.0230154 -0.55795187 0.047418155
v 0.5971713 -1.2438459 0.34875855
v 0.31764504 -0.9509748 0.21877354
v -0 -1.7077013 0.576858
v 1.1181663 -0.039127756 0.03321477
v -0 -1.0267999 0.21889026
v -0.21089743 -1.6302787 0.5878324
v 0.5213456 -0.026952073 0.032347377
v 1.0690824 0.4980511 0.052578747
v -0.31764504 -0.9509748 0.21877354
v -0.5971713 -1.2438459 0.34875855
v -1.0230154 -0.55795187 0.047418155
v 0.48200738 0.8778643 0.14505343
v 0.8127791 1.1828388 0.24720773
v 0.4040367 1.7379702 0.3765781
v -0 -0.048979923 0.03321477
v -0.5213456 -0.026952073 0.032347377
v -1.1181663 -0.039127756 0.03321477
v -0 1.0758814 0.14080611
v -0 2.026501 0.50835747
v -0.48200738 0.8778643 0.14505343
v -1.0690824 0.4980511 0.052578747
v -0.4040367 1.7379702 0.3765781
v -0.8127791 1.1828388 0.24720773
v 0.4040367 1.7379702 0.3765781
v -0 2.026501 0.50835747
v -0 2.0317292 0.44262618
v 0.4040367 1.7430462 0.31389794
v 0.8127791 1.1828388 0.24720773
v 0.8127791 1.1881138 0.18157923
v 1.0690824 0.4980511 0.052578747
v 1.0690824 0.4988906 -0.014004121
v 1.1181663 -0.039127756 0.03321477
v 1.1181663 -0.03912774 -0.03321474
v 1.0230154 -0.55795187 0.047418155
v 1.0230154 -0.55795187 -0.020285396
v 0.5971713 -1.2438459 0.34875855
v 0.5971713 -1.2438459 0.2821386
v 0.21089743 -1.6302787 0.5878324
v 0.21089743 -1.6302787 0.5253483
v -0 -1.7077013 0.576858
v -0 -1.7077013 0.51216733
v -0 2.026501 0.50835747
v -0.4040367 1.7430462 0.31389794
v -0 2.0317292 0.44262618
v -0.4040367 1.7379702 0.3765781
v -0.8127791 1.1881138 0.18157923
v -0.8127791 1.1828388 0.24720773
v -1.0690824 0.4988906 -0.014004121
v -1.0690824 0.4980511 0.052578747
v -1.1181663 -0.03912774 -0.03321474
v -1.1181663 -0.039127756 0.03321477
v -1.0230154 -0.55795187 -0.020285396
v -1.0230154 -0.55795187 0.047418155
v -0.5971713 -1.2438459 0.2821386
v -0.5971713 -1.2438459 0.34875855
v -0.21089743 -1.6302787 0.5253483
v -0.21089743 -1.6302787 0.5878324
v -0 -1.7077013 0.51216733
v -0 -1.7077013 0.576858
vt 0.028320342 0.3955078
vt 0.028320342 0.3955078
vt 0.028320342 0.3955078
vt 0.028320342 0.3955078
vt 0.028320342 0.3955078
vt 0.028320342 0.3955078
vt 0.028320342 0.3955078
vt 0.028320342 0.3955078
vt 0.028320342 0.3955078
vt 0.028320342 0.3955078
vt 0.028320342 0.3955078
vt 0.028320342 0.3955078
vt 0.028320342 0.3955078
vt 0.028320342 0.3955078
vt 0.028320342 0.3955078
vt 0.028320342 0.3955078
vt 0.028320342 0.3955078
vt 0.028320342 0.3955078
vt 0.028320342 0.3955078
vt 0.028320342 0.3955078
vt 0.028320342 0.3955078
vt 0.028320342 0.3955078
vt 0.028320342 0.3955078
vt 0.028320342 0.3955078
vt 0.028320342 0.3955078
vt 0.028320342 0.3955078
vt 0.028320342 0.3955078
vt 0.028320342 0.3955078
vt 0.028320342 0.3955078
vt 0.028320342 0.3955078
vt 0.028320342 0.3955078
vt 0.028320342 0.3955078
vt 0.028320342 0.3955078
vt 0.028320342 0.3955078
vt 0.028320342 0.3955078
vt 0.028320342 0.3955078
vt 0.028320342 0.3955078
vt 0.028320342 0.3955078
vt 0.028320342 0.3955078
vt 0.028320342 0.3955078
vt 0.028320342 0.3955078
vt 0.028320342 0.3955078
vt 0.028320342 0.3955078
vt 0.028320342 0.3955078
vt 0.028320342 0.3955078
vt 0.028320342 0.3955078
vt 0.028320342 0.3955078
vt 0.028320342 0.3955078
vt 0.028320342 0.3955078
vt 0.028320342 0.3955078
vt 0.028320342 0.3955078
vt 0.028320342 0.3955078
vt 0.028320342 0.3955078
vt 0.028320342 0.3955078
vt 0.028320342 0.3955078
vt 0.028320342 0.3955078
vt 0.028320342 0.3955078
vt 0.028320342 0.3955078
vt 0.028320342 0.3955078
vt 0.028320342 0.3955078
vt 0.028320342 0.3955078
vt 0.028320342 0.3955078
vt 0.028320342 0.3955078
vt 0.028320342 0.3955078
vt 0.028320342 0.3955078
vt 0.028320342 0.3955078
vt 0.028320342 0.3955078
vt 0.028320342 0.3955078
vt 0.028320342 0.3955078
vt 0.028320342 0.3955078
vt 0.028320342 0.3955078
vt 0.028320342 0.3955078
vt 0.028320342 0.3955078
vt 0.028320342 0.3955078
vt 0.028320342 0.3955078
vt 0.028320342 0.3955078
vt 0.028320342 0.3955078
vt 0.028320342 0.3955078
vt 0.028320342 0.3955078
vt 0.028320342 0.3955078
vt 0.028320342 0.3955078
vt 0.028320342 0.3955078
vt 0.028320342 0.3955078
vt 0.028320342 0.3955078
vt 0.028320342 0.3955078
vt 0.028320342 0.3955078
vn -0.120918855 -0.47300655 -0.8727219
vn 0.08317633 -0.17559776 -0.980942
vn 0.028941909 -0.43581185 -0.8995724
vn -0.016715946 -0.32955754 -0.9439875
vn -0 -0.4880876 -0.8727946
vn 0.07091016 -0.012192753 -0.9974082
vn -0 -0.36354667 -0.931576
vn 0.120918855 -0.47300655 -0.8727219
vn 0.028907094 -0.022903172 -0.9993197
vn 0.027007027 0.12974091 -0.9911801
vn 0.01671594 -0.3295575 -0.9439875
vn -0.028941916 -0.43581188 -0.8995724
vn -0.08317634 -0.17559776 -0.980942
vn -0.022873405 0.20297788 -0.9789161
vn -0.044664968 0.2768534 -0.9598735
vn -0.04076415 0.30969027 -0.9499633
vn -0 -0.046103917 -0.9989366
vn -0.028907096 -0.022903167 -0.9993197
vn -0.07091016 -0.012192753 -0.9974082
vn -0 0.23857081 -0.9711251
vn -0 0.3174966 -0.9482594
vn 0.022873407 0.2029779 -0.9789161
vn -0.027007023 0.12974091 -0.9911801
vn 0.040764127 0.30969027 -0.9499633
vn 0.04466499 0.2768534 -0.9598735
vn -0.11422524 0.4667478 0.876983
vn 0.08400937 0.17683943 0.98064786
vn 0.031686835 0.43057653 0.9019977
vn -0.013558929 0.32762274 0.94471127
vn -0 0.48097137 0.87673634
vn 0.07137076 0.01308861 0.997364
vn -0 0.3610114 0.9325614
vn 0.11422524 0.4667478 0.876983
vn 0.029271305 0.02397227 0.9992841
vn 0.027575407 -0.13007303 0.9911209
vn 0.013558927 0.32762277 0.94471127
vn -0.031686842 0.43057662 0.9019977
vn -0.08400937 0.17683947 0.98064786
vn -0.022056486 -0.20201865 0.9791333
vn -0.043648813 -0.2744273 0.96061665
vn -0.03797783 -0.3076681 0.95073545
vn -0 0.04752721 0.99886996
vn -0.029271303 0.023972277 0.9992841
vn -0.07137075 0.013088621 0.997364
vn -0 -0.23800229 0.97126454
vn -0 -0.3155273 0.9489165
vn 0.022056496 -0.20201863 0.9791333
vn -0.027575381 -0.13007303 0.9911209
vn 0.03797781 -0.3076681 0.95073545
vn 0.04364886 -0.27442726 0.96061665
vn 0.69873023 0.713084 0.057335153
vn 0.5937016 0.8021069 0.06436566
vn 0.5937016 0.8021069 0.06436566
vn 0.7217428 0.6899323 0.05550392
vn 0.8757066 0.4816833 0.03345186
vn 0.88844293 0.4579817 0.030362999
vn 0.97304416 0.23044413 0.00897461
vn 0.9780687 0.20814271 0.0076253
vn 0.9989969 -0.0447779 0.00029036723
vn 0.9989574 -0.045651156 0.0002885204
vn 0.9251198 -0.37967527 0
vn 0.9418565 -0.3360154 0
vn 0.76602817 -0.64280707 0
vn 0.8013002 -0.5982623 0
vn 0.5131349 -0.858308 0
vn 0.5568986 -0.8305806 0
vn 0.34462178 -0.93874156 0
vn 0.34462178 -0.93874156 0
vn -0.59370166 0.8021069 0.06436566
vn -0.7217428 0.68993235 0.05550392
vn -0.59370166 0.8021069 0.06436566
vn -0.6987301 0.71308404 0.05733515
vn -0.88844293 0.4579818 0.030362999
vn -0.8757066 0.4816835 0.03345186
vn -0.9780687 0.20814273 0.0076252995
vn -0.97304416 0.23044416 0.008974609
vn -0.9989574 -0.045651156 0.0002885204
vn -0.9989969 -0.0447779 0.00029036723
vn -0.9418565 -0.33601534 0
vn -0.9251198 -0.37967518 0
vn -0.8013004 -0.59826225 0
vn -0.7660283 -0.6428069 0
vn -0.55689865 -0.8305805 0
vn -0.513135 -0.8583079 0
vn -0.3446218 -0.93874156 0
vn -0.3446218 -0.93874156 0
g leaf_04_0
f 3/3/3 2/2/2 1/1/1
f 2/2/2 4/4/4 1/1/1
f 1/1/1 4/4/4 5/5/5
f 2/2/2 6/6/6 4/4/4
f 4/4/4 7/7/7 5/5/5
f 5/5/5 7/7/7 8/8/8
f 6/6/6 9/9/9 4/4/4
f 4/4/4 9/9/9 7/7/7
f 6/6/6 10/10/10 9/9/9
f 7/7/7 11/11/11 8/8/8
f 8/8/8 11/11/11 12/12/12
f 11/11/11 13/13/13 12/12/12
f 10/10/10 14/14/14 9/9/9
f 10/10/10 15/15/15 14/14/14
f 15/15/15 16/16/16 14/14/14
f 9/9/9 17/17/17 7/7/7
f 7/7/7 17/17/17 11/11/11
f 9/9/9 14/14/14 17/17/17
f 11/11/11 18/18/18 13/13/13
f 17/17/17 18/18/18 11/11/11
f 18/18/18 19/19/19 13/13/13
f 14/14/14 16/16/16 20/20/20
f 14/14/14 20/20/20 17/17/17
f 17/17/17 20/20/20 18/18/18
f 16/16/16 21/21/21 20/20/20
f 18/18/18 22/22/22 19/19/19
f 20/20/20 22/22/22 18/18/18
f 20/20/20 21/21/21 22/22/22
f 22/22/22 23/23/23 19/19/19
f 21/21/21 24/24/24 22/22/22
f 22/22/22 24/24/24 23/23/23
f 24/24/24 25/25/25 23/23/23
f 28/28/28 27/27/27 26/26/26
f 27/27/27 29/29/29 26/26/26
f 26/26/26 29/29/29 30/30/30
f 27/27/27 31/31/31 29/29/29
f 29/29/29 32/32/32 30/30/30
f 30/30/30 32/32/32 33/33/33
f 31/31/31 34/34/34 29/29/29
f 29/29/29 34/34/34 32/32/32
f 31/31/31 35/35/35 34/34/34
f 32/32/32 36/36/36 33/33/33
f 33/33/33 36/36/36 37/37/37
f 36/36/36 38/38/38 37/37/37
f 35/35/35 39/39/39 34/34/34
f 35/35/35 40/40/40 39/39/39
f 40/40/40 41/41/41 39/39/39
f 34/34/34 42/42/42 32/32/32
f 32/32/32 42/42/42 36/36/36
f 34/34/34 39/39/39 42/42/42
f 36/36/36 43/43/43 38/38/38
f 42/42/42 43/43/43 36/36/36
f 43/43/43 44/44/44 38/38/38
f 39/39/39 41/41/41 45/45/45
f 39/39/39 45/45/45 42/42/42
f 42/42/42 45/45/45 43/43/43
f 41/41/41 46/46/46 45/45/45
f 43/43/43 47/47/47 44/44/44
f 45/45/45 47/47/47 43/43/43
f 45/45/45 46/46/46 47/47/47
f 47/47/47 48/48/48 44/44/44
f 46/46/46 49/49/49 47/47/47
f 47/47/47 49/49/49 48/48/48
f 49/49/49 50/50/50 48/48/48
f 53/53/53 52/52/52 51/51/51
f 54/54/54 53/53/53 51/51/51
f 54/54/54 51/51/51 55/55/55
f 56/56/56 54/54/54 55/55/55
f 56/56/56 55/55/55 57/57/57
f 58/58/58 56/56/56 57/57/57
f 58/58/58 57/57/57 59/59/59
f 60/60/60 58/58/58 59/59/59
f 60/60/60 59/59/59 61/61/61
f 62/62/62 60/60/60 61/61/61
f 62/62/62 61/61/61 63/63/63
f 64/64/64 62/62/62 63/63/63
f 64/64/64 63/63/63 65/65/65
f 66/66/66 64/64/64 65/65/65
f 66/66/66 65/65/65 67/67/67
f 68/68/68 66/66/66 67/67/67
f 71/71/71 70/70/70 69/69/69
f 70/70/70 72/72/72 69/69/69
f 70/70/70 73/73/73 72/72/72
f 73/73/73 74/74/74 72/72/72
f 73/73/73 75/75/75 74/74/74
f 75/75/75 76/76/76 74/74/74
f 75/75/75 77/77/77 76/76/76
f 77/77/77 78/78/78 76/76/76
f 77/77/77 79/79/79 78/78/78
f 79/79/79 80/80/80 78/78/78
f 79/79/79 81/81/81 80/80/80
f 81/81/81 82/82/82 80/80/80
f 81/81/81 83/83/83 82/82/82
f 83/83/83 84/84/84 82/82/82
f 83/83/83 85/85/85 84/84/84
f 85/85/85 86/86/86 84/84/84
