g Mountain_02
v -7.21775E-09 3.1822715 -1.9729098E-06
v -3.8569508E-09 3.1264157 -0.07214341
v 0.072141446 3.1264157 -1.9597287E-06
v -7.21775E-09 3.1822715 -1.9729098E-06
v -0.07214146 3.1264157 -1.9637423E-06
v -3.8569508E-09 3.1264157 -0.07214341
v -7.21775E-09 3.1822715 -1.9729098E-06
v -1.0163757E-08 3.1264157 0.07213949
v -0.07214146 3.1264157 -1.9637423E-06
v -7.21775E-09 3.1822715 -1.9729098E-06
v 0.072141446 3.1264157 -1.9597287E-06
v -1.0163757E-08 3.1264157 0.07213949
v 1 2.7964705E-14 4.371139E-08
v -8.742278E-08 6.3975784E-07 1
v -4.0480604E-08 1.9505275 0.46304286
v 0.46304417 1.9505272 -1.2276248E-06
v -8.742278E-08 6.3975784E-07 1
v -1 -7.629036E-15 -1.1924881E-08
v -0.46304417 1.9505272 -1.2533868E-06
v -4.0480604E-08 1.9505275 0.46304286
v -0 -6.3975784E-07 -1
v -1 -7.629036E-15 -1.1924881E-08
v -8.742278E-08 6.3975784E-07 1
v 1 2.7964705E-14 4.371139E-08
v -0 -6.3975784E-07 -1
v 1 2.7964705E-14 4.371139E-08
v 0.46304417 1.9505272 -1.2276248E-06
v -0 1.9505268 -0.46304542
v -0.46304417 1.9505272 -1.2533868E-06
v -0.07214146 3.1264157 -1.9637423E-06
v -1.0163757E-08 3.1264157 0.07213949
v -4.0480604E-08 1.9505275 0.46304286
v -1 -7.629036E-15 -1.1924881E-08
v -0 -6.3975784E-07 -1
v -0 1.9505268 -0.46304542
v -0.46304417 1.9505272 -1.2533868E-06
v 0.46304417 1.9505272 -1.2276248E-06
v 0.072141446 3.1264157 -1.9597287E-06
v -3.8569508E-09 3.1264157 -0.07214341
v -0 1.9505268 -0.46304542
v -0 1.9505268 -0.46304542
v -3.8569508E-09 3.1264157 -0.07214341
v -0.07214146 3.1264157 -1.9637423E-06
v -0.46304417 1.9505272 -1.2533868E-06
v -4.0480604E-08 1.9505275 0.46304286
v -1.0163757E-08 3.1264157 0.07213949
v 0.072141446 3.1264157 -1.9597287E-06
v 0.46304417 1.9505272 -1.2276248E-06
vt 0.2487793 0.25
vt 0.25 0.26733398
vt 0.26733398 0.25
vt 0.25 0.2487793
vt 0.23266602 0.25
vt 0.25 0.26733398
vt 0.2512207 0.25
vt 0.25 0.23266602
vt 0.23266602 0.25
vt 0.25 0.2512207
vt 0.26733398 0.25
vt 0.25 0.23266602
vt 0.48999023 0.25
vt 0.25 0.010002136
vt 0.25 0.13891602
vt 0.36108398 0.25
vt 0.25 0.010002136
vt 0.010002136 0.25
vt 0.13891602 0.25
vt 0.25 0.13891602
vt 0.75 0.48999023
vt 0.5097656 0.25
vt 0.75 0.010002136
vt 0.9902344 0.25
vt 0.25 0.48999023
vt 0.48999023 0.25
vt 0.36108398 0.25
vt 0.25 0.36108398
vt 0.13891602 0.25
vt 0.23266602 0.25
vt 0.25 0.23266602
vt 0.25 0.13891602
vt 0.010002136 0.25
vt 0.25 0.48999023
vt 0.25 0.36108398
vt 0.13891602 0.25
vt 0.36108398 0.25
vt 0.26733398 0.25
vt 0.25 0.26733398
vt 0.25 0.36108398
vt 0.25 0.36108398
vt 0.25 0.26733398
vt 0.23266602 0.25
vt 0.13891602 0.25
vt 0.25 0.13891602
vt 0.25 0.23266602
vt 0.26733398 0.25
vt 0.36108398 0.25
vn 0.52197266 0.6743164 -0.52197266
vn 0.52197266 0.6743164 -0.52197266
vn 0.52197266 0.6743164 -0.52197266
vn -0.52197266 0.6743164 -0.52197266
vn -0.52197266 0.6743164 -0.52197266
vn -0.52197266 0.6743164 -0.52197266
vn -0.52197266 0.6743164 0.52197266
vn -0.52197266 0.6743164 0.52197266
vn -0.52197266 0.6743164 0.52197266
vn 0.52197266 0.6743164 0.52197266
vn 0.52197266 0.6743164 0.52197266
vn 0.52197266 0.6743164 0.52197266
vn 0.69384766 0.19104004 0.69384766
vn 0.69384766 0.19104004 0.69384766
vn 0.69384766 0.19104004 0.69384766
vn 0.69384766 0.19104004 0.69384766
vn -0.69384766 0.19104004 0.69384766
vn -0.69384766 0.19104004 0.69384766
vn -0.69384766 0.19104004 0.69384766
vn -0.69384766 0.19104004 0.69384766
vn -0 -1 0
vn -0 -1 0
vn -0 -1 0
vn -0 -1 0
vn 0.69384766 0.19104004 -0.69384766
vn 0.69384766 0.19104004 -0.69384766
vn 0.69384766 0.19104004 -0.69384766
vn 0.69384766 0.19104004 -0.69384766
vn -0.68847656 0.22888184 0.68847656
vn -0.68847656 0.22888184 0.68847656
vn -0.68847656 0.22888184 0.68847656
vn -0.68847656 0.22888184 0.68847656
vn -0.69384766 0.19104004 -0.69384766
vn -0.69384766 0.19104004 -0.69384766
vn -0.69384766 0.19104004 -0.69384766
vn -0.69384766 0.19104004 -0.69384766
vn 0.68847656 0.22888184 -0.68847656
vn 0.68847656 0.22888184 -0.68847656
vn 0.68847656 0.22888184 -0.68847656
vn 0.68847656 0.22888184 -0.68847656
vn -0.68847656 0.22888184 -0.68847656
vn -0.68847656 0.22888184 -0.68847656
vn -0.68847656 0.22888184 -0.68847656
vn -0.68847656 0.22888184 -0.68847656
vn 0.68847656 0.22888184 0.68847656
vn 0.68847656 0.22888184 0.68847656
vn 0.68847656 0.22888184 0.68847656
vn 0.68847656 0.22888184 0.68847656
g Mountain_02_0
f 3/3/3 2/2/2 1/1/1
f 6/6/6 5/5/5 4/4/4
f 9/9/9 8/8/8 7/7/7
f 12/12/12 11/11/11 10/10/10
f 15/15/15 14/14/14 13/13/13
f 16/16/16 15/15/15 13/13/13
f 19/19/19 18/18/18 17/17/17
f 20/20/20 19/19/19 17/17/17
f 23/23/23 22/22/22 21/21/21
f 24/24/24 23/23/23 21/21/21
f 27/27/27 26/26/26 25/25/25
f 28/28/28 27/27/27 25/25/25
f 31/31/31 30/30/30 29/29/29
f 32/32/32 31/31/31 29/29/29
f 35/35/35 34/34/34 33/33/33
f 36/36/36 35/35/35 33/33/33
f 39/39/39 38/38/38 37/37/37
f 40/40/40 39/39/39 37/37/37
f 43/43/43 42/42/42 41/41/41
f 44/44/44 43/43/43 41/41/41
f 47/47/47 46/46/46 45/45/45
f 48/48/48 47/47/47 45/45/45
