g Piggypiece
v 0.6545625 -0.78932154 0.10311234
v 0.6545625 -0.25356457 0.63886917
v 0.76113087 -0.7893214 0.6388692
v 0.5561059 -0.25356463 0.14389423
v 0.35108054 -0.7893216 -0.35108048
v 0.35108054 0.2006281 0.638869
v 0.2757252 -0.25356472 -0.2757252
v -0.10311221 -0.78932166 -0.65456235
v 0.2757251 0.20062804 0.26003167
v -0.10311213 0.5041099 0.63886887
v -0.14389427 -0.25356475 -0.55610585
v -0.6388683 -0.78932166 -0.76113075
v -0.6388691 -0.25356477 -0.6545624
v 0.06113099 0.20062798 -0.061131146
v -0.14389418 0.50410986 0.43384352
v -0.6388691 0.6106786 0.6388689
v -0.26003176 0.20062795 -0.27572525
v -0.6388691 0.20062794 -0.3510807
v -0.2600317 0.50410986 0.26003143
v -0.4338438 0.5041098 0.14389393
v -0.6388688 0.5041098 0.10311197
v 0.7213396 -0.6864581 0.036335222
v 0.827908 -0.686458 0.5720921
v 0.7213396 -0.15070117 0.572092
v 0.6228831 -0.15070124 0.07711711
v 0.41785768 -0.6864582 -0.41785762
v 0.41785768 0.3034915 0.5720919
v 0.34250233 -0.15070131 -0.34250233
v -0.03633511 -0.68645823 -0.72133946
v 0.34250224 0.30349144 0.19325455
v -0.036335025 0.60697335 0.5720917
v -0.07711717 -0.15070136 -0.622883
v -0.5720911 -0.68645823 -0.827908
v -0.572092 -0.15070137 -0.7213396
v 0.12790813 0.30349138 -0.1279083
v -0.077117085 0.6069733 0.36706638
v -0.572092 0.713542 0.5720918
v -0.19325466 0.30349135 -0.34250242
v -0.572092 0.30349135 -0.4178579
v -0.19325459 0.6069733 0.19325432
v -0.36706665 0.60697323 0.07711682
v -0.5720917 0.60697323 0.036334842
v -0.6388688 0.5041098 0.10311197
v -0.572092 0.713542 0.5720918
v -0.6388691 0.6106786 0.6388689
v -0.5720917 0.60697323 0.036334842
v -0.6388691 0.20062794 -0.3510807
v -0.572092 0.30349135 -0.4178579
v -0.6388691 -0.25356477 -0.6545624
v -0.572092 -0.15070137 -0.7213396
v -0.6388683 -0.78932166 -0.76113075
v -0.5720911 -0.68645823 -0.827908
v -0.10311221 -0.78932166 -0.65456235
v -0.5720911 -0.68645823 -0.827908
v -0.6388683 -0.78932166 -0.76113075
v -0.03633511 -0.68645823 -0.72133946
v 0.35108054 -0.7893216 -0.35108048
v 0.41785768 -0.6864582 -0.41785762
v 0.6545625 -0.78932154 0.10311234
v 0.7213396 -0.6864581 0.036335222
v 0.76113087 -0.7893214 0.6388692
v 0.827908 -0.686458 0.5720921
v -0.6388691 0.6106786 0.6388689
v -0.572092 0.713542 0.5720918
v -0.036335025 0.60697335 0.5720917
v -0.10311213 0.5041099 0.63886887
v 0.41785768 0.3034915 0.5720919
v 0.35108054 0.2006281 0.638869
v 0.7213396 -0.15070117 0.572092
v 0.6545625 -0.25356457 0.63886917
v 0.827908 -0.686458 0.5720921
v 0.76113087 -0.7893214 0.6388692
vt 0.222662 0.9050293
vt 0.222662 0.9050293
vt 0.222662 0.9050293
vt 0.222662 0.9050293
vt 0.222662 0.9050293
vt 0.222662 0.9050293
vt 0.222662 0.9050293
vt 0.222662 0.9050293
vt 0.222662 0.9050293
vt 0.222662 0.9050293
vt 0.222662 0.9050293
vt 0.222662 0.9050293
vt 0.222662 0.9050293
vt 0.222662 0.9050293
vt 0.222662 0.9050293
vt 0.222662 0.9050293
vt 0.222662 0.9050293
vt 0.222662 0.9050293
vt 0.222662 0.9050293
vt 0.222662 0.9050293
vt 0.222662 0.9050293
vt 0.222662 0.9050293
vt 0.222662 0.9050293
vt 0.222662 0.9050293
vt 0.222662 0.9050293
vt 0.222662 0.9050293
vt 0.222662 0.9050293
vt 0.222662 0.9050293
vt 0.222662 0.9050293
vt 0.222662 0.9050293
vt 0.222662 0.9050293
vt 0.222662 0.9050293
vt 0.222662 0.9050293
vt 0.222662 0.9050293
vt 0.222662 0.9050293
vt 0.222662 0.9050293
vt 0.222662 0.9050293
vt 0.222662 0.9050293
vt 0.222662 0.9050293
vt 0.222662 0.9050293
vt 0.222662 0.9050293
vt 0.222662 0.9050293
vt 0.222662 0.9050293
vt 0.222662 0.9050293
vt 0.222662 0.9050293
vt 0.222662 0.9050293
vt 0.222662 0.9050293
vt 0.222662 0.9050293
vt 0.222662 0.9050293
vt 0.222662 0.9050293
vt 0.222662 0.9050293
vt 0.222662 0.9050293
vt 0.222662 0.9050293
vt 0.222662 0.9050293
vt 0.222662 0.9050293
vt 0.222662 0.9050293
vt 0.222662 0.9050293
vt 0.222662 0.9050293
vt 0.222662 0.9050293
vt 0.222662 0.9050293
vt 0.222662 0.9050293
vt 0.222662 0.9050293
vt 0.222662 0.9050293
vt 0.222662 0.9050293
vt 0.222662 0.9050293
vt 0.222662 0.9050293
vt 0.222662 0.9050293
vt 0.222662 0.9050293
vt 0.222662 0.9050293
vt 0.222662 0.9050293
vt 0.222662 0.9050293
vt 0.222662 0.9050293
vn -0.9061275 -0.19509004 0.3753301
vn -0.9118986 -0.36815676 0.18138777
vn -0.9626373 -0.19148019 0.19148016
vn -0.85669565 -0.37436697 0.3548549
vn -0.6935199 -0.19509004 0.69352
vn -0.71162015 -0.6881572 0.14155014
vn -0.65568644 -0.37436688 0.6556865
vn -0.37533012 -0.19509007 0.9061275
vn -0.6641384 -0.6951567 0.27509516
vn -0.40180317 -0.91223156 0.079923615
vn -0.35485482 -0.3743668 0.85669565
vn -0.19148031 -0.1914802 0.9626373
vn -0.18138778 -0.36815676 0.9118986
vn -0.5083095 -0.6951566 0.5083096
vn -0.3724091 -0.91515917 0.154257
vn -0.12780562 -0.9835301 0.12780577
vn -0.27509508 -0.6951566 0.6641385
vn -0.14155003 -0.68815714 0.7116203
vn -0.28502953 -0.91515917 0.2850298
vn -0.1542568 -0.9151591 0.37240925
vn -0.079923585 -0.9122315 0.40180334
vn 0.9061275 0.19508989 -0.3753301
vn 0.96263736 0.19148 -0.19148013
vn 0.9118987 0.3681567 -0.18138774
vn 0.85669565 0.37436688 -0.35485488
vn 0.69351995 0.19509001 -0.69352
vn 0.71162015 0.6881573 -0.14155008
vn 0.65568644 0.37436688 -0.6556865
vn 0.37533015 0.19509007 -0.9061275
vn 0.6641383 0.6951567 -0.27509516
vn 0.4018031 0.91223156 -0.07992384
vn 0.35485482 0.3743668 -0.85669565
vn 0.19148025 0.19148023 -0.9626373
vn 0.18138783 0.36815676 -0.9118986
vn 0.5083095 0.6951566 -0.50830966
vn 0.37240905 0.91515917 -0.15425704
vn 0.12780553 0.9835301 -0.1278057
vn 0.2750951 0.6951566 -0.6641385
vn 0.14155012 0.68815714 -0.7116203
vn 0.2850295 0.91515917 -0.28502968
vn 0.15425684 0.9151591 -0.37240925
vn 0.07992364 0.9122315 -0.40180328
vn -0.8738567 0.45346472 -0.17534006
vn -0.86269915 0.49600008 -0.09866108
vn -0.86269915 0.49600008 -0.09866108
vn -0.8754443 0.4432771 -0.19262052
vn -0.87245756 0.33604807 -0.35480902
vn -0.8745593 0.3495814 -0.3360641
vn -0.819562 0.17860113 -0.54444444
vn -0.8433727 0.23326042 -0.484058
vn -0.7883273 0.1200289 -0.60343444
vn -0.7883273 0.1200289 -0.60343444
vn 0.2674863 -0.6408002 -0.71960145
vn 0.15507232 -0.6067739 -0.7796012
vn 0.15507232 -0.6067739 -0.7796012
vn 0.31070665 -0.6511944 -0.6923924
vn 0.5208792 -0.6762911 -0.52087915
vn 0.52087927 -0.6762911 -0.52087915
vn 0.71960187 -0.6407997 -0.26748613
vn 0.69239277 -0.65119404 -0.31070656
vn 0.7796018 -0.60677326 -0.15507206
vn 0.7796018 -0.60677326 -0.15507206
vn 0.09866062 0.49600038 0.8626991
vn 0.09866062 0.49600038 0.8626991
vn 0.19262038 0.44327727 0.87544423
vn 0.17533988 0.4534648 0.8738567
vn 0.33606416 0.34958154 0.8745591
vn 0.3548092 0.3360483 0.8724575
vn 0.4840575 0.23326121 0.8433727
vn 0.54444355 0.17860219 0.8195623
vn 0.60343313 0.12003029 0.7883281
vn 0.60343313 0.12003029 0.7883281
g Piggypiece_0
f 3/3/3 2/2/2 1/1/1
f 2/2/2 4/4/4 1/1/1
f 1/1/1 4/4/4 5/5/5
f 2/2/2 6/6/6 4/4/4
f 4/4/4 7/7/7 5/5/5
f 5/5/5 7/7/7 8/8/8
f 6/6/6 9/9/9 4/4/4
f 4/4/4 9/9/9 7/7/7
f 6/6/6 10/10/10 9/9/9
f 7/7/7 11/11/11 8/8/8
f 8/8/8 11/11/11 12/12/12
f 11/11/11 13/13/13 12/12/12
f 9/9/9 14/14/14 7/7/7
f 7/7/7 14/14/14 11/11/11
f 10/10/10 15/15/15 9/9/9
f 9/9/9 15/15/15 14/14/14
f 10/10/10 16/16/16 15/15/15
f 11/11/11 17/17/17 13/13/13
f 14/14/14 17/17/17 11/11/11
f 17/17/17 18/18/18 13/13/13
f 15/15/15 19/19/19 14/14/14
f 15/15/15 16/16/16 19/19/19
f 14/14/14 19/19/19 17/17/17
f 17/17/17 20/20/20 18/18/18
f 19/19/19 20/20/20 17/17/17
f 19/19/19 16/16/16 20/20/20
f 20/20/20 21/21/21 18/18/18
f 20/20/20 16/16/16 21/21/21
f 24/24/24 23/23/23 22/22/22
f 25/25/25 24/24/24 22/22/22
f 25/25/25 22/22/22 26/26/26
f 27/27/27 24/24/24 25/25/25
f 28/28/28 25/25/25 26/26/26
f 28/28/28 26/26/26 29/29/29
f 30/30/30 27/27/27 25/25/25
f 30/30/30 25/25/25 28/28/28
f 31/31/31 27/27/27 30/30/30
f 32/32/32 28/28/28 29/29/29
f 32/32/32 29/29/29 33/33/33
f 34/34/34 32/32/32 33/33/33
f 35/35/35 30/30/30 28/28/28
f 35/35/35 28/28/28 32/32/32
f 36/36/36 31/31/31 30/30/30
f 36/36/36 30/30/30 35/35/35
f 37/37/37 31/31/31 36/36/36
f 38/38/38 32/32/32 34/34/34
f 38/38/38 35/35/35 32/32/32
f 39/39/39 38/38/38 34/34/34
f 40/40/40 36/36/36 35/35/35
f 37/37/37 36/36/36 40/40/40
f 40/40/40 35/35/35 38/38/38
f 41/41/41 38/38/38 39/39/39
f 41/41/41 40/40/40 38/38/38
f 37/37/37 40/40/40 41/41/41
f 42/42/42 41/41/41 39/39/39
f 37/37/37 41/41/41 42/42/42
f 45/45/45 44/44/44 43/43/43
f 44/44/44 46/46/46 43/43/43
f 43/43/43 46/46/46 47/47/47
f 46/46/46 48/48/48 47/47/47
f 47/47/47 48/48/48 49/49/49
f 48/48/48 50/50/50 49/49/49
f 49/49/49 50/50/50 51/51/51
f 50/50/50 52/52/52 51/51/51
f 55/55/55 54/54/54 53/53/53
f 54/54/54 56/56/56 53/53/53
f 53/53/53 56/56/56 57/57/57
f 56/56/56 58/58/58 57/57/57
f 57/57/57 58/58/58 59/59/59
f 58/58/58 60/60/60 59/59/59
f 59/59/59 60/60/60 61/61/61
f 60/60/60 62/62/62 61/61/61
f 65/65/65 64/64/64 63/63/63
f 66/66/66 65/65/65 63/63/63
f 67/67/67 65/65/65 66/66/66
f 68/68/68 67/67/67 66/66/66
f 69/69/69 67/67/67 68/68/68
f 70/70/70 69/69/69 68/68/68
f 71/71/71 69/69/69 70/70/70
f 72/72/72 71/71/71 70/70/70
