g Pillar
v -0.3474723 6.3900003 -0.34747347
v -0.12718377 6.3900003 -0.47465727
v 0.12718372 6.3900003 -0.47465727
v 0.34747234 6.3900003 -0.3474736
v 0.47465605 6.3900003 -0.12718496
v -0.474656 6.3900003 -0.12718496
v -0.474656 6.3900003 0.1271824
v 0.47465602 6.3900003 0.1271824
v -0.34747228 6.3900003 0.34747103
v 0.34747234 6.3900003 0.34747103
v -0.1271837 6.3900003 0.4746547
v 0.12718375 6.3900003 0.4746547
v 0.34747234 0.009999695 -0.34747255
v 0.12718372 0.009999675 -0.47465622
v -0.12718377 0.009999675 -0.47465622
v -0.3474723 0.009999695 -0.34747243
v 0.47465605 0.009999732 -0.12718391
v -0.474656 0.009999732 -0.12718391
v 0.47465602 0.0099997725 0.12718344
v -0.474656 0.0099997725 0.12718344
v 0.34747234 0.009999809 0.34747207
v -0.34747228 0.009999809 0.34747207
v 0.12718375 0.009999829 0.47465575
v -0.1271837 0.009999829 0.47465575
v 0.12718372 0.009999675 -0.47465622
v 0.34747234 0.009999695 -0.34747255
v 0.34747234 6.3900003 -0.3474736
v 0.12718372 6.3900003 -0.47465727
v 0.47465605 6.3900003 -0.12718496
v -0.12718377 0.009999675 -0.47465622
v 0.47465605 0.009999732 -0.12718391
v -0.12718377 6.3900003 -0.47465727
v 0.47465602 6.3900003 0.1271824
v -0.3474723 0.009999695 -0.34747243
v 0.47465602 0.0099997725 0.12718344
v -0.3474723 6.3900003 -0.34747347
v 0.34747234 6.3900003 0.34747103
v -0.474656 0.009999732 -0.12718391
v 0.34747234 0.009999809 0.34747207
v -0.474656 6.3900003 -0.12718496
v 0.12718375 6.3900003 0.4746547
v -0.474656 0.0099997725 0.12718344
v 0.12718375 0.009999829 0.47465575
v -0.474656 6.3900003 0.1271824
v -0.1271837 6.3900003 0.4746547
v -0.34747228 0.009999809 0.34747207
v -0.1271837 0.009999829 0.47465575
v -0.34747228 6.3900003 0.34747103
vt 0.05974433 0.8475933
vt 0.05974433 0.8475933
vt 0.05974433 0.8475933
vt 0.05974433 0.8475933
vt 0.05974433 0.8475933
vt 0.05974433 0.8475933
vt 0.05974433 0.8475933
vt 0.05974433 0.8475933
vt 0.05974433 0.8475933
vt 0.05974433 0.8475933
vt 0.05974433 0.8475933
vt 0.05974433 0.8475933
vt 0.05974433 0.8475933
vt 0.05974433 0.8475933
vt 0.05974433 0.8475933
vt 0.05974433 0.8475933
vt 0.05974433 0.8475933
vt 0.05974433 0.8475933
vt 0.05974433 0.8475933
vt 0.05974433 0.8475933
vt 0.05974433 0.8475933
vt 0.05974433 0.8475933
vt 0.05974433 0.8475933
vt 0.05974433 0.8475933
vt 0.05974433 0.8475933
vt 0.05974433 0.8475933
vt 0.05974433 0.8475933
vt 0.05974433 0.8475933
vt 0.05974433 0.8475933
vt 0.05974433 0.8475933
vt 0.05974433 0.8475933
vt 0.05974433 0.8475933
vt 0.05974433 0.8475933
vt 0.05974433 0.8475933
vt 0.05974433 0.8475933
vt 0.05974433 0.8475933
vt 0.05974433 0.8475933
vt 0.05974433 0.8475933
vt 0.05974433 0.8475933
vt 0.05974433 0.8475933
vt 0.05974433 0.8475933
vt 0.05974433 0.8475933
vt 0.05974433 0.8475933
vt 0.05974433 0.8475933
vt 0.05974433 0.8475933
vt 0.05974433 0.8475933
vt 0.05974433 0.8475933
vt 0.05974433 0.8475933
vn -0 1 0
vn -0 1 0
vn -0 1 0
vn -0 1 0
vn -0 1 0
vn -0 1 0
vn -0 1 0
vn -0 1 0
vn -0 1 0
vn -0 1 0
vn -0 1 0
vn -0 1 0
vn -0 -1 0
vn -0 -1 0
vn -0 -1 0
vn -0 -1 0
vn -0 -1 0
vn -0 -1 0
vn -0 -1 0
vn -0 -1 0
vn -0 -1 0
vn -0 -1 0
vn -0 -1 0
vn -0 -1 0
vn 0.25881898 0 -0.9659258
vn 0.7071067 0 -0.70710677
vn 0.7071067 0 -0.7071068
vn 0.25881898 0 -0.9659258
vn 0.9659258 0 -0.258819
vn -0.25881928 0 -0.9659257
vn 0.9659258 0 -0.25881895
vn -0.25881925 0 -0.9659257
vn 0.9659258 0 0.25881904
vn -0.7071069 0 -0.70710665
vn 0.9659258 0 0.2588191
vn -0.7071068 0 -0.70710665
vn 0.70710677 0 0.7071067
vn -0.9659258 0 -0.2588191
vn 0.70710677 0 0.70710677
vn -0.9659257 0 -0.25881913
vn 0.258819 0 0.9659258
vn -0.9659258 0 0.2588191
vn 0.258819 0 0.9659258
vn -0.9659258 0 0.25881907
vn -0.2588191 0 0.9659258
vn -0.70710677 0 0.70710677
vn -0.2588191 0 0.9659258
vn -0.70710677 0 0.70710677
g Pillar_0
f 3/3/3 2/2/2 1/1/1
f 1/1/1 4/4/4 3/3/3
f 1/1/1 5/5/5 4/4/4
f 1/1/1 6/6/6 5/5/5
f 6/6/6 7/7/7 5/5/5
f 7/7/7 8/8/8 5/5/5
f 7/7/7 9/9/9 8/8/8
f 9/9/9 10/10/10 8/8/8
f 9/9/9 11/11/11 10/10/10
f 11/11/11 12/12/12 10/10/10
f 15/15/15 14/14/14 13/13/13
f 13/13/13 16/16/16 15/15/15
f 13/13/13 17/17/17 16/16/16
f 17/17/17 18/18/18 16/16/16
f 17/17/17 19/19/19 18/18/18
f 19/19/19 20/20/20 18/18/18
f 19/19/19 21/21/21 20/20/20
f 21/21/21 22/22/22 20/20/20
f 21/21/21 23/23/23 22/22/22
f 23/23/23 24/24/24 22/22/22
f 27/27/27 26/26/26 25/25/25
f 28/28/28 27/27/27 25/25/25
f 27/27/27 29/29/29 26/26/26
f 28/28/28 25/25/25 30/30/30
f 29/29/29 31/31/31 26/26/26
f 32/32/32 28/28/28 30/30/30
f 29/29/29 33/33/33 31/31/31
f 32/32/32 30/30/30 34/34/34
f 33/33/33 35/35/35 31/31/31
f 36/36/36 32/32/32 34/34/34
f 33/33/33 37/37/37 35/35/35
f 36/36/36 34/34/34 38/38/38
f 37/37/37 39/39/39 35/35/35
f 40/40/40 36/36/36 38/38/38
f 37/37/37 41/41/41 39/39/39
f 40/40/40 38/38/38 42/42/42
f 41/41/41 43/43/43 39/39/39
f 44/44/44 40/40/40 42/42/42
f 41/41/41 45/45/45 43/43/43
f 44/44/44 42/42/42 46/46/46
f 45/45/45 47/47/47 43/43/43
f 48/48/48 44/44/44 46/46/46
f 48/48/48 46/46/46 47/47/47
f 45/45/45 48/48/48 47/47/47
