g Ring
v -0.3248843 -0.3535688 0.00014185705
v -0.2356517 -0.50376403 0.00014188152
v -0.21208648 -0.47960335 -0.058314543
v -0.29239586 -0.34442753 -0.058314566
v -0.074948706 -0.55651414 -0.058314532
v -0.32706437 -0.17887962 0.0001418286
v -0.08327634 -0.58922064 0.00014189545
v -0.2943579 -0.1872073 -0.05831459
v 0.08227152 -0.55455196 -0.058314532
v -0.24160777 -0.026504219 0.00014180377
v 0.09141285 -0.58704066 0.00014189509
v -0.21744703 -0.050069284 -0.058314614
v 0.21744724 -0.47424278 -0.058314543
v -0.09141254 0.062728286 0.00014178923
v 0.24160807 -0.497808 0.00014188055
v -0.082271256 0.030239781 -0.058314625
v 0.29435822 -0.3371051 -0.058314566
v 0.08327662 0.064908445 0.00014178887
v 0.3270647 -0.3454326 0.00014185572
v 0.07494892 0.032202113 -0.058314625
v 0.29239616 -0.1798847 -0.05831459
v 0.23565204 -0.02054818 0.0001418028
v 0.3248846 -0.17074342 0.00014182727
v 0.21208689 -0.04470901 -0.058314614
v -0.29239586 -0.34442753 -0.058314566
v -0.16495611 -0.4312817 -0.05831455
v -0.22741897 -0.326145 -0.05831457
v -0.21208648 -0.47960335 -0.058314543
v -0.2943579 -0.1872073 -0.05831459
v -0.05829337 -0.49110138 -0.058314543
v -0.22894497 -0.20386268 -0.058314588
v -0.074948706 -0.55651414 -0.058314532
v -0.21744703 -0.050069284 -0.058314614
v 0.06398905 -0.48957533 -0.058314543
v -0.16912542 -0.097199716 -0.058314607
v 0.08227152 -0.55455196 -0.058314532
v -0.082271256 0.030239781 -0.058314625
v 0.1691257 -0.42711252 -0.05831455
v -0.06398877 -0.034736898 -0.058314614
v 0.21744724 -0.47424278 -0.058314543
v 0.07494892 0.032202113 -0.058314625
v 0.22894533 -0.3204497 -0.05831457
v 0.058293663 -0.033210855 -0.058314618
v 0.29435822 -0.3371051 -0.058314566
v 0.21208689 -0.04470901 -0.058314614
v 0.2274193 -0.19816723 -0.058314588
v 0.16495652 -0.09303067 -0.058314607
v 0.29239616 -0.1798847 -0.05831459
v -0.22741897 -0.326145 -0.05831457
v -0.14139093 -0.40712088 0.00014186578
v -0.19493052 -0.31700373 0.0001418511
v -0.16495611 -0.4312817 -0.05831455
v -0.22894497 -0.20386268 -0.058314588
v -0.04996574 -0.45839489 0.00014187413
v -0.19623852 -0.21219034 0.00014183403
v -0.05829337 -0.49110138 -0.058314543
v -0.16912542 -0.097199716 -0.058314607
v 0.054847762 -0.4570868 0.00014187391
v -0.14496458 -0.120765105 0.00014181912
v 0.06398905 -0.48957533 -0.058314543
v -0.06398877 -0.034736898 -0.058314614
v 0.14496492 -0.4035473 0.0001418652
v -0.054847483 -0.0672254 0.00014181041
v 0.1691257 -0.42711252 -0.05831455
v 0.058293663 -0.033210855 -0.058314618
v 0.19623888 -0.31212205 0.0001418503
v 0.049966082 -0.06591751 0.00014181019
v 0.22894533 -0.3204497 -0.05831457
v 0.16495652 -0.09303067 -0.058314607
v 0.19493084 -0.20730849 0.00014183322
v 0.14139134 -0.11719149 0.00014181854
v 0.2274193 -0.19816723 -0.058314588
v -0.19493052 -0.31700373 0.0001418511
v -0.16495611 -0.4312817 0.05859853
v -0.22741897 -0.326145 0.05859851
v -0.14139093 -0.40712088 0.00014186578
v -0.19623852 -0.21219034 0.00014183403
v -0.05829337 -0.49110138 0.058598537
v -0.22894497 -0.20386265 0.058598492
v -0.04996574 -0.45839489 0.00014187413
v -0.14496458 -0.120765105 0.00014181912
v 0.06398905 -0.48957533 0.058598537
v -0.16912542 -0.0971997 0.058598474
v 0.054847762 -0.4570868 0.00014187391
v -0.054847483 -0.0672254 0.00014181041
v 0.1691257 -0.42711252 0.05859853
v -0.06398877 -0.034736875 0.058598466
v 0.14496492 -0.4035473 0.0001418652
v 0.049966082 -0.06591751 0.00014181019
v 0.22894533 -0.3204497 0.05859851
v 0.058293663 -0.033210833 0.058598462
v 0.19623888 -0.31212205 0.0001418503
v 0.14139134 -0.11719149 0.00014181854
v 0.2274193 -0.1981672 0.058598492
v 0.16495652 -0.093030654 0.058598474
v 0.19493084 -0.20730849 0.00014183322
v -0.22741897 -0.326145 0.05859851
v -0.21208648 -0.47960335 0.058598537
v -0.29239586 -0.34442753 0.058598515
v -0.16495611 -0.4312817 0.05859853
v -0.22894497 -0.20386265 0.058598492
v -0.074948706 -0.55651414 0.05859855
v -0.2943579 -0.18720727 0.05859849
v -0.05829337 -0.49110138 0.058598537
v -0.16912542 -0.0971997 0.058598474
v 0.08227152 -0.55455196 0.05859855
v -0.21744703 -0.05006926 0.058598466
v 0.06398905 -0.48957533 0.058598537
v -0.06398877 -0.034736875 0.058598466
v 0.21744724 -0.47424278 0.058598537
v -0.082271256 0.0302398 0.058598455
v 0.1691257 -0.42711252 0.05859853
v 0.058293663 -0.033210833 0.058598462
v 0.29435822 -0.3371051 0.058598515
v 0.07494892 0.032202136 0.058598455
v 0.22894533 -0.3204497 0.05859851
v 0.16495652 -0.093030654 0.058598474
v 0.29239616 -0.17988467 0.05859849
v 0.21208689 -0.044708986 0.058598466
v 0.2274193 -0.1981672 0.058598492
v -0.29239586 -0.34442753 0.058598515
v -0.21208648 -0.47960335 0.058598537
v -0.2356517 -0.50376403 0.00014188152
v -0.3248843 -0.3535688 0.00014185705
v -0.08327634 -0.58922064 0.00014189545
v -0.2943579 -0.18720727 0.05859849
v -0.074948706 -0.55651414 0.05859855
v -0.32706437 -0.17887962 0.0001418286
v 0.09141285 -0.58704066 0.00014189509
v -0.21744703 -0.05006926 0.058598466
v 0.08227152 -0.55455196 0.05859855
v -0.24160777 -0.026504219 0.00014180377
v 0.24160807 -0.497808 0.00014188055
v -0.082271256 0.0302398 0.058598455
v 0.21744724 -0.47424278 0.058598537
v -0.09141254 0.062728286 0.00014178923
v 0.3270647 -0.3454326 0.00014185572
v 0.07494892 0.032202136 0.058598455
v 0.29435822 -0.3371051 0.058598515
v 0.08327662 0.064908445 0.00014178887
v 0.3248846 -0.17074342 0.00014182727
v 0.21208689 -0.044708986 0.058598466
v 0.29239616 -0.17988467 0.05859849
v 0.23565204 -0.02054818 0.0001418028
vt 0.17456055 0.8198242
vt 0.17456055 0.8198242
vt 0.17456055 0.8198242
vt 0.17456055 0.8198242
vt 0.17456055 0.8198242
vt 0.17456055 0.8198242
vt 0.17456055 0.8198242
vt 0.17456055 0.8198242
vt 0.17456055 0.8198242
vt 0.17456055 0.8198242
vt 0.17456055 0.8198242
vt 0.17456055 0.8198242
vt 0.17456055 0.8198242
vt 0.17456055 0.8198242
vt 0.17456055 0.8198242
vt 0.17456055 0.8198242
vt 0.17456055 0.8198242
vt 0.17456055 0.8198242
vt 0.17456055 0.8198242
vt 0.17456055 0.8198242
vt 0.17456055 0.8198242
vt 0.17456055 0.8198242
vt 0.17456055 0.8198242
vt 0.17456055 0.8198242
vt 0.17456055 0.8198242
vt 0.17456055 0.8198242
vt 0.17456055 0.8198242
vt 0.17456055 0.8198242
vt 0.17456055 0.8198242
vt 0.17456055 0.8198242
vt 0.17456055 0.8198242
vt 0.17456055 0.8198242
vt 0.17456055 0.8198242
vt 0.17456055 0.8198242
vt 0.17456055 0.8198242
vt 0.17456055 0.8198242
vt 0.17456055 0.8198242
vt 0.17456055 0.8198242
vt 0.17456055 0.8198242
vt 0.17456055 0.8198242
vt 0.17456055 0.8198242
vt 0.17456055 0.8198242
vt 0.17456055 0.8198242
vt 0.17456055 0.8198242
vt 0.17456055 0.8198242
vt 0.17456055 0.8198242
vt 0.17456055 0.8198242
vt 0.17456055 0.8198242
vt 0.17456055 0.8198242
vt 0.17456055 0.8198242
vt 0.17456055 0.8198242
vt 0.17456055 0.8198242
vt 0.17456055 0.8198242
vt 0.17456055 0.8198242
vt 0.17456055 0.8198242
vt 0.17456055 0.8198242
vt 0.17456055 0.8198242
vt 0.17456055 0.8198242
vt 0.17456055 0.8198242
vt 0.17456055 0.8198242
vt 0.17456055 0.8198242
vt 0.17456055 0.8198242
vt 0.17456055 0.8198242
vt 0.17456055 0.8198242
vt 0.17456055 0.8198242
vt 0.17456055 0.8198242
vt 0.17456055 0.8198242
vt 0.17456055 0.8198242
vt 0.17456055 0.8198242
vt 0.17456055 0.8198242
vt 0.17456055 0.8198242
vt 0.17456055 0.8198242
vt 0.17456055 0.8198242
vt 0.17456055 0.8198242
vt 0.17456055 0.8198242
vt 0.17456055 0.8198242
vt 0.17456055 0.8198242
vt 0.17456055 0.8198242
vt 0.17456055 0.8198242
vt 0.17456055 0.8198242
vt 0.17456055 0.8198242
vt 0.17456055 0.8198242
vt 0.17456055 0.8198242
vt 0.17456055 0.8198242
vt 0.17456055 0.8198242
vt 0.17456055 0.8198242
vt 0.17456055 0.8198242
vt 0.17456055 0.8198242
vt 0.17456055 0.8198242
vt 0.17456055 0.8198242
vt 0.17456055 0.8198242
vt 0.17456055 0.8198242
vt 0.17456055 0.8198242
vt 0.17456055 0.8198242
vt 0.17456055 0.8198242
vt 0.17456055 0.8198242
vt 0.17456055 0.8198242
vt 0.17456055 0.8198242
vt 0.17456055 0.8198242
vt 0.17456055 0.8198242
vt 0.17456055 0.8198242
vt 0.17456055 0.8198242
vt 0.17456055 0.8198242
vt 0.17456055 0.8198242
vt 0.17456055 0.8198242
vt 0.17456055 0.8198242
vt 0.17456055 0.8198242
vt 0.17456055 0.8198242
vt 0.17456055 0.8198242
vt 0.17456055 0.8198242
vt 0.17456055 0.8198242
vt 0.17456055 0.8198242
vt 0.17456055 0.8198242
vt 0.17456055 0.8198242
vt 0.17456055 0.8198242
vt 0.17456055 0.8198242
vt 0.17456055 0.8198242
vt 0.17456055 0.8198242
vt 0.17456055 0.8198242
vt 0.17456055 0.8198242
vt 0.17456055 0.8198242
vt 0.17456055 0.8198242
vt 0.17456055 0.8198242
vt 0.17456055 0.8198242
vt 0.17456055 0.8198242
vt 0.17456055 0.8198242
vt 0.17456055 0.8198242
vt 0.17456055 0.8198242
vt 0.17456055 0.8198242
vt 0.17456055 0.8198242
vt 0.17456055 0.8198242
vt 0.17456055 0.8198242
vt 0.17456055 0.8198242
vt 0.17456055 0.8198242
vt 0.17456055 0.8198242
vt 0.17456055 0.8198242
vt 0.17456055 0.8198242
vt 0.17456055 0.8198242
vt 0.17456055 0.8198242
vt 0.17456055 0.8198242
vt 0.17456055 0.8198242
vt 0.17456055 0.8198242
vt 0.17456055 0.8198242
vt 0.17456055 0.8198242
vn -0.8334961 -0.23461914 -0.5
vn -0.6044922 -0.6201172 -0.5
vn -0.6044922 -0.6201172 -0.5
vn -0.8334961 -0.23461914 -0.5
vn -0.21374512 -0.83935547 -0.5
vn -0.83935547 0.21374512 -0.5
vn -0.21374512 -0.83935547 -0.5
vn -0.83935547 0.21374512 -0.5
vn 0.23461914 -0.8334961 -0.5
vn -0.6201172 0.6044922 -0.5
vn 0.23461914 -0.8334961 -0.5
vn -0.6201172 0.6044922 -0.5
vn 0.6201172 -0.6044922 -0.5
vn -0.23461914 0.8334961 -0.5
vn 0.6201172 -0.6044922 -0.5
vn -0.23461914 0.8334961 -0.5
vn 0.83935547 -0.21374512 -0.5
vn 0.21374512 0.83935547 -0.5
vn 0.83935547 -0.21374512 -0.5
vn 0.21374512 0.83935547 -0.5
vn 0.8334961 0.23461914 -0.5
vn 0.6044922 0.6201172 -0.5
vn 0.8334961 0.23461914 -0.5
vn 0.6044922 0.6201172 -0.5
vn -0 0 -1
vn -0 0 -1
vn -0 0 -1
vn -0 0 -1
vn -0 0 -1
vn -0 0 -1
vn -0 0 -1
vn -0 0 -1
vn -0 0 -1
vn -0 0 -1
vn -0 0 -1
vn -0 0 -1
vn -0 0 -1
vn -0 0 -1
vn -0 0 -1
vn -0 0 -1
vn -0 0 -1
vn -0 0 -1
vn -0 0 -1
vn -0 0 -1
vn -0 0 -1
vn -0 0 -1
vn -0 0 -1
vn -0 0 -1
vn 0.8334961 0.23461914 -0.5
vn 0.6044922 0.6201172 -0.5
vn 0.8334961 0.23461914 -0.5
vn 0.6044922 0.6201172 -0.5
vn 0.83935547 -0.21374512 -0.5
vn 0.21374512 0.83935547 -0.5
vn 0.83935547 -0.21374512 -0.5
vn 0.21374512 0.83935547 -0.5
vn 0.6201172 -0.6044922 -0.5
vn -0.23461914 0.8334961 -0.5
vn 0.6201172 -0.6044922 -0.5
vn -0.23461914 0.8334961 -0.5
vn 0.23461914 -0.8334961 -0.5
vn -0.6201172 0.6044922 -0.5
vn 0.23461914 -0.8334961 -0.5
vn -0.6201172 0.6044922 -0.5
vn -0.21374512 -0.83935547 -0.5
vn -0.83935547 0.21374512 -0.5
vn -0.21374512 -0.83935547 -0.5
vn -0.83935547 0.21374512 -0.5
vn -0.6044922 -0.6201172 -0.5
vn -0.8334961 -0.23461914 -0.5
vn -0.6044922 -0.6201172 -0.5
vn -0.8334961 -0.23461914 -0.5
vn 0.8334961 0.23461914 0.5
vn 0.6044922 0.6201172 0.5
vn 0.8334961 0.23461914 0.5
vn 0.6044922 0.6201172 0.5
vn 0.83935547 -0.21374512 0.5
vn 0.21374512 0.83935547 0.5
vn 0.83935547 -0.21374512 0.5
vn 0.21374512 0.83935547 0.5
vn 0.6201172 -0.6044922 0.5
vn -0.23461914 0.8334961 0.5
vn 0.6201172 -0.6044922 0.5
vn -0.23461914 0.8334961 0.5
vn 0.23461914 -0.8334961 0.5
vn -0.6201172 0.6044922 0.5
vn 0.23461914 -0.8334961 0.5
vn -0.6201172 0.6044922 0.5
vn -0.21374512 -0.83935547 0.5
vn -0.83935547 0.21374512 0.5
vn -0.21374512 -0.83935547 0.5
vn -0.83935547 0.21374512 0.5
vn -0.6044922 -0.6201172 0.5
vn -0.8334961 -0.23461914 0.5
vn -0.6044922 -0.6201172 0.5
vn -0.8334961 -0.23461914 0.5
vn -0 0 1
vn -0 0 1
vn -0 0 1
vn -0 0 1
vn -0 0 1
vn -0 0 1
vn -0 0 1
vn -0 0 1
vn -0 0 1
vn -0 0 1
vn -0 0 1
vn -0 0 1
vn -0 0 1
vn -0 0 1
vn -0 0 1
vn -0 0 1
vn -0 0 1
vn -0 0 1
vn -0 0 1
vn -0 0 1
vn -0 0 1
vn -0 0 1
vn -0 0 1
vn -0 0 1
vn -0.8334961 -0.23461914 0.5
vn -0.6044922 -0.6201172 0.5
vn -0.6044922 -0.6201172 0.5
vn -0.8334961 -0.23461914 0.5
vn -0.21374512 -0.83935547 0.5
vn -0.83935547 0.21374512 0.5
vn -0.21374512 -0.83935547 0.5
vn -0.83935547 0.21374512 0.5
vn 0.23461914 -0.8334961 0.5
vn -0.6201172 0.6044922 0.5
vn 0.23461914 -0.8334961 0.5
vn -0.6201172 0.6044922 0.5
vn 0.6201172 -0.6044922 0.5
vn -0.23461914 0.8334961 0.5
vn 0.6201172 -0.6044922 0.5
vn -0.23461914 0.8334961 0.5
vn 0.83935547 -0.21374512 0.5
vn 0.21374512 0.83935547 0.5
vn 0.83935547 -0.21374512 0.5
vn 0.21374512 0.83935547 0.5
vn 0.8334961 0.23461914 0.5
vn 0.6044922 0.6201172 0.5
vn 0.8334961 0.23461914 0.5
vn 0.6044922 0.6201172 0.5
g Ring_0
f 3/3/3 2/2/2 1/1/1
f 4/4/4 3/3/3 1/1/1
f 3/3/3 5/5/5 2/2/2
f 4/4/4 1/1/1 6/6/6
f 5/5/5 7/7/7 2/2/2
f 8/8/8 4/4/4 6/6/6
f 5/5/5 9/9/9 7/7/7
f 8/8/8 6/6/6 10/10/10
f 9/9/9 11/11/11 7/7/7
f 12/12/12 8/8/8 10/10/10
f 9/9/9 13/13/13 11/11/11
f 12/12/12 10/10/10 14/14/14
f 13/13/13 15/15/15 11/11/11
f 16/16/16 12/12/12 14/14/14
f 13/13/13 17/17/17 15/15/15
f 16/16/16 14/14/14 18/18/18
f 17/17/17 19/19/19 15/15/15
f 20/20/20 16/16/16 18/18/18
f 17/17/17 21/21/21 19/19/19
f 20/20/20 18/18/18 22/22/22
f 21/21/21 23/23/23 19/19/19
f 24/24/24 20/20/20 22/22/22
f 24/24/24 22/22/22 23/23/23
f 21/21/21 24/24/24 23/23/23
f 27/27/27 26/26/26 25/25/25
f 26/26/26 28/28/28 25/25/25
f 27/27/27 25/25/25 29/29/29
f 26/26/26 30/30/30 28/28/28
f 31/31/31 27/27/27 29/29/29
f 30/30/30 32/32/32 28/28/28
f 31/31/31 29/29/29 33/33/33
f 30/30/30 34/34/34 32/32/32
f 35/35/35 31/31/31 33/33/33
f 34/34/34 36/36/36 32/32/32
f 35/35/35 33/33/33 37/37/37
f 34/34/34 38/38/38 36/36/36
f 39/39/39 35/35/35 37/37/37
f 38/38/38 40/40/40 36/36/36
f 39/39/39 37/37/37 41/41/41
f 38/38/38 42/42/42 40/40/40
f 43/43/43 39/39/39 41/41/41
f 42/42/42 44/44/44 40/40/40
f 43/43/43 41/41/41 45/45/45
f 42/42/42 46/46/46 44/44/44
f 47/47/47 43/43/43 45/45/45
f 46/46/46 48/48/48 44/44/44
f 47/47/47 45/45/45 48/48/48
f 46/46/46 47/47/47 48/48/48
f 51/51/51 50/50/50 49/49/49
f 50/50/50 52/52/52 49/49/49
f 51/51/51 49/49/49 53/53/53
f 50/50/50 54/54/54 52/52/52
f 55/55/55 51/51/51 53/53/53
f 54/54/54 56/56/56 52/52/52
f 55/55/55 53/53/53 57/57/57
f 54/54/54 58/58/58 56/56/56
f 59/59/59 55/55/55 57/57/57
f 58/58/58 60/60/60 56/56/56
f 59/59/59 57/57/57 61/61/61
f 58/58/58 62/62/62 60/60/60
f 63/63/63 59/59/59 61/61/61
f 62/62/62 64/64/64 60/60/60
f 63/63/63 61/61/61 65/65/65
f 62/62/62 66/66/66 64/64/64
f 67/67/67 63/63/63 65/65/65
f 66/66/66 68/68/68 64/64/64
f 67/67/67 65/65/65 69/69/69
f 66/66/66 70/70/70 68/68/68
f 71/71/71 67/67/67 69/69/69
f 70/70/70 72/72/72 68/68/68
f 71/71/71 69/69/69 72/72/72
f 70/70/70 71/71/71 72/72/72
f 75/75/75 74/74/74 73/73/73
f 74/74/74 76/76/76 73/73/73
f 75/75/75 73/73/73 77/77/77
f 74/74/74 78/78/78 76/76/76
f 79/79/79 75/75/75 77/77/77
f 78/78/78 80/80/80 76/76/76
f 79/79/79 77/77/77 81/81/81
f 78/78/78 82/82/82 80/80/80
f 83/83/83 79/79/79 81/81/81
f 82/82/82 84/84/84 80/80/80
f 83/83/83 81/81/81 85/85/85
f 82/82/82 86/86/86 84/84/84
f 87/87/87 83/83/83 85/85/85
f 86/86/86 88/88/88 84/84/84
f 87/87/87 85/85/85 89/89/89
f 86/86/86 90/90/90 88/88/88
f 91/91/91 87/87/87 89/89/89
f 90/90/90 92/92/92 88/88/88
f 91/91/91 89/89/89 93/93/93
f 90/90/90 94/94/94 92/92/92
f 95/95/95 91/91/91 93/93/93
f 94/94/94 96/96/96 92/92/92
f 95/95/95 93/93/93 96/96/96
f 94/94/94 95/95/95 96/96/96
f 99/99/99 98/98/98 97/97/97
f 98/98/98 100/100/100 97/97/97
f 99/99/99 97/97/97 101/101/101
f 98/98/98 102/102/102 100/100/100
f 103/103/103 99/99/99 101/101/101
f 102/102/102 104/104/104 100/100/100
f 103/103/103 101/101/101 105/105/105
f 102/102/102 106/106/106 104/104/104
f 107/107/107 103/103/103 105/105/105
f 106/106/106 108/108/108 104/104/104
f 107/107/107 105/105/105 109/109/109
f 106/106/106 110/110/110 108/108/108
f 111/111/111 107/107/107 109/109/109
f 110/110/110 112/112/112 108/108/108
f 111/111/111 109/109/109 113/113/113
f 110/110/110 114/114/114 112/112/112
f 115/115/115 111/111/111 113/113/113
f 114/114/114 116/116/116 112/112/112
f 115/115/115 113/113/113 117/117/117
f 114/114/114 118/118/118 116/116/116
f 119/119/119 115/115/115 117/117/117
f 118/118/118 120/120/120 116/116/116
f 119/119/119 117/117/117 120/120/120
f 118/118/118 119/119/119 120/120/120
f 123/123/123 122/122/122 121/121/121
f 124/124/124 123/123/123 121/121/121
f 123/123/123 125/125/125 122/122/122
f 124/124/124 121/121/121 126/126/126
f 125/125/125 127/127/127 122/122/122
f 128/128/128 124/124/124 126/126/126
f 125/125/125 129/129/129 127/127/127
f 128/128/128 126/126/126 130/130/130
f 129/129/129 131/131/131 127/127/127
f 132/132/132 128/128/128 130/130/130
f 129/129/129 133/133/133 131/131/131
f 132/132/132 130/130/130 134/134/134
f 133/133/133 135/135/135 131/131/131
f 136/136/136 132/132/132 134/134/134
f 133/133/133 137/137/137 135/135/135
f 136/136/136 134/134/134 138/138/138
f 137/137/137 139/139/139 135/135/135
f 140/140/140 136/136/136 138/138/138
f 137/137/137 141/141/141 139/139/139
f 140/140/140 138/138/138 142/142/142
f 141/141/141 143/143/143 139/139/139
f 144/144/144 140/140/140 142/142/142
f 144/144/144 142/142/142 143/143/143
f 141/141/141 144/144/144 143/143/143
