g Rock_3
v 0.050829686 0.44326738 0.27699727
v 0.061650284 0.5415236 0.2769971
v 0.08351913 0.4541368 -0.10269933
v 0.22472335 -0.0828137 -0.2239605
v 0.2776002 -0.002045161 -0.24721347
v 0.2472135 -0.0020452142 -0.28859305
v -0.42860386 0.18678382 -0.23174666
v -0.42860386 0.18678379 -0.27312624
v -0.29629472 0.37446845 -0.27051184
v 0.17190127 0.3191758 -0.1484584
v 0.16763051 0.23274888 -0.19564512
v 0.1779776 0.23168764 -0.17826462
v 0.2147575 -0.0020442382 0.47393835
v 0.17987213 0.07699152 0.40556476
v 0.24514422 -0.0020442759 0.4447157
v 0.19432941 -0.08281288 0.4240076
v 0.2147575 -0.0020442382 0.47393835
v 0.24514422 -0.0020442759 0.4447157
v -0.39327052 0.18211962 0.39885178
v -0.39327052 -0.0020442968 0.42807466
v -0.37506816 -0.08281294 0.38105783
v 0.010393814 0.31962076 -0.20978417
v 0.17190127 0.3191758 -0.1484584
v 0.08351913 0.4541368 -0.10269933
v 0.16763051 0.23274888 -0.19564512
v 0.2128382 0.11760312 -0.21713182
v 0.2776002 -0.002045161 -0.24721347
v 0.24514422 -0.0020442759 0.4447157
v 0.17987213 0.07699152 0.40556476
v 0.2128382 0.11760312 -0.21713182
v 0.17987213 0.07699152 0.40556476
v 0.17797758 0.19084933 0.24619466
v 0.1779776 0.23168764 -0.17826462
v 0.021894632 0.31269348 0.30585223
v -0.35798427 0.3217958 0.28007448
v -0.32269806 0.461472 0.27871546
v 0.050829686 0.44326738 0.27699727
v 0.061650284 0.5415236 0.2769971
v -0.25712574 0.5546568 0.2529407
v -0.0067836856 -0.12133365 -0.22396049
v -0.43826878 -0.0828137 -0.22396053
v -0.37506816 -0.08281294 0.38105783
v -0.0067837154 -0.12133279 0.46151507
v 0.17190126 0.30470726 0.20424294
v 0.050829686 0.44326738 0.27699727
v 0.08351913 0.4541368 -0.10269933
v 0.17190127 0.3191758 -0.1484584
v 0.22472335 -0.0828137 -0.2239605
v -0.0067836856 -0.12133365 -0.22396049
v -0.0067837154 -0.12133279 0.46151507
v 0.19432941 -0.08281288 0.4240076
v -0.39327052 0.18211962 0.39885178
v -0.42860386 0.18678382 -0.23174666
v -0.29629472 0.37446845 -0.27051184
v -0.35798427 0.3217958 0.28007448
v -0.29629472 0.37446845 -0.27051184
v 0.010393814 0.31962076 -0.20978417
v 0.08351913 0.4541368 -0.10269933
v -0.30278462 0.4722046 -0.20568949
v -0.2639269 0.5245139 -0.15675724
v 0.061650284 0.5415236 0.2769971
v -0.25712574 0.5546568 0.2529407
v -0.2639269 0.5245139 -0.15675724
v 0.08351913 0.4541368 -0.10269933
v -0.30278462 0.4722046 -0.20568949
v -0.2639269 0.5245139 -0.15675724
v -0.25712574 0.5546568 0.2529407
v -0.32269806 0.461472 0.27871546
v -0.0070404275 0.18211974 0.4521256
v -2.2467235E-08 -0.002044187 0.5139904
v -0.39327052 -0.0020442968 0.42807466
v -0.39327052 0.18211962 0.39885178
v 0.22472335 -0.0828137 -0.2239605
v 0.2472135 -0.0020452142 -0.28859305
v 1.2614803E-08 -0.0020452142 -0.28859305
v -0.0067836856 -0.12133365 -0.22396049
v -0.29629472 0.37446845 -0.27051184
v -0.30278462 0.4722046 -0.20568949
v -0.32269806 0.461472 0.27871546
v -0.35798427 0.3217958 0.28007448
v -0.0067836856 -0.12133365 -0.22396049
v 1.2614803E-08 -0.0020452142 -0.28859305
v -0.46075892 -0.0020452142 -0.28859308
v -0.43826878 -0.0828137 -0.22396053
v -0.43826878 -0.0828137 -0.22396053
v -0.46075892 -0.0020452142 -0.28859308
v -0.42860386 0.18678379 -0.27312624
v -0.42860386 0.18678382 -0.23174666
v 1.2614803E-08 -0.0020452142 -0.28859305
v 0.2472135 -0.0020452142 -0.28859305
v 0.2128382 0.11760306 -0.25851145
v 0.0051969136 0.18445133 -0.25077802
v -0.46075892 -0.0020452142 -0.28859308
v 1.2614803E-08 -0.0020452142 -0.28859305
v 0.0051969136 0.18445133 -0.25077802
v -0.42860386 0.18678379 -0.27312624
v -0.37506816 -0.08281294 0.38105783
v -0.43826878 -0.0828137 -0.22396053
v -0.42860386 0.18678382 -0.23174666
v -0.39327052 0.18211962 0.39885178
v 0.2472135 -0.0020452142 -0.28859305
v 0.2776002 -0.002045161 -0.24721347
v 0.2128382 0.11760312 -0.21713182
v 0.2128382 0.11760306 -0.25851145
v -0.37506816 -0.08281294 0.38105783
v -0.39327052 -0.0020442968 0.42807466
v -2.2467235E-08 -0.002044187 0.5139904
v -0.0067837154 -0.12133279 0.46151507
v 0.19432941 -0.08281288 0.4240076
v 0.24514422 -0.0020442759 0.4447157
v 0.2776002 -0.002045161 -0.24721347
v 0.22472335 -0.0828137 -0.2239605
v 0.17797758 0.19084933 0.24619466
v 0.021894632 0.31269348 0.30585223
v 0.050829686 0.44326738 0.27699727
v 0.17190126 0.30470726 0.20424294
v -0.0067837154 -0.12133279 0.46151507
v -2.2467235E-08 -0.002044187 0.5139904
v 0.2147575 -0.0020442382 0.47393835
v 0.19432941 -0.08281288 0.4240076
v 0.17987213 0.07699152 0.40556476
v 0.2147575 -0.0020442382 0.47393835
v -2.2467235E-08 -0.002044187 0.5139904
v -0.0070404275 0.18211974 0.4521256
v 0.17987213 0.07699152 0.40556476
v -0.0070404275 0.18211974 0.4521256
v 0.021894632 0.31269348 0.30585223
v 0.17797758 0.19084933 0.24619466
v -0.0070404275 0.18211974 0.4521256
v -0.39327052 0.18211962 0.39885178
v -0.35798427 0.3217958 0.28007448
v 0.021894632 0.31269348 0.30585223
v -0.42860386 0.18678379 -0.27312624
v 0.0051969136 0.18445133 -0.25077802
v 0.010393814 0.31962076 -0.20978417
v -0.29629472 0.37446845 -0.27051184
v 0.17797758 0.19084933 0.24619466
v 0.17190126 0.30470726 0.20424294
v 0.17190127 0.3191758 -0.1484584
v 0.1779776 0.23168764 -0.17826462
v 0.16763051 0.23274888 -0.19564512
v 0.2128382 0.11760306 -0.25851145
v 0.2128382 0.11760312 -0.21713182
v 0.1779776 0.23168764 -0.17826462
v 0.16763051 0.23274888 -0.19564512
v 0.010393814 0.31962076 -0.20978417
v 0.0051969136 0.18445133 -0.25077802
v 0.2128382 0.11760306 -0.25851145
vt 0.109313965 0.32421875
vt 0.109313965 0.32421875
vt 0.109313965 0.32421875
vt 0.109313965 0.32421875
vt 0.109313965 0.32421875
vt 0.109313965 0.32421875
vt 0.109313965 0.32421875
vt 0.109313965 0.32421875
vt 0.109313965 0.32421875
vt 0.109313965 0.32421875
vt 0.109313965 0.32421875
vt 0.109313965 0.32421875
vt 0.109313965 0.32421875
vt 0.109313965 0.32421875
vt 0.109313965 0.32421875
vt 0.109313965 0.32421875
vt 0.109313965 0.32421875
vt 0.109313965 0.32421875
vt 0.109313965 0.32421875
vt 0.109313965 0.32421875
vt 0.109313965 0.32421875
vt 0.109313965 0.32421875
vt 0.109313965 0.32421875
vt 0.109313965 0.32421875
vt 0.109313965 0.32421875
vt 0.109313965 0.32421875
vt 0.109313965 0.32421875
vt 0.109313965 0.32421875
vt 0.109313965 0.32421875
vt 0.109313965 0.32421875
vt 0.109313965 0.32421875
vt 0.109313965 0.32421875
vt 0.109313965 0.32421875
vt 0.109313965 0.32421875
vt 0.109313965 0.32421875
vt 0.109313965 0.32421875
vt 0.109313965 0.32421875
vt 0.109313965 0.32421875
vt 0.109313965 0.32421875
vt 0.109313965 0.32421875
vt 0.109313965 0.32421875
vt 0.109313965 0.32421875
vt 0.109313965 0.32421875
vt 0.109313965 0.32421875
vt 0.109313965 0.32421875
vt 0.109313965 0.32421875
vt 0.109313965 0.32421875
vt 0.109313965 0.32421875
vt 0.109313965 0.32421875
vt 0.109313965 0.32421875
vt 0.109313965 0.32421875
vt 0.109313965 0.32421875
vt 0.109313965 0.32421875
vt 0.109313965 0.32421875
vt 0.109313965 0.32421875
vt 0.109313965 0.32421875
vt 0.109313965 0.32421875
vt 0.109313965 0.32421875
vt 0.109313965 0.32421875
vt 0.109313965 0.32421875
vt 0.109313965 0.32421875
vt 0.109313965 0.32421875
vt 0.109313965 0.32421875
vt 0.109313965 0.32421875
vt 0.109313965 0.32421875
vt 0.109313965 0.32421875
vt 0.109313965 0.32421875
vt 0.109313965 0.32421875
vt 0.109313965 0.32421875
vt 0.109313965 0.32421875
vt 0.109313965 0.32421875
vt 0.109313965 0.32421875
vt 0.109313965 0.32421875
vt 0.109313965 0.32421875
vt 0.109313965 0.32421875
vt 0.109313965 0.32421875
vt 0.109313965 0.32421875
vt 0.109313965 0.32421875
vt 0.109313965 0.32421875
vt 0.109313965 0.32421875
vt 0.109313965 0.32421875
vt 0.109313965 0.32421875
vt 0.109313965 0.32421875
vt 0.109313965 0.32421875
vt 0.109313965 0.32421875
vt 0.109313965 0.32421875
vt 0.109313965 0.32421875
vt 0.109313965 0.32421875
vt 0.109313965 0.32421875
vt 0.109313965 0.32421875
vt 0.109313965 0.32421875
vt 0.109313965 0.32421875
vt 0.109313965 0.32421875
vt 0.109313965 0.32421875
vt 0.109313965 0.32421875
vt 0.109313965 0.32421875
vt 0.109313965 0.32421875
vt 0.109313965 0.32421875
vt 0.109313965 0.32421875
vt 0.109313965 0.32421875
vt 0.109313965 0.32421875
vt 0.109313965 0.32421875
vt 0.109313965 0.32421875
vt 0.109313965 0.32421875
vt 0.109313965 0.32421875
vt 0.109313965 0.32421875
vt 0.109313965 0.32421875
vt 0.109313965 0.32421875
vt 0.109313965 0.32421875
vt 0.109313965 0.32421875
vt 0.109313965 0.32421875
vt 0.109313965 0.32421875
vt 0.109313965 0.32421875
vt 0.109313965 0.32421875
vt 0.109313965 0.32421875
vt 0.109313965 0.32421875
vt 0.109313965 0.32421875
vt 0.109313965 0.32421875
vt 0.109313965 0.32421875
vt 0.109313965 0.32421875
vt 0.109313965 0.32421875
vt 0.109313965 0.32421875
vt 0.109313965 0.32421875
vt 0.109313965 0.32421875
vt 0.109313965 0.32421875
vt 0.109313965 0.32421875
vt 0.109313965 0.32421875
vt 0.109313965 0.32421875
vt 0.109313965 0.32421875
vt 0.109313965 0.32421875
vt 0.109313965 0.32421875
vt 0.109313965 0.32421875
vt 0.109313965 0.32421875
vt 0.109313965 0.32421875
vt 0.109313965 0.32421875
vt 0.109313965 0.32421875
vt 0.109313965 0.32421875
vt 0.109313965 0.32421875
vt 0.109313965 0.32421875
vt 0.109313965 0.32421875
vt 0.109313965 0.32421875
vt 0.109313965 0.32421875
vt 0.109313965 0.32421875
vt 0.109313965 0.32421875
vt 0.109313965 0.32421875
vt 0.109313965 0.32421875
vt 0.109313965 0.32421875
vt 0.109313965 0.32421875
vn 0.99072266 -0.109069824 0.08215332
vn 0.99072266 -0.109069824 0.08215332
vn 0.99072266 -0.109069824 0.08215332
vn 0.6611328 -0.5722656 -0.48535156
vn 0.6611328 -0.5722656 -0.48535156
vn 0.6611328 -0.5722656 -0.48535156
vn -0.8173828 0.5761719 0
vn -0.8173828 0.5761719 0
vn -0.8173828 0.5761719 0
vn 0.8432617 0.22485352 -0.48828125
vn 0.8432617 0.22485352 -0.48828125
vn 0.8432617 0.22485352 -0.48828125
vn 0.5078125 0.68066406 0.52783203
vn 0.5078125 0.68066406 0.52783203
vn 0.5078125 0.68066406 0.52783203
vn 0.5888672 -0.52734375 0.6123047
vn 0.5888672 -0.52734375 0.6123047
vn 0.5888672 -0.52734375 0.6123047
vn -0.9555664 -0.046142578 -0.29077148
vn -0.9555664 -0.046142578 -0.29077148
vn -0.9555664 -0.046142578 -0.29077148
vn 0.31225586 0.4819336 -0.81884766
vn 0.31225586 0.4819336 -0.81884766
vn 0.31225586 0.4819336 -0.81884766
vn 0.31958008 0.44189453 -0.8383789
vn 0.8339844 0.54833984 0.058441162
vn 0.8339844 0.54833984 0.058441162
vn 0.8339844 0.54833984 0.058441162
vn 0.8339844 0.54833984 0.058441162
vn 0.9824219 0.18225098 0.04510498
vn 0.9824219 0.18225098 0.04510498
vn 0.9824219 0.18225098 0.04510498
vn 0.9824219 0.18225098 0.04510498
vn -0.027435303 0.117492676 0.9926758
vn -0.027435303 0.117492676 0.9926758
vn -0.027435303 0.117492676 0.9926758
vn -0.027435303 0.117492676 0.9926758
vn -0.025436401 0.14331055 0.9892578
vn -0.025436401 0.14331055 0.9892578
vn -0.09637451 -0.9951172 0.0047187805
vn -0.09637451 -0.9951172 0.0047187805
vn -0.09637451 -0.9951172 0.0047187805
vn -0.09637451 -0.9951172 0.0047187805
vn 0.8041992 0.5913086 0.056365967
vn 0.8041992 0.5913086 0.056365967
vn 0.8041992 0.5913086 0.056365967
vn 0.8041992 0.5913086 0.056365967
vn 0.17565918 -0.984375 0.004005432
vn 0.17565918 -0.984375 0.004005432
vn 0.17565918 -0.984375 0.004005432
vn 0.17565918 -0.984375 0.004005432
vn -0.88964844 0.45654297 0.0023117065
vn -0.88964844 0.45654297 0.0023117065
vn -0.88964844 0.45654297 0.0023117065
vn -0.88964844 0.45654297 0.0023117065
vn 0.24743652 0.52978516 -0.81152344
vn 0.24743652 0.52978516 -0.81152344
vn 0.24743652 0.52978516 -0.81152344
vn 0.24743652 0.52978516 -0.81152344
vn 0.23730469 0.56396484 -0.7910156
vn 0.13964844 0.97998047 -0.14318848
vn 0.13964844 0.97998047 -0.14318848
vn 0.13964844 0.97998047 -0.14318848
vn 0.13964844 0.97998047 -0.14318848
vn -0.8100586 0.5854492 -0.024597168
vn -0.8100586 0.5854492 -0.024597168
vn -0.8100586 0.5854492 -0.024597168
vn -0.8100586 0.5854492 -0.024597168
vn -0.17089844 0.23339844 0.95703125
vn -0.17089844 0.23339844 0.95703125
vn -0.17089844 0.23339844 0.95703125
vn -0.17089844 0.23339844 0.95703125
vn 0.044006348 -0.546875 -0.8359375
vn 0.044006348 -0.546875 -0.8359375
vn 0.044006348 -0.546875 -0.8359375
vn 0.044006348 -0.546875 -0.8359375
vn -0.98779297 0.13842773 -0.06939697
vn -0.98779297 0.13842773 -0.06939697
vn -0.98779297 0.13842773 -0.06939697
vn -0.98779297 0.13842773 -0.06939697
vn -0.023483276 -0.5439453 -0.8388672
vn -0.023483276 -0.5439453 -0.8388672
vn -0.023483276 -0.5439453 -0.8388672
vn -0.023483276 -0.5439453 -0.8388672
vn -0.95996094 0.08312988 0.26708984
vn -0.95996094 0.08312988 0.26708984
vn -0.95996094 0.08312988 0.26708984
vn -0.95996094 0.08312988 0.26708984
vn 0.015434265 0.21789551 -0.9760742
vn 0.015434265 0.21789551 -0.9760742
vn 0.015434265 0.21789551 -0.9760742
vn 0.015434265 0.21789551 -0.9760742
vn 0.025100708 0.13806152 -0.9902344
vn 0.025100708 0.13806152 -0.9902344
vn 0.025100708 0.13806152 -0.9902344
vn 0.025100708 0.13806152 -0.9902344
vn -0.99658203 -0.017410278 0.07940674
vn -0.99658203 -0.017410278 0.07940674
vn -0.99658203 -0.017410278 0.07940674
vn -0.99658203 -0.017410278 0.07940674
vn 0.84765625 0.42944336 -0.3112793
vn 0.84765625 0.42944336 -0.3112793
vn 0.84765625 0.42944336 -0.3112793
vn 0.84765625 0.42944336 -0.3112793
vn -0.21252441 -0.44482422 0.8701172
vn -0.21252441 -0.44482422 0.8701172
vn -0.21252441 -0.44482422 0.8701172
vn -0.21252441 -0.44482422 0.8701172
vn 0.8413086 -0.5395508 0.03945923
vn 0.8413086 -0.5395508 0.03945923
vn 0.8413086 -0.5395508 0.03945923
vn 0.8413086 -0.5395508 0.03945923
vn 0.55810547 0.18237305 0.8095703
vn 0.55810547 0.18237305 0.8095703
vn 0.55810547 0.18237305 0.8095703
vn 0.55810547 0.18237305 0.8095703
vn 0.20373535 -0.46801758 0.8598633
vn 0.20373535 -0.46801758 0.8598633
vn 0.20373535 -0.46801758 0.8598633
vn 0.20373535 -0.46801758 0.8598633
vn 0.30078125 0.4609375 0.83496094
vn 0.30078125 0.4609375 0.83496094
vn 0.30078125 0.4609375 0.83496094
vn 0.30078125 0.4609375 0.83496094
vn 0.57421875 0.61376953 0.5419922
vn 0.57421875 0.61376953 0.5419922
vn 0.57421875 0.61376953 0.5419922
vn 0.57421875 0.61376953 0.5419922
vn -0.064331055 0.70654297 0.70458984
vn -0.064331055 0.70654297 0.70458984
vn -0.064331055 0.70654297 0.70458984
vn -0.064331055 0.70654297 0.70458984
vn 0.117492676 0.083618164 -0.9897461
vn 0.117492676 0.083618164 -0.9897461
vn 0.117492676 0.083618164 -0.9897461
vn 0.117492676 0.083618164 -0.9897461
vn 0.9980469 0.060516357 0.004306793
vn 0.9980469 0.060516357 0.004306793
vn 0.9980469 0.060516357 0.004306793
vn 0.9980469 0.060516357 0.004306793
vn 0.90966797 0.3857422 -0.15319824
vn 0.90966797 0.3857422 -0.15319824
vn 0.90966797 0.3857422 -0.15319824
vn 0.90966797 0.3857422 -0.15319824
vn 0.18493652 0.40161133 -0.89697266
vn 0.18493652 0.40161133 -0.89697266
vn 0.18493652 0.40161133 -0.89697266
vn 0.18493652 0.40161133 -0.89697266
g Rock_3_0
f 3/3/3 2/2/2 1/1/1
f 6/6/6 5/5/5 4/4/4
f 9/9/9 8/8/8 7/7/7
f 12/12/12 11/11/11 10/10/10
f 15/15/15 14/14/14 13/13/13
f 18/18/18 17/17/17 16/16/16
f 21/21/21 20/20/20 19/19/19
f 24/24/24 23/23/23 22/22/22
f 23/23/23 25/25/25 22/22/22
f 28/28/28 27/27/27 26/26/26
f 29/29/29 28/28/28 26/26/26
f 32/32/32 31/31/31 30/30/30
f 33/33/33 32/32/32 30/30/30
f 36/36/36 35/35/35 34/34/34
f 37/37/37 36/36/36 34/34/34
f 37/37/37 38/38/38 36/36/36
f 38/38/38 39/39/39 36/36/36
f 42/42/42 41/41/41 40/40/40
f 43/43/43 42/42/42 40/40/40
f 46/46/46 45/45/45 44/44/44
f 47/47/47 46/46/46 44/44/44
f 50/50/50 49/49/49 48/48/48
f 51/51/51 50/50/50 48/48/48
f 54/54/54 53/53/53 52/52/52
f 55/55/55 54/54/54 52/52/52
f 58/58/58 57/57/57 56/56/56
f 59/59/59 58/58/58 56/56/56
f 59/59/59 60/60/60 58/58/58
f 63/63/63 62/62/62 61/61/61
f 64/64/64 63/63/63 61/61/61
f 67/67/67 66/66/66 65/65/65
f 68/68/68 67/67/67 65/65/65
f 71/71/71 70/70/70 69/69/69
f 72/72/72 71/71/71 69/69/69
f 75/75/75 74/74/74 73/73/73
f 76/76/76 75/75/75 73/73/73
f 79/79/79 78/78/78 77/77/77
f 80/80/80 79/79/79 77/77/77
f 83/83/83 82/82/82 81/81/81
f 84/84/84 83/83/83 81/81/81
f 87/87/87 86/86/86 85/85/85
f 88/88/88 87/87/87 85/85/85
f 91/91/91 90/90/90 89/89/89
f 92/92/92 91/91/91 89/89/89
f 95/95/95 94/94/94 93/93/93
f 96/96/96 95/95/95 93/93/93
f 99/99/99 98/98/98 97/97/97
f 100/100/100 99/99/99 97/97/97
f 103/103/103 102/102/102 101/101/101
f 104/104/104 103/103/103 101/101/101
f 107/107/107 106/106/106 105/105/105
f 108/108/108 107/107/107 105/105/105
f 111/111/111 110/110/110 109/109/109
f 112/112/112 111/111/111 109/109/109
f 115/115/115 114/114/114 113/113/113
f 116/116/116 115/115/115 113/113/113
f 119/119/119 118/118/118 117/117/117
f 120/120/120 119/119/119 117/117/117
f 123/123/123 122/122/122 121/121/121
f 124/124/124 123/123/123 121/121/121
f 127/127/127 126/126/126 125/125/125
f 128/128/128 127/127/127 125/125/125
f 131/131/131 130/130/130 129/129/129
f 132/132/132 131/131/131 129/129/129
f 135/135/135 134/134/134 133/133/133
f 136/136/136 135/135/135 133/133/133
f 139/139/139 138/138/138 137/137/137
f 140/140/140 139/139/139 137/137/137
f 143/143/143 142/142/142 141/141/141
f 144/144/144 143/143/143 141/141/141
f 147/147/147 146/146/146 145/145/145
f 148/148/148 147/147/147 145/145/145
