g Rock_7
v 0.016227994 0.42704254 0.23859318
v 0.09095171 0.4202668 0.09384787
v 0.18124387 0.42457914 0.15483318
v -0.4431747 0.16889146 -0.34926197
v -0.39315447 0.3124018 -0.24079382
v -0.4833595 0.19327867 -0.22395518
v 0.09095171 0.4202668 0.09384787
v -0.29991707 0.44171506 0.2462144
v -0.24368542 0.5466878 0.16969159
v 0.029865516 0.43525887 -0.298384
v 0.09095171 0.4202668 0.09384787
v 0.0043759597 0.5307615 -0.29744023
v -0.4129736 0.29500073 0.27671343
v -0.29082736 0.354926 0.29383925
v -0.4129332 0.29636285 0.3702674
v 0.18124387 0.42457914 0.15483318
v 0.23554145 0.23476253 0.1522554
v 0.21953852 0.24379209 0.26624432
v -0.4129332 0.29636285 0.3702674
v -0.29082736 0.354926 0.29383925
v -0.2633277 0.29528853 0.3425078
v 0.12899631 0.18264149 -0.27171797
v 0.11944652 0.06359919 -0.42735282
v 0.14428104 0.12188959 -0.241793
v 0.23554145 0.23476253 0.1522554
v 0.31276563 0.19281916 0.16177903
v 0.21953852 0.24379209 0.26624432
v 0.32235608 -0.22721262 0.17605996
v 0.23209162 -0.22721262 0.18837711
v 0.25614604 -0.30269328 0.2265854
v 0.14428104 0.12188959 -0.241793
v 0.25057435 0.0697002 -0.16436754
v 0.31276563 0.19281916 0.16177903
v 0.23554145 0.23476253 0.1522554
v 0.12899631 0.18264149 -0.27171797
v 0.14428104 0.12188959 -0.241793
v 0.23554145 0.23476253 0.1522554
v 0.12307718 0.2978188 -0.23241378
v 0.18124387 0.42457914 0.15483318
v -0.019946648 0.30245575 -0.31610885
v 0.029865516 0.43525887 -0.298384
v -0.38002852 0.45204705 -0.24865645
v -0.39315447 0.3124018 -0.24079382
v -0.38002852 0.45204705 -0.24865645
v 0.029865516 0.43525887 -0.298384
v 0.0043759597 0.5307615 -0.29744023
v -0.29061165 0.54602975 -0.2348044
v 0.12307718 0.2978188 -0.23241378
v 0.18124387 0.42457914 0.15483318
v 0.09095171 0.4202668 0.09384787
v 0.029865516 0.43525887 -0.298384
v -0.29082736 0.354926 0.29383925
v -0.29991707 0.44171506 0.2462144
v 0.09095171 0.4202668 0.09384787
v 0.016227994 0.42704254 0.23859318
v 0.0043759597 0.5307615 -0.29744023
v 0.09095171 0.4202668 0.09384787
v -0.24368542 0.5466878 0.16969159
v -0.29061165 0.54602975 -0.2348044
v -0.29991707 0.44171506 0.2462144
v -0.38002852 0.45204705 -0.24865645
v -0.29061165 0.54602975 -0.2348044
v -0.24368542 0.5466878 0.16969159
v 0.016227994 0.42704254 0.23859318
v 0.18124387 0.42457914 0.15483318
v 0.21953852 0.24379209 0.26624432
v 0.014148456 0.29329592 0.2910216
v -0.29082736 0.354926 0.29383925
v -0.39315447 0.3124018 -0.24079382
v -0.38002852 0.45204705 -0.24865645
v -0.29991707 0.44171506 0.2462144
v 0.12899631 0.18264149 -0.27171797
v 0.12307718 0.2978188 -0.23241378
v 0.029865516 0.43525887 -0.298384
v -0.019946648 0.30245575 -0.31610885
v 0.11944652 0.06359919 -0.42735282
v 0.12899631 0.18264149 -0.27171797
v -0.019946648 0.30245575 -0.31610885
v -0.067333005 0.16713773 -0.45295253
v -0.067333005 0.16713773 -0.45295253
v -0.019946648 0.30245575 -0.31610885
v -0.39315447 0.3124018 -0.24079382
v -0.4431747 0.16889146 -0.34926197
v -0.4129736 0.29500073 0.27671343
v -0.4129332 0.29636285 0.3702674
v -0.47857422 -0.30269307 0.32709238
v -0.4840256 -0.2272125 0.28609595
v -0.4833595 0.19327867 -0.22395518
v -0.5531898 -0.22721308 -0.19651254
v 0.11944652 0.06359919 -0.42735282
v -0.067333005 0.16713773 -0.45295253
v -0.066542834 -0.22721341 -0.44700962
v 0.11978059 -0.22721343 -0.42484024
v -0.5230739 -0.22721331 -0.34532428
v -0.066542834 -0.22721341 -0.44700962
v -0.067333005 0.16713773 -0.45295253
v -0.4431747 0.16889146 -0.34926197
v -0.53207666 -0.22721331 -0.3433191
v 0.31276563 0.19281916 0.16177903
v 0.26337808 0.1364112 0.3634042
v 0.19295461 0.18738404 0.41531178
v 0.21953852 0.24379209 0.26624432
v -0.4431747 0.16889146 -0.34926197
v -0.4833595 0.19327867 -0.22395518
v -0.5531898 -0.22721308 -0.19651254
v -0.53207666 -0.22721331 -0.3433191
v 0.15202002 -0.2272132 -0.27451342
v 0.24517545 -0.22721308 -0.20171936
v 0.25057435 0.0697002 -0.16436754
v 0.14428104 0.12188959 -0.241793
v -0.2633277 0.29528853 0.3425078
v 0.014148456 0.29329592 0.2910216
v -0.097442 0.16775516 0.63601196
v -0.4129332 0.29636285 0.3702674
v -0.38977128 0.23995459 0.40468115
v 0.14428104 0.12188959 -0.241793
v 0.11944652 0.06359919 -0.42735282
v 0.11978059 -0.22721343 -0.42484024
v 0.15202002 -0.2272132 -0.27451342
v -0.39315447 0.3124018 -0.24079382
v -0.29082736 0.354926 0.29383925
v -0.4129736 0.29500073 0.27671343
v -0.4833595 0.19327867 -0.22395518
v 0.31276563 0.19281916 0.16177903
v 0.25057435 0.0697002 -0.16436754
v 0.24517545 -0.22721308 -0.20171936
v 0.32235608 -0.22721262 0.17605996
v -0.5531898 -0.22721308 -0.19651254
v -0.4840256 -0.2272125 0.28609595
v 0.021280302 -0.2272126 0.2171437
v 0.15202002 -0.2272132 -0.27451342
v -0.53207666 -0.22721331 -0.3433191
v -0.5230739 -0.22721331 -0.34532428
v -0.066542834 -0.22721341 -0.44700962
v 0.11978059 -0.22721343 -0.42484024
v 0.24517545 -0.22721308 -0.20171936
v 0.23209162 -0.22721262 0.18837711
v 0.32235608 -0.22721262 0.17605996
v 0.32235608 -0.22721262 0.17605996
v 0.27296853 -0.22721237 0.37768504
v 0.26337808 0.1364112 0.3634042
v 0.31276563 0.19281916 0.16177903
v -0.097442 0.16775516 0.63601196
v 0.20675853 -0.22721228 0.42821035
v -0.096204616 -0.22721203 0.6453181
v 0.19295461 0.18738404 0.41531178
v 0.27296853 -0.22721237 0.37768504
v 0.26337808 0.1364112 0.3634042
v -0.38977128 0.23995459 0.40468115
v -0.097442 0.16775516 0.63601196
v -0.096204616 -0.22721203 0.6453181
v -0.47821596 -0.2272123 0.41406357
v 0.038189504 -0.3026932 0.24777043
v -0.096204616 -0.22721203 0.6453181
v 0.20675853 -0.22721228 0.42821035
v 0.25614604 -0.30269328 0.2265854
v 0.25614604 -0.30269328 0.2265854
v 0.20675853 -0.22721228 0.42821035
v 0.27296853 -0.22721237 0.37768504
v 0.32235608 -0.22721262 0.17605996
v 0.21953852 0.24379209 0.26624432
v 0.19295461 0.18738404 0.41531178
v -0.097442 0.16775516 0.63601196
v 0.014148456 0.29329592 0.2910216
v -0.4129332 0.29636285 0.3702674
v -0.38977128 0.23995459 0.40468115
v -0.47821596 -0.2272123 0.41406357
v -0.47857422 -0.30269307 0.32709238
v -0.47857422 -0.30269307 0.32709238
v -0.47821596 -0.2272123 0.41406357
v -0.096204616 -0.22721203 0.6453181
v 0.038189504 -0.3026932 0.24777043
v -0.29082736 0.354926 0.29383925
v 0.016227994 0.42704254 0.23859318
v 0.014148456 0.29329592 0.2910216
v -0.2633277 0.29528853 0.3425078
v 0.23209162 -0.22721262 0.18837711
v 0.038189504 -0.3026932 0.24777043
v 0.25614604 -0.30269328 0.2265854
v 0.021280302 -0.2272126 0.2171437
v -0.47857422 -0.30269307 0.32709238
v -0.4840256 -0.2272125 0.28609595
vt 0.109313965 0.32421875
vt 0.109313965 0.32421875
vt 0.109313965 0.32421875
vt 0.109313965 0.32421875
vt 0.109313965 0.32421875
vt 0.109313965 0.32421875
vt 0.109313965 0.32421875
vt 0.109313965 0.32421875
vt 0.109313965 0.32421875
vt 0.109313965 0.32421875
vt 0.109313965 0.32421875
vt 0.109313965 0.32421875
vt 0.109313965 0.32421875
vt 0.109313965 0.32421875
vt 0.109313965 0.32421875
vt 0.109313965 0.32421875
vt 0.109313965 0.32421875
vt 0.109313965 0.32421875
vt 0.109313965 0.32421875
vt 0.109313965 0.32421875
vt 0.109313965 0.32421875
vt 0.109313965 0.32421875
vt 0.109313965 0.32421875
vt 0.109313965 0.32421875
vt 0.109313965 0.32421875
vt 0.109313965 0.32421875
vt 0.109313965 0.32421875
vt 0.109313965 0.32421875
vt 0.109313965 0.32421875
vt 0.109313965 0.32421875
vt 0.109313965 0.32421875
vt 0.109313965 0.32421875
vt 0.109313965 0.32421875
vt 0.109313965 0.32421875
vt 0.109313965 0.32421875
vt 0.109313965 0.32421875
vt 0.109313965 0.32421875
vt 0.109313965 0.32421875
vt 0.109313965 0.32421875
vt 0.109313965 0.32421875
vt 0.109313965 0.32421875
vt 0.109313965 0.32421875
vt 0.109313965 0.32421875
vt 0.109313965 0.32421875
vt 0.109313965 0.32421875
vt 0.109313965 0.32421875
vt 0.109313965 0.32421875
vt 0.109313965 0.32421875
vt 0.109313965 0.32421875
vt 0.109313965 0.32421875
vt 0.109313965 0.32421875
vt 0.109313965 0.32421875
vt 0.109313965 0.32421875
vt 0.109313965 0.32421875
vt 0.109313965 0.32421875
vt 0.109313965 0.32421875
vt 0.109313965 0.32421875
vt 0.109313965 0.32421875
vt 0.109313965 0.32421875
vt 0.109313965 0.32421875
vt 0.109313965 0.32421875
vt 0.109313965 0.32421875
vt 0.109313965 0.32421875
vt 0.109313965 0.32421875
vt 0.109313965 0.32421875
vt 0.109313965 0.32421875
vt 0.109313965 0.32421875
vt 0.109313965 0.32421875
vt 0.109313965 0.32421875
vt 0.109313965 0.32421875
vt 0.109313965 0.32421875
vt 0.109313965 0.32421875
vt 0.109313965 0.32421875
vt 0.109313965 0.32421875
vt 0.109313965 0.32421875
vt 0.109313965 0.32421875
vt 0.109313965 0.32421875
vt 0.109313965 0.32421875
vt 0.109313965 0.32421875
vt 0.109313965 0.32421875
vt 0.109313965 0.32421875
vt 0.109313965 0.32421875
vt 0.109313965 0.32421875
vt 0.109313965 0.32421875
vt 0.109313965 0.32421875
vt 0.109313965 0.32421875
vt 0.109313965 0.32421875
vt 0.109313965 0.32421875
vt 0.109313965 0.32421875
vt 0.109313965 0.32421875
vt 0.109313965 0.32421875
vt 0.109313965 0.32421875
vt 0.109313965 0.32421875
vt 0.109313965 0.32421875
vt 0.109313965 0.32421875
vt 0.109313965 0.32421875
vt 0.109313965 0.32421875
vt 0.109313965 0.32421875
vt 0.109313965 0.32421875
vt 0.109313965 0.32421875
vt 0.109313965 0.32421875
vt 0.109313965 0.32421875
vt 0.109313965 0.32421875
vt 0.109313965 0.32421875
vt 0.109313965 0.32421875
vt 0.109313965 0.32421875
vt 0.109313965 0.32421875
vt 0.109313965 0.32421875
vt 0.109313965 0.32421875
vt 0.109313965 0.32421875
vt 0.109313965 0.32421875
vt 0.109313965 0.32421875
vt 0.109313965 0.32421875
vt 0.109313965 0.32421875
vt 0.109313965 0.32421875
vt 0.109313965 0.32421875
vt 0.109313965 0.32421875
vt 0.109313965 0.32421875
vt 0.109313965 0.32421875
vt 0.109313965 0.32421875
vt 0.109313965 0.32421875
vt 0.109313965 0.32421875
vt 0.109313965 0.32421875
vt 0.109313965 0.32421875
vt 0.109313965 0.32421875
vt 0.109313965 0.32421875
vt 0.109313965 0.32421875
vt 0.109313965 0.32421875
vt 0.109313965 0.32421875
vt 0.109313965 0.32421875
vt 0.109313965 0.32421875
vt 0.109313965 0.32421875
vt 0.109313965 0.32421875
vt 0.109313965 0.32421875
vt 0.109313965 0.32421875
vt 0.109313965 0.32421875
vt 0.109313965 0.32421875
vt 0.109313965 0.32421875
vt 0.109313965 0.32421875
vt 0.109313965 0.32421875
vt 0.109313965 0.32421875
vt 0.109313965 0.32421875
vt 0.109313965 0.32421875
vt 0.109313965 0.32421875
vt 0.109313965 0.32421875
vt 0.109313965 0.32421875
vt 0.109313965 0.32421875
vt 0.109313965 0.32421875
vt 0.109313965 0.32421875
vt 0.109313965 0.32421875
vt 0.109313965 0.32421875
vt 0.109313965 0.32421875
vt 0.109313965 0.32421875
vt 0.109313965 0.32421875
vt 0.109313965 0.32421875
vt 0.109313965 0.32421875
vt 0.109313965 0.32421875
vt 0.109313965 0.32421875
vt 0.109313965 0.32421875
vt 0.109313965 0.32421875
vt 0.109313965 0.32421875
vt 0.109313965 0.32421875
vt 0.109313965 0.32421875
vt 0.109313965 0.32421875
vt 0.109313965 0.32421875
vt 0.109313965 0.32421875
vt 0.109313965 0.32421875
vt 0.109313965 0.32421875
vt 0.109313965 0.32421875
vt 0.109313965 0.32421875
vt 0.109313965 0.32421875
vt 0.109313965 0.32421875
vt 0.109313965 0.32421875
vt 0.109313965 0.32421875
vt 0.109313965 0.32421875
vt 0.109313965 0.32421875
vt 0.109313965 0.32421875
vt 0.109313965 0.32421875
vt 0.109313965 0.32421875
vt 0.109313965 0.32421875
vt 0.109313965 0.32421875
vt 0.109313965 0.32421875
vn -0.011947632 0.99853516 -0.05291748
vn -0.011947632 0.99853516 -0.05291748
vn -0.011947632 0.99853516 -0.05291748
vn -0.77001953 0.5332031 -0.35058594
vn -0.77001953 0.5332031 -0.35058594
vn -0.77001953 0.5332031 -0.35058594
vn 0.3491211 0.42260742 0.8364258
vn 0.3491211 0.42260742 0.8364258
vn 0.3491211 0.42260742 0.8364258
vn 0.95654297 0.2565918 -0.13916016
vn 0.95654297 0.2565918 -0.13916016
vn 0.95654297 0.2565918 -0.13916016
vn -0.43896484 0.8984375 -0.012893677
vn -0.43896484 0.8984375 -0.012893677
vn -0.43896484 0.8984375 -0.012893677
vn 0.9555664 0.27197266 0.11260986
vn 0.9555664 0.27197266 0.11260986
vn 0.9555664 0.27197266 0.11260986
vn 0.14099121 0.6640625 0.734375
vn 0.14099121 0.6640625 0.734375
vn 0.14099121 0.6640625 0.734375
vn 0.9711914 0.15612793 -0.17907715
vn 0.9711914 0.15612793 -0.17907715
vn 0.9711914 0.15612793 -0.17907715
vn 0.47753906 0.87841797 -0.0025596619
vn 0.47753906 0.87841797 -0.0025596619
vn 0.47753906 0.87841797 -0.0025596619
vn -0.11871338 -0.47827148 -0.8701172
vn -0.11871338 -0.47827148 -0.8701172
vn -0.11871338 -0.47827148 -0.8701172
vn 0.55566406 0.7475586 -0.3635254
vn 0.55566406 0.7475586 -0.3635254
vn 0.55566406 0.7475586 -0.3635254
vn 0.55566406 0.7475586 -0.3635254
vn 0.94873047 0.20080566 -0.2434082
vn 0.94873047 0.20080566 -0.2434082
vn 0.94873047 0.20080566 -0.2434082
vn 0.94873047 0.20080566 -0.2434082
vn 0.94873047 0.20080566 -0.2434082
vn -0.15490723 0.07147217 -0.98535156
vn -0.15490723 0.07147217 -0.98535156
vn -0.15490723 0.07147217 -0.98535156
vn -0.15490723 0.07147217 -0.98535156
vn -0.1505127 0.12731934 -0.98046875
vn -0.1505127 0.12731934 -0.98046875
vn -0.1505127 0.12731934 -0.98046875
vn -0.1505127 0.12731934 -0.98046875
vn 0.6635742 0.71972656 -0.20471191
vn 0.6635742 0.71972656 -0.20471191
vn 0.6635742 0.71972656 -0.20471191
vn 0.6635742 0.71972656 -0.20471191
vn 0.052093506 0.91552734 0.39868164
vn 0.052093506 0.91552734 0.39868164
vn 0.052093506 0.91552734 0.39868164
vn 0.052093506 0.91552734 0.39868164
vn 0.23815918 0.9667969 0.09350586
vn 0.23815918 0.9667969 0.09350586
vn 0.23815918 0.9667969 0.09350586
vn 0.23815918 0.9667969 0.09350586
vn -0.7832031 0.61035156 0.117248535
vn -0.7832031 0.61035156 0.117248535
vn -0.7832031 0.61035156 0.117248535
vn -0.7832031 0.61035156 0.117248535
vn 0.3083496 0.46704102 0.8286133
vn 0.3083496 0.46704102 0.8286133
vn 0.3083496 0.46704102 0.8286133
vn 0.3083496 0.46704102 0.8286133
vn -0.98339844 0.059753418 0.17236328
vn -0.98339844 0.059753418 0.17236328
vn -0.98339844 0.059753418 0.17236328
vn -0.98339844 0.059753418 0.17236328
vn 0.5048828 0.107666016 -0.8564453
vn 0.5048828 0.107666016 -0.8564453
vn 0.5048828 0.107666016 -0.8564453
vn 0.5048828 0.107666016 -0.8564453
vn 0.5214844 0.5908203 -0.6152344
vn 0.5214844 0.5908203 -0.6152344
vn 0.5214844 0.5908203 -0.6152344
vn 0.5214844 0.5908203 -0.6152344
vn -0.15966797 0.68310547 -0.7128906
vn -0.15966797 0.68310547 -0.7128906
vn -0.15966797 0.68310547 -0.7128906
vn -0.15966797 0.68310547 -0.7128906
vn -0.98779297 0.117248535 0.1048584
vn -0.98779297 0.117248535 0.1048584
vn -0.98779297 0.117248535 0.1048584
vn -0.98779297 0.117248535 0.1048584
vn -0.98095703 0.15136719 0.123535156
vn -0.98095703 0.15136719 0.123535156
vn 0.12371826 -0.012039185 -0.9921875
vn 0.12371826 -0.012039185 -0.9921875
vn 0.12371826 -0.012039185 -0.9921875
vn 0.12371826 -0.012039185 -0.9921875
vn -0.23925781 0.012069702 -0.9707031
vn -0.23925781 0.012069702 -0.9707031
vn -0.23925781 0.012069702 -0.9707031
vn -0.23925781 0.012069702 -0.9707031
vn -0.23925781 0.012069702 -0.9707031
vn 0.7128906 0.60791016 0.34985352
vn 0.7128906 0.60791016 0.34985352
vn 0.7128906 0.60791016 0.34985352
vn 0.7128906 0.60791016 0.34985352
vn -0.95654297 0.17651367 -0.23132324
vn -0.95654297 0.17651367 -0.23132324
vn -0.95654297 0.17651367 -0.23132324
vn -0.95654297 0.17651367 -0.23132324
vn 0.61376953 0.08734131 -0.78466797
vn 0.61376953 0.08734131 -0.78466797
vn 0.61376953 0.08734131 -0.78466797
vn 0.61376953 0.08734131 -0.78466797
vn 0.002784729 0.9013672 0.43286133
vn 0.002784729 0.9013672 0.43286133
vn 0.002784729 0.9013672 0.43286133
vn 0.002784729 0.9013672 0.43286133
vn 0.002784729 0.9013672 0.43286133
vn 0.9848633 0.020492554 -0.17089844
vn 0.9848633 0.020492554 -0.17089844
vn 0.9848633 0.020492554 -0.17089844
vn 0.9848633 0.020492554 -0.17089844
vn -0.64453125 0.76464844 0.0010194778
vn -0.64453125 0.76464844 0.0010194778
vn -0.64453125 0.76464844 0.0010194778
vn -0.64453125 0.76464844 0.0010194778
vn 0.98046875 0.012046814 -0.19628906
vn 0.98046875 0.012046814 -0.19628906
vn 0.98046875 0.012046814 -0.19628906
vn 0.98046875 0.012046814 -0.19628906
vn -0 -1 0
vn -0 -1 0
vn -0 -1 0
vn -0 -1 0
vn -0 -1 0
vn -0 -1 0
vn -0 -1 0
vn -0 -1 0
vn -0 -1 0
vn -0 -1 0
vn -0 -1 0
vn 0.96972656 0.032562256 0.24206543
vn 0.96972656 0.032562256 0.24206543
vn 0.96972656 0.032562256 0.24206543
vn 0.96972656 0.032562256 0.24206543
vn 0.59277344 0.033081055 0.8046875
vn 0.59277344 0.033081055 0.8046875
vn 0.59277344 0.033081055 0.8046875
vn 0.59277344 0.033081055 0.8046875
vn 0.61035156 0.045959473 0.7910156
vn 0.61035156 0.045959473 0.7910156
vn -0.55859375 0.074401855 0.8261719
vn -0.55859375 0.074401855 0.8261719
vn -0.55859375 0.074401855 0.8261719
vn -0.55859375 0.074401855 0.8261719
vn 0.12756348 -0.95166016 0.27905273
vn 0.12756348 -0.95166016 0.27905273
vn 0.12756348 -0.95166016 0.27905273
vn 0.12756348 -0.95166016 0.27905273
vn 0.6308594 -0.71972656 0.28930664
vn 0.6308594 -0.71972656 0.28930664
vn 0.6308594 -0.71972656 0.28930664
vn 0.6308594 -0.71972656 0.28930664
vn 0.24902344 0.88427734 0.39526367
vn 0.24902344 0.88427734 0.39526367
vn 0.24902344 0.88427734 0.39526367
vn 0.24902344 0.88427734 0.39526367
vn -0.9765625 0.13574219 0.16784668
vn -0.9765625 0.13574219 0.16784668
vn -0.9765625 0.13574219 0.16784668
vn -0.9765625 0.13574219 0.16784668
vn -0.04815674 -0.95751953 0.2849121
vn -0.04815674 -0.95751953 0.2849121
vn -0.04815674 -0.95751953 0.2849121
vn -0.04815674 -0.95751953 0.2849121
vn 0.10333252 0.47143555 0.87597656
vn 0.10333252 0.47143555 0.87597656
vn 0.10333252 0.47143555 0.87597656
vn 0.10333252 0.47143555 0.87597656
vn -0.10412598 -0.43579102 -0.89404297
vn -0.10412598 -0.43579102 -0.89404297
vn -0.10412598 -0.43579102 -0.89404297
vn -0.10412598 -0.43579102 -0.89404297
vn -0.12890625 -0.44067383 -0.8881836
vn -0.12890625 -0.44067383 -0.8881836
g Rock_7_0
f 3/3/3 2/2/2 1/1/1
f 6/6/6 5/5/5 4/4/4
f 9/9/9 8/8/8 7/7/7
f 12/12/12 11/11/11 10/10/10
f 15/15/15 14/14/14 13/13/13
f 18/18/18 17/17/17 16/16/16
f 21/21/21 20/20/20 19/19/19
f 24/24/24 23/23/23 22/22/22
f 27/27/27 26/26/26 25/25/25
f 30/30/30 29/29/29 28/28/28
f 33/33/33 32/32/32 31/31/31
f 34/34/34 33/33/33 31/31/31
f 37/37/37 36/36/36 35/35/35
f 35/35/35 38/38/38 37/37/37
f 38/38/38 39/39/39 37/37/37
f 42/42/42 41/41/41 40/40/40
f 43/43/43 42/42/42 40/40/40
f 46/46/46 45/45/45 44/44/44
f 47/47/47 46/46/46 44/44/44
f 50/50/50 49/49/49 48/48/48
f 51/51/51 50/50/50 48/48/48
f 54/54/54 53/53/53 52/52/52
f 55/55/55 54/54/54 52/52/52
f 58/58/58 57/57/57 56/56/56
f 59/59/59 58/58/58 56/56/56
f 62/62/62 61/61/61 60/60/60
f 63/63/63 62/62/62 60/60/60
f 66/66/66 65/65/65 64/64/64
f 67/67/67 66/66/66 64/64/64
f 70/70/70 69/69/69 68/68/68
f 71/71/71 70/70/70 68/68/68
f 74/74/74 73/73/73 72/72/72
f 75/75/75 74/74/74 72/72/72
f 78/78/78 77/77/77 76/76/76
f 79/79/79 78/78/78 76/76/76
f 82/82/82 81/81/81 80/80/80
f 83/83/83 82/82/82 80/80/80
f 86/86/86 85/85/85 84/84/84
f 87/87/87 86/86/86 84/84/84
f 87/87/87 84/84/84 88/88/88
f 89/89/89 87/87/87 88/88/88
f 92/92/92 91/91/91 90/90/90
f 93/93/93 92/92/92 90/90/90
f 96/96/96 95/95/95 94/94/94
f 94/94/94 97/97/97 96/96/96
f 94/94/94 98/98/98 97/97/97
f 101/101/101 100/100/100 99/99/99
f 102/102/102 101/101/101 99/99/99
f 105/105/105 104/104/104 103/103/103
f 106/106/106 105/105/105 103/103/103
f 109/109/109 108/108/108 107/107/107
f 110/110/110 109/109/109 107/107/107
f 113/113/113 112/112/112 111/111/111
f 111/111/111 114/114/114 113/113/113
f 114/114/114 115/115/115 113/113/113
f 118/118/118 117/117/117 116/116/116
f 119/119/119 118/118/118 116/116/116
f 122/122/122 121/121/121 120/120/120
f 123/123/123 122/122/122 120/120/120
f 126/126/126 125/125/125 124/124/124
f 127/127/127 126/126/126 124/124/124
f 130/130/130 129/129/129 128/128/128
f 131/131/131 130/130/130 128/128/128
f 131/131/131 128/128/128 132/132/132
f 132/132/132 133/133/133 131/131/131
f 133/133/133 134/134/134 131/131/131
f 134/134/134 135/135/135 131/131/131
f 131/131/131 136/136/136 130/130/130
f 136/136/136 137/137/137 130/130/130
f 136/136/136 138/138/138 137/137/137
f 141/141/141 140/140/140 139/139/139
f 142/142/142 141/141/141 139/139/139
f 145/145/145 144/144/144 143/143/143
f 144/144/144 146/146/146 143/143/143
f 144/144/144 147/147/147 146/146/146
f 147/147/147 148/148/148 146/146/146
f 151/151/151 150/150/150 149/149/149
f 152/152/152 151/151/151 149/149/149
f 155/155/155 154/154/154 153/153/153
f 156/156/156 155/155/155 153/153/153
f 159/159/159 158/158/158 157/157/157
f 160/160/160 159/159/159 157/157/157
f 163/163/163 162/162/162 161/161/161
f 164/164/164 163/163/163 161/161/161
f 167/167/167 166/166/166 165/165/165
f 168/168/168 167/167/167 165/165/165
f 171/171/171 170/170/170 169/169/169
f 172/172/172 171/171/171 169/169/169
f 175/175/175 174/174/174 173/173/173
f 176/176/176 175/175/175 173/173/173
f 179/179/179 178/178/178 177/177/177
f 178/178/178 180/180/180 177/177/177
f 178/178/178 181/181/181 180/180/180
f 181/181/181 182/182/182 180/180/180
