g ship_wall_3
v -2.9973423 0.005949502 1.3308811
v -2.9973423 0.005949182 -0.4709835
v -2.9973423 5.031084 -0.47098434
v -2.9973423 5.031084 1.3308793
v 1.8272169 5.031084 -0.47098434
v 1.8272169 5.031084 1.3308803
v -2.9973423 5.031084 1.3308793
v -2.9973423 5.031084 -0.47098434
v -2.9973423 0.005949502 1.3308811
v 1.8272169 0.005949502 1.3308802
v 1.8272169 0.005949182 -0.4709835
v -2.9973423 0.005949182 -0.4709835
v -2.9973423 0.005949502 1.3308811
v 1.8272169 0.1947136 1.3308802
v 1.8272169 0.005949502 1.3308802
v -2.8085787 0.1947136 1.3308811
v -2.9973423 5.031084 1.3308793
v -2.5784924 4.8423195 1.3308793
v 1.8272169 5.031084 1.3308803
v 1.6234956 4.8423195 1.3308803
v -2.9973423 0.005949182 -0.4709835
v 1.8272169 0.005949182 -0.4709835
v 1.8272169 5.031084 -0.47098434
v -2.9973423 5.031084 -0.47098434
v -2.5784924 4.84232 1.5313884
v -2.5784924 4.8423195 1.3308793
v 1.6234956 4.8423195 1.3308803
v 1.6234956 4.84232 1.5313894
v 1.8272169 0.19471364 1.5313892
v 1.8272169 0.1947136 1.3308802
v -2.8085787 0.1947136 1.3308811
v -2.8085787 0.19471364 1.5313902
v 1.6234956 4.84232 1.5313894
v 1.6234956 4.8423195 1.3308803
v 1.8272169 0.1947136 1.3308802
v 1.8272169 0.19471364 1.5313892
v -2.5784924 4.8423195 1.3308793
v -2.5784924 4.84232 1.5313884
v -2.8085787 0.19471364 1.5313902
v -2.8085787 0.1947136 1.3308811
v 1.8272169 0.005949502 1.3308802
v 1.8272169 5.031084 1.3308803
v 1.8272169 5.031084 -0.47098434
v 1.8272169 0.005949182 -0.4709835
v 1.8272169 0.19471364 1.5313892
v -2.8085787 0.19471364 1.5313902
v -2.5784924 4.84232 1.5313884
v 1.6234956 4.84232 1.5313894
vt 0.117541865 0.7381243
vt 0.117541865 0.7381243
vt 0.117541865 0.7381243
vt 0.117541865 0.7381243
vt 0.117541865 0.7381243
vt 0.117541865 0.7381243
vt 0.117541865 0.7381243
vt 0.117541865 0.7381243
vt 0.117541865 0.7381243
vt 0.117541865 0.7381243
vt 0.117541865 0.7381243
vt 0.117541865 0.7381243
vt 0.117541865 0.7381243
vt 0.117541865 0.7381243
vt 0.117541865 0.7381243
vt 0.117541865 0.7381243
vt 0.117541865 0.7381243
vt 0.117541865 0.7381243
vt 0.117541865 0.7381243
vt 0.117541865 0.7381243
vt 0.117541865 0.7381243
vt 0.117541865 0.7381243
vt 0.117541865 0.7381243
vt 0.117541865 0.7381243
vt 0.117541865 0.7381243
vt 0.117541865 0.7381243
vt 0.117541865 0.7381243
vt 0.117541865 0.7381243
vt 0.117541865 0.7381243
vt 0.117541865 0.7381243
vt 0.117541865 0.7381243
vt 0.117541865 0.7381243
vt 0.117541865 0.7381243
vt 0.117541865 0.7381243
vt 0.117541865 0.7381243
vt 0.117541865 0.7381243
vt 0.117541865 0.7381243
vt 0.117541865 0.7381243
vt 0.117541865 0.7381243
vt 0.117541865 0.7381243
vt 0.117541865 0.7381243
vt 0.117541865 0.7381243
vt 0.117541865 0.7381243
vt 0.117541865 0.7381243
vt 0.117541865 0.7381243
vt 0.117541865 0.7381243
vt 0.117541865 0.7381243
vt 0.117541865 0.7381243
vn -1 0 0
vn -1 0 0
vn -1 0 0
vn -1 0 0
vn -0 1 0
vn -0 1 0
vn -0 1 0
vn -0 1 0
vn -0 -1 0
vn -0 -1 0
vn -0 -1 0
vn -0 -1 0
vn -0 0 1
vn -0 0 1
vn -0 0 1
vn -0 0 1
vn -0 0 1
vn -0 0 1
vn -0 0 1
vn -0 0 1
vn -0 0 -1
vn -0 0 -1
vn -0 0 -1
vn -0 0 -1
vn -0 1 0
vn -0 1 0
vn -0 1 0
vn -0 1 0
vn -0 -1 0
vn -0 -1 0
vn -0 -1 0
vn -0 -1 0
vn 0.99904066 0.04379157 0
vn 0.99904066 0.04379157 0
vn 0.99904066 0.04379157 0
vn 0.99904066 0.04379157 0
vn -0.99877673 0.049445894 0
vn -0.99877673 0.049445894 0
vn -0.99877673 0.049445894 0
vn -0.99877673 0.049445894 0
vn 1 0 0
vn 1 0 0
vn 1 0 0
vn 1 0 0
vn -0 0 1
vn -0 0 1
vn -0 0 1
vn -0 0 1
g ship_wall_3_0
f 3/3/3 2/2/2 1/1/1
f 4/4/4 3/3/3 1/1/1
f 7/7/7 6/6/6 5/5/5
f 8/8/8 7/7/7 5/5/5
f 11/11/11 10/10/10 9/9/9
f 12/12/12 11/11/11 9/9/9
f 15/15/15 14/14/14 13/13/13
f 14/14/14 16/16/16 13/13/13
f 13/13/13 16/16/16 17/17/17
f 16/16/16 18/18/18 17/17/17
f 17/17/17 18/18/18 19/19/19
f 19/19/19 20/20/20 14/14/14
f 18/18/18 20/20/20 19/19/19
f 23/23/23 22/22/22 21/21/21
f 24/24/24 23/23/23 21/21/21
f 27/27/27 26/26/26 25/25/25
f 28/28/28 27/27/27 25/25/25
f 31/31/31 30/30/30 29/29/29
f 32/32/32 31/31/31 29/29/29
f 35/35/35 34/34/34 33/33/33
f 36/36/36 35/35/35 33/33/33
f 39/39/39 38/38/38 37/37/37
f 40/40/40 39/39/39 37/37/37
f 43/43/43 42/42/42 41/41/41
f 44/44/44 43/43/43 41/41/41
f 47/47/47 46/46/46 45/45/45
f 48/48/48 47/47/47 45/45/45
