g ThornOutside_x1
v 0.09384572 -0.17349191 0.5124437
v 0.19402269 0.06708738 0.38725415
v -0.03265445 -0.022552134 0.26206455
v -0.19308025 0.21796775 0.2620645
v -0.012690398 0.33828714 0.3872541
v -0.27329326 0.33822766 0.51244366
v 0.09384572 -0.17349191 0.5124437
v 0.19402269 0.06708741 0.63763326
v 0.19402269 0.06708738 0.38725415
v -0.012690398 0.33828714 0.3872541
v -0.012690408 0.33828717 0.6376332
v -0.27329326 0.33822766 0.51244366
v 0.09384572 -0.17349191 0.5124437
v -0.032654457 -0.022552062 0.76282287
v 0.19402269 0.06708741 0.63763326
v -0.012690408 0.33828717 0.6376332
v -0.19308034 0.21796778 0.7628228
v -0.27329326 0.33822766 0.51244366
v 0.09384572 -0.17349191 0.5124437
v -0.22473265 -0.12534778 0.63763326
v -0.032654457 -0.022552062 0.76282287
v -0.19308034 0.21796778 0.7628228
v -0.37347025 0.097648345 0.63763326
v -0.27329326 0.33822766 0.51244366
v 0.09384572 -0.17349191 0.5124437
v -0.22473261 -0.12534782 0.3872541
v -0.22473265 -0.12534778 0.63763326
v -0.37347025 0.097648345 0.63763326
v -0.3734702 0.09764832 0.38725403
v -0.27329326 0.33822766 0.51244366
v 0.09384572 -0.17349191 0.5124437
v -0.03265445 -0.022552134 0.26206455
v -0.22473261 -0.12534782 0.3872541
v -0.3734702 0.09764832 0.38725403
v -0.19308025 0.21796775 0.2620645
v -0.27329326 0.33822766 0.51244366
v 0.029464466 0.10078133 -1.6419364E-08
v 0.09716469 0.039799944 -6.484234E-09
v 0.09716469 0.03979977 0.99999994
v 0.029464472 0.100781165 0.99999994
v 0.09716469 0.039799944 -6.484234E-09
v 0.09169791 -0.051151488 8.333635E-09
v 0.09169791 -0.051151663 0.99999994
v 0.09716469 0.03979977 0.99999994
v 0.09169791 -0.051151488 8.333635E-09
v 0.017180743 -0.103584684 1.6876088E-08
v 0.017180748 -0.10358485 0.99999994
v 0.09169791 -0.051151663 0.99999994
v 0.017180743 -0.103584684 1.6876088E-08
v -0.07027388 -0.07801638 1.2710482E-08
v -0.07027388 -0.07801654 0.99999994
v 0.017180748 -0.10358485 0.99999994
v -0.07027388 -0.07801638 1.2710482E-08
v -0.10481084 0.006299975 -1.0263962E-09
v -0.10481084 0.0062998016 0.99999994
v -0.07027388 -0.07801654 0.99999994
v 0.029464472 0.100781165 0.99999994
v 0.09716469 0.03979977 0.99999994
v 0.09169791 -0.051151663 0.99999994
v 0.017180748 -0.10358485 0.99999994
v -0.06042311 0.08587227 0.99999994
v -0.07027388 -0.07801654 0.99999994
v -0.10481084 0.0062998016 0.99999994
v -0.10481084 0.006299975 -1.0263962E-09
v -0.06042311 0.08587244 -1.3990397E-08
v -0.06042311 0.08587227 0.99999994
v -0.10481084 0.0062998016 0.99999994
v -0.06042311 0.08587244 -1.3990397E-08
v 0.029464466 0.10078133 -1.6419364E-08
v 0.029464472 0.100781165 0.99999994
v -0.06042311 0.08587227 0.99999994
v 0.09169791 -0.051151488 8.333635E-09
v 0.09716469 0.039799944 -6.484234E-09
v 0.029464466 0.10078133 -1.6419364E-08
v 0.017180743 -0.103584684 1.6876088E-08
v -0.06042311 0.08587244 -1.3990397E-08
v -0.07027388 -0.07801638 1.2710482E-08
v -0.10481084 0.006299975 -1.0263962E-09
v 1.5351909 0.68385214 0.48923436
v 1.6758261 0.6856578 0.43495736
v 1.5647659 0.5857293 0.45514217
v 1.2385603 0.4866498 0.5591769
v 1.2265923 0.52635705 0.572973
v -0.03265445 -0.022552134 0.26206455
v 0.19402269 0.06708738 0.38725415
v -0.012690398 0.33828714 0.3872541
v -0.19308025 0.21796775 0.2620645
v 0.19402269 0.06708738 0.38725415
v 0.19402269 0.06708741 0.63763326
v -0.012690408 0.33828717 0.6376332
v -0.012690398 0.33828714 0.3872541
v 0.19402269 0.06708741 0.63763326
v -0.032654457 -0.022552062 0.76282287
v -0.19308034 0.21796778 0.7628228
v -0.012690408 0.33828717 0.6376332
v -0.032654457 -0.022552062 0.76282287
v -0.22473265 -0.12534778 0.63763326
v -0.37347025 0.097648345 0.63763326
v -0.19308034 0.21796778 0.7628228
v -0.22473265 -0.12534778 0.63763326
v -0.22473261 -0.12534782 0.3872541
v -0.3734702 0.09764832 0.38725403
v -0.37347025 0.097648345 0.63763326
v -0.22473261 -0.12534782 0.3872541
v -0.03265445 -0.022552134 0.26206455
v -0.19308025 0.21796775 0.2620645
v -0.3734702 0.09764832 0.38725403
v -3.6382225 -0.90566236 0.40511292
v -3.6058853 -1.0129493 0.44065803
v 1.581126 0.55045015 0.44065776
v 1.7767191 0.7264368 0.40511265
v 1.2125306 0.43849516 0.5582119
v -3.657971 -0.8401418 0.500699
v 1.5290403 0.72325796 0.50069875
v -3.6378388 -0.9069348 0.5953195
v 1.1803403 0.5452963 0.5953193
v -3.6056485 -1.0137357 0.55821216
v 1.6758261 0.6856578 0.43495736
v 1.7767191 0.7264368 0.40511265
v 1.581126 0.55045015 0.44065776
v 1.5647659 0.5857293 0.45514217
v 1.5351909 0.68385214 0.48923436
v 1.2125306 0.43849516 0.5582119
v 1.5290403 0.72325796 0.50069875
v 1.2385603 0.4866498 0.5591769
v 1.2265923 0.52635705 0.572973
v 1.1803403 0.5452963 0.5953193
vt 0.1924021 0.33512756
vt 0.1924021 0.33512756
vt 0.1924021 0.33512756
vt 0.1924021 0.33512756
vt 0.1924021 0.33512756
vt 0.1924021 0.33512756
vt 0.1924021 0.33512756
vt 0.1924021 0.33512756
vt 0.1924021 0.33512756
vt 0.1924021 0.33512756
vt 0.1924021 0.33512756
vt 0.1924021 0.33512756
vt 0.1924021 0.33512756
vt 0.1924021 0.33512756
vt 0.1924021 0.33512756
vt 0.1924021 0.33512756
vt 0.1924021 0.33512756
vt 0.1924021 0.33512756
vt 0.1924021 0.33512756
vt 0.1924021 0.33512756
vt 0.1924021 0.33512756
vt 0.1924021 0.33512756
vt 0.1924021 0.33512756
vt 0.1924021 0.33512756
vt 0.1924021 0.33512756
vt 0.1924021 0.33512756
vt 0.1924021 0.33512756
vt 0.1924021 0.33512756
vt 0.1924021 0.33512756
vt 0.1924021 0.33512756
vt 0.1924021 0.33512756
vt 0.1924021 0.33512756
vt 0.1924021 0.33512756
vt 0.1924021 0.33512756
vt 0.1924021 0.33512756
vt 0.1924021 0.33512756
vt 0.26622564 0.332325
vt 0.26622564 0.332325
vt 0.26622564 0.332325
vt 0.26622564 0.332325
vt 0.26622564 0.332325
vt 0.26622564 0.332325
vt 0.26622564 0.332325
vt 0.26622564 0.332325
vt 0.26622564 0.332325
vt 0.26622564 0.332325
vt 0.26622564 0.332325
vt 0.26622564 0.332325
vt 0.26622564 0.332325
vt 0.26622564 0.332325
vt 0.26622564 0.332325
vt 0.26622564 0.332325
vt 0.26622564 0.332325
vt 0.26622564 0.332325
vt 0.26622564 0.332325
vt 0.26622564 0.332325
vt 0.26622564 0.332325
vt 0.26622564 0.332325
vt 0.26622564 0.332325
vt 0.26622564 0.332325
vt 0.26622564 0.332325
vt 0.26622564 0.332325
vt 0.26622564 0.332325
vt 0.26622564 0.332325
vt 0.26622564 0.332325
vt 0.26622564 0.332325
vt 0.26622564 0.332325
vt 0.26622564 0.332325
vt 0.26622564 0.332325
vt 0.26622564 0.332325
vt 0.26622564 0.332325
vt 0.26622564 0.332325
vt 0.26622564 0.332325
vt 0.26622564 0.332325
vt 0.26622564 0.332325
vt 0.26622564 0.332325
vt 0.26622564 0.332325
vt 0.26622564 0.332325
vt 0.12263605 0.3266343
vt 0.12263605 0.3266343
vt 0.12263605 0.3266343
vt 0.12263605 0.3266343
vt 0.12263605 0.3266343
vt 0.1924021 0.33512756
vt 0.1924021 0.33512756
vt 0.1924021 0.33512756
vt 0.1924021 0.33512756
vt 0.1924021 0.33512756
vt 0.1924021 0.33512756
vt 0.1924021 0.33512756
vt 0.1924021 0.33512756
vt 0.1924021 0.33512756
vt 0.1924021 0.33512756
vt 0.1924021 0.33512756
vt 0.1924021 0.33512756
vt 0.1924021 0.33512756
vt 0.1924021 0.33512756
vt 0.1924021 0.33512756
vt 0.1924021 0.33512756
vt 0.1924021 0.33512756
vt 0.1924021 0.33512756
vt 0.1924021 0.33512756
vt 0.1924021 0.33512756
vt 0.1924021 0.33512756
vt 0.1924021 0.33512756
vt 0.1924021 0.33512756
vt 0.1924021 0.33512756
vt 0.27305633 0.33104813
vt 0.27305633 0.33104813
vt 0.27305633 0.33104813
vt 0.27305633 0.33104813
vt 0.27305633 0.33104813
vt 0.27305633 0.33104813
vt 0.27305633 0.33104813
vt 0.27305633 0.33104813
vt 0.27305633 0.33104813
vt 0.27305633 0.33104813
vt 0.3431862 0.33684605
vt 0.3431862 0.33684605
vt 0.3431862 0.33684605
vt 0.3431862 0.33684605
vt 0.3431862 0.33684605
vt 0.3431862 0.33684605
vt 0.3431862 0.33684605
vt 0.3431862 0.33684605
vt 0.3431862 0.33684605
vt 0.3431862 0.33684605
vn 0.5595428 -0.55384135 -0.61658055
vn 0.5595428 -0.55384135 -0.61658055
vn 0.5595428 -0.55384135 -0.61658055
vn -0.23096229 0.8461012 -0.4803843
vn -0.23096229 0.8461012 -0.4803843
vn -0.23096229 0.8461012 -0.4803843
vn 0.92316467 -0.38440478 0
vn 0.92316467 -0.38440478 0
vn 0.92316467 -0.38440478 0
vn -0.00022831808 1 0
vn -0.00022831808 1 0
vn -0.00022831808 1 0
vn 0.5595429 -0.5538412 0.61658067
vn 0.5595429 -0.5538412 0.61658067
vn 0.5595429 -0.5538412 0.61658067
vn -0.23096238 0.8461012 0.4803843
vn -0.23096238 0.8461012 0.4803843
vn -0.23096238 0.8461012 0.4803843
vn 0.08909243 -0.83246875 0.5468623
vn 0.08909243 -0.83246875 0.5468623
vn 0.08909243 -0.83246875 0.5468623
vn -0.6924306 0.5383036 0.4803842
vn -0.6924306 0.5383036 0.4803842
vn -0.6924306 0.5383036 0.4803842
vn -0.14942512 -0.98877305 0
vn -0.14942512 -0.98877305 0
vn -0.14942512 -0.98877305 0
vn -0.92316467 0.38440484 0
vn -0.92316467 0.38440484 0
vn -0.92316467 0.38440484 0
vn 0.08909274 -0.8324687 -0.54686236
vn 0.08909274 -0.8324687 -0.54686236
vn 0.08909274 -0.8324687 -0.54686236
vn -0.6924305 0.5383036 -0.48038444
vn -0.6924305 0.5383036 -0.48038444
vn -0.6924305 0.5383036 -0.48038444
vn 0.6692751 0.74301475 0
vn 0.6692751 0.74301475 0
vn 0.6692751 0.74301475 0
vn 0.6692751 0.74301475 0
vn 0.99819857 -0.059998333 0
vn 0.99819857 -0.059998333 0
vn 0.99819857 -0.059998333 0
vn 0.99819857 -0.059998333 0
vn 0.57545805 -0.81783134 0
vn 0.57545805 -0.81783134 0
vn 0.57545805 -0.81783134 0
vn 0.57545805 -0.81783134 0
vn -0.280614 -0.9598207 0
vn -0.280614 -0.9598207 0
vn -0.280614 -0.9598207 0
vn -0.280614 -0.9598207 0
vn -0.925378 -0.37904564 0
vn -0.925378 -0.37904564 0
vn -0.925378 -0.37904564 0
vn -0.925378 -0.37904564 0
vn -0 0 1
vn -0 0 1
vn -0 0 1
vn -0 0 1
vn -0 0 1
vn -0 0 1
vn -0 0 1
vn -0.87331355 0.4871586 0
vn -0.87331355 0.4871586 0
vn -0.87331355 0.4871586 0
vn -0.87331355 0.4871586 0
vn -0.16362612 0.9865224 0
vn -0.16362612 0.9865224 0
vn -0.16362612 0.9865224 0
vn -0.16362612 0.9865224 0
vn -0 0 -1
vn -0 0 -1
vn -0 0 -1
vn -0 0 -1
vn -0 0 -1
vn -0 0 -1
vn -0 0 -1
vn 0.35435623 -0.2098182 0.91126716
vn 0.35435855 -0.20978905 0.9112731
vn 0.35435855 -0.20978905 0.9112731
vn 0.35435855 -0.20978905 0.9112731
vn 0.35435855 -0.20978905 0.9112731
vn 0.39295146 0.2819271 -0.87527496
vn 0.39295146 0.2819271 -0.87527496
vn 0.39295146 0.2819271 -0.87527496
vn 0.39295146 0.2819271 -0.87527496
vn 0.795312 0.6062004 0
vn 0.795312 0.6062004 0
vn 0.795312 0.6062004 0
vn 0.795312 0.6062004 0
vn 0.39295134 0.2819274 0.87527484
vn 0.39295134 0.2819274 0.87527484
vn 0.39295134 0.2819274 0.87527484
vn 0.39295134 0.2819274 0.87527484
vn -0.41596192 -0.27744496 0.8660253
vn -0.41596192 -0.27744496 0.8660253
vn -0.41596192 -0.27744496 0.8660253
vn -0.41596192 -0.27744496 0.8660253
vn -0.8319237 -0.55489004 0
vn -0.8319237 -0.55489004 0
vn -0.8319237 -0.55489004 0
vn -0.8319237 -0.55489004 0
vn -0.41596168 -0.27744508 -0.8660255
vn -0.41596168 -0.27744508 -0.8660255
vn -0.41596168 -0.27744508 -0.8660255
vn -0.41596168 -0.27744508 -0.8660255
vn -0.643519 0.07083409 -0.7621455
vn -0.38377678 -0.7909006 -0.47664618
vn 0.6155118 -0.78623635 -0.05456838
vn 0.9239959 0.3395859 -0.17582047
vn 0.31761092 -0.7256191 0.61041
vn -0.8021395 0.5971107 0.0055850367
vn 0.12256624 0.8492046 0.51364285
vn -0.64044714 0.0606113 0.76560676
vn 0.014466114 0.28010547 0.9598602
vn -0.3818852 -0.7972193 0.4675522
vn 0.35435855 -0.20978905 0.9112731
vn 0.9239959 0.3395859 -0.17582047
vn 0.6155118 -0.78623635 -0.05456838
vn 0.35435855 -0.20978905 0.9112731
vn 0.35435623 -0.2098182 0.91126716
vn 0.31761092 -0.7256191 0.61041
vn 0.12256624 0.8492046 0.51364285
vn 0.35435855 -0.20978905 0.9112731
vn 0.35435855 -0.20978905 0.9112731
vn 0.014466114 0.28010547 0.9598602
g ThornOutside_x1_0
f 3/3/3 2/2/2 1/1/1
f 6/6/6 5/5/5 4/4/4
f 9/9/9 8/8/8 7/7/7
f 12/12/12 11/11/11 10/10/10
f 15/15/15 14/14/14 13/13/13
f 18/18/18 17/17/17 16/16/16
f 21/21/21 20/20/20 19/19/19
f 24/24/24 23/23/23 22/22/22
f 27/27/27 26/26/26 25/25/25
f 30/30/30 29/29/29 28/28/28
f 33/33/33 32/32/32 31/31/31
f 36/36/36 35/35/35 34/34/34
f 39/39/39 38/38/38 37/37/37
f 40/40/40 39/39/39 37/37/37
f 43/43/43 42/42/42 41/41/41
f 44/44/44 43/43/43 41/41/41
f 47/47/47 46/46/46 45/45/45
f 48/48/48 47/47/47 45/45/45
f 51/51/51 50/50/50 49/49/49
f 52/52/52 51/51/51 49/49/49
f 55/55/55 54/54/54 53/53/53
f 56/56/56 55/55/55 53/53/53
f 59/59/59 58/58/58 57/57/57
f 57/57/57 60/60/60 59/59/59
f 57/57/57 61/61/61 60/60/60
f 61/61/61 62/62/62 60/60/60
f 61/61/61 63/63/63 62/62/62
f 66/66/66 65/65/65 64/64/64
f 67/67/67 66/66/66 64/64/64
f 70/70/70 69/69/69 68/68/68
f 71/71/71 70/70/70 68/68/68
f 74/74/74 73/73/73 72/72/72
f 72/72/72 75/75/75 74/74/74
f 75/75/75 76/76/76 74/74/74
f 75/75/75 77/77/77 76/76/76
f 77/77/77 78/78/78 76/76/76
f 81/81/81 80/80/80 79/79/79
f 79/79/79 82/82/82 81/81/81
f 79/79/79 83/83/83 82/82/82
f 86/86/86 85/85/85 84/84/84
f 87/87/87 86/86/86 84/84/84
f 90/90/90 89/89/89 88/88/88
f 91/91/91 90/90/90 88/88/88
f 94/94/94 93/93/93 92/92/92
f 95/95/95 94/94/94 92/92/92
f 98/98/98 97/97/97 96/96/96
f 99/99/99 98/98/98 96/96/96
f 102/102/102 101/101/101 100/100/100
f 103/103/103 102/102/102 100/100/100
f 106/106/106 105/105/105 104/104/104
f 107/107/107 106/106/106 104/104/104
f 110/110/110 109/109/109 108/108/108
f 111/111/111 110/110/110 108/108/108
f 110/110/110 112/112/112 109/109/109
f 111/111/111 108/108/108 113/113/113
f 114/114/114 111/111/111 113/113/113
f 115/115/115 113/113/113 108/108/108
f 114/114/114 113/113/113 115/115/115
f 115/115/115 108/108/108 109/109/109
f 116/116/116 114/114/114 115/115/115
f 112/112/112 117/117/117 109/109/109
f 109/109/109 117/117/117 115/115/115
f 116/116/116 115/115/115 117/117/117
f 112/112/112 116/116/116 117/117/117
f 120/120/120 119/119/119 118/118/118
f 121/121/121 120/120/120 118/118/118
f 118/118/118 119/119/119 122/122/122
f 123/123/123 120/120/120 121/121/121
f 119/119/119 124/124/124 122/122/122
f 125/125/125 123/123/123 121/121/121
f 122/122/122 124/124/124 126/126/126
f 127/127/127 123/123/123 125/125/125
f 124/124/124 127/127/127 126/126/126
f 126/126/126 127/127/127 125/125/125
