g ThornOutside_x8
v 0.029464465 0.10078068 -3.9999993
v 0.097164676 0.039799288 -3.9999993
v 0.097164676 0.039800253 3.9999993
v 0.02946447 0.10078164 3.9999993
v 0.097164676 0.039799288 -3.9999993
v 0.0916979 -0.051152136 -3.9999993
v 0.0916979 -0.05115117 3.9999993
v 0.097164676 0.039800253 3.9999993
v 0.0916979 -0.051152136 -3.9999993
v 0.01718074 -0.103585325 -3.9999993
v 0.017180746 -0.10358436 3.9999993
v 0.0916979 -0.05115117 3.9999993
v 0.01718074 -0.103585325 -3.9999993
v -0.070273876 -0.07801702 -3.9999993
v -0.070273876 -0.07801605 3.9999993
v 0.017180746 -0.10358436 3.9999993
v -0.070273876 -0.07801702 -3.9999993
v -0.10481083 0.006299323 -3.9999993
v -0.10481083 0.0063002896 3.9999993
v -0.070273876 -0.07801605 3.9999993
v 0.02946447 0.10078164 3.9999993
v 0.097164676 0.039800253 3.9999993
v 0.0916979 -0.05115117 3.9999993
v 0.017180746 -0.10358436 3.9999993
v -0.060423106 0.08587275 3.9999993
v -0.070273876 -0.07801605 3.9999993
v -0.10481083 0.0063002896 3.9999993
v -0.10481083 0.006299323 -3.9999993
v -0.060423106 0.085871786 -3.9999993
v -0.060423106 0.08587275 3.9999993
v -0.10481083 0.0063002896 3.9999993
v -0.060423106 0.085871786 -3.9999993
v 0.029464465 0.10078068 -3.9999993
v 0.02946447 0.10078164 3.9999993
v -0.060423106 0.08587275 3.9999993
v 0.0916979 -0.051152136 -3.9999993
v 0.097164676 0.039799288 -3.9999993
v 0.029464465 0.10078068 -3.9999993
v 0.01718074 -0.103585325 -3.9999993
v -0.060423106 0.085871786 -3.9999993
v -0.070273876 -0.07801702 -3.9999993
v -0.10481083 0.006299323 -3.9999993
v 0.88210607 0.90386206 0.5361997
v 1.0177279 0.9465428 0.48607397
v 0.9399955 0.81860405 0.50387424
v 0.65371114 0.62882656 0.5991409
v 0.6302851 0.6633279 0.61222196
v 1.1065562 0.6025881 -2.4911435
v 1.2554051 0.5812551 -2.480355
v 1.1292232 0.5216293 -2.4233427
v 0.7756516 0.49743056 -2.3852448
v 0.76647884 0.530192 -2.4126816
v 0.5951766 0.7202037 -3.528654
v 0.6109403 0.69656956 -3.5618682
v 0.9478784 0.8058037 -3.521986
v 0.90892357 0.8642071 -3.4399087
v 1.0574 0.88520545 -3.4554434
v 0.9432732 0.808422 3.5746794
v 1.0241004 0.92809904 3.6179447
v 0.8833654 0.8982713 3.5728736
v 0.6460385 0.6466344 3.4627602
v 0.62179554 0.68299353 3.4620292
v -3.3371081 -1.1671236 1.5718666
v -3.3790245 -1.0585359 1.5883396
v 0.42277774 0.40902275 1.5883406
v 0.53460926 0.32742342 1.5718676
v 0.3500213 0.43628666 1.4827309
v -3.329797 -1.1860633 1.4560758
v 0.5309663 0.30425525 1.4560769
v -3.3671951 -1.0891811 1.4009863
v 0.4168851 0.37153667 1.4009871
v -3.3976195 -1.0103649 1.4827298
v -3.5995102 -2.1232781 0.31400636
v -3.5384557 -2.2164989 0.35144868
v 0.9663533 0.78961796 0.4901948
v 1.1032518 1.014935 0.45884922
v 0.6428671 0.575179 0.5978414
v -3.640407 -2.0663478 0.40837812
v 0.8644022 0.9397689 0.54712415
v -3.6046286 -2.1243837 0.5041455
v 0.57985806 0.6679776 0.6330257
v -3.5416193 -2.2171822 0.46896115
v -4.0002303 -1.1634884 -2.8066387
v -3.9965885 -1.1944122 -2.6932807
v 1.1434277 0.49159575 -2.3984773
v 0.7439102 0.46425256 -2.3554285
v 1.365651 0.5966069 -2.4988813
v -4.030616 -1.1018685 -2.6292691
v 0.71923816 0.55237156 -2.4292257
v -4.0365076 -1.051833 -2.8126867
v 1.1035079 0.6341751 -2.5178833
v -4.0552874 -1.0137495 -2.703066
v -2.7058215 -1.6018986 -1.007737
v -2.769599 -1.5180693 -1.0599363
v 0.76566863 0.86299527 -1.5554917
v 0.7207936 0.8116918 -1.664865
v 0.88870114 0.8190756 -1.5115985
v -2.7709675 -1.5400702 -1.1754081
v 0.81608987 0.7360636 -1.688568
v -2.708036 -1.637497 -1.1945744
v 0.9198624 0.7406269 -1.5938438
v -2.6677737 -1.6757084 -1.090948
v -3.544175 -2.2127602 -3.434999
v -3.6076143 -2.1176472 -3.407638
v 0.8993311 0.88846976 -3.4076385
v 1.1608174 0.9254534 -3.4349995
v 0.5448132 0.72575355 -3.5079165
v -3.5390103 -2.2205033 -3.552187
v 0.9679356 0.78561366 -3.5521872
v -3.599258 -2.1301765 -3.5972524
v 0.58721316 0.66218513 -3.5972526
v -3.6416578 -2.0666077 -3.5079162
v -3.5874927 -2.1501844 3.4456992
v -3.6374931 -2.0706193 3.3750668
v 0.8650601 0.935497 3.5739775
v 0.5694997 0.6922444 3.448729
v 1.1129147 0.9880283 3.6533506
v -3.6128914 -2.1001165 3.2639618
v 0.6347058 0.59444875 3.4506948
v -3.5476854 -2.1979122 3.265928
v 0.97056586 0.77726084 3.5771585
v -3.531988 -2.228856 3.3782477
v 0.4168851 0.37153667 1.4009871
v 1.3274517 0.7230305 1.4009875
v 1.2970272 0.80184674 1.4827311
v 0.3500213 0.43628666 1.4827309
v 0.5309663 0.30425525 1.4560769
v 1.6749978 0.8924003 1.588341
v 0.42277774 0.40902275 1.5883406
v 1.7242255 0.76487297 1.4560771
v 0.53460926 0.32742342 1.5718676
v 1.939001 0.86954165 1.571868
v 1.680122 0.8639004 1.5586162
v 1.3456194 0.7837606 1.465152
v 1.8300272 0.8509197 1.5492638
v 1.7080743 0.79148847 1.4835148
v 1.3569309 0.7544577 1.4347608
v 1.0177279 0.9465428 0.48607397
v 1.1032518 1.014935 0.45884922
v 0.9663533 0.78961796 0.4901948
v 0.9399955 0.81860405 0.50387424
v 0.88210607 0.90386206 0.5361997
v 0.6428671 0.575179 0.5978414
v 0.8644022 0.9397689 0.54712415
v 0.65371114 0.62882656 0.5991409
v 0.6302851 0.6633279 0.61222196
v 0.57985806 0.6679776 0.6330257
v 1.2554051 0.5812551 -2.480355
v 1.365651 0.5966069 -2.4988813
v 1.1434277 0.49159575 -2.3984773
v 1.1292232 0.5216293 -2.4233427
v 1.1065562 0.6025881 -2.4911435
v 0.7439102 0.46425256 -2.3554285
v 1.1035079 0.6341751 -2.5178833
v 0.7756516 0.49743056 -2.3852448
v 0.76647884 0.530192 -2.4126816
v 0.71923816 0.55237156 -2.4292257
v 0.81608987 0.7360636 -1.688568
v 1.7552736 1.3686206 -1.8202177
v 1.8884712 1.5981433 -1.8285439
v 0.7207936 0.8116918 -1.664865
v 0.9198624 0.7406269 -1.5938438
v 1.6937103 1.4880476 -1.6855797
v 0.76566863 0.86299527 -1.5554917
v 1.4781642 1.1166528 -1.6721039
v 0.88870114 0.8190756 -1.5115985
v 1.4401157 1.190463 -1.5888929
v 1.8138238 1.5208442 -1.7941104
v 1.703237 1.4583293 -1.7129318
v 1.7381938 1.3905169 -1.7893815
v 1.4788065 1.1949682 -1.6273644
v 1.4929523 1.1675264 -1.6583012
v 1.0574 0.88520545 -3.4554434
v 1.1608174 0.9254534 -3.4349995
v 0.8993311 0.88846976 -3.4076385
v 0.90892357 0.8642071 -3.4399087
v 0.9478784 0.8058037 -3.521986
v 0.5448132 0.72575355 -3.5079165
v 0.9679356 0.78561366 -3.5521872
v 0.5951766 0.7202037 -3.528654
v 0.6109403 0.69656956 -3.5618682
v 0.58721316 0.66218513 -3.5972526
v 1.0241004 0.92809904 3.6179447
v 1.1129147 0.9880283 3.6533506
v 0.8650601 0.935497 3.5739775
v 0.8833654 0.8982713 3.5728736
v 0.9432732 0.808422 3.5746794
v 0.5694997 0.6922444 3.448729
v 0.97056586 0.77726084 3.5771585
v 0.62179554 0.68299353 3.4620292
v 0.6460385 0.6466344 3.4627602
v 0.6347058 0.59444875 3.4506948
vt 0.26622564 0.332325
vt 0.26622564 0.332325
vt 0.26622564 0.332325
vt 0.26622564 0.332325
vt 0.26622564 0.332325
vt 0.26622564 0.332325
vt 0.26622564 0.332325
vt 0.26622564 0.332325
vt 0.26622564 0.332325
vt 0.26622564 0.332325
vt 0.26622564 0.332325
vt 0.26622564 0.332325
vt 0.26622564 0.332325
vt 0.26622564 0.332325
vt 0.26622564 0.332325
vt 0.26622564 0.332325
vt 0.26622564 0.332325
vt 0.26622564 0.332325
vt 0.26622564 0.332325
vt 0.26622564 0.332325
vt 0.26622564 0.332325
vt 0.26622564 0.332325
vt 0.26622564 0.332325
vt 0.26622564 0.332325
vt 0.26622564 0.332325
vt 0.26622564 0.332325
vt 0.26622564 0.332325
vt 0.26622564 0.332325
vt 0.26622564 0.332325
vt 0.26622564 0.332325
vt 0.26622564 0.332325
vt 0.26622564 0.332325
vt 0.26622564 0.332325
vt 0.26622564 0.332325
vt 0.26622564 0.332325
vt 0.26622564 0.332325
vt 0.26622564 0.332325
vt 0.26622564 0.332325
vt 0.26622564 0.332325
vt 0.26622564 0.332325
vt 0.26622564 0.332325
vt 0.26622564 0.332325
vt 0.12263605 0.3266343
vt 0.12263605 0.3266343
vt 0.12263605 0.3266343
vt 0.12263605 0.3266343
vt 0.12263605 0.3266343
vt 0.12263605 0.3266343
vt 0.12263605 0.3266343
vt 0.12263605 0.3266343
vt 0.12263605 0.3266343
vt 0.12263605 0.3266343
vt 0.12263605 0.3266343
vt 0.12263605 0.3266343
vt 0.12263605 0.3266343
vt 0.12263605 0.3266343
vt 0.12263605 0.3266343
vt 0.12263605 0.3266343
vt 0.12263605 0.3266343
vt 0.12263605 0.3266343
vt 0.12263605 0.3266343
vt 0.12263605 0.3266343
vt 0.27305633 0.33104813
vt 0.27305633 0.33104813
vt 0.27305633 0.33104813
vt 0.27305633 0.33104813
vt 0.27305633 0.33104813
vt 0.27305633 0.33104813
vt 0.27305633 0.33104813
vt 0.27305633 0.33104813
vt 0.27305633 0.33104813
vt 0.27305633 0.33104813
vt 0.27305633 0.33104813
vt 0.27305633 0.33104813
vt 0.27305633 0.33104813
vt 0.27305633 0.33104813
vt 0.27305633 0.33104813
vt 0.27305633 0.33104813
vt 0.27305633 0.33104813
vt 0.27305633 0.33104813
vt 0.27305633 0.33104813
vt 0.27305633 0.33104813
vt 0.27305633 0.33104813
vt 0.27305633 0.33104813
vt 0.27305633 0.33104813
vt 0.27305633 0.33104813
vt 0.27305633 0.33104813
vt 0.27305633 0.33104813
vt 0.27305633 0.33104813
vt 0.27305633 0.33104813
vt 0.27305633 0.33104813
vt 0.27305633 0.33104813
vt 0.27305633 0.33104813
vt 0.27305633 0.33104813
vt 0.27305633 0.3310481
vt 0.27305633 0.33104813
vt 0.27305633 0.33104813
vt 0.27305633 0.33104813
vt 0.27305633 0.33104813
vt 0.27305633 0.33104813
vt 0.27305633 0.33104813
vt 0.27305633 0.33104813
vt 0.27305633 0.33104813
vt 0.27305633 0.33104813
vt 0.27305633 0.33104813
vt 0.27305633 0.33104813
vt 0.27305633 0.33104813
vt 0.27305633 0.33104813
vt 0.27305633 0.33104813
vt 0.27305633 0.33104813
vt 0.27305633 0.33104813
vt 0.27305633 0.33104813
vt 0.27305633 0.33104813
vt 0.27305633 0.33104813
vt 0.27305633 0.33104813
vt 0.27305633 0.33104813
vt 0.27305633 0.33104813
vt 0.27305633 0.33104813
vt 0.27305633 0.33104813
vt 0.27305633 0.33104813
vt 0.27305633 0.33104813
vt 0.27305633 0.33104813
vt 0.04343085 0.26037747
vt 0.04343085 0.26037747
vt 0.04343085 0.26037747
vt 0.04343085 0.26037747
vt 0.04343085 0.26037747
vt 0.04343085 0.26037747
vt 0.04343085 0.26037747
vt 0.04343085 0.26037747
vt 0.04343085 0.26037747
vt 0.04343085 0.26037747
vt 0.04343085 0.26037747
vt 0.04343085 0.26037747
vt 0.04343085 0.26037747
vt 0.04343085 0.26037747
vt 0.04343085 0.26037747
vt 0.3431862 0.33684605
vt 0.3431862 0.33684605
vt 0.3431862 0.33684605
vt 0.3431862 0.33684605
vt 0.3431862 0.33684605
vt 0.3431862 0.33684605
vt 0.3431862 0.33684605
vt 0.3431862 0.33684605
vt 0.3431862 0.33684605
vt 0.3431862 0.33684605
vt 0.3431862 0.33684605
vt 0.3431862 0.33684605
vt 0.3431862 0.33684605
vt 0.3431862 0.33684605
vt 0.3431862 0.33684605
vt 0.3431862 0.33684605
vt 0.3431862 0.33684605
vt 0.3431862 0.33684605
vt 0.3431862 0.33684605
vt 0.3431862 0.33684605
vt 0.033587724 0.25299513
vt 0.033587724 0.25299513
vt 0.033587724 0.25299513
vt 0.033587724 0.25299513
vt 0.033587724 0.25299513
vt 0.033587724 0.25299513
vt 0.033587724 0.25299513
vt 0.033587724 0.25299513
vt 0.033587724 0.25299513
vt 0.033587724 0.25299513
vt 0.033587724 0.25299513
vt 0.033587724 0.25299513
vt 0.033587724 0.25299513
vt 0.033587724 0.25299513
vt 0.033587724 0.25299513
vt 0.3431862 0.33684605
vt 0.3431862 0.33684605
vt 0.3431862 0.33684605
vt 0.3431862 0.33684605
vt 0.3431862 0.33684605
vt 0.3431862 0.33684605
vt 0.3431862 0.33684605
vt 0.3431862 0.33684605
vt 0.3431862 0.33684605
vt 0.3431862 0.33684605
vt 0.3431862 0.33684605
vt 0.3431862 0.33684605
vt 0.3431862 0.33684605
vt 0.3431862 0.33684605
vt 0.3431862 0.33684605
vt 0.3431862 0.33684605
vt 0.3431862 0.33684605
vt 0.3431862 0.33684605
vt 0.3431862 0.33684605
vt 0.3431862 0.33684605
vn 0.66927505 0.74301463 0
vn 0.66927505 0.74301463 0
vn 0.66927505 0.74301463 0
vn 0.66927505 0.74301463 0
vn 0.99819857 -0.059998255 0
vn 0.99819857 -0.059998255 0
vn 0.99819857 -0.059998255 0
vn 0.99819857 -0.059998255 0
vn 0.5754581 -0.8178313 0
vn 0.5754581 -0.8178313 0
vn 0.5754581 -0.8178313 0
vn 0.5754581 -0.8178313 0
vn -0.28061402 -0.9598207 0
vn -0.28061402 -0.9598207 0
vn -0.28061402 -0.9598207 0
vn -0.28061402 -0.9598207 0
vn -0.925378 -0.37904552 0
vn -0.925378 -0.37904552 0
vn -0.925378 -0.37904552 0
vn -0.925378 -0.37904552 0
vn -0 0 1
vn -0 0 1
vn -0 0 1
vn -0 0 1
vn -0 0 1
vn -0 0 1
vn -0 0 1
vn -0.87331355 0.4871585 0
vn -0.87331355 0.4871585 0
vn -0.87331355 0.4871585 0
vn -0.87331355 0.4871585 0
vn -0.16362616 0.9865224 0
vn -0.16362616 0.9865224 0
vn -0.16362616 0.9865224 0
vn -0.16362616 0.9865224 0
vn -0 0 -1
vn -0 0 -1
vn -0 0 -1
vn -0 0 -1
vn -0 0 -1
vn -0 0 -1
vn -0 0 -1
vn 0.37185082 -0.09751012 0.9231569
vn 0.37185082 -0.09751012 0.9231569
vn 0.37184033 -0.09750737 0.9231614
vn 0.37185082 -0.09751012 0.9231569
vn 0.37185082 -0.09751012 0.9231569
vn 0.037660684 0.6477699 0.7609046
vn 0.037660684 0.6477699 0.7609046
vn 0.037660684 0.6477699 0.7609046
vn 0.03763021 0.6477707 0.7609055
vn 0.03763021 0.6477707 0.7609055
vn -0.17307435 0.7618202 -0.6242397
vn -0.17307435 0.7618202 -0.6242397
vn -0.17307435 0.7618202 -0.6242397
vn -0.17307435 0.7618202 -0.6242397
vn -0.17307435 0.7618202 -0.6242397
vn 0.2698813 0.16086674 -0.9493609
vn 0.2699096 0.16086538 -0.949353
vn 0.2699096 0.16086538 -0.949353
vn 0.2698813 0.16086674 -0.9493609
vn 0.2698813 0.16086674 -0.9493609
vn -0.3545994 -0.73556715 0.5772349
vn -0.6912785 0.13660158 0.70955914
vn -0.1687392 0.43718377 0.8834011
vn 0.25041264 -0.64869237 0.71867365
vn -0.3546928 0.9188991 -0.172677
vn -0.29585657 -0.88769174 -0.35280603
vn 0.3235083 -0.8381001 -0.43923882
vn -0.5962503 -0.10950228 -0.7952954
vn -0.050448302 0.13071391 -0.9901357
vn -0.84063613 0.5235359 -0.1387123
vn -0.6124872 -0.11960423 -0.7813797
vn -0.12207669 -0.8683926 -0.48061594
vn 0.8190738 -0.5729366 -0.029359452
vn 0.79011 0.5939329 -0.15155804
vn 0.49611735 -0.60168266 0.6259758
vn -0.9409892 0.33763057 -0.023346957
vn -0.14575967 0.84809786 0.5093959
vn -0.6535973 -0.12848546 0.7458566
vn -0.09723313 0.27219784 0.95731604
vn -0.14749667 -0.8738712 0.4632427
vn -0.37548473 -0.65461856 -0.65611404
vn -0.3462398 -0.90300065 0.25437713
vn 0.47561765 -0.42056024 0.772604
vn 0.0105901295 0.0979358 0.99513644
vn 0.9761162 0.19754878 -0.09039695
vn -0.61957043 -0.15964599 0.7685347
vn -0.22172214 0.9277538 0.30018702
vn -0.6668853 0.24220411 -0.7046992
vn 0.09781482 0.9287983 -0.35744375
vn -0.81773376 0.5480959 0.17579108
vn -0.34123152 -0.38877994 0.8558103
vn -0.85350305 0.28453153 0.43654823
vn -0.45159426 0.7657906 0.45785075
vn -0.46527052 0.5457811 -0.6968834
vn 0.18616553 -0.07248248 0.9798411
vn -0.86449647 0.10782553 -0.4909373
vn 0.16404213 -0.42846277 -0.8885437
vn -0.35899344 -0.6747111 -0.6448942
vn 0.5666592 -0.8106032 0.14771533
vn -0.035616215 -0.9816281 0.18745056
vn -0.1568656 -0.8383459 0.5220816
vn -0.66641694 -0.074375264 0.7418604
vn -0.12512974 0.84074986 0.52676576
vn 0.8956637 0.4281167 0.12042689
vn -0.46975142 0.8749853 -0.1171937
vn -0.11536397 -0.90054095 -0.4191863
vn 0.5241394 -0.13266765 -0.8412355
vn -0.5993005 -0.1749956 -0.78116286
vn -0.07046773 0.276347 -0.958471
vn -0.9398715 0.3355594 -0.06357164
vn -0.5270706 -0.33574426 0.7806871
vn -0.9286928 0.30332825 0.21335825
vn -0.18839577 0.9514398 -0.24345262
vn -0.19535528 0.5183736 -0.8325413
vn 0.8093329 0.5440925 0.22123212
vn -0.7310834 0.06640941 -0.6790485
vn 0.41866612 -0.40255186 -0.8140459
vn -0.20731613 -0.7190906 -0.66327125
vn 0.81009734 -0.54610765 -0.21332806
vn -0.08124187 -0.9676388 0.23890357
vn -0.050448302 0.13071391 -0.9901357
vn 0.024384832 0.19974808 -0.97954386
vn -0.26209736 0.94196963 -0.20975725
vn -0.3546928 0.9188991 -0.172677
vn 0.3235083 -0.8381001 -0.43923882
vn 0.04455836 0.89089257 0.4520232
vn -0.1687392 0.43718377 0.8834011
vn 0.5104674 -0.31599784 -0.79973024
vn 0.25041264 -0.64869237 0.71867365
vn 0.96315867 0.23365577 0.13315572
vn 0.019532243 0.7233644 -0.69019014
vn 0.019532243 0.7233644 -0.69019014
vn 0.019532243 0.7233644 -0.69019014
vn 0.019532243 0.7233644 -0.69019014
vn 0.019532243 0.7233644 -0.69019014
vn 0.37185082 -0.09751012 0.9231569
vn 0.79011 0.5939329 -0.15155804
vn 0.8190738 -0.5729366 -0.029359452
vn 0.37184033 -0.09750737 0.9231614
vn 0.37185082 -0.09751012 0.9231569
vn 0.49611735 -0.60168266 0.6259758
vn -0.14575967 0.84809786 0.5093959
vn 0.37185082 -0.09751012 0.9231569
vn 0.37185082 -0.09751012 0.9231569
vn -0.09723313 0.27219784 0.95731604
vn 0.037660684 0.6477699 0.7609046
vn 0.9761162 0.19754878 -0.09039695
vn 0.47561765 -0.42056024 0.772604
vn 0.037660684 0.6477699 0.7609046
vn 0.037660684 0.6477699 0.7609046
vn 0.0105901295 0.0979358 0.99513644
vn 0.09781482 0.9287983 -0.35744375
vn 0.03763021 0.6477707 0.7609055
vn 0.03763021 0.6477707 0.7609055
vn -0.22172214 0.9277538 0.30018702
vn 0.16404213 -0.42846277 -0.8885437
vn 0.70246917 -0.4960347 -0.5103789
vn 0.7233825 0.6464146 -0.2426229
vn -0.46527052 0.5457811 -0.6968834
vn 0.5666592 -0.8106032 0.14771533
vn 0.119818665 0.6341905 0.7638363
vn -0.45159426 0.7657906 0.45785075
vn 0.64215744 -0.7465946 0.17386869
vn 0.18616553 -0.07248248 0.9798411
vn 0.2838597 -0.051516518 0.9574809
vn 0.67649394 -0.36946836 0.63706285
vn 0.6764864 -0.36949474 0.6370557
vn 0.67649394 -0.36946836 0.63706285
vn 0.6764864 -0.36949474 0.6370557
vn 0.6764864 -0.36949474 0.6370557
vn -0.17307435 0.7618202 -0.6242397
vn 0.8956637 0.4281167 0.12042689
vn -0.12512974 0.84074986 0.52676576
vn -0.17307435 0.7618202 -0.6242397
vn -0.17307435 0.7618202 -0.6242397
vn -0.46975142 0.8749853 -0.1171937
vn 0.5241394 -0.13266765 -0.8412355
vn -0.17307435 0.7618202 -0.6242397
vn -0.17307435 0.7618202 -0.6242397
vn -0.07046773 0.276347 -0.958471
vn 0.2699096 0.16086538 -0.949353
vn 0.8093329 0.5440925 0.22123212
vn -0.18839577 0.9514398 -0.24345262
vn 0.2699096 0.16086538 -0.949353
vn 0.2698813 0.16086674 -0.9493609
vn -0.19535528 0.5183736 -0.8325413
vn 0.81009734 -0.54610765 -0.21332806
vn 0.2698813 0.16086674 -0.9493609
vn 0.2698813 0.16086674 -0.9493609
vn 0.41866612 -0.40255186 -0.8140459
g ThornOutside_x8_0
f 3/3/3 2/2/2 1/1/1
f 4/4/4 3/3/3 1/1/1
f 7/7/7 6/6/6 5/5/5
f 8/8/8 7/7/7 5/5/5
f 11/11/11 10/10/10 9/9/9
f 12/12/12 11/11/11 9/9/9
f 15/15/15 14/14/14 13/13/13
f 16/16/16 15/15/15 13/13/13
f 19/19/19 18/18/18 17/17/17
f 20/20/20 19/19/19 17/17/17
f 23/23/23 22/22/22 21/21/21
f 21/21/21 24/24/24 23/23/23
f 21/21/21 25/25/25 24/24/24
f 25/25/25 26/26/26 24/24/24
f 25/25/25 27/27/27 26/26/26
f 30/30/30 29/29/29 28/28/28
f 31/31/31 30/30/30 28/28/28
f 34/34/34 33/33/33 32/32/32
f 35/35/35 34/34/34 32/32/32
f 38/38/38 37/37/37 36/36/36
f 36/36/36 39/39/39 38/38/38
f 39/39/39 40/40/40 38/38/38
f 39/39/39 41/41/41 40/40/40
f 41/41/41 42/42/42 40/40/40
f 45/45/45 44/44/44 43/43/43
f 43/43/43 46/46/46 45/45/45
f 43/43/43 47/47/47 46/46/46
f 50/50/50 49/49/49 48/48/48
f 48/48/48 51/51/51 50/50/50
f 48/48/48 52/52/52 51/51/51
f 55/55/55 54/54/54 53/53/53
f 53/53/53 56/56/56 55/55/55
f 56/56/56 57/57/57 55/55/55
f 60/60/60 59/59/59 58/58/58
f 58/58/58 61/61/61 60/60/60
f 61/61/61 62/62/62 60/60/60
f 65/65/65 64/64/64 63/63/63
f 66/66/66 65/65/65 63/63/63
f 65/65/65 67/67/67 64/64/64
f 66/66/66 63/63/63 68/68/68
f 69/69/69 66/66/66 68/68/68
f 70/70/70 68/68/68 63/63/63
f 69/69/69 68/68/68 70/70/70
f 63/63/63 64/64/64 70/70/70
f 71/71/71 69/69/69 70/70/70
f 67/67/67 72/72/72 64/64/64
f 64/64/64 72/72/72 70/70/70
f 71/71/71 70/70/70 72/72/72
f 67/67/67 71/71/71 72/72/72
f 75/75/75 74/74/74 73/73/73
f 76/76/76 75/75/75 73/73/73
f 75/75/75 77/77/77 74/74/74
f 76/76/76 73/73/73 78/78/78
f 79/79/79 76/76/76 78/78/78
f 80/80/80 78/78/78 73/73/73
f 79/79/79 78/78/78 80/80/80
f 80/80/80 73/73/73 74/74/74
f 81/81/81 79/79/79 80/80/80
f 77/77/77 82/82/82 74/74/74
f 74/74/74 82/82/82 80/80/80
f 81/81/81 80/80/80 82/82/82
f 77/77/77 81/81/81 82/82/82
f 85/85/85 84/84/84 83/83/83
f 85/85/85 86/86/86 84/84/84
f 87/87/87 85/85/85 83/83/83
f 86/86/86 88/88/88 84/84/84
f 83/83/83 84/84/84 88/88/88
f 86/86/86 89/89/89 88/88/88
f 87/87/87 83/83/83 90/90/90
f 88/88/88 90/90/90 83/83/83
f 91/91/91 87/87/87 90/90/90
f 89/89/89 92/92/92 88/88/88
f 88/88/88 92/92/92 90/90/90
f 91/91/91 90/90/90 92/92/92
f 89/89/89 91/91/91 92/92/92
f 95/95/95 94/94/94 93/93/93
f 95/95/95 96/96/96 94/94/94
f 97/97/97 95/95/95 93/93/93
f 96/96/96 98/98/98 94/94/94
f 93/93/93 94/94/94 98/98/98
f 96/96/96 99/99/99 98/98/98
f 99/99/99 100/100/100 98/98/98
f 93/93/93 98/98/98 100/100/100
f 99/99/99 101/101/101 100/100/100
f 97/97/97 93/93/93 102/102/102
f 100/100/100 102/102/102 93/93/93
f 101/101/101 102/102/102 100/100/100
f 101/101/101 97/97/97 102/102/102
f 105/105/105 104/104/104 103/103/103
f 106/106/106 105/105/105 103/103/103
f 105/105/105 107/107/107 104/104/104
f 106/106/106 103/103/103 108/108/108
f 109/109/109 106/106/106 108/108/108
f 110/110/110 108/108/108 103/103/103
f 109/109/109 108/108/108 110/110/110
f 103/103/103 104/104/104 110/110/110
f 111/111/111 109/109/109 110/110/110
f 107/107/107 112/112/112 104/104/104
f 104/104/104 112/112/112 110/110/110
f 111/111/111 110/110/110 112/112/112
f 107/107/107 111/111/111 112/112/112
f 115/115/115 114/114/114 113/113/113
f 115/115/115 116/116/116 114/114/114
f 117/117/117 115/115/115 113/113/113
f 116/116/116 118/118/118 114/114/114
f 113/113/113 114/114/114 118/118/118
f 116/116/116 119/119/119 118/118/118
f 119/119/119 120/120/120 118/118/118
f 113/113/113 118/118/118 120/120/120
f 119/119/119 121/121/121 120/120/120
f 117/117/117 113/113/113 122/122/122
f 120/120/120 122/122/122 113/113/113
f 121/121/121 122/122/122 120/120/120
f 121/121/121 117/117/117 122/122/122
f 125/125/125 124/124/124 123/123/123
f 126/126/126 125/125/125 123/123/123
f 123/123/123 124/124/124 127/127/127
f 128/128/128 125/125/125 126/126/126
f 129/129/129 128/128/128 126/126/126
f 124/124/124 130/130/130 127/127/127
f 127/127/127 130/130/130 131/131/131
f 131/131/131 132/132/132 129/129/129
f 132/132/132 128/128/128 129/129/129
f 130/130/130 132/132/132 131/131/131
f 125/125/125 128/128/128 133/133/133
f 124/124/124 125/125/125 134/134/134
f 134/134/134 125/125/125 133/133/133
f 128/128/128 132/132/132 135/135/135
f 133/133/133 128/128/128 135/135/135
f 135/135/135 132/132/132 136/136/136
f 133/133/133 135/135/135 136/136/136
f 132/132/132 130/130/130 136/136/136
f 134/134/134 133/133/133 136/136/136
f 130/130/130 124/124/124 137/137/137
f 136/136/136 130/130/130 137/137/137
f 136/136/136 137/137/137 134/134/134
f 137/137/137 124/124/124 134/134/134
f 140/140/140 139/139/139 138/138/138
f 141/141/141 140/140/140 138/138/138
f 138/138/138 139/139/139 142/142/142
f 143/143/143 140/140/140 141/141/141
f 139/139/139 144/144/144 142/142/142
f 145/145/145 143/143/143 141/141/141
f 142/142/142 144/144/144 146/146/146
f 147/147/147 143/143/143 145/145/145
f 144/144/144 147/147/147 146/146/146
f 146/146/146 147/147/147 145/145/145
f 150/150/150 149/149/149 148/148/148
f 151/151/151 150/150/150 148/148/148
f 148/148/148 149/149/149 152/152/152
f 153/153/153 150/150/150 151/151/151
f 149/149/149 154/154/154 152/152/152
f 155/155/155 153/153/153 151/151/151
f 152/152/152 154/154/154 156/156/156
f 157/157/157 153/153/153 155/155/155
f 154/154/154 157/157/157 156/156/156
f 156/156/156 157/157/157 155/155/155
f 160/160/160 159/159/159 158/158/158
f 161/161/161 160/160/160 158/158/158
f 158/158/158 159/159/159 162/162/162
f 163/163/163 160/160/160 161/161/161
f 164/164/164 163/163/163 161/161/161
f 159/159/159 165/165/165 162/162/162
f 162/162/162 165/165/165 166/166/166
f 166/166/166 167/167/167 164/164/164
f 167/167/167 163/163/163 164/164/164
f 165/165/165 167/167/167 166/166/166
f 159/159/159 160/160/160 168/168/168
f 160/160/160 163/163/163 169/169/169
f 168/168/168 160/160/160 169/169/169
f 170/170/170 159/159/159 168/168/168
f 165/165/165 159/159/159 170/170/170
f 170/170/170 168/168/168 169/169/169
f 169/169/169 163/163/163 171/171/171
f 163/163/163 167/167/167 171/171/171
f 170/170/170 169/169/169 171/171/171
f 172/172/172 165/165/165 170/170/170
f 167/167/167 165/165/165 172/172/172
f 171/171/171 172/172/172 170/170/170
f 171/171/171 167/167/167 172/172/172
f 175/175/175 174/174/174 173/173/173
f 176/176/176 175/175/175 173/173/173
f 173/173/173 174/174/174 177/177/177
f 178/178/178 175/175/175 176/176/176
f 174/174/174 179/179/179 177/177/177
f 180/180/180 178/178/178 176/176/176
f 177/177/177 179/179/179 181/181/181
f 182/182/182 178/178/178 180/180/180
f 179/179/179 182/182/182 181/181/181
f 181/181/181 182/182/182 180/180/180
f 185/185/185 184/184/184 183/183/183
f 186/186/186 185/185/185 183/183/183
f 183/183/183 184/184/184 187/187/187
f 188/188/188 185/185/185 186/186/186
f 184/184/184 189/189/189 187/187/187
f 190/190/190 188/188/188 186/186/186
f 187/187/187 189/189/189 191/191/191
f 192/192/192 188/188/188 190/190/190
f 189/189/189 192/192/192 191/191/191
f 191/191/191 192/192/192 190/190/190
