g Tile_Town_02
v 0.5000005 6.5188144E-09 0.040012196
v 0.50000024 8.147655E-08 0.5000995
v 0.47500032 0.050000083 0.5000945
v 0.4750004 0.050000012 0.065012164
v -0.49999976 8.1476465E-08 0.50009894
v -0.49999952 6.5187513E-09 0.04001181
v -0.47499952 0.050000012 0.06501175
v -0.47499967 0.050000083 0.50009394
v -0.47499952 0.050000012 0.06501175
v -0.43498704 0.050000004 0.024999335
v 0.434988 0.050000004 0.024999648
v 0.4750004 0.050000012 0.065012164
v -0.47499967 0.050000083 0.50009394
v 0.47500032 0.050000083 0.5000945
v -0.47499967 0.050000083 0.50009394
v 0.47500032 0.050000083 0.5000945
v 0.50000024 8.147655E-08 0.5000995
v -0.49999976 8.1476465E-08 0.50009894
v -0.43498704 0.050000004 0.024999335
v -0.47499952 0.050000012 0.06501175
v -0.49999952 6.5187513E-09 0.04001181
v -0.45998704 -1.0356871E-13 -6.357002E-07
v 0.4750004 0.050000012 0.065012164
v 0.434988 0.050000004 0.024999648
v 0.459988 -5.1804535E-14 -3.1797396E-07
v 0.5000005 6.5188144E-09 0.040012196
v -0.45998704 -1.0356871E-13 -6.357002E-07
v 0.459988 -5.1804535E-14 -3.1797396E-07
v 0.434988 0.050000004 0.024999648
v -0.43498704 0.050000004 0.024999335
v -0.49999905 -6.518955E-09 -0.04001306
v -0.49999893 -8.147669E-08 -0.5001004
v -0.47499895 0.04999992 -0.50009537
v -0.47499904 0.04999999 -0.06501307
v 0.5000011 -8.147662E-08 -0.5000999
v 0.50000095 -6.518916E-09 -0.04001282
v 0.47500095 0.04999999 -0.065012835
v 0.475001 0.04999992 -0.50009495
v -0.47499904 0.04999999 -0.06501307
v -0.47499895 0.04999992 -0.50009537
v 0.475001 0.04999992 -0.50009495
v 0.47500095 0.04999999 -0.065012835
v -0.43498656 0.049999997 -0.025000557
v 0.43498847 0.049999997 -0.025000364
v 0.475001 0.04999992 -0.50009495
v -0.47499895 0.04999992 -0.50009537
v -0.49999893 -8.147669E-08 -0.5001004
v 0.5000011 -8.147662E-08 -0.5000999
v 0.43498847 0.049999997 -0.025000364
v 0.47500095 0.04999999 -0.065012835
v 0.50000095 -6.518916E-09 -0.04001282
v 0.45998847 -6.151535E-14 -3.775785E-07
v -0.47499904 0.04999999 -0.06501307
v -0.43498656 0.049999997 -0.025000557
v -0.45998657 -9.385788E-14 -5.7609554E-07
v -0.49999905 -6.518955E-09 -0.04001306
v 0.45998847 -6.151535E-14 -3.775785E-07
v -0.45998657 -9.385788E-14 -5.7609554E-07
v -0.43498656 0.049999997 -0.025000557
v 0.43498847 0.049999997 -0.025000364
vt 0.03237085 0.050907172
vt 0.03237085 0.050907172
vt 0.03237085 0.050907172
vt 0.03237085 0.050907172
vt 0.19662811 0.03429688
vt 0.19662811 0.03429688
vt 0.19662811 0.03429688
vt 0.19662811 0.03429688
vt 0.124343336 0.03368172
vt 0.124343336 0.03368172
vt 0.124343336 0.03368172
vt 0.124343336 0.03368172
vt 0.124343336 0.03368172
vt 0.124343336 0.03368172
vt 0.098504364 0.047216
vt 0.098504364 0.047216
vt 0.098504364 0.047216
vt 0.098504364 0.047216
vt 0.19662811 0.03429688
vt 0.19662811 0.03429688
vt 0.19662811 0.03429688
vt 0.19662811 0.03429688
vt 0.03237085 0.050907172
vt 0.03237085 0.050907172
vt 0.03237085 0.050907172
vt 0.03237085 0.050907172
vt 0.04282917 0.026914533
vt 0.04282917 0.026914533
vt 0.04282917 0.026914533
vt 0.04282917 0.026914533
vt 0.19662811 0.03429688
vt 0.19662811 0.03429688
vt 0.19662811 0.03429688
vt 0.19662811 0.03429688
vt 0.03237085 0.050907172
vt 0.03237085 0.050907172
vt 0.03237085 0.050907172
vt 0.03237085 0.050907172
vt 0.124343336 0.03368172
vt 0.124343336 0.03368172
vt 0.124343336 0.03368172
vt 0.124343336 0.03368172
vt 0.124343336 0.03368172
vt 0.124343336 0.03368172
vt 0.098504364 0.047216
vt 0.098504364 0.047216
vt 0.098504364 0.047216
vt 0.098504364 0.047216
vt 0.03237085 0.050907172
vt 0.03237085 0.050907172
vt 0.03237085 0.050907172
vt 0.03237085 0.050907172
vt 0.19662811 0.03429688
vt 0.19662811 0.03429688
vt 0.19662811 0.03429688
vt 0.19662811 0.03429688
vt 0.20585606 0.052137565
vt 0.20585606 0.052137565
vt 0.20585606 0.052137565
vt 0.20585606 0.052137565
vn 0.8944273 0.44721335 0
vn 0.8944273 0.44721335 0
vn 0.8944273 0.44721335 0
vn 0.8944273 0.44721335 0
vn -0.8944272 0.4472136 0
vn -0.8944272 0.4472136 0
vn -0.8944272 0.4472136 0
vn -0.8944272 0.4472136 0
vn -0 1 0
vn -0 1 0
vn -0 1 0
vn -0 1 0
vn -0 1 0
vn -0 1 0
vn -0 0.000100135796 1
vn -0 0.000100135796 1
vn -0 0.000100135796 1
vn -0 0.000100135796 1
vn -0.5773499 0.5773502 -0.57735074
vn -0.5773499 0.5773502 -0.57735074
vn -0.5773499 0.5773502 -0.57735074
vn -0.5773499 0.5773502 -0.57735074
vn 0.57735074 0.57735 -0.5773499
vn 0.57735074 0.57735 -0.5773499
vn 0.57735074 0.57735 -0.5773499
vn 0.57735074 0.57735 -0.5773499
vn -0 0.4472131 -0.89442736
vn -0 0.4472131 -0.89442736
vn -0 0.4472131 -0.89442736
vn -0 0.4472131 -0.89442736
vn -0.8944273 0.44721335 0
vn -0.8944273 0.44721335 0
vn -0.8944273 0.44721335 0
vn -0.8944273 0.44721335 0
vn 0.89442706 0.44721374 0
vn 0.89442706 0.44721374 0
vn 0.89442706 0.44721374 0
vn 0.89442706 0.44721374 0
vn -0 1 0
vn -0 1 0
vn -0 1 0
vn -0 1 0
vn -0 1 0
vn -0 1 0
vn -0 9.953976E-05 -1
vn -0 9.953976E-05 -1
vn -0 9.953976E-05 -1
vn -0 9.953976E-05 -1
vn 0.57734996 0.5773506 0.57735014
vn 0.57734996 0.5773506 0.57735014
vn 0.57734996 0.5773506 0.57735014
vn 0.57734996 0.5773506 0.57735014
vn -0.5773505 0.57735026 0.5773501
vn -0.5773505 0.57735026 0.5773501
vn -0.5773505 0.57735026 0.5773501
vn -0.5773505 0.57735026 0.5773501
vn -0 0.44721338 0.8944273
vn -0 0.44721338 0.8944273
vn -0 0.44721338 0.8944273
vn -0 0.44721338 0.8944273
g Tile_Town_02_0
f 3/3/3 2/2/2 1/1/1
f 4/4/4 3/3/3 1/1/1
f 7/7/7 6/6/6 5/5/5
f 8/8/8 7/7/7 5/5/5
f 11/11/11 10/10/10 9/9/9
f 9/9/9 12/12/12 11/11/11
f 9/9/9 13/13/13 12/12/12
f 13/13/13 14/14/14 12/12/12
f 17/17/17 16/16/16 15/15/15
f 18/18/18 17/17/17 15/15/15
f 21/21/21 20/20/20 19/19/19
f 22/22/22 21/21/21 19/19/19
f 25/25/25 24/24/24 23/23/23
f 26/26/26 25/25/25 23/23/23
f 29/29/29 28/28/28 27/27/27
f 30/30/30 29/29/29 27/27/27
f 33/33/33 32/32/32 31/31/31
f 34/34/34 33/33/33 31/31/31
f 37/37/37 36/36/36 35/35/35
f 38/38/38 37/37/37 35/35/35
f 41/41/41 40/40/40 39/39/39
f 39/39/39 42/42/42 41/41/41
f 39/39/39 43/43/43 42/42/42
f 43/43/43 44/44/44 42/42/42
f 47/47/47 46/46/46 45/45/45
f 48/48/48 47/47/47 45/45/45
f 51/51/51 50/50/50 49/49/49
f 52/52/52 51/51/51 49/49/49
f 55/55/55 54/54/54 53/53/53
f 56/56/56 55/55/55 53/53/53
f 59/59/59 58/58/58 57/57/57
f 60/60/60 59/59/59 57/57/57
