g Tile_Ji
v 0.4312499 0.049999926 -0.47396377
v -0.43124783 0.049999923 -0.4739641
v -0.45624784 -8.520198E-08 -0.5001004
v 0.45624995 -8.147662E-08 -0.5000999
v -0.47499952 0.050000012 0.06501175
v -0.43498704 0.050000004 0.024999335
v 0.434988 0.050000004 0.024999648
v 0.4750004 0.050000012 0.065012164
v -0.47499964 0.05000007 0.42980683
v 0.47500032 0.050000068 0.42980728
v -0.43124855 0.050000075 0.47396275
v 0.43124926 0.05000008 0.4739632
v 0.5000005 6.5188144E-09 0.040012196
v 0.50000024 7.428263E-08 0.45594352
v 0.47500032 0.050000068 0.42980728
v 0.4750004 0.050000012 0.065012164
v -0.49999973 7.7076514E-08 0.455943
v -0.49999952 6.5187513E-09 0.04001181
v -0.47499952 0.050000012 0.06501175
v -0.47499964 0.05000007 0.42980683
v -0.43498704 0.050000004 0.024999335
v -0.47499952 0.050000012 0.06501175
v -0.49999952 6.5187513E-09 0.04001181
v -0.45998704 -1.0356871E-13 -6.357002E-07
v 0.4750004 0.050000012 0.065012164
v 0.434988 0.050000004 0.024999648
v 0.459988 -5.1804535E-14 -3.1797396E-07
v 0.5000005 6.5188144E-09 0.040012196
v -0.45998704 -1.0356871E-13 -6.357002E-07
v 0.459988 -5.1804535E-14 -3.1797396E-07
v 0.434988 0.050000004 0.024999648
v -0.43498704 0.050000004 0.024999335
v -0.47499895 0.049999926 -0.42980817
v -0.43124783 0.049999923 -0.4739641
v 0.4312499 0.049999926 -0.47396377
v 0.475001 0.04999993 -0.4298078
v -0.47499904 0.04999999 -0.06501307
v 0.47500095 0.04999999 -0.065012835
v -0.43498656 0.049999997 -0.025000557
v 0.43498847 0.049999997 -0.025000364
v -0.49999905 -6.518955E-09 -0.04001306
v -0.49999893 -7.4282774E-08 -0.45594442
v -0.47499895 0.049999926 -0.42980817
v -0.47499904 0.04999999 -0.06501307
v 0.5000011 -6.7763445E-08 -0.45594397
v 0.50000095 -6.518916E-09 -0.04001282
v 0.47500095 0.04999999 -0.065012835
v 0.475001 0.04999993 -0.4298078
v 0.43498847 0.049999997 -0.025000364
v 0.47500095 0.04999999 -0.065012835
v 0.50000095 -6.518916E-09 -0.04001282
v 0.45998847 -6.151535E-14 -3.775785E-07
v -0.47499904 0.04999999 -0.06501307
v -0.43498656 0.049999997 -0.025000557
v -0.45998657 -9.385788E-14 -5.7609554E-07
v -0.49999905 -6.518955E-09 -0.04001306
v 0.45998847 -6.151535E-14 -3.775785E-07
v -0.45998657 -9.385788E-14 -5.7609554E-07
v -0.43498656 0.049999997 -0.025000557
v 0.43498847 0.049999997 -0.025000364
v 0.43124926 0.05000008 0.4739632
v 0.47500032 0.050000068 0.42980728
v 0.50000024 7.428263E-08 0.45594352
v 0.45624918 7.775125E-08 0.5000994
v -0.47499964 0.05000007 0.42980683
v -0.43124855 0.050000075 0.47396275
v -0.45624864 8.1476465E-08 0.50009894
v -0.49999973 7.7076514E-08 0.455943
v -0.43124783 0.049999923 -0.4739641
v -0.47499895 0.049999926 -0.42980817
v -0.49999893 -7.4282774E-08 -0.45594442
v -0.45624784 -8.520198E-08 -0.5001004
v 0.475001 0.04999993 -0.4298078
v 0.4312499 0.049999926 -0.47396377
v 0.45624995 -8.147662E-08 -0.5000999
v 0.5000011 -6.7763445E-08 -0.45594397
v -0.43124855 0.050000075 0.47396275
v 0.43124926 0.05000008 0.4739632
v 0.45624918 7.775125E-08 0.5000994
v -0.45624864 8.1476465E-08 0.50009894
vt 0.046520367 0.034604486
vt 0.046520367 0.034604486
vt 0.046520367 0.034604486
vt 0.046520367 0.034604486
vt 0.124343336 0.03368172
vt 0.124343336 0.03368172
vt 0.124343336 0.03368172
vt 0.124343336 0.03368172
vt 0.124343336 0.03368172
vt 0.124343336 0.03368172
vt 0.124343336 0.033681717
vt 0.124343336 0.03368172
vt 0.046520367 0.034604486
vt 0.046520367 0.034604486
vt 0.046520367 0.034604486
vt 0.046520367 0.034604486
vt 0.19662812 0.037065268
vt 0.19662812 0.037065268
vt 0.19662812 0.037065268
vt 0.19662812 0.037065268
vt 0.19662812 0.037065268
vt 0.19662812 0.037065268
vt 0.19662812 0.037065268
vt 0.19662812 0.037065268
vt 0.046520367 0.034604486
vt 0.046520367 0.034604486
vt 0.046520367 0.034604486
vt 0.046520367 0.034604486
vt 0.046520367 0.034604486
vt 0.046520367 0.034604486
vt 0.046520367 0.034604486
vt 0.046520367 0.034604486
vt 0.124343336 0.03368172
vt 0.124343336 0.03368172
vt 0.124343336 0.03368172
vt 0.124343336 0.03368172
vt 0.124343336 0.03368172
vt 0.124343336 0.03368172
vt 0.124343336 0.03368172
vt 0.124343336 0.03368172
vt 0.19662812 0.037065268
vt 0.19662812 0.037065268
vt 0.19662812 0.037065268
vt 0.19662812 0.037065268
vt 0.046520367 0.034604486
vt 0.046520367 0.034604486
vt 0.046520367 0.034604486
vt 0.046520367 0.034604486
vt 0.19662812 0.037065268
vt 0.19662812 0.037065268
vt 0.19662812 0.037065268
vt 0.19662812 0.037065268
vt 0.19662812 0.037065268
vt 0.19662812 0.037065268
vt 0.19662812 0.037065268
vt 0.19662812 0.037065268
vt 0.19662812 0.037065268
vt 0.19662812 0.037065268
vt 0.19662812 0.037065268
vt 0.19662812 0.037065268
vt 0.19662812 0.037065268
vt 0.19662812 0.037065268
vt 0.19662812 0.037065268
vt 0.19662812 0.037065268
vt 0.19662812 0.037065268
vt 0.19662812 0.037065268
vt 0.19662812 0.037065268
vt 0.19662812 0.037065268
vt 0.19662812 0.037065268
vt 0.19662812 0.037065268
vt 0.19662812 0.037065268
vt 0.19662812 0.037065268
vt 0.046520367 0.034604486
vt 0.046520367 0.034604486
vt 0.046520367 0.034604486
vt 0.046520367 0.034604486
vt 0.19662812 0.037065268
vt 0.19662812 0.037065268
vt 0.19662812 0.037065268
vt 0.19662812 0.037065268
vn -0 0.46325195 -0.8862266
vn -0 0.46325195 -0.8862266
vn -0 0.46325195 -0.8862266
vn -0 0.46325195 -0.8862266
vn -0 1 0
vn -0 1 0
vn -0 1 0
vn -0 1 0
vn -0 1 0
vn -0 1 0
vn -0 1 0
vn -0 1 0
vn 0.89442736 0.4472133 0
vn 0.89442736 0.4472133 0
vn 0.89442736 0.4472133 0
vn 0.89442736 0.4472133 0
vn -0.8944269 0.44721404 0
vn -0.8944269 0.44721404 0
vn -0.8944269 0.44721404 0
vn -0.8944269 0.44721404 0
vn -0.5773499 0.5773502 -0.57735074
vn -0.5773499 0.5773502 -0.57735074
vn -0.5773499 0.5773502 -0.57735074
vn -0.5773499 0.5773502 -0.57735074
vn 0.57735074 0.57735 -0.5773499
vn 0.57735074 0.57735 -0.5773499
vn 0.57735074 0.57735 -0.5773499
vn 0.57735074 0.57735 -0.5773499
vn -0 0.4472131 -0.89442736
vn -0 0.4472131 -0.89442736
vn -0 0.4472131 -0.89442736
vn -0 0.4472131 -0.89442736
vn -0 1 0
vn -0 1 0
vn -0 1 0
vn -0 1 0
vn -0 1 0
vn -0 1 0
vn -0 1 0
vn -0 1 0
vn -0.8944273 0.44721353 0
vn -0.8944273 0.44721353 0
vn -0.8944273 0.44721353 0
vn -0.8944273 0.44721353 0
vn 0.8944269 0.44721425 0
vn 0.8944269 0.44721425 0
vn 0.8944269 0.44721425 0
vn 0.8944269 0.44721425 0
vn 0.57734996 0.5773506 0.57735014
vn 0.57734996 0.5773506 0.57735014
vn 0.57734996 0.5773506 0.57735014
vn 0.57734996 0.5773506 0.57735014
vn -0.5773505 0.57735026 0.5773501
vn -0.5773505 0.57735026 0.5773501
vn -0.5773505 0.57735026 0.5773501
vn -0.5773505 0.57735026 0.5773501
vn -0 0.44721338 0.8944273
vn -0 0.44721338 0.8944273
vn -0 0.44721338 0.8944273
vn -0 0.44721338 0.8944273
vn 0.57563263 0.58595425 0.5703549
vn 0.57563263 0.58595425 0.5703549
vn 0.57563263 0.58595425 0.5703549
vn 0.57563263 0.58595425 0.5703549
vn -0.57563245 0.5859548 0.57035464
vn -0.57563245 0.5859548 0.57035464
vn -0.57563245 0.5859548 0.57035464
vn -0.57563245 0.5859548 0.57035464
vn -0.5756324 0.5859545 -0.57035494
vn -0.5756324 0.5859545 -0.57035494
vn -0.5756324 0.5859545 -0.57035494
vn -0.5756324 0.5859545 -0.57035494
vn 0.5756323 0.58595437 -0.570355
vn 0.5756323 0.58595437 -0.570355
vn 0.5756323 0.58595437 -0.570355
vn 0.5756323 0.58595437 -0.570355
vn -0 0.46325204 0.8862266
vn -0 0.46325204 0.8862266
vn -0 0.46325204 0.8862266
vn -0 0.46325204 0.8862266
g Tile_Ji_0
f 3/3/3 2/2/2 1/1/1
f 4/4/4 3/3/3 1/1/1
f 7/7/7 6/6/6 5/5/5
f 5/5/5 8/8/8 7/7/7
f 5/5/5 9/9/9 8/8/8
f 9/9/9 10/10/10 8/8/8
f 9/9/9 11/11/11 10/10/10
f 11/11/11 12/12/12 10/10/10
f 15/15/15 14/14/14 13/13/13
f 16/16/16 15/15/15 13/13/13
f 19/19/19 18/18/18 17/17/17
f 20/20/20 19/19/19 17/17/17
f 23/23/23 22/22/22 21/21/21
f 24/24/24 23/23/23 21/21/21
f 27/27/27 26/26/26 25/25/25
f 28/28/28 27/27/27 25/25/25
f 31/31/31 30/30/30 29/29/29
f 32/32/32 31/31/31 29/29/29
f 35/35/35 34/34/34 33/33/33
f 33/33/33 36/36/36 35/35/35
f 33/33/33 37/37/37 36/36/36
f 37/37/37 38/38/38 36/36/36
f 37/37/37 39/39/39 38/38/38
f 39/39/39 40/40/40 38/38/38
f 43/43/43 42/42/42 41/41/41
f 44/44/44 43/43/43 41/41/41
f 47/47/47 46/46/46 45/45/45
f 48/48/48 47/47/47 45/45/45
f 51/51/51 50/50/50 49/49/49
f 52/52/52 51/51/51 49/49/49
f 55/55/55 54/54/54 53/53/53
f 56/56/56 55/55/55 53/53/53
f 59/59/59 58/58/58 57/57/57
f 60/60/60 59/59/59 57/57/57
f 63/63/63 62/62/62 61/61/61
f 64/64/64 63/63/63 61/61/61
f 67/67/67 66/66/66 65/65/65
f 68/68/68 67/67/67 65/65/65
f 71/71/71 70/70/70 69/69/69
f 72/72/72 71/71/71 69/69/69
f 75/75/75 74/74/74 73/73/73
f 76/76/76 75/75/75 73/73/73
f 79/79/79 78/78/78 77/77/77
f 80/80/80 79/79/79 77/77/77
