g Tile_Ship
v 0.5 0.049999926 -0.47396377
v -0.5 0.049999923 -0.4739641
v -0.5 -8.520198E-08 -0.5001004
v 0.5 -8.147662E-08 -0.5000999
v -0.5 0.050000004 0.024999335
v 0.5 0.050000004 0.024999648
v 0.5 0.05000008 0.4739632
v -0.5 0.050000075 0.47396275
v 0.5 -5.1804535E-14 -3.1797396E-07
v 0.5 7.775125E-08 0.5000994
v 0.5 0.05000008 0.4739632
v 0.5 0.050000004 0.024999648
v -0.5 8.1476465E-08 0.50009894
v -0.5 -1.0356871E-13 -6.357002E-07
v -0.5 0.050000004 0.024999335
v -0.5 0.050000075 0.47396275
v -0.5 -1.0356871E-13 -6.357002E-07
v 0.5 -5.1804535E-14 -3.1797396E-07
v 0.5 0.050000004 0.024999648
v -0.5 0.050000004 0.024999335
v 0.5 0.049999997 -0.025000364
v -0.5 0.049999997 -0.025000557
v -0.5 0.049999923 -0.4739641
v 0.5 0.049999926 -0.47396377
v -0.5 -9.385788E-14 -5.7609554E-07
v -0.5 -8.520198E-08 -0.5001004
v -0.5 0.049999923 -0.4739641
v -0.5 0.049999997 -0.025000557
v 0.5 0.049999997 -0.025000364
v 0.5 0.049999926 -0.47396377
v 0.5 -8.147662E-08 -0.5000999
v 0.5 -6.151535E-14 -3.775785E-07
v 0.5 -6.151535E-14 -3.775785E-07
v -0.5 -9.385788E-14 -5.7609554E-07
v -0.5 0.049999997 -0.025000557
v 0.5 0.049999997 -0.025000364
v -0.5 0.050000075 0.47396275
v 0.5 0.05000008 0.4739632
v 0.5 7.775125E-08 0.5000994
v -0.5 8.1476465E-08 0.50009894
vt 0.046520367 0.034604486
vt 0.046520367 0.034604486
vt 0.046520367 0.034604486
vt 0.046520367 0.034604486
vt 0.124343336 0.03368172
vt 0.124343336 0.03368172
vt 0.124343336 0.03368172
vt 0.124343336 0.033681717
vt 0.046520367 0.034604486
vt 0.19662812 0.037065268
vt 0.19662812 0.037065268
vt 0.046520367 0.034604486
vt 0.19662812 0.037065268
vt 0.19662812 0.037065268
vt 0.19662812 0.037065268
vt 0.19662812 0.037065268
vt 0.046520367 0.034604486
vt 0.046520367 0.034604486
vt 0.046520367 0.034604486
vt 0.046520367 0.034604486
vt 0.124343336 0.03368172
vt 0.124343336 0.03368172
vt 0.124343336 0.03368172
vt 0.124343336 0.03368172
vt 0.19662812 0.037065268
vt 0.19662812 0.037065268
vt 0.19662812 0.037065268
vt 0.19662812 0.037065268
vt 0.19662812 0.037065268
vt 0.046520367 0.034604486
vt 0.046520367 0.034604486
vt 0.19662812 0.037065268
vt 0.19662812 0.037065268
vt 0.19662812 0.037065268
vt 0.19662812 0.037065268
vt 0.19662812 0.037065268
vt 0.19662812 0.037065268
vt 0.19662812 0.037065268
vt 0.19662812 0.037065268
vt 0.19662812 0.037065268
vn -0 0.46325195 -0.8862266
vn -0 0.46325195 -0.8862266
vn -0 0.46325195 -0.8862266
vn -0 0.46325195 -0.8862266
vn -0 1 0
vn -0 1 0
vn -0 1 0
vn -0 1 0
vn 1 0 0
vn 1 0 0
vn 1 0 0
vn 1 0 0
vn -1 0 0
vn -1 0 0
vn -1 0 0
vn -1 0 0
vn -0 0.44721314 -0.8944275
vn -0 0.44721314 -0.8944275
vn -0 0.44721314 -0.8944275
vn -0 0.44721314 -0.8944275
vn -0 1 0
vn -0 1 0
vn -0 1 0
vn -0 1 0
vn -1 0 0
vn -1 0 0
vn -1 0 0
vn -1 0 0
vn 1 0 0
vn 1 0 0
vn 1 0 0
vn 1 0 0
vn -0 0.44721338 0.8944273
vn -0 0.44721338 0.8944273
vn -0 0.44721338 0.8944273
vn -0 0.44721338 0.8944273
vn -0 0.46325198 0.8862266
vn -0 0.46325198 0.8862266
vn -0 0.46325198 0.8862266
vn -0 0.46325198 0.8862266
g Tile_Ship_0
f 3/3/3 2/2/2 1/1/1
f 4/4/4 3/3/3 1/1/1
f 7/7/7 6/6/6 5/5/5
f 8/8/8 7/7/7 5/5/5
f 11/11/11 10/10/10 9/9/9
f 12/12/12 11/11/11 9/9/9
f 15/15/15 14/14/14 13/13/13
f 16/16/16 15/15/15 13/13/13
f 19/19/19 18/18/18 17/17/17
f 20/20/20 19/19/19 17/17/17
f 23/23/23 22/22/22 21/21/21
f 24/24/24 23/23/23 21/21/21
f 27/27/27 26/26/26 25/25/25
f 28/28/28 27/27/27 25/25/25
f 31/31/31 30/30/30 29/29/29
f 32/32/32 31/31/31 29/29/29
f 35/35/35 34/34/34 33/33/33
f 36/36/36 35/35/35 33/33/33
f 39/39/39 38/38/38 37/37/37
f 40/40/40 39/39/39 37/37/37
