g Tile_Palace
v -0.5 8.146034E-08 0.5
v -0.5 -8.146034E-08 -0.5
v -0.45000002 0.049999926 -0.45000002
v -0.45000002 0.050000075 0.45000002
v -0.5 -8.146034E-08 -0.5
v 0.5 -8.146034E-08 -0.5
v 0.45000002 0.049999926 -0.45000002
v -0.45000002 0.049999926 -0.45000002
v 0.5 -8.146034E-08 -0.5
v 0.5 8.146034E-08 0.5
v 0.45000002 0.050000075 0.45000002
v 0.45000002 0.049999926 -0.45000002
v 0.5 8.146034E-08 0.5
v -0.5 8.146034E-08 0.5
v -0.45000002 0.050000075 0.45000002
v 0.45000002 0.050000075 0.45000002
v 0.45000002 0.049999926 -0.45000002
v 0.45000002 0.050000075 0.45000002
v -0.45000002 0.050000075 0.45000002
v -0.45000002 0.049999926 -0.45000002
vt 0.044755124 0.047581255
vt 0.044755124 0.047581255
vt 0.044755124 0.047581255
vt 0.044755124 0.047581255
vt 0.044755124 0.047581255
vt 0.044755124 0.047581255
vt 0.044755124 0.047581255
vt 0.044755124 0.047581255
vt 0.19363248 0.037738144
vt 0.19363248 0.037738144
vt 0.19363248 0.037738144
vt 0.19363248 0.037738144
vt 0.19363248 0.037738144
vt 0.19363248 0.037738144
vt 0.19363248 0.037738144
vt 0.19363248 0.037738144
vt 0.11857861 0.03281653
vt 0.11857861 0.03281653
vt 0.11857861 0.03281653
vt 0.11857861 0.03281653
vn -0.707107 0.70710653 0
vn -0.707107 0.70710653 0
vn -0.707107 0.70710653 0
vn -0.707107 0.70710653 0
vn -0 0.7071066 -0.7071069
vn -0 0.7071066 -0.7071069
vn -0 0.7071066 -0.7071069
vn -0 0.7071066 -0.7071069
vn 0.707107 0.70710653 0
vn 0.707107 0.70710653 0
vn 0.707107 0.70710653 0
vn 0.707107 0.70710653 0
vn -0 0.7071067 0.7071068
vn -0 0.7071067 0.7071068
vn -0 0.7071067 0.7071068
vn -0 0.7071067 0.7071068
vn -0 1 0
vn -0 1 0
vn -0 1 0
vn -0 1 0
g Tile_Palace_0
f 3/3/3 2/2/2 1/1/1
f 4/4/4 3/3/3 1/1/1
f 7/7/7 6/6/6 5/5/5
f 8/8/8 7/7/7 5/5/5
f 11/11/11 10/10/10 9/9/9
f 12/12/12 11/11/11 9/9/9
f 15/15/15 14/14/14 13/13/13
f 16/16/16 15/15/15 13/13/13
f 19/19/19 18/18/18 17/17/17
f 20/20/20 19/19/19 17/17/17
