g Town_BG
v -0.0017731581 8.5 0.49999803
v 0.3198474 8.341005 0.4999981
v 0.3198474 3.1987892E-07 0.5
v -0.3201526 3.1987892E-07 0.5
v -0.3201526 8.341005 0.4999981
v -0.3201526 8.341005 0.4999981
v -0.40881604 8.295201 0.4999982
v -0.49866986 8.423881 0.49999806
v -0.11660818 8.597745 0.49999797
v -0.0017731581 8.5 0.49999803
v 0.11325399 8.598196 0.49999797
v 0.3198474 8.341005 0.4999981
v 0.4102906 8.295245 0.4999982
v 0.49932548 8.424334 0.49999806
v 0.4102906 8.295245 -0.50000185
v 0.49932548 8.424334 -0.5000019
v 0.113253996 8.598196 -0.5000021
v 0.3198474 8.341005 -0.50000185
v -0.0017731581 8.5 -0.5000019
v -0.11660818 8.597744 -0.5000021
v -0.3201526 8.341005 -0.50000185
v -0.49866986 8.423881 -0.5000019
v -0.40881604 8.295201 -0.50000185
v -0.11660818 8.597744 -2.019563E-06
v -0.11660818 8.647744 0.117871135
v -0.49866986 8.473881 0.11787124
v -0.49866986 8.423881 -1.9083323E-06
v 0.4102906 8.354294 -1.8638138E-06
v 0.49932548 8.474334 -0.117875114
v 0.4102906 8.354294 -0.11787504
v 0.49932548 8.424334 -1.9086224E-06
v 0.4102906 8.354294 0.117871314
v 0.49932548 8.474334 0.11787124
v 0.11325399 8.598196 -2.0198522E-06
v 0.11325399 8.648195 -0.11787522
v 0.49932548 8.474334 -0.117875114
v 0.49932548 8.424334 -1.9086224E-06
v 0.09255157 8.927242 0.49999776
v 0.11440002 8.86 0.49999782
v 0.09279269 8.792757 0.49999782
v 0.057757165 8.766828 0.49999797
v 0.03535155 8.968801 0.49999776
v -0.057907064 8.766745 0.49999797
v -0.035351556 8.968801 0.49999776
v -0.09255155 8.927242 0.49999776
v -0.09231044 8.792757 0.49999782
v -0.11440002 8.86 0.49999782
v 0.092792705 8.792757 -0.50000215
v 0.11440004 8.86 -0.50000215
v 0.09255158 8.927242 -0.5000022
v 0.057757236 8.766827 -0.50000226
v 0.035351563 8.968801 -0.5000023
v -0.057906985 8.766745 -0.50000226
v -0.03535154 8.968801 -0.5000023
v -0.09255154 8.927242 -0.5000022
v -0.09231043 8.792757 -0.50000215
v -0.11440001 8.86 -0.50000215
v 0.11462511 8.72828 0.49999797
v 0.12730828 8.679622 0.49999803
v 0.11325399 8.598196 0.49999797
v 0.07493093 8.758868 0.49999797
v -0.11660818 8.597745 0.49999797
v 0.057757165 8.766828 0.49999797
v -0.057907064 8.766745 0.49999797
v -0.075080834 8.75876 0.49999797
v -0.1143299 8.728022 0.49999797
v -0.12663907 8.679363 0.49999803
v 0.113253996 8.598196 -0.5000021
v 0.12730834 8.679621 -0.5000022
v 0.11462516 8.72828 -0.5000022
v 0.074931 8.758867 -0.50000226
v -0.11660818 8.597744 -0.5000021
v 0.057757236 8.766827 -0.50000226
v -0.057906985 8.766745 -0.50000226
v -0.075080745 8.75876 -0.50000226
v -0.11432986 8.728022 -0.5000022
v -0.12663901 8.679363 -0.5000022
v 0.035351563 8.968801 -0.5000023
v 0.03535155 8.968801 0.49999776
v -0.035351556 8.968801 0.49999776
v -0.03535154 8.968801 -0.5000023
v -0.09255154 8.927242 -0.5000022
v -0.09255155 8.927242 0.49999776
v -0.11440001 8.86 -0.50000215
v -0.11440002 8.86 0.49999782
v -0.09231043 8.792757 -0.50000215
v -0.09231044 8.792757 0.49999782
v -0.057906985 8.766745 -0.50000226
v -0.057907064 8.766745 0.49999797
v 0.057757236 8.766827 -0.50000226
v 0.057757165 8.766828 0.49999797
v 0.09279269 8.792757 0.49999782
v 0.092792705 8.792757 -0.50000215
v 0.11440004 8.86 -0.50000215
v 0.11440002 8.86 0.49999782
v 0.09255158 8.927242 -0.5000022
v 0.09255157 8.927242 0.49999776
v 0.035351563 8.968801 -0.5000023
v 0.03535155 8.968801 0.49999776
v 0.12730834 8.679621 -0.5000022
v 0.12730828 8.679622 0.49999803
v 0.11462511 8.72828 0.49999797
v 0.11462516 8.72828 -0.5000022
v -0.12663907 8.679363 0.49999803
v -0.11660818 8.597745 0.49999797
v -0.11660818 8.647744 0.38212478
v -0.11660818 8.647744 0.117871135
v -0.11660818 8.647744 -0.11787522
v -0.11660818 8.597744 -2.019563E-06
v -0.11660818 8.647744 -0.38212883
v -0.12663901 8.679363 -0.5000022
v -0.11660818 8.597744 -0.5000021
v -0.1143299 8.728022 0.49999797
v -0.11432986 8.728022 -0.5000022
v 0.11462511 8.72828 0.49999797
v 0.074931 8.758867 -0.50000226
v 0.11462516 8.72828 -0.5000022
v 0.07493093 8.758868 0.49999797
v 0.057757165 8.766828 0.49999797
v 0.057757236 8.766827 -0.50000226
v -0.057907064 8.766745 0.49999797
v -0.075080745 8.75876 -0.50000226
v -0.057906985 8.766745 -0.50000226
v -0.075080834 8.75876 0.49999797
v -0.11432986 8.728022 -0.5000022
v -0.1143299 8.728022 0.49999797
v 0.12730834 8.679621 -0.5000022
v 0.113253996 8.598196 -0.5000021
v 0.113253996 8.648195 -0.38212883
v 0.11325399 8.648195 -0.11787522
v 0.11325399 8.648195 0.117871135
v 0.11325399 8.598196 -2.0198522E-06
v 0.11325399 8.648196 0.38212478
v 0.12730828 8.679622 0.49999803
v 0.11325399 8.598196 0.49999797
v 0.11325399 8.648195 0.117871135
v 0.11325399 8.598196 -2.0198522E-06
v 0.49932548 8.424334 -1.9086224E-06
v 0.49932548 8.474334 0.11787124
v -0.11660818 8.647744 0.38212478
v -0.11660818 8.597745 0.49999797
v -0.49866986 8.423881 0.49999806
v -0.49866986 8.473881 0.3821249
v -0.11660818 8.647744 0.117871135
v -0.49866986 8.473881 0.11787124
v 0.11325399 8.598196 0.49999797
v 0.49932548 8.474334 0.3821249
v 0.49932548 8.424334 0.49999806
v 0.11325399 8.648196 0.38212478
v 0.49932548 8.474334 0.11787124
v 0.11325399 8.648195 0.117871135
v -0.40881604 8.35425 0.38212493
v -0.49866986 8.423881 0.49999806
v -0.40881604 8.295201 0.4999982
v -0.49866986 8.473881 0.3821249
v -0.49866986 8.473881 0.11787124
v -0.40881604 8.35425 0.117871314
v -0.40881604 8.35425 -1.8637855E-06
v -0.49866986 8.423881 -1.9083323E-06
v -0.40881604 8.35425 -0.11787504
v -0.49866986 8.473881 -0.117875114
v -0.49866986 8.473881 -0.38212872
v -0.40881604 8.35425 -0.3821287
v -0.40881604 8.295201 -0.50000185
v -0.49866986 8.423881 -0.5000019
v 0.4102906 8.295245 0.4999982
v 0.49932548 8.424334 0.49999806
v 0.49932548 8.474334 0.3821249
v 0.4102906 8.354294 0.38212493
v 0.4102906 8.354294 0.117871314
v 0.49932548 8.474334 0.11787124
v 0.113253996 8.648195 -0.38212883
v 0.113253996 8.598196 -0.5000021
v 0.49932548 8.424334 -0.5000019
v 0.49932548 8.474334 -0.38212872
v 0.11325399 8.648195 -0.11787522
v 0.49932548 8.474334 -0.117875114
v -0.11660818 8.647744 -0.11787522
v -0.11660818 8.597744 -2.019563E-06
v -0.49866986 8.423881 -1.9083323E-06
v -0.49866986 8.473881 -0.117875114
v -0.11660818 8.597744 -0.5000021
v -0.49866986 8.473881 -0.38212872
v -0.49866986 8.423881 -0.5000019
v -0.11660818 8.647744 -0.38212883
v -0.49866986 8.473881 -0.117875114
v -0.11660818 8.647744 -0.11787522
v -0.3201526 -3.1987892E-07 -0.5
v -0.3201526 8.341005 -0.50000185
v -0.3201526 8.341005 0.4999981
v -0.3201526 3.1987892E-07 0.5
v 0.3198474 -3.1987892E-07 -0.5
v 0.3198474 3.1987892E-07 0.5
v 0.3198474 8.341005 0.4999981
v 0.3198474 8.341005 -0.50000185
v 0.4102906 8.354294 -0.3821287
v 0.49932548 8.424334 -0.5000019
v 0.4102906 8.295245 -0.50000185
v 0.49932548 8.474334 -0.38212872
v 0.49932548 8.474334 -0.117875114
v 0.4102906 8.354294 -0.11787504
v -0.3201526 -3.1987892E-07 -0.5
v 0.3198474 -3.1987892E-07 -0.5
v 0.3198474 8.341005 -0.50000185
v -0.0017731581 8.5 -0.5000019
v -0.3201526 8.341005 -0.50000185
vt 0.101379395 0.765625
vt 0.101379395 0.765625
vt 0.101379395 0.765625
vt 0.101379395 0.765625
vt 0.101379395 0.765625
vt 0.09295654 0.9169922
vt 0.09295654 0.9169922
vt 0.09295654 0.9169922
vt 0.09295654 0.9169922
vt 0.09295654 0.9169922
vt 0.09295654 0.9169922
vt 0.09295654 0.9169922
vt 0.09295654 0.9169922
vt 0.09295654 0.9169922
vt 0.09295654 0.9169922
vt 0.09295654 0.9169922
vt 0.09295654 0.9169922
vt 0.09295654 0.9169922
vt 0.09295654 0.9169922
vt 0.09295654 0.9169922
vt 0.09295654 0.9169922
vt 0.09295654 0.9169922
vt 0.09295654 0.9169922
vt 0.105285645 0.921875
vt 0.105285645 0.921875
vt 0.105285645 0.921875
vt 0.105285645 0.921875
vt 0.105285645 0.921875
vt 0.105285645 0.921875
vt 0.105285645 0.921875
vt 0.105285645 0.921875
vt 0.105285645 0.921875
vt 0.105285645 0.921875
vt 0.105285645 0.921875
vt 0.105285645 0.921875
vt 0.105285645 0.921875
vt 0.105285645 0.921875
vt 0.07128906 0.9194336
vt 0.07128906 0.9194336
vt 0.07128906 0.9194336
vt 0.07128906 0.9194336
vt 0.07128906 0.9194336
vt 0.07128906 0.9194336
vt 0.07128906 0.9194336
vt 0.07128906 0.9194336
vt 0.07128906 0.9194336
vt 0.07128906 0.9194336
vt 0.07128906 0.9194336
vt 0.07128906 0.9194336
vt 0.07128906 0.9194336
vt 0.07128906 0.9194336
vt 0.07128906 0.9194336
vt 0.07128906 0.9194336
vt 0.07128906 0.9194336
vt 0.07128906 0.9194336
vt 0.07128906 0.9194336
vt 0.07128906 0.9194336
vt 0.07128906 0.9194336
vt 0.07128906 0.9194336
vt 0.07128906 0.9194336
vt 0.07128906 0.9194336
vt 0.07128906 0.9194336
vt 0.07128906 0.9194336
vt 0.07128906 0.9194336
vt 0.07128906 0.9194336
vt 0.07128906 0.9194336
vt 0.07128906 0.9194336
vt 0.07128906 0.9194336
vt 0.07128906 0.9194336
vt 0.07128906 0.9194336
vt 0.07128906 0.9194336
vt 0.07128906 0.9194336
vt 0.07128906 0.9194336
vt 0.07128906 0.9194336
vt 0.07128906 0.9194336
vt 0.07128906 0.9194336
vt 0.07128906 0.9194336
vt 0.07128906 0.9194336
vt 0.07128906 0.9194336
vt 0.07128906 0.9194336
vt 0.07128906 0.9194336
vt 0.07128906 0.9194336
vt 0.07128906 0.9194336
vt 0.07128906 0.9194336
vt 0.07128906 0.9194336
vt 0.07128906 0.9194336
vt 0.07128906 0.9194336
vt 0.07128906 0.9194336
vt 0.07128906 0.9194336
vt 0.07128906 0.9194336
vt 0.07128906 0.9194336
vt 0.07128906 0.9194336
vt 0.07128906 0.9194336
vt 0.07128906 0.9194336
vt 0.07128906 0.9194336
vt 0.07128906 0.9194336
vt 0.07128906 0.9194336
vt 0.07128906 0.9194336
vt 0.07128906 0.9194336
vt 0.07128906 0.9194336
vt 0.07128906 0.9194336
vt 0.07128906 0.9194336
vt 0.07128906 0.9194336
vt 0.07128906 0.9194336
vt 0.07128906 0.9194336
vt 0.07128906 0.9194336
vt 0.07128906 0.9194336
vt 0.07128906 0.9194336
vt 0.07128906 0.9194336
vt 0.07128906 0.9194336
vt 0.07128906 0.9194336
vt 0.07128906 0.9194336
vt 0.07128906 0.9194336
vt 0.07128906 0.9194336
vt 0.07128906 0.9194336
vt 0.07128906 0.9194336
vt 0.07128906 0.9194336
vt 0.07128906 0.9194336
vt 0.07128906 0.9194336
vt 0.07128906 0.9194336
vt 0.07128906 0.9194336
vt 0.07128906 0.9194336
vt 0.07128906 0.9194336
vt 0.07128906 0.9194336
vt 0.07128906 0.9194336
vt 0.07128906 0.9194336
vt 0.07128906 0.9194336
vt 0.07128906 0.9194336
vt 0.07128906 0.9194336
vt 0.07128906 0.9194336
vt 0.07128906 0.9194336
vt 0.07128906 0.9194336
vt 0.07128906 0.9194336
vt 0.07128906 0.9194336
vt 0.07128906 0.9194336
vt 0.105285645 0.921875
vt 0.105285645 0.921875
vt 0.105285645 0.921875
vt 0.105285645 0.921875
vt 0.09295654 0.9169922
vt 0.09295654 0.9169922
vt 0.09295654 0.9169922
vt 0.09295654 0.9169922
vt 0.09295654 0.9169922
vt 0.09295654 0.9169922
vt 0.09295654 0.9169922
vt 0.09295654 0.9169922
vt 0.09295654 0.9169922
vt 0.09295654 0.9169922
vt 0.09295654 0.9169922
vt 0.09295654 0.9169922
vt 0.09295654 0.9169922
vt 0.09295654 0.9169922
vt 0.09295654 0.9169922
vt 0.09295654 0.9169922
vt 0.09295654 0.9169922
vt 0.09295654 0.9169922
vt 0.09295654 0.9169922
vt 0.09295654 0.9169922
vt 0.09295654 0.9169922
vt 0.09295654 0.9169922
vt 0.09295654 0.9169922
vt 0.09295654 0.9169922
vt 0.09295654 0.9169922
vt 0.09295654 0.9169922
vt 0.09295654 0.9169922
vt 0.09295654 0.9169922
vt 0.09295654 0.9169922
vt 0.09295654 0.9169922
vt 0.09295654 0.9169922
vt 0.09295654 0.9169922
vt 0.09295654 0.9169922
vt 0.09295654 0.9169922
vt 0.09295654 0.9169922
vt 0.09295654 0.9169922
vt 0.09295654 0.9169922
vt 0.09295654 0.9169922
vt 0.105285645 0.921875
vt 0.105285645 0.921875
vt 0.105285645 0.921875
vt 0.105285645 0.921875
vt 0.09295654 0.9169922
vt 0.09295654 0.9169922
vt 0.09295654 0.9169922
vt 0.09295654 0.9169922
vt 0.09295654 0.9169922
vt 0.09295654 0.9169922
vt 0.101379395 0.765625
vt 0.101379395 0.765625
vt 0.101379395 0.765625
vt 0.101379395 0.765625
vt 0.101379395 0.765625
vt 0.101379395 0.765625
vt 0.101379395 0.765625
vt 0.101379395 0.765625
vt 0.09295654 0.9169922
vt 0.09295654 0.9169922
vt 0.09295654 0.9169922
vt 0.09295654 0.9169922
vt 0.09295654 0.9169922
vt 0.09295654 0.9169922
vt 0.101379395 0.765625
vt 0.101379395 0.765625
vt 0.101379395 0.765625
vt 0.101379395 0.765625
vt 0.101379395 0.765625
vn -0 0 1
vn -0 0 1
vn -0 0 1
vn -0 0 1
vn -0 0 1
vn -0 0 1
vn -0 0 1
vn -0 0 1
vn -0 0 1
vn -0 0 1
vn -0 0 1
vn -0 0 1
vn -0 0 1
vn -0 0 1
vn -0 0 -1
vn -0 0 -1
vn -0 0 -1
vn -0 0 -1
vn -0 0 -1
vn -0 0 -1
vn -0 0 -1
vn -0 0 -1
vn -0 0 -1
vn -0.3864746 0.8491211 -0.36010742
vn -0.40795898 0.8964844 -0.17321777
vn -0.40649414 0.8930664 -0.19213867
vn -0.3864746 0.8491211 -0.36010742
vn 0.72998047 -0.68359375 0
vn 0.7705078 -0.63427734 -0.06390381
vn 0.7661133 -0.6386719 -0.07208252
vn 0.72998047 -0.68359375 0
vn 0.7661133 -0.6386719 0.07208252
vn 0.7705078 -0.63427734 0.06390381
vn 0.38305664 0.85058594 0.36083984
vn 0.40429688 0.8979492 0.17358398
vn 0.40283203 0.89453125 0.19238281
vn 0.38305664 0.85058594 0.36083984
vn -0 0 1
vn -0 0 1
vn -0 0 1
vn -0 0 1
vn -0 0 1
vn -0 0 1
vn -0 0 1
vn -0 0 1
vn -0 0 1
vn -0 0 1
vn -0 0 -1
vn -0 0 -1
vn -0 0 -1
vn -0 0 -1
vn -0 0 -1
vn -0 0 -1
vn -0 0 -1
vn -0 0 -1
vn -0 0 -1
vn -0 0 -1
vn -0 0 1
vn -0 0 1
vn -0 0 1
vn -0 0 1
vn -0 0 1
vn -0 0 1
vn -0 0 1
vn -0 0 1
vn -0 0 1
vn -0 0 1
vn -0 0 -1
vn -0 0 -1
vn -0 0 -1
vn -0 0 -1
vn -0 0 -1
vn -0 0 -1
vn -0 0 -1
vn -0 0 -1
vn -0 0 -1
vn -0 0 -1
vn 0.30908203 0.9511719 0
vn 0.30908203 0.9511719 0
vn -0.30908203 0.9511719 0
vn -0.30908203 0.9511719 0
vn -0.80908203 0.5878906 0
vn -0.80908203 0.5878906 0
vn -1 -0.0016202927 0
vn -1 -0.0016202927 0
vn -0.81347656 -0.58154297 0
vn -0.81347656 -0.58154297 0
vn -0.60302734 -0.79785156 0
vn -0.60302734 -0.79785156 0
vn 0.59472656 -0.80371094 0
vn 0.59472656 -0.80371094 0
vn 0.8125 -0.5830078 0
vn 0.8125 -0.5830078 0
vn 1 0.0016231537 0
vn 1 0.0016231537 0
vn 0.80908203 0.5878906 0
vn 0.80908203 0.5878906 0
vn 0.30908203 0.9511719 0
vn 0.30908203 0.9511719 0
vn 0.9995117 -0.029724121 0
vn 0.9995117 -0.029724121 0
vn 0.96777344 0.25219727 0
vn 0.96777344 0.25219727 0
vn -1 0.0103302 0
vn -0.9741211 -0.22509766 0
vn -0.9741211 -0.22509766 0
vn -0.9741211 -0.22509766 0
vn -0.9741211 -0.22509766 0
vn -0.9741211 -0.22509766 0
vn -0.9741211 -0.22509766 0
vn -1 0.0103302 0
vn -0.9741211 -0.22509766 0
vn -0.9692383 0.24523926 0
vn -0.9692383 0.24523926 0
vn 0.61035156 0.7919922 0
vn 0.5185547 0.85498047 0
vn 0.61035156 0.7919922 0
vn 0.5185547 0.85498047 0
vn 0.42041016 0.90722656 0
vn 0.42041016 0.90722656 0
vn -0.42163086 0.9067383 0
vn -0.52246094 0.85253906 0
vn -0.42163086 0.9067383 0
vn -0.52246094 0.85253906 0
vn -0.6166992 0.7871094 0
vn -0.6166992 0.7871094 0
vn 0.9995117 -0.029724121 0
vn 0.9511719 -0.30932617 0
vn 0.9511719 -0.30932617 0
vn 0.9511719 -0.30932617 0
vn 0.9511719 -0.30932617 0
vn 0.9511719 -0.30932617 0
vn 0.9511719 -0.30932617 0
vn 0.9995117 -0.029724121 0
vn 0.9511719 -0.30932617 0
vn 0.40429688 0.8979492 -0.17358398
vn 0.38305664 0.85058594 -0.36083984
vn 0.38305664 0.85058594 -0.36083984
vn 0.40283203 0.89453125 -0.19238281
vn -0.40795898 0.8964844 0.17321777
vn -0.3864746 0.8491211 0.36010742
vn -0.3864746 0.8491211 0.36010742
vn -0.40649414 0.8930664 0.19213867
vn -0.40795898 0.8964844 -0.17321777
vn -0.40649414 0.8930664 -0.19213867
vn 0.38305664 0.85058594 0.36083984
vn 0.40283203 0.89453125 0.19238281
vn 0.38305664 0.85058594 0.36083984
vn 0.40429688 0.8979492 0.17358398
vn 0.40283203 0.89453125 -0.19238281
vn 0.40429688 0.8979492 -0.17358398
vn -0.796875 -0.5864258 -0.14575195
vn -0.7817383 -0.56591797 -0.26171875
vn -0.7817383 -0.56591797 -0.26171875
vn -0.7988281 -0.59033203 -0.1171875
vn -0.76660156 -0.63916016 0.06439209
vn -0.76171875 -0.6435547 0.0725708
vn -0.72509766 -0.68847656 0
vn -0.72509766 -0.68847656 0
vn -0.76171875 -0.6435547 -0.0725708
vn -0.76660156 -0.63916016 -0.06439209
vn -0.7988281 -0.59033203 0.1171875
vn -0.796875 -0.5864258 0.14575195
vn -0.7817383 -0.56591797 0.26171875
vn -0.7817383 -0.56591797 0.26171875
vn 0.78564453 -0.56152344 -0.25976562
vn 0.78564453 -0.56152344 -0.25976562
vn 0.8022461 -0.5854492 -0.11621094
vn 0.80029297 -0.58203125 -0.14477539
vn 0.7661133 -0.6386719 0.07208252
vn 0.7705078 -0.63427734 0.06390381
vn 0.40429688 0.8979492 -0.17358398
vn 0.38305664 0.85058594 -0.36083984
vn 0.38305664 0.85058594 -0.36083984
vn 0.40283203 0.89453125 -0.19238281
vn 0.40429688 0.8979492 0.17358398
vn 0.40283203 0.89453125 0.19238281
vn -0.40795898 0.8964844 0.17321777
vn -0.3864746 0.8491211 0.36010742
vn -0.3864746 0.8491211 0.36010742
vn -0.40649414 0.8930664 0.19213867
vn -0.3864746 0.8491211 -0.36010742
vn -0.40649414 0.8930664 -0.19213867
vn -0.3864746 0.8491211 -0.36010742
vn -0.40795898 0.8964844 -0.17321777
vn -0.40649414 0.8930664 0.19213867
vn -0.40795898 0.8964844 0.17321777
vn -1 0 0
vn -1 0 0
vn -1 0 0
vn -1 0 0
vn 1 0 0
vn 1 0 0
vn 1 0 0
vn 1 0 0
vn 0.80029297 -0.58203125 0.14477539
vn 0.78564453 -0.56152344 0.25976562
vn 0.78564453 -0.56152344 0.25976562
vn 0.8022461 -0.5854492 0.11621094
vn 0.7705078 -0.63427734 -0.06390381
vn 0.7661133 -0.6386719 -0.07208252
vn -0 0 -1
vn -0 0 -1
vn -0 0 -1
vn -0 0 -1
vn -0 0 -1
g Town_BG_0
f 3/3/3 2/2/2 1/1/1
f 1/1/1 4/4/4 3/3/3
f 1/1/1 5/5/5 4/4/4
f 8/8/8 7/7/7 6/6/6
f 9/9/9 8/8/8 6/6/6
f 6/6/6 10/10/10 9/9/9
f 9/9/9 10/10/10 11/11/11
f 11/11/11 10/10/10 12/12/12
f 11/11/11 12/12/12 13/13/13
f 13/13/13 14/14/14 11/11/11
f 17/17/17 16/16/16 15/15/15
f 15/15/15 18/18/18 17/17/17
f 18/18/18 19/19/19 17/17/17
f 17/17/17 19/19/19 20/20/20
f 20/20/20 19/19/19 21/21/21
f 21/21/21 22/22/22 20/20/20
f 21/21/21 23/23/23 22/22/22
f 26/26/26 25/25/25 24/24/24
f 27/27/27 26/26/26 24/24/24
f 30/30/30 29/29/29 28/28/28
f 29/29/29 31/31/31 28/28/28
f 28/28/28 31/31/31 32/32/32
f 31/31/31 33/33/33 32/32/32
f 36/36/36 35/35/35 34/34/34
f 37/37/37 36/36/36 34/34/34
f 40/40/40 39/39/39 38/38/38
f 38/38/38 41/41/41 40/40/40
f 38/38/38 42/42/42 41/41/41
f 42/42/42 43/43/43 41/41/41
f 42/42/42 44/44/44 43/43/43
f 44/44/44 45/45/45 43/43/43
f 45/45/45 46/46/46 43/43/43
f 45/45/45 47/47/47 46/46/46
f 50/50/50 49/49/49 48/48/48
f 48/48/48 51/51/51 50/50/50
f 51/51/51 52/52/52 50/50/50
f 51/51/51 53/53/53 52/52/52
f 53/53/53 54/54/54 52/52/52
f 53/53/53 55/55/55 54/54/54
f 53/53/53 56/56/56 55/55/55
f 56/56/56 57/57/57 55/55/55
f 60/60/60 59/59/59 58/58/58
f 58/58/58 61/61/61 60/60/60
f 61/61/61 62/62/62 60/60/60
f 61/61/61 63/63/63 62/62/62
f 63/63/63 64/64/64 62/62/62
f 64/64/64 65/65/65 62/62/62
f 65/65/65 66/66/66 62/62/62
f 66/66/66 67/67/67 62/62/62
f 70/70/70 69/69/69 68/68/68
f 68/68/68 71/71/71 70/70/70
f 68/68/68 72/72/72 71/71/71
f 72/72/72 73/73/73 71/71/71
f 72/72/72 74/74/74 73/73/73
f 72/72/72 75/75/75 74/74/74
f 72/72/72 76/76/76 75/75/75
f 72/72/72 77/77/77 76/76/76
f 80/80/80 79/79/79 78/78/78
f 81/81/81 80/80/80 78/78/78
f 81/81/81 82/82/82 80/80/80
f 82/82/82 83/83/83 80/80/80
f 82/82/82 84/84/84 83/83/83
f 84/84/84 85/85/85 83/83/83
f 84/84/84 86/86/86 85/85/85
f 86/86/86 87/87/87 85/85/85
f 86/86/86 88/88/88 87/87/87
f 88/88/88 89/89/89 87/87/87
f 92/92/92 91/91/91 90/90/90
f 93/93/93 92/92/92 90/90/90
f 93/93/93 94/94/94 92/92/92
f 94/94/94 95/95/95 92/92/92
f 94/94/94 96/96/96 95/95/95
f 96/96/96 97/97/97 95/95/95
f 96/96/96 98/98/98 97/97/97
f 98/98/98 99/99/99 97/97/97
f 102/102/102 101/101/101 100/100/100
f 103/103/103 102/102/102 100/100/100
f 106/106/106 105/105/105 104/104/104
f 104/104/104 107/107/107 106/106/106
f 104/104/104 108/108/108 107/107/107
f 109/109/109 107/107/107 108/108/108
f 104/104/104 110/110/110 108/108/108
f 110/110/110 104/104/104 111/111/111
f 111/111/111 112/112/112 110/110/110
f 111/111/111 104/104/104 113/113/113
f 114/114/114 111/111/111 113/113/113
f 117/117/117 116/116/116 115/115/115
f 116/116/116 118/118/118 115/115/115
f 119/119/119 118/118/118 116/116/116
f 120/120/120 119/119/119 116/116/116
f 123/123/123 122/122/122 121/121/121
f 122/122/122 124/124/124 121/121/121
f 122/122/122 125/125/125 124/124/124
f 125/125/125 126/126/126 124/124/124
f 129/129/129 128/128/128 127/127/127
f 127/127/127 130/130/130 129/129/129
f 127/127/127 131/131/131 130/130/130
f 132/132/132 130/130/130 131/131/131
f 127/127/127 133/133/133 131/131/131
f 133/133/133 127/127/127 134/134/134
f 134/134/134 135/135/135 133/133/133
f 138/138/138 137/137/137 136/136/136
f 139/139/139 138/138/138 136/136/136
f 142/142/142 141/141/141 140/140/140
f 143/143/143 142/142/142 140/140/140
f 140/140/140 144/144/144 143/143/143
f 144/144/144 145/145/145 143/143/143
f 148/148/148 147/147/147 146/146/146
f 147/147/147 149/149/149 146/146/146
f 149/149/149 147/147/147 150/150/150
f 151/151/151 149/149/149 150/150/150
f 154/154/154 153/153/153 152/152/152
f 153/153/153 155/155/155 152/152/152
f 155/155/155 156/156/156 152/152/152
f 156/156/156 157/157/157 152/152/152
f 157/157/157 156/156/156 158/158/158
f 156/156/156 159/159/159 158/158/158
f 158/158/158 159/159/159 160/160/160
f 159/159/159 161/161/161 160/160/160
f 161/161/161 162/162/162 160/160/160
f 162/162/162 163/163/163 160/160/160
f 163/163/163 162/162/162 164/164/164
f 162/162/162 165/165/165 164/164/164
f 168/168/168 167/167/167 166/166/166
f 169/169/169 168/168/168 166/166/166
f 168/168/168 169/169/169 170/170/170
f 171/171/171 168/168/168 170/170/170
f 174/174/174 173/173/173 172/172/172
f 175/175/175 174/174/174 172/172/172
f 172/172/172 176/176/176 175/175/175
f 176/176/176 177/177/177 175/175/175
f 180/180/180 179/179/179 178/178/178
f 181/181/181 180/180/180 178/178/178
f 184/184/184 183/183/183 182/182/182
f 183/183/183 185/185/185 182/182/182
f 185/185/185 183/183/183 186/186/186
f 187/187/187 185/185/185 186/186/186
f 190/190/190 189/189/189 188/188/188
f 191/191/191 190/190/190 188/188/188
f 194/194/194 193/193/193 192/192/192
f 195/195/195 194/194/194 192/192/192
f 198/198/198 197/197/197 196/196/196
f 197/197/197 199/199/199 196/196/196
f 199/199/199 200/200/200 196/196/196
f 200/200/200 201/201/201 196/196/196
f 204/204/204 203/203/203 202/202/202
f 202/202/202 205/205/205 204/204/204
f 202/202/202 206/206/206 205/205/205
