g W_bullet
v 8.710677E-08 0.016909124 -0.029287413
v 0.014643826 0.029287463 -0.008454494
v 8.710677E-08 0.029287463 -0.016909072
v 0.025363779 0.016909128 -0.014643672
v 8.4546386E-08 0.033818256 6.9475526E-08
v 0.014643826 0.029287467 0.0084546385
v -0.02536361 0.016909128 -0.014643672
v -0.014643646 0.029287463 -0.008454501
v 8.563573E-08 0.029287467 0.01690921
v -0.014643659 0.029287467 0.008454631
v 0.025363779 0.016909132 0.014643814
v -0.02536361 0.016909132 0.0146437995
v 8.261215E-08 0.016909136 0.029287556
v 8.710677E-08 -6.8772055E-09 -0.033818178
v -0.02928738 -4.1223616E-09 -0.016909067
v 0.02928757 -4.1223593E-09 -0.016909052
v 0.02928757 1.3873362E-09 0.016909216
v 8.1604284E-08 4.1421804E-09 0.033818327
v -0.0292874 1.3873336E-09 0.016909199
v 8.710677E-08 -0.01690914 -0.029287409
v 0.025363779 -0.016909136 -0.0146436505
v -0.02536361 -0.016909136 -0.014643666
v 0.025363779 -0.016909132 0.01464382
v 8.361998E-08 -0.016909128 0.02928756
v -0.02536361 -0.016909132 0.014643805
v 8.710677E-08 -0.02928748 -0.016909061
v 0.014643826 -0.02928748 -0.008454485
v -0.014643646 -0.02928748 -0.008454498
v 0.014643826 -0.029287476 0.008454648
v 8.710677E-08 -0.033818252 7.901666E-08
v -0.014643659 -0.029287476 0.00845464
v 8.361998E-08 -0.029287476 0.016909221
vt 0.09387207 0.8955078
vt 0.09387207 0.8955078
vt 0.09387207 0.8955078
vt 0.09387207 0.8955078
vt 0.09387207 0.8955078
vt 0.09387207 0.8955078
vt 0.09387207 0.8955078
vt 0.09387207 0.8955078
vt 0.09387207 0.8955078
vt 0.09387207 0.8955078
vt 0.09387207 0.8955078
vt 0.09387207 0.8955078
vt 0.09387207 0.8955078
vt 0.09387207 0.8955078
vt 0.09387207 0.8955078
vt 0.09387207 0.8955078
vt 0.09387207 0.8955078
vt 0.09387207 0.8955078
vt 0.09387207 0.8955078
vt 0.09387207 0.8955078
vt 0.09387207 0.8955078
vt 0.09387207 0.8955078
vt 0.09387207 0.8955078
vt 0.09387207 0.8955078
vt 0.09387207 0.8955078
vt 0.09387207 0.8955078
vt 0.09387207 0.8955078
vt 0.09387207 0.8955078
vt 0.09387207 0.8955078
vt 0.09387207 0.8955078
vt 0.09387207 0.8955078
vt 0.09387207 0.8955078
vn -0 0.46704102 -0.88427734
vn 0.48364258 0.82958984 -0.27929688
vn -0 0.82958984 -0.55859375
vn 0.765625 0.46704102 -0.44213867
vn -0 1 0
vn 0.48364258 0.82958984 0.27929688
vn -0.765625 0.46704102 -0.44213867
vn -0.48364258 0.82958984 -0.27929688
vn -0 0.82958984 0.55859375
vn -0.48364258 0.82958984 0.27929688
vn 0.765625 0.46704102 0.44213867
vn -0.765625 0.46704102 0.44213867
vn -0 0.46704102 0.88427734
vn -0 0 -1
vn -0.86621094 0 -0.5
vn 0.86621094 0 -0.5
vn 0.86621094 0 0.5
vn -0 0 1
vn -0.86621094 0 0.5
vn -0 -0.46704102 -0.88427734
vn 0.765625 -0.46704102 -0.44213867
vn -0.765625 -0.46704102 -0.44213867
vn 0.765625 -0.46704102 0.44213867
vn -0 -0.46704102 0.88427734
vn -0.765625 -0.46704102 0.44213867
vn -0 -0.82958984 -0.55859375
vn 0.48364258 -0.82958984 -0.27929688
vn -0.48364258 -0.82958984 -0.27929688
vn 0.48364258 -0.82958984 0.27929688
vn -0 -1 0
vn -0.48364258 -0.82958984 0.27929688
vn -0 -0.82958984 0.55859375
g W_bullet_0
f 3/3/3 2/2/2 1/1/1
f 2/2/2 4/4/4 1/1/1
f 5/5/5 2/2/2 3/3/3
f 2/2/2 6/6/6 4/4/4
f 5/5/5 6/6/6 2/2/2
f 3/3/3 1/1/1 7/7/7
f 5/5/5 3/3/3 8/8/8
f 8/8/8 3/3/3 7/7/7
f 5/5/5 9/9/9 6/6/6
f 5/5/5 8/8/8 10/10/10
f 5/5/5 10/10/10 9/9/9
f 6/6/6 9/9/9 11/11/11
f 6/6/6 11/11/11 4/4/4
f 10/10/10 8/8/8 12/12/12
f 8/8/8 7/7/7 12/12/12
f 9/9/9 10/10/10 13/13/13
f 9/9/9 13/13/13 11/11/11
f 10/10/10 12/12/12 13/13/13
f 1/1/1 4/4/4 14/14/14
f 7/7/7 1/1/1 15/15/15
f 1/1/1 14/14/14 15/15/15
f 4/4/4 11/11/11 16/16/16
f 4/4/4 16/16/16 14/14/14
f 11/11/11 13/13/13 17/17/17
f 11/11/11 17/17/17 16/16/16
f 13/13/13 12/12/12 18/18/18
f 13/13/13 18/18/18 17/17/17
f 12/12/12 7/7/7 19/19/19
f 7/7/7 15/15/15 19/19/19
f 12/12/12 19/19/19 18/18/18
f 14/14/14 16/16/16 20/20/20
f 16/16/16 17/17/17 21/21/21
f 16/16/16 21/21/21 20/20/20
f 15/15/15 14/14/14 22/22/22
f 14/14/14 20/20/20 22/22/22
f 17/17/17 18/18/18 23/23/23
f 17/17/17 23/23/23 21/21/21
f 18/18/18 19/19/19 24/24/24
f 18/18/18 24/24/24 23/23/23
f 19/19/19 15/15/15 25/25/25
f 15/15/15 22/22/22 25/25/25
f 19/19/19 25/25/25 24/24/24
f 20/20/20 21/21/21 26/26/26
f 21/21/21 23/23/23 27/27/27
f 21/21/21 27/27/27 26/26/26
f 22/22/22 20/20/20 28/28/28
f 20/20/20 26/26/26 28/28/28
f 23/23/23 24/24/24 29/29/29
f 23/23/23 29/29/29 27/27/27
f 26/26/26 27/27/27 30/30/30
f 28/28/28 26/26/26 30/30/30
f 27/27/27 29/29/29 30/30/30
f 22/22/22 28/28/28 31/31/31
f 25/25/25 22/22/22 31/31/31
f 31/31/31 28/28/28 30/30/30
f 24/24/24 32/32/32 29/29/29
f 24/24/24 25/25/25 32/32/32
f 29/29/29 32/32/32 30/30/30
f 25/25/25 31/31/31 32/32/32
f 32/32/32 31/31/31 30/30/30
