g Wall
v 0.259744 0.9848824 0.4992741
v -0.22538686 -0.015582058 0.49975806
v -0.22538686 0.9848825 0.49975792
v 0.259744 -0.015582004 0.49927425
v 0.48187783 -0.015582004 0.49927425
v 0.48187783 0.9848824 0.4992741
v -0.22538686 0.9848818 -3.500242
v 0.259744 0.98488176 -3.5000005
v 0.259744 4.3829656 -3.500001
v -0.22538686 4.3829656 -3.4995172
v 0.259744 -0.015582655 -3.5000002
v 0.48187783 -0.015582655 -3.5000002
v 0.48187783 0.98488176 -3.5000005
v 0.259744 0.98488176 -3.5000005
v -0.22538686 0.9848818 -3.500242
v -0.22538686 -0.015582709 -3.4995165
v 0.259744 0.9848824 0.4992741
v -0.22538686 0.9848825 0.49975792
v -0.22538686 4.382966 0.49975735
v 0.259744 4.382966 0.49927354
v 0.259744 -0.015582004 0.49927425
v 0.48187783 -0.015582004 0.49927425
v 0.48187783 -0.015582655 -3.5000002
v 0.259744 -0.015582655 -3.5000002
v -0.22538686 -0.015582709 -3.4995165
v -0.22538686 -0.015582058 0.49975806
v 0.39203334 0.8786592 -3.3875546
v 0.39203334 0.09686296 -3.3875544
v 0.39203334 0.09686357 0.3868285
v 0.39203334 0.8786598 0.3868284
v 0.39203334 0.09686357 0.3868285
v 0.39203334 0.09686296 -3.3875544
v 0.48187783 0.09686296 -3.3875544
v 0.48187783 0.09686357 0.3868285
v 0.39203334 0.09686296 -3.3875544
v 0.39203334 0.8786592 -3.3875546
v 0.48187783 0.8786592 -3.3875546
v 0.48187783 0.09686296 -3.3875544
v 0.39203334 0.8786598 0.3868284
v 0.39203334 0.09686357 0.3868285
v 0.48187783 0.09686357 0.3868285
v 0.48187783 0.8786598 0.3868284
v 0.259744 4.3829656 -3.500001
v 0.259744 4.382966 0.49927354
v -0.22538686 4.382966 0.49975735
v -0.22538686 4.3829656 -3.4995172
v -0.23057012 4.384418 0.49999887
v -0.23057012 4.3844175 -3.5000017
v -0.23057012 6.3844175 -3.500002
v -0.23057012 6.384418 0.49999854
v 0.20942986 4.384418 0.49999887
v -0.23057012 4.384418 0.49999887
v -0.23057012 6.384418 0.49999854
v 0.20942986 6.384418 0.49999854
v -0.23057012 4.3844175 -3.5000017
v 0.20942986 4.3844175 -3.5000017
v 0.20942986 6.3844175 -3.5000014
v -0.23057012 6.3844175 -3.500002
v -0.23057012 6.384418 0.49999854
v -0.23057012 6.3844175 -3.500002
v 0.20942986 6.3844175 -3.5000014
v 0.20942986 6.384418 0.49999854
v 0.20942986 4.4844174 -3.4000018
v 0.10322642 4.4844174 -3.4000018
v 0.10322642 6.2844176 -3.4000015
v 0.20942986 6.2844176 -3.4000015
v 0.20942986 6.284418 0.39999858
v 0.20942986 6.384418 0.49999854
v 0.20942986 6.3844175 -3.5000014
v 0.20942986 6.2844176 -3.4000015
v 0.20942986 6.2844176 -3.4000015
v 0.20942986 6.3844175 -3.5000014
v 0.20942986 4.3844175 -3.5000017
v 0.20942986 4.4844174 -3.4000018
v 0.20942986 4.484418 0.39999884
v 0.20942986 6.384418 0.49999854
v 0.20942986 6.284418 0.39999858
v 0.20942986 4.384418 0.49999887
v 0.20942986 4.4844174 -3.4000018
v 0.20942986 4.3844175 -3.5000017
v 0.20942986 4.484418 0.39999884
v 0.10322642 6.2844176 -3.4000015
v 0.10322642 4.4844174 -3.4000018
v 0.10322642 4.484418 0.39999884
v 0.10322642 6.284418 0.39999858
v 0.20942986 6.284418 0.39999858
v 0.10322642 6.284418 0.39999858
v 0.10322642 4.484418 0.39999884
v 0.20942986 4.484418 0.39999884
v 0.20942986 6.2844176 -3.4000015
v 0.10322642 6.2844176 -3.4000015
v 0.10322642 6.284418 0.39999858
v 0.20942986 6.284418 0.39999858
v 0.20942986 4.484418 0.39999884
v 0.10322642 4.484418 0.39999884
v 0.10322642 4.4844174 -3.4000018
v 0.20942986 4.4844174 -3.4000018
v 0.259744 3.7429156 -0.19206502
v 0.259744 3.7429152 -2.8086622
v 0.259744 1.6162275 -2.8086617
v 0.259744 1.616228 -0.19206467
v 0.259744 0.98488176 -3.5000005
v 0.48187783 0.98488176 -3.5000005
v 0.48187783 0.9848824 0.4992741
v 0.259744 0.9848824 0.4992741
v 0.39203334 0.8786592 -3.3875546
v 0.39203334 0.8786598 0.3868284
v 0.48187783 0.8786598 0.3868284
v 0.48187783 0.8786592 -3.3875546
v 0.259744 1.0935869 -3.3825903
v 0.259744 0.98488176 -3.5000005
v 0.259744 0.9848824 0.4992741
v 0.259744 1.0935876 0.38186353
v 0.259744 4.2655554 -3.3825908
v 0.259744 4.382966 0.49927354
v 0.259744 4.3829656 -3.500001
v 0.259744 4.265556 0.38186303
v 0.259744 1.2735616 -3.1866722
v 0.259744 4.085581 -3.1866727
v 0.259744 4.2655554 -3.3825908
v 0.259744 1.0935869 -3.3825903
v 0.259744 4.265556 0.38186303
v 0.259744 1.2735621 0.18594542
v 0.259744 4.0855813 0.18594496
v 0.259744 1.0935876 0.38186353
v 0.259744 1.439188 -3.0058687
v 0.259744 3.9199548 -3.0058692
v 0.259744 4.085581 -3.1866727
v 0.259744 1.2735616 -3.1866722
v 0.259744 4.0855813 0.18594496
v 0.259744 1.4391885 0.005141739
v 0.259744 3.9199553 0.005141335
v 0.259744 1.2735621 0.18594542
v 0.48187783 0.9848824 0.4992741
v 0.48187783 0.8786598 0.3868284
v 0.48187783 0.09686357 0.3868285
v 0.48187783 -0.015582004 0.49927425
v 0.48187783 0.98488176 -3.5000005
v 0.48187783 0.09686296 -3.3875544
v 0.48187783 0.8786592 -3.3875546
v 0.48187783 -0.015582655 -3.5000002
v 0.259744 1.6162275 -2.8086617
v 0.259744 3.7429152 -2.8086622
v 0.259744 3.9199548 -3.0058692
v 0.259744 1.439188 -3.0058687
v 0.259744 3.9199553 0.005141335
v 0.259744 1.616228 -0.19206467
v 0.259744 3.7429156 -0.19206502
v 0.259744 1.4391885 0.005141739
vt 0.043043822 0.90376407
vt 0.043043822 0.90376407
vt 0.043043822 0.90376407
vt 0.043043822 0.9037641
vt 0.043043822 0.9037641
vt 0.043043822 0.90376407
vt 0.04976215 0.85930395
vt 0.04976215 0.85930395
vt 0.04976215 0.859304
vt 0.04976215 0.85930395
vt 0.043043822 0.90376407
vt 0.043043822 0.90376407
vt 0.043043822 0.9037641
vt 0.043043822 0.9037641
vt 0.043043822 0.90376407
vt 0.043043822 0.90376407
vt 0.04976215 0.859304
vt 0.04976215 0.85930395
vt 0.04976215 0.85930395
vt 0.04976215 0.85930395
vt 0.043043822 0.90376407
vt 0.043043822 0.90376407
vt 0.043043822 0.9037641
vt 0.043043822 0.9037641
vt 0.043043822 0.90376407
vt 0.043043822 0.90376407
vt 0.14381205 0.873759
vt 0.14381205 0.873759
vt 0.14381205 0.873759
vt 0.14381205 0.873759
vt 0.14381205 0.873759
vt 0.14381205 0.873759
vt 0.14381205 0.873759
vt 0.14381205 0.873759
vt 0.14381205 0.873759
vt 0.14381205 0.873759
vt 0.14381205 0.873759
vt 0.14381205 0.873759
vt 0.14381205 0.873759
vt 0.14381205 0.873759
vt 0.14381205 0.873759
vt 0.14381205 0.873759
vt 0.04976215 0.85930395
vt 0.04976215 0.859304
vt 0.04976215 0.85930395
vt 0.04976215 0.85930395
vt 0.028320402 0.87695307
vt 0.028320402 0.87695307
vt 0.028320402 0.87695307
vt 0.028320402 0.87695307
vt 0.028320402 0.87695307
vt 0.028320402 0.87695307
vt 0.028320402 0.87695307
vt 0.028320402 0.87695307
vt 0.028320402 0.87695307
vt 0.028320402 0.87695307
vt 0.028320402 0.87695307
vt 0.028320402 0.87695307
vt 0.028320402 0.87695307
vt 0.028320402 0.87695307
vt 0.028320402 0.87695307
vt 0.028320402 0.87695307
vt 0.0283204 0.876953
vt 0.0283204 0.876953
vt 0.028320406 0.8769531
vt 0.028320406 0.8769531
vt 0.028320404 0.8769531
vt 0.028320402 0.87695307
vt 0.028320402 0.87695307
vt 0.028320406 0.8769531
vt 0.028320406 0.8769531
vt 0.028320402 0.87695307
vt 0.028320402 0.87695307
vt 0.0283204 0.876953
vt 0.028320402 0.8769531
vt 0.028320402 0.87695307
vt 0.028320404 0.8769531
vt 0.028320402 0.87695307
vt 0.0283204 0.876953
vt 0.028320402 0.87695307
vt 0.028320402 0.8769531
vt 0.1162934 0.8800291
vt 0.11629339 0.88002896
vt 0.11629339 0.8800291
vt 0.11629339 0.8800291
vt 0.028320404 0.8769531
vt 0.028320404 0.8769531
vt 0.028320402 0.8769531
vt 0.028320402 0.8769531
vt 0.028320406 0.8769531
vt 0.028320406 0.8769531
vt 0.028320404 0.8769531
vt 0.028320404 0.8769531
vt 0.028320402 0.8769531
vt 0.028320402 0.8769531
vt 0.0283204 0.876953
vt 0.0283204 0.876953
vt 0.116572306 0.73239106
vt 0.116572306 0.73239106
vt 0.116572306 0.73239106
vt 0.116572306 0.73239106
vt 0.04976215 0.85930395
vt 0.04976215 0.85930395
vt 0.04976215 0.85930395
vt 0.04976215 0.85930395
vt 0.14381205 0.873759
vt 0.14381205 0.873759
vt 0.14381205 0.873759
vt 0.14381205 0.873759
vt 0.04976215 0.85930395
vt 0.04976215 0.85930395
vt 0.04976215 0.859304
vt 0.04976215 0.85930395
vt 0.04976215 0.85930395
vt 0.04976215 0.85930395
vt 0.04976215 0.85930395
vt 0.04976215 0.85930395
vt 0.11349633 0.70448244
vt 0.11349633 0.70448244
vt 0.11349633 0.70448244
vt 0.11349633 0.70448244
vt 0.11349633 0.70448244
vt 0.11349633 0.70448244
vt 0.11349633 0.70448244
vt 0.11349633 0.70448244
vt 0.26562497 0.955078
vt 0.26562497 0.955078
vt 0.26562497 0.955078
vt 0.26562497 0.955078
vt 0.26562497 0.955078
vt 0.26562497 0.955078
vt 0.26562497 0.955078
vt 0.26562497 0.955078
vt 0.043043822 0.90376407
vt 0.043043822 0.90376407
vt 0.043043822 0.90376407
vt 0.043043822 0.9037641
vt 0.043043822 0.90376407
vt 0.043043822 0.90376407
vt 0.043043822 0.90376407
vt 0.043043822 0.90376407
vt 0.042968746 0.939453
vt 0.042968746 0.939453
vt 0.042968746 0.939453
vt 0.042968746 0.939453
vt 0.042968746 0.939453
vt 0.042968746 0.939453
vt 0.042968746 0.939453
vt 0.042968746 0.939453
vn 0.0009972514 0 0.9999995
vn 0.0009972514 0 0.9999995
vn 0.0009972514 0 0.9999995
vn 0.0009972514 0 0.9999995
vn -0 0 1
vn -0 0 1
vn -0.00024991418 0.00010657706 -1
vn -0.00024991418 0.00010657706 -1
vn -0.00024991418 0.00010657706 -1
vn -0.00024991418 0.00010657706 -1
vn -0 0 -1
vn -0 0 -1
vn -0 0 -1
vn -0 0 -1
vn -0.00024944003 -0.00036270462 -0.9999999
vn -0.00024944003 -0.00036270462 -0.9999999
vn 0.00099727 0 0.9999995
vn 0.00099727 0 0.9999995
vn 0.00099727 0 0.9999995
vn 0.00099727 0 0.9999995
vn -0 -1 0
vn -0 -1 0
vn -0 -1 0
vn -0 -1 0
vn -0 -1 0
vn -0 -1 0
vn 1 0 0
vn 1 0 0
vn 1 0 0
vn 1 0 0
vn -0 1 0
vn -0 1 0
vn -0 1 0
vn -0 1 0
vn -0 0 1
vn -0 0 1
vn -0 0 1
vn -0 0 1
vn -0 0 -1
vn -0 0 -1
vn -0 0 -1
vn -0 0 -1
vn -0 1 0
vn -0 1 0
vn -0 1 0
vn -0 1 0
vn -1 0 0
vn -1 0 0
vn -1 0 0
vn -1 0 0
vn -0 0 1
vn -0 0 1
vn -0 0 1
vn -0 0 1
vn -0 0 -1
vn -0 0 -1
vn -0 0 -1
vn -0 0 -1
vn -0 1 0
vn -0 1 0
vn -0 1 0
vn -0 1 0
vn -0 0 1
vn -0 0 1
vn -0 0 1
vn -0 0 1
vn 1 0 0
vn 1 0 0
vn 1 0 0
vn 1 0 0
vn 1 0 0
vn 1 0 0
vn 1 0 0
vn 1 0 0
vn 1 0 0
vn 1 0 0
vn 1 0 0
vn 1 0 0
vn 1 0 0
vn 1 0 0
vn 1 0 0
vn 1 0 0
vn 1 0 0
vn 1 0 0
vn 1 0 0
vn -0 0 -1
vn -0 0 -1
vn -0 0 -1
vn -0 0 -1
vn -0 -1 0
vn -0 -1 0
vn -0 -1 0
vn -0 -1 0
vn -0 1 0
vn -0 1 0
vn -0 1 0
vn -0 1 0
vn 1 0 0
vn 1 0 0
vn 1 0 0
vn 1 0 0
vn -0 1 0
vn -0 1 0
vn -0 1 0
vn -0 1 0
vn -0 -1 0
vn -0 -1 0
vn -0 -1 0
vn -0 -1 0
vn 1 0 0
vn 1 0 0
vn 1 0 0
vn 1 0 0
vn 1 0 0
vn 1 0 0
vn 1 0 0
vn 1 0 0
vn 1 0 0
vn 1 0 0
vn 1 0 0
vn 1 0 0
vn 1 0 0
vn 1 0 0
vn 1 0 0
vn 1 0 0
vn 1 0 0
vn 1 0 0
vn 1 0 0
vn 1 0 0
vn 1 0 0
vn 1 0 0
vn 1 0 0
vn 1 0 0
vn 1 0 0
vn 1 0 0
vn 1 0 0
vn 1 0 0
vn 1 0 0
vn 1 0 0
vn 1 0 0
vn 1 0 0
vn 1 0 0
vn 1 0 0
vn 1 0 0
vn 1 0 0
vn 1 0 0
vn 1 0 0
vn 1 0 0
vn 1 0 0
g Wall_0
f 3/3/3 2/2/2 1/1/1
f 2/2/2 4/4/4 1/1/1
f 4/4/4 5/5/5 1/1/1
f 5/5/5 6/6/6 1/1/1
f 9/9/9 8/8/8 7/7/7
f 10/10/10 9/9/9 7/7/7
f 13/13/13 12/12/12 11/11/11
f 14/14/14 13/13/13 11/11/11
f 14/14/14 11/11/11 15/15/15
f 11/11/11 16/16/16 15/15/15
f 19/19/19 18/18/18 17/17/17
f 20/20/20 19/19/19 17/17/17
f 23/23/23 22/22/22 21/21/21
f 24/24/24 23/23/23 21/21/21
f 24/24/24 21/21/21 25/25/25
f 21/21/21 26/26/26 25/25/25
f 29/29/29 28/28/28 27/27/27
f 30/30/30 29/29/29 27/27/27
f 33/33/33 32/32/32 31/31/31
f 34/34/34 33/33/33 31/31/31
f 37/37/37 36/36/36 35/35/35
f 38/38/38 37/37/37 35/35/35
f 41/41/41 40/40/40 39/39/39
f 42/42/42 41/41/41 39/39/39
f 45/45/45 44/44/44 43/43/43
f 46/46/46 45/45/45 43/43/43
f 49/49/49 48/48/48 47/47/47
f 50/50/50 49/49/49 47/47/47
f 53/53/53 52/52/52 51/51/51
f 54/54/54 53/53/53 51/51/51
f 57/57/57 56/56/56 55/55/55
f 58/58/58 57/57/57 55/55/55
f 61/61/61 60/60/60 59/59/59
f 62/62/62 61/61/61 59/59/59
f 65/65/65 64/64/64 63/63/63
f 66/66/66 65/65/65 63/63/63
f 69/69/69 68/68/68 67/67/67
f 70/70/70 69/69/69 67/67/67
f 73/73/73 72/72/72 71/71/71
f 74/74/74 73/73/73 71/71/71
f 77/77/77 76/76/76 75/75/75
f 76/76/76 78/78/78 75/75/75
f 78/78/78 80/80/80 79/79/79
f 81/81/81 78/78/78 79/79/79
f 84/84/84 83/83/83 82/82/82
f 85/85/85 84/84/84 82/82/82
f 88/88/88 87/87/87 86/86/86
f 89/89/89 88/88/88 86/86/86
f 92/92/92 91/91/91 90/90/90
f 93/93/93 92/92/92 90/90/90
f 96/96/96 95/95/95 94/94/94
f 97/97/97 96/96/96 94/94/94
f 100/100/100 99/99/99 98/98/98
f 101/101/101 100/100/100 98/98/98
f 104/104/104 103/103/103 102/102/102
f 105/105/105 104/104/104 102/102/102
f 108/108/108 107/107/107 106/106/106
f 109/109/109 108/108/108 106/106/106
f 112/112/112 111/111/111 110/110/110
f 113/113/113 112/112/112 110/110/110
f 114/114/114 110/110/110 111/111/111
f 112/112/112 113/113/113 115/115/115
f 116/116/116 114/114/114 111/111/111
f 113/113/113 117/117/117 115/115/115
f 117/117/117 114/114/114 116/116/116
f 115/115/115 117/117/117 116/116/116
f 120/120/120 119/119/119 118/118/118
f 121/121/121 120/120/120 118/118/118
f 120/120/120 122/122/122 119/119/119
f 121/121/121 118/118/118 123/123/123
f 122/122/122 124/124/124 119/119/119
f 125/125/125 121/121/121 123/123/123
f 125/125/125 123/123/123 124/124/124
f 122/122/122 125/125/125 124/124/124
f 128/128/128 127/127/127 126/126/126
f 129/129/129 128/128/128 126/126/126
f 128/128/128 130/130/130 127/127/127
f 129/129/129 126/126/126 131/131/131
f 130/130/130 132/132/132 127/127/127
f 133/133/133 129/129/129 131/131/131
f 133/133/133 131/131/131 132/132/132
f 130/130/130 133/133/133 132/132/132
f 136/136/136 135/135/135 134/134/134
f 137/137/137 136/136/136 134/134/134
f 138/138/138 134/134/134 135/135/135
f 139/139/139 136/136/136 137/137/137
f 140/140/140 138/138/138 135/135/135
f 141/141/141 139/139/139 137/137/137
f 138/138/138 140/140/140 141/141/141
f 140/140/140 139/139/139 141/141/141
f 144/144/144 143/143/143 142/142/142
f 145/145/145 144/144/144 142/142/142
f 144/144/144 146/146/146 143/143/143
f 145/145/145 142/142/142 147/147/147
f 146/146/146 148/148/148 143/143/143
f 149/149/149 145/145/145 147/147/147
f 149/149/149 147/147/147 148/148/148
f 146/146/146 149/149/149 148/148/148
