g water
v -50 -6.7883616E-06 -41.666664
v -50 -8.146034E-06 -50
v -41.666664 -8.146034E-06 -50
v -41.666664 -6.7883616E-06 -41.666664
v -50 -5.4306893E-06 -33.333332
v -33.333332 -8.146034E-06 -50
v -41.666664 -5.4306893E-06 -33.333332
v -50 -4.073017E-06 -24.999998
v -33.333332 -6.7883616E-06 -41.666664
v -24.999998 -8.146034E-06 -50
v -41.666664 -4.073017E-06 -24.999998
v -50 -2.7153446E-06 -16.666666
v -33.333332 -5.4306893E-06 -33.333332
v -24.999998 -6.7883616E-06 -41.666664
v -16.666666 -8.146034E-06 -50
v -41.666664 -2.7153446E-06 -16.666666
v -50 -1.3576723E-06 -8.333333
v -33.333332 -4.073017E-06 -24.999998
v -16.666666 -6.7883616E-06 -41.666664
v -8.333333 -8.146034E-06 -50
v -24.999998 -5.4306893E-06 -33.333332
v -41.666664 -1.3576723E-06 -8.333333
v -50 0 0
v -8.333333 -6.7883616E-06 -41.666664
v -0 -8.146034E-06 -50
v -33.333332 -2.7153446E-06 -16.666666
v -24.999998 -4.073017E-06 -24.999998
v -16.666666 -5.4306893E-06 -33.333332
v -41.666664 0 0
v -50 1.3576723E-06 8.333333
v -0 -6.7883616E-06 -41.666664
v 8.333333 -8.146034E-06 -50
v -33.333332 -1.3576723E-06 -8.333333
v -24.999998 -2.7153446E-06 -16.666666
v -16.666666 -4.073017E-06 -24.999998
v -8.333333 -5.4306893E-06 -33.333332
v -41.666664 1.3576723E-06 8.333333
v -50 2.7153446E-06 16.666666
v 8.333333 -6.7883616E-06 -41.666664
v 16.666666 -8.146034E-06 -50
v -33.333332 0 0
v -24.999998 -1.3576723E-06 -8.333333
v -16.666666 -2.7153446E-06 -16.666666
v -8.333333 -4.073017E-06 -24.999998
v -0 -5.4306893E-06 -33.333332
v 16.666666 -6.7883616E-06 -41.666664
v 24.999998 -8.146034E-06 -50
v 8.333333 -5.4306893E-06 -33.333332
v -0 -4.073017E-06 -24.999998
v -8.333333 -2.7153446E-06 -16.666666
v -16.666666 -1.3576723E-06 -8.333333
v 24.999998 -6.7883616E-06 -41.666664
v 33.333332 -8.146034E-06 -50
v 16.666666 -5.4306893E-06 -33.333332
v 8.333333 -4.073017E-06 -24.999998
v -0 -2.7153446E-06 -16.666666
v 33.333332 -6.7883616E-06 -41.666664
v 41.666664 -8.146034E-06 -50
v 24.999998 -5.4306893E-06 -33.333332
v 16.666666 -4.073017E-06 -24.999998
v 41.666664 -6.7883616E-06 -41.666664
v 50 -8.146034E-06 -50
v 50 -6.7883616E-06 -41.666664
v 33.333332 -5.4306893E-06 -33.333332
v 41.666664 -5.4306893E-06 -33.333332
v 50 -5.4306893E-06 -33.333332
v 24.999998 -4.073017E-06 -24.999998
v 8.333333 -2.7153446E-06 -16.666666
v 41.666664 -4.073017E-06 -24.999998
v 50 -4.073017E-06 -24.999998
v 33.333332 -4.073017E-06 -24.999998
v 16.666666 -2.7153446E-06 -16.666666
v 41.666664 -2.7153446E-06 -16.666666
v 50 -2.7153446E-06 -16.666666
v 33.333332 -2.7153446E-06 -16.666666
v 24.999998 -2.7153446E-06 -16.666666
v 41.666664 -1.3576723E-06 -8.333333
v 50 -1.3576723E-06 -8.333333
v 33.333332 -1.3576723E-06 -8.333333
v 24.999998 -1.3576723E-06 -8.333333
v 16.666666 -1.3576723E-06 -8.333333
v 8.333333 -1.3576723E-06 -8.333333
v 41.666664 0 0
v 50 0 0
v 33.333332 0 0
v 24.999998 0 0
v 16.666666 0 0
v 41.666664 1.3576723E-06 8.333333
v 50 1.3576723E-06 8.333333
v 33.333332 1.3576723E-06 8.333333
v 24.999998 1.3576723E-06 8.333333
v 41.666664 2.7153446E-06 16.666666
v 50 2.7153446E-06 16.666666
v 33.333332 2.7153446E-06 16.666666
v 41.666664 4.073017E-06 24.999998
v 50 4.073017E-06 24.999998
v 8.333333 0 0
v 16.666666 1.3576723E-06 8.333333
v 24.999998 2.7153446E-06 16.666666
v 33.333332 4.073017E-06 24.999998
v 41.666664 5.4306893E-06 33.333332
v 50 5.4306893E-06 33.333332
v 8.333333 1.3576723E-06 8.333333
v 16.666666 2.7153446E-06 16.666666
v 24.999998 4.073017E-06 24.999998
v 33.333332 5.4306893E-06 33.333332
v 41.666664 6.7883616E-06 41.666664
v 50 6.7883616E-06 41.666664
v 41.666664 8.146034E-06 50
v 50 8.146034E-06 50
v 33.333332 8.146034E-06 50
v 33.333332 6.7883616E-06 41.666664
v 24.999998 8.146034E-06 50
v 24.999998 6.7883616E-06 41.666664
v 16.666666 8.146034E-06 50
v 24.999998 5.4306893E-06 33.333332
v 16.666666 6.7883616E-06 41.666664
v 8.333333 8.146034E-06 50
v 16.666666 5.4306893E-06 33.333332
v 8.333333 6.7883616E-06 41.666664
v -0 8.146034E-06 50
v 16.666666 4.073017E-06 24.999998
v -0 6.7883616E-06 41.666664
v -8.333333 8.146034E-06 50
v 8.333333 5.4306893E-06 33.333332
v 8.333333 4.073017E-06 24.999998
v -8.333333 6.7883616E-06 41.666664
v -16.666666 8.146034E-06 50
v -0 5.4306893E-06 33.333332
v 8.333333 2.7153446E-06 16.666666
v -16.666666 6.7883616E-06 41.666664
v -24.999998 8.146034E-06 50
v -8.333333 5.4306893E-06 33.333332
v -0 4.073017E-06 24.999998
v -0 2.7153446E-06 16.666666
v -24.999998 6.7883616E-06 41.666664
v -33.333332 8.146034E-06 50
v -16.666666 5.4306893E-06 33.333332
v -8.333333 4.073017E-06 24.999998
v -0 1.3576723E-06 8.333333
v -33.333332 6.7883616E-06 41.666664
v -41.666664 8.146034E-06 50
v -24.999998 5.4306893E-06 33.333332
v -8.333333 2.7153446E-06 16.666666
v -16.666666 4.073017E-06 24.999998
v -0 0 0
v -41.666664 6.7883616E-06 41.666664
v -50 8.146034E-06 50
v -50 6.7883616E-06 41.666664
v -33.333332 5.4306893E-06 33.333332
v -41.666664 5.4306893E-06 33.333332
v -50 5.4306893E-06 33.333332
v -24.999998 4.073017E-06 24.999998
v -41.666664 4.073017E-06 24.999998
v -50 4.073017E-06 24.999998
v -33.333332 4.073017E-06 24.999998
v -16.666666 2.7153446E-06 16.666666
v -41.666664 2.7153446E-06 16.666666
v -33.333332 2.7153446E-06 16.666666
v -24.999998 2.7153446E-06 16.666666
v -33.333332 1.3576723E-06 8.333333
v -8.333333 1.3576723E-06 8.333333
v -24.999998 1.3576723E-06 8.333333
v -24.999998 0 0
v -16.666666 1.3576723E-06 8.333333
v -16.666666 0 0
v -8.333333 0 0
v -8.333333 -1.3576723E-06 -8.333333
v -0 -1.3576723E-06 -8.333333
vt 0 0.9166666
vt 0 1
vt 0.08333333 1
vt 0.08333333 0.9166666
vt 0 0.8333333
vt 0.16666666 1
vt 0.08333333 0.8333333
vt 0 0.75
vt 0.16666666 0.9166666
vt 0.24999999 1
vt 0.08333333 0.75
vt 0 0.6666666
vt 0.16666666 0.8333333
vt 0.24999999 0.9166667
vt 0.3333333 1
vt 0.08333333 0.6666666
vt 0 0.5833333
vt 0.16666666 0.75
vt 0.3333333 0.9166667
vt 0.41666663 1
vt 0.24999999 0.8333334
vt 0.08333333 0.5833333
vt 0 0.49999997
vt 0.41666663 0.9166667
vt 0.49999997 1
vt 0.16666666 0.6666666
vt 0.24999999 0.75
vt 0.3333333 0.8333334
vt 0.08333333 0.49999997
vt 0 0.41666663
vt 0.49999997 0.9166667
vt 0.5833333 1
vt 0.16666666 0.5833333
vt 0.24999999 0.6666666
vt 0.3333333 0.75
vt 0.41666663 0.8333334
vt 0.08333333 0.41666663
vt 0 0.3333333
vt 0.5833333 0.9166667
vt 0.6666666 1
vt 0.16666666 0.49999997
vt 0.24999999 0.5833333
vt 0.3333333 0.6666667
vt 0.41666663 0.75
vt 0.49999997 0.8333334
vt 0.6666666 0.9166667
vt 0.75 1
vt 0.5833333 0.8333334
vt 0.49999997 0.75
vt 0.41666663 0.6666667
vt 0.3333333 0.5833334
vt 0.75 0.9166667
vt 0.8333333 1
vt 0.6666666 0.8333334
vt 0.5833333 0.75
vt 0.49999997 0.6666667
vt 0.8333333 0.9166667
vt 0.9166666 1
vt 0.75 0.8333334
vt 0.6666666 0.75
vt 0.9166666 0.9166667
vt 1 1
vt 1 0.9166667
vt 0.8333333 0.8333334
vt 0.9166666 0.8333334
vt 1 0.8333334
vt 0.75 0.75
vt 0.5833333 0.6666667
vt 0.9166666 0.75
vt 1 0.75
vt 0.8333333 0.75
vt 0.6666666 0.6666667
vt 0.9166666 0.6666667
vt 1 0.6666667
vt 0.8333333 0.6666667
vt 0.75 0.6666667
vt 0.9166666 0.5833334
vt 1 0.5833334
vt 0.8333333 0.5833334
vt 0.75 0.5833334
vt 0.6666666 0.5833334
vt 0.5833333 0.5833334
vt 0.9166666 0.5
vt 1 0.5
vt 0.8333333 0.5
vt 0.75 0.5
vt 0.6666666 0.5
vt 0.9166666 0.4166667
vt 1 0.4166667
vt 0.8333333 0.4166667
vt 0.75 0.4166667
vt 0.9166666 0.33333334
vt 1 0.33333334
vt 0.8333333 0.33333334
vt 0.9166666 0.25
vt 1 0.25
vt 0.5833333 0.5
vt 0.6666666 0.4166667
vt 0.75 0.33333334
vt 0.8333334 0.25
vt 0.9166667 0.16666667
vt 1 0.16666667
vt 0.5833333 0.4166667
vt 0.6666666 0.33333334
vt 0.75 0.25
vt 0.8333334 0.16666667
vt 0.9166667 0.083333336
vt 1 0.083333336
vt 0.9166667 0
vt 1 0
vt 0.8333334 0
vt 0.8333334 0.083333336
vt 0.75 0
vt 0.75 0.083333336
vt 0.6666667 0
vt 0.75 0.16666667
vt 0.6666666 0.083333336
vt 0.5833334 0
vt 0.6666666 0.16666667
vt 0.5833334 0.083333336
vt 0.5 0
vt 0.6666666 0.25
vt 0.5 0.083333336
vt 0.4166667 0
vt 0.5833333 0.16666667
vt 0.5833333 0.25
vt 0.4166667 0.083333336
vt 0.33333334 0
vt 0.5 0.16666667
vt 0.5833333 0.33333334
vt 0.3333333 0.083333336
vt 0.25 0
vt 0.41666666 0.16666667
vt 0.5 0.25
vt 0.49999997 0.33333334
vt 0.25 0.08333333
vt 0.16666667 0
vt 0.3333333 0.16666667
vt 0.41666663 0.25
vt 0.49999997 0.4166667
vt 0.16666666 0.08333333
vt 0.083333336 0
vt 0.24999999 0.16666666
vt 0.41666663 0.33333334
vt 0.3333333 0.25
vt 0.49999997 0.5
vt 0.08333333 0.08333333
vt 0 0
vt 0 0.08333333
vt 0.16666666 0.16666666
vt 0.08333333 0.16666666
vt 0 0.16666666
vt 0.24999999 0.24999999
vt 0.08333333 0.24999999
vt 0 0.24999999
vt 0.16666666 0.24999999
vt 0.3333333 0.33333334
vt 0.08333333 0.3333333
vt 0.16666666 0.3333333
vt 0.24999999 0.3333333
vt 0.16666666 0.41666663
vt 0.41666663 0.4166667
vt 0.24999999 0.41666666
vt 0.24999999 0.5
vt 0.3333333 0.4166667
vt 0.3333333 0.5
vt 0.41666663 0.5
vt 0.41666663 0.5833334
vt 0.49999997 0.5833334
vn -0 1 0
vn -0 1 0
vn -0 1 0
vn -0 1 0
vn -0 1 0
vn -0 1 0
vn -0 1 0
vn -0 1 0
vn -0 1 0
vn -0 1 0
vn -0 1 0
vn -0 1 0
vn -0 1 0
vn -0 1 0
vn -0 1 0
vn -0 1 0
vn -0 1 0
vn -0 1 0
vn -0 1 0
vn -0 1 0
vn -0 1 0
vn -0 1 0
vn -0 1 0
vn -0 1 0
vn -0 1 0
vn -0 1 0
vn -0 1 0
vn -0 1 0
vn -0 1 0
vn -0 1 0
vn -0 1 0
vn -0 1 0
vn -0 1 0
vn -0 1 0
vn -0 1 0
vn -0 1 0
vn -0 1 0
vn -0 1 0
vn -0 1 0
vn -0 1 0
vn -0 1 0
vn -0 1 0
vn -0 1 0
vn -0 1 0
vn -0 1 0
vn -0 1 0
vn -0 1 0
vn -0 1 0
vn -0 1 0
vn -0 1 0
vn -0 1 0
vn -0 1 0
vn -0 1 0
vn -0 1 0
vn -0 1 0
vn -0 1 0
vn -0 1 0
vn -0 1 0
vn -0 1 0
vn -0 1 0
vn -0 1 0
vn -0 1 0
vn -0 1 0
vn -0 1 0
vn -0 1 0
vn -0 1 0
vn -0 1 0
vn -0 1 0
vn -0 1 0
vn -0 1 0
vn -0 1 0
vn -0 1 0
vn -0 1 0
vn -0 1 0
vn -0 1 0
vn -0 1 0
vn -0 1 0
vn -0 1 0
vn -0 1 0
vn -0 1 0
vn -0 1 0
vn -0 1 0
vn -0 1 0
vn -0 1 0
vn -0 1 0
vn -0 1 0
vn -0 1 0
vn -0 1 0
vn -0 1 0
vn -0 1 0
vn -0 1 0
vn -0 1 0
vn -0 1 0
vn -0 1 0
vn -0 1 0
vn -0 1 0
vn -0 1 0
vn -0 1 0
vn -0 1 0
vn -0 1 0
vn -0 1 0
vn -0 1 0
vn -0 1 0
vn -0 1 0
vn -0 1 0
vn -0 1 0
vn -0 1 0
vn -0 1 0
vn -0 1 0
vn -0 1 0
vn -0 1 0
vn -0 1 0
vn -0 1 0
vn -0 1 0
vn -0 1 0
vn -0 1 0
vn -0 1 0
vn -0 1 0
vn -0 1 0
vn -0 1 0
vn -0 1 0
vn -0 1 0
vn -0 1 0
vn -0 1 0
vn -0 1 0
vn -0 1 0
vn -0 1 0
vn -0 1 0
vn -0 1 0
vn -0 1 0
vn -0 1 0
vn -0 1 0
vn -0 1 0
vn -0 1 0
vn -0 1 0
vn -0 1 0
vn -0 1 0
vn -0 1 0
vn -0 1 0
vn -0 1 0
vn -0 1 0
vn -0 1 0
vn -0 1 0
vn -0 1 0
vn -0 1 0
vn -0 1 0
vn -0 1 0
vn -0 1 0
vn -0 1 0
vn -0 1 0
vn -0 1 0
vn -0 1 0
vn -0 1 0
vn -0 1 0
vn -0 1 0
vn -0 1 0
vn -0 1 0
vn -0 1 0
vn -0 1 0
vn -0 1 0
vn -0 1 0
vn -0 1 0
vn -0 1 0
vn -0 1 0
vn -0 1 0
vn -0 1 0
vn -0 1 0
vn -0 1 0
vn -0 1 0
g water_0
f 3/3/3 2/2/2 1/1/1
f 4/4/4 3/3/3 1/1/1
f 4/4/4 1/1/1 5/5/5
f 6/6/6 3/3/3 4/4/4
f 7/7/7 4/4/4 5/5/5
f 7/7/7 5/5/5 8/8/8
f 9/9/9 6/6/6 4/4/4
f 9/9/9 4/4/4 7/7/7
f 10/10/10 6/6/6 9/9/9
f 11/11/11 7/7/7 8/8/8
f 11/11/11 8/8/8 12/12/12
f 13/13/13 9/9/9 7/7/7
f 13/13/13 7/7/7 11/11/11
f 14/14/14 10/10/10 9/9/9
f 14/14/14 9/9/9 13/13/13
f 15/15/15 10/10/10 14/14/14
f 16/16/16 11/11/11 12/12/12
f 16/16/16 12/12/12 17/17/17
f 18/18/18 13/13/13 11/11/11
f 18/18/18 11/11/11 16/16/16
f 19/19/19 15/15/15 14/14/14
f 20/20/20 15/15/15 19/19/19
f 21/21/21 14/14/14 13/13/13
f 21/21/21 13/13/13 18/18/18
f 19/19/19 14/14/14 21/21/21
f 22/22/22 16/16/16 17/17/17
f 22/22/22 17/17/17 23/23/23
f 24/24/24 20/20/20 19/19/19
f 25/25/25 20/20/20 24/24/24
f 26/26/26 18/18/18 16/16/16
f 26/26/26 16/16/16 22/22/22
f 27/27/27 21/21/21 18/18/18
f 27/27/27 18/18/18 26/26/26
f 28/28/28 19/19/19 21/21/21
f 24/24/24 19/19/19 28/28/28
f 28/28/28 21/21/21 27/27/27
f 29/29/29 22/22/22 23/23/23
f 29/29/29 23/23/23 30/30/30
f 31/31/31 25/25/25 24/24/24
f 32/32/32 25/25/25 31/31/31
f 33/33/33 26/26/26 22/22/22
f 33/33/33 22/22/22 29/29/29
f 34/34/34 27/27/27 26/26/26
f 34/34/34 26/26/26 33/33/33
f 35/35/35 28/28/28 27/27/27
f 35/35/35 27/27/27 34/34/34
f 36/36/36 24/24/24 28/28/28
f 31/31/31 24/24/24 36/36/36
f 36/36/36 28/28/28 35/35/35
f 37/37/37 29/29/29 30/30/30
f 37/37/37 30/30/30 38/38/38
f 39/39/39 32/32/32 31/31/31
f 40/40/40 32/32/32 39/39/39
f 41/41/41 33/33/33 29/29/29
f 41/41/41 29/29/29 37/37/37
f 42/42/42 34/34/34 33/33/33
f 42/42/42 33/33/33 41/41/41
f 43/43/43 35/35/35 34/34/34
f 43/43/43 34/34/34 42/42/42
f 44/44/44 36/36/36 35/35/35
f 44/44/44 35/35/35 43/43/43
f 45/45/45 31/31/31 36/36/36
f 39/39/39 31/31/31 45/45/45
f 45/45/45 36/36/36 44/44/44
f 46/46/46 40/40/40 39/39/39
f 47/47/47 40/40/40 46/46/46
f 48/48/48 39/39/39 45/45/45
f 46/46/46 39/39/39 48/48/48
f 49/49/49 45/45/45 44/44/44
f 48/48/48 45/45/45 49/49/49
f 50/50/50 44/44/44 43/43/43
f 49/49/49 44/44/44 50/50/50
f 51/51/51 43/43/43 42/42/42
f 50/50/50 43/43/43 51/51/51
f 52/52/52 47/47/47 46/46/46
f 53/53/53 47/47/47 52/52/52
f 54/54/54 46/46/46 48/48/48
f 52/52/52 46/46/46 54/54/54
f 55/55/55 48/48/48 49/49/49
f 54/54/54 48/48/48 55/55/55
f 56/56/56 49/49/49 50/50/50
f 55/55/55 49/49/49 56/56/56
f 57/57/57 53/53/53 52/52/52
f 58/58/58 53/53/53 57/57/57
f 59/59/59 52/52/52 54/54/54
f 57/57/57 52/52/52 59/59/59
f 60/60/60 54/54/54 55/55/55
f 59/59/59 54/54/54 60/60/60
f 61/61/61 58/58/58 57/57/57
f 62/62/62 58/58/58 61/61/61
f 63/63/63 62/62/62 61/61/61
f 64/64/64 57/57/57 59/59/59
f 61/61/61 57/57/57 64/64/64
f 63/63/63 61/61/61 65/65/65
f 65/65/65 61/61/61 64/64/64
f 66/66/66 63/63/63 65/65/65
f 64/64/64 59/59/59 67/67/67
f 67/67/67 59/59/59 60/60/60
f 60/60/60 55/55/55 68/68/68
f 68/68/68 55/55/55 56/56/56
f 66/66/66 65/65/65 69/69/69
f 70/70/70 66/66/66 69/69/69
f 65/65/65 64/64/64 71/71/71
f 71/71/71 64/64/64 67/67/67
f 69/69/69 65/65/65 71/71/71
f 67/67/67 60/60/60 72/72/72
f 72/72/72 60/60/60 68/68/68
f 70/70/70 69/69/69 73/73/73
f 74/74/74 70/70/70 73/73/73
f 69/69/69 71/71/71 75/75/75
f 73/73/73 69/69/69 75/75/75
f 71/71/71 67/67/67 76/76/76
f 76/76/76 67/67/67 72/72/72
f 75/75/75 71/71/71 76/76/76
f 74/74/74 73/73/73 77/77/77
f 78/78/78 74/74/74 77/77/77
f 73/73/73 75/75/75 79/79/79
f 77/77/77 73/73/73 79/79/79
f 75/75/75 76/76/76 80/80/80
f 79/79/79 75/75/75 80/80/80
f 76/76/76 72/72/72 81/81/81
f 80/80/80 76/76/76 81/81/81
f 72/72/72 68/68/68 82/82/82
f 81/81/81 72/72/72 82/82/82
f 78/78/78 77/77/77 83/83/83
f 84/84/84 78/78/78 83/83/83
f 77/77/77 79/79/79 85/85/85
f 83/83/83 77/77/77 85/85/85
f 79/79/79 80/80/80 86/86/86
f 85/85/85 79/79/79 86/86/86
f 80/80/80 81/81/81 87/87/87
f 86/86/86 80/80/80 87/87/87
f 84/84/84 83/83/83 88/88/88
f 89/89/89 84/84/84 88/88/88
f 83/83/83 85/85/85 90/90/90
f 88/88/88 83/83/83 90/90/90
f 85/85/85 86/86/86 91/91/91
f 90/90/90 85/85/85 91/91/91
f 89/89/89 88/88/88 92/92/92
f 93/93/93 89/89/89 92/92/92
f 88/88/88 90/90/90 94/94/94
f 92/92/92 88/88/88 94/94/94
f 93/93/93 92/92/92 95/95/95
f 96/96/96 93/93/93 95/95/95
f 87/87/87 81/81/81 97/97/97
f 81/81/81 82/82/82 97/97/97
f 86/86/86 87/87/87 98/98/98
f 91/91/91 86/86/86 98/98/98
f 90/90/90 91/91/91 99/99/99
f 94/94/94 90/90/90 99/99/99
f 92/92/92 94/94/94 100/100/100
f 95/95/95 92/92/92 100/100/100
f 96/96/96 95/95/95 101/101/101
f 102/102/102 96/96/96 101/101/101
f 87/87/87 97/97/97 103/103/103
f 98/98/98 87/87/87 103/103/103
f 91/91/91 98/98/98 104/104/104
f 99/99/99 91/91/91 104/104/104
f 94/94/94 99/99/99 105/105/105
f 100/100/100 94/94/94 105/105/105
f 95/95/95 100/100/100 106/106/106
f 101/101/101 95/95/95 106/106/106
f 102/102/102 101/101/101 107/107/107
f 108/108/108 102/102/102 107/107/107
f 108/108/108 107/107/107 109/109/109
f 110/110/110 108/108/108 109/109/109
f 109/109/109 107/107/107 111/111/111
f 107/107/107 101/101/101 112/112/112
f 107/107/107 112/112/112 111/111/111
f 101/101/101 106/106/106 112/112/112
f 111/111/111 112/112/112 113/113/113
f 112/112/112 114/114/114 113/113/113
f 112/112/112 106/106/106 114/114/114
f 113/113/113 114/114/114 115/115/115
f 106/106/106 100/100/100 116/116/116
f 106/106/106 116/116/116 114/114/114
f 100/100/100 105/105/105 116/116/116
f 114/114/114 117/117/117 115/115/115
f 114/114/114 116/116/116 117/117/117
f 115/115/115 117/117/117 118/118/118
f 116/116/116 105/105/105 119/119/119
f 116/116/116 119/119/119 117/117/117
f 117/117/117 120/120/120 118/118/118
f 117/117/117 119/119/119 120/120/120
f 118/118/118 120/120/120 121/121/121
f 105/105/105 122/122/122 119/119/119
f 105/105/105 99/99/99 122/122/122
f 99/99/99 104/104/104 122/122/122
f 120/120/120 123/123/123 121/121/121
f 121/121/121 123/123/123 124/124/124
f 119/119/119 125/125/125 120/120/120
f 119/119/119 122/122/122 125/125/125
f 120/120/120 125/125/125 123/123/123
f 122/122/122 104/104/104 126/126/126
f 122/122/122 126/126/126 125/125/125
f 123/123/123 127/127/127 124/124/124
f 124/124/124 127/127/127 128/128/128
f 125/125/125 129/129/129 123/123/123
f 125/125/125 126/126/126 129/129/129
f 123/123/123 129/129/129 127/127/127
f 104/104/104 130/130/130 126/126/126
f 104/104/104 98/98/98 130/130/130
f 98/98/98 103/103/103 130/130/130
f 127/127/127 131/131/131 128/128/128
f 128/128/128 131/131/131 132/132/132
f 129/129/129 133/133/133 127/127/127
f 127/127/127 133/133/133 131/131/131
f 126/126/126 134/134/134 129/129/129
f 126/126/126 130/130/130 134/134/134
f 129/129/129 134/134/134 133/133/133
f 130/130/130 103/103/103 135/135/135
f 130/130/130 135/135/135 134/134/134
f 131/131/131 136/136/136 132/132/132
f 132/132/132 136/136/136 137/137/137
f 133/133/133 138/138/138 131/131/131
f 131/131/131 138/138/138 136/136/136
f 134/134/134 139/139/139 133/133/133
f 134/134/134 135/135/135 139/139/139
f 133/133/133 139/139/139 138/138/138
f 103/103/103 140/140/140 135/135/135
f 103/103/103 97/97/97 140/140/140
f 136/136/136 141/141/141 137/137/137
f 137/137/137 141/141/141 142/142/142
f 138/138/138 143/143/143 136/136/136
f 136/136/136 143/143/143 141/141/141
f 135/135/135 144/144/144 139/139/139
f 135/135/135 140/140/140 144/144/144
f 139/139/139 145/145/145 138/138/138
f 138/138/138 145/145/145 143/143/143
f 139/139/139 144/144/144 145/145/145
f 97/97/97 146/146/146 140/140/140
f 97/97/97 82/82/82 146/146/146
f 141/141/141 147/147/147 142/142/142
f 142/142/142 147/147/147 148/148/148
f 147/147/147 149/149/149 148/148/148
f 143/143/143 150/150/150 141/141/141
f 141/141/141 150/150/150 147/147/147
f 147/147/147 151/151/151 149/149/149
f 150/150/150 151/151/151 147/147/147
f 151/151/151 152/152/152 149/149/149
f 145/145/145 153/153/153 143/143/143
f 143/143/143 153/153/153 150/150/150
f 151/151/151 154/154/154 152/152/152
f 154/154/154 155/155/155 152/152/152
f 150/150/150 156/156/156 151/151/151
f 153/153/153 156/156/156 150/150/150
f 156/156/156 154/154/154 151/151/151
f 145/145/145 157/157/157 153/153/153
f 144/144/144 157/157/157 145/145/145
f 154/154/154 158/158/158 155/155/155
f 158/158/158 38/38/38 155/155/155
f 158/158/158 37/37/37 38/38/38
f 156/156/156 159/159/159 154/154/154
f 159/159/159 158/158/158 154/154/154
f 153/153/153 160/160/160 156/156/156
f 157/157/157 160/160/160 153/153/153
f 160/160/160 159/159/159 156/156/156
f 161/161/161 37/37/37 158/158/158
f 159/159/159 161/161/161 158/158/158
f 161/161/161 41/41/41 37/37/37
f 144/144/144 162/162/162 157/157/157
f 140/140/140 162/162/162 144/144/144
f 140/140/140 146/146/146 162/162/162
f 160/160/160 163/163/163 159/159/159
f 163/163/163 161/161/161 159/159/159
f 164/164/164 41/41/41 161/161/161
f 163/163/163 164/164/164 161/161/161
f 164/164/164 42/42/42 41/41/41
f 51/51/51 42/42/42 164/164/164
f 157/157/157 165/165/165 160/160/160
f 162/162/162 165/165/165 157/157/157
f 165/165/165 163/163/163 160/160/160
f 166/166/166 164/164/164 163/163/163
f 166/166/166 51/51/51 164/164/164
f 165/165/165 166/166/166 163/163/163
f 162/162/162 167/167/167 165/165/165
f 146/146/146 167/167/167 162/162/162
f 167/167/167 166/166/166 165/165/165
f 168/168/168 51/51/51 166/166/166
f 167/167/167 168/168/168 166/166/166
f 168/168/168 50/50/50 51/51/51
f 56/56/56 50/50/50 168/168/168
f 146/146/146 169/169/169 167/167/167
f 169/169/169 168/168/168 167/167/167
f 169/169/169 56/56/56 168/168/168
f 82/82/82 169/169/169 146/146/146
f 68/68/68 56/56/56 169/169/169
f 82/82/82 68/68/68 169/169/169
