g Waterway_Door
v -1.5 -0.1000003 -0.96
v -1.8 -0.1000003 -0.96
v -1.8 -0.09999998 1
v -1.5 -0.09999998 1
v -1.5 2.8999999 -0.96000046
v -1.5 2.9000003 0.9999995
v 1.5 2.9000003 0.9999995
v 1.5 2.8999999 -0.96000046
v -1.8 -0.09999998 1
v -1.5 2.9000003 0.9999995
v -1.5 -0.09999998 1
v -1.8 3.2000003 0.99999946
v 1.5 2.9000003 0.9999995
v 1.8 3.2000003 0.99999946
v 1.8 -0.09999998 1
v 1.5 -0.09999998 1
v -1.54 2.9399998 -1.0000005
v -1.76 -0.060000345 -1
v -1.54 -0.060000345 -1
v -1.76 3.1599998 -1.0000005
v -1.54 2.9399998 -1.0000005
v 1.76 3.1599998 -1.0000005
v 1.54 2.9399998 -1.0000005
v 1.54 -0.060000345 -1
v 1.76 -0.060000345 -1
v -1.8 3.1999998 -0.9600005
v -1.8 3.2000003 0.99999946
v -1.8 -0.09999998 1
v -1.8 -0.1000003 -0.96
v 1.5 2.9000003 0.9999995
v 1.5 -0.09999998 1
v 1.5 -0.1000003 -0.96
v 1.5 2.8999999 -0.96000046
v 1.5 -0.09999998 1
v 1.8 -0.09999998 1
v 1.8 -0.1000003 -0.96
v 1.5 -0.1000003 -0.96
v 1.8 3.2000003 0.99999946
v 1.8 3.1999998 -0.9600005
v 1.8 -0.1000003 -0.96
v 1.8 -0.09999998 1
v 1.8 3.1999998 -0.9600005
v 1.8 3.2000003 0.99999946
v -1.8 3.2000003 0.99999946
v -1.8 3.1999998 -0.9600005
v 1.5 2.8999999 -0.96000046
v 1.54 2.9399998 -1.0000005
v -1.54 2.9399998 -1.0000005
v -1.5 2.8999999 -0.96000046
v -1.8 3.1999998 -0.9600005
v -1.76 3.1599998 -1.0000005
v 1.76 3.1599998 -1.0000005
v 1.8 3.1999998 -0.9600005
v -1.5 -0.1000003 -0.96
v -1.54 -0.060000345 -1
v -1.76 -0.060000345 -1
v -1.8 -0.1000003 -0.96
v 1.8 -0.1000003 -0.96
v 1.76 -0.060000345 -1
v 1.54 -0.060000345 -1
v 1.5 -0.1000003 -0.96
v -1.76 3.1599998 -1.0000005
v -1.8 3.1999998 -0.9600005
v -1.8 -0.1000003 -0.96
v -1.76 -0.060000345 -1
v 1.76 -0.060000345 -1
v 1.8 -0.1000003 -0.96
v 1.8 3.1999998 -0.9600005
v 1.76 3.1599998 -1.0000005
v 1.5 -0.1000003 -0.96
v 1.54 -0.060000345 -1
v 1.54 2.9399998 -1.0000005
v 1.5 2.8999999 -0.96000046
v -1.54 -0.060000345 -1
v -1.5 -0.1000003 -0.96
v -1.5 2.8999999 -0.96000046
v -1.54 2.9399998 -1.0000005
v -1.5 2.8999999 -0.96000046
v -1.5 -0.1000003 -0.96
v -1.5 -0.09999998 1
v -1.5 2.9000003 0.9999995
vt 0.09766201 0.7645341
vt 0.097662 0.7645341
vt 0.097662 0.7645341
vt 0.097662 0.7645341
vt 0.097662 0.7645341
vt 0.097662 0.7645341
vt 0.097662 0.7645341
vt 0.09766201 0.7645341
vt 0.097662 0.7645341
vt 0.097662 0.7645341
vt 0.097662 0.7645341
vt 0.097662 0.7645341
vt 0.097662 0.7645341
vt 0.097662 0.7645341
vt 0.097662 0.7645341
vt 0.097662 0.7645341
vt 0.097662 0.7645341
vt 0.097662 0.7645342
vt 0.09766201 0.7645342
vt 0.097662 0.7645341
vt 0.097662 0.76453406
vt 0.097662 0.7645341
vt 0.097662 0.76453406
vt 0.097662 0.7645341
vt 0.097662 0.7645342
vt 0.097662 0.7645341
vt 0.097662 0.7645341
vt 0.097662 0.7645341
vt 0.09766201 0.7645341
vt 0.097662 0.7645341
vt 0.097662 0.7645341
vt 0.09766201 0.7645341
vt 0.097662 0.7645341
vt 0.097662 0.7645341
vt 0.097662 0.7645341
vt 0.09766201 0.7645341
vt 0.097662 0.7645341
vt 0.097662 0.7645341
vt 0.09766201 0.7645341
vt 0.097662 0.7645341
vt 0.097662 0.7645341
vt 0.097662 0.7645341
vt 0.097662 0.7645341
vt 0.097662 0.7645341
vt 0.09766201 0.7645341
vt 0.09766201 0.7645341
vt 0.097662 0.7645341
vt 0.097662 0.76453406
vt 0.097662 0.7645341
vt 0.09766201 0.7645341
vt 0.097662 0.7645341
vt 0.097662 0.7645341
vt 0.097662 0.7645341
vt 0.09766201 0.7645341
vt 0.09766201 0.7645342
vt 0.097662 0.7645342
vt 0.097662 0.7645341
vt 0.09766201 0.7645341
vt 0.097662 0.7645342
vt 0.097662 0.7645341
vt 0.097662 0.7645341
vt 0.097662 0.7645341
vt 0.097662 0.7645341
vt 0.09766201 0.7645341
vt 0.097662 0.7645342
vt 0.097662 0.7645342
vt 0.097662 0.7645341
vt 0.09766201 0.7645341
vt 0.097662 0.7645341
vt 0.09766201 0.7645341
vt 0.097662 0.7645341
vt 0.097662 0.76453406
vt 0.097662 0.7645341
vt 0.09766201 0.7645342
vt 0.097662 0.7645341
vt 0.09766201 0.7645341
vt 0.097662 0.7645341
vt 0.09766201 0.7645341
vt 0.097662 0.7645341
vt 0.097662 0.7645341
vt 0.097662 0.7645341
vn -0 -1 0
vn -0 -1 0
vn -0 -1 0
vn -0 -1 0
vn -0 -1 0
vn -0 -1 0
vn -0 -1 0
vn -0 -1 0
vn -0 0 1
vn -0 0 1
vn -0 0 1
vn -0 0 1
vn -0 0 1
vn -0 0 1
vn -0 0 1
vn -0 0 1
vn -0 0 -1
vn -0 0 -1
vn -0 0 -1
vn -0 0 -1
vn -0 0 -1
vn -0 0 -1
vn -0 0 -1
vn -0 0 -1
vn -0 0 -1
vn -1 0 0
vn -1 0 0
vn -1 0 0
vn -1 0 0
vn -1 0 0
vn -1 0 0
vn -1 0 0
vn -1 0 0
vn -0 -1 0
vn -0 -1 0
vn -0 -1 0
vn -0 -1 0
vn 1 0 0
vn 1 0 0
vn 1 0 0
vn 1 0 0
vn -0 1 0
vn -0 1 0
vn -0 1 0
vn -0 1 0
vn -0 -0.7071093 -0.70710427
vn -0 -0.7071093 -0.70710427
vn -0 -0.7071093 -0.70710427
vn -0 -0.7071093 -0.70710427
vn -0 0.70710933 -0.7071042
vn -0 0.70710933 -0.7071042
vn -0 0.70710933 -0.7071042
vn -0 0.70710933 -0.7071042
vn -0 -0.7071073 -0.70710623
vn -0 -0.7071073 -0.70710623
vn -0 -0.7071073 -0.70710623
vn -0 -0.7071073 -0.70710623
vn -0 -0.7071073 -0.70710623
vn -0 -0.7071073 -0.70710623
vn -0 -0.7071073 -0.70710623
vn -0 -0.7071073 -0.70710623
vn -0.7071069 0 -0.7071066
vn -0.7071069 0 -0.7071066
vn -0.7071069 0 -0.7071066
vn -0.7071069 0 -0.7071066
vn 0.7071069 0 -0.7071066
vn 0.7071069 0 -0.7071066
vn 0.7071069 0 -0.7071066
vn 0.7071069 0 -0.7071066
vn -0.7071074 0 -0.70710605
vn -0.7071074 0 -0.70710605
vn -0.7071074 0 -0.70710605
vn -0.7071074 0 -0.70710605
vn 0.7071074 0 -0.70710605
vn 0.7071074 0 -0.70710605
vn 0.7071074 0 -0.70710605
vn 0.7071074 0 -0.70710605
vn 1 0 0
vn 1 0 0
vn 1 0 0
vn 1 0 0
g Waterway_Door_0
f 3/3/3 2/2/2 1/1/1
f 4/4/4 3/3/3 1/1/1
f 7/7/7 6/6/6 5/5/5
f 8/8/8 7/7/7 5/5/5
f 11/11/11 10/10/10 9/9/9
f 10/10/10 12/12/12 9/9/9
f 12/12/12 10/10/10 13/13/13
f 14/14/14 12/12/12 13/13/13
f 15/15/15 14/14/14 13/13/13
f 16/16/16 15/15/15 13/13/13
f 19/19/19 18/18/18 17/17/17
f 18/18/18 20/20/20 17/17/17
f 20/20/20 22/22/22 21/21/21
f 22/22/22 23/23/23 21/21/21
f 24/24/24 23/23/23 22/22/22
f 25/25/25 24/24/24 22/22/22
f 28/28/28 27/27/27 26/26/26
f 29/29/29 28/28/28 26/26/26
f 32/32/32 31/31/31 30/30/30
f 33/33/33 32/32/32 30/30/30
f 36/36/36 35/35/35 34/34/34
f 37/37/37 36/36/36 34/34/34
f 40/40/40 39/39/39 38/38/38
f 41/41/41 40/40/40 38/38/38
f 44/44/44 43/43/43 42/42/42
f 45/45/45 44/44/44 42/42/42
f 48/48/48 47/47/47 46/46/46
f 49/49/49 48/48/48 46/46/46
f 52/52/52 51/51/51 50/50/50
f 53/53/53 52/52/52 50/50/50
f 56/56/56 55/55/55 54/54/54
f 57/57/57 56/56/56 54/54/54
f 60/60/60 59/59/59 58/58/58
f 61/61/61 60/60/60 58/58/58
f 64/64/64 63/63/63 62/62/62
f 65/65/65 64/64/64 62/62/62
f 68/68/68 67/67/67 66/66/66
f 69/69/69 68/68/68 66/66/66
f 72/72/72 71/71/71 70/70/70
f 73/73/73 72/72/72 70/70/70
f 76/76/76 75/75/75 74/74/74
f 77/77/77 76/76/76 74/74/74
f 80/80/80 79/79/79 78/78/78
f 81/81/81 80/80/80 78/78/78
