g FanceOutside_nor_x2
v -0.23321636 2.295489 -3.7398266E-07
v -1.0500001 2.0477614 0.11787286
v -1.0500001 1.9477613 -3.173306E-07
v -0.23321636 2.3954892 0.117872804
v -1.0500001 2.0477614 0.38212648
v -0.23321636 2.3954892 0.38212642
v -1.0500001 1.9477614 0.49999967
v -0.23321636 2.295489 0.4999996
v 0.22650798 2.2963917 -3.741297E-07
v 1.05 2.0486677 -0.11787353
v 1.05 1.9486678 -3.1747828E-07
v 0.22650798 2.3963916 -0.11787358
v 1.05 2.0486677 -0.38212714
v 0.22650799 2.3963916 -0.3821272
v 1.05 1.9486676 -0.5000003
v 0.22650799 2.2963917 -0.50000036
v -0.07070311 3.0376022 1.4999995
v 0.07070313 3.037602 -0.5000005
v 0.0707031 3.0376022 1.4999995
v -0.07070311 3.037602 -0.5000005
v -0.1851031 2.9544854 -0.5000005
v -0.1851031 2.9544857 1.4999995
v -0.22880001 2.8200002 -0.5000005
v -0.22880004 2.8200004 1.4999995
v -0.18462086 2.685515 -0.5000004
v -0.18462089 2.685515 1.4999995
v -0.11581413 2.6334898 -0.5000004
v -0.11581413 2.63349 1.4999995
v -0.11581413 2.63349 1.4999995
v -0.15016167 2.6175218 -0.5000004
v -0.11581413 2.6334898 -0.5000004
v -0.15016167 2.617522 1.4999995
v -0.2286598 2.5560436 -0.5000004
v -0.2286598 2.5560439 1.4999996
v -0.25327802 2.4587266 -0.5000004
v -0.25327814 2.4587271 1.4999996
v -0.23321636 2.3954895 0.8821264
v -0.23321636 2.3954892 -0.3821272
v -0.23321636 2.295489 -0.50000036
v -0.23321636 2.3954892 -0.11787358
v -0.23321636 2.3954892 0.117872804
v -0.23321636 2.295489 -3.7398266E-07
v -0.23321636 2.3954892 0.38212642
v -0.23321636 2.3954892 0.6178728
v -0.23321636 2.295489 0.4999996
v -0.23321636 2.3954895 1.1178728
v -0.23321636 2.2954893 0.99999964
v -0.23321636 2.3954895 1.3821265
v -0.23321636 2.2954893 1.4999996
v 0.18558538 2.685515 1.4999995
v 0.11551433 2.6336546 -0.5000004
v 0.11551433 2.6336548 1.4999995
v 0.18558538 2.6855147 -0.5000004
v 0.22880004 2.8200002 -0.5000005
v 0.22880004 2.8200004 1.4999995
v 0.18510316 2.9544854 -0.5000005
v 0.18510313 2.9544857 1.4999995
v 0.07070313 3.037602 -0.5000005
v 0.0707031 3.0376022 1.4999995
v 0.25461656 2.4592428 -0.5000004
v 0.22650799 2.2963917 -0.50000036
v 0.22650799 2.3963916 -0.3821272
v 0.22650798 2.3963916 -0.11787358
v 0.22650798 2.3963916 0.38212642
v 0.22650798 2.2963917 -3.741297E-07
v 0.22650799 2.3963916 0.6178728
v 0.22650798 2.2963917 0.4999996
v 0.22650798 2.3963919 0.8821264
v 0.22650798 2.3963919 1.1178728
v 0.22650798 2.296392 0.99999964
v 0.22650798 2.3963919 1.3821265
v 0.25461656 2.459243 1.4999996
v 0.22650798 2.296392 1.4999996
v 0.11551433 2.6336548 1.4999995
v 0.11551433 2.6336546 -0.5000004
v 0.14986186 2.6177356 -0.5000004
v 0.14986186 2.6177359 1.4999995
v 0.22925022 2.55656 1.4999996
v 0.22925033 2.5565598 -0.5000004
v 0.25461656 2.459243 1.4999996
v 0.25461656 2.4592428 -0.5000004
v 0.22650798 2.2963917 0.4999996
v 0.22650798 2.3963916 0.38212642
v 1.05 2.0486677 0.38212648
v 1.05 1.9486679 0.49999967
v -1.0500001 1.7635345 -0.5000003
v -1.0500001 1.9477612 -0.5000003
v -1.0500001 2.0477614 -0.38212714
v -1.0500001 1.8084999 -0.3821271
v -1.0500001 1.8085 -0.11787349
v -1.0500001 2.0477614 -0.11787353
v -1.0500001 1.9477613 -3.173306E-07
v -1.0500001 1.7686819 -2.8815487E-07
v -1.0500001 2.0477614 0.11787286
v -1.0500001 1.8085 0.117872894
v -1.0500001 1.8085002 0.3821265
v -1.0500001 2.0477614 0.38212648
v -1.0500001 1.9477614 0.49999967
v -1.0500001 1.7635348 0.4999997
v -1.0500001 2.0477614 0.61787283
v -1.0500001 1.8085002 0.6178729
v -1.0500001 1.8085002 0.8821265
v -1.0500001 2.0477617 0.88212645
v -1.0500001 1.9477614 0.9999997
v -1.0500001 1.768682 0.9999997
v -1.0500001 2.0477617 1.1178728
v -1.0500001 1.8085003 1.117873
v -1.0500001 1.8085003 1.3821266
v -1.0500001 2.0477617 1.3821265
v -1.0500001 1.9477615 1.4999996
v -1.0500001 1.7635349 1.4999998
v -0.23321636 2.3954892 -0.11787358
v -0.23321636 2.295489 -3.7398266E-07
v -1.0500001 1.9477613 -3.173306E-07
v -1.0500001 2.0477614 -0.11787353
v -0.23321636 2.3954892 -0.3821272
v -1.0500001 2.0477614 -0.38212714
v -0.23321636 2.295489 -0.50000036
v -1.0500001 1.9477612 -0.5000003
v 1.05 1.8085874 -0.3821271
v 1.05 1.9486676 -0.5000003
v 1.05 1.763622 -0.5000003
v 1.05 2.0486677 -0.38212714
v 1.05 2.0486677 -0.11787353
v 1.05 1.8085876 -0.11787349
v 1.05 1.7686819 -2.8815487E-07
v 1.05 1.9486678 -3.1747828E-07
v 1.05 1.8085876 0.117872894
v 1.05 2.0486677 0.11787286
v 1.05 2.0486677 0.38212648
v 1.05 1.8085877 0.3821265
v 1.05 1.7636223 0.4999997
v 1.05 1.9486679 0.49999967
v 1.05 1.8085877 0.6178729
v 1.05 2.0486677 0.61787283
v 1.05 2.048668 0.88212645
v 1.05 1.8085877 0.8821265
v 1.05 1.768682 0.9999997
v 1.05 1.9486679 0.9999997
v 1.05 1.8085878 1.117873
v 1.05 2.048668 1.1178728
v 1.05 2.048668 1.3821265
v 1.05 1.8085878 1.3821266
v 1.05 1.7636224 1.4999998
v 1.05 1.948668 1.4999996
v -0.23321636 2.2954893 0.99999964
v -1.0500001 2.0477617 1.1178728
v -1.0500001 1.9477614 0.9999997
v -0.23321636 2.3954895 1.1178728
v -1.0500001 2.0477617 1.3821265
v -0.23321636 2.3954895 1.3821265
v -1.0500001 1.9477615 1.4999996
v -0.23321636 2.2954893 1.4999996
v 0.22650798 2.296392 0.99999964
v 1.05 2.048668 0.88212645
v 1.05 1.9486679 0.9999997
v 0.22650798 2.3963919 0.8821264
v 1.05 2.0486677 0.61787283
v 0.22650799 2.3963916 0.6178728
v 1.05 1.9486679 0.49999967
v 0.22650798 2.2963917 0.4999996
v 0.22650798 2.3963919 1.1178728
v 0.22650798 2.296392 0.99999964
v 1.05 1.9486679 0.9999997
v 1.05 2.048668 1.1178728
v 0.22650798 2.3963919 1.3821265
v 1.05 2.048668 1.3821265
v 0.22650798 2.296392 1.4999996
v 1.05 1.948668 1.4999996
v -0.23321636 2.3954895 0.8821264
v -0.23321636 2.2954893 0.99999964
v -1.0500001 1.9477614 0.9999997
v -1.0500001 2.0477617 0.88212645
v -0.23321636 2.3954892 0.6178728
v -1.0500001 2.0477614 0.61787283
v -0.23321636 2.295489 0.4999996
v -1.0500001 1.9477614 0.49999967
v 1 1.8820115 1.4999996
v 1 1.8820112 -0.5000003
v 1 -8.146034E-08 -0.5
v 1 2.4438103E-07 1.5
v -1.0000001 -8.146034E-08 -0.5
v -1.0000001 1.8820112 -0.5000003
v -1.0000001 1.8820115 1.4999996
v -1.0000001 2.4438103E-07 1.5
v 0.22650798 2.3963916 0.38212642
v 0.22650798 2.2963917 -3.741297E-07
v 1.05 1.9486678 -3.1747828E-07
v 1.05 2.0486677 0.11787286
v 1.05 2.0486677 0.38212648
vt 0.07940468 0.918553
vt 0.07940468 0.918553
vt 0.07940468 0.918553
vt 0.07940468 0.918553
vt 0.07940468 0.918553
vt 0.07940468 0.918553
vt 0.07940468 0.918553
vt 0.07940468 0.918553
vt 0.07940468 0.918553
vt 0.07940468 0.918553
vt 0.07940468 0.918553
vt 0.07940468 0.918553
vt 0.07940468 0.918553
vt 0.07940468 0.918553
vt 0.07940468 0.918553
vt 0.07940468 0.918553
vt 0.07940468 0.918553
vt 0.07940468 0.918553
vt 0.07940468 0.918553
vt 0.07940468 0.918553
vt 0.07940468 0.918553
vt 0.07940468 0.918553
vt 0.07940468 0.918553
vt 0.07940468 0.918553
vt 0.07940468 0.918553
vt 0.07940468 0.918553
vt 0.07940468 0.918553
vt 0.07940468 0.918553
vt 0.07940468 0.918553
vt 0.07940468 0.918553
vt 0.07940468 0.918553
vt 0.07940468 0.918553
vt 0.07940468 0.918553
vt 0.07940468 0.918553
vt 0.07940468 0.918553
vt 0.07940468 0.918553
vt 0.07940468 0.918553
vt 0.07940468 0.918553
vt 0.07940468 0.918553
vt 0.07940468 0.918553
vt 0.07940468 0.918553
vt 0.07940468 0.918553
vt 0.07940468 0.918553
vt 0.07940468 0.918553
vt 0.07940468 0.918553
vt 0.07940468 0.918553
vt 0.07940468 0.918553
vt 0.07940468 0.918553
vt 0.07940468 0.918553
vt 0.07940468 0.918553
vt 0.07940468 0.918553
vt 0.07940468 0.918553
vt 0.07940468 0.918553
vt 0.07940468 0.918553
vt 0.07940468 0.918553
vt 0.07940468 0.918553
vt 0.07940468 0.918553
vt 0.07940468 0.918553
vt 0.07940468 0.918553
vt 0.07940468 0.918553
vt 0.07940468 0.918553
vt 0.07940468 0.918553
vt 0.07940468 0.918553
vt 0.07940468 0.918553
vt 0.07940468 0.918553
vt 0.07940468 0.918553
vt 0.07940468 0.918553
vt 0.07940468 0.918553
vt 0.07940468 0.918553
vt 0.07940468 0.918553
vt 0.07940468 0.918553
vt 0.07940468 0.918553
vt 0.07940468 0.918553
vt 0.07940468 0.918553
vt 0.07940468 0.918553
vt 0.07940468 0.918553
vt 0.07940468 0.918553
vt 0.07940468 0.918553
vt 0.07940468 0.918553
vt 0.07940468 0.918553
vt 0.07940468 0.918553
vt 0.07940468 0.918553
vt 0.07940468 0.918553
vt 0.07940468 0.918553
vt 0.07940468 0.918553
vt 0.07940468 0.918553
vt 0.07940468 0.918553
vt 0.07940468 0.918553
vt 0.07940468 0.918553
vt 0.07940468 0.918553
vt 0.07940468 0.918553
vt 0.07940468 0.918553
vt 0.07940468 0.918553
vt 0.07940468 0.918553
vt 0.07940468 0.918553
vt 0.07940468 0.918553
vt 0.07940468 0.918553
vt 0.07940468 0.918553
vt 0.07940468 0.918553
vt 0.07940468 0.918553
vt 0.07940468 0.918553
vt 0.07940468 0.918553
vt 0.07940468 0.918553
vt 0.07940468 0.918553
vt 0.07940468 0.918553
vt 0.07940468 0.918553
vt 0.07940468 0.918553
vt 0.07940468 0.918553
vt 0.07940468 0.918553
vt 0.07940468 0.918553
vt 0.07940468 0.918553
vt 0.07940468 0.918553
vt 0.07940468 0.918553
vt 0.07940468 0.918553
vt 0.07940468 0.918553
vt 0.07940468 0.918553
vt 0.07940468 0.918553
vt 0.07940468 0.918553
vt 0.07940468 0.918553
vt 0.07940468 0.918553
vt 0.07940468 0.918553
vt 0.07940468 0.918553
vt 0.07940468 0.918553
vt 0.07940468 0.918553
vt 0.07940468 0.918553
vt 0.07940468 0.918553
vt 0.07940468 0.918553
vt 0.07940468 0.918553
vt 0.07940468 0.918553
vt 0.07940468 0.918553
vt 0.07940468 0.918553
vt 0.07940468 0.918553
vt 0.07940468 0.918553
vt 0.07940468 0.918553
vt 0.07940468 0.918553
vt 0.07940468 0.918553
vt 0.07940468 0.918553
vt 0.07940468 0.918553
vt 0.07940468 0.918553
vt 0.07940468 0.918553
vt 0.07940468 0.918553
vt 0.07940468 0.918553
vt 0.07940468 0.918553
vt 0.07940468 0.918553
vt 0.07940468 0.918553
vt 0.07940468 0.918553
vt 0.07940468 0.918553
vt 0.07940468 0.918553
vt 0.07940468 0.918553
vt 0.07940468 0.918553
vt 0.07940468 0.918553
vt 0.07940468 0.918553
vt 0.07940468 0.918553
vt 0.07940468 0.918553
vt 0.07940468 0.918553
vt 0.07940468 0.918553
vt 0.07940468 0.918553
vt 0.07940468 0.918553
vt 0.07940468 0.918553
vt 0.07940468 0.918553
vt 0.07940468 0.918553
vt 0.07940468 0.918553
vt 0.07940468 0.918553
vt 0.07940468 0.918553
vt 0.07940468 0.918553
vt 0.07940468 0.918553
vt 0.07940468 0.918553
vt 0.07940468 0.918553
vt 0.07940468 0.918553
vt 0.07940468 0.918553
vt 0.07940468 0.918553
vt 0.07940468 0.918553
vt 0.07940468 0.918553
vt 0.07940468 0.918553
vt 0.07940468 0.918553
vt 0.07940468 0.918553
vt 0.07940468 0.918553
vt 0.0829972 0.76508355
vt 0.0829972 0.76508355
vt 0.0829972 0.76508355
vt 0.0829972 0.76508355
vt 0.0829972 0.76508355
vt 0.0829972 0.76508355
vt 0.0829972 0.76508355
vt 0.0829972 0.76508355
vt 0.07940468 0.918553
vt 0.07940468 0.918553
vt 0.07940468 0.918553
vt 0.07940468 0.918553
vt 0.07940468 0.918553
vn -0.3087764 0.7252902 -0.61531407
vn -0.36696526 0.861971 -0.34977475
vn -0.3087764 0.7252902 -0.61531407
vn -0.37411436 0.8787637 -0.2963321
vn -0.36696526 0.8619711 0.34977478
vn -0.3741144 0.8787638 0.2963321
vn -0.30877635 0.7252902 0.61531407
vn -0.30877635 0.7252902 0.61531407
vn 0.30649534 0.7258531 0.61579037
vn 0.36440498 0.86299664 0.34992245
vn 0.30649534 0.7258531 0.61579037
vn 0.37146762 0.8797226 0.29681647
vn 0.36440495 0.8629964 -0.3499233
vn 0.3714676 0.8797223 -0.2968173
vn 0.30649534 0.7258526 -0.6157911
vn 0.30649534 0.7258526 -0.6157911
vn -0.3090172 0.9510565 0
vn 0.3090171 0.9510565 0
vn 0.3090171 0.95105654 0
vn -0.3090172 0.9510565 0
vn -0.8090171 0.5877851 0
vn -0.80901706 0.5877851 0
vn -0.9999987 -0.0016198064 0
vn -0.9999987 -0.0016198062 0
vn -0.813646 -0.5813607 0
vn -0.813646 -0.5813607 0
vn -0.60311085 -0.79765743 0
vn -0.60311085 -0.79765743 0
vn -0.42156756 0.90679693 0
vn -0.52250546 0.8526359 0
vn -0.42156756 0.90679693 0
vn -0.5225055 0.8526359 0
vn -0.83805704 0.5455827 0
vn -0.8380571 0.5455826 0
vn -0.9999466 0.010332951 0
vn -0.9999466 0.0103329895 0
vn -0.9743221 -0.22515883 0
vn -0.9743221 -0.22515883 0
vn -0.9743221 -0.22515883 0
vn -0.9743221 -0.22515883 0
vn -0.9743221 -0.22515883 0
vn -0.9743221 -0.22515883 0
vn -0.9743221 -0.22515883 0
vn -0.9743221 -0.22515883 0
vn -0.9743221 -0.22515883 0
vn -0.9743221 -0.22515883 0
vn -0.9743221 -0.22515883 0
vn -0.9743221 -0.22515883 0
vn -0.9743221 -0.22515883 0
vn 0.81254905 -0.5828928 0
vn 0.5948987 -0.80380064 0
vn 0.5948987 -0.80380064 0
vn 0.81254905 -0.5828928 0
vn 0.9999987 0.0016236531 0
vn 0.9999987 0.0016236629 0
vn 0.8090171 0.5877851 0
vn 0.80901706 0.5877851 0
vn 0.3090171 0.9510565 0
vn 0.3090171 0.95105654 0
vn 0.9998154 -0.019216193 0
vn 0.9572611 -0.28922525 0
vn 0.9572611 -0.28922525 0
vn 0.9572611 -0.28922525 0
vn 0.9572611 -0.28922525 0
vn 0.9572611 -0.28922525 0
vn 0.9572611 -0.28922525 0
vn 0.9572611 -0.28922525 0
vn 0.9572611 -0.28922525 0
vn 0.9572611 -0.28922525 0
vn 0.9572611 -0.28922525 0
vn 0.9572611 -0.28922525 0
vn 0.9998154 -0.01921618 0
vn 0.9572611 -0.28922525 0
vn 0.42050067 0.90729225 0
vn 0.42050067 0.90729225 0
vn 0.5186512 0.8549859 0
vn 0.51865125 0.85498583 0
vn 0.8339245 0.5518785 0
vn 0.8339245 0.55187863 0
vn 0.9998154 -0.01921618 0
vn 0.9998154 -0.019216193 0
vn 0.30649537 0.7258531 0.6157905
vn 0.30649537 0.7258531 0.6157905
vn 0.30649537 0.7258531 0.6157905
vn 0.30649537 0.7258531 0.6157905
vn -1 0 0
vn -1 0 0
vn -1 0 0
vn -1 0 0
vn -1 0 0
vn -1 0 0
vn -1 0 0
vn -1 0 0
vn -1 0 0
vn -1 0 0
vn -1 0 0
vn -1 0 0
vn -1 0 0
vn -1 0 0
vn -1 0 0
vn -1 0 0
vn -1 0 0
vn -1 0 0
vn -1 0 0
vn -1 0 0
vn -1 0 0
vn -1 0 0
vn -1 0 0
vn -1 0 0
vn -1 0 0
vn -1 0 0
vn -0.3741144 0.8787638 0.2963321
vn -0.30877638 0.7252902 0.615314
vn -0.30877638 0.7252902 0.615314
vn -0.36696526 0.8619711 0.34977478
vn -0.37411442 0.8787637 -0.29633215
vn -0.36696532 0.861971 -0.3497748
vn -0.30877644 0.72529 -0.615314
vn -0.30877644 0.72529 -0.615314
vn 1 0 0
vn 1 0 0
vn 1 0 0
vn 1 0 0
vn 1 0 0
vn 1 0 0
vn 1 0 0
vn 1 0 0
vn 1 0 0
vn 1 0 0
vn 1 0 0
vn 1 0 0
vn 1 0 0
vn 1 0 0
vn 1 0 0
vn 1 0 0
vn 1 0 0
vn 1 0 0
vn 1 0 0
vn 1 0 0
vn 1 0 0
vn 1 0 0
vn 1 0 0
vn 1 0 0
vn 1 0 0
vn 1 0 0
vn -0.30877632 0.72528964 -0.61531466
vn -0.36696526 0.8619709 -0.34977514
vn -0.30877632 0.72528964 -0.61531466
vn -0.37411445 0.8787636 -0.29633245
vn -0.3669652 0.8619709 0.34977508
vn -0.37411436 0.8787637 0.2963324
vn -0.30877623 0.7252897 0.61531454
vn -0.30877623 0.7252897 0.61531454
vn 0.30649525 0.72585285 0.6157909
vn 0.36440498 0.86299676 0.34992233
vn 0.30649525 0.72585285 0.6157909
vn 0.37146765 0.8797227 0.29681617
vn 0.364405 0.8629964 -0.349923
vn 0.37146753 0.8797223 -0.29681718
vn 0.30649567 0.7258533 -0.61578995
vn 0.30649567 0.7258533 -0.61578995
vn 0.3714676 0.8797224 -0.29681706
vn 0.30649534 0.7258526 -0.6157911
vn 0.30649534 0.7258526 -0.6157911
vn 0.36440492 0.8629964 -0.3499231
vn 0.37146756 0.8797224 0.29681703
vn 0.36440495 0.86299646 0.34992304
vn 0.3064953 0.72585267 0.615791
vn 0.3064953 0.72585267 0.615791
vn -0.37411442 0.8787638 0.29633182
vn -0.30877617 0.7252899 0.61531436
vn -0.30877617 0.7252899 0.61531436
vn -0.36696523 0.8619711 0.34977454
vn -0.3741143 0.8787636 -0.29633266
vn -0.36696517 0.86197084 -0.34977522
vn -0.30877638 0.7252901 -0.6153141
vn -0.30877638 0.7252901 -0.6153141
vn 1 0 0
vn 1 0 0
vn 1 0 0
vn 1 0 0
vn -1 0 0
vn -1 0 0
vn -1 0 0
vn -1 0 0
vn 0.3452577 0.9079336 -0.2375997
vn 0.3452577 0.9079336 -0.2375997
vn 0.3452577 0.9079336 -0.2375997
vn 0.3452577 0.9079336 -0.2375997
vn 0.3452577 0.9079336 -0.2375997
g FanceOutside_nor_x2_0
f 3/3/3 2/2/2 1/1/1
f 2/2/2 4/4/4 1/1/1
f 4/4/4 2/2/2 5/5/5
f 6/6/6 4/4/4 5/5/5
f 5/5/5 7/7/7 6/6/6
f 7/7/7 8/8/8 6/6/6
f 11/11/11 10/10/10 9/9/9
f 10/10/10 12/12/12 9/9/9
f 12/12/12 10/10/10 13/13/13
f 14/14/14 12/12/12 13/13/13
f 13/13/13 15/15/15 14/14/14
f 15/15/15 16/16/16 14/14/14
f 19/19/19 18/18/18 17/17/17
f 18/18/18 20/20/20 17/17/17
f 20/20/20 21/21/21 17/17/17
f 21/21/21 22/22/22 17/17/17
f 21/21/21 23/23/23 22/22/22
f 23/23/23 24/24/24 22/22/22
f 23/23/23 25/25/25 24/24/24
f 25/25/25 26/26/26 24/24/24
f 25/25/25 27/27/27 26/26/26
f 27/27/27 28/28/28 26/26/26
f 31/31/31 30/30/30 29/29/29
f 30/30/30 32/32/32 29/29/29
f 30/30/30 33/33/33 32/32/32
f 33/33/33 34/34/34 32/32/32
f 33/33/33 35/35/35 34/34/34
f 35/35/35 36/36/36 34/34/34
f 36/36/36 35/35/35 37/37/37
f 38/38/38 37/37/37 35/35/35
f 35/35/35 39/39/39 38/38/38
f 37/37/37 38/38/38 40/40/40
f 37/37/37 40/40/40 41/41/41
f 42/42/42 41/41/41 40/40/40
f 37/37/37 41/41/41 43/43/43
f 44/44/44 37/37/37 43/43/43
f 43/43/43 45/45/45 44/44/44
f 36/36/36 37/37/37 46/46/46
f 47/47/47 46/46/46 37/37/37
f 36/36/36 46/46/46 48/48/48
f 48/48/48 49/49/49 36/36/36
f 52/52/52 51/51/51 50/50/50
f 51/51/51 53/53/53 50/50/50
f 53/53/53 54/54/54 50/50/50
f 54/54/54 55/55/55 50/50/50
f 54/54/54 56/56/56 55/55/55
f 56/56/56 57/57/57 55/55/55
f 56/56/56 58/58/58 57/57/57
f 58/58/58 59/59/59 57/57/57
f 62/62/62 61/61/61 60/60/60
f 60/60/60 63/63/63 62/62/62
f 60/60/60 64/64/64 63/63/63
f 65/65/65 63/63/63 64/64/64
f 60/60/60 66/66/66 64/64/64
f 67/67/67 64/64/64 66/66/66
f 60/60/60 68/68/68 66/66/66
f 60/60/60 69/69/69 68/68/68
f 70/70/70 68/68/68 69/69/69
f 60/60/60 71/71/71 69/69/69
f 71/71/71 60/60/60 72/72/72
f 72/72/72 73/73/73 71/71/71
f 76/76/76 75/75/75 74/74/74
f 77/77/77 76/76/76 74/74/74
f 76/76/76 77/77/77 78/78/78
f 79/79/79 76/76/76 78/78/78
f 78/78/78 80/80/80 79/79/79
f 80/80/80 81/81/81 79/79/79
f 84/84/84 83/83/83 82/82/82
f 85/85/85 84/84/84 82/82/82
f 88/88/88 87/87/87 86/86/86
f 89/89/89 88/88/88 86/86/86
f 88/88/88 89/89/89 90/90/90
f 91/91/91 88/88/88 90/90/90
f 92/92/92 91/91/91 90/90/90
f 93/93/93 92/92/92 90/90/90
f 94/94/94 92/92/92 93/93/93
f 95/95/95 94/94/94 93/93/93
f 94/94/94 95/95/95 96/96/96
f 97/97/97 94/94/94 96/96/96
f 98/98/98 97/97/97 96/96/96
f 99/99/99 98/98/98 96/96/96
f 100/100/100 98/98/98 99/99/99
f 101/101/101 100/100/100 99/99/99
f 100/100/100 101/101/101 102/102/102
f 103/103/103 100/100/100 102/102/102
f 104/104/104 103/103/103 102/102/102
f 105/105/105 104/104/104 102/102/102
f 106/106/106 104/104/104 105/105/105
f 107/107/107 106/106/106 105/105/105
f 106/106/106 107/107/107 108/108/108
f 109/109/109 106/106/106 108/108/108
f 110/110/110 109/109/109 108/108/108
f 111/111/111 110/110/110 108/108/108
f 114/114/114 113/113/113 112/112/112
f 115/115/115 114/114/114 112/112/112
f 112/112/112 116/116/116 115/115/115
f 116/116/116 117/117/117 115/115/115
f 117/117/117 116/116/116 118/118/118
f 119/119/119 117/117/117 118/118/118
f 122/122/122 121/121/121 120/120/120
f 121/121/121 123/123/123 120/120/120
f 123/123/123 124/124/124 120/120/120
f 124/124/124 125/125/125 120/120/120
f 125/125/125 124/124/124 126/126/126
f 124/124/124 127/127/127 126/126/126
f 126/126/126 127/127/127 128/128/128
f 127/127/127 129/129/129 128/128/128
f 129/129/129 130/130/130 128/128/128
f 130/130/130 131/131/131 128/128/128
f 131/131/131 130/130/130 132/132/132
f 130/130/130 133/133/133 132/132/132
f 132/132/132 133/133/133 134/134/134
f 133/133/133 135/135/135 134/134/134
f 135/135/135 136/136/136 134/134/134
f 136/136/136 137/137/137 134/134/134
f 137/137/137 136/136/136 138/138/138
f 136/136/136 139/139/139 138/138/138
f 138/138/138 139/139/139 140/140/140
f 139/139/139 141/141/141 140/140/140
f 141/141/141 142/142/142 140/140/140
f 142/142/142 143/143/143 140/140/140
f 143/143/143 142/142/142 144/144/144
f 142/142/142 145/145/145 144/144/144
f 148/148/148 147/147/147 146/146/146
f 147/147/147 149/149/149 146/146/146
f 149/149/149 147/147/147 150/150/150
f 151/151/151 149/149/149 150/150/150
f 150/150/150 152/152/152 151/151/151
f 152/152/152 153/153/153 151/151/151
f 156/156/156 155/155/155 154/154/154
f 155/155/155 157/157/157 154/154/154
f 157/157/157 155/155/155 158/158/158
f 159/159/159 157/157/157 158/158/158
f 158/158/158 160/160/160 159/159/159
f 160/160/160 161/161/161 159/159/159
f 164/164/164 163/163/163 162/162/162
f 165/165/165 164/164/164 162/162/162
f 162/162/162 166/166/166 165/165/165
f 166/166/166 167/167/167 165/165/165
f 167/167/167 166/166/166 168/168/168
f 169/169/169 167/167/167 168/168/168
f 172/172/172 171/171/171 170/170/170
f 173/173/173 172/172/172 170/170/170
f 170/170/170 174/174/174 173/173/173
f 174/174/174 175/175/175 173/173/173
f 175/175/175 174/174/174 176/176/176
f 177/177/177 175/175/175 176/176/176
f 180/180/180 179/179/179 178/178/178
f 181/181/181 180/180/180 178/178/178
f 184/184/184 183/183/183 182/182/182
f 185/185/185 184/184/184 182/182/182
f 188/188/188 187/187/187 186/186/186
f 186/186/186 189/189/189 188/188/188
f 186/186/186 190/190/190 189/189/189
