g FanceOutside_corner
v 0.81763184 1.7642502 0.99999994
v 0.99733937 1.9477614 1
v 0.8176319 1.7806855 0.8197773
v 1.0000002 1.7642502 0.8176316
v 0.8176319 1.7806855 0.8197773
v 0.99733937 1.9477614 1
v 0.99733937 1.9477614 1
v 0.233216 2.2954903 0.99999964
v 0.233216 2.29549 0.23321563
v 1 2.295489 0.23321563
v 0.99733937 1.9477614 1
v 0.233216 2.29549 0.23321563
v 0.18527111 2.9544854 0.18527065
v 0.22879995 2.8200002 0.23574595
v 0.22879976 2.8200004 0.99999964
v 0.18510279 2.954486 0.9999995
v 0.07070711 3.037602 0.07070663
v 0.07070276 3.0376022 0.9999995
v -0.070901185 3.037602 -0.070901684
v -0.07070339 3.0376022 0.9999995
v 1 3.037602 -0.07070379
v 1 3.037602 0.07070236
v 0.18527111 2.9544854 0.18527065
v 1 2.9544857 0.1851024
v 0.22879995 2.8200002 0.23574595
v 1 2.8200002 0.22879939
v 0.22879995 2.8200002 0.23574595
v 0.18462056 2.6855152 0.9999996
v 0.18478826 2.6855147 0.18478784
v 0.11581364 2.63349 0.99999994
v 0.11588279 2.6334898 0.11588237
v 0.18478826 2.6855147 0.18478784
v 0.22879995 2.8200002 0.23574595
v 1 2.685515 0.18462025
v 0.11588279 2.6334898 0.11588237
v 1.0000004 2.6334898 0.11581333
v 0.11588279 2.6334898 0.11588237
v 0.1501612 2.617522 0.99999994
v 0.11581364 2.63349 0.99999994
v 0.15027943 2.6175218 0.15027902
v 1.0000004 2.6334898 0.11581333
v 1.0000002 2.6175218 0.15016086
v 0.22865942 2.5560439 0.99999994
v 0.22865972 2.5560436 0.23574613
v 0.22865972 2.5560436 0.23574613
v 1.0000004 2.5560436 0.2286591
v 1.0000002 2.4587266 0.25327742
v 0.23550665 2.5299256 0.23550627
v 0.2535435 2.458727 0.2535431
v 1 2.295489 0.23321563
v 0.233216 2.29549 0.23321563
v 0.22865972 2.5560436 0.23574613
v 0.23550665 2.5299256 0.23550627
v 0.25327772 2.458727 0.99999994
v 0.2535435 2.458727 0.2535431
v 0.233216 2.2954903 0.99999964
v 0.233216 2.29549 0.23321563
v -0.1859476 2.6855147 -0.18594804
v -0.115514755 2.6336548 0.9999998
v -0.11577636 2.6336546 -0.1157768
v -0.18558574 2.6855152 0.9999996
v -0.22922431 2.8200002 -0.2292248
v -0.22880036 2.8200004 0.9999994
v -0.18546471 2.9544854 -0.18546522
v -0.18510348 2.9544857 0.9999995
v -0.07070339 3.0376022 0.9999995
v -0.070901185 3.037602 -0.070901684
v -0.18546471 2.9544854 -0.18546522
v 1 3.037602 -0.07070379
v 0.99999994 2.9544854 -0.1851039
v -0.22922431 2.8200002 -0.2292248
v 0.99999994 2.8200002 -0.22880073
v -0.1859476 2.6855147 -0.18594804
v 1 2.685515 -0.18558608
v 1.0000002 2.6336546 -0.11551516
v -0.11577636 2.6336546 -0.1157768
v -0.229675 2.5565598 -0.22967543
v -0.254617 2.459243 0.9999998
v -0.254616 2.4592428 -0.25461638
v -0.22925064 2.55656 0.9999998
v -0.14986232 2.6177359 0.9999998
v -0.150173 2.6177356 -0.15017344
v -0.115514755 2.6336548 0.9999998
v -0.11577636 2.6336546 -0.1157768
v 1.0000002 2.6177356 -0.14986263
v 1.0000002 2.6336546 -0.11551516
v -0.229675 2.5565598 -0.22967543
v 1.0000002 2.5565598 -0.22925097
v 1.0000002 2.4592428 -0.2546173
v -0.254616 2.4592428 -0.25461638
v -0.22650829 2.296392 0.9999996
v -0.22650799 2.2963917 -4.4863552E-07
v -0.2353134 2.3926213 -0.2353138
v -0.254617 2.459243 0.9999998
v -0.23531343 2.4151127 -0.23531385
v -0.254616 2.4592428 -0.25461638
v -0.2353134 2.3926213 -0.2353138
v -0.22650799 2.2963917 -4.4863552E-07
v -1.0497942 1.9486678 -6.155015E-07
v -1.0508916 2.0486677 -0.3929984
v -1.0165311 2.0486677 -0.6006131
v -0.9257751 2.0486674 -0.80030495
v -0.80285746 2.0486674 -0.9232226
v -0.6031656 2.0486674 -1.0139786
v -0.39555088 2.0486674 -1.048339
v 0.00034958124 1.9477612 -1.0470041
v -5.2154064E-08 2.2963917 -0.22650835
v 0.81030506 1.7820114 0.7989438
v 0.81030506 1.7820114 0.7642535
v 0.7622658 1.8002297 0.7642535
v 0.76425374 1.7820114 0.7973048
v 0.81030506 1.7820114 0.7989438
v 1.0000001 1.7820114 0.7973047
v 1.0000001 1.2989747E-07 0.797305
v 0.81030506 1.3016454E-07 0.79894423
v 0.81030506 1.7820114 0.7989438
v 0.81030506 1.3016454E-07 0.79894423
v 0.81030494 1.6292073E-07 1.0000002
v 0.81030494 1.7820114 0.99999994
v -1.00106 1.7820114 0.9999995
v -1.00106 1.6292066E-07 0.9999998
v -0.80106 -1.3024352E-07 -0.799429
v -0.80106 1.7820112 -0.7994293
v 1 2.2964 -0.22650838
v 1.0000002 2.4592428 -0.2546173
v -0.254616 2.4592428 -0.25461638
v -5.2154064E-08 2.2963917 -0.22650835
v -0.23531343 2.4151127 -0.23531385
v -0.2353134 2.3926213 -0.2353138
v 0.50034964 2.295489 -0.23429038
v 0.38247636 2.0477612 -1.0470041
v 0.5003496 1.9477612 -1.0470041
v 0.38247642 2.3954892 -0.23429039
v 0.11822274 2.0477612 -1.0470041
v 0.1182228 2.3954892 -0.23429036
v 0.00034958124 1.9477612 -1.0470041
v -5.2154064E-08 2.2963917 -0.22650835
v 1.0003496 1.7642499 -1.0487995
v 1.0003495 1.9477612 -1.0470042
v 0.88247633 2.0477612 -1.0470042
v 0.8824764 1.8084999 -1.0084403
v 0.6182228 1.8084999 -1.0084403
v 0.6182227 2.0477612 -1.0470041
v 0.5003496 1.9477612 -1.0470041
v 0.5003496 1.7693971 -1.0084403
v 0.38247636 2.0477612 -1.0470041
v 0.3824764 1.8084999 -1.0084403
v 0.11822277 1.8084999 -1.0084401
v 0.11822274 2.0477612 -1.0470041
v 0.00034958124 1.9477612 -1.0470041
v -1.1920929E-07 1.8085874 -1.0467358
v -0.43010828 1.8085874 -1.0103157
v -0.39555088 2.0486674 -1.048339
v -0.6031656 2.0486674 -1.0139786
v -0.57179976 1.8085874 -1.0103155
v -0.85014355 1.8085874 -0.88215196
v -0.80285746 2.0486674 -0.9232226
v -0.9257751 2.0486674 -0.80030495
v -1.0294504 1.8085874 -0.56717247
v -1.0165311 2.0486677 -0.6006131
v -1.066086 1.8085874 -0.42548108
v -1.0508916 2.0486677 -0.3929984
v -1.0497942 1.9486678 -6.155015E-07
v -1.0660863 1.8085876 -5.032726E-07
v -1.0484829 1.9477613 -3.173306E-07
v -1.0484829 2.0477614 0.11787286
v -1.063137 1.8085 0.117872894
v -1.063137 1.8085002 0.3821265
v -1.0484829 2.0477614 0.38212648
v -1.0484829 1.9477614 0.49999967
v -1.063137 1.7693974 0.4999997
v -1.0484829 2.0477614 0.61787283
v -1.063137 1.8085002 0.6178729
v -1.063137 1.8085002 0.8821265
v -1.0484829 2.0477617 0.88212645
v -1.0484829 1.9477614 0.9999997
v -1.063137 1.7642502 0.9999997
v 0.61822283 2.3954892 -0.23429039
v 0.50034964 2.295489 -0.23429038
v 0.5003496 1.9477612 -1.0470041
v 0.6182227 2.0477612 -1.0470041
v 0.88247645 2.3954892 -0.23429042
v 0.88247633 2.0477612 -1.0470042
v 1 2.2964 -0.22650838
v 1.0003495 1.9477612 -1.0470042
v -0.23321635 2.295489 0.4999996
v -1.0484829 2.0477614 0.61787283
v -1.0484829 1.9477614 0.49999967
v -0.23321635 2.3954892 0.6178728
v -1.0484829 2.0477617 0.88212645
v -0.23321635 2.3954895 0.8821264
v -1.0484829 1.9477614 0.9999997
v -0.23321635 2.2954893 0.99999964
v -0.23321635 2.3954892 0.38212642
v -0.23321635 2.295489 0.4999996
v -1.0484829 1.9477614 0.49999967
v -1.0484829 2.0477614 0.38212648
v -0.23321635 2.3954892 0.117872804
v -1.0484829 2.0477614 0.11787286
v -0.23321635 2.295489 -3.7398266E-07
v -1.0484829 1.9477613 -3.173306E-07
v 0.9999999 -1.6282766E-07 -0.999429
v 0.9999999 1.7820112 -0.9994295
v -0.80106 1.7820112 -0.7994293
v -0.80106 -1.3024352E-07 -0.799429
vt 0.07320386 0.910802
vt 0.07320386 0.910802
vt 0.07320386 0.910802
vt 0.07320386 0.910802
vt 0.07320386 0.910802
vt 0.07320386 0.910802
vt 0.07320386 0.910802
vt 0.07320386 0.910802
vt 0.07320386 0.910802
vt 0.07320386 0.910802
vt 0.07320386 0.910802
vt 0.07320386 0.910802
vt 0.07320386 0.910802
vt 0.07320386 0.910802
vt 0.07320386 0.910802
vt 0.07320386 0.910802
vt 0.07320386 0.910802
vt 0.07320386 0.910802
vt 0.07320386 0.910802
vt 0.07320386 0.910802
vt 0.07320386 0.910802
vt 0.07320386 0.910802
vt 0.07320386 0.910802
vt 0.07320386 0.910802
vt 0.07320386 0.910802
vt 0.07320386 0.910802
vt 0.07320386 0.910802
vt 0.07320386 0.910802
vt 0.07320386 0.910802
vt 0.07320386 0.910802
vt 0.07320386 0.910802
vt 0.07320386 0.910802
vt 0.07320386 0.910802
vt 0.07320386 0.910802
vt 0.07320386 0.910802
vt 0.07320386 0.910802
vt 0.07320386 0.910802
vt 0.07320386 0.910802
vt 0.07320386 0.910802
vt 0.07320386 0.910802
vt 0.07320386 0.910802
vt 0.07320386 0.910802
vt 0.07320386 0.910802
vt 0.07320386 0.910802
vt 0.07320386 0.910802
vt 0.07320386 0.910802
vt 0.07320386 0.910802
vt 0.07320386 0.910802
vt 0.07320386 0.910802
vt 0.07320386 0.910802
vt 0.07320386 0.910802
vt 0.07320386 0.910802
vt 0.07320386 0.910802
vt 0.07320386 0.910802
vt 0.07320386 0.910802
vt 0.07320386 0.910802
vt 0.07320386 0.910802
vt 0.07320386 0.910802
vt 0.07320386 0.910802
vt 0.07320386 0.910802
vt 0.07320386 0.910802
vt 0.07320386 0.910802
vt 0.07320386 0.910802
vt 0.07320386 0.910802
vt 0.07320386 0.910802
vt 0.07320386 0.910802
vt 0.07320386 0.910802
vt 0.07320386 0.910802
vt 0.07320386 0.910802
vt 0.07320386 0.910802
vt 0.07320386 0.910802
vt 0.07320386 0.910802
vt 0.07320386 0.910802
vt 0.07320386 0.910802
vt 0.07320386 0.910802
vt 0.07320386 0.910802
vt 0.07320386 0.910802
vt 0.07320386 0.910802
vt 0.07320386 0.910802
vt 0.07320386 0.910802
vt 0.07320386 0.910802
vt 0.07320386 0.910802
vt 0.07320386 0.910802
vt 0.07320386 0.910802
vt 0.07320386 0.910802
vt 0.07320386 0.910802
vt 0.07320386 0.910802
vt 0.07320386 0.910802
vt 0.07320386 0.910802
vt 0.07320386 0.910802
vt 0.07320386 0.910802
vt 0.07320386 0.910802
vt 0.07320386 0.910802
vt 0.07320386 0.910802
vt 0.07320386 0.910802
vt 0.07320386 0.910802
vt 0.07320386 0.910802
vt 0.07320386 0.910802
vt 0.07320386 0.910802
vt 0.07320386 0.910802
vt 0.07320386 0.910802
vt 0.07320386 0.910802
vt 0.07320386 0.910802
vt 0.07320386 0.910802
vt 0.07320386 0.910802
vt 0.07320386 0.910802
vt 0.07320386 0.910802
vt 0.07320386 0.910802
vt 0.07320386 0.910802
vt 0.07320386 0.910802
vt 0.07320386 0.910802
vt 0.07834661 0.77301913
vt 0.07834661 0.77301913
vt 0.07834661 0.77301913
vt 0.07834661 0.77301913
vt 0.07834661 0.77301913
vt 0.07834661 0.77301913
vt 0.07834661 0.77301913
vt 0.07834661 0.77301913
vt 0.07834661 0.77301913
vt 0.07834661 0.77301913
vt 0.07834661 0.77301913
vt 0.07834661 0.77301913
vt 0.07320386 0.910802
vt 0.07320386 0.910802
vt 0.07320386 0.910802
vt 0.07320386 0.910802
vt 0.07320386 0.910802
vt 0.07320386 0.910802
vt 0.07320386 0.910802
vt 0.07320386 0.910802
vt 0.07320386 0.910802
vt 0.07320386 0.910802
vt 0.07320386 0.910802
vt 0.07320386 0.910802
vt 0.07320386 0.910802
vt 0.07320386 0.910802
vt 0.07320386 0.910802
vt 0.07320386 0.910802
vt 0.07320386 0.910802
vt 0.07320386 0.910802
vt 0.07320386 0.910802
vt 0.07320386 0.910802
vt 0.07320386 0.910802
vt 0.07320386 0.910802
vt 0.07320386 0.910802
vt 0.07320386 0.910802
vt 0.07320386 0.910802
vt 0.07320386 0.910802
vt 0.07320386 0.910802
vt 0.07320386 0.910802
vt 0.07320386 0.910802
vt 0.07320386 0.910802
vt 0.07320386 0.910802
vt 0.07320386 0.910802
vt 0.07320386 0.910802
vt 0.07320386 0.910802
vt 0.07320386 0.910802
vt 0.07320386 0.910802
vt 0.07320386 0.910802
vt 0.07320386 0.910802
vt 0.07320386 0.910802
vt 0.07320386 0.910802
vt 0.07320386 0.910802
vt 0.07320386 0.910802
vt 0.07320386 0.910802
vt 0.07320386 0.910802
vt 0.07320386 0.910802
vt 0.07320386 0.910802
vt 0.07320386 0.910802
vt 0.07320386 0.910802
vt 0.07320386 0.910802
vt 0.07320386 0.910802
vt 0.07320386 0.910802
vt 0.07320386 0.910802
vt 0.07320386 0.910802
vt 0.07320386 0.910802
vt 0.07320386 0.910802
vt 0.07320386 0.910802
vt 0.07320386 0.910802
vt 0.07320386 0.910802
vt 0.07320386 0.910802
vt 0.07320386 0.910802
vt 0.07320386 0.910802
vt 0.07320386 0.910802
vt 0.07320386 0.910802
vt 0.07320386 0.910802
vt 0.07320386 0.910802
vt 0.07320386 0.910802
vt 0.07320386 0.910802
vt 0.07320386 0.910802
vt 0.07320386 0.910802
vt 0.07320386 0.910802
vt 0.07320386 0.910802
vt 0.07320386 0.910802
vt 0.07320386 0.910802
vt 0.07320386 0.910802
vt 0.07320386 0.910802
vt 0.07320386 0.910802
vt 0.07320386 0.910802
vt 0.07320386 0.910802
vt 0.07834661 0.77301913
vt 0.07834661 0.77301913
vt 0.07834661 0.77301913
vt 0.07834661 0.7730191
vn 0.71302295 -0.69824326 -0.063676834
vn 0.71302295 -0.69824326 -0.063676834
vn 0.71302295 -0.69824326 -0.063676834
vn -0.055137765 -0.704224 0.7078336
vn -0.055137765 -0.704224 0.7078336
vn -0.055137765 -0.704224 0.7078336
vn 0.41419783 0.9101869 0
vn 0.41419783 0.9101869 0
vn 0.41419783 0.9101869 0
vn -0 0.91072875 0.4130049
vn -0 0.91072875 0.4130049
vn -0 0.91072875 0.4130049
vn 0.7493964 0.6621217 7.640872E-05
vn 0.99999833 -0.0018505094 0.00010647434
vn 0.9999987 -0.0016215239 0.00010647445
vn 0.8090567 0.5877307 8.3539366E-05
vn 0.08440583 0.9928502 0.084405184
vn 0.30884293 0.95111305 3.0067504E-05
vn -0.23874839 0.9412747 -0.23874906
vn -0.30885062 0.9511106 7.627013E-05
vn 7.654584E-05 0.9511102 -0.30885184
vn 3.0490126E-05 0.951113 0.3088431
vn 0.0016375808 0.66402453 0.747709
vn 0.002247613 0.59732187 0.80199844
vn 0.0044852635 -0.001855363 0.9999882
vn 0.0044852667 -0.0016013675 0.9999887
vn 0.99999833 -0.0018505094 0.00010647434
vn 0.81368035 -0.5813125 9.7069984E-05
vn 0.7570368 -0.6533723 9.407338E-05
vn 0.60280824 -0.7978861 8.418671E-05
vn 0.60280824 -0.7978861 8.418671E-05
vn 0.0016482917 -0.65545964 0.7552284
vn 0.0044852635 -0.001855363 0.9999882
vn 0.0022502404 -0.5909401 0.80671227
vn 8.404252E-05 -0.79788446 0.6028103
vn 8.404252E-05 -0.79788446 0.6028103
vn 0.2206913 0.9500484 0.22068848
vn 0.52251977 0.85262716 4.5493744E-05
vn 0.42130104 0.90692085 4.53876E-05
vn 0.25080734 0.9339146 0.25475305
vn 4.5485194E-05 0.9069233 0.42129585
vn 0.0013614538 0.85840845 0.51296484
vn 0.83779085 0.54599136 0.00017056818
vn 0.8024971 0.59665596 0.0001479655
vn 0.0023696304 0.6173339 0.7866977
vn 0.0022257469 0.541729 0.8405503
vn 0.0008513497 0.04561607 0.9989587
vn 0.001504344 0.21271977 0.9771121
vn 0.0008740023 0.05133243 0.99868125
vn 0.00017415572 -0.12278811 0.99243283
vn 0.00017415572 -0.12278811 0.99243283
vn 0.8024971 0.59665596 0.0001479655
vn 0.9691365 0.24652465 0.00027789766
vn 0.9980161 0.06295786 0.00023008119
vn 0.997598 0.06926933 0.0002318471
vn 0.99243283 -0.12278835 0.00017431806
vn 0.99243283 -0.12278835 0.00017431806
vn -0.87306523 -0.48760334 0.00027333602
vn -0.5946772 -0.8039645 0.00016153723
vn -0.5946772 -0.8039645 0.00016153723
vn -0.8124011 -0.5830989 0.00024758678
vn -0.99999917 0.0012650572 0.0003253021
vn -0.9999987 0.0016243255 0.00032530178
vn -0.87098247 0.49131396 0.0002678342
vn -0.8088658 0.5879933 0.00023900892
vn -0.30885062 0.9511106 7.627013E-05
vn -0.23874839 0.9412747 -0.23874906
vn 0.00026798245 0.4913137 -0.87098265
vn 7.654584E-05 0.9511102 -0.30885184
vn 0.00023917714 0.58799285 -0.8088661
vn 0.00032537698 0.0012645894 -0.99999917
vn 0.00032537666 0.001623818 -0.9999987
vn 0.00027324518 -0.487603 -0.8730654
vn 0.0002474264 -0.5830981 -0.8124017
vn 0.00016119883 -0.8039629 -0.5946795
vn 0.00016119883 -0.8039629 -0.5946795
vn -0.8921947 0.45165098 0.00018128299
vn -0.99926156 0.03836205 -0.0021731132
vn -0.9987331 0.050278805 -0.002044763
vn -0.83439803 0.5511623 0.00018666429
vn -0.51842546 0.85512286 0.00014805308
vn -0.30577928 0.90166414 -0.30577895
vn -0.42029676 0.9073867 0.00010602354
vn -0.22004272 0.95034826 -0.22004403
vn 0.00014825405 0.85512275 -0.51842546
vn 0.00010617683 0.9073856 -0.42029914
vn 0.0001815258 0.4516513 -0.89219457
vn 0.00018691279 0.5511631 -0.8343975
vn -0.0021726843 0.038359813 -0.99926156
vn -0.002044344 0.050276734 -0.9987332
vn -0.98451173 -0.17526303 -0.004411394
vn -0.98451173 -0.17526303 -0.004411394
vn -0.98451173 -0.17526303 -0.004411394
vn -0.99926156 0.03836205 -0.0021731132
vn -0.98451173 -0.17526303 -0.004411394
vn -0.9987331 0.050278805 -0.002044763
vn -0.11486929 0.986571 -0.11611528
vn -0.3960429 0.8746862 0.2794175
vn -0.3960429 0.8746862 0.2794175
vn -0.39239326 0.9138614 0.10433105
vn -0.3560159 0.9277257 -0.11215054
vn -0.29483417 0.9327417 -0.2075227
vn -0.20775141 0.9326607 -0.29492956
vn -0.11243239 0.9274775 -0.35657316
vn 0.10384297 0.91335696 -0.393695
vn 0.2793194 0.87389445 -0.39785564
vn 0.2793194 0.87389445 -0.39785564
vn -0.21560289 -0.95513815 -0.20304312
vn -0.3545944 -0.93502015 0
vn -0.1272498 -0.942547 -0.30888948
vn -0.03856397 -0.9109389 -0.41073468
vn 0.008640302 0.00057170546 0.99996257
vn 0.008640302 0.00057170546 0.99996257
vn 0.008640302 0.00057170546 0.99996257
vn 0.008640302 0.00057170546 0.99996257
vn 1 0 0
vn 1 0 0
vn 1 0 0
vn 1 0 0
vn -0.9938799 0 -0.11046614
vn -0.9938799 0 -0.11046614
vn -0.9938799 0 -0.11046614
vn -0.9938799 0 -0.11046614
vn -0.004410778 -0.17526677 -0.98451114
vn -0.0021726843 0.038359813 -0.99926156
vn -0.002044344 0.050276734 -0.9987332
vn -0.004410778 -0.17526677 -0.98451114
vn -0.004410778 -0.17526677 -0.98451114
vn -0.004410778 -0.17526677 -0.98451114
vn 0.6150198 0.7249432 -0.31017417
vn 0.34968236 0.8613395 -0.3685329
vn 0.6150198 0.7249432 -0.31017417
vn 0.29603413 0.8781725 -0.37573507
vn -0.3523951 0.86059785 -0.3676804
vn -0.30443567 0.8759083 -0.37430403
vn -0.61922306 0.7222521 -0.30808228
vn -0.61922306 0.7222521 -0.30808228
vn -0.21818322 -0.084556095 -0.9722378
vn -0.21818322 -0.084556095 -0.9722378
vn -0.07871381 -0.13320929 -0.9879572
vn -0.11897727 -0.119527355 -0.98567617
vn 0.058230825 -0.17108402 -0.98353416
vn 0.03825511 -0.16704541 -0.9852068
vn -0 -0.18161026 -0.98337054
vn -0 -0.18161026 -0.98337054
vn -0.0382554 -0.16704547 -0.9852068
vn -0.058231052 -0.1710841 -0.98353416
vn 0.09916954 -0.13084945 -0.9864298
vn 0.07224486 -0.13869433 -0.9876966
vn 0.08826879 -0.09885954 -0.9911788
vn 0.07375137 -0.09859633 -0.9923908
vn -0.07778477 -0.08997049 -0.9929022
vn -0.07527563 -0.09054323 -0.99304354
vn -0.27219212 -0.07858588 -0.9590285
vn -0.24764964 -0.079722196 -0.9655641
vn -0.67753804 -0.052826457 -0.7335881
vn -0.5468532 -0.033854567 -0.8365438
vn -0.8285647 -0.037384868 -0.5586437
vn -0.94652134 -1.1272687E-05 -0.32264104
vn -0.9375501 -0.011870826 -0.34764755
vn -0.9923402 0.068635754 -0.10271295
vn -0.9931298 0.06965937 -0.09402469
vn -0.9966029 0.0815771 0.01130287
vn -0.9966029 0.0815771 0.01130287
vn -0.9961111 0.08490774 -0.023523591
vn -0.99753916 0.06960911 -0.008378642
vn -0.9972601 0.07303373 -0.011766414
vn -0.9975674 0.065961435 0.022547074
vn -0.99782324 0.064285085 0.014701415
vn -0.9975465 0.07000613 0
vn -0.9975465 0.070006125 0
vn -0.99782324 0.064285025 -0.014701441
vn -0.9975674 0.06596141 -0.022547096
vn -0.99757785 0.065537326 0.023309687
vn -0.99783736 0.06398258 0.015060191
vn -0.99671376 0.06909601 0.04227905
vn -0.99671376 0.06909601 0.04227905
vn -0.29603443 0.87817234 -0.3757351
vn -0.61502033 0.7249428 -0.3101741
vn -0.61502033 0.7249428 -0.3101741
vn -0.34968275 0.86133933 -0.36853296
vn 0.3049977 0.8757892 -0.37412503
vn 0.35314593 0.8603913 -0.36744362
vn 0.62038404 0.721503 -0.30750135
vn 0.62038404 0.721503 -0.30750135
vn -0.30929595 0.7251611 -0.6152053
vn -0.36754808 0.8617363 -0.34974128
vn -0.30929595 0.7251611 -0.6152053
vn -0.3747169 0.87854403 -0.29622215
vn -0.36754808 0.86173654 0.34974062
vn -0.37471694 0.8785443 0.29622132
vn -0.30929577 0.7251609 0.6152056
vn -0.30929577 0.7251609 0.6152056
vn -0.37471703 0.8785442 0.2962216
vn -0.30929592 0.72516114 0.6152052
vn -0.30929592 0.72516114 0.6152052
vn -0.36754808 0.86173654 0.34974077
vn -0.37471703 0.8785442 -0.29622167
vn -0.36754817 0.8617365 -0.34974077
vn -0.309296 0.7251611 -0.6152052
vn -0.309296 0.7251611 -0.6152052
vn -0.11036737 0 -0.9938909
vn -0.11036737 0 -0.9938909
vn -0.11036737 0 -0.9938909
vn -0.11036737 0 -0.9938909
g FanceOutside_corner_0
f 3/3/3 2/2/2 1/1/1
f 6/6/6 5/5/5 4/4/4
f 9/9/9 8/8/8 7/7/7
f 12/12/12 11/11/11 10/10/10
f 15/15/15 14/14/14 13/13/13
f 16/16/16 15/15/15 13/13/13
f 16/16/16 13/13/13 17/17/17
f 18/18/18 16/16/16 17/17/17
f 18/18/18 17/17/17 19/19/19
f 20/20/20 18/18/18 19/19/19
f 19/19/19 17/17/17 21/21/21
f 17/17/17 22/22/22 21/21/21
f 22/22/22 17/17/17 23/23/23
f 24/24/24 22/22/22 23/23/23
f 24/24/24 23/23/23 25/25/25
f 26/26/26 24/24/24 25/25/25
f 15/15/15 28/28/28 27/27/27
f 28/28/28 29/29/29 27/27/27
f 28/28/28 30/30/30 29/29/29
f 30/30/30 31/31/31 29/29/29
f 26/26/26 33/33/33 32/32/32
f 34/34/34 26/26/26 32/32/32
f 34/34/34 32/32/32 35/35/35
f 36/36/36 34/34/34 35/35/35
f 39/39/39 38/38/38 37/37/37
f 38/38/38 40/40/40 37/37/37
f 41/41/41 37/37/37 40/40/40
f 42/42/42 41/41/41 40/40/40
f 38/38/38 43/43/43 40/40/40
f 43/43/43 44/44/44 40/40/40
f 42/42/42 40/40/40 45/45/45
f 46/46/46 42/42/42 45/45/45
f 47/47/47 46/46/46 45/45/45
f 45/45/45 48/48/48 47/47/47
f 48/48/48 49/49/49 47/47/47
f 50/50/50 47/47/47 49/49/49
f 51/51/51 50/50/50 49/49/49
f 53/53/53 52/52/52 43/43/43
f 53/53/53 43/43/43 54/54/54
f 54/54/54 55/55/55 53/53/53
f 55/55/55 54/54/54 56/56/56
f 57/57/57 55/55/55 56/56/56
f 60/60/60 59/59/59 58/58/58
f 59/59/59 61/61/61 58/58/58
f 58/58/58 61/61/61 62/62/62
f 61/61/61 63/63/63 62/62/62
f 62/62/62 63/63/63 64/64/64
f 63/63/63 65/65/65 64/64/64
f 64/64/64 65/65/65 66/66/66
f 67/67/67 64/64/64 66/66/66
f 67/67/67 69/69/69 68/68/68
f 69/69/69 70/70/70 68/68/68
f 68/68/68 70/70/70 71/71/71
f 70/70/70 72/72/72 71/71/71
f 71/71/71 72/72/72 73/73/73
f 72/72/72 74/74/74 73/73/73
f 73/73/73 74/74/74 75/75/75
f 76/76/76 73/73/73 75/75/75
f 79/79/79 78/78/78 77/77/77
f 78/78/78 80/80/80 77/77/77
f 77/77/77 80/80/80 81/81/81
f 82/82/82 77/77/77 81/81/81
f 82/82/82 81/81/81 83/83/83
f 84/84/84 82/82/82 83/83/83
f 82/82/82 84/84/84 85/85/85
f 84/84/84 86/86/86 85/85/85
f 82/82/82 85/85/85 87/87/87
f 85/85/85 88/88/88 87/87/87
f 87/87/87 88/88/88 89/89/89
f 90/90/90 87/87/87 89/89/89
f 93/93/93 92/92/92 91/91/91
f 91/91/91 94/94/94 93/93/93
f 94/94/94 95/95/95 93/93/93
f 94/94/94 96/96/96 95/95/95
f 99/99/99 98/98/98 97/97/97
f 100/100/100 99/99/99 97/97/97
f 101/101/101 100/100/100 97/97/97
f 101/101/101 97/97/97 102/102/102
f 103/103/103 102/102/102 97/97/97
f 103/103/103 97/97/97 104/104/104
f 97/97/97 105/105/105 104/104/104
f 106/106/106 105/105/105 97/97/97
f 107/107/107 106/106/106 97/97/97
f 110/110/110 109/109/109 108/108/108
f 111/111/111 110/110/110 108/108/108
f 114/114/114 113/113/113 112/112/112
f 112/112/112 115/115/115 114/114/114
f 118/118/118 117/117/117 116/116/116
f 116/116/116 119/119/119 118/118/118
f 122/122/122 121/121/121 120/120/120
f 123/123/123 122/122/122 120/120/120
f 126/126/126 125/125/125 124/124/124
f 124/124/124 127/127/127 126/126/126
f 127/127/127 128/128/128 126/126/126
f 127/127/127 129/129/129 128/128/128
f 132/132/132 131/131/131 130/130/130
f 131/131/131 133/133/133 130/130/130
f 133/133/133 131/131/131 134/134/134
f 135/135/135 133/133/133 134/134/134
f 134/134/134 136/136/136 135/135/135
f 136/136/136 137/137/137 135/135/135
f 140/140/140 139/139/139 138/138/138
f 141/141/141 140/140/140 138/138/138
f 140/140/140 141/141/141 142/142/142
f 143/143/143 140/140/140 142/142/142
f 144/144/144 143/143/143 142/142/142
f 145/145/145 144/144/144 142/142/142
f 146/146/146 144/144/144 145/145/145
f 147/147/147 146/146/146 145/145/145
f 146/146/146 147/147/147 148/148/148
f 149/149/149 146/146/146 148/148/148
f 150/150/150 149/149/149 148/148/148
f 151/151/151 150/150/150 148/148/148
f 150/150/150 151/151/151 152/152/152
f 153/153/153 150/150/150 152/152/152
f 154/154/154 153/153/153 152/152/152
f 155/155/155 154/154/154 152/152/152
f 155/155/155 156/156/156 154/154/154
f 156/156/156 157/157/157 154/154/154
f 158/158/158 157/157/157 156/156/156
f 156/156/156 159/159/159 158/158/158
f 159/159/159 160/160/160 158/158/158
f 160/160/160 159/159/159 161/161/161
f 162/162/162 160/160/160 161/161/161
f 163/163/163 162/162/162 161/161/161
f 164/164/164 163/163/163 161/161/161
f 166/166/166 165/165/165 164/164/164
f 167/167/167 166/166/166 164/164/164
f 166/166/166 167/167/167 168/168/168
f 169/169/169 166/166/166 168/168/168
f 170/170/170 169/169/169 168/168/168
f 171/171/171 170/170/170 168/168/168
f 172/172/172 170/170/170 171/171/171
f 173/173/173 172/172/172 171/171/171
f 172/172/172 173/173/173 174/174/174
f 175/175/175 172/172/172 174/174/174
f 176/176/176 175/175/175 174/174/174
f 177/177/177 176/176/176 174/174/174
f 180/180/180 179/179/179 178/178/178
f 181/181/181 180/180/180 178/178/178
f 178/178/178 182/182/182 181/181/181
f 182/182/182 183/183/183 181/181/181
f 183/183/183 182/182/182 184/184/184
f 185/185/185 183/183/183 184/184/184
f 188/188/188 187/187/187 186/186/186
f 187/187/187 189/189/189 186/186/186
f 189/189/189 187/187/187 190/190/190
f 191/191/191 189/189/189 190/190/190
f 190/190/190 192/192/192 191/191/191
f 192/192/192 193/193/193 191/191/191
f 196/196/196 195/195/195 194/194/194
f 197/197/197 196/196/196 194/194/194
f 194/194/194 198/198/198 197/197/197
f 198/198/198 199/199/199 197/197/197
f 199/199/199 198/198/198 200/200/200
f 201/201/201 199/199/199 200/200/200
f 204/204/204 203/203/203 202/202/202
f 205/205/205 204/204/204 202/202/202
