g ThornFanceOutside_nor_x2
v -0.23321636 2.295489 -3.7398266E-07
v -1.0500001 2.0477614 0.11787286
v -1.0500001 1.9477613 -3.173306E-07
v -0.23321636 2.3954892 0.117872804
v -1.0500001 2.0477614 0.38212648
v -0.23321636 2.3954892 0.38212642
v -1.0500001 1.9477614 0.49999967
v -0.23321636 2.295489 0.4999996
v 0.22650798 2.2963917 -3.741297E-07
v 1.05 2.0486677 -0.11787353
v 1.05 1.9486678 -3.1747828E-07
v 0.22650798 2.3963916 -0.11787358
v 1.05 2.0486677 -0.38212714
v 0.22650799 2.3963916 -0.3821272
v 1.05 1.9486676 -0.5000003
v 0.22650799 2.2963917 -0.50000036
v -0.07070311 3.0376022 1.4999995
v 0.07070313 3.037602 -0.5000005
v 0.0707031 3.0376022 1.4999995
v -0.07070311 3.037602 -0.5000005
v -0.1851031 2.9544854 -0.5000005
v -0.1851031 2.9544857 1.4999995
v -0.22880001 2.8200002 -0.5000005
v -0.22880004 2.8200004 1.4999995
v -0.18462086 2.685515 -0.5000004
v -0.18462089 2.685515 1.4999995
v -0.11581413 2.6334898 -0.5000004
v -0.11581413 2.63349 1.4999995
v -0.11581413 2.63349 1.4999995
v -0.15016167 2.6175218 -0.5000004
v -0.11581413 2.6334898 -0.5000004
v -0.15016167 2.617522 1.4999995
v -0.2286598 2.5560436 -0.5000004
v -0.2286598 2.5560439 1.4999996
v -0.25327802 2.4587266 -0.5000004
v -0.25327814 2.4587271 1.4999996
v -0.23321636 2.3954895 0.8821264
v -0.23321636 2.3954892 -0.3821272
v -0.23321636 2.295489 -0.50000036
v -0.23321636 2.3954892 -0.11787358
v -0.23321636 2.3954892 0.117872804
v -0.23321636 2.295489 -3.7398266E-07
v -0.23321636 2.3954892 0.38212642
v -0.23321636 2.3954892 0.6178728
v -0.23321636 2.295489 0.4999996
v -0.23321636 2.3954895 1.1178728
v -0.23321636 2.2954893 0.99999964
v -0.23321636 2.3954895 1.3821265
v -0.23321636 2.2954893 1.4999996
v 0.18558538 2.685515 1.4999995
v 0.11551433 2.6336546 -0.5000004
v 0.11551433 2.6336548 1.4999995
v 0.18558538 2.6855147 -0.5000004
v 0.22880004 2.8200002 -0.5000005
v 0.22880004 2.8200004 1.4999995
v 0.18510316 2.9544854 -0.5000005
v 0.18510313 2.9544857 1.4999995
v 0.07070313 3.037602 -0.5000005
v 0.0707031 3.0376022 1.4999995
v 0.25461656 2.4592428 -0.5000004
v 0.22650799 2.2963917 -0.50000036
v 0.22650799 2.3963916 -0.3821272
v 0.22650798 2.3963916 -0.11787358
v 0.22650798 2.3963916 0.117872804
v 0.22650798 2.2963917 -3.741297E-07
v 0.22650798 2.3963916 0.38212642
v 0.22650799 2.3963916 0.6178728
v 0.22650798 2.2963917 0.4999996
v 0.22650798 2.3963919 0.8821264
v 0.22650798 2.3963919 1.1178728
v 0.22650798 2.296392 0.99999964
v 0.22650798 2.3963919 1.3821265
v 0.25461656 2.459243 1.4999996
v 0.22650798 2.296392 1.4999996
v 0.11551433 2.6336548 1.4999995
v 0.11551433 2.6336546 -0.5000004
v 0.14986186 2.6177356 -0.5000004
v 0.14986186 2.6177359 1.4999995
v 0.22925022 2.55656 1.4999996
v 0.22925033 2.5565598 -0.5000004
v 0.25461656 2.459243 1.4999996
v 0.25461656 2.4592428 -0.5000004
v 0.22650798 2.3963916 0.117872804
v 0.22650798 2.2963917 -3.741297E-07
v 1.05 1.9486678 -3.1747828E-07
v 1.05 2.0486677 0.11787286
v 0.22650798 2.3963916 0.38212642
v 1.05 2.0486677 0.38212648
v 0.22650798 2.2963917 0.4999996
v 1.05 1.9486679 0.49999967
v -1.0500001 1.7635345 -0.5000003
v -1.0500001 1.9477612 -0.5000003
v -1.0500001 2.0477614 -0.38212714
v -1.0500001 1.8084999 -0.3821271
v -1.0500001 1.8085 -0.11787349
v -1.0500001 2.0477614 -0.11787353
v -1.0500001 1.9477613 -3.173306E-07
v -1.0500001 1.7686819 -2.8815487E-07
v -1.0500001 2.0477614 0.11787286
v -1.0500001 1.8085 0.117872894
v -1.0500001 1.8085002 0.3821265
v -1.0500001 2.0477614 0.38212648
v -1.0500001 1.9477614 0.49999967
v -1.0500001 1.7635348 0.4999997
v -1.0500001 2.0477614 0.61787283
v -1.0500001 1.8085002 0.6178729
v -1.0500001 1.8085002 0.8821265
v -1.0500001 2.0477617 0.88212645
v -1.0500001 1.9477614 0.9999997
v -1.0500001 1.768682 0.9999997
v -1.0500001 2.0477617 1.1178728
v -1.0500001 1.8085003 1.117873
v -1.0500001 1.8085003 1.3821266
v -1.0500001 2.0477617 1.3821265
v -1.0500001 1.9477615 1.4999996
v -1.0500001 1.7635349 1.4999998
v -0.23321636 2.3954892 -0.11787358
v -0.23321636 2.295489 -3.7398266E-07
v -1.0500001 1.9477613 -3.173306E-07
v -1.0500001 2.0477614 -0.11787353
v -0.23321636 2.3954892 -0.3821272
v -1.0500001 2.0477614 -0.38212714
v -0.23321636 2.295489 -0.50000036
v -1.0500001 1.9477612 -0.5000003
v 1.05 1.8085874 -0.3821271
v 1.05 1.9486676 -0.5000003
v 1.05 1.763622 -0.5000003
v 1.05 2.0486677 -0.38212714
v 1.05 2.0486677 -0.11787353
v 1.05 1.8085876 -0.11787349
v 1.05 1.7686819 -2.8815487E-07
v 1.05 1.9486678 -3.1747828E-07
v 1.05 1.8085876 0.117872894
v 1.05 2.0486677 0.11787286
v 1.05 2.0486677 0.38212648
v 1.05 1.8085877 0.3821265
v 1.05 1.7636223 0.4999997
v 1.05 1.9486679 0.49999967
v 1.05 1.8085877 0.6178729
v 1.05 2.0486677 0.61787283
v 1.05 2.048668 0.88212645
v 1.05 1.8085877 0.8821265
v 1.05 1.768682 0.9999997
v 1.05 1.9486679 0.9999997
v 1.05 1.8085878 1.117873
v 1.05 2.048668 1.1178728
v 1.05 2.048668 1.3821265
v 1.05 1.8085878 1.3821266
v 1.05 1.7636224 1.4999998
v 1.05 1.948668 1.4999996
v -0.23321636 2.2954893 0.99999964
v -1.0500001 2.0477617 1.1178728
v -1.0500001 1.9477614 0.9999997
v -0.23321636 2.3954895 1.1178728
v -1.0500001 2.0477617 1.3821265
v -0.23321636 2.3954895 1.3821265
v -1.0500001 1.9477615 1.4999996
v -0.23321636 2.2954893 1.4999996
v 0.22650798 2.296392 0.99999964
v 1.05 2.048668 0.88212645
v 1.05 1.9486679 0.9999997
v 0.22650798 2.3963919 0.8821264
v 1.05 2.0486677 0.61787283
v 0.22650799 2.3963916 0.6178728
v 1.05 1.9486679 0.49999967
v 0.22650798 2.2963917 0.4999996
v 0.22650798 2.3963919 1.1178728
v 0.22650798 2.296392 0.99999964
v 1.05 1.9486679 0.9999997
v 1.05 2.048668 1.1178728
v 0.22650798 2.3963919 1.3821265
v 1.05 2.048668 1.3821265
v 0.22650798 2.296392 1.4999996
v 1.05 1.948668 1.4999996
v -0.23321636 2.3954895 0.8821264
v -0.23321636 2.2954893 0.99999964
v -1.0500001 1.9477614 0.9999997
v -1.0500001 2.0477617 0.88212645
v -0.23321636 2.3954892 0.6178728
v -1.0500001 2.0477614 0.61787283
v -0.23321636 2.295489 0.4999996
v -1.0500001 1.9477614 0.49999967
v 0.99 1.9320115 1.4999996
v 0.99 1.9320111 -0.5000003
v 0.99 -2 -0.49999967
v 0.99 -1.9999998 1.5000004
v -1.0000001 -2 -0.49999967
v -1.0000001 1.9320111 -0.5000003
v -1.0000001 1.9320115 1.4999996
v -1.0000001 -1.9999998 1.5000004
vt 0.07940468 0.918553
vt 0.07940468 0.918553
vt 0.07940468 0.918553
vt 0.07940468 0.918553
vt 0.07940468 0.918553
vt 0.07940468 0.918553
vt 0.07940468 0.918553
vt 0.07940468 0.918553
vt 0.07940468 0.918553
vt 0.07940468 0.918553
vt 0.07940468 0.918553
vt 0.07940468 0.918553
vt 0.07940468 0.918553
vt 0.07940468 0.918553
vt 0.07940468 0.918553
vt 0.07940468 0.918553
vt 0.07940468 0.918553
vt 0.07940468 0.918553
vt 0.07940468 0.918553
vt 0.07940468 0.918553
vt 0.07940468 0.918553
vt 0.07940468 0.918553
vt 0.07940468 0.918553
vt 0.07940468 0.918553
vt 0.07940468 0.918553
vt 0.07940468 0.918553
vt 0.07940468 0.918553
vt 0.07940468 0.918553
vt 0.07940468 0.918553
vt 0.07940468 0.918553
vt 0.07940468 0.918553
vt 0.07940468 0.918553
vt 0.07940468 0.918553
vt 0.07940468 0.918553
vt 0.07940468 0.918553
vt 0.07940468 0.918553
vt 0.07940468 0.918553
vt 0.07940468 0.918553
vt 0.07940468 0.918553
vt 0.07940468 0.918553
vt 0.07940468 0.918553
vt 0.07940468 0.918553
vt 0.07940468 0.918553
vt 0.07940468 0.918553
vt 0.07940468 0.918553
vt 0.07940468 0.918553
vt 0.07940468 0.918553
vt 0.07940468 0.918553
vt 0.07940468 0.918553
vt 0.07940468 0.918553
vt 0.07940468 0.918553
vt 0.07940468 0.918553
vt 0.07940468 0.918553
vt 0.07940468 0.918553
vt 0.07940468 0.918553
vt 0.07940468 0.918553
vt 0.07940468 0.918553
vt 0.07940468 0.918553
vt 0.07940468 0.918553
vt 0.07940468 0.918553
vt 0.07940468 0.918553
vt 0.07940468 0.918553
vt 0.07940468 0.918553
vt 0.07940468 0.918553
vt 0.07940468 0.918553
vt 0.07940468 0.918553
vt 0.07940468 0.918553
vt 0.07940468 0.918553
vt 0.07940468 0.918553
vt 0.07940468 0.918553
vt 0.07940468 0.918553
vt 0.07940468 0.918553
vt 0.07940468 0.918553
vt 0.07940468 0.918553
vt 0.07940468 0.918553
vt 0.07940468 0.918553
vt 0.07940468 0.918553
vt 0.07940468 0.918553
vt 0.07940468 0.918553
vt 0.07940468 0.918553
vt 0.07940468 0.918553
vt 0.07940468 0.918553
vt 0.07940468 0.918553
vt 0.07940468 0.918553
vt 0.07940468 0.918553
vt 0.07940468 0.918553
vt 0.07940468 0.918553
vt 0.07940468 0.918553
vt 0.07940468 0.918553
vt 0.07940468 0.918553
vt 0.07940468 0.918553
vt 0.07940468 0.918553
vt 0.07940468 0.918553
vt 0.07940468 0.918553
vt 0.07940468 0.918553
vt 0.07940468 0.918553
vt 0.07940468 0.918553
vt 0.07940468 0.918553
vt 0.07940468 0.918553
vt 0.07940468 0.918553
vt 0.07940468 0.918553
vt 0.07940468 0.918553
vt 0.07940468 0.918553
vt 0.07940468 0.918553
vt 0.07940468 0.918553
vt 0.07940468 0.918553
vt 0.07940468 0.918553
vt 0.07940468 0.918553
vt 0.07940468 0.918553
vt 0.07940468 0.918553
vt 0.07940468 0.918553
vt 0.07940468 0.918553
vt 0.07940468 0.918553
vt 0.07940468 0.918553
vt 0.07940468 0.918553
vt 0.07940468 0.918553
vt 0.07940468 0.918553
vt 0.07940468 0.918553
vt 0.07940468 0.918553
vt 0.07940468 0.918553
vt 0.07940468 0.918553
vt 0.07940468 0.918553
vt 0.07940468 0.918553
vt 0.07940468 0.918553
vt 0.07940468 0.918553
vt 0.07940468 0.918553
vt 0.07940468 0.918553
vt 0.07940468 0.918553
vt 0.07940468 0.918553
vt 0.07940468 0.918553
vt 0.07940468 0.918553
vt 0.07940468 0.918553
vt 0.07940468 0.918553
vt 0.07940468 0.918553
vt 0.07940468 0.918553
vt 0.07940468 0.918553
vt 0.07940468 0.918553
vt 0.07940468 0.918553
vt 0.07940468 0.918553
vt 0.07940468 0.918553
vt 0.07940468 0.918553
vt 0.07940468 0.918553
vt 0.07940468 0.918553
vt 0.07940468 0.918553
vt 0.07940468 0.918553
vt 0.07940468 0.918553
vt 0.07940468 0.918553
vt 0.07940468 0.918553
vt 0.07940468 0.918553
vt 0.07940468 0.918553
vt 0.07940468 0.918553
vt 0.07940468 0.918553
vt 0.07940468 0.918553
vt 0.07940468 0.918553
vt 0.07940468 0.918553
vt 0.07940468 0.918553
vt 0.07940468 0.918553
vt 0.07940468 0.918553
vt 0.07940468 0.918553
vt 0.07940468 0.918553
vt 0.07940468 0.918553
vt 0.07940468 0.918553
vt 0.07940468 0.918553
vt 0.07940468 0.918553
vt 0.07940468 0.918553
vt 0.07940468 0.918553
vt 0.07940468 0.918553
vt 0.07940468 0.918553
vt 0.07940468 0.918553
vt 0.07940468 0.918553
vt 0.07940468 0.918553
vt 0.07940468 0.918553
vt 0.07940468 0.918553
vt 0.07940468 0.918553
vt 0.07940468 0.918553
vt 0.07940468 0.918553
vt 0.07940468 0.918553
vt 0.07940468 0.918553
vt 0.07940468 0.918553
vt 0.07940468 0.918553
vt 0.07940468 0.918553
vt 0.07940468 0.918553
vt 0.0829972 0.76508355
vt 0.0829972 0.76508355
vt 0.0829972 0.76508355
vt 0.0829972 0.76508355
vt 0.0829972 0.76508355
vt 0.0829972 0.76508355
vt 0.0829972 0.76508355
vt 0.0829972 0.76508355
vn -0.3087764 0.7252902 -0.61531407
vn -0.36696526 0.861971 -0.34977475
vn -0.3087764 0.7252902 -0.61531407
vn -0.37411436 0.8787637 -0.2963321
vn -0.36696526 0.8619711 0.34977478
vn -0.3741144 0.8787638 0.2963321
vn -0.30877635 0.7252902 0.61531407
vn -0.30877635 0.7252902 0.61531407
vn 0.30649534 0.7258531 0.61579037
vn 0.36440498 0.86299664 0.34992245
vn 0.30649534 0.7258531 0.61579037
vn 0.37146762 0.8797226 0.29681647
vn 0.36440495 0.8629964 -0.3499233
vn 0.3714676 0.8797223 -0.2968173
vn 0.30649534 0.7258526 -0.6157911
vn 0.30649534 0.7258526 -0.6157911
vn -0.3090172 0.9510565 0
vn 0.3090171 0.9510565 0
vn 0.3090171 0.95105654 0
vn -0.3090172 0.9510565 0
vn -0.8090171 0.5877851 0
vn -0.80901706 0.5877851 0
vn -0.9999987 -0.0016198064 0
vn -0.9999987 -0.0016198062 0
vn -0.813646 -0.5813607 0
vn -0.813646 -0.5813607 0
vn -0.60311085 -0.79765743 0
vn -0.60311085 -0.79765743 0
vn -0.42156756 0.90679693 0
vn -0.52250546 0.8526359 0
vn -0.42156756 0.90679693 0
vn -0.5225055 0.8526359 0
vn -0.83805704 0.5455827 0
vn -0.8380571 0.5455826 0
vn -0.9999466 0.010332951 0
vn -0.9999466 0.0103329895 0
vn -0.9743221 -0.22515883 0
vn -0.9743221 -0.22515883 0
vn -0.9743221 -0.22515883 0
vn -0.9743221 -0.22515883 0
vn -0.9743221 -0.22515883 0
vn -0.9743221 -0.22515883 0
vn -0.9743221 -0.22515883 0
vn -0.9743221 -0.22515883 0
vn -0.9743221 -0.22515883 0
vn -0.9743221 -0.22515883 0
vn -0.9743221 -0.22515883 0
vn -0.9743221 -0.22515883 0
vn -0.9743221 -0.22515883 0
vn 0.81254905 -0.5828928 0
vn 0.5948987 -0.80380064 0
vn 0.5948987 -0.80380064 0
vn 0.81254905 -0.5828928 0
vn 0.9999987 0.0016236531 0
vn 0.9999987 0.0016236629 0
vn 0.8090171 0.5877851 0
vn 0.80901706 0.5877851 0
vn 0.3090171 0.9510565 0
vn 0.3090171 0.95105654 0
vn 0.99955803 -0.029725846 0
vn 0.9509688 -0.30928692 0
vn 0.9509688 -0.30928692 0
vn 0.9509688 -0.30928692 0
vn 0.9509688 -0.30928692 0
vn 0.9509688 -0.30928692 0
vn 0.9509688 -0.30928692 0
vn 0.9509688 -0.30928692 0
vn 0.9509688 -0.30928692 0
vn 0.9509688 -0.30928692 0
vn 0.9509688 -0.30928692 0
vn 0.9509688 -0.30928692 0
vn 0.9509688 -0.30928692 0
vn 0.99955803 -0.029725831 0
vn 0.9509688 -0.30928692 0
vn 0.42050067 0.90729225 0
vn 0.42050067 0.90729225 0
vn 0.5186512 0.8549859 0
vn 0.51865125 0.85498583 0
vn 0.8339245 0.5518785 0
vn 0.8339245 0.55187863 0
vn 0.99955803 -0.029725831 0
vn 0.99955803 -0.029725846 0
vn 0.3714676 0.8797225 -0.29681674
vn 0.3064954 0.725853 -0.6157905
vn 0.3064954 0.725853 -0.6157905
vn 0.36440498 0.8629966 -0.34992275
vn 0.3714676 0.8797225 0.2968167
vn 0.36440498 0.8629966 0.34992275
vn 0.30649537 0.7258531 0.6157905
vn 0.30649537 0.7258531 0.6157905
vn -1 0 0
vn -1 0 0
vn -1 0 0
vn -1 0 0
vn -1 0 0
vn -1 0 0
vn -1 0 0
vn -1 0 0
vn -1 0 0
vn -1 0 0
vn -1 0 0
vn -1 0 0
vn -1 0 0
vn -1 0 0
vn -1 0 0
vn -1 0 0
vn -1 0 0
vn -1 0 0
vn -1 0 0
vn -1 0 0
vn -1 0 0
vn -1 0 0
vn -1 0 0
vn -1 0 0
vn -1 0 0
vn -1 0 0
vn -0.3741144 0.8787638 0.2963321
vn -0.30877638 0.7252902 0.615314
vn -0.30877638 0.7252902 0.615314
vn -0.36696526 0.8619711 0.34977478
vn -0.37411442 0.8787637 -0.29633215
vn -0.36696532 0.861971 -0.3497748
vn -0.30877644 0.72529 -0.615314
vn -0.30877644 0.72529 -0.615314
vn 1 0 0
vn 1 0 0
vn 1 0 0
vn 1 0 0
vn 1 0 0
vn 1 0 0
vn 1 0 0
vn 1 0 0
vn 1 0 0
vn 1 0 0
vn 1 0 0
vn 1 0 0
vn 1 0 0
vn 1 0 0
vn 1 0 0
vn 1 0 0
vn 1 0 0
vn 1 0 0
vn 1 0 0
vn 1 0 0
vn 1 0 0
vn 1 0 0
vn 1 0 0
vn 1 0 0
vn 1 0 0
vn 1 0 0
vn -0.30877632 0.72528964 -0.61531466
vn -0.36696526 0.8619709 -0.34977514
vn -0.30877632 0.72528964 -0.61531466
vn -0.37411445 0.8787636 -0.29633245
vn -0.3669652 0.8619709 0.34977508
vn -0.37411436 0.8787637 0.2963324
vn -0.30877623 0.7252897 0.61531454
vn -0.30877623 0.7252897 0.61531454
vn 0.30649525 0.72585285 0.6157909
vn 0.36440498 0.86299676 0.34992233
vn 0.30649525 0.72585285 0.6157909
vn 0.37146765 0.8797227 0.29681617
vn 0.364405 0.8629964 -0.349923
vn 0.37146753 0.8797223 -0.29681718
vn 0.30649567 0.7258533 -0.61578995
vn 0.30649567 0.7258533 -0.61578995
vn 0.3714676 0.8797224 -0.29681706
vn 0.30649534 0.7258526 -0.6157911
vn 0.30649534 0.7258526 -0.6157911
vn 0.36440492 0.8629964 -0.3499231
vn 0.37146756 0.8797224 0.29681703
vn 0.36440495 0.86299646 0.34992304
vn 0.3064953 0.72585267 0.615791
vn 0.3064953 0.72585267 0.615791
vn -0.37411442 0.8787638 0.29633182
vn -0.30877617 0.7252899 0.61531436
vn -0.30877617 0.7252899 0.61531436
vn -0.36696523 0.8619711 0.34977454
vn -0.3741143 0.8787636 -0.29633266
vn -0.36696517 0.86197084 -0.34977522
vn -0.30877638 0.7252901 -0.6153141
vn -0.30877638 0.7252901 -0.6153141
vn 1 0 0
vn 1 0 0
vn 1 0 0
vn 1 0 0
vn -1 0 0
vn -1 0 0
vn -1 0 0
vn -1 0 0
g ThornFanceOutside_nor_x2_0
f 3/3/3 2/2/2 1/1/1
f 2/2/2 4/4/4 1/1/1
f 4/4/4 2/2/2 5/5/5
f 6/6/6 4/4/4 5/5/5
f 5/5/5 7/7/7 6/6/6
f 7/7/7 8/8/8 6/6/6
f 11/11/11 10/10/10 9/9/9
f 10/10/10 12/12/12 9/9/9
f 12/12/12 10/10/10 13/13/13
f 14/14/14 12/12/12 13/13/13
f 13/13/13 15/15/15 14/14/14
f 15/15/15 16/16/16 14/14/14
f 19/19/19 18/18/18 17/17/17
f 18/18/18 20/20/20 17/17/17
f 20/20/20 21/21/21 17/17/17
f 21/21/21 22/22/22 17/17/17
f 21/21/21 23/23/23 22/22/22
f 23/23/23 24/24/24 22/22/22
f 23/23/23 25/25/25 24/24/24
f 25/25/25 26/26/26 24/24/24
f 25/25/25 27/27/27 26/26/26
f 27/27/27 28/28/28 26/26/26
f 31/31/31 30/30/30 29/29/29
f 30/30/30 32/32/32 29/29/29
f 30/30/30 33/33/33 32/32/32
f 33/33/33 34/34/34 32/32/32
f 33/33/33 35/35/35 34/34/34
f 35/35/35 36/36/36 34/34/34
f 36/36/36 35/35/35 37/37/37
f 38/38/38 37/37/37 35/35/35
f 35/35/35 39/39/39 38/38/38
f 37/37/37 38/38/38 40/40/40
f 37/37/37 40/40/40 41/41/41
f 42/42/42 41/41/41 40/40/40
f 37/37/37 41/41/41 43/43/43
f 44/44/44 37/37/37 43/43/43
f 43/43/43 45/45/45 44/44/44
f 36/36/36 37/37/37 46/46/46
f 47/47/47 46/46/46 37/37/37
f 36/36/36 46/46/46 48/48/48
f 48/48/48 49/49/49 36/36/36
f 52/52/52 51/51/51 50/50/50
f 51/51/51 53/53/53 50/50/50
f 53/53/53 54/54/54 50/50/50
f 54/54/54 55/55/55 50/50/50
f 54/54/54 56/56/56 55/55/55
f 56/56/56 57/57/57 55/55/55
f 56/56/56 58/58/58 57/57/57
f 58/58/58 59/59/59 57/57/57
f 62/62/62 61/61/61 60/60/60
f 60/60/60 63/63/63 62/62/62
f 60/60/60 64/64/64 63/63/63
f 65/65/65 63/63/63 64/64/64
f 60/60/60 66/66/66 64/64/64
f 60/60/60 67/67/67 66/66/66
f 68/68/68 66/66/66 67/67/67
f 60/60/60 69/69/69 67/67/67
f 60/60/60 70/70/70 69/69/69
f 71/71/71 69/69/69 70/70/70
f 60/60/60 72/72/72 70/70/70
f 72/72/72 60/60/60 73/73/73
f 73/73/73 74/74/74 72/72/72
f 77/77/77 76/76/76 75/75/75
f 78/78/78 77/77/77 75/75/75
f 77/77/77 78/78/78 79/79/79
f 80/80/80 77/77/77 79/79/79
f 79/79/79 81/81/81 80/80/80
f 81/81/81 82/82/82 80/80/80
f 85/85/85 84/84/84 83/83/83
f 86/86/86 85/85/85 83/83/83
f 83/83/83 87/87/87 86/86/86
f 87/87/87 88/88/88 86/86/86
f 88/88/88 87/87/87 89/89/89
f 90/90/90 88/88/88 89/89/89
f 93/93/93 92/92/92 91/91/91
f 94/94/94 93/93/93 91/91/91
f 93/93/93 94/94/94 95/95/95
f 96/96/96 93/93/93 95/95/95
f 97/97/97 96/96/96 95/95/95
f 98/98/98 97/97/97 95/95/95
f 99/99/99 97/97/97 98/98/98
f 100/100/100 99/99/99 98/98/98
f 99/99/99 100/100/100 101/101/101
f 102/102/102 99/99/99 101/101/101
f 103/103/103 102/102/102 101/101/101
f 104/104/104 103/103/103 101/101/101
f 105/105/105 103/103/103 104/104/104
f 106/106/106 105/105/105 104/104/104
f 105/105/105 106/106/106 107/107/107
f 108/108/108 105/105/105 107/107/107
f 109/109/109 108/108/108 107/107/107
f 110/110/110 109/109/109 107/107/107
f 111/111/111 109/109/109 110/110/110
f 112/112/112 111/111/111 110/110/110
f 111/111/111 112/112/112 113/113/113
f 114/114/114 111/111/111 113/113/113
f 115/115/115 114/114/114 113/113/113
f 116/116/116 115/115/115 113/113/113
f 119/119/119 118/118/118 117/117/117
f 120/120/120 119/119/119 117/117/117
f 117/117/117 121/121/121 120/120/120
f 121/121/121 122/122/122 120/120/120
f 122/122/122 121/121/121 123/123/123
f 124/124/124 122/122/122 123/123/123
f 127/127/127 126/126/126 125/125/125
f 126/126/126 128/128/128 125/125/125
f 128/128/128 129/129/129 125/125/125
f 129/129/129 130/130/130 125/125/125
f 130/130/130 129/129/129 131/131/131
f 129/129/129 132/132/132 131/131/131
f 131/131/131 132/132/132 133/133/133
f 132/132/132 134/134/134 133/133/133
f 134/134/134 135/135/135 133/133/133
f 135/135/135 136/136/136 133/133/133
f 136/136/136 135/135/135 137/137/137
f 135/135/135 138/138/138 137/137/137
f 137/137/137 138/138/138 139/139/139
f 138/138/138 140/140/140 139/139/139
f 140/140/140 141/141/141 139/139/139
f 141/141/141 142/142/142 139/139/139
f 142/142/142 141/141/141 143/143/143
f 141/141/141 144/144/144 143/143/143
f 143/143/143 144/144/144 145/145/145
f 144/144/144 146/146/146 145/145/145
f 146/146/146 147/147/147 145/145/145
f 147/147/147 148/148/148 145/145/145
f 148/148/148 147/147/147 149/149/149
f 147/147/147 150/150/150 149/149/149
f 153/153/153 152/152/152 151/151/151
f 152/152/152 154/154/154 151/151/151
f 154/154/154 152/152/152 155/155/155
f 156/156/156 154/154/154 155/155/155
f 155/155/155 157/157/157 156/156/156
f 157/157/157 158/158/158 156/156/156
f 161/161/161 160/160/160 159/159/159
f 160/160/160 162/162/162 159/159/159
f 162/162/162 160/160/160 163/163/163
f 164/164/164 162/162/162 163/163/163
f 163/163/163 165/165/165 164/164/164
f 165/165/165 166/166/166 164/164/164
f 169/169/169 168/168/168 167/167/167
f 170/170/170 169/169/169 167/167/167
f 167/167/167 171/171/171 170/170/170
f 171/171/171 172/172/172 170/170/170
f 172/172/172 171/171/171 173/173/173
f 174/174/174 172/172/172 173/173/173
f 177/177/177 176/176/176 175/175/175
f 178/178/178 177/177/177 175/175/175
f 175/175/175 179/179/179 178/178/178
f 179/179/179 180/180/180 178/178/178
f 180/180/180 179/179/179 181/181/181
f 182/182/182 180/180/180 181/181/181
f 185/185/185 184/184/184 183/183/183
f 186/186/186 185/185/185 183/183/183
f 189/189/189 188/188/188 187/187/187
f 190/190/190 189/189/189 187/187/187
