g ShortSword07
v -0.0258419 -0.028150858 0.24990363
v -0.006978809 -0.023209732 0.2515587
v -0.022799771 -0.023209741 0.22993228
v -0.0258419 -0.01826861 0.24990363
v -0.022799771 -0.023209741 0.22993228
v -0.006978809 -0.023209732 0.2515587
v -0.0258419 -0.028150858 0.24990363
v -0.04789828 -0.030455863 0.23580177
v -0.14535244 -0.030455858 0.24405153
v -0.15293466 -0.030455835 0.28700373
v -0.190031 -0.030455854 0.24337143
v -0.031259164 -0.03045585 0.27175868
v -0.045893494 -0.030455833 0.30746087
v -0.13669813 -0.03045583 0.31790194
v -0.05232551 -0.03045574 0.53493637
v -0.124190524 -0.030455742 0.5348934
v -0.07452907 -0.030455697 0.6520118
v -0.038888477 -0.030455694 0.6675165
v -0.03154836 -0.030455677 0.6933509
v -0.05232551 -0.03045574 0.53493637
v -0.022569086 -0.023209713 0.31020248
v -0.045893494 -0.030455833 0.30746087
v -0.028886024 -0.023209618 0.53360766
v -0.038888477 -0.030455694 0.6675165
v -0.015697189 -0.023209574 0.66373897
v -0.045893494 -0.030455833 0.30746087
v -0.022569086 -0.023209713 0.31020248
v -0.009405426 -0.023209719 0.27808815
v -0.031259164 -0.03045585 0.27175868
v -0.031259164 -0.03045585 0.27175868
v -0.009405426 -0.023209719 0.27808815
v -0.006978809 -0.023209732 0.2515587
v -0.0258419 -0.028150858 0.24990363
v -0.0258419 -0.028150858 0.24990363
v -0.022799771 -0.023209741 0.22993228
v -0.05155847 -0.023209745 0.2166264
v -0.04789828 -0.030455863 0.23580177
v -0.04789828 -0.030455863 0.23580177
v -0.05155847 -0.023209745 0.2166264
v -0.14529084 -0.023209738 0.22456108
v -0.14535244 -0.030455858 0.24405153
v -0.19457808 -0.023209734 0.22329597
v -0.190031 -0.030455854 0.24337143
v -0.22702174 -0.023209734 0.22032376
v -0.190031 -0.030455854 0.24337143
v -0.22702174 -0.023209734 0.22032376
v -0.17394109 -0.02320971 0.29632893
v -0.15293466 -0.030455835 0.28700373
v -0.15293466 -0.030455835 0.28700373
v -0.17394109 -0.02320971 0.29632893
v -0.15988584 -0.023209698 0.32307613
v -0.13669813 -0.03045583 0.31790194
v -0.13669813 -0.03045583 0.31790194
v -0.15988584 -0.023209698 0.32307613
v -0.147419 -0.023209618 0.53936064
v -0.124190524 -0.030455742 0.5348934
v -0.124190524 -0.030455742 0.5348934
v -0.147419 -0.023209618 0.53936064
v -0.09524255 -0.023209572 0.66241026
v -0.07452907 -0.030455697 0.6520118
v -0.07452907 -0.030455697 0.6520118
v -0.09524255 -0.023209572 0.66241026
v 0.013694563 -0.023209529 0.76718646
v -0.03154836 -0.030455677 0.6933509
v -0.03154836 -0.030455677 0.6933509
v 0.013694563 -0.023209529 0.76718646
v -0.015697189 -0.023209574 0.66373897
v -0.038888477 -0.030455694 0.6675165
v -0.08348905 -0.042459168 0.27204043
v -0.09342486 -0.042459168 0.26937816
v -0.10336065 -0.04245916 0.27204043
v -0.076215535 -0.042459168 0.27931392
v -0.11063417 -0.042459168 0.27931392
v -0.07355324 -0.04245916 0.28924978
v -0.11329646 -0.042459164 0.28924972
v -0.11063416 -0.042459156 0.29918557
v -0.076215535 -0.042459156 0.29918557
v -0.083489046 -0.042459156 0.30645907
v -0.10336065 -0.042459156 0.30645907
v -0.09342485 -0.042459153 0.30912137
v 0.05044827 -0.056743786 0.26815605
v 0.07575606 -0.060352303 0.23488922
v 0.026053846 -0.05326551 0.24544843
v -0.02940175 -0.045358367 0.2810747
v 0.013618439 -0.05149239 0.2862749
v -0.053739347 -0.04188819 0.28710032
v -0.015714258 -0.047310006 0.24047558
v -0.087199755 -0.037117228 0.3117062
v -0.07246346 -0.039218403 0.3124235
v -0.044188254 -0.04325006 0.2261663
v -0.060493425 -0.040925194 0.20884418
v -0.07326749 -0.039103806 0.19346882
v -0.13722682 -0.032839447 -0.11350664
v -0.11796512 -0.023209883 -0.14981976
v -0.13722682 -0.023209868 -0.11350664
v -0.13722682 -0.013580285 -0.113506645
v -0.11796512 -0.023209883 -0.14981976
v -0.12323421 -0.05227524 -0.11350664
v -0.12323421 0.0058555007 -0.113506645
v -0.10991628 -0.043364193 -0.14981976
v -0.09188178 -0.06602633 -0.11350664
v -0.10991628 -0.003055582 -0.14981976
v -0.09188178 0.019606587 -0.113506645
v -0.0918817 -0.043364197 -0.14981976
v -0.06052936 -0.052275244 -0.11350664
v -0.07384713 -0.043364197 -0.14981976
v -0.04653675 -0.03283945 -0.11350664
v -0.09387985 -0.023209887 -0.15751162
v -0.0657983 -0.023209883 -0.14981976
v -0.04653676 -0.023209874 -0.11350664
v -0.07384714 -0.0030555783 -0.14981976
v -0.04653676 -0.013580289 -0.113506645
v -0.0657983 -0.023209883 -0.14981976
v -0.06052936 0.0058555007 -0.113506645
v -0.09188171 -0.0030555783 -0.14981976
v -0.15293466 -0.015963592 0.28700373
v -0.190031 -0.01596361 0.24337143
v -0.14535244 -0.015963607 0.24405152
v -0.0258419 -0.01826861 0.24990363
v -0.04789828 -0.015963612 0.23580177
v -0.031259164 -0.0159636 0.27175868
v -0.045893494 -0.015963582 0.30746087
v -0.13669813 -0.015963575 0.31790194
v -0.05232551 -0.015963497 0.53493637
v -0.124190524 -0.015963495 0.5348934
v -0.07452907 -0.015963448 0.6520118
v -0.038888477 -0.015963443 0.6675165
v -0.03154836 -0.015963433 0.6933509
v -0.05232551 -0.015963497 0.53493637
v -0.045893494 -0.015963582 0.30746087
v -0.022569086 -0.023209713 0.31020248
v -0.028886024 -0.023209618 0.53360766
v -0.038888477 -0.015963443 0.6675165
v -0.015697189 -0.023209574 0.66373897
v -0.045893494 -0.015963582 0.30746087
v -0.031259164 -0.0159636 0.27175868
v -0.009405426 -0.023209719 0.27808815
v -0.022569086 -0.023209713 0.31020248
v -0.031259164 -0.0159636 0.27175868
v -0.0258419 -0.01826861 0.24990363
v -0.006978809 -0.023209732 0.2515587
v -0.009405426 -0.023209719 0.27808815
v -0.0258419 -0.01826861 0.24990363
v -0.04789828 -0.015963612 0.23580177
v -0.05155847 -0.023209745 0.2166264
v -0.022799771 -0.023209741 0.22993228
v -0.04789828 -0.015963612 0.23580177
v -0.14529084 -0.023209738 0.22456108
v -0.05155847 -0.023209745 0.2166264
v -0.14535244 -0.015963607 0.24405152
v -0.19457808 -0.023209734 0.22329597
v -0.190031 -0.01596361 0.24337143
v -0.22702174 -0.023209734 0.22032376
v -0.190031 -0.01596361 0.24337143
v -0.15293466 -0.015963592 0.28700373
v -0.17394109 -0.02320971 0.29632893
v -0.22702174 -0.023209734 0.22032376
v -0.15293466 -0.015963592 0.28700373
v -0.13669813 -0.015963575 0.31790194
v -0.15988584 -0.023209698 0.32307613
v -0.17394109 -0.02320971 0.29632893
v -0.13669813 -0.015963575 0.31790194
v -0.124190524 -0.015963495 0.5348934
v -0.147419 -0.023209618 0.53936064
v -0.15988584 -0.023209698 0.32307613
v -0.124190524 -0.015963495 0.5348934
v -0.07452907 -0.015963448 0.6520118
v -0.09524255 -0.023209572 0.66241026
v -0.147419 -0.023209618 0.53936064
v -0.07452907 -0.015963448 0.6520118
v -0.03154836 -0.015963433 0.6933509
v 0.013694563 -0.023209529 0.76718646
v -0.09524255 -0.023209572 0.66241026
v -0.03154836 -0.015963433 0.6933509
v -0.038888477 -0.015963443 0.6675165
v -0.015697189 -0.023209574 0.66373897
v 0.013694563 -0.023209529 0.76718646
v -0.10336065 -0.0039602746 0.27204043
v -0.09342486 -0.003960275 0.26937816
v -0.08348905 -0.0039602746 0.27204043
v -0.11063417 -0.003960273 0.27931392
v -0.07621554 -0.003960273 0.27931392
v -0.11329646 -0.003960272 0.28924972
v -0.07355325 -0.003960268 0.28924978
v -0.11063416 -0.0039602662 0.29918557
v -0.076215535 -0.0039602625 0.29918557
v -0.10336065 -0.0039602616 0.30645907
v -0.083489046 -0.0039602616 0.30645907
v -0.09342485 -0.003960261 0.30912137
v 0.050448254 0.010324313 0.26815602
v 0.026053846 0.0068460433 0.24544838
v 0.07575606 0.0139328325 0.2348892
v -0.02940175 -0.0010610808 0.2810747
v 0.013618439 0.005072968 0.28627488
v -0.053739347 -0.00453124 0.28710032
v -0.015714273 0.00089053257 0.24047554
v -0.087199755 -0.0093021775 0.3117062
v -0.07246346 -0.00720101 0.3124235
v -0.04418826 -0.0031694253 0.22616625
v -0.060493425 -0.0054943 0.20884418
v -0.07326749 -0.0073156934 0.19346882
v -0.046359576 -0.023209753 0.19035609
v -0.046359606 -0.023209842 -0.030378994
v -0.0463596 -0.04267078 -0.03037899
v -0.046359606 -0.0037489024 -0.030378997
v -0.04635957 -0.042670686 0.19035609
v -0.06040683 -0.05671795 0.1903561
v -0.06040686 -0.056718037 -0.030378988
v -0.09188175 -0.07046912 -0.030378986
v -0.13740386 -0.02320975 0.1903561
v -0.09188172 -0.07046903 0.19035612
v -0.06040683 0.010298432 0.19035609
v -0.12335664 -0.056718025 -0.030378988
v -0.046359576 -0.0037488218 0.19035609
v -0.06040686 0.010298341 -0.030379
v -0.09188175 0.02404944 -0.030379001
v -0.09188172 0.024049522 0.19035609
v -0.12335664 0.0102983555 -0.030379
v -0.12335661 -0.056717947 0.19035612
v -0.13740386 -0.042670675 0.1903561
v -0.13740389 -0.042670768 -0.03037899
v -0.13740389 -0.023209836 -0.030378994
v -0.12335661 0.010298443 0.19035609
v -0.13740386 -0.0037488143 0.1903561
v -0.13740389 -0.003748895 -0.030378997
v -0.041145936 -0.023209872 -0.10687759
v -0.04653676 -0.023209874 -0.11350664
v -0.04653675 -0.03283945 -0.11350664
v -0.04653676 -0.013580289 -0.113506645
v -0.041145936 -0.042670805 -0.10687759
v -0.06052936 -0.052275244 -0.11350664
v -0.041145936 -0.003748941 -0.106877595
v -0.06052936 0.0058555007 -0.113506645
v -0.03105773 -0.02320985 -0.06097844
v -0.031057715 -0.04267079 -0.060978435
v -0.03105773 -0.0037489112 -0.060978442
v -0.056802023 -0.056718066 -0.10687759
v -0.09188178 -0.06602633 -0.11350664
v -0.049826846 -0.05671804 -0.060978435
v -0.056802023 0.010298313 -0.106877595
v -0.09188178 0.019606587 -0.113506645
v -0.049826846 0.010298335 -0.060978442
v -0.09188175 -0.07046913 -0.10687758
v -0.12323421 -0.05227524 -0.11350664
v -0.09188177 -0.07046912 -0.06097843
v -0.09188175 0.024049414 -0.1068776
v -0.12323421 0.0058555007 -0.113506645
v -0.09188177 0.02404943 -0.060978446
v -0.12696147 -0.056718063 -0.10687759
v -0.13722682 -0.032839447 -0.11350664
v -0.13393667 -0.056718048 -0.060978435
v -0.12696147 0.010298316 -0.106877595
v -0.13722682 -0.013580285 -0.113506645
v -0.13393667 0.010298342 -0.060978442
v -0.14261755 -0.042670798 -0.10687759
v -0.1527058 -0.042670783 -0.060978435
v -0.13722682 -0.023209868 -0.11350664
v -0.14261755 -0.0037489336 -0.106877595
v -0.1527058 -0.0037489037 -0.060978442
v -0.14261755 -0.023209866 -0.10687759
v -0.1527058 -0.023209844 -0.06097844
v -0.033877626 -0.023209848 -0.0456787
v -0.03105773 -0.02320985 -0.06097844
v -0.031057715 -0.04267079 -0.060978435
v -0.03105773 -0.0037489112 -0.060978442
v -0.033877626 -0.042450517 -0.045678698
v -0.049826846 -0.05671804 -0.060978435
v -0.033877626 -0.0039691776 -0.045678705
v -0.049826846 0.010298335 -0.060978442
v -0.051776573 -0.057774033 -0.045678694
v -0.09188177 -0.07046912 -0.06097843
v -0.046359606 -0.023209842 -0.030378994
v -0.0463596 -0.04267078 -0.03037899
v -0.046359606 -0.0037489024 -0.030378997
v -0.06040686 -0.056718037 -0.030378988
v -0.05177658 0.011354335 -0.045678705
v -0.09188177 0.02404943 -0.060978446
v -0.06040686 0.010298341 -0.030379
v -0.09188175 -0.07277446 -0.045678694
v -0.13393667 -0.056718048 -0.060978435
v -0.09188175 -0.07046912 -0.030378986
v -0.091881745 0.026354782 -0.04567871
v -0.13393667 0.010298342 -0.060978442
v -0.09188175 0.02404944 -0.030379001
v -0.13198692 -0.05777403 -0.045678694
v -0.1527058 -0.042670783 -0.060978435
v -0.12335664 -0.056718025 -0.030378988
v -0.13198692 0.011354335 -0.045678705
v -0.1527058 -0.0037489037 -0.060978442
v -0.12335664 0.0102983555 -0.030379
v -0.14988586 -0.04245051 -0.045678698
v -0.13740389 -0.042670768 -0.03037899
v -0.1527058 -0.023209844 -0.06097844
v -0.14988586 -0.00396917 -0.045678705
v -0.13740389 -0.003748895 -0.030378997
v -0.14988586 -0.023209842 -0.0456787
v -0.13740389 -0.023209836 -0.030378994
v -0.059313588 -0.047738075 0.30894393
v -0.061876103 -0.044335272 0.30746448
v -0.075210184 -0.04433527 0.32079852
v -0.07373071 -0.047738075 0.32336104
v -0.09342488 -0.044335265 0.32567912
v -0.054036558 -0.047738086 0.28924978
v -0.056995496 -0.04433528 0.28924978
v -0.09342488 -0.047738075 0.32863808
v -0.111639574 -0.04433527 0.32079852
v -0.059313595 -0.047738098 0.26955557
v -0.06187611 -0.044335283 0.27103505
v -0.11311904 -0.047738075 0.32336104
v -0.124973655 -0.04433527 0.30746448
v -0.07373074 -0.0477381 0.25513846
v -0.075210206 -0.04433529 0.25770098
v -0.12753618 -0.04773808 0.30894393
v -0.12985426 -0.044335276 0.28924972
v -0.09342489 -0.0477381 0.24986148
v -0.093424894 -0.044335295 0.25282037
v -0.13281322 -0.047738083 0.28924972
v -0.124973655 -0.04433528 0.27103505
v -0.11311906 -0.0477381 0.25513846
v -0.11163959 -0.044335287 0.25770098
v -0.12753618 -0.047738094 0.26955557
v -0.071128756 -0.04243585 0.2506317
v -0.09342489 -0.042435843 0.24465753
v -0.115721025 -0.042435843 0.2506317
v -0.13204294 -0.042435836 0.2669536
v -0.13801715 -0.04243582 0.28924972
v -0.13204293 -0.042435814 0.3115459
v -0.054806836 -0.04243584 0.2669536
v -0.11572102 -0.042435814 0.3278678
v -0.048832603 -0.04243583 0.28924978
v -0.09342487 -0.042435814 0.33384204
v -0.05480683 -0.042435817 0.3115459
v -0.071128726 -0.042435817 0.3278678
v -0.13801715 -0.023209713 0.28924972
v -0.13204293 -0.023209708 0.3115459
v -0.11572102 -0.0232097 0.3278678
v -0.09342488 -0.023209702 0.33384204
v -0.071128726 -0.023209704 0.3278678
v -0.05480683 -0.02320971 0.3115459
v -0.13204294 -0.023209719 0.2669536
v -0.048832603 -0.023209719 0.28924978
v -0.11572102 -0.003983582 0.3278678
v -0.09342487 -0.0039835847 0.33384204
v -0.071128726 -0.0039835856 0.3278678
v -0.13204293 -0.0039835884 0.3115459
v -0.05480683 -0.0039835884 0.3115459
v -0.13801715 -0.0039835996 0.28924972
v -0.048832603 -0.0039836033 0.28924978
v -0.09342488 0.0013186722 0.32863808
v -0.11311904 0.0013186714 0.32336104
v -0.12753618 0.001318669 0.30894393
v -0.07373071 0.0013186714 0.32336104
v -0.1328132 0.0013186546 0.28924972
v -0.059313588 0.001318669 0.30894393
v -0.111639574 -0.0020841435 0.32079852
v -0.09342489 -0.0020841425 0.32567912
v -0.124973655 -0.0020841456 0.30746448
v -0.075210184 -0.0020841435 0.32079852
v -0.12985426 -0.0020841523 0.28924972
v -0.06187611 -0.0020841456 0.30746448
v -0.12497366 -0.002084155 0.27103505
v -0.054036558 0.0013186584 0.28924978
v -0.056995504 -0.0020841486 0.28924978
v -0.12753618 0.0013186514 0.26955557
v -0.11163959 -0.0020841612 0.25770098
v -0.054806836 -0.003983611 0.2669536
v -0.059313595 0.0013186476 0.26955557
v -0.06187612 -0.002084155 0.27103505
v -0.13204294 -0.003983607 0.2669536
v -0.11311906 0.0013186416 0.25513843
v -0.093424894 -0.0020841619 0.25282037
v -0.07373074 0.0013186453 0.25513843
v -0.075210206 -0.0020841612 0.25770098
v -0.09342489 0.0013186445 0.24986142
v -0.071128756 -0.003983613 0.2506317
v -0.11572103 -0.003983613 0.2506317
v -0.09342489 -0.003983614 0.24465752
v -0.13204294 -0.023209771 0.14327845
v -0.13204294 -0.003983653 0.14327845
v -0.11572105 -0.003983654 0.13806862
v -0.13204294 -0.04243589 0.14327845
v -0.12026246 -0.023209773 0.13587943
v -0.11572104 -0.042435884 0.13806862
v -0.0934249 -0.0039836536 0.14094847
v -0.12026246 -0.003983654 0.13587943
v -0.12026246 -0.042435884 0.13587943
v -0.11572105 -0.023209773 0.13806862
v -0.0934249 -0.023209775 0.14094847
v -0.0934249 -0.042435884 0.14094847
v -0.07112877 -0.023209777 0.13806862
v -0.07112877 -0.003983654 0.13806862
v -0.07112877 -0.042435892 0.13806862
v -0.05480685 -0.003983653 0.14327843
v -0.066587344 -0.023209777 0.13587943
v -0.05480685 -0.042435884 0.14327843
v -0.066587344 -0.003983654 0.13587943
v -0.054806836 -0.023209723 0.2669536
v -0.05480685 -0.023209773 0.14327843
v -0.066587344 -0.042435892 0.13587943
v -0.06852728 -0.049410183 0.3036244
v -0.083489046 -0.04941019 0.30645907
v -0.07905024 -0.04941017 0.31414735
v -0.076215535 -0.049410198 0.29918557
v -0.064675614 -0.049410183 0.28924978
v -0.09342485 -0.049410187 0.30912137
v -0.09342489 -0.04941017 0.317999
v -0.07355324 -0.0494102 0.28924978
v -0.06852729 -0.049410194 0.2748751
v -0.10336065 -0.04941019 0.30645907
v -0.10779953 -0.04941017 0.31414735
v -0.076215535 -0.04941021 0.27931392
v -0.079050265 -0.049410194 0.26435214
v -0.11063416 -0.049410198 0.29918557
v -0.11832251 -0.049410176 0.3036244
v -0.08348905 -0.04941021 0.27204043
v -0.093424894 -0.049410198 0.2605005
v -0.11329646 -0.049410205 0.28924972
v -0.12217417 -0.04941018 0.28924972
v -0.09342486 -0.04941021 0.26937816
v -0.10779954 -0.049410194 0.26435214
v -0.11063417 -0.04941021 0.27931392
v -0.11832251 -0.04941019 0.2748751
v -0.10336065 -0.0494102 0.27204043
v -0.11063416 -0.042459156 0.29918557
v -0.10336065 -0.042459156 0.30645907
v -0.11329646 -0.042459164 0.28924972
v -0.11063417 -0.042459168 0.27931392
v -0.09342485 -0.042459153 0.30912137
v -0.10336065 -0.04245916 0.27204043
v -0.09342486 -0.042459168 0.26937816
v -0.083489046 -0.042459156 0.30645907
v -0.08348905 -0.042459168 0.27204043
v -0.076215535 -0.042459156 0.29918557
v -0.076215535 -0.042459168 0.27931392
v -0.07355324 -0.04245916 0.28924978
v -0.075210184 -0.04433527 0.32079852
v -0.07905024 -0.04941017 0.31414735
v -0.09342489 -0.04941017 0.317999
v -0.09342488 -0.044335265 0.32567912
v -0.061876103 -0.044335272 0.30746448
v -0.10779953 -0.04941017 0.31414735
v -0.06852728 -0.049410183 0.3036244
v -0.111639574 -0.04433527 0.32079852
v -0.056995496 -0.04433528 0.28924978
v -0.11832251 -0.049410176 0.3036244
v -0.064675614 -0.049410183 0.28924978
v -0.124973655 -0.04433527 0.30746448
v -0.06187611 -0.044335283 0.27103505
v -0.12217417 -0.04941018 0.28924972
v -0.06852729 -0.049410194 0.2748751
v -0.12985426 -0.044335276 0.28924972
v -0.075210206 -0.04433529 0.25770098
v -0.11832251 -0.04941019 0.2748751
v -0.079050265 -0.049410194 0.26435214
v -0.124973655 -0.04433528 0.27103505
v -0.093424894 -0.044335295 0.25282037
v -0.10779954 -0.049410194 0.26435214
v -0.093424894 -0.049410198 0.2605005
v -0.11163959 -0.044335287 0.25770098
v -0.06852729 0.002990757 0.3036244
v -0.07905024 0.0029907664 0.31414735
v -0.083489046 0.00299078 0.30645907
v -0.076215535 0.0029907788 0.29918557
v -0.064675614 0.0029907473 0.28924978
v -0.09342485 0.0029907804 0.30912137
v -0.093424894 0.0029907671 0.317999
v -0.07355325 0.0029907734 0.28924978
v -0.06852729 0.002990745 0.2748751
v -0.10336065 0.00299078 0.30645907
v -0.10779953 0.0029907664 0.31414735
v -0.07621554 0.0029907606 0.27931392
v -0.079050265 0.0029907434 0.26435214
v -0.11063416 0.002990775 0.29918557
v -0.11832249 0.002990757 0.3036244
v -0.08348906 0.0029907594 0.27204043
v -0.0934249 0.0029907427 0.2605005
v -0.11329646 0.0029907697 0.28924972
v -0.12217417 0.002990751 0.28924972
v -0.09342486 0.002990759 0.26937816
v -0.10779954 0.0029907434 0.26435214
v -0.11063417 0.0029907606 0.27931392
v -0.11832251 0.0029907487 0.2748751
v -0.10336065 0.0029907594 0.27204043
v -0.11063416 -0.0039602662 0.29918557
v -0.10336065 -0.0039602616 0.30645907
v -0.11329646 -0.003960272 0.28924972
v -0.11063417 -0.003960273 0.27931392
v -0.09342485 -0.003960261 0.30912137
v -0.10336065 -0.0039602746 0.27204043
v -0.09342486 -0.003960275 0.26937816
v -0.083489046 -0.0039602616 0.30645907
v -0.08348905 -0.0039602746 0.27204043
v -0.076215535 -0.0039602625 0.29918557
v -0.07621554 -0.003960273 0.27931392
v -0.07355325 -0.003960268 0.28924978
v -0.075210184 -0.0020841435 0.32079852
v -0.09342489 -0.0020841425 0.32567912
v -0.093424894 0.0029907671 0.317999
v -0.07905024 0.0029907664 0.31414735
v -0.10779953 0.0029907664 0.31414735
v -0.06187611 -0.0020841456 0.30746448
v -0.111639574 -0.0020841435 0.32079852
v -0.06852729 0.002990757 0.3036244
v -0.11832249 0.002990757 0.3036244
v -0.056995504 -0.0020841486 0.28924978
v -0.124973655 -0.0020841456 0.30746448
v -0.064675614 0.0029907473 0.28924978
v -0.12217417 0.002990751 0.28924972
v -0.06187612 -0.002084155 0.27103505
v -0.12985426 -0.0020841523 0.28924972
v -0.06852729 0.002990745 0.2748751
v -0.11832251 0.0029907487 0.2748751
v -0.075210206 -0.0020841612 0.25770098
v -0.12497366 -0.002084155 0.27103505
v -0.079050265 0.0029907434 0.26435214
v -0.10779954 0.0029907434 0.26435214
v -0.093424894 -0.0020841619 0.25282037
v -0.11163959 -0.0020841612 0.25770098
v -0.0934249 0.0029907427 0.2605005
v 0.026053846 -0.05326551 0.24544843
v 0.07575606 -0.060352303 0.23488922
v 0.0883438 -0.049589403 0.22817712
v 0.028542638 -0.04106266 0.23579693
v -0.015714258 -0.047310006 0.24047558
v 0.05802554 -0.045266457 0.27422535
v 0.05044827 -0.056743786 0.26815605
v 0.018202633 -0.0395883 0.29598275
v 0.013618439 -0.05149239 0.2862749
v -0.027721241 -0.033040248 0.28841943
v -0.02940175 -0.045358367 0.2810747
v -0.05217977 -0.029552832 0.2939464
v -0.053739347 -0.04188819 0.28710032
v -0.072167665 -0.023209708 0.31953666
v -0.0878986 -0.023209706 0.32488513
v -0.07246346 -0.039218403 0.3124235
v -0.087199755 -0.037117228 0.3117062
v -0.07302597 -0.023209756 0.17621641
v -0.07326749 -0.039103806 0.19346882
v -0.011588156 -0.035340607 0.2327596
v -0.044188254 -0.04325006 0.2261663
v -0.041984014 -0.031006629 0.2173294
v -0.060493425 -0.040925194 0.20884418
v -0.05938971 -0.028524846 0.195549
v -0.07246346 -0.00720101 0.3124235
v -0.053739347 -0.00453124 0.28710032
v -0.087199755 -0.0093021775 0.3117062
v -0.07326749 -0.0073156934 0.19346882
v -0.05217977 -0.016866595 0.2939464
v -0.02940175 -0.0010610808 0.2810747
v -0.05938971 -0.017894655 0.195549
v -0.060493425 -0.0054943 0.20884418
v -0.041984014 -0.0154128615 0.21732935
v -0.04418826 -0.0031694253 0.22616625
v -0.011588156 -0.011078871 0.23275957
v -0.015714273 0.00089053257 0.24047554
v 0.028542638 -0.0053568175 0.23579693
v 0.026053846 0.0068460433 0.24544838
v -0.027721241 -0.013379181 0.28841943
v 0.013618439 0.005072968 0.28627488
v 0.0883438 0.0031699017 0.22817706
v 0.07575606 0.0139328325 0.2348892
v 0.058025554 -0.0011529922 0.27422535
v 0.050448254 0.010324313 0.26815602
v 0.018202618 -0.0068311356 0.29598275
vt 0.03519502 0.9017636
vt 0.03519502 0.9017636
vt 0.03519502 0.9017636
vt 0.03519502 0.9017636
vt 0.03519502 0.9017636
vt 0.03519502 0.9017636
vt 0.089351594 0.9030449
vt 0.089351594 0.9030449
vt 0.089351594 0.9030449
vt 0.089351594 0.9030449
vt 0.089351594 0.9030449
vt 0.089351594 0.9030449
vt 0.089351594 0.9030449
vt 0.089351594 0.9030449
vt 0.089351594 0.9030449
vt 0.089351594 0.9030449
vt 0.089351594 0.9030449
vt 0.089351594 0.9030449
vt 0.089351594 0.9030449
vt 0.03519502 0.9017636
vt 0.03519502 0.9017636
vt 0.03519502 0.9017636
vt 0.03519502 0.9017636
vt 0.03519502 0.9017636
vt 0.03519502 0.9017636
vt 0.03519502 0.9017636
vt 0.03519502 0.9017636
vt 0.03519502 0.9017636
vt 0.03519502 0.9017636
vt 0.03519502 0.9017636
vt 0.03519502 0.9017636
vt 0.03519502 0.9017636
vt 0.03519502 0.9017636
vt 0.03519502 0.9017636
vt 0.03519502 0.9017636
vt 0.03519502 0.9017636
vt 0.03519502 0.9017636
vt 0.03519502 0.9017636
vt 0.03519502 0.9017636
vt 0.03519502 0.9017636
vt 0.03519502 0.9017636
vt 0.03519502 0.9017636
vt 0.03519502 0.9017636
vt 0.03519502 0.9017636
vt 0.03519502 0.9017636
vt 0.03519502 0.9017636
vt 0.03519502 0.9017636
vt 0.03519502 0.9017636
vt 0.03519502 0.9017636
vt 0.03519502 0.9017636
vt 0.03519502 0.9017636
vt 0.03519502 0.9017636
vt 0.03519502 0.9017636
vt 0.03519502 0.9017636
vt 0.03519502 0.9017636
vt 0.03519502 0.9017636
vt 0.03519502 0.9017636
vt 0.03519502 0.9017636
vt 0.03519502 0.9017636
vt 0.03519502 0.9017636
vt 0.03519502 0.9017636
vt 0.03519502 0.9017636
vt 0.03519502 0.9017636
vt 0.03519502 0.9017636
vt 0.03519502 0.9017636
vt 0.03519502 0.9017636
vt 0.03519502 0.9017636
vt 0.03519502 0.9017636
vt 0.22539805 0.6992945
vt 0.22539805 0.6992945
vt 0.22539805 0.6992945
vt 0.22539805 0.6992945
vt 0.22539805 0.6992945
vt 0.22539805 0.6992945
vt 0.22539805 0.6992945
vt 0.22539805 0.6992945
vt 0.22539805 0.6992945
vt 0.22539805 0.6992945
vt 0.22539805 0.6992945
vt 0.22539805 0.6992945
vt 0.085146986 0.6554286
vt 0.085146986 0.6554286
vt 0.085146986 0.6554286
vt 0.085146986 0.6554286
vt 0.085146986 0.6554286
vt 0.085146986 0.6554286
vt 0.085146986 0.6554286
vt 0.085146986 0.6554286
vt 0.085146986 0.6554286
vt 0.085146986 0.6554286
vt 0.085146986 0.6554286
vt 0.085146986 0.6554286
vt 0.2145492 0.6998234
vt 0.2145492 0.6998234
vt 0.2145492 0.6998234
vt 0.2145492 0.6998234
vt 0.2145492 0.6998234
vt 0.2145492 0.6998234
vt 0.2145492 0.6998234
vt 0.2145492 0.6998234
vt 0.2145492 0.6998234
vt 0.2145492 0.6998234
vt 0.2145492 0.6998234
vt 0.2145492 0.6998234
vt 0.2145492 0.6998234
vt 0.2145492 0.6998234
vt 0.2145492 0.6998234
vt 0.2145492 0.6998234
vt 0.2145492 0.6998234
vt 0.2145492 0.6998234
vt 0.2145492 0.6998234
vt 0.2145492 0.6998234
vt 0.2145492 0.6998234
vt 0.2145492 0.6998234
vt 0.2145492 0.6998234
vt 0.089351594 0.9030449
vt 0.089351594 0.9030449
vt 0.089351594 0.9030449
vt 0.089351594 0.9030449
vt 0.089351594 0.9030449
vt 0.089351594 0.9030449
vt 0.089351594 0.9030449
vt 0.089351594 0.9030449
vt 0.089351594 0.9030449
vt 0.089351594 0.9030449
vt 0.089351594 0.9030449
vt 0.089351594 0.9030449
vt 0.089351594 0.9030449
vt 0.03519502 0.9017636
vt 0.03519502 0.9017636
vt 0.03519502 0.9017636
vt 0.03519502 0.9017636
vt 0.03519502 0.9017636
vt 0.03519502 0.9017636
vt 0.03519502 0.9017636
vt 0.03519502 0.9017636
vt 0.03519502 0.9017636
vt 0.03519502 0.9017636
vt 0.03519502 0.9017636
vt 0.03519502 0.9017636
vt 0.03519502 0.9017636
vt 0.03519502 0.9017636
vt 0.03519502 0.9017636
vt 0.03519502 0.9017636
vt 0.03519502 0.9017636
vt 0.03519502 0.9017636
vt 0.03519502 0.9017636
vt 0.03519502 0.9017636
vt 0.03519502 0.9017636
vt 0.03519502 0.9017636
vt 0.03519502 0.9017636
vt 0.03519502 0.9017636
vt 0.03519502 0.9017636
vt 0.03519502 0.9017636
vt 0.03519502 0.9017636
vt 0.03519502 0.9017636
vt 0.03519502 0.9017636
vt 0.03519502 0.9017636
vt 0.03519502 0.9017636
vt 0.03519502 0.9017636
vt 0.03519502 0.9017636
vt 0.03519502 0.9017636
vt 0.03519502 0.9017636
vt 0.03519502 0.9017636
vt 0.03519502 0.9017636
vt 0.03519502 0.9017636
vt 0.03519502 0.9017636
vt 0.03519502 0.9017636
vt 0.03519502 0.9017636
vt 0.03519502 0.9017636
vt 0.03519502 0.9017636
vt 0.03519502 0.9017636
vt 0.03519502 0.9017636
vt 0.03519502 0.9017636
vt 0.03519502 0.9017636
vt 0.03519502 0.9017636
vt 0.03519502 0.9017636
vt 0.22539805 0.6992945
vt 0.22539805 0.6992945
vt 0.22539805 0.6992945
vt 0.22539805 0.6992945
vt 0.22539805 0.6992945
vt 0.22539805 0.6992945
vt 0.22539805 0.6992945
vt 0.22539805 0.6992945
vt 0.22539805 0.6992945
vt 0.22539805 0.6992945
vt 0.22539805 0.6992945
vt 0.22539805 0.6992945
vt 0.085146986 0.6554286
vt 0.085146986 0.6554286
vt 0.085146986 0.6554286
vt 0.085146986 0.6554286
vt 0.085146986 0.6554286
vt 0.085146986 0.6554286
vt 0.085146986 0.6554286
vt 0.085146986 0.6554286
vt 0.085146986 0.6554286
vt 0.085146986 0.6554286
vt 0.085146986 0.6554286
vt 0.085146986 0.6554286
vt 0.093970835 0.71458805
vt 0.093970835 0.71458805
vt 0.093970835 0.71458805
vt 0.093970835 0.71458805
vt 0.093970835 0.71458805
vt 0.093970835 0.71458805
vt 0.093970835 0.71458805
vt 0.093970835 0.71458805
vt 0.093970835 0.71458805
vt 0.093970835 0.71458805
vt 0.093970835 0.71458805
vt 0.093970835 0.71458805
vt 0.093970835 0.71458805
vt 0.093970835 0.71458805
vt 0.093970835 0.71458805
vt 0.093970835 0.71458805
vt 0.093970835 0.71458805
vt 0.093970835 0.71458805
vt 0.093970835 0.71458805
vt 0.093970835 0.71458805
vt 0.093970835 0.71458805
vt 0.093970835 0.71458805
vt 0.093970835 0.71458805
vt 0.093970835 0.71458805
vt 0.093970835 0.71458805
vt 0.093970835 0.71458805
vt 0.093970835 0.71458805
vt 0.093970835 0.71458805
vt 0.093970835 0.71458805
vt 0.093970835 0.71458805
vt 0.093970835 0.71458805
vt 0.093970835 0.71458805
vt 0.093970835 0.71458805
vt 0.093970835 0.71458805
vt 0.093970835 0.71458805
vt 0.093970835 0.71458805
vt 0.093970835 0.71458805
vt 0.093970835 0.71458805
vt 0.093970835 0.71458805
vt 0.093970835 0.71458805
vt 0.093970835 0.71458805
vt 0.093970835 0.71458805
vt 0.093970835 0.71458805
vt 0.093970835 0.71458805
vt 0.093970835 0.71458805
vt 0.093970835 0.71458805
vt 0.093970835 0.71458805
vt 0.093970835 0.71458805
vt 0.093970835 0.71458805
vt 0.093970835 0.71458805
vt 0.093970835 0.71458805
vt 0.093970835 0.71458805
vt 0.093970835 0.71458805
vt 0.093970835 0.71458805
vt 0.093970835 0.71458805
vt 0.093970835 0.71458805
vt 0.093970835 0.71458805
vt 0.093970835 0.71458805
vt 0.093970835 0.71458805
vt 0.093970835 0.71458805
vt 0.07428457 0.692441
vt 0.07428457 0.692441
vt 0.07428457 0.692441
vt 0.07428457 0.692441
vt 0.07428457 0.692441
vt 0.07428457 0.692441
vt 0.07428457 0.692441
vt 0.07428457 0.692441
vt 0.07428457 0.692441
vt 0.07428457 0.692441
vt 0.07428457 0.692441
vt 0.07428457 0.692441
vt 0.07428457 0.692441
vt 0.07428457 0.692441
vt 0.07428457 0.692441
vt 0.07428457 0.692441
vt 0.07428457 0.692441
vt 0.07428457 0.692441
vt 0.07428457 0.692441
vt 0.07428457 0.692441
vt 0.07428457 0.692441
vt 0.07428457 0.692441
vt 0.07428457 0.692441
vt 0.07428457 0.692441
vt 0.07428457 0.692441
vt 0.07428457 0.692441
vt 0.07428457 0.692441
vt 0.07428457 0.692441
vt 0.07428457 0.692441
vt 0.07428457 0.692441
vt 0.07428457 0.692441
vt 0.07428457 0.692441
vt 0.07428457 0.692441
vt 0.07428457 0.692441
vt 0.07428457 0.692441
vt 0.07428457 0.692441
vt 0.09620693 0.90600026
vt 0.09620693 0.90600026
vt 0.09620693 0.90600026
vt 0.09620693 0.90600026
vt 0.09620693 0.90600026
vt 0.09620693 0.90600026
vt 0.09620693 0.90600026
vt 0.09620693 0.90600026
vt 0.09620693 0.90600026
vt 0.09620693 0.90600026
vt 0.09620693 0.90600026
vt 0.09620693 0.90600026
vt 0.09620693 0.90600026
vt 0.09620693 0.90600026
vt 0.09620693 0.90600026
vt 0.09620693 0.90600026
vt 0.09620693 0.90600026
vt 0.09620693 0.90600026
vt 0.09620693 0.90600026
vt 0.09620693 0.90600026
vt 0.09620693 0.90600026
vt 0.09620693 0.90600026
vt 0.09620693 0.90600026
vt 0.09620693 0.90600026
vt 0.09620693 0.90600026
vt 0.09620693 0.90600026
vt 0.09620693 0.90600026
vt 0.09620693 0.90600026
vt 0.09620693 0.90600026
vt 0.09620693 0.90600026
vt 0.09620693 0.90600026
vt 0.09620693 0.90600026
vt 0.09620693 0.90600026
vt 0.09620693 0.90600026
vt 0.09620693 0.90600026
vt 0.09620693 0.90600026
vt 0.09620693 0.90600026
vt 0.09620693 0.90600026
vt 0.09620693 0.90600026
vt 0.09620693 0.90600026
vt 0.09620693 0.90600026
vt 0.09620693 0.90600026
vt 0.09620693 0.90600026
vt 0.09620693 0.90600026
vt 0.09620693 0.90600026
vt 0.09620693 0.90600026
vt 0.09620693 0.90600026
vt 0.09620693 0.90600026
vt 0.09620693 0.90600026
vt 0.09620693 0.90600026
vt 0.09620693 0.90600026
vt 0.09620693 0.90600026
vt 0.09620693 0.90600026
vt 0.09620693 0.90600026
vt 0.09620693 0.90600026
vt 0.09620693 0.90600026
vt 0.09620693 0.90600026
vt 0.09620693 0.90600026
vt 0.09620693 0.90600026
vt 0.09620693 0.90600026
vt 0.09620693 0.90600026
vt 0.09620693 0.90600026
vt 0.09620693 0.90600026
vt 0.09620693 0.90600026
vt 0.09620693 0.90600026
vt 0.09620693 0.90600026
vt 0.09620693 0.90600026
vt 0.09620693 0.90600026
vt 0.09620693 0.90600026
vt 0.09620693 0.90600026
vt 0.09620693 0.90600026
vt 0.09620693 0.90600026
vt 0.09620693 0.90600026
vt 0.09620693 0.90600026
vt 0.09620693 0.90600026
vt 0.09620693 0.90600026
vt 0.09620693 0.90600026
vt 0.09620693 0.90600026
vt 0.09620693 0.90600026
vt 0.09620693 0.90600026
vt 0.09620693 0.90600026
vt 0.09620693 0.90600026
vt 0.09620693 0.90600026
vt 0.09620693 0.90600026
vt 0.09620693 0.90600026
vt 0.09620693 0.90600026
vt 0.09620693 0.90600026
vt 0.09620693 0.90600026
vt 0.09620693 0.90600026
vt 0.09620693 0.90600026
vt 0.09620693 0.90600026
vt 0.09620693 0.90600026
vt 0.09620693 0.90600026
vt 0.09620693 0.90600026
vt 0.09620693 0.90600026
vt 0.09620696 0.90600026
vt 0.09620696 0.90600026
vt 0.09620696 0.90600026
vt 0.09620693 0.90600026
vt 0.09620693 0.90600026
vt 0.09620696 0.90600026
vt 0.09620693 0.90600026
vt 0.09620693 0.90600026
vt 0.09620693 0.90600026
vt 0.09620693 0.90600026
vt 0.09620693 0.90600026
vt 0.09620693 0.90600026
vt 0.09620693 0.90600026
vt 0.09620693 0.90600026
vt 0.09620693 0.90600026
vt 0.09620693 0.90600026
vt 0.09620693 0.90600026
vt 0.09620693 0.90600026
vt 0.09620693 0.90600026
vt 0.09620693 0.90600026
vt 0.09620693 0.90600026
vt 0.09620693 0.90600026
vt 0.09620693 0.90600026
vt 0.09620693 0.90600026
vt 0.09620693 0.90600026
vt 0.09620693 0.90600026
vt 0.09620693 0.90600026
vt 0.09620693 0.90600026
vt 0.09620693 0.90600026
vt 0.09620693 0.90600026
vt 0.09620693 0.90600026
vt 0.09620693 0.90600026
vt 0.09620693 0.90600026
vt 0.09620693 0.90600026
vt 0.09620693 0.90600026
vt 0.09620693 0.90600026
vt 0.09620693 0.90600026
vt 0.09620693 0.90600026
vt 0.09620693 0.90600026
vt 0.09620693 0.90600026
vt 0.09620693 0.90600026
vt 0.09620693 0.90600026
vt 0.09620693 0.90600026
vt 0.22539805 0.6992945
vt 0.22539805 0.6992945
vt 0.22539805 0.6992945
vt 0.22539805 0.6992945
vt 0.22539805 0.6992945
vt 0.22539805 0.6992945
vt 0.22539805 0.6992945
vt 0.22539805 0.6992945
vt 0.22539805 0.6992945
vt 0.22539805 0.6992945
vt 0.22539805 0.6992945
vt 0.22539805 0.6992945
vt 0.22539805 0.6992945
vt 0.22539805 0.6992945
vt 0.22539805 0.6992945
vt 0.22539805 0.6992945
vt 0.22539805 0.6992945
vt 0.22539805 0.6992945
vt 0.22539805 0.6992945
vt 0.22539805 0.6992945
vt 0.22539805 0.6992945
vt 0.22539805 0.6992945
vt 0.22539805 0.6992945
vt 0.22539805 0.6992945
vt 0.09620693 0.90600026
vt 0.09620693 0.90600026
vt 0.09620693 0.90600026
vt 0.09620693 0.90600026
vt 0.09620693 0.90600026
vt 0.09620693 0.90600026
vt 0.09620693 0.90600026
vt 0.09620693 0.90600026
vt 0.09620693 0.90600026
vt 0.09620693 0.90600026
vt 0.09620693 0.90600026
vt 0.09620693 0.90600026
vt 0.09620693 0.90600026
vt 0.09620693 0.90600026
vt 0.09620693 0.90600026
vt 0.09620693 0.90600026
vt 0.09620693 0.90600026
vt 0.09620693 0.90600026
vt 0.09620693 0.90600026
vt 0.09620693 0.90600026
vt 0.09620693 0.90600026
vt 0.09620693 0.90600026
vt 0.09620693 0.90600026
vt 0.09620693 0.90600026
vt 0.09620693 0.90600026
vt 0.09620693 0.90600026
vt 0.09620693 0.90600026
vt 0.09620693 0.90600026
vt 0.09620693 0.90600026
vt 0.09620693 0.90600026
vt 0.09620693 0.90600026
vt 0.09620693 0.90600026
vt 0.09620693 0.90600026
vt 0.09620693 0.90600026
vt 0.09620693 0.90600026
vt 0.09620693 0.90600026
vt 0.22539805 0.6992945
vt 0.22539805 0.6992945
vt 0.22539805 0.6992945
vt 0.22539805 0.6992945
vt 0.22539805 0.6992945
vt 0.22539805 0.6992945
vt 0.22539805 0.6992945
vt 0.22539805 0.6992945
vt 0.22539805 0.6992945
vt 0.22539805 0.6992945
vt 0.22539805 0.6992945
vt 0.22539805 0.6992945
vt 0.22539805 0.6992945
vt 0.22539805 0.6992945
vt 0.22539805 0.6992945
vt 0.22539805 0.6992945
vt 0.22539805 0.6992945
vt 0.22539805 0.6992945
vt 0.22539805 0.6992945
vt 0.22539805 0.6992945
vt 0.22539805 0.6992945
vt 0.22539805 0.6992945
vt 0.22539805 0.6992945
vt 0.22539805 0.6992945
vt 0.085146986 0.6554286
vt 0.085146986 0.6554286
vt 0.085146986 0.6554286
vt 0.085146986 0.6554286
vt 0.085146986 0.6554286
vt 0.085146986 0.6554286
vt 0.085146986 0.6554286
vt 0.085146986 0.6554286
vt 0.085146986 0.6554286
vt 0.085146986 0.6554286
vt 0.085146986 0.6554286
vt 0.085146986 0.6554286
vt 0.085146986 0.6554286
vt 0.085146986 0.6554286
vt 0.085146986 0.6554286
vt 0.085146986 0.6554286
vt 0.085146986 0.6554286
vt 0.085146986 0.6554286
vt 0.085146986 0.6554286
vt 0.085146986 0.6554286
vt 0.085146986 0.6554286
vt 0.085146986 0.6554286
vt 0.085146986 0.6554286
vt 0.085146986 0.6554286
vt 0.085146986 0.6554286
vt 0.085146986 0.6554286
vt 0.085146986 0.6554286
vt 0.085146986 0.6554286
vt 0.085146986 0.6554286
vt 0.085146986 0.6554286
vt 0.085146986 0.6554286
vt 0.085146986 0.6554286
vt 0.085146986 0.6554286
vt 0.085146986 0.6554286
vt 0.085146986 0.6554286
vt 0.085146986 0.6554286
vt 0.085146986 0.6554286
vt 0.085146986 0.6554286
vt 0.085146986 0.6554286
vt 0.085146986 0.6554286
vt 0.085146986 0.6554286
vt 0.085146986 0.6554286
vt 0.085146986 0.6554286
vt 0.085146986 0.6554286
vt 0.085146986 0.6554286
vn 0.26446036 -0.9447915 -0.19346751
vn 0.26446036 -0.9447915 -0.19346751
vn 0.26446036 -0.9447915 -0.19346751
vn 0.26446012 0.9447916 -0.19346784
vn 0.26446012 0.9447916 -0.19346784
vn 0.26446012 0.9447916 -0.19346784
vn 0.0012143331 -0.99999917 -0.0005615128
vn 0.0012143331 -0.99999917 -0.0005615128
vn 0.0012143331 -0.99999917 -0.0005615128
vn 0.0012143331 -0.99999917 -0.0005615128
vn 0.0012143331 -0.99999917 -0.0005615128
vn 0.0012143331 -0.99999917 -0.0005615128
vn 0.0012143331 -0.99999917 -0.0005615128
vn 0.0012143331 -0.99999917 -0.0005615128
vn 0.0012143331 -0.99999917 -0.0005615128
vn 0.0012143331 -0.99999917 -0.0005615128
vn 0.0012143331 -0.99999917 -0.0005615128
vn 0.0012143331 -0.99999917 -0.0005615128
vn 0.0012143331 -0.99999917 -0.0005615128
vn 0.29577276 -0.9552217 0.008363574
vn 0.29577276 -0.9552217 0.008363574
vn 0.29577276 -0.9552217 0.008363574
vn 0.29577276 -0.9552217 0.008363574
vn 0.2936791 -0.9554406 -0.029764112
vn 0.2936791 -0.9554406 -0.029764112
vn 0.28226 -0.9523356 0.11569859
vn 0.28226 -0.9523356 0.11569859
vn 0.28226 -0.9523356 0.11569859
vn 0.28226 -0.9523356 0.11569859
vn 0.2865998 -0.9580501 0.000821964
vn 0.2865998 -0.9580501 0.000821964
vn 0.2865998 -0.9580501 0.000821964
vn 0.2865998 -0.9580501 0.000821964
vn 0.20099871 -0.9344085 -0.29407534
vn 0.20099871 -0.9344085 -0.29407534
vn 0.20099871 -0.9344085 -0.29407534
vn 0.20099871 -0.9344085 -0.29407534
vn -0.029493453 -0.9368801 -0.34840485
vn -0.029493453 -0.9368801 -0.34840485
vn -0.029493453 -0.9368801 -0.34840485
vn -0.029493453 -0.9368801 -0.34840485
vn 0.007134309 -0.93870795 -0.3446397
vn 0.007134309 -0.93870795 -0.3446397
vn 0.03166777 -0.9378204 -0.3456734
vn -0.2842034 -0.9345259 0.21421933
vn -0.2842034 -0.9345259 0.21421933
vn -0.2842034 -0.9345259 0.21421933
vn -0.2842034 -0.9345259 0.21421933
vn -0.26670465 -0.9535338 0.14014931
vn -0.26670465 -0.9535338 0.14014931
vn -0.26670465 -0.9535338 0.14014931
vn -0.26670465 -0.9535338 0.14014931
vn -0.29477414 -0.9554158 0.01699143
vn -0.29477414 -0.9554158 0.01699143
vn -0.29477414 -0.9554158 0.01699143
vn -0.29477414 -0.9554158 0.01699143
vn -0.27523798 -0.9542657 0.11670887
vn -0.27523798 -0.9542657 0.11670887
vn -0.27523798 -0.9542657 0.11670887
vn -0.27523798 -0.9542657 0.11670887
vn -0.2181736 -0.9491811 0.22683805
vn -0.2181736 -0.9491811 0.22683805
vn -0.2181736 -0.9491811 0.22683805
vn -0.2181736 -0.9491811 0.22683805
vn 0.28520203 -0.955036 -0.08103182
vn 0.28520203 -0.955036 -0.08103182
vn 0.28520203 -0.955036 -0.08103182
vn 0.28520203 -0.955036 -0.08103182
vn -0.37855822 -0.65322953 0.65573215
vn -0 -0.653236 0.7571544
vn 0.37855822 -0.65322953 0.65573215
vn -0.65573215 -0.65322953 0.37855822
vn 0.65573215 -0.65322953 0.37855822
vn -0.7571544 -0.653236 0
vn 0.7571544 -0.653236 0
vn 0.65573215 -0.65322953 -0.37855822
vn -0.65573215 -0.65322953 -0.37855822
vn -0.37855822 -0.65322953 -0.65573215
vn 0.37855822 -0.65322953 -0.65573215
vn -0 -0.653236 -0.7571544
vn -0.14115727 -0.9899872 0
vn -0.14115727 -0.9899872 0
vn -0.14115727 -0.9899872 0
vn -0.14115727 -0.9899872 0
vn -0.14115727 -0.9899872 0
vn -0.14115727 -0.9899872 0
vn -0.14115727 -0.9899872 0
vn -0.14115727 -0.9899872 0
vn -0.14115727 -0.9899872 0
vn -0.14115727 -0.9899872 0
vn -0.14115727 -0.9899872 0
vn -0.14115727 -0.9899872 0
vn -0.7724224 -0.18433884 -0.6077687
vn -0.99936885 0 0.03552389
vn -0.8336011 0 -0.5523668
vn -0.7724224 0.18433884 -0.6077687
vn -0.85339725 0 -0.5212611
vn -0.47843024 -0.6391481 -0.60215795
vn -0.47843024 0.6391481 -0.60215795
vn -0.42030588 -0.5767151 -0.7005302
vn -0 -0.84010684 -0.54242086
vn -0.42030588 0.5767151 -0.7005302
vn -0 0.84010684 -0.54242086
vn -0 -0.67099404 -0.74146277
vn 0.4784209 -0.6391662 -0.6021462
vn 0.41933352 -0.570495 -0.7061833
vn 0.7724224 -0.18433884 -0.6077687
vn -0.020814195 0 -0.99978334
vn 0.8479212 0 -0.5301224
vn 0.8336011 0 -0.5523668
vn 0.41933352 0.570495 -0.7061833
vn 0.7724224 0.18433884 -0.6077687
vn 0.99936885 0 0.03552389
vn 0.47843024 0.6391481 -0.60215795
vn -0 0.67099404 -0.74146277
vn 0.0012143645 0.99999917 -0.0005623298
vn 0.0012143645 0.99999917 -0.0005623298
vn 0.0012143645 0.99999917 -0.0005623298
vn 0.0012143645 0.99999917 -0.0005623298
vn 0.0012143645 0.99999917 -0.0005623298
vn 0.0012143645 0.99999917 -0.0005623298
vn 0.0012143645 0.99999917 -0.0005623298
vn 0.0012143645 0.99999917 -0.0005623298
vn 0.0012143645 0.99999917 -0.0005623298
vn 0.0012143645 0.99999917 -0.0005623298
vn 0.0012143645 0.99999917 -0.0005623298
vn 0.0012143645 0.99999917 -0.0005623298
vn 0.0012143645 0.99999917 -0.0005623298
vn 0.29577294 0.9552216 0.008362797
vn 0.29577294 0.9552216 0.008362797
vn 0.29577294 0.9552216 0.008362797
vn 0.29577294 0.9552216 0.008362797
vn 0.29367918 0.9554405 -0.029764848
vn 0.29367918 0.9554405 -0.029764848
vn 0.28226003 0.9523357 0.11569806
vn 0.28226003 0.9523357 0.11569806
vn 0.28226003 0.9523357 0.11569806
vn 0.28226003 0.9523357 0.11569806
vn 0.28659979 0.9580501 0.0008210588
vn 0.28659979 0.9580501 0.0008210588
vn 0.28659979 0.9580501 0.0008210588
vn 0.28659979 0.9580501 0.0008210588
vn 0.2009987 0.93440825 -0.2940759
vn 0.2009987 0.93440825 -0.2940759
vn 0.2009987 0.93440825 -0.2940759
vn 0.2009987 0.93440825 -0.2940759
vn -0.029493347 0.9368798 -0.34840542
vn -0.029493347 0.9368798 -0.34840542
vn -0.029493347 0.9368798 -0.34840542
vn -0.029493347 0.9368798 -0.34840542
vn 0.0071344115 0.9387079 -0.34464005
vn 0.0071344115 0.9387079 -0.34464005
vn 0.031668108 0.93782026 -0.3456737
vn -0.2842034 0.9345261 0.21421847
vn -0.2842034 0.9345261 0.21421847
vn -0.2842034 0.9345261 0.21421847
vn -0.2842034 0.9345261 0.21421847
vn -0.26670462 0.95353395 0.14014868
vn -0.26670462 0.95353395 0.14014868
vn -0.26670462 0.95353395 0.14014868
vn -0.26670462 0.95353395 0.14014868
vn -0.29477417 0.9554158 0.016990695
vn -0.29477417 0.9554158 0.016990695
vn -0.29477417 0.9554158 0.016990695
vn -0.29477417 0.9554158 0.016990695
vn -0.27523822 0.9542657 0.116708234
vn -0.27523822 0.9542657 0.116708234
vn -0.27523822 0.9542657 0.116708234
vn -0.27523822 0.9542657 0.116708234
vn -0.21817361 0.9491813 0.22683735
vn -0.21817361 0.9491813 0.22683735
vn -0.21817361 0.9491813 0.22683735
vn -0.21817361 0.9491813 0.22683735
vn 0.2852024 0.95503575 -0.081032686
vn 0.2852024 0.95503575 -0.081032686
vn 0.2852024 0.95503575 -0.081032686
vn 0.2852024 0.95503575 -0.081032686
vn 0.37855822 0.65322953 0.65573215
vn -0 0.653236 0.7571544
vn -0.37855822 0.65322953 0.65573215
vn 0.65573215 0.65322953 0.37855822
vn -0.65573215 0.65322953 0.37855822
vn 0.7571544 0.653236 0
vn -0.7571544 0.653236 0
vn 0.65573215 0.65322953 -0.37855822
vn -0.65572464 0.6532221 -0.37858438
vn 0.37855822 0.65322953 -0.65573215
vn -0.37855822 0.65322953 -0.65573215
vn -0 0.653236 -0.7571544
vn -0.14115708 0.9899872 0
vn -0.14115708 0.9899872 0
vn -0.14115708 0.9899872 0
vn -0.14115708 0.9899872 0
vn -0.14115708 0.9899872 0
vn -0.14115708 0.9899872 0
vn -0.14115708 0.9899872 0
vn -0.14115708 0.9899872 0
vn -0.14115708 0.9899872 0
vn -0.14115708 0.9899872 0
vn -0.14115708 0.9899872 0
vn -0.14115708 0.9899872 0
vn 0.70710677 0 0.70710677
vn 0.9420309 0 0.33552623
vn 0.8561053 -0.41076332 0.3136194
vn 0.8561053 0.41076332 0.3136194
vn 0.7172937 -0.2971048 0.63025284
vn 0.41954523 -0.61505014 0.66760397
vn 0.5217256 -0.8390032 0.15451868
vn -0 -0.99365956 0.11243103
vn -0.70710677 0 0.70710677
vn -0 -0.7789237 0.6271187
vn 0.41954523 0.61505014 0.66760397
vn -0.5217256 -0.8390032 0.15451868
vn 0.7172937 0.2971048 0.63025284
vn 0.5217256 0.8390032 0.15451868
vn -0 0.99365956 0.11243103
vn -0 0.7789237 0.6271187
vn -0.5217256 0.8390032 0.15451868
vn -0.41954523 -0.61505014 0.66760397
vn -0.7172937 -0.2971048 0.63025284
vn -0.8561053 -0.41076332 0.3136194
vn -0.9420309 0 0.33552623
vn -0.41954523 0.61505014 0.66760397
vn -0.7172937 0.2971048 0.63025284
vn -0.8561053 0.41076332 0.3136194
vn 0.9006435 0 -0.43455875
vn 0.8336011 0 -0.5523668
vn 0.7724224 -0.18433884 -0.6077687
vn 0.7724224 0.18433884 -0.6077687
vn 0.787302 -0.40660638 -0.46349403
vn 0.4784209 -0.6391662 -0.6021462
vn 0.787302 0.40660638 -0.46349403
vn 0.47843024 0.6391481 -0.60215795
vn 0.99985504 0 -0.017029459
vn 0.9106696 -0.41262287 -0.020570103
vn 0.9106696 0.41262287 -0.020570103
vn 0.47295484 -0.78696615 -0.3962298
vn -0 -0.84010684 -0.54242086
vn 0.50045794 -0.8650128 -0.035982437
vn 0.47295484 0.78696615 -0.3962298
vn -0 0.84010684 -0.54242086
vn 0.50045794 0.8650128 -0.035982437
vn -0 -0.9475543 -0.3195951
vn -0.47843024 -0.6391481 -0.60215795
vn -0 -0.9983368 -0.057650346
vn -0 0.9475543 -0.3195951
vn -0.47843024 0.6391481 -0.60215795
vn -0 0.9983368 -0.057650346
vn -0.47295484 -0.78696615 -0.3962298
vn -0.7724224 -0.18433884 -0.6077687
vn -0.50045794 -0.8650128 -0.035982437
vn -0.47295484 0.78696615 -0.3962298
vn -0.7724224 0.18433884 -0.6077687
vn -0.50045794 0.8650128 -0.035982437
vn -0.787302 -0.40660638 -0.46349403
vn -0.9106696 -0.41262287 -0.020570103
vn -0.8336011 0 -0.5523668
vn -0.787302 0.40660638 -0.46349403
vn -0.9106696 0.41262287 -0.020570103
vn -0.9006435 0 -0.43455875
vn -0.99985504 0 -0.017029459
vn 0.90759015 0 0.41985732
vn 0.99985504 0 -0.017029459
vn 0.9106696 -0.41262287 -0.020570103
vn 0.9106696 0.41262287 -0.020570103
vn 0.8515636 -0.38412225 0.3567765
vn 0.50045794 -0.8650128 -0.035982437
vn 0.8515636 0.38412225 0.3567765
vn 0.50045794 0.8650128 -0.035982437
vn 0.5095477 -0.84275573 0.17356238
vn -0 -0.9983368 -0.057650346
vn 0.9420309 0 0.33552623
vn 0.8561053 -0.41076332 0.3136194
vn 0.8561053 0.41076332 0.3136194
vn 0.5217256 -0.8390032 0.15451868
vn 0.5095477 0.84275573 0.17356238
vn -0 0.9983368 -0.057650346
vn 0.5217256 0.8390032 0.15451868
vn -0 -0.99788886 0.06494503
vn -0.50045794 -0.8650128 -0.035982437
vn -0 -0.99365956 0.11243103
vn -0 0.99788886 0.06494503
vn -0.50045794 0.8650128 -0.035982437
vn -0 0.99365956 0.11243103
vn -0.5095477 -0.84275573 0.17356238
vn -0.9106696 -0.41262287 -0.020570103
vn -0.5217256 -0.8390032 0.15451868
vn -0.5095477 0.84275573 0.17356238
vn -0.9106696 0.41262287 -0.020570103
vn -0.5217256 0.8390032 0.15451868
vn -0.8515636 -0.38412225 0.3567765
vn -0.8561053 -0.41076332 0.3136194
vn -0.99985504 0 -0.017029459
vn -0.8515636 0.38412225 0.3567765
vn -0.8561053 0.41076332 0.3136194
vn -0.90759015 0 0.41985732
vn -0.9420309 0 0.33552623
vn 0.079106376 -0.9958187 0.045687594
vn -0.20679434 -0.97107273 -0.11938894
vn -0.11938894 -0.97107273 -0.20679434
vn 0.045687594 -0.9958187 0.079106376
vn -0 -0.9710741 -0.23877822
vn 0.091375 -0.99581665 0
vn -0.23877822 -0.9710741 0
vn -0 -0.99581665 0.091375
vn 0.11938894 -0.97107273 -0.20679434
vn 0.079106376 -0.9958187 -0.045687594
vn -0.20679434 -0.97107273 0.11938894
vn -0.045687594 -0.9958187 0.079106376
vn 0.20679434 -0.97107273 -0.11938894
vn 0.045687594 -0.9958187 -0.079106376
vn -0.11938894 -0.97107273 0.20679434
vn -0.079106376 -0.9958187 0.045687594
vn 0.23877822 -0.9710741 0
vn -0 -0.99581665 -0.091375
vn -0 -0.9710741 0.23877822
vn -0.091375 -0.99581665 0
vn 0.20679434 -0.97107273 0.11938894
vn -0.045687594 -0.9958187 -0.079106376
vn 0.11938894 -0.97107273 0.20679434
vn -0.079106376 -0.9958187 -0.045687594
vn 0.16480483 -0.94411796 -0.28544804
vn -0 -0.9441173 -0.32960942
vn -0.16480483 -0.94411796 -0.28544804
vn -0.84441185 -0.47686625 -0.24406397
vn -0.933678 -0.35811388 0
vn -0.8086018 -0.35811034 0.46681914
vn 0.84441185 -0.47686625 -0.24406397
vn -0.46681914 -0.35811034 0.8086018
vn 0.933678 -0.35811388 0
vn -0 -0.35811388 0.933678
vn 0.8086018 -0.35811034 0.46681914
vn 0.46681914 -0.35811034 0.8086018
vn -1 0 0
vn -0.8660316 0 0.49998927
vn -0.49998927 0 0.8660316
vn -0 0 1
vn 0.49998927 0 0.8660316
vn 0.8660316 0 0.49998927
vn -0.9914483 0 -0.13050029
vn 1 0 0
vn -0.46681914 0.35811034 0.8086018
vn -0 0.35811388 0.933678
vn 0.46681914 0.35811034 0.8086018
vn -0.8086018 0.35811034 0.46681914
vn 0.8086018 0.35811034 0.46681914
vn -0.933678 0.35811388 0
vn 0.933678 0.35811388 0
vn -0 0.99581665 0.091375
vn -0.045687594 0.9958187 0.079106376
vn -0.079106376 0.9958187 0.045687594
vn 0.045687594 0.9958187 0.079106376
vn -0.091375 0.99581665 0
vn 0.079106376 0.9958187 0.045687594
vn 0.11938894 0.97107273 -0.20679434
vn -0 0.9710741 -0.23877822
vn 0.20679434 0.97107273 -0.11938894
vn -0.11938894 0.97107273 -0.20679434
vn 0.23877822 0.9710741 0
vn -0.20679434 0.97107273 -0.11938894
vn 0.20679434 0.97107273 0.11938894
vn 0.091375 0.99581665 0
vn -0.23877822 0.9710741 0
vn -0.07913671 0.9958163 -0.045687485
vn 0.11938894 0.97107273 0.20679434
vn 0.84441185 0.47686625 -0.24406397
vn 0.07913671 0.9958163 -0.045687485
vn -0.20679434 0.97107273 0.11938894
vn -0.84441185 0.47686625 -0.24406397
vn -0.045687485 0.9958163 -0.07913671
vn -0 0.9710741 0.23877822
vn 0.045687485 0.9958163 -0.07913671
vn -0.11938894 0.97107273 0.20679434
vn -0 0.99581665 -0.091375
vn 0.16480483 0.94411796 -0.28544804
vn -0.16480483 0.94411796 -0.28544804
vn -0 0.9441173 -0.32960942
vn -0.87518036 0 -0.4837969
vn -0.6916629 0.61270905 -0.38234803
vn 0.19001333 0.74488527 -0.639563
vn -0.6916629 -0.61270905 -0.38234803
vn -0.05575906 0 -0.99844426
vn 0.19001333 -0.74488527 -0.639563
vn -0 0.7370984 -0.6757854
vn -0.04407005 0.612708 -0.7890797
vn -0.04407005 -0.612708 -0.7890797
vn 0.28480732 0 -0.9585848
vn -0 0 -1
vn -0 -0.7370984 -0.6757854
vn -0.28480732 0 -0.9585848
vn -0.19001333 0.74488527 -0.639563
vn -0.19001333 -0.74488527 -0.639563
vn 0.6916629 0.61270905 -0.38234803
vn 0.05575906 0 -0.99844426
vn 0.6916629 -0.61270905 -0.38234803
vn 0.04407005 0.612708 -0.7890797
vn 0.9914483 0 -0.13050029
vn 0.87518036 0 -0.4837969
vn 0.04407005 -0.612708 -0.7890797
vn 0.28623748 -0.9437993 0.16526024
vn -0.31886378 -0.77027214 -0.55227405
vn 0.16526024 -0.9437993 0.28623748
vn -0.55227405 -0.77027214 -0.31886378
vn 0.33052033 -0.9437989 0
vn -0 -0.7702661 -0.6377226
vn -0 -0.9437989 0.33052033
vn -0.6377226 -0.7702661 0
vn 0.28623748 -0.9437993 -0.16526024
vn 0.31886378 -0.77027214 -0.55227405
vn -0.16526024 -0.9437993 0.28623748
vn -0.55227405 -0.77027214 0.31886378
vn 0.16526024 -0.9437993 -0.28623748
vn 0.55227405 -0.77027214 -0.31886378
vn -0.28623748 -0.9437993 0.16526024
vn -0.31886378 -0.77027214 0.55227405
vn -0 -0.9437989 -0.33052033
vn 0.6377226 -0.7702661 0
vn -0.33052033 -0.9437989 0
vn -0 -0.7702661 0.6377226
vn -0.16526024 -0.9437993 -0.28623748
vn 0.55227405 -0.77027214 0.31886378
vn -0.28623748 -0.9437993 -0.16526024
vn 0.31886378 -0.77027214 0.55227405
vn 0.65573215 -0.65322953 -0.37855822
vn 0.37855822 -0.65322953 -0.65573215
vn 0.7571544 -0.653236 0
vn 0.65573215 -0.65322953 0.37855822
vn -0 -0.653236 -0.7571544
vn 0.37855822 -0.65322953 0.65573215
vn -0 -0.653236 0.7571544
vn -0.37855822 -0.65322953 -0.65573215
vn -0.37855822 -0.65322953 0.65573215
vn -0.65573215 -0.65322953 -0.37855822
vn -0.65573215 -0.65322953 0.37855822
vn -0.7571544 -0.653236 0
vn -0.11938894 -0.97107273 -0.20679434
vn 0.16526024 -0.9437993 0.28623748
vn -0 -0.9437989 0.33052033
vn -0 -0.9710741 -0.23877822
vn -0.20679434 -0.97107273 -0.11938894
vn -0.16526024 -0.9437993 0.28623748
vn 0.28623748 -0.9437993 0.16526024
vn 0.11938894 -0.97107273 -0.20679434
vn -0.23877822 -0.9710741 0
vn -0.28623748 -0.9437993 0.16526024
vn 0.33052033 -0.9437989 0
vn 0.20679434 -0.97107273 -0.11938894
vn -0.20679434 -0.97107273 0.11938894
vn -0.33052033 -0.9437989 0
vn 0.28623748 -0.9437993 -0.16526024
vn 0.23877822 -0.9710741 0
vn -0.11938894 -0.97107273 0.20679434
vn -0.28623748 -0.9437993 -0.16526024
vn 0.16526024 -0.9437993 -0.28623748
vn 0.20679434 -0.97107273 0.11938894
vn -0 -0.9710741 0.23877822
vn -0.16526024 -0.9437993 -0.28623748
vn -0 -0.9437989 -0.33052033
vn 0.11938894 -0.97107273 0.20679434
vn 0.28623748 0.9437993 0.16526024
vn 0.16526024 0.9437993 0.28623748
vn -0.31886378 0.77027214 -0.55227405
vn -0.55227405 0.77027214 -0.31886378
vn 0.33052033 0.9437989 0
vn -0 0.7702661 -0.6377226
vn -0 0.9437989 0.33052033
vn -0.6377226 0.7702661 0
vn 0.28623748 0.9437993 -0.16526024
vn 0.31886378 0.77027214 -0.55227405
vn -0.16526024 0.9437993 0.28623748
vn -0.55227405 0.77027214 0.31886378
vn 0.16526024 0.9437993 -0.28623748
vn 0.55227405 0.77027214 -0.31886378
vn -0.28623748 0.9437993 0.16526024
vn -0.31886378 0.77027214 0.55227405
vn -0 0.9437989 -0.33052033
vn 0.6377226 0.7702661 0
vn -0.33052033 0.9437989 0
vn -0 0.7702661 0.6377226
vn -0.16526024 0.9437993 -0.28623748
vn 0.55227405 0.77027214 0.31886378
vn -0.28623748 0.9437993 -0.16526024
vn 0.31886378 0.77027214 0.55227405
vn 0.65573215 0.65322953 -0.37855822
vn 0.37855822 0.65322953 -0.65573215
vn 0.7571544 0.653236 0
vn 0.65573215 0.65322953 0.37855822
vn -0 0.653236 -0.7571544
vn 0.37855822 0.65322953 0.65573215
vn -0 0.653236 0.7571544
vn -0.37855822 0.65322953 -0.65573215
vn -0.37855822 0.65322953 0.65573215
vn -0.65572464 0.6532221 -0.37858438
vn -0.65573215 0.65322953 0.37855822
vn -0.7571544 0.653236 0
vn -0.11938894 0.97107273 -0.20679434
vn -0 0.9710741 -0.23877822
vn -0 0.9437989 0.33052033
vn 0.16526024 0.9437993 0.28623748
vn -0.16526024 0.9437993 0.28623748
vn -0.20679434 0.97107273 -0.11938894
vn 0.11938894 0.97107273 -0.20679434
vn 0.28623748 0.9437993 0.16526024
vn -0.28623748 0.9437993 0.16526024
vn -0.23877822 0.9710741 0
vn 0.20679434 0.97107273 -0.11938894
vn 0.33052033 0.9437989 0
vn -0.33052033 0.9437989 0
vn -0.20679434 0.97107273 0.11938894
vn 0.23877822 0.9710741 0
vn 0.28623748 0.9437993 -0.16526024
vn -0.28623748 0.9437993 -0.16526024
vn -0.11938894 0.97107273 0.20679434
vn 0.20679434 0.97107273 0.11938894
vn 0.16526024 0.9437993 -0.28623748
vn -0.16526024 0.9437993 -0.28623748
vn -0 0.9710741 0.23877822
vn 0.11938894 0.97107273 0.20679434
vn -0 0.9437989 -0.33052033
vn -0.13803717 -0.86274004 -0.48644146
vn 0.27049464 -0.93188345 -0.24171472
vn 0.8641001 -0.08170085 -0.49664474
vn 0.040772967 0.39814678 -0.9164151
vn 0.007446755 -0.88976514 -0.4563579
vn 0.6691409 0.33663052 0.6625181
vn 0.22407271 -0.8899123 0.39730024
vn 0.24189559 0.3649187 0.8990666
vn -0.04513765 -0.85938543 0.5093321
vn 0.11758984 0.3324133 0.93577456
vn -0.10034763 -0.8613782 0.49795377
vn 0.6127082 0.29030085 0.7350606
vn 0.16349155 -0.8521886 0.49703628
vn 0.54665965 0 0.8373549
vn -0.4537571 0 0.8911254
vn 0.2720808 -0.8024171 0.53112984
vn -0.6587815 -0.6849668 0.31117097
vn -0.37776995 0 -0.9258995
vn -0.4128639 -0.76182055 -0.4991722
vn 0.32393298 0.25846884 -0.9100886
vn 0.16099045 -0.9012108 -0.40236932
vn 0.6618981 0.23307429 -0.7124377
vn 0.24830484 -0.91240436 -0.32536602
vn 0.749861 0.3045223 -0.58734536
vn 0.2720808 0.8024171 0.53112984
vn 0.16349155 0.8521886 0.49703628
vn -0.6587815 0.6849668 0.31117097
vn -0.4128639 0.76182055 -0.4991722
vn 0.6127082 -0.29030085 0.7350606
vn -0.10034763 0.8613782 0.49795377
vn 0.749861 -0.3045223 -0.58734536
vn 0.24830484 0.91240436 -0.32536602
vn 0.6618981 -0.23307429 -0.7124377
vn 0.16099045 0.9012108 -0.40236932
vn 0.32393298 -0.25846884 -0.9100886
vn 0.007446755 0.88976514 -0.4563579
vn 0.040772967 -0.39814678 -0.9164151
vn -0.13803717 0.86274004 -0.48644146
vn 0.11758984 -0.3324133 0.93577456
vn -0.04513765 0.85938543 0.5093321
vn 0.86408705 0.08169962 -0.4966677
vn 0.27049464 0.93188345 -0.24171472
vn 0.6691409 -0.33663052 0.6625181
vn 0.22407271 0.8899123 0.39730024
vn 0.24189559 -0.3649187 0.8990666
g ShortSword07_0
f 3/3/3 2/2/2 1/1/1
f 6/6/6 5/5/5 4/4/4
f 9/9/9 8/8/8 7/7/7
f 9/9/9 7/7/7 10/10/10
f 10/10/10 11/11/11 9/9/9
f 7/7/7 12/12/12 10/10/10
f 12/12/12 13/13/13 10/10/10
f 13/13/13 14/14/14 10/10/10
f 13/13/13 15/15/15 14/14/14
f 15/15/15 16/16/16 14/14/14
f 15/15/15 17/17/17 16/16/16
f 15/15/15 18/18/18 17/17/17
f 18/18/18 19/19/19 17/17/17
f 22/22/22 21/21/21 20/20/20
f 21/21/21 23/23/23 20/20/20
f 20/20/20 23/23/23 24/24/24
f 23/23/23 25/25/25 24/24/24
f 28/28/28 27/27/27 26/26/26
f 29/29/29 28/28/28 26/26/26
f 32/32/32 31/31/31 30/30/30
f 33/33/33 32/32/32 30/30/30
f 36/36/36 35/35/35 34/34/34
f 37/37/37 36/36/36 34/34/34
f 40/40/40 39/39/39 38/38/38
f 41/41/41 40/40/40 38/38/38
f 42/42/42 40/40/40 41/41/41
f 43/43/43 42/42/42 41/41/41
f 44/44/44 42/42/42 43/43/43
f 47/47/47 46/46/46 45/45/45
f 48/48/48 47/47/47 45/45/45
f 51/51/51 50/50/50 49/49/49
f 52/52/52 51/51/51 49/49/49
f 55/55/55 54/54/54 53/53/53
f 56/56/56 55/55/55 53/53/53
f 59/59/59 58/58/58 57/57/57
f 60/60/60 59/59/59 57/57/57
f 63/63/63 62/62/62 61/61/61
f 64/64/64 63/63/63 61/61/61
f 67/67/67 66/66/66 65/65/65
f 68/68/68 67/67/67 65/65/65
f 71/71/71 70/70/70 69/69/69
f 69/69/69 72/72/72 71/71/71
f 72/72/72 73/73/73 71/71/71
f 72/72/72 74/74/74 73/73/73
f 74/74/74 75/75/75 73/73/73
f 74/74/74 76/76/76 75/75/75
f 74/74/74 77/77/77 76/76/76
f 77/77/77 78/78/78 76/76/76
f 78/78/78 79/79/79 76/76/76
f 78/78/78 80/80/80 79/79/79
f 83/83/83 82/82/82 81/81/81
f 83/83/83 81/81/81 84/84/84
f 84/84/84 81/81/81 85/85/85
f 83/83/83 84/84/84 86/86/86
f 87/87/87 83/83/83 86/86/86
f 87/87/87 86/86/86 88/88/88
f 86/86/86 89/89/89 88/88/88
f 90/90/90 87/87/87 88/88/88
f 91/91/91 90/90/90 88/88/88
f 88/88/88 92/92/92 91/91/91
f 95/95/95 94/94/94 93/93/93
f 97/97/97 95/95/95 96/96/96
f 93/93/93 97/97/97 98/98/98
f 97/97/97 96/96/96 99/99/99
f 97/97/97 100/100/100 98/98/98
f 98/98/98 100/100/100 101/101/101
f 102/102/102 97/97/97 99/99/99
f 102/102/102 99/99/99 103/103/103
f 100/100/100 104/104/104 101/101/101
f 101/101/101 104/104/104 105/105/105
f 104/104/104 106/106/106 105/105/105
f 104/104/104 100/100/100 106/106/106
f 105/105/105 106/106/106 107/107/107
f 97/97/97 108/108/108 100/100/100
f 100/100/100 108/108/108 106/106/106
f 108/108/108 97/97/97 102/102/102
f 106/106/106 109/109/109 107/107/107
f 106/106/106 108/108/108 109/109/109
f 107/107/107 109/109/109 110/110/110
f 108/108/108 111/111/111 109/109/109
f 108/108/108 102/102/102 111/111/111
f 109/109/109 111/111/111 112/112/112
f 113/113/113 112/112/112 110/110/110
f 111/111/111 114/114/114 112/112/112
f 102/102/102 115/115/115 111/111/111
f 111/111/111 115/115/115 114/114/114
f 115/115/115 102/102/102 103/103/103
f 115/115/115 103/103/103 114/114/114
f 118/118/118 117/117/117 116/116/116
f 116/116/116 119/119/119 118/118/118
f 120/120/120 118/118/118 119/119/119
f 116/116/116 121/121/121 119/119/119
f 116/116/116 122/122/122 121/121/121
f 116/116/116 123/123/123 122/122/122
f 123/123/123 124/124/124 122/122/122
f 123/123/123 125/125/125 124/124/124
f 125/125/125 126/126/126 124/124/124
f 126/126/126 127/127/127 124/124/124
f 126/126/126 128/128/128 127/127/127
f 131/131/131 130/130/130 129/129/129
f 132/132/132 131/131/131 129/129/129
f 132/132/132 129/129/129 133/133/133
f 134/134/134 132/132/132 133/133/133
f 137/137/137 136/136/136 135/135/135
f 138/138/138 137/137/137 135/135/135
f 141/141/141 140/140/140 139/139/139
f 142/142/142 141/141/141 139/139/139
f 145/145/145 144/144/144 143/143/143
f 146/146/146 145/145/145 143/143/143
f 149/149/149 148/148/148 147/147/147
f 148/148/148 150/150/150 147/147/147
f 148/148/148 151/151/151 150/150/150
f 151/151/151 152/152/152 150/150/150
f 151/151/151 153/153/153 152/152/152
f 156/156/156 155/155/155 154/154/154
f 157/157/157 156/156/156 154/154/154
f 160/160/160 159/159/159 158/158/158
f 161/161/161 160/160/160 158/158/158
f 164/164/164 163/163/163 162/162/162
f 165/165/165 164/164/164 162/162/162
f 168/168/168 167/167/167 166/166/166
f 169/169/169 168/168/168 166/166/166
f 172/172/172 171/171/171 170/170/170
f 173/173/173 172/172/172 170/170/170
f 176/176/176 175/175/175 174/174/174
f 177/177/177 176/176/176 174/174/174
f 180/180/180 179/179/179 178/178/178
f 178/178/178 181/181/181 180/180/180
f 181/181/181 182/182/182 180/180/180
f 181/181/181 183/183/183 182/182/182
f 183/183/183 184/184/184 182/182/182
f 183/183/183 185/185/185 184/184/184
f 185/185/185 186/186/186 184/184/184
f 185/185/185 187/187/187 186/186/186
f 187/187/187 188/188/188 186/186/186
f 187/187/187 189/189/189 188/188/188
f 192/192/192 191/191/191 190/190/190
f 193/193/193 190/190/190 191/191/191
f 190/190/190 193/193/193 194/194/194
f 195/195/195 193/193/193 191/191/191
f 195/195/195 191/191/191 196/196/196
f 197/197/197 195/195/195 196/196/196
f 197/197/197 198/198/198 195/195/195
f 197/197/197 196/196/196 199/199/199
f 197/197/197 199/199/199 200/200/200
f 200/200/200 201/201/201 197/197/197
f 204/204/204 203/203/203 202/202/202
f 203/203/203 205/205/205 202/202/202
f 206/206/206 204/204/204 202/202/202
f 206/206/206 207/207/207 204/204/204
f 207/207/207 206/206/206 202/202/202
f 207/207/207 208/208/208 204/204/204
f 208/208/208 207/207/207 209/209/209
f 202/202/202 210/210/210 207/207/207
f 210/210/210 211/211/211 207/207/207
f 207/207/207 211/211/211 209/209/209
f 212/212/212 210/210/210 202/202/202
f 209/209/209 211/211/211 213/213/213
f 205/205/205 214/214/214 202/202/202
f 202/202/202 214/214/214 212/212/212
f 212/212/212 214/214/214 205/205/205
f 215/215/215 212/212/212 205/205/205
f 212/212/212 215/215/215 216/216/216
f 217/217/217 212/212/212 216/216/216
f 212/212/212 217/217/217 210/210/210
f 217/217/217 216/216/216 218/218/218
f 211/211/211 219/219/219 213/213/213
f 210/210/210 219/219/219 211/211/211
f 213/213/213 219/219/219 220/220/220
f 210/210/210 220/220/220 219/219/219
f 221/221/221 213/213/213 220/220/220
f 222/222/222 221/221/221 220/220/220
f 210/210/210 222/222/222 220/220/220
f 223/223/223 217/217/217 218/218/218
f 217/217/217 223/223/223 210/210/210
f 222/222/222 210/210/210 224/224/224
f 223/223/223 224/224/224 210/210/210
f 223/223/223 218/218/218 224/224/224
f 225/225/225 222/222/222 224/224/224
f 218/218/218 225/225/225 224/224/224
f 228/228/228 227/227/227 226/226/226
f 227/227/227 229/229/229 226/226/226
f 230/230/230 228/228/228 226/226/226
f 231/231/231 228/228/228 230/230/230
f 229/229/229 232/232/232 226/226/226
f 229/229/229 233/233/233 232/232/232
f 230/230/230 226/226/226 234/234/234
f 226/226/226 232/232/232 234/234/234
f 235/235/235 230/230/230 234/234/234
f 232/232/232 236/236/236 234/234/234
f 237/237/237 231/231/231 230/230/230
f 237/237/237 230/230/230 235/235/235
f 238/238/238 231/231/231 237/237/237
f 239/239/239 237/237/237 235/235/235
f 233/233/233 240/240/240 232/232/232
f 232/232/232 240/240/240 236/236/236
f 233/233/233 241/241/241 240/240/240
f 240/240/240 242/242/242 236/236/236
f 243/243/243 238/238/238 237/237/237
f 243/243/243 237/237/237 239/239/239
f 244/244/244 238/238/238 243/243/243
f 245/245/245 243/243/243 239/239/239
f 241/241/241 246/246/246 240/240/240
f 240/240/240 246/246/246 242/242/242
f 241/241/241 247/247/247 246/246/246
f 246/246/246 248/248/248 242/242/242
f 249/249/249 244/244/244 243/243/243
f 249/249/249 243/243/243 245/245/245
f 250/250/250 244/244/244 249/249/249
f 251/251/251 249/249/249 245/245/245
f 247/247/247 252/252/252 246/246/246
f 246/246/246 252/252/252 248/248/248
f 247/247/247 253/253/253 252/252/252
f 252/252/252 254/254/254 248/248/248
f 255/255/255 250/250/250 249/249/249
f 255/255/255 249/249/249 251/251/251
f 256/256/256 255/255/255 251/251/251
f 257/257/257 250/250/250 255/255/255
f 253/253/253 258/258/258 252/252/252
f 252/252/252 258/258/258 254/254/254
f 253/253/253 257/257/257 258/258/258
f 258/258/258 259/259/259 254/254/254
f 260/260/260 255/255/255 256/256/256
f 260/260/260 257/257/257 255/255/255
f 257/257/257 260/260/260 258/258/258
f 258/258/258 260/260/260 259/259/259
f 261/261/261 260/260/260 256/256/256
f 260/260/260 261/261/261 259/259/259
f 264/264/264 263/263/263 262/262/262
f 263/263/263 265/265/265 262/262/262
f 266/266/266 264/264/264 262/262/262
f 267/267/267 264/264/264 266/266/266
f 265/265/265 268/268/268 262/262/262
f 265/265/265 269/269/269 268/268/268
f 270/270/270 267/267/267 266/266/266
f 271/271/271 267/267/267 270/270/270
f 266/266/266 262/262/262 272/272/272
f 262/262/262 268/268/268 272/272/272
f 273/273/273 266/266/266 272/272/272
f 270/270/270 266/266/266 273/273/273
f 268/268/268 274/274/274 272/272/272
f 275/275/275 270/270/270 273/273/273
f 269/269/269 276/276/276 268/268/268
f 268/268/268 276/276/276 274/274/274
f 269/269/269 277/277/277 276/276/276
f 276/276/276 278/278/278 274/274/274
f 279/279/279 271/271/271 270/270/270
f 279/279/279 270/270/270 275/275/275
f 280/280/280 271/271/271 279/279/279
f 281/281/281 279/279/279 275/275/275
f 277/277/277 282/282/282 276/276/276
f 276/276/276 282/282/282 278/278/278
f 277/277/277 283/283/283 282/282/282
f 282/282/282 284/284/284 278/278/278
f 285/285/285 280/280/280 279/279/279
f 285/285/285 279/279/279 281/281/281
f 286/286/286 280/280/280 285/285/285
f 287/287/287 285/285/285 281/281/281
f 283/283/283 288/288/288 282/282/282
f 282/282/282 288/288/288 284/284/284
f 283/283/283 289/289/289 288/288/288
f 288/288/288 290/290/290 284/284/284
f 291/291/291 286/286/286 285/285/285
f 291/291/291 285/285/285 287/287/287
f 292/292/292 291/291/291 287/287/287
f 293/293/293 286/286/286 291/291/291
f 289/289/289 294/294/294 288/288/288
f 288/288/288 294/294/294 290/290/290
f 289/289/289 293/293/293 294/294/294
f 294/294/294 295/295/295 290/290/290
f 296/296/296 291/291/291 292/292/292
f 296/296/296 293/293/293 291/291/291
f 293/293/293 296/296/296 294/294/294
f 294/294/294 296/296/296 295/295/295
f 297/297/297 296/296/296 292/292/292
f 296/296/296 297/297/297 295/295/295
f 300/300/300 299/299/299 298/298/298
f 301/301/301 300/300/300 298/298/298
f 302/302/302 300/300/300 301/301/301
f 298/298/298 299/299/299 303/303/303
f 299/299/299 304/304/304 303/303/303
f 305/305/305 302/302/302 301/301/301
f 306/306/306 302/302/302 305/305/305
f 303/303/303 304/304/304 307/307/307
f 304/304/304 308/308/308 307/307/307
f 309/309/309 306/306/306 305/305/305
f 310/310/310 306/306/306 309/309/309
f 307/307/307 308/308/308 311/311/311
f 308/308/308 312/312/312 311/311/311
f 313/313/313 310/310/310 309/309/309
f 314/314/314 310/310/310 313/313/313
f 311/311/311 312/312/312 315/315/315
f 312/312/312 316/316/316 315/315/315
f 317/317/317 314/314/314 313/313/313
f 318/318/318 314/314/314 317/317/317
f 315/315/315 316/316/316 319/319/319
f 316/316/316 320/320/320 319/319/319
f 320/320/320 318/318/318 321/321/321
f 321/321/321 318/318/318 317/317/317
f 319/319/319 320/320/320 321/321/321
f 307/307/307 311/311/311 322/322/322
f 311/311/311 315/315/315 323/323/323
f 322/322/322 311/311/311 323/323/323
f 315/315/315 319/319/319 324/324/324
f 323/323/323 315/315/315 324/324/324
f 319/319/319 321/321/321 325/325/325
f 324/324/324 319/319/319 325/325/325
f 321/321/321 317/317/317 326/326/326
f 325/325/325 321/321/321 326/326/326
f 317/317/317 313/313/313 327/327/327
f 326/326/326 317/317/317 327/327/327
f 328/328/328 307/307/307 322/322/322
f 303/303/303 307/307/307 328/328/328
f 327/327/327 313/313/313 329/329/329
f 313/313/313 309/309/309 329/329/329
f 330/330/330 303/303/303 328/328/328
f 298/298/298 303/303/303 330/330/330
f 329/329/329 309/309/309 331/331/331
f 309/309/309 305/305/305 331/331/331
f 332/332/332 298/298/298 330/330/330
f 301/301/301 298/298/298 332/332/332
f 305/305/305 301/301/301 333/333/333
f 331/331/331 305/305/305 333/333/333
f 333/333/333 301/301/301 332/332/332
f 334/334/334 326/326/326 327/327/327
f 335/335/335 327/327/327 329/329/329
f 335/335/335 334/334/334 327/327/327
f 336/336/336 329/329/329 331/331/331
f 336/336/336 335/335/335 329/329/329
f 337/337/337 331/331/331 333/333/333
f 337/337/337 336/336/336 331/331/331
f 338/338/338 333/333/333 332/332/332
f 338/338/338 337/337/337 333/333/333
f 339/339/339 332/332/332 330/330/330
f 339/339/339 338/338/338 332/332/332
f 334/334/334 340/340/340 326/326/326
f 340/340/340 325/325/325 326/326/326
f 341/341/341 339/339/339 330/330/330
f 341/341/341 330/330/330 328/328/328
f 335/335/335 336/336/336 342/342/342
f 336/336/336 337/337/337 343/343/343
f 342/342/342 336/336/336 343/343/343
f 337/337/337 338/338/338 344/344/344
f 343/343/343 337/337/337 344/344/344
f 334/334/334 335/335/335 345/345/345
f 345/345/345 335/335/335 342/342/342
f 338/338/338 339/339/339 346/346/346
f 344/344/344 338/338/338 346/346/346
f 340/340/340 334/334/334 347/347/347
f 347/347/347 334/334/334 345/345/345
f 339/339/339 341/341/341 348/348/348
f 346/346/346 339/339/339 348/348/348
f 349/349/349 343/343/343 344/344/344
f 350/350/350 342/342/342 343/343/343
f 349/349/349 350/350/350 343/343/343
f 351/351/351 345/345/345 342/342/342
f 350/350/350 351/351/351 342/342/342
f 352/352/352 344/344/344 346/346/346
f 352/352/352 349/349/349 344/344/344
f 353/353/353 347/347/347 345/345/345
f 351/351/351 353/353/353 345/345/345
f 354/354/354 346/346/346 348/348/348
f 354/354/354 352/352/352 346/346/346
f 355/355/355 350/350/350 349/349/349
f 356/356/356 355/355/355 349/349/349
f 356/356/356 349/349/349 352/352/352
f 355/355/355 357/357/357 350/350/350
f 357/357/357 351/351/351 350/350/350
f 358/358/358 356/356/356 352/352/352
f 358/358/358 352/352/352 354/354/354
f 357/357/357 359/359/359 351/351/351
f 359/359/359 353/353/353 351/351/351
f 360/360/360 358/358/358 354/354/354
f 359/359/359 361/361/361 353/353/353
f 360/360/360 354/354/354 362/362/362
f 362/362/362 354/354/354 348/348/348
f 363/363/363 360/360/360 362/362/362
f 361/361/361 364/364/364 353/353/353
f 353/353/353 364/364/364 347/347/347
f 361/361/361 365/365/365 364/364/364
f 362/362/362 348/348/348 366/366/366
f 348/348/348 341/341/341 366/366/366
f 363/363/363 362/362/362 367/367/367
f 367/367/367 362/362/362 366/366/366
f 368/368/368 363/363/363 367/367/367
f 364/364/364 369/369/369 347/347/347
f 369/369/369 340/340/340 347/347/347
f 365/365/365 370/370/370 364/364/364
f 364/364/364 370/370/370 369/369/369
f 365/365/365 371/371/371 370/370/370
f 368/368/368 367/367/367 372/372/372
f 373/373/373 368/368/368 372/372/372
f 371/371/371 373/373/373 374/374/374
f 371/371/371 374/374/374 370/370/370
f 373/373/373 372/372/372 374/374/374
f 372/372/372 367/367/367 375/375/375
f 367/367/367 366/366/366 375/375/375
f 370/370/370 374/374/374 376/376/376
f 370/370/370 376/376/376 369/369/369
f 374/374/374 372/372/372 377/377/377
f 372/372/372 375/375/375 377/377/377
f 374/374/374 377/377/377 376/376/376
f 378/378/378 340/340/340 369/369/369
f 340/340/340 378/378/378 325/325/325
f 379/379/379 369/369/369 376/376/376
f 379/379/379 378/378/378 369/369/369
f 380/380/380 376/376/376 377/377/377
f 379/379/379 376/376/376 380/380/380
f 378/378/378 381/381/381 325/325/325
f 324/324/324 325/325/325 381/381/381
f 378/378/378 379/379/379 382/382/382
f 381/381/381 378/378/378 382/382/382
f 383/383/383 324/324/324 381/381/381
f 324/324/324 383/383/383 323/323/323
f 384/384/384 377/377/377 375/375/375
f 384/384/384 380/380/380 377/377/377
f 380/380/380 385/385/385 379/379/379
f 379/379/379 385/385/385 382/382/382
f 386/386/386 381/381/381 382/382/382
f 381/381/381 386/386/386 383/383/383
f 387/387/387 382/382/382 385/385/385
f 382/382/382 387/387/387 386/386/386
f 380/380/380 387/387/387 385/385/385
f 387/387/387 383/383/383 386/386/386
f 388/388/388 387/387/387 380/380/380
f 387/387/387 388/388/388 383/383/383
f 384/384/384 388/388/388 380/380/380
f 383/383/383 389/389/389 323/323/323
f 388/388/388 389/389/389 383/383/383
f 323/323/323 389/389/389 322/322/322
f 390/390/390 388/388/388 384/384/384
f 388/388/388 390/390/390 389/389/389
f 391/391/391 384/384/384 375/375/375
f 391/391/391 390/390/390 384/384/384
f 389/389/389 392/392/392 322/322/322
f 390/390/390 392/392/392 389/389/389
f 391/391/391 375/375/375 393/393/393
f 375/375/375 366/366/366 393/393/393
f 394/394/394 390/390/390 391/391/391
f 390/390/390 394/394/394 392/392/392
f 395/395/395 322/322/322 392/392/392
f 395/395/395 328/328/328 322/322/322
f 393/393/393 396/396/396 391/391/391
f 396/396/396 394/394/394 391/391/391
f 393/393/393 366/366/366 397/397/397
f 328/328/328 395/395/395 397/397/397
f 341/341/341 397/397/397 366/366/366
f 397/397/397 341/341/341 328/328/328
f 396/396/396 393/393/393 398/398/398
f 398/398/398 393/393/393 397/397/397
f 394/394/394 396/396/396 398/398/398
f 395/395/395 398/398/398 397/397/397
f 392/392/392 399/399/399 395/395/395
f 394/394/394 399/399/399 392/392/392
f 399/399/399 394/394/394 398/398/398
f 395/395/395 399/399/399 398/398/398
f 402/402/402 401/401/401 400/400/400
f 401/401/401 403/403/403 400/400/400
f 400/400/400 403/403/403 404/404/404
f 405/405/405 401/401/401 402/402/402
f 406/406/406 405/405/405 402/402/402
f 403/403/403 407/407/407 404/404/404
f 404/404/404 407/407/407 408/408/408
f 409/409/409 405/405/405 406/406/406
f 410/410/410 409/409/409 406/406/406
f 407/407/407 411/411/411 408/408/408
f 408/408/408 411/411/411 412/412/412
f 413/413/413 409/409/409 410/410/410
f 414/414/414 413/413/413 410/410/410
f 411/411/411 415/415/415 412/412/412
f 412/412/412 415/415/415 416/416/416
f 417/417/417 413/413/413 414/414/414
f 418/418/418 417/417/417 414/414/414
f 415/415/415 419/419/419 416/416/416
f 416/416/416 419/419/419 420/420/420
f 421/421/421 417/417/417 418/418/418
f 422/422/422 421/421/421 418/418/418
f 420/420/420 423/423/423 422/422/422
f 419/419/419 423/423/423 420/420/420
f 423/423/423 421/421/421 422/422/422
f 413/413/413 424/424/424 409/409/409
f 424/424/424 425/425/425 409/409/409
f 426/426/426 424/424/424 413/413/413
f 417/417/417 426/426/426 413/413/413
f 409/409/409 425/425/425 405/405/405
f 427/427/427 426/426/426 417/417/417
f 421/421/421 427/427/427 417/417/417
f 425/425/425 428/428/428 405/405/405
f 429/429/429 427/427/427 421/421/421
f 423/423/423 429/429/429 421/421/421
f 405/405/405 428/428/428 401/401/401
f 430/430/430 429/429/429 423/423/423
f 419/419/419 430/430/430 423/423/423
f 428/428/428 431/431/431 401/401/401
f 432/432/432 430/430/430 419/419/419
f 401/401/401 431/431/431 403/403/403
f 415/415/415 432/432/432 419/419/419
f 431/431/431 433/433/433 403/403/403
f 434/434/434 432/432/432 415/415/415
f 403/403/403 433/433/433 407/407/407
f 411/411/411 434/434/434 415/415/415
f 433/433/433 435/435/435 407/407/407
f 435/435/435 434/434/434 411/411/411
f 407/407/407 435/435/435 411/411/411
f 438/438/438 437/437/437 436/436/436
f 439/439/439 438/438/438 436/436/436
f 436/436/436 437/437/437 440/440/440
f 441/441/441 438/438/438 439/439/439
f 437/437/437 442/442/442 440/440/440
f 443/443/443 441/441/441 439/439/439
f 440/440/440 442/442/442 444/444/444
f 445/445/445 441/441/441 443/443/443
f 442/442/442 446/446/446 444/444/444
f 447/447/447 445/445/445 443/443/443
f 444/444/444 446/446/446 448/448/448
f 449/449/449 445/445/445 447/447/447
f 446/446/446 450/450/450 448/448/448
f 451/451/451 449/449/449 447/447/447
f 448/448/448 450/450/450 452/452/452
f 453/453/453 449/449/449 451/451/451
f 450/450/450 454/454/454 452/452/452
f 455/455/455 453/453/453 451/451/451
f 452/452/452 454/454/454 456/456/456
f 457/457/457 453/453/453 455/455/455
f 454/454/454 458/458/458 456/456/456
f 459/459/459 457/457/457 455/455/455
f 456/456/456 458/458/458 459/459/459
f 458/458/458 457/457/457 459/459/459
f 462/462/462 461/461/461 460/460/460
f 463/463/463 462/462/462 460/460/460
f 463/463/463 460/460/460 464/464/464
f 462/462/462 465/465/465 461/461/461
f 465/465/465 466/466/466 461/461/461
f 467/467/467 463/463/463 464/464/464
f 467/467/467 464/464/464 468/468/468
f 465/465/465 469/469/469 466/466/466
f 469/469/469 470/470/470 466/466/466
f 471/471/471 467/467/467 468/468/468
f 471/471/471 468/468/468 472/472/472
f 469/469/469 473/473/473 470/470/470
f 473/473/473 474/474/474 470/470/470
f 475/475/475 471/471/471 472/472/472
f 475/475/475 472/472/472 476/476/476
f 473/473/473 477/477/477 474/474/474
f 477/477/477 478/478/478 474/474/474
f 479/479/479 475/475/475 476/476/476
f 479/479/479 476/476/476 480/480/480
f 477/477/477 481/481/481 478/478/478
f 481/481/481 482/482/482 478/478/478
f 483/483/483 480/480/480 482/482/482
f 483/483/483 479/479/479 480/480/480
f 481/481/481 483/483/483 482/482/482
f 484/484/484 473/473/473 469/469/469
f 485/485/485 484/484/484 469/469/469
f 484/484/484 486/486/486 473/473/473
f 486/486/486 477/477/477 473/473/473
f 485/485/485 469/469/469 465/465/465
f 486/486/486 487/487/487 477/477/477
f 487/487/487 481/481/481 477/477/477
f 488/488/488 485/485/485 465/465/465
f 487/487/487 489/489/489 481/481/481
f 489/489/489 483/483/483 481/481/481
f 488/488/488 465/465/465 462/462/462
f 489/489/489 490/490/490 483/483/483
f 490/490/490 479/479/479 483/483/483
f 491/491/491 488/488/488 462/462/462
f 490/490/490 492/492/492 479/479/479
f 491/491/491 462/462/462 463/463/463
f 492/492/492 475/475/475 479/479/479
f 493/493/493 491/491/491 463/463/463
f 492/492/492 494/494/494 475/475/475
f 493/493/493 463/463/463 467/467/467
f 494/494/494 471/471/471 475/475/475
f 495/495/495 493/493/493 467/467/467
f 495/495/495 467/467/467 471/471/471
f 494/494/494 495/495/495 471/471/471
f 498/498/498 497/497/497 496/496/496
f 499/499/499 498/498/498 496/496/496
f 498/498/498 500/500/500 497/497/497
f 499/499/499 496/496/496 501/501/501
f 500/500/500 502/502/502 497/497/497
f 503/503/503 499/499/499 501/501/501
f 500/500/500 504/504/504 502/502/502
f 503/503/503 501/501/501 505/505/505
f 504/504/504 506/506/506 502/502/502
f 507/507/507 503/503/503 505/505/505
f 504/504/504 508/508/508 506/506/506
f 507/507/507 505/505/505 509/509/509
f 508/508/508 510/510/510 506/506/506
f 511/511/511 507/507/507 509/509/509
f 508/508/508 512/512/512 510/510/510
f 511/511/511 509/509/509 513/513/513
f 512/512/512 514/514/514 510/510/510
f 515/515/515 511/511/511 513/513/513
f 512/512/512 516/516/516 514/514/514
f 515/515/515 513/513/513 517/517/517
f 516/516/516 518/518/518 514/514/514
f 519/519/519 515/515/515 517/517/517
f 519/519/519 517/517/517 518/518/518
f 516/516/516 519/519/519 518/518/518
f 522/522/522 521/521/521 520/520/520
f 523/523/523 522/522/522 520/520/520
f 523/523/523 520/520/520 524/524/524
f 522/522/522 525/525/525 521/521/521
f 522/522/522 523/523/523 525/525/525
f 525/525/525 526/526/526 521/521/521
f 525/525/525 527/527/527 526/526/526
f 527/527/527 528/528/528 526/526/526
f 525/525/525 529/529/529 527/527/527
f 527/527/527 529/529/529 528/528/528
f 529/529/529 525/525/525 523/523/523
f 529/529/529 530/530/530 528/528/528
f 529/529/529 531/531/531 530/530/530
f 531/531/531 529/529/529 523/523/523
f 531/531/531 532/532/532 530/530/530
f 531/531/531 533/533/533 532/532/532
f 534/534/534 533/533/533 531/531/531
f 533/533/533 535/535/535 532/532/532
f 533/533/533 534/534/534 535/535/535
f 534/534/534 536/536/536 535/535/535
f 534/534/534 537/537/537 536/536/536
f 537/537/537 538/538/538 536/536/536
f 531/531/531 523/523/523 539/539/539
f 534/534/534 531/531/531 539/539/539
f 539/539/539 523/523/523 524/524/524
f 539/539/539 524/524/524 540/540/540
f 541/541/541 539/539/539 540/540/540
f 534/534/534 539/539/539 541/541/541
f 541/541/541 540/540/540 542/542/542
f 543/543/543 542/542/542 538/538/538
f 543/543/543 541/541/541 542/542/542
f 534/534/534 541/541/541 543/543/543
f 537/537/537 543/543/543 538/538/538
f 543/543/543 537/537/537 534/534/534
f 534/534/534 533/533/533 544/544/544
f 544/544/544 533/533/533 545/545/545
f 546/546/546 534/534/534 544/544/544
f 537/537/537 534/534/534 546/546/546
f 547/547/547 537/537/537 546/546/546
f 533/533/533 548/548/548 545/545/545
f 548/548/548 533/533/533 534/534/534
f 545/545/545 548/548/548 549/549/549
f 550/550/550 537/537/537 547/547/547
f 534/534/534 537/537/537 550/550/550
f 551/551/551 550/550/550 547/547/547
f 552/552/552 550/550/550 551/551/551
f 550/550/550 552/552/552 534/534/534
f 553/553/553 552/552/552 551/551/551
f 552/552/552 554/554/554 534/534/534
f 554/554/554 552/552/552 553/553/553
f 554/554/554 548/548/548 534/534/534
f 555/555/555 554/554/554 553/553/553
f 556/556/556 554/554/554 555/555/555
f 554/554/554 556/556/556 548/548/548
f 557/557/557 556/556/556 555/555/555
f 548/548/548 558/558/558 549/549/549
f 556/556/556 558/558/558 548/548/548
f 549/549/549 558/558/558 559/559/559
f 560/560/560 556/556/556 557/557/557
f 561/561/561 560/560/560 557/557/557
f 556/556/556 560/560/560 562/562/562
f 562/562/562 560/560/560 561/561/561
f 556/556/556 562/562/562 558/558/558
f 563/563/563 562/562/562 561/561/561
f 559/559/559 564/564/564 563/563/563
f 558/558/558 564/564/564 559/559/559
f 564/564/564 562/562/562 563/563/563
f 558/558/558 562/562/562 564/564/564
