g ShortSword11
v -0.052766453 -0.093729384 -0.155063
v -0.03122079 -0.0701712 -0.155063
v -0.03122079 -0.036963247 -0.15506302
v -0.052766453 -0.013405044 -0.15506302
v -0.10967007 -0.093729384 -0.155063
v -0.10967007 -0.013405044 -0.15506302
v -0.1312157 -0.0701712 -0.155063
v -0.1312157 -0.036963247 -0.15506302
v -0.18085599 0.0012895315 0.6207215
v -0.27391502 -0.013890531 0.552194
v -0.1712799 0.0022943914 0.59852546
v -0.2870563 -0.0148133645 0.5744796
v -0.4178691 -0.0674303 0.43760145
v -0.1607582 -0.11501327 0.62390906
v -0.29132074 -0.10486793 0.5767279
v -0.2982336 -0.19172683 0.57155716
v -0.28509232 -0.19080399 0.54927164
v -0.1433088 -0.22812037 0.61967754
v -0.13373274 -0.22711556 0.59748155
v -0.08744978 -0.14479904 0.618439
v -0.076089606 -0.13713853 0.5925964
v -0.0735961 -0.07642127 0.5924897
v -0.087067805 -0.078019105 0.6285121
v -0.073267914 -0.010638771 0.5946803
v -0.087449804 -0.0038698432 0.618439
v -0.1712799 0.0022943914 0.59852546
v -0.18085599 0.0012895315 0.6207215
v -0.0735961 -0.07642127 0.5924897
v -0.13373274 -0.22711556 0.59748155
v -0.076089606 -0.13713853 0.5925964
v -0.15544203 -0.111390136 0.60453004
v -0.073267914 -0.010638771 0.5946803
v -0.28509232 -0.19080399 0.54927164
v -0.1712799 0.0022943914 0.59852546
v -0.28243935 -0.10132681 0.5572594
v -0.4178691 -0.0674303 0.43760145
v -0.27391502 -0.013890531 0.552194
v -0.10565647 -0.019070515 0.1902907
v -0.124162756 -0.03930544 0.1902907
v -0.1312157 -0.03696319 0.18625261
v -0.124162756 -0.06782887 0.19029072
v -0.10967007 -0.013404988 0.18625261
v -0.052766453 -0.013404988 0.18625261
v -0.05678006 -0.019070515 0.1902907
v -0.03827377 -0.03930544 0.1902907
v -0.110744 -0.0118890535 0.15951069
v -0.051692523 -0.0118890535 0.15951069
v -0.13310291 -0.036336467 0.15951052
v -0.13310291 -0.07079788 0.15951054
v -0.03122079 -0.03696319 0.18625261
v -0.029333599 -0.036336467 0.15951052
v -0.029333599 -0.07079788 0.15951054
v -0.1312157 -0.07017115 0.18625262
v -0.110744 -0.095245294 0.1595107
v -0.03122079 -0.07017115 0.18625262
v -0.03827377 -0.06782887 0.19029072
v -0.051692523 -0.095245294 0.1595107
v -0.05678006 -0.088063784 0.19029072
v -0.10967007 -0.09372933 0.18625262
v -0.10565647 -0.088063784 0.19029072
v -0.052766453 -0.09372933 0.18625262
v -0.10565647 -0.088063784 0.19029072
v -0.124162756 -0.06782887 0.19029072
v -0.124162756 -0.067828864 0.21843392
v -0.124162756 -0.03930544 0.1902907
v -0.10565647 -0.08806378 0.21843392
v -0.124162756 -0.039305434 0.2184339
v -0.10565647 -0.019070512 0.2184339
v -0.10565647 -0.019070515 0.1902907
v -0.05678006 -0.019070515 0.1902907
v -0.05678006 -0.08806378 0.21843392
v -0.05678006 -0.088063784 0.19029072
v -0.03827377 -0.06782887 0.19029072
v -0.05678006 -0.019070512 0.2184339
v -0.03827377 -0.067828864 0.21843392
v -0.03827377 -0.039305434 0.2184339
v -0.03827377 -0.03930544 0.1902907
v -0.052675035 -0.013275997 -0.13628924
v -0.05133379 -0.011382674 0.1391521
v -0.11110273 -0.011382674 0.1391521
v -0.02870322 -0.036127124 0.1391521
v -0.10976149 -0.013275997 -0.13628924
v -0.031060144 -0.036909893 -0.13628925
v -0.13137636 -0.036909893 -0.13628925
v -0.13373329 -0.036127124 0.1391521
v -0.031060144 -0.070224546 -0.13628924
v -0.02870322 -0.07100723 0.13915211
v -0.13373329 -0.07100723 0.13915211
v -0.13137636 -0.070224546 -0.13628924
v -0.05133379 -0.09575168 0.13915211
v -0.052675035 -0.09385843 -0.13628922
v -0.10976149 -0.09385843 -0.13628922
v -0.11110273 -0.09575168 0.13915211
v -0.049734514 -0.098009236 -0.14567612
v -0.03122079 -0.0701712 -0.155063
v -0.052766453 -0.093729384 -0.155063
v -0.10967007 -0.093729384 -0.155063
v -0.025892854 -0.07194059 -0.14567612
v -0.025892854 -0.035193853 -0.14567614
v -0.03122079 -0.036963247 -0.15506302
v -0.052766453 -0.013405044 -0.15506302
v -0.11270202 -0.098009236 -0.14567612
v -0.052675035 -0.09385843 -0.13628922
v -0.031060144 -0.070224546 -0.13628924
v -0.10976149 -0.09385843 -0.13628922
v -0.031060144 -0.036909893 -0.13628925
v -0.13137636 -0.070224546 -0.13628924
v -0.13654365 -0.07194059 -0.14567612
v -0.1312157 -0.0701712 -0.155063
v -0.1312157 -0.036963247 -0.15506302
v -0.049734514 -0.009125196 -0.14567614
v -0.052675035 -0.013275997 -0.13628924
v -0.10976149 -0.013275997 -0.13628924
v -0.13654365 -0.035193853 -0.14567614
v -0.13137636 -0.036909893 -0.13628925
v -0.11270202 -0.009125196 -0.14567614
v -0.10967007 -0.013405044 -0.15506302
v -0.06843379 -0.06787201 0.51515454
v -0.12839827 -0.06629559 0.5985531
v -0.09043628 -0.07151167 0.603267
v -0.04065573 -0.06787201 0.52538705
v -0.09010621 -0.018698549 0.60264546
v -0.06843379 -0.038269226 0.51515454
v -0.13523844 -0.013923027 0.5983355
v -0.04065573 -0.03826921 0.52538705
v -0.09170038 -0.038269233 0.4374805
v -0.09170041 -0.06787202 0.43748045
v -0.063272454 -0.03826924 0.42922354
v -0.063272454 -0.067872025 0.42922354
v -0.09730386 -0.038269263 0.21408056
v -0.09730386 -0.067872055 0.21408057
v -0.06770105 -0.038269278 0.21408056
v -0.06770105 -0.067872055 0.21408057
v -0.020845715 -0.033517662 0.1493313
v -0.02870322 -0.036127124 0.1391521
v -0.02870322 -0.07100723 0.13915211
v -0.046862353 -0.005070867 0.14933139
v -0.05133379 -0.011382674 0.1391521
v -0.020845715 -0.07361666 0.14933132
v -0.05133379 -0.09575168 0.13915211
v -0.11557414 -0.005070867 0.14933139
v -0.11110273 -0.011382674 0.1391521
v -0.046862353 -0.102063455 0.1493314
v -0.11110273 -0.09575168 0.13915211
v -0.14159076 -0.033517662 0.1493313
v -0.13373329 -0.036127124 0.1391521
v -0.11557414 -0.102063455 0.1493314
v -0.13373329 -0.07100723 0.13915211
v -0.14159076 -0.07361666 0.14933132
v -0.029333599 -0.036336467 0.15951052
v -0.029333599 -0.07079788 0.15951054
v -0.051692523 -0.0118890535 0.15951069
v -0.051692523 -0.095245294 0.1595107
v -0.110744 -0.095245294 0.1595107
v -0.110744 -0.0118890535 0.15951069
v -0.13310291 -0.07079788 0.15951054
v -0.13310291 -0.036336467 0.15951052
vt 0.03523943 0.5824536
vt 0.03523943 0.5824536
vt 0.03523943 0.5824536
vt 0.03523943 0.5824536
vt 0.03523943 0.5824536
vt 0.03523943 0.5824536
vt 0.03523943 0.5824536
vt 0.03523943 0.5824536
vt 0.28122228 0.46197388
vt 0.28122234 0.46197394
vt 0.28122234 0.461974
vt 0.28122234 0.46197394
vt 0.28122234 0.46197394
vt 0.28122234 0.46197394
vt 0.28122234 0.46197394
vt 0.28122234 0.46197394
vt 0.28122234 0.46197394
vt 0.28122234 0.46197394
vt 0.28122234 0.46197394
vt 0.28122234 0.46197394
vt 0.28122234 0.46197394
vt 0.28122234 0.46197394
vt 0.28122234 0.46197394
vt 0.28122234 0.46197394
vt 0.28122234 0.46197394
vt 0.28122234 0.461974
vt 0.28122228 0.46197388
vt 0.27340984 0.41509894
vt 0.27340984 0.41509894
vt 0.27340984 0.41509894
vt 0.27340984 0.41509894
vt 0.27340984 0.41509894
vt 0.27340984 0.41509894
vt 0.27340984 0.415099
vt 0.27340984 0.41509894
vt 0.27340984 0.41509894
vt 0.27340984 0.41509894
vt 0.2774269 0.53167236
vt 0.2774269 0.53167236
vt 0.2774269 0.53167236
vt 0.2774269 0.53167236
vt 0.2774269 0.53167236
vt 0.2774269 0.53167236
vt 0.2774269 0.53167236
vt 0.2774269 0.53167236
vt 0.2774269 0.53167236
vt 0.2774269 0.53167236
vt 0.2774269 0.53167236
vt 0.2774269 0.53167236
vt 0.2774269 0.53167236
vt 0.2774269 0.53167236
vt 0.2774269 0.53167236
vt 0.2774269 0.53167236
vt 0.2774269 0.53167236
vt 0.2774269 0.53167236
vt 0.2774269 0.53167236
vt 0.2774269 0.53167236
vt 0.2774269 0.53167236
vt 0.2774269 0.53167236
vt 0.2774269 0.53167236
vt 0.2774269 0.53167236
vt 0.09394057 0.8952501
vt 0.09394057 0.8952501
vt 0.09394057 0.8952501
vt 0.09394057 0.8952501
vt 0.09394057 0.8952501
vt 0.09394057 0.8952501
vt 0.09394057 0.8952501
vt 0.09394057 0.8952501
vt 0.09394057 0.8952501
vt 0.09394057 0.8952501
vt 0.09394057 0.8952501
vt 0.09394057 0.8952501
vt 0.09394057 0.8952501
vt 0.09394057 0.8952501
vt 0.09394057 0.8952501
vt 0.09394057 0.8952501
vt 0.2774269 0.53167236
vt 0.2774269 0.53167236
vt 0.2774269 0.53167236
vt 0.2774269 0.53167236
vt 0.2774269 0.53167236
vt 0.27742687 0.53167236
vt 0.27742687 0.53167236
vt 0.2774269 0.53167236
vt 0.2774269 0.53167236
vt 0.2774269 0.53167236
vt 0.2774269 0.53167236
vt 0.2774269 0.53167236
vt 0.2774269 0.53167236
vt 0.2774269 0.5316724
vt 0.2774269 0.53167236
vt 0.2774269 0.53167236
vt 0.28426284 0.47600833
vt 0.28426284 0.4760083
vt 0.28426284 0.4760083
vt 0.28426284 0.4760083
vt 0.28426284 0.4760083
vt 0.2842628 0.4760083
vt 0.28426284 0.4760083
vt 0.28426284 0.4760083
vt 0.28426284 0.4760083
vt 0.28426284 0.47600836
vt 0.28426284 0.4760083
vt 0.28426284 0.4760083
vt 0.28426278 0.4760083
vt 0.28426284 0.4760083
vt 0.28426284 0.4760083
vt 0.28426284 0.4760083
vt 0.28426284 0.4760083
vt 0.28426284 0.4760083
vt 0.28426284 0.4760083
vt 0.28426284 0.4760083
vt 0.2842628 0.4760083
vt 0.28426278 0.4760083
vt 0.28426284 0.4760083
vt 0.28426284 0.4760083
vt 0.28122234 0.46197394
vt 0.28122234 0.46197394
vt 0.28122234 0.46197394
vt 0.28122234 0.46197394
vt 0.28122234 0.46197394
vt 0.28122234 0.46197394
vt 0.28122234 0.46197394
vt 0.28122234 0.46197394
vt 0.28122234 0.46197394
vt 0.28122234 0.46197394
vt 0.28122234 0.46197394
vt 0.28122234 0.46197394
vt 0.28122234 0.46197394
vt 0.28122234 0.46197394
vt 0.28122234 0.46197394
vt 0.28122234 0.46197394
vt 0.27938002 0.47503173
vt 0.27938002 0.47503173
vt 0.27938002 0.47503173
vt 0.27938002 0.47503173
vt 0.27938002 0.47503173
vt 0.27938002 0.47503173
vt 0.27938002 0.47503173
vt 0.27938002 0.47503173
vt 0.27938002 0.47503173
vt 0.27938002 0.47503173
vt 0.27938002 0.47503173
vt 0.27938002 0.47503173
vt 0.27938002 0.47503173
vt 0.27938002 0.47503173
vt 0.27938002 0.47503173
vt 0.27938002 0.47503173
vt 0.27938002 0.47503173
vt 0.27938002 0.47503173
vt 0.27938002 0.47503173
vt 0.27938002 0.47503173
vt 0.27938002 0.47503173
vt 0.27938002 0.47503173
vt 0.27938002 0.47503173
vt 0.27938002 0.47503173
vn 0.22392036 -0.5536512 -0.8020786
vn 0.53130686 -0.21067327 -0.8205668
vn 0.53130686 0.21067327 -0.8205668
vn 0.22392036 0.5536512 -0.8020786
vn -0.22392036 -0.5536512 -0.8020786
vn -0.22392036 0.5536512 -0.8020786
vn -0.53130686 -0.21067327 -0.8205668
vn -0.53130686 0.21067327 -0.8205668
vn -0.18763147 0.70438105 0.68457407
vn 0.1856207 0.7238353 -0.6645355
vn 0.09772172 0.7567482 -0.6463611
vn -0.51074386 0.65949595 0.5515484
vn -0.7119791 0.15781404 -0.68423724
vn -0.16510798 -0.027680768 0.985887
vn -0.55181634 -0.0002136339 0.83396566
vn -0.5951582 -0.65842485 0.4607204
vn 0.024079375 -0.6737952 -0.7385257
vn 0.12052063 -0.7668274 0.6304367
vn 0.4823557 -0.71887934 -0.5005451
vn 0.6303386 -0.2691162 0.7281824
vn 0.79020333 -0.21082668 -0.5754397
vn 0.803238 -0.021241447 -0.59527934
vn 0.5293881 0.0025025841 0.84837604
vn 0.7572832 0.45458964 -0.46890336
vn 0.43169138 0.6659553 0.6083964
vn 0.09772172 0.7567482 -0.6463611
vn -0.18763147 0.70438105 0.68457407
vn 0.803238 -0.021241447 -0.59527934
vn 0.4823557 -0.71887934 -0.5005451
vn 0.79020333 -0.21082668 -0.5754397
vn 0.12519091 0.022248702 -0.99188316
vn 0.7572832 0.45458964 -0.46890336
vn 0.024079375 -0.6737952 -0.7385257
vn 0.09772172 0.7567482 -0.6463611
vn 0.51604855 0.0038148956 -0.8565509
vn -0.7119791 0.15781404 -0.68423724
vn 0.1856207 0.7238353 -0.6645355
vn -0.3148686 0.7696076 0.55548346
vn -0.76396495 0.30147195 0.5705016
vn -0.8092171 0.31276095 0.49734122
vn -0.76396495 -0.30147195 0.5705016
vn -0.36003178 0.80133545 0.4777433
vn 0.36003178 0.80133545 0.4777433
vn 0.3148686 0.7696076 0.55548346
vn 0.76396495 0.30147195 0.5705016
vn -0.35490748 0.8493182 0.39076754
vn 0.35490748 0.8493182 0.39076754
vn -0.84648067 0.33281195 0.41558003
vn -0.84648067 -0.33281195 0.41558003
vn 0.8092171 0.31276095 0.49734122
vn 0.84648067 0.33281195 0.41558003
vn 0.84648067 -0.33281195 0.41558003
vn -0.8092171 -0.31276095 0.49734122
vn -0.35490748 -0.8493182 0.39076754
vn 0.8092171 -0.31276095 0.49734122
vn 0.76396495 -0.30147195 0.5705016
vn 0.35490748 -0.8493182 0.39076754
vn 0.3148686 -0.7696076 0.55548346
vn -0.36003178 -0.80133545 0.4777433
vn -0.3148686 -0.7696076 0.55548346
vn 0.36003178 -0.80133545 0.4777433
vn -0.3148686 -0.7696076 0.55548346
vn -0.76396495 -0.30147195 0.5705016
vn -0.72090507 -0.27992642 0.63398504
vn -0.76396495 0.30147195 0.5705016
vn -0.31419724 -0.7131774 0.6266244
vn -0.72090507 0.27992642 0.63398504
vn -0.31419724 0.7131774 0.6266244
vn -0.3148686 0.7696076 0.55548346
vn 0.3148686 0.7696076 0.55548346
vn 0.31419724 -0.7131774 0.6266244
vn 0.3148686 -0.7696076 0.55548346
vn 0.76396495 -0.30147195 0.5705016
vn 0.31419724 0.7131774 0.6266244
vn 0.72090507 -0.27992642 0.63398504
vn 0.72090507 0.27992642 0.63398504
vn 0.76396495 0.30147195 0.5705016
vn 0.37667415 0.8913583 0.25218427
vn 0.3618938 0.8667384 -0.34321618
vn -0.3618938 0.8667384 -0.34321618
vn 0.8661439 0.3406894 -0.36568487
vn -0.37667415 0.8913583 0.25218427
vn 0.89594847 0.3515187 0.27149767
vn -0.89594847 0.3515187 0.27149767
vn -0.8661439 0.3406894 -0.36568487
vn 0.89594847 -0.3515187 0.27149767
vn 0.8661439 -0.3406894 -0.36568487
vn -0.8661439 -0.3406894 -0.36568487
vn -0.89594847 -0.3515187 0.27149767
vn 0.3618938 -0.8667384 -0.34321618
vn 0.37667415 -0.8913583 0.25218427
vn -0.37667415 -0.8913583 0.25218427
vn -0.3618938 -0.8667384 -0.34321618
vn 0.4223521 -0.9064136 -0.005737568
vn 0.53130686 -0.21067327 -0.8205668
vn 0.22392036 -0.5536512 -0.8020786
vn -0.22392036 -0.5536512 -0.8020786
vn 0.933951 -0.35735026 -0.006012298
vn 0.933951 0.35735026 -0.006012298
vn 0.53130686 0.21067327 -0.8205668
vn 0.22392036 0.5536512 -0.8020786
vn -0.4223521 -0.9064136 -0.005737568
vn 0.37667415 -0.8913583 0.25218427
vn 0.89594847 -0.3515187 0.27149767
vn -0.37667415 -0.8913583 0.25218427
vn 0.89594847 0.3515187 0.27149767
vn -0.89594847 -0.3515187 0.27149767
vn -0.933951 -0.35735026 -0.006012298
vn -0.53130686 -0.21067327 -0.8205668
vn -0.53130686 0.21067327 -0.8205668
vn 0.4223521 0.9064136 -0.005737568
vn 0.37667415 0.8913583 0.25218427
vn -0.37667415 0.8913583 0.25218427
vn -0.933951 0.35735026 -0.006012298
vn -0.89594847 0.3515187 0.27149767
vn -0.4223521 0.9064136 -0.005737568
vn -0.22392036 0.5536512 -0.8020786
vn -0.5644272 -0.8174336 -0.11499739
vn -0.66130245 -0.560343 -0.49869308
vn 0.47634724 -0.82942647 0.29179624
vn 0.76218927 -0.6366634 0.117163636
vn 0.5576743 0.8181542 0.14008236
vn -0.56075925 0.8031425 -0.20127393
vn -0.57891953 0.5517269 -0.6003746
vn 0.80454284 0.58767456 0.085727975
vn -0.7255017 0.67844117 0.11560663
vn -0.7255017 -0.67844117 0.11560663
vn 0.67643404 0.7315218 -0.08551562
vn 0.67643404 -0.7315218 -0.08551562
vn -0.712557 0.70138705 0.017853599
vn -0.712557 -0.70138705 0.017853599
vn 0.7023329 0.71170217 -0.014435469
vn 0.7023329 -0.71170217 -0.014435469
vn 0.9342434 0.35624668 0.016663298
vn 0.8661439 0.3406894 -0.36568487
vn 0.8661439 -0.3406894 -0.36568487
vn 0.42672476 0.9042341 0.016327975
vn 0.3618938 0.8667384 -0.34321618
vn 0.9342434 -0.35624668 0.016663298
vn 0.3618938 -0.8667384 -0.34321618
vn -0.42672476 0.9042341 0.016327975
vn -0.3618938 0.8667384 -0.34321618
vn 0.42672476 -0.9042341 0.016327975
vn -0.3618938 -0.8667384 -0.34321618
vn -0.9342434 0.35624668 0.016663298
vn -0.8661439 0.3406894 -0.36568487
vn -0.42672476 -0.9042341 0.016327975
vn -0.8661439 -0.3406894 -0.36568487
vn -0.9342434 -0.35624668 0.016663298
vn 0.84648067 0.33281195 0.41558003
vn 0.84648067 -0.33281195 0.41558003
vn 0.35490748 0.8493182 0.39076754
vn 0.35490748 -0.8493182 0.39076754
vn -0.35490748 -0.8493182 0.39076754
vn -0.35490748 0.8493182 0.39076754
vn -0.84648067 -0.33281195 0.41558003
vn -0.84648067 0.33281195 0.41558003
g ShortSword11_0
f 3/3/3 2/2/2 1/1/1
f 1/1/1 4/4/4 3/3/3
f 1/1/1 5/5/5 4/4/4
f 5/5/5 6/6/6 4/4/4
f 5/5/5 7/7/7 6/6/6
f 7/7/7 8/8/8 6/6/6
f 11/11/11 10/10/10 9/9/9
f 10/10/10 12/12/12 9/9/9
f 10/10/10 13/13/13 12/12/12
f 9/9/9 12/12/12 14/14/14
f 13/13/13 15/15/15 12/12/12
f 12/12/12 15/15/15 14/14/14
f 16/16/16 15/15/15 13/13/13
f 16/16/16 13/13/13 17/17/17
f 15/15/15 16/16/16 18/18/18
f 16/16/16 17/17/17 18/18/18
f 14/14/14 15/15/15 18/18/18
f 17/17/17 19/19/19 18/18/18
f 18/18/18 19/19/19 20/20/20
f 14/14/14 18/18/18 20/20/20
f 19/19/19 21/21/21 20/20/20
f 20/20/20 21/21/21 22/22/22
f 9/9/9 14/14/14 23/23/23
f 23/23/23 14/14/14 20/20/20
f 23/23/23 20/20/20 22/22/22
f 23/23/23 22/22/22 24/24/24
f 25/25/25 9/9/9 23/23/23
f 25/25/25 23/23/23 24/24/24
f 24/24/24 26/26/26 25/25/25
f 26/26/26 27/27/27 25/25/25
f 30/30/30 29/29/29 28/28/28
f 29/29/29 31/31/31 28/28/28
f 28/28/28 31/31/31 32/32/32
f 29/29/29 33/33/33 31/31/31
f 31/31/31 34/34/34 32/32/32
f 33/33/33 35/35/35 31/31/31
f 31/31/31 35/35/35 34/34/34
f 33/33/33 36/36/36 35/35/35
f 35/35/35 37/37/37 34/34/34
f 35/35/35 36/36/36 37/37/37
f 40/40/40 39/39/39 38/38/38
f 39/39/39 40/40/40 41/41/41
f 42/42/42 40/40/40 38/38/38
f 42/42/42 38/38/38 43/43/43
f 38/38/38 44/44/44 43/43/43
f 44/44/44 45/45/45 43/43/43
f 40/40/40 42/42/42 46/46/46
f 46/46/46 42/42/42 47/47/47
f 42/42/42 43/43/43 47/47/47
f 48/48/48 40/40/40 46/46/46
f 48/48/48 49/49/49 40/40/40
f 43/43/43 50/50/50 47/47/47
f 45/45/45 50/50/50 43/43/43
f 50/50/50 51/51/51 47/47/47
f 51/51/51 50/50/50 52/52/52
f 49/49/49 53/53/53 40/40/40
f 40/40/40 53/53/53 41/41/41
f 53/53/53 49/49/49 54/54/54
f 50/50/50 45/45/45 55/55/55
f 50/50/50 55/55/55 52/52/52
f 45/45/45 56/56/56 55/55/55
f 52/52/52 55/55/55 57/57/57
f 55/55/55 56/56/56 58/58/58
f 41/41/41 53/53/53 59/59/59
f 59/59/59 53/53/53 54/54/54
f 60/60/60 41/41/41 59/59/59
f 58/58/58 60/60/60 59/59/59
f 55/55/55 61/61/61 57/57/57
f 54/54/54 57/57/57 61/61/61
f 59/59/59 54/54/54 61/61/61
f 61/61/61 55/55/55 58/58/58
f 61/61/61 58/58/58 59/59/59
f 64/64/64 63/63/63 62/62/62
f 65/65/65 63/63/63 64/64/64
f 66/66/66 64/64/64 62/62/62
f 67/67/67 65/65/65 64/64/64
f 67/67/67 64/64/64 66/66/66
f 65/65/65 67/67/67 68/68/68
f 68/68/68 67/67/67 66/66/66
f 69/69/69 65/65/65 68/68/68
f 69/69/69 68/68/68 70/70/70
f 71/71/71 66/66/66 62/62/62
f 68/68/68 66/66/66 71/71/71
f 72/72/72 71/71/71 62/62/62
f 72/72/72 73/73/73 71/71/71
f 68/68/68 74/74/74 70/70/70
f 74/74/74 68/68/68 71/71/71
f 73/73/73 75/75/75 71/71/71
f 74/74/74 71/71/71 75/75/75
f 74/74/74 76/76/76 70/70/70
f 75/75/75 76/76/76 74/74/74
f 76/76/76 75/75/75 73/73/73
f 76/76/76 77/77/77 70/70/70
f 77/77/77 76/76/76 73/73/73
f 80/80/80 79/79/79 78/78/78
f 79/79/79 81/81/81 78/78/78
f 82/82/82 80/80/80 78/78/78
f 81/81/81 83/83/83 78/78/78
f 82/82/82 84/84/84 80/80/80
f 84/84/84 85/85/85 80/80/80
f 83/83/83 81/81/81 86/86/86
f 81/81/81 87/87/87 86/86/86
f 85/85/85 84/84/84 88/88/88
f 84/84/84 89/89/89 88/88/88
f 86/86/86 87/87/87 90/90/90
f 91/91/91 86/86/86 90/90/90
f 88/88/88 89/89/89 92/92/92
f 91/91/91 90/90/90 92/92/92
f 93/93/93 88/88/88 92/92/92
f 90/90/90 93/93/93 92/92/92
f 96/96/96 95/95/95 94/94/94
f 96/96/96 94/94/94 97/97/97
f 95/95/95 98/98/98 94/94/94
f 99/99/99 98/98/98 95/95/95
f 100/100/100 99/99/99 95/95/95
f 99/99/99 100/100/100 101/101/101
f 94/94/94 102/102/102 97/97/97
f 94/94/94 98/98/98 103/103/103
f 94/94/94 103/103/103 102/102/102
f 98/98/98 104/104/104 103/103/103
f 103/103/103 105/105/105 102/102/102
f 106/106/106 104/104/104 98/98/98
f 99/99/99 106/106/106 98/98/98
f 105/105/105 107/107/107 102/102/102
f 102/102/102 108/108/108 97/97/97
f 107/107/107 108/108/108 102/102/102
f 108/108/108 109/109/109 97/97/97
f 110/110/110 109/109/109 108/108/108
f 106/106/106 99/99/99 111/111/111
f 111/111/111 99/99/99 101/101/101
f 112/112/112 106/106/106 111/111/111
f 113/113/113 112/112/112 111/111/111
f 114/114/114 108/108/108 107/107/107
f 114/114/114 110/110/110 108/108/108
f 115/115/115 114/114/114 107/107/107
f 114/114/114 115/115/115 113/113/113
f 116/116/116 111/111/111 101/101/101
f 116/116/116 113/113/113 111/111/111
f 116/116/116 114/114/114 113/113/113
f 110/110/110 114/114/114 116/116/116
f 117/117/117 116/116/116 101/101/101
f 117/117/117 110/110/110 116/116/116
f 120/120/120 119/119/119 118/118/118
f 121/121/121 120/120/120 118/118/118
f 122/122/122 120/120/120 121/121/121
f 123/123/123 118/118/118 119/119/119
f 124/124/124 123/123/123 119/119/119
f 124/124/124 122/122/122 125/125/125
f 125/125/125 122/122/122 121/121/121
f 123/123/123 124/124/124 125/125/125
f 123/123/123 126/126/126 118/118/118
f 121/121/121 118/118/118 127/127/127
f 126/126/126 127/127/127 118/118/118
f 123/123/123 125/125/125 128/128/128
f 126/126/126 123/123/123 128/128/128
f 125/125/125 121/121/121 129/129/129
f 129/129/129 121/121/121 127/127/127
f 128/128/128 125/125/125 129/129/129
f 126/126/126 130/130/130 127/127/127
f 130/130/130 131/131/131 127/127/127
f 129/129/129 127/127/127 131/131/131
f 130/130/130 126/126/126 132/132/132
f 126/126/126 128/128/128 132/132/132
f 133/133/133 129/129/129 131/131/131
f 132/132/132 128/128/128 133/133/133
f 128/128/128 129/129/129 133/133/133
f 136/136/136 135/135/135 134/134/134
f 134/134/134 135/135/135 137/137/137
f 135/135/135 138/138/138 137/137/137
f 139/139/139 136/136/136 134/134/134
f 136/136/136 139/139/139 140/140/140
f 137/137/137 138/138/138 141/141/141
f 138/138/138 142/142/142 141/141/141
f 139/139/139 143/143/143 140/140/140
f 144/144/144 140/140/140 143/143/143
f 145/145/145 141/141/141 142/142/142
f 146/146/146 145/145/145 142/142/142
f 147/147/147 144/144/144 143/143/143
f 148/148/148 144/144/144 147/147/147
f 148/148/148 149/149/149 146/146/146
f 149/149/149 145/145/145 146/146/146
f 149/149/149 148/148/148 147/147/147
f 139/139/139 134/134/134 150/150/150
f 151/151/151 139/139/139 150/150/150
f 139/139/139 151/151/151 143/143/143
f 150/150/150 134/134/134 152/152/152
f 151/151/151 153/153/153 143/143/143
f 147/147/147 143/143/143 153/153/153
f 134/134/134 137/137/137 152/152/152
f 154/154/154 147/147/147 153/153/153
f 149/149/149 147/147/147 154/154/154
f 152/152/152 137/137/137 155/155/155
f 156/156/156 149/149/149 154/154/154
f 149/149/149 156/156/156 145/145/145
f 137/137/137 141/141/141 155/155/155
f 156/156/156 157/157/157 145/145/145
f 157/157/157 155/155/155 141/141/141
f 145/145/145 157/157/157 141/141/141
