g ShortSword06
v -0.05489748 -0.06576103 -0.055497054
v -0.08008292 -0.06576103 -0.056465644
v -0.112671904 -0.06576103 -0.047546063
v -0.112671904 -0.06576103 -0.047546063
v -0.054064117 -0.06576103 -0.05435117
v -0.05489748 -0.06576103 -0.055497054
v -0.10348771 -0.065761045 0.14910388
v -0.096313894 -0.065761045 0.19214669
v -0.07540006 -0.06576105 0.1579047
v -0.096313894 -0.065761045 0.19214669
v -0.07211081 -0.065761045 0.19627917
v -0.07540006 -0.06576105 0.1579047
v -0.096313894 -0.065761045 0.19214669
v -0.09019294 -0.065761045 0.21663052
v -0.07211081 -0.065761045 0.19627917
v -0.09019294 -0.065761045 0.21663052
v -0.068949334 -0.065761045 0.21620166
v -0.07211081 -0.065761045 0.19627917
v -0.112671904 0.0022821787 -0.047546074
v -0.08008292 0.002282177 -0.056465656
v -0.05489748 0.0022821773 -0.055497065
v -0.05489748 0.0022821773 -0.055497065
v -0.054064117 0.0022821776 -0.05435118
v -0.112671904 0.0022821787 -0.047546074
v -0.07540006 0.0022821561 0.1579047
v -0.096313894 0.002282158 0.19214667
v -0.10348771 0.0022821734 0.14910388
v -0.07540006 0.0022821561 0.1579047
v -0.07211081 0.0022821587 0.19627917
v -0.096313894 0.002282158 0.19214667
v -0.07211081 0.0022821587 0.19627917
v -0.09019293 0.0022821585 0.2166305
v -0.096313894 0.002282158 0.19214667
v -0.07211081 0.0022821587 0.19627917
v -0.068949334 0.0022821582 0.21620168
v -0.09019293 0.0022821585 0.2166305
v -0.10512609 -0.039748296 0.25836095
v -0.06857469 -0.031739447 0.26737753
v -0.06857469 -0.039748296 0.26737753
v -0.10512609 -0.031739447 0.25836095
v -0.10512609 -0.023730597 0.25836095
v -0.06857469 -0.023730598 0.26737753
v -0.17326596 -0.039748285 0.19374086
v -0.18939641 -0.031739432 0.19446315
v -0.20122616 -0.03173944 0.2345502
v -0.18509568 -0.039748285 0.23382796
v -0.091728635 -0.03974832 0.7268361
v -0.107859105 -0.03173947 0.72755843
v -0.091728635 -0.03173947 0.7268361
v -0.091728635 -0.02373062 0.7268361
v -0.005905751 -0.039748296 0.22960226
v -0.011503626 -0.039748296 0.31618676
v -0.011503626 -0.031739447 0.31618676
v -0.005902637 -0.03173944 0.22955406
v -0.005905751 -0.023730593 0.22960226
v -0.011503626 -0.023730598 0.31618676
v -0.041094676 -0.039748315 0.65288377
v -0.091728635 -0.03974832 0.7268361
v -0.091728635 -0.03173947 0.7268361
v -0.041094676 -0.03173947 0.65288377
v -0.041094676 -0.023730623 0.65288377
v -0.091728635 -0.02373062 0.7268361
v -0.12475061 -0.039748285 0.21857002
v -0.06751704 -0.03974829 0.23268846
v -0.06751704 -0.03173944 0.23268846
v -0.12475061 -0.031739436 0.21857002
v -0.12475061 -0.023730593 0.21857002
v -0.06751704 -0.023730595 0.23268846
v 0.01803295 -0.03974831 0.61456966
v -0.041094676 -0.039748315 0.65288377
v -0.041094676 -0.03173947 0.65288377
v 0.01803295 -0.031739462 0.61456966
v 0.070721984 -0.03974831 0.5804275
v 0.070755854 -0.031739477 0.5804056
v 0.070721984 -0.023730626 0.5804275
v 0.01803295 -0.023730613 0.61456966
v -0.041094676 -0.023730623 0.65288377
v -0.17326596 -0.039748285 0.19374086
v -0.12475061 -0.039748285 0.21857002
v -0.12475061 -0.031739436 0.21857002
v -0.17326596 -0.031739436 0.19374086
v -0.17326596 -0.023730585 0.19374086
v -0.12475061 -0.023730593 0.21857002
v -0.18220367 -0.0397483 0.4827976
v -0.19833413 -0.03173945 0.48351988
v -0.17251302 -0.03173946 0.60027856
v -0.15638256 -0.039748307 0.59955627
v -0.011503626 -0.039748296 0.31618676
v 0.00011976436 -0.039748307 0.4137956
v 0.00011976436 -0.03173946 0.4137956
v -0.011503626 -0.031739447 0.31618676
v -0.011503626 -0.023730598 0.31618676
v 0.00011976436 -0.02373061 0.4137956
v -0.17326596 -0.031739436 0.19374086
v -0.18939641 -0.031739432 0.19446315
v -0.17326596 -0.039748285 0.19374086
v -0.17326596 -0.023730585 0.19374086
v 0.00011976436 -0.039748307 0.4137956
v 0.027783345 -0.03974832 0.5023918
v 0.027783345 -0.031739462 0.5023918
v 0.00011976436 -0.03173946 0.4137956
v 0.00011976436 -0.02373061 0.4137956
v 0.027783353 -0.023730613 0.5023918
v -0.19469665 -0.039748296 0.3371093
v -0.21082713 -0.031739447 0.33783162
v -0.19833413 -0.03173945 0.48351988
v -0.18220367 -0.0397483 0.4827976
v -0.15638256 -0.039748307 0.59955627
v -0.091728635 -0.03974832 0.7268361
v -0.041094676 -0.039748315 0.65288377
v -0.09194412 -0.039748307 0.58641046
v -0.18220367 -0.0397483 0.4827976
v -0.13792594 -0.039748296 0.47267783
v -0.19469665 -0.039748296 0.3371093
v -0.15238087 -0.039748296 0.34786445
v -0.1438077 -0.039748292 0.26210988
v -0.18509568 -0.039748285 0.23382796
v -0.12475061 -0.039748285 0.21857002
v -0.17326596 -0.039748285 0.19374086
v -0.15638256 -0.039748307 0.59955627
v -0.17251302 -0.03173946 0.60027856
v -0.107859105 -0.03173947 0.72755843
v -0.091728635 -0.03974832 0.7268361
v -0.18509568 -0.039748285 0.23382796
v -0.20122616 -0.03173944 0.2345502
v -0.21082713 -0.031739447 0.33783162
v -0.19469665 -0.039748296 0.3371093
v -0.112671904 -0.06576103 -0.047546063
v -0.07167166 -0.06576103 0.07428173
v -0.054064117 -0.06576103 -0.05435117
v -0.11006739 -0.06576103 0.071609996
v -0.11006739 -0.06576103 0.071609996
v -0.10348771 -0.065761045 0.14910388
v -0.07167166 -0.06576103 0.07428173
v -0.07540006 -0.06576105 0.1579047
v -0.096313894 -0.065761045 0.19214669
v -0.09439383 -0.065761045 0.22212432
v -0.09019294 -0.065761045 0.21663052
v -0.101612724 -0.065761045 0.1932488
v -0.10348771 -0.065761045 0.14910388
v -0.10885782 -0.065761045 0.14977825
v -0.11006739 -0.06576103 0.071609996
v -0.1154703 -0.06576103 0.0718981
v -0.112671904 -0.06576103 -0.047546063
v -0.118170775 -0.06576102 -0.051647846
v -0.08008292 -0.06576103 -0.056465644
v -0.0807073 -0.06576103 -0.061901588
v -0.05489748 -0.06576103 -0.055497054
v -0.05206737 -0.06576103 -0.060800124
v -0.054064117 -0.06576103 -0.05435117
v -0.04841119 -0.06576103 -0.0557728
v -0.07167166 -0.06576103 0.07428173
v -0.066280134 -0.06576103 0.07476989
v -0.07540006 -0.06576105 0.1579047
v -0.069981836 -0.06576105 0.15779373
v -0.07211081 -0.065761045 0.19627917
v -0.06673926 -0.065761045 0.19562364
v -0.068949334 -0.065761045 0.21620166
v -0.06263563 -0.065761045 0.22148323
v -0.09019294 -0.065761045 0.21663052
v -0.09439383 -0.065761045 0.22212432
v -0.04699914 -0.06637886 0.19696209
v -0.02924843 -0.031739444 0.18654828
v -0.029410454 -0.041448947 0.18643348
v -0.05391644 -0.031739444 0.19838725
v -0.08132391 -0.07978745 0.20084321
v -0.04699914 0.002899976 0.19696207
v -0.029410454 -0.022029936 0.18643348
v -0.0813239 0.016308561 0.2008432
v -0.0804755 -0.03173944 0.20143998
v -0.11071838 -0.06598169 0.19576405
v -0.11071838 0.0025028002 0.19576406
v -0.110105164 -0.03173944 0.19619688
v -0.14176549 -0.038553216 0.18206568
v -0.14176549 -0.024925655 0.18206568
v -0.1416259 -0.031739436 0.18216754
v -0.1437241 -0.031739432 0.15481026
v -0.14386126 -0.038187884 0.15470979
v -0.11327433 -0.06550362 0.15955248
v -0.11266427 -0.031739432 0.15998344
v -0.08244996 -0.079344794 0.16456155
v -0.11327431 0.0020247353 0.15955248
v -0.14386126 -0.025290985 0.1547098
v -0.08244996 0.01586593 0.16456155
v -0.081604436 -0.031739436 0.16515668
v -0.048245974 -0.06593706 0.16102211
v -0.048245974 0.002458173 0.16102216
v -0.055166163 -0.03173944 0.16244552
v -0.028888037 -0.04115613 0.15962061
v -0.028888041 -0.022322753 0.15962067
v -0.02872789 -0.03173944 0.15973438
v -0.14775296 -0.068137415 -0.089583434
v -0.15615638 -0.03173942 -0.08837982
v -0.15593617 -0.039958254 -0.0886881
v -0.13649921 -0.03173942 -0.090995096
v -0.093017615 -0.07655837 -0.09821901
v -0.14775296 0.004658572 -0.08958344
v -0.15593617 -0.023520581 -0.0886881
v -0.093017615 0.013079522 -0.09821902
v -0.094169885 -0.03173942 -0.0987886
v -0.0384913 -0.06634333 -0.097586535
v -0.038491294 0.0028644707 -0.09758654
v -0.039806686 -0.03173942 -0.09800006
v -0.0154397 -0.036370073 -0.086714126
v -0.0154397 -0.027108785 -0.086714126
v -0.01562998 -0.03173943 -0.086812414
v -0.017896648 -0.03173943 -0.05204035
v -0.01770958 -0.035917375 -0.0519434
v -0.03271898 -0.06575094 -0.0520597
v -0.03402771 -0.03173942 -0.0524715
v -0.08474299 -0.07600986 -0.05400722
v -0.03271898 0.0022720825 -0.05205971
v -0.01770958 -0.027561484 -0.051943403
v -0.084742986 0.012531003 -0.054007236
v -0.085891426 -0.03173942 -0.054575186
v -0.1345575 -0.06758996 -0.045812864
v -0.1345575 0.004111129 -0.045812875
v -0.13589042 -0.03173943 -0.04623055
v -0.15106158 -0.039595418 -0.048230626
v -0.15106158 -0.023883427 -0.04823063
v -0.1512793 -0.03173942 -0.048339527
v -0.047409207 -0.039748296 0.28485703
v -0.045566656 -0.031739447 0.317106
v -0.045566656 -0.039748296 0.317106
v -0.047409497 -0.031739447 0.28485203
v -0.047409207 -0.023730598 0.28485703
v -0.045566656 -0.023730598 0.317106
v 0.027783345 -0.03974832 0.5023918
v 0.07283024 -0.03974831 0.5697776
v 0.07285523 -0.031739462 0.56981504
v 0.027783345 -0.031739462 0.5023918
v 0.027783353 -0.023730613 0.5023918
v 0.07283024 -0.023730615 0.5697776
v -0.0016949289 -0.039748315 0.58691907
v 0.070721984 -0.03974831 0.5804275
v 0.010515962 -0.03974832 0.56248
v 0.01803295 -0.03974831 0.61456966
v -0.033933207 -0.03974831 0.5885546
v -0.041094676 -0.039748315 0.65288377
v -0.062204964 -0.03974831 0.569438
v -0.09194412 -0.039748307 0.58641046
v -0.104746535 -0.0397483 0.4642145
v -0.13792594 -0.039748296 0.47267783
v -0.118252255 -0.039748296 0.3475973
v -0.15238087 -0.039748296 0.34786445
v -0.06751704 -0.03974829 0.23268846
v -0.013785701 -0.03974829 0.22286147
v -0.0137283765 -0.03173944 0.22285096
v -0.06751704 -0.03173944 0.23268846
v -0.06751704 -0.023730595 0.23268846
v -0.013785701 -0.023730595 0.22286147
v -0.10512609 -0.039748296 0.25836095
v -0.1438077 -0.039748292 0.26210988
v -0.11057578 -0.039748292 0.27081186
v -0.12475061 -0.039748285 0.21857002
v -0.06857469 -0.039748296 0.26737753
v -0.06751704 -0.03974829 0.23268846
v -0.05321256 -0.039748296 0.2750157
v -0.013785701 -0.03974829 0.22286147
v -0.005905751 -0.039748296 0.22960226
v -0.047409207 -0.039748296 0.28485703
v -0.045566656 -0.039748296 0.317106
v -0.011503626 -0.039748296 0.31618676
v -0.03320449 -0.039748307 0.42091885
v 0.00011976436 -0.039748307 0.4137956
v -0.0031477772 -0.039748315 0.5171794
v 0.027783345 -0.03974832 0.5023918
v 0.010745984 -0.03974831 0.55110645
v 0.07283024 -0.03974831 0.5697776
v 0.010745984 -0.03974831 0.55110645
v 0.070721984 -0.03974831 0.5804275
v 0.010515962 -0.03974832 0.56248
v -0.11057578 -0.039748292 0.27081186
v -0.15238087 -0.039748296 0.34786445
v -0.118252255 -0.039748296 0.3475973
v -0.118252255 -0.039748296 0.3475973
v -0.11057578 -0.031739444 0.27081186
v -0.11057578 -0.039748292 0.27081186
v -0.118252255 -0.031739447 0.3475973
v -0.118252255 -0.0237306 0.3475973
v -0.11057577 -0.023730595 0.27081186
v -0.03320449 -0.039748307 0.42091885
v -0.0031477772 -0.03173946 0.5171794
v -0.0031477772 -0.039748315 0.5171794
v -0.03320449 -0.03173946 0.42091885
v -0.03320449 -0.023730608 0.42091885
v -0.0031477772 -0.023730611 0.5171794
v -0.0016949289 -0.039748315 0.58691907
v -0.0339332 -0.031739462 0.5885546
v -0.033933207 -0.03974831 0.5885546
v -0.0016949289 -0.031739466 0.58691907
v -0.0016949289 -0.023730619 0.58691907
v -0.0339332 -0.023730615 0.5885546
v -0.104746535 -0.0397483 0.4642145
v -0.118252255 -0.031739447 0.3475973
v -0.118252255 -0.039748296 0.3475973
v -0.104746535 -0.031739455 0.4642145
v -0.104746535 -0.023730602 0.4642145
v -0.118252255 -0.0237306 0.3475973
v 0.010515962 -0.03974832 0.56248
v -0.0016949289 -0.031739466 0.58691907
v -0.0016949289 -0.039748315 0.58691907
v 0.010505412 -0.031739462 0.5625011
v 0.010515962 -0.023730617 0.56248
v -0.0016949289 -0.023730619 0.58691907
v -0.062204964 -0.03974831 0.569438
v -0.104746535 -0.031739455 0.4642145
v -0.104746535 -0.0397483 0.4642145
v -0.062204964 -0.031739462 0.569438
v -0.062204964 -0.023730615 0.569438
v -0.104746535 -0.023730602 0.4642145
v -0.11057578 -0.039748292 0.27081186
v -0.10512609 -0.031739447 0.25836095
v -0.10512609 -0.039748296 0.25836095
v -0.11057578 -0.031739444 0.27081186
v -0.11057577 -0.023730595 0.27081186
v -0.10512609 -0.023730597 0.25836095
v -0.045566656 -0.039748296 0.317106
v -0.03320449 -0.03173946 0.42091885
v -0.03320449 -0.039748307 0.42091885
v -0.045566656 -0.031739447 0.317106
v -0.045566656 -0.023730598 0.317106
v -0.03320449 -0.023730608 0.42091885
v -0.033933207 -0.03974831 0.5885546
v -0.062204964 -0.031739462 0.569438
v -0.062204964 -0.03974831 0.569438
v -0.0339332 -0.031739462 0.5885546
v -0.0339332 -0.023730615 0.5885546
v -0.062204964 -0.023730615 0.569438
v 0.070755854 -0.031739477 0.5804056
v 0.07283024 -0.03974831 0.5697776
v 0.070721984 -0.03974831 0.5804275
v 0.07285523 -0.031739462 0.56981504
v 0.07283024 -0.023730615 0.5697776
v 0.070721984 -0.023730626 0.5804275
v 0.010743927 -0.031739466 0.5511015
v 0.010515962 -0.03974832 0.56248
v 0.010745984 -0.03974831 0.55110645
v 0.010505412 -0.031739462 0.5625011
v 0.010515962 -0.023730617 0.56248
v 0.010745991 -0.023730619 0.55110645
v -0.0031477772 -0.039748315 0.5171794
v 0.010743927 -0.031739466 0.5511015
v 0.010745984 -0.03974831 0.55110645
v -0.0031477772 -0.03173946 0.5171794
v -0.0031477772 -0.023730611 0.5171794
v 0.010745991 -0.023730619 0.55110645
v -0.013785701 -0.03974829 0.22286147
v -0.005905751 -0.039748296 0.22960226
v -0.005902637 -0.03173944 0.22955406
v -0.0137283765 -0.03173944 0.22285096
v -0.013785701 -0.023730595 0.22286147
v -0.005905751 -0.023730593 0.22960226
v -0.053247526 -0.031739447 0.27499834
v -0.047409207 -0.039748296 0.28485703
v -0.05321256 -0.039748296 0.2750157
v -0.047409497 -0.031739447 0.28485203
v -0.047409207 -0.023730598 0.28485703
v -0.05321256 -0.023730598 0.2750157
v -0.06857469 -0.039748296 0.26737753
v -0.053247526 -0.031739447 0.27499834
v -0.05321256 -0.039748296 0.2750157
v -0.06857469 -0.031739447 0.26737753
v -0.06857469 -0.023730598 0.26737753
v -0.05321256 -0.023730598 0.2750157
v -0.17326596 -0.023730585 0.19374086
v -0.18509568 -0.023730593 0.23382796
v -0.20122616 -0.03173944 0.2345502
v -0.18939641 -0.031739432 0.19446315
v -0.18220367 -0.023730604 0.4827976
v -0.15638256 -0.023730611 0.59955627
v -0.17251302 -0.03173946 0.60027856
v -0.19833413 -0.03173945 0.48351988
v -0.19469665 -0.023730602 0.3371093
v -0.18220367 -0.023730604 0.4827976
v -0.19833413 -0.03173945 0.48351988
v -0.21082713 -0.031739447 0.33783162
v -0.09194412 -0.023730613 0.58641046
v -0.041094676 -0.023730623 0.65288377
v -0.091728635 -0.02373062 0.7268361
v -0.15638256 -0.023730611 0.59955627
v -0.13792594 -0.023730611 0.47267783
v -0.18220367 -0.023730604 0.4827976
v -0.15238087 -0.0237306 0.34786445
v -0.19469665 -0.023730602 0.3371093
v -0.1438077 -0.023730593 0.26210988
v -0.18509568 -0.023730593 0.23382796
v -0.12475061 -0.023730593 0.21857002
v -0.17326596 -0.023730585 0.19374086
v -0.15638256 -0.023730611 0.59955627
v -0.091728635 -0.02373062 0.7268361
v -0.107859105 -0.03173947 0.72755843
v -0.17251302 -0.03173946 0.60027856
v -0.18509568 -0.023730593 0.23382796
v -0.19469665 -0.023730602 0.3371093
v -0.21082713 -0.031739447 0.33783162
v -0.20122616 -0.03173944 0.2345502
v -0.054064117 0.0022821776 -0.05435118
v -0.07167166 0.0022821687 0.07428173
v -0.112671904 0.0022821787 -0.047546074
v -0.11006739 0.0022821645 0.07161
v -0.07167166 0.0022821687 0.07428173
v -0.10348771 0.0022821734 0.14910388
v -0.11006739 0.0022821645 0.07161
v -0.07540006 0.0022821561 0.1579047
v -0.096313894 0.002282158 0.19214667
v -0.09019293 0.0022821585 0.2166305
v -0.09439383 0.0022821592 0.22212432
v -0.10161272 0.0022821582 0.19324878
v -0.10348771 0.0022821734 0.14910388
v -0.10885782 0.0022821736 0.14977825
v -0.11006739 0.0022821645 0.07161
v -0.1154703 0.0022821683 0.07189811
v -0.112671904 0.0022821787 -0.047546074
v -0.118170775 0.002282178 -0.051647857
v -0.08008292 0.002282177 -0.056465656
v -0.0807073 0.0022821764 -0.0619016
v -0.05489748 0.0022821773 -0.055497065
v -0.05206737 0.0022821764 -0.060800135
v -0.054064117 0.0022821776 -0.05435118
v -0.04841119 0.0022821773 -0.05577281
v -0.07167166 0.0022821687 0.07428173
v -0.066280134 0.0022821687 0.0747699
v -0.07540006 0.0022821561 0.1579047
v -0.06998183 0.0022821561 0.15779373
v -0.07211081 0.0022821587 0.19627917
v -0.06673925 0.0022821587 0.19562362
v -0.068949334 0.0022821582 0.21620168
v -0.06263563 0.0022821592 0.22148322
v -0.09019293 0.0022821585 0.2166305
v -0.09439383 0.0022821592 0.22212432
v -0.0016949289 -0.023730619 0.58691907
v 0.010515962 -0.023730617 0.56248
v 0.070721984 -0.023730626 0.5804275
v 0.01803295 -0.023730613 0.61456966
v -0.0339332 -0.023730615 0.5885546
v -0.041094676 -0.023730623 0.65288377
v -0.062204964 -0.023730615 0.569438
v -0.09194412 -0.023730613 0.58641046
v -0.104746535 -0.023730602 0.4642145
v -0.13792594 -0.023730611 0.47267783
v -0.118252255 -0.0237306 0.3475973
v -0.15238087 -0.0237306 0.34786445
v -0.10512609 -0.023730597 0.25836095
v -0.11057577 -0.023730595 0.27081186
v -0.1438077 -0.023730593 0.26210988
v -0.12475061 -0.023730593 0.21857002
v -0.06857469 -0.023730598 0.26737753
v -0.06751704 -0.023730595 0.23268846
v -0.05321256 -0.023730598 0.2750157
v -0.013785701 -0.023730595 0.22286147
v -0.005905751 -0.023730593 0.22960226
v -0.047409207 -0.023730598 0.28485703
v -0.045566656 -0.023730598 0.317106
v -0.011503626 -0.023730598 0.31618676
v -0.03320449 -0.023730608 0.42091885
v 0.00011976436 -0.02373061 0.4137956
v -0.0031477772 -0.023730611 0.5171794
v 0.027783353 -0.023730613 0.5023918
v 0.010745991 -0.023730619 0.55110645
v 0.07283024 -0.023730615 0.5697776
v 0.010745991 -0.023730619 0.55110645
v 0.070721984 -0.023730626 0.5804275
v 0.010515962 -0.023730617 0.56248
v -0.11057577 -0.023730595 0.27081186
v -0.118252255 -0.0237306 0.3475973
v -0.15238087 -0.0237306 0.34786445
v -0.024872245 -0.031739436 0.17300236
v -0.02872789 -0.03173944 0.15973438
v -0.028888037 -0.04115613 0.15962061
v -0.028888041 -0.022322753 0.15962067
v -0.025115507 -0.04602407 0.17283064
v -0.048245974 -0.06593706 0.16102211
v -0.025115503 -0.017454818 0.17283063
v -0.048245974 0.002458173 0.16102216
v -0.045523725 -0.07280628 0.17931268
v -0.08244996 -0.079344794 0.16456155
v -0.02924843 -0.031739444 0.18654828
v -0.029410454 -0.041448947 0.18643348
v -0.029410454 -0.022029936 0.18643348
v -0.04699914 -0.06637886 0.19696209
v -0.045523725 0.009327402 0.17931268
v -0.08244996 0.01586593 0.16456155
v -0.04699914 0.002899976 0.19696207
v -0.08177562 -0.08713354 0.18322559
v -0.11327433 -0.06550362 0.15955248
v -0.08132391 -0.07978745 0.20084321
v -0.08177562 0.02365467 0.18322559
v -0.11327431 0.0020247353 0.15955248
v -0.0813239 0.016308561 0.2008432
v -0.11412448 -0.072281934 0.17780626
v -0.14386126 -0.038187884 0.15470979
v -0.11071838 -0.06598169 0.19576405
v -0.11412448 0.008803068 0.17780633
v -0.14386126 -0.025290985 0.1547098
v -0.11071838 0.0025028002 0.19576406
v -0.14723353 -0.04287401 0.16784625
v -0.14176549 -0.038553216 0.18206568
v -0.1437241 -0.031739432 0.15481026
v -0.14723353 -0.020604862 0.16784625
v -0.14176549 -0.024925655 0.18206568
v -0.14701466 -0.031739432 0.16800392
v -0.1416259 -0.031739436 0.18216754
v -0.15852216 -0.031739417 -0.06385294
v -0.1512793 -0.03173942 -0.048339527
v -0.15106158 -0.039595418 -0.048230626
v -0.15106158 -0.023883427 -0.04823063
v -0.15819167 -0.045627445 -0.0636889
v -0.1345575 -0.06758996 -0.045812864
v -0.15819167 -0.01785139 -0.063688904
v -0.1345575 0.004111129 -0.045812875
v -0.14530906 -0.07610185 -0.06769176
v -0.08474299 -0.07600986 -0.05400722
v -0.15615638 -0.03173942 -0.08837982
v -0.15593617 -0.039958254 -0.0886881
v -0.15593617 -0.023520581 -0.0886881
v -0.14775296 -0.068137415 -0.089583434
v -0.14530906 0.012623022 -0.06769177
v -0.084742986 0.012531003 -0.054007236
v -0.14775296 0.004658572 -0.08958344
v -0.089116044 -0.08566117 -0.076732635
v -0.03271898 -0.06575094 -0.0520597
v -0.093017615 -0.07655837 -0.09821901
v -0.089116044 0.022182325 -0.07673262
v -0.03271898 0.0022720825 -0.05205971
v -0.093017615 0.013079522 -0.09821902
v -0.026517613 -0.0741502 -0.07624519
v -0.01770958 -0.035917375 -0.0519434
v -0.0384913 -0.06634333 -0.097586535
v -0.02651761 0.010671342 -0.0762452
v -0.01770958 -0.027561484 -0.051943403
v -0.038491294 0.0028644707 -0.09758654
v -0.0060416274 -0.04172411 -0.070342235
v -0.0154397 -0.036370073 -0.086714126
v -0.017896648 -0.03173943 -0.05204035
v -0.0060416274 -0.021754742 -0.07034224
v -0.0154397 -0.027108785 -0.086714126
v -0.006339591 -0.031739425 -0.070493616
v -0.01562998 -0.03173943 -0.086812414
v -0.06263563 -0.065761045 0.22148323
v -0.044138327 -0.04991743 0.23695666
v -0.051002175 -0.049917437 0.19370307
v -0.06673926 -0.065761045 0.19562364
v -0.09439383 -0.065761045 0.22212432
v -0.054107986 -0.04991743 0.15746865
v -0.069981836 -0.06576105 0.15779373
v -0.10670122 -0.04991743 0.23821968
v -0.101612724 -0.065761045 0.1932488
v -0.050484553 -0.049917426 0.076200046
v -0.066280134 -0.06576103 0.07476989
v -0.11713674 -0.049917426 0.19647764
v -0.10885782 -0.065761045 0.14977825
v -0.03184972 -0.049917415 -0.059937827
v -0.04841119 -0.06576103 -0.0557728
v -0.1245907 -0.049917422 0.15175398
v -0.1154703 -0.06576103 0.0718981
v -0.043776028 -0.049917415 -0.07633657
v -0.05206737 -0.06576103 -0.060800124
v -0.13129926 -0.049917422 0.07274223
v -0.118170775 -0.06576102 -0.051647846
v -0.0825365 -0.04991741 -0.0778273
v -0.0807073 -0.06576103 -0.061901588
v -0.13428085 -0.04991741 -0.063664846
v -0.03184972 -0.031739425 -0.05993783
v -0.043776028 -0.031739425 -0.07633657
v -0.0825365 -0.03173942 -0.0778273
v -0.13428085 -0.031739417 -0.063664846
v -0.13129926 -0.03173943 0.07274223
v -0.12459067 -0.031739432 0.15175396
v -0.050484553 -0.031739436 0.076200046
v -0.11713674 -0.03173944 0.19647762
v -0.054107986 -0.031739436 0.15746869
v -0.10670122 -0.03173944 0.23821966
v -0.051002175 -0.031739447 0.19370306
v -0.044138327 -0.03173944 0.23695664
v -0.13129924 -0.013561444 0.072742224
v -0.12459067 -0.013561444 0.15175398
v -0.11713674 -0.013561451 0.19647762
v -0.10670122 -0.013561449 0.23821966
v -0.044138327 -0.013561452 0.23695664
v -0.051002175 -0.013561453 0.19370306
v -0.13428085 -0.013561433 -0.06366485
v -0.054107986 -0.013561447 0.15746869
v -0.0825365 -0.013561432 -0.077827305
v -0.050484553 -0.013561444 0.07620004
v -0.043776028 -0.013561433 -0.07633658
v -0.03184972 -0.013561432 -0.05993783
v -0.118170775 0.002282178 -0.051647857
v -0.0807073 0.0022821764 -0.0619016
v -0.1154703 0.0022821683 0.07189811
v -0.05206737 0.0022821764 -0.060800135
v -0.04841119 0.0022821773 -0.05577281
v -0.10885782 0.0022821736 0.14977825
v -0.066280134 0.0022821687 0.0747699
v -0.06998183 0.0022821561 0.15779373
v -0.10161272 0.0022821582 0.19324878
v -0.06673925 0.0022821587 0.19562362
v -0.09439383 0.0022821592 0.22212432
v -0.06263563 0.0022821592 0.22148322
v -0.07945781 -0.056501117 0.2230191
v -0.073826775 -0.056501117 0.22290549
v -0.073826775 -0.03173944 0.22290547
v -0.060558476 -0.056501117 0.22950679
v -0.060558483 -0.03173944 0.22950678
v -0.07945781 -0.03173944 0.22301908
v -0.09218651 -0.056501117 0.23031808
v -0.05158911 -0.03173944 0.24187906
v -0.051589094 -0.05650112 0.24187905
v -0.073826775 -0.006977765 0.22290547
v -0.07945781 -0.006977765 0.2230191
v -0.060558476 -0.006977764 0.2295068
v -0.09218651 -0.0069777635 0.23031808
v -0.09218651 -0.03173944 0.23031807
v -0.051589094 -0.0069777654 0.24187906
v -0.10005681 -0.056501117 0.24316409
v -0.050845176 -0.031739447 0.2559006
v -0.10005681 -0.0069777616 0.24316408
v -0.10005681 -0.031739436 0.24316408
v -0.05084519 -0.05650112 0.2559006
v -0.05084519 -0.006977765 0.2559006
v -0.09975065 -0.05650112 0.25722763
v -0.09975065 -0.0069777593 0.25722763
v -0.05795706 -0.031739447 0.26828527
v -0.057957076 -0.05650112 0.26828527
v -0.09975065 -0.031739447 0.25722763
v -0.057957076 -0.0069777705 0.26828527
v -0.09148153 -0.05650112 0.26949227
v -0.07047773 -0.031739447 0.27583763
v -0.09148153 -0.0069777705 0.26949227
v -0.09148153 -0.031739444 0.26949227
v -0.07047773 -0.05650112 0.27583763
v -0.07047773 -0.006977769 0.27583763
v -0.078450374 -0.05650112 0.27612472
v -0.078450374 -0.031739447 0.27612472
v -0.078450374 -0.006977769 0.27612472
v -0.0829371 -0.043728814 -0.06320282
v -0.0829371 -0.047683425 -0.07167538
v -0.102039725 -0.047683414 -0.07679393
v -0.10627602 -0.04372881 -0.069456436
v -0.09473915 -0.047683436 -0.08943886
v -0.11602383 -0.047683418 -0.090778
v -0.10337885 -0.047683436 -0.0980786
v -0.10627601 -0.03173942 -0.069456436
v -0.059598155 -0.043728814 -0.069456436
v -0.0829371 -0.031739425 -0.06320282
v -0.0829371 -0.047683436 -0.08627657
v -0.06383444 -0.047683414 -0.07679393
v -0.10101107 -0.03173942 -0.09944563
v -0.0933721 -0.031739425 -0.09180664
v -0.1065412 -0.047683436 -0.10988063
v -0.103807114 -0.031739425 -0.10988063
v -0.1233613 -0.043728806 -0.08654172
v -0.1233613 -0.03173942 -0.08654172
v -0.121142365 -0.047683418 -0.10988063
v -0.042512894 -0.04372881 -0.08654172
v -0.059598155 -0.031739425 -0.069456436
v -0.0829371 -0.019750042 -0.06320283
v -0.10627601 -0.01975004 -0.06945644
v -0.059598155 -0.01975004 -0.06945644
v -0.12961495 -0.03173942 -0.10988063
v -0.12961495 -0.043728806 -0.10988063
v -0.1233613 -0.01975004 -0.08654173
v -0.102039725 -0.01579543 -0.07679394
v -0.0829371 -0.015795428 -0.07167539
v -0.11602383 -0.015795428 -0.09077801
v -0.042512894 -0.019750044 -0.08654173
v -0.06383444 -0.01579543 -0.07679394
v -0.042512894 -0.031739425 -0.08654172
v -0.12961495 -0.019750029 -0.10988064
v -0.12336131 -0.031739417 -0.13321958
v -0.121142365 -0.015795417 -0.10988064
v -0.09473915 -0.01579541 -0.08943887
v -0.10337885 -0.015795408 -0.09807861
v -0.0829371 -0.01579541 -0.086276576
v -0.106541194 -0.01579541 -0.10988064
v -0.082937084 -0.031739425 -0.08901065
v -0.07113504 -0.01579541 -0.08943887
v -0.10101106 -0.03173942 -0.12031569
v -0.10337885 -0.015795404 -0.12168273
v -0.071135044 -0.047683436 -0.08943886
v -0.10337885 -0.04768343 -0.121682726
v -0.04985036 -0.015795432 -0.09077801
v -0.07250207 -0.031739425 -0.09180664
v -0.049850367 -0.047683418 -0.090778
v -0.09337211 -0.03173942 -0.1279547
v -0.116023816 -0.047683418 -0.12898329
v -0.062495336 -0.015795412 -0.09807861
v -0.062495336 -0.047683436 -0.0980786
v -0.03625927 -0.04372881 -0.10988063
v -0.094739154 -0.047683433 -0.13032243
v -0.1233613 -0.043728806 -0.13321958
v -0.0648631 -0.031739425 -0.09944563
v -0.044731848 -0.04768342 -0.10988063
v -0.10203973 -0.047683418 -0.14296737
v -0.05933299 -0.04768344 -0.10988063
v -0.08293709 -0.03173942 -0.1307507
v -0.0829371 -0.047683433 -0.13348478
v -0.09473915 -0.015795404 -0.13032244
v -0.116023816 -0.015795419 -0.1289833
v -0.1233613 -0.019750033 -0.13321958
v -0.10203973 -0.015795423 -0.14296739
v -0.0829371 -0.015795402 -0.1334848
v -0.10627603 -0.031739417 -0.15030484
v -0.10627603 -0.043728802 -0.15030484
v -0.10627603 -0.019750034 -0.15030484
v -0.07250207 -0.03173942 -0.1279547
v -0.0829371 -0.047683418 -0.14808592
v -0.08293709 -0.015795423 -0.14808594
v -0.0829371 -0.031739417 -0.1565585
v -0.07113505 -0.047683433 -0.13032243
v -0.07113505 -0.015795404 -0.13032244
v -0.0829371 -0.043728802 -0.1565585
v -0.0829371 -0.019750036 -0.1565585
v -0.06383447 -0.047683418 -0.14296737
v -0.0648631 -0.031739425 -0.12031563
v -0.06383447 -0.015795426 -0.14296739
v -0.059598185 -0.031739425 -0.15030484
v -0.062495343 -0.04768343 -0.121682666
v -0.062495336 -0.015795404 -0.12168267
v -0.059598185 -0.043728802 -0.15030484
v -0.059598185 -0.019750036 -0.15030484
v -0.049850367 -0.047683425 -0.12898323
v -0.062067054 -0.031739425 -0.10988063
v -0.0425129 -0.03173942 -0.13321953
v -0.049850367 -0.015795426 -0.12898324
v -0.0425129 -0.04372881 -0.13321953
v -0.05933299 -0.015795413 -0.10988064
v -0.03625927 -0.031739425 -0.10988063
v -0.044731848 -0.015795425 -0.10988064
v -0.0425129 -0.019750036 -0.13321953
v -0.03625927 -0.019750036 -0.10988064
vt 0.22714645 0.64142454
vt 0.2271464 0.64142454
vt 0.22714642 0.6414244
vt 0.22714642 0.6414244
vt 0.22714642 0.64142454
vt 0.22714645 0.64142454
vt 0.2271464 0.6414245
vt 0.22714645 0.6414246
vt 0.22714642 0.64142454
vt 0.22714645 0.6414246
vt 0.22714643 0.64142454
vt 0.22714642 0.64142454
vt 0.22714645 0.6414246
vt 0.22714646 0.6414247
vt 0.22714643 0.64142454
vt 0.22714646 0.6414247
vt 0.22714645 0.64142454
vt 0.22714643 0.64142454
vt 0.22714642 0.6414244
vt 0.2271464 0.64142454
vt 0.22714645 0.64142454
vt 0.22714645 0.64142454
vt 0.22714642 0.64142454
vt 0.22714642 0.6414244
vt 0.22714642 0.64142454
vt 0.22714645 0.6414246
vt 0.2271464 0.6414245
vt 0.22714642 0.64142454
vt 0.22714643 0.64142454
vt 0.22714645 0.6414246
vt 0.22714643 0.64142454
vt 0.22714646 0.6414247
vt 0.22714645 0.6414246
vt 0.22714643 0.64142454
vt 0.22714645 0.64142454
vt 0.22714646 0.6414247
vt 0.06524793 0.89890105
vt 0.06524787 0.89890105
vt 0.06524787 0.89890105
vt 0.06524793 0.89890105
vt 0.06524793 0.89890105
vt 0.06524787 0.89890105
vt 0.22322536 0.46605065
vt 0.22322536 0.46605065
vt 0.22322536 0.46605065
vt 0.22322536 0.46605065
vt 0.22322536 0.46605065
vt 0.22322536 0.46605065
vt 0.22322536 0.46605065
vt 0.22322536 0.46605065
vt 0.06524787 0.89890105
vt 0.06524787 0.89890105
vt 0.06524787 0.89890105
vt 0.06524787 0.89890105
vt 0.06524787 0.89890105
vt 0.06524787 0.89890105
vt 0.2974441 0.46605065
vt 0.2974441 0.46605065
vt 0.2974441 0.46605065
vt 0.2974441 0.46605065
vt 0.2974441 0.46605065
vt 0.2974441 0.46605065
vt 0.06524787 0.89890105
vt 0.06524787 0.89890105
vt 0.06524787 0.89890105
vt 0.06524787 0.89890105
vt 0.06524787 0.89890105
vt 0.06524787 0.89890105
vt 0.06524787 0.89890105
vt 0.06524787 0.89890105
vt 0.06524787 0.89890105
vt 0.06524787 0.89890105
vt 0.06524787 0.89890105
vt 0.06524787 0.89890105
vt 0.06524787 0.89890105
vt 0.06524787 0.89890105
vt 0.06524787 0.89890105
vt 0.2974441 0.46605065
vt 0.2974441 0.46605065
vt 0.2974441 0.46605065
vt 0.2974441 0.46605065
vt 0.2974441 0.46605065
vt 0.2974441 0.46605065
vt 0.22322536 0.46605065
vt 0.22322536 0.46605065
vt 0.22322536 0.46605065
vt 0.22322536 0.46605065
vt 0.06524787 0.89890105
vt 0.06524787 0.89890105
vt 0.06524787 0.89890105
vt 0.06524787 0.89890105
vt 0.06524787 0.89890105
vt 0.06524787 0.89890105
vt 0.22322536 0.46605065
vt 0.22322536 0.46605065
vt 0.22322536 0.46605065
vt 0.22322536 0.46605065
vt 0.06524787 0.89890105
vt 0.06524787 0.89890105
vt 0.06524787 0.89890105
vt 0.06524787 0.89890105
vt 0.06524787 0.89890105
vt 0.06524787 0.89890105
vt 0.22322536 0.46605065
vt 0.22322536 0.46605065
vt 0.22322536 0.46605065
vt 0.22322536 0.46605065
vt 0.2974441 0.46605065
vt 0.2974441 0.46605065
vt 0.2974441 0.46605065
vt 0.2974441 0.46605065
vt 0.2974441 0.46605065
vt 0.2974441 0.46605065
vt 0.2974441 0.46605065
vt 0.2974441 0.46605065
vt 0.2974441 0.46605065
vt 0.2974441 0.46605065
vt 0.2974441 0.46605065
vt 0.2974441 0.46605065
vt 0.22322536 0.46605065
vt 0.22322536 0.46605065
vt 0.22322536 0.46605065
vt 0.22322536 0.46605065
vt 0.22322536 0.46605065
vt 0.22322536 0.46605065
vt 0.22322536 0.46605065
vt 0.22322536 0.46605065
vt 0.22714642 0.6414244
vt 0.22714643 0.6414246
vt 0.22714642 0.64142454
vt 0.22714645 0.6414246
vt 0.22714645 0.6414246
vt 0.2271464 0.6414245
vt 0.22714643 0.6414246
vt 0.22714642 0.64142454
vt 0.28183395 0.6492371
vt 0.28183392 0.64923704
vt 0.28183395 0.6492372
vt 0.28183392 0.64923704
vt 0.2818339 0.649237
vt 0.28183392 0.64923704
vt 0.28183395 0.6492371
vt 0.28183392 0.64923704
vt 0.28183392 0.6492369
vt 0.28183392 0.64923704
vt 0.2818339 0.64923704
vt 0.28183392 0.64923704
vt 0.28183395 0.64923704
vt 0.28183392 0.64923704
vt 0.28183392 0.64923704
vt 0.28183392 0.64923704
vt 0.28183392 0.6492371
vt 0.28183392 0.64923704
vt 0.28183392 0.64923704
vt 0.28183392 0.64923704
vt 0.28183392 0.64923704
vt 0.28183392 0.64923704
vt 0.28183395 0.64923704
vt 0.28183392 0.64923704
vt 0.28183395 0.6492372
vt 0.28183392 0.64923704
vt 0.1186517 0.9557577
vt 0.1186517 0.9557577
vt 0.1186517 0.9557577
vt 0.1186517 0.9557577
vt 0.1186517 0.9557577
vt 0.1186517 0.9557577
vt 0.1186517 0.9557577
vt 0.1186517 0.9557577
vt 0.1186517 0.9557577
vt 0.1186517 0.9557577
vt 0.1186517 0.9557577
vt 0.1186517 0.9557577
vt 0.1186517 0.9557577
vt 0.1186517 0.9557577
vt 0.1186517 0.9557577
vt 0.1186517 0.9557577
vt 0.1186517 0.9557577
vt 0.1186517 0.9557577
vt 0.1186517 0.9557577
vt 0.1186517 0.9557577
vt 0.1186517 0.9557577
vt 0.1186517 0.9557577
vt 0.1186517 0.9557577
vt 0.1186517 0.9557577
vt 0.1186517 0.9557577
vt 0.1186517 0.9557577
vt 0.1186517 0.9557577
vt 0.1186517 0.9557577
vt 0.1186517 0.9557577
vt 0.1186517 0.9557577
vt 0.1186517 0.9557577
vt 0.1186517 0.9557577
vt 0.1186517 0.9557577
vt 0.1186517 0.9557577
vt 0.1186517 0.9557577
vt 0.1186517 0.9557577
vt 0.1186517 0.9557577
vt 0.1186517 0.9557577
vt 0.1186517 0.9557577
vt 0.1186517 0.9557577
vt 0.1186517 0.9557577
vt 0.1186517 0.9557577
vt 0.1186517 0.9557577
vt 0.1186517 0.9557577
vt 0.1186517 0.9557577
vt 0.1186517 0.9557577
vt 0.1186517 0.9557577
vt 0.1186517 0.9557577
vt 0.1186517 0.9557577
vt 0.1186517 0.9557577
vt 0.1186517 0.9557577
vt 0.1186517 0.9557577
vt 0.1186517 0.9557577
vt 0.1186517 0.9557577
vt 0.1186517 0.9557577
vt 0.1186517 0.9557577
vt 0.1186517 0.9557577
vt 0.1186517 0.9557577
vt 0.1186517 0.9557577
vt 0.1186517 0.9557577
vt 0.06524787 0.89890105
vt 0.06524781 0.89890105
vt 0.06524781 0.89890105
vt 0.06524787 0.89890105
vt 0.06524787 0.89890105
vt 0.06524781 0.89890105
vt 0.06524787 0.89890105
vt 0.06524787 0.89890105
vt 0.06524787 0.89890105
vt 0.06524787 0.89890105
vt 0.06524787 0.89890105
vt 0.06524787 0.89890105
vt 0.06524787 0.89890105
vt 0.06524787 0.89890105
vt 0.06524793 0.8989011
vt 0.06524787 0.89890105
vt 0.06524775 0.89890105
vt 0.06524787 0.89890105
vt 0.06524787 0.89890105
vt 0.06524787 0.89890105
vt 0.06524787 0.89890105
vt 0.06524787 0.89890105
vt 0.06524781 0.8989011
vt 0.06524787 0.89890105
vt 0.06524787 0.89890105
vt 0.06524787 0.89890105
vt 0.06524787 0.89890105
vt 0.06524787 0.89890105
vt 0.06524787 0.89890105
vt 0.06524787 0.89890105
vt 0.06524793 0.89890105
vt 0.06524787 0.89890105
vt 0.06524793 0.89890105
vt 0.06524787 0.89890105
vt 0.06524787 0.89890105
vt 0.06524787 0.89890105
vt 0.06524787 0.89890105
vt 0.06524787 0.89890105
vt 0.06524787 0.89890105
vt 0.06524787 0.89890105
vt 0.06524781 0.89890105
vt 0.06524787 0.89890105
vt 0.06524787 0.89890105
vt 0.06524787 0.89890105
vt 0.06524787 0.89890105
vt 0.06524787 0.89890105
vt 0.06524787 0.8989011
vt 0.06524787 0.89890105
vt 0.06524787 0.8989011
vt 0.06524787 0.89890105
vt 0.06524793 0.8989011
vt 0.06524793 0.89890105
vt 0.06524787 0.89890105
vt 0.06524781 0.8989011
vt 0.06524781 0.8989011
vt 0.06524793 0.89890105
vt 0.06524793 0.89890105
vt 0.06524781 0.8989011
vt 0.06524781 0.8989011
vt 0.06524793 0.89890105
vt 0.06524787 0.89890105
vt 0.06524787 0.89890105
vt 0.06524787 0.89890105
vt 0.06524787 0.89890105
vt 0.06524787 0.89890105
vt 0.06524787 0.89890105
vt 0.06524787 0.89890105
vt 0.06524775 0.89890105
vt 0.06524775 0.89890105
vt 0.06524787 0.89890105
vt 0.06524787 0.89890105
vt 0.06524775 0.89890105
vt 0.06524787 0.89890105
vt 0.06524781 0.8989011
vt 0.06524781 0.8989011
vt 0.06524787 0.89890105
vt 0.06524787 0.89890105
vt 0.06524781 0.8989011
vt 0.06524793 0.8989011
vt 0.06524787 0.89890105
vt 0.06524787 0.89890105
vt 0.06524793 0.8989011
vt 0.06524793 0.8989011
vt 0.06524787 0.89890105
vt 0.06524787 0.89890105
vt 0.06524787 0.89890105
vt 0.06524787 0.89890105
vt 0.06524787 0.89890105
vt 0.06524787 0.89890105
vt 0.06524787 0.89890105
vt 0.06524793 0.89890105
vt 0.06524793 0.89890105
vt 0.06524793 0.89890105
vt 0.06524793 0.89890105
vt 0.06524793 0.89890105
vt 0.06524793 0.89890105
vt 0.06524781 0.89890105
vt 0.06524787 0.89890105
vt 0.06524787 0.89890105
vt 0.06524781 0.89890105
vt 0.06524781 0.89890105
vt 0.06524787 0.89890105
vt 0.06524775 0.89890105
vt 0.06524787 0.89890105
vt 0.06524787 0.89890105
vt 0.06524775 0.89890105
vt 0.06524775 0.89890105
vt 0.06524787 0.89890105
vt 0.06524787 0.89890105
vt 0.06524787 0.89890105
vt 0.06524787 0.89890105
vt 0.06524787 0.89890105
vt 0.06524787 0.89890105
vt 0.06524787 0.89890105
vt 0.06524793 0.8989011
vt 0.06524793 0.8989011
vt 0.06524793 0.8989011
vt 0.06524793 0.8989011
vt 0.06524793 0.8989011
vt 0.06524793 0.8989011
vt 0.06524787 0.89890105
vt 0.06524793 0.8989011
vt 0.06524793 0.8989011
vt 0.06524787 0.89890105
vt 0.06524787 0.89890105
vt 0.06524793 0.8989011
vt 0.06524787 0.89890105
vt 0.06524787 0.89890105
vt 0.06524787 0.89890105
vt 0.06524787 0.89890105
vt 0.06524787 0.89890105
vt 0.06524787 0.89890105
vt 0.06524787 0.89890105
vt 0.06524787 0.89890105
vt 0.06524787 0.89890105
vt 0.06524787 0.89890105
vt 0.06524787 0.89890105
vt 0.06524787 0.89890105
vt 0.06524787 0.89890105
vt 0.06524787 0.89890105
vt 0.06524787 0.89890105
vt 0.06524787 0.89890105
vt 0.06524787 0.89890105
vt 0.06524787 0.89890105
vt 0.22322536 0.46605065
vt 0.22322536 0.46605065
vt 0.22322536 0.46605065
vt 0.22322536 0.46605065
vt 0.22322536 0.46605065
vt 0.22322536 0.46605065
vt 0.22322536 0.46605065
vt 0.22322536 0.46605065
vt 0.22322536 0.46605065
vt 0.22322536 0.46605065
vt 0.22322536 0.46605065
vt 0.22322536 0.46605065
vt 0.2974441 0.46605065
vt 0.2974441 0.46605065
vt 0.2974441 0.46605065
vt 0.2974441 0.46605065
vt 0.2974441 0.46605065
vt 0.2974441 0.46605065
vt 0.2974441 0.46605065
vt 0.2974441 0.46605065
vt 0.2974441 0.46605065
vt 0.2974441 0.46605065
vt 0.2974441 0.46605065
vt 0.2974441 0.46605065
vt 0.22322536 0.46605065
vt 0.22322536 0.46605065
vt 0.22322536 0.46605065
vt 0.22322536 0.46605065
vt 0.22322536 0.46605065
vt 0.22322536 0.46605065
vt 0.22322536 0.46605065
vt 0.22322536 0.46605065
vt 0.22714642 0.64142454
vt 0.22714643 0.6414246
vt 0.22714642 0.6414244
vt 0.22714645 0.6414246
vt 0.22714643 0.6414246
vt 0.2271464 0.6414245
vt 0.22714645 0.6414246
vt 0.22714642 0.64142454
vt 0.28183395 0.6492371
vt 0.28183395 0.6492372
vt 0.28183392 0.64923704
vt 0.28183392 0.64923704
vt 0.2818339 0.649237
vt 0.28183392 0.64923704
vt 0.28183395 0.6492371
vt 0.28183392 0.64923704
vt 0.28183392 0.6492369
vt 0.28183392 0.64923704
vt 0.2818339 0.64923704
vt 0.28183392 0.64923704
vt 0.28183395 0.64923704
vt 0.28183392 0.64923704
vt 0.28183392 0.64923704
vt 0.28183392 0.64923704
vt 0.28183392 0.6492371
vt 0.28183392 0.64923704
vt 0.28183392 0.64923704
vt 0.28183392 0.64923704
vt 0.28183392 0.64923704
vt 0.28183392 0.64923704
vt 0.28183395 0.64923704
vt 0.28183392 0.64923704
vt 0.28183395 0.6492372
vt 0.28183392 0.64923704
vt 0.06524787 0.89890105
vt 0.06524793 0.8989011
vt 0.06524787 0.89890105
vt 0.06524787 0.89890105
vt 0.06524775 0.89890105
vt 0.06524787 0.89890105
vt 0.06524787 0.89890105
vt 0.06524787 0.89890105
vt 0.06524787 0.89890105
vt 0.06524787 0.89890105
vt 0.06524781 0.8989011
vt 0.06524787 0.89890105
vt 0.06524793 0.89890105
vt 0.06524793 0.89890105
vt 0.06524787 0.89890105
vt 0.06524787 0.89890105
vt 0.06524787 0.89890105
vt 0.06524787 0.89890105
vt 0.06524787 0.89890105
vt 0.06524787 0.89890105
vt 0.06524787 0.89890105
vt 0.06524787 0.89890105
vt 0.06524781 0.89890105
vt 0.06524787 0.89890105
vt 0.06524787 0.89890105
vt 0.06524787 0.89890105
vt 0.06524787 0.89890105
vt 0.06524787 0.89890105
vt 0.06524787 0.8989011
vt 0.06524787 0.89890105
vt 0.06524787 0.8989011
vt 0.06524787 0.89890105
vt 0.06524793 0.8989011
vt 0.06524793 0.89890105
vt 0.06524781 0.8989011
vt 0.06524787 0.89890105
vt 0.2829725 0.5744094
vt 0.2829725 0.5744094
vt 0.2829725 0.5744094
vt 0.2829725 0.5744094
vt 0.2829725 0.5744094
vt 0.2829725 0.5744094
vt 0.2829725 0.5744094
vt 0.2829725 0.5744094
vt 0.2829725 0.5744094
vt 0.2829725 0.5744094
vt 0.2829725 0.5744094
vt 0.2829725 0.5744094
vt 0.2829725 0.5744094
vt 0.2829725 0.5744094
vt 0.2829725 0.5744094
vt 0.2829725 0.5744094
vt 0.2829725 0.5744094
vt 0.2829725 0.5744094
vt 0.2829725 0.5744094
vt 0.2829725 0.5744094
vt 0.2829725 0.5744094
vt 0.2829725 0.5744094
vt 0.2829725 0.5744094
vt 0.2829725 0.5744094
vt 0.2829725 0.5744094
vt 0.2829725 0.5744094
vt 0.2829725 0.5744094
vt 0.2829725 0.5744094
vt 0.2829725 0.5744094
vt 0.2829725 0.5744094
vt 0.2829725 0.5744094
vt 0.2829725 0.5744094
vt 0.2829725 0.5744094
vt 0.2829725 0.5744094
vt 0.2829725 0.5744094
vt 0.2829725 0.5744094
vt 0.2829725 0.5744094
vt 0.2829725 0.5744094
vt 0.2829725 0.5744094
vt 0.2829725 0.5744094
vt 0.2829725 0.5744094
vt 0.2829725 0.5744094
vt 0.2829725 0.5744094
vt 0.2829725 0.5744094
vt 0.2829725 0.5744094
vt 0.2829725 0.5744094
vt 0.2829725 0.5744094
vt 0.2829725 0.5744094
vt 0.2829725 0.5744094
vt 0.2829725 0.5744094
vt 0.2829725 0.5744094
vt 0.2829725 0.5744094
vt 0.2829725 0.5744094
vt 0.2829725 0.5744094
vt 0.2829725 0.5744094
vt 0.2829725 0.5744094
vt 0.2829725 0.5744094
vt 0.2829725 0.5744094
vt 0.2829725 0.5744094
vt 0.2829725 0.5744094
vt 0.2829725 0.5744094
vt 0.2829725 0.5744094
vt 0.2829725 0.5744094
vt 0.2829725 0.5744094
vt 0.2829725 0.5744094
vt 0.2829725 0.5744094
vt 0.2829725 0.5744094
vt 0.2829725 0.5744094
vt 0.2829725 0.5744094
vt 0.2829725 0.5744094
vt 0.2829725 0.5744094
vt 0.2829725 0.5744094
vt 0.22714643 0.64142454
vt 0.22714643 0.64142454
vt 0.22714643 0.64142454
vt 0.22714643 0.64142454
vt 0.22714643 0.64142454
vt 0.22714643 0.64142454
vt 0.22714643 0.64142454
vt 0.22714643 0.64142454
vt 0.22714643 0.64142454
vt 0.22714643 0.64142454
vt 0.22714643 0.64142454
vt 0.22714643 0.64142454
vt 0.22714643 0.64142454
vt 0.22714643 0.64142454
vt 0.22714643 0.64142454
vt 0.22714643 0.64142454
vt 0.22714643 0.64142454
vt 0.22714643 0.64142454
vt 0.22714643 0.64142454
vt 0.22714643 0.64142454
vt 0.22714643 0.64142454
vt 0.22714643 0.64142454
vt 0.22714643 0.64142454
vt 0.22714643 0.64142454
vt 0.22714643 0.64142454
vt 0.22714643 0.64142454
vt 0.22714643 0.64142454
vt 0.22714643 0.64142454
vt 0.22714643 0.64142454
vt 0.22714643 0.64142454
vt 0.22714643 0.64142454
vt 0.22714643 0.64142454
vt 0.22714643 0.64142454
vt 0.22714643 0.64142454
vt 0.22714643 0.64142454
vt 0.22714643 0.64142454
vt 0.22714643 0.64142454
vt 0.22714643 0.64142454
vt 0.22714643 0.64142454
vt 0.22714643 0.64142454
vt 0.22714643 0.64142454
vt 0.22714643 0.64142454
vt 0.22714643 0.64142454
vt 0.22714643 0.64142454
vt 0.22714643 0.64142454
vt 0.22714643 0.64142454
vt 0.22714643 0.64142454
vt 0.22714643 0.64142454
vt 0.22714643 0.64142454
vt 0.22714643 0.64142454
vt 0.22714643 0.64142454
vt 0.22714643 0.64142454
vt 0.22714643 0.64142454
vt 0.22714643 0.64142454
vt 0.22714643 0.64142454
vt 0.22714643 0.64142454
vt 0.22714643 0.64142454
vt 0.22714643 0.64142454
vt 0.22714643 0.64142454
vt 0.22714643 0.64142454
vt 0.27519637 0.656996
vt 0.27519637 0.656996
vt 0.27519637 0.656996
vt 0.27519637 0.656996
vt 0.27519637 0.656996
vt 0.27519637 0.656996
vt 0.27519637 0.656996
vt 0.27519637 0.656996
vt 0.27519637 0.656996
vt 0.27519637 0.656996
vt 0.27519637 0.656996
vt 0.27519637 0.656996
vt 0.27519637 0.656996
vt 0.27519637 0.656996
vt 0.27519637 0.656996
vt 0.27519637 0.656996
vt 0.27519637 0.656996
vt 0.27519637 0.656996
vt 0.27519637 0.656996
vt 0.27519637 0.656996
vt 0.27519637 0.656996
vt 0.27519637 0.656996
vt 0.27519637 0.656996
vt 0.27519637 0.656996
vt 0.27519637 0.656996
vt 0.27519637 0.656996
vt 0.27519637 0.656996
vt 0.27519637 0.656996
vt 0.27519637 0.656996
vt 0.27519637 0.656996
vt 0.27519637 0.656996
vt 0.27519637 0.656996
vt 0.27519637 0.656996
vt 0.27519637 0.656996
vt 0.27519637 0.656996
vt 0.27519637 0.656996
vt 0.22711346 0.52734375
vt 0.22711346 0.52734375
vt 0.22711346 0.52734375
vt 0.22711346 0.52734375
vt 0.22711346 0.52734375
vt 0.22711346 0.52734375
vt 0.22711346 0.52734375
vt 0.22711346 0.52734375
vt 0.22711346 0.52734375
vt 0.22711346 0.52734375
vt 0.22711346 0.52734375
vt 0.22711346 0.52734375
vt 0.22711346 0.52734375
vt 0.22711346 0.52734375
vt 0.22711346 0.52734375
vt 0.22711346 0.52734375
vt 0.22711346 0.52734375
vt 0.22711346 0.52734375
vt 0.22711346 0.52734375
vt 0.22711346 0.52734375
vt 0.22711346 0.52734375
vt 0.22711346 0.52734375
vt 0.22711346 0.52734375
vt 0.22711346 0.52734375
vt 0.22711346 0.52734375
vt 0.22711346 0.52734375
vt 0.22711346 0.52734375
vt 0.22711346 0.52734375
vt 0.22711346 0.52734375
vt 0.22711346 0.52734375
vt 0.22711346 0.52734375
vt 0.22711346 0.52734375
vt 0.22711346 0.52734375
vt 0.22711346 0.52734375
vt 0.22711346 0.52734375
vt 0.22711346 0.52734375
vt 0.22711346 0.52734375
vt 0.22711346 0.52734375
vt 0.22711346 0.52734375
vt 0.22711346 0.52734375
vt 0.22711346 0.52734375
vt 0.22711346 0.52734375
vt 0.22711346 0.52734375
vt 0.22711346 0.52734375
vt 0.22711346 0.52734375
vt 0.22711346 0.52734375
vt 0.22711346 0.52734375
vt 0.22711346 0.52734375
vt 0.22711346 0.52734375
vt 0.22711346 0.52734375
vt 0.22711346 0.52734375
vt 0.22711346 0.52734375
vt 0.22711346 0.52734375
vt 0.22711346 0.52734375
vt 0.22711346 0.52734375
vt 0.22711346 0.52734375
vt 0.22711346 0.52734375
vt 0.22711346 0.52734375
vt 0.22711346 0.52734375
vt 0.22711346 0.52734375
vt 0.22711346 0.52734375
vt 0.22711346 0.52734375
vt 0.22711346 0.52734375
vt 0.22711346 0.52734375
vt 0.22711346 0.52734375
vt 0.22711346 0.52734375
vt 0.22711346 0.52734375
vt 0.22711346 0.52734375
vt 0.22711346 0.52734375
vt 0.22711346 0.52734375
vt 0.22711346 0.52734375
vt 0.22711346 0.52734375
vt 0.22711346 0.52734375
vt 0.22711346 0.52734375
vt 0.22711346 0.52734375
vt 0.22711346 0.52734375
vt 0.22711346 0.52734375
vt 0.22711346 0.52734375
vt 0.22711346 0.52734375
vt 0.22711346 0.52734375
vt 0.22711346 0.52734375
vt 0.22711346 0.52734375
vt 0.22711346 0.52734375
vt 0.22711346 0.52734375
vt 0.22711346 0.52734375
vt 0.22711346 0.52734375
vt 0.22711346 0.52734375
vt 0.22711346 0.52734375
vt 0.22711346 0.52734375
vt 0.22711346 0.52734375
vt 0.22711346 0.52734375
vt 0.22711346 0.52734375
vt 0.22711346 0.52734375
vt 0.22711346 0.52734375
vt 0.22711346 0.52734375
vt 0.22711346 0.52734375
vn -0 -1 0
vn -0 -1 0
vn -0 -1 0
vn -0 -1 0
vn -0 -1 0
vn -0 -1 0
vn -0 -1 0
vn -0 -1 0
vn -0 -1 0
vn -0 -1 0
vn -0 -1 0
vn -0 -1 0
vn -0 -1 0
vn -0 -1 0
vn -0 -1 0
vn -0 -1 0
vn -0 -1 0
vn -0 -1 0
vn -0 1 0
vn -0 1 0
vn -0 1 0
vn -0 1 0
vn -0 1 0
vn -0 1 0
vn -0 1 0
vn -0 1 0
vn -0 1 0
vn -0 1 0
vn -0 1 0
vn -0 1 0
vn -0 1 0
vn -0 1 0
vn -0 1 0
vn -0 1 0
vn -0 1 0
vn -0 1 0
vn -0.23950273 0 0.9708957
vn -0.23950273 0 0.9708957
vn -0.23950273 0 0.9708957
vn -0.23950273 0 0.9708957
vn -0.23950268 0 0.9708957
vn -0.23950268 0 0.9708957
vn -0.44556338 -0.885542 -0.13148624
vn -0.44556338 -0.885542 -0.13148624
vn -0.44556338 -0.885542 -0.13148624
vn -0.44556338 -0.885542 -0.13148624
vn 0.044738315 0 0.9989987
vn 0.044738315 0 0.9989987
vn 0.044738315 0 0.9989987
vn 0.044738274 0 0.9989987
vn 0.9979165 0 0.064517476
vn 0.9979165 0 0.064517476
vn 0.9979165 0 0.064517476
vn 0.9979165 0 0.064517476
vn 0.9979165 0 0.06451744
vn 0.9979165 0 0.06451744
vn 0.82512504 0 0.56495017
vn 0.82512504 0 0.56495017
vn 0.82512504 0 0.56495017
vn 0.82512504 0 0.56495017
vn 0.8251251 0 0.56495005
vn 0.8251251 0 0.56495005
vn 0.2395016 0 -0.97089595
vn 0.2395016 0 -0.97089595
vn 0.2395016 0 -0.97089595
vn 0.2395016 0 -0.97089595
vn 0.2395016 0 -0.97089595
vn 0.2395016 0 -0.97089595
vn 0.5438019 0 0.8392136
vn 0.5438019 0 0.8392136
vn 0.5438019 0 0.8392136
vn 0.5438019 0 0.8392136
vn 0.54380345 0 0.8392126
vn 0.54380345 0 0.8392126
vn 0.54380393 0 0.83921224
vn 0.5438022 0 0.8392134
vn 0.5438022 0 0.8392134
vn 0.45558262 0 -0.8901935
vn 0.45558262 0 -0.8901935
vn 0.45558262 0 -0.8901935
vn 0.45558262 0 -0.8901935
vn 0.45558286 0 -0.89019346
vn 0.45558286 0 -0.89019346
vn -0.43911335 -0.8931681 0.09710955
vn -0.43911335 -0.8931681 0.09710955
vn -0.43911335 -0.8931681 0.09710955
vn -0.43911335 -0.8931681 0.09710955
vn 0.9929843 0 -0.11824595
vn 0.9929843 0 -0.11824595
vn 0.9929843 0 -0.11824595
vn 0.9929843 0 -0.11824595
vn 0.9929844 0 -0.11824583
vn 0.9929844 0 -0.11824583
vn -0.04473296 0 -0.99899894
vn -0.04473296 0 -0.99899894
vn -0.04473296 0 -0.99899894
vn -0.04473294 0 -0.99899894
vn 0.95454973 0 -0.29805186
vn 0.95454973 0 -0.29805186
vn 0.95454973 0 -0.29805186
vn 0.95454973 0 -0.29805186
vn 0.95454973 0 -0.29805174
vn 0.95454973 0 -0.29805174
vn -0.44302085 -0.89570606 0.03798965
vn -0.44302085 -0.89570606 0.03798965
vn -0.44302085 -0.89570606 0.03798965
vn -0.44302085 -0.89570606 0.03798965
vn -0 -1 0
vn -0 -1 0
vn -0 -1 0
vn -0 -1 0
vn -0 -1 0
vn -0 -1 0
vn -0 -1 0
vn -0 -1 0
vn -0 -1 0
vn -0 -1 0
vn -0 -1 0
vn -0 -1 0
vn -0.42635491 -0.87824667 0.21657388
vn -0.42635491 -0.87824667 0.21657388
vn -0.42635491 -0.87824667 0.21657388
vn -0.42635491 -0.87824667 0.21657388
vn -0.4458126 -0.8941664 -0.041442484
vn -0.4458126 -0.8941664 -0.041442484
vn -0.4458126 -0.8941664 -0.041442484
vn -0.4458126 -0.8941664 -0.041442484
vn -0 -1 0
vn -0 -1 0
vn -0 -1 0
vn -0 -1 0
vn -0 -1 0
vn -0 -1 0
vn -0 -1 0
vn -0 -1 0
vn -0 -1 0
vn -0.2654584 -0.8994394 0.34718958
vn -0 -1 0
vn -0.3825248 -0.92051315 0.079562955
vn -0 -1 0
vn -0.38774297 -0.9204814 0.048677694
vn -0 -1 0
vn -0.38850594 -0.9212138 0.020691833
vn -0 -1 0
vn -0.35091403 -0.89907604 -0.26176637
vn -0 -1 0
vn -0.04684623 -0.9117772 -0.40800473
vn -0 -1 0
vn 0.20750272 -0.8976424 -0.38881963
vn -0 -1 0
vn 0.42381743 -0.8994561 -0.10657236
vn -0 -1 0
vn 0.37132302 -0.92789555 0.03360127
vn -0 -1 0
vn 0.36843154 -0.9296244 -0.0075383196
vn -0 -1 0
vn 0.3722437 -0.9270233 -0.045412697
vn -0 -1 0
vn 0.31654406 -0.91087294 0.26478368
vn -0 -1 0
vn -0.2654584 -0.8994394 0.34718958
vn 0.50393987 -0.44137466 0.74245065
vn 0.7601004 0 0.64980567
vn 0.7836564 -0.14771573 0.6033761
vn 0.26646 0 0.96384597
vn -0.032441888 -0.6188985 0.78480077
vn 0.50393987 0.44137466 0.74245065
vn 0.7836564 0.14771573 0.6033761
vn -0.032441888 0.6188985 0.78480077
vn -0.027528185 0 0.99962103
vn -0.46850446 -0.44137263 0.76530635
vn -0.46850446 0.44137263 0.76530635
vn -0.29118714 0 0.9566661
vn -0.73728573 -0.2165651 0.6399292
vn -0.73728573 0.2165651 0.6399292
vn -0.7222467 0 0.6916355
vn -0.54525536 0 -0.8382699
vn -0.56460315 -0.2431456 -0.7887354
vn -0.22440785 -0.5286845 -0.81861705
vn 0.16452767 0 -0.98637253
vn -0.007874011 -0.6560761 -0.75465375
vn -0.22440785 0.5286845 -0.81861705
vn -0.56460315 0.2431456 -0.7887354
vn -0.007874011 0.6560761 -0.75465375
vn 0.027833141 0 -0.9996126
vn 0.3094689 -0.49679834 -0.8108146
vn 0.3094689 0.49679834 -0.8108146
vn -0.10345828 0 -0.9946338
vn 0.578795 -0.18726529 -0.7936801
vn 0.578795 0.18726529 -0.7936801
vn 0.5666855 0 -0.82393414
vn -0.58065325 -0.49773332 -0.64428526
vn -0.72825104 0 -0.6853104
vn -0.7299263 -0.105352074 -0.67535806
vn -0.14813899 0 -0.9889665
vn -0.061038185 -0.5847153 -0.80893904
vn -0.58065325 0.49773332 -0.64428526
vn -0.7299263 0.105352074 -0.67535806
vn -0.061038185 0.5847153 -0.80893904
vn -0.07822038 0 -0.9969361
vn 0.3395566 -0.47158265 -0.81382495
vn 0.3395566 0.47158265 -0.81382495
vn 0.21729882 0 -0.9761051
vn 0.69491947 -0.111486204 -0.71039265
vn 0.69491947 0.111486204 -0.71039265
vn 0.67115384 0 -0.7413181
vn 0.46447676 0 0.88558525
vn 0.5175794 -0.12436676 0.84654856
vn 0.32683018 -0.51241744 0.79410976
vn -0.034760796 0 0.9993957
vn 0.065372095 -0.6074844 0.7916371
vn 0.32683018 0.51241744 0.79410976
vn 0.5175794 0.12436676 0.84654856
vn 0.065372095 0.6074844 0.7916371
vn 0.06436365 0 0.9979265
vn -0.25059444 -0.49069017 0.83452123
vn -0.25059444 0.49069017 0.83452123
vn 0.0119024655 0 0.9999292
vn -0.60534847 -0.11707168 0.787304
vn -0.60534847 0.11707168 0.787304
vn -0.5998144 0 0.8001392
vn -0.9983718 0 0.057042208
vn -0.9983718 0 0.057042208
vn -0.9983718 0 0.057042208
vn -0.9983718 0 0.057042208
vn -0.9983718 0 0.057042237
vn -0.9983718 0 0.057042237
vn 0.83134913 0 -0.55575055
vn 0.83134913 0 -0.55575055
vn 0.83134913 0 -0.55575055
vn 0.83134913 0 -0.55575055
vn 0.8313491 0 -0.55575055
vn 0.8313491 0 -0.55575055
vn -0 -1 0
vn -0 -1 0
vn -0 -1 0
vn -0 -1 0
vn -0 -1 0
vn -0 -1 0
vn -0 -1 0
vn -0 -1 0
vn -0 -1 0
vn -0 -1 0
vn -0 -1 0
vn -0 -1 0
vn -0.17990698 0 -0.98368365
vn -0.17990698 0 -0.98368365
vn -0.17990698 0 -0.98368365
vn -0.17990698 0 -0.98368365
vn -0.17990685 0 -0.98368365
vn -0.17990685 0 -0.98368365
vn -0 -1 0
vn -0 -1 0
vn -0 -1 0
vn -0 -1 0
vn -0 -1 0
vn -0 -1 0
vn -0 -1 0
vn -0 -1 0
vn -0 -1 0
vn -0 -1 0
vn -0 -1 0
vn -0 -1 0
vn -0 -1 0
vn -0 -1 0
vn -0 -1 0
vn -0 -1 0
vn -0 -1 0
vn -0 -1 0
vn -0 -1 0
vn -0 -1 0
vn -0 -1 0
vn -0 -1 0
vn -0 -1 0
vn -0 -1 0
vn 0.9950399 0 0.099477224
vn 0.9950399 0 0.099477224
vn 0.9950399 0 0.099477224
vn 0.9950399 0 0.099477224
vn 0.9950399 0 0.09947722
vn 0.9950399 0 0.09947722
vn -0.95454973 0 0.29805169
vn -0.95454973 0 0.29805169
vn -0.95454973 0 0.29805169
vn -0.95454973 0 0.29805169
vn -0.95454973 0 0.29805154
vn -0.95454973 0 0.29805154
vn -0.050669257 0 -0.9987155
vn -0.050669257 0 -0.9987155
vn -0.050669257 0 -0.9987155
vn -0.050669257 0 -0.9987155
vn -0.050666917 0 -0.99871564
vn -0.050666917 0 -0.99871564
vn 0.99336046 0 -0.115043454
vn 0.99336046 0 -0.115043454
vn 0.99336046 0 -0.115043454
vn 0.99336046 0 -0.115043454
vn 0.99336046 0 -0.115043454
vn 0.99336046 0 -0.115043454
vn -0.89455396 0 -0.44696003
vn -0.89455396 0 -0.44696003
vn -0.89455396 0 -0.44696003
vn -0.89455396 0 -0.44696003
vn -0.89455384 0 -0.44696036
vn -0.89455384 0 -0.44696036
vn 0.92709655 0 -0.3748225
vn 0.92709655 0 -0.3748225
vn 0.92709655 0 -0.3748225
vn 0.92709655 0 -0.3748225
vn 0.92709655 0 -0.37482256
vn 0.92709655 0 -0.37482256
vn 0.91609186 0 0.40096858
vn 0.91609186 0 0.40096858
vn 0.91609186 0 0.40096858
vn 0.91609186 0 0.40096858
vn 0.91609204 0 0.40096807
vn 0.91609204 0 0.40096807
vn -0.9929844 0 0.118245885
vn -0.9929844 0 0.118245885
vn -0.9929844 0 0.118245885
vn -0.9929844 0 0.118245885
vn -0.9929844 0 0.11824588
vn -0.9929844 0 0.11824588
vn 0.5601415 0 -0.828397
vn 0.5601415 0 -0.828397
vn 0.5601415 0 -0.828397
vn 0.5601415 0 -0.828397
vn 0.56014043 0 -0.82839775
vn 0.56014043 0 -0.82839775
vn 0.98093134 -0.0037929092 0.19431725
vn 0.98093134 -0.0037929092 0.19431725
vn 0.98093134 -0.0037929092 0.19431725
vn 0.98093134 -0.0037929092 0.19431725
vn 0.98093134 0.0037928321 0.19431765
vn 0.98093134 0.0037928321 0.19431765
vn -0.9997881 -0.0007661522 -0.020569675
vn -0.9997881 -0.0007661522 -0.020569675
vn -0.9997881 -0.0007661522 -0.020569675
vn -0.9997881 -0.0007661522 -0.020569675
vn -0.9997881 0.0007666631 -0.020570124
vn -0.9997881 0.0007666631 -0.020570124
vn -0.9254081 0 0.37897196
vn -0.9254081 0 0.37897196
vn -0.9254081 0 0.37897196
vn -0.9254081 0 0.37897196
vn -0.925408 0 0.3789724
vn -0.925408 0 0.3789724
vn 0.650277 -0.005238227 -0.7596791
vn 0.650277 -0.005238227 -0.7596791
vn 0.650277 -0.005238227 -0.7596791
vn 0.650277 -0.005238227 -0.7596791
vn 0.65027577 0.005238234 -0.75968015
vn 0.65027577 0.005238234 -0.75968015
vn -0.8608604 -0.0011836431 0.5088397
vn -0.8608604 -0.0011836431 0.5088397
vn -0.8608604 -0.0011836431 0.5088397
vn -0.8608604 -0.0011836431 0.5088397
vn -0.8608604 0.0011836665 0.50883985
vn -0.8608604 0.0011836665 0.50883985
vn -0.44521245 0 0.89542496
vn -0.44521245 0 0.89542496
vn -0.44521245 0 0.89542496
vn -0.44521245 0 0.89542496
vn -0.44521263 0 0.8954249
vn -0.44521263 0 0.8954249
vn -0.44556332 0.88554204 -0.13148598
vn -0.44556332 0.88554204 -0.13148598
vn -0.44556332 0.88554204 -0.13148598
vn -0.44556332 0.88554204 -0.13148598
vn -0.4391131 0.8931682 0.09710965
vn -0.4391131 0.8931682 0.09710965
vn -0.4391131 0.8931682 0.09710965
vn -0.4391131 0.8931682 0.09710965
vn -0.44302067 0.8957062 0.03798974
vn -0.44302067 0.8957062 0.03798974
vn -0.44302067 0.8957062 0.03798974
vn -0.44302067 0.8957062 0.03798974
vn -0 1 0
vn -0 1 0
vn -0 1 0
vn -0 1 0
vn -0 1 0
vn -0 1 0
vn -0 1 0
vn -0 1 0
vn -0 1 0
vn -0 1 0
vn -0 1 0
vn -0 1 0
vn -0.42635486 0.87824667 0.21657409
vn -0.42635486 0.87824667 0.21657409
vn -0.42635486 0.87824667 0.21657409
vn -0.42635486 0.87824667 0.21657409
vn -0.44581267 0.8941664 -0.04144238
vn -0.44581267 0.8941664 -0.04144238
vn -0.44581267 0.8941664 -0.04144238
vn -0.44581267 0.8941664 -0.04144238
vn -0 1 0
vn -0 1 0
vn -0 1 0
vn -0 1 0
vn -0 1 0
vn -0 1 0
vn -0 1 0
vn -0 1 0
vn -0 1 0
vn -0 1 0
vn -0.2654584 0.8994394 0.34718958
vn -0.3825248 0.92051315 0.079562955
vn -0 1 0
vn -0.38774297 0.9204814 0.048677694
vn -0 1 0
vn -0.38850594 0.9212138 0.020691833
vn -0 1 0
vn -0.35091403 0.89907604 -0.26176637
vn -0 1 0
vn -0.04684623 0.9117772 -0.40800473
vn -0 1 0
vn 0.20750272 0.8976424 -0.38881963
vn -0 1 0
vn 0.42381743 0.8994561 -0.10657236
vn -0 1 0
vn 0.37132302 0.92789555 0.03360127
vn -0 1 0
vn 0.36843154 0.9296244 -0.0075383196
vn -0 1 0
vn 0.3722437 0.9270233 -0.045412697
vn -0 1 0
vn 0.31654406 0.91087294 0.26478368
vn -0 1 0
vn -0.2654584 0.8994394 0.34718958
vn -0 1 0
vn -0 1 0
vn -0 1 0
vn -0 1 0
vn -0 1 0
vn -0 1 0
vn -0 1 0
vn -0 1 0
vn -0 1 0
vn -0 1 0
vn -0 1 0
vn -0 1 0
vn -0 1 0
vn -0 1 0
vn -0 1 0
vn -0 1 0
vn -0 1 0
vn -0 1 0
vn -0 1 0
vn -0 1 0
vn -0 1 0
vn -0 1 0
vn -0 1 0
vn -0 1 0
vn -0 1 0
vn -0 1 0
vn -0 1 0
vn -0 1 0
vn -0 1 0
vn -0 1 0
vn -0 1 0
vn -0 1 0
vn -0 1 0
vn -0 1 0
vn -0 1 0
vn -0 1 0
vn 0.9998566 0 0.01693793
vn 0.5666855 0 -0.82393414
vn 0.578795 -0.18726529 -0.7936801
vn 0.578795 0.18726529 -0.7936801
vn 0.9332042 -0.357772 -0.03360121
vn 0.3094689 -0.49679834 -0.8108146
vn 0.9332042 0.357772 -0.03360121
vn 0.3094689 0.49679834 -0.8108146
vn 0.59851235 -0.8010684 -0.008514862
vn -0.007874011 -0.6560761 -0.75465375
vn 0.7601004 0 0.64980567
vn 0.7836564 -0.14771573 0.6033761
vn 0.7836564 0.14771573 0.6033761
vn 0.50393987 -0.44137466 0.74245065
vn 0.59851235 0.8010684 -0.008514862
vn -0.007874011 0.6560761 -0.75465375
vn 0.50393987 0.44137466 0.74245065
vn -0.027741475 -0.999151 0.030457638
vn -0.22440785 -0.5286845 -0.81861705
vn -0.032441888 -0.6188985 0.78480077
vn -0.027741475 0.999151 0.030457638
vn -0.22440785 0.5286845 -0.81861705
vn -0.032441888 0.6188985 0.78480077
vn -0.55215865 -0.83336526 0.024964945
vn -0.56460315 -0.2431456 -0.7887354
vn -0.46850446 -0.44137263 0.76530635
vn -0.55215865 0.83336526 0.024964945
vn -0.56460315 0.2431456 -0.7887354
vn -0.46850446 0.44137263 0.76530635
vn -0.90106624 -0.433641 0.005920639
vn -0.73728573 -0.2165651 0.6399292
vn -0.54525536 0 -0.8382699
vn -0.90106624 0.433641 0.005920639
vn -0.73728573 0.2165651 0.6399292
vn -0.99803525 0 0.062655695
vn -0.7222467 0 0.6916355
vn -0.98587936 0 0.16745666
vn -0.5998144 0 0.8001392
vn -0.60534847 -0.11707168 0.787304
vn -0.60534847 0.11707168 0.787304
vn -0.9494618 -0.23170409 0.21174434
vn -0.25059444 -0.49069017 0.83452123
vn -0.9494618 0.23170409 0.21174434
vn -0.25059444 0.49069017 0.83452123
vn -0.5892109 -0.7979953 0.1266257
vn 0.065372095 -0.6074844 0.7916371
vn -0.72825104 0 -0.6853104
vn -0.7299263 -0.105352074 -0.67535806
vn -0.7299263 0.105352074 -0.67535806
vn -0.58065325 -0.49773332 -0.64428526
vn -0.5892109 0.7979953 0.1266257
vn 0.065372095 0.6074844 0.7916371
vn -0.58065325 0.49773332 -0.64428526
vn 0.011902352 -0.999767 -0.018006122
vn 0.32683018 -0.51241744 0.79410976
vn -0.061038185 -0.5847153 -0.80893904
vn 0.011902352 0.999767 -0.018006122
vn 0.32683018 0.51241744 0.79410976
vn -0.061038185 0.5847153 -0.80893904
vn 0.5967982 -0.79950505 -0.067996226
vn 0.5175794 -0.12436676 0.84654856
vn 0.3395566 -0.47158265 -0.81382495
vn 0.5967982 0.79950505 -0.067996226
vn 0.5175794 0.12436676 0.84654856
vn 0.3395566 0.47158265 -0.81382495
vn 0.9648358 -0.2626182 0.011109009
vn 0.69491947 -0.111486204 -0.71039265
vn 0.46447676 0 0.88558525
vn 0.9648358 0.2626182 0.011109009
vn 0.69491947 0.111486204 -0.71039265
vn 0.9998789 0 0.015564455
vn 0.67115384 0 -0.7413181
vn 0.31654406 -0.91087294 0.26478368
vn 0.70334256 -0.3989453 0.58834666
vn 0.9157301 -0.38594642 -0.11173098
vn 0.3722437 -0.9270233 -0.045412697
vn -0.2654584 -0.8994394 0.34718958
vn 0.92108667 -0.38890052 -0.018860593
vn 0.36843154 -0.9296244 -0.0075383196
vn -0.5615357 -0.38128516 0.73436993
vn -0.3825248 -0.92051315 0.079562955
vn 0.9183565 -0.3869238 0.08313459
vn 0.37132302 -0.92789555 0.03360127
vn -0.9058162 -0.3794784 0.18839635
vn -0.38774297 -0.9204814 0.048677694
vn 0.9014696 -0.3687303 -0.22669497
vn 0.42381743 -0.8994561 -0.10657236
vn -0.91800725 -0.37944096 0.11526973
vn -0.38850594 -0.9212138 0.020691833
vn 0.4374031 -0.3699859 -0.8196273
vn 0.20750272 -0.8976424 -0.38881963
vn -0.92362845 -0.38011473 0.049227223
vn -0.35091403 -0.89907604 -0.26176637
vn -0.10587101 -0.37270015 -0.92189264
vn -0.04684623 -0.9117772 -0.40800473
vn -0.74126554 -0.3805212 -0.5529277
vn 0.96980584 0 -0.2438782
vn 0.47082418 0 -0.882227
vn -0.11411207 0 -0.99346787
vn -0.8015648 0 -0.5979081
vn -0.9985825 0 0.05322518
vn -0.9922097 0 0.12457936
vn 0.9959279 0 0.09015325
vn -0.97904944 0 0.20362276
vn 0.99979097 0 -0.020447496
vn -0.6074207 0 0.79438037
vn 0.99263656 0 -0.12113065
vn 0.7670092 0 0.64163613
vn -0.92362845 0.38011473 0.049227223
vn -0.91800725 0.37944096 0.11526973
vn -0.9058162 0.3794784 0.18839635
vn -0.5615357 0.38128516 0.73436993
vn 0.70334256 0.3989453 0.58834666
vn 0.9157301 0.38594642 -0.11173098
vn -0.74126554 0.3805212 -0.5529277
vn 0.92108667 0.38890052 -0.018860593
vn -0.10587101 0.37270015 -0.92189264
vn 0.9183565 0.3869238 0.08313459
vn 0.4374031 0.3699859 -0.8196273
vn 0.9014696 0.3687303 -0.22669497
vn -0.35091403 0.89907604 -0.26176637
vn -0.04684623 0.9117772 -0.40800473
vn -0.38850594 0.9212138 0.020691833
vn 0.20750272 0.8976424 -0.38881963
vn 0.42381743 0.8994561 -0.10657236
vn -0.38774297 0.9204814 0.048677694
vn 0.37132302 0.92789555 0.03360127
vn 0.36843154 0.9296244 -0.0075383196
vn -0.3825248 0.92051315 0.079562955
vn 0.3722437 0.9270233 -0.045412697
vn -0.2654584 0.8994394 0.34718958
vn 0.31654406 0.91087294 0.26478368
vn -0.20176384 -0.6553739 -0.7278575
vn 0.16504724 -0.65713704 -0.7354796
vn 0.21894643 0 -0.97573686
vn 0.48708513 -0.65713763 -0.57525486
vn 0.64619255 0 -0.7631744
vn -0.2671307 0 -0.9636603
vn -0.526264 -0.6553886 -0.5417675
vn 0.94271225 0 -0.33360702
vn 0.71754795 -0.6485735 -0.25392365
vn 0.16504724 0.65713704 -0.7354796
vn -0.20176384 0.6553739 -0.7278575
vn 0.48708513 0.65713763 -0.57525486
vn -0.526264 0.6553886 -0.5417675
vn -0.69677806 0 -0.71728677
vn 0.71754795 0.6485735 -0.25392365
vn -0.7345695 -0.6488407 -0.19852817
vn 0.9727207 0 0.23197947
vn -0.7345695 0.6488407 -0.19852817
vn -0.9653725 0 -0.2608752
vn 0.7403949 -0.6485627 0.17658389
vn 0.7403949 0.6485627 0.17658389
vn -0.7252482 -0.6488292 0.2302947
vn -0.7252482 0.6488292 0.2302947
vn 0.71466523 0 0.6994667
vn 0.5401605 -0.65479076 0.5286547
vn -0.9531004 0 0.3026544
vn 0.5401605 0.65479076 0.5286547
vn -0.50073284 -0.6547951 0.56613606
vn 0.28535372 0 0.95842224
vn -0.50073284 0.6547951 0.56613606
vn -0.6625377 0 0.7490286
vn 0.21565188 -0.6547992 0.72438407
vn 0.21565188 0.6547992 0.72438407
vn -0.1630042 -0.6547941 0.73802054
vn -0.21567972 0 0.97646415
vn -0.1630042 0.6547941 0.73802054
vn -0 -0.5004515 0.8657646
vn -0 -0.96813184 0.250441
vn -0.12522101 -0.9681358 0.21687071
vn -0.4328863 -0.50045615 0.7497686
vn 0.28642616 -0.8196641 -0.4960956
vn -0.21687071 -0.9681358 0.12522101
vn 0.4960956 -0.8196641 -0.28642616
vn -0.49998927 0 0.8660316
vn 0.4328863 -0.50045615 0.7497686
vn -0 0 1
vn -0 -0.8196604 -0.5728497
vn 0.12522101 -0.9681358 0.21687071
vn 0.8660316 0 -0.49998927
vn 0.49998927 0 -0.8660316
vn 0.5728497 -0.8196604 0
vn 1 0 0
vn -0.7497686 -0.50045615 0.4328863
vn -0.8660316 0 0.49998927
vn -0.250441 -0.96813184 0
vn 0.7497686 -0.50045615 0.4328863
vn 0.49998927 0 0.8660316
vn -0 0.5004515 0.8657646
vn -0.4328863 0.50045615 0.7497686
vn 0.4328863 0.50045615 0.7497686
vn -1 0 0
vn -0.8657646 -0.5004515 0
vn -0.7497686 0.50045615 0.4328863
vn -0.12522101 0.9681358 0.21687071
vn -0 0.96813184 0.250441
vn -0.21687071 0.9681358 0.12522101
vn 0.7497686 0.50045615 0.4328863
vn 0.12522101 0.9681358 0.21687071
vn 0.8660316 0 0.49998927
vn -0.8657646 0.5004515 0
vn -0.8660316 0 -0.49998927
vn -0.250441 0.96813184 0
vn 0.28642616 0.8196641 -0.4960956
vn 0.4960956 0.8196641 -0.28642616
vn -0 0.8196604 -0.5728497
vn 0.5728497 0.8196604 0
vn -0 0 -1
vn -0.28642616 0.8196641 -0.4960956
vn 0.8660316 0 0.49998927
vn 0.4960956 0.8196641 0.28642616
vn -0.28642616 -0.8196641 -0.4960956
vn 0.4960956 -0.8196641 0.28642616
vn 0.21687071 0.9681358 0.12522101
vn -0.49998927 0 -0.8660316
vn 0.21687071 -0.9681358 0.12522101
vn 0.49998927 0 0.8660316
vn -0.21687071 -0.9681358 -0.12522101
vn -0.4960956 0.8196641 -0.28642616
vn -0.4960956 -0.8196641 -0.28642616
vn 0.8657646 -0.5004515 0
vn 0.28642616 -0.8196641 0.4960956
vn -0.7497686 -0.50045615 -0.4328863
vn -0.8660316 0 -0.49998927
vn 0.250441 -0.96813184 0
vn -0.12522101 -0.9681358 -0.21687071
vn -0.5728497 -0.8196604 0
vn -0 0 1
vn -0 -0.8196604 0.5728497
vn 0.28642616 0.8196641 0.4960956
vn -0.21687071 0.9681358 -0.12522101
vn -0.7497686 0.50045615 -0.4328863
vn -0.12522101 0.9681358 -0.21687071
vn -0 0.8196604 0.5728497
vn -0.49998927 0 -0.8660316
vn -0.4328863 -0.50045615 -0.7497686
vn -0.4328863 0.50045615 -0.7497686
vn -0.49998927 0 0.8660316
vn -0 -0.96813184 -0.250441
vn -0 0.96813184 -0.250441
vn -0 0 -1
vn -0.28642616 -0.8196641 0.4960956
vn -0.28642616 0.8196641 0.4960956
vn -0 -0.5004515 -0.8657646
vn -0 0.5004515 -0.8657646
vn 0.12522101 -0.9681358 -0.21687071
vn -0.8660316 0 0.49998927
vn 0.12522101 0.9681358 -0.21687071
vn 0.49998927 0 -0.8660316
vn -0.4960956 -0.8196641 0.28642616
vn -0.4960956 0.8196641 0.28642616
vn 0.4328863 -0.50045615 -0.7497686
vn 0.4328863 0.50045615 -0.7497686
vn 0.21687071 -0.9681358 -0.12522101
vn -1 0 0
vn 0.8660316 0 -0.49998927
vn 0.21687071 0.9681358 -0.12522101
vn 0.7497686 -0.50045615 -0.4328863
vn -0.5728497 0.8196604 0
vn 1 0 0
vn 0.250441 0.96813184 0
vn 0.7497686 0.50045615 -0.4328863
vn 0.8657646 0.5004515 0
g ShortSword06_0
f 3/3/3 2/2/2 1/1/1
f 6/6/6 5/5/5 4/4/4
f 9/9/9 8/8/8 7/7/7
f 12/12/12 11/11/11 10/10/10
f 15/15/15 14/14/14 13/13/13
f 18/18/18 17/17/17 16/16/16
f 21/21/21 20/20/20 19/19/19
f 24/24/24 23/23/23 22/22/22
f 27/27/27 26/26/26 25/25/25
f 30/30/30 29/29/29 28/28/28
f 33/33/33 32/32/32 31/31/31
f 36/36/36 35/35/35 34/34/34
f 39/39/39 38/38/38 37/37/37
f 38/38/38 40/40/40 37/37/37
f 40/40/40 38/38/38 41/41/41
f 38/38/38 42/42/42 41/41/41
f 45/45/45 44/44/44 43/43/43
f 46/46/46 45/45/45 43/43/43
f 49/49/49 48/48/48 47/47/47
f 48/48/48 49/49/49 50/50/50
f 53/53/53 52/52/52 51/51/51
f 54/54/54 53/53/53 51/51/51
f 53/53/53 54/54/54 55/55/55
f 56/56/56 53/53/53 55/55/55
f 59/59/59 58/58/58 57/57/57
f 60/60/60 59/59/59 57/57/57
f 59/59/59 60/60/60 61/61/61
f 62/62/62 59/59/59 61/61/61
f 65/65/65 64/64/64 63/63/63
f 66/66/66 65/65/65 63/63/63
f 65/65/65 66/66/66 67/67/67
f 68/68/68 65/65/65 67/67/67
f 71/71/71 70/70/70 69/69/69
f 72/72/72 71/71/71 69/69/69
f 72/72/72 69/69/69 73/73/73
f 74/74/74 72/72/72 73/73/73
f 72/72/72 74/74/74 75/75/75
f 76/76/76 72/72/72 75/75/75
f 71/71/71 72/72/72 76/76/76
f 77/77/77 71/71/71 76/76/76
f 80/80/80 79/79/79 78/78/78
f 81/81/81 80/80/80 78/78/78
f 80/80/80 81/81/81 82/82/82
f 83/83/83 80/80/80 82/82/82
f 86/86/86 85/85/85 84/84/84
f 87/87/87 86/86/86 84/84/84
f 90/90/90 89/89/89 88/88/88
f 91/91/91 90/90/90 88/88/88
f 90/90/90 91/91/91 92/92/92
f 93/93/93 90/90/90 92/92/92
f 96/96/96 95/95/95 94/94/94
f 95/95/95 97/97/97 94/94/94
f 100/100/100 99/99/99 98/98/98
f 101/101/101 100/100/100 98/98/98
f 100/100/100 101/101/101 102/102/102
f 103/103/103 100/100/100 102/102/102
f 106/106/106 105/105/105 104/104/104
f 107/107/107 106/106/106 104/104/104
f 110/110/110 109/109/109 108/108/108
f 111/111/111 110/110/110 108/108/108
f 111/111/111 108/108/108 112/112/112
f 113/113/113 111/111/111 112/112/112
f 113/113/113 112/112/112 114/114/114
f 115/115/115 113/113/113 114/114/114
f 115/115/115 114/114/114 116/116/116
f 114/114/114 117/117/117 116/116/116
f 116/116/116 117/117/117 118/118/118
f 117/117/117 119/119/119 118/118/118
f 122/122/122 121/121/121 120/120/120
f 123/123/123 122/122/122 120/120/120
f 126/126/126 125/125/125 124/124/124
f 127/127/127 126/126/126 124/124/124
f 130/130/130 129/129/129 128/128/128
f 129/129/129 131/131/131 128/128/128
f 134/134/134 133/133/133 132/132/132
f 134/134/134 135/135/135 133/133/133
f 138/138/138 137/137/137 136/136/136
f 137/137/137 139/139/139 136/136/136
f 136/136/136 139/139/139 140/140/140
f 139/139/139 141/141/141 140/140/140
f 140/140/140 141/141/141 142/142/142
f 141/141/141 143/143/143 142/142/142
f 142/142/142 143/143/143 144/144/144
f 143/143/143 145/145/145 144/144/144
f 144/144/144 145/145/145 146/146/146
f 145/145/145 147/147/147 146/146/146
f 146/146/146 147/147/147 148/148/148
f 147/147/147 149/149/149 148/148/148
f 148/148/148 149/149/149 150/150/150
f 149/149/149 151/151/151 150/150/150
f 150/150/150 151/151/151 152/152/152
f 151/151/151 153/153/153 152/152/152
f 152/152/152 153/153/153 154/154/154
f 153/153/153 155/155/155 154/154/154
f 154/154/154 155/155/155 156/156/156
f 155/155/155 157/157/157 156/156/156
f 156/156/156 157/157/157 158/158/158
f 157/157/157 159/159/159 158/158/158
f 158/158/158 159/159/159 160/160/160
f 159/159/159 161/161/161 160/160/160
f 164/164/164 163/163/163 162/162/162
f 163/163/163 165/165/165 162/162/162
f 162/162/162 165/165/165 166/166/166
f 165/165/165 163/163/163 167/167/167
f 163/163/163 168/168/168 167/167/167
f 165/165/165 167/167/167 169/169/169
f 165/165/165 170/170/170 166/166/166
f 170/170/170 165/165/165 169/169/169
f 166/166/166 170/170/170 171/171/171
f 170/170/170 169/169/169 172/172/172
f 170/170/170 173/173/173 171/171/171
f 173/173/173 170/170/170 172/172/172
f 171/171/171 173/173/173 174/174/174
f 173/173/173 172/172/172 175/175/175
f 173/173/173 176/176/176 174/174/174
f 176/176/176 173/173/173 175/175/175
f 179/179/179 178/178/178 177/177/177
f 180/180/180 179/179/179 177/177/177
f 181/181/181 179/179/179 180/180/180
f 182/182/182 180/180/180 177/177/177
f 183/183/183 182/182/182 177/177/177
f 182/182/182 184/184/184 180/180/180
f 185/185/185 181/181/181 180/180/180
f 184/184/184 185/185/185 180/180/180
f 186/186/186 181/181/181 185/185/185
f 184/184/184 187/187/187 185/185/185
f 188/188/188 186/186/186 185/185/185
f 187/187/187 188/188/188 185/185/185
f 189/189/189 186/186/186 188/188/188
f 187/187/187 190/190/190 188/188/188
f 191/191/191 189/189/189 188/188/188
f 190/190/190 191/191/191 188/188/188
f 194/194/194 193/193/193 192/192/192
f 193/193/193 195/195/195 192/192/192
f 192/192/192 195/195/195 196/196/196
f 195/195/195 193/193/193 197/197/197
f 193/193/193 198/198/198 197/197/197
f 195/195/195 197/197/197 199/199/199
f 195/195/195 200/200/200 196/196/196
f 200/200/200 195/195/195 199/199/199
f 196/196/196 200/200/200 201/201/201
f 200/200/200 199/199/199 202/202/202
f 200/200/200 203/203/203 201/201/201
f 203/203/203 200/200/200 202/202/202
f 201/201/201 203/203/203 204/204/204
f 203/203/203 202/202/202 205/205/205
f 203/203/203 206/206/206 204/204/204
f 206/206/206 203/203/203 205/205/205
f 209/209/209 208/208/208 207/207/207
f 210/210/210 209/209/209 207/207/207
f 211/211/211 209/209/209 210/210/210
f 212/212/212 210/210/210 207/207/207
f 213/213/213 212/212/212 207/207/207
f 212/212/212 214/214/214 210/210/210
f 215/215/215 211/211/211 210/210/210
f 214/214/214 215/215/215 210/210/210
f 216/216/216 211/211/211 215/215/215
f 214/214/214 217/217/217 215/215/215
f 218/218/218 216/216/216 215/215/215
f 217/217/217 218/218/218 215/215/215
f 219/219/219 216/216/216 218/218/218
f 217/217/217 220/220/220 218/218/218
f 221/221/221 219/219/219 218/218/218
f 220/220/220 221/221/221 218/218/218
f 224/224/224 223/223/223 222/222/222
f 223/223/223 225/225/225 222/222/222
f 225/225/225 223/223/223 226/226/226
f 223/223/223 227/227/227 226/226/226
f 230/230/230 229/229/229 228/228/228
f 231/231/231 230/230/230 228/228/228
f 230/230/230 231/231/231 232/232/232
f 233/233/233 230/230/230 232/232/232
f 236/236/236 235/235/235 234/234/234
f 235/235/235 237/237/237 234/234/234
f 234/234/234 237/237/237 238/238/238
f 237/237/237 239/239/239 238/238/238
f 238/238/238 239/239/239 240/240/240
f 239/239/239 241/241/241 240/240/240
f 240/240/240 241/241/241 242/242/242
f 241/241/241 243/243/243 242/242/242
f 242/242/242 243/243/243 244/244/244
f 243/243/243 245/245/245 244/244/244
f 248/248/248 247/247/247 246/246/246
f 249/249/249 248/248/248 246/246/246
f 248/248/248 249/249/249 250/250/250
f 251/251/251 248/248/248 250/250/250
f 254/254/254 253/253/253 252/252/252
f 253/253/253 255/255/255 252/252/252
f 252/252/252 255/255/255 256/256/256
f 255/255/255 257/257/257 256/256/256
f 256/256/256 257/257/257 258/258/258
f 257/257/257 259/259/259 258/258/258
f 258/258/258 259/259/259 260/260/260
f 261/261/261 258/258/258 260/260/260
f 261/261/261 260/260/260 262/262/262
f 260/260/260 263/263/263 262/262/262
f 262/262/262 263/263/263 264/264/264
f 263/263/263 265/265/265 264/264/264
f 264/264/264 265/265/265 266/266/266
f 265/265/265 267/267/267 266/266/266
f 266/266/266 267/267/267 268/268/268
f 267/267/267 269/269/269 268/268/268
f 269/269/269 271/271/271 270/270/270
f 271/271/271 272/272/272 270/270/270
f 275/275/275 274/274/274 273/273/273
f 274/274/274 253/253/253 273/273/273
f 278/278/278 277/277/277 276/276/276
f 277/277/277 279/279/279 276/276/276
f 279/279/279 277/277/277 280/280/280
f 277/277/277 281/281/281 280/280/280
f 284/284/284 283/283/283 282/282/282
f 283/283/283 285/285/285 282/282/282
f 285/285/285 283/283/283 286/286/286
f 283/283/283 287/287/287 286/286/286
f 290/290/290 289/289/289 288/288/288
f 289/289/289 291/291/291 288/288/288
f 291/291/291 289/289/289 292/292/292
f 289/289/289 293/293/293 292/292/292
f 296/296/296 295/295/295 294/294/294
f 295/295/295 297/297/297 294/294/294
f 297/297/297 295/295/295 298/298/298
f 295/295/295 299/299/299 298/298/298
f 302/302/302 301/301/301 300/300/300
f 301/301/301 303/303/303 300/300/300
f 303/303/303 301/301/301 304/304/304
f 301/301/301 305/305/305 304/304/304
f 308/308/308 307/307/307 306/306/306
f 307/307/307 309/309/309 306/306/306
f 309/309/309 307/307/307 310/310/310
f 307/307/307 311/311/311 310/310/310
f 314/314/314 313/313/313 312/312/312
f 313/313/313 315/315/315 312/312/312
f 315/315/315 313/313/313 316/316/316
f 313/313/313 317/317/317 316/316/316
f 320/320/320 319/319/319 318/318/318
f 319/319/319 321/321/321 318/318/318
f 321/321/321 319/319/319 322/322/322
f 319/319/319 323/323/323 322/322/322
f 326/326/326 325/325/325 324/324/324
f 325/325/325 327/327/327 324/324/324
f 327/327/327 325/325/325 328/328/328
f 325/325/325 329/329/329 328/328/328
f 332/332/332 331/331/331 330/330/330
f 331/331/331 333/333/333 330/330/330
f 333/333/333 334/334/334 330/330/330
f 334/334/334 335/335/335 330/330/330
f 338/338/338 337/337/337 336/336/336
f 337/337/337 339/339/339 336/336/336
f 339/339/339 340/340/340 336/336/336
f 340/340/340 341/341/341 336/336/336
f 344/344/344 343/343/343 342/342/342
f 343/343/343 345/345/345 342/342/342
f 345/345/345 343/343/343 346/346/346
f 343/343/343 347/347/347 346/346/346
f 350/350/350 349/349/349 348/348/348
f 351/351/351 350/350/350 348/348/348
f 350/350/350 351/351/351 352/352/352
f 353/353/353 350/350/350 352/352/352
f 356/356/356 355/355/355 354/354/354
f 355/355/355 357/357/357 354/354/354
f 357/357/357 358/358/358 354/354/354
f 358/358/358 359/359/359 354/354/354
f 362/362/362 361/361/361 360/360/360
f 361/361/361 363/363/363 360/360/360
f 363/363/363 361/361/361 364/364/364
f 361/361/361 365/365/365 364/364/364
f 368/368/368 367/367/367 366/366/366
f 369/369/369 368/368/368 366/366/366
f 372/372/372 371/371/371 370/370/370
f 373/373/373 372/372/372 370/370/370
f 376/376/376 375/375/375 374/374/374
f 377/377/377 376/376/376 374/374/374
f 380/380/380 379/379/379 378/378/378
f 381/381/381 380/380/380 378/378/378
f 381/381/381 378/378/378 382/382/382
f 383/383/383 381/381/381 382/382/382
f 383/383/383 382/382/382 384/384/384
f 385/385/385 383/383/383 384/384/384
f 385/385/385 384/384/384 386/386/386
f 387/387/387 385/385/385 386/386/386
f 387/387/387 386/386/386 388/388/388
f 389/389/389 387/387/387 388/388/388
f 392/392/392 391/391/391 390/390/390
f 393/393/393 392/392/392 390/390/390
f 396/396/396 395/395/395 394/394/394
f 397/397/397 396/396/396 394/394/394
f 400/400/400 399/399/399 398/398/398
f 400/400/400 401/401/401 399/399/399
f 404/404/404 403/403/403 402/402/402
f 403/403/403 405/405/405 402/402/402
f 408/408/408 407/407/407 406/406/406
f 409/409/409 408/408/408 406/406/406
f 409/409/409 406/406/406 410/410/410
f 411/411/411 409/409/409 410/410/410
f 411/411/411 410/410/410 412/412/412
f 413/413/413 411/411/411 412/412/412
f 413/413/413 412/412/412 414/414/414
f 415/415/415 413/413/413 414/414/414
f 415/415/415 414/414/414 416/416/416
f 417/417/417 415/415/415 416/416/416
f 417/417/417 416/416/416 418/418/418
f 419/419/419 417/417/417 418/418/418
f 419/419/419 418/418/418 420/420/420
f 421/421/421 419/419/419 420/420/420
f 421/421/421 420/420/420 422/422/422
f 423/423/423 421/421/421 422/422/422
f 423/423/423 422/422/422 424/424/424
f 425/425/425 423/423/423 424/424/424
f 425/425/425 424/424/424 426/426/426
f 427/427/427 425/425/425 426/426/426
f 427/427/427 426/426/426 428/428/428
f 429/429/429 427/427/427 428/428/428
f 429/429/429 428/428/428 430/430/430
f 431/431/431 429/429/429 430/430/430
f 434/434/434 433/433/433 432/432/432
f 435/435/435 434/434/434 432/432/432
f 435/435/435 432/432/432 436/436/436
f 437/437/437 435/435/435 436/436/436
f 437/437/437 436/436/436 438/438/438
f 439/439/439 437/437/437 438/438/438
f 439/439/439 438/438/438 440/440/440
f 441/441/441 439/439/439 440/440/440
f 441/441/441 440/440/440 442/442/442
f 443/443/443 441/441/441 442/442/442
f 446/446/446 445/445/445 444/444/444
f 447/447/447 446/446/446 444/444/444
f 447/447/447 444/444/444 448/448/448
f 449/449/449 447/447/447 448/448/448
f 449/449/449 448/448/448 450/450/450
f 451/451/451 449/449/449 450/450/450
f 451/451/451 450/450/450 452/452/452
f 450/450/450 453/453/453 452/452/452
f 452/452/452 453/453/453 454/454/454
f 455/455/455 452/452/452 454/454/454
f 455/455/455 454/454/454 456/456/456
f 457/457/457 455/455/455 456/456/456
f 457/457/457 456/456/456 458/458/458
f 459/459/459 457/457/457 458/458/458
f 459/459/459 458/458/458 460/460/460
f 461/461/461 459/459/459 460/460/460
f 463/463/463 461/461/461 462/462/462
f 464/464/464 463/463/463 462/462/462
f 467/467/467 466/466/466 465/465/465
f 446/446/446 467/467/467 465/465/465
f 470/470/470 469/469/469 468/468/468
f 469/469/469 471/471/471 468/468/468
f 472/472/472 470/470/470 468/468/468
f 470/470/470 472/472/472 473/473/473
f 471/471/471 474/474/474 468/468/468
f 474/474/474 471/471/471 475/475/475
f 472/472/472 476/476/476 473/473/473
f 473/473/473 476/476/476 477/477/477
f 472/472/472 468/468/468 478/478/478
f 468/468/468 474/474/474 478/478/478
f 479/479/479 472/472/472 478/478/478
f 472/472/472 479/479/479 476/476/476
f 474/474/474 480/480/480 478/478/478
f 479/479/479 481/481/481 476/476/476
f 482/482/482 474/474/474 475/475/475
f 480/480/480 474/474/474 482/482/482
f 482/482/482 475/475/475 483/483/483
f 484/484/484 480/480/480 482/482/482
f 476/476/476 485/485/485 477/477/477
f 476/476/476 481/481/481 485/485/485
f 477/477/477 485/485/485 486/486/486
f 481/481/481 487/487/487 485/485/485
f 488/488/488 482/482/482 483/483/483
f 484/484/484 482/482/482 488/488/488
f 488/488/488 483/483/483 489/489/489
f 490/490/490 484/484/484 488/488/488
f 485/485/485 491/491/491 486/486/486
f 485/485/485 487/487/487 491/491/491
f 486/486/486 491/491/491 492/492/492
f 487/487/487 493/493/493 491/491/491
f 494/494/494 488/488/488 489/489/489
f 490/490/490 488/488/488 494/494/494
f 494/494/494 489/489/489 495/495/495
f 496/496/496 490/490/490 494/494/494
f 491/491/491 497/497/497 492/492/492
f 491/491/491 493/493/493 497/497/497
f 493/493/493 498/498/498 497/497/497
f 499/499/499 492/492/492 497/497/497
f 500/500/500 494/494/494 495/495/495
f 496/496/496 494/494/494 500/500/500
f 495/495/495 499/499/499 500/500/500
f 501/501/501 496/496/496 500/500/500
f 502/502/502 497/497/497 498/498/498
f 502/502/502 499/499/499 497/497/497
f 499/499/499 502/502/502 500/500/500
f 500/500/500 502/502/502 501/501/501
f 503/503/503 502/502/502 498/498/498
f 502/502/502 503/503/503 501/501/501
f 506/506/506 505/505/505 504/504/504
f 505/505/505 507/507/507 504/504/504
f 508/508/508 506/506/506 504/504/504
f 506/506/506 508/508/508 509/509/509
f 507/507/507 510/510/510 504/504/504
f 510/510/510 507/507/507 511/511/511
f 508/508/508 512/512/512 509/509/509
f 509/509/509 512/512/512 513/513/513
f 508/508/508 504/504/504 514/514/514
f 504/504/504 510/510/510 514/514/514
f 515/515/515 508/508/508 514/514/514
f 508/508/508 515/515/515 512/512/512
f 510/510/510 516/516/516 514/514/514
f 515/515/515 517/517/517 512/512/512
f 518/518/518 510/510/510 511/511/511
f 516/516/516 510/510/510 518/518/518
f 518/518/518 511/511/511 519/519/519
f 520/520/520 516/516/516 518/518/518
f 512/512/512 521/521/521 513/513/513
f 512/512/512 517/517/517 521/521/521
f 513/513/513 521/521/521 522/522/522
f 517/517/517 523/523/523 521/521/521
f 524/524/524 518/518/518 519/519/519
f 520/520/520 518/518/518 524/524/524
f 524/524/524 519/519/519 525/525/525
f 526/526/526 520/520/520 524/524/524
f 521/521/521 527/527/527 522/522/522
f 521/521/521 523/523/523 527/527/527
f 522/522/522 527/527/527 528/528/528
f 523/523/523 529/529/529 527/527/527
f 530/530/530 524/524/524 525/525/525
f 526/526/526 524/524/524 530/530/530
f 530/530/530 525/525/525 531/531/531
f 532/532/532 526/526/526 530/530/530
f 527/527/527 533/533/533 528/528/528
f 527/527/527 529/529/529 533/533/533
f 529/529/529 534/534/534 533/533/533
f 535/535/535 528/528/528 533/533/533
f 536/536/536 530/530/530 531/531/531
f 532/532/532 530/530/530 536/536/536
f 531/531/531 535/535/535 536/536/536
f 537/537/537 532/532/532 536/536/536
f 538/538/538 533/533/533 534/534/534
f 538/538/538 535/535/535 533/533/533
f 535/535/535 538/538/538 536/536/536
f 536/536/536 538/538/538 537/537/537
f 539/539/539 538/538/538 534/534/534
f 538/538/538 539/539/539 537/537/537
f 542/542/542 541/541/541 540/540/540
f 543/543/543 542/542/542 540/540/540
f 540/540/540 541/541/541 544/544/544
f 545/545/545 542/542/542 543/543/543
f 546/546/546 545/545/545 543/543/543
f 541/541/541 547/547/547 544/544/544
f 544/544/544 547/547/547 548/548/548
f 549/549/549 545/545/545 546/546/546
f 550/550/550 549/549/549 546/546/546
f 547/547/547 551/551/551 548/548/548
f 548/548/548 551/551/551 552/552/552
f 553/553/553 549/549/549 550/550/550
f 554/554/554 553/553/553 550/550/550
f 551/551/551 555/555/555 552/552/552
f 552/552/552 555/555/555 556/556/556
f 557/557/557 553/553/553 554/554/554
f 558/558/558 557/557/557 554/554/554
f 555/555/555 559/559/559 556/556/556
f 556/556/556 559/559/559 560/560/560
f 561/561/561 557/557/557 558/558/558
f 562/562/562 561/561/561 558/558/558
f 560/560/560 563/563/563 562/562/562
f 559/559/559 563/563/563 560/560/560
f 563/563/563 561/561/561 562/562/562
f 553/553/553 564/564/564 549/549/549
f 557/557/557 565/565/565 553/553/553
f 565/565/565 564/564/564 553/553/553
f 561/561/561 566/566/566 557/557/557
f 566/566/566 565/565/565 557/557/557
f 563/563/563 567/567/567 561/561/561
f 567/567/567 566/566/566 561/561/561
f 559/559/559 568/568/568 563/563/563
f 568/568/568 567/567/567 563/563/563
f 555/555/555 569/569/569 559/559/559
f 569/569/569 568/568/568 559/559/559
f 564/564/564 570/570/570 549/549/549
f 549/549/549 570/570/570 545/545/545
f 571/571/571 569/569/569 555/555/555
f 551/551/551 571/571/571 555/555/555
f 570/570/570 572/572/572 545/545/545
f 545/545/545 572/572/572 542/542/542
f 573/573/573 571/571/571 551/551/551
f 547/547/547 573/573/573 551/551/551
f 572/572/572 574/574/574 542/542/542
f 542/542/542 574/574/574 541/541/541
f 541/541/541 575/575/575 547/547/547
f 575/575/575 573/573/573 547/547/547
f 574/574/574 575/575/575 541/541/541
f 568/568/568 569/569/569 576/576/576
f 569/569/569 571/571/571 577/577/577
f 569/569/569 577/577/577 576/576/576
f 571/571/571 573/573/573 578/578/578
f 571/571/571 578/578/578 577/577/577
f 573/573/573 575/575/575 579/579/579
f 573/573/573 579/579/579 578/578/578
f 575/575/575 574/574/574 580/580/580
f 575/575/575 580/580/580 579/579/579
f 574/574/574 572/572/572 581/581/581
f 574/574/574 581/581/581 580/580/580
f 568/568/568 576/576/576 582/582/582
f 567/567/567 568/568/568 582/582/582
f 572/572/572 583/583/583 581/581/581
f 572/572/572 570/570/570 583/583/583
f 567/567/567 582/582/582 584/584/584
f 566/566/566 567/567/567 584/584/584
f 570/570/570 585/585/585 583/583/583
f 570/570/570 564/564/564 585/585/585
f 566/566/566 584/584/584 586/586/586
f 565/565/565 566/566/566 586/586/586
f 564/564/564 565/565/565 587/587/587
f 564/564/564 587/587/587 585/585/585
f 565/565/565 586/586/586 587/587/587
f 582/582/582 576/576/576 588/588/588
f 582/582/582 588/588/588 589/589/589
f 584/584/584 582/582/582 589/589/589
f 576/576/576 590/590/590 588/588/588
f 584/584/584 589/589/589 591/591/591
f 586/586/586 584/584/584 591/591/591
f 576/576/576 577/577/577 590/590/590
f 586/586/586 591/591/591 592/592/592
f 587/587/587 586/586/586 592/592/592
f 577/577/577 593/593/593 590/590/590
f 587/587/587 592/592/592 594/594/594
f 585/585/585 587/587/587 594/594/594
f 577/577/577 578/578/578 593/593/593
f 585/585/585 594/594/594 595/595/595
f 578/578/578 596/596/596 593/593/593
f 583/583/583 585/585/585 595/595/595
f 578/578/578 579/579/579 596/596/596
f 583/583/583 595/595/595 597/597/597
f 579/579/579 598/598/598 596/596/596
f 581/581/581 583/583/583 597/597/597
f 579/579/579 580/580/580 598/598/598
f 581/581/581 597/597/597 599/599/599
f 580/580/580 599/599/599 598/598/598
f 580/580/580 581/581/581 599/599/599
f 602/602/602 601/601/601 600/600/600
f 600/600/600 601/601/601 603/603/603
f 602/602/602 604/604/604 601/601/601
f 604/604/604 603/603/603 601/601/601
f 605/605/605 602/602/602 600/600/600
f 603/603/603 606/606/606 600/600/600
f 600/600/600 606/606/606 605/605/605
f 604/604/604 607/607/607 603/603/603
f 603/603/603 608/608/608 606/606/606
f 607/607/607 608/608/608 603/603/603
f 604/604/604 602/602/602 609/609/609
f 609/609/609 602/602/602 610/610/610
f 602/602/602 605/605/605 610/610/610
f 611/611/611 604/604/604 609/609/609
f 611/611/611 609/609/609 610/610/610
f 607/607/607 604/604/604 611/611/611
f 612/612/612 610/610/610 605/605/605
f 610/610/610 612/612/612 611/611/611
f 606/606/606 613/613/613 605/605/605
f 613/613/613 612/612/612 605/605/605
f 614/614/614 607/607/607 611/611/611
f 612/612/612 614/614/614 611/611/611
f 608/608/608 615/615/615 606/606/606
f 613/613/613 606/606/606 615/615/615
f 607/607/607 616/616/616 608/608/608
f 616/616/616 607/607/607 614/614/614
f 612/612/612 613/613/613 617/617/617
f 612/612/612 617/617/617 614/614/614
f 618/618/618 613/613/613 615/615/615
f 613/613/613 618/618/618 617/617/617
f 608/608/608 619/619/619 615/615/615
f 616/616/616 619/619/619 608/608/608
f 617/617/617 620/620/620 614/614/614
f 620/620/620 616/616/616 614/614/614
f 615/615/615 621/621/621 618/618/618
f 619/619/619 621/621/621 615/615/615
f 622/622/622 617/617/617 618/618/618
f 617/617/617 622/622/622 620/620/620
f 616/616/616 623/623/623 619/619/619
f 623/623/623 616/616/616 620/620/620
f 619/619/619 624/624/624 621/621/621
f 623/623/623 624/624/624 619/619/619
f 621/621/621 625/625/625 618/618/618
f 625/625/625 622/622/622 618/618/618
f 626/626/626 623/623/623 620/620/620
f 622/622/622 626/626/626 620/620/620
f 624/624/624 627/627/627 621/621/621
f 625/625/625 621/621/621 627/627/627
f 624/624/624 623/623/623 628/628/628
f 623/623/623 626/626/626 628/628/628
f 622/622/622 625/625/625 629/629/629
f 622/622/622 629/629/629 626/626/626
f 630/630/630 625/625/625 627/627/627
f 625/625/625 630/630/630 629/629/629
f 624/624/624 631/631/631 627/627/627
f 631/631/631 624/624/624 628/628/628
f 629/629/629 632/632/632 626/626/626
f 626/626/626 632/632/632 628/628/628
f 631/631/631 633/633/633 627/627/627
f 630/630/630 627/627/627 633/633/633
f 628/628/628 634/634/634 631/631/631
f 634/634/634 633/633/633 631/631/631
f 634/634/634 628/628/628 632/632/632
f 634/634/634 630/630/630 633/633/633
f 629/629/629 635/635/635 632/632/632
f 629/629/629 630/630/630 635/635/635
f 630/630/630 634/634/634 635/635/635
f 635/635/635 634/634/634 632/632/632
f 638/638/638 637/637/637 636/636/636
f 639/639/639 638/638/638 636/636/636
f 638/638/638 640/640/640 637/637/637
f 641/641/641 638/638/638 639/639/639
f 642/642/642 640/640/640 638/638/638
f 641/641/641 642/642/642 638/638/638
f 643/643/643 639/639/639 636/636/636
f 636/636/636 637/637/637 644/644/644
f 645/645/645 643/643/643 636/636/636
f 645/645/645 636/636/636 644/644/644
f 640/640/640 646/646/646 637/637/637
f 637/637/637 647/647/647 644/644/644
f 637/637/637 646/646/646 647/647/647
f 642/642/642 648/648/648 640/640/640
f 640/640/640 649/649/649 646/646/646
f 648/648/648 649/649/649 640/640/640
f 650/650/650 642/642/642 641/641/641
f 651/651/651 648/648/648 642/642/642
f 650/650/650 651/651/651 642/642/642
f 652/652/652 641/641/641 639/639/639
f 643/643/643 653/653/653 639/639/639
f 653/653/653 652/652/652 639/639/639
f 654/654/654 650/650/650 641/641/641
f 654/654/654 641/641/641 652/652/652
f 644/644/644 647/647/647 655/655/655
f 656/656/656 644/644/644 655/655/655
f 656/656/656 645/645/645 644/644/644
f 643/643/643 645/645/645 657/657/657
f 653/653/653 643/643/643 658/658/658
f 658/658/658 643/643/643 657/657/657
f 645/645/645 656/656/656 659/659/659
f 657/657/657 645/645/645 659/659/659
f 653/653/653 660/660/660 652/652/652
f 661/661/661 654/654/654 652/652/652
f 660/660/660 661/661/661 652/652/652
f 662/662/662 653/653/653 658/658/658
f 660/660/660 653/653/653 662/662/662
f 663/663/663 658/658/658 657/657/657
f 664/664/664 657/657/657 659/659/659
f 664/664/664 663/663/663 657/657/657
f 665/665/665 662/662/662 658/658/658
f 663/663/663 665/665/665 658/658/658
f 659/659/659 656/656/656 666/666/666
f 667/667/667 664/664/664 659/659/659
f 667/667/667 659/659/659 666/666/666
f 656/656/656 668/668/668 666/666/666
f 668/668/668 656/656/656 655/655/655
f 669/669/669 660/660/660 662/662/662
f 660/660/660 670/670/670 661/661/661
f 670/670/670 660/660/660 669/669/669
f 665/665/665 671/671/671 662/662/662
f 671/671/671 669/669/669 662/662/662
f 672/672/672 663/663/663 664/664/664
f 673/673/673 665/665/665 663/663/663
f 672/672/672 673/673/673 663/663/663
f 674/674/674 664/664/664 667/667/667
f 674/674/674 672/672/672 664/664/664
f 675/675/675 671/671/671 665/665/665
f 673/673/673 675/675/675 665/665/665
f 648/648/648 673/673/673 672/672/672
f 649/649/649 648/648/648 672/672/672
f 649/649/649 672/672/672 674/674/674
f 648/648/648 651/651/651 673/673/673
f 651/651/651 675/675/675 673/673/673
f 676/676/676 649/649/649 674/674/674
f 649/649/649 676/676/676 646/646/646
f 677/677/677 674/674/674 667/667/667
f 676/676/676 674/674/674 677/677/677
f 651/651/651 678/678/678 675/675/675
f 678/678/678 651/651/651 650/650/650
f 675/675/675 679/679/679 671/671/671
f 678/678/678 679/679/679 675/675/675
f 646/646/646 676/676/676 680/680/680
f 646/646/646 680/680/680 647/647/647
f 681/681/681 678/678/678 650/650/650
f 681/681/681 650/650/650 654/654/654
f 677/677/677 667/667/667 682/682/682
f 682/682/682 667/667/667 666/666/666
f 683/683/683 676/676/676 677/677/677
f 676/676/676 683/683/683 680/680/680
f 647/647/647 680/680/680 684/684/684
f 647/647/647 684/684/684 655/655/655
f 678/678/678 685/685/685 679/679/679
f 685/685/685 678/678/678 681/681/681
f 686/686/686 681/681/681 654/654/654
f 686/686/686 654/654/654 661/661/661
f 687/687/687 677/677/677 682/682/682
f 683/683/683 677/677/677 687/687/687
f 680/680/680 683/683/683 688/688/688
f 680/680/680 688/688/688 684/684/684
f 655/655/655 684/684/684 689/689/689
f 668/668/668 655/655/655 689/689/689
f 690/690/690 685/685/685 681/681/681
f 690/690/690 681/681/681 686/686/686
f 691/691/691 686/686/686 661/661/661
f 670/670/670 691/691/691 661/661/661
f 692/692/692 683/683/683 687/687/687
f 683/683/683 692/692/692 688/688/688
f 684/684/684 688/688/688 693/693/693
f 684/684/684 693/693/693 689/689/689
f 694/694/694 690/690/690 686/686/686
f 694/694/694 686/686/686 691/691/691
f 688/688/688 692/692/692 695/695/695
f 688/688/688 695/695/695 693/693/693
f 696/696/696 685/685/685 690/690/690
f 697/697/697 690/690/690 694/694/694
f 697/697/697 696/696/696 690/690/690
f 685/685/685 696/696/696 698/698/698
f 685/685/685 698/698/698 679/679/679
f 679/679/679 698/698/698 699/699/699
f 679/679/679 699/699/699 671/671/671
f 671/671/671 699/699/699 669/669/669
f 699/699/699 700/700/700 669/669/669
f 700/700/700 670/670/670 669/669/669
f 698/698/698 701/701/701 699/699/699
f 699/699/699 701/701/701 700/700/700
f 696/696/696 702/702/702 698/698/698
f 698/698/698 702/702/702 701/701/701
f 703/703/703 670/670/670 700/700/700
f 670/670/670 703/703/703 691/691/691
f 704/704/704 694/694/694 691/691/691
f 703/703/703 704/704/704 691/691/691
f 701/701/701 705/705/705 700/700/700
f 705/705/705 703/703/703 700/700/700
f 696/696/696 706/706/706 702/702/702
f 706/706/706 696/696/696 697/697/697
f 707/707/707 697/697/697 694/694/694
f 707/707/707 694/694/694 704/704/704
f 702/702/702 708/708/708 701/701/701
f 701/701/701 708/708/708 705/705/705
f 703/703/703 709/709/709 704/704/704
f 709/709/709 703/703/703 705/705/705
f 710/710/710 706/706/706 697/697/697
f 710/710/710 697/697/697 707/707/707
f 706/706/706 711/711/711 702/702/702
f 702/702/702 711/711/711 708/708/708
f 712/712/712 707/707/707 704/704/704
f 709/709/709 712/712/712 704/704/704
f 708/708/708 713/713/713 705/705/705
f 713/713/713 709/709/709 705/705/705
f 714/714/714 710/710/710 707/707/707
f 714/714/714 707/707/707 712/712/712
f 715/715/715 706/706/706 710/710/710
f 706/706/706 715/715/715 711/711/711
f 711/711/711 716/716/716 708/708/708
f 708/708/708 716/716/716 713/713/713
f 709/709/709 717/717/717 712/712/712
f 717/717/717 709/709/709 713/713/713
f 718/718/718 710/710/710 714/714/714
f 718/718/718 715/715/715 710/710/710
f 715/715/715 719/719/719 711/711/711
f 711/711/711 719/719/719 716/716/716
f 720/720/720 714/714/714 712/712/712
f 717/717/717 720/720/720 712/712/712
f 721/721/721 717/717/717 713/713/713
f 716/716/716 721/721/721 713/713/713
f 722/722/722 718/718/718 714/714/714
f 722/722/722 714/714/714 720/720/720
f 723/723/723 715/715/715 718/718/718
f 715/715/715 723/723/723 719/719/719
f 717/717/717 724/724/724 720/720/720
f 724/724/724 717/717/717 721/721/721
f 716/716/716 725/725/725 721/721/721
f 719/719/719 725/725/725 716/716/716
f 695/695/695 718/718/718 722/722/722
f 695/695/695 723/723/723 718/718/718
f 693/693/693 695/695/695 722/722/722
f 692/692/692 723/723/723 695/695/695
f 726/726/726 722/722/722 720/720/720
f 693/693/693 722/722/722 726/726/726
f 724/724/724 726/726/726 720/720/720
f 689/689/689 693/693/693 726/726/726
f 723/723/723 727/727/727 719/719/719
f 723/723/723 692/692/692 727/727/727
f 719/719/719 727/727/727 725/725/725
f 692/692/692 687/687/687 727/727/727
f 728/728/728 689/689/689 726/726/726
f 724/724/724 728/728/728 726/726/726
f 728/728/728 668/668/668 689/689/689
f 727/727/727 687/687/687 729/729/729
f 727/727/727 729/729/729 725/725/725
f 687/687/687 682/682/682 729/729/729
f 728/728/728 724/724/724 730/730/730
f 725/725/725 729/729/729 730/730/730
f 730/730/730 724/724/724 721/721/721
f 725/725/725 730/730/730 721/721/721
f 668/668/668 728/728/728 731/731/731
f 731/731/731 728/728/728 730/730/730
f 729/729/729 731/731/731 730/730/730
f 729/729/729 682/682/682 731/731/731
f 666/666/666 668/668/668 731/731/731
f 682/682/682 666/666/666 731/731/731
