g ShortSword02
v -0.1432618 -0.03349499 0.51158696
v -0.0842872 -0.035680894 0.5783572
v -0.10872406 -0.04037117 0.5104905
v -0.10872406 -0.023311054 0.5104905
v -0.0842872 -0.0280014 0.5783572
v -0.1432618 -0.030187234 0.51158696
v -0.06848618 -0.013339865 0.20739728
v -0.05451619 -0.02461902 0.20739728
v -0.05451619 -0.04051827 0.20739728
v -0.06848618 -0.05179742 0.2073973
v -0.105381906 -0.013339865 0.20739728
v -0.105381906 -0.05179742 0.2073973
v -0.11935188 -0.02461902 0.20739728
v -0.11935188 -0.04051827 0.20739728
v -0.105381906 -0.05179746 -0.05672028
v -0.10389112 -0.05024359 -0.055958413
v -0.06997694 -0.05024359 -0.055958413
v -0.06848618 -0.05179746 -0.05672028
v -0.105381906 -0.05179746 -0.05672028
v -0.116732195 -0.039875902 -0.055958413
v -0.10389112 -0.05024359 -0.055958413
v -0.11935188 -0.04051831 -0.05672028
v -0.105381906 -0.05179747 -0.10225124
v -0.06848618 -0.05179746 -0.05672028
v -0.11935188 -0.024619063 -0.056720283
v -0.116732195 -0.025261464 -0.055958416
v -0.10389112 -0.014893779 -0.055958416
v -0.11935188 -0.02461907 -0.10225124
v -0.105381906 -0.013339908 -0.056720283
v -0.11935188 -0.040518317 -0.10225124
v -0.105381906 -0.013339915 -0.10225125
v -0.06848618 -0.013339908 -0.056720283
v -0.06997694 -0.014893779 -0.055958416
v -0.05713587 -0.025261464 -0.055958416
v -0.06848618 -0.013339915 -0.10225125
v -0.05451619 -0.024619063 -0.056720283
v -0.06848618 -0.05179747 -0.10225124
v -0.05451619 -0.02461907 -0.10225124
v -0.05451619 -0.040518317 -0.10225124
v -0.05451619 -0.04051831 -0.05672028
v -0.05713587 -0.039875902 -0.055958413
v -0.06997694 -0.05024359 -0.055958413
v -0.13017839 -0.04284976 0.20406616
v -0.17967933 -0.03363235 0.20406616
v -0.17377779 -0.03373845 0.37038037
v -0.13216294 -0.04162672 0.36912256
v -0.10872406 -0.04037117 0.5104905
v -0.1432618 -0.03349499 0.51158696
v -0.0664956 -0.04284976 0.20406616
v -0.13017839 -0.04284976 0.20406616
v -0.13216294 -0.04162672 0.36912256
v -0.07320001 -0.04162672 0.3681929
v -0.0431815 -0.036193777 0.20406616
v -0.052520454 -0.035710517 0.36767405
v -0.05295214 -0.035214037 0.5092278
v -0.068353795 -0.04037117 0.50968015
v -0.10872406 -0.04037117 0.5104905
v -0.047460906 -0.035129357 0.6032406
v -0.0842872 -0.035680894 0.5783572
v -0.0431815 -0.027487319 0.20406616
v -0.0431815 -0.036193777 0.20406616
v -0.052520454 -0.035710517 0.36767405
v -0.052520454 -0.027971733 0.36767405
v -0.05295214 -0.028468162 0.5092278
v -0.05295214 -0.035214037 0.5092278
v -0.047460906 -0.02855294 0.6032406
v -0.047460906 -0.035129357 0.6032406
v -0.0664956 -0.020831348 0.20406616
v -0.0431815 -0.027487319 0.20406616
v -0.052520454 -0.027971733 0.36767405
v -0.07320001 -0.022055559 0.3681929
v -0.13017839 -0.020831348 0.20406616
v -0.13216294 -0.022055559 0.36912256
v -0.10872406 -0.023311054 0.5104905
v -0.068353795 -0.023311054 0.50968015
v -0.05295214 -0.028468162 0.5092278
v -0.047460906 -0.02855294 0.6032406
v -0.0842872 -0.0280014 0.5783572
v -0.047460906 -0.02855294 0.6032406
v -0.13017839 -0.020831348 0.20406616
v -0.17377779 -0.029943833 0.37038037
v -0.17967933 -0.030048748 0.20406616
v -0.13216294 -0.022055559 0.36912256
v -0.1432618 -0.030187234 0.51158696
v -0.10872406 -0.023311054 0.5104905
v -0.17967933 -0.03363235 0.20406616
v -0.17967933 -0.030048748 0.20406616
v -0.17377779 -0.029943833 0.37038037
v -0.17377779 -0.03373845 0.37038037
v -0.0664956 -0.04284976 0.20406616
v -0.0431815 -0.036193777 0.20406616
v -0.0431815 -0.027487319 0.20406616
v -0.0664956 -0.020831348 0.20406616
v -0.13017839 -0.04284976 0.20406616
v -0.13017839 -0.020831348 0.20406616
v -0.17967933 -0.03363235 0.20406616
v -0.17967933 -0.030048748 0.20406616
v -0.17377779 -0.029943833 0.37038037
v -0.1432618 -0.030187234 0.51158696
v -0.1432618 -0.03349499 0.51158696
v -0.17377779 -0.03373845 0.37038037
v -0.1432618 -0.030187234 0.51158696
v -0.0842872 -0.0280014 0.5783572
v -0.0842872 -0.035680894 0.5783572
v -0.1432618 -0.03349499 0.51158696
v -0.0842872 -0.0280014 0.5783572
v -0.047460906 -0.02855294 0.6032406
v -0.047460906 -0.035129357 0.6032406
v -0.0842872 -0.035680894 0.5783572
v -0.105381906 -0.051797424 0.18063052
v -0.105381906 -0.05179742 0.2073973
v -0.06848618 -0.05179742 0.2073973
v -0.11935188 -0.04051827 0.20739728
v -0.06848618 -0.051797424 0.18063052
v -0.11935188 -0.040518273 0.1806305
v -0.05451619 -0.040518273 0.1806305
v -0.05451619 -0.04051827 0.20739728
v -0.11935188 -0.024619024 0.1806305
v -0.11935188 -0.02461902 0.20739728
v -0.05451619 -0.02461902 0.20739728
v -0.05451619 -0.024619024 0.1806305
v -0.105381906 -0.013339865 0.20739728
v -0.105381906 -0.013339869 0.1806305
v -0.06848618 -0.013339869 0.1806305
v -0.06848618 -0.013339865 0.20739728
v -0.11935188 -0.040518273 0.1806305
v -0.11935188 -0.040518273 0.17657802
v -0.11935188 -0.024619026 0.17657802
v -0.105381906 -0.051797424 0.17657803
v -0.11935188 -0.024619024 0.1806305
v -0.105381906 -0.051797424 0.18063052
v -0.105381906 -0.013339869 0.1806305
v -0.105381906 -0.01333987 0.17657802
v -0.06848618 -0.051797424 0.18063052
v -0.06848618 -0.051797424 0.17657803
v -0.06848618 -0.01333987 0.17657802
v -0.06848618 -0.013339869 0.1806305
v -0.05451619 -0.040518273 0.17657802
v -0.05451619 -0.040518273 0.1806305
v -0.05451619 -0.024619024 0.1806305
v -0.05451619 -0.024619026 0.17657802
v -0.105381906 -0.05179743 0.1457587
v -0.11935188 -0.040518273 0.17657802
v -0.105381906 -0.051797424 0.17657803
v -0.06848618 -0.051797424 0.17657803
v -0.11935188 -0.04051828 0.14575869
v -0.11935188 -0.02461903 0.14575869
v -0.11935188 -0.024619026 0.17657802
v -0.105381906 -0.01333987 0.17657802
v -0.06848618 -0.05179743 0.1457587
v -0.10421883 -0.05058514 0.1442278
v -0.117308065 -0.04001709 0.14422779
v -0.06964924 -0.05058514 0.1442278
v -0.117308065 -0.025120223 0.14422779
v -0.056560002 -0.04001709 0.14422779
v -0.05451619 -0.04051828 0.14575869
v -0.05451619 -0.040518273 0.17657802
v -0.05451619 -0.024619026 0.17657802
v -0.105381906 -0.013339875 0.14575869
v -0.10421883 -0.014552176 0.14422779
v -0.06964924 -0.014552176 0.14422779
v -0.05451619 -0.02461903 0.14575869
v -0.056560002 -0.025120223 0.14422779
v -0.06848618 -0.013339875 0.14575869
v -0.06848618 -0.01333987 0.17657802
v -0.06997694 -0.014893779 -0.055958416
v -0.05713587 -0.025261464 -0.055958416
v -0.056560002 -0.025120223 0.14422779
v -0.05713587 -0.039875902 -0.055958413
v -0.06964924 -0.014552176 0.14422779
v -0.056560002 -0.04001709 0.14422779
v -0.10421883 -0.014552176 0.14422779
v -0.10389112 -0.014893779 -0.055958416
v -0.06964924 -0.05058514 0.1442278
v -0.06997694 -0.05024359 -0.055958413
v -0.116732195 -0.025261464 -0.055958416
v -0.117308065 -0.025120223 0.14422779
v -0.10389112 -0.05024359 -0.055958413
v -0.10421883 -0.05058514 0.1442278
v -0.117308065 -0.04001709 0.14422779
v -0.116732195 -0.039875902 -0.055958413
vt 0.23523434 0.47496778
vt 0.23523434 0.47496778
vt 0.23523434 0.47496784
vt 0.23523434 0.47496784
vt 0.23523434 0.47496784
vt 0.23523434 0.47496778
vt 0.18764894 0.6432546
vt 0.18764894 0.6432546
vt 0.18764894 0.6432546
vt 0.18764894 0.6432546
vt 0.18764894 0.6432546
vt 0.18764894 0.6432546
vt 0.18764894 0.6432546
vt 0.18764894 0.6432546
vt 0.18764894 0.6432546
vt 0.18764894 0.6432546
vt 0.18764894 0.6432546
vt 0.18764894 0.6432546
vt 0.16237825 0.6493977
vt 0.16237825 0.6493977
vt 0.16237825 0.6493977
vt 0.16237825 0.6493977
vt 0.16237825 0.6493977
vt 0.16237825 0.6493977
vt 0.16237825 0.6493977
vt 0.16237825 0.6493977
vt 0.16237825 0.6493977
vt 0.16237825 0.6493977
vt 0.16237825 0.6493977
vt 0.16237825 0.6493977
vt 0.16237825 0.6493977
vt 0.16237825 0.6493977
vt 0.16237825 0.6493977
vt 0.16237825 0.6493977
vt 0.16237825 0.6493977
vt 0.16237825 0.6493977
vt 0.16237825 0.6493977
vt 0.16237825 0.6493977
vt 0.16237825 0.6493977
vt 0.16237825 0.6493977
vt 0.16237825 0.6493977
vt 0.16237825 0.6493977
vt 0.23523434 0.47496784
vt 0.23523434 0.4749679
vt 0.23523434 0.47496778
vt 0.23523434 0.47496784
vt 0.23523434 0.47496784
vt 0.23523434 0.47496778
vt 0.14719559 0.9023543
vt 0.14687999 0.9114745
vt 0.14545573 0.9118591
vt 0.14573796 0.9037696
vt 0.14737178 0.8972636
vt 0.14589562 0.89925426
vt 0.14589562 0.89925426
vt 0.14573796 0.9037696
vt 0.14545573 0.9118591
vt 0.14573796 0.9037696
vt 0.14545573 0.9118591
vt 0.14735807 0.88506854
vt 0.14735807 0.88506854
vt 0.14735807 0.88506854
vt 0.14735807 0.88506854
vt 0.14735807 0.88506854
vt 0.14735807 0.88506854
vt 0.14735807 0.88506854
vt 0.14735807 0.88506854
vt 0.14719559 0.9023543
vt 0.14737178 0.8972636
vt 0.14589562 0.89925426
vt 0.14573796 0.9037696
vt 0.14687999 0.9114745
vt 0.14545573 0.9118591
vt 0.14545573 0.9118591
vt 0.14573796 0.9037696
vt 0.14589562 0.89925426
vt 0.14589562 0.89925426
vt 0.14545573 0.9118591
vt 0.14573796 0.9037696
vt 0.23523434 0.47496784
vt 0.23523434 0.47496778
vt 0.23523434 0.47496784
vt 0.23523434 0.47496784
vt 0.23523434 0.47496778
vt 0.23523434 0.47496784
vt 0.23523434 0.4749679
vt 0.23523434 0.47496784
vt 0.23523434 0.47496778
vt 0.23523434 0.47496778
vt 0.09024247 0.84460306
vt 0.09024247 0.84460306
vt 0.09024247 0.84460306
vt 0.09024247 0.84460306
vt 0.09024247 0.84460306
vt 0.09024247 0.84460306
vt 0.09024247 0.84460306
vt 0.09024247 0.84460306
vt 0.23523434 0.47496778
vt 0.23523434 0.47496778
vt 0.23523434 0.47496778
vt 0.23523434 0.47496778
vt 0.23523434 0.47496778
vt 0.23523434 0.47496778
vt 0.23523434 0.47496778
vt 0.23523434 0.47496778
vt 0.101677775 0.8523545
vt 0.101677775 0.8523545
vt 0.101677775 0.8523545
vt 0.101677775 0.8523545
vt 0.16237825 0.6493977
vt 0.16237825 0.6493977
vt 0.16237825 0.6493977
vt 0.16237825 0.6493977
vt 0.16237825 0.6493977
vt 0.16237825 0.6493977
vt 0.16237825 0.6493977
vt 0.16237825 0.6493977
vt 0.16237825 0.6493977
vt 0.16237825 0.6493977
vt 0.16237825 0.6493977
vt 0.16237825 0.6493977
vt 0.16237825 0.6493977
vt 0.16237825 0.6493977
vt 0.16237825 0.6493977
vt 0.16237825 0.6493977
vt 0.18764894 0.6432546
vt 0.18764894 0.6432546
vt 0.18764894 0.6432546
vt 0.18764894 0.6432546
vt 0.18764894 0.6432546
vt 0.18764894 0.6432546
vt 0.18764894 0.6432546
vt 0.18764894 0.6432546
vt 0.18764894 0.6432546
vt 0.18764894 0.6432546
vt 0.18764894 0.6432546
vt 0.18764894 0.6432546
vt 0.18764894 0.6432546
vt 0.18764894 0.6432546
vt 0.18764894 0.6432546
vt 0.18764894 0.6432546
vt 0.16237825 0.6493977
vt 0.16237825 0.6493977
vt 0.16237825 0.6493977
vt 0.16237825 0.6493977
vt 0.16237825 0.6493977
vt 0.16237825 0.6493977
vt 0.16237825 0.6493977
vt 0.16237825 0.6493977
vt 0.16237825 0.6493977
vt 0.16237825 0.6493977
vt 0.16237825 0.6493977
vt 0.16237825 0.6493977
vt 0.16237825 0.6493977
vt 0.16237825 0.6493977
vt 0.16237825 0.6493977
vt 0.16237825 0.6493977
vt 0.16237825 0.6493977
vt 0.16237825 0.6493977
vt 0.16237825 0.6493977
vt 0.16237825 0.6493977
vt 0.16237825 0.6493977
vt 0.16237825 0.6493977
vt 0.16237825 0.6493977
vt 0.16237825 0.6493977
vt 0.22662914 0.6680783
vt 0.22662914 0.6680783
vt 0.22662914 0.6680783
vt 0.22662914 0.6680783
vt 0.22662914 0.6680783
vt 0.22662914 0.6680783
vt 0.22662914 0.6680783
vt 0.22662914 0.6680783
vt 0.22662914 0.6680783
vt 0.22662914 0.6680783
vt 0.22662914 0.6680783
vt 0.22662914 0.6680783
vt 0.22662914 0.6680783
vt 0.22662914 0.6680783
vt 0.22662914 0.6680783
vt 0.22662914 0.6680783
vn -0.18932572 -0.9725365 0.1353828
vn -0.18932572 -0.9725365 0.1353828
vn -0.18932572 -0.9725365 0.1353828
vn -0.18932563 0.97253644 0.1353837
vn -0.18932563 0.97253644 0.1353837
vn -0.18932563 0.97253644 0.1353837
vn 0.25614855 0.72507775 0.63925743
vn 0.7067077 0.3376974 0.6217111
vn 0.7067077 -0.3376974 0.6217111
vn 0.25614855 -0.72507775 0.63925743
vn -0.25614855 0.72507775 0.63925743
vn -0.25614855 -0.72507775 0.63925743
vn -0.7067077 0.3376974 0.6217111
vn -0.7067077 -0.3376974 0.6217111
vn -0.29701248 -0.80192155 0.51836795
vn -0.23307957 -0.7507866 0.61805606
vn 0.23307957 -0.7507866 0.61805606
vn 0.29701248 -0.80192155 0.51836795
vn -0.29701248 -0.80192155 0.51836795
vn -0.64337736 -0.32768574 0.69187254
vn -0.23307957 -0.7507866 0.61805606
vn -0.76588136 -0.35933402 0.53320235
vn -0.25614855 -0.72507775 -0.63925743
vn 0.29701248 -0.80192155 0.51836795
vn -0.76588136 0.35933402 0.53320235
vn -0.64337736 0.32768574 0.69187254
vn -0.23307957 0.7507866 0.61805606
vn -0.7067077 0.3376974 -0.6217111
vn -0.29701248 0.80192155 0.51836795
vn -0.7067077 -0.3376974 -0.6217111
vn -0.25614855 0.72507775 -0.63925743
vn 0.29701248 0.80192155 0.51836795
vn 0.23307957 0.7507866 0.61805606
vn 0.64337736 0.32768574 0.69187254
vn 0.25614855 0.72507775 -0.63925743
vn 0.76588136 0.35933402 0.53320235
vn 0.25614855 -0.72507775 -0.63925743
vn 0.7067077 0.3376974 -0.6217111
vn 0.7067077 -0.3376974 -0.6217111
vn 0.76588136 -0.35933402 0.53320235
vn 0.64337736 -0.32768574 0.69187254
vn 0.23307957 -0.7507866 0.61805606
vn -0.18443625 -0.98282915 0.0054929215
vn -0.18443625 -0.98282915 0.0054929215
vn -0.18443625 -0.98282915 0.0054929215
vn -0.18443625 -0.98282915 0.0054929215
vn -0.18894303 -0.98111993 0.04128153
vn -0.18894303 -0.98111993 0.04128153
vn 0.10532025 -0.73269445 -0.6723588
vn -0.06692854 -0.7257765 -0.68466717
vn -0.098943256 -0.99495655 0.01648037
vn 0.14032601 -0.99006444 0.009003082
vn 0.6588086 -0.48457694 -0.57546186
vn 0.79709804 -0.6033323 0.02499515
vn 0.80378413 -0.59451395 -0.02200434
vn 0.14124224 -0.98982495 0.017243272
vn -0.102939576 -0.9925291 0.06549312
vn 0.42137673 -0.5318863 0.7345329
vn -0.48696935 -0.65620005 0.57642204
vn 0.6588086 0.48457694 -0.57546186
vn 0.6588086 -0.48457694 -0.57546186
vn 0.79709804 -0.6033323 0.02499515
vn 0.79709804 0.6033323 0.02499515
vn 0.80378413 0.59451395 -0.02200434
vn 0.80378413 -0.59451395 -0.02200434
vn 0.42137673 0.5318863 0.7345329
vn 0.42137673 -0.5318863 0.7345329
vn 0.10532025 0.73269445 -0.6723588
vn 0.6588086 0.48457694 -0.57546186
vn 0.79709804 0.6033323 0.02499515
vn 0.14032601 0.99006444 0.009003082
vn -0.066929944 0.7257917 -0.684651
vn -0.098943256 0.99495655 0.01648037
vn -0.102939576 0.9925291 0.06549312
vn 0.14124224 0.98982495 0.017243272
vn 0.80378413 0.59451395 -0.02200434
vn 0.42137673 0.5318863 0.7345329
vn -0.48696935 0.65620005 0.57642204
vn 0.42137673 0.5318863 0.7345329
vn -0.18443604 0.98282915 0.005499923
vn -0.18443604 0.98282915 0.005499923
vn -0.18443604 0.98282915 0.005499923
vn -0.18443604 0.98282915 0.005499923
vn -0.1889431 0.98111993 0.041281126
vn -0.1889431 0.98111993 0.041281126
vn -0.9993711 0 0.03546202
vn -0.9993711 0 0.03546202
vn -0.9993711 0 0.03546202
vn -0.9993711 0 0.03546202
vn -0 0 -1
vn -0 0 -1
vn -0 0 -1
vn -0 0 -1
vn -0 0 -1
vn -0 0 -1
vn -0 0 -1
vn -0 0 -1
vn -0.97743577 0 0.21123257
vn -0.97743577 0 0.21123257
vn -0.97743577 0 0.21123257
vn -0.97743577 0 0.21123257
vn -0.74950564 0 0.6619979
vn -0.74950564 0 0.6619979
vn -0.74950564 0 0.6619979
vn -0.74950564 0 0.6619979
vn -0.48696935 0.65620005 0.57642204
vn 0.42137673 0.5318863 0.7345329
vn 0.42137673 -0.5318863 0.7345329
vn -0.48696935 -0.65620005 0.57642204
vn -0.33311546 -0.9428861 0
vn -0.25614855 -0.72507775 0.63925743
vn 0.25614855 -0.72507775 0.63925743
vn -0.7067077 -0.3376974 0.6217111
vn 0.33311546 -0.9428861 0
vn -0.9022684 -0.4311747 0
vn 0.9022684 -0.4311747 0
vn 0.7067077 -0.3376974 0.6217111
vn -0.9022804 0.43114987 0
vn -0.7067077 0.3376974 0.6217111
vn 0.7067077 0.3376974 0.6217111
vn 0.9022684 0.4311747 0
vn -0.25614855 0.72507775 0.63925743
vn -0.33311546 0.9428861 0
vn 0.33311546 0.9428861 0
vn 0.25614855 0.72507775 0.63925743
vn -0.9022684 -0.4311747 0
vn -0.9022684 -0.4311747 0
vn -0.9022804 0.43114987 0
vn -0.33311546 -0.9428861 0
vn -0.9022804 0.43114987 0
vn -0.33311546 -0.9428861 0
vn -0.33311546 0.9428861 0
vn -0.33311546 0.9428861 0
vn 0.33311546 -0.9428861 0
vn 0.33311546 -0.9428861 0
vn 0.33311546 0.9428861 0
vn 0.33311546 0.9428861 0
vn 0.9022684 -0.4311747 0
vn 0.9022684 -0.4311747 0
vn 0.9022684 0.4311747 0
vn 0.9022684 0.4311747 0
vn -0.3285115 -0.87264305 -0.36135045
vn -0.9022684 -0.4311747 0
vn -0.33311546 -0.9428861 0
vn 0.33311546 -0.9428861 0
vn -0.8285047 -0.38441983 -0.40718716
vn -0.8285047 0.38441983 -0.40718716
vn -0.9022804 0.43114987 0
vn -0.33311546 0.9428861 0
vn 0.3285115 -0.87264305 -0.36135045
vn -0.2711906 -0.8732362 -0.4048632
vn -0.76752865 -0.3950412 -0.5048189
vn 0.2711906 -0.8732362 -0.4048632
vn -0.76752865 0.3950412 -0.5048189
vn 0.76752865 -0.3950412 -0.5048189
vn 0.8285047 -0.38441983 -0.40718716
vn 0.9022684 -0.4311747 0
vn 0.9022684 0.4311747 0
vn -0.3285115 0.87264305 -0.36135045
vn -0.2711906 0.8732362 -0.4048632
vn 0.2711906 0.8732362 -0.4048632
vn 0.8285047 0.38441983 -0.40718716
vn 0.76752865 0.3950412 -0.5048189
vn 0.3285115 0.87264305 -0.36135045
vn 0.33311546 0.9428861 0
vn 0.23307957 0.7507866 0.61805606
vn 0.64337736 0.32768574 0.69187254
vn 0.76752865 0.3950412 -0.5048189
vn 0.64337736 -0.32768574 0.69187254
vn 0.2711906 0.8732362 -0.4048632
vn 0.76752865 -0.3950412 -0.5048189
vn -0.2711906 0.8732362 -0.4048632
vn -0.23307957 0.7507866 0.61805606
vn 0.2711906 -0.8732362 -0.4048632
vn 0.23307957 -0.7507866 0.61805606
vn -0.64337736 0.32768574 0.69187254
vn -0.76752865 0.3950412 -0.5048189
vn -0.23307957 -0.7507866 0.61805606
vn -0.2711906 -0.8732362 -0.4048632
vn -0.76752865 -0.3950412 -0.5048189
vn -0.64337736 -0.32768574 0.69187254
g ShortSword02_0
f 3/3/3 2/2/2 1/1/1
f 6/6/6 5/5/5 4/4/4
f 9/9/9 8/8/8 7/7/7
f 7/7/7 10/10/10 9/9/9
f 7/7/7 11/11/11 10/10/10
f 11/11/11 12/12/12 10/10/10
f 11/11/11 13/13/13 12/12/12
f 13/13/13 14/14/14 12/12/12
f 17/17/17 16/16/16 15/15/15
f 18/18/18 17/17/17 15/15/15
f 21/21/21 20/20/20 19/19/19
f 20/20/20 22/22/22 19/19/19
f 19/19/19 22/22/22 23/23/23
f 24/24/24 19/19/19 23/23/23
f 25/25/25 22/22/22 20/20/20
f 26/26/26 25/25/25 20/20/20
f 25/25/25 26/26/26 27/27/27
f 25/25/25 28/28/28 22/22/22
f 29/29/29 25/25/25 27/27/27
f 28/28/28 25/25/25 29/29/29
f 28/28/28 30/30/30 22/22/22
f 22/22/22 30/30/30 23/23/23
f 30/30/30 28/28/28 31/31/31
f 31/31/31 28/28/28 29/29/29
f 23/23/23 30/30/30 31/31/31
f 29/29/29 27/27/27 32/32/32
f 27/27/27 33/33/33 32/32/32
f 33/33/33 34/34/34 32/32/32
f 31/31/31 29/29/29 35/35/35
f 23/23/23 31/31/31 35/35/35
f 29/29/29 32/32/32 35/35/35
f 34/34/34 36/36/36 32/32/32
f 32/32/32 36/36/36 35/35/35
f 37/37/37 23/23/23 35/35/35
f 37/37/37 24/24/24 23/23/23
f 37/37/37 35/35/35 38/38/38
f 36/36/36 38/38/38 35/35/35
f 38/38/38 39/39/39 37/37/37
f 37/37/37 39/39/39 24/24/24
f 38/38/38 36/36/36 39/39/39
f 36/36/36 34/34/34 40/40/40
f 36/36/36 40/40/40 39/39/39
f 39/39/39 40/40/40 24/24/24
f 34/34/34 41/41/41 40/40/40
f 24/24/24 40/40/40 42/42/42
f 40/40/40 41/41/41 42/42/42
f 45/45/45 44/44/44 43/43/43
f 46/46/46 45/45/45 43/43/43
f 46/46/46 47/47/47 45/45/45
f 47/47/47 48/48/48 45/45/45
f 51/51/51 50/50/50 49/49/49
f 52/52/52 51/51/51 49/49/49
f 52/52/52 49/49/49 53/53/53
f 54/54/54 52/52/52 53/53/53
f 54/54/54 55/55/55 52/52/52
f 52/52/52 56/56/56 51/51/51
f 55/55/55 56/56/56 52/52/52
f 56/56/56 57/57/57 51/51/51
f 55/55/55 58/58/58 56/56/56
f 56/56/56 58/58/58 57/57/57
f 58/58/58 59/59/59 57/57/57
f 62/62/62 61/61/61 60/60/60
f 63/63/63 62/62/62 60/60/60
f 63/63/63 64/64/64 62/62/62
f 64/64/64 65/65/65 62/62/62
f 64/64/64 66/66/66 65/65/65
f 66/66/66 67/67/67 65/65/65
f 70/70/70 69/69/69 68/68/68
f 71/71/71 70/70/70 68/68/68
f 71/71/71 68/68/68 72/72/72
f 73/73/73 71/71/71 72/72/72
f 73/73/73 74/74/74 71/71/71
f 71/71/71 75/75/75 70/70/70
f 74/74/74 75/75/75 71/71/71
f 75/75/75 76/76/76 70/70/70
f 75/75/75 77/77/77 76/76/76
f 74/74/74 78/78/78 75/75/75
f 78/78/78 79/79/79 75/75/75
f 82/82/82 81/81/81 80/80/80
f 81/81/81 83/83/83 80/80/80
f 81/81/81 84/84/84 83/83/83
f 84/84/84 85/85/85 83/83/83
f 88/88/88 87/87/87 86/86/86
f 89/89/89 88/88/88 86/86/86
f 92/92/92 91/91/91 90/90/90
f 90/90/90 93/93/93 92/92/92
f 90/90/90 94/94/94 93/93/93
f 94/94/94 95/95/95 93/93/93
f 94/94/94 96/96/96 95/95/95
f 96/96/96 97/97/97 95/95/95
f 100/100/100 99/99/99 98/98/98
f 101/101/101 100/100/100 98/98/98
f 104/104/104 103/103/103 102/102/102
f 105/105/105 104/104/104 102/102/102
f 108/108/108 107/107/107 106/106/106
f 109/109/109 108/108/108 106/106/106
f 112/112/112 111/111/111 110/110/110
f 111/111/111 113/113/113 110/110/110
f 114/114/114 112/112/112 110/110/110
f 113/113/113 115/115/115 110/110/110
f 114/114/114 116/116/116 112/112/112
f 116/116/116 117/117/117 112/112/112
f 118/118/118 115/115/115 113/113/113
f 119/119/119 118/118/118 113/113/113
f 120/120/120 117/117/117 116/116/116
f 121/121/121 120/120/120 116/116/116
f 118/118/118 119/119/119 122/122/122
f 123/123/123 118/118/118 122/122/122
f 120/120/120 121/121/121 124/124/124
f 123/123/123 122/122/122 124/124/124
f 125/125/125 120/120/120 124/124/124
f 122/122/122 125/125/125 124/124/124
f 128/128/128 127/127/127 126/126/126
f 126/126/126 127/127/127 129/129/129
f 130/130/130 128/128/128 126/126/126
f 131/131/131 126/126/126 129/129/129
f 128/128/128 130/130/130 132/132/132
f 133/133/133 128/128/128 132/132/132
f 134/134/134 131/131/131 129/129/129
f 135/135/135 134/134/134 129/129/129
f 133/133/133 132/132/132 136/136/136
f 132/132/132 137/137/137 136/136/136
f 135/135/135 138/138/138 134/134/134
f 138/138/138 139/139/139 134/134/134
f 137/137/137 140/140/140 136/136/136
f 140/140/140 139/139/139 138/138/138
f 140/140/140 141/141/141 136/136/136
f 141/141/141 140/140/140 138/138/138
f 144/144/144 143/143/143 142/142/142
f 145/145/145 144/144/144 142/142/142
f 143/143/143 146/146/146 142/142/142
f 147/147/147 146/146/146 143/143/143
f 148/148/148 147/147/147 143/143/143
f 147/147/147 148/148/148 149/149/149
f 150/150/150 145/145/145 142/142/142
f 142/142/142 146/146/146 151/151/151
f 150/150/150 142/142/142 151/151/151
f 146/146/146 152/152/152 151/151/151
f 153/153/153 150/150/150 151/151/151
f 154/154/154 152/152/152 146/146/146
f 147/147/147 154/154/154 146/146/146
f 153/153/153 155/155/155 150/150/150
f 150/150/150 156/156/156 145/145/145
f 155/155/155 156/156/156 150/150/150
f 156/156/156 157/157/157 145/145/145
f 158/158/158 157/157/157 156/156/156
f 154/154/154 147/147/147 159/159/159
f 159/159/159 147/147/147 149/149/149
f 160/160/160 154/154/154 159/159/159
f 160/160/160 159/159/159 161/161/161
f 162/162/162 156/156/156 155/155/155
f 162/162/162 158/158/158 156/156/156
f 163/163/163 162/162/162 155/155/155
f 162/162/162 163/163/163 161/161/161
f 159/159/159 149/149/149 164/164/164
f 159/159/159 164/164/164 161/161/161
f 164/164/164 162/162/162 161/161/161
f 158/158/158 162/162/162 164/164/164
f 149/149/149 165/165/165 164/164/164
f 165/165/165 158/158/158 164/164/164
f 168/168/168 167/167/167 166/166/166
f 169/169/169 167/167/167 168/168/168
f 170/170/170 168/168/168 166/166/166
f 171/171/171 169/169/169 168/168/168
f 170/170/170 166/166/166 172/172/172
f 166/166/166 173/173/173 172/172/172
f 169/169/169 171/171/171 174/174/174
f 175/175/175 169/169/169 174/174/174
f 173/173/173 176/176/176 172/172/172
f 176/176/176 177/177/177 172/172/172
f 178/178/178 175/175/175 174/174/174
f 179/179/179 178/178/178 174/174/174
f 180/180/180 177/177/177 176/176/176
f 179/179/179 180/180/180 178/178/178
f 181/181/181 180/180/180 176/176/176
f 180/180/180 181/181/181 178/178/178
