g ShortSword09
v -0.089433245 -0.0751306 -0.041619327
v -0.089433245 -0.05228971 -0.0689524
v -0.11376388 -0.05535063 -0.04210016
v -0.089433245 -0.058274735 -0.014154727
v -0.089433245 -0.0751306 -0.041619327
v -0.11376388 -0.05535063 -0.04210016
v -0.08943325 -0.07595816 0.014704854
v -0.089433245 -0.060711518 -0.003540387
v -0.10791925 -0.06275473 0.014383889
v -0.08943325 -0.06470661 0.033037893
v -0.08943325 -0.07595816 0.014704854
v -0.10791925 -0.06275473 0.014383889
v -0.08943325 -0.07170996 0.05518758
v -0.08943325 -0.060987223 0.042355977
v -0.104214974 -0.062424183 0.054961845
v -0.08943326 -0.063796915 0.068080924
v -0.08943325 -0.07170996 0.05518758
v -0.104214974 -0.062424183 0.054961845
v -0.12551124 -0.03067073 0.2361867
v -0.08943329 -0.08684524 0.29622215
v -0.08943328 -0.04401249 0.2361867
v -0.13848218 -0.030670721 0.59237695
v -0.08943336 -0.030670715 0.76468796
v -0.08943334 -0.060176283 0.59237695
v -0.089433245 0.013789126 -0.04161932
v -0.11376388 -0.005990851 -0.04210017
v -0.089433245 -0.009051768 -0.068952404
v -0.08943325 -0.0030667377 -0.014154728
v -0.11376388 -0.005990851 -0.04210017
v -0.089433245 0.013789126 -0.04161932
v -0.08943325 0.014616682 0.014704847
v -0.10791925 0.0014132545 0.014383886
v -0.08943325 -0.0006299565 -0.0035403892
v -0.08943325 0.0033651383 0.03303789
v -0.10791925 0.0014132545 0.014383886
v -0.08943325 0.014616682 0.014704847
v -0.08943326 0.010368483 0.05518758
v -0.104214974 0.0010827124 0.054961845
v -0.08943326 -0.00035424586 0.042355973
v -0.08943326 0.0024554431 0.06808093
v -0.104214974 0.0010827124 0.054961845
v -0.08943326 0.010368483 0.05518758
v -0.12551124 -0.03067073 0.2361867
v -0.08943328 -0.017328972 0.2361867
v -0.08943329 0.025503777 0.29622215
v -0.13848218 -0.030670721 0.59237695
v -0.08943334 -0.0011651594 0.59237695
v -0.08943336 -0.030670715 0.76468796
v -0.089433245 -0.0751306 -0.041619327
v -0.06510261 -0.055350624 -0.04210016
v -0.089433245 -0.05228971 -0.0689524
v -0.089433245 -0.058274735 -0.014154727
v -0.06510261 -0.055350624 -0.04210016
v -0.089433245 -0.0751306 -0.041619327
v -0.08943325 -0.07595816 0.014704854
v -0.07094726 -0.06275473 0.014383889
v -0.089433245 -0.060711518 -0.003540387
v -0.08943325 -0.06470661 0.033037893
v -0.07094726 -0.06275473 0.014383889
v -0.08943325 -0.07595816 0.014704854
v -0.08943325 -0.07170996 0.05518758
v -0.07465155 -0.062424183 0.054961856
v -0.08943325 -0.060987223 0.042355977
v -0.08943326 -0.063796915 0.068080924
v -0.07465155 -0.062424183 0.054961856
v -0.08943325 -0.07170996 0.05518758
v -0.05335533 -0.030670727 0.2361867
v -0.08943328 -0.04401249 0.2361867
v -0.08943329 -0.08684524 0.29622215
v -0.040384486 -0.030670717 0.59237695
v -0.08943334 -0.060176283 0.59237695
v -0.08943336 -0.030670715 0.76468796
v -0.089433245 0.013789126 -0.04161932
v -0.089433245 -0.009051768 -0.068952404
v -0.06510261 -0.0059908493 -0.04210017
v -0.08943325 -0.0030667377 -0.014154728
v -0.089433245 0.013789126 -0.04161932
v -0.06510261 -0.0059908493 -0.04210017
v -0.08943325 0.014616682 0.014704847
v -0.08943325 -0.0006299565 -0.0035403892
v -0.07094726 0.0014132545 0.014383886
v -0.08943325 0.0033651383 0.03303789
v -0.08943325 0.014616682 0.014704847
v -0.07094726 0.0014132545 0.014383886
v -0.08943326 0.010368483 0.05518758
v -0.08943326 -0.00035424586 0.042355973
v -0.074651554 0.0010827124 0.054961853
v -0.08943326 0.0024554431 0.06808093
v -0.08943326 0.010368483 0.05518758
v -0.074651554 0.0010827124 0.054961853
v -0.05335533 -0.030670727 0.2361867
v -0.08943329 0.025503777 0.29622215
v -0.08943328 -0.017328972 0.2361867
v -0.040384486 -0.030670717 0.59237695
v -0.08943336 -0.030670715 0.76468796
v -0.08943334 -0.0011651594 0.59237695
v -0.11171541 -0.045853134 -0.08454951
v -0.11640751 -0.049367487 -0.09458726
v -0.13014647 -0.030670742 -0.09458726
v -0.12070905 -0.03067074 -0.08454951
v -0.14563495 -0.03067074 -0.012177638
v -0.12070908 -0.030670736 0.14186016
v -0.11171545 -0.04585313 0.14186022
v -0.13664135 -0.045853134 -0.012177642
v -0.11171545 -0.04585313 0.14186022
v -0.104309216 -0.04203911 0.18571778
v -0.089433275 -0.045396898 0.18571778
v -0.08943327 -0.059125245 0.14186022
v -0.12070905 -0.03067074 -0.08454951
v -0.14563495 -0.03067074 -0.012177638
v -0.13664135 -0.045853134 -0.012177642
v -0.11171541 -0.045853134 -0.08454951
v -0.08943327 -0.059125245 0.14186022
v -0.089433245 -0.05912525 -0.012177633
v -0.13664135 -0.045853134 -0.012177642
v -0.11171545 -0.04585313 0.14186022
v -0.089433245 -0.05912525 -0.012177633
v -0.089433245 -0.049575567 -0.08454951
v -0.11171541 -0.045853134 -0.08454951
v -0.13664135 -0.045853134 -0.012177642
v -0.089433245 -0.05228971 -0.0689524
v -0.089433245 -0.041893408 -0.0646379
v -0.12131342 -0.044954326 -0.04293208
v -0.11376388 -0.05535063 -0.04210016
v -0.11376388 -0.05535063 -0.04210016
v -0.12131342 -0.044954326 -0.04293208
v -0.089433245 -0.04787843 -0.009840224
v -0.089433245 -0.058274735 -0.014154727
v -0.089433245 -0.060711518 -0.003540387
v -0.08943325 -0.053771827 -0.00066039205
v -0.11295867 -0.055815037 0.013828574
v -0.10791925 -0.06275473 0.014383889
v -0.10791925 -0.06275473 0.014383889
v -0.11295867 -0.055815037 0.013828574
v -0.08943325 -0.05776692 0.033368018
v -0.08943325 -0.06470661 0.033037893
v -0.08943325 -0.060987223 0.042355977
v -0.08943325 -0.056106642 0.04438143
v -0.10775912 -0.057543606 0.054571312
v -0.104214974 -0.062424183 0.054961845
v -0.104214974 -0.062424183 0.054961845
v -0.10775912 -0.057543606 0.054571312
v -0.08943326 -0.058916334 0.0683131
v -0.08943326 -0.063796915 0.068080924
v -0.12070908 -0.030670736 0.14186016
v -0.10658458 -0.030670732 0.18571778
v -0.104309216 -0.04203911 0.18571778
v -0.11171545 -0.04585313 0.14186022
v -0.11415422 -0.030670732 0.21018752
v -0.12551124 -0.03067073 0.2361867
v -0.08943328 -0.04401249 0.2361867
v -0.08943328 -0.04401249 0.21018752
v -0.1793678 -0.056814063 0.38213634
v -0.12266287 -0.05775801 0.3410406
v -0.21709593 -0.030670736 0.32940584
v -0.13848218 -0.030670721 0.59237695
v -0.12919809 -0.057374425 0.41010326
v -0.11198597 -0.0579348 0.46384597
v -0.08943334 -0.060176283 0.59237695
v -0.089433245 -0.055053994 -0.09458726
v -0.08943324 -0.049426265 -0.120040126
v -0.11225184 -0.046090566 -0.120040126
v -0.11640751 -0.049367487 -0.09458726
v -0.089433245 -0.049575567 -0.08454951
v -0.089433245 -0.055053994 -0.09458726
v -0.11640751 -0.049367487 -0.09458726
v -0.11171541 -0.045853134 -0.08454951
v -0.08943324 -0.049426265 -0.120040126
v -0.08943324 -0.042044308 -0.13437983
v -0.105460644 -0.04111996 -0.13437983
v -0.11225184 -0.046090566 -0.120040126
v -0.11640751 -0.049367487 -0.09458726
v -0.11225184 -0.046090566 -0.120040126
v -0.1203111 -0.030670742 -0.120040126
v -0.13014647 -0.030670742 -0.09458726
v -0.08943324 -0.042044308 -0.13437983
v -0.10769393 -0.030670743 -0.13437983
v -0.105460644 -0.04111996 -0.13437983
v -0.08943324 -0.030670742 -0.13437983
v -0.07117254 -0.03067074 -0.13437983
v -0.073405825 -0.04111996 -0.13437983
v -0.08943324 -0.019297175 -0.13437983
v -0.10546065 -0.020221526 -0.13437983
v -0.073405825 -0.020221524 -0.13437983
v -0.11225184 -0.046090566 -0.120040126
v -0.105460644 -0.04111996 -0.13437983
v -0.10769393 -0.030670743 -0.13437983
v -0.1203111 -0.030670742 -0.120040126
v -0.12266287 -0.05775801 0.3410406
v -0.1157617 -0.07494737 0.3528974
v -0.08943329 -0.083792575 0.31111288
v -0.08943329 -0.08684524 0.29622215
v -0.08943331 -0.07180475 0.44787157
v -0.08943329 -0.07659375 0.32481694
v -0.10869205 -0.06691896 0.36000037
v -0.110905856 -0.07059295 0.39099467
v -0.14159581 -0.067807645 0.37732047
v -0.15985373 -0.07350671 0.38012052
v -0.1157617 -0.07494737 0.3528974
v -0.12266287 -0.05775801 0.3410406
v -0.1793678 -0.056814063 0.38213634
v -0.21709593 -0.030670736 0.32940584
v -0.12266287 -0.05775801 0.3410406
v -0.08943329 -0.08684524 0.29622215
v -0.12551124 -0.03067073 0.2361867
v -0.14159581 -0.067807645 0.37732047
v -0.10869205 -0.06691896 0.36000037
v -0.1157617 -0.07494737 0.3528974
v -0.15985373 -0.07350671 0.38012052
v -0.08943324 -0.03338849 -0.15173656
v -0.08943324 -0.03067074 -0.15173656
v -0.101299085 -0.030670742 -0.14589025
v -0.09947804 -0.03263477 -0.14589025
v -0.101299085 -0.030670742 -0.14589025
v -0.1053915 -0.030670742 -0.133613
v -0.103570476 -0.032634772 -0.133613
v -0.09947804 -0.03263477 -0.14589025
v -0.103570476 -0.032634772 -0.133613
v -0.09863465 -0.032702174 -0.13396318
v -0.09564007 -0.032702174 -0.1429469
v -0.09947804 -0.03263477 -0.14589025
v -0.09947804 -0.03263477 -0.14589025
v -0.09564007 -0.032702174 -0.1429469
v -0.08943324 -0.0332537 -0.14722483
v -0.08943324 -0.03338849 -0.15173656
v -0.08943323 -0.054324128 -0.17343934
v -0.110238425 -0.030670742 -0.17343935
v -0.08943324 -0.03067074 -0.15376283
v -0.119124785 -0.030670743 -0.20881397
v -0.08943323 -0.06321045 -0.20881395
v -0.09201656 -0.06274508 -0.21001846
v -0.12801114 -0.030670745 -0.24418853
v -0.11866383 -0.036097832 -0.21001844
v -0.08943322 -0.07209677 -0.24418852
v -0.09762436 -0.07116603 -0.24659756
v -0.13689749 -0.030670747 -0.2795632
v -0.1270892 -0.041701186 -0.24659751
v -0.08943322 -0.08098311 -0.2795632
v -0.10323216 -0.07958698 -0.28317666
v -0.1411862 -0.030670747 -0.318802
v -0.1355146 -0.04730455 -0.2831766
v -0.08943321 -0.08527181 -0.318802
v -0.112727486 -0.09189549 -0.3197557
v -0.14547491 -0.030670749 -0.35804087
v -0.08943321 -0.08956052 -0.35804087
v -0.08943321 -0.030670747 -0.3933543
v -0.14782752 -0.056795448 -0.31975573
v -0.1283223 -0.11030344 -0.35633478
v -0.16623992 -0.07238582 -0.3563348
v -0.08943329 -0.07659375 0.32481694
v -0.08943329 -0.083792575 0.31111288
v -0.1157617 -0.07494737 0.3528974
v -0.10869205 -0.06691896 0.36000037
v -0.08943332 -0.065990515 0.52012426
v -0.1044218 -0.08210172 0.45067823
v -0.11907652 -0.07797671 0.40086597
v -0.12919809 -0.057374425 0.41010326
v -0.08943334 -0.060176283 0.59237695
v -0.11198597 -0.0579348 0.46384597
v -0.110905856 -0.07059295 0.39099467
v -0.11907652 -0.07797671 0.40086597
v -0.08943331 -0.07180475 0.44787157
v -0.08943332 -0.065990515 0.52012426
v -0.1044218 -0.08210172 0.45067823
v -0.110905856 -0.07059295 0.39099467
v -0.14159581 -0.067807645 0.37732047
v -0.15985373 -0.07350671 0.38012052
v -0.11907652 -0.07797671 0.40086597
v -0.11907652 -0.07797671 0.40086597
v -0.15985373 -0.07350671 0.38012052
v -0.1793678 -0.056814063 0.38213634
v -0.12919809 -0.057374425 0.41010326
v -0.11171543 -0.015488346 -0.08454952
v -0.12070905 -0.03067074 -0.08454951
v -0.13014647 -0.030670742 -0.09458726
v -0.11640751 -0.011974 -0.09458727
v -0.14563495 -0.03067074 -0.012177638
v -0.13664135 -0.015488344 -0.01217764
v -0.11171545 -0.01548834 0.1418602
v -0.12070908 -0.030670736 0.14186016
v -0.11171545 -0.01548834 0.1418602
v -0.089433275 -0.002216223 0.1418602
v -0.089433275 -0.015944567 0.18571778
v -0.104309216 -0.019302357 0.18571778
v -0.12070905 -0.03067074 -0.08454951
v -0.11171543 -0.015488346 -0.08454952
v -0.13664135 -0.015488344 -0.01217764
v -0.14563495 -0.03067074 -0.012177638
v -0.089433275 -0.002216223 0.1418602
v -0.11171545 -0.01548834 0.1418602
v -0.13664135 -0.015488344 -0.01217764
v -0.08943325 -0.0022162276 -0.012177635
v -0.08943325 -0.0022162276 -0.012177635
v -0.13664135 -0.015488344 -0.01217764
v -0.11171543 -0.015488346 -0.08454952
v -0.089433245 -0.011765913 -0.08454952
v -0.089433245 -0.009051768 -0.068952404
v -0.11376388 -0.005990851 -0.04210017
v -0.12131342 -0.016387153 -0.042932082
v -0.089433245 -0.01944807 -0.06463791
v -0.11376388 -0.005990851 -0.04210017
v -0.08943325 -0.0030667377 -0.014154728
v -0.08943325 -0.013463045 -0.009840226
v -0.12131342 -0.016387153 -0.042932082
v -0.08943325 -0.0006299565 -0.0035403892
v -0.10791925 0.0014132545 0.014383886
v -0.11295867 -0.005526436 0.013828571
v -0.08943325 -0.0075696446 -0.00066038844
v -0.10791925 0.0014132545 0.014383886
v -0.08943325 0.0033651383 0.03303789
v -0.08943325 -0.0035745504 0.033368018
v -0.11295867 -0.005526436 0.013828571
v -0.08943326 -0.00035424586 0.042355973
v -0.104214974 0.0010827124 0.054961845
v -0.107759126 -0.0037978669 0.0545713
v -0.08943326 -0.0052348264 0.04438143
v -0.104214974 0.0010827124 0.054961845
v -0.08943326 0.0024554431 0.06808093
v -0.08943326 -0.002425136 0.06831311
v -0.107759126 -0.0037978669 0.0545713
v -0.12070908 -0.030670736 0.14186016
v -0.11171545 -0.01548834 0.1418602
v -0.104309216 -0.019302357 0.18571778
v -0.10658458 -0.030670732 0.18571778
v -0.11415422 -0.030670732 0.21018752
v -0.08943328 -0.017328972 0.21018752
v -0.08943328 -0.017328972 0.2361867
v -0.12551124 -0.03067073 0.2361867
v -0.21709593 -0.030670736 0.32940584
v -0.12266287 -0.0035834445 0.3410406
v -0.1793678 -0.0045274002 0.38213634
v -0.13848218 -0.030670721 0.59237695
v -0.12919809 -0.003967025 0.41010326
v -0.11198597 -0.0034066502 0.46384597
v -0.08943334 -0.0011651594 0.59237695
v -0.089433245 -0.0062874802 -0.09458727
v -0.11640751 -0.011974 -0.09458727
v -0.11225184 -0.015250917 -0.12004013
v -0.089433245 -0.011915212 -0.12004013
v -0.089433245 -0.011765913 -0.08454952
v -0.11171543 -0.015488346 -0.08454952
v -0.11640751 -0.011974 -0.09458727
v -0.089433245 -0.0062874802 -0.09458727
v -0.089433245 -0.011915212 -0.12004013
v -0.11225184 -0.015250917 -0.12004013
v -0.10546065 -0.020221526 -0.13437983
v -0.08943324 -0.019297175 -0.13437983
v -0.11640751 -0.011974 -0.09458727
v -0.13014647 -0.030670742 -0.09458726
v -0.1203111 -0.030670742 -0.120040126
v -0.11225184 -0.015250917 -0.12004013
v -0.11225184 -0.015250917 -0.12004013
v -0.1203111 -0.030670742 -0.120040126
v -0.10769393 -0.030670743 -0.13437983
v -0.10546065 -0.020221526 -0.13437983
v -0.12266287 -0.0035834445 0.3410406
v -0.08943329 0.025503777 0.29622215
v -0.0894333 0.022451116 0.31111288
v -0.1157617 0.013605917 0.3528974
v -0.10869206 0.0055775074 0.36000037
v -0.0894333 0.015252286 0.32481694
v -0.08943331 0.010463307 0.44787157
v -0.110905856 0.009251505 0.39099467
v -0.14159581 0.0064661894 0.37732047
v -0.15985373 0.0121652465 0.38012052
v -0.1793678 -0.0045274002 0.38213634
v -0.12266287 -0.0035834445 0.3410406
v -0.1157617 0.013605917 0.3528974
v -0.21709593 -0.030670736 0.32940584
v -0.12551124 -0.03067073 0.2361867
v -0.08943329 0.025503777 0.29622215
v -0.12266287 -0.0035834445 0.3410406
v -0.14159581 0.0064661894 0.37732047
v -0.15985373 0.0121652465 0.38012052
v -0.1157617 0.013605917 0.3528974
v -0.10869206 0.0055775074 0.36000037
v -0.08943324 -0.027952991 -0.15173656
v -0.09947804 -0.028706713 -0.14589025
v -0.101299085 -0.030670742 -0.14589025
v -0.08943324 -0.03067074 -0.15173656
v -0.101299085 -0.030670742 -0.14589025
v -0.09947804 -0.028706713 -0.14589025
v -0.103570476 -0.028706713 -0.133613
v -0.1053915 -0.030670742 -0.133613
v -0.103570476 -0.028706713 -0.133613
v -0.09947804 -0.028706713 -0.14589025
v -0.09564007 -0.028639307 -0.1429469
v -0.09863465 -0.028639307 -0.13396318
v -0.09947804 -0.028706713 -0.14589025
v -0.08943324 -0.027952991 -0.15173656
v -0.08943324 -0.028087784 -0.14722483
v -0.09564007 -0.028639307 -0.1429469
v -0.08943324 -0.0070173615 -0.17343935
v -0.08943324 -0.03067074 -0.15376283
v -0.110238425 -0.030670742 -0.17343935
v -0.119124785 -0.030670743 -0.20881397
v -0.08943323 0.0018689628 -0.20881397
v -0.09201656 0.0014035918 -0.21001847
v -0.12801114 -0.030670745 -0.24418853
v -0.11866383 -0.025243655 -0.21001844
v -0.08943323 0.010755298 -0.24418853
v -0.09762436 0.009824549 -0.24659757
v -0.13689749 -0.030670747 -0.2795632
v -0.1270892 -0.019640308 -0.24659751
v -0.08943322 0.01964162 -0.2795632
v -0.10323216 0.018245505 -0.28317666
v -0.1411862 -0.030670747 -0.318802
v -0.1355146 -0.014036944 -0.2831766
v -0.089433216 0.023930315 -0.318802
v -0.1127275 0.030554004 -0.31975573
v -0.14547491 -0.030670749 -0.35804087
v -0.08943321 0.02821902 -0.35804087
v -0.08943321 -0.030670747 -0.3933543
v -0.14782752 -0.0045460463 -0.31975573
v -0.1283223 0.048961952 -0.3563348
v -0.16623992 0.011044314 -0.3563348
v -0.0894333 0.015252286 0.32481694
v -0.10869206 0.0055775074 0.36000037
v -0.1157617 0.013605917 0.3528974
v -0.0894333 0.022451116 0.31111288
v -0.11198597 -0.0034066502 0.46384597
v -0.12919809 -0.003967025 0.41010326
v -0.11907653 0.016635263 0.40086597
v -0.089433335 0.0046490794 0.52012426
v -0.1044218 0.02076027 0.45067823
v -0.08943334 -0.0011651594 0.59237695
v -0.11907653 0.016635263 0.40086597
v -0.110905856 0.009251505 0.39099467
v -0.08943331 0.010463307 0.44787157
v -0.1044218 0.02076027 0.45067823
v -0.089433335 0.0046490794 0.52012426
v -0.110905856 0.009251505 0.39099467
v -0.11907653 0.016635263 0.40086597
v -0.15985373 0.0121652465 0.38012052
v -0.14159581 0.0064661894 0.37732047
v -0.11907653 0.016635263 0.40086597
v -0.12919809 -0.003967025 0.41010326
v -0.1793678 -0.0045274002 0.38213634
v -0.15985373 0.0121652465 0.38012052
v -0.067151055 -0.04585313 -0.08454951
v -0.058157437 -0.030670738 -0.08454951
v -0.04872001 -0.030670738 -0.09458726
v -0.062458977 -0.04936748 -0.09458726
v -0.033231538 -0.030670736 -0.012177627
v -0.042225167 -0.04585313 -0.0121776275
v -0.06715109 -0.045853127 0.14186022
v -0.058157466 -0.030670732 0.1418602
v -0.06715109 -0.045853127 0.14186022
v -0.08943327 -0.059125245 0.14186022
v -0.089433275 -0.045396898 0.18571778
v -0.074557334 -0.042039104 0.18571778
v -0.058157437 -0.030670738 -0.08454951
v -0.067151055 -0.04585313 -0.08454951
v -0.042225167 -0.04585313 -0.0121776275
v -0.033231538 -0.030670736 -0.012177627
v -0.08943327 -0.059125245 0.14186022
v -0.06715109 -0.045853127 0.14186022
v -0.042225167 -0.04585313 -0.0121776275
v -0.089433245 -0.05912525 -0.012177633
v -0.089433245 -0.05912525 -0.012177633
v -0.042225167 -0.04585313 -0.0121776275
v -0.067151055 -0.04585313 -0.08454951
v -0.089433245 -0.049575567 -0.08454951
v -0.089433245 -0.05228971 -0.0689524
v -0.06510261 -0.055350624 -0.04210016
v -0.05755308 -0.044954326 -0.042932056
v -0.089433245 -0.041893408 -0.0646379
v -0.06510261 -0.055350624 -0.04210016
v -0.089433245 -0.058274735 -0.014154727
v -0.089433245 -0.04787843 -0.009840224
v -0.05755308 -0.044954326 -0.042932056
v -0.089433245 -0.060711518 -0.003540387
v -0.07094726 -0.06275473 0.014383889
v -0.06590784 -0.055815034 0.013828579
v -0.08943325 -0.053771827 -0.00066039205
v -0.07094726 -0.06275473 0.014383889
v -0.08943325 -0.06470661 0.033037893
v -0.08943325 -0.05776692 0.033368018
v -0.06590784 -0.055815034 0.013828579
v -0.08943325 -0.060987223 0.042355977
v -0.07465155 -0.062424183 0.054961856
v -0.071107395 -0.057543606 0.054571312
v -0.08943325 -0.056106642 0.04438143
v -0.07465155 -0.062424183 0.054961856
v -0.08943326 -0.063796915 0.068080924
v -0.08943326 -0.058916334 0.0683131
v -0.071107395 -0.057543606 0.054571312
v -0.058157466 -0.030670732 0.1418602
v -0.06715109 -0.045853127 0.14186022
v -0.074557334 -0.042039104 0.18571778
v -0.07228199 -0.030670732 0.18571778
v -0.06471235 -0.03067073 0.21018752
v -0.08943328 -0.04401249 0.21018752
v -0.08943328 -0.04401249 0.2361867
v -0.05335533 -0.030670727 0.2361867
v 0.038229346 -0.03067072 0.3294059
v -0.056203723 -0.057758007 0.3410406
v 0.00050118566 -0.056814052 0.38213634
v -0.040384486 -0.030670717 0.59237695
v -0.049668524 -0.057374425 0.41010326
v -0.066880666 -0.0579348 0.46384597
v -0.08943334 -0.060176283 0.59237695
v -0.089433245 -0.055053994 -0.09458726
v -0.062458977 -0.04936748 -0.09458726
v -0.06661464 -0.046090562 -0.120040126
v -0.08943324 -0.049426265 -0.120040126
v -0.089433245 -0.049575567 -0.08454951
v -0.067151055 -0.04585313 -0.08454951
v -0.062458977 -0.04936748 -0.09458726
v -0.089433245 -0.055053994 -0.09458726
v -0.08943324 -0.049426265 -0.120040126
v -0.06661464 -0.046090562 -0.120040126
v -0.073405825 -0.04111996 -0.13437983
v -0.08943324 -0.042044308 -0.13437983
v -0.062458977 -0.04936748 -0.09458726
v -0.04872001 -0.030670738 -0.09458726
v -0.058555376 -0.03067074 -0.120040126
v -0.06661464 -0.046090562 -0.120040126
v -0.06661464 -0.046090562 -0.120040126
v -0.058555376 -0.03067074 -0.120040126
v -0.07117254 -0.03067074 -0.13437983
v -0.073405825 -0.04111996 -0.13437983
v -0.056203723 -0.057758007 0.3410406
v -0.08943329 -0.08684524 0.29622215
v -0.08943329 -0.083792575 0.31111288
v -0.0631049 -0.07494737 0.3528974
v -0.07017455 -0.06691896 0.36000037
v -0.08943329 -0.07659375 0.32481694
v -0.08943331 -0.07180475 0.44787157
v -0.067960754 -0.07059295 0.39099467
v -0.03727079 -0.067807645 0.37732047
v -0.019012876 -0.073506705 0.38012052
v 0.00050118566 -0.056814052 0.38213634
v -0.056203723 -0.057758007 0.3410406
v -0.0631049 -0.07494737 0.3528974
v 0.038229346 -0.03067072 0.3294059
v -0.05335533 -0.030670727 0.2361867
v -0.08943329 -0.08684524 0.29622215
v -0.056203723 -0.057758007 0.3410406
v -0.03727079 -0.067807645 0.37732047
v -0.019012876 -0.073506705 0.38012052
v -0.0631049 -0.07494737 0.3528974
v -0.07017455 -0.06691896 0.36000037
v -0.08943324 -0.03338849 -0.15173656
v -0.079388425 -0.03263477 -0.14589025
v -0.07756739 -0.03067074 -0.14589025
v -0.08943324 -0.03067074 -0.15173656
v -0.07756739 -0.03067074 -0.14589025
v -0.079388425 -0.03263477 -0.14589025
v -0.075296 -0.032634772 -0.133613
v -0.07347496 -0.03067074 -0.133613
v -0.075296 -0.032634772 -0.133613
v -0.079388425 -0.03263477 -0.14589025
v -0.0832264 -0.032702174 -0.1429469
v -0.08023183 -0.032702174 -0.13396318
v -0.079388425 -0.03263477 -0.14589025
v -0.08943324 -0.03338849 -0.15173656
v -0.08943324 -0.0332537 -0.14722483
v -0.0832264 -0.032702174 -0.1429469
v -0.08943323 -0.054324128 -0.17343934
v -0.08943324 -0.03067074 -0.15376283
v -0.06862804 -0.03067074 -0.17343935
v -0.059741665 -0.030670742 -0.20881397
v -0.08943323 -0.06321045 -0.20881395
v -0.08684988 -0.06274508 -0.21001846
v -0.05085529 -0.030670742 -0.24418853
v -0.06020262 -0.03609783 -0.21001844
v -0.08943322 -0.07209677 -0.24418852
v -0.08124208 -0.07116603 -0.24659756
v -0.041968927 -0.030670743 -0.2795632
v -0.051777232 -0.041701183 -0.24659751
v -0.08943322 -0.08098311 -0.2795632
v -0.07563428 -0.079587 -0.28317666
v -0.03768023 -0.030670743 -0.318802
v -0.043351833 -0.047304545 -0.2831766
v -0.08943321 -0.08527181 -0.318802
v -0.06613892 -0.09189549 -0.3197557
v -0.033391505 -0.030670743 -0.35804087
v -0.08943321 -0.08956052 -0.35804087
v -0.08943321 -0.030670747 -0.3933543
v -0.031038895 -0.056795448 -0.31975573
v -0.05054411 -0.11030344 -0.35633478
v -0.012626499 -0.07238581 -0.3563348
v -0.08943329 -0.07659375 0.32481694
v -0.07017455 -0.06691896 0.36000037
v -0.0631049 -0.07494737 0.3528974
v -0.08943329 -0.083792575 0.31111288
v -0.059790097 -0.07797671 0.40086597
v -0.07444483 -0.08210172 0.45067823
v -0.08943332 -0.065990515 0.52012426
v -0.049668524 -0.057374425 0.41010326
v -0.08943334 -0.060176283 0.59237695
v -0.066880666 -0.0579348 0.46384597
v -0.08943332 -0.065990515 0.52012426
v -0.07444483 -0.08210172 0.45067823
v -0.059790097 -0.07797671 0.40086597
v -0.08943331 -0.07180475 0.44787157
v -0.067960754 -0.07059295 0.39099467
v -0.067960754 -0.07059295 0.39099467
v -0.059790097 -0.07797671 0.40086597
v -0.019012876 -0.073506705 0.38012052
v -0.03727079 -0.067807645 0.37732047
v -0.059790097 -0.07797671 0.40086597
v -0.049668524 -0.057374425 0.41010326
v 0.00050118566 -0.056814052 0.38213634
v -0.019012876 -0.073506705 0.38012052
v -0.067151055 -0.015488343 -0.08454952
v -0.062458977 -0.0119739985 -0.09458727
v -0.04872001 -0.030670738 -0.09458726
v -0.058157437 -0.030670738 -0.08454951
v -0.033231538 -0.030670736 -0.012177627
v -0.058157466 -0.030670732 0.1418602
v -0.06715109 -0.015488338 0.1418602
v -0.042225167 -0.01548834 -0.012177628
v -0.06715109 -0.015488338 0.1418602
v -0.074557334 -0.019302355 0.18571778
v -0.089433275 -0.015944567 0.18571778
v -0.089433275 -0.002216223 0.1418602
v -0.058157437 -0.030670738 -0.08454951
v -0.033231538 -0.030670736 -0.012177627
v -0.042225167 -0.01548834 -0.012177628
v -0.067151055 -0.015488343 -0.08454952
v -0.089433275 -0.002216223 0.1418602
v -0.08943325 -0.0022162276 -0.012177635
v -0.042225167 -0.01548834 -0.012177628
v -0.06715109 -0.015488338 0.1418602
v -0.08943325 -0.0022162276 -0.012177635
v -0.089433245 -0.011765913 -0.08454952
v -0.067151055 -0.015488343 -0.08454952
v -0.042225167 -0.01548834 -0.012177628
v -0.089433245 -0.009051768 -0.068952404
v -0.089433245 -0.01944807 -0.06463791
v -0.05755308 -0.016387153 -0.04293206
v -0.06510261 -0.0059908493 -0.04210017
v -0.06510261 -0.0059908493 -0.04210017
v -0.05755308 -0.016387153 -0.04293206
v -0.08943325 -0.013463045 -0.009840226
v -0.08943325 -0.0030667377 -0.014154728
v -0.08943325 -0.0006299565 -0.0035403892
v -0.08943325 -0.0075696446 -0.00066038844
v -0.06590784 -0.005526434 0.013828578
v -0.07094726 0.0014132545 0.014383886
v -0.07094726 0.0014132545 0.014383886
v -0.06590784 -0.005526434 0.013828578
v -0.08943325 -0.0035745504 0.033368018
v -0.08943325 0.0033651383 0.03303789
v -0.08943326 -0.00035424586 0.042355973
v -0.08943326 -0.0052348264 0.04438143
v -0.071107395 -0.0037978669 0.0545713
v -0.074651554 0.0010827124 0.054961853
v -0.074651554 0.0010827124 0.054961853
v -0.071107395 -0.0037978669 0.0545713
v -0.08943326 -0.002425136 0.06831311
v -0.08943326 0.0024554431 0.06808093
v -0.058157466 -0.030670732 0.1418602
v -0.07228199 -0.030670732 0.18571778
v -0.074557334 -0.019302355 0.18571778
v -0.06715109 -0.015488338 0.1418602
v -0.06471235 -0.03067073 0.21018752
v -0.05335533 -0.030670727 0.2361867
v -0.08943328 -0.017328972 0.2361867
v -0.08943328 -0.017328972 0.21018752
v 0.00050118566 -0.004527393 0.38213634
v -0.056203727 -0.0035834408 0.3410406
v 0.038229346 -0.03067072 0.3294059
v -0.040384486 -0.030670717 0.59237695
v -0.04966853 -0.0039670193 0.41010326
v -0.066880666 -0.003406652 0.46384597
v -0.08943334 -0.0011651594 0.59237695
v -0.089433245 -0.0062874802 -0.09458727
v -0.089433245 -0.011915212 -0.12004013
v -0.06661464 -0.015250915 -0.12004013
v -0.062458977 -0.0119739985 -0.09458727
v -0.089433245 -0.011765913 -0.08454952
v -0.089433245 -0.0062874802 -0.09458727
v -0.062458977 -0.0119739985 -0.09458727
v -0.067151055 -0.015488343 -0.08454952
v -0.089433245 -0.011915212 -0.12004013
v -0.08943324 -0.019297175 -0.13437983
v -0.073405825 -0.020221524 -0.13437983
v -0.06661464 -0.015250915 -0.12004013
v -0.062458977 -0.0119739985 -0.09458727
v -0.06661464 -0.015250915 -0.12004013
v -0.058555376 -0.03067074 -0.120040126
v -0.04872001 -0.030670738 -0.09458726
v -0.06661464 -0.015250915 -0.12004013
v -0.073405825 -0.020221524 -0.13437983
v -0.07117254 -0.03067074 -0.13437983
v -0.058555376 -0.03067074 -0.120040126
v -0.056203727 -0.0035834408 0.3410406
v -0.0631049 0.013605917 0.3528974
v -0.0894333 0.022451116 0.31111288
v -0.08943329 0.025503777 0.29622215
v -0.08943331 0.010463307 0.44787157
v -0.0894333 0.015252286 0.32481694
v -0.07017455 0.0055775074 0.36000037
v -0.067960754 0.009251505 0.39099467
v -0.0372708 0.006466197 0.37732047
v -0.019012876 0.01216525 0.38012052
v -0.0631049 0.013605917 0.3528974
v -0.056203727 -0.0035834408 0.3410406
v 0.00050118566 -0.004527393 0.38213634
v 0.038229346 -0.03067072 0.3294059
v -0.056203727 -0.0035834408 0.3410406
v -0.08943329 0.025503777 0.29622215
v -0.05335533 -0.030670727 0.2361867
v -0.0372708 0.006466197 0.37732047
v -0.07017455 0.0055775074 0.36000037
v -0.0631049 0.013605917 0.3528974
v -0.019012876 0.01216525 0.38012052
v -0.08943324 -0.027952991 -0.15173656
v -0.08943324 -0.03067074 -0.15173656
v -0.07756739 -0.03067074 -0.14589025
v -0.079388425 -0.02870671 -0.14589025
v -0.07756739 -0.03067074 -0.14589025
v -0.07347496 -0.03067074 -0.133613
v -0.075296 -0.02870671 -0.133613
v -0.079388425 -0.02870671 -0.14589025
v -0.075296 -0.02870671 -0.133613
v -0.08023183 -0.028639305 -0.13396318
v -0.0832264 -0.028639307 -0.1429469
v -0.079388425 -0.02870671 -0.14589025
v -0.079388425 -0.02870671 -0.14589025
v -0.0832264 -0.028639307 -0.1429469
v -0.08943324 -0.028087784 -0.14722483
v -0.08943324 -0.027952991 -0.15173656
v -0.08943324 -0.0070173615 -0.17343935
v -0.06862804 -0.03067074 -0.17343935
v -0.08943324 -0.03067074 -0.15376283
v -0.059741665 -0.030670742 -0.20881397
v -0.08943323 0.0018689628 -0.20881397
v -0.08684988 0.0014035918 -0.21001847
v -0.05085529 -0.030670742 -0.24418853
v -0.06020262 -0.025243653 -0.21001844
v -0.08943323 0.010755298 -0.24418853
v -0.08124208 0.009824549 -0.24659757
v -0.041968927 -0.030670743 -0.2795632
v -0.051777232 -0.019640304 -0.24659751
v -0.08943322 0.01964162 -0.2795632
v -0.07563428 0.018245498 -0.28317666
v -0.03768023 -0.030670743 -0.318802
v -0.043351833 -0.014036939 -0.2831766
v -0.089433216 0.023930315 -0.318802
v -0.06613893 0.030554004 -0.31975573
v -0.033391505 -0.030670743 -0.35804087
v -0.08943321 0.02821902 -0.35804087
v -0.08943321 -0.030670747 -0.3933543
v -0.031038895 -0.0045460444 -0.31975573
v -0.050544113 0.048961952 -0.3563348
v -0.012626506 0.011044322 -0.3563348
v -0.0894333 0.015252286 0.32481694
v -0.0894333 0.022451116 0.31111288
v -0.0631049 0.013605917 0.3528974
v -0.07017455 0.0055775074 0.36000037
v -0.059790097 0.01663526 0.40086597
v -0.04966853 -0.0039670193 0.41010326
v -0.066880666 -0.003406652 0.46384597
v -0.089433335 0.0046490794 0.52012426
v -0.08943334 -0.0011651594 0.59237695
v -0.07444483 0.02076027 0.45067823
v -0.07444483 0.02076027 0.45067823
v -0.089433335 0.0046490794 0.52012426
v -0.08943331 0.010463307 0.44787157
v -0.059790097 0.01663526 0.40086597
v -0.067960754 0.009251505 0.39099467
v -0.067960754 0.009251505 0.39099467
v -0.0372708 0.006466197 0.37732047
v -0.019012876 0.01216525 0.38012052
v -0.059790097 0.01663526 0.40086597
v -0.059790097 0.01663526 0.40086597
v -0.019012876 0.01216525 0.38012052
v 0.00050118566 -0.004527393 0.38213634
v -0.04966853 -0.0039670193 0.41010326
v -0.089433275 -0.030670732 0.18571778
v -0.104309216 -0.04203911 0.18571778
v -0.10658458 -0.030670732 0.18571778
v -0.089433275 -0.045396898 0.18571778
v -0.104309216 -0.019302357 0.18571778
v -0.074557334 -0.042039104 0.18571778
v -0.089433275 -0.015944567 0.18571778
v -0.07228199 -0.030670732 0.18571778
v -0.074557334 -0.019302355 0.18571778
v -0.11119575 -0.064404696 0.19395997
v -0.089433275 -0.05859929 0.17807084
v -0.089433275 -0.03067073 0.17807083
v -0.089433275 -0.06296965 0.19523226
v -0.06767081 -0.06440469 0.19395997
v -0.11415422 -0.030670732 0.17807083
v -0.12704854 -0.07260263 0.20550132
v -0.1232832 -0.049873807 0.1935025
v -0.13455988 -0.06357291 0.20535918
v -0.116782255 -0.030670732 0.19523224
v -0.11415422 -0.030670732 0.2168309
v -0.1232832 -0.04987381 0.21683091
v -0.089433275 -0.05859929 0.21683091
v -0.11119575 -0.06440469 0.21683091
v -0.051818013 -0.07260263 0.20550132
v -0.06767082 -0.06440469 0.21683091
v -0.05558336 -0.049873803 0.21683091
v -0.06471235 -0.03067073 0.2168309
v -0.044306673 -0.063572906 0.20535918
v -0.08943328 -0.03067073 0.2168309
v -0.08943328 -0.0027421694 0.2168309
v -0.1345599 0.0022314414 0.20535916
v -0.1232832 -0.01146766 0.2168309
v -0.1232832 -0.011467656 0.19350249
v -0.11119575 0.0030632261 0.19395995
v -0.12704854 0.011261161 0.2055013
v -0.089433275 0.0016281811 0.19523224
v -0.089433275 -0.002742172 0.17807083
v -0.11119575 0.0030632261 0.2168309
v -0.06767081 0.0030632298 0.19395995
v -0.064712346 -0.03067073 0.17807083
v -0.055583358 -0.049873807 0.1935025
v -0.062084302 -0.03067073 0.19523224
v -0.055583358 -0.011467654 0.19350249
v -0.044306677 0.0022314452 0.20535916
v -0.05558336 -0.0114676505 0.2168309
v -0.05181802 0.011261161 0.2055013
v -0.06767082 0.0030632261 0.2168309
vt 0.04492492 0.9645822
vt 0.04492492 0.9645822
vt 0.04492492 0.9645822
vt 0.04492492 0.9645822
vt 0.04492492 0.9645822
vt 0.04492492 0.9645822
vt 0.04492492 0.9645822
vt 0.04492492 0.9645822
vt 0.04492492 0.9645822
vt 0.04492492 0.9645822
vt 0.04492492 0.9645822
vt 0.04492492 0.9645822
vt 0.04492492 0.9645822
vt 0.04492492 0.9645822
vt 0.04492492 0.9645822
vt 0.04492492 0.9645822
vt 0.04492492 0.9645822
vt 0.04492492 0.9645822
vt 0.09112038 0.8953273
vt 0.09112038 0.8953273
vt 0.09112038 0.8953273
vt 0.0224379 0.8136796
vt 0.021580134 0.8115339
vt 0.018006977 0.8090144
vt 0.04492492 0.9645822
vt 0.04492492 0.9645822
vt 0.04492492 0.9645822
vt 0.04492492 0.9645822
vt 0.04492492 0.9645822
vt 0.04492492 0.9645822
vt 0.04492492 0.9645822
vt 0.04492492 0.9645822
vt 0.04492492 0.9645822
vt 0.04492492 0.9645822
vt 0.04492492 0.9645822
vt 0.04492492 0.9645822
vt 0.04492492 0.9645822
vt 0.04492492 0.9645822
vt 0.04492492 0.9645822
vt 0.04492492 0.9645822
vt 0.04492492 0.9645822
vt 0.04492492 0.9645822
vt 0.09112038 0.8953273
vt 0.09112038 0.8953273
vt 0.09112038 0.8953273
vt 0.0224379 0.8136796
vt 0.018006977 0.8090144
vt 0.021580134 0.8115339
vt 0.04492492 0.9645822
vt 0.04492492 0.9645822
vt 0.04492492 0.9645822
vt 0.04492492 0.9645822
vt 0.04492492 0.9645822
vt 0.04492492 0.9645822
vt 0.04492492 0.9645822
vt 0.04492492 0.9645822
vt 0.04492492 0.9645822
vt 0.04492492 0.9645822
vt 0.04492492 0.9645822
vt 0.04492492 0.9645822
vt 0.04492492 0.9645822
vt 0.04492492 0.9645822
vt 0.04492492 0.9645822
vt 0.04492492 0.9645822
vt 0.04492492 0.9645822
vt 0.04492492 0.9645822
vt 0.09112038 0.8953273
vt 0.09112038 0.8953273
vt 0.09112038 0.8953273
vt 0.0224379 0.8136796
vt 0.018006977 0.8090144
vt 0.021580134 0.8115339
vt 0.04492492 0.9645822
vt 0.04492492 0.9645822
vt 0.04492492 0.9645822
vt 0.04492492 0.9645822
vt 0.04492492 0.9645822
vt 0.04492492 0.9645822
vt 0.04492492 0.9645822
vt 0.04492492 0.9645822
vt 0.04492492 0.9645822
vt 0.04492492 0.9645822
vt 0.04492492 0.9645822
vt 0.04492492 0.9645822
vt 0.04492492 0.9645822
vt 0.04492492 0.9645822
vt 0.04492492 0.9645822
vt 0.04492492 0.9645822
vt 0.04492492 0.9645822
vt 0.04492492 0.9645822
vt 0.09112038 0.8953273
vt 0.09112038 0.8953273
vt 0.09112038 0.8953273
vt 0.0224379 0.8136796
vt 0.021580134 0.8115339
vt 0.018006977 0.8090144
vt 0.031488307 0.9675987
vt 0.031488307 0.9675987
vt 0.031488307 0.9675987
vt 0.031488307 0.9675987
vt 0.09112038 0.9002489
vt 0.09112038 0.9002489
vt 0.09112038 0.9002489
vt 0.09112038 0.9002489
vt 0.09112038 0.9002489
vt 0.09112038 0.9002489
vt 0.09112038 0.9002489
vt 0.09112038 0.9002489
vt 0.09112038 0.9002489
vt 0.09112038 0.9002489
vt 0.09112038 0.9002489
vt 0.09112038 0.9002489
vt 0.09112038 0.9002489
vt 0.09112038 0.9002489
vt 0.09112038 0.9002489
vt 0.09112038 0.9002489
vt 0.09112038 0.9002489
vt 0.09112038 0.9002489
vt 0.09112038 0.9002489
vt 0.09112038 0.9002489
vt 0.04492492 0.9645822
vt 0.04492492 0.9645822
vt 0.04492492 0.9645822
vt 0.04492492 0.9645822
vt 0.04492492 0.9645822
vt 0.04492492 0.9645822
vt 0.04492492 0.9645822
vt 0.04492492 0.9645822
vt 0.04492492 0.9645822
vt 0.04492492 0.9645822
vt 0.04492492 0.9645822
vt 0.04492492 0.9645822
vt 0.04492492 0.9645822
vt 0.04492492 0.9645822
vt 0.04492492 0.9645822
vt 0.04492492 0.9645822
vt 0.04492492 0.9645822
vt 0.04492492 0.9645822
vt 0.04492492 0.9645822
vt 0.04492492 0.9645822
vt 0.04492492 0.9645822
vt 0.04492492 0.9645822
vt 0.04492492 0.9645822
vt 0.04492492 0.9645822
vt 0.09112038 0.9002489
vt 0.09112038 0.9002489
vt 0.09112038 0.9002489
vt 0.09112038 0.9002489
vt 0.09112038 0.8953273
vt 0.09112038 0.8953273
vt 0.09112038 0.8953273
vt 0.09112038 0.8953273
vt 0.015477692 0.8087161
vt 0.01558696 0.8093847
vt 0.022319581 0.8143588
vt 0.0224379 0.8136796
vt 0.014577528 0.80782926
vt 0.013677365 0.80694234
vt 0.018006977 0.8090144
vt 0.031488307 0.9675987
vt 0.031488307 0.9675987
vt 0.031488307 0.9675987
vt 0.031488307 0.9675987
vt 0.031488307 0.9675987
vt 0.031488307 0.9675987
vt 0.031488307 0.9675987
vt 0.031488307 0.9675987
vt 0.031488307 0.9675987
vt 0.031488307 0.9675987
vt 0.031488307 0.9675987
vt 0.031488307 0.9675987
vt 0.031488307 0.9675987
vt 0.031488307 0.9675987
vt 0.031488307 0.9675987
vt 0.031488307 0.9675987
vt 0.031488307 0.9675987
vt 0.031488307 0.9675987
vt 0.031488307 0.9675987
vt 0.031488307 0.9675987
vt 0.031488307 0.9675987
vt 0.031488307 0.9675987
vt 0.031488307 0.9675987
vt 0.031488307 0.9675987
vt 0.031488307 0.9675987
vt 0.031488307 0.9675987
vt 0.031488307 0.9675987
vt 0.031488307 0.9675987
vt 0.031488307 0.9675987
vt 0.031488307 0.9675987
vt 0.031488307 0.9675987
vt 0.031488307 0.9675987
vt 0.031488307 0.9675987
vt 0.040676884 0.69815505
vt 0.040676884 0.6981551
vt 0.040676884 0.69815505
vt 0.04067689 0.69815505
vt 0.040676877 0.69815505
vt 0.031488307 0.9675987
vt 0.031488307 0.9675987
vt 0.031488307 0.9675987
vt 0.031488307 0.9675987
vt 0.022319581 0.8143588
vt 0.01558696 0.8093847
vt 0.02074612 0.8074424
vt 0.022373222 0.81522816
vt 0.031488307 0.9675987
vt 0.031488307 0.9675987
vt 0.031488307 0.9675987
vt 0.031488307 0.9675987
vt 0.031488307 0.9675987
vt 0.031488307 0.9675987
vt 0.031488307 0.9675987
vt 0.031488307 0.9675987
vt 0.031488307 0.9675987
vt 0.031488307 0.9675987
vt 0.031488307 0.9675987
vt 0.031488307 0.9675987
vt 0.031488307 0.9675987
vt 0.031488307 0.9675987
vt 0.031488307 0.9675987
vt 0.031488307 0.9675987
vt 0.031488307 0.9675987
vt 0.031488307 0.9675987
vt 0.031488307 0.9675987
vt 0.031488307 0.9675987
vt 0.041029662 0.7858289
vt 0.03297393 0.78536254
vt 0.040644586 0.7924806
vt 0.030662134 0.77323
vt 0.041721895 0.77387035
vt 0.039849743 0.7733534
vt 0.028350398 0.76109767
vt 0.030841574 0.7728319
vt 0.042414203 0.7619118
vt 0.0386699 0.76087797
vt 0.026038647 0.74896526
vt 0.028709203 0.7603013
vt 0.043106496 0.74995327
vt 0.037490085 0.74840254
vt 0.02535677 0.73561645
vt 0.026576832 0.7477707
vt 0.043874443 0.7366885
vt 0.034996003 0.735851
vt 0.024674863 0.7222676
vt 0.04464239 0.7234236
vt 0.04594302 0.711521
vt 0.023130268 0.73516405
vt 0.030439973 0.72318006
vt 0.017621785 0.722438
vt 0.027981574 0.9618269
vt 0.027981574 0.9618269
vt 0.031488307 0.9675987
vt 0.031488307 0.9675987
vt 0.031488307 0.9675987
vt 0.031488307 0.9675987
vt 0.031488307 0.9675987
vt 0.031488307 0.9675987
vt 0.031488307 0.9675987
vt 0.031488307 0.9675987
vt 0.031488307 0.9675987
vt 0.031488307 0.9675987
vt 0.031488307 0.9675987
vt 0.031488307 0.9675987
vt 0.031488307 0.9675987
vt 0.031488307 0.9675987
vt 0.031488307 0.9675987
vt 0.031488307 0.9675987
vt 0.031488307 0.9675987
vt 0.031488307 0.9675987
vt 0.031488307 0.9675987
vt 0.031488307 0.9675987
vt 0.031488307 0.9675987
vt 0.031488307 0.9675987
vt 0.031488307 0.9675987
vt 0.031488307 0.9675987
vt 0.031488307 0.9675987
vt 0.09112038 0.9002489
vt 0.09112038 0.9002489
vt 0.09112038 0.9002489
vt 0.09112038 0.9002489
vt 0.09112038 0.9002489
vt 0.09112038 0.9002489
vt 0.09112038 0.9002489
vt 0.09112038 0.9002489
vt 0.09112038 0.9002489
vt 0.09112038 0.9002489
vt 0.09112038 0.9002489
vt 0.09112038 0.9002489
vt 0.09112038 0.9002489
vt 0.09112038 0.9002489
vt 0.09112038 0.9002489
vt 0.09112038 0.9002489
vt 0.09112038 0.9002489
vt 0.09112038 0.9002489
vt 0.09112038 0.9002489
vt 0.09112038 0.9002489
vt 0.04492492 0.9645822
vt 0.04492492 0.9645822
vt 0.04492492 0.9645822
vt 0.04492492 0.9645822
vt 0.04492492 0.9645822
vt 0.04492492 0.9645822
vt 0.04492492 0.9645822
vt 0.04492492 0.9645822
vt 0.04492492 0.9645822
vt 0.04492492 0.9645822
vt 0.04492492 0.9645822
vt 0.04492492 0.9645822
vt 0.04492492 0.9645822
vt 0.04492492 0.9645822
vt 0.04492492 0.9645822
vt 0.04492492 0.9645822
vt 0.04492492 0.9645822
vt 0.04492492 0.9645822
vt 0.04492492 0.9645822
vt 0.04492492 0.9645822
vt 0.04492492 0.9645822
vt 0.04492492 0.9645822
vt 0.04492492 0.9645822
vt 0.04492492 0.9645822
vt 0.09112038 0.9002489
vt 0.09112038 0.9002489
vt 0.09112038 0.9002489
vt 0.09112038 0.9002489
vt 0.09112038 0.8953273
vt 0.09112038 0.8953273
vt 0.09112038 0.8953273
vt 0.09112038 0.8953273
vt 0.022319581 0.8143588
vt 0.01558696 0.8093847
vt 0.015477692 0.8087161
vt 0.0224379 0.8136796
vt 0.014577528 0.80782926
vt 0.013677365 0.80694234
vt 0.018006977 0.8090144
vt 0.031488307 0.9675987
vt 0.031488307 0.9675987
vt 0.031488307 0.9675987
vt 0.031488307 0.9675987
vt 0.031488307 0.9675987
vt 0.031488307 0.9675987
vt 0.031488307 0.9675987
vt 0.031488307 0.9675987
vt 0.031488307 0.9675987
vt 0.031488307 0.9675987
vt 0.031488307 0.9675987
vt 0.031488307 0.9675987
vt 0.031488307 0.9675987
vt 0.031488307 0.9675987
vt 0.031488307 0.9675987
vt 0.031488307 0.9675987
vt 0.031488307 0.9675987
vt 0.031488307 0.9675987
vt 0.031488307 0.9675987
vt 0.031488307 0.9675987
vt 0.031488307 0.9675987
vt 0.031488307 0.9675987
vt 0.031488307 0.9675987
vt 0.031488307 0.9675987
vt 0.040676884 0.69815505
vt 0.040676884 0.6981551
vt 0.040676884 0.69815505
vt 0.04067689 0.69815505
vt 0.040676877 0.69815505
vt 0.031488307 0.9675987
vt 0.031488307 0.9675987
vt 0.031488307 0.9675987
vt 0.031488307 0.9675987
vt 0.022319581 0.8143588
vt 0.022373222 0.81522816
vt 0.02074612 0.8074424
vt 0.01558696 0.8093847
vt 0.031488307 0.9675987
vt 0.031488307 0.9675987
vt 0.031488307 0.9675987
vt 0.031488307 0.9675987
vt 0.031488307 0.9675987
vt 0.031488307 0.9675987
vt 0.031488307 0.9675987
vt 0.031488307 0.9675987
vt 0.031488307 0.9675987
vt 0.031488307 0.9675987
vt 0.031488307 0.9675987
vt 0.031488307 0.9675987
vt 0.031488307 0.9675987
vt 0.031488307 0.9675987
vt 0.031488307 0.9675987
vt 0.031488307 0.9675987
vt 0.031488307 0.9675987
vt 0.031488307 0.9675987
vt 0.031488307 0.9675987
vt 0.031488307 0.9675987
vt 0.041029662 0.7858289
vt 0.040644586 0.7924806
vt 0.03297393 0.78536254
vt 0.030662134 0.77323
vt 0.041721895 0.77387035
vt 0.039849743 0.7733534
vt 0.028350398 0.76109767
vt 0.030841574 0.7728319
vt 0.042414203 0.7619118
vt 0.0386699 0.76087797
vt 0.026038647 0.74896526
vt 0.028709203 0.7603013
vt 0.043106496 0.74995327
vt 0.037490085 0.74840254
vt 0.02535677 0.73561645
vt 0.026576832 0.7477707
vt 0.043874443 0.7366885
vt 0.034996003 0.735851
vt 0.024674863 0.7222676
vt 0.04464239 0.7234236
vt 0.04594302 0.711521
vt 0.023130268 0.73516405
vt 0.030439973 0.72318006
vt 0.017621785 0.722438
vt 0.027981574 0.9618269
vt 0.031488307 0.9675987
vt 0.031488307 0.9675987
vt 0.027981574 0.9618269
vt 0.031488307 0.9675987
vt 0.031488307 0.9675987
vt 0.031488307 0.9675987
vt 0.031488307 0.9675987
vt 0.031488307 0.9675987
vt 0.031488307 0.9675987
vt 0.031488307 0.9675987
vt 0.031488307 0.9675987
vt 0.031488307 0.9675987
vt 0.031488307 0.9675987
vt 0.031488307 0.9675987
vt 0.031488307 0.9675987
vt 0.031488307 0.9675987
vt 0.031488307 0.9675987
vt 0.031488307 0.9675987
vt 0.031488307 0.9675987
vt 0.031488307 0.9675987
vt 0.031488307 0.9675987
vt 0.031488307 0.9675987
vt 0.031488307 0.9675987
vt 0.031488307 0.9675987
vt 0.031488307 0.9675987
vt 0.031488307 0.9675987
vt 0.09112038 0.9002489
vt 0.09112038 0.9002489
vt 0.09112038 0.9002489
vt 0.09112038 0.9002489
vt 0.09112038 0.9002489
vt 0.09112038 0.9002489
vt 0.09112038 0.9002489
vt 0.09112038 0.9002489
vt 0.09112038 0.9002489
vt 0.09112038 0.9002489
vt 0.09112038 0.9002489
vt 0.09112038 0.9002489
vt 0.09112038 0.9002489
vt 0.09112038 0.9002489
vt 0.09112038 0.9002489
vt 0.09112038 0.9002489
vt 0.09112038 0.9002489
vt 0.09112038 0.9002489
vt 0.09112038 0.9002489
vt 0.09112038 0.9002489
vt 0.04492492 0.9645822
vt 0.04492492 0.9645822
vt 0.04492492 0.9645822
vt 0.04492492 0.9645822
vt 0.04492492 0.9645822
vt 0.04492492 0.9645822
vt 0.04492492 0.9645822
vt 0.04492492 0.9645822
vt 0.04492492 0.9645822
vt 0.04492492 0.9645822
vt 0.04492492 0.9645822
vt 0.04492492 0.9645822
vt 0.04492492 0.9645822
vt 0.04492492 0.9645822
vt 0.04492492 0.9645822
vt 0.04492492 0.9645822
vt 0.04492492 0.9645822
vt 0.04492492 0.9645822
vt 0.04492492 0.9645822
vt 0.04492492 0.9645822
vt 0.04492492 0.9645822
vt 0.04492492 0.9645822
vt 0.04492492 0.9645822
vt 0.04492492 0.9645822
vt 0.09112038 0.9002489
vt 0.09112038 0.9002489
vt 0.09112038 0.9002489
vt 0.09112038 0.9002489
vt 0.09112038 0.8953273
vt 0.09112038 0.8953273
vt 0.09112038 0.8953273
vt 0.09112038 0.8953273
vt 0.022319581 0.8143588
vt 0.01558696 0.8093847
vt 0.015477692 0.8087161
vt 0.0224379 0.8136796
vt 0.014577528 0.80782926
vt 0.013677365 0.80694234
vt 0.018006977 0.8090144
vt 0.031488307 0.9675987
vt 0.031488307 0.9675987
vt 0.031488307 0.9675987
vt 0.031488307 0.9675987
vt 0.031488307 0.9675987
vt 0.031488307 0.9675987
vt 0.031488307 0.9675987
vt 0.031488307 0.9675987
vt 0.031488307 0.9675987
vt 0.031488307 0.9675987
vt 0.031488307 0.9675987
vt 0.031488307 0.9675987
vt 0.031488307 0.9675987
vt 0.031488307 0.9675987
vt 0.031488307 0.9675987
vt 0.031488307 0.9675987
vt 0.031488307 0.9675987
vt 0.031488307 0.9675987
vt 0.031488307 0.9675987
vt 0.031488307 0.9675987
vt 0.031488307 0.9675987
vt 0.031488307 0.9675987
vt 0.031488307 0.9675987
vt 0.031488307 0.9675987
vt 0.040676884 0.69815505
vt 0.040676884 0.6981551
vt 0.040676884 0.69815505
vt 0.04067689 0.69815505
vt 0.040676877 0.69815505
vt 0.031488307 0.9675987
vt 0.031488307 0.9675987
vt 0.031488307 0.9675987
vt 0.031488307 0.9675987
vt 0.022319581 0.8143588
vt 0.022373222 0.81522816
vt 0.02074612 0.8074424
vt 0.01558696 0.8093847
vt 0.031488307 0.9675987
vt 0.031488307 0.9675987
vt 0.031488307 0.9675987
vt 0.031488307 0.9675987
vt 0.031488307 0.9675987
vt 0.031488307 0.9675987
vt 0.031488307 0.9675987
vt 0.031488307 0.9675987
vt 0.031488307 0.9675987
vt 0.031488307 0.9675987
vt 0.031488307 0.9675987
vt 0.031488307 0.9675987
vt 0.031488307 0.9675987
vt 0.031488307 0.9675987
vt 0.031488307 0.9675987
vt 0.031488307 0.9675987
vt 0.031488307 0.9675987
vt 0.031488307 0.9675987
vt 0.031488307 0.9675987
vt 0.031488307 0.9675987
vt 0.041029662 0.7858289
vt 0.040644586 0.7924806
vt 0.03297393 0.78536254
vt 0.030662134 0.77323
vt 0.041721895 0.77387035
vt 0.039849743 0.7733534
vt 0.028350398 0.76109767
vt 0.030841574 0.7728319
vt 0.042414203 0.7619118
vt 0.0386699 0.76087797
vt 0.026038647 0.74896526
vt 0.028709203 0.7603013
vt 0.043106496 0.74995327
vt 0.037490085 0.74840254
vt 0.02535677 0.73561645
vt 0.026576832 0.7477707
vt 0.043874443 0.7366885
vt 0.034996003 0.735851
vt 0.024674863 0.7222676
vt 0.04464239 0.7234236
vt 0.04594302 0.711521
vt 0.023130268 0.73516405
vt 0.030439973 0.72318006
vt 0.017621785 0.722438
vt 0.027981574 0.9618269
vt 0.031488307 0.9675987
vt 0.031488307 0.9675987
vt 0.027981574 0.9618269
vt 0.031488307 0.9675987
vt 0.031488307 0.9675987
vt 0.031488307 0.9675987
vt 0.031488307 0.9675987
vt 0.031488307 0.9675987
vt 0.031488307 0.9675987
vt 0.031488307 0.9675987
vt 0.031488307 0.9675987
vt 0.031488307 0.9675987
vt 0.031488307 0.9675987
vt 0.031488307 0.9675987
vt 0.031488307 0.9675987
vt 0.031488307 0.9675987
vt 0.031488307 0.9675987
vt 0.031488307 0.9675987
vt 0.031488307 0.9675987
vt 0.031488307 0.9675987
vt 0.031488307 0.9675987
vt 0.031488307 0.9675987
vt 0.031488307 0.9675987
vt 0.031488307 0.9675987
vt 0.031488307 0.9675987
vt 0.031488307 0.9675987
vt 0.09112038 0.9002489
vt 0.09112038 0.9002489
vt 0.09112038 0.9002489
vt 0.09112038 0.9002489
vt 0.09112038 0.9002489
vt 0.09112038 0.9002489
vt 0.09112038 0.9002489
vt 0.09112038 0.9002489
vt 0.09112038 0.9002489
vt 0.09112038 0.9002489
vt 0.09112038 0.9002489
vt 0.09112038 0.9002489
vt 0.09112038 0.9002489
vt 0.09112038 0.9002489
vt 0.09112038 0.9002489
vt 0.09112038 0.9002489
vt 0.09112038 0.9002489
vt 0.09112038 0.9002489
vt 0.09112038 0.9002489
vt 0.09112038 0.9002489
vt 0.04492492 0.9645822
vt 0.04492492 0.9645822
vt 0.04492492 0.9645822
vt 0.04492492 0.9645822
vt 0.04492492 0.9645822
vt 0.04492492 0.9645822
vt 0.04492492 0.9645822
vt 0.04492492 0.9645822
vt 0.04492492 0.9645822
vt 0.04492492 0.9645822
vt 0.04492492 0.9645822
vt 0.04492492 0.9645822
vt 0.04492492 0.9645822
vt 0.04492492 0.9645822
vt 0.04492492 0.9645822
vt 0.04492492 0.9645822
vt 0.04492492 0.9645822
vt 0.04492492 0.9645822
vt 0.04492492 0.9645822
vt 0.04492492 0.9645822
vt 0.04492492 0.9645822
vt 0.04492492 0.9645822
vt 0.04492492 0.9645822
vt 0.04492492 0.9645822
vt 0.09112038 0.9002489
vt 0.09112038 0.9002489
vt 0.09112038 0.9002489
vt 0.09112038 0.9002489
vt 0.09112038 0.8953273
vt 0.09112038 0.8953273
vt 0.09112038 0.8953273
vt 0.09112038 0.8953273
vt 0.015477692 0.8087161
vt 0.01558696 0.8093847
vt 0.022319581 0.8143588
vt 0.0224379 0.8136796
vt 0.014577528 0.80782926
vt 0.013677365 0.80694234
vt 0.018006977 0.8090144
vt 0.031488307 0.9675987
vt 0.031488307 0.9675987
vt 0.031488307 0.9675987
vt 0.031488307 0.9675987
vt 0.031488307 0.9675987
vt 0.031488307 0.9675987
vt 0.031488307 0.9675987
vt 0.031488307 0.9675987
vt 0.031488307 0.9675987
vt 0.031488307 0.9675987
vt 0.031488307 0.9675987
vt 0.031488307 0.9675987
vt 0.031488307 0.9675987
vt 0.031488307 0.9675987
vt 0.031488307 0.9675987
vt 0.031488307 0.9675987
vt 0.031488307 0.9675987
vt 0.031488307 0.9675987
vt 0.031488307 0.9675987
vt 0.031488307 0.9675987
vt 0.031488307 0.9675987
vt 0.031488307 0.9675987
vt 0.031488307 0.9675987
vt 0.031488307 0.9675987
vt 0.040676884 0.69815505
vt 0.040676884 0.6981551
vt 0.040676884 0.69815505
vt 0.04067689 0.69815505
vt 0.040676877 0.69815505
vt 0.031488307 0.9675987
vt 0.031488307 0.9675987
vt 0.031488307 0.9675987
vt 0.031488307 0.9675987
vt 0.022319581 0.8143588
vt 0.01558696 0.8093847
vt 0.02074612 0.8074424
vt 0.022373222 0.81522816
vt 0.031488307 0.9675987
vt 0.031488307 0.9675987
vt 0.031488307 0.9675987
vt 0.031488307 0.9675987
vt 0.031488307 0.9675987
vt 0.031488307 0.9675987
vt 0.031488307 0.9675987
vt 0.031488307 0.9675987
vt 0.031488307 0.9675987
vt 0.031488307 0.9675987
vt 0.031488307 0.9675987
vt 0.031488307 0.9675987
vt 0.031488307 0.9675987
vt 0.031488307 0.9675987
vt 0.031488307 0.9675987
vt 0.031488307 0.9675987
vt 0.031488307 0.9675987
vt 0.031488307 0.9675987
vt 0.031488307 0.9675987
vt 0.031488307 0.9675987
vt 0.041029662 0.7858289
vt 0.03297393 0.78536254
vt 0.040644586 0.7924806
vt 0.030662134 0.77323
vt 0.041721895 0.77387035
vt 0.039849743 0.7733534
vt 0.028350398 0.76109767
vt 0.030841574 0.7728319
vt 0.042414203 0.7619118
vt 0.0386699 0.76087797
vt 0.026038647 0.74896526
vt 0.028709203 0.7603013
vt 0.043106496 0.74995327
vt 0.037490085 0.74840254
vt 0.02535677 0.73561645
vt 0.026576832 0.7477707
vt 0.043874443 0.7366885
vt 0.034996003 0.735851
vt 0.024674863 0.7222676
vt 0.04464239 0.7234236
vt 0.04594302 0.711521
vt 0.023130268 0.73516405
vt 0.030439973 0.72318006
vt 0.017621785 0.722438
vt 0.027981574 0.9618269
vt 0.027981574 0.9618269
vt 0.031488307 0.9675987
vt 0.031488307 0.9675987
vt 0.031488307 0.9675987
vt 0.031488307 0.9675987
vt 0.031488307 0.9675987
vt 0.031488307 0.9675987
vt 0.031488307 0.9675987
vt 0.031488307 0.9675987
vt 0.031488307 0.9675987
vt 0.031488307 0.9675987
vt 0.031488307 0.9675987
vt 0.031488307 0.9675987
vt 0.031488307 0.9675987
vt 0.031488307 0.9675987
vt 0.031488307 0.9675987
vt 0.031488307 0.9675987
vt 0.031488307 0.9675987
vt 0.031488307 0.9675987
vt 0.031488307 0.9675987
vt 0.031488307 0.9675987
vt 0.031488307 0.9675987
vt 0.09112038 0.9002489
vt 0.09112038 0.9002489
vt 0.09112038 0.9002489
vt 0.09112038 0.9002489
vt 0.09112038 0.9002489
vt 0.09112038 0.9002489
vt 0.09112038 0.9002489
vt 0.09112038 0.9002489
vt 0.09112038 0.9002489
vt 0.031488307 0.9675987
vt 0.031488307 0.9675987
vt 0.031488307 0.9675987
vt 0.031488307 0.9675987
vt 0.031488307 0.9675987
vt 0.031488307 0.9675987
vt 0.031488307 0.9675987
vt 0.031488307 0.9675987
vt 0.031488307 0.9675987
vt 0.031488307 0.9675987
vt 0.031488307 0.9675987
vt 0.031488307 0.9675987
vt 0.031488307 0.9675987
vt 0.031488307 0.9675987
vt 0.031488307 0.9675987
vt 0.031488307 0.9675987
vt 0.031488307 0.9675987
vt 0.031488307 0.9675987
vt 0.031488307 0.9675987
vt 0.031488307 0.9675987
vt 0.031488307 0.9675987
vt 0.031488307 0.9675987
vt 0.031488307 0.9675987
vt 0.031488307 0.9675987
vt 0.031488307 0.9675987
vt 0.031488307 0.9675987
vt 0.031488307 0.9675987
vt 0.031488307 0.9675987
vt 0.031488307 0.9675987
vt 0.031488307 0.9675987
vt 0.031488307 0.9675987
vt 0.031488307 0.9675987
vt 0.031488307 0.9675987
vt 0.031488307 0.9675987
vt 0.031488307 0.9675987
vt 0.031488307 0.9675987
vt 0.031488307 0.9675987
vt 0.031488307 0.9675987
vn -0.5214766 -0.65474993 -0.54714227
vn -0.5214766 -0.65474993 -0.54714227
vn -0.5214766 -0.65474993 -0.54714227
vn -0.575227 -0.6971655 0.4278717
vn -0.575227 -0.6971655 0.4278717
vn -0.575227 -0.6971655 0.4278717
vn -0.47305733 -0.6760563 -0.5649467
vn -0.47305733 -0.6760563 -0.5649467
vn -0.47305733 -0.6760563 -0.5649467
vn -0.5255991 -0.7250679 0.44499663
vn -0.5255991 -0.7250679 0.44499663
vn -0.5255991 -0.7250679 0.44499663
vn -0.42702666 -0.6938643 -0.5798282
vn -0.42702666 -0.6938643 -0.5798282
vn -0.42702666 -0.6938643 -0.5798282
vn -0.47745213 -0.74886864 0.45960322
vn -0.47745213 -0.74886864 0.45960322
vn -0.47745213 -0.74886864 0.45960322
vn -0.28826138 -0.7794972 -0.5561381
vn -0.28826138 -0.7794972 -0.5561381
vn -0.28826138 -0.7794972 -0.5561381
vn -0.5100143 -0.84782606 0.14517687
vn -0.5100143 -0.84782606 0.14517687
vn -0.5100143 -0.84782606 0.14517687
vn -0.52147657 0.6547502 -0.5471421
vn -0.52147657 0.6547502 -0.5471421
vn -0.52147657 0.6547502 -0.5471421
vn -0.5752277 0.6971649 0.42787164
vn -0.5752277 0.6971649 0.42787164
vn -0.5752277 0.6971649 0.42787164
vn -0.47305703 0.6760564 -0.5649468
vn -0.47305703 0.6760564 -0.5649468
vn -0.47305703 0.6760564 -0.5649468
vn -0.52559865 0.7250682 0.44499665
vn -0.52559865 0.7250682 0.44499665
vn -0.52559865 0.7250682 0.44499665
vn -0.42702612 0.6938651 -0.5798275
vn -0.42702612 0.6938651 -0.5798275
vn -0.42702612 0.6938651 -0.5798275
vn -0.47745252 0.7488685 0.45960313
vn -0.47745252 0.7488685 0.45960313
vn -0.47745252 0.7488685 0.45960313
vn -0.28826198 0.77949697 -0.556138
vn -0.28826198 0.77949697 -0.556138
vn -0.28826198 0.77949697 -0.556138
vn -0.5100143 0.84782606 0.14517684
vn -0.5100143 0.84782606 0.14517684
vn -0.5100143 0.84782606 0.14517684
vn 0.52147657 -0.65475017 -0.5471421
vn 0.52147657 -0.65475017 -0.5471421
vn 0.52147657 -0.65475017 -0.5471421
vn 0.5752275 -0.69716525 0.4278715
vn 0.5752275 -0.69716525 0.4278715
vn 0.5752275 -0.69716525 0.4278715
vn 0.47305757 -0.6760562 -0.56494653
vn 0.47305757 -0.6760562 -0.56494653
vn 0.47305757 -0.6760562 -0.56494653
vn 0.52559894 -0.72506857 0.44499594
vn 0.52559894 -0.72506857 0.44499594
vn 0.52559894 -0.72506857 0.44499594
vn 0.42702708 -0.693864 -0.5798282
vn 0.42702708 -0.693864 -0.5798282
vn 0.42702708 -0.693864 -0.5798282
vn 0.47745243 -0.7488677 0.4596044
vn 0.47745243 -0.7488677 0.4596044
vn 0.47745243 -0.7488677 0.4596044
vn 0.28826147 -0.7794971 -0.5561381
vn 0.28826147 -0.7794971 -0.5561381
vn 0.28826147 -0.7794971 -0.5561381
vn 0.51001394 -0.8478263 0.14517704
vn 0.51001394 -0.8478263 0.14517704
vn 0.51001394 -0.8478263 0.14517704
vn 0.5214767 0.65474993 -0.54714227
vn 0.5214767 0.65474993 -0.54714227
vn 0.5214767 0.65474993 -0.54714227
vn 0.57522714 0.69716537 0.42787164
vn 0.57522714 0.69716537 0.42787164
vn 0.57522714 0.69716537 0.42787164
vn 0.4730574 0.6760559 -0.56494695
vn 0.4730574 0.6760559 -0.56494695
vn 0.4730574 0.6760559 -0.56494695
vn 0.52559865 0.7250685 0.44499648
vn 0.52559865 0.7250685 0.44499648
vn 0.52559865 0.7250685 0.44499648
vn 0.42702672 0.69386435 -0.57982796
vn 0.42702672 0.69386435 -0.57982796
vn 0.42702672 0.69386435 -0.57982796
vn 0.47745287 0.74886817 0.45960322
vn 0.47745287 0.74886817 0.45960322
vn 0.47745287 0.74886817 0.45960322
vn 0.28826088 0.77949727 -0.55613816
vn 0.28826088 0.77949727 -0.55613816
vn 0.28826088 0.77949727 -0.55613816
vn 0.5100142 0.8478261 0.14517698
vn 0.5100142 0.8478261 0.14517698
vn 0.5100142 0.8478261 0.14517698
vn -0.6860376 -0.46032467 0.5634302
vn -0.6860376 -0.46032467 0.5634302
vn -0.6860376 -0.46032467 0.5634302
vn -0.6860376 -0.46032467 0.5634302
vn -0.8521566 -0.50479174 0.13789316
vn -0.8521566 -0.50479174 0.13789316
vn -0.8521566 -0.50479174 0.13789316
vn -0.8521566 -0.50479174 0.13789316
vn -0.3992056 -0.89199156 0.21209858
vn -0.3992056 -0.89199156 0.21209858
vn -0.3992056 -0.89199156 0.21209858
vn -0.3992056 -0.89199156 0.21209858
vn -0.82491934 -0.48865864 -0.2841142
vn -0.82491934 -0.48865864 -0.2841142
vn -0.82491934 -0.48865864 -0.2841142
vn -0.82491934 -0.48865864 -0.2841142
vn -0.35668865 -0.9337774 0.028859122
vn -0.35668865 -0.9337774 0.028859122
vn -0.35668865 -0.9337774 0.028859122
vn -0.35668865 -0.9337774 0.028859122
vn -0.23626032 -0.96606255 -0.104423195
vn -0.23626032 -0.96606255 -0.104423195
vn -0.23626032 -0.96606255 -0.104423195
vn -0.23626032 -0.96606255 -0.104423195
vn -0.6433167 -0.1065988 -0.7581427
vn -0.6433167 -0.1065988 -0.7581427
vn -0.6433167 -0.1065988 -0.7581427
vn -0.6433167 -0.1065988 -0.7581427
vn -0.7036189 -0.3582575 0.6136547
vn -0.7036189 -0.3582575 0.6136547
vn -0.7036189 -0.3582575 0.6136547
vn -0.7036189 -0.3582575 0.6136547
vn -0.60330576 -0.086261325 -0.79283106
vn -0.60330576 -0.086261325 -0.79283106
vn -0.60330576 -0.086261325 -0.79283106
vn -0.60330576 -0.086261325 -0.79283106
vn -0.66622245 -0.23038952 0.70927304
vn -0.66622245 -0.23038952 0.70927304
vn -0.66622245 -0.23038952 0.70927304
vn -0.66622245 -0.23038952 0.70927304
vn -0.5619835 -0.06594883 -0.8245152
vn -0.5619835 -0.06594883 -0.8245152
vn -0.5619835 -0.06594883 -0.8245152
vn -0.5619835 -0.06594883 -0.8245152
vn -0.6259854 -0.21512638 0.7495753
vn -0.6259854 -0.21512638 0.7495753
vn -0.6259854 -0.21512638 0.7495753
vn -0.6259854 -0.21512638 0.7495753
vn -0.8945011 -0.3796537 0.23607408
vn -0.8945011 -0.3796537 0.23607408
vn -0.8945011 -0.3796537 0.23607408
vn -0.8945011 -0.3796537 0.23607408
vn -0.4003411 -0.9121851 -0.0874389
vn -0.4003411 -0.9121851 -0.0874389
vn -0.4003411 -0.9121851 -0.0874389
vn -0.4003411 -0.9121851 -0.0874389
vn -0.4295234 -0.8986139 0.0894574
vn -0.4295234 -0.8986139 0.0894574
vn -0.4295234 -0.8986139 0.0894574
vn -0.4295234 -0.8986139 0.0894574
vn -0.4295234 -0.8986139 0.0894574
vn -0.4295234 -0.8986139 0.0894574
vn -0.4295234 -0.8986139 0.0894574
vn -0.1752638 -0.9672683 -0.1835063
vn -0.1752638 -0.9672683 -0.1835063
vn -0.1752638 -0.9672683 -0.1835063
vn -0.1752638 -0.9672683 -0.1835063
vn -0.16889599 -0.8841817 0.43554214
vn -0.16889599 -0.8841817 0.43554214
vn -0.16889599 -0.8841817 0.43554214
vn -0.16889599 -0.8841817 0.43554214
vn -0.09926231 -0.9051411 -0.41336015
vn -0.09926231 -0.9051411 -0.41336015
vn -0.09926231 -0.9051411 -0.41336015
vn -0.09926231 -0.9051411 -0.41336015
vn -0.8143079 -0.5202884 -0.25729838
vn -0.8143079 -0.5202884 -0.25729838
vn -0.8143079 -0.5202884 -0.25729838
vn -0.8143079 -0.5202884 -0.25729838
vn -0 0 -1
vn -0 0 -1
vn -0 0 -1
vn -0 0 -1
vn -0 0 -1
vn -0 0 -1
vn -0 0 -1
vn -0 0 -1
vn -0 0 -1
vn -0.7637463 -0.30387262 -0.5695199
vn -0.7637463 -0.30387262 -0.5695199
vn -0.7637463 -0.30387262 -0.5695199
vn -0.7637463 -0.30387262 -0.5695199
vn -0.7028034 -0.6876766 -0.18212174
vn -0.7028034 -0.6876766 -0.18212174
vn -0.7028034 -0.6876766 -0.18212174
vn -0.7028034 -0.6876766 -0.18212174
vn -0.2092292 -0.9775329 -0.02554559
vn -0.2092292 -0.9775329 -0.02554559
vn -0.2092292 -0.9775329 -0.02554559
vn -0.2092292 -0.9775329 -0.02554559
vn -0.2092292 -0.9775329 -0.02554559
vn -0.47214937 -0.5647026 -0.6768943
vn -0.47214937 -0.5647026 -0.6768943
vn -0.47214937 -0.5647026 -0.6768943
vn -0.47214937 -0.5647026 -0.6768943
vn -0.4394277 -0.87254435 -0.21347043
vn -0.4394277 -0.87254435 -0.21347043
vn -0.4394277 -0.87254435 -0.21347043
vn -0.4394277 -0.87254435 -0.21347043
vn 0.31890154 -0.7641374 0.56071013
vn 0.31890154 -0.7641374 0.56071013
vn 0.31890154 -0.7641374 0.56071013
vn 0.31890154 -0.7641374 0.56071013
vn -0.46781 -0.18196173 -0.8648953
vn -0.46781 -0.18196173 -0.8648953
vn -0.46781 -0.18196173 -0.8648953
vn -0.46781 -0.18196173 -0.8648953
vn -0.7123288 -0.66046065 -0.23744364
vn -0.7123288 -0.66046065 -0.23744364
vn -0.7123288 -0.66046065 -0.23744364
vn -0.7123288 -0.66046065 -0.23744364
vn -0.01398515 -0.9998914 -0.0046613794
vn -0.01398515 -0.9998914 -0.0046613794
vn -0.01398515 -0.9998914 -0.0046613794
vn -0.01398515 -0.9998914 -0.0046613794
vn -0.056416802 -0.9976815 0.038062315
vn -0.056416802 -0.9976815 0.038062315
vn -0.056416802 -0.9976815 0.038062315
vn -0.056416802 -0.9976815 0.038062315
vn -0 -0.9064628 0.42228556
vn -0.9145926 0 0.40437642
vn -0 0 1
vn -0.97235703 0 0.23349874
vn -0 -0.9670401 0.254624
vn -0.6944317 -0.67544883 0.24805929
vn -0.9718188 0 0.2357293
vn -0.6946469 -0.67532825 0.24778515
vn -0 -0.9677115 0.25206032
vn -0.6824582 -0.6824582 0.26172802
vn -0.98600346 0 0.16672455
vn -0.6824582 -0.6824582 0.26172802
vn -0 -0.9843349 0.17630926
vn -0.66802204 -0.66802204 0.32786152
vn -0.994383 0 0.10584127
vn -0.66801876 -0.66801876 0.3278749
vn -0 -0.9937558 0.11157703
vn -0.622904 -0.622904 0.47326666
vn -0.93112564 0 -0.3646985
vn -0 -0.93031937 -0.36675027
vn -0 0 -1
vn -0.622904 -0.622904 0.47326666
vn -0.5908831 -0.5908831 0.5492853
vn -0.5908831 -0.5908831 0.5492853
vn 0.4188361 -0.79472804 0.43929905
vn 0.4188361 -0.79472804 0.43929905
vn 0.4188361 -0.79472804 0.43929905
vn 0.4188361 -0.79472804 0.43929905
vn -0.77687216 -0.59336257 0.21069048
vn -0.77687216 -0.59336257 0.21069048
vn -0.77687216 -0.59336257 0.21069048
vn -0.77687216 -0.59336257 0.21069048
vn -0.77687216 -0.59336257 0.21069048
vn -0.77687216 -0.59336257 0.21069048
vn 0.5456429 -0.83249056 -0.09608958
vn 0.5456429 -0.83249056 -0.09608958
vn 0.5456429 -0.83249056 -0.09608958
vn 0.5456429 -0.83249056 -0.09608958
vn 0.5456429 -0.83249056 -0.09608958
vn 0.16542608 -0.8379269 -0.5201084
vn 0.16542608 -0.8379269 -0.5201084
vn 0.16542608 -0.8379269 -0.5201084
vn 0.16542608 -0.8379269 -0.5201084
vn -0.4177285 -0.5501211 0.7230972
vn -0.4177285 -0.5501211 0.7230972
vn -0.4177285 -0.5501211 0.7230972
vn -0.4177285 -0.5501211 0.7230972
vn -0.68603814 0.46032488 0.56342936
vn -0.68603814 0.46032488 0.56342936
vn -0.68603814 0.46032488 0.56342936
vn -0.68603814 0.46032488 0.56342936
vn -0.85215646 0.5047918 0.1378931
vn -0.85215646 0.5047918 0.1378931
vn -0.85215646 0.5047918 0.1378931
vn -0.85215646 0.5047918 0.1378931
vn -0.39920563 0.89199156 0.21209852
vn -0.39920563 0.89199156 0.21209852
vn -0.39920563 0.89199156 0.21209852
vn -0.39920563 0.89199156 0.21209852
vn -0.8249195 0.48865843 -0.28411412
vn -0.8249195 0.48865843 -0.28411412
vn -0.8249195 0.48865843 -0.28411412
vn -0.8249195 0.48865843 -0.28411412
vn -0.35668883 0.9337774 0.028859053
vn -0.35668883 0.9337774 0.028859053
vn -0.35668883 0.9337774 0.028859053
vn -0.35668883 0.9337774 0.028859053
vn -0.23626034 0.96606255 -0.10442317
vn -0.23626034 0.96606255 -0.10442317
vn -0.23626034 0.96606255 -0.10442317
vn -0.23626034 0.96606255 -0.10442317
vn -0.6433168 0.106599 -0.7581426
vn -0.6433168 0.106599 -0.7581426
vn -0.6433168 0.106599 -0.7581426
vn -0.6433168 0.106599 -0.7581426
vn -0.70361876 0.35825807 0.61365443
vn -0.70361876 0.35825807 0.61365443
vn -0.70361876 0.35825807 0.61365443
vn -0.70361876 0.35825807 0.61365443
vn -0.60330576 0.08626016 -0.7928312
vn -0.60330576 0.08626016 -0.7928312
vn -0.60330576 0.08626016 -0.7928312
vn -0.60330576 0.08626016 -0.7928312
vn -0.66622275 0.23038915 0.70927286
vn -0.66622275 0.23038915 0.70927286
vn -0.66622275 0.23038915 0.70927286
vn -0.66622275 0.23038915 0.70927286
vn -0.5619833 0.065949135 -0.8245153
vn -0.5619833 0.065949135 -0.8245153
vn -0.5619833 0.065949135 -0.8245153
vn -0.5619833 0.065949135 -0.8245153
vn -0.6259856 0.2151265 0.74957496
vn -0.6259856 0.2151265 0.74957496
vn -0.6259856 0.2151265 0.74957496
vn -0.6259856 0.2151265 0.74957496
vn -0.8945009 0.37965426 0.23607387
vn -0.8945009 0.37965426 0.23607387
vn -0.8945009 0.37965426 0.23607387
vn -0.8945009 0.37965426 0.23607387
vn -0.4003411 0.9121851 -0.08743903
vn -0.4003411 0.9121851 -0.08743903
vn -0.4003411 0.9121851 -0.08743903
vn -0.4003411 0.9121851 -0.08743903
vn -0.42952344 0.8986139 0.089457326
vn -0.42952344 0.8986139 0.089457326
vn -0.42952344 0.8986139 0.089457326
vn -0.42952344 0.8986139 0.089457326
vn -0.42952344 0.8986139 0.089457326
vn -0.42952344 0.8986139 0.089457326
vn -0.42952344 0.8986139 0.089457326
vn -0.1752643 0.9672683 -0.18350632
vn -0.1752643 0.9672683 -0.18350632
vn -0.1752643 0.9672683 -0.18350632
vn -0.1752643 0.9672683 -0.18350632
vn -0.16889611 0.88418174 0.43554202
vn -0.16889611 0.88418174 0.43554202
vn -0.16889611 0.88418174 0.43554202
vn -0.16889611 0.88418174 0.43554202
vn -0.09926262 0.90514094 -0.4133604
vn -0.09926262 0.90514094 -0.4133604
vn -0.09926262 0.90514094 -0.4133604
vn -0.09926262 0.90514094 -0.4133604
vn -0.81430787 0.5202885 -0.25729847
vn -0.81430787 0.5202885 -0.25729847
vn -0.81430787 0.5202885 -0.25729847
vn -0.81430787 0.5202885 -0.25729847
vn -0.7637465 0.3038725 -0.56951976
vn -0.7637465 0.3038725 -0.56951976
vn -0.7637465 0.3038725 -0.56951976
vn -0.7637465 0.3038725 -0.56951976
vn -0.70280355 0.6876763 -0.18212199
vn -0.70280355 0.6876763 -0.18212199
vn -0.70280355 0.6876763 -0.18212199
vn -0.70280355 0.6876763 -0.18212199
vn -0.20922902 0.9775329 -0.025545899
vn -0.20922902 0.9775329 -0.025545899
vn -0.20922902 0.9775329 -0.025545899
vn -0.20922902 0.9775329 -0.025545899
vn -0.20922902 0.9775329 -0.025545899
vn -0.4721492 0.56470245 -0.6768945
vn -0.4721492 0.56470245 -0.6768945
vn -0.4721492 0.56470245 -0.6768945
vn -0.4721492 0.56470245 -0.6768945
vn -0.43942755 0.8725444 -0.2134704
vn -0.43942755 0.8725444 -0.2134704
vn -0.43942755 0.8725444 -0.2134704
vn -0.43942755 0.8725444 -0.2134704
vn 0.31890044 0.76413774 0.5607102
vn 0.31890044 0.76413774 0.5607102
vn 0.31890044 0.76413774 0.5607102
vn 0.31890044 0.76413774 0.5607102
vn -0.46781173 0.1819622 -0.8648942
vn -0.46781173 0.1819622 -0.8648942
vn -0.46781173 0.1819622 -0.8648942
vn -0.46781173 0.1819622 -0.8648942
vn -0.71232873 0.6604606 -0.23744385
vn -0.71232873 0.6604606 -0.23744385
vn -0.71232873 0.6604606 -0.23744385
vn -0.71232873 0.6604606 -0.23744385
vn -0.013985584 0.9998914 -0.004661808
vn -0.013985584 0.9998914 -0.004661808
vn -0.013985584 0.9998914 -0.004661808
vn -0.013985584 0.9998914 -0.004661808
vn -0.056416623 0.9976815 0.038061593
vn -0.056416623 0.9976815 0.038061593
vn -0.056416623 0.9976815 0.038061593
vn -0.056416623 0.9976815 0.038061593
vn -0 0.9064628 0.42228556
vn -0 0 1
vn -0.9145926 0 0.40437642
vn -0.97235703 0 0.23349874
vn -0 0.9670401 0.254624
vn -0.6944317 0.67544883 0.24805929
vn -0.9718188 0 0.2357293
vn -0.6946469 0.67532825 0.24778515
vn -0 0.9677115 0.25206032
vn -0.6824582 0.6824582 0.26172802
vn -0.98600346 0 0.16672455
vn -0.6824582 0.6824582 0.26172802
vn -0 0.9843349 0.17630926
vn -0.66802204 0.66802204 0.32786152
vn -0.994383 0 0.10584127
vn -0.66801876 0.66801876 0.3278749
vn -0 0.9937558 0.11157703
vn -0.622904 0.622904 0.47326666
vn -0.93112564 0 -0.3646985
vn -0 0.93031937 -0.36675027
vn -0 0 -1
vn -0.622904 0.622904 0.47326666
vn -0.5908831 0.5908831 0.5492853
vn -0.590893 0.590893 0.549264
vn 0.4188365 0.79472804 0.4392986
vn 0.4188365 0.79472804 0.4392986
vn 0.4188365 0.79472804 0.4392986
vn 0.4188365 0.79472804 0.4392986
vn -0.77687275 0.5933619 0.21069035
vn -0.77687275 0.5933619 0.21069035
vn -0.77687275 0.5933619 0.21069035
vn -0.77687275 0.5933619 0.21069035
vn -0.77687275 0.5933619 0.21069035
vn -0.77687275 0.5933619 0.21069035
vn 0.54564285 0.8324907 -0.09608944
vn 0.54564285 0.8324907 -0.09608944
vn 0.54564285 0.8324907 -0.09608944
vn 0.54564285 0.8324907 -0.09608944
vn 0.54564285 0.8324907 -0.09608944
vn 0.16542609 0.83792704 -0.5201081
vn 0.16542609 0.83792704 -0.5201081
vn 0.16542609 0.83792704 -0.5201081
vn 0.16542609 0.83792704 -0.5201081
vn -0.41772833 0.5501212 0.72309726
vn -0.41772833 0.5501212 0.72309726
vn -0.41772833 0.5501212 0.72309726
vn -0.41772833 0.5501212 0.72309726
vn 0.68603814 -0.46032524 0.5634291
vn 0.68603814 -0.46032524 0.5634291
vn 0.68603814 -0.46032524 0.5634291
vn 0.68603814 -0.46032524 0.5634291
vn 0.8521556 -0.5047933 0.13789323
vn 0.8521556 -0.5047933 0.13789323
vn 0.8521556 -0.5047933 0.13789323
vn 0.8521556 -0.5047933 0.13789323
vn 0.39920595 -0.8919915 0.21209855
vn 0.39920595 -0.8919915 0.21209855
vn 0.39920595 -0.8919915 0.21209855
vn 0.39920595 -0.8919915 0.21209855
vn 0.82491916 -0.48865902 -0.28411382
vn 0.82491916 -0.48865902 -0.28411382
vn 0.82491916 -0.48865902 -0.28411382
vn 0.82491916 -0.48865902 -0.28411382
vn 0.35668892 -0.9337773 0.028859224
vn 0.35668892 -0.9337773 0.028859224
vn 0.35668892 -0.9337773 0.028859224
vn 0.35668892 -0.9337773 0.028859224
vn 0.23626044 -0.96606255 -0.10442309
vn 0.23626044 -0.96606255 -0.10442309
vn 0.23626044 -0.96606255 -0.10442309
vn 0.23626044 -0.96606255 -0.10442309
vn 0.64331716 -0.10659774 -0.7581424
vn 0.64331716 -0.10659774 -0.7581424
vn 0.64331716 -0.10659774 -0.7581424
vn 0.64331716 -0.10659774 -0.7581424
vn 0.70361876 -0.35825765 0.61365473
vn 0.70361876 -0.35825765 0.61365473
vn 0.70361876 -0.35825765 0.61365473
vn 0.70361876 -0.35825765 0.61365473
vn 0.603306 -0.08625988 -0.792831
vn 0.603306 -0.08625988 -0.792831
vn 0.603306 -0.08625988 -0.792831
vn 0.603306 -0.08625988 -0.792831
vn 0.6662226 -0.23038885 0.7092731
vn 0.6662226 -0.23038885 0.7092731
vn 0.6662226 -0.23038885 0.7092731
vn 0.6662226 -0.23038885 0.7092731
vn 0.5619838 -0.06595051 -0.8245149
vn 0.5619838 -0.06595051 -0.8245149
vn 0.5619838 -0.06595051 -0.8245149
vn 0.5619838 -0.06595051 -0.8245149
vn 0.62598515 -0.2151262 0.74957544
vn 0.62598515 -0.2151262 0.74957544
vn 0.62598515 -0.2151262 0.74957544
vn 0.62598515 -0.2151262 0.74957544
vn 0.8945009 -0.37965396 0.23607434
vn 0.8945009 -0.37965396 0.23607434
vn 0.8945009 -0.37965396 0.23607434
vn 0.8945009 -0.37965396 0.23607434
vn 0.4003412 -0.91218495 -0.08743906
vn 0.4003412 -0.91218495 -0.08743906
vn 0.4003412 -0.91218495 -0.08743906
vn 0.4003412 -0.91218495 -0.08743906
vn 0.4295234 -0.8986139 0.08945751
vn 0.4295234 -0.8986139 0.08945751
vn 0.4295234 -0.8986139 0.08945751
vn 0.4295234 -0.8986139 0.08945751
vn 0.4295234 -0.8986139 0.08945751
vn 0.4295234 -0.8986139 0.08945751
vn 0.4295234 -0.8986139 0.08945751
vn 0.17526415 -0.9672683 -0.1835064
vn 0.17526415 -0.9672683 -0.1835064
vn 0.17526415 -0.9672683 -0.1835064
vn 0.17526415 -0.9672683 -0.1835064
vn 0.16889605 -0.88418186 0.43554193
vn 0.16889605 -0.88418186 0.43554193
vn 0.16889605 -0.88418186 0.43554193
vn 0.16889605 -0.88418186 0.43554193
vn 0.09926237 -0.90514123 -0.41335982
vn 0.09926237 -0.90514123 -0.41335982
vn 0.09926237 -0.90514123 -0.41335982
vn 0.09926237 -0.90514123 -0.41335982
vn 0.8143078 -0.52028894 -0.25729802
vn 0.8143078 -0.52028894 -0.25729802
vn 0.8143078 -0.52028894 -0.25729802
vn 0.8143078 -0.52028894 -0.25729802
vn 0.7637462 -0.303873 -0.56952
vn 0.7637462 -0.303873 -0.56952
vn 0.7637462 -0.303873 -0.56952
vn 0.7637462 -0.303873 -0.56952
vn 0.702803 -0.68767697 -0.18212189
vn 0.702803 -0.68767697 -0.18212189
vn 0.702803 -0.68767697 -0.18212189
vn 0.702803 -0.68767697 -0.18212189
vn 0.20922923 -0.9775329 -0.025545547
vn 0.20922923 -0.9775329 -0.025545547
vn 0.20922923 -0.9775329 -0.025545547
vn 0.20922923 -0.9775329 -0.025545547
vn 0.20922923 -0.9775329 -0.025545547
vn 0.4721497 -0.564702 -0.67689455
vn 0.4721497 -0.564702 -0.67689455
vn 0.4721497 -0.564702 -0.67689455
vn 0.4721497 -0.564702 -0.67689455
vn 0.43942767 -0.8725444 -0.21347022
vn 0.43942767 -0.8725444 -0.21347022
vn 0.43942767 -0.8725444 -0.21347022
vn 0.43942767 -0.8725444 -0.21347022
vn -0.31890157 -0.7641378 0.5607095
vn -0.31890157 -0.7641378 0.5607095
vn -0.31890157 -0.7641378 0.5607095
vn -0.31890157 -0.7641378 0.5607095
vn 0.4678099 -0.1819609 -0.86489546
vn 0.4678099 -0.1819609 -0.86489546
vn 0.4678099 -0.1819609 -0.86489546
vn 0.4678099 -0.1819609 -0.86489546
vn 0.7123259 -0.6604641 -0.23744285
vn 0.7123259 -0.6604641 -0.23744285
vn 0.7123259 -0.6604641 -0.23744285
vn 0.7123259 -0.6604641 -0.23744285
vn 0.013985181 -0.9998914 -0.0046613896
vn 0.013985181 -0.9998914 -0.0046613896
vn 0.013985181 -0.9998914 -0.0046613896
vn 0.013985181 -0.9998914 -0.0046613896
vn 0.056416683 -0.9976815 0.038061872
vn 0.056416683 -0.9976815 0.038061872
vn 0.056416683 -0.9976815 0.038061872
vn 0.056416683 -0.9976815 0.038061872
vn -0 -0.9064628 0.42228556
vn -0 0 1
vn 0.9145926 0 0.40437642
vn 0.97235703 0 0.23349874
vn -0 -0.9670401 0.254624
vn 0.6944317 -0.67544883 0.24805929
vn 0.9718188 0 0.2357293
vn 0.6946612 -0.6753116 0.24779025
vn -0 -0.9677115 0.25206032
vn 0.6824582 -0.6824582 0.26172802
vn 0.98600346 0 0.16672455
vn 0.6824582 -0.6824582 0.26172802
vn -0 -0.9843349 0.17630926
vn 0.66802204 -0.66802204 0.32786152
vn 0.994383 0 0.10584127
vn 0.66801876 -0.66801876 0.3278749
vn -0 -0.9937558 0.11157703
vn 0.622904 -0.622904 0.47326666
vn 0.93112564 0 -0.3646985
vn -0 -0.93031937 -0.36675027
vn -0 0 -1
vn 0.622904 -0.622904 0.47326666
vn 0.590893 -0.590893 0.549264
vn 0.590893 -0.590893 0.549264
vn -0.4188357 -0.7947286 0.43929842
vn -0.4188357 -0.7947286 0.43929842
vn -0.4188357 -0.7947286 0.43929842
vn -0.4188357 -0.7947286 0.43929842
vn 0.7768725 -0.5933622 0.21069068
vn 0.7768725 -0.5933622 0.21069068
vn 0.7768725 -0.5933622 0.21069068
vn 0.7768725 -0.5933622 0.21069068
vn 0.7768725 -0.5933622 0.21069068
vn 0.7768725 -0.5933622 0.21069068
vn -0.54564345 -0.83249027 -0.09608976
vn -0.54564345 -0.83249027 -0.09608976
vn -0.54564345 -0.83249027 -0.09608976
vn -0.54564345 -0.83249027 -0.09608976
vn -0.54564345 -0.83249027 -0.09608976
vn -0.1654259 -0.8379267 -0.5201087
vn -0.1654259 -0.8379267 -0.5201087
vn -0.1654259 -0.8379267 -0.5201087
vn -0.1654259 -0.8379267 -0.5201087
vn 0.41772854 -0.5501213 0.72309715
vn 0.41772854 -0.5501213 0.72309715
vn 0.41772854 -0.5501213 0.72309715
vn 0.41772854 -0.5501213 0.72309715
vn 0.68603814 0.46032545 0.563429
vn 0.68603814 0.46032545 0.563429
vn 0.68603814 0.46032545 0.563429
vn 0.68603814 0.46032545 0.563429
vn 0.8521556 0.5047933 0.13789317
vn 0.8521556 0.5047933 0.13789317
vn 0.8521556 0.5047933 0.13789317
vn 0.8521556 0.5047933 0.13789317
vn 0.39920565 0.89199156 0.21209855
vn 0.39920565 0.89199156 0.21209855
vn 0.39920565 0.89199156 0.21209855
vn 0.39920565 0.89199156 0.21209855
vn 0.8249194 0.48865873 -0.28411376
vn 0.8249194 0.48865873 -0.28411376
vn 0.8249194 0.48865873 -0.28411376
vn 0.8249194 0.48865873 -0.28411376
vn 0.35668877 0.9337774 0.028859144
vn 0.35668877 0.9337774 0.028859144
vn 0.35668877 0.9337774 0.028859144
vn 0.35668877 0.9337774 0.028859144
vn 0.23626022 0.96606266 -0.104423076
vn 0.23626022 0.96606266 -0.104423076
vn 0.23626022 0.96606266 -0.104423076
vn 0.23626022 0.96606266 -0.104423076
vn 0.64331716 0.10659738 -0.75814235
vn 0.64331716 0.10659738 -0.75814235
vn 0.64331716 0.10659738 -0.75814235
vn 0.64331716 0.10659738 -0.75814235
vn 0.7036188 0.35825703 0.6136549
vn 0.7036188 0.35825703 0.6136549
vn 0.7036188 0.35825703 0.6136549
vn 0.7036188 0.35825703 0.6136549
vn 0.60330606 0.08625954 -0.792831
vn 0.60330606 0.08625954 -0.792831
vn 0.60330606 0.08625954 -0.792831
vn 0.60330606 0.08625954 -0.792831
vn 0.66622263 0.23039019 0.7092726
vn 0.66622263 0.23039019 0.7092726
vn 0.66622263 0.23039019 0.7092726
vn 0.66622263 0.23039019 0.7092726
vn 0.5619833 0.0659517 -0.82451516
vn 0.5619833 0.0659517 -0.82451516
vn 0.5619833 0.0659517 -0.82451516
vn 0.5619833 0.0659517 -0.82451516
vn 0.6259858 0.21512632 0.74957484
vn 0.6259858 0.21512632 0.74957484
vn 0.6259858 0.21512632 0.74957484
vn 0.6259858 0.21512632 0.74957484
vn 0.8945009 0.37965387 0.23607431
vn 0.8945009 0.37965387 0.23607431
vn 0.8945009 0.37965387 0.23607431
vn 0.8945009 0.37965387 0.23607431
vn 0.40034142 0.9121849 -0.08743912
vn 0.40034142 0.9121849 -0.08743912
vn 0.40034142 0.9121849 -0.08743912
vn 0.40034142 0.9121849 -0.08743912
vn 0.42952323 0.89861405 0.08945748
vn 0.42952323 0.89861405 0.08945748
vn 0.42952323 0.89861405 0.08945748
vn 0.42952323 0.89861405 0.08945748
vn 0.42952323 0.89861405 0.08945748
vn 0.42952323 0.89861405 0.08945748
vn 0.42952323 0.89861405 0.08945748
vn 0.1752642 0.9672683 -0.18350628
vn 0.1752642 0.9672683 -0.18350628
vn 0.1752642 0.9672683 -0.18350628
vn 0.1752642 0.9672683 -0.18350628
vn 0.16889611 0.88418174 0.43554196
vn 0.16889611 0.88418174 0.43554196
vn 0.16889611 0.88418174 0.43554196
vn 0.16889611 0.88418174 0.43554196
vn 0.09926248 0.90514094 -0.41336036
vn 0.09926248 0.90514094 -0.41336036
vn 0.09926248 0.90514094 -0.41336036
vn 0.09926248 0.90514094 -0.41336036
vn 0.8143076 0.5202892 -0.25729817
vn 0.8143076 0.5202892 -0.25729817
vn 0.8143076 0.5202892 -0.25729817
vn 0.8143076 0.5202892 -0.25729817
vn 0.7637466 0.30387232 -0.56951964
vn 0.7637466 0.30387232 -0.56951964
vn 0.7637466 0.30387232 -0.56951964
vn 0.7637466 0.30387232 -0.56951964
vn 0.70280325 0.6876768 -0.18212181
vn 0.70280325 0.6876768 -0.18212181
vn 0.70280325 0.6876768 -0.18212181
vn 0.70280325 0.6876768 -0.18212181
vn 0.20922893 0.9775329 -0.025545845
vn 0.20922893 0.9775329 -0.025545845
vn 0.20922893 0.9775329 -0.025545845
vn 0.20922893 0.9775329 -0.025545845
vn 0.20922893 0.9775329 -0.025545845
vn 0.47214934 0.56470233 -0.67689455
vn 0.47214934 0.56470233 -0.67689455
vn 0.47214934 0.56470233 -0.67689455
vn 0.47214934 0.56470233 -0.67689455
vn 0.4394278 0.87254435 -0.21347031
vn 0.4394278 0.87254435 -0.21347031
vn 0.4394278 0.87254435 -0.21347031
vn 0.4394278 0.87254435 -0.21347031
vn -0.31890073 0.76413804 0.5607098
vn -0.31890073 0.76413804 0.5607098
vn -0.31890073 0.76413804 0.5607098
vn -0.31890073 0.76413804 0.5607098
vn 0.4678105 0.18196113 -0.8648951
vn 0.4678105 0.18196113 -0.8648951
vn 0.4678105 0.18196113 -0.8648951
vn 0.4678105 0.18196113 -0.8648951
vn 0.7123255 0.6604645 -0.23744257
vn 0.7123255 0.6604645 -0.23744257
vn 0.7123255 0.6604645 -0.23744257
vn 0.7123255 0.6604645 -0.23744257
vn 0.013985386 0.9998914 -0.0046618157
vn 0.013985386 0.9998914 -0.0046618157
vn 0.013985386 0.9998914 -0.0046618157
vn 0.013985386 0.9998914 -0.0046618157
vn 0.05641632 0.9976815 0.038062233
vn 0.05641632 0.9976815 0.038062233
vn 0.05641632 0.9976815 0.038062233
vn 0.05641632 0.9976815 0.038062233
vn -0 0.9064628 0.42228556
vn 0.9145926 0 0.40437642
vn -0 0 1
vn 0.97235703 0 0.23349874
vn -0 0.9670401 0.254624
vn 0.6944317 0.67544883 0.24805929
vn 0.9718188 0 0.2357293
vn 0.6946612 0.6753116 0.24779025
vn -0 0.9677115 0.25206032
vn 0.6824582 0.6824582 0.26172802
vn 0.98600346 0 0.16672455
vn 0.6824582 0.6824582 0.26172802
vn -0 0.9843349 0.17630926
vn 0.66802204 0.66802204 0.32786152
vn 0.994383 0 0.10584127
vn 0.66801876 0.66801876 0.3278749
vn -0 0.9937558 0.11157703
vn 0.622904 0.622904 0.47326666
vn 0.93112564 0 -0.3646985
vn -0 0.93031937 -0.36675027
vn -0 0 -1
vn 0.622904 0.622904 0.47326666
vn 0.5908831 0.5908831 0.5492853
vn 0.5908831 0.5908831 0.5492853
vn -0.41883585 0.7947287 0.43929797
vn -0.41883585 0.7947287 0.43929797
vn -0.41883585 0.7947287 0.43929797
vn -0.41883585 0.7947287 0.43929797
vn 0.7768722 0.59336245 0.21069054
vn 0.7768722 0.59336245 0.21069054
vn 0.7768722 0.59336245 0.21069054
vn 0.7768722 0.59336245 0.21069054
vn 0.7768722 0.59336245 0.21069054
vn 0.7768722 0.59336245 0.21069054
vn -0.54564303 0.8324905 -0.09608969
vn -0.54564303 0.8324905 -0.09608969
vn -0.54564303 0.8324905 -0.09608969
vn -0.54564303 0.8324905 -0.09608969
vn -0.54564303 0.8324905 -0.09608969
vn -0.16542618 0.8379271 -0.5201079
vn -0.16542618 0.8379271 -0.5201079
vn -0.16542618 0.8379271 -0.5201079
vn -0.16542618 0.8379271 -0.5201079
vn 0.41772813 0.5501215 0.7230972
vn 0.41772813 0.5501215 0.7230972
vn 0.41772813 0.5501215 0.7230972
vn 0.41772813 0.5501215 0.7230972
vn -0 0 1
vn -0 0 1
vn -0 0 1
vn -0 0 1
vn -0 0 1
vn -0 0 1
vn -0 0 1
vn -0 0 1
vn -0 0 1
vn -0.16443898 -0.6601364 -0.73292536
vn -0 -0.6083028 -0.7937051
vn -0 0 -1
vn -0 -0.9965485 -0.08301265
vn 0.16443898 -0.6601364 -0.73292536
vn -0.6173956 0 -0.7866529
vn -0.4516189 -0.89215946 0.009582939
vn -0.69641715 -0.012024556 -0.7175364
vn -0.96233666 -0.27180547 -0.005462967
vn -0.9985201 0 -0.05438483
vn -0.5008414 0 0.86553913
vn -0.60284734 0.15525158 0.7826059
vn -0 -0.54776484 0.8366324
vn 0.026887411 -0.60769826 0.79371274
vn 0.4516189 -0.89215946 0.009582939
vn -0.026887411 -0.60769826 0.79371274
vn 0.60284734 0.15525158 0.7826059
vn 0.5008414 0 0.86553913
vn 0.96233666 -0.27180547 -0.005462967
vn -0 0 1
vn -0 0.54776484 0.8366324
vn -0.96233666 0.27180547 -0.005462967
vn -0.60284734 -0.15525158 0.7826059
vn -0.69641715 0.012024556 -0.7175364
vn -0.16443898 0.6601364 -0.73292536
vn -0.4516189 0.89215946 0.009582939
vn -0 0.9965485 -0.08301265
vn -0 0.6083028 -0.7937051
vn 0.026887411 0.60769826 0.79371274
vn 0.16443898 0.6601364 -0.73292536
vn 0.6173956 0 -0.7866529
vn 0.69641715 -0.012024556 -0.7175364
vn 0.9985201 0 -0.05438483
vn 0.69641715 0.012024556 -0.7175364
vn 0.96233666 0.27180547 -0.005462967
vn 0.60284734 -0.15525158 0.7826059
vn 0.4516189 0.89215946 0.009582939
vn -0.026887411 0.60769826 0.79371274
g ShortSword09_0
f 3/3/3 2/2/2 1/1/1
f 6/6/6 5/5/5 4/4/4
f 9/9/9 8/8/8 7/7/7
f 12/12/12 11/11/11 10/10/10
f 15/15/15 14/14/14 13/13/13
f 18/18/18 17/17/17 16/16/16
f 21/21/21 20/20/20 19/19/19
f 24/24/24 23/23/23 22/22/22
f 27/27/27 26/26/26 25/25/25
f 30/30/30 29/29/29 28/28/28
f 33/33/33 32/32/32 31/31/31
f 36/36/36 35/35/35 34/34/34
f 39/39/39 38/38/38 37/37/37
f 42/42/42 41/41/41 40/40/40
f 45/45/45 44/44/44 43/43/43
f 48/48/48 47/47/47 46/46/46
f 51/51/51 50/50/50 49/49/49
f 54/54/54 53/53/53 52/52/52
f 57/57/57 56/56/56 55/55/55
f 60/60/60 59/59/59 58/58/58
f 63/63/63 62/62/62 61/61/61
f 66/66/66 65/65/65 64/64/64
f 69/69/69 68/68/68 67/67/67
f 72/72/72 71/71/71 70/70/70
f 75/75/75 74/74/74 73/73/73
f 78/78/78 77/77/77 76/76/76
f 81/81/81 80/80/80 79/79/79
f 84/84/84 83/83/83 82/82/82
f 87/87/87 86/86/86 85/85/85
f 90/90/90 89/89/89 88/88/88
f 93/93/93 92/92/92 91/91/91
f 96/96/96 95/95/95 94/94/94
f 99/99/99 98/98/98 97/97/97
f 100/100/100 99/99/99 97/97/97
f 103/103/103 102/102/102 101/101/101
f 104/104/104 103/103/103 101/101/101
f 107/107/107 106/106/106 105/105/105
f 108/108/108 107/107/107 105/105/105
f 111/111/111 110/110/110 109/109/109
f 112/112/112 111/111/111 109/109/109
f 115/115/115 114/114/114 113/113/113
f 116/116/116 115/115/115 113/113/113
f 119/119/119 118/118/118 117/117/117
f 120/120/120 119/119/119 117/117/117
f 123/123/123 122/122/122 121/121/121
f 124/124/124 123/123/123 121/121/121
f 127/127/127 126/126/126 125/125/125
f 128/128/128 127/127/127 125/125/125
f 131/131/131 130/130/130 129/129/129
f 132/132/132 131/131/131 129/129/129
f 135/135/135 134/134/134 133/133/133
f 136/136/136 135/135/135 133/133/133
f 139/139/139 138/138/138 137/137/137
f 140/140/140 139/139/139 137/137/137
f 143/143/143 142/142/142 141/141/141
f 144/144/144 143/143/143 141/141/141
f 147/147/147 146/146/146 145/145/145
f 148/148/148 147/147/147 145/145/145
f 151/151/151 150/150/150 149/149/149
f 152/152/152 151/151/151 149/149/149
f 155/155/155 154/154/154 153/153/153
f 153/153/153 156/156/156 155/155/155
f 153/153/153 157/157/157 156/156/156
f 157/157/157 158/158/158 156/156/156
f 158/158/158 159/159/159 156/156/156
f 162/162/162 161/161/161 160/160/160
f 163/163/163 162/162/162 160/160/160
f 166/166/166 165/165/165 164/164/164
f 167/167/167 166/166/166 164/164/164
f 170/170/170 169/169/169 168/168/168
f 171/171/171 170/170/170 168/168/168
f 174/174/174 173/173/173 172/172/172
f 175/175/175 174/174/174 172/172/172
f 178/178/178 177/177/177 176/176/176
f 177/177/177 179/179/179 176/176/176
f 179/179/179 180/180/180 176/176/176
f 180/180/180 181/181/181 176/176/176
f 179/179/179 177/177/177 182/182/182
f 180/180/180 179/179/179 182/182/182
f 177/177/177 183/183/183 182/182/182
f 184/184/184 180/180/180 182/182/182
f 187/187/187 186/186/186 185/185/185
f 188/188/188 187/187/187 185/185/185
f 191/191/191 190/190/190 189/189/189
f 192/192/192 191/191/191 189/189/189
f 195/195/195 194/194/194 193/193/193
f 193/193/193 196/196/196 195/195/195
f 196/196/196 197/197/197 195/195/195
f 200/200/200 199/199/199 198/198/198
f 201/201/201 200/200/200 198/198/198
f 204/204/204 203/203/203 202/202/202
f 205/205/205 204/204/204 202/202/202
f 208/208/208 207/207/207 206/206/206
f 209/209/209 208/208/208 206/206/206
f 212/212/212 211/211/211 210/210/210
f 213/213/213 212/212/212 210/210/210
f 216/216/216 215/215/215 214/214/214
f 217/217/217 216/216/216 214/214/214
f 220/220/220 219/219/219 218/218/218
f 221/221/221 220/220/220 218/218/218
f 224/224/224 223/223/223 222/222/222
f 225/225/225 224/224/224 222/222/222
f 228/228/228 227/227/227 226/226/226
f 227/227/227 229/229/229 226/226/226
f 229/229/229 230/230/230 226/226/226
f 231/231/231 226/226/226 227/227/227
f 229/229/229 232/232/232 230/230/230
f 233/233/233 231/231/231 227/227/227
f 232/232/232 234/234/234 230/230/230
f 235/235/235 231/231/231 233/233/233
f 232/232/232 236/236/236 234/234/234
f 237/237/237 235/235/235 233/233/233
f 236/236/236 238/238/238 234/234/234
f 239/239/239 235/235/235 237/237/237
f 236/236/236 240/240/240 238/238/238
f 241/241/241 239/239/239 237/237/237
f 240/240/240 242/242/242 238/238/238
f 243/243/243 239/239/239 241/241/241
f 240/240/240 244/244/244 242/242/242
f 244/244/244 245/245/245 242/242/242
f 244/244/244 246/246/246 245/245/245
f 247/247/247 243/243/243 241/241/241
f 248/248/248 243/243/243 247/247/247
f 249/249/249 248/248/248 247/247/247
f 252/252/252 251/251/251 250/250/250
f 253/253/253 252/252/252 250/250/250
f 256/256/256 255/255/255 254/254/254
f 254/254/254 257/257/257 256/256/256
f 254/254/254 258/258/258 257/257/257
f 258/258/258 259/259/259 257/257/257
f 262/262/262 261/261/261 260/260/260
f 261/261/261 262/262/262 263/263/263
f 263/263/263 264/264/264 261/261/261
f 267/267/267 266/266/266 265/265/265
f 268/268/268 267/267/267 265/265/265
f 271/271/271 270/270/270 269/269/269
f 272/272/272 271/271/271 269/269/269
f 275/275/275 274/274/274 273/273/273
f 276/276/276 275/275/275 273/273/273
f 279/279/279 278/278/278 277/277/277
f 280/280/280 279/279/279 277/277/277
f 283/283/283 282/282/282 281/281/281
f 284/284/284 283/283/283 281/281/281
f 287/287/287 286/286/286 285/285/285
f 288/288/288 287/287/287 285/285/285
f 291/291/291 290/290/290 289/289/289
f 292/292/292 291/291/291 289/289/289
f 295/295/295 294/294/294 293/293/293
f 296/296/296 295/295/295 293/293/293
f 299/299/299 298/298/298 297/297/297
f 300/300/300 299/299/299 297/297/297
f 303/303/303 302/302/302 301/301/301
f 304/304/304 303/303/303 301/301/301
f 307/307/307 306/306/306 305/305/305
f 308/308/308 307/307/307 305/305/305
f 311/311/311 310/310/310 309/309/309
f 312/312/312 311/311/311 309/309/309
f 315/315/315 314/314/314 313/313/313
f 316/316/316 315/315/315 313/313/313
f 319/319/319 318/318/318 317/317/317
f 320/320/320 319/319/319 317/317/317
f 323/323/323 322/322/322 321/321/321
f 324/324/324 323/323/323 321/321/321
f 327/327/327 326/326/326 325/325/325
f 328/328/328 327/327/327 325/325/325
f 331/331/331 330/330/330 329/329/329
f 329/329/329 332/332/332 331/331/331
f 332/332/332 333/333/333 331/331/331
f 332/332/332 334/334/334 333/333/333
f 332/332/332 335/335/335 334/334/334
f 338/338/338 337/337/337 336/336/336
f 339/339/339 338/338/338 336/336/336
f 342/342/342 341/341/341 340/340/340
f 343/343/343 342/342/342 340/340/340
f 346/346/346 345/345/345 344/344/344
f 347/347/347 346/346/346 344/344/344
f 350/350/350 349/349/349 348/348/348
f 351/351/351 350/350/350 348/348/348
f 354/354/354 353/353/353 352/352/352
f 355/355/355 354/354/354 352/352/352
f 358/358/358 357/357/357 356/356/356
f 359/359/359 358/358/358 356/356/356
f 362/362/362 361/361/361 360/360/360
f 360/360/360 363/363/363 362/362/362
f 360/360/360 364/364/364 363/363/363
f 367/367/367 366/366/366 365/365/365
f 368/368/368 367/367/367 365/365/365
f 371/371/371 370/370/370 369/369/369
f 372/372/372 371/371/371 369/369/369
f 375/375/375 374/374/374 373/373/373
f 376/376/376 375/375/375 373/373/373
f 379/379/379 378/378/378 377/377/377
f 380/380/380 379/379/379 377/377/377
f 383/383/383 382/382/382 381/381/381
f 384/384/384 383/383/383 381/381/381
f 387/387/387 386/386/386 385/385/385
f 388/388/388 387/387/387 385/385/385
f 391/391/391 390/390/390 389/389/389
f 392/392/392 391/391/391 389/389/389
f 395/395/395 394/394/394 393/393/393
f 396/396/396 395/395/395 393/393/393
f 397/397/397 396/396/396 393/393/393
f 393/393/393 398/398/398 395/395/395
f 399/399/399 396/396/396 397/397/397
f 398/398/398 400/400/400 395/395/395
f 401/401/401 399/399/399 397/397/397
f 398/398/398 402/402/402 400/400/400
f 403/403/403 399/399/399 401/401/401
f 402/402/402 404/404/404 400/400/400
f 405/405/405 403/403/403 401/401/401
f 402/402/402 406/406/406 404/404/404
f 407/407/407 403/403/403 405/405/405
f 406/406/406 408/408/408 404/404/404
f 409/409/409 407/407/407 405/405/405
f 406/406/406 410/410/410 408/408/408
f 411/411/411 407/407/407 409/409/409
f 412/412/412 411/411/411 409/409/409
f 413/413/413 411/411/411 412/412/412
f 410/410/410 414/414/414 408/408/408
f 410/410/410 415/415/415 414/414/414
f 415/415/415 416/416/416 414/414/414
f 419/419/419 418/418/418 417/417/417
f 420/420/420 419/419/419 417/417/417
f 423/423/423 422/422/422 421/421/421
f 421/421/421 424/424/424 423/423/423
f 424/424/424 425/425/425 423/423/423
f 421/421/421 426/426/426 424/424/424
f 429/429/429 428/428/428 427/427/427
f 429/429/429 427/427/427 430/430/430
f 430/430/430 431/431/431 429/429/429
f 434/434/434 433/433/433 432/432/432
f 435/435/435 434/434/434 432/432/432
f 438/438/438 437/437/437 436/436/436
f 439/439/439 438/438/438 436/436/436
f 442/442/442 441/441/441 440/440/440
f 443/443/443 442/442/442 440/440/440
f 446/446/446 445/445/445 444/444/444
f 447/447/447 446/446/446 444/444/444
f 450/450/450 449/449/449 448/448/448
f 451/451/451 450/450/450 448/448/448
f 454/454/454 453/453/453 452/452/452
f 455/455/455 454/454/454 452/452/452
f 458/458/458 457/457/457 456/456/456
f 459/459/459 458/458/458 456/456/456
f 462/462/462 461/461/461 460/460/460
f 463/463/463 462/462/462 460/460/460
f 466/466/466 465/465/465 464/464/464
f 467/467/467 466/466/466 464/464/464
f 470/470/470 469/469/469 468/468/468
f 471/471/471 470/470/470 468/468/468
f 474/474/474 473/473/473 472/472/472
f 475/475/475 474/474/474 472/472/472
f 478/478/478 477/477/477 476/476/476
f 479/479/479 478/478/478 476/476/476
f 482/482/482 481/481/481 480/480/480
f 483/483/483 482/482/482 480/480/480
f 486/486/486 485/485/485 484/484/484
f 487/487/487 486/486/486 484/484/484
f 490/490/490 489/489/489 488/488/488
f 491/491/491 490/490/490 488/488/488
f 494/494/494 493/493/493 492/492/492
f 495/495/495 494/494/494 492/492/492
f 498/498/498 497/497/497 496/496/496
f 496/496/496 499/499/499 498/498/498
f 499/499/499 500/500/500 498/498/498
f 499/499/499 501/501/501 500/500/500
f 499/499/499 502/502/502 501/501/501
f 505/505/505 504/504/504 503/503/503
f 506/506/506 505/505/505 503/503/503
f 509/509/509 508/508/508 507/507/507
f 510/510/510 509/509/509 507/507/507
f 513/513/513 512/512/512 511/511/511
f 514/514/514 513/513/513 511/511/511
f 517/517/517 516/516/516 515/515/515
f 518/518/518 517/517/517 515/515/515
f 521/521/521 520/520/520 519/519/519
f 522/522/522 521/521/521 519/519/519
f 525/525/525 524/524/524 523/523/523
f 526/526/526 525/525/525 523/523/523
f 529/529/529 528/528/528 527/527/527
f 527/527/527 530/530/530 529/529/529
f 527/527/527 531/531/531 530/530/530
f 534/534/534 533/533/533 532/532/532
f 535/535/535 534/534/534 532/532/532
f 538/538/538 537/537/537 536/536/536
f 539/539/539 538/538/538 536/536/536
f 542/542/542 541/541/541 540/540/540
f 543/543/543 542/542/542 540/540/540
f 546/546/546 545/545/545 544/544/544
f 547/547/547 546/546/546 544/544/544
f 550/550/550 549/549/549 548/548/548
f 551/551/551 550/550/550 548/548/548
f 554/554/554 553/553/553 552/552/552
f 555/555/555 554/554/554 552/552/552
f 558/558/558 557/557/557 556/556/556
f 559/559/559 558/558/558 556/556/556
f 562/562/562 561/561/561 560/560/560
f 563/563/563 562/562/562 560/560/560
f 564/564/564 563/563/563 560/560/560
f 560/560/560 565/565/565 562/562/562
f 566/566/566 563/563/563 564/564/564
f 565/565/565 567/567/567 562/562/562
f 568/568/568 566/566/566 564/564/564
f 565/565/565 569/569/569 567/567/567
f 570/570/570 566/566/566 568/568/568
f 569/569/569 571/571/571 567/567/567
f 572/572/572 570/570/570 568/568/568
f 569/569/569 573/573/573 571/571/571
f 574/574/574 570/570/570 572/572/572
f 573/573/573 575/575/575 571/571/571
f 576/576/576 574/574/574 572/572/572
f 573/573/573 577/577/577 575/575/575
f 578/578/578 574/574/574 576/576/576
f 579/579/579 578/578/578 576/576/576
f 580/580/580 578/578/578 579/579/579
f 577/577/577 581/581/581 575/575/575
f 577/577/577 582/582/582 581/581/581
f 582/582/582 583/583/583 581/581/581
f 586/586/586 585/585/585 584/584/584
f 587/587/587 586/586/586 584/584/584
f 590/590/590 589/589/589 588/588/588
f 588/588/588 591/591/591 590/590/590
f 591/591/591 592/592/592 590/590/590
f 591/591/591 593/593/593 592/592/592
f 596/596/596 595/595/595 594/594/594
f 594/594/594 597/597/597 596/596/596
f 596/596/596 597/597/597 598/598/598
f 601/601/601 600/600/600 599/599/599
f 602/602/602 601/601/601 599/599/599
f 605/605/605 604/604/604 603/603/603
f 606/606/606 605/605/605 603/603/603
f 609/609/609 608/608/608 607/607/607
f 610/610/610 609/609/609 607/607/607
f 613/613/613 612/612/612 611/611/611
f 614/614/614 613/613/613 611/611/611
f 617/617/617 616/616/616 615/615/615
f 618/618/618 617/617/617 615/615/615
f 621/621/621 620/620/620 619/619/619
f 622/622/622 621/621/621 619/619/619
f 625/625/625 624/624/624 623/623/623
f 626/626/626 625/625/625 623/623/623
f 629/629/629 628/628/628 627/627/627
f 630/630/630 629/629/629 627/627/627
f 633/633/633 632/632/632 631/631/631
f 634/634/634 633/633/633 631/631/631
f 637/637/637 636/636/636 635/635/635
f 638/638/638 637/637/637 635/635/635
f 641/641/641 640/640/640 639/639/639
f 642/642/642 641/641/641 639/639/639
f 645/645/645 644/644/644 643/643/643
f 646/646/646 645/645/645 643/643/643
f 649/649/649 648/648/648 647/647/647
f 650/650/650 649/649/649 647/647/647
f 653/653/653 652/652/652 651/651/651
f 654/654/654 653/653/653 651/651/651
f 657/657/657 656/656/656 655/655/655
f 658/658/658 657/657/657 655/655/655
f 661/661/661 660/660/660 659/659/659
f 662/662/662 661/661/661 659/659/659
f 665/665/665 664/664/664 663/663/663
f 663/663/663 666/666/666 665/665/665
f 663/663/663 667/667/667 666/666/666
f 667/667/667 668/668/668 666/666/666
f 668/668/668 669/669/669 666/666/666
f 672/672/672 671/671/671 670/670/670
f 673/673/673 672/672/672 670/670/670
f 676/676/676 675/675/675 674/674/674
f 677/677/677 676/676/676 674/674/674
f 680/680/680 679/679/679 678/678/678
f 681/681/681 680/680/680 678/678/678
f 684/684/684 683/683/683 682/682/682
f 685/685/685 684/684/684 682/682/682
f 688/688/688 687/687/687 686/686/686
f 689/689/689 688/688/688 686/686/686
f 692/692/692 691/691/691 690/690/690
f 693/693/693 692/692/692 690/690/690
f 696/696/696 695/695/695 694/694/694
f 694/694/694 697/697/697 696/696/696
f 697/697/697 698/698/698 696/696/696
f 701/701/701 700/700/700 699/699/699
f 702/702/702 701/701/701 699/699/699
f 705/705/705 704/704/704 703/703/703
f 706/706/706 705/705/705 703/703/703
f 709/709/709 708/708/708 707/707/707
f 710/710/710 709/709/709 707/707/707
f 713/713/713 712/712/712 711/711/711
f 714/714/714 713/713/713 711/711/711
f 717/717/717 716/716/716 715/715/715
f 718/718/718 717/717/717 715/715/715
f 721/721/721 720/720/720 719/719/719
f 722/722/722 721/721/721 719/719/719
f 725/725/725 724/724/724 723/723/723
f 726/726/726 725/725/725 723/723/723
f 729/729/729 728/728/728 727/727/727
f 728/728/728 730/730/730 727/727/727
f 730/730/730 731/731/731 727/727/727
f 732/732/732 727/727/727 728/728/728
f 730/730/730 733/733/733 731/731/731
f 734/734/734 732/732/732 728/728/728
f 733/733/733 735/735/735 731/731/731
f 736/736/736 732/732/732 734/734/734
f 733/733/733 737/737/737 735/735/735
f 738/738/738 736/736/736 734/734/734
f 737/737/737 739/739/739 735/735/735
f 740/740/740 736/736/736 738/738/738
f 737/737/737 741/741/741 739/739/739
f 742/742/742 740/740/740 738/738/738
f 741/741/741 743/743/743 739/739/739
f 744/744/744 740/740/740 742/742/742
f 741/741/741 745/745/745 743/743/743
f 745/745/745 746/746/746 743/743/743
f 745/745/745 747/747/747 746/746/746
f 748/748/748 744/744/744 742/742/742
f 749/749/749 744/744/744 748/748/748
f 750/750/750 749/749/749 748/748/748
f 753/753/753 752/752/752 751/751/751
f 754/754/754 753/753/753 751/751/751
f 757/757/757 756/756/756 755/755/755
f 755/755/755 758/758/758 757/757/757
f 758/758/758 759/759/759 757/757/757
f 755/755/755 760/760/760 758/758/758
f 763/763/763 762/762/762 761/761/761
f 761/761/761 764/764/764 763/763/763
f 765/765/765 763/763/763 764/764/764
f 768/768/768 767/767/767 766/766/766
f 769/769/769 768/768/768 766/766/766
f 772/772/772 771/771/771 770/770/770
f 773/773/773 772/772/772 770/770/770
f 776/776/776 775/775/775 774/774/774
f 775/775/775 777/777/777 774/774/774
f 778/778/778 776/776/776 774/774/774
f 777/777/777 779/779/779 774/774/774
f 780/780/780 778/778/778 774/774/774
f 779/779/779 781/781/781 774/774/774
f 782/782/782 780/780/780 774/774/774
f 781/781/781 782/782/782 774/774/774
f 785/785/785 784/784/784 783/783/783
f 786/786/786 783/783/783 784/784/784
f 787/787/787 784/784/784 785/785/785
f 787/787/787 786/786/786 784/784/784
f 783/783/783 788/788/788 785/785/785
f 789/789/789 783/783/783 786/786/786
f 783/783/783 790/790/790 788/788/788
f 791/791/791 790/790/790 783/783/783
f 789/789/789 791/791/791 783/783/783
f 790/790/790 792/792/792 788/788/788
f 791/791/791 792/792/792 790/790/790
f 793/793/793 792/792/792 791/791/791
f 794/794/794 791/791/791 789/789/789
f 794/794/794 793/793/793 791/791/791
f 795/795/795 793/793/793 794/794/794
f 796/796/796 794/794/794 789/789/789
f 796/796/796 789/789/789 786/786/786
f 796/796/796 795/795/795 794/794/794
f 795/795/795 796/796/796 786/786/786
f 787/787/787 797/797/797 786/786/786
f 798/798/798 795/795/795 786/786/786
f 797/797/797 798/798/798 786/786/786
f 799/799/799 798/798/798 797/797/797
f 795/795/795 798/798/798 799/799/799
f 800/800/800 795/795/795 799/799/799
f 801/801/801 799/799/799 797/797/797
f 801/801/801 797/797/797 787/787/787
f 800/800/800 799/799/799 801/801/801
f 795/795/795 802/802/802 793/793/793
f 802/802/802 795/795/795 800/800/800
f 802/802/802 803/803/803 793/793/793
f 803/803/803 802/802/802 800/800/800
f 792/792/792 793/793/793 804/804/804
f 793/793/793 803/803/803 805/805/805
f 793/793/793 805/805/805 804/804/804
f 792/792/792 804/804/804 806/806/806
f 792/792/792 806/806/806 788/788/788
f 806/806/806 804/804/804 807/807/807
f 788/788/788 806/806/806 807/807/807
f 804/804/804 805/805/805 808/808/808
f 804/804/804 808/808/808 807/807/807
f 807/807/807 808/808/808 809/809/809
f 788/788/788 807/807/807 810/810/810
f 807/807/807 809/809/809 810/810/810
f 810/810/810 785/785/785 788/788/788
f 805/805/805 811/811/811 808/808/808
f 803/803/803 811/811/811 805/805/805
f 808/808/808 811/811/811 809/809/809
f 811/811/811 803/803/803 809/809/809
f 785/785/785 810/810/810 812/812/812
f 809/809/809 812/812/812 810/810/810
f 813/813/813 785/785/785 812/812/812
f 787/787/787 785/785/785 813/813/813
f 813/813/813 814/814/814 787/787/787
f 814/814/814 801/801/801 787/787/787
f 815/815/815 801/801/801 814/814/814
f 815/815/815 814/814/814 813/813/813
f 815/815/815 800/800/800 801/801/801
f 816/816/816 815/815/815 813/813/813
f 812/812/812 816/816/816 813/813/813
f 817/817/817 815/815/815 816/816/816
f 800/800/800 815/815/815 817/817/817
f 817/817/817 816/816/816 812/812/812
f 803/803/803 800/800/800 818/818/818
f 818/818/818 800/800/800 817/817/817
f 819/819/819 817/817/817 812/812/812
f 819/819/819 812/812/812 809/809/809
f 818/818/818 817/817/817 819/819/819
f 803/803/803 820/820/820 809/809/809
f 820/820/820 819/819/819 809/809/809
f 820/820/820 803/803/803 818/818/818
f 820/820/820 818/818/818 819/819/819
