g ShortSword05
v -0.08699693 -0.034205817 0.7736005
v -0.17840889 -0.03420589 0.31928197
v -0.086996324 -0.007959624 0.2917645
v -0.08699693 -0.034205817 0.7736005
v -0.08699633 -0.060295355 0.2982864
v -0.17840889 -0.03420589 0.31928197
v -0.124726586 -0.021341315 0.23833144
v -0.17840889 -0.03420589 0.31928197
v -0.124726586 -0.047070496 0.23833145
v 0.0044164658 -0.03420589 0.31928197
v -0.049265813 -0.021341315 0.23833144
v -0.049265813 -0.047070496 0.23833145
v -0.08699633 -0.060295355 0.2982864
v -0.08699693 -0.034205817 0.7736005
v 0.0044164658 -0.03420589 0.31928197
v -0.086996324 -0.007959624 0.2917645
v 0.0044164658 -0.03420589 0.31928197
v -0.08699693 -0.034205817 0.7736005
v -0.124726586 -0.021341315 0.23833144
v -0.0869962 -0.016889034 0.23833144
v -0.086996324 -0.007959624 0.2917645
v -0.17840889 -0.03420589 0.31928197
v -0.08699633 -0.060295355 0.2982864
v -0.0869962 -0.0515228 0.23833145
v -0.124726586 -0.047070496 0.23833145
v -0.17840889 -0.03420589 0.31928197
v -0.049265813 -0.021341315 0.23833144
v -0.0869962 -0.0515228 0.23833145
v -0.049265813 -0.047070496 0.23833145
v -0.0869962 -0.016889034 0.23833144
v -0.124726586 -0.047070496 0.23833145
v -0.124726586 -0.021341315 0.23833144
v -0.049265813 -0.047070496 0.23833145
v -0.0869962 -0.0515228 0.23833145
v -0.08699633 -0.060295355 0.2982864
v 0.0044164658 -0.03420589 0.31928197
v -0.086996324 -0.007959624 0.2917645
v -0.0869962 -0.016889034 0.23833144
v -0.049265813 -0.021341315 0.23833144
v 0.0044164658 -0.03420589 0.31928197
v -0.05082327 -0.009073643 0.14464863
v -0.047344632 -0.003557673 0.18684284
v -0.033236433 0.026616445 0.16013424
v -0.060248546 0.02870723 0.12713711
v -0.0910516 -0.0001746766 0.1334518
v -0.098327614 0.041014835 0.14201796
v -0.06259541 0.057573125 0.15850845
v -0.05462064 0.037631847 0.19540901
v -0.09484897 0.046530683 0.1842122
v -0.047344632 -0.003557673 0.18684284
v -0.05462064 0.037631847 0.19540901
v -0.033236433 0.026616445 0.16013424
v -0.085423715 0.008749894 0.20172374
v -0.083076805 -0.02011596 0.17035237
v -0.05082327 -0.009073643 0.14464863
v -0.0910516 -0.0001746766 0.1334518
v -0.11243583 0.010840675 0.16872661
v -0.098327614 0.041014835 0.14201796
v -0.09484897 0.046530683 0.1842122
v -0.06259541 0.057573125 0.15850845
v -0.06488395 -0.058715392 0.121650346
v -0.048078988 -0.04873636 0.121650346
v -0.048698876 -0.048736364 0.08423764
v -0.06488395 -0.058715396 0.08423778
v -0.11499594 -0.058715396 0.08423778
v -0.06488395 -0.058715396 0.08423778
v -0.11498496 -0.058715392 0.121650346
v -0.12610659 -0.051444937 0.12165036
v -0.1254867 -0.05144494 0.08423764
v -0.1254867 -0.014589558 0.08423762
v -0.12610659 -0.014589553 0.12165034
v -0.11498496 -0.0073191007 0.12165035
v -0.11499594 -0.007319107 0.084237784
v -0.058995023 -0.007319107 0.08423779
v -0.05900707 -0.0073191007 0.12165035
v -0.048078988 -0.0145895565 0.12165035
v -0.048698876 -0.014589562 0.084237635
v -0.11499791 -0.007319108 0.077516936
v -0.12537536 -0.014589559 0.07751709
v -0.12481114 -0.014589566 0.04346463
v -0.11500791 -0.0073191137 0.0434648
v -0.05898189 -0.0073191137 0.04346481
v -0.11499791 -0.007319108 0.077516936
v -0.058992855 -0.007319108 0.077516936
v -0.048810225 -0.014589563 0.07751709
v -0.04937444 -0.014589569 0.04346464
v -0.049374443 -0.04873637 0.043464646
v -0.048810225 -0.048736367 0.077517085
v -0.05896876 -0.00731912 0.0026918289
v -0.049485788 -0.01458957 0.036744114
v -0.058979724 -0.0073191146 0.036743946
v -0.05005 -0.014589576 0.00269164
v -0.050050005 -0.04873638 0.002691653
v -0.04948579 -0.04873637 0.03674411
v -0.12537536 -0.051444944 0.077517115
v -0.12481114 -0.014589566 0.04346463
v -0.12537536 -0.014589559 0.07751709
v -0.12481115 -0.051444948 0.04346464
v -0.1150079 -0.058715403 0.0434648
v -0.11499791 -0.0587154 0.07751695
v -0.06488395 -0.0587154 0.07751695
v -0.048810225 -0.048736367 0.077517085
v -0.049374443 -0.04873637 0.043464646
v -0.06488395 -0.058715403 0.043464795
v -0.1150079 -0.058715403 0.0434648
v -0.11499791 -0.0587154 0.07751695
v -0.06488395 -0.05871541 -0.004029022
v -0.050781243 -0.048736386 -0.041441593
v -0.06488395 -0.058715418 -0.04144159
v -0.050161354 -0.04873638 -0.0040288675
v -0.05016135 -0.014589577 -0.0040288656
v -0.050781243 -0.014589583 -0.041441597
v -0.058954544 -0.007319127 -0.0414416
v -0.058966592 -0.007319121 -0.004029049
v -0.11502184 -0.007319121 -0.0040290453
v -0.115032814 -0.007319127 -0.0414416
v -0.12340435 -0.014589581 -0.041441597
v -0.12402423 -0.014589575 -0.004028858
v -0.115032814 -0.058715418 -0.04144159
v -0.11502183 -0.05871541 -0.004029026
v -0.06488395 -0.05871541 -0.004029022
v -0.06488395 -0.058715418 -0.04144159
v -0.12340435 -0.051444963 -0.041441593
v -0.124024235 -0.051444955 -0.004028841
v -0.11502183 -0.05871541 -0.004029026
v -0.06488395 -0.058715403 0.03674397
v -0.04948579 -0.04873637 0.03674411
v -0.050050005 -0.04873638 0.002691653
v -0.06488395 -0.05871541 0.0026918112
v -0.115019865 -0.05871541 0.002691815
v -0.11500987 -0.058715403 0.036743965
v -0.124024235 -0.051444955 -0.004028841
v -0.12340435 -0.051444963 -0.041441593
v -0.12340435 -0.014589581 -0.041441597
v -0.12402423 -0.014589575 -0.004028858
v -0.115009874 -0.0073191146 0.036743943
v -0.12469979 -0.014589568 0.03674412
v -0.12413558 -0.014589574 0.0026916326
v -0.11501987 -0.00731912 0.0026918214
v -0.05896876 -0.00731912 0.0026918289
v -0.058979724 -0.0073191146 0.036743946
v -0.124699794 -0.051444948 0.036744133
v -0.12413558 -0.014589574 0.0026916326
v -0.12469979 -0.014589568 0.03674412
v -0.12413559 -0.051444955 0.002691635
v -0.115019865 -0.05871541 0.002691815
v -0.11500987 -0.058715403 0.036743965
v -0.05005 -0.014589576 0.00269164
v -0.05016135 -0.014589577 -0.0040288656
v -0.050161354 -0.04873638 -0.0040288675
v -0.050050005 -0.04873638 0.002691653
v -0.04937444 -0.014589569 0.04346464
v -0.04948579 -0.04873637 0.03674411
v -0.049374443 -0.04873637 0.043464646
v -0.049485788 -0.01458957 0.036744114
v -0.05898189 -0.0073191137 0.04346481
v -0.058979724 -0.0073191146 0.036743946
v -0.11500791 -0.0073191137 0.0434648
v -0.115009874 -0.0073191146 0.036743943
v -0.12481114 -0.014589566 0.04346463
v -0.12469979 -0.014589568 0.03674412
v -0.12481115 -0.051444948 0.04346464
v -0.124699794 -0.051444948 0.036744133
v -0.1150079 -0.058715403 0.0434648
v -0.11500987 -0.058715403 0.036743965
v -0.048698876 -0.014589562 0.084237635
v -0.048810225 -0.014589563 0.07751709
v -0.048810225 -0.048736367 0.077517085
v -0.048698876 -0.048736364 0.08423764
v -0.06488395 -0.05871541 0.0026918112
v -0.06488395 -0.05871541 -0.004029022
v -0.11502183 -0.05871541 -0.004029026
v -0.115019865 -0.05871541 0.002691815
v -0.124024235 -0.051444955 -0.004028841
v -0.12413559 -0.051444955 0.002691635
v -0.06488395 -0.058715403 0.043464795
v -0.11500987 -0.058715403 0.036743965
v -0.1150079 -0.058715403 0.0434648
v -0.06488395 -0.058715403 0.03674397
v -0.049374443 -0.04873637 0.043464646
v -0.04948579 -0.04873637 0.03674411
v -0.05896876 -0.00731912 0.0026918289
v -0.05016135 -0.014589577 -0.0040288656
v -0.05005 -0.014589576 0.00269164
v -0.058966592 -0.007319121 -0.004029049
v -0.11501987 -0.00731912 0.0026918214
v -0.11502184 -0.007319121 -0.0040290453
v -0.12413558 -0.014589574 0.0026916326
v -0.12402423 -0.014589575 -0.004028858
v -0.058995023 -0.007319107 0.08423779
v -0.048810225 -0.014589563 0.07751709
v -0.048698876 -0.014589562 0.084237635
v -0.058992855 -0.007319108 0.077516936
v -0.11499594 -0.007319107 0.084237784
v -0.11499791 -0.007319108 0.077516936
v -0.12537536 -0.014589559 0.07751709
v -0.1254867 -0.014589558 0.08423762
v -0.1254867 -0.05144494 0.08423764
v -0.12537536 -0.051444944 0.077517115
v -0.11499594 -0.058715396 0.08423778
v -0.11499791 -0.0587154 0.07751695
v -0.06488395 -0.058715396 0.08423778
v -0.06488395 -0.0587154 0.07751695
v -0.048698876 -0.048736364 0.08423764
v -0.048810225 -0.048736367 0.077517085
v -0.12402423 -0.014589575 -0.004028858
v -0.12413558 -0.014589574 0.0026916326
v -0.12413559 -0.051444955 0.002691635
v -0.124024235 -0.051444955 -0.004028841
v -0.11499791 -0.007319108 0.077516936
v -0.11499594 -0.007319107 0.084237784
v -0.1254867 -0.014589558 0.08423762
v -0.12537536 -0.014589559 0.07751709
v -0.06488395 -0.05871541 -0.004029022
v -0.06488395 -0.05871541 0.0026918112
v -0.050050005 -0.04873638 0.002691653
v -0.050161354 -0.04873638 -0.0040288675
v -0.048698876 -0.048736364 0.08423764
v -0.048078988 -0.04873636 0.121650346
v -0.048078988 -0.0145895565 0.12165035
v -0.048698876 -0.014589562 0.084237635
v -0.05901036 -0.007319099 0.13474049
v -0.114966206 -0.007319085 0.22017899
v -0.114981964 -0.007319099 0.13474049
v -0.12627584 -0.01458955 0.13474049
v -0.05902765 -0.007319085 0.22017899
v -0.12627584 -0.014589536 0.22017899
v -0.047909744 -0.01458954 0.22017899
v -0.047909744 -0.014589554 0.13474049
v -0.12627584 -0.051444918 0.220179
v -0.12627584 -0.051444933 0.1347405
v -0.047909744 -0.048736356 0.1347405
v -0.047909744 -0.04873634 0.220179
v -0.114981964 -0.05871539 0.1347405
v -0.114966206 -0.058715373 0.220179
v -0.06488395 -0.058715373 0.220179
v -0.06488395 -0.05871539 0.1347405
v -0.048078988 -0.04873636 0.121650346
v -0.047909744 -0.048736356 0.1347405
v -0.047909744 -0.014589554 0.13474049
v -0.06488395 -0.05871539 0.1347405
v -0.048078988 -0.0145895565 0.12165035
v -0.06488395 -0.058715392 0.121650346
v -0.05900707 -0.0073191007 0.12165035
v -0.05901036 -0.007319099 0.13474049
v -0.11498496 -0.058715392 0.121650346
v -0.114981964 -0.05871539 0.1347405
v -0.114981964 -0.007319099 0.13474049
v -0.11498496 -0.0073191007 0.12165035
v -0.12627584 -0.051444933 0.1347405
v -0.12610659 -0.051444937 0.12165036
v -0.12610659 -0.014589553 0.12165034
v -0.12627584 -0.01458955 0.13474049
v 0.016345859 -0.01965375 0.19750011
v -0.0071132425 -0.012616997 0.24433874
v 0.024830319 0.024740033 0.22490299
v -0.03424551 -0.033481494 0.20406154
v -0.020517556 0.038349204 0.24840078
v -0.0053417236 0.06281221 0.2040725
v -0.055933125 0.048984323 0.21063393
v -0.057028197 0.0023666557 0.2355196
v -0.0644176 0.004590638 0.18323107
v -0.05895014 -0.00731913 -0.0559667
v -0.058954544 -0.007319127 -0.0414416
v -0.115032814 -0.007319127 -0.0414416
v -0.050781243 -0.014589583 -0.041441597
v -0.11503682 -0.00731913 -0.0559667
v -0.05100782 -0.014589585 -0.055966698
v -0.12317777 -0.0145895835 -0.055966698
v -0.12340435 -0.014589581 -0.041441597
v -0.05100782 -0.048736386 -0.055966694
v -0.050781243 -0.048736386 -0.041441593
v -0.12340435 -0.051444963 -0.041441593
v -0.12317777 -0.051444963 -0.055966694
v -0.06488395 -0.058715418 -0.04144159
v -0.06488395 -0.058715418 -0.05596669
v -0.11503682 -0.058715418 -0.05596669
v -0.115032814 -0.058715418 -0.04144159
v -0.12317777 -0.051444963 -0.055966694
v -0.12293177 -0.014589597 -0.12337528
v -0.12317777 -0.0145895835 -0.055966698
v -0.11503682 -0.00731913 -0.0559667
v -0.12293177 -0.051444974 -0.123375274
v -0.11504118 -0.05871543 -0.11651758
v -0.11503682 -0.058715418 -0.05596669
v -0.06488395 -0.058715418 -0.05596669
v -0.11504118 -0.00731914 -0.11651759
v -0.105133794 -0.014589602 -0.16095512
v -0.058945358 -0.007319132 -0.067764804
v -0.05895014 -0.00731913 -0.0559667
v -0.05100782 -0.014589585 -0.055966698
v -0.052762035 -0.007319136 -0.09450939
v -0.051253818 -0.014589586 -0.0610801
v -0.04618097 -0.01458959 -0.0851019
v -0.051253818 -0.04873639 -0.061080094
v -0.05100782 -0.048736386 -0.055966694
v -0.09878786 -0.0073191454 -0.15220319
v -0.06488395 -0.05871542 -0.07292601
v -0.04843756 -0.05871542 -0.07441609
v -0.04618097 -0.058715425 -0.085101895
v -0.037488002 -0.0073191393 -0.11557229
v -0.09878786 -0.058715437 -0.15220317
v -0.105133794 -0.05144498 -0.1609551
v -0.074836075 -0.014589606 -0.18489888
v -0.0700348 -0.05871544 -0.17425267
v -0.032017414 -0.05871543 -0.10344199
v -0.074836075 -0.051444985 -0.18489887
v -0.0700348 -0.007319149 -0.17425269
v -0.032017414 -0.014589593 -0.103442
v 0.00024971366 -0.05871544 -0.17902549
v 0.002185598 -0.014589607 -0.19008633
v -0.002512306 -0.0073191472 -0.16324447
v -0.0068359673 -0.058715433 -0.13854085
v 0.002185598 -0.051444985 -0.19008632
v -0.0068359673 -0.014589595 -0.13854086
v 0.00024971366 -0.00731915 -0.1790255
v 0.024830319 0.024740033 0.22490299
v 0.017440915 0.026964018 0.17261446
v 0.016345859 -0.01965375 0.19750011
v -0.0053417236 0.06281221 0.2040725
v -0.019069673 -0.009018475 0.15973324
v -0.03424551 -0.033481494 0.20406154
v -0.0644176 0.004590638 0.18323107
v -0.03247399 0.041947726 0.16379528
v -0.055933125 0.048984323 0.21063393
v -0.12627584 -0.014589536 0.22017899
v -0.1317227 -0.012030294 0.2286771
v -0.1317227 -0.054099984 0.22867711
v -0.12627584 -0.051444918 0.220179
v -0.114966206 -0.007319085 0.22017899
v -0.11881119 -0.062399067 0.22867711
v -0.114966206 -0.058715373 0.220179
v -0.11881119 -0.0037312135 0.2286771
v -0.05902765 -0.007319085 0.22017899
v -0.054962188 -0.0037312135 0.2286771
v -0.047909744 -0.01458954 0.22017899
v -0.12627584 -0.051444918 0.23907284
v -0.11496273 -0.0073190816 0.23907283
v -0.12627584 -0.014589533 0.23907283
v -0.11496273 -0.058715373 0.23907284
v -0.061645076 -0.062399067 0.22867711
v -0.06488395 -0.058715373 0.220179
v -0.06488395 -0.058715373 0.23907284
v -0.042269357 -0.051008187 0.22867711
v -0.047909744 -0.04873634 0.220179
v -0.042269357 -0.012030294 0.2286771
v -0.059031475 -0.0073190816 0.23907283
v -0.047909744 -0.014589537 0.23907283
v -0.047909744 -0.04873634 0.23907284
v 0.03232212 -0.09178864 0.22169454
v 0.05655436 -0.06503832 0.24187514
v 0.053735126 -0.026821645 0.24158973
v 0.025693538 -0.0019334828 0.22102349
v 0.05003437 -0.031423762 0.2517413
v 0.05096262 -0.06282805 0.2523023
v 0.016992303 -0.012753998 0.2448919
v 0.019174812 -0.086591855 0.24621095
v 0.00566107 -0.084700175 0.21257943
v 0.00033766357 -0.012537652 0.21204051
v -0.024632996 -0.0510672 0.19464627
v -0.027183805 -0.033602152 0.19438803
v -0.0066502844 -0.021227587 0.23120919
v -0.004897513 -0.08052664 0.23226851
v -0.029692339 -0.050057106 0.20408067
v -0.030532211 -0.035705324 0.20357306
v -0.039396085 -0.043076094 0.20496002
v -0.04920188 0.011270088 0.2002231
v -0.05713258 -0.07824979 0.20387265
v -0.05793047 -0.068281755 0.20383073
v -0.057874843 -0.06329774 0.19516145
v -0.12505014 -0.05912057 0.19880684
v -0.046737812 0.015584995 0.19154496
v -0.0549305 0.0030737766 0.20028278
v -0.12674233 0.0035806275 0.20052311
v -0.044479005 -0.042930838 0.19663906
v -0.05819504 -0.0008076164 0.19166434
v -0.12233101 -0.05481773 0.19019918
v -0.057021327 -0.06828175 0.18653409
v -0.13053423 -0.06748204 0.19870344
v -0.14187634 -0.029306456 0.2001468
v -0.121926144 -0.0051795356 0.20026994
v -0.11960897 -0.009359396 0.1914859
v -0.05573097 0.003507292 0.18298621
v -0.040378682 -0.0425907 0.18773288
v -0.12210796 -0.0047791023 0.18295501
v -0.12509596 -0.058876343 0.18148811
v -0.13696848 -0.029505061 0.19143626
v -0.15183955 -0.028456017 0.2002539
v -0.1420238 -0.028853226 0.18283285
v -0.056223445 -0.078249775 0.18657602
v -0.12924132 0.008160919 0.19199222
v -0.15689486 -0.027804183 0.19165048
v -0.13058007 -0.0672378 0.18138471
v -0.15198699 -0.028002791 0.18293996
v -0.1332992 -0.071540646 0.18999237
v -0.12692414 0.0039810534 0.18320818
v -0.05627907 -0.083233796 0.19524531
v -0.05000236 0.011703596 0.18292654
v -0.029085835 -0.04882761 0.18597698
v -0.032896817 -0.035551235 0.18641542
v -0.0022585061 -0.05347686 0.19512013
v -0.007348955 -0.049310975 0.17772087
v -0.014464319 -0.024615476 0.17718388
v -0.0068273623 -0.020989973 0.19375293
v 0.023556406 -0.013029836 0.15980726
v 0.03152044 -0.04288651 0.16312349
v 0.030761952 -0.047923032 0.18502773
v 0.026036074 -0.0086466335 0.18172474
v 0.045595195 -0.013785786 0.1530211
v 0.05230578 -0.011225923 0.16401698
v 0.050629273 -0.031222599 0.15281598
v 0.0556218 -0.03416402 0.16460226
vt 0.21864349 0.4070726
vt 0.21864349 0.4070726
vt 0.21864349 0.4070726
vt 0.21864349 0.4070726
vt 0.21864349 0.4070726
vt 0.21864349 0.4070726
vt 0.2832861 0.41194052
vt 0.2832861 0.41194052
vt 0.2832861 0.41194052
vt 0.22446519 0.40814808
vt 0.22446519 0.40814808
vt 0.22446519 0.40814808
vt 0.28260046 0.46754903
vt 0.28260046 0.46754903
vt 0.28260046 0.46754903
vt 0.28260046 0.46754903
vt 0.28260046 0.46754903
vt 0.28260046 0.46754903
vt 0.2832861 0.41194052
vt 0.2832861 0.41194052
vt 0.2832861 0.41194052
vt 0.2832861 0.41194052
vt 0.2832861 0.41194052
vt 0.2832861 0.41194052
vt 0.2832861 0.41194052
vt 0.2832861 0.41194052
vt 0.16672617 0.9099623
vt 0.16672617 0.9099623
vt 0.16672617 0.9099623
vt 0.16672617 0.9099623
vt 0.16672617 0.9099623
vt 0.16672617 0.9099623
vt 0.22446519 0.40814808
vt 0.22446519 0.40814808
vt 0.22446519 0.40814808
vt 0.22446519 0.40814808
vt 0.22446519 0.40814808
vt 0.22446519 0.40814808
vt 0.22446519 0.40814808
vt 0.22446519 0.40814808
vt 0.16441138 0.7143128
vt 0.16088755 0.7178993
vt 0.15996529 0.72115624
vt 0.16781189 0.72039497
vt 0.1721067 0.7164198
vt 0.17285343 0.724494
vt 0.16531618 0.7277026
vt 0.16128524 0.7250999
vt 0.16824682 0.7268568
vt 0.16088755 0.7178993
vt 0.16128524 0.7250999
vt 0.15996529 0.72115624
vt 0.16546609 0.72136736
vt 0.16736723 0.71544755
vt 0.16441138 0.7143128
vt 0.1721067 0.7164198
vt 0.17181845 0.72080064
vt 0.17285343 0.724494
vt 0.16824682 0.7268568
vt 0.16531618 0.7277026
vt 0.088635065 0.66136515
vt 0.088635005 0.66136515
vt 0.088635 0.66136503
vt 0.08863506 0.66136515
vt 0.088635 0.6613651
vt 0.08863506 0.66136515
vt 0.088635005 0.66136515
vt 0.088635005 0.66136515
vt 0.088635005 0.66136515
vt 0.08863498 0.66136515
vt 0.088634975 0.66136515
vt 0.088635005 0.66136503
vt 0.088635005 0.66136503
vt 0.088635 0.66136503
vt 0.088635005 0.66136503
vt 0.088635005 0.66136503
vt 0.088635005 0.66136503
vt 0.088635 0.66136503
vt 0.08863498 0.66136515
vt 0.08863499 0.66136515
vt 0.088635 0.66136503
vt 0.088635 0.661365
vt 0.088635005 0.66136503
vt 0.088635 0.66136503
vt 0.088635005 0.66136503
vt 0.088635 0.66136503
vt 0.088635 0.66136503
vt 0.088635 0.66136503
vt 0.088635005 0.66136503
vt 0.08863499 0.66136503
vt 0.088635 0.66136503
vt 0.088635 0.66136503
vt 0.088635005 0.66136503
vt 0.088635 0.661365
vt 0.088635005 0.66136515
vt 0.08863499 0.66136515
vt 0.08863499 0.6613652
vt 0.088635 0.6613651
vt 0.08863498 0.661365
vt 0.088635 0.6613651
vt 0.08863505 0.66136515
vt 0.088635 0.6613651
vt 0.088635 0.661365
vt 0.08863503 0.66136515
vt 0.08863498 0.66136503
vt 0.088635 0.6613651
vt 0.08863501 0.66136515
vt 0.088635005 0.66136503
vt 0.088635005 0.66136515
vt 0.088635005 0.66136503
vt 0.088635005 0.66136503
vt 0.088635005 0.66136503
vt 0.088635005 0.66136503
vt 0.088635005 0.66136503
vt 0.088635 0.66136503
vt 0.088635005 0.66136503
vt 0.088635005 0.66136515
vt 0.088635 0.66136515
vt 0.088634975 0.66136503
vt 0.088634975 0.66136503
vt 0.08863501 0.66136515
vt 0.088635005 0.66136515
vt 0.088635005 0.66136503
vt 0.088635 0.661365
vt 0.08863498 0.66136503
vt 0.08863503 0.66136515
vt 0.088635 0.66136503
vt 0.088635005 0.661365
vt 0.08863502 0.66136515
vt 0.08863498 0.66136503
vt 0.08863498 0.661365
vt 0.088635 0.66136503
vt 0.088635005 0.66136503
vt 0.088635005 0.66136515
vt 0.088635005 0.6613652
vt 0.088635 0.66136503
vt 0.08863499 0.66136515
vt 0.08863499 0.66136515
vt 0.088635 0.66136503
vt 0.088635005 0.66136503
vt 0.088635 0.661365
vt 0.088635 0.6613651
vt 0.088635 0.66136515
vt 0.08863499 0.66136515
vt 0.088635 0.66136503
vt 0.08863498 0.66136503
vt 0.08863498 0.66136503
vt 0.061291248 0.6418337
vt 0.061291248 0.6418338
vt 0.061291263 0.6418338
vt 0.061291263 0.6418338
vt 0.061291248 0.6418338
vt 0.061291248 0.6418337
vt 0.061291248 0.6418338
vt 0.061291248 0.6418338
vt 0.061291248 0.6418337
vt 0.061291248 0.6418338
vt 0.061291248 0.6418338
vt 0.061291248 0.6418338
vt 0.061291248 0.6418339
vt 0.061291248 0.6418339
vt 0.061291248 0.64183384
vt 0.061291248 0.64183384
vt 0.061291233 0.6418337
vt 0.061291233 0.6418338
vt 0.061291263 0.6418337
vt 0.061291263 0.6418338
vt 0.061291248 0.6418338
vt 0.061291248 0.64183384
vt 0.061291277 0.6418339
vt 0.061291263 0.6418339
vt 0.061291233 0.6418338
vt 0.061291233 0.6418338
vt 0.061291248 0.6418337
vt 0.061291248 0.6418338
vt 0.061291277 0.6418339
vt 0.061291233 0.6418337
vt 0.061291233 0.6418338
vt 0.061291277 0.6418339
vt 0.061291248 0.6418337
vt 0.061291248 0.6418338
vt 0.061291263 0.6418338
vt 0.061291263 0.6418338
vt 0.061291248 0.6418338
vt 0.061291263 0.6418338
vt 0.061291248 0.6418338
vt 0.061291248 0.6418338
vt 0.061291248 0.6418339
vt 0.061291248 0.6418339
vt 0.061291248 0.6418338
vt 0.061291263 0.6418338
vt 0.061291263 0.6418338
vt 0.061291248 0.6418338
vt 0.061291263 0.6418338
vt 0.061291263 0.6418338
vt 0.061291248 0.64183396
vt 0.061291233 0.6418339
vt 0.061291263 0.6418339
vt 0.061291263 0.6418339
vt 0.061291248 0.64183384
vt 0.061291248 0.64183384
vt 0.061291307 0.6418339
vt 0.061291307 0.6418339
vt 0.061291248 0.6418338
vt 0.061291248 0.64183384
vt 0.061291263 0.64183396
vt 0.061291248 0.6418339
vt 0.061291248 0.6418338
vt 0.061291248 0.6418338
vt 0.061291248 0.6418338
vt 0.061291263 0.6418338
vt 0.061291233 0.6418339
vt 0.061291233 0.6418339
vt 0.061291263 0.6418339
vt 0.061291277 0.6418339
vt 0.061291263 0.6418337
vt 0.061291263 0.6418338
vt 0.088635 0.6613651
vt 0.088635005 0.66136515
vt 0.088635005 0.66136503
vt 0.088635005 0.661365
vt 0.27478236 0.6551822
vt 0.27478236 0.6551822
vt 0.27478236 0.6551822
vt 0.27478236 0.6551822
vt 0.27478236 0.6551822
vt 0.27478236 0.6551822
vt 0.27478236 0.6551822
vt 0.27478236 0.6551822
vt 0.27478236 0.6551822
vt 0.27478236 0.6551822
vt 0.27478236 0.6551822
vt 0.27478236 0.6551822
vt 0.27478236 0.6551822
vt 0.27478236 0.6551822
vt 0.27478236 0.6551822
vt 0.27478236 0.6551822
vt 0.26790956 0.59386617
vt 0.26790956 0.59386617
vt 0.26790956 0.59386617
vt 0.26790956 0.59386617
vt 0.26790956 0.59386617
vt 0.26790956 0.59386617
vt 0.26790956 0.59386617
vt 0.26790956 0.59386617
vt 0.26790956 0.59386617
vt 0.26790956 0.59386617
vt 0.26790956 0.59386617
vt 0.26790956 0.59386617
vt 0.26790956 0.59386617
vt 0.26790956 0.59386617
vt 0.26790956 0.59386617
vt 0.26790956 0.59386617
vt 0.14996989 0.7141422
vt 0.15239556 0.7185751
vt 0.14674921 0.72260785
vt 0.15820332 0.7142019
vt 0.15348615 0.72632706
vt 0.15194882 0.72920513
vt 0.16051163 0.7274772
vt 0.15966083 0.7212814
vt 0.16371353 0.7194109
vt 0.26790956 0.59386617
vt 0.26790956 0.59386617
vt 0.26790956 0.59386617
vt 0.26790956 0.59386617
vt 0.26790956 0.59386617
vt 0.26790956 0.59386617
vt 0.26790956 0.59386617
vt 0.26790956 0.59386617
vt 0.26790956 0.59386617
vt 0.26790956 0.59386617
vt 0.26790956 0.59386617
vt 0.26790956 0.59386617
vt 0.26790956 0.59386617
vt 0.26790956 0.59386617
vt 0.26790956 0.59386617
vt 0.26790956 0.59386617
vt 0.27478236 0.6551822
vt 0.27478236 0.6551822
vt 0.27478236 0.6551822
vt 0.27478236 0.6551822
vt 0.27478236 0.6551822
vt 0.27478236 0.6551822
vt 0.27478236 0.6551822
vt 0.27478236 0.6551822
vt 0.27478236 0.6551822
vt 0.27478236 0.6551822
vt 0.27478236 0.6551822
vt 0.27478236 0.6551822
vt 0.27478236 0.6551822
vt 0.27478236 0.6551822
vt 0.27478236 0.6551822
vt 0.27478236 0.6551822
vt 0.27478236 0.6551822
vt 0.27478236 0.6551822
vt 0.27478236 0.6551822
vt 0.27478236 0.6551822
vt 0.27478236 0.6551822
vt 0.27478236 0.6551822
vt 0.27478236 0.6551822
vt 0.27478236 0.6551822
vt 0.27478236 0.6551822
vt 0.27478236 0.6551822
vt 0.27478236 0.6551822
vt 0.27478236 0.6551822
vt 0.27478236 0.6551822
vt 0.27478236 0.6551822
vt 0.27478236 0.6551822
vt 0.27478236 0.6551822
vt 0.27478236 0.6551822
vt 0.27478236 0.6551822
vt 0.27478236 0.6551822
vt 0.27478236 0.6551822
vt 0.27478236 0.6551822
vt 0.27478236 0.6551822
vt 0.14674921 0.72260785
vt 0.14920832 0.7205504
vt 0.14996989 0.7141422
vt 0.15194882 0.72920513
vt 0.15773638 0.7143121
vt 0.15820332 0.7142019
vt 0.16371353 0.7194109
vt 0.15944178 0.7242632
vt 0.16051163 0.7274772
vt 0.26790956 0.59386617
vt 0.26790956 0.59386617
vt 0.26790956 0.59386617
vt 0.26790956 0.59386617
vt 0.26790956 0.59386617
vt 0.26790956 0.59386617
vt 0.26790956 0.59386617
vt 0.26790956 0.59386617
vt 0.26790956 0.59386617
vt 0.26790956 0.59386617
vt 0.26790956 0.59386617
vt 0.26790956 0.59386617
vt 0.26790956 0.59386617
vt 0.26790956 0.59386617
vt 0.26790956 0.59386617
vt 0.26790956 0.59386617
vt 0.26790956 0.59386617
vt 0.26790956 0.59386617
vt 0.26790956 0.59386617
vt 0.26790956 0.59386617
vt 0.26790956 0.59386617
vt 0.26790956 0.59386617
vt 0.26790956 0.59386617
vt 0.26790956 0.59386617
vt 0.09472659 0.7060547
vt 0.09472659 0.7060547
vt 0.09472659 0.7060547
vt 0.09472659 0.7060547
vt 0.09472659 0.7060547
vt 0.09472659 0.7060547
vt 0.09472659 0.7060547
vt 0.09472659 0.7060547
vt 0.09472659 0.7060547
vt 0.09472659 0.7060547
vt 0.09472659 0.7060547
vt 0.09472659 0.7060547
vt 0.09472659 0.7060547
vt 0.09472659 0.7060547
vt 0.09472659 0.7060547
vt 0.09472659 0.7060547
vt 0.09472659 0.7060547
vt 0.09472659 0.7060547
vt 0.09472659 0.7060547
vt 0.09472659 0.7060547
vt 0.09472659 0.7060547
vt 0.09472659 0.7060547
vt 0.09472659 0.7060547
vt 0.09472659 0.7060547
vt 0.09472659 0.7060547
vt 0.09472659 0.7060547
vt 0.09472659 0.7060547
vt 0.09472659 0.7060547
vt 0.09472659 0.7060547
vt 0.09472659 0.7060547
vt 0.09472659 0.7060547
vt 0.09472659 0.7060547
vt 0.09472659 0.7060547
vt 0.09472659 0.7060547
vt 0.09472659 0.7060547
vt 0.09472659 0.7060547
vt 0.09472659 0.7060547
vt 0.09472659 0.7060547
vt 0.09472659 0.7060547
vt 0.09472659 0.7060547
vt 0.09472659 0.7060547
vt 0.09472659 0.7060547
vt 0.09472659 0.7060547
vt 0.09472659 0.7060547
vt 0.09472659 0.7060547
vt 0.09472659 0.7060547
vt 0.09472659 0.7060547
vt 0.09472659 0.7060547
vt 0.09472659 0.7060547
vt 0.09472659 0.7060547
vt 0.09472659 0.7060547
vt 0.09472659 0.7060547
vt 0.09472659 0.7060547
vt 0.09472659 0.7060547
vt 0.09472659 0.7060547
vt 0.09472659 0.7060547
vt 0.09472659 0.7060547
vt 0.09472659 0.7060547
vt 0.09472659 0.7060547
vt 0.09472659 0.7060547
vt 0.09472659 0.7060547
vt 0.09472659 0.7060547
vt 0.09472659 0.7060547
vn -0.26095465 0.9639221 0.052505683
vn -0.26095465 0.9639221 0.052505683
vn -0.26095465 0.9639221 0.052505683
vn -0.26281148 -0.96339715 0.052879613
vn -0.26281148 -0.96339715 0.052879613
vn -0.26281148 -0.96339715 0.052879613
vn -0.45708337 0.5534014 -0.69629145
vn -0.9988084 -0.0004272716 -0.04880052
vn -0.4555654 -0.5562799 -0.6949913
vn 0.9988084 -0.0004272716 -0.04880052
vn 0.45708337 0.5534014 -0.69629145
vn 0.4555654 -0.5562799 -0.6949913
vn 0.26281068 -0.9633972 0.05288027
vn 0.26281068 -0.9633972 0.05288027
vn 0.26281068 -0.9633972 0.05288027
vn 0.26095387 0.9639223 0.052506343
vn 0.26095387 0.9639223 0.052506343
vn 0.26095387 0.9639223 0.052506343
vn -0.2446855 0.96711385 -0.06942479
vn -0.2446855 0.96711385 -0.06942479
vn -0.2446855 0.96711385 -0.06942479
vn -0.2446855 0.96711385 -0.06942479
vn -0.23938753 -0.9688738 -0.06306514
vn -0.23938753 -0.9688738 -0.06306514
vn -0.23938753 -0.9688738 -0.06306514
vn -0.23938753 -0.9688738 -0.06306514
vn 0.45708337 0.5534014 -0.69629145
vn -0 -0.70364976 -0.7105471
vn 0.4555654 -0.5562799 -0.6949913
vn -0 0.70117664 -0.71298754
vn -0.4555654 -0.5562799 -0.6949913
vn -0.45708337 0.5534014 -0.69629145
vn 0.23938693 -0.968874 -0.0630645
vn 0.23938693 -0.968874 -0.0630645
vn 0.23938693 -0.968874 -0.0630645
vn 0.23938693 -0.968874 -0.0630645
vn 0.244685 0.96711403 -0.06942408
vn 0.244685 0.96711403 -0.06942408
vn 0.244685 0.96711403 -0.06942408
vn 0.244685 0.96711403 -0.06942408
vn 0.54212105 -0.6846785 -0.4871551
vn 0.6277832 -0.5488296 0.55197316
vn 0.97523165 0.19425283 -0.10577853
vn 0.30998054 0.24573825 -0.91843605
vn -0.44860446 -0.46551222 -0.76292366
vn -0.6277832 0.5488296 -0.55197316
vn 0.25218156 0.95662975 -0.14582157
vn 0.44860446 0.46551222 0.76292366
vn -0.54212105 0.6846785 0.4871551
vn 0.6277832 -0.5488296 0.55197316
vn 0.44860446 0.46551222 0.76292366
vn 0.97523165 0.19425283 -0.10577853
vn -0.30998054 -0.24573825 0.91843605
vn -0.25218156 -0.95662975 0.14582157
vn 0.54212105 -0.6846785 -0.4871551
vn -0.44860446 -0.46551222 -0.76292366
vn -0.97523165 -0.19425283 0.10577853
vn -0.6277832 0.5488296 -0.55197316
vn -0.54212105 0.6846785 0.4871551
vn 0.25218156 0.95662975 -0.14582157
vn 0.26616028 -0.96392685 -0.0019532458
vn 0.86989033 -0.49313015 -0.01065122
vn 0.8722327 -0.4889447 -0.011963443
vn 0.27107456 -0.96255577 -0.0022279264
vn -0.29569948 -0.95527804 -0.002380489
vn 0.27107456 -0.96255577 -0.0022279264
vn -0.28776726 -0.9576981 -0.0020753178
vn -0.88074565 -0.47347057 -0.010620586
vn -0.88449883 -0.46638986 -0.011932891
vn -0.88449883 0.46638986 -0.011932891
vn -0.88074565 0.47347057 -0.010620586
vn -0.28776726 0.9576981 -0.0020753178
vn -0.29569948 0.95527804 -0.002380489
vn 0.2998186 0.9539932 -0.0024110004
vn 0.2917038 0.9565064 -0.0021058337
vn 0.88267124 0.4698709 -0.01062062
vn 0.8864958 0.4625819 -0.011963589
vn -0.30336148 0.95287234 -0.0024415408
vn -0.88821375 0.45927462 -0.011963297
vn -0.89189595 0.45208234 -0.011963564
vn -0.3110491 0.9503906 -0.0025025536
vn 0.31556743 0.9488997 -0.002563604
vn -0.30336148 0.95287234 -0.0024415408
vn 0.30769017 0.9514834 -0.0024720198
vn 0.8902984 0.45522043 -0.011963423
vn 0.8940333 0.44784066 -0.011963578
vn 0.8769343 -0.48046133 -0.011963466
vn 0.87461394 -0.48467246 -0.011963453
vn 0.33241338 0.94312996 -0.0026856759
vn 0.89790505 0.44002566 -0.011994041
vn 0.32380664 0.94611967 -0.0026246347
vn 0.9018683 0.43184447 -0.011993985
vn 0.8817575 -0.47155043 -0.011994002
vn 0.8793246 -0.47607192 -0.01199412
vn -0.88821375 -0.45927462 -0.011963297
vn -0.89189595 0.45208234 -0.011963564
vn -0.88821375 0.45927462 -0.011963297
vn -0.89189595 -0.45208234 -0.011963564
vn -0.3110491 -0.9503906 -0.0025025536
vn -0.30336148 -0.95287234 -0.0024415408
vn 0.27576828 -0.9612215 -0.0022583946
vn 0.87461394 -0.48467246 -0.011963453
vn 0.8769343 -0.48046133 -0.011963466
vn 0.28040704 -0.9598783 -0.0023194314
vn -0.3110491 -0.9503906 -0.0025025536
vn -0.30336148 -0.95287234 -0.0024415408
vn 0.29539502 -0.95537204 -0.0024415336
vn 0.8872999 -0.4610456 -0.011658134
vn 0.3015307 -0.9534534 -0.0024110246
vn 0.88435155 -0.46666735 -0.0119940005
vn 0.9061101 0.4228717 -0.01199398
vn 0.9110067 0.4122267 -0.011658444
vn 0.35277712 0.9357033 -0.0027772922
vn 0.34175646 0.9397845 -0.0027467478
vn -0.33656132 0.9416576 -0.0027161734
vn -0.34730312 0.93774897 -0.002716167
vn -0.90857536 0.4175583 -0.011658184
vn -0.90376973 0.42785087 -0.011994108
vn -0.34730312 -0.93774897 -0.002716167
vn -0.33656132 -0.9416576 -0.0027161734
vn 0.29539502 -0.95537204 -0.0024415336
vn 0.3015307 -0.9534534 -0.0024110246
vn -0.90857536 -0.4175583 -0.011658184
vn -0.90376973 -0.42785087 -0.011994108
vn -0.33656132 -0.9416576 -0.0027161734
vn 0.28516802 -0.9584747 -0.0023499506
vn 0.8793246 -0.47607192 -0.01199412
vn 0.8817575 -0.47155043 -0.011994002
vn 0.29011497 -0.9569888 -0.002380493
vn -0.3274385 -0.94486874 -0.0026551543
vn -0.3190727 -0.9477267 -0.0025940868
vn -0.90376973 -0.42785087 -0.011994108
vn -0.90857536 -0.4175583 -0.011658184
vn -0.90857536 0.4175583 -0.011658184
vn -0.90376973 0.42785087 -0.011994108
vn -0.3190727 0.9477267 -0.0025940868
vn -0.89568955 0.44451812 -0.011994206
vn -0.8995863 0.4365783 -0.011994078
vn -0.3274385 0.94486874 -0.0026551543
vn 0.33241338 0.94312996 -0.0026856759
vn 0.32380664 0.94611967 -0.0026246347
vn -0.89568955 -0.44451812 -0.011994206
vn -0.8995863 0.4365783 -0.011994078
vn -0.89568955 0.44451812 -0.011994206
vn -0.8995863 -0.4365783 -0.011994078
vn -0.3274385 -0.94486874 -0.0026551543
vn -0.3190727 -0.9477267 -0.0025940868
vn 0.9018683 0.43184447 -0.011993985
vn 0.9061101 0.4228717 -0.01199398
vn 0.88435155 -0.46666735 -0.0119940005
vn 0.8817575 -0.47155043 -0.011994002
vn 0.8940333 0.44784066 -0.011963578
vn 0.8793246 -0.47607192 -0.01199412
vn 0.8769343 -0.48046133 -0.011963466
vn 0.89790505 0.44002566 -0.011994041
vn 0.31556743 0.9488997 -0.002563604
vn 0.32380664 0.94611967 -0.0026246347
vn -0.3110491 0.9503906 -0.0025025536
vn -0.3190727 0.9477267 -0.0025940868
vn -0.89189595 0.45208234 -0.011963564
vn -0.89568955 0.44451812 -0.011994206
vn -0.89189595 -0.45208234 -0.011963564
vn -0.89568955 -0.44451812 -0.011994206
vn -0.3110491 -0.9503906 -0.0025025536
vn -0.3190727 -0.9477267 -0.0025940868
vn 0.8864958 0.4625819 -0.011963589
vn 0.8902984 0.45522043 -0.011963423
vn 0.87461394 -0.48467246 -0.011963453
vn 0.8722327 -0.4889447 -0.011963443
vn 0.29011497 -0.9569888 -0.002380493
vn 0.29539502 -0.95537204 -0.0024415336
vn -0.33656132 -0.9416576 -0.0027161734
vn -0.3274385 -0.94486874 -0.0026551543
vn -0.90376973 -0.42785087 -0.011994108
vn -0.8995863 -0.4365783 -0.011994078
vn 0.28040704 -0.9598783 -0.0023194314
vn -0.3190727 -0.9477267 -0.0025940868
vn -0.3110491 -0.9503906 -0.0025025536
vn 0.28516802 -0.9584747 -0.0023499506
vn 0.8769343 -0.48046133 -0.011963466
vn 0.8793246 -0.47607192 -0.01199412
vn 0.33241338 0.94312996 -0.0026856759
vn 0.9061101 0.4228717 -0.01199398
vn 0.9018683 0.43184447 -0.011993985
vn 0.34175646 0.9397845 -0.0027467478
vn -0.3274385 0.94486874 -0.0026551543
vn -0.33656132 0.9416576 -0.0027161734
vn -0.8995863 0.4365783 -0.011994078
vn -0.90376973 0.42785087 -0.011994108
vn 0.2998186 0.9539932 -0.0024110004
vn 0.8902984 0.45522043 -0.011963423
vn 0.8864958 0.4625819 -0.011963589
vn 0.30769017 0.9514834 -0.0024720198
vn -0.29569948 0.95527804 -0.002380489
vn -0.30336148 0.95287234 -0.0024415408
vn -0.88821375 0.45927462 -0.011963297
vn -0.88449883 0.46638986 -0.011932891
vn -0.88449883 -0.46638986 -0.011932891
vn -0.88821375 -0.45927462 -0.011963297
vn -0.29569948 -0.95527804 -0.002380489
vn -0.30336148 -0.95287234 -0.0024415408
vn 0.27107456 -0.96255577 -0.0022279264
vn 0.27576828 -0.9612215 -0.0022583946
vn 0.8722327 -0.4889447 -0.011963443
vn 0.87461394 -0.48467246 -0.011963453
vn -0.90376973 0.42785087 -0.011994108
vn -0.8995863 0.4365783 -0.011994078
vn -0.8995863 -0.4365783 -0.011994078
vn -0.90376973 -0.42785087 -0.011994108
vn -0.30336148 0.95287234 -0.0024415408
vn -0.29569948 0.95527804 -0.002380489
vn -0.88449883 0.46638986 -0.011932891
vn -0.88821375 0.45927462 -0.011963297
vn 0.29539502 -0.95537204 -0.0024415336
vn 0.29011497 -0.9569888 -0.002380493
vn 0.8817575 -0.47155043 -0.011994002
vn 0.88435155 -0.46666735 -0.0119940005
vn 0.8722327 -0.4889447 -0.011963443
vn 0.86989033 -0.49313015 -0.01065122
vn 0.88267124 0.4698709 -0.01062062
vn 0.8864958 0.4625819 -0.011963589
vn 0.28663933 0.95803815 -0.00088506605
vn -0.24772291 0.9371476 -0.24573915
vn -0.2828535 0.9591627 -0.0008850617
vn -0.8786827 0.4773837 -0.0046389415
vn 0.24909751 0.93611467 -0.2482735
vn -0.8243191 0.4577245 -0.33314577
vn 0.82325906 0.45424977 -0.3404432
vn 0.8805537 0.47392362 -0.00463883
vn -0.8244181 -0.4559585 -0.33531564
vn -0.8786827 -0.4773837 -0.0046389415
vn 0.8687497 -0.49522942 -0.0046693846
vn 0.8098804 -0.48213777 -0.33412105
vn -0.2828535 -0.9591627 -0.0008850617
vn -0.2477568 -0.93590903 -0.25038144
vn 0.23554981 -0.9412531 -0.24198943
vn 0.2631328 -0.9647593 -0.00082400674
vn 0.86989033 -0.49313015 -0.01065122
vn 0.8687497 -0.49522942 -0.0046693846
vn 0.8805537 0.47392362 -0.00463883
vn 0.2631328 -0.9647593 -0.00082400674
vn 0.88267124 0.4698709 -0.01062062
vn 0.26616028 -0.96392685 -0.0019532458
vn 0.2917038 0.9565064 -0.0021058337
vn 0.28663933 0.95803815 -0.00088506605
vn -0.28776726 -0.9576981 -0.0020753178
vn -0.2828535 -0.9591627 -0.0008850617
vn -0.2828535 0.9591627 -0.0008850617
vn -0.28776726 0.9576981 -0.0020753178
vn -0.8786827 -0.4773837 -0.0046389415
vn -0.88074565 -0.47347057 -0.010620586
vn -0.88074565 0.47347057 -0.010620586
vn -0.8786827 0.4773837 -0.0046389415
vn 0.71891266 -0.6827168 -0.13062263
vn 0.25224352 -0.54272795 0.80113643
vn 0.887714 0.20042005 0.4144822
vn -0.28749067 -0.9577834 -9.1557544E-05
vn -0.014374613 0.47112712 0.8819481
vn 0.28749067 0.9577834 9.1557544E-05
vn -0.71891266 0.6827168 0.13062263
vn -0.7407032 -0.24464265 0.6257065
vn -0.887714 -0.20042005 -0.4144822
vn 0.36305895 0.9317577 -0.003967524
vn 0.35277712 0.9357033 -0.0027772922
vn -0.34730312 0.93774897 -0.002716167
vn 0.9110067 0.4122267 -0.011658444
vn -0.3565519 0.934274 -0.0016785377
vn 0.9159766 0.4006577 -0.021455089
vn -0.91245914 0.40910813 -0.0069888667
vn -0.90857536 0.4175583 -0.011658184
vn 0.890909 -0.45369467 -0.021027552
vn 0.8872999 -0.4610456 -0.011658134
vn -0.90857536 -0.4175583 -0.011658184
vn -0.91245914 -0.40910813 -0.0069888667
vn 0.3015307 -0.9534534 -0.0024110246
vn 0.3073314 -0.95159817 -0.002899353
vn -0.3565519 -0.934274 -0.0016785377
vn -0.34730312 -0.93774897 -0.002716167
vn -0.91245914 -0.40910813 -0.0069888667
vn -0.88355935 0.41576216 -0.21555662
vn -0.91245914 0.40910813 -0.0069888667
vn -0.3565519 0.934274 -0.0016785377
vn -0.88355935 -0.41576216 -0.21555662
vn -0.37267435 -0.92611605 -0.058505993
vn -0.3565519 -0.934274 -0.0016785377
vn 0.3073314 -0.95159817 -0.002899353
vn -0.37267435 0.92611605 -0.058505993
vn -0.69591814 0.4436505 -0.56468767
vn 0.32292348 0.9453928 0.044191778
vn 0.36305895 0.9317577 -0.003967524
vn 0.9159766 0.4006577 -0.021455089
vn 0.23295055 0.9648847 0.121373564
vn 0.90443337 0.42143822 0.06625695
vn 0.808371 0.4768983 0.34511492
vn 0.88594776 -0.4361528 0.15769376
vn 0.890909 -0.45369467 -0.021027552
vn -0.2721416 0.9414323 -0.19910865
vn 0.09955254 -0.9910391 0.08905405
vn 0.6185454 -0.7158121 0.32405958
vn 0.58905476 -0.760879 0.27217194
vn 0.22718728 0.95947254 0.16672811
vn -0.2721416 -0.9414323 -0.19910865
vn -0.69591814 -0.4436505 -0.56468767
vn -0.3232888 0.4476541 -0.8337207
vn -0.112583876 -0.9458694 -0.3043946
vn 0.57031506 -0.7031658 0.42461574
vn -0.3232888 -0.4476541 -0.8337207
vn -0.112583876 0.9458694 -0.3043946
vn 0.70579547 0.47641045 0.5242956
vn 0.65292865 -0.74390656 -0.14243332
vn 0.65409344 0.38115773 -0.65336096
vn 0.6899586 0.70814836 0.14994323
vn 0.69239545 -0.6602585 0.29094222
vn 0.65409344 -0.38115773 -0.65336096
vn 0.8150715 0.42213914 0.39680833
vn 0.65292865 0.74390656 -0.14243332
vn 0.887714 0.20042005 0.4144822
vn 0.7407032 0.24464265 -0.6257065
vn 0.71891266 -0.6827168 -0.13062263
vn 0.28749067 0.9577834 9.1557544E-05
vn 0.014374613 -0.47112712 -0.8819481
vn -0.28749067 -0.9577834 -9.1557544E-05
vn -0.887714 -0.20042005 -0.4144822
vn -0.25224352 0.54272795 -0.80113643
vn -0.71891266 0.6827168 0.13062263
vn -0.8243191 0.4577245 -0.33314577
vn -0.8808178 0.47179797 -0.03958354
vn -0.87992966 -0.47344443 -0.039674964
vn -0.8244181 -0.4559585 -0.33531564
vn -0.24772291 0.9371476 -0.24573915
vn -0.31950387 -0.9468228 -0.03799621
vn -0.2477568 -0.93590903 -0.25038144
vn -0.3200843 0.94664145 -0.037630048
vn 0.24909751 0.93611467 -0.2482735
vn 0.326709 0.9443584 -0.038057555
vn 0.82325906 0.45424977 -0.3404432
vn -0.52295053 -0.29179633 0.8008605
vn -0.1456382 0.5973852 0.7886193
vn -0.5234634 0.2939904 0.79972225
vn -0.14518115 -0.5942142 0.7910953
vn 0.2921912 -0.955649 -0.036867246
vn 0.23554981 -0.9412531 -0.24198943
vn 0.14032732 -0.5970474 0.7898372
vn 0.8764435 -0.4798801 -0.039522056
vn 0.8098804 -0.48213777 -0.33412105
vn 0.88326687 0.46716303 -0.03998064
vn 0.14539646 0.59641844 0.78939533
vn 0.51879805 0.29014722 0.8041537
vn 0.51532036 -0.31459412 0.7971671
vn 0.43139318 -0.78258115 -0.44885033
vn 0.9364727 -0.33405998 -0.10687722
vn 0.87034625 0.4857739 -0.08075377
vn 0.2867874 0.8673815 -0.40669665
vn 0.4428038 0.30833602 0.84193456
vn 0.4680432 -0.2757414 0.8395845
vn -0.22160247 0.61109304 0.75990635
vn -0.1503407 -0.6738169 0.72344214
vn -0.115394935 -0.71062034 -0.6940481
vn -0.14691964 0.7801024 -0.6081569
vn 0.34798354 -0.9129914 -0.2129652
vn 0.36711928 0.92495507 0.09839493
vn -0.6680784 0.4776959 0.57050663
vn -0.6767014 -0.5882874 0.442711
vn -0.31099242 -0.48486128 0.81743085
vn -0.23606764 0.41124904 0.88042396
vn -0.34026206 0.07895398 0.93701017
vn 0.33144575 0.5395302 0.7739838
vn 0.18509863 -0.5647873 0.80421007
vn -0.15393658 0.31535026 0.93640685
vn -0.4705389 0.8822986 0.011932852
vn 0.18738887 0.31099224 0.931756
vn 0.53258574 0.8452216 -0.0441914
vn -0.17468856 -0.20954083 0.9620689
vn -0.27890998 0.50889856 0.81439024
vn -0.9842928 0.16742621 0.056002025
vn -0.5231843 -0.8521773 -0.008484235
vn 0.5640833 0.82566196 -0.009613496
vn -0.11993963 0.34889308 -0.9294559
vn -0.3640039 -0.493711 0.7897788
vn 0.33448622 -0.052705996 0.94092566
vn 0.20557518 -0.37815943 0.9026264
vn 0.4778756 -0.8779873 -0.02780334
vn -0.1434727 -0.28389344 -0.9480612
vn -0.46472016 0.031068832 -0.8849124
vn 0.18857887 -0.34502092 -0.9194556
vn 0.23218536 0.31012982 -0.9219053
vn 0.9958482 -0.090764716 -0.0069279047
vn -0.59350103 0.02771116 0.8043561
vn 0.31129435 -0.0046083773 -0.95030236
vn 0.24003626 -0.5577448 -0.79454595
vn -0.48003024 0.87692726 0.023865703
vn -0.9966478 0.08063029 0.013855471
vn -0.3250889 -0.47200757 -0.81946695
vn -0.6143519 0.06814942 -0.7860835
vn -0.5724575 -0.8195753 -0.02426314
vn -0.2943024 0.5383387 -0.7896692
vn 0.28757718 -0.9577361 0.0064089154
vn 0.286486 0.49737537 -0.81886715
vn 0.009674509 -0.47603473 -0.87937325
vn -0.03701926 0.21561508 -0.9757765
vn 0.13214765 -0.7485722 0.64975137
vn -0.21451588 -0.6962534 -0.6849921
vn -0.5519684 0.5533112 -0.62384087
vn -0.16477354 0.69764 0.6972433
vn -0.35298818 0.590155 -0.7260277
vn -0.02749802 -0.7167187 -0.69682
vn 0.47820646 -0.68048817 0.5552066
vn 0.15485471 0.8163596 0.55639654
vn 0.21192579 0.51901066 -0.8280793
vn 0.7269432 0.6718861 0.14185448
vn 0.43565816 -0.3459629 -0.8309702
vn 0.9031186 -0.40422434 0.14484325
g ShortSword05_0
f 3/3/3 2/2/2 1/1/1
f 6/6/6 5/5/5 4/4/4
f 9/9/9 8/8/8 7/7/7
f 12/12/12 11/11/11 10/10/10
f 15/15/15 14/14/14 13/13/13
f 18/18/18 17/17/17 16/16/16
f 21/21/21 20/20/20 19/19/19
f 22/22/22 21/21/21 19/19/19
f 25/25/25 24/24/24 23/23/23
f 26/26/26 25/25/25 23/23/23
f 29/29/29 28/28/28 27/27/27
f 28/28/28 30/30/30 27/27/27
f 28/28/28 31/31/31 30/30/30
f 31/31/31 32/32/32 30/30/30
f 35/35/35 34/34/34 33/33/33
f 36/36/36 35/35/35 33/33/33
f 39/39/39 38/38/38 37/37/37
f 40/40/40 39/39/39 37/37/37
f 43/43/43 42/42/42 41/41/41
f 41/41/41 44/44/44 43/43/43
f 45/45/45 44/44/44 41/41/41
f 45/45/45 46/46/46 44/44/44
f 44/44/44 47/47/47 43/43/43
f 46/46/46 47/47/47 44/44/44
f 47/47/47 48/48/48 43/43/43
f 46/46/46 49/49/49 47/47/47
f 52/52/52 51/51/51 50/50/50
f 51/51/51 53/53/53 50/50/50
f 50/50/50 53/53/53 54/54/54
f 50/50/50 54/54/54 55/55/55
f 54/54/54 56/56/56 55/55/55
f 54/54/54 57/57/57 56/56/56
f 53/53/53 57/57/57 54/54/54
f 57/57/57 58/58/58 56/56/56
f 57/57/57 59/59/59 58/58/58
f 53/53/53 59/59/59 57/57/57
f 51/51/51 59/59/59 53/53/53
f 60/60/60 59/59/59 51/51/51
f 63/63/63 62/62/62 61/61/61
f 64/64/64 63/63/63 61/61/61
f 66/66/66 61/61/61 65/65/65
f 61/61/61 67/67/67 65/65/65
f 67/67/67 68/68/68 65/65/65
f 68/68/68 69/69/69 65/65/65
f 70/70/70 69/69/69 68/68/68
f 71/71/71 70/70/70 68/68/68
f 70/70/70 71/71/71 72/72/72
f 73/73/73 70/70/70 72/72/72
f 73/73/73 72/72/72 74/74/74
f 72/72/72 75/75/75 74/74/74
f 75/75/75 76/76/76 74/74/74
f 76/76/76 77/77/77 74/74/74
f 80/80/80 79/79/79 78/78/78
f 81/81/81 80/80/80 78/78/78
f 81/81/81 83/83/83 82/82/82
f 83/83/83 84/84/84 82/82/82
f 84/84/84 85/85/85 82/82/82
f 85/85/85 86/86/86 82/82/82
f 86/86/86 85/85/85 87/87/87
f 85/85/85 88/88/88 87/87/87
f 91/91/91 90/90/90 89/89/89
f 90/90/90 92/92/92 89/89/89
f 92/92/92 90/90/90 93/93/93
f 90/90/90 94/94/94 93/93/93
f 97/97/97 96/96/96 95/95/95
f 96/96/96 98/98/98 95/95/95
f 95/95/95 98/98/98 99/99/99
f 100/100/100 95/95/95 99/99/99
f 103/103/103 102/102/102 101/101/101
f 104/104/104 103/103/103 101/101/101
f 104/104/104 101/101/101 105/105/105
f 101/101/101 106/106/106 105/105/105
f 109/109/109 108/108/108 107/107/107
f 108/108/108 110/110/110 107/107/107
f 111/111/111 110/110/110 108/108/108
f 112/112/112 111/111/111 108/108/108
f 111/111/111 112/112/112 113/113/113
f 114/114/114 111/111/111 113/113/113
f 115/115/115 114/114/114 113/113/113
f 116/116/116 115/115/115 113/113/113
f 116/116/116 117/117/117 115/115/115
f 117/117/117 118/118/118 115/115/115
f 121/121/121 120/120/120 119/119/119
f 122/122/122 121/121/121 119/119/119
f 124/124/124 123/123/123 119/119/119
f 125/125/125 124/124/124 119/119/119
f 128/128/128 127/127/127 126/126/126
f 129/129/129 128/128/128 126/126/126
f 129/129/129 126/126/126 130/130/130
f 126/126/126 131/131/131 130/130/130
f 134/134/134 133/133/133 132/132/132
f 135/135/135 134/134/134 132/132/132
f 138/138/138 137/137/137 136/136/136
f 139/139/139 138/138/138 136/136/136
f 139/139/139 136/136/136 140/140/140
f 136/136/136 141/141/141 140/140/140
f 144/144/144 143/143/143 142/142/142
f 143/143/143 145/145/145 142/142/142
f 142/142/142 145/145/145 146/146/146
f 147/147/147 142/142/142 146/146/146
f 150/150/150 149/149/149 148/148/148
f 151/151/151 150/150/150 148/148/148
f 154/154/154 153/153/153 152/152/152
f 153/153/153 155/155/155 152/152/152
f 152/152/152 155/155/155 156/156/156
f 155/155/155 157/157/157 156/156/156
f 156/156/156 157/157/157 158/158/158
f 157/157/157 159/159/159 158/158/158
f 160/160/160 158/158/158 159/159/159
f 161/161/161 160/160/160 159/159/159
f 162/162/162 160/160/160 161/161/161
f 163/163/163 162/162/162 161/161/161
f 162/162/162 163/163/163 164/164/164
f 163/163/163 165/165/165 164/164/164
f 168/168/168 167/167/167 166/166/166
f 169/169/169 168/168/168 166/166/166
f 172/172/172 171/171/171 170/170/170
f 173/173/173 172/172/172 170/170/170
f 174/174/174 172/172/172 173/173/173
f 175/175/175 174/174/174 173/173/173
f 178/178/178 177/177/177 176/176/176
f 177/177/177 179/179/179 176/176/176
f 180/180/180 176/176/176 179/179/179
f 181/181/181 180/180/180 179/179/179
f 184/184/184 183/183/183 182/182/182
f 183/183/183 185/185/185 182/182/182
f 182/182/182 185/185/185 186/186/186
f 185/185/185 187/187/187 186/186/186
f 188/188/188 186/186/186 187/187/187
f 189/189/189 188/188/188 187/187/187
f 192/192/192 191/191/191 190/190/190
f 191/191/191 193/193/193 190/190/190
f 190/190/190 193/193/193 194/194/194
f 193/193/193 195/195/195 194/194/194
f 198/198/198 197/197/197 196/196/196
f 199/199/199 198/198/198 196/196/196
f 198/198/198 199/199/199 200/200/200
f 199/199/199 201/201/201 200/200/200
f 200/200/200 201/201/201 202/202/202
f 201/201/201 203/203/203 202/202/202
f 204/204/204 202/202/202 203/203/203
f 205/205/205 204/204/204 203/203/203
f 208/208/208 207/207/207 206/206/206
f 209/209/209 208/208/208 206/206/206
f 212/212/212 211/211/211 210/210/210
f 213/213/213 212/212/212 210/210/210
f 216/216/216 215/215/215 214/214/214
f 217/217/217 216/216/216 214/214/214
f 220/220/220 219/219/219 218/218/218
f 221/221/221 220/220/220 218/218/218
f 224/224/224 223/223/223 222/222/222
f 224/224/224 225/225/225 223/223/223
f 223/223/223 226/226/226 222/222/222
f 225/225/225 227/227/227 223/223/223
f 226/226/226 228/228/228 222/222/222
f 228/228/228 229/229/229 222/222/222
f 227/227/227 225/225/225 230/230/230
f 225/225/225 231/231/231 230/230/230
f 229/229/229 228/228/228 232/232/232
f 228/228/228 233/233/233 232/232/232
f 230/230/230 231/231/231 234/234/234
f 235/235/235 230/230/230 234/234/234
f 232/232/232 233/233/233 236/236/236
f 236/236/236 235/235/235 234/234/234
f 237/237/237 232/232/232 236/236/236
f 237/237/237 236/236/236 234/234/234
f 240/240/240 239/239/239 238/238/238
f 238/238/238 239/239/239 241/241/241
f 242/242/242 240/240/240 238/238/238
f 243/243/243 238/238/238 241/241/241
f 240/240/240 242/242/242 244/244/244
f 245/245/245 240/240/240 244/244/244
f 243/243/243 241/241/241 246/246/246
f 241/241/241 247/247/247 246/246/246
f 248/248/248 245/245/245 244/244/244
f 249/249/249 248/248/248 244/244/244
f 247/247/247 250/250/250 246/246/246
f 250/250/250 251/251/251 246/246/246
f 249/249/249 252/252/252 248/248/248
f 252/252/252 251/251/251 250/250/250
f 252/252/252 253/253/253 248/248/248
f 253/253/253 252/252/252 250/250/250
f 256/256/256 255/255/255 254/254/254
f 255/255/255 257/257/257 254/254/254
f 256/256/256 258/258/258 255/255/255
f 259/259/259 258/258/258 256/256/256
f 259/259/259 260/260/260 258/258/258
f 255/255/255 261/261/261 257/257/257
f 258/258/258 261/261/261 255/255/255
f 258/258/258 260/260/260 261/261/261
f 261/261/261 262/262/262 257/257/257
f 261/261/261 260/260/260 262/262/262
f 265/265/265 264/264/264 263/263/263
f 264/264/264 266/266/266 263/263/263
f 267/267/267 265/265/265 263/263/263
f 266/266/266 268/268/268 263/263/263
f 267/267/267 269/269/269 265/265/265
f 269/269/269 270/270/270 265/265/265
f 268/268/268 266/266/266 271/271/271
f 266/266/266 272/272/272 271/271/271
f 270/270/270 269/269/269 273/273/273
f 269/269/269 274/274/274 273/273/273
f 271/271/271 272/272/272 275/275/275
f 276/276/276 271/271/271 275/275/275
f 273/273/273 274/274/274 277/277/277
f 276/276/276 275/275/275 277/277/277
f 278/278/278 273/273/273 277/277/277
f 275/275/275 278/278/278 277/277/277
f 281/281/281 280/280/280 279/279/279
f 280/280/280 281/281/281 282/282/282
f 280/280/280 283/283/283 279/279/279
f 279/279/279 283/283/283 284/284/284
f 285/285/285 279/279/279 284/284/284
f 286/286/286 285/285/285 284/284/284
f 287/287/287 280/280/280 282/282/282
f 280/280/280 288/288/288 283/283/283
f 288/288/288 280/280/280 287/287/287
f 287/287/287 282/282/282 289/289/289
f 282/282/282 290/290/290 289/289/289
f 290/290/290 291/291/291 289/289/289
f 289/289/289 292/292/292 287/287/287
f 291/291/291 293/293/293 289/289/289
f 289/289/289 293/293/293 292/292/292
f 293/293/293 294/294/294 292/292/292
f 293/293/293 291/291/291 295/295/295
f 294/294/294 293/293/293 295/295/295
f 291/291/291 296/296/296 295/295/295
f 295/295/295 296/296/296 286/286/286
f 292/292/292 297/297/297 287/287/287
f 297/297/297 288/288/288 287/287/287
f 298/298/298 295/295/295 286/286/286
f 298/298/298 286/286/286 284/284/284
f 298/298/298 299/299/299 295/295/295
f 294/294/294 295/295/295 299/299/299
f 300/300/300 299/299/299 298/298/298
f 300/300/300 298/298/298 284/284/284
f 299/299/299 300/300/300 294/294/294
f 292/292/292 301/301/301 297/297/297
f 292/292/292 294/294/294 301/301/301
f 284/284/284 302/302/302 300/300/300
f 302/302/302 284/284/284 283/283/283
f 288/288/288 303/303/303 283/283/283
f 303/303/303 302/302/302 283/283/283
f 304/304/304 288/288/288 297/297/297
f 288/288/288 304/304/304 303/303/303
f 302/302/302 305/305/305 300/300/300
f 305/305/305 302/302/302 303/303/303
f 300/300/300 306/306/306 294/294/294
f 305/305/305 306/306/306 300/300/300
f 307/307/307 305/305/305 303/303/303
f 304/304/304 307/307/307 303/303/303
f 308/308/308 304/304/304 297/297/297
f 301/301/301 308/308/308 297/297/297
f 294/294/294 309/309/309 301/301/301
f 306/306/306 309/309/309 294/294/294
f 305/305/305 310/310/310 306/306/306
f 310/310/310 305/305/305 307/307/307
f 304/304/304 311/311/311 307/307/307
f 311/311/311 304/304/304 308/308/308
f 301/301/301 312/312/312 308/308/308
f 301/301/301 309/309/309 312/312/312
f 306/306/306 313/313/313 309/309/309
f 310/310/310 313/313/313 306/306/306
f 314/314/314 310/310/310 307/307/307
f 313/313/313 310/310/310 314/314/314
f 311/311/311 314/314/314 307/307/307
f 313/313/313 315/315/315 309/309/309
f 314/314/314 315/315/315 313/313/313
f 309/309/309 315/315/315 312/312/312
f 314/314/314 311/311/311 315/315/315
f 312/312/312 316/316/316 308/308/308
f 316/316/316 312/312/312 315/315/315
f 311/311/311 316/316/316 315/315/315
f 316/316/316 311/311/311 308/308/308
f 319/319/319 318/318/318 317/317/317
f 318/318/318 320/320/320 317/317/317
f 321/321/321 318/318/318 319/319/319
f 322/322/322 321/321/321 319/319/319
f 322/322/322 323/323/323 321/321/321
f 324/324/324 320/320/320 318/318/318
f 321/321/321 324/324/324 318/318/318
f 323/323/323 324/324/324 321/321/321
f 324/324/324 325/325/325 320/320/320
f 323/323/323 325/325/325 324/324/324
f 328/328/328 327/327/327 326/326/326
f 329/329/329 328/328/328 326/326/326
f 326/326/326 327/327/327 330/330/330
f 328/328/328 329/329/329 331/331/331
f 329/329/329 332/332/332 331/331/331
f 327/327/327 333/333/333 330/330/330
f 334/334/334 330/330/330 333/333/333
f 335/335/335 334/334/334 333/333/333
f 336/336/336 334/334/334 335/335/335
f 327/327/327 328/328/328 337/337/337
f 337/337/337 328/328/328 331/331/331
f 333/333/333 327/327/327 338/338/338
f 333/333/333 338/338/338 335/335/335
f 339/339/339 327/327/327 337/337/337
f 327/327/327 339/339/339 338/338/338
f 339/339/339 337/337/337 340/340/340
f 340/340/340 337/337/337 331/331/331
f 338/338/338 339/339/339 340/340/340
f 331/331/331 332/332/332 341/341/341
f 332/332/332 342/342/342 341/341/341
f 343/343/343 340/340/340 331/331/331
f 338/338/338 340/340/340 343/343/343
f 341/341/341 343/343/343 331/331/331
f 344/344/344 341/341/341 342/342/342
f 341/341/341 344/344/344 343/343/343
f 345/345/345 344/344/344 342/342/342
f 345/345/345 336/336/336 346/346/346
f 346/346/346 336/336/336 335/335/335
f 344/344/344 345/345/345 346/346/346
f 347/347/347 338/338/338 343/343/343
f 338/338/338 347/347/347 335/335/335
f 348/348/348 346/346/346 335/335/335
f 346/346/346 348/348/348 344/344/344
f 347/347/347 348/348/348 335/335/335
f 347/347/347 343/343/343 349/349/349
f 344/344/344 349/349/349 343/343/343
f 349/349/349 348/348/348 347/347/347
f 348/348/348 349/349/349 344/344/344
f 352/352/352 351/351/351 350/350/350
f 353/353/353 352/352/352 350/350/350
f 351/351/351 352/352/352 354/354/354
f 354/354/354 352/352/352 353/353/353
f 355/355/355 351/351/351 354/354/354
f 355/355/355 354/354/354 356/356/356
f 356/356/356 354/354/354 353/353/353
f 351/351/351 355/355/355 357/357/357
f 350/350/350 351/351/351 357/357/357
f 357/357/357 355/355/355 356/356/356
f 353/353/353 350/350/350 358/358/358
f 356/356/356 353/353/353 359/359/359
f 359/359/359 353/353/353 358/358/358
f 359/359/359 358/358/358 360/360/360
f 361/361/361 359/359/359 360/360/360
f 362/362/362 359/359/359 361/361/361
f 362/362/362 356/356/356 359/359/359
f 357/357/357 356/356/356 362/362/362
f 350/350/350 357/357/357 363/363/363
f 358/358/358 350/350/350 363/363/363
f 363/363/363 357/357/357 362/362/362
f 358/358/358 363/363/363 364/364/364
f 360/360/360 358/358/358 364/364/364
f 363/363/363 362/362/362 365/365/365
f 365/365/365 362/362/362 361/361/361
f 364/364/364 363/363/363 365/365/365
f 364/364/364 365/365/365 366/366/366
f 365/365/365 361/361/361 367/367/367
f 365/365/365 367/367/367 366/366/366
f 360/360/360 364/364/364 368/368/368
f 364/364/364 366/366/366 369/369/369
f 368/368/368 364/364/364 369/369/369
f 369/369/369 366/366/366 370/370/370
f 368/368/368 369/369/369 371/371/371
f 371/371/371 369/369/369 370/370/370
f 361/361/361 372/372/372 367/367/367
f 367/367/367 373/373/373 366/366/366
f 367/367/367 372/372/372 374/374/374
f 367/367/367 374/374/374 373/373/373
f 366/366/366 375/375/375 370/370/370
f 366/366/366 373/373/373 376/376/376
f 375/375/375 366/366/366 376/376/376
f 377/377/377 371/371/371 370/370/370
f 370/370/370 375/375/375 378/378/378
f 377/377/377 370/370/370 378/378/378
f 379/379/379 368/368/368 371/371/371
f 380/380/380 371/371/371 377/377/377
f 379/379/379 371/371/371 380/380/380
f 374/374/374 381/381/381 373/373/373
f 376/376/376 373/373/373 382/382/382
f 373/373/373 381/381/381 382/382/382
f 375/375/375 376/376/376 383/383/383
f 375/375/375 384/384/384 378/378/378
f 384/384/384 375/375/375 383/383/383
f 376/376/376 382/382/382 385/385/385
f 383/383/383 376/376/376 385/385/385
f 386/386/386 377/377/377 378/378/378
f 387/387/387 380/380/380 377/377/377
f 387/387/387 377/377/377 386/386/386
f 381/381/381 380/380/380 387/387/387
f 382/382/382 381/381/381 387/387/387
f 388/388/388 380/380/380 381/381/381
f 374/374/374 388/388/388 381/381/381
f 388/388/388 379/379/379 380/380/380
f 382/382/382 387/387/387 389/389/389
f 385/385/385 382/382/382 389/389/389
f 389/389/389 387/387/387 386/386/386
f 386/386/386 378/378/378 390/390/390
f 378/378/378 384/384/384 390/390/390
f 374/374/374 391/391/391 388/388/388
f 372/372/372 391/391/391 374/374/374
f 388/388/388 392/392/392 379/379/379
f 391/391/391 392/392/392 388/388/388
f 389/389/389 386/386/386 393/393/393
f 393/393/393 386/386/386 390/390/390
f 385/385/385 389/389/389 394/394/394
f 394/394/394 389/389/389 393/393/393
f 392/392/392 395/395/395 379/379/379
f 394/394/394 393/393/393 395/395/395
f 392/392/392 394/394/394 395/395/395
f 379/379/379 395/395/395 368/368/368
f 396/396/396 385/385/385 394/394/394
f 396/396/396 394/394/394 392/392/392
f 391/391/391 396/396/396 392/392/392
f 383/383/383 385/385/385 396/396/396
f 395/395/395 393/393/393 397/397/397
f 395/395/395 397/397/397 368/368/368
f 393/393/393 390/390/390 397/397/397
f 397/397/397 360/360/360 368/368/368
f 398/398/398 396/396/396 391/391/391
f 398/398/398 383/383/383 396/396/396
f 372/372/372 398/398/398 391/391/391
f 384/384/384 383/383/383 398/398/398
f 390/390/390 399/399/399 397/397/397
f 384/384/384 399/399/399 390/390/390
f 399/399/399 360/360/360 397/397/397
f 400/400/400 398/398/398 372/372/372
f 400/400/400 384/384/384 398/398/398
f 399/399/399 384/384/384 400/400/400
f 361/361/361 400/400/400 372/372/372
f 360/360/360 401/401/401 361/361/361
f 399/399/399 402/402/402 360/360/360
f 402/402/402 401/401/401 360/360/360
f 400/400/400 403/403/403 399/399/399
f 403/403/403 402/402/402 399/399/399
f 361/361/361 404/404/404 400/400/400
f 401/401/401 404/404/404 361/361/361
f 404/404/404 403/403/403 400/400/400
f 403/403/403 405/405/405 402/402/402
f 402/402/402 406/406/406 401/401/401
f 405/405/405 406/406/406 402/402/402
f 401/401/401 407/407/407 404/404/404
f 406/406/406 407/407/407 401/401/401
f 404/404/404 408/408/408 403/403/403
f 408/408/408 405/405/405 403/403/403
f 407/407/407 408/408/408 404/404/404
f 405/405/405 409/409/409 406/406/406
f 408/408/408 410/410/410 405/405/405
f 410/410/410 409/409/409 405/405/405
f 409/409/409 411/411/411 406/406/406
f 406/406/406 411/411/411 407/407/407
f 411/411/411 409/409/409 410/410/410
f 412/412/412 410/410/410 408/408/408
f 407/407/407 412/412/412 408/408/408
f 412/412/412 411/411/411 410/410/410
f 411/411/411 412/412/412 407/407/407
