g ShortSword12
v -0.09339275 -0.08296969 0.5203138
v 0.017537177 -0.041490193 0.367632
v -0.093392745 -0.06556825 0.4154615
v -0.09339275 0.01751668 0.5203138
v -0.093392745 -0.0054820436 0.4154615
v 0.017537177 -0.029560125 0.367632
v -0.09339275 -0.08296969 0.5203138
v 0.006327793 -0.06556824 0.48791265
v 0.017537177 -0.041490193 0.367632
v -0.09339275 0.01751668 0.5203138
v 0.017537177 -0.029560125 0.367632
v 0.006327793 -0.0054820315 0.48791265
v -0.09339275 -0.08296969 0.5203138
v 0.086095616 -0.04149016 0.5786331
v 0.006327793 -0.06556824 0.48791265
v -0.09339275 0.01751668 0.5203138
v 0.006327793 -0.0054820315 0.48791265
v 0.086095616 -0.02956009 0.5786331
v -0.09339275 -0.08296969 0.5203138
v -0.031762082 -0.06556822 0.60514116
v 0.086095616 -0.04149016 0.5786331
v -0.09339275 0.01751668 0.5203138
v 0.086095616 -0.02956009 0.5786331
v -0.031762082 -0.0054820124 0.60514116
v -0.09339275 -0.08296969 0.5203138
v -0.093392715 -0.041490138 0.70903903
v -0.031762082 -0.06556822 0.60514116
v -0.09339275 0.01751668 0.5203138
v -0.031762082 -0.0054820124 0.60514116
v -0.093392715 -0.029560069 0.70903903
v -0.09339275 -0.08296969 0.5203138
v -0.15502343 -0.06556822 0.60514116
v -0.093392715 -0.041490138 0.70903903
v -0.09339275 0.01751668 0.5203138
v -0.093392715 -0.029560069 0.70903903
v -0.15502343 -0.0054820124 0.60514116
v -0.09339275 -0.08296969 0.5203138
v -0.27288103 -0.04149016 0.5786332
v -0.15502343 -0.06556822 0.60514116
v -0.09339275 0.01751668 0.5203138
v -0.15502343 -0.0054820124 0.60514116
v -0.27288103 -0.02956009 0.5786332
v -0.09339275 -0.08296969 0.5203138
v -0.19311327 -0.06556824 0.48791265
v -0.27288103 -0.04149016 0.5786332
v -0.09339275 0.01751668 0.5203138
v -0.27288103 -0.02956009 0.5786332
v -0.19311327 -0.0054820315 0.48791265
v -0.09339275 -0.08296969 0.5203138
v -0.20432259 -0.041490193 0.367632
v -0.19311327 -0.06556824 0.48791265
v -0.09339275 0.01751668 0.5203138
v -0.19311327 -0.0054820315 0.48791265
v -0.20432259 -0.029560125 0.367632
v -0.09339275 -0.08296969 0.5203138
v -0.093392745 -0.06556825 0.4154615
v -0.20432259 -0.041490193 0.367632
v -0.09339275 0.01751668 0.5203138
v -0.20432259 -0.029560125 0.367632
v -0.093392745 -0.0054820436 0.4154615
v -0.08189584 -0.023731573 0.4368157
v -0.07674306 -0.03745143 0.4368157
v -0.08189584 -0.05117129 0.4368157
v -0.09433581 -0.01804862 0.4368157
v -0.09433581 -0.056854237 0.4368157
v -0.10677577 -0.023731573 0.4368157
v -0.10677576 -0.05117129 0.4368157
v -0.11192857 -0.037451424 0.4368157
v -0.07561964 -0.037451487 0.22722581
v -0.10677576 -0.05117129 0.4368157
v -0.09433581 -0.056854237 0.4368157
v -0.081101455 -0.058638096 0.22310857
v -0.11192857 -0.037451424 0.4368157
v -0.094335705 -0.0074890945 -0.010478421
v -0.094335765 -0.06741388 0.21316865
v -0.078526795 -0.016264865 -0.0026876007
v -0.13754793 -0.037451476 -0.2341255
v -0.071978554 -0.037451494 0.0005394952
v -0.12489139 -0.0037521059 -0.2341255
v -0.094335735 0.010206646 -0.2341255
v -0.06378011 -0.07115088 -0.23412548
v -0.05112355 -0.037451487 -0.2341255
v -0.06378011 -0.003752091 -0.2341255
v -0.09433576 -0.085109614 -0.23412548
v -0.094335735 0.010206646 -0.2341255
v -0.12489139 -0.0037521059 -0.2341255
v -0.12489139 -0.07115089 -0.23412548
v -0.13754793 -0.037451476 -0.2341255
v -0.09433573 -0.007489093 0.21316862
v -0.08189584 -0.05117129 0.4368157
v -0.07674306 -0.03745143 0.4368157
v -0.081101455 -0.016264861 0.22310856
v -0.09433581 -0.056854237 0.4368157
v -0.1166929 -0.037451487 -0.021496313
v -0.07561964 -0.037451487 0.22722581
v -0.11014464 -0.016264869 -0.018269254
v -0.09433576 -0.085109614 -0.23412548
v -0.094335705 -0.0074890945 -0.010478421
v -0.12489139 -0.07115089 -0.23412548
v -0.13754793 -0.037451476 -0.2341255
v -0.113051824 -0.037451483 0.19911143
v -0.08189584 -0.023731573 0.4368157
v -0.09433581 -0.01804862 0.4368157
v -0.10757001 -0.01626487 0.20322868
v -0.07674306 -0.03745143 0.4368157
v -0.09433571 -0.06741388 -0.010478418
v -0.09433573 -0.007489093 0.21316862
v -0.11014463 -0.058638107 -0.018269239
v -0.05112355 -0.037451487 -0.2341255
v -0.1166929 -0.037451487 -0.021496313
v -0.06378011 -0.07115088 -0.23412548
v -0.09433576 -0.085109614 -0.23412548
v -0.094335765 -0.06741388 0.21316865
v -0.10677577 -0.023731573 0.4368157
v -0.11192857 -0.037451424 0.4368157
v -0.10757001 -0.0586381 0.2032287
v -0.09433581 -0.01804862 0.4368157
v -0.071978554 -0.037451494 0.0005394952
v -0.113051824 -0.037451483 0.19911143
v -0.078526795 -0.058638103 -0.0026875937
v -0.094335735 0.010206646 -0.2341255
v -0.09433571 -0.06741388 -0.010478418
v -0.06378011 -0.003752091 -0.2341255
v -0.05112355 -0.037451487 -0.2341255
v -0.09339275 -0.03552515 0.4068711
v 0.026625492 -0.035525158 0.355123
v 0.017537177 -0.029560125 0.367632
v -0.093392745 -0.0054820436 0.4154615
v 0.026625492 -0.035525158 0.355123
v 0.014497742 -0.03552514 0.48525807
v 0.006327793 -0.0054820315 0.48791265
v 0.017537177 -0.029560125 0.367632
v 0.014497742 -0.03552514 0.48525807
v 0.10080083 -0.03552512 0.58341116
v 0.086095616 -0.02956009 0.5786331
v 0.006327793 -0.0054820315 0.48791265
v 0.10080083 -0.03552512 0.58341116
v -0.026712783 -0.035525117 0.61209095
v -0.031762082 -0.0054820124 0.60514116
v 0.086095616 -0.02956009 0.5786331
v -0.026712783 -0.035525117 0.61209095
v -0.093392715 -0.0355251 0.724501
v -0.093392715 -0.029560069 0.70903903
v -0.031762082 -0.0054820124 0.60514116
v -0.093392715 -0.0355251 0.724501
v -0.16007274 -0.035525117 0.61209095
v -0.15502343 -0.0054820124 0.60514116
v -0.093392715 -0.029560069 0.70903903
v -0.16007274 -0.035525117 0.61209095
v -0.28758624 -0.03552512 0.5834112
v -0.27288103 -0.02956009 0.5786332
v -0.15502343 -0.0054820124 0.60514116
v -0.28758624 -0.03552512 0.5834112
v -0.20128322 -0.03552514 0.48525807
v -0.19311327 -0.0054820315 0.48791265
v -0.27288103 -0.02956009 0.5786332
v -0.20128322 -0.03552514 0.48525807
v -0.21341091 -0.035525158 0.355123
v -0.20432259 -0.029560125 0.367632
v -0.19311327 -0.0054820315 0.48791265
v -0.21341091 -0.035525158 0.355123
v -0.09339275 -0.03552515 0.4068711
v -0.093392745 -0.0054820436 0.4154615
v -0.20432259 -0.029560125 0.367632
v -0.20432259 -0.041490193 0.367632
v -0.093392745 -0.06556825 0.4154615
v -0.09339275 -0.03552515 0.4068711
v -0.21341091 -0.035525158 0.355123
v -0.19311327 -0.06556824 0.48791265
v -0.20432259 -0.041490193 0.367632
v -0.21341091 -0.035525158 0.355123
v -0.20128322 -0.03552514 0.48525807
v -0.27288103 -0.04149016 0.5786332
v -0.19311327 -0.06556824 0.48791265
v -0.20128322 -0.03552514 0.48525807
v -0.28758624 -0.03552512 0.5834112
v -0.15502343 -0.06556822 0.60514116
v -0.27288103 -0.04149016 0.5786332
v -0.28758624 -0.03552512 0.5834112
v -0.16007274 -0.035525117 0.61209095
v -0.093392715 -0.041490138 0.70903903
v -0.15502343 -0.06556822 0.60514116
v -0.16007274 -0.035525117 0.61209095
v -0.093392715 -0.0355251 0.724501
v -0.031762082 -0.06556822 0.60514116
v -0.093392715 -0.041490138 0.70903903
v -0.093392715 -0.0355251 0.724501
v -0.026712783 -0.035525117 0.61209095
v 0.086095616 -0.04149016 0.5786331
v -0.031762082 -0.06556822 0.60514116
v -0.026712783 -0.035525117 0.61209095
v 0.10080083 -0.03552512 0.58341116
v 0.006327793 -0.06556824 0.48791265
v 0.086095616 -0.04149016 0.5786331
v 0.10080083 -0.03552512 0.58341116
v 0.014497742 -0.03552514 0.48525807
v 0.017537177 -0.041490193 0.367632
v 0.006327793 -0.06556824 0.48791265
v 0.014497742 -0.03552514 0.48525807
v 0.026625492 -0.035525158 0.355123
v -0.093392745 -0.06556825 0.4154615
v 0.017537177 -0.041490193 0.367632
v 0.026625492 -0.035525158 0.355123
v -0.09339275 -0.03552515 0.4068711
v -0.09344989 -0.07711046 -0.26309478
v -0.10010867 -0.070989035 -0.24260078
v -0.076016665 -0.07098902 -0.25042894
v -0.11499864 -0.07098894 -0.26309478
v -0.076016665 -0.07098903 -0.2757606
v -0.10010867 -0.07098904 -0.2835887
v -0.12165758 -0.057671215 -0.24260072
v -0.08267537 -0.057671264 -0.22993475
v -0.10477856 -0.054452963 -0.22822809
v -0.05858333 -0.057671204 -0.26309478
v -0.0637905 -0.054452956 -0.24154614
v -0.09344989 -0.036122203 -0.22210649
v -0.069357604 -0.036122203 -0.22993457
v -0.11754219 -0.036122203 -0.22993457
v -0.05446769 -0.036122207 -0.2504289
v -0.13011086 -0.054452796 -0.26309478
v -0.12165758 -0.05767122 -0.28358877
v -0.13243207 -0.036122207 -0.2504289
v -0.13243207 -0.03612221 -0.27576065
v -0.10422443 -0.01457314 -0.22993477
v -0.08212124 -0.01779144 -0.2282281
v -0.123109296 -0.017791465 -0.24154615
v -0.065242216 -0.014573196 -0.24260074
v -0.12831646 -0.014573211 -0.26309478
v -0.11088312 -0.0012553779 -0.25042894
v -0.08679113 -0.0012553767 -0.2426008
v -0.11754219 -0.036122214 -0.29625493
v -0.123109296 -0.017791472 -0.28464332
v -0.11088312 -0.0012553821 -0.2757606
v -0.09344989 0.0048660394 -0.26309478
v -0.07190114 -0.001255488 -0.26309478
v -0.05678893 -0.017791621 -0.26309478
v -0.10422443 -0.014573151 -0.29625472
v -0.08679113 -0.0012553834 -0.2835887
v -0.10477856 -0.054452974 -0.29796138
v -0.05446769 -0.03612221 -0.27576065
v -0.065242216 -0.014573203 -0.28358877
v -0.08212124 -0.017791452 -0.29796138
v -0.09344989 -0.036122214 -0.30408302
v -0.08267537 -0.057671275 -0.29625472
v -0.0637905 -0.05445296 -0.28464332
v -0.069357604 -0.036122214 -0.29625493
v -0.09344989 -0.06380906 -0.32200634
v -0.09794777 -0.059674155 -0.30816305
v -0.08167408 -0.059674144 -0.3134508
v -0.108005665 -0.059674084 -0.32200634
v -0.08167408 -0.059674144 -0.33056185
v -0.09794777 -0.059674162 -0.3358496
v -0.112503655 -0.050678212 -0.30816302
v -0.0861719 -0.05067825 -0.29960737
v -0.10110219 -0.04850435 -0.29845455
v -0.06989819 -0.05067821 -0.32200634
v -0.07341553 -0.04850434 -0.30745065
v -0.09344989 -0.036122262 -0.2943195
v -0.077176005 -0.036122262 -0.29960725
v -0.109723784 -0.036122262 -0.29960725
v -0.06711815 -0.036122266 -0.31345078
v -0.11821368 -0.048504233 -0.32200634
v -0.112503655 -0.05067822 -0.33584964
v -0.11978162 -0.036122266 -0.31345078
v -0.11978162 -0.036122266 -0.3305619
v -0.100727886 -0.02156628 -0.29960737
v -0.0857976 -0.02374018 -0.29845455
v -0.11348426 -0.023740197 -0.30745065
v -0.07439614 -0.021566318 -0.30816302
v -0.1170016 -0.021566328 -0.32200634
v -0.105225705 -0.012570382 -0.3134508
v -0.08895202 -0.012570381 -0.30816305
v -0.109723784 -0.03612227 -0.3444054
v -0.11348426 -0.0237402 -0.33656198
v -0.105225705 -0.012570385 -0.33056185
v -0.09344989 -0.00843548 -0.32200634
v -0.078894116 -0.012570456 -0.32200634
v -0.0686861 -0.023740303 -0.32200634
v -0.100727886 -0.021566287 -0.34440526
v -0.08895202 -0.012570386 -0.3358496
v -0.10110219 -0.048504356 -0.34555808
v -0.06711815 -0.036122266 -0.3305619
v -0.07439614 -0.021566322 -0.33584964
v -0.0857976 -0.023740187 -0.34555808
v -0.09344989 -0.03612227 -0.34969312
v -0.0861719 -0.050678257 -0.34440526
v -0.07341553 -0.04850435 -0.33656198
v -0.077176005 -0.03612227 -0.3444054
vt 0.02506888 0.34012753
vt 0.02506888 0.34012753
vt 0.02506888 0.34012753
vt 0.02506888 0.34012753
vt 0.02506888 0.34012753
vt 0.02506888 0.34012753
vt 0.06692418 0.34477812
vt 0.06692418 0.34477812
vt 0.06692418 0.34477812
vt 0.06537397 0.35252914
vt 0.06537397 0.35252914
vt 0.06537397 0.35252914
vt 0.06692418 0.34477812
vt 0.06692418 0.34477812
vt 0.06692418 0.34477812
vt 0.06537397 0.35252914
vt 0.06537397 0.35252914
vt 0.06537397 0.35252914
vt 0.02506888 0.34012753
vt 0.02506888 0.34012753
vt 0.02506888 0.34012753
vt 0.02506888 0.34012753
vt 0.02506888 0.34012753
vt 0.02506888 0.34012753
vt 0.06692418 0.34477812
vt 0.06692418 0.34477812
vt 0.06692418 0.34477812
vt 0.06537397 0.35252914
vt 0.06537397 0.35252914
vt 0.06537397 0.35252914
vt 0.02506888 0.34012753
vt 0.02506888 0.34012753
vt 0.02506888 0.34012753
vt 0.02506885 0.34012753
vt 0.02506888 0.34012753
vt 0.02506888 0.34012753
vt 0.02506888 0.34012753
vt 0.02506888 0.34012753
vt 0.02506888 0.34012753
vt 0.025068909 0.34012753
vt 0.02506888 0.34012753
vt 0.02506888 0.34012753
vt 0.06692418 0.34477812
vt 0.06692418 0.34477812
vt 0.06692418 0.34477812
vt 0.06537394 0.35252914
vt 0.06537397 0.35252914
vt 0.06537397 0.35252914
vt 0.02506888 0.34012753
vt 0.02506888 0.34012753
vt 0.02506888 0.34012753
vt 0.02506888 0.34012753
vt 0.02506888 0.34012753
vt 0.025068909 0.34012753
vt 0.06692418 0.34477812
vt 0.06692418 0.34477812
vt 0.06692418 0.34477812
vt 0.06537397 0.35252914
vt 0.065374 0.35252914
vt 0.06537397 0.35252914
vt 0.21016955 0.5268761
vt 0.21016955 0.5268761
vt 0.21016955 0.5268761
vt 0.21016955 0.5268761
vt 0.21016955 0.5268761
vt 0.21016955 0.5268761
vt 0.21016955 0.5268761
vt 0.21016955 0.5268761
vt 0.21482015 0.59043413
vt 0.21482015 0.59043413
vt 0.21482015 0.59043413
vt 0.21482015 0.59043413
vt 0.21482015 0.59043413
vt 0.21482015 0.59043413
vt 0.21482015 0.59043413
vt 0.21482015 0.59043413
vt 0.21482015 0.59043413
vt 0.21482015 0.59043413
vt 0.21482015 0.59043413
vt 0.21482015 0.59043413
vt 0.21016955 0.5268761
vt 0.21016955 0.5268761
vt 0.21016955 0.5268761
vt 0.21016955 0.5268761
vt 0.21016955 0.5268761
vt 0.21016955 0.5268761
vt 0.21016955 0.5268761
vt 0.21016955 0.5268761
vt 0.21016955 0.5268761
vt 0.21016955 0.5268761
vt 0.21016955 0.5268761
vt 0.21016955 0.5268761
vt 0.21016955 0.5268761
vt 0.21016955 0.5268761
vt 0.21016955 0.5268761
vt 0.21016955 0.5268761
vt 0.21016955 0.5268761
vt 0.21016955 0.5268761
vt 0.21016955 0.5268761
vt 0.21016955 0.5268761
vt 0.21482015 0.59043413
vt 0.21482015 0.59043413
vt 0.21482015 0.59043413
vt 0.21482015 0.59043413
vt 0.21482015 0.59043413
vt 0.21482015 0.59043413
vt 0.21482015 0.59043413
vt 0.21482015 0.59043413
vt 0.21482015 0.59043413
vt 0.21482015 0.59043413
vt 0.21482015 0.59043413
vt 0.21482015 0.59043413
vt 0.21016955 0.5268761
vt 0.21016955 0.5268761
vt 0.21016955 0.5268761
vt 0.21016955 0.5268761
vt 0.21016955 0.5268761
vt 0.21016955 0.5268761
vt 0.21016955 0.5268761
vt 0.21016955 0.5268761
vt 0.21016955 0.5268761
vt 0.21016955 0.5268761
vt 0.21016955 0.5268761
vt 0.21016955 0.5268761
vt 0.0684744 0.34012753
vt 0.06847437 0.34012753
vt 0.06847437 0.34012753
vt 0.0684744 0.34012753
vt 0.06847437 0.34012753
vt 0.06847437 0.34012753
vt 0.06847437 0.34012753
vt 0.06847437 0.34012753
vt 0.06847437 0.34012753
vt 0.06847437 0.34012753
vt 0.06847437 0.34012753
vt 0.06847437 0.34012753
vt 0.06847437 0.34012753
vt 0.06847437 0.34012753
vt 0.06847437 0.34012753
vt 0.06847437 0.34012753
vt 0.06847437 0.34012753
vt 0.06847437 0.34012753
vt 0.06847437 0.34012753
vt 0.06847437 0.34012753
vt 0.06847437 0.34012753
vt 0.06847437 0.34012753
vt 0.06847437 0.34012753
vt 0.06847437 0.34012753
vt 0.06847437 0.34012753
vt 0.06847437 0.34012753
vt 0.06847437 0.34012753
vt 0.06847437 0.34012753
vt 0.06847437 0.34012753
vt 0.06847437 0.34012753
vt 0.06847437 0.34012753
vt 0.06847437 0.34012753
vt 0.06847437 0.34012753
vt 0.06847437 0.34012753
vt 0.06847437 0.34012753
vt 0.06847437 0.34012753
vt 0.06847437 0.34012753
vt 0.0684744 0.34012753
vt 0.0684744 0.34012753
vt 0.06847437 0.34012753
vt 0.06847437 0.34012753
vt 0.0684744 0.34012753
vt 0.0684744 0.34012753
vt 0.06847437 0.34012753
vt 0.06847437 0.34012753
vt 0.06847437 0.34012753
vt 0.06847437 0.34012753
vt 0.06847437 0.34012753
vt 0.06847437 0.34012753
vt 0.06847437 0.34012753
vt 0.06847437 0.34012753
vt 0.06847437 0.34012753
vt 0.06847437 0.34012753
vt 0.06847437 0.34012753
vt 0.06847437 0.34012753
vt 0.06847437 0.34012753
vt 0.06847437 0.34012753
vt 0.06847437 0.34012753
vt 0.06847437 0.34012753
vt 0.06847437 0.34012753
vt 0.06847437 0.34012753
vt 0.06847437 0.34012753
vt 0.06847437 0.34012753
vt 0.06847437 0.34012753
vt 0.06847437 0.34012753
vt 0.06847437 0.34012753
vt 0.06847437 0.34012753
vt 0.06847437 0.34012753
vt 0.06847437 0.34012753
vt 0.06847437 0.34012753
vt 0.06847437 0.34012753
vt 0.06847437 0.34012753
vt 0.06847437 0.34012753
vt 0.06847437 0.34012753
vt 0.06847437 0.34012753
vt 0.06847437 0.34012753
vt 0.0684744 0.34012753
vt 0.06847437 0.34012753
vt 0.06847437 0.34012753
vt 0.0684744 0.34012753
vt 0.032451242 0.33462232
vt 0.032451242 0.33462232
vt 0.032451242 0.33462232
vt 0.032451242 0.33462232
vt 0.032451242 0.33462232
vt 0.032451242 0.33462232
vt 0.032451242 0.33462232
vt 0.032451242 0.33462232
vt 0.032451242 0.33462232
vt 0.032451242 0.33462232
vt 0.032451242 0.33462232
vt 0.032451242 0.33462232
vt 0.032451242 0.33462232
vt 0.032451242 0.33462232
vt 0.032451242 0.33462232
vt 0.032451242 0.33462232
vt 0.032451242 0.33462232
vt 0.032451242 0.33462232
vt 0.032451242 0.33462232
vt 0.032451242 0.33462232
vt 0.032451242 0.33462232
vt 0.032451242 0.33462232
vt 0.032451242 0.33462232
vt 0.032451242 0.33462232
vt 0.032451242 0.33462232
vt 0.032451242 0.33462232
vt 0.032451242 0.33462232
vt 0.032451242 0.33462232
vt 0.032451242 0.33462232
vt 0.032451242 0.33462232
vt 0.032451242 0.33462232
vt 0.032451242 0.33462232
vt 0.032451242 0.33462232
vt 0.032451242 0.33462232
vt 0.032451242 0.33462232
vt 0.032451242 0.33462232
vt 0.032451242 0.33462232
vt 0.032451242 0.33462232
vt 0.032451242 0.33462232
vt 0.032451242 0.33462232
vt 0.032451242 0.33462232
vt 0.032451242 0.33462232
vt 0.032451242 0.33462232
vt 0.032451242 0.33462232
vt 0.032451242 0.33462232
vt 0.032451242 0.33462232
vt 0.032451242 0.33462232
vt 0.032451242 0.33462232
vt 0.032451242 0.33462232
vt 0.032451242 0.33462232
vt 0.032451242 0.33462232
vt 0.032451242 0.33462232
vt 0.032451242 0.33462232
vt 0.032451242 0.33462232
vt 0.032451242 0.33462232
vt 0.032451242 0.33462232
vt 0.032451242 0.33462232
vt 0.032451242 0.33462232
vt 0.032451242 0.33462232
vt 0.032451242 0.33462232
vt 0.032451242 0.33462232
vt 0.032451242 0.33462232
vt 0.032451242 0.33462232
vt 0.032451242 0.33462232
vt 0.032451242 0.33462232
vt 0.032451242 0.33462232
vt 0.032451242 0.33462232
vt 0.032451242 0.33462232
vt 0.032451242 0.33462232
vt 0.032451242 0.33462232
vt 0.032451242 0.33462232
vt 0.032451242 0.33462232
vt 0.032451242 0.33462232
vt 0.032451242 0.33462232
vt 0.032451242 0.33462232
vt 0.032451242 0.33462232
vt 0.032451242 0.33462232
vt 0.032451242 0.33462232
vt 0.032451242 0.33462232
vt 0.032451242 0.33462232
vt 0.032451242 0.33462232
vt 0.032451242 0.33462232
vt 0.032451242 0.33462232
vt 0.032451242 0.33462232
vn 0.14207971 -0.97649854 -0.16206105
vn 0.14207971 -0.97649854 -0.16206105
vn 0.14207971 -0.97649854 -0.16206105
vn 0.11879104 0.96986246 -0.2127335
vn 0.11879104 0.96986246 -0.2127335
vn 0.11879104 0.96986246 -0.2127335
vn 0.11022431 -0.97649854 -0.18520555
vn 0.11022431 -0.97649854 -0.18520555
vn 0.11022431 -0.97649854 -0.18520555
vn 0.16561279 0.96986246 -0.17871554
vn 0.16561279 0.96986246 -0.17871554
vn 0.16561279 0.96986246 -0.17871554
vn 0.19803439 -0.97649854 0.085046485
vn 0.19803439 -0.97649854 0.085046485
vn 0.19803439 -0.97649854 0.085046485
vn 0.23903008 0.96986246 0.047238745
vn 0.23903008 0.96986246 0.047238745
vn 0.23903008 0.96986246 0.047238745
vn 0.2102018 -0.97649866 0.047598083
vn 0.2102018 -0.97649866 0.047598083
vn 0.2102018 -0.97649866 0.047598083
vn 0.22114508 0.9698626 0.10228099
vn 0.22114508 0.9698626 0.10228099
vn 0.22114508 0.9698626 0.10228099
vn -0.01968765 -0.97649854 0.21462269
vn -0.01968765 -0.97649854 0.21462269
vn -0.01968765 -0.97649854 0.21462269
vn 0.028937375 0.96986246 0.24192832
vn 0.028937375 0.96986246 0.24192832
vn 0.028937375 0.96986246 0.24192832
vn 0.01968763 -0.97649854 0.21462263
vn 0.01968763 -0.97649854 0.21462263
vn 0.01968763 -0.97649854 0.21462263
vn -0.028937347 0.9698626 0.24192825
vn -0.028937347 0.9698626 0.24192825
vn -0.028937347 0.9698626 0.24192825
vn -0.21020184 -0.97649866 0.047597896
vn -0.21020184 -0.97649866 0.047597896
vn -0.21020184 -0.97649866 0.047597896
vn -0.22114529 0.9698626 0.102280915
vn -0.22114529 0.9698626 0.102280915
vn -0.22114529 0.9698626 0.102280915
vn -0.19803457 -0.97649854 0.0850465
vn -0.19803457 -0.97649854 0.0850465
vn -0.19803457 -0.97649854 0.0850465
vn -0.23903027 0.96986246 0.047238808
vn -0.23903027 0.96986246 0.047238808
vn -0.23903027 0.96986246 0.047238808
vn -0.11022436 -0.97649854 -0.18520565
vn -0.11022436 -0.97649854 -0.18520565
vn -0.11022436 -0.97649854 -0.18520565
vn -0.16561288 0.96986246 -0.17871569
vn -0.16561288 0.96986246 -0.17871569
vn -0.16561288 0.96986246 -0.17871569
vn -0.14207982 -0.97649854 -0.162061
vn -0.14207982 -0.97649854 -0.162061
vn -0.14207982 -0.97649854 -0.162061
vn -0.118791126 0.96986246 -0.21273357
vn -0.118791126 0.96986246 -0.21273357
vn -0.118791126 0.96986246 -0.21273357
vn -0 0 1
vn -0 0 1
vn -0 0 1
vn -0 0 1
vn -0 0 1
vn -0 0 1
vn -0 0 1
vn -0 0 1
vn 0.99921215 -0.029023265 0.027070072
vn 0.12601623 -0.7229224 0.6793401
vn 0.6506786 -0.42181185 0.6314207
vn 0.7248583 -0.6866179 0.056002483
vn -0.5301516 -0.512664 0.6753627
vn -0.09366218 0.99085367 0.097141325
vn 0.10001006 -0.99414945 0.040803615
vn 0.6991675 0.7099713 0.08429441
vn -0.733367 0.31693786 -0.60143423
vn 0.99332386 0.08282785 0.080294795
vn -0.24018815 0.75621116 -0.6086496
vn 0.42864066 0.6873205 -0.58639383
vn -0 0 -1
vn -0 0 -1
vn -0 0 -1
vn -0 0 -1
vn -0 0 -1
vn -0 0 -1
vn -0 0 -1
vn -0 0 -1
vn -0.15308306 0.9875322 0.036683775
vn 0.7723729 0.020935982 0.6348241
vn 0.5094851 0.5256297 0.6812769
vn 0.79836583 0.6020323 0.013001408
vn 0.6506786 -0.42181185 0.6314207
vn -0.95900744 -0.2649379 0.100561045
vn 0.99921215 -0.029023265 0.027070072
vn -0.87895715 0.465359 0.1042846
vn -0.42962083 -0.6910495 -0.5812714
vn -0.09366218 0.99085367 0.097141325
vn -0.7753938 -0.24598236 -0.58159876
vn -0.733367 0.31693786 -0.60143423
vn -0.99068236 -0.13419275 0.023255598
vn -0.15677662 0.72089165 0.6750825
vn -0.65665877 0.41781273 0.6278788
vn -0.877505 0.47786224 0.040406797
vn 0.5094851 0.5256297 0.6812769
vn 0.07852619 -0.9885816 0.12860838
vn -0.15308306 0.9875322 0.036683775
vn -0.53381854 -0.83809906 0.11237322
vn 0.716527 -0.34608635 -0.60565114
vn -0.95900744 -0.2649379 0.100561045
vn 0.21879353 -0.76362574 -0.607458
vn -0.42962083 -0.6910495 -0.5812714
vn 0.10001006 -0.99414945 0.040803615
vn -0.7743237 -0.016907431 0.63256377
vn -0.5301516 -0.512664 0.6753627
vn -0.6137062 -0.7894345 0.012573821
vn -0.65665877 0.41781273 0.6278788
vn 0.99332386 0.08282785 0.080294795
vn -0.99068236 -0.13419275 0.023255598
vn 0.73789376 -0.6676385 0.09885176
vn 0.42864066 0.6873205 -0.58639383
vn 0.07852619 -0.9885816 0.12860838
vn 0.77796304 0.22074483 -0.5882562
vn 0.716527 -0.34608635 -0.60565114
vn -0.32300797 0.41645017 -0.84984416
vn -0.32300797 0.41645017 -0.84984416
vn -0.32300797 0.41645017 -0.84984416
vn -0.32300797 0.41645017 -0.84984416
vn 0.9080649 0.41644993 0.0445831
vn 0.9080649 0.41644993 0.0445831
vn 0.9080649 0.41644993 0.0445831
vn 0.9080649 0.41644993 0.0445831
vn 0.7084345 0.41645005 -0.56981564
vn 0.7084345 0.41645005 -0.56981564
vn 0.7084345 0.41645005 -0.56981564
vn 0.7084345 0.41645005 -0.56981564
vn 0.23820646 0.41645026 0.8773978
vn 0.23820646 0.41645026 0.8773978
vn 0.23820646 0.41645026 0.8773978
vn 0.23820646 0.41645026 0.8773978
vn 0.7608453 0.4164499 0.49767843
vn 0.7608453 0.4164499 0.49767843
vn 0.7608453 0.4164499 0.49767843
vn 0.7608453 0.4164499 0.49767843
vn -0.76084477 0.41645077 0.49767867
vn -0.76084477 0.41645077 0.49767867
vn -0.76084477 0.41645077 0.49767867
vn -0.76084477 0.41645077 0.49767867
vn -0.23820578 0.41645035 0.8773979
vn -0.23820578 0.41645035 0.8773979
vn -0.23820578 0.41645035 0.8773979
vn -0.23820578 0.41645035 0.8773979
vn -0.7084347 0.41645053 -0.56981504
vn -0.7084347 0.41645053 -0.56981504
vn -0.7084347 0.41645053 -0.56981504
vn -0.7084347 0.41645053 -0.56981504
vn -0.9080643 0.41645128 0.044582628
vn -0.9080643 0.41645128 0.044582628
vn -0.9080643 0.41645128 0.044582628
vn -0.9080643 0.41645128 0.044582628
vn 0.3230082 0.41645005 -0.8498441
vn 0.3230082 0.41645005 -0.8498441
vn 0.3230082 0.41645005 -0.8498441
vn 0.3230082 0.41645005 -0.8498441
vn 0.3230082 -0.41644982 -0.84984416
vn 0.3230082 -0.41644982 -0.84984416
vn 0.3230082 -0.41644982 -0.84984416
vn 0.3230082 -0.41644982 -0.84984416
vn -0.9080643 -0.4164513 0.04458275
vn -0.9080643 -0.4164513 0.04458275
vn -0.9080643 -0.4164513 0.04458275
vn -0.9080643 -0.4164513 0.04458275
vn -0.70843494 -0.4164504 -0.5698148
vn -0.70843494 -0.4164504 -0.5698148
vn -0.70843494 -0.4164504 -0.5698148
vn -0.70843494 -0.4164504 -0.5698148
vn -0.23820654 -0.4164503 0.8773978
vn -0.23820654 -0.4164503 0.8773978
vn -0.23820654 -0.4164503 0.8773978
vn -0.23820654 -0.4164503 0.8773978
vn -0.7608443 -0.41645092 0.49767917
vn -0.7608443 -0.41645092 0.49767917
vn -0.7608443 -0.41645092 0.49767917
vn -0.7608443 -0.41645092 0.49767917
vn 0.7608452 -0.4164499 0.49767858
vn 0.7608452 -0.4164499 0.49767858
vn 0.7608452 -0.4164499 0.49767858
vn 0.7608452 -0.4164499 0.49767858
vn 0.23820727 -0.4164503 0.8773976
vn 0.23820727 -0.4164503 0.8773976
vn 0.23820727 -0.4164503 0.8773976
vn 0.23820727 -0.4164503 0.8773976
vn 0.7084345 -0.41645 -0.5698157
vn 0.7084345 -0.41645 -0.5698157
vn 0.7084345 -0.41645 -0.5698157
vn 0.7084345 -0.41645 -0.5698157
vn 0.9080649 -0.41644993 0.04458323
vn 0.9080649 -0.41644993 0.04458323
vn 0.9080649 -0.41644993 0.04458323
vn 0.9080649 -0.41644993 0.04458323
vn -0.32300803 -0.4164501 -0.84984416
vn -0.32300803 -0.4164501 -0.84984416
vn -0.32300803 -0.4164501 -0.84984416
vn -0.32300803 -0.4164501 -0.84984416
vn -0 -1 0
vn -0.16245268 -0.85065633 0.4999929
vn 0.42531475 -0.85066 0.30900627
vn -0.5257209 -0.8506571 0
vn 0.42531475 -0.85066 -0.30900627
vn -0.16245268 -0.85065633 -0.4999929
vn -0.68818784 -0.5257317 0.50000364
vn 0.2628661 -0.5257322 0.80901605
vn -0.27638215 -0.44719827 0.85066247
vn 0.8506571 -0.5257209 0
vn 0.7236163 -0.44720164 0.52572817
vn -0 0 1
vn 0.58776695 0 0.80903023
vn -0.58776695 0 0.80903023
vn 0.9510608 0 0.30900395
vn -0.89443326 -0.44720137 0
vn -0.68818784 -0.5257317 -0.50000364
vn -0.9510608 0 0.30900395
vn -0.9510608 0 -0.30900395
vn -0.2628661 0.5257322 0.80901605
vn 0.27638215 0.44719827 0.85066247
vn -0.7236163 0.44720164 0.52572817
vn 0.68818784 0.5257317 0.50000364
vn -0.8506571 0.5257209 0
vn -0.42531475 0.85066 0.30900627
vn 0.16245268 0.85065633 0.4999929
vn -0.58776695 0 -0.80903023
vn -0.7236163 0.44720164 -0.52572817
vn -0.42531475 0.85066 -0.30900627
vn -0 1 0
vn 0.5257209 0.8506571 0
vn 0.89443326 0.44720137 0
vn -0.2628661 0.5257322 -0.80901605
vn 0.16245268 0.85065633 -0.4999929
vn -0.27637836 -0.44722268 -0.85065085
vn 0.9510608 0 -0.30900395
vn 0.68818784 0.5257317 -0.50000364
vn 0.27637836 0.44722268 -0.85065085
vn -0 0 -1
vn 0.2628661 -0.5257322 -0.80901605
vn 0.7236163 -0.44720164 -0.52572817
vn 0.58776695 0 -0.80903023
vn -0 -1 0
vn -0.16245268 -0.85065633 0.4999929
vn 0.42531475 -0.85066 0.30900627
vn -0.5257209 -0.8506571 0
vn 0.42531475 -0.85066 -0.30900627
vn -0.16245268 -0.85065633 -0.4999929
vn -0.68818784 -0.5257317 0.50000364
vn 0.2628661 -0.5257322 0.80901605
vn -0.27637836 -0.44722268 0.85065085
vn 0.8506571 -0.5257209 0
vn 0.7236163 -0.44720164 0.52572817
vn -0 0 1
vn 0.587787 0 0.8090158
vn -0.587787 0 0.8090158
vn 0.9510608 0 0.30900395
vn -0.89443326 -0.44720137 0
vn -0.68818784 -0.5257317 -0.50000364
vn -0.9510608 0 0.30900395
vn -0.9510608 0 -0.30900395
vn -0.2628661 0.5257322 0.80901605
vn 0.27637836 0.44722268 0.85065085
vn -0.7236163 0.44720164 0.52572817
vn 0.68818784 0.5257317 0.50000364
vn -0.8506571 0.5257209 0
vn -0.42531475 0.85066 0.30900627
vn 0.16245268 0.85065633 0.4999929
vn -0.58776695 0 -0.80903023
vn -0.7236163 0.44720164 -0.52572817
vn -0.42531475 0.85066 -0.30900627
vn -0 1 0
vn 0.5257209 0.8506571 0
vn 0.89443326 0.44720137 0
vn -0.2628661 0.5257322 -0.80901605
vn 0.16245268 0.85065633 -0.4999929
vn -0.27637836 -0.44722268 -0.85065085
vn 0.9510608 0 -0.30900395
vn 0.68818784 0.5257317 -0.50000364
vn 0.27637836 0.44722268 -0.85065085
vn -0 0 -1
vn 0.2628661 -0.5257322 -0.80901605
vn 0.7236163 -0.44720164 -0.52572817
vn 0.58776695 0 -0.80903023
g ShortSword12_0
f 3/3/3 2/2/2 1/1/1
f 6/6/6 5/5/5 4/4/4
f 9/9/9 8/8/8 7/7/7
f 12/12/12 11/11/11 10/10/10
f 15/15/15 14/14/14 13/13/13
f 18/18/18 17/17/17 16/16/16
f 21/21/21 20/20/20 19/19/19
f 24/24/24 23/23/23 22/22/22
f 27/27/27 26/26/26 25/25/25
f 30/30/30 29/29/29 28/28/28
f 33/33/33 32/32/32 31/31/31
f 36/36/36 35/35/35 34/34/34
f 39/39/39 38/38/38 37/37/37
f 42/42/42 41/41/41 40/40/40
f 45/45/45 44/44/44 43/43/43
f 48/48/48 47/47/47 46/46/46
f 51/51/51 50/50/50 49/49/49
f 54/54/54 53/53/53 52/52/52
f 57/57/57 56/56/56 55/55/55
f 60/60/60 59/59/59 58/58/58
f 63/63/63 62/62/62 61/61/61
f 61/61/61 64/64/64 63/63/63
f 64/64/64 65/65/65 63/63/63
f 64/64/64 66/66/66 65/65/65
f 66/66/66 67/67/67 65/65/65
f 66/66/66 68/68/68 67/67/67
f 71/71/71 70/70/70 69/69/69
f 70/70/70 72/72/72 69/69/69
f 70/70/70 73/73/73 72/72/72
f 69/69/69 72/72/72 74/74/74
f 73/73/73 75/75/75 72/72/72
f 72/72/72 76/76/76 74/74/74
f 72/72/72 75/75/75 76/76/76
f 74/74/74 76/76/76 77/77/77
f 75/75/75 78/78/78 76/76/76
f 76/76/76 79/79/79 77/77/77
f 76/76/76 78/78/78 79/79/79
f 78/78/78 80/80/80 79/79/79
f 83/83/83 82/82/82 81/81/81
f 81/81/81 84/84/84 83/83/83
f 84/84/84 85/85/85 83/83/83
f 84/84/84 86/86/86 85/85/85
f 84/84/84 87/87/87 86/86/86
f 87/87/87 88/88/88 86/86/86
f 91/91/91 90/90/90 89/89/89
f 90/90/90 92/92/92 89/89/89
f 90/90/90 93/93/93 92/92/92
f 89/89/89 92/92/92 94/94/94
f 93/93/93 95/95/95 92/92/92
f 92/92/92 96/96/96 94/94/94
f 92/92/92 95/95/95 96/96/96
f 94/94/94 96/96/96 97/97/97
f 95/95/95 98/98/98 96/96/96
f 96/96/96 99/99/99 97/97/97
f 96/96/96 98/98/98 99/99/99
f 98/98/98 100/100/100 99/99/99
f 103/103/103 102/102/102 101/101/101
f 102/102/102 104/104/104 101/101/101
f 102/102/102 105/105/105 104/104/104
f 101/101/101 104/104/104 106/106/106
f 105/105/105 107/107/107 104/104/104
f 104/104/104 108/108/108 106/106/106
f 104/104/104 107/107/107 108/108/108
f 106/106/106 108/108/108 109/109/109
f 107/107/107 110/110/110 108/108/108
f 108/108/108 111/111/111 109/109/109
f 108/108/108 110/110/110 111/111/111
f 110/110/110 112/112/112 111/111/111
f 115/115/115 114/114/114 113/113/113
f 114/114/114 116/116/116 113/113/113
f 114/114/114 117/117/117 116/116/116
f 113/113/113 116/116/116 118/118/118
f 117/117/117 119/119/119 116/116/116
f 116/116/116 120/120/120 118/118/118
f 116/116/116 119/119/119 120/120/120
f 118/118/118 120/120/120 121/121/121
f 119/119/119 122/122/122 120/120/120
f 120/120/120 123/123/123 121/121/121
f 120/120/120 122/122/122 123/123/123
f 122/122/122 124/124/124 123/123/123
f 127/127/127 126/126/126 125/125/125
f 128/128/128 127/127/127 125/125/125
f 131/131/131 130/130/130 129/129/129
f 132/132/132 131/131/131 129/129/129
f 135/135/135 134/134/134 133/133/133
f 136/136/136 135/135/135 133/133/133
f 139/139/139 138/138/138 137/137/137
f 140/140/140 139/139/139 137/137/137
f 143/143/143 142/142/142 141/141/141
f 144/144/144 143/143/143 141/141/141
f 147/147/147 146/146/146 145/145/145
f 148/148/148 147/147/147 145/145/145
f 151/151/151 150/150/150 149/149/149
f 152/152/152 151/151/151 149/149/149
f 155/155/155 154/154/154 153/153/153
f 156/156/156 155/155/155 153/153/153
f 159/159/159 158/158/158 157/157/157
f 160/160/160 159/159/159 157/157/157
f 163/163/163 162/162/162 161/161/161
f 164/164/164 163/163/163 161/161/161
f 167/167/167 166/166/166 165/165/165
f 168/168/168 167/167/167 165/165/165
f 171/171/171 170/170/170 169/169/169
f 172/172/172 171/171/171 169/169/169
f 175/175/175 174/174/174 173/173/173
f 176/176/176 175/175/175 173/173/173
f 179/179/179 178/178/178 177/177/177
f 180/180/180 179/179/179 177/177/177
f 183/183/183 182/182/182 181/181/181
f 184/184/184 183/183/183 181/181/181
f 187/187/187 186/186/186 185/185/185
f 188/188/188 187/187/187 185/185/185
f 191/191/191 190/190/190 189/189/189
f 192/192/192 191/191/191 189/189/189
f 195/195/195 194/194/194 193/193/193
f 196/196/196 195/195/195 193/193/193
f 199/199/199 198/198/198 197/197/197
f 200/200/200 199/199/199 197/197/197
f 203/203/203 202/202/202 201/201/201
f 204/204/204 203/203/203 201/201/201
f 207/207/207 206/206/206 205/205/205
f 206/206/206 208/208/208 205/205/205
f 205/205/205 209/209/209 207/207/207
f 208/208/208 210/210/210 205/205/205
f 210/210/210 209/209/209 205/205/205
f 206/206/206 211/211/211 208/208/208
f 207/207/207 212/212/212 206/206/206
f 213/213/213 211/211/211 206/206/206
f 212/212/212 213/213/213 206/206/206
f 207/207/207 209/209/209 214/214/214
f 215/215/215 212/212/212 207/207/207
f 207/207/207 214/214/214 215/215/215
f 212/212/212 216/216/216 213/213/213
f 215/215/215 217/217/217 212/212/212
f 212/212/212 217/217/217 216/216/216
f 213/213/213 218/218/218 211/211/211
f 216/216/216 218/218/218 213/213/213
f 214/214/214 219/219/219 215/215/215
f 219/219/219 217/217/217 215/215/215
f 211/211/211 220/220/220 208/208/208
f 208/208/208 221/221/221 210/210/210
f 220/220/220 221/221/221 208/208/208
f 211/211/211 222/222/222 220/220/220
f 211/211/211 218/218/218 222/222/222
f 220/220/220 223/223/223 221/221/221
f 222/222/222 223/223/223 220/220/220
f 216/216/216 224/224/224 218/218/218
f 217/217/217 225/225/225 216/216/216
f 225/225/225 224/224/224 216/216/216
f 218/218/218 226/226/226 222/222/222
f 224/224/224 226/226/226 218/218/218
f 227/227/227 225/225/225 217/217/217
f 219/219/219 227/227/227 217/217/217
f 226/226/226 228/228/228 222/222/222
f 222/222/222 228/228/228 223/223/223
f 224/224/224 229/229/229 226/226/226
f 226/226/226 229/229/229 228/228/228
f 225/225/225 230/230/230 224/224/224
f 227/227/227 230/230/230 225/225/225
f 224/224/224 230/230/230 229/229/229
f 221/221/221 223/223/223 231/231/231
f 228/228/228 232/232/232 223/223/223
f 223/223/223 232/232/232 231/231/231
f 228/228/228 229/229/229 233/233/233
f 228/228/228 233/233/233 232/232/232
f 230/230/230 234/234/234 229/229/229
f 229/229/229 234/234/234 233/233/233
f 227/227/227 235/235/235 230/230/230
f 235/235/235 234/234/234 230/230/230
f 236/236/236 227/227/227 219/219/219
f 236/236/236 235/235/235 227/227/227
f 232/232/232 233/233/233 237/237/237
f 232/232/232 237/237/237 231/231/231
f 233/233/233 234/234/234 238/238/238
f 238/238/238 234/234/234 235/235/235
f 237/237/237 233/233/233 238/238/238
f 221/221/221 231/231/231 239/239/239
f 221/221/221 239/239/239 210/210/210
f 240/240/240 236/236/236 219/219/219
f 214/214/214 240/240/240 219/219/219
f 241/241/241 235/235/235 236/236/236
f 241/241/241 238/238/238 235/235/235
f 241/241/241 236/236/236 240/240/240
f 237/237/237 238/238/238 242/242/242
f 242/242/242 238/238/238 241/241/241
f 231/231/231 237/237/237 243/243/243
f 231/231/231 243/243/243 239/239/239
f 237/237/237 242/242/242 243/243/243
f 239/239/239 244/244/244 210/210/210
f 239/239/239 243/243/243 244/244/244
f 210/210/210 244/244/244 209/209/209
f 209/209/209 245/245/245 214/214/214
f 245/245/245 240/240/240 214/214/214
f 244/244/244 245/245/245 209/209/209
f 246/246/246 241/241/241 240/240/240
f 242/242/242 241/241/241 246/246/246
f 243/243/243 242/242/242 246/246/246
f 246/246/246 240/240/240 245/245/245
f 244/244/244 246/246/246 245/245/245
f 244/244/244 243/243/243 246/246/246
f 249/249/249 248/248/248 247/247/247
f 248/248/248 250/250/250 247/247/247
f 247/247/247 251/251/251 249/249/249
f 250/250/250 252/252/252 247/247/247
f 252/252/252 251/251/251 247/247/247
f 248/248/248 253/253/253 250/250/250
f 249/249/249 254/254/254 248/248/248
f 255/255/255 253/253/253 248/248/248
f 254/254/254 255/255/255 248/248/248
f 249/249/249 251/251/251 256/256/256
f 257/257/257 254/254/254 249/249/249
f 249/249/249 256/256/256 257/257/257
f 254/254/254 258/258/258 255/255/255
f 257/257/257 259/259/259 254/254/254
f 254/254/254 259/259/259 258/258/258
f 255/255/255 260/260/260 253/253/253
f 258/258/258 260/260/260 255/255/255
f 256/256/256 261/261/261 257/257/257
f 261/261/261 259/259/259 257/257/257
f 253/253/253 262/262/262 250/250/250
f 250/250/250 263/263/263 252/252/252
f 262/262/262 263/263/263 250/250/250
f 253/253/253 264/264/264 262/262/262
f 253/253/253 260/260/260 264/264/264
f 262/262/262 265/265/265 263/263/263
f 264/264/264 265/265/265 262/262/262
f 258/258/258 266/266/266 260/260/260
f 259/259/259 267/267/267 258/258/258
f 267/267/267 266/266/266 258/258/258
f 260/260/260 268/268/268 264/264/264
f 266/266/266 268/268/268 260/260/260
f 269/269/269 267/267/267 259/259/259
f 261/261/261 269/269/269 259/259/259
f 268/268/268 270/270/270 264/264/264
f 264/264/264 270/270/270 265/265/265
f 266/266/266 271/271/271 268/268/268
f 268/268/268 271/271/271 270/270/270
f 267/267/267 272/272/272 266/266/266
f 269/269/269 272/272/272 267/267/267
f 266/266/266 272/272/272 271/271/271
f 263/263/263 265/265/265 273/273/273
f 270/270/270 274/274/274 265/265/265
f 265/265/265 274/274/274 273/273/273
f 270/270/270 271/271/271 275/275/275
f 270/270/270 275/275/275 274/274/274
f 272/272/272 276/276/276 271/271/271
f 271/271/271 276/276/276 275/275/275
f 269/269/269 277/277/277 272/272/272
f 277/277/277 276/276/276 272/272/272
f 278/278/278 269/269/269 261/261/261
f 278/278/278 277/277/277 269/269/269
f 274/274/274 275/275/275 279/279/279
f 274/274/274 279/279/279 273/273/273
f 275/275/275 276/276/276 280/280/280
f 280/280/280 276/276/276 277/277/277
f 279/279/279 275/275/275 280/280/280
f 263/263/263 273/273/273 281/281/281
f 263/263/263 281/281/281 252/252/252
f 282/282/282 278/278/278 261/261/261
f 256/256/256 282/282/282 261/261/261
f 283/283/283 277/277/277 278/278/278
f 283/283/283 280/280/280 277/277/277
f 283/283/283 278/278/278 282/282/282
f 279/279/279 280/280/280 284/284/284
f 284/284/284 280/280/280 283/283/283
f 273/273/273 279/279/279 285/285/285
f 273/273/273 285/285/285 281/281/281
f 279/279/279 284/284/284 285/285/285
f 281/281/281 286/286/286 252/252/252
f 281/281/281 285/285/285 286/286/286
f 252/252/252 286/286/286 251/251/251
f 251/251/251 287/287/287 256/256/256
f 287/287/287 282/282/282 256/256/256
f 286/286/286 287/287/287 251/251/251
f 288/288/288 283/283/283 282/282/282
f 284/284/284 283/283/283 288/288/288
f 285/285/285 284/284/284 288/288/288
f 288/288/288 282/282/282 287/287/287
f 286/286/286 288/288/288 287/287/287
f 286/286/286 285/285/285 288/288/288
