g Spear03
v -0.06706782 -0.037623644 1.9188651
v -0.08091246 -0.054417208 2.0331826
v -0.080912486 -0.028524894 1.9188651
v -0.06706782 -0.07121083 1.9188651
v -0.08091246 -0.054417208 2.0331826
v -0.03855462 -0.057383746 1.9188651
v -0.080912486 -0.08030951 1.9188651
v -0.08091246 -0.054417208 2.0331826
v -0.06706782 -0.07121083 1.9188651
v -0.03855462 -0.057383746 1.9188651
v -0.08091246 -0.054417208 2.0331826
v -0.03855462 -0.05145079 1.9188651
v -0.12327029 -0.051450785 1.9188651
v -0.08091246 -0.054417208 2.0331826
v -0.12327029 -0.057383746 1.9188651
v -0.03855462 -0.05145079 1.9188651
v -0.08091246 -0.054417208 2.0331826
v -0.06706782 -0.037623644 1.9188651
v -0.080912486 -0.028524894 1.9188651
v -0.08091246 -0.054417208 2.0331826
v -0.094757125 -0.037623644 1.9188651
v -0.12327029 -0.057383746 1.9188651
v -0.08091246 -0.054417208 2.0331826
v -0.094757125 -0.07121083 1.9188651
v -0.094757125 -0.07121083 1.9188651
v -0.08091246 -0.054417208 2.0331826
v -0.080912486 -0.08030951 1.9188651
v -0.094757125 -0.037623644 1.9188651
v -0.08091246 -0.054417208 2.0331826
v -0.12327029 -0.051450785 1.9188651
v -0.04235182 -0.045297023 1.1436363
v 0.023984604 -0.04764665 1.2708782
v -0.0466269 -0.016087374 1.2708782
v -0.068308935 -0.026513236 1.1436363
v -0.07090808 -0.08587351 -0.51760995
v -0.04973368 -0.064699106 -0.51760995
v -0.04973368 -0.044136528 -0.51760995
v -0.07090808 -0.022962129 -0.51760995
v -0.08118937 -0.08587351 -0.51760995
v -0.08118937 -0.022962129 -0.51760995
v -0.09147065 -0.08587351 -0.51760995
v -0.09147065 -0.022962129 -0.51760995
v -0.11264506 -0.064699106 -0.51760995
v -0.11264506 -0.044136535 -0.51760995
v 0.023984604 -0.04764665 1.2708782
v -0.0466269 -0.016087368 1.3013321
v -0.0466269 -0.016087374 1.2708782
v 0.023984604 -0.047646645 1.3013321
v -0.06706782 -0.037623644 1.9188651
v -0.03855462 -0.05145079 1.9188651
v -0.08091249 -0.08232184 1.1436363
v -0.08091252 -0.11351447 1.2708782
v -0.0466269 -0.0927474 1.2708782
v -0.068308935 -0.08232184 1.1436363
v -0.11947315 -0.06353805 1.1436363
v -0.18580958 -0.061188143 1.2708782
v -0.11519811 -0.0927474 1.2708782
v -0.09351604 -0.08232184 1.1436363
v -0.11947315 -0.04529702 1.1436363
v -0.18580958 -0.04764665 1.2708782
v -0.18580958 -0.061188143 1.2708782
v -0.11947315 -0.06353805 1.1436363
v -0.08091249 -0.026513236 1.1436363
v -0.08091252 0.0046797157 1.2708782
v -0.11519811 -0.016087374 1.2708782
v -0.09351604 -0.026513236 1.1436363
v -0.09351604 -0.026513236 1.1436363
v -0.11519811 -0.016087374 1.2708782
v -0.18580958 -0.04764665 1.2708782
v -0.11947315 -0.04529702 1.1436363
v -0.04235182 -0.06353805 1.1436363
v 0.023984604 -0.061188143 1.2708782
v 0.023984604 -0.04764665 1.2708782
v -0.04235182 -0.045297023 1.1436363
v -0.068308935 -0.08232184 1.1436363
v -0.0466269 -0.0927474 1.2708782
v 0.023984604 -0.061188143 1.2708782
v -0.04235182 -0.06353805 1.1436363
v -0.08091252 -0.11351447 1.3013321
v -0.080912486 -0.08030951 1.9188651
v -0.06706782 -0.07121083 1.9188651
v -0.0466269 -0.0927474 1.3013321
v -0.08091252 -0.11351447 1.2708782
v -0.0466269 -0.0927474 1.2708782
v -0.18580958 -0.04764665 1.2708782
v -0.18580958 -0.047646645 1.3013321
v -0.18580958 -0.06118814 1.3013321
v -0.18580958 -0.061188143 1.2708782
v -0.08091252 0.0046797157 1.2708782
v -0.11519811 -0.016087368 1.3013321
v -0.11519811 -0.016087374 1.2708782
v -0.08091252 0.0046797204 1.3013321
v -0.094757125 -0.037623644 1.9188651
v -0.080912486 -0.028524894 1.9188651
v -0.18580958 -0.061188143 1.2708782
v -0.11519811 -0.0927474 1.3013321
v -0.11519811 -0.0927474 1.2708782
v -0.18580958 -0.06118814 1.3013321
v -0.094757125 -0.07121083 1.9188651
v -0.12327029 -0.057383746 1.9188651
v -0.0466269 -0.0927474 1.2708782
v 0.023984604 -0.06118814 1.3013321
v 0.023984604 -0.061188143 1.2708782
v -0.0466269 -0.0927474 1.3013321
v -0.03855462 -0.057383746 1.9188651
v -0.06706782 -0.07121083 1.9188651
v 0.023984604 -0.061188143 1.2708782
v 0.023984604 -0.06118814 1.3013321
v 0.023984604 -0.047646645 1.3013321
v 0.023984604 -0.04764665 1.2708782
v -0.11519811 -0.016087374 1.2708782
v -0.18580958 -0.047646645 1.3013321
v -0.18580958 -0.04764665 1.2708782
v -0.11519811 -0.016087368 1.3013321
v -0.12327029 -0.051450785 1.9188651
v -0.094757125 -0.037623644 1.9188651
v 0.023984604 -0.06118814 1.3013321
v -0.03855462 -0.057383746 1.9188651
v -0.03855462 -0.05145079 1.9188651
v 0.023984604 -0.047646645 1.3013321
v -0.18580958 -0.047646645 1.3013321
v -0.12327029 -0.051450785 1.9188651
v -0.12327029 -0.057383746 1.9188651
v -0.18580958 -0.06118814 1.3013321
v -0.0466269 -0.016087368 1.3013321
v -0.06706782 -0.037623644 1.9188651
v -0.080912486 -0.028524894 1.9188651
v -0.08091252 0.0046797204 1.3013321
v -0.0466269 -0.016087374 1.2708782
v -0.08091252 0.0046797157 1.2708782
v -0.068308935 -0.026513236 1.1436363
v -0.0466269 -0.016087374 1.2708782
v -0.08091252 0.0046797157 1.2708782
v -0.08091249 -0.026513236 1.1436363
v -0.11519811 -0.0927474 1.2708782
v -0.08091252 -0.11351447 1.3013321
v -0.08091252 -0.11351447 1.2708782
v -0.11519811 -0.0927474 1.3013321
v -0.080912486 -0.08030951 1.9188651
v -0.094757125 -0.07121083 1.9188651
v -0.09351604 -0.08232184 1.1436363
v -0.11519811 -0.0927474 1.2708782
v -0.08091252 -0.11351447 1.2708782
v -0.08091249 -0.08232184 1.1436363
v -0.07716824 -0.06672074 -0.59632826
v -0.06888655 -0.05843905 -0.59632826
v -0.06888655 -0.050396655 -0.59632826
v -0.07716824 -0.04211497 -0.59632826
v -0.08118944 -0.06672074 -0.59632826
v -0.08118944 -0.04211497 -0.59632826
v -0.08521063 -0.06672074 -0.59632826
v -0.08521063 -0.04211497 -0.59632826
v -0.09349233 -0.05843905 -0.59632826
v -0.09349233 -0.05039666 -0.59632826
v -0.096792415 -0.089704834 1.1234705
v -0.09351604 -0.08232184 1.1436363
v -0.08091249 -0.08232184 1.1436363
v -0.11947315 -0.06353805 1.1436363
v -0.080916554 -0.089704834 1.1234705
v -0.068308935 -0.08232184 1.1436363
v -0.12948895 -0.06595119 1.1234707
v -0.09342553 -0.082321845 1.103305
v -0.11917957 -0.06353806 1.1033051
v -0.08092059 -0.082321845 1.103305
v -0.11917957 -0.045297027 1.1033051
v -0.12948895 -0.04288389 1.1234707
v -0.11947315 -0.04529702 1.1436363
v -0.09351604 -0.026513236 1.1436363
v -0.06504066 -0.089704834 1.1234707
v -0.06841564 -0.082321845 1.1033051
v -0.042661596 -0.06353806 1.103305
v -0.096792415 -0.019130249 1.1234705
v -0.09342553 -0.026513241 1.103305
v -0.08092059 -0.026513241 1.103305
v -0.032344136 -0.06595119 1.1234705
v -0.04235182 -0.06353805 1.1436363
v -0.04235182 -0.045297023 1.1436363
v -0.080916554 -0.019130249 1.1234705
v -0.08091249 -0.026513236 1.1436363
v -0.06841564 -0.026513241 1.1033051
v -0.032344136 -0.0428839 1.1234705
v -0.042661596 -0.04529703 1.103305
v -0.06504066 -0.019130249 1.1234707
v -0.068308935 -0.026513236 1.1436363
v -0.07090808 -0.022962129 -0.51760995
v -0.07090808 -0.022962071 -0.15721896
v -0.08118937 -0.022962071 -0.15721896
v -0.04973368 -0.04413647 -0.15721896
v -0.08118937 -0.022962129 -0.51760995
v -0.04973368 -0.044136528 -0.51760995
v -0.09147065 -0.022962071 -0.15721896
v -0.09147065 -0.022962129 -0.51760995
v -0.04973368 -0.064699106 -0.51760995
v -0.04973368 -0.06469905 -0.15721895
v -0.11264506 -0.044136535 -0.51760995
v -0.11264506 -0.044136476 -0.15721896
v -0.07090808 -0.08587345 -0.15721895
v -0.07090808 -0.08587351 -0.51760995
v -0.08118937 -0.08587351 -0.51760995
v -0.08118937 -0.08587345 -0.15721895
v -0.11264506 -0.06469905 -0.15721895
v -0.11264506 -0.064699106 -0.51760995
v -0.09147065 -0.08587351 -0.51760995
v -0.09147065 -0.08587345 -0.15721895
v -0.07090808 -0.022962064 -0.1175509
v -0.04973368 -0.04413646 -0.1175509
v -0.042661596 -0.04529703 1.103305
v -0.04973368 -0.06469905 -0.1175509
v -0.06841564 -0.026513241 1.1033051
v -0.042661596 -0.06353806 1.103305
v -0.08092059 -0.026513241 1.103305
v -0.08118937 -0.022962064 -0.1175509
v -0.06841564 -0.082321845 1.1033051
v -0.07090808 -0.08587345 -0.117550895
v -0.08118937 -0.08587345 -0.117550895
v -0.08092059 -0.082321845 1.103305
v -0.09342553 -0.026513241 1.103305
v -0.09147065 -0.022962064 -0.1175509
v -0.09147065 -0.08587345 -0.117550895
v -0.09342553 -0.082321845 1.103305
v -0.11264506 -0.04413647 -0.1175509
v -0.11917957 -0.045297027 1.1033051
v -0.11917957 -0.06353806 1.1033051
v -0.11264506 -0.06469905 -0.1175509
v -0.04762666 -0.04344793 -0.5835663
v -0.06888655 -0.050396655 -0.59632826
v -0.06888655 -0.05843905 -0.59632826
v -0.04762666 -0.06538789 -0.5835663
v -0.07716824 -0.06672074 -0.59632826
v -0.070218414 -0.020852052 -0.58356446
v -0.07716824 -0.04211497 -0.59632826
v -0.070218414 -0.08798379 -0.58356446
v -0.08118944 -0.06672074 -0.59632826
v -0.08118941 -0.02084612 -0.5835609
v -0.08118944 -0.04211497 -0.59632826
v -0.08118941 -0.087989725 -0.5835609
v -0.08521063 -0.06672074 -0.59632826
v -0.09216039 -0.020852054 -0.58356446
v -0.08521063 -0.04211497 -0.59632826
v -0.0921604 -0.08798379 -0.58356446
v -0.09349233 -0.05843905 -0.59632826
v -0.11475215 -0.043447938 -0.5835663
v -0.09349233 -0.05039666 -0.59632826
v -0.11475215 -0.06538789 -0.5835663
v -0.081189394 -0.021861473 -0.57513374
v -0.091827765 -0.02186963 -0.5751311
v -0.11373327 -0.043780927 -0.57512975
v -0.11373328 -0.065054856 -0.57512975
v -0.09182777 -0.08696617 -0.5751311
v -0.081189394 -0.08697433 -0.57513374
v -0.070551 -0.02186963 -0.5751311
v -0.07055099 -0.086966164 -0.5751311
v -0.04864551 -0.04378092 -0.57512975
v -0.048645504 -0.065054856 -0.57512975
v -0.09817223 -0.059968654 -0.5701516
v -0.08674021 -0.07140066 -0.5701516
v -0.08118938 -0.07140066 -0.5701516
v -0.07563853 -0.07140066 -0.5701516
v -0.06420652 -0.059968654 -0.5701516
v -0.06420652 -0.04886696 -0.5701516
v -0.09817223 -0.048866965 -0.5701516
v -0.07563853 -0.037434954 -0.5701516
v -0.08674021 -0.037434954 -0.5701516
v -0.08118938 -0.037434954 -0.5701516
v -0.069688134 -0.089605965 -0.5600143
v -0.046001237 -0.06591907 -0.5600143
v -0.046001237 -0.04291659 -0.5600143
v -0.069688134 -0.019229697 -0.5600143
v -0.08118938 -0.019229697 -0.5600143
v -0.0926906 -0.019229697 -0.5600143
v -0.08118938 -0.089605965 -0.5600143
v -0.11637752 -0.042916596 -0.5600143
v -0.0926906 -0.089605965 -0.5600143
v -0.11637752 -0.06591907 -0.5600143
v -0.069688134 -0.01922968 -0.50569105
v -0.08118938 -0.01922968 -0.50569105
v -0.0926906 -0.01922968 -0.50569105
v -0.11637752 -0.04291658 -0.50569105
v -0.11637752 -0.06591906 -0.50569105
v -0.0926906 -0.08960595 -0.50569105
v -0.08118938 -0.08960595 -0.50569105
v -0.069688134 -0.08960595 -0.50569105
v -0.046001237 -0.06591906 -0.50569105
v -0.046001237 -0.042916577 -0.50569105
v -0.08118937 -0.08894078 -0.13738492
v -0.08118937 -0.08587345 -0.15721895
v -0.09147065 -0.08587345 -0.15721895
v -0.09247321 -0.08894078 -0.13738492
v -0.11264506 -0.06469905 -0.15721895
v -0.06990552 -0.08894078 -0.13738492
v -0.07090808 -0.08587345 -0.15721895
v -0.1157124 -0.065701604 -0.13738492
v -0.11264506 -0.044136476 -0.15721896
v -0.04666635 -0.065701604 -0.13738492
v -0.04973368 -0.06469905 -0.15721895
v -0.1157124 -0.043133914 -0.13738494
v -0.09147065 -0.022962071 -0.15721896
v -0.04666635 -0.043133907 -0.13738494
v -0.04973368 -0.04413647 -0.15721896
v -0.09247321 -0.019894734 -0.13738494
v -0.08118937 -0.022962071 -0.15721896
v -0.06990552 -0.019894734 -0.13738494
v -0.07090808 -0.022962071 -0.15721896
v -0.08118937 -0.019894734 -0.13738494
v -0.04973368 -0.06469905 -0.1175509
v -0.07090808 -0.08587345 -0.117550895
v -0.04973368 -0.04413646 -0.1175509
v -0.07090808 -0.022962064 -0.1175509
v -0.08118937 -0.08587345 -0.117550895
v -0.08118937 -0.022962064 -0.1175509
v -0.09147065 -0.022962064 -0.1175509
v -0.09147065 -0.08587345 -0.117550895
v -0.11264506 -0.04413647 -0.1175509
v -0.11264506 -0.06469905 -0.1175509
vt 0.27854174 0.46914172
vt 0.27854174 0.46914172
vt 0.27854174 0.46914172
vt 0.27854174 0.46914172
vt 0.27854174 0.46914172
vt 0.27854174 0.46914172
vt 0.27854174 0.46914172
vt 0.27854174 0.46914172
vt 0.27854174 0.46914172
vt 0.27854174 0.46914172
vt 0.27854174 0.46914172
vt 0.27854174 0.46914172
vt 0.26584643 0.4125011
vt 0.26584643 0.4125011
vt 0.26584643 0.4125011
vt 0.27854174 0.46914172
vt 0.27854174 0.46914172
vt 0.27854174 0.46914172
vt 0.26584643 0.4125011
vt 0.26584643 0.4125011
vt 0.26584643 0.4125011
vt 0.26584643 0.4125011
vt 0.26584643 0.4125011
vt 0.26584643 0.4125011
vt 0.26584643 0.4125011
vt 0.26584643 0.4125011
vt 0.26584643 0.4125011
vt 0.26584643 0.4125011
vt 0.26584643 0.4125011
vt 0.26584643 0.4125011
vt 0.27854174 0.46914172
vt 0.27854174 0.46914172
vt 0.27854174 0.46914172
vt 0.27854174 0.46914172
vt 0.10586975 0.7156441
vt 0.10586975 0.7156441
vt 0.10586975 0.7156441
vt 0.10586975 0.7156441
vt 0.10586975 0.7156441
vt 0.10586975 0.7156441
vt 0.10586975 0.7156441
vt 0.10586975 0.7156441
vt 0.10586975 0.7156441
vt 0.10586975 0.7156441
vt 0.27854174 0.46914172
vt 0.27854174 0.46914172
vt 0.27854174 0.46914172
vt 0.27854174 0.46914172
vt 0.27854174 0.46914172
vt 0.27854174 0.46914172
vt 0.27854174 0.46914172
vt 0.27854174 0.46914172
vt 0.27854174 0.46914172
vt 0.27854174 0.46914172
vt 0.26584643 0.4125011
vt 0.26584643 0.4125011
vt 0.26584643 0.4125011
vt 0.26584643 0.4125011
vt 0.26584643 0.4125011
vt 0.26584643 0.4125011
vt 0.26584643 0.4125011
vt 0.26584643 0.4125011
vt 0.26584643 0.4125011
vt 0.26584643 0.4125011
vt 0.26584643 0.4125011
vt 0.26584643 0.4125011
vt 0.26584643 0.4125011
vt 0.26584643 0.4125011
vt 0.26584643 0.4125011
vt 0.26584643 0.4125011
vt 0.27854174 0.46914172
vt 0.27854174 0.46914172
vt 0.27854174 0.46914172
vt 0.27854174 0.46914172
vt 0.27854174 0.46914172
vt 0.27854174 0.46914172
vt 0.27854174 0.46914172
vt 0.27854174 0.46914172
vt 0.27854174 0.46914172
vt 0.27854174 0.46914172
vt 0.27854174 0.46914172
vt 0.27854174 0.46914172
vt 0.27854174 0.46914172
vt 0.27854174 0.46914172
vt 0.26584643 0.4125011
vt 0.26584643 0.4125011
vt 0.26584643 0.4125011
vt 0.26584643 0.4125011
vt 0.26584643 0.4125011
vt 0.26584643 0.4125011
vt 0.26584643 0.4125011
vt 0.26584643 0.4125011
vt 0.26584643 0.4125011
vt 0.26584643 0.4125011
vt 0.26584643 0.4125011
vt 0.26584643 0.4125011
vt 0.26584643 0.4125011
vt 0.26584643 0.4125011
vt 0.26584643 0.4125011
vt 0.26584643 0.4125011
vt 0.27854174 0.46914172
vt 0.27854174 0.46914172
vt 0.27854174 0.46914172
vt 0.27854174 0.46914172
vt 0.27854174 0.46914172
vt 0.27854174 0.46914172
vt 0.27854174 0.46914172
vt 0.27854174 0.46914172
vt 0.27854174 0.46914172
vt 0.27854174 0.46914172
vt 0.26584643 0.4125011
vt 0.26584643 0.4125011
vt 0.26584643 0.4125011
vt 0.26584643 0.4125011
vt 0.26584643 0.4125011
vt 0.26584643 0.4125011
vt 0.27854174 0.46914172
vt 0.27854174 0.46914172
vt 0.27854174 0.46914172
vt 0.27854174 0.46914172
vt 0.26584643 0.4125011
vt 0.26584643 0.4125011
vt 0.26584643 0.4125011
vt 0.26584643 0.4125011
vt 0.27854174 0.46914172
vt 0.27854174 0.46914172
vt 0.27854174 0.46914172
vt 0.27854174 0.46914172
vt 0.27854174 0.46914172
vt 0.27854174 0.46914172
vt 0.27854174 0.46914172
vt 0.27854174 0.46914172
vt 0.27854174 0.46914172
vt 0.27854174 0.46914172
vt 0.26584643 0.4125011
vt 0.26584643 0.4125011
vt 0.26584643 0.4125011
vt 0.26584643 0.4125011
vt 0.26584643 0.4125011
vt 0.26584643 0.4125011
vt 0.26584643 0.4125011
vt 0.26584643 0.4125011
vt 0.26584643 0.4125011
vt 0.26584643 0.4125011
vt 0.10001037 0.6570504
vt 0.10001037 0.6570504
vt 0.10001037 0.6570504
vt 0.10001037 0.6570504
vt 0.10001037 0.6570504
vt 0.10001037 0.6570504
vt 0.10001037 0.6570504
vt 0.10001037 0.6570504
vt 0.10001037 0.6570504
vt 0.10001037 0.6570504
vt 0.090300985 0.65241385
vt 0.090300985 0.65241385
vt 0.090300985 0.65241385
vt 0.090300985 0.65241385
vt 0.090300985 0.65241385
vt 0.090300985 0.65241385
vt 0.090300985 0.65241385
vt 0.090300985 0.65241385
vt 0.090300985 0.65241385
vt 0.090300985 0.65241385
vt 0.090300985 0.65241385
vt 0.090300985 0.65241385
vt 0.090300985 0.65241385
vt 0.090300985 0.65241385
vt 0.090300985 0.65241385
vt 0.090300985 0.65241385
vt 0.090300985 0.65241385
vt 0.090300985 0.65241385
vt 0.090300985 0.65241385
vt 0.090300985 0.65241385
vt 0.090300985 0.65241385
vt 0.090300985 0.65241385
vt 0.090300985 0.65241385
vt 0.090300985 0.65241385
vt 0.090300985 0.65241385
vt 0.090300985 0.65241385
vt 0.090300985 0.65241385
vt 0.090300985 0.65241385
vt 0.090300985 0.65241385
vt 0.090300985 0.65241385
vt 0.10586975 0.7156441
vt 0.10586975 0.7156441
vt 0.10586975 0.7156441
vt 0.10586975 0.7156441
vt 0.10586975 0.7156441
vt 0.10586975 0.7156441
vt 0.10586975 0.7156441
vt 0.10586975 0.7156441
vt 0.10586975 0.7156441
vt 0.10586975 0.7156441
vt 0.10586975 0.7156441
vt 0.10586975 0.7156441
vt 0.10586975 0.7156441
vt 0.10586975 0.7156441
vt 0.10586975 0.7156441
vt 0.10586975 0.7156441
vt 0.10586975 0.7156441
vt 0.10586975 0.7156441
vt 0.10586975 0.7156441
vt 0.10586975 0.7156441
vt 0.10586975 0.7156441
vt 0.10586975 0.7156441
vt 0.10586975 0.7156441
vt 0.10586975 0.7156441
vt 0.10586975 0.7156441
vt 0.10586975 0.7156441
vt 0.10586975 0.7156441
vt 0.10586975 0.7156441
vt 0.10586975 0.7156441
vt 0.10586975 0.7156441
vt 0.10586975 0.7156441
vt 0.10586975 0.7156441
vt 0.10586975 0.7156441
vt 0.10586975 0.7156441
vt 0.10586975 0.7156441
vt 0.10586975 0.7156441
vt 0.10586975 0.7156441
vt 0.10586975 0.7156441
vt 0.10586975 0.7156441
vt 0.10586975 0.7156441
vt 0.10001037 0.6570504
vt 0.10001037 0.6570504
vt 0.10001037 0.6570504
vt 0.10001037 0.6570505
vt 0.10001037 0.6570504
vt 0.10001037 0.6570504
vt 0.10001037 0.6570504
vt 0.10001037 0.6570505
vt 0.10001037 0.6570504
vt 0.10001037 0.6570504
vt 0.10001037 0.6570504
vt 0.10001037 0.6570504
vt 0.10001037 0.6570504
vt 0.10001037 0.6570504
vt 0.10001037 0.6570504
vt 0.10001037 0.6570504
vt 0.10001037 0.6570504
vt 0.10001037 0.6570504
vt 0.10001037 0.6570504
vt 0.10001037 0.6570504
vt 0.10001037 0.6570504
vt 0.10001037 0.6570504
vt 0.10001037 0.6570504
vt 0.10001037 0.6570504
vt 0.10001037 0.6570504
vt 0.10001037 0.6570504
vt 0.10001037 0.6570504
vt 0.10001037 0.6570504
vt 0.10001037 0.6570504
vt 0.10001037 0.6570504
vt 0.10001037 0.6570504
vt 0.10001037 0.6570504
vt 0.10001037 0.6570504
vt 0.10001037 0.6570504
vt 0.10001037 0.6570504
vt 0.10001037 0.6570504
vt 0.10001037 0.6570504
vt 0.10001037 0.6570504
vt 0.10001037 0.6570504
vt 0.10001037 0.6570504
vt 0.10001037 0.6570504
vt 0.10001037 0.6570504
vt 0.10001037 0.6570504
vt 0.10001037 0.6570504
vt 0.10001037 0.6570504
vt 0.10001037 0.6570504
vt 0.10001037 0.6570504
vt 0.10001037 0.6570504
vt 0.10001037 0.6570504
vt 0.10001037 0.6570504
vt 0.10001037 0.6570504
vt 0.10001037 0.6570504
vt 0.10001037 0.6570504
vt 0.10001037 0.6570504
vt 0.10001037 0.6570504
vt 0.10001037 0.6570504
vt 0.10001037 0.6570504
vt 0.10001037 0.6570504
vt 0.10001037 0.6570504
vt 0.10001037 0.6570504
vt 0.090300985 0.65241385
vt 0.090300985 0.65241385
vt 0.090300985 0.65241385
vt 0.090300985 0.65241385
vt 0.090300985 0.65241385
vt 0.090300985 0.65241385
vt 0.090300985 0.65241385
vt 0.090300985 0.65241385
vt 0.090300985 0.65241385
vt 0.090300985 0.65241385
vt 0.090300985 0.65241385
vt 0.090300985 0.65241385
vt 0.090300985 0.65241385
vt 0.090300985 0.65241385
vt 0.090300985 0.65241385
vt 0.090300985 0.65241385
vt 0.090300985 0.65241385
vt 0.090300985 0.65241385
vt 0.090300985 0.65241385
vt 0.090300985 0.65241385
vt 0.090300985 0.65241385
vt 0.090300985 0.65241385
vt 0.090300985 0.65241385
vt 0.090300985 0.65241385
vt 0.090300985 0.65241385
vt 0.090300985 0.65241385
vt 0.090300985 0.65241385
vt 0.090300985 0.65241385
vt 0.090300985 0.65241385
vt 0.090300985 0.65241385
vn 0.53963107 0.8211037 0.18597563
vn 0.53963107 0.8211037 0.18597563
vn 0.53963107 0.8211037 0.18597563
vn 0.4290563 -0.8847653 0.18193647
vn 0.4290563 -0.8847653 0.18193647
vn 0.4290563 -0.8847653 0.18193647
vn 0.53962564 -0.82110715 0.1859763
vn 0.53962564 -0.82110715 0.1859763
vn 0.53962564 -0.82110715 0.1859763
vn 0.93770075 0 0.34744406
vn 0.93770075 0 0.34744406
vn 0.93770075 0 0.34744406
vn -0.93770075 0 0.34744406
vn -0.93770075 0 0.34744406
vn -0.93770075 0 0.34744406
vn 0.42905676 0.88476527 0.18193626
vn 0.42905676 0.88476527 0.18193626
vn 0.42905676 0.88476527 0.18193626
vn -0.53963155 0.82110345 0.18597558
vn -0.53963155 0.82110345 0.18597558
vn -0.53963155 0.82110345 0.18597558
vn -0.42905712 -0.88476497 0.18193644
vn -0.42905712 -0.88476497 0.18193644
vn -0.42905712 -0.88476497 0.18193644
vn -0.5396261 -0.82110685 0.18597631
vn -0.5396261 -0.82110685 0.18597631
vn -0.5396261 -0.82110685 0.18597631
vn -0.42905718 0.8847651 0.18193632
vn -0.42905718 0.8847651 0.18193632
vn -0.42905718 0.8847651 0.18193632
vn 0.45431134 0.8714665 -0.18478984
vn 0.45431134 0.8714665 -0.18478984
vn 0.45431134 0.8714665 -0.18478984
vn 0.45431134 0.8714665 -0.18478984
vn -0 0 -1
vn -0 0 -1
vn -0 0 -1
vn -0 0 -1
vn -0 0 -1
vn -0 0 -1
vn -0 0 -1
vn -0 0 -1
vn -0 0 -1
vn -0 0 -1
vn 0.40804288 0.9129628 0
vn 0.40804288 0.9129628 0
vn 0.40804288 0.9129628 0
vn 0.40804288 0.9129628 0
vn 0.41585633 0.9082369 0.04657476
vn 0.41585633 0.9082369 0.04657476
vn 0.39826852 -0.89923507 -0.18099305
vn 0.39826852 -0.89923507 -0.18099305
vn 0.39826852 -0.89923507 -0.18099305
vn 0.39826852 -0.89923507 -0.18099305
vn -0.45431197 -0.8714665 -0.18478803
vn -0.45431197 -0.8714665 -0.18478803
vn -0.45431197 -0.8714665 -0.18478803
vn -0.45431197 -0.8714665 -0.18478803
vn -0.88672954 0 -0.4622885
vn -0.88672954 0 -0.4622885
vn -0.88672954 0 -0.4622885
vn -0.88672954 0 -0.4622885
vn -0.39826912 0.8992343 -0.18099535
vn -0.39826912 0.8992343 -0.18099535
vn -0.39826912 0.8992343 -0.18099535
vn -0.39826912 0.8992343 -0.18099535
vn -0.45431143 0.87146646 -0.18478996
vn -0.45431143 0.87146646 -0.18478996
vn -0.45431143 0.87146646 -0.18478996
vn -0.45431143 0.87146646 -0.18478996
vn 0.88672954 0 -0.4622886
vn 0.88672954 0 -0.4622886
vn 0.88672954 0 -0.4622886
vn 0.88672954 0 -0.4622886
vn 0.45431194 -0.87146664 -0.18478794
vn 0.45431194 -0.87146664 -0.18478794
vn 0.45431194 -0.87146664 -0.18478794
vn 0.45431194 -0.87146664 -0.18478794
vn 0.5266917 -0.8487925 0.046337802
vn 0.5266917 -0.8487925 0.046337802
vn 0.5266917 -0.8487925 0.046337802
vn 0.5266917 -0.8487925 0.046337802
vn 0.51808107 -0.8553315 0
vn 0.51808107 -0.8553315 0
vn -1 0 0
vn -1 0 0
vn -1 0 0
vn -1 0 0
vn -0.51808256 0.85533065 0
vn -0.51808256 0.85533065 0
vn -0.51808256 0.85533065 0
vn -0.51808256 0.85533065 0
vn -0.5266931 0.8487916 0.0463374
vn -0.5266931 0.8487916 0.0463374
vn -0.40804172 -0.9129633 0
vn -0.40804172 -0.9129633 0
vn -0.40804172 -0.9129633 0
vn -0.40804172 -0.9129633 0
vn -0.4158559 -0.90823704 0.04657519
vn -0.4158559 -0.90823704 0.04657519
vn 0.40804154 -0.9129633 0
vn 0.40804154 -0.9129633 0
vn 0.40804154 -0.9129633 0
vn 0.40804154 -0.9129633 0
vn 0.41585568 -0.9082371 0.046575144
vn 0.41585568 -0.9082371 0.046575144
vn 1 0 0
vn 1 0 0
vn 1 0 0
vn 1 0 0
vn -0.40804303 0.9129627 0
vn -0.40804303 0.9129627 0
vn -0.40804303 0.9129627 0
vn -0.40804303 0.9129627 0
vn -0.41585642 0.9082369 0.046574835
vn -0.41585642 0.9082369 0.046574835
vn 0.994911 0 0.10075737
vn 0.994911 0 0.10075737
vn 0.994911 0 0.10075737
vn 0.994911 0 0.10075737
vn -0.994911 0 0.10075745
vn -0.994911 0 0.10075745
vn -0.994911 0 0.10075745
vn -0.994911 0 0.10075745
vn 0.52669275 0.84879184 0.04633735
vn 0.52669275 0.84879184 0.04633735
vn 0.52669275 0.84879184 0.04633735
vn 0.52669275 0.84879184 0.04633735
vn 0.51808226 0.8553309 0
vn 0.51808226 0.8553309 0
vn 0.39826882 0.89923453 -0.18099523
vn 0.39826882 0.89923453 -0.18099523
vn 0.39826882 0.89923453 -0.18099523
vn 0.39826882 0.89923453 -0.18099523
vn -0.5180815 -0.8553313 0
vn -0.5180815 -0.8553313 0
vn -0.5180815 -0.8553313 0
vn -0.5180815 -0.8553313 0
vn -0.5266921 -0.8487922 0.046337843
vn -0.5266921 -0.8487922 0.046337843
vn -0.3982688 -0.8992349 -0.18099318
vn -0.3982688 -0.8992349 -0.18099318
vn -0.3982688 -0.8992349 -0.18099318
vn -0.3982688 -0.8992349 -0.18099318
vn -0 0 -1
vn -0 0 -1
vn -0 0 -1
vn -0 0 -1
vn -0 0 -1
vn -0 0 -1
vn -0 0 -1
vn -0 0 -1
vn -0 0 -1
vn -0 0 -1
vn -0.31581545 -0.9488197 -0.0013123371
vn -0.36696833 -0.92511183 0.097479776
vn -0 -0.9961028 0.0881993
vn -0.8364953 -0.5446726 0.060061395
vn -0 -1 0
vn 0.36702335 -0.92509663 0.097417146
vn -0.9026668 -0.43032095 -0.0040590554
vn -0.3167549 -0.9277724 -0.19724318
vn -0.8631465 -0.4401492 -0.2474809
vn -0 -0.9848986 -0.17313245
vn -0.8631465 0.4401492 -0.2474809
vn -0.9026668 0.43032095 -0.0040590554
vn -0.8364953 0.5446726 0.060061395
vn -0.36696833 0.92511183 0.097479776
vn 0.3158154 -0.9488196 -0.0014038953
vn 0.31675622 -0.9277457 -0.19736607
vn 0.863063 -0.44012275 -0.24781893
vn -0.31581545 0.9488197 -0.0013123371
vn -0.3167549 0.9277724 -0.19724318
vn -0 0.9848986 -0.17313245
vn 0.9026659 -0.4303205 -0.004303205
vn 0.83650297 -0.5446776 0.059909347
vn 0.83650297 0.5446776 0.059909347
vn -0 1 0
vn -0 0.9961028 0.0881993
vn 0.31675622 0.9277457 -0.19736607
vn 0.9026659 0.4303205 -0.004303205
vn 0.863063 0.44012275 -0.24781893
vn 0.3158154 0.9488196 -0.0014038953
vn 0.36702335 0.92509663 0.097417146
vn 0.2971048 0.7172937 -0.63025284
vn 0.3828677 0.9201643 -0.08191446
vn -0 0.99705935 -0.07663348
vn 0.9201643 0.3828677 -0.08191446
vn -0 0.70710677 -0.70710677
vn 0.7172937 0.2971048 -0.63025284
vn -0.3828677 0.9201643 -0.08191446
vn -0.2971048 0.7172937 -0.63025284
vn 0.7172937 -0.2971048 -0.63025284
vn 0.9201643 -0.3828677 -0.08191446
vn -0.7172937 0.2971048 -0.63025284
vn -0.9201643 0.3828677 -0.08191446
vn 0.3828677 -0.9201643 -0.08191446
vn 0.2971048 -0.7172937 -0.63025284
vn -0 -0.70710677 -0.70710677
vn -0 -0.99705935 -0.07663348
vn -0.9201643 -0.3828677 -0.08191446
vn -0.7172937 -0.2971048 -0.63025284
vn -0.2971048 -0.7172937 -0.63025284
vn -0.3828677 -0.9201643 -0.08191446
vn 0.36418736 0.9277271 0.08179185
vn 0.9124071 0.40123817 0.08075426
vn 0.863063 0.44012275 -0.24781893
vn 0.9124071 -0.40123817 0.08075426
vn 0.31675622 0.9277457 -0.19736607
vn 0.863063 -0.44012275 -0.24781893
vn -0 0.9848986 -0.17313245
vn -0 0.99694794 0.078068726
vn 0.31675622 -0.9277457 -0.19736607
vn 0.36418736 -0.9277271 0.08179185
vn -0 -0.99694794 0.078068726
vn -0 -0.9848986 -0.17313245
vn -0.3167549 0.9277724 -0.19724318
vn -0.36422142 0.9277056 0.0818842
vn -0.36422142 -0.9277056 0.0818842
vn -0.3167549 -0.9277724 -0.19724318
vn -0.9124047 0.4012066 0.08093716
vn -0.8631465 0.4401492 -0.2474809
vn -0.8631465 -0.4401492 -0.2474809
vn -0.9124047 -0.4012066 0.08093716
vn 0.84868735 0.3462442 -0.39980596
vn 0.28831854 0.12751083 -0.94900656
vn 0.28831854 -0.12751083 -0.94900656
vn 0.84868735 -0.3462442 -0.39980596
vn 0.12751083 -0.28831854 -0.94900656
vn 0.3464554 0.8485593 -0.39989474
vn 0.12751083 0.28831854 -0.94900656
vn 0.3464554 -0.8485593 -0.39989474
vn -0 -0.2670378 -0.9636861
vn -0 0.8983115 -0.43935898
vn -0 0.26704565 -0.9636839
vn -0 -0.8983115 -0.43935898
vn -0.12751083 -0.28831854 -0.94900656
vn -0.3464554 0.8485593 -0.39989474
vn -0.12751083 0.28831854 -0.94900656
vn -0.3464554 -0.8485593 -0.39989474
vn -0.28831854 -0.12751083 -0.94900656
vn -0.84868735 0.3462442 -0.39980596
vn -0.28831854 0.12751083 -0.94900656
vn -0.84868735 -0.3462442 -0.39980596
vn -0 0.77101326 0.6368192
vn -0.3099574 0.74879926 0.58585495
vn -0.7489096 0.30970842 0.58584577
vn -0.7489096 -0.30970842 0.58584577
vn -0.3099574 -0.74879926 0.58585495
vn -0 -0.77101326 0.6368192
vn 0.3099574 0.74879926 0.58585495
vn 0.309985 -0.7487922 0.5858494
vn 0.7489096 0.30970842 0.58584577
vn 0.7489096 -0.30970842 0.58584577
vn -0.9062981 -0.40276182 0.12808907
vn -0.40276182 -0.9062981 0.12808907
vn -0 -0.9950808 0.09906556
vn 0.40276182 -0.9062981 0.12808907
vn 0.9062981 -0.40276182 0.12808907
vn 0.9062981 0.40276182 0.12808907
vn -0.9062981 0.40276182 0.12808907
vn 0.40276182 0.9062981 0.12808907
vn -0.40276182 0.9062981 0.12808907
vn -0 0.9950808 0.09906556
vn 0.33556122 -0.81831765 -0.4666422
vn 0.81831765 -0.33556122 -0.4666422
vn 0.81831765 0.33556122 -0.4666422
vn 0.33556122 0.81831765 -0.4666422
vn -0 0.8621217 -0.50670135
vn -0.33556122 0.81831765 -0.4666422
vn -0 -0.8621217 -0.50670135
vn -0.81831765 0.33556122 -0.4666422
vn -0.33556122 -0.81831765 -0.4666422
vn -0.81831765 -0.33556122 -0.4666422
vn 0.2971048 0.7172937 0.63025284
vn -0 0.70715255 0.707061
vn -0.2971048 0.7172937 0.63025284
vn -0.7172937 0.2971048 0.63025284
vn -0.7172937 -0.2971048 0.63025284
vn -0.2971048 -0.7172937 0.63025284
vn -0 -0.70715255 0.707061
vn 0.2971048 -0.7172937 0.63025284
vn 0.7172937 -0.2971048 0.63025284
vn 0.7172937 0.2971048 0.63025284
vn -0 -1 0
vn -0 -0.99705935 -0.07663348
vn -0.3828677 -0.9201643 -0.08191446
vn -0.38005126 -0.9249654 0
vn -0.9201643 -0.3828677 -0.08191446
vn 0.38005126 -0.9249654 0
vn 0.3828677 -0.9201643 -0.08191446
vn -0.9249654 -0.38005126 0
vn -0.9201643 0.3828677 -0.08191446
vn 0.9249654 -0.38005126 0
vn 0.9201643 -0.3828677 -0.08191446
vn -0.9249654 0.38005126 0
vn -0.3828677 0.9201643 -0.08191446
vn 0.9249654 0.38005126 0
vn 0.9201643 0.3828677 -0.08191446
vn -0.38005126 0.9249654 0
vn -0 0.99705935 -0.07663348
vn 0.38005126 0.9249654 0
vn 0.3828677 0.9201643 -0.08191446
vn -0 1 0
vn 0.9124071 -0.40123817 0.08075426
vn 0.36418736 -0.9277271 0.08179185
vn 0.9124071 0.40123817 0.08075426
vn 0.36418736 0.9277271 0.08179185
vn -0 -0.99694794 0.078068726
vn -0 0.99694794 0.078068726
vn -0.36422142 0.9277056 0.0818842
vn -0.36422142 -0.9277056 0.0818842
vn -0.9124047 0.4012066 0.08093716
vn -0.9124047 -0.4012066 0.08093716
g Spear03_0
f 3/3/3 2/2/2 1/1/1
f 6/6/6 5/5/5 4/4/4
f 9/9/9 8/8/8 7/7/7
f 12/12/12 11/11/11 10/10/10
f 15/15/15 14/14/14 13/13/13
f 18/18/18 17/17/17 16/16/16
f 21/21/21 20/20/20 19/19/19
f 24/24/24 23/23/23 22/22/22
f 27/27/27 26/26/26 25/25/25
f 30/30/30 29/29/29 28/28/28
f 33/33/33 32/32/32 31/31/31
f 34/34/34 33/33/33 31/31/31
f 37/37/37 36/36/36 35/35/35
f 35/35/35 38/38/38 37/37/37
f 35/35/35 39/39/39 38/38/38
f 39/39/39 40/40/40 38/38/38
f 39/39/39 41/41/41 40/40/40
f 41/41/41 42/42/42 40/40/40
f 41/41/41 43/43/43 42/42/42
f 43/43/43 44/44/44 42/42/42
f 47/47/47 46/46/46 45/45/45
f 46/46/46 48/48/48 45/45/45
f 46/46/46 49/49/49 48/48/48
f 49/49/49 50/50/50 48/48/48
f 53/53/53 52/52/52 51/51/51
f 54/54/54 53/53/53 51/51/51
f 57/57/57 56/56/56 55/55/55
f 58/58/58 57/57/57 55/55/55
f 61/61/61 60/60/60 59/59/59
f 62/62/62 61/61/61 59/59/59
f 65/65/65 64/64/64 63/63/63
f 66/66/66 65/65/65 63/63/63
f 69/69/69 68/68/68 67/67/67
f 70/70/70 69/69/69 67/67/67
f 73/73/73 72/72/72 71/71/71
f 74/74/74 73/73/73 71/71/71
f 77/77/77 76/76/76 75/75/75
f 78/78/78 77/77/77 75/75/75
f 81/81/81 80/80/80 79/79/79
f 82/82/82 81/81/81 79/79/79
f 82/82/82 79/79/79 83/83/83
f 84/84/84 82/82/82 83/83/83
f 87/87/87 86/86/86 85/85/85
f 88/88/88 87/87/87 85/85/85
f 91/91/91 90/90/90 89/89/89
f 90/90/90 92/92/92 89/89/89
f 90/90/90 93/93/93 92/92/92
f 93/93/93 94/94/94 92/92/92
f 97/97/97 96/96/96 95/95/95
f 96/96/96 98/98/98 95/95/95
f 96/96/96 99/99/99 98/98/98
f 99/99/99 100/100/100 98/98/98
f 103/103/103 102/102/102 101/101/101
f 102/102/102 104/104/104 101/101/101
f 102/102/102 105/105/105 104/104/104
f 105/105/105 106/106/106 104/104/104
f 109/109/109 108/108/108 107/107/107
f 110/110/110 109/109/109 107/107/107
f 113/113/113 112/112/112 111/111/111
f 112/112/112 114/114/114 111/111/111
f 112/112/112 115/115/115 114/114/114
f 115/115/115 116/116/116 114/114/114
f 119/119/119 118/118/118 117/117/117
f 120/120/120 119/119/119 117/117/117
f 123/123/123 122/122/122 121/121/121
f 124/124/124 123/123/123 121/121/121
f 127/127/127 126/126/126 125/125/125
f 128/128/128 127/127/127 125/125/125
f 128/128/128 125/125/125 129/129/129
f 130/130/130 128/128/128 129/129/129
f 133/133/133 132/132/132 131/131/131
f 134/134/134 133/133/133 131/131/131
f 137/137/137 136/136/136 135/135/135
f 136/136/136 138/138/138 135/135/135
f 136/136/136 139/139/139 138/138/138
f 139/139/139 140/140/140 138/138/138
f 143/143/143 142/142/142 141/141/141
f 144/144/144 143/143/143 141/141/141
f 147/147/147 146/146/146 145/145/145
f 145/145/145 148/148/148 147/147/147
f 145/145/145 149/149/149 148/148/148
f 149/149/149 150/150/150 148/148/148
f 149/149/149 151/151/151 150/150/150
f 151/151/151 152/152/152 150/150/150
f 151/151/151 153/153/153 152/152/152
f 153/153/153 154/154/154 152/152/152
f 157/157/157 156/156/156 155/155/155
f 156/156/156 158/158/158 155/155/155
f 159/159/159 157/157/157 155/155/155
f 160/160/160 157/157/157 159/159/159
f 158/158/158 161/161/161 155/155/155
f 159/159/159 155/155/155 162/162/162
f 155/155/155 161/161/161 162/162/162
f 161/161/161 163/163/163 162/162/162
f 164/164/164 159/159/159 162/162/162
f 165/165/165 163/163/163 161/161/161
f 166/166/166 161/161/161 158/158/158
f 166/166/166 165/165/165 161/161/161
f 167/167/167 166/166/166 158/158/158
f 166/166/166 167/167/167 168/168/168
f 169/169/169 159/159/159 164/164/164
f 169/169/169 160/160/160 159/159/159
f 170/170/170 169/169/169 164/164/164
f 170/170/170 171/171/171 169/169/169
f 165/165/165 166/166/166 172/172/172
f 172/172/172 166/166/166 168/168/168
f 173/173/173 165/165/165 172/172/172
f 173/173/173 172/172/172 174/174/174
f 169/169/169 175/175/175 160/160/160
f 171/171/171 175/175/175 169/169/169
f 175/175/175 176/176/176 160/160/160
f 177/177/177 176/176/176 175/175/175
f 172/172/172 168/168/168 178/178/178
f 172/172/172 178/178/178 174/174/174
f 168/168/168 179/179/179 178/178/178
f 174/174/174 178/178/178 180/180/180
f 181/181/181 175/175/175 171/171/171
f 181/181/181 177/177/177 175/175/175
f 182/182/182 181/181/181 171/171/171
f 181/181/181 182/182/182 180/180/180
f 178/178/178 179/179/179 183/183/183
f 178/178/178 183/183/183 180/180/180
f 183/183/183 181/181/181 180/180/180
f 177/177/177 181/181/181 183/183/183
f 179/179/179 184/184/184 183/183/183
f 184/184/184 177/177/177 183/183/183
f 187/187/187 186/186/186 185/185/185
f 186/186/186 188/188/188 185/185/185
f 189/189/189 187/187/187 185/185/185
f 188/188/188 190/190/190 185/185/185
f 191/191/191 187/187/187 189/189/189
f 192/192/192 191/191/191 189/189/189
f 190/190/190 188/188/188 193/193/193
f 188/188/188 194/194/194 193/193/193
f 192/192/192 195/195/195 191/191/191
f 195/195/195 196/196/196 191/191/191
f 193/193/193 194/194/194 197/197/197
f 198/198/198 193/193/193 197/197/197
f 198/198/198 197/197/197 199/199/199
f 197/197/197 200/200/200 199/199/199
f 196/196/196 195/195/195 201/201/201
f 195/195/195 202/202/202 201/201/201
f 199/199/199 200/200/200 203/203/203
f 201/201/201 202/202/202 203/203/203
f 200/200/200 204/204/204 203/203/203
f 204/204/204 201/201/201 203/203/203
f 207/207/207 206/206/206 205/205/205
f 206/206/206 207/207/207 208/208/208
f 209/209/209 207/207/207 205/205/205
f 207/207/207 210/210/210 208/208/208
f 211/211/211 209/209/209 205/205/205
f 212/212/212 211/211/211 205/205/205
f 208/208/208 210/210/210 213/213/213
f 214/214/214 208/208/208 213/213/213
f 214/214/214 213/213/213 215/215/215
f 213/213/213 216/216/216 215/215/215
f 217/217/217 211/211/211 212/212/212
f 218/218/218 217/217/217 212/212/212
f 215/215/215 216/216/216 219/219/219
f 216/216/216 220/220/220 219/219/219
f 218/218/218 221/221/221 217/217/217
f 221/221/221 222/222/222 217/217/217
f 220/220/220 223/223/223 219/219/219
f 222/222/222 221/221/221 223/223/223
f 223/223/223 224/224/224 219/219/219
f 221/221/221 224/224/224 223/223/223
f 227/227/227 226/226/226 225/225/225
f 228/228/228 227/227/227 225/225/225
f 229/229/229 227/227/227 228/228/228
f 225/225/225 226/226/226 230/230/230
f 226/226/226 231/231/231 230/230/230
f 232/232/232 229/229/229 228/228/228
f 233/233/233 229/229/229 232/232/232
f 230/230/230 231/231/231 234/234/234
f 231/231/231 235/235/235 234/234/234
f 236/236/236 233/233/233 232/232/232
f 237/237/237 233/233/233 236/236/236
f 234/234/234 235/235/235 238/238/238
f 235/235/235 239/239/239 238/238/238
f 240/240/240 237/237/237 236/236/236
f 241/241/241 237/237/237 240/240/240
f 238/238/238 239/239/239 242/242/242
f 239/239/239 243/243/243 242/242/242
f 243/243/243 241/241/241 244/244/244
f 244/244/244 241/241/241 240/240/240
f 242/242/242 243/243/243 244/244/244
f 230/230/230 234/234/234 245/245/245
f 234/234/234 238/238/238 246/246/246
f 245/245/245 234/234/234 246/246/246
f 242/242/242 247/247/247 238/238/238
f 247/247/247 246/246/246 238/238/238
f 242/242/242 244/244/244 248/248/248
f 247/247/247 242/242/242 248/248/248
f 240/240/240 249/249/249 244/244/244
f 249/249/249 248/248/248 244/244/244
f 240/240/240 236/236/236 250/250/250
f 249/249/249 240/240/240 250/250/250
f 251/251/251 230/230/230 245/245/245
f 230/230/230 251/251/251 225/225/225
f 250/250/250 236/236/236 252/252/252
f 236/236/236 232/232/232 252/252/252
f 251/251/251 253/253/253 225/225/225
f 225/225/225 253/253/253 228/228/228
f 228/228/228 254/254/254 232/232/232
f 254/254/254 252/252/252 232/232/232
f 253/253/253 254/254/254 228/228/228
f 247/247/247 248/248/248 255/255/255
f 248/248/248 249/249/249 256/256/256
f 255/255/255 248/248/248 256/256/256
f 249/249/249 250/250/250 257/257/257
f 256/256/256 249/249/249 257/257/257
f 250/250/250 252/252/252 258/258/258
f 257/257/257 250/250/250 258/258/258
f 252/252/252 254/254/254 259/259/259
f 258/258/258 252/252/252 259/259/259
f 254/254/254 253/253/253 260/260/260
f 259/259/259 254/254/254 260/260/260
f 261/261/261 247/247/247 255/255/255
f 246/246/246 247/247/247 261/261/261
f 260/260/260 253/253/253 262/262/262
f 253/253/253 251/251/251 262/262/262
f 263/263/263 246/246/246 261/261/261
f 245/245/245 246/246/246 263/263/263
f 251/251/251 245/245/245 264/264/264
f 262/262/262 251/251/251 264/264/264
f 264/264/264 245/245/245 263/263/263
f 257/257/257 258/258/258 265/265/265
f 258/258/258 259/259/259 266/266/266
f 265/265/265 258/258/258 266/266/266
f 259/259/259 260/260/260 267/267/267
f 266/266/266 259/259/259 267/267/267
f 260/260/260 262/262/262 268/268/268
f 267/267/267 260/260/260 268/268/268
f 262/262/262 264/264/264 269/269/269
f 268/268/268 262/262/262 269/269/269
f 264/264/264 263/263/263 270/270/270
f 269/269/269 264/264/264 270/270/270
f 271/271/271 257/257/257 265/265/265
f 256/256/256 257/257/257 271/271/271
f 270/270/270 263/263/263 272/272/272
f 263/263/263 261/261/261 272/272/272
f 273/273/273 256/256/256 271/271/271
f 255/255/255 256/256/256 273/273/273
f 261/261/261 255/255/255 274/274/274
f 272/272/272 261/261/261 274/274/274
f 274/274/274 255/255/255 273/273/273
f 267/267/267 268/268/268 275/275/275
f 268/268/268 269/269/269 276/276/276
f 275/275/275 268/268/268 276/276/276
f 269/269/269 270/270/270 277/277/277
f 276/276/276 269/269/269 277/277/277
f 270/270/270 272/272/272 278/278/278
f 277/277/277 270/270/270 278/278/278
f 272/272/272 274/274/274 279/279/279
f 278/278/278 272/272/272 279/279/279
f 279/279/279 274/274/274 280/280/280
f 278/278/278 279/279/279 280/280/280
f 274/274/274 273/273/273 280/280/280
f 277/277/277 278/278/278 280/280/280
f 280/280/280 273/273/273 281/281/281
f 277/277/277 280/280/280 281/281/281
f 276/276/276 277/277/277 281/281/281
f 273/273/273 271/271/271 281/281/281
f 276/276/276 281/281/281 282/282/282
f 281/281/281 271/271/271 282/282/282
f 275/275/275 276/276/276 282/282/282
f 271/271/271 265/265/265 282/282/282
f 282/282/282 265/265/265 283/283/283
f 275/275/275 282/282/282 283/283/283
f 265/265/265 266/266/266 283/283/283
f 283/283/283 284/284/284 275/275/275
f 283/283/283 266/266/266 284/284/284
f 284/284/284 267/267/267 275/275/275
f 266/266/266 267/267/267 284/284/284
f 287/287/287 286/286/286 285/285/285
f 288/288/288 287/287/287 285/285/285
f 289/289/289 287/287/287 288/288/288
f 285/285/285 286/286/286 290/290/290
f 286/286/286 291/291/291 290/290/290
f 292/292/292 289/289/289 288/288/288
f 289/289/289 292/292/292 293/293/293
f 294/294/294 290/290/290 291/291/291
f 295/295/295 294/294/294 291/291/291
f 292/292/292 296/296/296 293/293/293
f 293/293/293 296/296/296 297/297/297
f 294/294/294 295/295/295 298/298/298
f 295/295/295 299/299/299 298/298/298
f 296/296/296 300/300/300 297/297/297
f 301/301/301 297/297/297 300/300/300
f 298/298/298 299/299/299 302/302/302
f 299/299/299 303/303/303 302/302/302
f 303/303/303 301/301/301 304/304/304
f 304/304/304 301/301/301 300/300/300
f 302/302/302 303/303/303 304/304/304
f 294/294/294 305/305/305 290/290/290
f 305/305/305 306/306/306 290/290/290
f 305/305/305 294/294/294 307/307/307
f 294/294/294 298/298/298 307/307/307
f 285/285/285 290/290/290 306/306/306
f 307/307/307 298/298/298 308/308/308
f 298/298/298 302/302/302 308/308/308
f 309/309/309 285/285/285 306/306/306
f 308/308/308 302/302/302 310/310/310
f 302/302/302 304/304/304 310/310/310
f 288/288/288 285/285/285 309/309/309
f 310/310/310 304/304/304 311/311/311
f 312/312/312 288/288/288 309/309/309
f 304/304/304 300/300/300 311/311/311
f 292/292/292 288/288/288 312/312/312
f 313/313/313 311/311/311 300/300/300
f 314/314/314 292/292/292 312/312/312
f 296/296/296 313/313/313 300/300/300
f 292/292/292 314/314/314 296/296/296
f 314/314/314 313/313/313 296/296/296
