g Spear13
v 0.05836135 -0.10940671 0.020256776
v -0.037810743 -0.10940671 -0.010991436
v -0.13398284 -0.10940671 0.020256776
v 0.117798984 -0.109406695 0.10206546
v -0.19342047 -0.109406695 0.10206558
v 0.117798984 -0.10940668 0.203187
v -0.19342047 -0.10940668 0.203187
v 0.05836135 -0.109406665 0.28499582
v -0.13398284 -0.109406665 0.28499582
v -0.037810743 -0.10940666 0.31624404
v -0.10649055 -0.017773261 0.05809653
v -0.037810743 -0.017773265 0.03578103
v 0.030869067 -0.017773261 0.05809653
v -0.1489371 -0.017773252 0.11651909
v 0.07331556 -0.017773252 0.11651909
v -0.1489371 -0.017773239 0.18873346
v 0.07331556 -0.017773239 0.18873346
v -0.10649061 -0.01777323 0.2471559
v 0.030869067 -0.01777323 0.2471559
v -0.037810743 -0.017773226 0.26947153
v -0.047435164 -0.03725958 0.00223673
v -0.034669816 -0.033819094 -1.5641563
v -0.03493017 -0.03725958 0.0022366107
v -0.022425234 -0.03725958 0.0022366107
v -0.045002997 -0.033794302 -1.5754498
v -0.024305522 -0.03384401 -1.5528287
v 0.0033287406 -0.056043386 0.002236733
v -0.0028616786 -0.05494405 -1.5293915
v -0.066186786 -0.05489435 -1.5986027
v -0.0731892 -0.056043386 0.0022366138
v 0.0033287406 -0.074284434 0.002236736
v -0.002847612 -0.07538176 -1.5281508
v -0.024302661 -0.09647907 -1.550467
v -0.022425234 -0.09306812 0.0022366198
v -0.0731892 -0.074284434 0.0022366168
v -0.06618762 -0.07543387 -1.598414
v -0.045004904 -0.09653117 -1.5741656
v -0.047435164 -0.09306812 0.002236739
v -0.034670174 -0.09650518 -1.562335
v -0.03493017 -0.09306812 0.0022366198
v -0.034620702 -0.06521608 -1.5634129
v -0.06618762 -0.07543387 -1.598414
v -0.045004904 -0.09653117 -1.5741656
v -0.034670174 -0.09650518 -1.562335
v -0.066186786 -0.05489435 -1.5986027
v -0.024302661 -0.09647907 -1.550467
v -0.045002997 -0.033794302 -1.5754498
v -0.002847612 -0.07538176 -1.5281508
v -0.034669816 -0.033819094 -1.5641563
v -0.0028616786 -0.05494405 -1.5293915
v -0.024305522 -0.03384401 -1.5528287
v 0.05369252 0.02429283 0.02668273
v -0.037810743 0.024292827 -0.0030485431
v -0.037810743 0.026872382 -0.08711255
v 0.103104174 0.026872389 -0.041326527
v 0.11024469 0.024292843 0.104519956
v -0.17872566 0.026872389 -0.041326527
v -0.12931406 0.02429283 0.02668273
v 0.19019431 0.02687241 0.0785427
v 0.11024469 0.02429286 0.20073247
v -0.2658158 0.02687241 0.07854282
v -0.18586618 0.024292843 0.104520075
v 0.19019431 0.026872434 0.22670972
v 0.05369252 0.024292871 0.2785697
v -0.2658158 0.026872434 0.22670972
v -0.18586618 0.02429286 0.20073247
v 0.103104174 0.026872452 0.34657896
v -0.037810743 0.024292877 0.30830097
v -0.17872566 0.026872452 0.34657896
v -0.12931406 0.024292871 0.2785697
v -0.037810743 0.02687246 0.39236498
v -0.27354795 -0.011891591 0.07603049
v -0.27354795 -0.011891566 0.22922194
v -0.18350434 -0.011891546 0.3531562
v -0.037810743 -0.011891538 0.40049493
v 0.10788292 -0.011891546 0.3531562
v 0.19792646 -0.011891566 0.22922194
v -0.18350434 -0.011891611 -0.047903772
v 0.19792646 -0.011891591 0.07603037
v -0.037810743 -0.011891619 -0.0952425
v 0.10788292 -0.011891611 -0.047903772
v -0.037810743 -0.10940666 0.31624404
v -0.13398284 -0.109406665 0.28499582
v 0.05836135 -0.109406665 0.28499582
v 0.117798984 -0.10940668 0.203187
v -0.19342047 -0.10940668 0.203187
v 0.117798984 -0.109406695 0.10206546
v 0.05836135 -0.10940671 0.020256776
v -0.19342047 -0.109406695 0.10206558
v -0.037810743 -0.10940671 -0.010991436
v -0.13398284 -0.10940671 0.020256776
v -0.1489371 -0.017773252 0.11651909
v -0.1489371 -0.017773239 0.18873346
v -0.18586618 0.02429286 0.20073247
v -0.18586618 0.024292843 0.104520075
v -0.12931406 0.024292871 0.2785697
v -0.10649055 -0.017773261 0.05809653
v -0.10649061 -0.01777323 0.2471559
v -0.12931406 0.02429283 0.02668273
v -0.037810743 0.024292877 0.30830097
v -0.037810743 -0.017773265 0.03578103
v -0.037810743 -0.017773226 0.26947153
v -0.037810743 0.024292827 -0.0030485431
v 0.05369252 0.024292871 0.2785697
v 0.030869067 -0.017773261 0.05809653
v 0.030869067 -0.01777323 0.2471559
v 0.05369252 0.02429283 0.02668273
v 0.11024469 0.02429286 0.20073247
v 0.07331556 -0.017773252 0.11651909
v 0.07331556 -0.017773239 0.18873346
v 0.11024469 0.024292843 0.104519956
v -0.039897025 -0.04113948 -0.7185098
v -0.12940979 0.016404524 -0.637003
v -0.14436668 -0.007514343 -0.6440289
v -0.057947814 -0.063427925 -0.722416
v -0.021529734 -0.041139476 -0.6961378
v -0.13765484 -0.032989964 -0.6317358
v -0.057631373 -0.08571624 -0.70395005
v -0.10774118 0.014847536 -0.617684
v -0.021213353 -0.06342792 -0.67767185
v -0.11598623 -0.034546833 -0.6124168
v -0.039264143 -0.08571624 -0.68157804
v -0.101029396 -0.010628084 -0.6053909
v -0.18525386 -0.014243934 -0.5702974
v -0.17514092 -0.031480525 -0.5695055
v -0.17795867 0.0020532885 -0.5612874
v -0.1577329 -0.03242001 -0.5597036
v -0.16055065 0.0011139209 -0.5514855
v -0.15043777 -0.016122669 -0.5506936
v -0.22628707 -0.057680685 -0.48073107
v -0.21889043 -0.041320045 -0.47192103
v -0.2153318 -0.07439085 -0.48159856
v -0.20053846 -0.041669443 -0.46397847
v -0.19697982 -0.074740365 -0.473656
v -0.18958318 -0.058379605 -0.46484596
v -0.03823155 0.014186124 -0.122437775
v -0.038000762 -0.031227114 -0.011879082
v -0.038934052 -0.032111287 -0.0104571525
v 0.027696311 0.031012516 -0.11197514
v -0.041624606 -0.049395327 -0.019412868
v 0.033757865 0.013307671 -0.1190297
v -0.044369996 -0.049885754 -0.017839544
v -0.03814131 -0.0043729753 -0.1298911
v 0.05664605 0.048523158 -0.18109365
v -0.105564475 0.031012516 -0.11197514
v 0.050258577 0.06711802 -0.17743202
v -0.111481965 0.013272862 -0.119065106
v -0.03846568 0.031748265 -0.17401713
v -0.03843099 0.012235493 -0.1784026
v -0.12812674 0.06711802 -0.17743202
v 0.033878744 0.038731415 -0.25288922
v -0.13444954 0.04849872 -0.18108387
v 0.027696311 0.057632167 -0.25501508
v -0.03867978 0.020729026 -0.24212223
v -0.038699925 0.040515263 -0.24503434
v -0.03893596 -0.02127534 -0.3511713
v -0.11170232 0.03871985 -0.25286406
v -0.105564475 0.057632167 -0.25501502
v -0.038934052 -0.002583443 -0.35828453
v -0.17518121 0.01418613 -0.08688235
v -0.11444068 -0.031227112 0.005496507
v -0.114442885 -0.032111287 0.007197385
v -0.114288986 0.031012516 -0.11423356
v -0.12159848 -0.049395323 0.0011775574
v -0.11308104 0.01330767 -0.1234557
v -0.12303442 -0.04988575 0.0039978107
v -0.17918646 -0.0043729697 -0.0931679
v -0.12791967 0.048523158 -0.18792017
v -0.22578925 0.031012528 -0.041253332
v -0.13125837 0.06711802 -0.18135805
v -0.23462313 0.013272874 -0.04394496
v -0.20362455 0.031748272 -0.12991089
v -0.20599705 0.012235501 -0.13359946
v -0.28051472 0.067118034 -0.08366538
v -0.18628794 0.03873142 -0.23552269
v -0.28780496 0.048498735 -0.083258875
v -0.1926248 0.05763217 -0.23391624
v -0.24110109 0.020729035 -0.18677777
v -0.2427131 0.040515274 -0.18920332
v -0.3010369 -0.021275327 -0.27787954
v -0.30808264 0.038719866 -0.15577465
v -0.304125 0.05763218 -0.16093595
v -0.30493045 -0.0025834308 -0.2838325
v -0.27029604 0.014186147 0.017867563
v -0.16888273 -0.031227103 0.061897162
v -0.16795307 -0.032111276 0.06332136
v -0.23432595 0.03101253 -0.03836501
v -0.17723745 -0.04939531 0.062202938
v -0.23836535 0.013307683 -0.04674292
v -0.17689443 -0.04988574 0.06534911
v -0.27709013 -0.004372952 0.014802338
v -0.2860847 0.048523173 -0.09255422
v -0.28765142 0.031012548 0.08376121
v -0.28528512 0.067118034 -0.085235246
v -0.29651707 0.0132728955 0.086346745
v -0.31765938 0.031748295 -0.0025577596
v -0.32166463 0.012235521 -0.004344346
v -0.35666758 0.06711806 0.078245156
v -0.36099213 0.03873144 -0.10041899
v -0.36254424 0.048498765 0.082578175
v -0.36541432 0.057632193 -0.09560371
v -0.3801595 0.02072906 -0.029615048
v -0.38283658 0.0405153 -0.030761369
v -0.48019975 -0.021275293 -0.07301688
v -0.41922438 0.038719896 0.03300833
v -0.41873974 0.05763221 0.026522508
v -0.48671794 -0.0025833969 -0.07586491
v -0.29251313 0.01418617 0.15760231
v -0.18354702 -0.03122709 0.13890314
v -0.1819892 -0.032111265 0.13958573
v -0.29321235 0.03101255 0.09085297
v -0.19036978 -0.0493953 0.14373483
v -0.30118078 0.013307705 0.08605552
v -0.18835962 -0.049885727 0.14617898
v -0.29987663 -0.0043729283 0.15875769
v -0.3661967 0.0485232 0.07385849
v -0.2709478 0.03101257 0.22224057
v -0.3615188 0.06711806 0.07954406
v -0.27694958 0.013272919 0.22925925
v -0.3433283 0.03174832 0.16645074
v -0.34765828 0.012235549 0.16714895
v -0.33171505 0.06711809 0.255422
v -0.43317914 0.038731474 0.108301036
v -0.3342591 0.04849879 0.26226604
v -0.43424183 0.057632226 0.11475145
v -0.4104401 0.020729095 0.17804027
v -0.4133082 0.040515333 0.1785469
v -0.51791376 -0.02127525 0.19651246
v -0.4088313 0.038719933 0.2518314
v -0.41197717 0.05763225 0.24613903
v -0.52492756 -0.0025833524 0.19769907
v -0.23457658 0.01418619 0.28668654
v -0.15364444 -0.031227078 0.21136546
v -0.15196717 -0.032111254 0.21108353
v -0.2717169 0.031012572 0.23121989
v -0.15670669 -0.049395286 0.21914472
v -0.28101164 0.013307729 0.23156893
v -0.15368658 -0.049885713 0.22008885
v -0.24010473 -0.004372907 0.29168606
v -0.34209055 0.04852323 0.25697005
v -0.18113357 0.03101259 0.3289597
v -0.33506268 0.06711809 0.25916564
v -0.18231094 0.013272936 0.3381189
v -0.27224815 0.031748347 0.32191896
v -0.27548862 0.012235575 0.3248744
v -0.21380621 0.067118116 0.3900019
v -0.37927216 0.038731508 0.32247138
v -0.21218687 0.048498813 0.3971213
v -0.3766293 0.05763226 0.32845056
v -0.3220542 0.020729125 0.3683697
v -0.32417643 0.040515363 0.37036443
v -0.40186185 -0.02127521 0.44268394
v -0.2802962 0.038719963 0.4292301
v -0.2860459 0.05763228 0.42619038
v -0.40708047 -0.0025833116 0.4475175
v -0.115407705 0.014186203 0.36296332
v -0.08894068 -0.03122707 0.25561917
v -0.087691724 -0.032111246 0.25446463
v -0.17685962 0.03101259 0.3368938
v -0.08724326 -0.049395278 0.2638054
v -0.18444467 0.0133077465 0.3422761
v -0.08419919 -0.04988571 0.26294148
v -0.11729497 -0.004372894 0.3701743
v -0.22163975 0.04852325 0.39697874
v -0.047540605 0.031012595 0.36906552
v -0.21455699 0.067118116 0.39496756
v -0.043510377 0.013272943 0.37737453
v -0.12763268 0.031748362 0.41307342
v -0.12872523 0.01223559 0.41732097
v -0.041448295 0.06711812 0.43803322
v -0.21687818 0.038731534 0.47214735
v -0.036194146 0.04849882 0.44310355
v -0.21139216 0.057632286 0.47570276
v -0.14386731 0.020729143 0.47921574
v -0.14455032 0.04051538 0.4820466
v -0.16994512 -0.021275187 0.5851015
v -0.0755977 0.038719974 0.5072689
v -0.08207315 0.05763229 0.50787437
v -0.17166394 -0.0025832881 0.5920036
v 0.026074827 0.014186203 0.36152184
v -0.010567129 -0.03122707 0.25721157
v -0.010154307 -0.032111246 0.2555616
v -0.039619386 0.031012597 0.3733635
v -0.004663527 -0.049395278 0.2631309
v -0.043017924 0.013307753 0.38202155
v -0.0025894046 -0.04988571 0.2607411
v 0.02844423 -0.0043728943 0.3685887
v -0.044181406 0.048523262 0.4481609
v 0.08620161 0.03101259 0.32946026
v -0.039357007 0.06711812 0.44259918
v 0.09412426 0.0132729355 0.33420455
v 0.043288887 0.031748362 0.41014433
v 0.044700682 0.012235589 0.41429675
v 0.12906927 0.06711811 0.38382947
v 0.0009679198 0.038731538 0.50844693
v 0.13624173 0.048498813 0.3851943
v 0.0075055957 0.05763229 0.5084177
v 0.06592852 0.020729141 0.47437668
v 0.06690687 0.04051538 0.47711968
v 0.10209733 -0.021275189 0.5772537
v 0.13841349 0.038719967 0.46046162
v 0.13332671 0.057632282 0.46451437
v 0.10443872 -0.0025832893 0.5839703
v 0.1436649 0.0141861895 0.28283286
v 0.055880845 -0.031227076 0.21562254
v 0.055322587 -0.032111254 0.21401596
v 0.095183074 0.03101259 0.3287183
v 0.06406218 -0.049395286 0.21734203
v 0.09708017 0.013307746 0.33782375
v 0.06448847 -0.049885716 0.21420647
v 0.14951771 -0.0043729073 0.28744793
v 0.13232893 0.04852325 0.39380038
v 0.1764149 0.031012572 0.22307825
v 0.13331956 0.06711811 0.38650465
v 0.18564242 0.013272918 0.22270954
v 0.18469614 0.031748347 0.31408846
v 0.18815142 0.0122355735 0.31678927
v 0.24205786 0.067118086 0.24509297
v 0.20312172 0.038731523 0.41951597
v 0.24880677 0.04849879 0.24230729
v 0.20857543 0.057632275 0.41591108
v 0.23881525 0.020729123 0.3554337
v 0.24113649 0.040515363 0.35719275
v 0.325419 -0.021275213 0.42170393
v 0.29184335 0.03871994 0.3040942
v 0.28980714 0.05763226 0.31027114
v 0.33105642 -0.0025833151 0.42604125
v 0.19895941 0.014186169 0.15259504
v 0.08870202 -0.031227088 0.14443469
v 0.08735508 -0.032111265 0.14339614
v 0.18352348 0.03101257 0.21753871
v 0.09648913 -0.0493953 0.1413932
v 0.19009775 0.013307727 0.224118
v 0.095128715 -0.049885727 0.13853635
v 0.20638388 -0.004372929 0.15325117
v 0.25024575 0.04852323 0.25165057
v 0.19363683 0.031012548 0.08466231
v 0.2470792 0.067118086 0.24500357
v 0.20115536 0.013272895 0.079300284
v 0.25040764 0.03174832 0.15627599
v 0.25477785 0.012235547 0.15664351
v 0.2606172 0.067118056 0.06713282
v 0.3235622 0.038731493 0.23439741
v 0.2647385 0.04849876 0.061105482
v 0.32615083 0.057632245 0.22839437
v 0.3183325 0.020729091 0.161232
v 0.32123786 0.04051533 0.16143215
v 0.42708677 -0.021275254 0.16925216
v 0.33458573 0.038719907 0.089234225
v 0.3362643 0.057632223 0.095517986
v 0.43417925 -0.0025833568 0.1697936
v 0.17389995 0.014186146 0.013342021
v 0.07717782 -0.0312271 0.066896565
v 0.07548207 -0.032111276 0.066765316
v 0.19655102 0.031012548 0.076134436
v 0.08202773 -0.04939531 0.06008733
v 0.20565528 0.013307704 0.07803881
v 0.0793249 -0.04988574 0.058441646
v 0.18047184 -0.004372953 0.009825111
v 0.27105957 0.0485232 0.068135135
v 0.13224322 0.031012528 -0.0405829
v 0.26476973 0.067118056 0.06430816
v 0.13559717 0.013272873 -0.049187306
v 0.21896297 0.03174829 -0.011753684
v 0.22282118 0.01223552 -0.013839247
v 0.1786862 0.067118034 -0.09193171
v 0.3229547 0.03873146 0.013548129
v 0.1788333 0.048498735 -0.099231906
v 0.32183343 0.057632208 0.007107606
v 0.2785099 0.020729057 -0.044806246
v 0.28105086 0.040515296 -0.04622961
v 0.37389773 -0.021275299 -0.09765512
v 0.25268 0.038719874 -0.1139477
v 0.25752574 0.05763219 -0.10960979
v 0.38012904 -0.002583401 -0.10108608
v 0.07667059 0.014186129 -0.08944821
v 0.025071561 -0.03122711 0.008331184
v 0.02358085 -0.032111287 0.009150034
v 0.13001114 0.031012528 -0.049314145
v 0.025399983 -0.049395323 -2.228409E-05
v 0.1386717 0.013307682 -0.052706007
v 0.022238076 -0.04988575 8.04744E-05
v 0.08024317 -0.00437297 -0.09599018
v 0.18797225 0.048523173 -0.096810944
v 0.012284219 0.031012516 -0.111754365
v 0.1806137 0.067118034 -0.09656931
v 0.010379255 0.013272862 -0.1207903
v 0.100631535 0.031748272 -0.13512486
v 0.10271722 0.0122355 -0.13898295
v 0.023022115 0.06711802 -0.18015285
v 0.20149893 0.03873143 -0.17090553
v 0.019147575 0.04849872 -0.18634136
v 0.19703335 0.057632178 -0.17568047
v 0.13235372 0.020729033 -0.19539112
v 0.13370019 0.04051527 -0.19797355
v 0.18322307 -0.02127533 -0.29184926
v 0.072876155 0.038719855 -0.23909599
v 0.07930642 0.05763217 -0.23812063
v 0.18655759 -0.0025834332 -0.29813242
v -0.32317084 -0.053989235 -0.3955121
v -0.20256895 -0.038825236 -0.4983418
v -0.19900268 -0.03906282 -0.49927312
v -0.3591342 0.025231145 -0.59303856
v -0.19458395 -0.07615336 -0.49305677
v -0.3638575 -0.01207135 -0.60147977
v -0.18867081 -0.07536205 -0.49147886
v -0.31980032 -0.092378445 -0.39564756
v -0.52985173 -0.024401393 -0.5212578
v -0.13035518 0.046957195 -0.3608839
v -0.5293958 0.011662758 -0.5076852
v -0.119048536 0.011020126 -0.35277402
v -0.3970893 -0.06639295 -0.3219908
v -0.38929027 -0.10387915 -0.32635704
v -0.23332888 0.022927618 -0.14902598
v -0.5941406 -0.12865274 -0.31982782
v -0.21672672 -0.011626386 -0.14509046
v -0.60116655 -0.09689491 -0.29916027
v -0.47176474 -0.1421005 -0.24221364
v -0.48859465 -0.11020938 -0.22861992
v -0.57503086 -0.3055735 -0.12681867
v -0.39904225 -0.1109617 -0.11904578
v -0.42261428 -0.08070197 -0.11533581
v -0.59623545 -0.279076 -0.10856111
vt 0.09772407 0.45736957
vt 0.09772407 0.45736957
vt 0.09772407 0.45736957
vt 0.09772407 0.45736957
vt 0.09772407 0.45736957
vt 0.09772407 0.45736957
vt 0.09772407 0.45736957
vt 0.09772407 0.45736957
vt 0.09772407 0.45736957
vt 0.09772407 0.45736957
vt 0.01013799 0.5999876
vt 0.01013799 0.5999876
vt 0.01013799 0.5999876
vt 0.01013799 0.5999876
vt 0.01013796 0.5999876
vt 0.01013799 0.5999876
vt 0.01013799 0.5999876
vt 0.01013799 0.5999876
vt 0.01013799 0.5999876
vt 0.01013799 0.5999876
vt 0.08919799 0.47597194
vt 0.08919799 0.47597194
vt 0.08919799 0.47597194
vt 0.08919799 0.47597194
vt 0.08919799 0.47597194
vt 0.08919799 0.47597194
vt 0.08919799 0.47597194
vt 0.08919799 0.47597194
vt 0.08919799 0.47597194
vt 0.08919799 0.47597194
vt 0.08919799 0.47597194
vt 0.08919799 0.47597194
vt 0.08919799 0.47597194
vt 0.08919799 0.47597194
vt 0.08919799 0.47597194
vt 0.08919799 0.47597194
vt 0.08919799 0.47597194
vt 0.08919799 0.47597194
vt 0.08919799 0.47597194
vt 0.08919799 0.47597194
vt 0.08919802 0.47597194
vt 0.08919799 0.47597194
vt 0.08919799 0.47597194
vt 0.08919799 0.47597194
vt 0.08919799 0.47597194
vt 0.08919799 0.47597194
vt 0.08919799 0.47597194
vt 0.08919799 0.47597194
vt 0.08919799 0.47597194
vt 0.08919799 0.47597194
vt 0.08919799 0.47597194
vt 0.03339093 0.6480437
vt 0.03339093 0.6480437
vt 0.03339093 0.6480437
vt 0.03339093 0.6480437
vt 0.03339093 0.6480437
vt 0.03339093 0.6480437
vt 0.03339093 0.6480437
vt 0.03339093 0.6480437
vt 0.03339093 0.6480437
vt 0.03339093 0.6480437
vt 0.03339093 0.6480437
vt 0.03339093 0.6480437
vt 0.033390902 0.6480437
vt 0.03339093 0.6480437
vt 0.03339093 0.6480437
vt 0.03339096 0.6480437
vt 0.03339093 0.6480437
vt 0.03339093 0.6480437
vt 0.03339093 0.6480437
vt 0.03339093 0.6480437
vt 0.03339093 0.6480437
vt 0.03339093 0.6480437
vt 0.03339093 0.6480437
vt 0.03339093 0.6480437
vt 0.03339093 0.6480437
vt 0.03339093 0.6480437
vt 0.03339093 0.6480437
vt 0.03339093 0.6480437
vt 0.03339096 0.6480437
vt 0.03339093 0.6480437
vt 0.03339093 0.6480437
vt 0.03339093 0.6480437
vt 0.03339093 0.6480437
vt 0.03339093 0.6480437
vt 0.03339093 0.6480437
vt 0.03339093 0.6480437
vt 0.03339093 0.6480437
vt 0.03339093 0.6480437
vt 0.03339096 0.6480437
vt 0.03339093 0.6480437
vt 0.09539878 0.59533703
vt 0.09539878 0.59533703
vt 0.09539878 0.59533703
vt 0.09539878 0.59533703
vt 0.09539878 0.59533703
vt 0.09539878 0.59533703
vt 0.09539878 0.59533703
vt 0.09539878 0.59533703
vt 0.09539878 0.59533703
vt 0.09539878 0.59533703
vt 0.09539878 0.59533703
vt 0.09539878 0.59533703
vt 0.095398754 0.59533703
vt 0.09539878 0.59533703
vt 0.09539878 0.59533703
vt 0.09539878 0.59533703
vt 0.09539878 0.59533703
vt 0.095398754 0.59533703
vt 0.09539878 0.59533703
vt 0.09539878 0.59533703
vt 0.08919799 0.47597194
vt 0.08919799 0.47597194
vt 0.08919799 0.47597194
vt 0.08919799 0.47597194
vt 0.08919799 0.47597194
vt 0.08919799 0.47597194
vt 0.08919799 0.47597194
vt 0.08919799 0.47597194
vt 0.08919799 0.47597194
vt 0.08919799 0.47597194
vt 0.08919799 0.47597194
vt 0.08919799 0.47597194
vt 0.08919799 0.47597194
vt 0.08919799 0.47597194
vt 0.08919799 0.47597194
vt 0.08919799 0.47597194
vt 0.08919799 0.47597194
vt 0.08919799 0.47597194
vt 0.08919802 0.47597194
vt 0.08919802 0.47597194
vt 0.08919802 0.47597194
vt 0.08919802 0.47597194
vt 0.08919802 0.47597194
vt 0.08919802 0.47597194
vt 0.024864852 0.35118115
vt 0.024864852 0.35118115
vt 0.024864882 0.35118115
vt 0.024864852 0.35118115
vt 0.024864852 0.35118115
vt 0.024864852 0.35118115
vt 0.024864882 0.35118115
vt 0.024864852 0.35118115
vt 0.024864852 0.35118115
vt 0.024864882 0.35118115
vt 0.024864852 0.35118115
vt 0.024864882 0.35118115
vt 0.024864852 0.35118115
vt 0.024864852 0.35118115
vt 0.024864882 0.35118115
vt 0.024864852 0.35118115
vt 0.024864882 0.35118115
vt 0.024864852 0.35118115
vt 0.024864882 0.35118115
vt 0.024864882 0.35118115
vt 0.024864852 0.35118115
vt 0.024864852 0.35118115
vt 0.024864852 0.35118115
vt 0.024864852 0.35118115
vt 0.024864852 0.35118115
vt 0.024864852 0.35118115
vt 0.024864882 0.35118115
vt 0.024864852 0.35118115
vt 0.024864852 0.35118115
vt 0.024864852 0.35118115
vt 0.024864882 0.35118115
vt 0.024864852 0.35118115
vt 0.024864852 0.35118115
vt 0.024864882 0.35118115
vt 0.024864852 0.35118115
vt 0.024864882 0.35118115
vt 0.024864852 0.35118115
vt 0.024864852 0.35118115
vt 0.024864882 0.35118115
vt 0.024864852 0.35118115
vt 0.024864882 0.35118115
vt 0.024864852 0.35118115
vt 0.024864882 0.35118115
vt 0.024864882 0.35118115
vt 0.024864852 0.35118115
vt 0.024864852 0.35118115
vt 0.024864852 0.35118115
vt 0.024864852 0.35118115
vt 0.024864852 0.35118115
vt 0.024864852 0.35118115
vt 0.024864882 0.35118115
vt 0.024864852 0.35118115
vt 0.024864852 0.35118115
vt 0.024864852 0.35118115
vt 0.024864882 0.35118115
vt 0.024864852 0.35118115
vt 0.024864852 0.35118115
vt 0.024864882 0.35118115
vt 0.024864852 0.35118115
vt 0.024864882 0.35118115
vt 0.024864852 0.35118115
vt 0.024864852 0.35118115
vt 0.024864882 0.35118115
vt 0.024864852 0.35118115
vt 0.024864882 0.35118115
vt 0.024864852 0.35118115
vt 0.024864882 0.35118115
vt 0.024864882 0.35118115
vt 0.024864852 0.35118115
vt 0.024864852 0.35118115
vt 0.024864852 0.35118115
vt 0.024864852 0.35118115
vt 0.024864852 0.35118115
vt 0.024864852 0.35118115
vt 0.024864882 0.35118115
vt 0.024864852 0.35118115
vt 0.024864852 0.35118115
vt 0.024864852 0.35118115
vt 0.024864882 0.35118115
vt 0.024864852 0.35118115
vt 0.024864852 0.35118115
vt 0.024864882 0.35118115
vt 0.024864852 0.35118115
vt 0.024864882 0.35118115
vt 0.024864852 0.35118115
vt 0.024864852 0.35118115
vt 0.024864882 0.35118115
vt 0.024864852 0.35118115
vt 0.024864882 0.35118115
vt 0.024864852 0.35118115
vt 0.024864882 0.35118115
vt 0.024864882 0.35118115
vt 0.024864852 0.35118115
vt 0.024864852 0.35118115
vt 0.024864852 0.35118115
vt 0.024864852 0.35118115
vt 0.024864852 0.35118115
vt 0.024864852 0.35118115
vt 0.024864882 0.35118115
vt 0.024864852 0.35118115
vt 0.024864852 0.35118115
vt 0.024864852 0.35118115
vt 0.024864882 0.35118115
vt 0.024864852 0.35118115
vt 0.024864852 0.35118115
vt 0.024864882 0.35118115
vt 0.024864852 0.35118115
vt 0.024864882 0.35118115
vt 0.024864852 0.35118115
vt 0.024864852 0.35118115
vt 0.024864882 0.35118115
vt 0.024864852 0.35118115
vt 0.024864882 0.35118115
vt 0.024864852 0.35118115
vt 0.024864882 0.35118115
vt 0.024864882 0.35118115
vt 0.024864852 0.35118115
vt 0.024864852 0.35118115
vt 0.024864852 0.35118115
vt 0.024864852 0.35118115
vt 0.024864852 0.35118115
vt 0.024864852 0.35118115
vt 0.024864882 0.35118115
vt 0.024864852 0.35118115
vt 0.024864852 0.35118115
vt 0.024864852 0.35118115
vt 0.024864882 0.35118115
vt 0.024864852 0.35118115
vt 0.024864852 0.35118115
vt 0.024864882 0.35118115
vt 0.024864852 0.35118115
vt 0.024864882 0.35118115
vt 0.024864852 0.35118115
vt 0.024864852 0.35118115
vt 0.024864882 0.35118115
vt 0.024864852 0.35118115
vt 0.024864882 0.35118115
vt 0.024864852 0.35118115
vt 0.024864882 0.35118115
vt 0.024864882 0.35118115
vt 0.024864852 0.35118115
vt 0.024864852 0.35118115
vt 0.024864852 0.35118115
vt 0.024864852 0.35118115
vt 0.024864852 0.35118115
vt 0.024864852 0.35118115
vt 0.024864882 0.35118115
vt 0.024864852 0.35118115
vt 0.024864852 0.35118115
vt 0.024864852 0.35118115
vt 0.024864882 0.35118115
vt 0.024864852 0.35118115
vt 0.024864852 0.35118115
vt 0.024864882 0.35118115
vt 0.024864852 0.35118115
vt 0.024864882 0.35118115
vt 0.024864852 0.35118115
vt 0.024864852 0.35118115
vt 0.024864882 0.35118115
vt 0.024864852 0.35118115
vt 0.024864882 0.35118115
vt 0.024864852 0.35118115
vt 0.024864882 0.35118115
vt 0.024864882 0.35118115
vt 0.024864852 0.35118115
vt 0.024864852 0.35118115
vt 0.024864852 0.35118115
vt 0.024864852 0.35118115
vt 0.024864852 0.35118115
vt 0.024864852 0.35118115
vt 0.024864882 0.35118115
vt 0.024864852 0.35118115
vt 0.024864852 0.35118115
vt 0.024864852 0.35118115
vt 0.024864882 0.35118115
vt 0.024864852 0.35118115
vt 0.024864852 0.35118115
vt 0.024864882 0.35118115
vt 0.024864852 0.35118115
vt 0.024864882 0.35118115
vt 0.024864852 0.35118115
vt 0.024864852 0.35118115
vt 0.024864882 0.35118115
vt 0.024864852 0.35118115
vt 0.024864882 0.35118115
vt 0.024864852 0.35118115
vt 0.024864882 0.35118115
vt 0.024864882 0.35118115
vt 0.024864852 0.35118115
vt 0.024864852 0.35118115
vt 0.024864852 0.35118115
vt 0.024864852 0.35118115
vt 0.024864852 0.35118115
vt 0.024864852 0.35118115
vt 0.024864882 0.35118115
vt 0.024864852 0.35118115
vt 0.024864852 0.35118115
vt 0.024864852 0.35118115
vt 0.024864882 0.35118115
vt 0.024864852 0.35118115
vt 0.024864852 0.35118115
vt 0.024864882 0.35118115
vt 0.024864852 0.35118115
vt 0.024864882 0.35118115
vt 0.024864852 0.35118115
vt 0.024864852 0.35118115
vt 0.024864882 0.35118115
vt 0.024864852 0.35118115
vt 0.024864882 0.35118115
vt 0.024864852 0.35118115
vt 0.024864882 0.35118115
vt 0.024864882 0.35118115
vt 0.024864852 0.35118115
vt 0.024864852 0.35118115
vt 0.024864852 0.35118115
vt 0.024864852 0.35118115
vt 0.024864852 0.35118115
vt 0.024864852 0.35118115
vt 0.024864882 0.35118115
vt 0.024864852 0.35118115
vt 0.024864852 0.35118115
vt 0.024864852 0.35118115
vt 0.024864882 0.35118115
vt 0.024864852 0.35118115
vt 0.024864852 0.35118115
vt 0.024864882 0.35118115
vt 0.024864852 0.35118115
vt 0.024864882 0.35118115
vt 0.024864852 0.35118115
vt 0.024864852 0.35118115
vt 0.024864882 0.35118115
vt 0.024864852 0.35118115
vt 0.024864882 0.35118115
vt 0.024864852 0.35118115
vt 0.024864882 0.35118115
vt 0.024864882 0.35118115
vt 0.024864852 0.35118115
vt 0.024864852 0.35118115
vt 0.024864852 0.35118115
vt 0.024864852 0.35118115
vt 0.024864852 0.35118115
vt 0.024864852 0.35118115
vt 0.024864882 0.35118115
vt 0.024864852 0.35118115
vt 0.024864852 0.35118115
vt 0.024864852 0.35118115
vt 0.024864882 0.35118115
vt 0.024864852 0.35118115
vt 0.024864852 0.35118115
vt 0.024864882 0.35118115
vt 0.024864852 0.35118115
vt 0.024864882 0.35118115
vt 0.024864852 0.35118115
vt 0.024864852 0.35118115
vt 0.024864882 0.35118115
vt 0.024864852 0.35118115
vt 0.024864882 0.35118115
vt 0.024864852 0.35118115
vt 0.024864882 0.35118115
vt 0.024864882 0.35118115
vt 0.024864852 0.35118115
vt 0.024864852 0.35118115
vt 0.024864852 0.35118115
vt 0.024864852 0.35118115
vt 0.08919799 0.47597194
vt 0.08919799 0.47597194
vt 0.08919802 0.47597194
vt 0.08919799 0.47597194
vt 0.08919799 0.47597194
vt 0.08919799 0.47597194
vt 0.08919802 0.47597194
vt 0.08919799 0.47597194
vt 0.08919799 0.47597194
vt 0.08919802 0.47597194
vt 0.08919799 0.47597194
vt 0.08919802 0.47597194
vt 0.08919799 0.47597194
vt 0.08919799 0.47597194
vt 0.08919802 0.47597194
vt 0.08919799 0.47597194
vt 0.08919802 0.47597194
vt 0.08919799 0.47597194
vt 0.08919802 0.47597194
vt 0.08919802 0.47597194
vt 0.08919799 0.47597194
vt 0.08919799 0.47597194
vt 0.08919799 0.47597194
vt 0.08919799 0.47597194
vn 0.28208733 -0.8772998 -0.38829353
vn -0 -0.8773 -0.47994223
vn -0.28208733 -0.8772998 -0.38829353
vn 0.45644584 -0.8773063 -0.14829302
vn -0.45644584 -0.8773063 -0.14829302
vn 0.45644584 -0.8773063 0.14829302
vn -0.45644584 -0.8773063 0.14829302
vn 0.28208733 -0.8772998 0.38829353
vn -0.28208733 -0.8772998 0.38829353
vn -0 -0.8773 0.47994223
vn -0 1 0
vn -0 1 0
vn -0 1 0
vn -0 1 0
vn -0 1 0
vn -0 1 0
vn -0 1 0
vn -0 1 0
vn -0 1 0
vn -0 1 0
vn -0.34523004 0.9385178 0.0007324541
vn 0.52594095 0.7023737 -0.479643
vn -0 0.99999774 0.0021668754
vn 0.34413344 0.9389203 0.00085453497
vn 0.1490566 0.80586404 -0.5730317
vn 0.57398355 0.71300066 -0.40270713
vn 0.90730596 0.42046332 -0.0025330954
vn 0.899303 0.3230435 -0.2947829
vn -0.32535964 0.4017784 -0.8559879
vn -0.90783864 0.41930997 -0.002838331
vn 0.907375 -0.4203144 -0.0025331175
vn 0.8965694 -0.34352675 -0.279558
vn 0.5658552 -0.72946817 -0.38429686
vn 0.34404287 -0.9389535 0.0008545374
vn -0.9078271 -0.41933516 -0.002838295
vn -0.32399103 -0.41319844 -0.85105634
vn 0.15106861 -0.81659454 -0.5570922
vn -0.3452031 -0.93852764 0.0007324618
vn 0.52653056 -0.71599853 -0.45837942
vn -0 -0.99999774 0.0021668754
vn 0.74510676 -0.018154817 -0.66669804
vn 0.74510676 -0.018154817 -0.66669804
vn 0.74510676 -0.018154817 -0.66669804
vn 0.75292027 -0.023847042 -0.6576795
vn 0.7427341 -0.011054613 -0.6694952
vn 0.7372281 -0.03606808 -0.67468053
vn 0.7427341 -0.011054613 -0.6694952
vn 0.7372281 -0.03606808 -0.67468053
vn 0.73767585 -0.014827853 -0.6749922
vn 0.7326447 -0.011305167 -0.68051744
vn 0.73769385 -0.014827462 -0.6749726
vn -0.20408076 0.9377888 0.2808972
vn -0 0.93779594 0.34718716
vn -0 0.72759944 -0.68600225
vn 0.40321654 0.7276026 -0.5549873
vn -0.3302162 0.9377896 0.10727449
vn -0.40321654 0.7276026 -0.5549873
vn 0.20408076 0.9377888 0.2808972
vn 0.6524124 0.72761214 -0.21198748
vn -0.3302162 0.9377896 -0.10727449
vn -0.6524124 0.72761214 -0.21198748
vn 0.3302162 0.9377896 0.10727449
vn 0.6524124 0.72761214 0.21198748
vn -0.20408076 0.9377888 -0.2808972
vn -0.6524124 0.72761214 0.21198748
vn 0.3302162 0.9377896 -0.10727449
vn 0.40321654 0.7276026 0.5549873
vn -0 0.93779594 -0.34718716
vn -0.40321654 0.7276026 0.5549873
vn 0.20408076 0.9377888 -0.2808972
vn -0 0.72759944 0.68600225
vn -0.92526275 -0.23133858 -0.30061805
vn -0.92526275 -0.23133858 0.30061805
vn -0.5718446 -0.23133808 0.7870683
vn -0 -0.23133174 0.972875
vn 0.5718446 -0.23133808 0.7870683
vn 0.92526275 -0.23133858 0.30061805
vn -0.5718446 -0.23133808 -0.7870683
vn 0.92526275 -0.23133858 -0.30061805
vn -0 -0.23133174 -0.972875
vn 0.5718446 -0.23133808 -0.7870683
vn -0 -0.8773 0.47994223
vn -0.28208733 -0.8772998 0.38829353
vn 0.28208733 -0.8772998 0.38829353
vn 0.45644584 -0.8773063 0.14829302
vn -0.45644584 -0.8773063 0.14829302
vn 0.45644584 -0.8773063 -0.14829302
vn 0.28208733 -0.8772998 -0.38829353
vn -0.45644584 -0.8773063 -0.14829302
vn -0 -0.8773 -0.47994223
vn -0.28208733 -0.8772998 -0.38829353
vn 0.4411784 0.885897 0.14334637
vn 0.4411784 0.885897 -0.14334637
vn 0.3302162 0.9377896 -0.10727449
vn 0.3302162 0.9377896 0.10727449
vn 0.20408076 0.9377888 -0.2808972
vn 0.27265477 0.8858991 0.3752894
vn 0.27265477 0.8858991 -0.3752894
vn 0.20408076 0.9377888 0.2808972
vn -0 0.93779594 -0.34718716
vn -0 0.885896 0.46388382
vn -0 0.885896 -0.46388382
vn -0 0.93779594 0.34718716
vn -0.20408076 0.9377888 -0.2808972
vn -0.27265477 0.8858991 0.3752894
vn -0.27265477 0.8858991 -0.3752894
vn -0.20408076 0.9377888 0.2808972
vn -0.3302162 0.9377896 -0.10727449
vn -0.4411784 0.885897 0.14334637
vn -0.4411784 0.885897 -0.14334637
vn -0.3302162 0.9377896 0.10727449
vn -0.050234158 0.7873884 -0.6144071
vn -0.25523093 0.886884 -0.38508952
vn -0.7643229 0.1272956 -0.6321442
vn -0.6619034 0.03033622 -0.74897504
vn 0.61285424 0.78150284 0.116888195
vn -0.5944261 -0.76640284 -0.24348366
vn -0.6297906 -0.7643185 -0.13849536
vn 0.45080245 0.8588777 0.24311775
vn 0.664252 -0.01510704 0.747356
vn 0.1928794 -0.85794705 0.47615576
vn 0.030000659 -0.7894781 0.613045
vn 0.7160363 0.034578003 0.6972061
vn -0.8970669 0.09540148 -0.43147352
vn -0.44584998 -0.79153705 -0.41795576
vn -0.52471846 0.85127497 -0.0012818107
vn 0.47225755 -0.8766093 0.092351764
vn 0.29112306 0.8326565 0.47109503
vn 0.83241606 0.0034486898 0.5541404
vn -0.9065949 -0.013001058 -0.42180192
vn -0.6000325 0.7923017 0.11053953
vn -0.30986562 -0.79045796 -0.5283555
vn 0.3369605 0.7762817 0.5327705
vn 0.57048935 -0.80978787 -0.13706027
vn 0.9184484 -0.054660104 0.39174598
vn -0.0045167836 0.92795485 0.37266517
vn 0.6476806 0.42604938 0.6316579
vn 0.081698515 0.07281757 0.99399346
vn 0.4574272 0.64652646 0.6105439
vn 0.47655964 -0.8596385 0.18415375
vn 0.8113925 -0.5767888 0.0946411
vn -0.33091933 -0.8083612 0.48687226
vn 0.0071413782 -0.927189 -0.37452564
vn 0.9473192 -0.31437936 -0.061252248
vn -0.4287038 0.67667264 0.5986044
vn 0.5048199 0.8460564 0.17130491
vn -0.832781 -0.5422981 0.11130401
vn -0.0017395809 0.97566074 0.21927875
vn 0.0016175339 -0.9752813 -0.22096121
vn -0.50771886 0.8444991 0.17041968
vn 0.83882624 -0.46963286 -0.27534622
vn -0.9461556 -0.3178878 -0.06112992
vn 0.42717198 0.80774176 -0.40629712
vn 0.0009460784 -0.9889571 0.1481986
vn -0.0010071347 0.989342 -0.14560726
vn -0.0004577922 -0.66630125 -0.7456825
vn -0.8381575 -0.47146547 -0.27424836
vn -0.42897952 0.80656457 -0.40673095
vn -0.00018311372 0.37690908 -0.9262502
vn 0.20026645 0.9279643 0.3142859
vn 0.88785845 0.42601454 0.17383616
vn 0.6126775 0.072788835 0.78697395
vn 0.7171083 0.6465175 0.26032832
vn 0.49960253 -0.8596398 -0.10684841
vn 0.7307446 -0.57677674 -0.36515868
vn -0.010285054 -0.80833817 0.5886286
vn -0.1991057 -0.92719656 -0.31727514
vn 0.759072 -0.31437764 -0.5700669
vn -0.030885478 0.6766727 0.73563594
vn 0.51620364 0.8460564 -0.13312525
vn -0.6358414 -0.54229945 0.5491968
vn 0.11862724 0.97566104 0.18442614
vn -0.119636595 -0.97528243 -0.18577245
vn -0.33146647 0.84449023 0.4206734
vn 0.55105793 -0.46963227 -0.68976855
vn -0.8251533 -0.3178902 0.46697748
vn 0.13489477 0.80775124 -0.5738827
vn 0.08197301 -0.9889558 0.12347833
vn -0.08060114 0.9893401 -0.1212832
vn -0.4087742 -0.66632575 -0.6236294
vn -0.85149026 -0.4714631 0.22953615
vn -0.5816708 0.80656886 -0.105383776
vn -0.50742495 0.37689105 -0.7749019
vn 0.33970657 0.92795956 0.15326622
vn 0.83807206 0.42604005 -0.34077102
vn 0.943624 0.07275784 0.32292396
vn 0.7425886 0.6465147 -0.17487393
vn 0.35951817 -0.8596391 -0.3629974
vn 0.41142908 -0.57678205 -0.70572555
vn 0.31373453 -0.80835474 0.49812984
vn -0.3403755 -0.9271898 -0.15640853
vn 0.3229232 -0.31437784 -0.89268535
vn 0.3770355 0.676674 0.6324211
vn 0.35899812 0.84605503 -0.39409527
vn -0.23121265 -0.5422938 0.8077488
vn 0.20026545 0.97566086 0.08932901
vn -0.20185566 -0.9752797 -0.08991031
vn -0.04696882 0.8444926 0.53350353
vn 0.08331749 -0.46962985 -0.8789232
vn -0.434652 -0.31788623 0.8426304
vn -0.20139384 0.80774224 -0.55406964
vn 0.13620478 -0.9889571 0.058412712
vn -0.13385731 0.98934174 -0.057315107
vn -0.68357056 -0.66629666 -0.2979596
vn -0.5867328 -0.47149208 0.6583615
vn -0.54440325 0.806564 0.23039018
vn -0.8489579 0.37688395 -0.37044433
vn 0.36818007 0.92795783 -0.05777229
vn 0.5145839 0.42601725 -0.7441187
vn 0.9663746 0.07278709 -0.24662158
vn 0.52554137 0.64651966 -0.5530087
vn 0.101935744 -0.85964787 -0.5006143
vn -0.042207982 -0.5767814 -0.8158074
vn 0.5353321 -0.80835426 0.24491422
vn -0.37046537 -0.9271859 0.055513352
vn -0.21870197 -0.3143803 -0.923761
vn 0.6618096 0.67667246 0.32267985
vn 0.08453901 0.8460615 -0.52633923
vn 0.24888545 -0.5422987 0.8024763
vn 0.21650088 0.9756579 -0.034913592
vn -0.21812311 -0.9752822 0.0353111
vn 0.25288162 0.8444951 0.47210056
vn -0.41161984 -0.46963793 -0.78103095
vn 0.09778339 -0.31788757 0.94307256
vn -0.47194594 0.80774665 -0.35328805
vn 0.14597046 -0.9889552 -0.025696661
vn -0.14340948 0.9893392 0.025330892
vn -0.7351237 -0.6663022 0.12503847
vn -0.13034669 -0.47145763 0.8722027
vn -0.3293351 0.8065673 0.4909049
vn -0.91319686 0.37691268 0.1549462
vn 0.27640998 0.92795867 -0.24998058
vn 0.023011815 0.42602378 -0.90441924
vn 0.67349255 0.07281824 -0.7355986
vn 0.13684766 0.6465167 -0.7505258
vn -0.18882325 -0.85963863 -0.47472855
vn -0.48211285 -0.5767836 -0.6594603
vn 0.5820549 -0.808352 -0.088199385
vn -0.2795517 -0.92719 0.24933815
vn -0.6888855 -0.31438106 -0.65314716
vn 0.73045295 0.6766776 -0.09244347
vn -0.21748301 0.8460657 -0.48669684
vn 0.6477368 -0.5422934 0.5351214
vn 0.16202495 0.9756594 -0.14777263
vn -0.16318749 -0.97527945 0.14899594
vn 0.47014505 0.844491 0.25651214
vn -0.77214247 -0.46963355 -0.42806602
vn 0.5983006 -0.31788915 0.7355154
vn -0.5883706 0.8077393 -0.03711078
vn 0.108036116 -0.9889577 -0.10144409
vn -0.10611508 0.9893393 0.09973658
vn -0.546596 -0.6663222 0.50719595
vn 0.36858347 -0.47146457 0.80116624
vn -0.0067141675 0.8065547 0.59112144
vn -0.67921793 0.37688887 0.6297758
vn 0.094364114 0.92795455 -0.36054906
vn -0.47601107 0.42602026 -0.7693635
vn 0.16068083 0.07278705 -0.9843189
vn -0.29649562 0.6465222 -0.702922
vn -0.4179924 -0.85963726 -0.29377884
vn -0.76454204 -0.5767866 -0.28773713
vn 0.4386825 -0.80836123 -0.39256805
vn -0.09735519 -0.9271937 0.3617096
vn -0.93409306 -0.31437555 -0.16922751
vn 0.5605491 0.6766752 -0.47738382
vn -0.4485413 0.84605443 -0.28810164
vn 0.8350264 -0.5422895 0.09302147
vn 0.054628834 0.9756588 -0.21238104
vn -0.054904636 -0.9752821 0.21403345
vn 0.5338649 0.844485 -0.042817842
vn -0.880489 -0.46963483 0.06467093
vn 0.9034028 -0.3178894 0.2877668
vn -0.512625 0.80774224 0.29114977
vn 0.034821812 -0.98895776 -0.14404817
vn -0.034151025 0.9893421 0.14154822
vn -0.1795468 -0.6663039 0.72374177
vn 0.74714553 -0.47149423 0.46847284
vn 0.31810328 0.80656564 0.49825904
vn -0.22340152 0.37688327 0.8989164
vn -0.11847458 0.9279594 -0.3533485
vn -0.8196243 0.42601785 -0.38304678
vn -0.4045627 0.07278832 -0.91160893
vn -0.6330389 0.64652854 -0.4257493
vn -0.5106202 -0.8596401 -0.016907752
vn -0.7972848 -0.57678324 0.1779272
vn 0.15210883 -0.80833757 -0.5687295
vn 0.116612434 -0.9271925 0.35597157
vn -0.8742453 -0.31437552 0.36995047
vn 0.20756038 0.6766694 -0.70642555
vn -0.5330789 0.84605336 0.0045473613
vn 0.74961925 -0.54230046 -0.3794486
vn -0.07059025 0.97565925 -0.20762019
vn 0.07126274 -0.9752771 0.20917979
vn 0.42323506 0.8444864 -0.32819945
vn -0.7012827 -0.46963784 0.5363235
vn 0.91347617 -0.31789008 -0.25398245
vn -0.26945245 0.807747 0.5243473
vn -0.049745284 -0.98895454 -0.1396225
vn 0.048922278 0.98934096 0.13715328
vn 0.24610859 -0.66629994 0.70389986
vn 0.88172203 -0.4714563 -0.01718215
vn 0.53903216 0.80656445 0.24268958
vn 0.30534613 0.376914 0.874471
vn -0.29264662 0.9279604 -0.23075408
vn -0.89554924 0.42604512 0.12836288
vn -0.83778006 0.072788075 -0.54113436
vn -0.76283383 0.64652413 -0.00955259
vn -0.43649128 -0.8596455 0.26548997
vn -0.5696433 -0.5767848 0.58551335
vn -0.18421167 -0.80835235 -0.5591355
vn 0.29252422 -0.9271964 0.2339583
vn -0.52886283 -0.3143757 0.78833497
vn -0.21317656 0.6766715 -0.7047492
vn -0.44350994 0.84606266 0.29576486
vn 0.41939226 -0.54229236 -0.72803104
vn -0.17276785 0.97566074 -0.13504641
vn 0.17417437 -0.9752788 0.13599455
vn 0.17438395 0.84448344 -0.50639707
vn -0.29304585 -0.46963027 0.8328093
vn 0.625217 -0.31788835 -0.7127767
vn 0.06167869 0.80774367 0.5862985
vn -0.11807661 -0.9889564 -0.0895722
vn 0.11606435 0.98933953 0.087956205
vn 0.59141225 -0.66630775 0.4541648
vn 0.7283219 -0.47146818 -0.4972573
vn 0.58392453 0.8065623 -0.09213757
vn 0.73440176 0.37690583 0.5644432
vn -0.3712328 0.92796 -0.032807898
vn -0.67900145 0.42602396 0.5978802
vn -0.9973271 0.072818086 0.0060122227
vn -0.64349866 0.6465201 0.40978217
vn -0.21979997 -0.85963696 0.46120757
vn -0.15595458 -0.57678777 0.80186903
vn -0.4603488 -0.8083571 -0.36693013
vn 0.3729074 -0.92718714 0.035554226
vn -0.010773256 -0.31437767 0.9492368
vn -0.5643353 0.67667735 -0.47289896
vn -0.2091195 0.8460611 0.49035653
vn -0.0477629 -0.54229975 -0.8388264
vn -0.21851572 0.9756605 -0.01837241
vn 0.22019841 -0.9752821 0.018372757
vn -0.13141528 0.8444942 -0.5191911
vn 0.21088618 -0.46962616 0.8573088
vn 0.13275684 -0.317884 -0.9387893
vn 0.3726973 0.8077448 0.45677695
vn -0.14786255 -0.9889548 -0.010254245
vn 0.14527144 0.9893412 0.0100103
vn 0.7435715 -0.6662967 0.056124937
vn 0.3370572 -0.47146505 -0.81493133
vn 0.4381069 0.8065684 -0.39687508
vn 0.92359585 0.37690938 0.07007157
vn -0.32859623 0.92795557 0.17584951
vn -0.24070615 0.4260502 0.8720905
vn -0.83118826 0.072788104 0.5512058
vn -0.31400958 0.6465136 0.6952829
vn 0.068607144 -0.85963404 0.5062828
vn 0.30863863 -0.57677853 0.7563523
vn -0.58613974 -0.8083455 -0.054933432
vn 0.33149442 -0.9271895 -0.17444505
vn 0.5108239 -0.3143743 0.8001423
vn -0.7311756 0.6766686 -0.08661309
vn 0.09357255 0.84605944 0.52481204
vn -0.49937704 -0.54228634 -0.67568344
vn -0.19291005 0.97565913 0.104283124
vn 0.19431767 -0.9752812 -0.10520072
vn -0.39430398 0.844488 -0.36244228
vn 0.6459512 -0.4696384 0.6018196
vn -0.40303692 -0.3178883 -0.8582006
vn 0.56200224 0.80773896 0.17807673
vn -0.12933804 -0.98895687 0.07235972
vn 0.12705125 0.98933953 -0.07117068
vn 0.65286547 -0.6663244 -0.3602479
vn -0.16425653 -0.47146696 -0.86645174
vn 0.14921002 0.80657035 -0.57199717
vn 0.81117195 0.37688258 -0.44716853
vn -0.17862637 0.9279537 0.3271002
vn 0.27616635 0.4260451 0.8615206
vn -0.39360362 0.07278783 0.9163942
vn 0.11801882 0.64652467 0.7537091
vn 0.33466923 -0.8596232 0.3860629
vn 0.672463 -0.5767849 0.46380234
vn -0.52053475 -0.808361 0.27494714
vn 0.18180136 -0.92719615 -0.32749882
vn 0.86560977 -0.314376 0.38972735
vn -0.6592194 0.6766764 0.3279311
vn 0.36571282 0.84605616 0.38786986
vn -0.7878623 -0.542302 -0.29185852
vn -0.104283124 0.97565913 0.19291005
vn 0.10495677 -0.9752831 -0.19444013
vn -0.52840537 0.84449023 -0.08731476
vn 0.87007004 -0.46962848 0.1497574
vn -0.8072119 -0.31789178 -0.4973468
vn 0.5677469 0.80774915 -0.15876037
vn -0.06857542 -0.988957 0.13138281
vn 0.067325294 0.98934 -0.12912661
vn 0.34895605 -0.6663248 -0.65896964
vn -0.6119473 -0.4714964 -0.63498956
vn -0.18839441 0.8065588 -0.5603307
vn 0.43379873 0.3768806 -0.8184007
vn -0.13608254 0.98730797 0.08188146
vn 0.09686826 0.68726414 -0.7199198
vn 0.26307645 0.38652706 -0.8839613
vn 0.13825284 0.7985398 -0.5858502
vn 0.31322154 -0.79582626 -0.51822096
vn -0.020539507 -0.36717802 -0.9299239
vn 0.66291124 -0.62775296 -0.40801346
vn 0.134619 -0.98747045 -0.08234007
vn -0.6109738 -0.39703068 -0.6848925
vn 0.48931396 0.8535604 -0.17890342
vn -0.573768 0.78053814 -0.24809362
vn 0.9655075 -0.2488236 0.07669491
vn -0.22987111 0.9589763 0.16590273
vn 0.22981066 -0.95925343 -0.16437718
vn 0.15168063 0.79325616 0.58969283
vn -0.60120624 -0.61756474 -0.50711423
vn 0.6571404 -0.32579297 0.67972463
vn -0.8244296 0.5325999 0.1914503
vn 0.4214683 -0.83863336 -0.34504855
vn -0.4201895 0.8395245 0.34444067
vn -0.2347561 -0.9213535 0.30983406
vn 0.48216978 -0.56997293 0.6653143
vn -0.3120301 0.57706034 0.7547441
vn -0.71317536 -0.06045876 0.69837356
g Spear13_0
f 3/3/3 2/2/2 1/1/1
f 1/1/1 4/4/4 3/3/3
f 4/4/4 5/5/5 3/3/3
f 4/4/4 6/6/6 5/5/5
f 6/6/6 7/7/7 5/5/5
f 6/6/6 8/8/8 7/7/7
f 8/8/8 9/9/9 7/7/7
f 8/8/8 10/10/10 9/9/9
f 13/13/13 12/12/12 11/11/11
f 11/11/11 14/14/14 13/13/13
f 14/14/14 15/15/15 13/13/13
f 14/14/14 16/16/16 15/15/15
f 16/16/16 17/17/17 15/15/15
f 16/16/16 18/18/18 17/17/17
f 18/18/18 19/19/19 17/17/17
f 18/18/18 20/20/20 19/19/19
f 23/23/23 22/22/22 21/21/21
f 23/23/23 24/24/24 22/22/22
f 22/22/22 25/25/25 21/21/21
f 24/24/24 26/26/26 22/22/22
f 24/24/24 27/27/27 26/26/26
f 27/27/27 28/28/28 26/26/26
f 21/21/21 25/25/25 29/29/29
f 30/30/30 21/21/21 29/29/29
f 28/28/28 27/27/27 31/31/31
f 32/32/32 28/28/28 31/31/31
f 33/33/33 32/32/32 31/31/31
f 34/34/34 33/33/33 31/31/31
f 30/30/30 29/29/29 35/35/35
f 29/29/29 36/36/36 35/35/35
f 36/36/36 37/37/37 35/35/35
f 37/37/37 38/38/38 35/35/35
f 39/39/39 33/33/33 34/34/34
f 38/38/38 37/37/37 39/39/39
f 40/40/40 39/39/39 34/34/34
f 40/40/40 38/38/38 39/39/39
f 43/43/43 42/42/42 41/41/41
f 44/44/44 43/43/43 41/41/41
f 42/42/42 45/45/45 41/41/41
f 46/46/46 44/44/44 41/41/41
f 45/45/45 47/47/47 41/41/41
f 48/48/48 46/46/46 41/41/41
f 47/47/47 49/49/49 41/41/41
f 50/50/50 48/48/48 41/41/41
f 49/49/49 51/51/51 41/41/41
f 51/51/51 50/50/50 41/41/41
f 54/54/54 53/53/53 52/52/52
f 55/55/55 54/54/54 52/52/52
f 55/55/55 52/52/52 56/56/56
f 54/54/54 57/57/57 53/53/53
f 57/57/57 58/58/58 53/53/53
f 59/59/59 55/55/55 56/56/56
f 59/59/59 56/56/56 60/60/60
f 57/57/57 61/61/61 58/58/58
f 61/61/61 62/62/62 58/58/58
f 63/63/63 59/59/59 60/60/60
f 63/63/63 60/60/60 64/64/64
f 61/61/61 65/65/65 62/62/62
f 65/65/65 66/66/66 62/62/62
f 67/67/67 63/63/63 64/64/64
f 67/67/67 64/64/64 68/68/68
f 65/65/65 69/69/69 66/66/66
f 69/69/69 70/70/70 66/66/66
f 71/71/71 68/68/68 70/70/70
f 71/71/71 67/67/67 68/68/68
f 69/69/69 71/71/71 70/70/70
f 61/61/61 57/57/57 72/72/72
f 65/65/65 61/61/61 73/73/73
f 61/61/61 72/72/72 73/73/73
f 69/69/69 65/65/65 74/74/74
f 65/65/65 73/73/73 74/74/74
f 71/71/71 69/69/69 75/75/75
f 69/69/69 74/74/74 75/75/75
f 67/67/67 71/71/71 76/76/76
f 71/71/71 75/75/75 76/76/76
f 63/63/63 67/67/67 77/77/77
f 67/67/67 76/76/76 77/77/77
f 57/57/57 78/78/78 72/72/72
f 57/57/57 54/54/54 78/78/78
f 63/63/63 77/77/77 79/79/79
f 59/59/59 63/63/63 79/79/79
f 54/54/54 80/80/80 78/78/78
f 54/54/54 55/55/55 80/80/80
f 55/55/55 59/59/59 81/81/81
f 59/59/59 79/79/79 81/81/81
f 55/55/55 81/81/81 80/80/80
f 76/76/76 75/75/75 82/82/82
f 82/82/82 75/75/75 83/83/83
f 84/84/84 76/76/76 82/82/82
f 77/77/77 76/76/76 84/84/84
f 75/75/75 74/74/74 83/83/83
f 85/85/85 77/77/77 84/84/84
f 79/79/79 77/77/77 85/85/85
f 83/83/83 74/74/74 86/86/86
f 87/87/87 79/79/79 85/85/85
f 81/81/81 79/79/79 87/87/87
f 74/74/74 73/73/73 86/86/86
f 88/88/88 81/81/81 87/87/87
f 80/80/80 81/81/81 88/88/88
f 86/86/86 73/73/73 89/89/89
f 90/90/90 80/80/80 88/88/88
f 73/73/73 72/72/72 89/89/89
f 78/78/78 80/80/80 90/90/90
f 89/89/89 72/72/72 91/91/91
f 91/91/91 78/78/78 90/90/90
f 72/72/72 78/78/78 91/91/91
f 94/94/94 93/93/93 92/92/92
f 95/95/95 94/94/94 92/92/92
f 94/94/94 96/96/96 93/93/93
f 95/95/95 92/92/92 97/97/97
f 96/96/96 98/98/98 93/93/93
f 99/99/99 95/95/95 97/97/97
f 96/96/96 100/100/100 98/98/98
f 97/97/97 101/101/101 99/99/99
f 100/100/100 102/102/102 98/98/98
f 101/101/101 103/103/103 99/99/99
f 100/100/100 104/104/104 102/102/102
f 103/103/103 101/101/101 105/105/105
f 104/104/104 106/106/106 102/102/102
f 107/107/107 103/103/103 105/105/105
f 104/104/104 108/108/108 106/106/106
f 107/107/107 105/105/105 109/109/109
f 108/108/108 110/110/110 106/106/106
f 111/111/111 107/107/107 109/109/109
f 111/111/111 109/109/109 110/110/110
f 108/108/108 111/111/111 110/110/110
f 114/114/114 113/113/113 112/112/112
f 115/115/115 114/114/114 112/112/112
f 112/112/112 113/113/113 116/116/116
f 117/117/117 114/114/114 115/115/115
f 118/118/118 117/117/117 115/115/115
f 113/113/113 119/119/119 116/116/116
f 116/116/116 119/119/119 120/120/120
f 121/121/121 117/117/117 118/118/118
f 122/122/122 121/121/121 118/118/118
f 120/120/120 123/123/123 122/122/122
f 119/119/119 123/123/123 120/120/120
f 123/123/123 121/121/121 122/122/122
f 114/114/114 124/124/124 113/113/113
f 117/117/117 125/125/125 114/114/114
f 125/125/125 124/124/124 114/114/114
f 113/113/113 126/126/126 119/119/119
f 124/124/124 126/126/126 113/113/113
f 121/121/121 127/127/127 117/117/117
f 127/127/127 125/125/125 117/117/117
f 119/119/119 128/128/128 123/123/123
f 126/126/126 128/128/128 119/119/119
f 123/123/123 129/129/129 121/121/121
f 129/129/129 127/127/127 121/121/121
f 128/128/128 129/129/129 123/123/123
f 124/124/124 130/130/130 126/126/126
f 130/130/130 131/131/131 126/126/126
f 126/126/126 131/131/131 128/128/128
f 132/132/132 130/130/130 124/124/124
f 125/125/125 132/132/132 124/124/124
f 131/131/131 133/133/133 128/128/128
f 128/128/128 133/133/133 129/129/129
f 134/134/134 132/132/132 125/125/125
f 127/127/127 134/134/134 125/125/125
f 133/133/133 135/135/135 129/129/129
f 135/135/135 134/134/134 127/127/127
f 129/129/129 135/135/135 127/127/127
f 138/138/138 137/137/137 136/136/136
f 136/136/136 137/137/137 139/139/139
f 140/140/140 137/137/137 138/138/138
f 141/141/141 139/139/139 137/137/137
f 140/140/140 141/141/141 137/137/137
f 142/142/142 140/140/140 138/138/138
f 140/140/140 143/143/143 141/141/141
f 140/140/140 142/142/142 143/143/143
f 141/141/141 144/144/144 139/139/139
f 141/141/141 143/143/143 144/144/144
f 142/142/142 138/138/138 145/145/145
f 145/145/145 138/138/138 136/136/136
f 136/136/136 139/139/139 146/146/146
f 144/144/144 146/146/146 139/139/139
f 142/142/142 147/147/147 143/143/143
f 147/147/147 142/142/142 145/145/145
f 145/145/145 136/136/136 148/148/148
f 148/148/148 136/136/136 146/146/146
f 143/143/143 149/149/149 144/144/144
f 143/143/143 147/147/147 149/149/149
f 147/147/147 145/145/145 150/150/150
f 150/150/150 145/145/145 148/148/148
f 144/144/144 151/151/151 146/146/146
f 144/144/144 149/149/149 151/151/151
f 147/147/147 152/152/152 149/149/149
f 152/152/152 147/147/147 150/150/150
f 148/148/148 146/146/146 153/153/153
f 151/151/151 153/153/153 146/146/146
f 149/149/149 154/154/154 151/151/151
f 149/149/149 152/152/152 154/154/154
f 150/150/150 148/148/148 155/155/155
f 155/155/155 148/148/148 153/153/153
f 151/151/151 154/154/154 156/156/156
f 151/151/151 156/156/156 153/153/153
f 152/152/152 157/157/157 154/154/154
f 157/157/157 156/156/156 154/154/154
f 152/152/152 150/150/150 158/158/158
f 158/158/158 150/150/150 155/155/155
f 157/157/157 152/152/152 158/158/158
f 155/155/155 153/153/153 159/159/159
f 156/156/156 159/159/159 153/153/153
f 159/159/159 158/158/158 155/155/155
f 157/157/157 158/158/158 159/159/159
f 156/156/156 157/157/157 159/159/159
f 162/162/162 161/161/161 160/160/160
f 160/160/160 161/161/161 163/163/163
f 164/164/164 161/161/161 162/162/162
f 165/165/165 163/163/163 161/161/161
f 164/164/164 165/165/165 161/161/161
f 166/166/166 164/164/164 162/162/162
f 164/164/164 167/167/167 165/165/165
f 164/164/164 166/166/166 167/167/167
f 165/165/165 168/168/168 163/163/163
f 165/165/165 167/167/167 168/168/168
f 166/166/166 162/162/162 169/169/169
f 169/169/169 162/162/162 160/160/160
f 160/160/160 163/163/163 170/170/170
f 168/168/168 170/170/170 163/163/163
f 166/166/166 171/171/171 167/167/167
f 171/171/171 166/166/166 169/169/169
f 169/169/169 160/160/160 172/172/172
f 172/172/172 160/160/160 170/170/170
f 167/167/167 173/173/173 168/168/168
f 167/167/167 171/171/171 173/173/173
f 171/171/171 169/169/169 174/174/174
f 174/174/174 169/169/169 172/172/172
f 168/168/168 175/175/175 170/170/170
f 168/168/168 173/173/173 175/175/175
f 171/171/171 176/176/176 173/173/173
f 176/176/176 171/171/171 174/174/174
f 172/172/172 170/170/170 177/177/177
f 175/175/175 177/177/177 170/170/170
f 173/173/173 178/178/178 175/175/175
f 173/173/173 176/176/176 178/178/178
f 174/174/174 172/172/172 179/179/179
f 179/179/179 172/172/172 177/177/177
f 175/175/175 178/178/178 180/180/180
f 175/175/175 180/180/180 177/177/177
f 176/176/176 181/181/181 178/178/178
f 181/181/181 180/180/180 178/178/178
f 176/176/176 174/174/174 182/182/182
f 182/182/182 174/174/174 179/179/179
f 181/181/181 176/176/176 182/182/182
f 179/179/179 177/177/177 183/183/183
f 180/180/180 183/183/183 177/177/177
f 183/183/183 182/182/182 179/179/179
f 181/181/181 182/182/182 183/183/183
f 180/180/180 181/181/181 183/183/183
f 186/186/186 185/185/185 184/184/184
f 184/184/184 185/185/185 187/187/187
f 188/188/188 185/185/185 186/186/186
f 189/189/189 187/187/187 185/185/185
f 188/188/188 189/189/189 185/185/185
f 190/190/190 188/188/188 186/186/186
f 188/188/188 191/191/191 189/189/189
f 188/188/188 190/190/190 191/191/191
f 189/189/189 192/192/192 187/187/187
f 189/189/189 191/191/191 192/192/192
f 190/190/190 186/186/186 193/193/193
f 193/193/193 186/186/186 184/184/184
f 184/184/184 187/187/187 194/194/194
f 192/192/192 194/194/194 187/187/187
f 190/190/190 195/195/195 191/191/191
f 195/195/195 190/190/190 193/193/193
f 193/193/193 184/184/184 196/196/196
f 196/196/196 184/184/184 194/194/194
f 191/191/191 197/197/197 192/192/192
f 191/191/191 195/195/195 197/197/197
f 195/195/195 193/193/193 198/198/198
f 198/198/198 193/193/193 196/196/196
f 192/192/192 199/199/199 194/194/194
f 192/192/192 197/197/197 199/199/199
f 195/195/195 200/200/200 197/197/197
f 200/200/200 195/195/195 198/198/198
f 196/196/196 194/194/194 201/201/201
f 199/199/199 201/201/201 194/194/194
f 197/197/197 202/202/202 199/199/199
f 197/197/197 200/200/200 202/202/202
f 198/198/198 196/196/196 203/203/203
f 203/203/203 196/196/196 201/201/201
f 199/199/199 202/202/202 204/204/204
f 199/199/199 204/204/204 201/201/201
f 200/200/200 205/205/205 202/202/202
f 205/205/205 204/204/204 202/202/202
f 200/200/200 198/198/198 206/206/206
f 206/206/206 198/198/198 203/203/203
f 205/205/205 200/200/200 206/206/206
f 203/203/203 201/201/201 207/207/207
f 204/204/204 207/207/207 201/201/201
f 207/207/207 206/206/206 203/203/203
f 205/205/205 206/206/206 207/207/207
f 204/204/204 205/205/205 207/207/207
f 210/210/210 209/209/209 208/208/208
f 208/208/208 209/209/209 211/211/211
f 212/212/212 209/209/209 210/210/210
f 213/213/213 211/211/211 209/209/209
f 212/212/212 213/213/213 209/209/209
f 214/214/214 212/212/212 210/210/210
f 212/212/212 215/215/215 213/213/213
f 212/212/212 214/214/214 215/215/215
f 213/213/213 216/216/216 211/211/211
f 213/213/213 215/215/215 216/216/216
f 214/214/214 210/210/210 217/217/217
f 217/217/217 210/210/210 208/208/208
f 208/208/208 211/211/211 218/218/218
f 216/216/216 218/218/218 211/211/211
f 214/214/214 219/219/219 215/215/215
f 219/219/219 214/214/214 217/217/217
f 217/217/217 208/208/208 220/220/220
f 220/220/220 208/208/208 218/218/218
f 215/215/215 221/221/221 216/216/216
f 215/215/215 219/219/219 221/221/221
f 219/219/219 217/217/217 222/222/222
f 222/222/222 217/217/217 220/220/220
f 216/216/216 223/223/223 218/218/218
f 216/216/216 221/221/221 223/223/223
f 219/219/219 224/224/224 221/221/221
f 224/224/224 219/219/219 222/222/222
f 220/220/220 218/218/218 225/225/225
f 223/223/223 225/225/225 218/218/218
f 221/221/221 226/226/226 223/223/223
f 221/221/221 224/224/224 226/226/226
f 222/222/222 220/220/220 227/227/227
f 227/227/227 220/220/220 225/225/225
f 223/223/223 226/226/226 228/228/228
f 223/223/223 228/228/228 225/225/225
f 224/224/224 229/229/229 226/226/226
f 229/229/229 228/228/228 226/226/226
f 224/224/224 222/222/222 230/230/230
f 230/230/230 222/222/222 227/227/227
f 229/229/229 224/224/224 230/230/230
f 227/227/227 225/225/225 231/231/231
f 228/228/228 231/231/231 225/225/225
f 231/231/231 230/230/230 227/227/227
f 229/229/229 230/230/230 231/231/231
f 228/228/228 229/229/229 231/231/231
f 234/234/234 233/233/233 232/232/232
f 232/232/232 233/233/233 235/235/235
f 236/236/236 233/233/233 234/234/234
f 237/237/237 235/235/235 233/233/233
f 236/236/236 237/237/237 233/233/233
f 238/238/238 236/236/236 234/234/234
f 236/236/236 239/239/239 237/237/237
f 236/236/236 238/238/238 239/239/239
f 237/237/237 240/240/240 235/235/235
f 237/237/237 239/239/239 240/240/240
f 238/238/238 234/234/234 241/241/241
f 241/241/241 234/234/234 232/232/232
f 232/232/232 235/235/235 242/242/242
f 240/240/240 242/242/242 235/235/235
f 238/238/238 243/243/243 239/239/239
f 243/243/243 238/238/238 241/241/241
f 241/241/241 232/232/232 244/244/244
f 244/244/244 232/232/232 242/242/242
f 239/239/239 245/245/245 240/240/240
f 239/239/239 243/243/243 245/245/245
f 243/243/243 241/241/241 246/246/246
f 246/246/246 241/241/241 244/244/244
f 240/240/240 247/247/247 242/242/242
f 240/240/240 245/245/245 247/247/247
f 243/243/243 248/248/248 245/245/245
f 248/248/248 243/243/243 246/246/246
f 244/244/244 242/242/242 249/249/249
f 247/247/247 249/249/249 242/242/242
f 245/245/245 250/250/250 247/247/247
f 245/245/245 248/248/248 250/250/250
f 246/246/246 244/244/244 251/251/251
f 251/251/251 244/244/244 249/249/249
f 247/247/247 250/250/250 252/252/252
f 247/247/247 252/252/252 249/249/249
f 248/248/248 253/253/253 250/250/250
f 253/253/253 252/252/252 250/250/250
f 248/248/248 246/246/246 254/254/254
f 254/254/254 246/246/246 251/251/251
f 253/253/253 248/248/248 254/254/254
f 251/251/251 249/249/249 255/255/255
f 252/252/252 255/255/255 249/249/249
f 255/255/255 254/254/254 251/251/251
f 253/253/253 254/254/254 255/255/255
f 252/252/252 253/253/253 255/255/255
f 258/258/258 257/257/257 256/256/256
f 256/256/256 257/257/257 259/259/259
f 260/260/260 257/257/257 258/258/258
f 261/261/261 259/259/259 257/257/257
f 260/260/260 261/261/261 257/257/257
f 262/262/262 260/260/260 258/258/258
f 260/260/260 263/263/263 261/261/261
f 260/260/260 262/262/262 263/263/263
f 261/261/261 264/264/264 259/259/259
f 261/261/261 263/263/263 264/264/264
f 262/262/262 258/258/258 265/265/265
f 265/265/265 258/258/258 256/256/256
f 256/256/256 259/259/259 266/266/266
f 264/264/264 266/266/266 259/259/259
f 262/262/262 267/267/267 263/263/263
f 267/267/267 262/262/262 265/265/265
f 265/265/265 256/256/256 268/268/268
f 268/268/268 256/256/256 266/266/266
f 263/263/263 269/269/269 264/264/264
f 263/263/263 267/267/267 269/269/269
f 267/267/267 265/265/265 270/270/270
f 270/270/270 265/265/265 268/268/268
f 264/264/264 271/271/271 266/266/266
f 264/264/264 269/269/269 271/271/271
f 267/267/267 272/272/272 269/269/269
f 272/272/272 267/267/267 270/270/270
f 268/268/268 266/266/266 273/273/273
f 271/271/271 273/273/273 266/266/266
f 269/269/269 274/274/274 271/271/271
f 269/269/269 272/272/272 274/274/274
f 270/270/270 268/268/268 275/275/275
f 275/275/275 268/268/268 273/273/273
f 271/271/271 274/274/274 276/276/276
f 271/271/271 276/276/276 273/273/273
f 272/272/272 277/277/277 274/274/274
f 277/277/277 276/276/276 274/274/274
f 272/272/272 270/270/270 278/278/278
f 278/278/278 270/270/270 275/275/275
f 277/277/277 272/272/272 278/278/278
f 275/275/275 273/273/273 279/279/279
f 276/276/276 279/279/279 273/273/273
f 279/279/279 278/278/278 275/275/275
f 277/277/277 278/278/278 279/279/279
f 276/276/276 277/277/277 279/279/279
f 282/282/282 281/281/281 280/280/280
f 280/280/280 281/281/281 283/283/283
f 284/284/284 281/281/281 282/282/282
f 285/285/285 283/283/283 281/281/281
f 284/284/284 285/285/285 281/281/281
f 286/286/286 284/284/284 282/282/282
f 284/284/284 287/287/287 285/285/285
f 284/284/284 286/286/286 287/287/287
f 285/285/285 288/288/288 283/283/283
f 285/285/285 287/287/287 288/288/288
f 286/286/286 282/282/282 289/289/289
f 289/289/289 282/282/282 280/280/280
f 280/280/280 283/283/283 290/290/290
f 288/288/288 290/290/290 283/283/283
f 286/286/286 291/291/291 287/287/287
f 291/291/291 286/286/286 289/289/289
f 289/289/289 280/280/280 292/292/292
f 292/292/292 280/280/280 290/290/290
f 287/287/287 293/293/293 288/288/288
f 287/287/287 291/291/291 293/293/293
f 291/291/291 289/289/289 294/294/294
f 294/294/294 289/289/289 292/292/292
f 288/288/288 295/295/295 290/290/290
f 288/288/288 293/293/293 295/295/295
f 291/291/291 296/296/296 293/293/293
f 296/296/296 291/291/291 294/294/294
f 292/292/292 290/290/290 297/297/297
f 295/295/295 297/297/297 290/290/290
f 293/293/293 298/298/298 295/295/295
f 293/293/293 296/296/296 298/298/298
f 294/294/294 292/292/292 299/299/299
f 299/299/299 292/292/292 297/297/297
f 295/295/295 298/298/298 300/300/300
f 295/295/295 300/300/300 297/297/297
f 296/296/296 301/301/301 298/298/298
f 301/301/301 300/300/300 298/298/298
f 296/296/296 294/294/294 302/302/302
f 302/302/302 294/294/294 299/299/299
f 301/301/301 296/296/296 302/302/302
f 299/299/299 297/297/297 303/303/303
f 300/300/300 303/303/303 297/297/297
f 303/303/303 302/302/302 299/299/299
f 301/301/301 302/302/302 303/303/303
f 300/300/300 301/301/301 303/303/303
f 306/306/306 305/305/305 304/304/304
f 304/304/304 305/305/305 307/307/307
f 308/308/308 305/305/305 306/306/306
f 309/309/309 307/307/307 305/305/305
f 308/308/308 309/309/309 305/305/305
f 310/310/310 308/308/308 306/306/306
f 308/308/308 311/311/311 309/309/309
f 308/308/308 310/310/310 311/311/311
f 309/309/309 312/312/312 307/307/307
f 309/309/309 311/311/311 312/312/312
f 310/310/310 306/306/306 313/313/313
f 313/313/313 306/306/306 304/304/304
f 304/304/304 307/307/307 314/314/314
f 312/312/312 314/314/314 307/307/307
f 310/310/310 315/315/315 311/311/311
f 315/315/315 310/310/310 313/313/313
f 313/313/313 304/304/304 316/316/316
f 316/316/316 304/304/304 314/314/314
f 311/311/311 317/317/317 312/312/312
f 311/311/311 315/315/315 317/317/317
f 315/315/315 313/313/313 318/318/318
f 318/318/318 313/313/313 316/316/316
f 312/312/312 319/319/319 314/314/314
f 312/312/312 317/317/317 319/319/319
f 315/315/315 320/320/320 317/317/317
f 320/320/320 315/315/315 318/318/318
f 316/316/316 314/314/314 321/321/321
f 319/319/319 321/321/321 314/314/314
f 317/317/317 322/322/322 319/319/319
f 317/317/317 320/320/320 322/322/322
f 318/318/318 316/316/316 323/323/323
f 323/323/323 316/316/316 321/321/321
f 319/319/319 322/322/322 324/324/324
f 319/319/319 324/324/324 321/321/321
f 320/320/320 325/325/325 322/322/322
f 325/325/325 324/324/324 322/322/322
f 320/320/320 318/318/318 326/326/326
f 326/326/326 318/318/318 323/323/323
f 325/325/325 320/320/320 326/326/326
f 323/323/323 321/321/321 327/327/327
f 324/324/324 327/327/327 321/321/321
f 327/327/327 326/326/326 323/323/323
f 325/325/325 326/326/326 327/327/327
f 324/324/324 325/325/325 327/327/327
f 330/330/330 329/329/329 328/328/328
f 328/328/328 329/329/329 331/331/331
f 332/332/332 329/329/329 330/330/330
f 333/333/333 331/331/331 329/329/329
f 332/332/332 333/333/333 329/329/329
f 334/334/334 332/332/332 330/330/330
f 332/332/332 335/335/335 333/333/333
f 332/332/332 334/334/334 335/335/335
f 333/333/333 336/336/336 331/331/331
f 333/333/333 335/335/335 336/336/336
f 334/334/334 330/330/330 337/337/337
f 337/337/337 330/330/330 328/328/328
f 328/328/328 331/331/331 338/338/338
f 336/336/336 338/338/338 331/331/331
f 334/334/334 339/339/339 335/335/335
f 339/339/339 334/334/334 337/337/337
f 337/337/337 328/328/328 340/340/340
f 340/340/340 328/328/328 338/338/338
f 335/335/335 341/341/341 336/336/336
f 335/335/335 339/339/339 341/341/341
f 339/339/339 337/337/337 342/342/342
f 342/342/342 337/337/337 340/340/340
f 336/336/336 343/343/343 338/338/338
f 336/336/336 341/341/341 343/343/343
f 339/339/339 344/344/344 341/341/341
f 344/344/344 339/339/339 342/342/342
f 340/340/340 338/338/338 345/345/345
f 343/343/343 345/345/345 338/338/338
f 341/341/341 346/346/346 343/343/343
f 341/341/341 344/344/344 346/346/346
f 342/342/342 340/340/340 347/347/347
f 347/347/347 340/340/340 345/345/345
f 343/343/343 346/346/346 348/348/348
f 343/343/343 348/348/348 345/345/345
f 344/344/344 349/349/349 346/346/346
f 349/349/349 348/348/348 346/346/346
f 344/344/344 342/342/342 350/350/350
f 350/350/350 342/342/342 347/347/347
f 349/349/349 344/344/344 350/350/350
f 347/347/347 345/345/345 351/351/351
f 348/348/348 351/351/351 345/345/345
f 351/351/351 350/350/350 347/347/347
f 349/349/349 350/350/350 351/351/351
f 348/348/348 349/349/349 351/351/351
f 354/354/354 353/353/353 352/352/352
f 352/352/352 353/353/353 355/355/355
f 356/356/356 353/353/353 354/354/354
f 357/357/357 355/355/355 353/353/353
f 356/356/356 357/357/357 353/353/353
f 358/358/358 356/356/356 354/354/354
f 356/356/356 359/359/359 357/357/357
f 356/356/356 358/358/358 359/359/359
f 357/357/357 360/360/360 355/355/355
f 357/357/357 359/359/359 360/360/360
f 358/358/358 354/354/354 361/361/361
f 361/361/361 354/354/354 352/352/352
f 352/352/352 355/355/355 362/362/362
f 360/360/360 362/362/362 355/355/355
f 358/358/358 363/363/363 359/359/359
f 363/363/363 358/358/358 361/361/361
f 361/361/361 352/352/352 364/364/364
f 364/364/364 352/352/352 362/362/362
f 359/359/359 365/365/365 360/360/360
f 359/359/359 363/363/363 365/365/365
f 363/363/363 361/361/361 366/366/366
f 366/366/366 361/361/361 364/364/364
f 360/360/360 367/367/367 362/362/362
f 360/360/360 365/365/365 367/367/367
f 363/363/363 368/368/368 365/365/365
f 368/368/368 363/363/363 366/366/366
f 364/364/364 362/362/362 369/369/369
f 367/367/367 369/369/369 362/362/362
f 365/365/365 370/370/370 367/367/367
f 365/365/365 368/368/368 370/370/370
f 366/366/366 364/364/364 371/371/371
f 371/371/371 364/364/364 369/369/369
f 367/367/367 370/370/370 372/372/372
f 367/367/367 372/372/372 369/369/369
f 368/368/368 373/373/373 370/370/370
f 373/373/373 372/372/372 370/370/370
f 368/368/368 366/366/366 374/374/374
f 374/374/374 366/366/366 371/371/371
f 373/373/373 368/368/368 374/374/374
f 371/371/371 369/369/369 375/375/375
f 372/372/372 375/375/375 369/369/369
f 375/375/375 374/374/374 371/371/371
f 373/373/373 374/374/374 375/375/375
f 372/372/372 373/373/373 375/375/375
f 378/378/378 377/377/377 376/376/376
f 376/376/376 377/377/377 379/379/379
f 380/380/380 377/377/377 378/378/378
f 381/381/381 379/379/379 377/377/377
f 380/380/380 381/381/381 377/377/377
f 382/382/382 380/380/380 378/378/378
f 380/380/380 383/383/383 381/381/381
f 380/380/380 382/382/382 383/383/383
f 381/381/381 384/384/384 379/379/379
f 381/381/381 383/383/383 384/384/384
f 382/382/382 378/378/378 385/385/385
f 385/385/385 378/378/378 376/376/376
f 376/376/376 379/379/379 386/386/386
f 384/384/384 386/386/386 379/379/379
f 382/382/382 387/387/387 383/383/383
f 387/387/387 382/382/382 385/385/385
f 385/385/385 376/376/376 388/388/388
f 388/388/388 376/376/376 386/386/386
f 383/383/383 389/389/389 384/384/384
f 383/383/383 387/387/387 389/389/389
f 387/387/387 385/385/385 390/390/390
f 390/390/390 385/385/385 388/388/388
f 384/384/384 391/391/391 386/386/386
f 384/384/384 389/389/389 391/391/391
f 387/387/387 392/392/392 389/389/389
f 392/392/392 387/387/387 390/390/390
f 388/388/388 386/386/386 393/393/393
f 391/391/391 393/393/393 386/386/386
f 389/389/389 394/394/394 391/391/391
f 389/389/389 392/392/392 394/394/394
f 390/390/390 388/388/388 395/395/395
f 395/395/395 388/388/388 393/393/393
f 391/391/391 394/394/394 396/396/396
f 391/391/391 396/396/396 393/393/393
f 392/392/392 397/397/397 394/394/394
f 397/397/397 396/396/396 394/394/394
f 392/392/392 390/390/390 398/398/398
f 398/398/398 390/390/390 395/395/395
f 397/397/397 392/392/392 398/398/398
f 395/395/395 393/393/393 399/399/399
f 396/396/396 399/399/399 393/393/393
f 399/399/399 398/398/398 395/395/395
f 397/397/397 398/398/398 399/399/399
f 396/396/396 397/397/397 399/399/399
f 402/402/402 401/401/401 400/400/400
f 400/400/400 401/401/401 403/403/403
f 404/404/404 401/401/401 402/402/402
f 405/405/405 403/403/403 401/401/401
f 404/404/404 405/405/405 401/401/401
f 406/406/406 404/404/404 402/402/402
f 404/404/404 407/407/407 405/405/405
f 404/404/404 406/406/406 407/407/407
f 405/405/405 408/408/408 403/403/403
f 405/405/405 407/407/407 408/408/408
f 406/406/406 402/402/402 409/409/409
f 409/409/409 402/402/402 400/400/400
f 400/400/400 403/403/403 410/410/410
f 408/408/408 410/410/410 403/403/403
f 406/406/406 411/411/411 407/407/407
f 411/411/411 406/406/406 409/409/409
f 409/409/409 400/400/400 412/412/412
f 412/412/412 400/400/400 410/410/410
f 407/407/407 413/413/413 408/408/408
f 407/407/407 411/411/411 413/413/413
f 411/411/411 409/409/409 414/414/414
f 414/414/414 409/409/409 412/412/412
f 408/408/408 415/415/415 410/410/410
f 408/408/408 413/413/413 415/415/415
f 411/411/411 416/416/416 413/413/413
f 416/416/416 411/411/411 414/414/414
f 412/412/412 410/410/410 417/417/417
f 415/415/415 417/417/417 410/410/410
f 413/413/413 418/418/418 415/415/415
f 413/413/413 416/416/416 418/418/418
f 414/414/414 412/412/412 419/419/419
f 419/419/419 412/412/412 417/417/417
f 415/415/415 418/418/418 420/420/420
f 415/415/415 420/420/420 417/417/417
f 416/416/416 421/421/421 418/418/418
f 421/421/421 420/420/420 418/418/418
f 416/416/416 414/414/414 422/422/422
f 422/422/422 414/414/414 419/419/419
f 421/421/421 416/416/416 422/422/422
f 419/419/419 417/417/417 423/423/423
f 420/420/420 423/423/423 417/417/417
f 423/423/423 422/422/422 419/419/419
f 421/421/421 422/422/422 423/423/423
f 420/420/420 421/421/421 423/423/423
