g Sword06
v -0.26458514 -0.03175245 0.10315012
v -0.2477465 -0.02536809 0.1358891
v -0.25524333 -0.031752445 0.13676995
v -0.027060717 -0.018922726 1.2051568
v -0.01530686 -0.031752307 0.9744805
v -0.024252094 -0.031752266 1.2380984
v -0.053940427 0.0026119468 0.09498633
v 0.021614775 -0.008758003 0.1019073
v -0.007117167 0.0026119517 0.124513045
v -0.26458514 -0.03175245 0.10315012
v -0.25524333 -0.031752445 0.13676995
v -0.2477465 -0.0381368 0.1358891
v -0.027060717 -0.044581816 1.2051568
v -0.024252094 -0.031752266 1.2380984
v -0.01530686 -0.031752307 0.9744805
v -0.053940427 -0.066116855 0.094986334
v -0.007117167 -0.06611685 0.12451305
v 0.021614775 -0.0547469 0.101907305
v -0.20559303 -0.025368102 0.065520875
v -0.17335804 -0.025368104 0.0613
v -0.14112303 -0.018922906 0.08662523
v -0.26458514 -0.03175245 0.10315012
v -0.17583764 -0.018922906 0.09717743
v -0.17831726 -0.018922903 0.11828181
v -0.2477465 -0.02536809 0.1358891
v -0.12872496 -0.018922897 0.14782791
v -0.20687422 -0.020749027 0.21884365
v -0.05929573 -0.018922893 0.1752636
v -0.042588543 -0.018922882 0.24193217
v -0.0055942535 -0.018922893 0.17368753
v -0.054986823 -0.018922873 0.29891405
v -0.15104151 -0.0189228 0.7429712
v -0.01530686 -0.031752307 0.9744805
v -0.134924 -0.01892277 0.92446876
v -0.098969564 -0.018922746 1.0743096
v -0.027060717 -0.018922726 1.2051568
v 0.012613118 -0.018922893 0.17315316
v 0.037409276 -0.018922895 0.16260098
v 0.06716466 -0.018922893 0.17104273
v 0.10187927 -0.018922888 0.20903058
v -0.0055942535 -0.018922893 0.17368753
v -0.042588543 -0.018922882 0.24193217
v 0.10187927 -0.018922886 0.21958278
v 0.06716466 -0.018922878 0.25968108
v 0.03988889 -0.018922875 0.28922722
v -0.054986823 -0.018922873 0.29891405
v 0.020051971 -0.018922862 0.36520293
v -0.20559303 -0.025368102 0.065520875
v -0.26458514 -0.03175245 0.10315012
v -0.20559303 -0.031752456 0.058192957
v -0.17335804 -0.025368104 0.0613
v -0.17335804 -0.03175246 0.053972084
v -0.14112303 -0.018922906 0.08662523
v -0.13356593 -0.031752452 0.08783915
v -0.17583764 -0.018922906 0.09717743
v -0.16973138 -0.031752452 0.09816285
v -0.17831726 -0.018922903 0.11828181
v -0.17195708 -0.03175245 0.11710597
v -0.12872496 -0.018922897 0.14782791
v -0.12805751 -0.031752445 0.14646484
v -0.05929573 -0.018922893 0.1752636
v -0.05829455 -0.031752437 0.17361648
v -0.0055942535 -0.018922893 0.17368753
v -0.006758377 -0.031752437 0.17339125
v -0.2477465 -0.02536809 0.1358891
v -0.20687422 -0.020749027 0.21884365
v -0.2296043 -0.03175243 0.21740289
v -0.25524333 -0.031752445 0.13676995
v -0.15104151 -0.0189228 0.7429712
v -0.134924 -0.01892277 0.92446876
v -0.1663741 -0.03175232 0.9243994
v -0.18249163 -0.031752348 0.7429018
v -0.20687422 -0.020749027 0.21884365
v -0.2296043 -0.03175243 0.21740289
v -0.134924 -0.01892277 0.92446876
v -0.098969564 -0.018922746 1.0743096
v -0.13041967 -0.031752292 1.0742402
v -0.1663741 -0.03175232 0.9243994
v -0.098969564 -0.018922746 1.0743096
v -0.027060717 -0.018922726 1.2051568
v -0.024252094 -0.031752266 1.2380984
v -0.13041967 -0.031752292 1.0742402
v 0.012613118 -0.018922893 0.17315316
v -0.0055942535 -0.018922893 0.17368753
v -0.006758377 -0.031752437 0.17339125
v 0.012613118 -0.031752437 0.17315316
v 0.037409276 -0.018922895 0.16260098
v 0.012613118 -0.044581983 0.17315316
v -0.0055942535 -0.044581983 0.17368753
v 0.037409276 -0.044581987 0.16260098
v 0.037409276 -0.03175244 0.16260098
v 0.06716466 -0.018922893 0.17104273
v 0.06716466 -0.044581987 0.17104273
v 0.06716466 -0.03175244 0.17104273
v 0.10187927 -0.018922888 0.20903058
v 0.10187927 -0.04458198 0.20903058
v 0.10187927 -0.031752434 0.20903058
v 0.10187927 -0.018922886 0.21958278
v 0.10187927 -0.044581976 0.21958278
v 0.101726845 -0.03175243 0.21990953
v 0.06716466 -0.018922878 0.25968108
v 0.06716466 -0.044581972 0.25968108
v 0.06716466 -0.031752426 0.25968108
v 0.03988889 -0.018922875 0.28922722
v 0.03988889 -0.044581965 0.28922722
v 0.03988889 -0.03175242 0.28922722
v 0.020051971 -0.018922862 0.36520293
v 0.020051971 -0.044581953 0.36520293
v 0.020051971 -0.031752408 0.36520293
v -0.0072238 -0.0189228 0.7429712
v -0.0072238 -0.044581894 0.7429712
v -0.0072238 -0.031752348 0.7429712
v -0.01530686 -0.031752307 0.9744805
v -0.09596118 -0.031752445 0.12861001
v -0.053940427 0.0026119468 0.09498633
v -0.09596118 0.001154887 0.12861001
v -0.053940427 -0.031752452 0.094986334
v -0.053940427 -0.066116855 0.094986334
v -0.09596118 -0.06465978 0.12861003
v -0.053940427 -0.031752452 0.094986334
v 0.021614775 -0.008758003 0.1019073
v -0.053940427 0.0026119468 0.09498633
v 0.021614775 -0.031752452 0.101907305
v 0.021614775 -0.0547469 0.101907305
v -0.053940427 -0.066116855 0.094986334
v -0.02777459 -0.03175244 0.14946018
v -0.06924088 0.001964576 0.22604941
v -0.02777459 0.0011548904 0.14946018
v -0.06924088 -0.03175243 0.22604941
v -0.06924088 -0.06546944 0.22604942
v -0.02777459 -0.06465978 0.1494602
v -0.12591381 0.001964574 0.21261723
v -0.12396835 -0.0024814548 0.2872539
v -0.12396835 -0.03175242 0.2872539
v -0.12591381 -0.031752434 0.21261723
v -0.12591381 -0.06546944 0.21261725
v -0.12396835 -0.061023384 0.2872539
v -0.06924088 -0.03175243 0.22604941
v -0.08076712 -0.0024814543 0.2907928
v -0.06924088 0.001964576 0.22604941
v -0.08076712 -0.03175242 0.2907928
v -0.08076712 -0.061023384 0.2907928
v -0.06924088 -0.06546944 0.22604942
v -0.02777459 0.0011548904 0.14946018
v -0.06924088 0.001964576 0.22604941
v -0.12591381 0.001964574 0.21261723
v -0.09596118 0.001154887 0.12861001
v -0.007117167 0.0026119517 0.124513045
v -0.053940427 0.0026119468 0.09498633
v -0.08076712 -0.03175242 0.2907928
v -0.0818878 -0.005412575 0.3190271
v -0.08076712 -0.0024814543 0.2907928
v -0.0818878 -0.031752415 0.3190271
v -0.0818878 -0.058092255 0.3190271
v -0.08076712 -0.061023384 0.2907928
v -0.12591381 -0.031752434 0.21261723
v -0.09596118 0.001154887 0.12861001
v -0.12591381 0.001964574 0.21261723
v -0.09596118 -0.031752445 0.12861001
v -0.09596118 -0.06465978 0.12861003
v -0.12591381 -0.06546944 0.21261725
v -0.007117167 -0.03175245 0.12451305
v -0.02777459 0.0011548904 0.14946018
v -0.007117167 0.0026119517 0.124513045
v -0.02777459 -0.03175244 0.14946018
v -0.02777459 -0.06465978 0.1494602
v -0.007117167 -0.06611685 0.12451305
v -0.06924088 0.001964576 0.22604941
v -0.12396835 -0.0024814548 0.2872539
v -0.12591381 0.001964574 0.21261723
v -0.08076712 -0.0024814543 0.2907928
v -0.11597655 -0.0054125753 0.3186169
v -0.0818878 -0.005412575 0.3190271
v -0.0786148 -0.0077020256 0.34736404
v -0.0818878 -0.031752415 0.3190271
v -0.0786148 -0.0077020256 0.34736404
v -0.0818878 -0.005412575 0.3190271
v -0.0786148 -0.03175241 0.34736404
v -0.0786148 -0.055802796 0.34736404
v -0.0818878 -0.058092255 0.3190271
v -0.12396835 -0.0024814548 0.2872539
v -0.11597655 -0.0054125753 0.3186169
v -0.11597655 -0.031752415 0.3186169
v -0.12396835 -0.03175242 0.2872539
v -0.12396835 -0.061023384 0.2872539
v -0.11597655 -0.058092255 0.3186169
v -0.11597655 -0.0054125753 0.3186169
v -0.0786148 -0.0077020256 0.34736404
v -0.0786148 -0.03175241 0.34736404
v -0.11597655 -0.031752415 0.3186169
v -0.11597655 -0.058092255 0.3186169
v -0.0786148 -0.055802796 0.34736404
v -0.007117167 0.0026119517 0.124513045
v 0.021614775 -0.008758003 0.1019073
v 0.021614775 -0.031752452 0.101907305
v -0.007117167 -0.03175245 0.12451305
v -0.007117167 -0.06611685 0.12451305
v 0.021614775 -0.0547469 0.101907305
v -0.08796146 -0.05151063 0.19747658
v -0.10062688 -0.040768176 0.19747657
v -0.10062688 -0.031752434 0.19747657
v -0.067062 -0.05151063 0.19747658
v -0.05439658 -0.040768176 0.19747657
v -0.05439658 -0.031752434 0.19747657
v -0.067062 -0.011994242 0.19747657
v -0.05439658 -0.022736693 0.19747657
v -0.08796146 -0.011994242 0.19747657
v -0.10062688 -0.022736693 0.19747657
v -0.06036146 -0.064605966 -0.19621623
v -0.039574787 -0.053225968 -0.19621623
v -0.039574787 -0.0317525 -0.19621624
v -0.11544855 -0.0317525 -0.19621624
v -0.039574787 -0.0102790315 -0.19621624
v -0.09466191 -0.064605966 -0.19621623
v -0.11544855 -0.053225968 -0.19621623
v -0.06036146 0.0011009701 -0.19621624
v -0.09466191 0.0011009701 -0.19621624
v -0.11544855 -0.0102790315 -0.19621624
v -0.01530686 -0.031752307 0.9744805
v -0.054986823 -0.018922873 0.29891405
v 0.020051971 -0.018922862 0.36520293
v -0.0072238 -0.0189228 0.7429712
v -0.042588543 -0.044581972 0.24193217
v -0.0055942535 -0.044581983 0.17368753
v -0.05929573 -0.044581983 0.1752636
v -0.20687422 -0.042755835 0.21884365
v -0.12872496 -0.04458199 0.14782791
v -0.054986823 -0.044581965 0.29891405
v -0.2477465 -0.0381368 0.1358891
v -0.15104151 -0.044581894 0.7429712
v -0.17831726 -0.044581994 0.11828182
v -0.01530686 -0.031752307 0.9744805
v -0.134924 -0.044581864 0.92446876
v -0.098969564 -0.044581838 1.0743096
v -0.027060717 -0.044581816 1.2051568
v -0.26458514 -0.03175245 0.10315012
v -0.17583764 -0.044582 0.09717744
v -0.14112303 -0.044582 0.08662524
v -0.20559303 -0.03813681 0.065520875
v -0.17335804 -0.03813681 0.061300002
v 0.06716466 -0.044581987 0.17104273
v 0.037409276 -0.044581987 0.16260098
v 0.012613118 -0.044581983 0.17315316
v 0.10187927 -0.04458198 0.20903058
v -0.0055942535 -0.044581983 0.17368753
v -0.042588543 -0.044581972 0.24193217
v 0.10187927 -0.044581976 0.21958278
v 0.06716466 -0.044581972 0.25968108
v 0.03988889 -0.044581965 0.28922722
v -0.054986823 -0.044581965 0.29891405
v 0.020051971 -0.044581953 0.36520293
v -0.20559303 -0.03813681 0.065520875
v -0.20559303 -0.031752456 0.058192957
v -0.26458514 -0.03175245 0.10315012
v -0.17335804 -0.03813681 0.061300002
v -0.17335804 -0.03175246 0.053972084
v -0.14112303 -0.044582 0.08662524
v -0.13356593 -0.031752452 0.08783915
v -0.17583764 -0.044582 0.09717744
v -0.16973138 -0.031752452 0.09816285
v -0.17831726 -0.044581994 0.11828182
v -0.17195708 -0.03175245 0.11710597
v -0.12872496 -0.04458199 0.14782791
v -0.12805751 -0.031752445 0.14646484
v -0.05929573 -0.044581983 0.1752636
v -0.05829455 -0.031752437 0.17361648
v -0.0055942535 -0.044581983 0.17368753
v -0.006758377 -0.031752437 0.17339125
v -0.2477465 -0.0381368 0.1358891
v -0.25524333 -0.031752445 0.13676995
v -0.2296043 -0.03175243 0.21740289
v -0.20687422 -0.042755835 0.21884365
v -0.15104151 -0.044581894 0.7429712
v -0.1663741 -0.03175232 0.9243994
v -0.134924 -0.044581864 0.92446876
v -0.18249163 -0.031752348 0.7429018
v -0.20687422 -0.042755835 0.21884365
v -0.2296043 -0.03175243 0.21740289
v -0.134924 -0.044581864 0.92446876
v -0.1663741 -0.03175232 0.9243994
v -0.13041967 -0.031752292 1.0742402
v -0.098969564 -0.044581838 1.0743096
v -0.098969564 -0.044581838 1.0743096
v -0.13041967 -0.031752292 1.0742402
v -0.024252094 -0.031752266 1.2380984
v -0.027060717 -0.044581816 1.2051568
v -0.02777459 -0.06465978 0.1494602
v -0.12591381 -0.06546944 0.21261725
v -0.06924088 -0.06546944 0.22604942
v -0.09596118 -0.06465978 0.12861003
v -0.007117167 -0.06611685 0.12451305
v -0.053940427 -0.066116855 0.094986334
v -0.06924088 -0.06546944 0.22604942
v -0.12591381 -0.06546944 0.21261725
v -0.12396835 -0.061023384 0.2872539
v -0.08076712 -0.061023384 0.2907928
v -0.11597655 -0.058092255 0.3186169
v -0.0818878 -0.058092255 0.3190271
v -0.0786148 -0.055802796 0.34736404
v -0.01530686 -0.031752307 0.9744805
v -0.0072238 -0.044581894 0.7429712
v 0.020051971 -0.044581953 0.36520293
v -0.054986823 -0.044581965 0.29891405
v -0.09649046 -0.03175246 0.053667683
v -0.10366617 -0.04009884 -0.15234669
v -0.10366617 -0.031752493 -0.15234669
v -0.10366617 -0.023406146 -0.15234669
v -0.09649046 -0.03973106 0.053667687
v -0.08933543 -0.052085485 -0.15234667
v -0.09649046 -0.023773858 0.053667683
v -0.08933543 -0.0114195 -0.15234669
v -0.097942665 -0.03175244 0.15414314
v -0.097942665 -0.04193793 0.15414314
v -0.097942665 -0.021566955 0.15414314
v -0.08609147 -0.048551172 0.053667687
v -0.06568797 -0.052085485 -0.15234667
v -0.08674799 -0.051432926 0.15414315
v -0.08609147 -0.014953746 0.053667683
v -0.06568797 -0.0114195 -0.15234669
v -0.08674799 -0.012071957 0.15414314
v -0.06893192 -0.048551172 0.053667687
v -0.051357195 -0.04009884 -0.15234669
v -0.06827541 -0.051432926 0.15414315
v -0.06893192 -0.014953746 0.053667683
v -0.051357195 -0.023406146 -0.15234669
v -0.06827541 -0.012071957 0.15414314
v -0.05853294 -0.03973106 0.053667687
v -0.05708076 -0.04193793 0.15414314
v -0.051357195 -0.031752493 -0.15234669
v -0.05853294 -0.023773858 0.053667683
v -0.05708076 -0.021566955 0.15414314
v -0.05853294 -0.03175246 0.053667683
v -0.05708076 -0.03175244 0.15414314
v -0.05439658 -0.040768176 0.19747657
v -0.05439658 -0.031752434 0.19747657
v -0.05708076 -0.03175244 0.15414314
v -0.05439658 -0.022736693 0.19747657
v -0.05708076 -0.04193793 0.15414314
v -0.05708076 -0.021566955 0.15414314
v -0.067062 -0.05151063 0.19747658
v -0.067062 -0.011994242 0.19747657
v -0.06827541 -0.051432926 0.15414315
v -0.06827541 -0.012071957 0.15414314
v -0.08796146 -0.05151063 0.19747658
v -0.08796146 -0.011994242 0.19747657
v -0.08674799 -0.051432926 0.15414315
v -0.08674799 -0.012071957 0.15414314
v -0.10062688 -0.040768176 0.19747657
v -0.10062688 -0.022736693 0.19747657
v -0.097942665 -0.04193793 0.15414314
v -0.097942665 -0.021566955 0.15414314
v -0.10062688 -0.031752434 0.19747657
v -0.097942665 -0.03175244 0.15414314
v -0.051357195 -0.04009884 -0.15234669
v -0.051357195 -0.031752493 -0.15234669
v -0.03755243 -0.031752497 -0.18923064
v -0.051357195 -0.023406146 -0.15234669
v -0.03755243 -0.053455934 -0.18923062
v -0.06568797 -0.052085485 -0.15234667
v -0.03755243 -0.010049061 -0.18923064
v -0.06568797 -0.0114195 -0.15234669
v -0.059447214 -0.06544258 -0.18923062
v -0.08933543 -0.052085485 -0.15234667
v -0.039574787 -0.0317525 -0.19621624
v -0.039574787 -0.053225968 -0.19621623
v -0.039574787 -0.0102790315 -0.19621624
v -0.06036146 -0.064605966 -0.19621623
v -0.059447214 0.001937582 -0.18923064
v -0.08933543 -0.0114195 -0.15234669
v -0.06036146 0.0011009701 -0.19621624
v -0.09557615 -0.06544258 -0.18923062
v -0.10366617 -0.04009884 -0.15234669
v -0.09466191 -0.064605966 -0.19621623
v -0.09557615 0.001937582 -0.18923064
v -0.10366617 -0.023406146 -0.15234669
v -0.09466191 0.0011009701 -0.19621624
v -0.117470905 -0.053455934 -0.18923062
v -0.11544855 -0.053225968 -0.19621623
v -0.10366617 -0.031752493 -0.15234669
v -0.117470905 -0.010049061 -0.18923064
v -0.11544855 -0.0102790315 -0.19621624
v -0.117470905 -0.031752497 -0.18923064
v -0.11544855 -0.0317525 -0.19621624
v -0.09142694 -0.0408306 -0.29969913
v -0.097693205 -0.044519074 -0.3341754
v -0.08636755 -0.0068833963 -0.3341754
v -0.08317754 -0.013417549 -0.29969913
v -0.06606862 -0.04846165 -0.29969913
v -0.05155293 -0.01736012 -0.3341754
v -0.057819255 -0.021048594 -0.29969913
v -0.06287859 -0.054995798 -0.3341754
v -0.08955759 -0.00034923526 -0.3686517
v -0.045286603 -0.013671653 -0.3686517
v -0.1039595 -0.04820753 -0.3686517
v -0.059688546 -0.06152995 -0.3686517
v -0.039020248 -0.0099831885 -0.40312797
v -0.056498475 -0.068064086 -0.40312797
v -0.11022583 -0.05189597 -0.40312797
v -0.0927476 0.006184926 -0.40312797
v -0.11325002 -0.053676095 -0.44137034
v -0.054958887 -0.07121759 -0.44137034
v -0.035995997 -0.008203079 -0.44137034
v -0.09428716 0.009338408 -0.44137034
v -0.05341936 -0.074371085 -0.47961274
v -0.1162743 -0.055456217 -0.47961274
v -0.095826745 0.0124919005 -0.47961274
v -0.032971807 -0.006422963 -0.47961274
v -0.075274825 -0.032957304 -0.51402956
v -0.065104336 -0.02572668 -0.29222
v -0.069601506 -0.040670983 -0.29222
v -0.07456672 -0.031027962 -0.271503
v -0.079532 -0.02138498 -0.29222
v -0.08402917 -0.036329288 -0.29222
v -0.08398983 -0.0010412204 -0.3307334
v -0.064460285 -0.05937819 -0.3308774
v -0.05015386 -0.011223437 -0.33073336
v -0.07103059 -0.02917953 -0.2979828
v -0.046453394 -0.019777747 -0.32992938
v -0.05368922 -0.017600281 -0.33341703
v -0.072621614 -0.03442564 -0.29785556
v -0.045658804 -0.017396547 -0.37014738
v -0.06456697 -0.05374754 -0.33341703
v -0.057331152 -0.055925004 -0.32992938
v -0.038185038 -0.01964562 -0.36763877
v -0.050508894 -0.060598336 -0.36763877
v -0.05798266 -0.058349267 -0.37014738
v -0.037252136 -0.01730606 -0.40846717
v -0.029916652 -0.019513512 -0.40534818
v -0.043686606 -0.06527167 -0.40534818
v -0.05102206 -0.06306422 -0.40846717
v -0.02468831 -0.018466562 -0.44737926
v -0.017726071 -0.020561704 -0.44305754
v -0.032942124 -0.07112533 -0.44305754
v -0.039904363 -0.06903019 -0.44737926
v -0.007346578 -0.021064892 -0.4856713
v -0.000618279 -0.023089621 -0.48076698
v -0.024008699 -0.07643397 -0.4856713
v -0.017280437 -0.0784587 -0.48076698
v -0.062082537 -0.05147686 -0.33409864
v -0.078113675 -0.03278486 -0.2979303
v -0.07456672 -0.031027963 -0.281503
v -0.0765385 -0.027509546 -0.29805636
v -0.09626293 -0.041190986 -0.33409864
v -0.062321343 -0.059377193 -0.37180933
v -0.08632639 -0.008805776 -0.3344008
v -0.05249045 -0.018987993 -0.33440077
v -0.06476712 -0.06750472 -0.3695348
v -0.09864068 -0.04909232 -0.3308774
v -0.10286966 -0.056038573 -0.3695348
v -0.10042384 -0.047911044 -0.37180933
v -0.0961293 -0.044198956 -0.3329147
v -0.06267784 -0.06766882 -0.41118938
v -0.06507397 -0.07563128 -0.40819216
v -0.10709861 -0.06298486 -0.40819216
v -0.10470247 -0.05502239 -0.41118938
v -0.06468642 -0.08145021 -0.4514262
v -0.066919506 -0.08887089 -0.44684964
v -0.11286628 -0.07504418 -0.44684958
v -0.110633194 -0.067623496 -0.45142615
v -0.06906435 -0.103105105 -0.4909014
v -0.07117915 -0.110132754 -0.48550695
v -0.11893323 -0.088098116 -0.49090144
v -0.12104806 -0.095125765 -0.48550695
v -0.10329488 -0.04204262 -0.32919207
v -0.10475594 -0.04417271 -0.36891684
v -0.085279435 -0.008144431 -0.3329147
v -0.092445046 -0.0059881 -0.32919207
v -0.11217809 -0.041939165 -0.36616406
v -0.09991005 -0.001171913 -0.36616406
v -0.085413754 0.0006995117 -0.37200528
v -0.0924879 -0.0034054597 -0.36891684
v -0.11378947 -0.044024028 -0.40649593
v -0.121061325 -0.041835714 -0.40313613
v -0.107375085 0.003644274 -0.40313613
v -0.10010323 0.0014559597 -0.40649593
v -0.1269907 -0.04262114 -0.4446558
v -0.13386673 -0.04055195 -0.44010824
v -0.118762285 0.009640756 -0.44010824
v -0.11188626 0.0075715687 -0.4446558
v -0.14495741 -0.039784204 -0.48220012
v -0.15158929 -0.037788477 -0.47708032
v -0.12843478 0.015121248 -0.48220012
v -0.13506669 0.017116975 -0.47708032
v -0.08299962 0.008721839 -0.36924672
v -0.045585968 -0.002537005 -0.36924672
v -0.048000105 -0.010559334 -0.37200528
v -0.08436701 0.01065056 -0.41120812
v -0.082009405 0.018484905 -0.40776014
v -0.041018046 0.0061494154 -0.40776014
v -0.04337562 -0.0016849301 -0.41120842
v -0.081664115 0.026104907 -0.45121446
v -0.07948053 0.03336104 -0.4462735
v -0.03491146 0.019948924 -0.4462735
v -0.037095048 0.012692784 -0.45121446
v -0.07659933 0.049408045 -0.4904972
v -0.074537545 0.056259435 -0.4847869
v -0.028452523 0.03491928 -0.4904972
v -0.026390739 0.04177067 -0.4847869
v -0.053395934 -0.037510693 -0.27885652
v -0.08316937 -0.052867755 -0.27885652
v -0.07615933 -0.030150212 -0.26219958
v -0.069149256 -0.007432689 -0.27885652
v -0.0989227 -0.022789737 -0.27885652
v -0.061315157 -0.0011368825 -0.30982214
v -0.089307606 -0.05850987 -0.30993792
v -0.043699153 -0.03477129 -0.3098221
v -0.059222765 -0.035585 -0.28534293
v -0.0471851 -0.043833785 -0.3091757
v -0.05029262 -0.036459874 -0.31232795
v -0.08110553 -0.04629143 -0.284977
v -0.044081874 -0.042782925 -0.34264714
v -0.084631145 -0.054171532 -0.31232795
v -0.08152357 -0.06154545 -0.3091757
v -0.040974326 -0.05015683 -0.33949488
v -0.079877734 -0.07022314 -0.33949488
v -0.08298525 -0.06284923 -0.34264714
v -0.037779696 -0.049323224 -0.37370765
v -0.034763522 -0.05647991 -0.3698141
v -0.07823184 -0.078900844 -0.3698141
v -0.08125177 -0.07173525 -0.37368017
v -0.029297717 -0.060088582 -0.40538275
v -0.026510663 -0.06670187 -0.40013325
v -0.07454407 -0.09147737 -0.40013322
v -0.07733846 -0.0848466 -0.40534613
v -0.01835356 -0.07551009 -0.4363023
v -0.015697785 -0.081811644 -0.43045253
v -0.07095197 -0.1026402 -0.43630227
v -0.068296224 -0.108941734 -0.4304525
v -0.08249721 -0.054238338 -0.31288967
v -0.09300798 -0.024648825 -0.28524894
v -0.07615933 -0.030150214 -0.27219957
v -0.07112396 -0.013841102 -0.28524435
v -0.10029256 -0.020261545 -0.31288967
v -0.088635504 -0.05988047 -0.34397107
v -0.06797922 -0.0053166198 -0.31337082
v -0.05036319 -0.038951032 -0.3133708
v -0.0954459 -0.06415201 -0.34101933
v -0.10710293 -0.024533084 -0.30993792
v -0.11528322 -0.026276447 -0.34101933
v -0.108472824 -0.022004906 -0.34397107
v -0.102342814 -0.023112997 -0.31202844
v -0.094995886 -0.06566186 -0.37591767
v -0.101584196 -0.06979411 -0.3721007
v -0.12346339 -0.028019866 -0.3721007
v -0.11688489 -0.02389383 -0.37595063
v -0.10666615 -0.07423268 -0.40876523
v -0.11257976 -0.077941574 -0.40318218
v -0.13650092 -0.032268517 -0.40318215
v -0.13061386 -0.028576085 -0.40882015
v -0.12575817 -0.08660914 -0.44072834
v -0.13119608 -0.09001978 -0.4342636
v -0.15172131 -0.03703739 -0.44072834
v -0.1571592 -0.04044804 -0.4342636
v -0.105416834 -0.015818894 -0.3085829
v -0.10883695 -0.016142191 -0.3417547
v -0.068092436 -0.005446768 -0.31202844
v -0.071166456 0.0018473286 -0.3085829
v -0.111911 -0.008848087 -0.33830917
v -0.073183745 0.011127331 -0.33830917
v -0.060145117 0.0009791811 -0.3443364
v -0.070109725 0.003833227 -0.3417547
v -0.11542928 -0.008938189 -0.37220895
v -0.11840513 -0.0018772449 -0.36803555
v -0.075200945 0.020407345 -0.36803555
v -0.07222095 0.013336259 -0.37217996
v -0.124204725 0.002499049 -0.40325344
v -0.12694126 0.008992413 -0.39776194
v -0.0792602 0.03358617 -0.39776194
v -0.076515496 0.02707369 -0.4032162
v -0.13543537 0.018575683 -0.43355876
v -0.13803744 0.024749963 -0.42748833
v -0.083277404 0.045478653 -0.43355876
v -0.085879505 0.051652927 -0.42748833
v -0.05348108 0.0051589278 -0.3407877
v -0.03400246 -0.032031815 -0.3407877
v -0.040666528 -0.03621155 -0.3443364
v -0.052066244 0.0074285623 -0.37610042
v -0.045647033 0.01145476 -0.37175336
v -0.024305709 -0.029292407 -0.37175336
v -0.03071282 -0.033310853 -0.37613553
v -0.038676478 0.016667943 -0.4086844
v -0.032955773 0.020255977 -0.40271896
v -0.009751745 -0.02404765 -0.40271896
v -0.015443929 -0.027617607 -0.40873814
v -0.01788897 0.029697927 -0.44045544
v -0.012643583 0.03298789 -0.4336846
v 0.007177651 -0.01816204 -0.44045544
v 0.012423009 -0.014872072 -0.4336846
v -0.07746744 -0.07822577 -0.22197048
v -0.09074312 -0.051673703 -0.18111145
v -0.042710558 -0.051673707 -0.19671842
v -0.06419176 -0.031752497 -0.18111147
v -0.1122243 -0.0317525 -0.19671844
v -0.03450528 -0.031752504 -0.2219705
v -0.042710558 -0.051673714 -0.24722253
v -0.06419176 -0.031752508 -0.26282948
v -0.12042959 -0.05167371 -0.22197048
v -0.1122243 -0.031752508 -0.24722254
v -0.09074312 -0.051673714 -0.26282948
v -0.07746744 -0.031752504 -0.2219705
v -0.042710558 -0.011831293 -0.19671844
v -0.042710558 -0.011831301 -0.24722254
v -0.09074312 -0.011831304 -0.26282948
v -0.09074312 -0.011831291 -0.18111147
v -0.12042959 -0.011831298 -0.2219705
v -0.07746744 0.014720761 -0.2219705
vt 0.043418594 0.9539916
vt 0.043005653 0.95498496
vt 0.04320938 0.9550415
vt 0.071945034 0.9232692
vt 0.07262674 0.91571844
vt 0.071723394 0.92433083
vt 0.19100398 0.79071814
vt 0.19100398 0.79071814
vt 0.19100398 0.79071814
vt 0.043418594 0.9539916
vt 0.04320938 0.9550415
vt 0.043005653 0.95498496
vt 0.071945034 0.9232692
vt 0.071723394 0.92433083
vt 0.07262674 0.91571844
vt 0.19100398 0.79071814
vt 0.19100398 0.79071814
vt 0.19100398 0.79071814
vt 0.13805252 0.9462104
vt 0.13977982 0.9522148
vt 0.14201994 0.95806485
vt 0.13541058 0.93506587
vt 0.14026406 0.95156723
vt 0.1404919 0.95099694
vt 0.13691936 0.9380199
vt 0.14377476 0.960046
vt 0.14064223 0.94517183
vt 0.14812908 0.97278774
vt 0.1502195 0.9755402
vt 0.15110134 0.98276216
vt 0.15051602 0.97294164
vt 0.15285812 0.9527954
vt 0.1644581 0.97677624
vt 0.15690859 0.9548383
vt 0.16151771 0.9607282
vt 0.1678054 0.9733898
vt 0.19100398 0.79071814
vt 0.19100398 0.79071814
vt 0.19100398 0.79071814
vt 0.19100398 0.79071814
vt 0.19100398 0.79071814
vt 0.19100398 0.79071814
vt 0.19100398 0.79071814
vt 0.19100398 0.79071814
vt 0.19100398 0.79071814
vt 0.19100398 0.79071814
vt 0.19100398 0.79071814
vt 0.08186639 0.8868442
vt 0.08333609 0.888288
vt 0.08189843 0.8866058
vt 0.080991976 0.8865871
vt 0.081023954 0.8863486
vt 0.0799885 0.8872915
vt 0.0797739 0.8873029
vt 0.080903985 0.88776386
vt 0.080730505 0.8877733
vt 0.08088052 0.8884599
vt 0.08070948 0.88839805
vt 0.07937788 0.88923717
vt 0.079365306 0.88919026
vt 0.07733494 0.88987195
vt 0.07731439 0.8898147
vt 0.07585436 0.8896212
vt 0.07588789 0.8896158
vt 0.04524596 0.94163734
vt 0.043515988 0.9441081
vt 0.044387497 0.9442227
vt 0.04544968 0.9416939
vt 0.03991644 0.96103495
vt 0.038677514 0.9668817
vt 0.039549008 0.9669964
vt 0.040787943 0.9611496
vt 0.043515988 0.9441081
vt 0.044387497 0.9442227
vt 0.038677514 0.9668817
vt 0.037027344 0.97162455
vt 0.037898727 0.9717391
vt 0.039549008 0.9669964
vt 0.037027344 0.97162455
vt 0.03446418 0.9756156
vt 0.0342426 0.97667724
vt 0.037898727 0.9717391
vt 0.19100398 0.79071814
vt 0.19100398 0.79071814
vt 0.19100398 0.79071814
vt 0.19100398 0.79071814
vt 0.19100398 0.79071814
vt 0.19100398 0.79071814
vt 0.19100398 0.79071814
vt 0.19100398 0.79071814
vt 0.19100398 0.79071814
vt 0.19100398 0.79071814
vt 0.19100398 0.79071814
vt 0.19100398 0.79071814
vt 0.19100398 0.79071814
vt 0.19100398 0.79071814
vt 0.19100398 0.79071814
vt 0.19100398 0.79071814
vt 0.19100398 0.79071814
vt 0.19100398 0.79071814
vt 0.19100398 0.79071814
vt 0.19100398 0.79071814
vt 0.19100398 0.79071814
vt 0.19100398 0.79071814
vt 0.19100398 0.79071814
vt 0.19100398 0.79071814
vt 0.19100398 0.79071814
vt 0.19100398 0.79071814
vt 0.19100398 0.79071814
vt 0.19100398 0.79071814
vt 0.19100398 0.79071814
vt 0.19100398 0.79071814
vt 0.19100398 0.79071814
vt 0.19100398 0.79071814
vt 0.19100398 0.79071814
vt 0.19100398 0.79071814
vt 0.19100398 0.79071814
vt 0.19100398 0.79071814
vt 0.19100398 0.79071814
vt 0.19100398 0.79071814
vt 0.19100398 0.79071814
vt 0.19100398 0.79071814
vt 0.19100398 0.79071814
vt 0.19100398 0.79071814
vt 0.19100398 0.79071814
vt 0.19100398 0.79071814
vt 0.19100398 0.79071814
vt 0.19100398 0.79071814
vt 0.19100398 0.79071814
vt 0.19100398 0.79071814
vt 0.19100398 0.79071814
vt 0.19100398 0.79071814
vt 0.19100398 0.79071814
vt 0.19100398 0.79071814
vt 0.19100398 0.79071814
vt 0.19100398 0.79071814
vt 0.19100398 0.79071814
vt 0.19100398 0.79071814
vt 0.19100398 0.79071814
vt 0.19100398 0.79071814
vt 0.19100398 0.79071814
vt 0.19100398 0.79071814
vt 0.19100398 0.79071814
vt 0.19100398 0.79071814
vt 0.19100398 0.79071814
vt 0.19100398 0.79071814
vt 0.19100398 0.79071814
vt 0.19100398 0.79071814
vt 0.19100398 0.79071814
vt 0.19100398 0.79071814
vt 0.19100398 0.79071814
vt 0.19100398 0.79071814
vt 0.19100398 0.79071814
vt 0.19100398 0.79071814
vt 0.19100398 0.79071814
vt 0.19100398 0.79071814
vt 0.19100398 0.79071814
vt 0.19100398 0.79071814
vt 0.19100398 0.79071814
vt 0.19100398 0.79071814
vt 0.19100398 0.79071814
vt 0.19100398 0.79071814
vt 0.19100398 0.79071814
vt 0.19100398 0.79071814
vt 0.19100398 0.79071814
vt 0.19100398 0.79071814
vt 0.19100398 0.79071814
vt 0.19100398 0.79071814
vt 0.19100398 0.79071814
vt 0.19100398 0.79071814
vt 0.19100398 0.79071814
vt 0.19100398 0.79071814
vt 0.19100398 0.79071814
vt 0.19100398 0.79071814
vt 0.19100398 0.79071814
vt 0.19100398 0.79071814
vt 0.19100398 0.79071814
vt 0.19100398 0.79071814
vt 0.19100398 0.79071814
vt 0.19100398 0.79071814
vt 0.19100398 0.79071814
vt 0.19100398 0.79071814
vt 0.19100398 0.79071814
vt 0.19100398 0.79071814
vt 0.19100398 0.79071814
vt 0.19100398 0.79071814
vt 0.19100398 0.79071814
vt 0.19100398 0.79071814
vt 0.19100398 0.79071814
vt 0.19100398 0.79071814
vt 0.19100398 0.79071814
vt 0.19100398 0.79071814
vt 0.19100398 0.79071814
vt 0.19100398 0.79071814
vt 0.19100398 0.79071814
vt 0.19100398 0.79071814
vt 0.19100398 0.79071814
vt 0.19100398 0.79071814
vt 0.03103654 0.9539479
vt 0.03103654 0.9539479
vt 0.03103654 0.9539479
vt 0.03103654 0.9539479
vt 0.03103654 0.9539479
vt 0.03103654 0.9539479
vt 0.03103654 0.9539479
vt 0.03103654 0.9539479
vt 0.03103654 0.9539479
vt 0.03103654 0.9539479
vt 0.083743215 0.9616989
vt 0.083743215 0.9616989
vt 0.083743215 0.9616989
vt 0.083743215 0.9616989
vt 0.083743215 0.9616989
vt 0.083743215 0.9616989
vt 0.083743215 0.9616989
vt 0.083743215 0.9616989
vt 0.083743215 0.9616989
vt 0.083743215 0.9616989
vt 0.19100398 0.79071814
vt 0.19100398 0.79071814
vt 0.19100398 0.79071814
vt 0.19100398 0.79071814
vt 0.1502195 0.9755402
vt 0.15110134 0.98276216
vt 0.14812908 0.97278774
vt 0.14064223 0.94517183
vt 0.14377476 0.960046
vt 0.15051602 0.97294164
vt 0.13691936 0.9380199
vt 0.15285812 0.9527954
vt 0.1404919 0.95099694
vt 0.1644581 0.97677624
vt 0.15690859 0.9548383
vt 0.16151771 0.9607282
vt 0.1678054 0.9733898
vt 0.13541058 0.93506587
vt 0.14026406 0.95156723
vt 0.14201994 0.95806485
vt 0.13805252 0.9462104
vt 0.13977982 0.9522148
vt 0.19100398 0.79071814
vt 0.19100398 0.79071814
vt 0.19100398 0.79071814
vt 0.19100398 0.79071814
vt 0.19100398 0.79071814
vt 0.19100398 0.79071814
vt 0.19100398 0.79071814
vt 0.19100398 0.79071814
vt 0.19100398 0.79071814
vt 0.19100398 0.79071814
vt 0.19100398 0.79071814
vt 0.08186639 0.8868442
vt 0.08189843 0.8866058
vt 0.08333609 0.888288
vt 0.080991976 0.8865871
vt 0.081023954 0.8863486
vt 0.0799885 0.8872915
vt 0.0797739 0.8873029
vt 0.080903985 0.88776386
vt 0.080730505 0.8877733
vt 0.08088052 0.8884599
vt 0.08070948 0.88839805
vt 0.07937788 0.88923717
vt 0.079365306 0.88919026
vt 0.07733494 0.88987195
vt 0.07731439 0.8898147
vt 0.07585436 0.8896212
vt 0.07588789 0.8896158
vt 0.04524596 0.94163734
vt 0.04544968 0.9416939
vt 0.044387497 0.9442227
vt 0.043515988 0.9441081
vt 0.03991644 0.96103495
vt 0.039549008 0.9669964
vt 0.038677514 0.9668817
vt 0.040787943 0.9611496
vt 0.043515988 0.9441081
vt 0.044387497 0.9442227
vt 0.038677514 0.9668817
vt 0.039549008 0.9669964
vt 0.037898727 0.9717391
vt 0.037027344 0.97162455
vt 0.037027344 0.97162455
vt 0.037898727 0.9717391
vt 0.0342426 0.97667724
vt 0.03446418 0.9756156
vt 0.19100398 0.79071814
vt 0.19100398 0.79071814
vt 0.19100398 0.79071814
vt 0.19100398 0.79071814
vt 0.19100398 0.79071814
vt 0.19100398 0.79071814
vt 0.19100398 0.79071814
vt 0.19100398 0.79071814
vt 0.19100398 0.79071814
vt 0.19100398 0.79071814
vt 0.19100398 0.79071814
vt 0.19100398 0.79071814
vt 0.19100398 0.79071814
vt 0.19100398 0.79071814
vt 0.19100398 0.79071814
vt 0.19100398 0.79071814
vt 0.19100398 0.79071814
vt 0.03103654 0.9539479
vt 0.03103654 0.9539479
vt 0.03103654 0.9539479
vt 0.03103654 0.9539479
vt 0.03103654 0.9539479
vt 0.03103654 0.9539479
vt 0.03103654 0.9539479
vt 0.03103654 0.9539479
vt 0.03103654 0.9539479
vt 0.03103654 0.9539479
vt 0.03103654 0.9539479
vt 0.03103654 0.9539479
vt 0.03103654 0.9539479
vt 0.03103654 0.9539479
vt 0.03103654 0.9539479
vt 0.03103654 0.9539479
vt 0.03103654 0.9539479
vt 0.03103654 0.9539479
vt 0.03103654 0.9539479
vt 0.03103654 0.9539479
vt 0.03103654 0.9539479
vt 0.03103654 0.9539479
vt 0.03103654 0.9539479
vt 0.03103654 0.9539479
vt 0.03103654 0.9539479
vt 0.03103654 0.9539479
vt 0.03103654 0.9539479
vt 0.03103654 0.9539479
vt 0.03103654 0.9539479
vt 0.03103654 0.9539479
vt 0.10544595 0.94715357
vt 0.10544595 0.94715357
vt 0.10544595 0.94715357
vt 0.10544595 0.94715357
vt 0.10544595 0.94715357
vt 0.10544595 0.94715357
vt 0.10544595 0.94715357
vt 0.10544595 0.94715357
vt 0.10544595 0.94715357
vt 0.10544595 0.94715357
vt 0.10544595 0.94715357
vt 0.10544595 0.94715357
vt 0.10544595 0.94715357
vt 0.10544595 0.94715357
vt 0.10544595 0.94715357
vt 0.10544595 0.94715357
vt 0.10544595 0.94715357
vt 0.10544595 0.94715357
vt 0.10544595 0.94715357
vt 0.10544595 0.94715357
vt 0.10544595 0.9461969
vt 0.10544595 0.9461969
vt 0.10544595 0.9461969
vt 0.10544595 0.9461969
vt 0.10544595 0.9461969
vt 0.10544595 0.9461969
vt 0.10544595 0.9461969
vt 0.10544595 0.9461969
vt 0.10544595 0.9461969
vt 0.10544595 0.9461969
vt 0.10544595 0.9461969
vt 0.10544595 0.9461969
vt 0.10544595 0.9461969
vt 0.10544595 0.9461969
vt 0.10544595 0.9461969
vt 0.10544595 0.9461969
vt 0.10544595 0.9461969
vt 0.10544595 0.9461969
vt 0.10544595 0.9461969
vt 0.10544595 0.9461969
vt 0.10544595 0.9461969
vt 0.10544595 0.9461969
vt 0.10544595 0.9461969
vt 0.10544595 0.9461969
vt 0.10544595 0.9461969
vt 0.10544595 0.9461969
vt 0.10544595 0.9461969
vt 0.10544595 0.9461969
vt 0.10544595 0.9461969
vt 0.10544595 0.9461969
vt 0.09124979 0.95463854
vt 0.09124979 0.95463854
vt 0.09124979 0.95463854
vt 0.09124979 0.95463854
vt 0.09124979 0.95463854
vt 0.09124979 0.95463854
vt 0.09124979 0.95463854
vt 0.09124979 0.95463854
vt 0.09124979 0.95463854
vt 0.09124979 0.95463854
vt 0.09124979 0.95463854
vt 0.09124979 0.95463854
vt 0.09124979 0.95463854
vt 0.09124979 0.95463854
vt 0.09124979 0.95463854
vt 0.09124979 0.95463854
vt 0.09124979 0.95463854
vt 0.09124979 0.95463854
vt 0.09124979 0.95463854
vt 0.09124979 0.95463854
vt 0.09124979 0.95463854
vt 0.09124979 0.95463854
vt 0.09124979 0.95463854
vt 0.09124979 0.95463854
vt 0.09124979 0.95463854
vt 0.09124979 0.95463854
vt 0.09124979 0.95463854
vt 0.09124979 0.95463854
vt 0.09124979 0.95463854
vt 0.09124979 0.95463854
vt 0.09124979 0.95463854
vt 0.09124979 0.95463854
vt 0.09124979 0.95463854
vt 0.09124979 0.95463854
vt 0.09124979 0.95463854
vt 0.09124979 0.95463854
vt 0.09124979 0.95463854
vt 0.09124979 0.95463854
vt 0.09124979 0.95463854
vt 0.09124979 0.95463854
vt 0.09124979 0.95463854
vt 0.09124979 0.95463854
vt 0.09124979 0.95463854
vt 0.09124979 0.95463854
vt 0.09124979 0.95463854
vt 0.09124979 0.95463854
vt 0.09124979 0.95463854
vt 0.09124979 0.95463854
vt 0.09124979 0.95463854
vt 0.09124979 0.95463854
vt 0.09124979 0.95463854
vt 0.09124979 0.95463854
vt 0.09124979 0.95463854
vt 0.09124979 0.95463854
vt 0.09124979 0.95463854
vt 0.09124979 0.95463854
vt 0.09124979 0.95463854
vt 0.09124979 0.95463854
vt 0.09124979 0.95463854
vt 0.09124979 0.95463854
vt 0.09124979 0.95463854
vt 0.09124979 0.95463854
vt 0.09124979 0.95463854
vt 0.09124979 0.95463854
vt 0.09124979 0.95463854
vt 0.09124979 0.95463854
vt 0.09124979 0.95463854
vt 0.09124979 0.95463854
vt 0.09124979 0.95463854
vt 0.09124979 0.95463854
vt 0.09124979 0.95463854
vt 0.09124979 0.95463854
vt 0.09124979 0.95463854
vt 0.09124979 0.95463854
vt 0.09124979 0.95463854
vt 0.09124979 0.95463854
vt 0.09124979 0.95463854
vt 0.09124979 0.95463854
vt 0.09124979 0.95463854
vt 0.09124979 0.95463854
vt 0.09124979 0.95463854
vt 0.09124979 0.95463854
vt 0.09124979 0.95463854
vt 0.09124979 0.95463854
vt 0.09124979 0.95463854
vt 0.09124979 0.95463854
vt 0.09124979 0.95463854
vt 0.09124979 0.95463854
vt 0.09124979 0.95463854
vt 0.09124979 0.95463854
vt 0.09124979 0.95463854
vt 0.09124979 0.95463854
vt 0.09124979 0.95463854
vt 0.09124979 0.95463854
vt 0.09124979 0.95463854
vt 0.09124979 0.95463854
vt 0.09124979 0.95463854
vt 0.09124979 0.95463854
vt 0.09124979 0.95463854
vt 0.09124979 0.95463854
vt 0.09124979 0.95463854
vt 0.09124979 0.95463854
vt 0.09124979 0.95463854
vt 0.09124979 0.95463854
vt 0.09124979 0.95463854
vt 0.09124979 0.95463854
vt 0.09124979 0.95463854
vt 0.09124979 0.95463854
vt 0.09124979 0.95463854
vt 0.09124979 0.95463854
vt 0.09124979 0.95463854
vt 0.09124979 0.95463854
vt 0.09124979 0.95463854
vt 0.09124979 0.95463854
vt 0.09124979 0.95463854
vt 0.09124979 0.95463854
vt 0.09124979 0.95463854
vt 0.09124979 0.95463854
vt 0.09124979 0.95463854
vt 0.09124979 0.95463854
vt 0.09124979 0.95463854
vt 0.09124979 0.95463854
vt 0.09124979 0.95463854
vt 0.09124979 0.95463854
vt 0.09124979 0.95463854
vt 0.09124979 0.95463854
vt 0.09124979 0.95463854
vt 0.09124979 0.95463854
vt 0.09124979 0.95463854
vt 0.09124979 0.95463854
vt 0.09124979 0.95463854
vt 0.09124979 0.95463854
vt 0.09124979 0.95463854
vt 0.09124979 0.95463854
vt 0.09124979 0.95463854
vt 0.09124979 0.95463854
vt 0.09124979 0.95463854
vt 0.09124979 0.95463854
vt 0.09124979 0.95463854
vt 0.09124979 0.95463854
vt 0.09124979 0.95463854
vt 0.09124979 0.95463854
vt 0.09124979 0.95463854
vt 0.09124979 0.95463854
vt 0.09124979 0.95463854
vt 0.09124979 0.95463854
vt 0.09124979 0.95463854
vt 0.09124979 0.95463854
vt 0.09124979 0.95463854
vt 0.09124979 0.95463854
vt 0.09124979 0.95463854
vt 0.09124979 0.95463854
vt 0.09124979 0.95463854
vt 0.09124979 0.95463854
vt 0.09124979 0.95463854
vt 0.09124979 0.95463854
vt 0.09124979 0.95463854
vt 0.09124979 0.95463854
vt 0.09124979 0.95463854
vt 0.09124979 0.95463854
vt 0.09124979 0.95463854
vt 0.09124979 0.95463854
vt 0.09124979 0.95463854
vt 0.09124979 0.95463854
vt 0.09124979 0.95463854
vt 0.09124979 0.95463854
vt 0.09124979 0.95463854
vt 0.09124979 0.95463854
vt 0.09124979 0.95463854
vt 0.09124979 0.95463854
vt 0.09124979 0.95463854
vt 0.09124979 0.95463854
vt 0.09124979 0.95463854
vt 0.09124979 0.95463854
vt 0.09124979 0.95463854
vt 0.09124979 0.95463854
vt 0.09124979 0.95463854
vt 0.09124979 0.95463854
vt 0.09124979 0.95463854
vt 0.09124979 0.95463854
vt 0.09124979 0.95463854
vt 0.09124979 0.95463854
vt 0.09124979 0.95463854
vt 0.09124979 0.95463854
vt 0.09124979 0.95463854
vt 0.09124979 0.95463854
vt 0.09124979 0.95463854
vt 0.09124979 0.95463854
vt 0.09124979 0.95463854
vt 0.09124979 0.95463854
vt 0.09124979 0.95463854
vt 0.09124979 0.95463854
vt 0.09124979 0.95463854
vt 0.09124979 0.95463854
vt 0.09124979 0.95463854
vt 0.09124979 0.95463854
vt 0.09124979 0.95463854
vt 0.09124979 0.95463854
vt 0.09124979 0.95463854
vt 0.09124979 0.95463854
vt 0.09124979 0.95463854
vt 0.09124979 0.95463854
vt 0.09124979 0.95463854
vt 0.09124979 0.95463854
vt 0.09124979 0.95463854
vt 0.19100398 0.79071814
vt 0.19100398 0.79071814
vt 0.19100398 0.79071814
vt 0.19100398 0.79071814
vt 0.19100398 0.79071814
vt 0.19100398 0.79071814
vt 0.19100398 0.79071814
vt 0.19100398 0.79071814
vt 0.19100398 0.79071814
vt 0.19100398 0.79071814
vt 0.19100398 0.79071814
vt 0.19100398 0.79071814
vt 0.19100398 0.79071814
vt 0.19100398 0.79071814
vt 0.19100398 0.79071814
vt 0.19100398 0.79071814
vt 0.19100398 0.79071814
vt 0.19100398 0.79071814
vn -0.6265217 0.75971293 0.17408882
vn -0.6265217 0.75971293 0.17408882
vn -0.6265217 0.75971293 0.17408882
vn 0.36580408 0.9084978 0.20203762
vn 0.9986753 0 -0.05145514
vn 0.486806 0 0.8735102
vn 0.16718808 0.9496085 -0.26512587
vn 0.16718808 0.9496085 -0.26512587
vn 0.16718808 0.9496085 -0.26512587
vn -0.6265214 -0.759713 0.17408916
vn -0.6265214 -0.759713 0.17408916
vn -0.6265214 -0.759713 0.17408916
vn 0.36580408 -0.9084978 0.20203762
vn 0.486806 0 0.8735102
vn 0.9986753 0 -0.05145514
vn 0.1671881 -0.9496086 -0.26512572
vn 0.1671881 -0.9496086 -0.26512572
vn 0.1671881 -0.9496086 -0.26512572
vn 0.032849453 0.9994473 -0.005091708
vn 0.032849453 0.9994473 -0.005091708
vn 0.032849453 0.9994473 -0.005091708
vn 0.032849453 0.9994473 -0.005091708
vn 0.032849453 0.9994473 -0.005091708
vn 0.032849453 0.9994473 -0.005091708
vn 0.032849453 0.9994473 -0.005091708
vn 0.032849453 0.9994473 -0.005091708
vn 0.032849453 0.9994473 -0.005091708
vn 0.032849453 0.9994473 -0.005091708
vn 0.032849453 0.9994473 -0.005091708
vn 0.032849453 0.9994473 -0.005091708
vn 0.032849453 0.9994473 -0.005091708
vn 0.032849453 0.9994473 -0.005091708
vn 0.032849453 0.9994473 -0.005091708
vn 0.032849453 0.9994473 -0.005091708
vn 0.032849453 0.9994473 -0.005091708
vn 0.032849453 0.9994473 -0.005091708
vn -0 1 0
vn -0 1 0
vn -0 1 0
vn -0 1 0
vn -0 1 0
vn -0 1 0
vn -0 1 0
vn -0 1 0
vn -0 1 0
vn -0 1 0
vn -0 1 0
vn -0.16074519 0.91213053 -0.37706605
vn -0.9794413 0 -0.20172957
vn -0.3428823 0 -0.93937844
vn 0.20777577 0.8450809 -0.49261287
vn 0.2545594 0 -0.96705717
vn 0.5711311 0.79629976 0.19928858
vn 0.9717961 0 0.23582277
vn 0.48812264 0.80274415 0.3425465
vn 0.69877225 0 0.71534425
vn 0.55038834 0.7994578 -0.24070714
vn 0.8754054 0 -0.4833896
vn 0.3129161 0.7502601 -0.582403
vn 0.45051876 0 -0.89276695
vn 0.14887428 0.7090603 -0.68925315
vn 0.17044856 0 -0.9853666
vn -0.0055239755 0.7214739 -0.6924196
vn -0.018707998 0 -0.99982506
vn -0.49325487 0.8517916 0.17649592
vn -0.49325487 0.8517916 0.17649592
vn -0.49325487 0.8517916 0.17649592
vn -0.49325487 0.8517916 0.17649592
vn -0.37756532 0.92537576 0.033528775
vn -0.37756532 0.92537576 0.033528775
vn -0.37756532 0.92537576 0.033528775
vn -0.37756532 0.92537576 0.033528775
vn -0.40324494 0.91430444 0.037958648
vn -0.40324494 0.91430444 0.037958648
vn -0.37634215 0.9220694 0.09030342
vn -0.37634215 0.9220694 0.09030342
vn -0.37634215 0.9220694 0.09030342
vn -0.37634215 0.9220694 0.09030342
vn -0.44998804 0.85063374 0.27190635
vn -0.44998804 0.85063374 0.27190635
vn -0.44998804 0.85063374 0.27190635
vn -0.44998804 0.85063374 0.27190635
vn -0.15567642 0.6705897 -0.7253099
vn -0.0055239755 0.7214739 -0.6924196
vn -0.018707998 0 -0.99982506
vn -0.20987713 0 -0.9777278
vn -0.048373323 0.63929087 -0.76744205
vn -0.15567642 -0.6705897 -0.7253099
vn -0.0055239755 -0.7214739 -0.6924196
vn -0.048373323 -0.63929087 -0.76744205
vn -0.06289888 0 -0.99801993
vn 0.399225 0.6504306 -0.64618844
vn 0.399225 -0.6504306 -0.64618844
vn 0.5255916 0 -0.850737
vn 0.7226343 0.63309085 -0.27748084
vn 0.7226343 -0.63309085 -0.27748084
vn 0.93353975 0 -0.3584739
vn 0.7240381 0.6355323 0.26808086
vn 0.7240381 -0.6355323 0.26808086
vn 0.93342197 0 0.3587807
vn 0.52905446 0.70423603 0.47344804
vn 0.52905446 -0.70423603 0.47344804
vn 0.7451927 0 0.6668493
vn 0.56402254 0.7659976 0.30842552
vn 0.56402254 -0.7659976 0.30842552
vn 0.8773854 0 0.4797863
vn 0.64206076 0.7566294 0.12357181
vn 0.64206076 -0.7566294 0.12357181
vn 0.98662555 0 0.16300319
vn 0.66104937 0.7486094 0.05096734
vn 0.66104937 -0.7486094 0.05096734
vn 0.99857116 0 0.053438205
vn 0.9986753 0 -0.05145514
vn -0.62477523 0 -0.78080463
vn -0.62477523 0 -0.78080463
vn -0.62477523 0 -0.78080463
vn -0.62477523 0 -0.78080463
vn -0.62477505 0 -0.7808048
vn -0.62477505 0 -0.7808048
vn 0.09121943 0 -0.99583083
vn 0.09121943 0 -0.99583083
vn 0.09121943 0 -0.99583083
vn 0.09121943 0 -0.99583083
vn 0.09121954 0 -0.99583083
vn 0.09121954 0 -0.99583083
vn 0.8793859 0 0.4761098
vn 0.8793859 0 0.4761098
vn 0.8793859 0 0.4761098
vn 0.8793859 0 0.4761098
vn 0.8793859 0 0.4761098
vn 0.8793859 0 0.4761098
vn -0.9996605 0 0.026056968
vn -0.9996605 0 0.026056968
vn -0.9996605 0 0.026056968
vn -0.9996605 0 0.026056968
vn -0.9996605 0 0.026056977
vn -0.9996605 0 0.026056977
vn 0.9845197 0 0.1752736
vn 0.9845197 0 0.1752736
vn 0.9845197 0 0.1752736
vn 0.9845197 0 0.1752736
vn 0.9845197 0 0.17527364
vn 0.9845197 0 0.17527364
vn 0.0024671846 0.9999566 -0.008985871
vn 0.0024671846 0.9999566 -0.008985871
vn 0.0024671846 0.9999566 -0.008985871
vn 0.0024671846 0.9999566 -0.008985871
vn -0.014827993 0.9993168 0.03385198
vn -0.014827993 0.9993168 0.03385198
vn 0.9992132 0 0.039660897
vn 0.9992132 0 0.039660897
vn 0.9992132 0 0.039660897
vn 0.9992132 0 0.039660897
vn 0.9992132 0 0.03966087
vn 0.9992132 0 0.03966087
vn -0.9419192 0 -0.3358397
vn -0.9419192 0 -0.3358397
vn -0.9419192 0 -0.3358397
vn -0.9419192 0 -0.3358397
vn -0.9419192 0 -0.33583963
vn -0.9419192 0 -0.33583963
vn 0.77021974 0 0.6377786
vn 0.77021974 0 0.6377786
vn 0.77021974 0 0.6377786
vn 0.77021974 0 0.6377786
vn 0.7702198 0 0.6377785
vn 0.7702198 0 0.6377785
vn -0.010693738 0.99796057 0.062932044
vn -0.010693738 0.99796057 0.062932044
vn -0.010693738 0.99796057 0.062932044
vn -0.010693738 0.99796057 0.062932044
vn -0.0050310553 0.9951278 0.09846494
vn -0.0050310553 0.9951278 0.09846494
vn -0.0009703878 0.99674255 0.08064287
vn 0.9933955 0 -0.11473996
vn 0.9933955 0 -0.11473996
vn 0.9933955 0 -0.11473996
vn 0.9933955 0 -0.11473996
vn 0.9933956 0 -0.11473978
vn 0.9933956 0 -0.11473978
vn -0.9690345 0 0.24692549
vn -0.9690345 0 0.24692549
vn -0.9690345 0 0.24692549
vn -0.9690345 0 0.24692549
vn -0.9690344 0 0.24692558
vn -0.9690344 0 0.24692558
vn -0.60980856 0 0.7925487
vn -0.60980856 0 0.7925487
vn -0.60980856 0 0.7925487
vn -0.60980856 0 0.7925487
vn -0.6098088 0 0.79254854
vn -0.6098088 0 0.79254854
vn 0.61833966 0 0.78591096
vn 0.61833966 0 0.78591096
vn 0.61833966 0 0.78591096
vn 0.61833966 0 0.78591096
vn 0.61833996 0 0.7859108
vn 0.61833996 0 0.7859108
vn -0.27079663 -0.7253797 0.6328456
vn -0.72587943 -0.32451546 0.606456
vn -0.72863525 0 0.6849019
vn 0.27079663 -0.7253797 0.6328456
vn 0.72587943 -0.32451546 0.606456
vn 0.72863525 0 0.6849019
vn 0.27079663 0.7253797 0.6328456
vn 0.72587943 0.32451546 0.606456
vn -0.27079663 0.7253797 0.6328456
vn -0.72587943 0.32451546 0.606456
vn 0.16419312 -0.68646765 -0.70838046
vn 0.5966163 -0.38862923 -0.7021511
vn 0.60080546 0 -0.7993953
vn -0.60080546 0 -0.7993953
vn 0.5966163 0.38862923 -0.7021511
vn -0.16419312 -0.68646765 -0.70838046
vn -0.5966163 -0.38862923 -0.7021511
vn 0.16419312 0.68646765 -0.70838046
vn -0.16419312 0.68646765 -0.70838046
vn -0.5966163 0.38862923 -0.7021511
vn -0.12613246 0.9919206 0.0135667175
vn -0.12613246 0.9919206 0.0135667175
vn -0.12613246 0.9919206 0.0135667175
vn -0.12613246 0.9919206 0.0135667175
vn 0.032849465 -0.9994473 -0.0050913794
vn 0.032849465 -0.9994473 -0.0050913794
vn 0.032849465 -0.9994473 -0.0050913794
vn 0.032849465 -0.9994473 -0.0050913794
vn 0.032849465 -0.9994473 -0.0050913794
vn 0.032849465 -0.9994473 -0.0050913794
vn 0.032849465 -0.9994473 -0.0050913794
vn 0.032849465 -0.9994473 -0.0050913794
vn 0.032849465 -0.9994473 -0.0050913794
vn 0.032849465 -0.9994473 -0.0050913794
vn 0.032849465 -0.9994473 -0.0050913794
vn 0.032849465 -0.9994473 -0.0050913794
vn 0.032849465 -0.9994473 -0.0050913794
vn 0.032849465 -0.9994473 -0.0050913794
vn 0.032849465 -0.9994473 -0.0050913794
vn 0.032849465 -0.9994473 -0.0050913794
vn 0.032849465 -0.9994473 -0.0050913794
vn 0.032849465 -0.9994473 -0.0050913794
vn -0 -1 0
vn -0 -1 0
vn -0 -1 0
vn -0 -1 0
vn -0 -1 0
vn -0 -1 0
vn -0 -1 0
vn -0 -1 0
vn -0 -1 0
vn -0 -1 0
vn -0 -1 0
vn -0.16074519 -0.91213053 -0.37706605
vn -0.3428823 0 -0.93937844
vn -0.9794413 0 -0.20172957
vn 0.20777577 -0.8450809 -0.49261287
vn 0.2545594 0 -0.96705717
vn 0.5711311 -0.79629976 0.19928858
vn 0.9717961 0 0.23582277
vn 0.48812264 -0.80274415 0.3425465
vn 0.69877225 0 0.71534425
vn 0.55038834 -0.7994578 -0.24070714
vn 0.8754054 0 -0.4833896
vn 0.3129161 -0.7502601 -0.582403
vn 0.45051876 0 -0.89276695
vn 0.14887428 -0.7090603 -0.68925315
vn 0.17044856 0 -0.9853666
vn -0.0055239755 -0.7214739 -0.6924196
vn -0.018707998 0 -0.99982506
vn -0.49325475 -0.8517915 0.17649624
vn -0.49325475 -0.8517915 0.17649624
vn -0.49325475 -0.8517915 0.17649624
vn -0.49325475 -0.8517915 0.17649624
vn -0.3775653 -0.92537576 0.033529066
vn -0.3775653 -0.92537576 0.033529066
vn -0.3775653 -0.92537576 0.033529066
vn -0.3775653 -0.92537576 0.033529066
vn -0.40324494 -0.91430444 0.037958954
vn -0.40324494 -0.91430444 0.037958954
vn -0.37634215 -0.9220694 0.09030376
vn -0.37634215 -0.9220694 0.09030376
vn -0.37634215 -0.9220694 0.09030376
vn -0.37634215 -0.9220694 0.09030376
vn -0.44998792 -0.8506338 0.27190635
vn -0.44998792 -0.8506338 0.27190635
vn -0.44998792 -0.8506338 0.27190635
vn -0.44998792 -0.8506338 0.27190635
vn 0.0024671215 -0.9999566 -0.008985532
vn 0.0024671215 -0.9999566 -0.008985532
vn 0.0024671215 -0.9999566 -0.008985532
vn 0.0024671215 -0.9999566 -0.008985532
vn -0.014827989 -0.9993168 0.03385237
vn -0.014827989 -0.9993168 0.03385237
vn -0.0106938 -0.99796057 0.06293238
vn -0.0106938 -0.99796057 0.06293238
vn -0.0106938 -0.99796057 0.06293238
vn -0.0106938 -0.99796057 0.06293238
vn -0.005031028 -0.9951278 0.09846528
vn -0.005031028 -0.9951278 0.09846528
vn -0.0009703878 -0.99674255 0.08064359
vn -0.12613255 -0.9919206 0.013567027
vn -0.12613255 -0.9919206 0.013567027
vn -0.12613255 -0.9919206 0.013567027
vn -0.12613255 -0.9919206 0.013567027
vn -0.9999484 0 0.01016276
vn -0.8786373 -0.41127184 0.24259423
vn -0.9807633 0 0.19520047
vn -0.8786373 0.41127184 0.24259423
vn -0.9070396 -0.4210165 0.00491364
vn -0.30357307 -0.92713845 0.21967617
vn -0.9070396 0.4210165 0.00491364
vn -0.30357307 0.92713845 0.21967617
vn -0.99927205 0 -0.038148306
vn -0.90321934 -0.4278809 -0.03335762
vn -0.90321934 0.4278809 -0.03335762
vn -0.34303415 -0.93931544 -0.0037538437
vn 0.30357307 -0.92713845 0.21967617
vn -0.34138477 -0.9397084 -0.020111976
vn -0.34303415 0.93931544 -0.0037538437
vn 0.30357307 0.92713845 0.21967617
vn -0.34138477 0.9397084 -0.020111976
vn 0.34303415 -0.93931544 -0.0037538437
vn 0.8786373 -0.41127184 0.24259423
vn 0.34138477 -0.9397084 -0.020111976
vn 0.34303415 0.93931544 -0.0037538437
vn 0.8786373 0.41127184 0.24259423
vn 0.34138477 0.9397084 -0.020111976
vn 0.9070396 -0.4210165 0.00491364
vn 0.9032203 -0.42788136 -0.033327136
vn 0.9807633 0 0.19520047
vn 0.9070396 0.4210165 0.00491364
vn 0.90321934 0.4278809 -0.03335762
vn 0.9999484 0 0.01016276
vn 0.99927205 0 -0.038148306
vn 0.72587943 -0.32451546 0.606456
vn 0.72863525 0 0.6849019
vn 0.99927205 0 -0.038148306
vn 0.72587943 0.32451546 0.606456
vn 0.9032203 -0.42788136 -0.033327136
vn 0.90321934 0.4278809 -0.03335762
vn 0.27079663 -0.7253797 0.6328456
vn 0.27079663 0.7253797 0.6328456
vn 0.34138477 -0.9397084 -0.020111976
vn 0.34138477 0.9397084 -0.020111976
vn -0.27079663 -0.7253797 0.6328456
vn -0.27079663 0.7253797 0.6328456
vn -0.34138477 -0.9397084 -0.020111976
vn -0.34138477 0.9397084 -0.020111976
vn -0.72587943 -0.32451546 0.606456
vn -0.72587943 0.32451546 0.606456
vn -0.90321934 -0.4278809 -0.03335762
vn -0.90321934 0.4278809 -0.03335762
vn -0.72863525 0 0.6849019
vn -0.99927205 0 -0.038148306
vn 0.8786373 -0.41127184 0.24259423
vn 0.9807633 0 0.19520047
vn 0.99927205 0 0.038148306
vn 0.8786373 0.41127184 0.24259423
vn 0.86873 -0.48849085 0.081761025
vn 0.30357307 -0.92713845 0.21967617
vn 0.86873 0.48849085 0.081761025
vn 0.30357307 0.92713845 0.21967617
vn 0.2763252 -0.95343477 0.120857924
vn -0.30357307 -0.92713845 0.21967617
vn 0.60080546 0 -0.7993953
vn 0.5966163 -0.38862923 -0.7021511
vn 0.5966163 0.38862923 -0.7021511
vn 0.16419312 -0.68646765 -0.70838046
vn 0.2763252 0.95343477 0.120857924
vn -0.30357307 0.92713845 0.21967617
vn 0.16419312 0.68646765 -0.70838046
vn -0.2763252 -0.95343477 0.120857924
vn -0.8786373 -0.41127184 0.24259423
vn -0.16419312 -0.68646765 -0.70838046
vn -0.2763252 0.95343477 0.120857924
vn -0.8786373 0.41127184 0.24259423
vn -0.16419312 0.68646765 -0.70838046
vn -0.86873 -0.48849085 0.081761025
vn -0.5966163 -0.38862923 -0.7021511
vn -0.9807633 0 0.19520047
vn -0.86873 0.48849085 0.081761025
vn -0.5966163 0.38862923 -0.7021511
vn -0.99927205 0 0.038148306
vn -0.60080546 0 -0.7993953
vn -0.86388636 -0.4595634 0.20615956
vn -0.86235034 -0.46242684 0.20618767
vn -0.46389428 0.8615616 0.20618881
vn -0.4667922 0.8600024 0.20615765
vn 0.46678925 -0.859997 0.20618686
vn 0.86235034 0.46242684 0.20618767
vn 0.86388093 0.4595605 0.20618877
vn 0.46389428 -0.8615616 0.20618881
vn -0.46389428 0.8615616 0.20618881
vn 0.86235034 0.46242684 0.20618767
vn -0.8623381 -0.4624508 0.20618474
vn 0.46389428 -0.8615616 0.20618881
vn 0.87126696 0.46880803 0.14530271
vn 0.46783388 -0.87179035 0.14530349
vn -0.87126696 -0.46880803 0.14530271
vn -0.46783388 0.87179035 0.14530349
vn -0.87727976 -0.4712193 0.091283485
vn 0.47151977 -0.87711835 0.09128257
vn 0.87727976 0.4712193 0.091283485
vn -0.47151977 0.87711835 0.09128257
vn 0.4429602 -0.82750607 -0.34499258
vn -0.82611215 -0.4457264 -0.34477037
vn -0.43746817 0.82616603 -0.35506523
vn 0.82073975 0.44740435 -0.35526836
vn -0.00802659 -0.024751198 -0.99966145
vn 0.7718083 0.40984675 0.4861456
vn 0.41060448 -0.7750335 0.4803407
vn -0 0 1
vn -0.4117077 0.767931 0.49069205
vn -0.7654815 -0.42302603 0.4848578
vn -0.5565819 0.76396114 0.32646582
vn 0.55277 -0.7751354 0.30595842
vn 0.8858791 0.32951513 0.3265548
vn -0.8186215 -0.41887861 -0.3929371
vn 0.75923645 0.566383 0.32057804
vn -0.5149729 0.85238785 -0.09076268
vn -0.4498174 0.8167455 -0.36137375
vn -0.472686 0.87551284 -0.10022603
vn -0.90017736 -0.42590183 -0.09104014
vn 0.31981465 -0.8915989 0.32057762
vn 0.8546861 0.4834218 0.18924865
vn 0.44594297 -0.8748258 0.18924803
vn -0.87736803 -0.46923378 -0.100225285
vn -0.47891232 0.86623555 -0.1424041
vn 0.8368107 0.50076187 0.2213265
vn 0.42147326 -0.87941724 0.22132687
vn -0.8774366 -0.45806766 -0.14240414
vn -0.46136287 0.8591537 -0.22135773
vn 0.80891675 0.5113221 0.29017848
vn 0.3923528 -0.8728446 0.29017505
vn -0.85890824 -0.46181995 -0.22135739
vn -0.04306231 0.6250902 -0.77936375
vn 0.9114225 0.35997283 -0.19932026
vn -0.38090858 -0.49749145 -0.77936566
vn 0.56140417 -0.8031788 -0.19932213
vn 0.8588072 0.5039007 -0.09238128
vn 0.81819206 0.43413717 -0.37694395
vn -0.00036623227 0.0023194712 -0.99999726
vn 0.44400278 -0.7974226 -0.40863025
vn -0.4384078 0.8940284 -0.09225944
vn 0.8766599 0.4694136 -0.10544334
vn -0.8585168 -0.49658465 -0.12787719
vn 0.44152486 -0.8880854 -0.12790701
vn 0.48116648 -0.8586285 0.17673697
vn -0.8886273 -0.34166235 0.30595487
vn -0.8751102 -0.45049527 0.17673723
vn -0.47197548 0.87528336 -0.105442956
vn 0.51239556 -0.85214114 -0.106330715
vn 0.8646757 0.4769267 -0.15772428
vn 0.50323445 -0.8364147 0.21717606
vn -0.88127005 -0.41975996 0.21717405
vn -0.45785016 0.87492657 -0.15772362
vn 0.8515816 0.45043516 -0.26817358
vn 0.52233696 -0.7937446 0.31166258
vn -0.8736442 -0.37364727 0.3116626
vn -0.461549 0.8456086 -0.26817638
vn 0.6114562 0.0016480477 -0.7912765
vn 0.3473089 -0.9236952 -0.16175196
vn -0.50900126 0.3388255 -0.79127437
vn -0.7994081 -0.57860494 -0.16174936
vn -0.7515616 -0.56917983 0.33345088
vn 0.47069716 -0.8747405 -0.11520987
vn 0.89728814 0.42851683 -0.10605341
vn -0.31337532 0.8891582 0.3334572
vn -0.85067344 -0.48483467 0.20319964
vn -0.44182256 0.87378746 0.20319504
vn -0.87503976 -0.46343052 -0.13977686
vn 0.87529606 0.46966287 -0.1152107
vn 0.47603673 -0.8651551 -0.15778367
vn -0.83203346 -0.50249165 0.2349946
vn -0.41652822 0.8782252 0.23499909
vn 0.87444866 0.45874068 -0.15778653
vn 0.45659766 -0.85758936 -0.2367679
vn -0.80271953 -0.51339626 0.30342323
vn -0.38606822 0.87114084 0.30342218
vn 0.85404754 0.46318895 -0.23676747
vn 0.024750855 -0.6191071 -0.78491646
vn -0.915807 -0.35882103 -0.18040241
vn 0.36232197 0.5026179 -0.784919
vn -0.565667 0.8046601 -0.18039693
vn -0.48351675 0.8513655 0.20344146
vn 0.87305343 0.44310355 0.20356089
vn 0.47392443 -0.8694159 -0.13968396
vn -0.86263096 -0.46850336 -0.19071576
vn -0.50552243 0.8282644 0.2417132
vn 0.8786562 0.41167745 0.24183647
vn 0.46077716 -0.86680305 -0.1906222
vn -0.8486468 -0.43801126 -0.2965549
vn -0.5247166 0.78388566 0.33195734
vn 0.8701708 0.3640666 0.3320517
vn 0.46596503 -0.8336587 -0.29646218
vn -0.60110503 0.026917882 -0.7987165
vn -0.34431788 0.92937136 -0.13309434
vn 0.5161691 -0.3093108 -0.7986841
vn 0.8000676 0.5849664 -0.13306484
vn 0.8137828 -0.26548272 0.51698786
vn -0.26392993 -0.822431 0.5039328
vn -0 0 1
vn 0.2559024 0.81604946 0.5182443
vn -0.82156086 0.24922419 0.5127622
vn 0.14200439 0.9535321 0.26572794
vn -0.1503997 -0.95885915 0.2407677
vn 0.88218135 -0.37590215 0.28364328
vn -0.6621084 0.2259317 -0.71453995
vn 0.9388062 -0.20527324 0.276597
vn 0.25324532 0.96302205 -0.09195327
vn 0.23435654 0.7276375 -0.64468646
vn 0.3355011 0.9334701 -0.1267781
vn -0.9076305 0.40410006 -0.11362165
vn -0.43013075 -0.86398476 0.261759
vn 0.9214676 -0.29707432 0.2502883
vn -0.35945693 -0.9021826 0.23844771
vn -0.93167436 0.33253154 -0.14630657
vn 0.31986734 0.93002933 -0.18091533
vn 0.9207686 -0.26066574 0.29023898
vn -0.38805553 -0.8795722 0.27525544
vn -0.92000073 0.3362298 -0.20136555
vn 0.33055398 0.90272886 -0.27534467
vn 0.9021061 -0.2170194 0.37297064
vn -0.40681747 -0.8430552 0.3517918
vn -0.90446705 0.30348295 -0.29972908
vn 0.4834849 0.39092022 -0.7832138
vn 0.89145607 -0.44105867 -0.103794664
vn -0.5749166 -0.13251342 -0.8074102
vn -0.2064895 -0.9710133 -0.12039625
vn 0.97585297 -0.19056219 -0.10675633
vn 0.6947088 -0.20643196 -0.68903226
vn -0.0008240241 -0.0011292183 -0.99999905
vn -0.20887557 -0.6823858 -0.70051444
vn 0.3463012 0.93416166 -0.086125135
vn 0.9541826 -0.26380792 -0.1412123
vn -0.967431 0.20005396 -0.15509905
vn -0.33708522 -0.93205816 -0.13281982
vn -0.23014478 -0.9485652 0.21738778
vn -0.89367586 0.36886027 0.25551036
vn -0.9315555 0.2825124 0.22889093
vn 0.2601152 0.95769274 -0.12314501
vn -0.25446805 -0.96052676 -0.11240174
vn 0.945364 -0.25178373 -0.20710357
vn -0.18717332 -0.94663984 0.26237226
vn -0.9066792 0.31764904 0.27754614
vn 0.27353948 0.94333434 -0.18787338
vn 0.9002573 -0.27409354 -0.338245
vn -0.13300267 -0.9223818 0.36265966
vn -0.85102737 0.3562199 0.3858235
vn 0.24116573 0.91812056 -0.31447378
vn 0.3354933 -0.46559498 -0.8189418
vn -0.40135157 -0.9137302 -0.06335685
vn -0.22339962 0.56390095 -0.7950524
vn -0.988436 0.14490673 -0.044680588
vn -0.9355408 0.1967889 0.29332167
vn -0.336504 -0.9303758 -0.14548472
vn 0.90745 -0.39784482 -0.13510732
vn 0.43163866 0.8587299 0.27617183
vn -0.91859484 0.29017577 0.26829356
vn 0.3622365 0.8965117 0.25505185
vn -0.94503725 0.2697316 -0.18479575
vn 0.92979944 -0.32841763 -0.1661773
vn -0.3216369 -0.9255416 -0.19980612
vn -0.91745746 0.2528181 0.30717218
vn 0.39116445 0.87312347 0.29093942
vn 0.9174986 -0.33061445 -0.22111158
vn -0.3336615 -0.89596945 -0.29310206
vn -0.89790565 0.20774424 0.38808224
vn 0.4103345 0.83525735 0.36602023
vn 0.9009332 -0.29527536 -0.31801236
vn -0.49239117 -0.37175018 -0.7869897
vn -0.8927994 0.44285947 -0.08237046
vn 0.56463504 0.15229061 -0.8111688
vn 0.20429423 0.97383106 -0.09958352
vn 0.22093098 0.94335914 0.24751352
vn 0.92054945 -0.28950474 0.26225117
vn -0.25297537 -0.9533958 -0.16443858
vn -0.93332255 0.26005825 -0.24754517
vn 0.17823109 0.94059634 0.28898466
vn 0.8947323 -0.3243889 0.30696243
vn -0.2627365 -0.9378737 -0.22663273
vn -0.8842785 0.28496268 -0.36992958
vn 0.123754896 0.9153895 0.38307557
vn 0.837814 -0.36296523 0.4078285
vn -0.2258712 -0.91083986 -0.3454752
vn -0.3047315 0.4802153 -0.8225156
vn 0.40615523 0.91320837 -0.03299172
vn 0.25080878 -0.5466643 -0.79890746
vn 0.98958963 -0.14325778 -0.013764222
vn -0 -1 0
vn -0.2849893 -0.38649648 0.87715536
vn 0.7461411 -0.38649914 0.5421182
vn 0.29121107 0.3344868 0.89627826
vn -0.76242465 0.3344878 0.55391914
vn 0.9423995 0.3344894 0
vn 0.7461411 -0.38649914 -0.5421182
vn 0.29121107 0.3344868 -0.89627826
vn -0.9222913 -0.3864956 0
vn -0.76242465 0.3344878 -0.55391914
vn -0.2849893 -0.38649648 -0.87715536
vn -0 1 0
vn 0.7461411 0.38649914 0.5421182
vn 0.7461411 0.38649914 -0.5421182
vn -0.2849893 0.38649648 -0.87715536
vn -0.2849893 0.38649648 0.87715536
vn -0.9222913 0.3864956 0
vn -0 1 0
g Sword06_0
f 3/3/3 2/2/2 1/1/1
f 6/6/6 5/5/5 4/4/4
f 9/9/9 8/8/8 7/7/7
f 12/12/12 11/11/11 10/10/10
f 15/15/15 14/14/14 13/13/13
f 18/18/18 17/17/17 16/16/16
f 21/21/21 20/20/20 19/19/19
f 19/19/19 22/22/22 21/21/21
f 22/22/22 23/23/23 21/21/21
f 22/22/22 24/24/24 23/23/23
f 22/22/22 25/25/25 24/24/24
f 25/25/25 26/26/26 24/24/24
f 25/25/25 27/27/27 26/26/26
f 27/27/27 28/28/28 26/26/26
f 28/28/28 27/27/27 29/29/29
f 29/29/29 30/30/30 28/28/28
f 27/27/27 31/31/31 29/29/29
f 27/27/27 32/32/32 31/31/31
f 32/32/32 33/33/33 31/31/31
f 32/32/32 34/34/34 33/33/33
f 34/34/34 35/35/35 33/33/33
f 35/35/35 36/36/36 33/33/33
f 39/39/39 38/38/38 37/37/37
f 37/37/37 40/40/40 39/39/39
f 37/37/37 41/41/41 40/40/40
f 41/41/41 42/42/42 40/40/40
f 42/42/42 43/43/43 40/40/40
f 42/42/42 44/44/44 43/43/43
f 42/42/42 45/45/45 44/44/44
f 45/45/45 42/42/42 46/46/46
f 47/47/47 45/45/45 46/46/46
f 50/50/50 49/49/49 48/48/48
f 50/50/50 48/48/48 51/51/51
f 52/52/52 50/50/50 51/51/51
f 52/52/52 51/51/51 53/53/53
f 54/54/54 52/52/52 53/53/53
f 54/54/54 53/53/53 55/55/55
f 56/56/56 54/54/54 55/55/55
f 56/56/56 55/55/55 57/57/57
f 58/58/58 56/56/56 57/57/57
f 58/58/58 57/57/57 59/59/59
f 60/60/60 58/58/58 59/59/59
f 60/60/60 59/59/59 61/61/61
f 62/62/62 60/60/60 61/61/61
f 62/62/62 61/61/61 63/63/63
f 64/64/64 62/62/62 63/63/63
f 67/67/67 66/66/66 65/65/65
f 68/68/68 67/67/67 65/65/65
f 71/71/71 70/70/70 69/69/69
f 72/72/72 71/71/71 69/69/69
f 72/72/72 69/69/69 73/73/73
f 74/74/74 72/72/72 73/73/73
f 77/77/77 76/76/76 75/75/75
f 78/78/78 77/77/77 75/75/75
f 81/81/81 80/80/80 79/79/79
f 82/82/82 81/81/81 79/79/79
f 85/85/85 84/84/84 83/83/83
f 86/86/86 85/85/85 83/83/83
f 86/86/86 83/83/83 87/87/87
f 85/85/85 86/86/86 88/88/88
f 89/89/89 85/85/85 88/88/88
f 88/88/88 86/86/86 90/90/90
f 91/91/91 86/86/86 87/87/87
f 86/86/86 91/91/91 90/90/90
f 91/91/91 87/87/87 92/92/92
f 90/90/90 91/91/91 93/93/93
f 94/94/94 91/91/91 92/92/92
f 91/91/91 94/94/94 93/93/93
f 94/94/94 92/92/92 95/95/95
f 93/93/93 94/94/94 96/96/96
f 97/97/97 94/94/94 95/95/95
f 94/94/94 97/97/97 96/96/96
f 97/97/97 95/95/95 98/98/98
f 96/96/96 97/97/97 99/99/99
f 100/100/100 97/97/97 98/98/98
f 97/97/97 100/100/100 99/99/99
f 100/100/100 98/98/98 101/101/101
f 99/99/99 100/100/100 102/102/102
f 103/103/103 100/100/100 101/101/101
f 100/100/100 103/103/103 102/102/102
f 103/103/103 101/101/101 104/104/104
f 102/102/102 103/103/103 105/105/105
f 106/106/106 103/103/103 104/104/104
f 103/103/103 106/106/106 105/105/105
f 106/106/106 104/104/104 107/107/107
f 105/105/105 106/106/106 108/108/108
f 109/109/109 106/106/106 107/107/107
f 106/106/106 109/109/109 108/108/108
f 109/109/109 107/107/107 110/110/110
f 108/108/108 109/109/109 111/111/111
f 112/112/112 109/109/109 110/110/110
f 109/109/109 112/112/112 111/111/111
f 113/113/113 112/112/112 110/110/110
f 112/112/112 113/113/113 111/111/111
f 116/116/116 115/115/115 114/114/114
f 115/115/115 117/117/117 114/114/114
f 117/117/117 118/118/118 114/114/114
f 118/118/118 119/119/119 114/114/114
f 122/122/122 121/121/121 120/120/120
f 121/121/121 123/123/123 120/120/120
f 123/123/123 124/124/124 120/120/120
f 124/124/124 125/125/125 120/120/120
f 128/128/128 127/127/127 126/126/126
f 127/127/127 129/129/129 126/126/126
f 129/129/129 130/130/130 126/126/126
f 130/130/130 131/131/131 126/126/126
f 134/134/134 133/133/133 132/132/132
f 135/135/135 134/134/134 132/132/132
f 134/134/134 135/135/135 136/136/136
f 137/137/137 134/134/134 136/136/136
f 140/140/140 139/139/139 138/138/138
f 139/139/139 141/141/141 138/138/138
f 141/141/141 142/142/142 138/138/138
f 142/142/142 143/143/143 138/138/138
f 146/146/146 145/145/145 144/144/144
f 147/147/147 146/146/146 144/144/144
f 147/147/147 144/144/144 148/148/148
f 149/149/149 147/147/147 148/148/148
f 152/152/152 151/151/151 150/150/150
f 151/151/151 153/153/153 150/150/150
f 153/153/153 154/154/154 150/150/150
f 154/154/154 155/155/155 150/150/150
f 158/158/158 157/157/157 156/156/156
f 157/157/157 159/159/159 156/156/156
f 159/159/159 160/160/160 156/156/156
f 160/160/160 161/161/161 156/156/156
f 164/164/164 163/163/163 162/162/162
f 163/163/163 165/165/165 162/162/162
f 165/165/165 166/166/166 162/162/162
f 166/166/166 167/167/167 162/162/162
f 170/170/170 169/169/169 168/168/168
f 169/169/169 171/171/171 168/168/168
f 169/169/169 172/172/172 171/171/171
f 172/172/172 173/173/173 171/171/171
f 172/172/172 174/174/174 173/173/173
f 177/177/177 176/176/176 175/175/175
f 176/176/176 178/178/178 175/175/175
f 178/178/178 179/179/179 175/175/175
f 179/179/179 180/180/180 175/175/175
f 183/183/183 182/182/182 181/181/181
f 184/184/184 183/183/183 181/181/181
f 183/183/183 184/184/184 185/185/185
f 186/186/186 183/183/183 185/185/185
f 189/189/189 188/188/188 187/187/187
f 190/190/190 189/189/189 187/187/187
f 189/189/189 190/190/190 191/191/191
f 192/192/192 189/189/189 191/191/191
f 195/195/195 194/194/194 193/193/193
f 196/196/196 195/195/195 193/193/193
f 195/195/195 196/196/196 197/197/197
f 198/198/198 195/195/195 197/197/197
f 201/201/201 200/200/200 199/199/199
f 201/201/201 199/199/199 202/202/202
f 201/201/201 202/202/202 203/203/203
f 203/203/203 204/204/204 201/201/201
f 205/205/205 201/201/201 204/204/204
f 204/204/204 206/206/206 205/205/205
f 205/205/205 207/207/207 201/201/201
f 207/207/207 208/208/208 201/201/201
f 211/211/211 210/210/210 209/209/209
f 209/209/209 212/212/212 211/211/211
f 213/213/213 211/211/211 212/212/212
f 209/209/209 214/214/214 212/212/212
f 214/214/214 215/215/215 212/212/212
f 212/212/212 216/216/216 213/213/213
f 212/212/212 217/217/217 216/216/216
f 212/212/212 218/218/218 217/217/217
f 221/221/221 220/220/220 219/219/219
f 222/222/222 221/221/221 219/219/219
f 225/225/225 224/224/224 223/223/223
f 223/223/223 226/226/226 225/225/225
f 227/227/227 225/225/225 226/226/226
f 223/223/223 228/228/228 226/226/226
f 227/227/227 226/226/226 229/229/229
f 228/228/228 230/230/230 226/226/226
f 231/231/231 227/227/227 229/229/229
f 228/228/228 232/232/232 230/230/230
f 232/232/232 233/233/233 230/230/230
f 232/232/232 234/234/234 233/233/233
f 232/232/232 235/235/235 234/234/234
f 231/231/231 229/229/229 236/236/236
f 237/237/237 231/231/231 236/236/236
f 238/238/238 237/237/237 236/236/236
f 238/238/238 236/236/236 239/239/239
f 239/239/239 240/240/240 238/238/238
f 243/243/243 242/242/242 241/241/241
f 241/241/241 244/244/244 243/243/243
f 244/244/244 245/245/245 243/243/243
f 244/244/244 246/246/246 245/245/245
f 244/244/244 247/247/247 246/246/246
f 247/247/247 248/248/248 246/246/246
f 248/248/248 249/249/249 246/246/246
f 246/246/246 249/249/249 250/250/250
f 249/249/249 251/251/251 250/250/250
f 254/254/254 253/253/253 252/252/252
f 252/252/252 253/253/253 255/255/255
f 253/253/253 256/256/256 255/255/255
f 255/255/255 256/256/256 257/257/257
f 256/256/256 258/258/258 257/257/257
f 257/257/257 258/258/258 259/259/259
f 258/258/258 260/260/260 259/259/259
f 259/259/259 260/260/260 261/261/261
f 260/260/260 262/262/262 261/261/261
f 261/261/261 262/262/262 263/263/263
f 262/262/262 264/264/264 263/263/263
f 263/263/263 264/264/264 265/265/265
f 264/264/264 266/266/266 265/265/265
f 265/265/265 266/266/266 267/267/267
f 266/266/266 268/268/268 267/267/267
f 271/271/271 270/270/270 269/269/269
f 272/272/272 271/271/271 269/269/269
f 275/275/275 274/274/274 273/273/273
f 274/274/274 276/276/276 273/273/273
f 273/273/273 276/276/276 277/277/277
f 276/276/276 278/278/278 277/277/277
f 281/281/281 280/280/280 279/279/279
f 282/282/282 281/281/281 279/279/279
f 285/285/285 284/284/284 283/283/283
f 286/286/286 285/285/285 283/283/283
f 289/289/289 288/288/288 287/287/287
f 288/288/288 290/290/290 287/287/287
f 287/287/287 290/290/290 291/291/291
f 290/290/290 292/292/292 291/291/291
f 295/295/295 294/294/294 293/293/293
f 296/296/296 295/295/295 293/293/293
f 297/297/297 295/295/295 296/296/296
f 298/298/298 297/297/297 296/296/296
f 299/299/299 297/297/297 298/298/298
f 302/302/302 301/301/301 300/300/300
f 303/303/303 302/302/302 300/300/300
f 306/306/306 305/305/305 304/304/304
f 307/307/307 306/306/306 304/304/304
f 305/305/305 308/308/308 304/304/304
f 305/305/305 309/309/309 308/308/308
f 310/310/310 307/307/307 304/304/304
f 311/311/311 307/307/307 310/310/310
f 304/304/304 308/308/308 312/312/312
f 310/310/310 304/304/304 312/312/312
f 308/308/308 313/313/313 312/312/312
f 314/314/314 310/310/310 312/312/312
f 309/309/309 315/315/315 308/308/308
f 308/308/308 315/315/315 313/313/313
f 309/309/309 316/316/316 315/315/315
f 315/315/315 317/317/317 313/313/313
f 318/318/318 311/311/311 310/310/310
f 318/318/318 310/310/310 314/314/314
f 319/319/319 311/311/311 318/318/318
f 320/320/320 318/318/318 314/314/314
f 316/316/316 321/321/321 315/315/315
f 315/315/315 321/321/321 317/317/317
f 316/316/316 322/322/322 321/321/321
f 321/321/321 323/323/323 317/317/317
f 324/324/324 319/319/319 318/318/318
f 324/324/324 318/318/318 320/320/320
f 325/325/325 319/319/319 324/324/324
f 326/326/326 324/324/324 320/320/320
f 322/322/322 327/327/327 321/321/321
f 321/321/321 327/327/327 323/323/323
f 327/327/327 328/328/328 323/323/323
f 322/322/322 329/329/329 327/327/327
f 330/330/330 325/325/325 324/324/324
f 330/330/330 324/324/324 326/326/326
f 329/329/329 325/325/325 330/330/330
f 331/331/331 330/330/330 326/326/326
f 327/327/327 332/332/332 328/328/328
f 329/329/329 332/332/332 327/327/327
f 332/332/332 329/329/329 330/330/330
f 332/332/332 330/330/330 331/331/331
f 332/332/332 333/333/333 328/328/328
f 333/333/333 332/332/332 331/331/331
f 336/336/336 335/335/335 334/334/334
f 335/335/335 336/336/336 337/337/337
f 338/338/338 336/336/336 334/334/334
f 336/336/336 339/339/339 337/337/337
f 338/338/338 334/334/334 340/340/340
f 337/337/337 339/339/339 341/341/341
f 342/342/342 338/338/338 340/340/340
f 339/339/339 343/343/343 341/341/341
f 342/342/342 340/340/340 344/344/344
f 341/341/341 343/343/343 345/345/345
f 346/346/346 342/342/342 344/344/344
f 343/343/343 347/347/347 345/345/345
f 346/346/346 344/344/344 348/348/348
f 345/345/345 347/347/347 349/349/349
f 350/350/350 346/346/346 348/348/348
f 347/347/347 351/351/351 349/349/349
f 350/350/350 348/348/348 352/352/352
f 349/349/349 351/351/351 352/352/352
f 353/353/353 350/350/350 352/352/352
f 351/351/351 353/353/353 352/352/352
f 356/356/356 355/355/355 354/354/354
f 355/355/355 356/356/356 357/357/357
f 358/358/358 356/356/356 354/354/354
f 358/358/358 354/354/354 359/359/359
f 356/356/356 360/360/360 357/357/357
f 357/357/357 360/360/360 361/361/361
f 362/362/362 358/358/358 359/359/359
f 362/362/362 359/359/359 363/363/363
f 364/364/364 356/356/356 358/358/358
f 356/356/356 364/364/364 360/360/360
f 365/365/365 364/364/364 358/358/358
f 365/365/365 358/358/358 362/362/362
f 364/364/364 366/366/366 360/360/360
f 367/367/367 365/365/365 362/362/362
f 360/360/360 368/368/368 361/361/361
f 360/360/360 366/366/366 368/368/368
f 361/361/361 368/368/368 369/369/369
f 366/366/366 370/370/370 368/368/368
f 371/371/371 362/362/362 363/363/363
f 367/367/367 362/362/362 371/371/371
f 371/371/371 363/363/363 372/372/372
f 373/373/373 367/367/367 371/371/371
f 368/368/368 374/374/374 369/369/369
f 368/368/368 370/370/370 374/374/374
f 369/369/369 374/374/374 375/375/375
f 370/370/370 376/376/376 374/374/374
f 377/377/377 371/371/371 372/372/372
f 373/373/373 371/371/371 377/377/377
f 378/378/378 373/373/373 377/377/377
f 377/377/377 372/372/372 379/379/379
f 374/374/374 380/380/380 375/375/375
f 374/374/374 376/376/376 380/380/380
f 375/375/375 380/380/380 379/379/379
f 376/376/376 381/381/381 380/380/380
f 378/378/378 377/377/377 382/382/382
f 382/382/382 377/377/377 379/379/379
f 380/380/380 382/382/382 379/379/379
f 380/380/380 381/381/381 382/382/382
f 383/383/383 378/378/378 382/382/382
f 381/381/381 383/383/383 382/382/382
f 386/386/386 385/385/385 384/384/384
f 387/387/387 386/386/386 384/384/384
f 384/384/384 385/385/385 388/388/388
f 389/389/389 386/386/386 387/387/387
f 390/390/390 389/389/389 387/387/387
f 388/388/388 391/391/391 390/390/390
f 385/385/385 391/391/391 388/388/388
f 391/391/391 389/389/389 390/390/390
f 386/386/386 392/392/392 385/385/385
f 389/389/389 393/393/393 386/386/386
f 393/393/393 392/392/392 386/386/386
f 385/385/385 394/394/394 391/391/391
f 392/392/392 394/394/394 385/385/385
f 391/391/391 395/395/395 389/389/389
f 395/395/395 393/393/393 389/389/389
f 394/394/394 395/395/395 391/391/391
f 393/393/393 396/396/396 392/392/392
f 395/395/395 397/397/397 393/393/393
f 397/397/397 396/396/396 393/393/393
f 394/394/394 398/398/398 395/395/395
f 398/398/398 397/397/397 395/395/395
f 392/392/392 399/399/399 394/394/394
f 396/396/396 399/399/399 392/392/392
f 399/399/399 398/398/398 394/394/394
f 398/398/398 400/400/400 397/397/397
f 397/397/397 401/401/401 396/396/396
f 400/400/400 401/401/401 397/397/397
f 396/396/396 402/402/402 399/399/399
f 401/401/401 402/402/402 396/396/396
f 399/399/399 403/403/403 398/398/398
f 403/403/403 400/400/400 398/398/398
f 402/402/402 403/403/403 399/399/399
f 401/401/401 404/404/404 402/402/402
f 400/400/400 405/405/405 401/401/401
f 405/405/405 404/404/404 401/401/401
f 403/403/403 406/406/406 400/400/400
f 406/406/406 405/405/405 400/400/400
f 402/402/402 407/407/407 403/403/403
f 404/404/404 407/407/407 402/402/402
f 407/407/407 406/406/406 403/403/403
f 405/405/405 408/408/408 404/404/404
f 406/406/406 408/408/408 405/405/405
f 404/404/404 408/408/408 407/407/407
f 407/407/407 408/408/408 406/406/406
f 411/411/411 410/410/410 409/409/409
f 411/411/411 409/409/409 412/412/412
f 411/411/411 413/413/413 410/410/410
f 411/411/411 412/412/412 413/413/413
f 414/414/414 412/412/412 409/409/409
f 415/415/415 410/410/410 413/413/413
f 416/416/416 414/414/414 409/409/409
f 409/409/409 417/417/417 416/416/416
f 418/418/418 409/409/409 410/410/410
f 419/419/419 417/417/417 409/409/409
f 418/418/418 419/419/419 409/409/409
f 417/417/417 419/419/419 420/420/420
f 421/421/421 419/419/419 418/418/418
f 419/419/419 422/422/422 420/420/420
f 419/419/419 421/421/421 422/422/422
f 423/423/423 418/418/418 410/410/410
f 410/410/410 420/420/420 423/423/423
f 420/420/420 422/422/422 423/423/423
f 424/424/424 418/418/418 423/423/423
f 424/424/424 421/421/421 418/418/418
f 423/423/423 422/422/422 425/425/425
f 425/425/425 424/424/424 423/423/423
f 421/421/421 426/426/426 422/422/422
f 422/422/422 426/426/426 425/425/425
f 427/427/427 421/421/421 424/424/424
f 421/421/421 427/427/427 426/426/426
f 428/428/428 424/424/424 425/425/425
f 428/428/428 427/427/427 424/424/424
f 425/425/425 426/426/426 429/429/429
f 429/429/429 428/428/428 425/425/425
f 427/427/427 430/430/430 426/426/426
f 426/426/426 430/430/430 429/429/429
f 431/431/431 427/427/427 428/428/428
f 427/427/427 431/431/431 430/430/430
f 432/432/432 428/428/428 429/429/429
f 432/432/432 431/431/431 428/428/428
f 429/429/429 430/430/430 433/433/433
f 433/433/433 432/432/432 429/429/429
f 431/431/431 434/434/434 430/430/430
f 430/430/430 434/434/434 433/433/433
f 435/435/435 431/431/431 432/432/432
f 431/431/431 435/435/435 434/434/434
f 436/436/436 432/432/432 433/433/433
f 436/436/436 435/435/435 432/432/432
f 435/435/435 437/437/437 434/434/434
f 437/437/437 435/435/435 436/436/436
f 438/438/438 436/436/436 433/433/433
f 433/433/433 434/434/434 438/438/438
f 438/438/438 437/437/437 436/436/436
f 434/434/434 437/437/437 438/438/438
f 439/439/439 420/420/420 410/410/410
f 420/420/420 439/439/439 440/440/440
f 415/415/415 439/439/439 410/410/410
f 440/440/440 441/441/441 420/420/420
f 442/442/442 441/441/441 440/440/440
f 420/420/420 441/441/441 417/417/417
f 417/417/417 441/441/441 442/442/442
f 439/439/439 443/443/443 440/440/440
f 444/444/444 439/439/439 415/415/415
f 439/439/439 444/444/444 443/443/443
f 442/442/442 445/445/445 417/417/417
f 445/445/445 446/446/446 417/417/417
f 417/417/417 446/446/446 416/416/416
f 447/447/447 444/444/444 415/415/415
f 447/447/447 415/415/415 448/448/448
f 440/440/440 443/443/443 448/448/448
f 448/448/448 415/415/415 413/413/413
f 413/413/413 440/440/440 448/448/448
f 448/448/448 443/443/443 449/449/449
f 449/449/449 447/447/447 448/448/448
f 444/444/444 450/450/450 443/443/443
f 443/443/443 450/450/450 449/449/449
f 451/451/451 440/440/440 413/413/413
f 440/440/440 451/451/451 442/442/442
f 452/452/452 444/444/444 447/447/447
f 444/444/444 452/452/452 450/450/450
f 453/453/453 447/447/447 449/449/449
f 453/453/453 452/452/452 447/447/447
f 449/449/449 450/450/450 454/454/454
f 454/454/454 453/453/453 449/449/449
f 452/452/452 455/455/455 450/450/450
f 450/450/450 455/455/455 454/454/454
f 456/456/456 452/452/452 453/453/453
f 452/452/452 456/456/456 455/455/455
f 457/457/457 453/453/453 454/454/454
f 457/457/457 456/456/456 453/453/453
f 454/454/454 455/455/455 458/458/458
f 458/458/458 457/457/457 454/454/454
f 456/456/456 459/459/459 455/455/455
f 455/455/455 459/459/459 458/458/458
f 460/460/460 456/456/456 457/457/457
f 456/456/456 460/460/460 459/459/459
f 461/461/461 457/457/457 458/458/458
f 461/461/461 460/460/460 457/457/457
f 460/460/460 462/462/462 459/459/459
f 462/462/462 460/460/460 461/461/461
f 463/463/463 461/461/461 458/458/458
f 458/458/458 459/459/459 463/463/463
f 463/463/463 462/462/462 461/461/461
f 459/459/459 462/462/462 463/463/463
f 464/464/464 413/413/413 412/412/412
f 464/464/464 451/451/451 413/413/413
f 465/465/465 451/451/451 464/464/464
f 451/451/451 465/465/465 466/466/466
f 451/451/451 466/466/466 442/442/442
f 467/467/467 464/464/464 412/412/412
f 412/412/412 442/442/442 467/467/467
f 442/442/442 466/466/466 467/467/467
f 445/445/445 442/442/442 412/412/412
f 414/414/414 445/445/445 412/412/412
f 468/468/468 464/464/464 467/467/467
f 468/468/468 465/465/465 464/464/464
f 467/467/467 466/466/466 469/469/469
f 469/469/469 468/468/468 467/467/467
f 470/470/470 445/445/445 414/414/414
f 445/445/445 470/470/470 446/446/446
f 465/465/465 471/471/471 466/466/466
f 466/466/466 471/471/471 469/469/469
f 472/472/472 465/465/465 468/468/468
f 465/465/465 472/472/472 471/471/471
f 473/473/473 468/468/468 469/469/469
f 473/473/473 472/472/472 468/468/468
f 469/469/469 471/471/471 474/474/474
f 474/474/474 473/473/473 469/469/469
f 472/472/472 475/475/475 471/471/471
f 471/471/471 475/475/475 474/474/474
f 476/476/476 472/472/472 473/473/473
f 472/472/472 476/476/476 475/475/475
f 477/477/477 473/473/473 474/474/474
f 477/477/477 476/476/476 473/473/473
f 474/474/474 475/475/475 478/478/478
f 478/478/478 477/477/477 474/474/474
f 476/476/476 479/479/479 475/475/475
f 475/475/475 479/479/479 478/478/478
f 480/480/480 476/476/476 477/477/477
f 476/476/476 480/480/480 479/479/479
f 481/481/481 477/477/477 478/478/478
f 481/481/481 480/480/480 477/477/477
f 480/480/480 482/482/482 479/479/479
f 482/482/482 480/480/480 481/481/481
f 483/483/483 481/481/481 478/478/478
f 478/478/478 479/479/479 483/483/483
f 483/483/483 482/482/482 481/481/481
f 479/479/479 482/482/482 483/483/483
f 484/484/484 414/414/414 416/416/416
f 484/484/484 470/470/470 414/414/414
f 485/485/485 484/484/484 416/416/416
f 416/416/416 446/446/446 485/485/485
f 470/470/470 486/486/486 446/446/446
f 446/446/446 486/486/486 485/485/485
f 487/487/487 470/470/470 484/484/484
f 470/470/470 487/487/487 486/486/486
f 488/488/488 484/484/484 485/485/485
f 488/488/488 487/487/487 484/484/484
f 485/485/485 486/486/486 489/489/489
f 489/489/489 488/488/488 485/485/485
f 487/487/487 490/490/490 486/486/486
f 486/486/486 490/490/490 489/489/489
f 491/491/491 487/487/487 488/488/488
f 487/487/487 491/491/491 490/490/490
f 492/492/492 488/488/488 489/489/489
f 492/492/492 491/491/491 488/488/488
f 489/489/489 490/490/490 493/493/493
f 493/493/493 492/492/492 489/489/489
f 491/491/491 494/494/494 490/490/490
f 490/490/490 494/494/494 493/493/493
f 495/495/495 491/491/491 492/492/492
f 491/491/491 495/495/495 494/494/494
f 496/496/496 492/492/492 493/493/493
f 496/496/496 495/495/495 492/492/492
f 495/495/495 497/497/497 494/494/494
f 497/497/497 495/495/495 496/496/496
f 498/498/498 496/496/496 493/493/493
f 493/493/493 494/494/494 498/498/498
f 498/498/498 497/497/497 496/496/496
f 494/494/494 497/497/497 498/498/498
f 501/501/501 500/500/500 499/499/499
f 501/501/501 499/499/499 502/502/502
f 501/501/501 503/503/503 500/500/500
f 501/501/501 502/502/502 503/503/503
f 504/504/504 502/502/502 499/499/499
f 505/505/505 500/500/500 503/503/503
f 506/506/506 504/504/504 499/499/499
f 499/499/499 507/507/507 506/506/506
f 508/508/508 499/499/499 500/500/500
f 509/509/509 507/507/507 499/499/499
f 508/508/508 509/509/509 499/499/499
f 507/507/507 509/509/509 510/510/510
f 511/511/511 509/509/509 508/508/508
f 509/509/509 512/512/512 510/510/510
f 509/509/509 511/511/511 512/512/512
f 513/513/513 508/508/508 500/500/500
f 500/500/500 510/510/510 513/513/513
f 510/510/510 512/512/512 513/513/513
f 514/514/514 508/508/508 513/513/513
f 514/514/514 511/511/511 508/508/508
f 513/513/513 512/512/512 515/515/515
f 515/515/515 514/514/514 513/513/513
f 511/511/511 516/516/516 512/512/512
f 512/512/512 516/516/516 515/515/515
f 517/517/517 511/511/511 514/514/514
f 511/511/511 517/517/517 516/516/516
f 518/518/518 514/514/514 515/515/515
f 518/518/518 517/517/517 514/514/514
f 515/515/515 516/516/516 519/519/519
f 519/519/519 518/518/518 515/515/515
f 517/517/517 520/520/520 516/516/516
f 516/516/516 520/520/520 519/519/519
f 521/521/521 517/517/517 518/518/518
f 517/517/517 521/521/521 520/520/520
f 522/522/522 518/518/518 519/519/519
f 522/522/522 521/521/521 518/518/518
f 519/519/519 520/520/520 523/523/523
f 523/523/523 522/522/522 519/519/519
f 521/521/521 524/524/524 520/520/520
f 520/520/520 524/524/524 523/523/523
f 525/525/525 521/521/521 522/522/522
f 521/521/521 525/525/525 524/524/524
f 526/526/526 522/522/522 523/523/523
f 526/526/526 525/525/525 522/522/522
f 525/525/525 527/527/527 524/524/524
f 527/527/527 525/525/525 526/526/526
f 528/528/528 526/526/526 523/523/523
f 523/523/523 524/524/524 528/528/528
f 528/528/528 527/527/527 526/526/526
f 524/524/524 527/527/527 528/528/528
f 529/529/529 510/510/510 500/500/500
f 510/510/510 529/529/529 530/530/530
f 505/505/505 529/529/529 500/500/500
f 530/530/530 531/531/531 510/510/510
f 532/532/532 531/531/531 530/530/530
f 510/510/510 531/531/531 507/507/507
f 507/507/507 531/531/531 532/532/532
f 529/529/529 533/533/533 530/530/530
f 534/534/534 529/529/529 505/505/505
f 529/529/529 534/534/534 533/533/533
f 532/532/532 535/535/535 507/507/507
f 535/535/535 536/536/536 507/507/507
f 507/507/507 536/536/536 506/506/506
f 537/537/537 534/534/534 505/505/505
f 537/537/537 505/505/505 538/538/538
f 530/530/530 533/533/533 538/538/538
f 538/538/538 505/505/505 503/503/503
f 503/503/503 530/530/530 538/538/538
f 538/538/538 533/533/533 539/539/539
f 539/539/539 537/537/537 538/538/538
f 534/534/534 540/540/540 533/533/533
f 533/533/533 540/540/540 539/539/539
f 541/541/541 530/530/530 503/503/503
f 530/530/530 541/541/541 532/532/532
f 542/542/542 534/534/534 537/537/537
f 534/534/534 542/542/542 540/540/540
f 543/543/543 537/537/537 539/539/539
f 543/543/543 542/542/542 537/537/537
f 539/539/539 540/540/540 544/544/544
f 544/544/544 543/543/543 539/539/539
f 542/542/542 545/545/545 540/540/540
f 540/540/540 545/545/545 544/544/544
f 546/546/546 542/542/542 543/543/543
f 542/542/542 546/546/546 545/545/545
f 547/547/547 543/543/543 544/544/544
f 547/547/547 546/546/546 543/543/543
f 544/544/544 545/545/545 548/548/548
f 548/548/548 547/547/547 544/544/544
f 546/546/546 549/549/549 545/545/545
f 545/545/545 549/549/549 548/548/548
f 550/550/550 546/546/546 547/547/547
f 546/546/546 550/550/550 549/549/549
f 551/551/551 547/547/547 548/548/548
f 551/551/551 550/550/550 547/547/547
f 550/550/550 552/552/552 549/549/549
f 552/552/552 550/550/550 551/551/551
f 553/553/553 551/551/551 548/548/548
f 548/548/548 549/549/549 553/553/553
f 553/553/553 552/552/552 551/551/551
f 549/549/549 552/552/552 553/553/553
f 554/554/554 503/503/503 502/502/502
f 554/554/554 541/541/541 503/503/503
f 555/555/555 541/541/541 554/554/554
f 541/541/541 555/555/555 556/556/556
f 541/541/541 556/556/556 532/532/532
f 557/557/557 554/554/554 502/502/502
f 502/502/502 532/532/532 557/557/557
f 532/532/532 556/556/556 557/557/557
f 535/535/535 532/532/532 502/502/502
f 504/504/504 535/535/535 502/502/502
f 558/558/558 554/554/554 557/557/557
f 558/558/558 555/555/555 554/554/554
f 557/557/557 556/556/556 559/559/559
f 559/559/559 558/558/558 557/557/557
f 560/560/560 535/535/535 504/504/504
f 535/535/535 560/560/560 536/536/536
f 555/555/555 561/561/561 556/556/556
f 556/556/556 561/561/561 559/559/559
f 562/562/562 555/555/555 558/558/558
f 555/555/555 562/562/562 561/561/561
f 563/563/563 558/558/558 559/559/559
f 563/563/563 562/562/562 558/558/558
f 559/559/559 561/561/561 564/564/564
f 564/564/564 563/563/563 559/559/559
f 562/562/562 565/565/565 561/561/561
f 561/561/561 565/565/565 564/564/564
f 566/566/566 562/562/562 563/563/563
f 562/562/562 566/566/566 565/565/565
f 567/567/567 563/563/563 564/564/564
f 567/567/567 566/566/566 563/563/563
f 564/564/564 565/565/565 568/568/568
f 568/568/568 567/567/567 564/564/564
f 566/566/566 569/569/569 565/565/565
f 565/565/565 569/569/569 568/568/568
f 570/570/570 566/566/566 567/567/567
f 566/566/566 570/570/570 569/569/569
f 571/571/571 567/567/567 568/568/568
f 571/571/571 570/570/570 567/567/567
f 570/570/570 572/572/572 569/569/569
f 572/572/572 570/570/570 571/571/571
f 573/573/573 571/571/571 568/568/568
f 568/568/568 569/569/569 573/573/573
f 573/573/573 572/572/572 571/571/571
f 569/569/569 572/572/572 573/573/573
f 574/574/574 504/504/504 506/506/506
f 574/574/574 560/560/560 504/504/504
f 575/575/575 574/574/574 506/506/506
f 506/506/506 536/536/536 575/575/575
f 560/560/560 576/576/576 536/536/536
f 536/536/536 576/576/576 575/575/575
f 577/577/577 560/560/560 574/574/574
f 560/560/560 577/577/577 576/576/576
f 578/578/578 574/574/574 575/575/575
f 578/578/578 577/577/577 574/574/574
f 575/575/575 576/576/576 579/579/579
f 579/579/579 578/578/578 575/575/575
f 577/577/577 580/580/580 576/576/576
f 576/576/576 580/580/580 579/579/579
f 581/581/581 577/577/577 578/578/578
f 577/577/577 581/581/581 580/580/580
f 582/582/582 578/578/578 579/579/579
f 582/582/582 581/581/581 578/578/578
f 579/579/579 580/580/580 583/583/583
f 583/583/583 582/582/582 579/579/579
f 581/581/581 584/584/584 580/580/580
f 580/580/580 584/584/584 583/583/583
f 585/585/585 581/581/581 582/582/582
f 581/581/581 585/585/585 584/584/584
f 586/586/586 582/582/582 583/583/583
f 586/586/586 585/585/585 582/582/582
f 585/585/585 587/587/587 584/584/584
f 587/587/587 585/585/585 586/586/586
f 588/588/588 586/586/586 583/583/583
f 583/583/583 584/584/584 588/588/588
f 588/588/588 587/587/587 586/586/586
f 584/584/584 587/587/587 588/588/588
f 591/591/591 590/590/590 589/589/589
f 591/591/591 592/592/592 590/590/590
f 592/592/592 593/593/593 590/590/590
f 594/594/594 592/592/592 591/591/591
f 589/589/589 595/595/595 591/591/591
f 595/595/595 594/594/594 591/591/591
f 596/596/596 594/594/594 595/595/595
f 590/590/590 597/597/597 589/589/589
f 590/590/590 593/593/593 597/597/597
f 593/593/593 598/598/598 597/597/597
f 599/599/599 595/595/595 589/589/589
f 597/597/597 599/599/599 589/589/589
f 599/599/599 596/596/596 595/595/595
f 597/597/597 598/598/598 599/599/599
f 598/598/598 596/596/596 599/599/599
f 594/594/594 600/600/600 592/592/592
f 592/592/592 600/600/600 593/593/593
f 598/598/598 600/600/600 596/596/596
f 596/596/596 600/600/600 594/594/594
f 593/593/593 600/600/600 598/598/598
f 592/592/592 594/594/594 601/601/601
f 594/594/594 596/596/596 602/602/602
f 594/594/594 602/602/602 601/601/601
f 596/596/596 598/598/598 603/603/603
f 596/596/596 603/603/603 602/602/602
f 593/593/593 592/592/592 604/604/604
f 592/592/592 601/601/601 604/604/604
f 598/598/598 593/593/593 605/605/605
f 598/598/598 605/605/605 603/603/603
f 593/593/593 604/604/604 605/605/605
f 602/602/602 606/606/606 601/601/601
f 602/602/602 603/603/603 606/606/606
f 603/603/603 605/605/605 606/606/606
f 604/604/604 601/601/601 606/606/606
f 605/605/605 604/604/604 606/606/606
