g Sword03
v -0.011648349 -0.040436737 1.1912324
v -0.0017470121 -0.034738958 1.2217734
v -0.0023574312 -0.038093332 1.1946026
v -0.032119274 -0.034738965 1.1850414
v -0.0017470121 -0.034738958 1.2217734
v -0.011648349 -0.040436737 1.1912324
v -0.0023556054 -0.03445746 1.1946026
v -0.0017470121 -0.034738958 1.2217734
v -0.010793552 -0.030545933 1.1952962
v -0.010793552 -0.030545933 1.1952962
v -0.0017470121 -0.034738958 1.2217734
v -0.032119274 -0.034738965 1.1850414
v -0.057780553 -0.051747147 -0.20127474
v -0.047498275 -0.04146486 -0.20127475
v -0.047498275 -0.028014936 -0.20127475
v -0.057780553 -0.01773265 -0.20127475
v -0.096837305 -0.051747147 -0.20127474
v -0.096837305 -0.01773265 -0.20127475
v -0.10711958 -0.04146486 -0.20127475
v -0.10711958 -0.028014936 -0.20127475
v -0.01236717 -0.03695278 0.22824734
v -0.03624794 -0.040336188 0.22824734
v -0.043115318 -0.039714392 0.9221364
v -0.02193312 -0.036707032 0.9214751
v -0.0023574312 -0.038093332 1.1946026
v -0.011648349 -0.040436737 1.1912324
v -0.07903152 -0.029143656 0.22824734
v -0.14475703 -0.03474012 0.92530996
v -0.15083855 -0.03473992 0.22824734
v -0.0810643 -0.029765846 0.9233213
v -0.10386592 -0.03521136 1.0924641
v -0.032119274 -0.034738965 1.1850414
v -0.03624794 -0.040336188 0.22824734
v -0.07903152 -0.040336188 0.22824734
v -0.0810643 -0.039714392 0.9233213
v -0.043115318 -0.039714392 0.9221364
v -0.07903152 -0.029143656 0.22824734
v -0.03624794 -0.029143656 0.22824734
v -0.043115318 -0.029765846 0.9221364
v -0.0810643 -0.029765846 0.9233213
v -0.01236717 -0.03252706 0.22824734
v -0.01236717 -0.03695278 0.22824734
v -0.02193312 -0.036707032 0.9214751
v -0.02193312 -0.032773204 0.9214751
v -0.0023556054 -0.03445746 1.1946026
v -0.0023574312 -0.038093332 1.1946026
v -0.0017470121 -0.034738958 1.2217734
v -0.03624794 -0.029143656 0.22824734
v -0.01236717 -0.03252706 0.22824734
v -0.02193312 -0.032773204 0.9214751
v -0.043115318 -0.029765846 0.9221364
v -0.14475703 -0.03474012 0.92530996
v -0.10386592 -0.03521136 1.0924641
v -0.032119274 -0.034738965 1.1850414
v -0.0810643 -0.039714392 0.9233213
v -0.07903152 -0.040336188 0.22824734
v -0.15083855 -0.03473992 0.22824734
v -0.043115318 -0.029765846 0.9221364
v -0.010793552 -0.030545933 1.1952962
v -0.032119274 -0.034738965 1.1850414
v -0.0810643 -0.029765846 0.9233213
v -0.02193312 -0.032773204 0.9214751
v -0.0023556054 -0.03445746 1.1946026
v -0.010793552 -0.030545933 1.1952962
v -0.043115318 -0.029765846 0.9221364
v -0.0810643 -0.039714392 0.9233213
v -0.032119274 -0.034738965 1.1850414
v -0.011648349 -0.040436737 1.1912324
v -0.043115318 -0.039714392 0.9221364
v -0.10711958 -0.041464854 -0.16478842
v -0.10711958 -0.041464806 0.13884981
v -0.096837305 -0.05174709 0.13884982
v -0.10711958 -0.02801488 0.13884981
v -0.096837305 -0.05174714 -0.16478841
v -0.10711958 -0.028014928 -0.16478842
v -0.057780553 -0.05174709 0.13884982
v -0.057780553 -0.05174714 -0.16478841
v -0.047498275 -0.041464854 -0.16478842
v -0.047498275 -0.041464806 0.13884981
v -0.096837305 -0.017732643 -0.16478842
v -0.096837305 -0.017732594 0.13884981
v -0.047498275 -0.028014928 -0.16478842
v -0.047498275 -0.02801488 0.13884981
v -0.057780553 -0.017732594 0.13884981
v -0.057780553 -0.017732643 -0.16478842
v -0.057780553 -0.017732643 -0.16478842
v -0.096837305 -0.017732643 -0.16478842
v -0.096837305 -0.01773265 -0.20127475
v -0.10711958 -0.028014928 -0.16478842
v -0.057780553 -0.01773265 -0.20127475
v -0.10711958 -0.028014936 -0.20127475
v -0.047498275 -0.028014936 -0.20127475
v -0.047498275 -0.028014928 -0.16478842
v -0.047498275 -0.041464854 -0.16478842
v -0.047498275 -0.04146486 -0.20127475
v -0.10711958 -0.04146486 -0.20127475
v -0.10711958 -0.041464854 -0.16478842
v -0.096837305 -0.05174714 -0.16478841
v -0.096837305 -0.051747147 -0.20127474
v -0.057780553 -0.05174714 -0.16478841
v -0.057780553 -0.051747147 -0.20127474
v -0.057780553 -0.017732594 0.13884981
v -0.096837305 -0.01773259 0.15792894
v -0.096837305 -0.017732594 0.13884981
v -0.057780553 -0.01773259 0.15792894
v -0.10711958 -0.028014876 0.15792894
v -0.047498275 -0.02801488 0.13884981
v -0.10711958 -0.02801488 0.13884981
v -0.047498275 -0.028014876 0.15792894
v -0.10711958 -0.041464802 0.15792894
v -0.047498275 -0.041464806 0.13884981
v -0.10711958 -0.041464806 0.13884981
v -0.047498275 -0.041464802 0.15792894
v -0.096837305 -0.051747087 0.15792896
v -0.057780553 -0.05174709 0.13884982
v -0.096837305 -0.05174709 0.13884982
v -0.057780553 -0.051747087 0.15792896
v -0.17875023 -0.075541124 0.15832967
v -0.17875023 -0.07554112 0.17369139
v 0.01554428 -0.07554112 0.17369139
v 0.01554428 -0.075541124 0.15832967
v -0.22990121 -0.042835303 0.15832965
v 0.06669527 -0.0428353 0.17369138
v -0.22990121 -0.0428353 0.17369138
v 0.06669527 -0.042835303 0.15832965
v -0.22990121 -0.026644379 0.15832965
v 0.06669527 -0.026644377 0.17369138
v -0.22990121 -0.026644377 0.17369138
v 0.06669527 -0.026644379 0.15832965
v -0.17875023 0.0060614045 0.15832965
v 0.01554428 0.0060614073 0.17369138
v -0.17875023 0.0060614073 0.17369138
v 0.01554428 0.0060614045 0.15832965
v -0.10711958 -0.028014876 0.15792894
v -0.22990121 -0.026644379 0.15832965
v -0.22990121 -0.042835303 0.15832965
v -0.10711958 -0.041464802 0.15792894
v -0.096837305 -0.01773259 0.15792894
v -0.17875023 -0.075541124 0.15832967
v -0.17875023 0.0060614045 0.15832965
v -0.096837305 -0.051747087 0.15792896
v -0.057780553 -0.01773259 0.15792894
v 0.01554428 -0.075541124 0.15832967
v 0.01554428 0.0060614045 0.15832965
v -0.057780553 -0.051747087 0.15792896
v -0.047498275 -0.028014876 0.15792894
v 0.06669527 -0.042835303 0.15832965
v 0.06669527 -0.026644379 0.15832965
v -0.047498275 -0.041464802 0.15792894
v 0.06669527 -0.0428353 0.17369138
v 0.0042170286 -0.03857388 0.17436418
v 0.0042170286 -0.03090578 0.17436418
v 0.06669527 -0.026644377 0.17369138
v 0.01554428 -0.07554112 0.17369139
v -0.025383957 -0.02504362 0.17436418
v -0.025383957 -0.044436045 0.17436418
v 0.01554428 0.0060614073 0.17369138
v -0.17875023 -0.07554112 0.17369139
v -0.13782182 -0.02504362 0.17436418
v -0.13782182 -0.044436045 0.17436418
v -0.17875023 0.0060614073 0.17369138
v -0.22990121 -0.0428353 0.17369138
v -0.1674228 -0.03090578 0.17436418
v -0.1674228 -0.03857388 0.17436418
v -0.22990121 -0.026644377 0.17369138
v -0.1674228 -0.03090578 0.17436418
v -0.1674228 -0.038573872 0.22824733
v -0.1674228 -0.03857388 0.17436418
v -0.1674228 -0.03090577 0.22824733
v -0.13782182 -0.02504362 0.17436418
v -0.13782182 -0.044436038 0.22824733
v -0.13782182 -0.044436045 0.17436418
v -0.13782182 -0.02504361 0.22824733
v -0.025383957 -0.02504362 0.17436418
v -0.025383957 -0.044436038 0.22824733
v -0.025383957 -0.044436045 0.17436418
v -0.025383957 -0.02504361 0.22824733
v 0.0042170286 -0.03090578 0.17436418
v 0.0042170286 -0.038573872 0.22824733
v 0.0042170286 -0.03857388 0.17436418
v 0.0042170286 -0.03090577 0.22824733
vt 0.20685987 0.41116422
vt 0.20685987 0.41116422
vt 0.20685987 0.41116422
vt 0.20685987 0.41116422
vt 0.20685987 0.41116422
vt 0.20685987 0.41116422
vt 0.20685987 0.41116422
vt 0.20685987 0.41116422
vt 0.20685987 0.41116422
vt 0.20685987 0.41116422
vt 0.20685987 0.41116422
vt 0.20685987 0.41116422
vt 0.08308551 0.9022181
vt 0.08308551 0.9022181
vt 0.08308551 0.9022181
vt 0.08308551 0.9022181
vt 0.08308551 0.9022181
vt 0.08308551 0.9022181
vt 0.08308551 0.9022181
vt 0.08308551 0.9022181
vt 0.20685987 0.41116422
vt 0.20685987 0.41116422
vt 0.20685987 0.41116422
vt 0.20685987 0.41116422
vt 0.20685987 0.41116422
vt 0.20685987 0.41116422
vt 0.2762901 0.46383196
vt 0.2762901 0.46383196
vt 0.2762901 0.46383196
vt 0.2762901 0.46383196
vt 0.2762901 0.46383196
vt 0.2762901 0.46383196
vt 0.20685987 0.41116422
vt 0.20685987 0.41116422
vt 0.20685987 0.41116422
vt 0.20685987 0.41116422
vt 0.20685987 0.41116422
vt 0.20685987 0.41116422
vt 0.20685987 0.41116422
vt 0.20685987 0.41116422
vt 0.20685987 0.41116422
vt 0.20685987 0.41116422
vt 0.20685987 0.41116422
vt 0.20685987 0.41116422
vt 0.20685987 0.41116422
vt 0.20685987 0.41116422
vt 0.20685987 0.41116422
vt 0.20685987 0.41116422
vt 0.20685987 0.41116422
vt 0.20685987 0.41116422
vt 0.20685987 0.41116422
vt 0.2762901 0.46383196
vt 0.2762901 0.46383196
vt 0.2762901 0.46383196
vt 0.2762901 0.46383196
vt 0.2762901 0.46383196
vt 0.2762901 0.46383196
vt 0.20685987 0.41116422
vt 0.20685987 0.41116422
vt 0.20685987 0.41116422
vt 0.20685987 0.41116422
vt 0.20685987 0.41116422
vt 0.20685987 0.41116422
vt 0.20685987 0.41116422
vt 0.20685987 0.41116422
vt 0.20685987 0.41116422
vt 0.20685987 0.41116422
vt 0.20685987 0.41116422
vt 0.20685987 0.41116422
vt 0.15289137 0.6659383
vt 0.15289137 0.6659383
vt 0.15289137 0.6659383
vt 0.15289137 0.6659383
vt 0.15289137 0.6659383
vt 0.15289137 0.6659383
vt 0.15289137 0.6659383
vt 0.15289137 0.6659383
vt 0.15289137 0.6659383
vt 0.15289137 0.6659383
vt 0.15289137 0.6659383
vt 0.15289137 0.6659383
vt 0.15289137 0.6659383
vt 0.15289137 0.6659383
vt 0.15289137 0.6659383
vt 0.15289137 0.6659383
vt 0.08308551 0.9022181
vt 0.08308551 0.9022181
vt 0.08308551 0.9022181
vt 0.08308551 0.9022181
vt 0.08308551 0.9022181
vt 0.08308551 0.9022181
vt 0.08308551 0.9022181
vt 0.08308551 0.9022181
vt 0.08308551 0.9022181
vt 0.08308551 0.9022181
vt 0.08308551 0.9022181
vt 0.08308551 0.9022181
vt 0.08308551 0.9022181
vt 0.08308551 0.9022181
vt 0.08308551 0.9022181
vt 0.08308551 0.9022181
vt 0.08503863 0.9178431
vt 0.08503863 0.9178431
vt 0.08503863 0.9178431
vt 0.08503863 0.9178431
vt 0.08503863 0.9178431
vt 0.08503863 0.9178431
vt 0.08503863 0.9178431
vt 0.08503863 0.9178431
vt 0.08503863 0.9178431
vt 0.08503863 0.9178431
vt 0.08503863 0.9178431
vt 0.08503863 0.9178431
vt 0.08503863 0.9178431
vt 0.08503863 0.9178431
vt 0.08503863 0.9178431
vt 0.08503863 0.9178431
vt 0.08503863 0.9178431
vt 0.08503863 0.9178431
vt 0.08503863 0.9178431
vt 0.08503863 0.9178431
vt 0.08503863 0.9178431
vt 0.08503863 0.9178431
vt 0.08503863 0.9178431
vt 0.08503863 0.9178431
vt 0.08503863 0.9178431
vt 0.08503863 0.9178431
vt 0.08503863 0.9178431
vt 0.08503863 0.9178431
vt 0.08503863 0.9178431
vt 0.08503863 0.9178431
vt 0.08503863 0.9178431
vt 0.08503863 0.9178431
vt 0.08503863 0.9178431
vt 0.08503863 0.9178431
vt 0.08503863 0.9178431
vt 0.08503863 0.9178431
vt 0.08503863 0.9178431
vt 0.08503863 0.9178431
vt 0.08503863 0.9178431
vt 0.08503863 0.9178431
vt 0.08503863 0.9178431
vt 0.08503863 0.9178431
vt 0.08503863 0.9178431
vt 0.08503863 0.9178431
vt 0.08503863 0.9178431
vt 0.08503863 0.9178431
vt 0.08503863 0.9178431
vt 0.08503863 0.9178431
vt 0.08503863 0.9178431
vt 0.08503863 0.9178431
vt 0.08503863 0.9178431
vt 0.08503863 0.9178431
vt 0.08503863 0.9178431
vt 0.08503863 0.9178431
vt 0.08503863 0.9178431
vt 0.08503863 0.9178431
vt 0.08503863 0.9178431
vt 0.08503863 0.9178431
vt 0.08503863 0.9178431
vt 0.08503863 0.9178431
vt 0.08503863 0.9178431
vt 0.08503863 0.9178431
vt 0.08503863 0.9178431
vt 0.08503863 0.9178431
vt 0.08503863 0.9178431
vt 0.08503863 0.9178431
vt 0.08503863 0.9178431
vt 0.08503863 0.9178431
vt 0.08503863 0.9178431
vt 0.08503863 0.9178431
vt 0.08503863 0.9178431
vt 0.08503863 0.9178431
vt 0.08503863 0.9178431
vt 0.08503863 0.9178431
vt 0.08503863 0.9178431
vt 0.08503863 0.9178431
vt 0.08503863 0.9178431
vt 0.08503863 0.9178431
vt 0.08503863 0.9178431
vt 0.08503863 0.9178431
vn 0.2033491 -0.97227424 0.115464136
vn 0.2033491 -0.97227424 0.115464136
vn 0.2033491 -0.97227424 0.115464136
vn -0.3343911 -0.90096265 0.2764941
vn -0.3343911 -0.90096265 0.2764941
vn -0.3343911 -0.90096265 0.2764941
vn 0.42057085 0.90725976 -2.0692678E-05
vn 0.42057085 0.90725976 -2.0692678E-05
vn 0.42057085 0.90725976 -2.0692678E-05
vn -0.30055067 0.92082024 0.24851437
vn -0.30055067 0.92082024 0.24851437
vn -0.30055067 0.92082024 0.24851437
vn -0 0 -1
vn -0 0 -1
vn -0 0 -1
vn -0 0 -1
vn -0 0 -1
vn -0 0 -1
vn -0 0 -1
vn -0 0 -1
vn 0.14044611 -0.9900857 0.0022831107
vn 0.14044611 -0.9900857 0.0022831107
vn 0.14044611 -0.9900857 0.0022831107
vn 0.14044611 -0.9900857 0.0022831107
vn 0.17465597 -0.9844208 -0.020269675
vn 0.17465597 -0.9844208 -0.020269675
vn -0.07776535 0.9969715 0.0006718861
vn -0.07776535 0.9969715 0.0006718861
vn -0.07776535 0.9969715 0.0006718861
vn -0.07776535 0.9969715 0.0006718861
vn -0.05653352 0.99809974 0.024512487
vn -0.05653352 0.99809974 0.024512487
vn 1.3142457E-05 -0.99999964 0.00089542376
vn 1.3142457E-05 -0.99999964 0.00089542376
vn 1.3142457E-05 -0.99999964 0.00089542376
vn 1.3142457E-05 -0.99999964 0.00089542376
vn 1.3150763E-05 0.99999964 0.00089599466
vn 1.3150763E-05 0.99999964 0.00089599466
vn 1.3150763E-05 0.99999964 0.00089599466
vn 1.3150763E-05 0.99999964 0.00089599466
vn 0.757468 0.6527855 0.010651369
vn 0.757468 -0.6527855 0.010651369
vn 0.7533648 -0.65713793 -0.024720497
vn 0.7614256 0.6478328 -0.023316732
vn 0.8165115 0.57629466 -0.03454777
vn 0.763735 -0.6454133 0.01226859
vn 0.30623358 0.021089038 0.95172286
vn 0.14044596 0.9900857 0.002283673
vn 0.14044596 0.9900857 0.002283673
vn 0.14044596 0.9900857 0.002283673
vn 0.14044596 0.9900857 0.002283673
vn -0.04676288 -0.9987 0.0202841
vn -0.04676288 -0.9987 0.0202841
vn -0.04676288 -0.9987 0.0202841
vn -0.04676288 -0.9987 0.0202841
vn -0.07776539 -0.9969715 0.0006713099
vn -0.07776539 -0.9969715 0.0006713099
vn -0.07388723 0.99702495 0.021950094
vn -0.07388723 0.99702495 0.021950094
vn -0.07388723 0.99702495 0.021950094
vn -0.07388723 0.99702495 0.021950094
vn 0.22668698 0.9738168 -0.017143143
vn 0.22668698 0.9738168 -0.017143143
vn 0.22668698 0.9738168 -0.017143143
vn 0.22668698 0.9738168 -0.017143143
vn -0.0989945 -0.99482286 0.022967292
vn -0.0989945 -0.99482286 0.022967292
vn -0.0989945 -0.99482286 0.022967292
vn -0.0989945 -0.99482286 0.022967292
vn -0.92388034 -0.38268155 0
vn -0.92388034 -0.38268155 0
vn -0.38268155 -0.92388034 0
vn -0.92388034 0.38268155 0
vn -0.38268155 -0.92388034 0
vn -0.92388034 0.38268155 0
vn 0.38268155 -0.92388034 0
vn 0.38268155 -0.92388034 0
vn 0.92388034 -0.38268155 0
vn 0.92388034 -0.38268155 0
vn -0.38268155 0.92388034 0
vn -0.38268155 0.92388034 0
vn 0.92388034 0.38268155 0
vn 0.92388034 0.38268155 0
vn 0.38268155 0.92388034 0
vn 0.38268155 0.92388034 0
vn 0.38268155 0.92388034 0
vn -0.38268155 0.92388034 0
vn -0.2971048 0.7172937 -0.63025284
vn -0.92388034 0.38268155 0
vn 0.2971048 0.7172937 -0.63025284
vn -0.7172937 0.2971048 -0.63025284
vn 0.7172937 0.2971048 -0.63025284
vn 0.92388034 0.38268155 0
vn 0.92388034 -0.38268155 0
vn 0.7172937 -0.2971048 -0.63025284
vn -0.7172937 -0.2971048 -0.63025284
vn -0.92388034 -0.38268155 0
vn -0.38268155 -0.92388034 0
vn -0.2971048 -0.7172937 -0.63025284
vn 0.38268155 -0.92388034 0
vn 0.2971048 -0.7172937 -0.63025284
vn 0.38268155 0.92388034 0
vn -0.22679073 0.5566155 -0.7992153
vn -0.38268155 0.92388034 0
vn 0.22685419 0.5566213 -0.79919326
vn -0.5506915 0.229292 -0.80259836
vn 0.92388034 0.38268155 0
vn -0.92388034 0.38268155 0
vn 0.55081505 0.22941472 -0.80247843
vn -0.5506915 -0.229292 -0.80259836
vn 0.92388034 -0.38268155 0
vn -0.92388034 -0.38268155 0
vn 0.55081505 -0.22941472 -0.80247843
vn -0.22679073 -0.5566155 -0.7992153
vn 0.38268155 -0.92388034 0
vn -0.38268155 -0.92388034 0
vn 0.22685419 -0.5566213 -0.79919326
vn -0.21467575 -0.7317105 -0.6469267
vn -0.21522054 -0.7348383 0.6431895
vn 0.21522054 -0.7348383 0.6431895
vn 0.2147651 -0.731825 -0.6467674
vn -0.6936331 -0.37947175 -0.61226976
vn 0.6951546 -0.38023227 0.6100685
vn -0.6951546 -0.38023227 0.6100685
vn 0.69370365 -0.37947696 -0.6121866
vn -0.6936331 0.37947175 -0.61226976
vn 0.6951546 0.38023227 0.6100685
vn -0.6951546 0.38023227 0.6100685
vn 0.69370365 0.37947696 -0.6121866
vn -0.21467575 0.7317105 -0.6469267
vn 0.21522054 0.7348383 0.6431895
vn -0.21522054 0.7348383 0.6431895
vn 0.2147651 0.731825 -0.6467674
vn -0.0032635191 0 -0.99999475
vn -0.0032635191 0 -0.99999475
vn -0.0032635191 0 -0.99999475
vn -0.0032635191 0 -0.99999475
vn -0 0.016838295 -0.99985826
vn -0 -0.016838267 -0.99985826
vn -0 0.016838295 -0.99985826
vn -0 -0.016838267 -0.99985826
vn -0 0.016838295 -0.99985826
vn -0 -0.016838267 -0.99985826
vn -0 0.016838295 -0.99985826
vn -0 -0.016838267 -0.99985826
vn 0.0035860152 0.0051246583 -0.99998045
vn 0.0035089543 0 -0.9999939
vn 0.0035860152 0.0051246583 -0.99998045
vn 0.0035089543 0 -0.9999939
vn 0.010767717 0 0.99994206
vn 0.010767717 0 0.99994206
vn 0.010767717 0 0.99994206
vn 0.010767717 0 0.99994206
vn -0 -0.021624453 0.9997662
vn -0 0.021624962 0.9997662
vn -0 -0.021624453 0.9997662
vn -0 0.021624962 0.9997662
vn -0 -0.021624453 0.9997662
vn -0 0.021624962 0.9997662
vn -0 -0.021624453 0.9997662
vn -0 0.021624962 0.9997662
vn -0.0075815585 -0.015873607 0.99984527
vn -0.010767846 0 0.99994206
vn -0.0075815585 -0.015873607 0.99984527
vn -0.010767846 0 0.99994206
vn -0.37150574 0.30772138 0.87595147
vn -0.6248585 -0.5132483 0.5883265
vn -0.37150574 -0.30772138 0.87595147
vn -0.6248585 0.5132483 0.5883265
vn -0.067446694 0.68826145 0.72232056
vn -0.071017 -0.72433066 0.68578553
vn -0.06744812 -0.6882455 0.72233576
vn -0.071017 0.72433066 0.68578553
vn 0.067446694 0.68826145 0.72232056
vn 0.071017 -0.72433066 0.68578553
vn 0.06744812 -0.6882455 0.72233576
vn 0.071017 0.72433066 0.68578553
vn 0.37150574 0.30772138 0.87595147
vn 0.6248585 -0.5132483 0.5883265
vn 0.37150574 -0.30772138 0.87595147
vn 0.6248585 0.5132483 0.5883265
g Sword03_0
f 3/3/3 2/2/2 1/1/1
f 6/6/6 5/5/5 4/4/4
f 9/9/9 8/8/8 7/7/7
f 12/12/12 11/11/11 10/10/10
f 15/15/15 14/14/14 13/13/13
f 13/13/13 16/16/16 15/15/15
f 13/13/13 17/17/17 16/16/16
f 17/17/17 18/18/18 16/16/16
f 17/17/17 19/19/19 18/18/18
f 19/19/19 20/20/20 18/18/18
f 23/23/23 22/22/22 21/21/21
f 24/24/24 23/23/23 21/21/21
f 24/24/24 25/25/25 23/23/23
f 25/25/25 26/26/26 23/23/23
f 29/29/29 28/28/28 27/27/27
f 28/28/28 30/30/30 27/27/27
f 28/28/28 31/31/31 30/30/30
f 31/31/31 32/32/32 30/30/30
f 35/35/35 34/34/34 33/33/33
f 36/36/36 35/35/35 33/33/33
f 39/39/39 38/38/38 37/37/37
f 40/40/40 39/39/39 37/37/37
f 43/43/43 42/42/42 41/41/41
f 44/44/44 43/43/43 41/41/41
f 44/44/44 45/45/45 43/43/43
f 45/45/45 46/46/46 43/43/43
f 45/45/45 47/47/47 46/46/46
f 50/50/50 49/49/49 48/48/48
f 51/51/51 50/50/50 48/48/48
f 54/54/54 53/53/53 52/52/52
f 55/55/55 54/54/54 52/52/52
f 55/55/55 52/52/52 56/56/56
f 52/52/52 57/57/57 56/56/56
f 60/60/60 59/59/59 58/58/58
f 61/61/61 60/60/60 58/58/58
f 64/64/64 63/63/63 62/62/62
f 65/65/65 64/64/64 62/62/62
f 68/68/68 67/67/67 66/66/66
f 69/69/69 68/68/68 66/66/66
f 72/72/72 71/71/71 70/70/70
f 70/70/70 71/71/71 73/73/73
f 74/74/74 72/72/72 70/70/70
f 75/75/75 70/70/70 73/73/73
f 76/76/76 72/72/72 74/74/74
f 77/77/77 76/76/76 74/74/74
f 77/77/77 78/78/78 76/76/76
f 78/78/78 79/79/79 76/76/76
f 75/75/75 73/73/73 80/80/80
f 73/73/73 81/81/81 80/80/80
f 78/78/78 82/82/82 79/79/79
f 82/82/82 83/83/83 79/79/79
f 80/80/80 81/81/81 84/84/84
f 84/84/84 83/83/83 82/82/82
f 85/85/85 80/80/80 84/84/84
f 85/85/85 84/84/84 82/82/82
f 88/88/88 87/87/87 86/86/86
f 89/89/89 87/87/87 88/88/88
f 90/90/90 88/88/88 86/86/86
f 91/91/91 89/89/89 88/88/88
f 90/90/90 86/86/86 92/92/92
f 86/86/86 93/93/93 92/92/92
f 92/92/92 93/93/93 94/94/94
f 95/95/95 92/92/92 94/94/94
f 91/91/91 96/96/96 89/89/89
f 96/96/96 97/97/97 89/89/89
f 98/98/98 97/97/97 96/96/96
f 99/99/99 98/98/98 96/96/96
f 95/95/95 94/94/94 100/100/100
f 100/100/100 98/98/98 99/99/99
f 101/101/101 95/95/95 100/100/100
f 101/101/101 100/100/100 99/99/99
f 104/104/104 103/103/103 102/102/102
f 103/103/103 105/105/105 102/102/102
f 106/106/106 103/103/103 104/104/104
f 102/102/102 105/105/105 107/107/107
f 108/108/108 106/106/106 104/104/104
f 105/105/105 109/109/109 107/107/107
f 110/110/110 106/106/106 108/108/108
f 107/107/107 109/109/109 111/111/111
f 112/112/112 110/110/110 108/108/108
f 109/109/109 113/113/113 111/111/111
f 114/114/114 110/110/110 112/112/112
f 111/111/111 113/113/113 115/115/115
f 116/116/116 114/114/114 112/112/112
f 113/113/113 117/117/117 115/115/115
f 117/117/117 114/114/114 116/116/116
f 115/115/115 117/117/117 116/116/116
f 120/120/120 119/119/119 118/118/118
f 121/121/121 120/120/120 118/118/118
f 118/118/118 119/119/119 122/122/122
f 123/123/123 120/120/120 121/121/121
f 119/119/119 124/124/124 122/122/122
f 125/125/125 123/123/123 121/121/121
f 122/122/122 124/124/124 126/126/126
f 127/127/127 123/123/123 125/125/125
f 124/124/124 128/128/128 126/126/126
f 129/129/129 127/127/127 125/125/125
f 126/126/126 128/128/128 130/130/130
f 131/131/131 127/127/127 129/129/129
f 128/128/128 132/132/132 130/130/130
f 133/133/133 131/131/131 129/129/129
f 130/130/130 132/132/132 133/133/133
f 132/132/132 131/131/131 133/133/133
f 136/136/136 135/135/135 134/134/134
f 137/137/137 136/136/136 134/134/134
f 134/134/134 135/135/135 138/138/138
f 139/139/139 136/136/136 137/137/137
f 135/135/135 140/140/140 138/138/138
f 141/141/141 139/139/139 137/137/137
f 138/138/138 140/140/140 142/142/142
f 143/143/143 139/139/139 141/141/141
f 140/140/140 144/144/144 142/142/142
f 145/145/145 143/143/143 141/141/141
f 142/142/142 144/144/144 146/146/146
f 147/147/147 143/143/143 145/145/145
f 144/144/144 148/148/148 146/146/146
f 149/149/149 147/147/147 145/145/145
f 146/146/146 148/148/148 149/149/149
f 148/148/148 147/147/147 149/149/149
f 152/152/152 151/151/151 150/150/150
f 153/153/153 152/152/152 150/150/150
f 150/150/150 151/151/151 154/154/154
f 155/155/155 152/152/152 153/153/153
f 151/151/151 156/156/156 154/154/154
f 157/157/157 155/155/155 153/153/153
f 154/154/154 156/156/156 158/158/158
f 159/159/159 155/155/155 157/157/157
f 156/156/156 160/160/160 158/158/158
f 161/161/161 159/159/159 157/157/157
f 158/158/158 160/160/160 162/162/162
f 163/163/163 159/159/159 161/161/161
f 160/160/160 164/164/164 162/162/162
f 165/165/165 163/163/163 161/161/161
f 162/162/162 164/164/164 165/165/165
f 164/164/164 163/163/163 165/165/165
f 168/168/168 167/167/167 166/166/166
f 167/167/167 169/169/169 166/166/166
f 166/166/166 169/169/169 170/170/170
f 171/171/171 167/167/167 168/168/168
f 169/169/169 167/167/167 171/171/171
f 172/172/172 171/171/171 168/168/168
f 169/169/169 173/173/173 170/170/170
f 173/173/173 169/169/169 171/171/171
f 170/170/170 173/173/173 174/174/174
f 175/175/175 171/171/171 172/172/172
f 173/173/173 171/171/171 175/175/175
f 176/176/176 175/175/175 172/172/172
f 173/173/173 177/177/177 174/174/174
f 177/177/177 173/173/173 175/175/175
f 174/174/174 177/177/177 178/178/178
f 179/179/179 175/175/175 176/176/176
f 177/177/177 175/175/175 179/179/179
f 180/180/180 179/179/179 176/176/176
f 177/177/177 181/181/181 178/178/178
f 179/179/179 181/181/181 177/177/177
f 181/181/181 179/179/179 180/180/180
f 178/178/178 181/181/181 180/180/180
