g Sword07
v -0.3756516 -0.033423103 0.14508484
v -0.3192725 -0.02270575 0.14508484
v -0.3153515 -0.0334231 0.16876191
v -0.15560994 -0.03342311 0.08990476
v -0.124104396 -0.033423107 0.123442866
v -0.12513822 -0.024209285 0.14508484
v -0.15906847 -0.033423092 0.2002649
v -0.12617205 -0.0334231 0.16672677
v -0.15733919 -0.017600678 0.14508484
v -0.12513822 -0.024209285 0.14508484
v -0.15906847 -0.033423092 0.2002649
v -0.15560994 -0.03342311 0.08990476
v -0.12513822 -0.024209285 0.14508484
v -0.15733919 -0.017600678 0.14508484
v -0.31538093 -0.033423107 0.12140786
v -0.3192725 -0.02270575 0.14508484
v -0.3756516 -0.033423103 0.14508484
v 0.22111335 -0.033423103 0.14508484
v 0.16081321 -0.0334231 0.16876191
v 0.1647342 -0.02270575 0.14508484
v 0.0010716543 -0.03342311 0.08990476
v -0.02940005 -0.024209285 0.14508484
v -0.030433867 -0.033423107 0.123442866
v 0.0045301914 -0.033423092 0.2002649
v -0.028366223 -0.0334231 0.16672677
v 0.002800919 -0.017600678 0.14508484
v 0.0045301914 -0.033423092 0.2002649
v -0.02940005 -0.024209285 0.14508484
v 0.0010716543 -0.03342311 0.08990476
v 0.002800919 -0.017600678 0.14508484
v -0.02940005 -0.024209285 0.14508484
v 0.16084266 -0.033423107 0.12140786
v 0.22111335 -0.033423103 0.14508484
v 0.1647342 -0.02270575 0.14508484
v -0.3756516 -0.033423103 0.14508484
v -0.3153515 -0.0334231 0.16876191
v -0.3192725 -0.044140454 0.14508484
v -0.15733919 -0.04924553 0.14508486
v -0.15906847 -0.033423092 0.2002649
v -0.12513822 -0.042636923 0.14508484
v -0.15560994 -0.03342311 0.08990476
v -0.15733919 -0.04924553 0.14508486
v -0.12513822 -0.042636923 0.14508484
v -0.31538093 -0.033423107 0.12140786
v -0.3756516 -0.033423103 0.14508484
v -0.3192725 -0.044140454 0.14508484
v 0.22111335 -0.033423103 0.14508484
v 0.1647342 -0.044140454 0.14508484
v 0.16081321 -0.0334231 0.16876191
v 0.002800919 -0.04924553 0.14508486
v -0.02940005 -0.042636923 0.14508484
v 0.0045301914 -0.033423092 0.2002649
v 0.0010716543 -0.03342311 0.08990476
v -0.02940005 -0.042636923 0.14508484
v 0.002800919 -0.04924553 0.14508486
v 0.16084266 -0.033423107 0.12140786
v 0.1647342 -0.044140454 0.14508484
v 0.22111335 -0.033423103 0.14508484
v -0.0927921 0.004108766 0.2849901
v -0.116367914 -0.009944722 0.2849901
v -0.116367914 -0.033423487 0.2849901
v -0.07726908 0.004108766 0.2849901
v -0.07726908 -0.033423487 0.2849901
v -0.061746057 0.004108766 0.2849901
v -0.03817025 -0.009944722 0.2849901
v -0.03817025 -0.033423487 0.2849901
v -0.0927921 -0.07095574 0.2849901
v -0.07726908 -0.07095574 0.2849901
v -0.061746057 -0.07095574 0.2849901
v -0.116367914 -0.033423487 0.2849901
v -0.03817025 -0.033423487 0.2849901
v -0.07726908 -0.06418788 0.3331095
v -0.116367914 -0.056902252 0.2849901
v -0.086679235 -0.06418788 0.3331095
v -0.09366371 -0.055393644 0.3331095
v -0.09366371 -0.033423476 0.3331095
v -0.07726908 -0.033423476 0.3331095
v -0.06785892 -0.06418788 0.3331095
v -0.09366371 -0.011453314 0.3331095
v -0.116367914 -0.009944722 0.2849901
v -0.086679235 -0.002659086 0.3331095
v -0.0927921 0.004108766 0.2849901
v -0.07726908 -0.002659086 0.3331095
v -0.07726908 0.004108766 0.2849901
v -0.061746057 0.004108766 0.2849901
v -0.06785892 -0.002659086 0.3331095
v -0.03817025 -0.009944722 0.2849901
v -0.03817025 -0.056902252 0.2849901
v -0.060874455 -0.055393644 0.3331095
v -0.060874455 -0.033423476 0.3331095
v -0.060874455 -0.011453314 0.3331095
v -0.11302897 -0.03342356 -0.1844306
v -0.10674381 -0.011711536 -0.1844306
v -0.092509985 0.0025223007 -0.1844306
v -0.07726908 -0.03342356 -0.1844306
v -0.07726908 0.0025223007 -0.1844306
v -0.062028177 0.0025223007 -0.1844306
v -0.047794342 -0.011711536 -0.1844306
v -0.041509185 -0.03342356 -0.1844306
v -0.041509185 -0.03342356 -0.1844306
v -0.047794342 -0.055135593 -0.18443058
v -0.041509185 -0.033423573 -0.25941217
v -0.047794342 -0.011711536 -0.1844306
v -0.047794342 -0.011711548 -0.25941217
v -0.062028177 0.0025223007 -0.1844306
v -0.062028177 0.0025222884 -0.25941217
v -0.07726908 0.0025223007 -0.1844306
v -0.07726908 0.0025222884 -0.25941217
v -0.092509985 0.0025222884 -0.25941217
v -0.092509985 0.0025223007 -0.1844306
v -0.10674381 -0.011711548 -0.25941217
v -0.10674381 -0.011711536 -0.1844306
v -0.11302897 -0.033423573 -0.25941217
v -0.047794342 -0.055135604 -0.25941217
v -0.11302897 -0.03342356 -0.1844306
v -0.062028177 -0.06936943 -0.18443058
v -0.062028177 -0.06936944 -0.25941217
v -0.07726908 -0.06936943 -0.18443058
v -0.07726908 -0.06936944 -0.25941217
v -0.092509985 -0.06936944 -0.25941217
v -0.092509985 -0.06936943 -0.18443058
v -0.10674381 -0.055135604 -0.25941217
v -0.10674381 -0.055135593 -0.18443058
v -0.092509985 0.0025222884 -0.25941217
v -0.10674381 -0.011711548 -0.25941217
v -0.11302897 -0.033423573 -0.25941217
v -0.07726908 0.0025222884 -0.25941217
v -0.07726908 -0.033423573 -0.25941217
v -0.062028177 0.0025222884 -0.25941217
v -0.047794342 -0.011711548 -0.25941217
v -0.041509185 -0.033423573 -0.25941217
v -0.047794342 -0.055135604 -0.25941217
v -0.062028177 -0.06936944 -0.25941217
v -0.07726908 -0.06936944 -0.25941217
v -0.092509985 -0.06936944 -0.25941217
v -0.10674381 -0.055135604 -0.25941217
v -0.3192725 -0.02270575 0.14508484
v -0.15733919 -0.017600678 0.14508484
v -0.15906847 -0.033423092 0.2002649
v -0.3153515 -0.0334231 0.16876191
v -0.31538093 -0.033423107 0.12140786
v -0.15560994 -0.03342311 0.08990476
v -0.15733919 -0.017600678 0.14508484
v -0.3192725 -0.02270575 0.14508484
v 0.1647342 -0.02270575 0.14508484
v 0.16081321 -0.0334231 0.16876191
v 0.0045301914 -0.033423092 0.2002649
v 0.002800919 -0.017600678 0.14508484
v 0.16084266 -0.033423107 0.12140786
v 0.1647342 -0.02270575 0.14508484
v 0.002800919 -0.017600678 0.14508484
v 0.0010716543 -0.03342311 0.08990476
v -0.05566117 -0.045132324 1.192898
v 0.002562724 -0.033423252 1.2891252
v -0.038132336 -0.047637828 1.1910367
v -0.008934833 -0.03342325 1.3110554
v -0.07319001 -0.042626824 1.1947596
v -0.02043239 -0.033423245 1.3329856
v -0.10662145 -0.042942874 0.96399444
v -0.12629916 -0.035035618 1.2003999
v -0.07319001 -0.042626824 1.1947596
v -0.15799329 -0.035035558 0.96854335
v -0.10958124 -0.0430645 0.7190469
v -0.15970865 -0.035035487 0.7230803
v -0.15753469 -0.035035335 0.42554763
v -0.11036928 -0.040933236 0.42430618
v -0.10724779 -0.039414536 0.24049532
v -0.14793271 -0.035034962 0.23795563
v -0.17605409 -0.03342339 0.42539394
v -0.16537505 -0.033423424 0.23756835
v -0.17822808 -0.03342334 0.72292656
v -0.15970865 -0.035035487 0.7230803
v -0.1765127 -0.033423305 0.9683896
v -0.15799329 -0.035035558 0.96854335
v -0.14481854 -0.033423267 1.2002461
v -0.12629916 -0.035035618 1.2003999
v -0.055267856 -0.033423234 1.3994303
v -0.02043239 -0.033423245 1.3329856
v -0.07319001 -0.042626824 1.1947596
v -0.08039142 -0.042305525 0.24217176
v -0.02150691 -0.04957609 0.24076293
v -0.02150691 -0.03342342 0.24076292
v -0.0938196 -0.04086003 0.24133354
v -0.10724779 -0.039414536 0.24049532
v -0.14793271 -0.035034962 0.23795563
v -0.16537505 -0.033423424 0.23756835
v -0.15560994 -0.03342311 0.08990476
v -0.12513822 -0.042636923 0.14508484
v -0.124104396 -0.033423107 0.123442866
v -0.07726913 -0.04924553 0.14508486
v -0.07726913 -0.03342311 0.09918623
v -0.07726913 -0.033423096 0.19098344
v -0.07726913 -0.033423103 0.14508484
v -0.12617205 -0.0334231 0.16672677
v -0.15906847 -0.033423092 0.2002649
v -0.07726913 -0.042636923 0.14508484
v -0.12513822 -0.024209285 0.14508484
v -0.02940005 -0.042636923 0.14508484
v -0.07726913 -0.017600678 0.14508484
v -0.07726913 -0.024209285 0.14508484
v -0.02940005 -0.024209285 0.14508484
v -0.028366223 -0.0334231 0.16672677
v 0.0045301914 -0.033423092 0.2002649
v -0.030433867 -0.033423107 0.123442866
v 0.0010716543 -0.03342311 0.08990476
v -0.3192725 -0.044140454 0.14508484
v -0.3153515 -0.0334231 0.16876191
v -0.15906847 -0.033423092 0.2002649
v -0.15733919 -0.04924553 0.14508486
v -0.31538093 -0.033423107 0.12140786
v -0.3192725 -0.044140454 0.14508484
v -0.15733919 -0.04924553 0.14508486
v -0.15560994 -0.03342311 0.08990476
v 0.1647342 -0.044140454 0.14508484
v 0.002800919 -0.04924553 0.14508486
v 0.0045301914 -0.033423092 0.2002649
v 0.16081321 -0.0334231 0.16876191
v 0.16084266 -0.033423107 0.12140786
v 0.0010716543 -0.03342311 0.08990476
v 0.002800919 -0.04924553 0.14508486
v 0.1647342 -0.044140454 0.14508484
v -0.05566117 -0.021714209 1.192898
v -0.038132336 -0.019208707 1.1910367
v 0.002562724 -0.033423252 1.2891252
v -0.008934833 -0.03342325 1.3110554
v -0.07319001 -0.024219709 1.1947596
v -0.02043239 -0.033423245 1.3329856
v -0.10662145 -0.023903735 0.96399444
v -0.07319001 -0.024219709 1.1947596
v -0.12629916 -0.031810917 1.2003999
v -0.15799329 -0.031811047 0.96854335
v -0.10958124 -0.023782186 0.7190469
v -0.15970865 -0.031811193 0.7230803
v -0.15753469 -0.031811446 0.42554763
v -0.11036928 -0.025913546 0.42430618
v -0.10724779 -0.027432304 0.24049532
v -0.14793271 -0.031811886 0.23795563
v -0.17605409 -0.03342339 0.42539394
v -0.16537505 -0.033423424 0.23756835
v -0.17822808 -0.03342334 0.72292656
v -0.15970865 -0.031811193 0.7230803
v -0.1765127 -0.033423305 0.9683896
v -0.15799329 -0.031811047 0.96854335
v -0.14481854 -0.033423267 1.2002461
v -0.12629916 -0.031810917 1.2003999
v -0.055267856 -0.033423234 1.3994303
v -0.02043239 -0.033423245 1.3329856
v -0.07319001 -0.024219709 1.1947596
v -0.02150691 -0.03342342 0.24076292
v -0.02150691 -0.017270751 0.24076292
v -0.08039142 -0.024541317 0.24217176
v -0.0938196 -0.025986811 0.24133354
v -0.14793271 -0.031811886 0.23795563
v -0.10724779 -0.027432304 0.24049532
v -0.16537505 -0.033423424 0.23756835
v -0.0938196 -0.025986811 0.24133354
v -0.11036928 -0.025913546 0.42430618
v -0.10724779 -0.027432304 0.24049532
v -0.094802186 -0.023966925 0.42389643
v -0.08039142 -0.024541317 0.24217176
v -0.07923509 -0.022020305 0.4234867
v -0.07649182 -0.018482186 0.7163845
v -0.09303653 -0.021132186 0.7177157
v -0.10958124 -0.023782186 0.7190469
v -0.10662145 -0.023903735 0.96399444
v -0.08966601 -0.0212939 0.96249306
v -0.07319001 -0.024219709 1.1947596
v -0.072710566 -0.018684067 0.9609917
v -0.05566117 -0.021714209 1.192898
v -0.038132336 -0.019208707 1.1910367
v -0.0938196 -0.04086003 0.24133354
v -0.10724779 -0.039414536 0.24049532
v -0.11036928 -0.040933236 0.42430618
v -0.094802186 -0.042879857 0.42389643
v -0.08039142 -0.042305525 0.24217176
v -0.07923509 -0.044826478 0.4234867
v -0.07649182 -0.0483645 0.7163845
v -0.09303653 -0.0457145 0.7177157
v -0.10958124 -0.0430645 0.7190469
v -0.10662145 -0.042942874 0.96399444
v -0.08966601 -0.04555271 0.96249306
v -0.07319001 -0.042626824 1.1947596
v -0.072710566 -0.048162542 0.9609917
v -0.05566117 -0.045132324 1.192898
v -0.038132336 -0.047637828 1.1910367
v -0.0053246766 -0.04651812 0.29547092
v -0.02150691 -0.03342342 0.24076292
v -0.02150691 -0.04957609 0.24076293
v -0.08039142 -0.042305525 0.24217176
v -0.07923509 -0.044826478 0.4234867
v -0.0053246766 -0.033423413 0.29547092
v -0.0053246766 -0.0203287 0.29547092
v -0.02150691 -0.017270751 0.24076292
v -0.08039142 -0.024541317 0.24217176
v -0.07923509 -0.022020305 0.4234867
v -0.047711756 -0.046518102 0.42265695
v 0.012854271 -0.042154472 0.3183742
v -0.07649182 -0.0483645 0.7163845
v -0.047711756 -0.02032868 0.42265695
v 0.012854271 -0.024692344 0.3183742
v -0.07649182 -0.018482186 0.7163845
v 0.0031877756 -0.04876838 0.42385593
v 0.03833998 -0.040784754 0.33993256
v 0.0031877756 -0.018078402 0.42385593
v 0.03833998 -0.026062056 0.33993256
v -0.0035017878 -0.0483645 0.71597844
v -0.072710566 -0.048162542 0.9609917
v 0.038995415 -0.04046562 0.42355487
v 0.03833998 -0.033423405 0.33993256
v 0.039438 -0.03342339 0.4299407
v 0.027810581 -0.040005665 0.7153116
v 0.032136545 -0.033423346 0.71540767
v -0.010702886 -0.048162542 0.95637614
v -0.038132336 -0.047637828 1.1910367
v 0.021243766 -0.039904628 0.9531209
v 0.025567733 -0.033423305 0.95321745
v 0.009803213 -0.047637828 1.1850257
v 0.002562724 -0.033423252 1.2891252
v 0.04953313 -0.039128035 1.2048576
v 0.053856075 -0.033423264 1.2049544
v 0.012854271 -0.03342341 0.3183742
v -0.0053246766 -0.04651812 0.29547092
v 0.012854271 -0.042154472 0.3183742
v -0.0053246766 -0.033423413 0.29547092
v 0.03833998 -0.040784754 0.33993256
v -0.0053246766 -0.0203287 0.29547092
v 0.03833998 -0.033423405 0.33993256
v 0.012854271 -0.024692344 0.3183742
v 0.03833998 -0.026062056 0.33993256
v 0.03833998 -0.033423405 0.33993256
v 0.038995415 -0.02638116 0.42355487
v 0.039438 -0.03342339 0.4299407
v 0.027810581 -0.02684102 0.7153116
v 0.032136545 -0.033423346 0.71540767
v -0.0035017878 -0.018482186 0.71597844
v -0.072710566 -0.018684067 0.9609917
v -0.010702886 -0.018684067 0.95637614
v -0.038132336 -0.019208707 1.1910367
v 0.021243766 -0.026941981 0.9531209
v 0.025567733 -0.033423305 0.95321745
v 0.009803213 -0.019208707 1.1850257
v 0.002562724 -0.033423252 1.2891252
v 0.04953313 -0.02771849 1.2048576
v 0.053856075 -0.033423264 1.2049544
v -0.089421526 -0.0408306 -0.29925972
v -0.09568779 -0.044519074 -0.333736
v -0.084362134 -0.0068833963 -0.333736
v -0.08117212 -0.013417549 -0.29925972
v -0.06406321 -0.04846165 -0.29925972
v -0.049547512 -0.01736012 -0.333736
v -0.055813838 -0.021048594 -0.29925972
v -0.06087317 -0.054995798 -0.333736
v -0.087552175 -0.00034923517 -0.36821228
v -0.043281186 -0.013671653 -0.36821228
v -0.10195409 -0.04820753 -0.36821228
v -0.05768313 -0.06152995 -0.36821228
v -0.03701483 -0.009983188 -0.40268856
v -0.05449306 -0.068064086 -0.40268856
v -0.10822041 -0.05189597 -0.40268856
v -0.090742186 0.006184926 -0.40268856
v -0.111244604 -0.053676095 -0.44093096
v -0.05295347 -0.07121759 -0.44093096
v -0.03399058 -0.008203079 -0.44093096
v -0.092281744 0.009338408 -0.44093096
v -0.051413942 -0.074371085 -0.47917336
v -0.114268884 -0.055456217 -0.47917336
v -0.09382133 0.0124919005 -0.47917336
v -0.03096639 -0.006422963 -0.47917336
v -0.07326941 -0.032957304 -0.51359016
v -0.091618516 -0.0039824257 -0.18992603
v -0.101271495 -0.0136354035 -0.18992603
v -0.10707629 -0.03342356 -0.18992603
v -0.09488848 -0.015988035 0.16447195
v -0.07726908 -0.0039824257 -0.18992603
v -0.07726908 -0.03342356 -0.18992603
v -0.06291965 -0.0039824257 -0.18992603
v -0.07726908 -0.013658148 0.16447195
v -0.09255859 -0.013658148 0.16447195
v -0.09914959 -0.033423506 0.16447195
v -0.101271495 -0.013635332 0.2534137
v -0.07726908 -0.0039823535 0.2534137
v -0.06197957 -0.013658148 0.16447195
v -0.091618516 -0.0039823535 0.2534137
v -0.07726908 0.00023525416 0.2871672
v -0.06291965 -0.0039823535 0.2534137
v -0.092904985 0.00023525416 0.2871672
v -0.07726908 -0.033423483 0.2871672
v -0.06163317 0.00023525416 0.2871672
v -0.053266667 -0.013635332 0.2534137
v -0.05964968 -0.015988035 0.16447195
v -0.053266667 -0.0136354035 -0.18992603
v -0.047461905 -0.03342356 -0.18992603
v -0.055388592 -0.033423506 0.16447195
v -0.10916859 -0.016028352 0.2871672
v -0.101271495 -0.03342349 0.2534137
v -0.10916859 -0.033423483 0.2871672
v -0.101271495 -0.053211655 0.2534137
v -0.10916859 -0.05081862 0.2871672
v -0.092904985 -0.06708223 0.2871672
v -0.07726908 -0.06708223 0.2871672
v -0.09488848 -0.05085898 0.16447197
v -0.091618516 -0.06286463 0.2534137
v -0.09255859 -0.053188864 0.16447197
v -0.07726908 -0.06286463 0.2534137
v -0.101271495 -0.053211726 -0.18992601
v -0.091618516 -0.062864706 -0.18992601
v -0.07726908 -0.053188864 0.16447197
v -0.07726908 -0.062864706 -0.18992601
v -0.06291965 -0.062864706 -0.18992601
v -0.06197957 -0.053188864 0.16447197
v -0.06291965 -0.06286463 0.2534137
v -0.053266667 -0.053211726 -0.18992601
v -0.05964968 -0.05085898 0.16447197
v -0.053266667 -0.053211655 0.2534137
v -0.06163317 -0.06708223 0.2871672
v -0.053266667 -0.03342349 0.2534137
v -0.04536957 -0.05081862 0.2871672
v -0.04536957 -0.033423483 0.2871672
v -0.04536957 -0.016028352 0.2871672
v -0.06309892 -0.02572668 -0.2917806
v -0.06759609 -0.040670983 -0.2917806
v -0.07256131 -0.031027962 -0.27106363
v -0.077526584 -0.02138498 -0.2917806
v -0.082023755 -0.036329288 -0.2917806
v -0.081984416 -0.0010412203 -0.330294
v -0.062454868 -0.05937819 -0.33043802
v -0.048148442 -0.011223437 -0.33029395
v -0.069025174 -0.02917953 -0.2975434
v -0.044447977 -0.019777747 -0.32949
v -0.051683802 -0.017600281 -0.33297765
v -0.0706162 -0.03442564 -0.29741615
v -0.043653388 -0.017396547 -0.369708
v -0.06256156 -0.05374754 -0.33297765
v -0.055325735 -0.055925004 -0.32949
v -0.03617962 -0.01964562 -0.36719936
v -0.048503477 -0.060598336 -0.36719936
v -0.055977244 -0.058349267 -0.369708
v -0.03524672 -0.01730606 -0.40802777
v -0.027911235 -0.019513512 -0.40490878
v -0.04168119 -0.06527167 -0.40490878
v -0.049016643 -0.06306422 -0.40802777
v -0.022682894 -0.018466562 -0.4469399
v -0.015720654 -0.020561704 -0.44261813
v -0.030936707 -0.07112533 -0.44261813
v -0.037898947 -0.06903019 -0.4469399
v -0.005341161 -0.021064892 -0.48523194
v 0.0013871379 -0.023089621 -0.4803276
v -0.022003282 -0.07643397 -0.48523194
v -0.01527502 -0.0784587 -0.4803276
v -0.06007712 -0.05147686 -0.33365923
v -0.07610826 -0.03278486 -0.2974909
v -0.07256131 -0.031027963 -0.28106362
v -0.07453309 -0.027509546 -0.29761696
v -0.09425752 -0.041190986 -0.33365923
v -0.060315926 -0.059377193 -0.37136996
v -0.08432098 -0.008805776 -0.33396143
v -0.050485034 -0.018987993 -0.33396137
v -0.06276171 -0.06750472 -0.36909539
v -0.09663527 -0.04909232 -0.33043802
v -0.10086425 -0.056038573 -0.36909539
v -0.09841843 -0.047911044 -0.37136996
v -0.094123885 -0.044198956 -0.3324753
v -0.06067242 -0.06766882 -0.41074997
v -0.063068554 -0.07563128 -0.40775275
v -0.105093196 -0.06298486 -0.40775275
v -0.10269706 -0.05502239 -0.41074997
v -0.062681004 -0.08145021 -0.4509868
v -0.06491409 -0.08887089 -0.44641024
v -0.11086087 -0.07504418 -0.44641018
v -0.10862778 -0.067623496 -0.45098674
v -0.067058936 -0.103105105 -0.49046203
v -0.06917374 -0.110132754 -0.48506758
v -0.11692782 -0.088098116 -0.49046206
v -0.11904265 -0.095125765 -0.48506758
v -0.101289466 -0.04204262 -0.3287527
v -0.102750525 -0.04417271 -0.36847746
v -0.08327402 -0.008144431 -0.3324753
v -0.09043963 -0.0059881 -0.3287527
v -0.110172674 -0.041939165 -0.36572468
v -0.09790464 -0.001171913 -0.36572468
v -0.08340834 0.00069951173 -0.37156588
v -0.09048249 -0.0034054597 -0.36847746
v -0.111784056 -0.044024028 -0.40605652
v -0.11905591 -0.041835714 -0.40269673
v -0.10536967 0.003644274 -0.40269673
v -0.098097816 0.0014559599 -0.40605652
v -0.12498529 -0.04262114 -0.44421643
v -0.13186131 -0.04055195 -0.43966883
v -0.11675687 0.009640756 -0.43966883
v -0.10988085 0.007571569 -0.44421643
v -0.142952 -0.039784204 -0.48176074
v -0.14958388 -0.037788477 -0.47664094
v -0.12642936 0.015121248 -0.48176074
v -0.13306127 0.017116975 -0.47664094
v -0.0809942 0.008721839 -0.36880732
v -0.04358055 -0.002537005 -0.36880732
v -0.045994688 -0.010559334 -0.37156588
v -0.082361594 0.01065056 -0.41076875
v -0.08000399 0.018484905 -0.40732074
v -0.03901263 0.0061494154 -0.40732074
v -0.0413702 -0.0016849301 -0.41076905
v -0.0796587 0.026104907 -0.4507751
v -0.077475116 0.033361044 -0.4458341
v -0.032906044 0.019948924 -0.4458341
v -0.03508963 0.012692784 -0.4507751
v -0.07459392 0.049408045 -0.49005783
v -0.07253213 0.056259435 -0.48434752
v -0.026447106 0.03491928 -0.49005783
v -0.024385322 0.04177067 -0.48434752
v -0.051390518 -0.037510693 -0.2784171
v -0.08116396 -0.052867755 -0.2784171
v -0.074153915 -0.030150212 -0.26176018
v -0.06714384 -0.0074326885 -0.2784171
v -0.09691729 -0.022789737 -0.2784171
v -0.05930974 -0.0011368823 -0.30938274
v -0.08730219 -0.05850987 -0.30949855
v -0.041693736 -0.03477129 -0.30938274
v -0.05721735 -0.035585 -0.28490353
v -0.045179684 -0.043833785 -0.30873632
v -0.0482872 -0.036459874 -0.31188858
v -0.07910012 -0.04629143 -0.2845376
v -0.042076457 -0.042782925 -0.34220773
v -0.08262573 -0.054171532 -0.31188858
v -0.079518154 -0.06154545 -0.30873632
v -0.03896891 -0.05015683 -0.33905548
v -0.07787232 -0.07022314 -0.33905548
v -0.08097984 -0.06284923 -0.34220773
v -0.03577428 -0.049323224 -0.37326825
v -0.032758106 -0.05647991 -0.3693747
v -0.07622643 -0.078900844 -0.3693747
v -0.07924636 -0.07173525 -0.37324077
v -0.0272923 -0.060088582 -0.40494335
v -0.024505246 -0.06670187 -0.39969385
v -0.07253866 -0.09147737 -0.39969382
v -0.075333044 -0.0848466 -0.40490675
v -0.016348142 -0.07551009 -0.4358629
v -0.013692368 -0.081811644 -0.43001312
v -0.068946555 -0.1026402 -0.43586287
v -0.06629081 -0.108941734 -0.4300131
v -0.080491796 -0.054238338 -0.3124503
v -0.09100257 -0.024648825 -0.28480953
v -0.074153915 -0.030150214 -0.27176017
v -0.069118544 -0.013841102 -0.28480494
v -0.09828715 -0.020261545 -0.3124503
v -0.08663009 -0.05988047 -0.34353167
v -0.0659738 -0.0053166193 -0.31293142
v -0.048357774 -0.038951032 -0.31293142
v -0.09344049 -0.06415201 -0.34057993
v -0.10509752 -0.024533084 -0.30949855
v -0.11327781 -0.026276447 -0.34057993
v -0.10646741 -0.022004906 -0.34353167
v -0.1003374 -0.023112997 -0.31158906
v -0.09299047 -0.06566186 -0.37547827
v -0.09957878 -0.06979411 -0.3716613
v -0.12145798 -0.028019866 -0.3716613
v -0.114879474 -0.02389383 -0.37551123
v -0.104660735 -0.07423268 -0.40832585
v -0.11057435 -0.077941574 -0.4027428
v -0.13449551 -0.032268517 -0.40274274
v -0.12860845 -0.028576085 -0.40838075
v -0.12375276 -0.08660914 -0.44028896
v -0.12919067 -0.09001978 -0.43382418
v -0.1497159 -0.03703739 -0.44028896
v -0.15515378 -0.04044804 -0.43382418
v -0.10341142 -0.015818894 -0.3081435
v -0.106831536 -0.016142191 -0.34131533
v -0.06608702 -0.005446768 -0.31158906
v -0.06916104 0.0018473287 -0.3081435
v -0.109905586 -0.008848087 -0.33786976
v -0.07117833 0.011127331 -0.33786976
v -0.0581397 0.0009791813 -0.34389699
v -0.06810431 0.003833227 -0.34131533
v -0.11342387 -0.008938189 -0.37176955
v -0.11639972 -0.0018772448 -0.36759615
v -0.07319553 0.020407345 -0.36759615
v -0.07021554 0.013336259 -0.37174058
v -0.12219931 0.002499049 -0.40281403
v -0.12493585 0.008992413 -0.39732254
v -0.07725479 0.03358617 -0.39732254
v -0.07451008 0.02707369 -0.40277684
v -0.13342996 0.018575683 -0.43311936
v -0.13603203 0.024749963 -0.42704892
v -0.08127199 0.045478653 -0.43311936
v -0.08387409 0.051652927 -0.42704892
v -0.051475663 0.0051589278 -0.3403483
v -0.031997044 -0.032031815 -0.3403483
v -0.03866111 -0.03621155 -0.34389699
v -0.050060827 0.0074285627 -0.37566102
v -0.043641616 0.01145476 -0.371314
v -0.022300292 -0.029292405 -0.371314
v -0.028707404 -0.033310853 -0.37569612
v -0.03667106 0.016667943 -0.40824503
v -0.030950356 0.020255977 -0.40227956
v -0.0077463277 -0.02404765 -0.40227956
v -0.013438512 -0.027617607 -0.40829873
v -0.015883554 0.029697929 -0.44001603
v -0.010638166 0.03298789 -0.43324518
v 0.009183068 -0.018162038 -0.44001603
v 0.014428426 -0.014872072 -0.43324518
vt 0.07215437 0.8786391
vt 0.07215437 0.8786391
vt 0.07215437 0.8786391
vt 0.08777937 0.9362563
vt 0.08777937 0.9362563
vt 0.08777937 0.9362563
vt 0.08777937 0.9362563
vt 0.08777937 0.9362563
vt 0.07215437 0.8786391
vt 0.07215437 0.8786391
vt 0.07215437 0.8786391
vt 0.069224685 0.9128188
vt 0.069224685 0.9128188
vt 0.069224685 0.9128188
vt 0.069224685 0.9128188
vt 0.069224685 0.9128188
vt 0.069224685 0.9128188
vt 0.07215437 0.8786391
vt 0.07215437 0.8786391
vt 0.07215437 0.8786391
vt 0.08777937 0.9362563
vt 0.08777937 0.9362563
vt 0.08777937 0.9362563
vt 0.08777937 0.9362563
vt 0.08777937 0.9362563
vt 0.07215437 0.8786391
vt 0.07215437 0.8786391
vt 0.07215437 0.8786391
vt 0.069224685 0.9128188
vt 0.069224685 0.9128188
vt 0.069224685 0.9128188
vt 0.069224685 0.9128188
vt 0.069224685 0.9128188
vt 0.069224685 0.9128188
vt 0.069224685 0.9128188
vt 0.069224685 0.9128188
vt 0.069224685 0.9128188
vt 0.069224685 0.9128188
vt 0.069224685 0.9128188
vt 0.069224685 0.9128188
vt 0.069224685 0.9128188
vt 0.069224685 0.9128188
vt 0.069224685 0.9128188
vt 0.069224685 0.9128188
vt 0.069224685 0.9128188
vt 0.069224685 0.9128188
vt 0.069224685 0.9128188
vt 0.069224685 0.9128188
vt 0.069224685 0.9128188
vt 0.069224685 0.9128188
vt 0.069224685 0.9128188
vt 0.069224685 0.9128188
vt 0.069224685 0.9128188
vt 0.069224685 0.9128188
vt 0.069224685 0.9128188
vt 0.069224685 0.9128188
vt 0.069224685 0.9128188
vt 0.069224685 0.9128188
vt 0.09960936 0.908203
vt 0.09960936 0.908203
vt 0.09960936 0.908203
vt 0.09960936 0.908203
vt 0.09960936 0.908203
vt 0.09960936 0.908203
vt 0.09960936 0.908203
vt 0.09960936 0.908203
vt 0.09960936 0.908203
vt 0.09960936 0.908203
vt 0.09960936 0.908203
vt 0.09960936 0.908203
vt 0.09960936 0.908203
vt 0.09960936 0.908203
vt 0.09960936 0.908203
vt 0.09960936 0.908203
vt 0.09960936 0.908203
vt 0.09960936 0.908203
vt 0.09960936 0.908203
vt 0.09960936 0.908203
vt 0.09960936 0.908203
vt 0.09960936 0.908203
vt 0.09960936 0.908203
vt 0.09960936 0.908203
vt 0.09960936 0.908203
vt 0.09960936 0.908203
vt 0.09960936 0.908203
vt 0.09960936 0.908203
vt 0.09960936 0.908203
vt 0.09960936 0.908203
vt 0.09960936 0.908203
vt 0.09960936 0.908203
vt 0.09960936 0.908203
vt 0.28358012 0.59494776
vt 0.28358012 0.59494776
vt 0.28358012 0.59494776
vt 0.28358012 0.59494776
vt 0.28358012 0.59494776
vt 0.28358012 0.59494776
vt 0.28358012 0.59494776
vt 0.28358012 0.59494776
vt 0.28358012 0.59494776
vt 0.28358012 0.59494776
vt 0.28358012 0.59494776
vt 0.28358012 0.59494776
vt 0.28358012 0.59494776
vt 0.28358012 0.59494776
vt 0.28358012 0.59494776
vt 0.28358012 0.59494776
vt 0.28358012 0.59494776
vt 0.28358012 0.59494776
vt 0.28358012 0.59494776
vt 0.28358012 0.59494776
vt 0.28358012 0.59494776
vt 0.28358012 0.59494776
vt 0.28358012 0.59494776
vt 0.28358012 0.59494776
vt 0.28358012 0.59494776
vt 0.28358012 0.59494776
vt 0.28358012 0.59494776
vt 0.28358012 0.59494776
vt 0.28358012 0.59494776
vt 0.28358012 0.59494776
vt 0.28358012 0.59494776
vt 0.28358012 0.59494776
vt 0.28358012 0.59494776
vt 0.28358012 0.59494776
vt 0.28358012 0.59494776
vt 0.28358012 0.59494776
vt 0.28358012 0.59494776
vt 0.28358012 0.59494776
vt 0.28358012 0.59494776
vt 0.28358012 0.59494776
vt 0.28358012 0.59494776
vt 0.28358012 0.59494776
vt 0.28358012 0.59494776
vt 0.28358012 0.59494776
vt 0.28358012 0.59494776
vt 0.07215437 0.8786391
vt 0.07215437 0.8786391
vt 0.07215437 0.8786391
vt 0.07215437 0.8786391
vt 0.069224685 0.9128188
vt 0.069224685 0.9128188
vt 0.069224685 0.9128188
vt 0.069224685 0.9128188
vt 0.07215437 0.8786391
vt 0.07215437 0.8786391
vt 0.07215437 0.8786391
vt 0.07215437 0.8786391
vt 0.069224685 0.9128188
vt 0.069224685 0.9128188
vt 0.069224685 0.9128188
vt 0.069224685 0.9128188
vt 0.18804944 0.6254468
vt 0.18804944 0.6254468
vt 0.18804944 0.6254468
vt 0.18804944 0.6254468
vt 0.18804944 0.6254468
vt 0.18804944 0.6254468
vt 0.27477944 0.46750522
vt 0.27477944 0.46750522
vt 0.27477944 0.46750522
vt 0.27477944 0.46750522
vt 0.27477944 0.46750522
vt 0.27477944 0.46750522
vt 0.27477944 0.46750522
vt 0.27477944 0.46750516
vt 0.27477944 0.46750522
vt 0.27477944 0.46750522
vt 0.27477944 0.46750522
vt 0.27477944 0.46750522
vt 0.27477944 0.46750522
vt 0.27477944 0.46750522
vt 0.27477944 0.46750522
vt 0.27477944 0.46750522
vt 0.27477944 0.46750522
vt 0.27477944 0.46750522
vt 0.27477944 0.46750522
vt 0.27477944 0.46750522
vt 0.27477944 0.46750522
vt 0.28358012 0.59494776
vt 0.28358012 0.59494776
vt 0.28358012 0.59494776
vt 0.28358012 0.59494776
vt 0.28358012 0.59494776
vt 0.28358012 0.59494776
vt 0.28358012 0.59494776
vt 0.069224685 0.9128188
vt 0.069224685 0.9128188
vt 0.069224685 0.9128188
vt 0.069224685 0.9128188
vt 0.069224685 0.9128188
vt 0.069224685 0.9128188
vt 0.069224685 0.9128188
vt 0.069224685 0.9128188
vt 0.069224685 0.9128188
vt 0.069224685 0.9128188
vt 0.069224685 0.9128188
vt 0.069224685 0.9128188
vt 0.069224685 0.9128188
vt 0.069224685 0.9128188
vt 0.069224685 0.9128188
vt 0.069224685 0.9128188
vt 0.069224685 0.9128188
vt 0.069224685 0.9128188
vt 0.069224685 0.9128188
vt 0.069224685 0.9128188
vt 0.069224685 0.9128188
vt 0.069224685 0.9128188
vt 0.069224685 0.9128188
vt 0.069224685 0.9128188
vt 0.069224685 0.9128188
vt 0.069224685 0.9128188
vt 0.069224685 0.9128188
vt 0.069224685 0.9128188
vt 0.069224685 0.9128188
vt 0.069224685 0.9128188
vt 0.069224685 0.9128188
vt 0.069224685 0.9128188
vt 0.069224685 0.9128188
vt 0.069224685 0.9128188
vt 0.069224685 0.9128188
vt 0.18804944 0.6254468
vt 0.18804944 0.6254468
vt 0.18804944 0.6254468
vt 0.18804944 0.6254468
vt 0.18804944 0.6254468
vt 0.18804944 0.6254468
vt 0.27477944 0.46750522
vt 0.27477944 0.46750522
vt 0.27477944 0.46750522
vt 0.27477944 0.46750522
vt 0.27477944 0.46750522
vt 0.27477944 0.46750522
vt 0.27477944 0.46750522
vt 0.27477944 0.46750522
vt 0.27477944 0.46750522
vt 0.27477944 0.46750522
vt 0.27477944 0.46750522
vt 0.27477944 0.46750522
vt 0.27477944 0.46750522
vt 0.27477944 0.46750522
vt 0.27477944 0.46750522
vt 0.27477944 0.46750522
vt 0.27477944 0.46750522
vt 0.27477944 0.46750522
vt 0.27477944 0.46750522
vt 0.27477944 0.46750522
vt 0.27477944 0.46750522
vt 0.28358012 0.59494776
vt 0.28358012 0.59494776
vt 0.28358012 0.59494776
vt 0.28358012 0.59494776
vt 0.28358012 0.59494776
vt 0.28358012 0.59494776
vt 0.28358012 0.59494776
vt 0.18804944 0.6254468
vt 0.18804944 0.6254468
vt 0.18804944 0.6254468
vt 0.18804944 0.6254468
vt 0.18804944 0.6254468
vt 0.18804944 0.6254468
vt 0.18804944 0.6254468
vt 0.18804944 0.6254468
vt 0.18804944 0.6254468
vt 0.18804944 0.6254468
vt 0.18804944 0.6254468
vt 0.18804944 0.6254468
vt 0.18804944 0.6254468
vt 0.18804944 0.6254468
vt 0.18804944 0.6254468
vt 0.18804944 0.6254468
vt 0.18804944 0.6254468
vt 0.1880494 0.62544674
vt 0.18804944 0.6254468
vt 0.18804944 0.6254468
vt 0.18804944 0.6254468
vt 0.18804944 0.6254468
vt 0.18804944 0.6254468
vt 0.18804944 0.6254468
vt 0.18804944 0.6254468
vt 0.18804944 0.6254468
vt 0.18804944 0.6254468
vt 0.18804944 0.6254468
vt 0.18804944 0.6254468
vt 0.18804944 0.6254468
vt 0.2858586 0.6228952
vt 0.2860838 0.62338316
vt 0.2860838 0.62338316
vt 0.286078 0.62515885
vt 0.2853316 0.625124
vt 0.2858586 0.6228952
vt 0.2858586 0.6228952
vt 0.2860838 0.62338316
vt 0.286078 0.62515885
vt 0.2853316 0.625124
vt 0.28533503 0.6241734
vt 0.2857643 0.622347
vt 0.28412592 0.62504125
vt 0.28533503 0.6241734
vt 0.2857643 0.622347
vt 0.28412592 0.62504125
vt 0.2853301 0.6226385
vt 0.28567556 0.62157845
vt 0.2853301 0.6226385
vt 0.28567556 0.62157845
vt 0.2841276 0.6228402
vt 0.283119 0.6249273
vt 0.28533134 0.6215587
vt 0.28567556 0.62157845
vt 0.28530505 0.6215454
vt 0.28413033 0.62189597
vt 0.28412992 0.62176555
vt 0.28313798 0.6230574
vt 0.282172 0.62388456
vt 0.2831514 0.62209404
vt 0.28315097 0.6219636
vt 0.28219676 0.622439
vt 0.28176823 0.62265736
vt 0.2821151 0.621241
vt 0.2821147 0.6211106
vt 0.28358012 0.59494776
vt 0.28358012 0.59494776
vt 0.28358012 0.59494776
vt 0.28358012 0.59494776
vt 0.28358012 0.59494776
vt 0.28358012 0.59494776
vt 0.28358012 0.59494776
vt 0.28358012 0.59494776
vt 0.28358012 0.59494776
vt 0.28567556 0.62157845
vt 0.28533134 0.6215587
vt 0.28530505 0.6215454
vt 0.28413033 0.62189597
vt 0.28412992 0.62176555
vt 0.2841276 0.6228402
vt 0.283119 0.6249273
vt 0.28313798 0.6230574
vt 0.282172 0.62388456
vt 0.2831514 0.62209404
vt 0.28315097 0.6219636
vt 0.28219676 0.622439
vt 0.28176823 0.62265736
vt 0.2821151 0.621241
vt 0.2821147 0.6211106
vt 0.27679664 0.6333495
vt 0.27679664 0.6333495
vt 0.27679664 0.6333495
vt 0.27679664 0.6333495
vt 0.27679664 0.6333495
vt 0.27679664 0.6333495
vt 0.27679664 0.6333495
vt 0.27679664 0.6333495
vt 0.27679664 0.6333495
vt 0.27679664 0.6333495
vt 0.27679664 0.6333495
vt 0.27679664 0.6333495
vt 0.27679664 0.6333495
vt 0.27679664 0.6333495
vt 0.27679664 0.6333495
vt 0.27679664 0.6333495
vt 0.27679664 0.6333495
vt 0.27679664 0.6333495
vt 0.27679664 0.6333495
vt 0.27679664 0.6333495
vt 0.27679664 0.6333495
vt 0.27679664 0.6333495
vt 0.27679664 0.6333495
vt 0.27679664 0.6333495
vt 0.27679664 0.6333495
vt 0.109374985 0.96679676
vt 0.109374985 0.96679676
vt 0.109374985 0.96679676
vt 0.109374985 0.96679676
vt 0.109374985 0.96679676
vt 0.109374985 0.96679676
vt 0.109374985 0.96679676
vt 0.109374985 0.96679676
vt 0.109374985 0.96679676
vt 0.109374985 0.96679676
vt 0.109374985 0.96679676
vt 0.109374985 0.96679676
vt 0.109374985 0.96679676
vt 0.109374985 0.96679676
vt 0.109374985 0.96679676
vt 0.109374985 0.96679676
vt 0.109374985 0.96679676
vt 0.109374985 0.96679676
vt 0.109374985 0.96679676
vt 0.109374985 0.96679676
vt 0.109374985 0.96679676
vt 0.109374985 0.96679676
vt 0.109374985 0.96679676
vt 0.109374985 0.96679676
vt 0.109374985 0.96679676
vt 0.109374985 0.96679676
vt 0.109374985 0.96679676
vt 0.109374985 0.96679676
vt 0.109374985 0.96679676
vt 0.109374985 0.96679676
vt 0.109374985 0.96679676
vt 0.109374985 0.96679676
vt 0.109374985 0.96679676
vt 0.109374985 0.96679676
vt 0.109374985 0.96679676
vt 0.109374985 0.96679676
vt 0.109374985 0.96679676
vt 0.109374985 0.96679676
vt 0.109374985 0.96679676
vt 0.109374985 0.96679676
vt 0.109374985 0.96679676
vt 0.109374985 0.96679676
vt 0.109374985 0.96679676
vt 0.109374985 0.96679676
vt 0.109374985 0.96679676
vt 0.109374985 0.96679676
vt 0.109374985 0.96679676
vt 0.109374985 0.96679676
vt 0.109374985 0.96679676
vt 0.109374985 0.96679676
vt 0.27679664 0.6333495
vt 0.27679664 0.6333495
vt 0.27679664 0.6333495
vt 0.27679664 0.6333495
vt 0.27679664 0.6333495
vt 0.27679664 0.6333495
vt 0.27679664 0.6333495
vt 0.27679664 0.6333495
vt 0.27679664 0.6333495
vt 0.27679664 0.6333495
vt 0.27679664 0.6333495
vt 0.27679664 0.6333495
vt 0.27679664 0.6333495
vt 0.27679664 0.6333495
vt 0.27679664 0.6333495
vt 0.27679664 0.6333495
vt 0.27679664 0.6333495
vt 0.27679664 0.6333495
vt 0.27679664 0.6333495
vt 0.27679664 0.6333495
vt 0.27679664 0.6333495
vt 0.27679664 0.6333495
vt 0.27679664 0.6333495
vt 0.27679664 0.6333495
vt 0.27679664 0.6333495
vt 0.27679664 0.6333495
vt 0.27679664 0.6333495
vt 0.27679664 0.6333495
vt 0.27679664 0.6333495
vt 0.27679664 0.6333495
vt 0.27679664 0.6333495
vt 0.27679664 0.6333495
vt 0.27679664 0.6333495
vt 0.27679664 0.6333495
vt 0.27679664 0.6333495
vt 0.27679664 0.6333495
vt 0.27679664 0.6333495
vt 0.27679664 0.6333495
vt 0.27679664 0.6333495
vt 0.27679664 0.6333495
vt 0.27679664 0.6333495
vt 0.27679664 0.6333495
vt 0.27679664 0.6333495
vt 0.27679664 0.6333495
vt 0.27679664 0.6333495
vt 0.27679664 0.6333495
vt 0.27679664 0.6333495
vt 0.27679664 0.6333495
vt 0.27679664 0.6333495
vt 0.27679664 0.6333495
vt 0.27679664 0.6333495
vt 0.27679664 0.6333495
vt 0.27679664 0.6333495
vt 0.27679664 0.6333495
vt 0.27679664 0.6333495
vt 0.27679664 0.6333495
vt 0.27679664 0.6333495
vt 0.27679664 0.6333495
vt 0.27679664 0.6333495
vt 0.27679664 0.6333495
vt 0.27679664 0.6333495
vt 0.27679664 0.6333495
vt 0.27679664 0.6333495
vt 0.27679664 0.6333495
vt 0.27679664 0.6333495
vt 0.27679664 0.6333495
vt 0.27679664 0.6333495
vt 0.27679664 0.6333495
vt 0.27679664 0.6333495
vt 0.27679664 0.6333495
vt 0.27679664 0.6333495
vt 0.27679664 0.6333495
vt 0.27679664 0.6333495
vt 0.27679664 0.6333495
vt 0.27679664 0.6333495
vt 0.27679664 0.6333495
vt 0.27679664 0.6333495
vt 0.27679664 0.6333495
vt 0.27679664 0.6333495
vt 0.27679664 0.6333495
vt 0.27679664 0.6333495
vt 0.27679664 0.6333495
vt 0.27679664 0.6333495
vt 0.27679664 0.6333495
vt 0.27679664 0.6333495
vt 0.27679664 0.6333495
vt 0.27679664 0.6333495
vt 0.27679664 0.6333495
vt 0.27679664 0.6333495
vt 0.27679664 0.6333495
vt 0.27679664 0.6333495
vt 0.27679664 0.6333495
vt 0.27679664 0.6333495
vt 0.27679664 0.6333495
vt 0.27679664 0.6333495
vt 0.27679664 0.6333495
vt 0.27679664 0.6333495
vt 0.27679664 0.6333495
vt 0.27679664 0.6333495
vt 0.27679664 0.6333495
vt 0.27679664 0.6333495
vt 0.27679664 0.6333495
vt 0.27679664 0.6333495
vt 0.27679664 0.6333495
vt 0.27679664 0.6333495
vt 0.27679664 0.6333495
vt 0.27679664 0.6333495
vt 0.27679664 0.6333495
vt 0.27679664 0.6333495
vt 0.27679664 0.6333495
vt 0.27679664 0.6333495
vt 0.27679664 0.6333495
vt 0.27679664 0.6333495
vt 0.27679664 0.6333495
vt 0.27679664 0.6333495
vt 0.27679664 0.6333495
vt 0.27679664 0.6333495
vt 0.27679664 0.6333495
vt 0.27679664 0.6333495
vt 0.27679664 0.6333495
vt 0.27679664 0.6333495
vt 0.27679664 0.6333495
vt 0.27679664 0.6333495
vt 0.27679664 0.6333495
vt 0.27679664 0.6333495
vt 0.27679664 0.6333495
vt 0.27679664 0.6333495
vt 0.27679664 0.6333495
vt 0.27679664 0.6333495
vt 0.27679664 0.6333495
vt 0.27679664 0.6333495
vt 0.27679664 0.6333495
vt 0.27679664 0.6333495
vt 0.27679664 0.6333495
vt 0.27679664 0.6333495
vt 0.27679664 0.6333495
vt 0.27679664 0.6333495
vt 0.27679664 0.6333495
vt 0.27679664 0.6333495
vt 0.27679664 0.6333495
vt 0.27679664 0.6333495
vt 0.27679664 0.6333495
vt 0.27679664 0.6333495
vt 0.27679664 0.6333495
vt 0.27679664 0.6333495
vt 0.27679664 0.6333495
vt 0.27679664 0.6333495
vt 0.27679664 0.6333495
vt 0.27679664 0.6333495
vt 0.27679664 0.6333495
vt 0.27679664 0.6333495
vt 0.27679664 0.6333495
vt 0.27679664 0.6333495
vt 0.27679664 0.6333495
vt 0.27679664 0.6333495
vt 0.27679664 0.6333495
vt 0.27679664 0.6333495
vt 0.27679664 0.6333495
vt 0.27679664 0.6333495
vt 0.27679664 0.6333495
vt 0.27679664 0.6333495
vt 0.27679664 0.6333495
vt 0.27679664 0.6333495
vt 0.27679664 0.6333495
vt 0.27679664 0.6333495
vt 0.27679664 0.6333495
vt 0.27679664 0.6333495
vt 0.27679664 0.6333495
vt 0.27679664 0.6333495
vt 0.27679664 0.6333495
vt 0.27679664 0.6333495
vt 0.27679664 0.6333495
vt 0.27679664 0.6333495
vt 0.27679664 0.6333495
vt 0.27679664 0.6333495
vt 0.27679664 0.6333495
vt 0.27679664 0.6333495
vt 0.27679664 0.6333495
vt 0.27679664 0.6333495
vt 0.27679664 0.6333495
vn -0.16864748 0.88717633 0.42950687
vn -0.16864748 0.88717633 0.42950687
vn -0.16864748 0.88717633 0.42950687
vn 0.21390803 0 -0.9768538
vn 0.33164972 0 -0.9434025
vn 0.05978724 0.998041 -0.018433634
vn 0.19364464 0 0.98107177
vn 0.36467203 0 0.931136
vn 0.19322926 0.9415253 0.27602994
vn 0.19322926 0.9415253 0.27602994
vn 0.19322926 0.9415253 0.27602994
vn 0.1938643 0.9446188 -0.26478645
vn 0.1938643 0.9446188 -0.26478645
vn 0.1938643 0.9446188 -0.26478645
vn -0.16866244 0.8872558 -0.42933676
vn -0.16866244 0.8872558 -0.42933676
vn -0.16866244 0.8872558 -0.42933676
vn 0.16864724 0.88717663 0.4295064
vn 0.16864724 0.88717663 0.4295064
vn 0.16864724 0.88717663 0.4295064
vn -0.21390803 0 -0.9768538
vn -0.05978724 0.998041 -0.018433634
vn -0.33164972 0 -0.9434025
vn -0.19364464 0 0.98107177
vn -0.36467203 0 0.931136
vn -0.19322929 0.9415253 0.27603
vn -0.19322929 0.9415253 0.27603
vn -0.19322929 0.9415253 0.27603
vn -0.19386417 0.94461894 -0.2647862
vn -0.19386417 0.94461894 -0.2647862
vn -0.19386417 0.94461894 -0.2647862
vn 0.16866232 0.887256 -0.42933658
vn 0.16866232 0.887256 -0.42933658
vn 0.16866232 0.887256 -0.42933658
vn -0.16864754 -0.88717663 0.42950645
vn -0.16864754 -0.88717663 0.42950645
vn -0.16864754 -0.88717663 0.42950645
vn 0.19322953 -0.94152504 0.27603045
vn 0.19322953 -0.94152504 0.27603045
vn 0.19322953 -0.94152504 0.27603045
vn 0.19386424 -0.944619 -0.26478592
vn 0.19386424 -0.944619 -0.26478592
vn 0.19386424 -0.944619 -0.26478592
vn -0.16866247 -0.887256 -0.42933637
vn -0.16866247 -0.887256 -0.42933637
vn -0.16866247 -0.887256 -0.42933637
vn 0.16864729 -0.8871768 0.42950594
vn 0.16864729 -0.8871768 0.42950594
vn 0.16864729 -0.8871768 0.42950594
vn -0.19322942 -0.94152504 0.27603042
vn -0.19322942 -0.94152504 0.27603042
vn -0.19322942 -0.94152504 0.27603042
vn -0.19386421 -0.944619 -0.26478598
vn -0.19386421 -0.944619 -0.26478598
vn -0.19386421 -0.944619 -0.26478598
vn 0.16866235 -0.8872562 -0.4293362
vn 0.16866235 -0.8872562 -0.4293362
vn 0.16866235 -0.8872562 -0.4293362
vn -0 0 -1
vn -0 0 -1
vn -0 0 -1
vn -0 0 -1
vn -0 0 -1
vn -0 0 -1
vn -0 0 -1
vn -0 0 -1
vn -0.26826698 -0.7700086 -0.5788951
vn -0 -0.75474674 -0.65601623
vn 0.26826698 -0.7700086 -0.5788951
vn -0.84460515 0 -0.53538966
vn 0.84460515 0 -0.53538966
vn -0 -0.65601623 0.75474674
vn -0.8149158 -0.36555544 -0.4497571
vn -0.2216914 -0.6966616 0.68228704
vn -0.54410267 -0.30705726 0.7808124
vn -0.53538966 0 0.84460515
vn -0 0 1
vn 0.2216914 -0.6966616 0.68228704
vn -0.54410267 0.30705726 0.7808124
vn -0.8149158 0.36555544 -0.4497571
vn -0.2216914 0.6966616 0.68228704
vn -0.26826698 0.7700086 -0.5788951
vn -0 0.65601623 0.75474674
vn -0 0.75474674 -0.65601623
vn 0.26826698 0.7700086 -0.5788951
vn 0.2216914 0.6966616 0.68228704
vn 0.8149158 0.36555544 -0.4497571
vn 0.8149158 -0.36555544 -0.4497571
vn 0.54410267 -0.30705726 0.7808124
vn 0.53538966 0 0.84460515
vn 0.54410267 0.30705726 0.7808124
vn -0 0 1
vn -0 0 1
vn -0 0 1
vn -0 0 1
vn -0 0 1
vn -0 0 1
vn -0 0 1
vn -0 0 1
vn 0.76032627 0 0.6495414
vn 0.65051484 -0.3842967 0.6550927
vn 0.76032627 0 -0.6495414
vn 0.65051484 0.3842967 0.6550927
vn 0.65051484 0.3842967 -0.6550927
vn 0.2971048 0.7172937 0.63025284
vn 0.2971048 0.7172937 -0.63025284
vn -0 0.70710677 0.70710677
vn -0 0.70710677 -0.70710677
vn -0.2971048 0.7172937 -0.63025284
vn -0.2971048 0.7172937 0.63025284
vn -0.65051484 0.3842967 -0.6550927
vn -0.65051484 0.3842967 0.6550927
vn -0.76032627 0 -0.6495414
vn 0.65051484 -0.3842967 -0.6550927
vn -0.76032627 0 0.6495414
vn 0.2971048 -0.7172937 0.63025284
vn 0.2971048 -0.7172937 -0.63025284
vn -0 -0.70710677 0.70710677
vn -0 -0.70710677 -0.70710677
vn -0.2971048 -0.7172937 -0.63025284
vn -0.2971048 -0.7172937 0.63025284
vn -0.65051484 -0.3842967 -0.6550927
vn -0.65051484 -0.3842967 0.6550927
vn -0 0 -1
vn -0 0 -1
vn -0 0 -1
vn -0 0 -1
vn -0 0 -1
vn -0 0 -1
vn -0 0 -1
vn -0 0 -1
vn -0 0 -1
vn -0 0 -1
vn -0 0 -1
vn -0 0 -1
vn -0 0 -1
vn -0.046840888 0.94632876 0.31979364
vn -0.046840888 0.94632876 0.31979364
vn -0.046840888 0.94632876 0.31979364
vn -0.046840888 0.94632876 0.31979364
vn -0.046501044 0.94573116 -0.3216057
vn -0.046501044 0.94573116 -0.3216057
vn -0.046501044 0.94573116 -0.3216057
vn -0.046501044 0.94573116 -0.3216057
vn 0.046840888 0.94632876 0.31979364
vn 0.046840888 0.94632876 0.31979364
vn 0.046840888 0.94632876 0.31979364
vn 0.046840888 0.94632876 0.31979364
vn 0.04650106 0.94573116 -0.3216057
vn 0.04650106 0.94573116 -0.3216057
vn 0.04650106 0.94573116 -0.3216057
vn 0.04650106 0.94573116 -0.3216057
vn 0.008909159 -0.9932708 0.11547195
vn 0.008909159 -0.9932708 0.11547195
vn 0.008909159 -0.9932708 0.11547195
vn 0.008909159 -0.9932708 0.11547195
vn -0.014706579 -0.9961035 0.08695669
vn -0.014706579 -0.9961035 0.08695669
vn -0.14469168 -0.989253 0.021044672
vn -0.14469168 -0.989253 0.021044672
vn -0.14469168 -0.989253 0.021044672
vn -0.14469168 -0.989253 0.021044672
vn -0.14190581 -0.98987246 -0.0038943198
vn -0.14190581 -0.98987246 -0.0038943198
vn -0.11607506 -0.9932079 -0.00803882
vn -0.11607506 -0.9932079 -0.00803882
vn -0.11607506 -0.9932079 -0.00803882
vn -0.11607506 -0.9932079 -0.00803882
vn -0.08671305 -0.99623305 -0.0006337606
vn -0.08920548 -0.99600154 -0.004819981
vn -0.08671305 -0.99623305 -0.0006337606
vn -0.08671305 -0.99623305 -0.0006337606
vn -0.08673145 -0.9962316 0.00060602906
vn -0.08673145 -0.9962316 0.00060602906
vn -0.08699071 -0.9954411 0.03911004
vn -0.08699071 -0.9954411 0.03911004
vn -0.08699071 -0.9954411 0.03911004
vn -0.046043325 -0.99774194 0.048898112
vn -0.046043325 -0.99774194 0.048898112
vn 0.0042887647 -0.15347949 -0.98814243
vn 0.0042887647 -0.15347949 -0.98814243
vn 0.0042887647 -0.15347949 -0.98814243
vn 0.0042887647 -0.15347949 -0.98814243
vn 0.0042887647 -0.15347949 -0.98814243
vn 0.0042887647 -0.15347949 -0.98814243
vn 0.0042887647 -0.15347949 -0.98814243
vn 0.21390803 0 -0.9768538
vn 0.05978724 -0.998041 -0.018433634
vn 0.33164972 0 -0.9434025
vn 0.3635479 -0.83028215 -0.4224505
vn 0.3938751 0 -0.919164
vn 0.39280665 0 0.9196211
vn 1 0 0
vn 0.36467203 0 0.931136
vn 0.19364464 0 0.98107177
vn 0.89443326 0 -0.44720137
vn 0.05978724 0.998041 -0.018433634
vn -0.05978724 -0.998041 -0.018433634
vn 0.3635479 0.83028215 -0.4224505
vn 0.89443326 0 -0.44720137
vn -0.05978724 0.998041 -0.018433634
vn -0.36467203 0 0.931136
vn -0.19364464 0 0.98107177
vn -0.33164972 0 -0.9434025
vn -0.21390803 0 -0.9768538
vn -0.046840888 -0.94632864 0.31979388
vn -0.046840888 -0.94632864 0.31979388
vn -0.046840888 -0.94632864 0.31979388
vn -0.046840888 -0.94632864 0.31979388
vn -0.04650109 -0.9457313 -0.32160527
vn -0.04650109 -0.9457313 -0.32160527
vn -0.04650109 -0.9457313 -0.32160527
vn -0.04650109 -0.9457313 -0.32160527
vn 0.04684089 -0.94632864 0.31979382
vn 0.04684089 -0.94632864 0.31979382
vn 0.04684089 -0.94632864 0.31979382
vn 0.04684089 -0.94632864 0.31979382
vn 0.046501096 -0.9457313 -0.32160532
vn 0.046501096 -0.9457313 -0.32160532
vn 0.046501096 -0.9457313 -0.32160532
vn 0.046501096 -0.9457313 -0.32160532
vn 0.008909692 0.9932708 0.115471594
vn 0.008909692 0.9932708 0.115471594
vn 0.008909692 0.9932708 0.115471594
vn 0.008909692 0.9932708 0.115471594
vn -0.01470685 0.9961035 0.086956404
vn -0.01470685 0.9961035 0.086956404
vn -0.14469169 0.989253 0.021044353
vn -0.14469169 0.989253 0.021044353
vn -0.14469169 0.989253 0.021044353
vn -0.14469169 0.989253 0.021044353
vn -0.14190574 0.9898726 -0.0038946501
vn -0.14190574 0.9898726 -0.0038946501
vn -0.11607514 0.9932079 -0.008039139
vn -0.11607514 0.9932079 -0.008039139
vn -0.11607514 0.9932079 -0.008039139
vn -0.11607514 0.9932079 -0.008039139
vn -0.08671314 0.99623305 -0.0006341037
vn -0.08920549 0.99600154 -0.004820351
vn -0.08671314 0.99623305 -0.0006341037
vn -0.08671314 0.99623305 -0.0006341037
vn -0.08673161 0.9962315 0.0006057322
vn -0.08673161 0.9962315 0.0006057322
vn -0.086990625 0.9954411 0.03910966
vn -0.086990625 0.9954411 0.03910966
vn -0.086990625 0.9954411 0.03910966
vn -0.046043478 0.99774194 0.048897784
vn -0.046043478 0.99774194 0.048897784
vn 0.004288841 0.15347905 -0.98814255
vn 0.004288841 0.15347905 -0.98814255
vn 0.004288841 0.15347905 -0.98814255
vn 0.004288841 0.15347905 -0.98814255
vn 0.004288841 0.15347905 -0.98814255
vn 0.004288841 0.15347905 -0.98814255
vn 0.004288841 0.15347905 -0.98814255
vn -0.11603038 0.9931859 -0.010892512
vn -0.14210661 0.9898212 -0.007735241
vn -0.11603038 0.9931859 -0.010892512
vn -0.14210661 0.9898212 -0.007735241
vn -0.11600735 0.9931717 -0.012338584
vn -0.11600735 0.9931717 -0.012338584
vn -0.1422064 0.9897899 -0.009658135
vn -0.15489615 0.9879274 0.0025736596
vn -0.15489615 0.9879274 0.0025736596
vn -0.15489615 0.9879274 0.0025736596
vn -0.15489615 0.9879274 0.0025736596
vn -0.14452708 0.98924017 0.022713337
vn -0.144445 0.98923266 0.023544919
vn -0.14452708 0.98924017 0.022713337
vn -0.144445 0.98923266 0.023544919
vn -0.11603043 -0.9931859 -0.0108922
vn -0.11603043 -0.9931859 -0.0108922
vn -0.14210656 -0.9898212 -0.0077349185
vn -0.14210656 -0.9898212 -0.0077349185
vn -0.11600739 -0.9931717 -0.012338245
vn -0.11600739 -0.9931717 -0.012338245
vn -0.14220634 -0.9897899 -0.009657812
vn -0.15489613 -0.9879274 0.002573982
vn -0.15489613 -0.9879274 0.002573982
vn -0.15489613 -0.9879274 0.002573982
vn -0.15489613 -0.9879274 0.002573982
vn -0.14452696 -0.98924017 0.022713637
vn -0.14444502 -0.98923266 0.023545245
vn -0.14452696 -0.98924017 0.022713637
vn -0.14444502 -0.98923266 0.023545245
vn 0.56078947 -0.7724398 -0.29808056
vn 0.6037631 0 -0.79716384
vn 0.43977493 -0.664698 -0.60396576
vn -0.056826424 -0.7703612 -0.6350704
vn -0.09289909 -0.995644 -0.007934877
vn 0.8873417 0 -0.46111247
vn 0.56078947 0.7724398 -0.29808056
vn 0.43977493 0.664698 -0.60396576
vn -0.056826424 0.7703612 -0.6350704
vn -0.09289909 0.995644 -0.007934877
vn -0.027741816 -0.99959046 -0.0070193815
vn 0.53946084 -0.69019616 -0.48229802
vn -0.07959454 -0.9968239 -0.0026246666
vn -0.027741816 0.99959046 -0.0070193815
vn 0.53946084 0.69019616 -0.48229802
vn -0.07959454 0.9968239 -0.0026246666
vn 0.105625056 -0.9943587 -0.009704932
vn 0.74939644 -0.5754376 -0.32753095
vn 0.105625056 0.9943587 -0.009704932
vn 0.74939644 0.5754376 -0.32753095
vn 0.12067149 -0.9926863 0.0035096665
vn -0.07815983 -0.9969117 0.007629816
vn 0.7405116 -0.6720271 -0.004699917
vn 0.9049874 0 -0.4254384
vn 0.99978966 0 0.020508507
vn 0.6237705 -0.7813688 0.0193183
vn 0.9995453 0 0.03015238
vn 0.11786425 -0.99302614 -0.0026551501
vn -0.029115004 -0.9972042 0.06882006
vn 0.56059635 -0.82784784 -0.01998969
vn 0.99910116 0 -0.042390916
vn 0.10876954 -0.99278146 0.05053938
vn 0.31730792 0 0.94832253
vn 0.56444794 -0.81113255 0.1531746
vn 0.98126477 0 0.19266398
vn 0.71805334 0 -0.695988
vn 0.56078947 -0.7724398 -0.29808056
vn 0.53946084 -0.69019616 -0.48229802
vn 0.8873417 0 -0.46111247
vn 0.74939644 -0.5754376 -0.32753095
vn 0.56078947 0.7724398 -0.29808056
vn 0.9049874 0 -0.4254384
vn 0.53946084 0.69019616 -0.48229802
vn 0.74939644 0.5754376 -0.32753095
vn 0.9049874 0 -0.4254384
vn 0.7405116 0.6720271 -0.004699917
vn 0.99978966 0 0.020508507
vn 0.6237705 0.7813688 0.0193183
vn 0.9995453 0 0.03015238
vn 0.12067149 0.9926863 0.0035096665
vn -0.07815983 0.9969117 0.007629816
vn 0.11786425 0.99302614 -0.0026551501
vn -0.029115004 0.9972042 0.06882006
vn 0.56059635 0.82784784 -0.01998969
vn 0.99910116 0 -0.042390916
vn 0.10876954 0.99278146 0.05053938
vn 0.31730792 0 0.94832253
vn 0.56444794 0.81113255 0.1531746
vn 0.98126477 0 0.19266398
vn -0.86388636 -0.4595634 0.20615956
vn -0.8623381 -0.4624508 0.20618474
vn -0.46389428 0.8615616 0.20618881
vn -0.4667922 0.8600024 0.20615765
vn 0.46678925 -0.859997 0.20618686
vn 0.8623381 0.4624508 0.20618474
vn 0.86388093 0.4595605 0.20618877
vn 0.46389428 -0.8615616 0.20618881
vn -0.46389428 0.8615616 0.20618881
vn 0.86235034 0.46242684 0.20618767
vn -0.8623381 -0.4624508 0.20618474
vn 0.46389428 -0.8615616 0.20618881
vn 0.87126696 0.46880803 0.14530271
vn 0.46783388 -0.87179035 0.14530349
vn -0.87126696 -0.46880803 0.14530271
vn -0.46783388 0.87179035 0.14530349
vn -0.87727976 -0.4712193 0.091283485
vn 0.47151977 -0.87711835 0.09128257
vn 0.87727976 0.4712193 0.091283485
vn -0.47151977 0.87711835 0.09128257
vn 0.4429602 -0.82750607 -0.34499258
vn -0.82611215 -0.4457264 -0.34477037
vn -0.43746817 0.82616603 -0.35506523
vn 0.82073975 0.44740435 -0.35526836
vn -0.00802659 -0.024751198 -0.99966145
vn -0.29765415 0.7249845 -0.62112755
vn -0.6585272 0.38070482 -0.6491576
vn -0.76939577 0 -0.6387724
vn -0.88264054 0.4695656 -0.021302275
vn -0 0.7166851 -0.6973969
vn -0 0 -1
vn 0.29765415 0.7249845 -0.62112755
vn -0 0.99917954 -0.040498205
vn -0.38985693 0.92016494 -0.036165684
vn -0.99989355 0 -0.014588075
vn -0.8977818 0.4230259 -0.12262593
vn -0 0.9932417 -0.11606385
vn 0.38985693 0.92016494 -0.036165684
vn -0.37633103 0.9195405 -0.11322587
vn -0 0.749673 0.6618083
vn 0.37633103 0.9195405 -0.11322587
vn -0.309222 0.75275964 0.5811494
vn -0 0 1
vn 0.309222 0.75275964 0.5811494
vn 0.8977818 0.4230259 -0.12262593
vn 0.88264054 0.4695656 -0.021302275
vn 0.6585272 0.38070482 -0.6491576
vn 0.76939577 0 -0.6387724
vn 0.99989355 0 -0.014588075
vn -0.77787554 0.2911845 0.5568854
vn -0.99023914 0 -0.13937873
vn -0.78351766 0 0.62136954
vn -0.8977818 -0.4230259 -0.12262593
vn -0.77787554 -0.2911845 0.5568854
vn -0.309222 -0.75275964 0.5811494
vn -0 -0.749673 0.6618083
vn -0.88264054 -0.4695656 -0.021302275
vn -0.37633103 -0.9195405 -0.11322587
vn -0.38985693 -0.92016494 -0.036165684
vn -0 -0.9932417 -0.11606385
vn -0.6585272 -0.38070482 -0.6491576
vn -0.29765415 -0.7249845 -0.62112755
vn -0 -0.99917954 -0.040498205
vn -0 -0.7166851 -0.6973969
vn 0.29765415 -0.7249845 -0.62112755
vn 0.38985693 -0.92016494 -0.036165684
vn 0.37633103 -0.9195405 -0.11322587
vn 0.6585272 -0.38070482 -0.6491576
vn 0.88264054 -0.4695656 -0.021302275
vn 0.8977818 -0.4230259 -0.12262593
vn 0.309222 -0.75275964 0.5811494
vn 0.99023914 0 -0.13937873
vn 0.77787554 -0.2911845 0.5568854
vn 0.78351766 0 0.62136954
vn 0.77787554 0.2911845 0.5568854
vn 0.7718083 0.40984675 0.4861456
vn 0.41060448 -0.7750335 0.4803407
vn -0 0 1
vn -0.4117077 0.767931 0.49069205
vn -0.7654815 -0.42302603 0.4848578
vn -0.5565819 0.76396114 0.32646582
vn 0.55277 -0.7751354 0.30595842
vn 0.8858791 0.32951513 0.3265548
vn -0.8186215 -0.41887861 -0.3929371
vn 0.75923645 0.566383 0.32057804
vn -0.5149729 0.85238785 -0.09076268
vn -0.4498174 0.8167455 -0.36137375
vn -0.472686 0.87551284 -0.10022603
vn -0.90017736 -0.42590183 -0.09104014
vn 0.31981465 -0.8915989 0.32057762
vn 0.8546861 0.4834218 0.18924865
vn 0.44594297 -0.8748258 0.18924803
vn -0.87736803 -0.46923378 -0.100225285
vn -0.47891232 0.86623555 -0.1424041
vn 0.8368107 0.50076187 0.2213265
vn 0.42147326 -0.87941724 0.22132687
vn -0.8774366 -0.45806766 -0.14240414
vn -0.46136287 0.8591537 -0.22135773
vn 0.80891675 0.5113221 0.29017848
vn 0.3923528 -0.8728446 0.29017505
vn -0.85890824 -0.46181995 -0.22135739
vn -0.04306231 0.6250902 -0.77936375
vn 0.9114225 0.35997283 -0.19932026
vn -0.38090858 -0.49749145 -0.77936566
vn 0.5613694 -0.8032033 -0.19932064
vn 0.8588072 0.5039007 -0.09238128
vn 0.81819206 0.43413717 -0.37694395
vn -0.00036623233 0.002288952 -0.9999974
vn 0.44399726 -0.7974127 -0.4086557
vn -0.4384078 0.8940284 -0.09225944
vn 0.8766599 0.4694136 -0.10544334
vn -0.8585168 -0.49658465 -0.12787719
vn 0.44152486 -0.8880854 -0.12790701
vn 0.48116648 -0.8586285 0.17673697
vn -0.8886273 -0.34166235 0.30595487
vn -0.8751102 -0.45049527 0.17673723
vn -0.47197548 0.87528336 -0.105442956
vn 0.51239556 -0.85214114 -0.106330715
vn 0.8646757 0.4769267 -0.15772428
vn 0.50323445 -0.8364147 0.21717606
vn -0.88127005 -0.41975996 0.21717405
vn -0.45785016 0.87492657 -0.15772362
vn 0.8515816 0.45043516 -0.26817358
vn 0.52233696 -0.7937446 0.31166258
vn -0.8736442 -0.37364727 0.3116626
vn -0.461549 0.8456086 -0.26817638
vn 0.6114562 0.0016480477 -0.7912765
vn 0.3473089 -0.9236952 -0.16175196
vn -0.50900126 0.3388255 -0.79127437
vn -0.7994081 -0.57860494 -0.16174936
vn -0.7515616 -0.56917983 0.33345088
vn 0.47069716 -0.8747405 -0.11520987
vn 0.89728814 0.42851683 -0.10605341
vn -0.31337532 0.8891582 0.3334572
vn -0.85067344 -0.48483467 0.20319964
vn -0.44182256 0.87378746 0.20319504
vn -0.87503976 -0.46343052 -0.13977686
vn 0.87529606 0.46966287 -0.1152107
vn 0.47603673 -0.8651551 -0.15778367
vn -0.83203346 -0.50249165 0.2349946
vn -0.41652822 0.8782252 0.23499909
vn 0.87444866 0.45874068 -0.15778653
vn 0.45659766 -0.85758936 -0.2367679
vn -0.80271953 -0.51339626 0.30342323
vn -0.38606822 0.87114084 0.30342218
vn 0.85404754 0.46318895 -0.23676747
vn 0.024750855 -0.6191071 -0.78491646
vn -0.915807 -0.35882103 -0.18040241
vn 0.36232197 0.5026179 -0.784919
vn -0.565667 0.8046601 -0.18039693
vn -0.48351675 0.8513655 0.20344146
vn 0.87305343 0.44310355 0.20356089
vn 0.47392443 -0.8694159 -0.13968396
vn -0.86263096 -0.46850336 -0.19071576
vn -0.50552243 0.8282644 0.2417132
vn 0.8786562 0.41167745 0.24183647
vn 0.46077716 -0.86680305 -0.1906222
vn -0.8486468 -0.43801126 -0.2965549
vn -0.5247166 0.78388566 0.33195734
vn 0.8701708 0.3640666 0.3320517
vn 0.46596503 -0.8336587 -0.29646218
vn -0.60110503 0.026917882 -0.7987165
vn -0.34431788 0.92937136 -0.13309434
vn 0.5161691 -0.3093108 -0.7986841
vn 0.8000676 0.5849664 -0.13306484
vn 0.8137828 -0.26548272 0.51698786
vn -0.26392993 -0.822431 0.5039328
vn -0 0 1
vn 0.2559024 0.81604946 0.5182443
vn -0.82156086 0.24922419 0.5127622
vn 0.14200439 0.9535321 0.26572794
vn -0.1503997 -0.95885915 0.2407677
vn 0.88218135 -0.37590215 0.28364328
vn -0.6621084 0.2259317 -0.71453995
vn 0.9388062 -0.20527324 0.276597
vn 0.25324532 0.96302205 -0.09195327
vn 0.23435654 0.7276375 -0.64468646
vn 0.3355011 0.9334701 -0.1267781
vn -0.9076305 0.40410006 -0.11362165
vn -0.43013075 -0.86398476 0.261759
vn 0.9214676 -0.29707432 0.2502883
vn -0.35945693 -0.9021826 0.23844771
vn -0.93167436 0.33253154 -0.14630657
vn 0.31986734 0.93002933 -0.18091533
vn 0.9207686 -0.26066574 0.29023898
vn -0.38805553 -0.8795722 0.27525544
vn -0.92000073 0.3362298 -0.20136555
vn 0.33055398 0.90272886 -0.27534467
vn 0.9021061 -0.2170194 0.37297064
vn -0.40681747 -0.8430552 0.3517918
vn -0.90446705 0.30348295 -0.29972908
vn 0.4834849 0.39092022 -0.7832138
vn 0.89145607 -0.44105867 -0.103794664
vn -0.5749166 -0.13251342 -0.8074102
vn -0.2064895 -0.9710133 -0.12039625
vn 0.97585297 -0.19056219 -0.10675633
vn 0.6947088 -0.20643196 -0.68903226
vn -0.0008240241 -0.0011292183 -0.99999905
vn -0.20887557 -0.6823858 -0.70051444
vn 0.3463012 0.93416166 -0.086125135
vn 0.9541826 -0.26380792 -0.1412123
vn -0.967431 0.20005396 -0.15509905
vn -0.33708522 -0.93205816 -0.13281982
vn -0.23014478 -0.9485652 0.21738778
vn -0.89367586 0.36886027 0.25551036
vn -0.9315555 0.2825124 0.22889093
vn 0.2601152 0.95769274 -0.12314501
vn -0.25446805 -0.96052676 -0.11240174
vn 0.945364 -0.25178373 -0.20710357
vn -0.18717332 -0.94663984 0.26237226
vn -0.9066792 0.31764904 0.27754614
vn 0.27353948 0.94333434 -0.18787338
vn 0.9002573 -0.27409354 -0.338245
vn -0.13300267 -0.9223818 0.36265966
vn -0.85102737 0.3562199 0.3858235
vn 0.24116573 0.91812056 -0.31447378
vn 0.3354933 -0.46559498 -0.8189418
vn -0.40135157 -0.9137302 -0.06335685
vn -0.22339962 0.56390095 -0.7950524
vn -0.988436 0.14490673 -0.044680588
vn -0.9355408 0.1967889 0.29332167
vn -0.336504 -0.9303758 -0.14548472
vn 0.90745 -0.39784482 -0.13510732
vn 0.43163866 0.8587299 0.27617183
vn -0.91859484 0.29017577 0.26829356
vn 0.3622365 0.8965117 0.25505185
vn -0.94503725 0.2697316 -0.18479575
vn 0.92979944 -0.32841763 -0.1661773
vn -0.3216369 -0.9255416 -0.19980612
vn -0.91745746 0.2528181 0.30717218
vn 0.39116445 0.87312347 0.29093942
vn 0.9174986 -0.33061445 -0.22111158
vn -0.3336615 -0.89596945 -0.29310206
vn -0.89790565 0.20774424 0.38808224
vn 0.4103345 0.83525735 0.36602023
vn 0.9009332 -0.29527536 -0.31801236
vn -0.49239117 -0.37175018 -0.7869897
vn -0.8927994 0.44285947 -0.08237046
vn 0.56463504 0.15229061 -0.8111688
vn 0.20429423 0.97383106 -0.09958352
vn 0.22093098 0.94335914 0.24751352
vn 0.92054945 -0.28950474 0.26225117
vn -0.25297537 -0.9533958 -0.16443858
vn -0.93332255 0.26005825 -0.24754517
vn 0.17823109 0.94059634 0.28898466
vn 0.8947323 -0.3243889 0.30696243
vn -0.2627365 -0.9378737 -0.22663273
vn -0.8842785 0.28496268 -0.36992958
vn 0.123754896 0.9153895 0.38307557
vn 0.837814 -0.36296523 0.4078285
vn -0.2258712 -0.91083986 -0.3454752
vn -0.3047315 0.4802153 -0.8225156
vn 0.40615523 0.91320837 -0.03299172
vn 0.25080878 -0.5466643 -0.79890746
vn 0.98958963 -0.14325778 -0.013764222
g Sword07_0
f 3/3/3 2/2/2 1/1/1
f 6/6/6 5/5/5 4/4/4
f 8/8/8 6/6/6 7/7/7
f 11/11/11 10/10/10 9/9/9
f 14/14/14 13/13/13 12/12/12
f 17/17/17 16/16/16 15/15/15
f 20/20/20 19/19/19 18/18/18
f 23/23/23 22/22/22 21/21/21
f 22/22/22 25/25/25 24/24/24
f 28/28/28 27/27/27 26/26/26
f 31/31/31 30/30/30 29/29/29
f 34/34/34 33/33/33 32/32/32
f 37/37/37 36/36/36 35/35/35
f 40/40/40 39/39/39 38/38/38
f 43/43/43 42/42/42 41/41/41
f 46/46/46 45/45/45 44/44/44
f 49/49/49 48/48/48 47/47/47
f 52/52/52 51/51/51 50/50/50
f 55/55/55 54/54/54 53/53/53
f 58/58/58 57/57/57 56/56/56
f 61/61/61 60/60/60 59/59/59
f 61/61/61 59/59/59 62/62/62
f 62/62/62 63/63/63 61/61/61
f 63/63/63 62/62/62 64/64/64
f 63/63/63 64/64/64 65/65/65
f 65/65/65 66/66/66 63/63/63
f 63/63/63 68/68/68 67/67/67
f 69/69/69 68/68/68 63/63/63
f 67/67/67 70/70/70 63/63/63
f 69/69/69 63/63/63 71/71/71
f 68/68/68 72/72/72 67/67/67
f 72/72/72 68/68/68 69/69/69
f 67/67/67 73/73/73 70/70/70
f 67/67/67 74/74/74 73/73/73
f 72/72/72 74/74/74 67/67/67
f 74/74/74 75/75/75 73/73/73
f 73/73/73 75/75/75 70/70/70
f 76/76/76 75/75/75 74/74/74
f 75/75/75 76/76/76 70/70/70
f 76/76/76 74/74/74 72/72/72
f 72/72/72 77/77/77 76/76/76
f 78/78/78 72/72/72 69/69/69
f 77/77/77 72/72/72 78/78/78
f 76/76/76 79/79/79 70/70/70
f 79/79/79 80/80/80 70/70/70
f 81/81/81 79/79/79 76/76/76
f 79/79/79 81/81/81 80/80/80
f 81/81/81 76/76/76 77/77/77
f 81/81/81 82/82/82 80/80/80
f 81/81/81 83/83/83 82/82/82
f 77/77/77 83/83/83 81/81/81
f 83/83/83 84/84/84 82/82/82
f 84/84/84 83/83/83 85/85/85
f 83/83/83 86/86/86 85/85/85
f 86/86/86 83/83/83 77/77/77
f 85/85/85 86/86/86 87/87/87
f 78/78/78 69/69/69 88/88/88
f 71/71/71 88/88/88 69/69/69
f 89/89/89 78/78/78 88/88/88
f 77/77/77 78/78/78 89/89/89
f 89/89/89 88/88/88 71/71/71
f 89/89/89 90/90/90 77/77/77
f 86/86/86 77/77/77 90/90/90
f 90/90/90 89/89/89 71/71/71
f 87/87/87 91/91/91 71/71/71
f 86/86/86 91/91/91 87/87/87
f 90/90/90 91/91/91 86/86/86
f 91/91/91 90/90/90 71/71/71
f 94/94/94 93/93/93 92/92/92
f 94/94/94 92/92/92 95/95/95
f 95/95/95 96/96/96 94/94/94
f 97/97/97 96/96/96 95/95/95
f 98/98/98 97/97/97 95/95/95
f 95/95/95 99/99/99 98/98/98
f 101/101/101 100/100/100 95/95/95
f 102/102/102 100/100/100 101/101/101
f 100/100/100 102/102/102 103/103/103
f 102/102/102 104/104/104 103/103/103
f 103/103/103 104/104/104 105/105/105
f 104/104/104 106/106/106 105/105/105
f 105/105/105 106/106/106 107/107/107
f 106/106/106 108/108/108 107/107/107
f 108/108/108 109/109/109 107/107/107
f 109/109/109 110/110/110 107/107/107
f 109/109/109 111/111/111 110/110/110
f 111/111/111 112/112/112 110/110/110
f 111/111/111 113/113/113 112/112/112
f 114/114/114 102/102/102 101/101/101
f 113/113/113 115/115/115 112/112/112
f 114/114/114 101/101/101 116/116/116
f 95/95/95 116/116/116 101/101/101
f 117/117/117 114/114/114 116/116/116
f 95/95/95 118/118/118 116/116/116
f 117/117/117 116/116/116 118/118/118
f 118/118/118 95/95/95 115/115/115
f 119/119/119 117/117/117 118/118/118
f 120/120/120 119/119/119 118/118/118
f 121/121/121 120/120/120 118/118/118
f 115/115/115 121/121/121 118/118/118
f 122/122/122 120/120/120 121/121/121
f 113/113/113 122/122/122 123/123/123
f 115/115/115 113/113/113 123/123/123
f 115/115/115 123/123/123 121/121/121
f 123/123/123 122/122/122 121/121/121
f 126/126/126 125/125/125 124/124/124
f 126/126/126 124/124/124 127/127/127
f 127/127/127 128/128/128 126/126/126
f 128/128/128 127/127/127 129/129/129
f 128/128/128 129/129/129 130/130/130
f 130/130/130 131/131/131 128/128/128
f 128/128/128 131/131/131 132/132/132
f 132/132/132 133/133/133 128/128/128
f 133/133/133 134/134/134 128/128/128
f 128/128/128 134/134/134 135/135/135
f 135/135/135 126/126/126 128/128/128
f 135/135/135 136/136/136 126/126/126
f 139/139/139 138/138/138 137/137/137
f 140/140/140 139/139/139 137/137/137
f 143/143/143 142/142/142 141/141/141
f 144/144/144 143/143/143 141/141/141
f 147/147/147 146/146/146 145/145/145
f 148/148/148 147/147/147 145/145/145
f 151/151/151 150/150/150 149/149/149
f 152/152/152 151/151/151 149/149/149
f 155/155/155 154/154/154 153/153/153
f 154/154/154 156/156/156 153/153/153
f 153/153/153 156/156/156 157/157/157
f 156/156/156 158/158/158 157/157/157
f 161/161/161 160/160/160 159/159/159
f 160/160/160 162/162/162 159/159/159
f 159/159/159 162/162/162 163/163/163
f 162/162/162 164/164/164 163/163/163
f 164/164/164 165/165/165 163/163/163
f 165/165/165 166/166/166 163/163/163
f 166/166/166 165/165/165 167/167/167
f 165/165/165 168/168/168 167/167/167
f 165/165/165 169/169/169 168/168/168
f 169/169/169 170/170/170 168/168/168
f 171/171/171 169/169/169 165/165/165
f 172/172/172 171/171/171 165/165/165
f 173/173/173 171/171/171 172/172/172
f 174/174/174 173/173/173 172/172/172
f 175/175/175 173/173/173 174/174/174
f 176/176/176 175/175/175 174/174/174
f 177/177/177 175/175/175 176/176/176
f 178/178/178 177/177/177 176/176/176
f 179/179/179 178/178/178 176/176/176
f 182/182/182 181/181/181 180/180/180
f 180/180/180 183/183/183 182/182/182
f 183/183/183 184/184/184 182/182/182
f 184/184/184 185/185/185 182/182/182
f 185/185/185 186/186/186 182/182/182
f 189/189/189 188/188/188 187/187/187
f 190/190/190 188/188/188 189/189/189
f 191/191/191 190/190/190 189/189/189
f 190/190/190 192/192/192 188/188/188
f 192/192/192 190/190/190 193/193/193
f 192/192/192 194/194/194 188/188/188
f 188/188/188 194/194/194 195/195/195
f 196/196/196 190/190/190 188/188/188
f 196/196/196 190/190/190 191/191/191
f 190/190/190 196/196/196 193/193/193
f 193/193/193 196/196/196 191/191/191
f 194/194/194 192/192/192 197/197/197
f 190/190/190 196/196/196 198/198/198
f 192/192/192 190/190/190 198/198/198
f 197/197/197 199/199/199 189/189/189
f 199/199/199 191/191/191 189/189/189
f 192/192/192 199/199/199 197/197/197
f 199/199/199 192/192/192 193/193/193
f 199/199/199 200/200/200 197/197/197
f 200/200/200 193/193/193 191/191/191
f 200/200/200 199/199/199 193/193/193
f 199/199/199 200/200/200 191/191/191
f 200/200/200 199/199/199 201/201/201
f 199/199/199 192/192/192 201/201/201
f 192/192/192 202/202/202 201/201/201
f 202/202/202 192/192/192 198/198/198
f 202/202/202 198/198/198 203/203/203
f 199/199/199 201/201/201 204/204/204
f 191/191/191 199/199/199 204/204/204
f 190/190/190 191/191/191 204/204/204
f 198/198/198 190/190/190 204/204/204
f 198/198/198 204/204/204 205/205/205
f 208/208/208 207/207/207 206/206/206
f 209/209/209 208/208/208 206/206/206
f 212/212/212 211/211/211 210/210/210
f 213/213/213 212/212/212 210/210/210
f 216/216/216 215/215/215 214/214/214
f 217/217/217 216/216/216 214/214/214
f 220/220/220 219/219/219 218/218/218
f 221/221/221 220/220/220 218/218/218
f 224/224/224 223/223/223 222/222/222
f 225/225/225 224/224/224 222/222/222
f 225/225/225 222/222/222 226/226/226
f 227/227/227 225/225/225 226/226/226
f 230/230/230 229/229/229 228/228/228
f 231/231/231 230/230/230 228/228/228
f 231/231/231 228/228/228 232/232/232
f 233/233/233 231/231/231 232/232/232
f 234/234/234 233/233/233 232/232/232
f 235/235/235 234/234/234 232/232/232
f 234/234/234 235/235/235 236/236/236
f 237/237/237 234/234/234 236/236/236
f 238/238/238 234/234/234 237/237/237
f 239/239/239 238/238/238 237/237/237
f 238/238/238 240/240/240 234/234/234
f 240/240/240 241/241/241 234/234/234
f 240/240/240 242/242/242 241/241/241
f 242/242/242 243/243/243 241/241/241
f 242/242/242 244/244/244 243/243/243
f 244/244/244 245/245/245 243/243/243
f 244/244/244 246/246/246 245/245/245
f 246/246/246 247/247/247 245/245/245
f 247/247/247 248/248/248 245/245/245
f 251/251/251 250/250/250 249/249/249
f 249/249/249 252/252/252 251/251/251
f 249/249/249 253/253/253 252/252/252
f 253/253/253 254/254/254 252/252/252
f 249/249/249 255/255/255 253/253/253
f 258/258/258 257/257/257 256/256/256
f 257/257/257 259/259/259 256/256/256
f 256/256/256 259/259/259 260/260/260
f 259/259/259 261/261/261 260/260/260
f 261/261/261 259/259/259 262/262/262
f 259/259/259 257/257/257 263/263/263
f 259/259/259 263/263/263 262/262/262
f 257/257/257 264/264/264 263/263/263
f 264/264/264 265/265/265 263/263/263
f 263/263/263 266/266/266 262/262/262
f 265/265/265 266/266/266 263/263/263
f 265/265/265 267/267/267 266/266/266
f 266/266/266 268/268/268 262/262/262
f 267/267/267 269/269/269 266/266/266
f 266/266/266 269/269/269 268/268/268
f 269/269/269 270/270/270 268/268/268
f 273/273/273 272/272/272 271/271/271
f 274/274/274 273/273/273 271/271/271
f 274/274/274 271/271/271 275/275/275
f 276/276/276 274/274/274 275/275/275
f 274/274/274 276/276/276 277/277/277
f 273/273/273 274/274/274 278/278/278
f 278/278/278 274/274/274 277/277/277
f 279/279/279 273/273/273 278/278/278
f 280/280/280 279/279/279 278/278/278
f 281/281/281 278/278/278 277/277/277
f 281/281/281 280/280/280 278/278/278
f 282/282/282 280/280/280 281/281/281
f 283/283/283 281/281/281 277/277/277
f 284/284/284 282/282/282 281/281/281
f 284/284/284 281/281/281 283/283/283
f 285/285/285 284/284/284 283/283/283
f 288/288/288 287/287/287 286/286/286
f 289/289/289 288/288/288 286/286/286
f 286/286/286 290/290/290 289/289/289
f 287/287/287 291/291/291 286/286/286
f 291/291/291 287/287/287 292/292/292
f 287/287/287 293/293/293 292/292/292
f 292/292/292 293/293/293 294/294/294
f 294/294/294 295/295/295 292/292/292
f 286/286/286 296/296/296 290/290/290
f 286/286/286 297/297/297 296/296/296
f 298/298/298 290/290/290 296/296/296
f 295/295/295 299/299/299 292/292/292
f 300/300/300 292/292/292 299/299/299
f 295/295/295 301/301/301 299/299/299
f 297/297/297 302/302/302 296/296/296
f 298/298/298 296/296/296 302/302/302
f 302/302/302 297/297/297 303/303/303
f 304/304/304 300/300/300 299/299/299
f 299/299/299 301/301/301 304/304/304
f 300/300/300 304/304/304 305/305/305
f 306/306/306 298/298/298 302/302/302
f 307/307/307 298/298/298 306/306/306
f 308/308/308 302/302/302 303/303/303
f 306/306/306 302/302/302 308/308/308
f 308/308/308 303/303/303 309/309/309
f 310/310/310 308/308/308 309/309/309
f 311/311/311 308/308/308 310/310/310
f 311/311/311 306/306/306 308/308/308
f 312/312/312 311/311/311 310/310/310
f 313/313/313 307/307/307 306/306/306
f 313/313/313 306/306/306 311/311/311
f 314/314/314 307/307/307 313/313/313
f 315/315/315 311/311/311 312/312/312
f 315/315/315 313/313/313 311/311/311
f 316/316/316 315/315/315 312/312/312
f 317/317/317 314/314/314 313/313/313
f 317/317/317 313/313/313 315/315/315
f 317/317/317 318/318/318 314/314/314
f 319/319/319 315/315/315 316/316/316
f 319/319/319 317/317/317 315/315/315
f 319/319/319 318/318/318 317/317/317
f 320/320/320 319/319/319 316/316/316
f 320/320/320 318/318/318 319/319/319
f 323/323/323 322/322/322 321/321/321
f 322/322/322 324/324/324 321/321/321
f 325/325/325 323/323/323 321/321/321
f 324/324/324 326/326/326 321/321/321
f 327/327/327 325/325/325 321/321/321
f 326/326/326 328/328/328 321/321/321
f 329/329/329 327/327/327 321/321/321
f 328/328/328 329/329/329 321/321/321
f 305/305/305 331/331/331 330/330/330
f 331/331/331 332/332/332 330/330/330
f 304/304/304 331/331/331 305/305/305
f 331/331/331 333/333/333 332/332/332
f 333/333/333 334/334/334 332/332/332
f 304/304/304 335/335/335 331/331/331
f 335/335/335 333/333/333 331/331/331
f 301/301/301 335/335/335 304/304/304
f 301/301/301 336/336/336 335/335/335
f 336/336/336 337/337/337 335/335/335
f 335/335/335 337/337/337 333/333/333
f 336/336/336 338/338/338 337/337/337
f 333/333/333 339/339/339 334/334/334
f 337/337/337 339/339/339 333/333/333
f 339/339/339 340/340/340 334/334/334
f 338/338/338 341/341/341 337/337/337
f 337/337/337 341/341/341 339/339/339
f 342/342/342 341/341/341 338/338/338
f 339/339/339 343/343/343 340/340/340
f 341/341/341 343/343/343 339/339/339
f 342/342/342 343/343/343 341/341/341
f 343/343/343 344/344/344 340/340/340
f 342/342/342 344/344/344 343/343/343
f 347/347/347 346/346/346 345/345/345
f 348/348/348 347/347/347 345/345/345
f 345/345/345 346/346/346 349/349/349
f 350/350/350 347/347/347 348/348/348
f 351/351/351 350/350/350 348/348/348
f 349/349/349 352/352/352 351/351/351
f 346/346/346 352/352/352 349/349/349
f 352/352/352 350/350/350 351/351/351
f 347/347/347 353/353/353 346/346/346
f 350/350/350 354/354/354 347/347/347
f 354/354/354 353/353/353 347/347/347
f 346/346/346 355/355/355 352/352/352
f 353/353/353 355/355/355 346/346/346
f 352/352/352 356/356/356 350/350/350
f 356/356/356 354/354/354 350/350/350
f 355/355/355 356/356/356 352/352/352
f 354/354/354 357/357/357 353/353/353
f 356/356/356 358/358/358 354/354/354
f 358/358/358 357/357/357 354/354/354
f 355/355/355 359/359/359 356/356/356
f 359/359/359 358/358/358 356/356/356
f 353/353/353 360/360/360 355/355/355
f 357/357/357 360/360/360 353/353/353
f 360/360/360 359/359/359 355/355/355
f 359/359/359 361/361/361 358/358/358
f 358/358/358 362/362/362 357/357/357
f 361/361/361 362/362/362 358/358/358
f 357/357/357 363/363/363 360/360/360
f 362/362/362 363/363/363 357/357/357
f 360/360/360 364/364/364 359/359/359
f 364/364/364 361/361/361 359/359/359
f 363/363/363 364/364/364 360/360/360
f 362/362/362 365/365/365 363/363/363
f 361/361/361 366/366/366 362/362/362
f 366/366/366 365/365/365 362/362/362
f 364/364/364 367/367/367 361/361/361
f 367/367/367 366/366/366 361/361/361
f 363/363/363 368/368/368 364/364/364
f 365/365/365 368/368/368 363/363/363
f 368/368/368 367/367/367 364/364/364
f 366/366/366 369/369/369 365/365/365
f 367/367/367 369/369/369 366/366/366
f 365/365/365 369/369/369 368/368/368
f 368/368/368 369/369/369 367/367/367
f 372/372/372 371/371/371 370/370/370
f 373/373/373 371/371/371 372/372/372
f 371/371/371 373/373/373 370/370/370
f 372/372/372 370/370/370 374/374/374
f 374/374/374 375/375/375 372/372/372
f 375/375/375 374/374/374 376/376/376
f 377/377/377 374/374/374 370/370/370
f 374/374/374 377/377/377 376/376/376
f 373/373/373 378/378/378 370/370/370
f 378/378/378 377/377/377 370/370/370
f 379/379/379 373/373/373 372/372/372
f 373/373/373 380/380/380 378/378/378
f 380/380/380 373/373/373 379/379/379
f 381/381/381 377/377/377 378/378/378
f 377/377/377 382/382/382 376/376/376
f 377/377/377 381/381/381 382/382/382
f 380/380/380 383/383/383 378/378/378
f 383/383/383 381/381/381 378/378/378
f 384/384/384 381/381/381 383/383/383
f 381/381/381 385/385/385 382/382/382
f 381/381/381 384/384/384 385/385/385
f 386/386/386 383/383/383 380/380/380
f 386/386/386 384/384/384 383/383/383
f 387/387/387 384/384/384 386/386/386
f 384/384/384 388/388/388 385/385/385
f 388/388/388 384/384/384 387/387/387
f 385/385/385 389/389/389 382/382/382
f 385/385/385 388/388/388 389/389/389
f 382/382/382 390/390/390 376/376/376
f 389/389/389 390/390/390 382/382/382
f 390/390/390 391/391/391 376/376/376
f 375/375/375 376/376/376 391/391/391
f 391/391/391 390/390/390 392/392/392
f 391/391/391 392/392/392 375/375/375
f 390/390/390 389/389/389 393/393/393
f 390/390/390 393/393/393 392/392/392
f 394/394/394 386/386/386 380/380/380
f 394/394/394 380/380/380 395/395/395
f 395/395/395 380/380/380 379/379/379
f 386/386/386 394/394/394 396/396/396
f 396/396/396 394/394/394 395/395/395
f 386/386/386 396/396/396 387/387/387
f 397/397/397 395/395/395 379/379/379
f 398/398/398 396/396/396 395/395/395
f 397/397/397 398/398/398 395/395/395
f 396/396/396 398/398/398 399/399/399
f 399/399/399 398/398/398 397/397/397
f 396/396/396 399/399/399 400/400/400
f 400/400/400 387/387/387 396/396/396
f 401/401/401 397/397/397 379/379/379
f 401/401/401 379/379/379 372/372/372
f 402/402/402 399/399/399 397/397/397
f 400/400/400 399/399/399 402/402/402
f 402/402/402 397/397/397 403/403/403
f 397/397/397 401/401/401 403/403/403
f 404/404/404 400/400/400 402/402/402
f 404/404/404 402/402/402 403/403/403
f 405/405/405 401/401/401 372/372/372
f 406/406/406 405/405/405 372/372/372
f 401/401/401 405/405/405 406/406/406
f 403/403/403 401/401/401 406/406/406
f 406/406/406 372/372/372 375/375/375
f 407/407/407 403/403/403 406/406/406
f 407/407/407 404/404/404 403/403/403
f 375/375/375 408/408/408 406/406/406
f 408/408/408 407/407/407 406/406/406
f 409/409/409 408/408/408 375/375/375
f 407/407/407 408/408/408 409/409/409
f 404/404/404 407/407/407 410/410/410
f 410/410/410 407/407/407 409/409/409
f 400/400/400 404/404/404 411/411/411
f 411/411/411 404/404/404 410/410/410
f 412/412/412 409/409/409 375/375/375
f 375/375/375 392/392/392 412/412/412
f 412/412/412 413/413/413 409/409/409
f 413/413/413 412/412/412 392/392/392
f 413/413/413 410/410/410 409/409/409
f 393/393/393 413/413/413 392/392/392
f 413/413/413 414/414/414 410/410/410
f 414/414/414 411/411/411 410/410/410
f 414/414/414 413/413/413 393/393/393
f 415/415/415 400/400/400 411/411/411
f 415/415/415 411/411/411 414/414/414
f 387/387/387 400/400/400 415/415/415
f 416/416/416 414/414/414 393/393/393
f 389/389/389 416/416/416 393/393/393
f 417/417/417 415/415/415 414/414/414
f 387/387/387 415/415/415 417/417/417
f 417/417/417 414/414/414 416/416/416
f 417/417/417 418/418/418 387/387/387
f 418/418/418 417/417/417 416/416/416
f 388/388/388 387/387/387 418/418/418
f 389/389/389 419/419/419 416/416/416
f 419/419/419 418/418/418 416/416/416
f 418/418/418 419/419/419 388/388/388
f 388/388/388 419/419/419 389/389/389
f 422/422/422 421/421/421 420/420/420
f 422/422/422 420/420/420 423/423/423
f 422/422/422 424/424/424 421/421/421
f 422/422/422 423/423/423 424/424/424
f 425/425/425 423/423/423 420/420/420
f 426/426/426 421/421/421 424/424/424
f 427/427/427 425/425/425 420/420/420
f 420/420/420 428/428/428 427/427/427
f 429/429/429 420/420/420 421/421/421
f 430/430/430 428/428/428 420/420/420
f 429/429/429 430/430/430 420/420/420
f 428/428/428 430/430/430 431/431/431
f 432/432/432 430/430/430 429/429/429
f 430/430/430 433/433/433 431/431/431
f 430/430/430 432/432/432 433/433/433
f 434/434/434 429/429/429 421/421/421
f 421/421/421 431/431/431 434/434/434
f 431/431/431 433/433/433 434/434/434
f 435/435/435 429/429/429 434/434/434
f 435/435/435 432/432/432 429/429/429
f 434/434/434 433/433/433 436/436/436
f 436/436/436 435/435/435 434/434/434
f 432/432/432 437/437/437 433/433/433
f 433/433/433 437/437/437 436/436/436
f 438/438/438 432/432/432 435/435/435
f 432/432/432 438/438/438 437/437/437
f 439/439/439 435/435/435 436/436/436
f 439/439/439 438/438/438 435/435/435
f 436/436/436 437/437/437 440/440/440
f 440/440/440 439/439/439 436/436/436
f 438/438/438 441/441/441 437/437/437
f 437/437/437 441/441/441 440/440/440
f 442/442/442 438/438/438 439/439/439
f 438/438/438 442/442/442 441/441/441
f 443/443/443 439/439/439 440/440/440
f 443/443/443 442/442/442 439/439/439
f 440/440/440 441/441/441 444/444/444
f 444/444/444 443/443/443 440/440/440
f 442/442/442 445/445/445 441/441/441
f 441/441/441 445/445/445 444/444/444
f 446/446/446 442/442/442 443/443/443
f 442/442/442 446/446/446 445/445/445
f 447/447/447 443/443/443 444/444/444
f 447/447/447 446/446/446 443/443/443
f 446/446/446 448/448/448 445/445/445
f 448/448/448 446/446/446 447/447/447
f 449/449/449 447/447/447 444/444/444
f 444/444/444 445/445/445 449/449/449
f 449/449/449 448/448/448 447/447/447
f 445/445/445 448/448/448 449/449/449
f 450/450/450 431/431/431 421/421/421
f 431/431/431 450/450/450 451/451/451
f 426/426/426 450/450/450 421/421/421
f 451/451/451 452/452/452 431/431/431
f 453/453/453 452/452/452 451/451/451
f 431/431/431 452/452/452 428/428/428
f 428/428/428 452/452/452 453/453/453
f 450/450/450 454/454/454 451/451/451
f 455/455/455 450/450/450 426/426/426
f 450/450/450 455/455/455 454/454/454
f 453/453/453 456/456/456 428/428/428
f 456/456/456 457/457/457 428/428/428
f 428/428/428 457/457/457 427/427/427
f 458/458/458 455/455/455 426/426/426
f 458/458/458 426/426/426 459/459/459
f 451/451/451 454/454/454 459/459/459
f 459/459/459 426/426/426 424/424/424
f 424/424/424 451/451/451 459/459/459
f 459/459/459 454/454/454 460/460/460
f 460/460/460 458/458/458 459/459/459
f 455/455/455 461/461/461 454/454/454
f 454/454/454 461/461/461 460/460/460
f 462/462/462 451/451/451 424/424/424
f 451/451/451 462/462/462 453/453/453
f 463/463/463 455/455/455 458/458/458
f 455/455/455 463/463/463 461/461/461
f 464/464/464 458/458/458 460/460/460
f 464/464/464 463/463/463 458/458/458
f 460/460/460 461/461/461 465/465/465
f 465/465/465 464/464/464 460/460/460
f 463/463/463 466/466/466 461/461/461
f 461/461/461 466/466/466 465/465/465
f 467/467/467 463/463/463 464/464/464
f 463/463/463 467/467/467 466/466/466
f 468/468/468 464/464/464 465/465/465
f 468/468/468 467/467/467 464/464/464
f 465/465/465 466/466/466 469/469/469
f 469/469/469 468/468/468 465/465/465
f 467/467/467 470/470/470 466/466/466
f 466/466/466 470/470/470 469/469/469
f 471/471/471 467/467/467 468/468/468
f 467/467/467 471/471/471 470/470/470
f 472/472/472 468/468/468 469/469/469
f 472/472/472 471/471/471 468/468/468
f 471/471/471 473/473/473 470/470/470
f 473/473/473 471/471/471 472/472/472
f 474/474/474 472/472/472 469/469/469
f 469/469/469 470/470/470 474/474/474
f 474/474/474 473/473/473 472/472/472
f 470/470/470 473/473/473 474/474/474
f 475/475/475 424/424/424 423/423/423
f 475/475/475 462/462/462 424/424/424
f 476/476/476 462/462/462 475/475/475
f 462/462/462 476/476/476 477/477/477
f 462/462/462 477/477/477 453/453/453
f 478/478/478 475/475/475 423/423/423
f 423/423/423 453/453/453 478/478/478
f 453/453/453 477/477/477 478/478/478
f 456/456/456 453/453/453 423/423/423
f 425/425/425 456/456/456 423/423/423
f 479/479/479 475/475/475 478/478/478
f 479/479/479 476/476/476 475/475/475
f 478/478/478 477/477/477 480/480/480
f 480/480/480 479/479/479 478/478/478
f 481/481/481 456/456/456 425/425/425
f 456/456/456 481/481/481 457/457/457
f 476/476/476 482/482/482 477/477/477
f 477/477/477 482/482/482 480/480/480
f 483/483/483 476/476/476 479/479/479
f 476/476/476 483/483/483 482/482/482
f 484/484/484 479/479/479 480/480/480
f 484/484/484 483/483/483 479/479/479
f 480/480/480 482/482/482 485/485/485
f 485/485/485 484/484/484 480/480/480
f 483/483/483 486/486/486 482/482/482
f 482/482/482 486/486/486 485/485/485
f 487/487/487 483/483/483 484/484/484
f 483/483/483 487/487/487 486/486/486
f 488/488/488 484/484/484 485/485/485
f 488/488/488 487/487/487 484/484/484
f 485/485/485 486/486/486 489/489/489
f 489/489/489 488/488/488 485/485/485
f 487/487/487 490/490/490 486/486/486
f 486/486/486 490/490/490 489/489/489
f 491/491/491 487/487/487 488/488/488
f 487/487/487 491/491/491 490/490/490
f 492/492/492 488/488/488 489/489/489
f 492/492/492 491/491/491 488/488/488
f 491/491/491 493/493/493 490/490/490
f 493/493/493 491/491/491 492/492/492
f 494/494/494 492/492/492 489/489/489
f 489/489/489 490/490/490 494/494/494
f 494/494/494 493/493/493 492/492/492
f 490/490/490 493/493/493 494/494/494
f 495/495/495 425/425/425 427/427/427
f 495/495/495 481/481/481 425/425/425
f 496/496/496 495/495/495 427/427/427
f 427/427/427 457/457/457 496/496/496
f 481/481/481 497/497/497 457/457/457
f 457/457/457 497/497/497 496/496/496
f 498/498/498 481/481/481 495/495/495
f 481/481/481 498/498/498 497/497/497
f 499/499/499 495/495/495 496/496/496
f 499/499/499 498/498/498 495/495/495
f 496/496/496 497/497/497 500/500/500
f 500/500/500 499/499/499 496/496/496
f 498/498/498 501/501/501 497/497/497
f 497/497/497 501/501/501 500/500/500
f 502/502/502 498/498/498 499/499/499
f 498/498/498 502/502/502 501/501/501
f 503/503/503 499/499/499 500/500/500
f 503/503/503 502/502/502 499/499/499
f 500/500/500 501/501/501 504/504/504
f 504/504/504 503/503/503 500/500/500
f 502/502/502 505/505/505 501/501/501
f 501/501/501 505/505/505 504/504/504
f 506/506/506 502/502/502 503/503/503
f 502/502/502 506/506/506 505/505/505
f 507/507/507 503/503/503 504/504/504
f 507/507/507 506/506/506 503/503/503
f 506/506/506 508/508/508 505/505/505
f 508/508/508 506/506/506 507/507/507
f 509/509/509 507/507/507 504/504/504
f 504/504/504 505/505/505 509/509/509
f 509/509/509 508/508/508 507/507/507
f 505/505/505 508/508/508 509/509/509
f 512/512/512 511/511/511 510/510/510
f 512/512/512 510/510/510 513/513/513
f 512/512/512 514/514/514 511/511/511
f 512/512/512 513/513/513 514/514/514
f 515/515/515 513/513/513 510/510/510
f 516/516/516 511/511/511 514/514/514
f 517/517/517 515/515/515 510/510/510
f 510/510/510 518/518/518 517/517/517
f 519/519/519 510/510/510 511/511/511
f 520/520/520 518/518/518 510/510/510
f 519/519/519 520/520/520 510/510/510
f 518/518/518 520/520/520 521/521/521
f 522/522/522 520/520/520 519/519/519
f 520/520/520 523/523/523 521/521/521
f 520/520/520 522/522/522 523/523/523
f 524/524/524 519/519/519 511/511/511
f 511/511/511 521/521/521 524/524/524
f 521/521/521 523/523/523 524/524/524
f 525/525/525 519/519/519 524/524/524
f 525/525/525 522/522/522 519/519/519
f 524/524/524 523/523/523 526/526/526
f 526/526/526 525/525/525 524/524/524
f 522/522/522 527/527/527 523/523/523
f 523/523/523 527/527/527 526/526/526
f 528/528/528 522/522/522 525/525/525
f 522/522/522 528/528/528 527/527/527
f 529/529/529 525/525/525 526/526/526
f 529/529/529 528/528/528 525/525/525
f 526/526/526 527/527/527 530/530/530
f 530/530/530 529/529/529 526/526/526
f 528/528/528 531/531/531 527/527/527
f 527/527/527 531/531/531 530/530/530
f 532/532/532 528/528/528 529/529/529
f 528/528/528 532/532/532 531/531/531
f 533/533/533 529/529/529 530/530/530
f 533/533/533 532/532/532 529/529/529
f 530/530/530 531/531/531 534/534/534
f 534/534/534 533/533/533 530/530/530
f 532/532/532 535/535/535 531/531/531
f 531/531/531 535/535/535 534/534/534
f 536/536/536 532/532/532 533/533/533
f 532/532/532 536/536/536 535/535/535
f 537/537/537 533/533/533 534/534/534
f 537/537/537 536/536/536 533/533/533
f 536/536/536 538/538/538 535/535/535
f 538/538/538 536/536/536 537/537/537
f 539/539/539 537/537/537 534/534/534
f 534/534/534 535/535/535 539/539/539
f 539/539/539 538/538/538 537/537/537
f 535/535/535 538/538/538 539/539/539
f 540/540/540 521/521/521 511/511/511
f 521/521/521 540/540/540 541/541/541
f 516/516/516 540/540/540 511/511/511
f 541/541/541 542/542/542 521/521/521
f 543/543/543 542/542/542 541/541/541
f 521/521/521 542/542/542 518/518/518
f 518/518/518 542/542/542 543/543/543
f 540/540/540 544/544/544 541/541/541
f 545/545/545 540/540/540 516/516/516
f 540/540/540 545/545/545 544/544/544
f 543/543/543 546/546/546 518/518/518
f 546/546/546 547/547/547 518/518/518
f 518/518/518 547/547/547 517/517/517
f 548/548/548 545/545/545 516/516/516
f 548/548/548 516/516/516 549/549/549
f 541/541/541 544/544/544 549/549/549
f 549/549/549 516/516/516 514/514/514
f 514/514/514 541/541/541 549/549/549
f 549/549/549 544/544/544 550/550/550
f 550/550/550 548/548/548 549/549/549
f 545/545/545 551/551/551 544/544/544
f 544/544/544 551/551/551 550/550/550
f 552/552/552 541/541/541 514/514/514
f 541/541/541 552/552/552 543/543/543
f 553/553/553 545/545/545 548/548/548
f 545/545/545 553/553/553 551/551/551
f 554/554/554 548/548/548 550/550/550
f 554/554/554 553/553/553 548/548/548
f 550/550/550 551/551/551 555/555/555
f 555/555/555 554/554/554 550/550/550
f 553/553/553 556/556/556 551/551/551
f 551/551/551 556/556/556 555/555/555
f 557/557/557 553/553/553 554/554/554
f 553/553/553 557/557/557 556/556/556
f 558/558/558 554/554/554 555/555/555
f 558/558/558 557/557/557 554/554/554
f 555/555/555 556/556/556 559/559/559
f 559/559/559 558/558/558 555/555/555
f 557/557/557 560/560/560 556/556/556
f 556/556/556 560/560/560 559/559/559
f 561/561/561 557/557/557 558/558/558
f 557/557/557 561/561/561 560/560/560
f 562/562/562 558/558/558 559/559/559
f 562/562/562 561/561/561 558/558/558
f 561/561/561 563/563/563 560/560/560
f 563/563/563 561/561/561 562/562/562
f 564/564/564 562/562/562 559/559/559
f 559/559/559 560/560/560 564/564/564
f 564/564/564 563/563/563 562/562/562
f 560/560/560 563/563/563 564/564/564
f 565/565/565 514/514/514 513/513/513
f 565/565/565 552/552/552 514/514/514
f 566/566/566 552/552/552 565/565/565
f 552/552/552 566/566/566 567/567/567
f 552/552/552 567/567/567 543/543/543
f 568/568/568 565/565/565 513/513/513
f 513/513/513 543/543/543 568/568/568
f 543/543/543 567/567/567 568/568/568
f 546/546/546 543/543/543 513/513/513
f 515/515/515 546/546/546 513/513/513
f 569/569/569 565/565/565 568/568/568
f 569/569/569 566/566/566 565/565/565
f 568/568/568 567/567/567 570/570/570
f 570/570/570 569/569/569 568/568/568
f 571/571/571 546/546/546 515/515/515
f 546/546/546 571/571/571 547/547/547
f 566/566/566 572/572/572 567/567/567
f 567/567/567 572/572/572 570/570/570
f 573/573/573 566/566/566 569/569/569
f 566/566/566 573/573/573 572/572/572
f 574/574/574 569/569/569 570/570/570
f 574/574/574 573/573/573 569/569/569
f 570/570/570 572/572/572 575/575/575
f 575/575/575 574/574/574 570/570/570
f 573/573/573 576/576/576 572/572/572
f 572/572/572 576/576/576 575/575/575
f 577/577/577 573/573/573 574/574/574
f 573/573/573 577/577/577 576/576/576
f 578/578/578 574/574/574 575/575/575
f 578/578/578 577/577/577 574/574/574
f 575/575/575 576/576/576 579/579/579
f 579/579/579 578/578/578 575/575/575
f 577/577/577 580/580/580 576/576/576
f 576/576/576 580/580/580 579/579/579
f 581/581/581 577/577/577 578/578/578
f 577/577/577 581/581/581 580/580/580
f 582/582/582 578/578/578 579/579/579
f 582/582/582 581/581/581 578/578/578
f 581/581/581 583/583/583 580/580/580
f 583/583/583 581/581/581 582/582/582
f 584/584/584 582/582/582 579/579/579
f 579/579/579 580/580/580 584/584/584
f 584/584/584 583/583/583 582/582/582
f 580/580/580 583/583/583 584/584/584
f 585/585/585 515/515/515 517/517/517
f 585/585/585 571/571/571 515/515/515
f 586/586/586 585/585/585 517/517/517
f 517/517/517 547/547/547 586/586/586
f 571/571/571 587/587/587 547/547/547
f 547/547/547 587/587/587 586/586/586
f 588/588/588 571/571/571 585/585/585
f 571/571/571 588/588/588 587/587/587
f 589/589/589 585/585/585 586/586/586
f 589/589/589 588/588/588 585/585/585
f 586/586/586 587/587/587 590/590/590
f 590/590/590 589/589/589 586/586/586
f 588/588/588 591/591/591 587/587/587
f 587/587/587 591/591/591 590/590/590
f 592/592/592 588/588/588 589/589/589
f 588/588/588 592/592/592 591/591/591
f 593/593/593 589/589/589 590/590/590
f 593/593/593 592/592/592 589/589/589
f 590/590/590 591/591/591 594/594/594
f 594/594/594 593/593/593 590/590/590
f 592/592/592 595/595/595 591/591/591
f 591/591/591 595/595/595 594/594/594
f 596/596/596 592/592/592 593/593/593
f 592/592/592 596/596/596 595/595/595
f 597/597/597 593/593/593 594/594/594
f 597/597/597 596/596/596 593/593/593
f 596/596/596 598/598/598 595/595/595
f 598/598/598 596/596/596 597/597/597
f 599/599/599 597/597/597 594/594/594
f 594/594/594 595/595/595 599/599/599
f 599/599/599 598/598/598 597/597/597
f 595/595/595 598/598/598 599/599/599
