g Sword11
v 0.09282723 -0.06812064 1.7159206
v -0.035400912 -0.046708204 1.3342824
v 0.00072776526 -0.059359923 1.375012
v 0.09282723 -0.07501064 1.7159206
v 0.00072778016 -0.08377162 1.375012
v -0.035400882 -0.09458776 1.3342824
v -0.07152955 -0.08377168 1.2935529
v -0.035400882 -0.09458776 1.3342824
v 0.023566917 -0.10310709 1.3485568
v -0.07152957 -0.05935998 1.2935529
v 0.02356688 -0.037481416 1.3485568
v -0.035400912 -0.046708204 1.3342824
v -0.039428752 -0.052687928 -0.44674987
v -0.10811596 -0.07093946 -0.5393182
v -0.039428726 -0.09116563 -0.44674987
v -0.17226529 -0.052688006 -0.44354922
v -0.10811596 -0.07093946 -0.5393182
v -0.10584702 -0.023067256 -0.44514954
v -0.10584702 -0.023067256 -0.44514954
v -0.10811596 -0.07093946 -0.5393182
v -0.039428752 -0.052687928 -0.44674987
v -0.10584697 -0.114862084 -0.4451495
v -0.10811596 -0.07093946 -0.5393182
v -0.17226526 -0.09116571 -0.44354922
v -0.17226526 -0.09116571 -0.44354922
v -0.10811596 -0.07093946 -0.5393182
v -0.17226529 -0.052688006 -0.44354922
v -0.039428726 -0.09116563 -0.44674987
v -0.10811596 -0.07093946 -0.5393182
v -0.10584697 -0.114862084 -0.4451495
v -0.47040185 -0.07025148 0.4717848
v -0.37744817 -0.0643852 0.41241086
v -0.38588136 -0.06785127 0.42471355
v -0.47040185 -0.07213907 0.4717848
v -0.38588133 -0.07453915 0.42471355
v -0.37744817 -0.07750233 0.41241086
v -0.36901504 -0.07453913 0.40010804
v -0.37744817 -0.07750233 0.41241086
v -0.37733552 -0.07983633 0.4290319
v -0.36901504 -0.06785125 0.40010804
v -0.37733552 -0.06185742 0.4290319
v -0.37744817 -0.0643852 0.41241086
v 0.24730352 -0.070251025 0.51665837
v 0.16790105 -0.06785093 0.4613893
v 0.16073743 -0.06438486 0.4483066
v 0.24730352 -0.072138615 0.51665837
v 0.16073743 -0.07750203 0.4483066
v 0.16790107 -0.07453881 0.4613893
v 0.15357381 -0.07453881 0.43522376
v 0.15896702 -0.079835996 0.46483347
v 0.16073743 -0.07750203 0.4483066
v 0.15357381 -0.06785093 0.43522376
v 0.16073743 -0.06438486 0.4483066
v 0.15896702 -0.06185709 0.46483347
v -0.18811244 -0.059360053 1.2678523
v -0.18811244 -0.08377175 1.2678523
v -0.07152955 -0.08377168 1.2935529
v -0.07152957 -0.05935998 1.2935529
v -0.07152957 -0.05935998 1.2935529
v -0.07152955 -0.08377168 1.2935529
v -0.25142014 -0.083771855 0.8930963
v -0.25142017 -0.05936015 0.8930963
v 0.09282723 -0.06812064 1.7159206
v 0.09282723 -0.07501064 1.7159206
v -0.18811244 -0.08377175 1.2678523
v -0.18811244 -0.059360053 1.2678523
v -0.25142017 -0.05936015 0.8930963
v -0.25142014 -0.083771855 0.8930963
v -0.09222025 -0.08377176 0.9360151
v -0.09222026 -0.05936005 0.9360151
v 0.00072776526 -0.059359923 1.375012
v 0.00072778016 -0.08377162 1.375012
v 0.09282723 -0.07501064 1.7159206
v 0.09282723 -0.06812064 1.7159206
v -0.0600619 -0.05791026 0.37735
v -0.059579954 -0.05791027 0.3105147
v -0.05957994 -0.085378036 0.3105148
v -0.060061887 -0.08537803 0.37735
v -0.0601718 -0.06399939 0.39259106
v -0.060171794 -0.078630105 0.39259106
v 0.11866337 -0.05935986 1.4035606
v 0.11866338 -0.08377155 1.4035606
v 0.00072778016 -0.08377162 1.375012
v 0.00072776526 -0.059359923 1.375012
v -0.09222026 -0.05936005 0.9360151
v -0.09222025 -0.08377176 0.9360151
v -0.26726234 -0.0837739 0.49092948
v -0.26726234 -0.058599215 0.49092948
v -0.005581267 -0.059359986 1.027143
v -0.0055812523 -0.08377169 1.027143
v 0.11866338 -0.08377155 1.4035606
v 0.11866337 -0.05935986 1.4035606
v -0.26726234 -0.058599215 0.49092948
v -0.26726234 -0.0837739 0.49092948
v -0.15373841 -0.078630164 0.3770134
v -0.15373841 -0.06399946 0.3770134
v 0.10868707 -0.059359916 1.0447925
v 0.10868708 -0.08377162 1.0447925
v -0.0055812523 -0.08377169 1.027143
v -0.005581267 -0.059359986 1.027143
v 0.020245202 -0.05859903 0.53047836
v 0.020245217 -0.08377373 0.53047836
v 0.10868708 -0.08377162 1.0447925
v 0.10868707 -0.059359916 1.0447925
v -0.0601718 -0.06399939 0.39259106
v -0.060171794 -0.078630105 0.39259106
v 0.020245217 -0.08377373 0.53047836
v 0.020245202 -0.05859903 0.53047836
v -0.12350854 -0.11892293 0.5107039
v -0.1069551 -0.08764044 0.38480222
v -0.15373841 -0.078630164 0.3770134
v -0.26726234 -0.0837739 0.49092948
v -0.12350859 -0.021967376 0.5107039
v -0.106955126 -0.052736487 0.38480222
v -0.0601718 -0.06399939 0.39259106
v 0.020245202 -0.05859903 0.53047836
v -0.1285007 -0.0988057 0.9601197
v -0.0055812523 -0.08377169 1.027143
v 0.10868708 -0.08377162 1.0447925
v 0.008233413 -0.09880562 0.9904039
v 0.023566917 -0.10310709 1.3485568
v -0.035400882 -0.09458776 1.3342824
v 0.00072778016 -0.08377162 1.375012
v 0.11866338 -0.08377155 1.4035606
v 0.023566917 -0.10310709 1.3485568
v 0.11866338 -0.08377155 1.4035606
v -0.0055812523 -0.08377169 1.027143
v -0.1285007 -0.0988057 0.9601197
v -0.12850073 -0.040567543 0.9601197
v 0.008233398 -0.04056746 0.9904039
v 0.10868707 -0.059359916 1.0447925
v -0.005581267 -0.059359986 1.027143
v -0.035400912 -0.046708204 1.3342824
v 0.02356688 -0.037481416 1.3485568
v 0.11866337 -0.05935986 1.4035606
v 0.00072776526 -0.059359923 1.375012
v 0.008233398 -0.04056746 0.9904039
v -0.12350859 -0.021967376 0.5107039
v 0.020245202 -0.05859903 0.53047836
v 0.10868707 -0.059359916 1.0447925
v 0.008233413 -0.09880562 0.9904039
v -0.12350854 -0.11892293 0.5107039
v -0.26726234 -0.0837739 0.49092948
v -0.09222025 -0.08377176 0.9360151
v 0.10868708 -0.08377162 1.0447925
v 0.020245217 -0.08377373 0.53047836
v -0.12350854 -0.11892293 0.5107039
v 0.008233413 -0.09880562 0.9904039
v -0.09222026 -0.05936005 0.9360151
v -0.26726234 -0.058599215 0.49092948
v -0.12350859 -0.021967376 0.5107039
v 0.008233398 -0.04056746 0.9904039
v -0.25142017 -0.05936015 0.8930963
v -0.09222026 -0.05936005 0.9360151
v 0.008233398 -0.04056746 0.9904039
v -0.12850073 -0.040567543 0.9601197
v -0.07152955 -0.08377168 1.2935529
v 0.023566917 -0.10310709 1.3485568
v -0.1285007 -0.0988057 0.9601197
v -0.25142014 -0.083771855 0.8930963
v -0.25142014 -0.083771855 0.8930963
v -0.1285007 -0.0988057 0.9601197
v 0.008233413 -0.09880562 0.9904039
v -0.09222025 -0.08377176 0.9360151
v -0.26726234 -0.058599215 0.49092948
v -0.15373841 -0.06399946 0.3770134
v -0.106955126 -0.052736487 0.38480222
v -0.12350859 -0.021967376 0.5107039
v 0.020245217 -0.08377373 0.53047836
v -0.060171794 -0.078630105 0.39259106
v -0.1069551 -0.08764044 0.38480222
v -0.12350854 -0.11892293 0.5107039
v -0.060061887 -0.08537803 0.37735
v -0.05957994 -0.085378036 0.3105148
v -0.10645929 -0.102294035 0.3042185
v -0.10686286 -0.10229403 0.3698117
v -0.12850073 -0.040567543 0.9601197
v -0.005581267 -0.059359986 1.027143
v 0.11866337 -0.05935986 1.4035606
v 0.02356688 -0.037481416 1.3485568
v -0.25142017 -0.05936015 0.8930963
v -0.12850073 -0.040567543 0.9601197
v 0.02356688 -0.037481416 1.3485568
v -0.07152957 -0.05935998 1.2935529
v -0.18811244 -0.059360053 1.2678523
v -0.07152957 -0.05935998 1.2935529
v -0.035400912 -0.046708204 1.3342824
v 0.09282723 -0.06812064 1.7159206
v -0.18811244 -0.08377175 1.2678523
v 0.09282723 -0.07501064 1.7159206
v -0.035400882 -0.09458776 1.3342824
v -0.07152955 -0.08377168 1.2935529
v -0.1514054 -0.057910416 -0.25183323
v -0.15107967 -0.05791043 -0.3333283
v -0.1036662 -0.036765307 -0.3344707
v -0.10407002 -0.036765292 -0.25168866
v -0.15366384 -0.08537808 0.3622733
v -0.15333833 -0.08537809 0.29792044
v -0.15333834 -0.05791033 0.2979203
v -0.15366386 -0.05791032 0.3622733
v -0.15373841 -0.078630164 0.3770134
v -0.15373841 -0.06399946 0.3770134
v -0.056734934 -0.08537813 -0.25154418
v -0.056252703 -0.08537814 -0.33561313
v -0.10366616 -0.10229414 -0.33447066
v -0.10406998 -0.10229413 -0.25168863
v -0.1069551 -0.08764044 0.38480222
v -0.10686286 -0.10229403 0.3698117
v -0.15366384 -0.08537808 0.3622733
v -0.15373841 -0.078630164 0.3770134
v -0.106955126 -0.052736487 0.38480222
v -0.1068629 -0.03676519 0.36981168
v -0.0600619 -0.05791026 0.37735
v -0.0601718 -0.06399939 0.39259106
v -0.15373841 -0.06399946 0.3770134
v -0.15366386 -0.05791032 0.3622733
v -0.1068629 -0.03676519 0.36981168
v -0.106955126 -0.052736487 0.38480222
v -0.060171794 -0.078630105 0.39259106
v -0.060061887 -0.08537803 0.37735
v -0.10686286 -0.10229403 0.3698117
v -0.1069551 -0.08764044 0.38480222
v -0.06770376 -0.0610571 -0.33533722
v -0.06850382 -0.06105711 -0.38870865
v -0.068503805 -0.081891 -0.38870865
v -0.067703746 -0.08189099 -0.33533722
v -0.1396286 -0.061057143 -0.33360422
v -0.14042866 -0.06105715 -0.38697565
v -0.10446624 -0.04501888 -0.38784212
v -0.10366618 -0.045018874 -0.3344707
v -0.14042865 -0.08189104 -0.38697565
v -0.17226526 -0.09116571 -0.44354922
v -0.17226529 -0.052688006 -0.44354922
v -0.14042866 -0.06105715 -0.38697565
v -0.10446621 -0.09472154 -0.3878421
v -0.10584697 -0.114862084 -0.4451495
v -0.17226526 -0.09116571 -0.44354922
v -0.14042865 -0.08189104 -0.38697565
v -0.10366618 -0.045018874 -0.3344707
v -0.10446624 -0.04501888 -0.38784212
v -0.06850382 -0.06105711 -0.38870865
v -0.06770376 -0.0610571 -0.33533722
v -0.10366615 -0.09472153 -0.33447066
v -0.10446621 -0.09472154 -0.3878421
v -0.14042865 -0.08189104 -0.38697565
v -0.13962859 -0.08189103 -0.33360422
v -0.13962859 -0.08189103 -0.33360422
v -0.14042865 -0.08189104 -0.38697565
v -0.14042866 -0.06105715 -0.38697565
v -0.1396286 -0.061057143 -0.33360422
v -0.067703746 -0.08189099 -0.33533722
v -0.068503805 -0.081891 -0.38870865
v -0.10446621 -0.09472154 -0.3878421
v -0.10366615 -0.09472153 -0.33447066
v -0.068503805 -0.081891 -0.38870865
v -0.039428726 -0.09116563 -0.44674987
v -0.10584697 -0.114862084 -0.4451495
v -0.10446621 -0.09472154 -0.3878421
v -0.14042866 -0.06105715 -0.38697565
v -0.17226529 -0.052688006 -0.44354922
v -0.10584702 -0.023067256 -0.44514954
v -0.10446624 -0.04501888 -0.38784212
v -0.06850382 -0.06105711 -0.38870865
v -0.039428752 -0.052687928 -0.44674987
v -0.039428726 -0.09116563 -0.44674987
v -0.068503805 -0.081891 -0.38870865
v -0.10446624 -0.04501888 -0.38784212
v -0.10584702 -0.023067256 -0.44514954
v -0.039428752 -0.052687928 -0.44674987
v -0.06850382 -0.06105711 -0.38870865
v -0.15325102 -0.085378096 0.28065956
v -0.15296909 -0.08537811 0.2053638
v -0.15296909 -0.05791034 0.20536366
v -0.15325104 -0.057910334 0.2806597
v -0.15288192 -0.08537811 0.17988017
v -0.15259986 -0.085378125 0.097408846
v -0.15259987 -0.05791036 0.09740875
v -0.15288194 -0.05791035 0.17988035
v -0.15251282 -0.085378125 0.07195938
v -0.15223065 -0.08537814 -0.010541136
v -0.15223065 -0.057910383 -0.010541185
v -0.15251282 -0.05791037 0.07195946
v -0.15214369 -0.08537815 -0.03596645
v -0.15186146 -0.08537816 -0.11848603
v -0.15186146 -0.057910398 -0.11848604
v -0.1521437 -0.057910383 -0.035966408
v -0.15177454 -0.08537816 -0.14389734
v -0.15149227 -0.08537818 -0.22642599
v -0.1514923 -0.057910413 -0.22642599
v -0.15177456 -0.0579104 -0.14389725
v -0.15140538 -0.085378185 -0.25183323
v -0.15107965 -0.08537819 -0.3333283
v -0.15107967 -0.05791043 -0.3333283
v -0.1514054 -0.057910416 -0.25183323
v -0.0594555 -0.08537804 0.29325813
v -0.05903566 -0.08537805 0.22032264
v -0.106002524 -0.10229405 0.21284403
v -0.10635309 -0.10229404 0.28695804
v -0.058911428 -0.08537806 0.194844
v -0.05849141 -0.08537807 0.108700186
v -0.10554579 -0.10229407 0.103054956
v -0.10589652 -0.10229406 0.18736133
v -0.05836734 -0.08537807 0.083254516
v -0.05794719 -0.08537809 -0.0029172534
v -0.10508907 -0.10229409 -0.006729016
v -0.105439916 -0.10229407 0.077606544
v -0.057823226 -0.085378096 -0.028340055
v -0.057402983 -0.08537811 -0.1145297
v -0.10463236 -0.10229411 -0.11650783
v -0.1049833 -0.102294095 -0.032153405
v -0.057279095 -0.08537811 -0.13993959
v -0.056858808 -0.085378125 -0.22613712
v -0.10417567 -0.102294125 -0.22628151
v -0.104526654 -0.10229411 -0.14191847
v -0.10406998 -0.10229413 -0.25168863
v -0.10366616 -0.10229414 -0.33447066
v -0.15107965 -0.08537819 -0.3333283
v -0.15140538 -0.085378185 -0.25183323
v -0.059455514 -0.057910275 0.29325825
v -0.05903568 -0.057910286 0.22032256
v -0.05903566 -0.08537805 0.22032264
v -0.0594555 -0.08537804 0.29325813
v -0.05891145 -0.05791029 0.19484411
v -0.05849143 -0.057910305 0.108700134
v -0.05849141 -0.08537807 0.108700186
v -0.058911428 -0.08537806 0.194844
v -0.058367364 -0.05791031 0.08325455
v -0.05794721 -0.057910323 -0.0029172578
v -0.05794719 -0.08537809 -0.0029172534
v -0.05836734 -0.08537807 0.083254516
v -0.05782325 -0.057910327 -0.028340016
v -0.057403006 -0.05791034 -0.11452971
v -0.057402983 -0.08537811 -0.1145297
v -0.057823226 -0.085378096 -0.028340055
v -0.057279117 -0.057910345 -0.13993959
v -0.05685883 -0.05791036 -0.22613712
v -0.056858808 -0.085378125 -0.22613712
v -0.057279095 -0.08537811 -0.13993959
v -0.05673495 -0.057910364 -0.25154418
v -0.056252718 -0.05791038 -0.33561313
v -0.056252703 -0.08537814 -0.33561313
v -0.056734934 -0.08537813 -0.25154418
v -0.15325104 -0.057910334 0.2806597
v -0.15296909 -0.05791034 0.20536366
v -0.10600256 -0.036765218 0.21284376
v -0.106353134 -0.036765203 0.28695828
v -0.15288194 -0.05791035 0.17988035
v -0.15259987 -0.05791036 0.09740875
v -0.105545826 -0.036765233 0.1030548
v -0.105896555 -0.03676522 0.18736158
v -0.15251282 -0.05791037 0.07195946
v -0.15223065 -0.057910383 -0.010541185
v -0.105089106 -0.03676525 -0.0067290706
v -0.10543995 -0.03676524 0.07760667
v -0.1521437 -0.057910383 -0.035966408
v -0.15186146 -0.057910398 -0.11848604
v -0.1046324 -0.03676527 -0.116507836
v -0.10498334 -0.036765255 -0.032153323
v -0.15177456 -0.0579104 -0.14389725
v -0.1514923 -0.057910413 -0.22642599
v -0.10417572 -0.03676529 -0.22628152
v -0.10452669 -0.036765274 -0.14191848
v -0.10407002 -0.036765292 -0.25168866
v -0.1036662 -0.036765307 -0.3344707
v -0.056252718 -0.05791038 -0.33561313
v -0.05673495 -0.057910364 -0.25154418
v -0.1068629 -0.03676519 0.36981168
v -0.10645933 -0.036765203 0.3042182
v -0.059579954 -0.05791027 0.3105147
v -0.0600619 -0.05791026 0.37735
v -0.106353134 -0.036765203 0.28695828
v -0.10600256 -0.036765218 0.21284376
v -0.05903568 -0.057910286 0.22032256
v -0.059455514 -0.057910275 0.29325825
v -0.105896555 -0.03676522 0.18736158
v -0.105545826 -0.036765233 0.1030548
v -0.05849143 -0.057910305 0.108700134
v -0.05891145 -0.05791029 0.19484411
v -0.10543995 -0.03676524 0.07760667
v -0.105089106 -0.03676525 -0.0067290706
v -0.05794721 -0.057910323 -0.0029172578
v -0.058367364 -0.05791031 0.08325455
v -0.10498334 -0.036765255 -0.032153323
v -0.1046324 -0.03676527 -0.116507836
v -0.057403006 -0.05791034 -0.11452971
v -0.05782325 -0.057910327 -0.028340016
v -0.10452669 -0.036765274 -0.14191848
v -0.10417572 -0.03676529 -0.22628152
v -0.05685883 -0.05791036 -0.22613712
v -0.057279117 -0.057910345 -0.13993959
v -0.10686286 -0.10229403 0.3698117
v -0.10645929 -0.102294035 0.3042185
v -0.15333833 -0.08537809 0.29792044
v -0.15366384 -0.08537808 0.3622733
v -0.10635309 -0.10229404 0.28695804
v -0.106002524 -0.10229405 0.21284403
v -0.15296909 -0.08537811 0.2053638
v -0.15325102 -0.085378096 0.28065956
v -0.10589652 -0.10229406 0.18736133
v -0.10554579 -0.10229407 0.103054956
v -0.15259986 -0.085378125 0.097408846
v -0.15288192 -0.08537811 0.17988017
v -0.105439916 -0.10229407 0.077606544
v -0.10508907 -0.10229409 -0.006729016
v -0.15223065 -0.08537814 -0.010541136
v -0.15251282 -0.085378125 0.07195938
v -0.1049833 -0.102294095 -0.032153405
v -0.10463236 -0.10229411 -0.11650783
v -0.15186146 -0.08537816 -0.11848603
v -0.15214369 -0.08537815 -0.03596645
v -0.104526654 -0.10229411 -0.14191847
v -0.10417567 -0.102294125 -0.22628151
v -0.15149227 -0.08537818 -0.22642599
v -0.15177454 -0.08537816 -0.14389734
v -0.15325104 -0.057910334 0.2806597
v -0.15333834 -0.05791033 0.2979203
v -0.15333833 -0.08537809 0.29792044
v -0.15325102 -0.085378096 0.28065956
v -0.15288194 -0.05791035 0.17988035
v -0.15296909 -0.05791034 0.20536366
v -0.15296909 -0.08537811 0.2053638
v -0.15288192 -0.08537811 0.17988017
v -0.15251282 -0.05791037 0.07195946
v -0.15259987 -0.05791036 0.09740875
v -0.15259986 -0.085378125 0.097408846
v -0.15251282 -0.085378125 0.07195938
v -0.1521437 -0.057910383 -0.035966408
v -0.15223065 -0.057910383 -0.010541185
v -0.15223065 -0.08537814 -0.010541136
v -0.15214369 -0.08537815 -0.03596645
v -0.15177456 -0.0579104 -0.14389725
v -0.15186146 -0.057910398 -0.11848604
v -0.15186146 -0.08537816 -0.11848603
v -0.15177454 -0.08537816 -0.14389734
v -0.1514054 -0.057910416 -0.25183323
v -0.1514923 -0.057910413 -0.22642599
v -0.15149227 -0.08537818 -0.22642599
v -0.15140538 -0.085378185 -0.25183323
v -0.15325102 -0.085378096 0.28065956
v -0.15333833 -0.08537809 0.29792044
v -0.10645929 -0.102294035 0.3042185
v -0.10635309 -0.10229404 0.28695804
v -0.15288192 -0.08537811 0.17988017
v -0.15296909 -0.08537811 0.2053638
v -0.106002524 -0.10229405 0.21284403
v -0.10589652 -0.10229406 0.18736133
v -0.15251282 -0.085378125 0.07195938
v -0.15259986 -0.085378125 0.097408846
v -0.10554579 -0.10229407 0.103054956
v -0.105439916 -0.10229407 0.077606544
v -0.15214369 -0.08537815 -0.03596645
v -0.15223065 -0.08537814 -0.010541136
v -0.10508907 -0.10229409 -0.006729016
v -0.1049833 -0.102294095 -0.032153405
v -0.15177454 -0.08537816 -0.14389734
v -0.15186146 -0.08537816 -0.11848603
v -0.10463236 -0.10229411 -0.11650783
v -0.104526654 -0.10229411 -0.14191847
v -0.15140538 -0.085378185 -0.25183323
v -0.15149227 -0.08537818 -0.22642599
v -0.10417567 -0.102294125 -0.22628151
v -0.10406998 -0.10229413 -0.25168863
v -0.0594555 -0.08537804 0.29325813
v -0.05957994 -0.085378036 0.3105148
v -0.059579954 -0.05791027 0.3105147
v -0.059455514 -0.057910275 0.29325825
v -0.058911428 -0.08537806 0.194844
v -0.05903566 -0.08537805 0.22032264
v -0.05903568 -0.057910286 0.22032256
v -0.05891145 -0.05791029 0.19484411
v -0.05836734 -0.08537807 0.083254516
v -0.05849141 -0.08537807 0.108700186
v -0.05849143 -0.057910305 0.108700134
v -0.058367364 -0.05791031 0.08325455
v -0.057823226 -0.085378096 -0.028340055
v -0.05794719 -0.08537809 -0.0029172534
v -0.05794721 -0.057910323 -0.0029172578
v -0.05782325 -0.057910327 -0.028340016
v -0.057279095 -0.08537811 -0.13993959
v -0.057402983 -0.08537811 -0.1145297
v -0.057403006 -0.05791034 -0.11452971
v -0.057279117 -0.057910345 -0.13993959
v -0.056734934 -0.08537813 -0.25154418
v -0.056858808 -0.085378125 -0.22613712
v -0.05685883 -0.05791036 -0.22613712
v -0.05673495 -0.057910364 -0.25154418
v -0.059455514 -0.057910275 0.29325825
v -0.059579954 -0.05791027 0.3105147
v -0.10645933 -0.036765203 0.3042182
v -0.106353134 -0.036765203 0.28695828
v -0.05891145 -0.05791029 0.19484411
v -0.05903568 -0.057910286 0.22032256
v -0.10600256 -0.036765218 0.21284376
v -0.105896555 -0.03676522 0.18736158
v -0.058367364 -0.05791031 0.08325455
v -0.05849143 -0.057910305 0.108700134
v -0.105545826 -0.036765233 0.1030548
v -0.10543995 -0.03676524 0.07760667
v -0.05782325 -0.057910327 -0.028340016
v -0.05794721 -0.057910323 -0.0029172578
v -0.105089106 -0.03676525 -0.0067290706
v -0.10498334 -0.036765255 -0.032153323
v -0.057279117 -0.057910345 -0.13993959
v -0.057403006 -0.05791034 -0.11452971
v -0.1046324 -0.03676527 -0.116507836
v -0.10452669 -0.036765274 -0.14191848
v -0.05673495 -0.057910364 -0.25154418
v -0.05685883 -0.05791036 -0.22613712
v -0.10417572 -0.03676529 -0.22628152
v -0.10407002 -0.036765292 -0.25168866
v -0.106353134 -0.036765203 0.28695828
v -0.10645933 -0.036765203 0.3042182
v -0.15333834 -0.05791033 0.2979203
v -0.15325104 -0.057910334 0.2806597
v -0.105896555 -0.03676522 0.18736158
v -0.10600256 -0.036765218 0.21284376
v -0.15296909 -0.05791034 0.20536366
v -0.15288194 -0.05791035 0.17988035
v -0.10543995 -0.03676524 0.07760667
v -0.105545826 -0.036765233 0.1030548
v -0.15259987 -0.05791036 0.09740875
v -0.15251282 -0.05791037 0.07195946
v -0.10498334 -0.036765255 -0.032153323
v -0.105089106 -0.03676525 -0.0067290706
v -0.15223065 -0.057910383 -0.010541185
v -0.1521437 -0.057910383 -0.035966408
v -0.10452669 -0.036765274 -0.14191848
v -0.1046324 -0.03676527 -0.116507836
v -0.15186146 -0.057910398 -0.11848604
v -0.15177456 -0.0579104 -0.14389725
v -0.10407002 -0.036765292 -0.25168866
v -0.10417572 -0.03676529 -0.22628152
v -0.1514923 -0.057910413 -0.22642599
v -0.1514054 -0.057910416 -0.25183323
v -0.10635309 -0.10229404 0.28695804
v -0.10645929 -0.102294035 0.3042185
v -0.05957994 -0.085378036 0.3105148
v -0.0594555 -0.08537804 0.29325813
v -0.10589652 -0.10229406 0.18736133
v -0.106002524 -0.10229405 0.21284403
v -0.05903566 -0.08537805 0.22032264
v -0.058911428 -0.08537806 0.194844
v -0.105439916 -0.10229407 0.077606544
v -0.10554579 -0.10229407 0.103054956
v -0.05849141 -0.08537807 0.108700186
v -0.05836734 -0.08537807 0.083254516
v -0.1049833 -0.102294095 -0.032153405
v -0.10508907 -0.10229409 -0.006729016
v -0.05794719 -0.08537809 -0.0029172534
v -0.057823226 -0.085378096 -0.028340055
v -0.104526654 -0.10229411 -0.14191847
v -0.10463236 -0.10229411 -0.11650783
v -0.057402983 -0.08537811 -0.1145297
v -0.057279095 -0.08537811 -0.13993959
v -0.10406998 -0.10229413 -0.25168863
v -0.10417567 -0.102294125 -0.22628151
v -0.056858808 -0.085378125 -0.22613712
v -0.056734934 -0.08537813 -0.25154418
v -0.15366386 -0.05791032 0.3622733
v -0.15333834 -0.05791033 0.2979203
v -0.10645933 -0.036765203 0.3042182
v -0.1068629 -0.03676519 0.36981168
v -0.36990792 -0.067851275 0.3674142
v -0.3699079 -0.074539155 0.3674142
v -0.36901504 -0.07453913 0.40010804
v -0.36901504 -0.06785125 0.40010804
v -0.36901504 -0.06785125 0.40010804
v -0.36901504 -0.07453913 0.40010804
v -0.2744821 -0.0745391 0.3257539
v -0.2744821 -0.06785122 0.3257539
v -0.47040185 -0.07025148 0.4717848
v -0.47040185 -0.07213907 0.4717848
v -0.3699079 -0.074539155 0.3674142
v -0.36990792 -0.067851275 0.3674142
v -0.2744821 -0.06785122 0.3257539
v -0.2744821 -0.0745391 0.3257539
v -0.27534252 -0.07453908 0.37091744
v -0.27534252 -0.067851216 0.37091744
v -0.38588136 -0.06785127 0.42471355
v -0.38588133 -0.07453915 0.42471355
v -0.47040185 -0.07213907 0.4717848
v -0.47040185 -0.07025148 0.4717848
v -0.385656 -0.06785126 0.4579558
v -0.38565597 -0.07453914 0.4579558
v -0.38588133 -0.07453915 0.42471355
v -0.38588136 -0.06785127 0.42471355
v -0.27534252 -0.067851216 0.37091744
v -0.27534252 -0.07453908 0.37091744
v -0.16862461 -0.07453959 0.294895
v -0.16862461 -0.0676427 0.294895
v -0.29382616 -0.06785122 0.39998668
v -0.29382616 -0.0745391 0.39998668
v -0.38565597 -0.07453914 0.4579558
v -0.385656 -0.06785126 0.4579558
v -0.16862461 -0.0676427 0.294895
v -0.16862461 -0.07453959 0.294895
v -0.13082042 -0.073130384 0.31752476
v -0.13082042 -0.06912214 0.31752476
v -0.29094642 -0.06785122 0.43153185
v -0.29094642 -0.07453909 0.43153185
v -0.29382616 -0.0745391 0.39998668
v -0.29382616 -0.06785122 0.39998668
v -0.16008753 -0.067642674 0.37394303
v -0.16008753 -0.07453956 0.37394303
v -0.29094642 -0.07453909 0.43153185
v -0.29094642 -0.06785122 0.43153185
v -0.12876168 -0.06912213 0.34342957
v -0.12876168 -0.07313037 0.34342957
v -0.16008753 -0.07453956 0.37394303
v -0.16008753 -0.067642674 0.37394303
v -0.16435602 -0.08416908 0.334419
v -0.12979108 -0.075598866 0.33047718
v -0.13082042 -0.073130384 0.31752476
v -0.16862461 -0.07453959 0.294895
v -0.16435605 -0.057606995 0.334419
v -0.12979108 -0.06603652 0.33047718
v -0.12876168 -0.06912213 0.34342957
v -0.16008753 -0.067642674 0.37394303
v -0.28415412 -0.07865782 0.36287028
v -0.29382616 -0.0745391 0.39998668
v -0.29094642 -0.07453909 0.43153185
v -0.28314447 -0.07865781 0.40122467
v -0.37733552 -0.07983633 0.4290319
v -0.37744817 -0.07750233 0.41241086
v -0.38588133 -0.07453915 0.42471355
v -0.38565597 -0.07453914 0.4579558
v -0.37733552 -0.07983633 0.4290319
v -0.38565597 -0.07453914 0.4579558
v -0.29382616 -0.0745391 0.39998668
v -0.28415412 -0.07865782 0.36287028
v -0.28415412 -0.06270282 0.36287028
v -0.28314447 -0.0627028 0.40122467
v -0.29094642 -0.06785122 0.43153185
v -0.29382616 -0.06785122 0.39998668
v -0.37744817 -0.0643852 0.41241086
v -0.37733552 -0.06185742 0.4290319
v -0.385656 -0.06785126 0.4579558
v -0.38588136 -0.06785127 0.42471355
v -0.28314447 -0.0627028 0.40122467
v -0.16435605 -0.057606995 0.334419
v -0.16008753 -0.067642674 0.37394303
v -0.29094642 -0.06785122 0.43153185
v -0.28314447 -0.07865781 0.40122467
v -0.16435602 -0.08416908 0.334419
v -0.16862461 -0.07453959 0.294895
v -0.27534252 -0.07453908 0.37091744
v -0.29094642 -0.07453909 0.43153185
v -0.16008753 -0.07453956 0.37394303
v -0.16435602 -0.08416908 0.334419
v -0.28314447 -0.07865781 0.40122467
v -0.27534252 -0.067851216 0.37091744
v -0.16862461 -0.0676427 0.294895
v -0.16435605 -0.057606995 0.334419
v -0.28314447 -0.0627028 0.40122467
v -0.2744821 -0.06785122 0.3257539
v -0.27534252 -0.067851216 0.37091744
v -0.28314447 -0.0627028 0.40122467
v -0.28415412 -0.06270282 0.36287028
v -0.36901504 -0.07453913 0.40010804
v -0.37733552 -0.07983633 0.4290319
v -0.28415412 -0.07865782 0.36287028
v -0.2744821 -0.0745391 0.3257539
v -0.2744821 -0.0745391 0.3257539
v -0.28415412 -0.07865782 0.36287028
v -0.28314447 -0.07865781 0.40122467
v -0.27534252 -0.07453908 0.37091744
v -0.16862461 -0.0676427 0.294895
v -0.13082042 -0.06912214 0.31752476
v -0.12979108 -0.06603652 0.33047718
v -0.16435605 -0.057606995 0.334419
v -0.16008753 -0.07453956 0.37394303
v -0.12876168 -0.07313037 0.34342957
v -0.12979108 -0.075598866 0.33047718
v -0.16435602 -0.08416908 0.334419
v -0.28415412 -0.06270282 0.36287028
v -0.29382616 -0.06785122 0.39998668
v -0.385656 -0.06785126 0.4579558
v -0.37733552 -0.06185742 0.4290319
v -0.2744821 -0.06785122 0.3257539
v -0.28415412 -0.06270282 0.36287028
v -0.37733552 -0.06185742 0.4290319
v -0.36901504 -0.06785125 0.40010804
v -0.36990792 -0.067851275 0.3674142
v -0.36901504 -0.06785125 0.40010804
v -0.37744817 -0.0643852 0.41241086
v -0.47040185 -0.07025148 0.4717848
v -0.3699079 -0.074539155 0.3674142
v -0.47040185 -0.07213907 0.4717848
v -0.37744817 -0.07750233 0.41241086
v -0.36901504 -0.07453913 0.40010804
v 0.15772416 -0.06785094 0.40278214
v 0.15357381 -0.06785093 0.43522376
v 0.15357381 -0.07453881 0.43522376
v 0.15772414 -0.07453882 0.40278214
v 0.15357381 -0.06785093 0.43522376
v 0.066930965 -0.06785102 0.35180897
v 0.06693097 -0.07453889 0.35180897
v 0.15357381 -0.07453881 0.43522376
v 0.24730352 -0.070251025 0.51665837
v 0.15772416 -0.06785094 0.40278214
v 0.15772414 -0.07453882 0.40278214
v 0.24730352 -0.072138615 0.51665837
v 0.066930965 -0.06785102 0.35180897
v 0.063281104 -0.067851014 0.396833
v 0.06328111 -0.07453888 0.396833
v 0.06693097 -0.07453889 0.35180897
v 0.16790105 -0.06785093 0.4613893
v 0.24730352 -0.070251025 0.51665837
v 0.24730352 -0.072138615 0.51665837
v 0.16790107 -0.07453881 0.4613893
v 0.16436024 -0.067850925 0.49444318
v 0.16790105 -0.06785093 0.4613893
v 0.16790107 -0.07453881 0.4613893
v 0.16436023 -0.074538805 0.49444318
v 0.063281104 -0.067851014 0.396833
v -0.035319526 -0.06764261 0.31054252
v -0.035319522 -0.0745395 0.31054252
v 0.06328111 -0.07453888 0.396833
v 0.0787722 -0.067851 0.4276013
v 0.16436024 -0.067850925 0.49444318
v 0.16436023 -0.074538805 0.49444318
v 0.07877221 -0.074538864 0.4276013
v -0.035319526 -0.06764261 0.31054252
v -0.07519287 -0.069122106 0.3292876
v -0.07519287 -0.07313035 0.3292876
v -0.035319522 -0.0745395 0.31054252
v 0.07275958 -0.06785099 0.45870182
v 0.0787722 -0.067851 0.4276013
v 0.07877221 -0.074538864 0.4276013
v 0.07275959 -0.07453886 0.45870182
v -0.05170073 -0.06764261 0.3883444
v 0.07275958 -0.06785099 0.45870182
v 0.07275959 -0.07453886 0.45870182
v -0.051700722 -0.0745395 0.3883444
v -0.07982589 -0.069122106 0.35485774
v -0.05170073 -0.06764261 0.3883444
v -0.051700722 -0.0745395 0.3883444
v -0.07982589 -0.07313035 0.35485774
v -0.043510117 -0.084169 0.3494434
v -0.035319522 -0.0745395 0.31054252
v -0.07519287 -0.07313035 0.3292876
v -0.07750937 -0.07559883 0.34207267
v -0.04351013 -0.057606924 0.3494434
v -0.05170073 -0.06764261 0.3883444
v -0.07982589 -0.069122106 0.35485774
v -0.07750937 -0.066036485 0.34207267
v 0.072851546 -0.078657605 0.3897051
v 0.06802029 -0.078657605 0.42776743
v 0.07275959 -0.07453886 0.45870182
v 0.07877221 -0.074538864 0.4276013
v 0.15896702 -0.079835996 0.46483347
v 0.16436023 -0.074538805 0.49444318
v 0.16790107 -0.07453881 0.4613893
v 0.16073743 -0.07750203 0.4483066
v 0.15896702 -0.079835996 0.46483347
v 0.072851546 -0.078657605 0.3897051
v 0.07877221 -0.074538864 0.4276013
v 0.16436023 -0.074538805 0.49444318
v 0.07285155 -0.06270259 0.38970515
v 0.0787722 -0.067851 0.4276013
v 0.07275958 -0.06785099 0.45870182
v 0.0680203 -0.0627026 0.42776743
v 0.16073743 -0.06438486 0.4483066
v 0.16790105 -0.06785093 0.4613893
v 0.16436024 -0.067850925 0.49444318
v 0.15896702 -0.06185709 0.46483347
v 0.0680203 -0.0627026 0.42776743
v 0.07275958 -0.06785099 0.45870182
v -0.05170073 -0.06764261 0.3883444
v -0.04351013 -0.057606924 0.3494434
v 0.06802029 -0.078657605 0.42776743
v 0.06328111 -0.07453888 0.396833
v -0.035319522 -0.0745395 0.31054252
v -0.043510117 -0.084169 0.3494434
v 0.07275959 -0.07453886 0.45870182
v 0.06802029 -0.078657605 0.42776743
v -0.043510117 -0.084169 0.3494434
v -0.051700722 -0.0745395 0.3883444
v 0.063281104 -0.067851014 0.396833
v 0.0680203 -0.0627026 0.42776743
v -0.04351013 -0.057606924 0.3494434
v -0.035319526 -0.06764261 0.31054252
v 0.066930965 -0.06785102 0.35180897
v 0.07285155 -0.06270259 0.38970515
v 0.0680203 -0.0627026 0.42776743
v 0.063281104 -0.067851014 0.396833
v 0.15357381 -0.07453881 0.43522376
v 0.06693097 -0.07453889 0.35180897
v 0.072851546 -0.078657605 0.3897051
v 0.15896702 -0.079835996 0.46483347
v 0.06693097 -0.07453889 0.35180897
v 0.06328111 -0.07453888 0.396833
v 0.06802029 -0.078657605 0.42776743
v 0.072851546 -0.078657605 0.3897051
v -0.035319526 -0.06764261 0.31054252
v -0.04351013 -0.057606924 0.3494434
v -0.07750937 -0.066036485 0.34207267
v -0.07519287 -0.069122106 0.3292876
v -0.051700722 -0.0745395 0.3883444
v -0.043510117 -0.084169 0.3494434
v -0.07750937 -0.07559883 0.34207267
v -0.07982589 -0.07313035 0.35485774
v 0.07285155 -0.06270259 0.38970515
v 0.15896702 -0.06185709 0.46483347
v 0.16436024 -0.067850925 0.49444318
v 0.0787722 -0.067851 0.4276013
v 0.066930965 -0.06785102 0.35180897
v 0.15357381 -0.06785093 0.43522376
v 0.15896702 -0.06185709 0.46483347
v 0.07285155 -0.06270259 0.38970515
v 0.15772416 -0.06785094 0.40278214
v 0.24730352 -0.070251025 0.51665837
v 0.16073743 -0.06438486 0.4483066
v 0.15357381 -0.06785093 0.43522376
v 0.15772414 -0.07453882 0.40278214
v 0.15357381 -0.07453881 0.43522376
v 0.16073743 -0.07750203 0.4483066
v 0.24730352 -0.072138615 0.51665837
v -0.15107967 -0.05791043 -0.3333283
v -0.10366618 -0.045018874 -0.3344707
v -0.1036662 -0.036765307 -0.3344707
v -0.1396286 -0.061057143 -0.33360422
v -0.06770376 -0.0610571 -0.33533722
v -0.15107965 -0.08537819 -0.3333283
v -0.056252718 -0.05791038 -0.33561313
v -0.13962859 -0.08189103 -0.33360422
v -0.067703746 -0.08189099 -0.33533722
v -0.10366616 -0.10229414 -0.33447066
v -0.056252703 -0.08537814 -0.33561313
v -0.10366615 -0.09472153 -0.33447066
vt 0.03362318 0.37416807
vt 0.03362318 0.37416807
vt 0.03362318 0.37416807
vt 0.03362318 0.37416807
vt 0.03362318 0.37416807
vt 0.03362318 0.37416807
vt 0.028740369 0.334129
vt 0.028740369 0.334129
vt 0.028740369 0.334129
vt 0.028740369 0.334129
vt 0.028740369 0.334129
vt 0.028740369 0.334129
vt 0.037041157 0.34828916
vt 0.037041157 0.34828916
vt 0.037041157 0.34828916
vt 0.037041157 0.34828916
vt 0.037041157 0.34828916
vt 0.037041157 0.34828916
vt 0.037041157 0.34828916
vt 0.037041157 0.34828916
vt 0.037041157 0.34828916
vt 0.037041157 0.34828916
vt 0.037041157 0.34828916
vt 0.037041157 0.34828916
vt 0.037041157 0.34828916
vt 0.037041157 0.34828916
vt 0.037041157 0.34828916
vt 0.037041157 0.34828916
vt 0.037041157 0.34828916
vt 0.037041157 0.34828916
vt 0.03362318 0.37416807
vt 0.03362318 0.37416807
vt 0.03362318 0.37416807
vt 0.03362318 0.37416807
vt 0.03362318 0.37416807
vt 0.03362318 0.37416807
vt 0.028740369 0.334129
vt 0.028740369 0.334129
vt 0.028740369 0.334129
vt 0.028740369 0.334129
vt 0.028740369 0.334129
vt 0.028740369 0.334129
vt 0.03362318 0.37416807
vt 0.03362318 0.37416807
vt 0.03362318 0.37416807
vt 0.03362318 0.37416807
vt 0.03362318 0.37416807
vt 0.03362318 0.37416807
vt 0.028740369 0.334129
vt 0.028740369 0.334129
vt 0.028740369 0.334129
vt 0.028740369 0.334129
vt 0.028740369 0.334129
vt 0.028740369 0.334129
vt 0.028740369 0.334129
vt 0.028740369 0.334129
vt 0.028740369 0.334129
vt 0.028740369 0.334129
vt 0.028740369 0.334129
vt 0.028740369 0.334129
vt 0.028740369 0.334129
vt 0.028740369 0.334129
vt 0.028740369 0.334129
vt 0.028740369 0.334129
vt 0.028740369 0.334129
vt 0.028740369 0.334129
vt 0.028740369 0.334129
vt 0.028740369 0.334129
vt 0.028740369 0.334129
vt 0.028740369 0.334129
vt 0.03362318 0.37416807
vt 0.03362318 0.37416807
vt 0.03362318 0.37416807
vt 0.03362318 0.37416807
vt 0.269463 0.6568829
vt 0.269463 0.6568829
vt 0.269463 0.6568829
vt 0.269463 0.6568829
vt 0.269463 0.6568829
vt 0.269463 0.6568829
vt 0.03362318 0.37416807
vt 0.03362318 0.37416807
vt 0.03362318 0.37416807
vt 0.03362318 0.37416807
vt 0.028740369 0.334129
vt 0.028740369 0.334129
vt 0.028740369 0.334129
vt 0.028740369 0.334129
vt 0.03362318 0.37416807
vt 0.03362318 0.37416807
vt 0.03362318 0.37416807
vt 0.03362318 0.37416807
vt 0.028740369 0.334129
vt 0.028740369 0.334129
vt 0.028740369 0.334129
vt 0.028740369 0.334129
vt 0.03362318 0.37416807
vt 0.03362318 0.37416807
vt 0.03362318 0.37416807
vt 0.03362318 0.37416807
vt 0.03362318 0.37416807
vt 0.03362318 0.37416807
vt 0.03362318 0.37416807
vt 0.03362318 0.37416807
vt 0.03362318 0.37416807
vt 0.03362318 0.37416807
vt 0.03362318 0.37416807
vt 0.03362318 0.37416807
vt 0.028740369 0.334129
vt 0.028740369 0.334129
vt 0.028740369 0.334129
vt 0.028740369 0.334129
vt 0.03362318 0.37416807
vt 0.03362318 0.37416807
vt 0.03362318 0.37416807
vt 0.03362318 0.37416807
vt 0.03362318 0.37416807
vt 0.03362318 0.37416807
vt 0.03362318 0.37416807
vt 0.03362318 0.37416807
vt 0.03362318 0.37416807
vt 0.03362318 0.37416807
vt 0.03362318 0.37416807
vt 0.03362318 0.37416807
vt 0.03362318 0.37416807
vt 0.03362318 0.37416807
vt 0.03362318 0.37416807
vt 0.03362318 0.37416807
vt 0.03362318 0.37416807
vt 0.03362318 0.37416807
vt 0.03362318 0.37416807
vt 0.03362318 0.37416807
vt 0.03362318 0.37416807
vt 0.03362318 0.37416807
vt 0.03362318 0.37416807
vt 0.03362318 0.37416807
vt 0.03362318 0.37416807
vt 0.03362318 0.37416807
vt 0.03362318 0.37416807
vt 0.03362318 0.37416807
vt 0.028740369 0.334129
vt 0.028740369 0.334129
vt 0.028740369 0.334129
vt 0.028740369 0.334129
vt 0.03362318 0.37416807
vt 0.03362318 0.37416807
vt 0.03362318 0.37416807
vt 0.03362318 0.37416807
vt 0.028740369 0.334129
vt 0.028740369 0.334129
vt 0.028740369 0.334129
vt 0.028740369 0.334129
vt 0.028740369 0.334129
vt 0.028740369 0.334129
vt 0.028740369 0.334129
vt 0.028740369 0.334129
vt 0.028740369 0.334129
vt 0.028740369 0.334129
vt 0.028740369 0.334129
vt 0.028740369 0.334129
vt 0.028740369 0.334129
vt 0.028740369 0.334129
vt 0.028740369 0.334129
vt 0.028740369 0.334129
vt 0.028740369 0.334129
vt 0.028740369 0.334129
vt 0.028740369 0.334129
vt 0.028740369 0.334129
vt 0.03362318 0.37416807
vt 0.03362318 0.37416807
vt 0.03362318 0.37416807
vt 0.03362318 0.37416807
vt 0.269463 0.6568829
vt 0.269463 0.6568829
vt 0.269463 0.6568829
vt 0.269463 0.6568829
vt 0.03362318 0.37416807
vt 0.03362318 0.37416807
vt 0.03362318 0.37416807
vt 0.03362318 0.37416807
vt 0.028740369 0.334129
vt 0.028740369 0.334129
vt 0.028740369 0.334129
vt 0.028740369 0.334129
vt 0.028740369 0.334129
vt 0.028740369 0.334129
vt 0.028740369 0.334129
vt 0.028740369 0.334129
vt 0.028740369 0.334129
vt 0.028740369 0.334129
vt 0.028740369 0.334129
vt 0.028740369 0.334129
vt 0.269463 0.6568829
vt 0.269463 0.6568829
vt 0.269463 0.6568829
vt 0.269463 0.6568828
vt 0.269463 0.6568829
vt 0.269463 0.6568828
vt 0.269463 0.6568829
vt 0.269463 0.6568829
vt 0.269463 0.6568829
vt 0.269463 0.6568829
vt 0.269463 0.6568829
vt 0.269463 0.6568829
vt 0.269463 0.6568829
vt 0.269463 0.6568829
vt 0.269463 0.6568829
vt 0.269463 0.6568829
vt 0.269463 0.6568829
vt 0.269463 0.6568829
vt 0.269463 0.6568829
vt 0.269463 0.6568829
vt 0.269463 0.6568829
vt 0.269463 0.6568829
vt 0.269463 0.6568829
vt 0.269463 0.6568829
vt 0.269463 0.6568829
vt 0.269463 0.6568829
vt 0.269463 0.6568829
vt 0.269463 0.6568829
vt 0.269463 0.6568829
vt 0.269463 0.6568829
vt 0.037041157 0.34828916
vt 0.037041157 0.34828916
vt 0.037041157 0.34828916
vt 0.037041157 0.34828916
vt 0.037041157 0.34828916
vt 0.037041157 0.34828916
vt 0.037041157 0.34828916
vt 0.037041157 0.34828916
vt 0.037041157 0.34828916
vt 0.037041157 0.34828916
vt 0.037041157 0.34828916
vt 0.037041157 0.34828916
vt 0.037041157 0.34828916
vt 0.037041157 0.34828916
vt 0.037041157 0.34828916
vt 0.037041157 0.34828916
vt 0.037041157 0.34828916
vt 0.037041157 0.34828916
vt 0.037041157 0.34828916
vt 0.037041157 0.34828916
vt 0.037041157 0.34828916
vt 0.037041157 0.34828916
vt 0.037041157 0.34828916
vt 0.037041157 0.34828916
vt 0.037041157 0.34828916
vt 0.037041157 0.34828916
vt 0.037041157 0.34828916
vt 0.037041157 0.34828916
vt 0.037041157 0.34828916
vt 0.037041157 0.34828916
vt 0.037041157 0.34828916
vt 0.037041157 0.34828916
vt 0.037041157 0.34828916
vt 0.037041157 0.34828916
vt 0.037041157 0.34828916
vt 0.037041157 0.34828916
vt 0.037041157 0.34828916
vt 0.037041157 0.34828916
vt 0.037041157 0.34828916
vt 0.037041157 0.34828916
vt 0.037041157 0.34828916
vt 0.037041157 0.34828916
vt 0.037041157 0.34828916
vt 0.037041157 0.34828916
vt 0.037041157 0.34828916
vt 0.037041157 0.34828916
vt 0.037041157 0.34828916
vt 0.037041157 0.34828916
vt 0.269463 0.6568829
vt 0.269463 0.6568829
vt 0.269463 0.6568829
vt 0.269463 0.6568829
vt 0.269463 0.6568829
vt 0.269463 0.6568829
vt 0.269463 0.6568829
vt 0.269463 0.6568829
vt 0.269463 0.6568829
vt 0.269463 0.6568829
vt 0.269463 0.6568829
vt 0.269463 0.6568829
vt 0.269463 0.6568829
vt 0.269463 0.6568829
vt 0.269463 0.6568829
vt 0.269463 0.6568829
vt 0.269463 0.6568829
vt 0.269463 0.6568829
vt 0.269463 0.6568829
vt 0.269463 0.6568829
vt 0.269463 0.6568829
vt 0.269463 0.6568829
vt 0.269463 0.6568829
vt 0.269463 0.6568829
vt 0.269463 0.6568829
vt 0.269463 0.6568829
vt 0.269463 0.6568829
vt 0.269463 0.6568829
vt 0.269463 0.6568829
vt 0.269463 0.6568829
vt 0.269463 0.6568829
vt 0.269463 0.6568829
vt 0.269463 0.6568829
vt 0.269463 0.6568829
vt 0.269463 0.6568829
vt 0.269463 0.6568829
vt 0.269463 0.6568829
vt 0.269463 0.6568829
vt 0.269463 0.6568829
vt 0.269463 0.6568829
vt 0.269463 0.6568829
vt 0.269463 0.6568829
vt 0.269463 0.6568829
vt 0.269463 0.6568829
vt 0.269463 0.6568829
vt 0.269463 0.6568829
vt 0.269463 0.6568829
vt 0.269463 0.6568829
vt 0.269463 0.6568829
vt 0.269463 0.6568829
vt 0.269463 0.6568829
vt 0.269463 0.6568829
vt 0.269463 0.6568829
vt 0.269463 0.6568829
vt 0.269463 0.6568829
vt 0.269463 0.6568829
vt 0.269463 0.6568829
vt 0.269463 0.6568829
vt 0.269463 0.6568829
vt 0.269463 0.6568829
vt 0.269463 0.6568829
vt 0.269463 0.6568829
vt 0.269463 0.6568829
vt 0.269463 0.6568829
vt 0.269463 0.6568829
vt 0.269463 0.6568829
vt 0.269463 0.6568829
vt 0.269463 0.6568829
vt 0.269463 0.6568829
vt 0.269463 0.6568829
vt 0.269463 0.6568829
vt 0.269463 0.6568829
vt 0.269463 0.6568829
vt 0.269463 0.6568829
vt 0.269463 0.6568829
vt 0.269463 0.6568829
vt 0.269463 0.6568829
vt 0.269463 0.6568829
vt 0.269463 0.6568829
vt 0.269463 0.6568829
vt 0.269463 0.6568829
vt 0.269463 0.6568829
vt 0.269463 0.6568829
vt 0.269463 0.6568829
vt 0.269463 0.6568829
vt 0.269463 0.6568829
vt 0.269463 0.6568829
vt 0.269463 0.6568829
vt 0.269463 0.6568829
vt 0.269463 0.6568829
vt 0.269463 0.6568829
vt 0.269463 0.65688294
vt 0.269463 0.6568829
vt 0.269463 0.6568829
vt 0.269463 0.6568829
vt 0.269463 0.6568829
vt 0.269463 0.6568829
vt 0.269463 0.6568829
vt 0.269463 0.6568829
vt 0.269463 0.6568829
vt 0.269463 0.6568829
vt 0.269463 0.6568829
vt 0.269463 0.6568829
vt 0.269463 0.6568829
vt 0.269463 0.6568829
vt 0.269463 0.6568829
vt 0.269463 0.6568829
vt 0.269463 0.6568829
vt 0.269463 0.6568829
vt 0.269463 0.6568828
vt 0.269463 0.6568829
vt 0.269463 0.6568829
vt 0.269463 0.6568829
vt 0.269463 0.6568829
vt 0.269463 0.6568829
vt 0.269463 0.6568829
vt 0.269463 0.6568829
vt 0.269463 0.6568829
vt 0.269463 0.6568829
vt 0.269463 0.6568829
vt 0.269463 0.6568829
vt 0.269463 0.6568829
vt 0.269463 0.6568829
vt 0.269463 0.6568829
vt 0.269463 0.6568829
vt 0.269463 0.6568829
vt 0.269463 0.6568829
vt 0.269463 0.6568829
vt 0.269463 0.6568829
vt 0.269463 0.6568829
vt 0.269463 0.6568829
vt 0.269463 0.6568829
vt 0.269463 0.6568829
vt 0.269463 0.6568829
vt 0.269463 0.6568829
vt 0.269463 0.6568829
vt 0.269463 0.6568829
vt 0.269463 0.6568829
vt 0.269463 0.6568829
vt 0.269463 0.6568829
vt 0.269463 0.6568829
vt 0.269463 0.6568829
vt 0.269463 0.6568829
vt 0.269463 0.6568829
vt 0.15227552 0.40297666
vt 0.15227552 0.40297666
vt 0.15227552 0.4029766
vt 0.15227552 0.40297666
vt 0.15227552 0.40297666
vt 0.15227552 0.40297666
vt 0.15227552 0.40297666
vt 0.15227552 0.40297666
vt 0.15227552 0.40297666
vt 0.15227552 0.40297666
vt 0.15227552 0.40297666
vt 0.15227552 0.40297666
vt 0.15227552 0.40297666
vt 0.15227552 0.40297666
vt 0.15227552 0.40297666
vt 0.15227552 0.40297666
vt 0.15227552 0.40297666
vt 0.15227552 0.40297666
vt 0.15227552 0.40297666
vt 0.15227552 0.40297666
vt 0.15227552 0.40297666
vt 0.15227552 0.40297666
vt 0.15227552 0.40297666
vt 0.15227552 0.40297666
vt 0.15227552 0.40297666
vt 0.15227552 0.40297666
vt 0.15227552 0.40297666
vt 0.15227552 0.40297666
vt 0.15227552 0.40297666
vt 0.15227552 0.40297666
vt 0.15227552 0.40297666
vt 0.15227552 0.40297666
vt 0.15227552 0.40297666
vt 0.15227552 0.40297666
vt 0.15227552 0.40297666
vt 0.15227552 0.40297666
vt 0.15227552 0.40297666
vt 0.15227552 0.40297666
vt 0.15227552 0.40297666
vt 0.15227552 0.40297666
vt 0.15227552 0.40297666
vt 0.15227552 0.40297666
vt 0.15227552 0.40297666
vt 0.15227552 0.40297666
vt 0.15227552 0.40297666
vt 0.15227552 0.40297666
vt 0.15227552 0.40297666
vt 0.15227552 0.40297666
vt 0.15227552 0.40297666
vt 0.15227552 0.40297666
vt 0.15227552 0.40297666
vt 0.15227552 0.40297666
vt 0.15227552 0.40297666
vt 0.15227552 0.40297666
vt 0.15227552 0.40297666
vt 0.15227552 0.40297666
vt 0.15227552 0.40297666
vt 0.15227552 0.40297666
vt 0.15227552 0.40297666
vt 0.15227552 0.40297666
vt 0.15227552 0.40297666
vt 0.15227552 0.40297666
vt 0.15227552 0.40297666
vt 0.15227552 0.40297666
vt 0.15227552 0.40297666
vt 0.15227552 0.40297666
vt 0.15227552 0.40297666
vt 0.15227552 0.40297666
vt 0.15227552 0.40297666
vt 0.15227552 0.40297666
vt 0.15227552 0.40297666
vt 0.15227552 0.40297666
vt 0.15227552 0.40297666
vt 0.15227552 0.40297666
vt 0.15227552 0.40297666
vt 0.15227552 0.40297666
vt 0.15227552 0.40297666
vt 0.15227552 0.40297666
vt 0.15227552 0.40297666
vt 0.15227552 0.40297666
vt 0.15227552 0.40297666
vt 0.15227552 0.40297666
vt 0.15227552 0.40297666
vt 0.15227552 0.40297666
vt 0.15227552 0.40297666
vt 0.15227552 0.40297666
vt 0.15227552 0.4029766
vt 0.15227552 0.40297666
vt 0.15227552 0.40297666
vt 0.15227552 0.40297666
vt 0.15227552 0.40297666
vt 0.15227552 0.40297666
vt 0.15227552 0.40297666
vt 0.15227552 0.40297666
vt 0.15227552 0.40297666
vt 0.15227552 0.40297666
vt 0.15227552 0.40297666
vt 0.15227552 0.40297666
vt 0.15227552 0.4029766
vt 0.15227552 0.40297666
vt 0.15227552 0.40297666
vt 0.15227552 0.40297666
vt 0.15227552 0.40297666
vt 0.15227552 0.40297666
vt 0.15227552 0.40297666
vt 0.15227552 0.40297666
vt 0.15227552 0.40297666
vt 0.15227552 0.40297666
vt 0.15227552 0.40297666
vt 0.15227552 0.40297666
vt 0.15227552 0.40297666
vt 0.15227552 0.40297666
vt 0.15227552 0.40297672
vt 0.15227552 0.40297666
vt 0.15227552 0.40297666
vt 0.15227552 0.40297666
vt 0.15227552 0.4029766
vt 0.15227552 0.40297666
vt 0.15227552 0.40297666
vt 0.15227552 0.40297666
vt 0.15227552 0.40297666
vt 0.15227552 0.40297666
vt 0.15227552 0.40297666
vt 0.15227552 0.40297666
vt 0.15227552 0.40297666
vt 0.15227552 0.40297666
vt 0.15227552 0.40297666
vt 0.15227552 0.40297666
vt 0.15227552 0.40297666
vt 0.15227552 0.40297666
vt 0.15227552 0.40297666
vt 0.15227552 0.40297666
vt 0.15227552 0.40297666
vt 0.15227552 0.40297666
vt 0.15227552 0.40297666
vt 0.15227552 0.40297666
vt 0.15227552 0.40297666
vt 0.15227552 0.40297666
vt 0.15227552 0.40297666
vt 0.15227552 0.40297666
vt 0.15227552 0.40297666
vt 0.15227552 0.40297666
vt 0.15227552 0.40297666
vt 0.15227552 0.40297666
vt 0.269463 0.6568829
vt 0.269463 0.6568828
vt 0.269463 0.6568829
vt 0.269463 0.6568829
vt 0.028740369 0.334129
vt 0.028740369 0.334129
vt 0.028740369 0.334129
vt 0.028740369 0.334129
vt 0.028740369 0.334129
vt 0.028740369 0.334129
vt 0.028740369 0.334129
vt 0.028740369 0.334129
vt 0.028740369 0.334129
vt 0.028740369 0.334129
vt 0.028740369 0.334129
vt 0.028740369 0.334129
vt 0.028740369 0.334129
vt 0.028740369 0.334129
vt 0.028740369 0.334129
vt 0.028740369 0.334129
vt 0.03362318 0.37416807
vt 0.03362318 0.37416807
vt 0.03362318 0.37416807
vt 0.03362318 0.37416807
vt 0.03362318 0.37416807
vt 0.03362318 0.37416807
vt 0.03362318 0.37416807
vt 0.03362318 0.37416807
vt 0.028740369 0.334129
vt 0.028740369 0.334129
vt 0.028740369 0.334129
vt 0.028740369 0.334129
vt 0.03362318 0.37416807
vt 0.03362318 0.37416807
vt 0.03362318 0.37416807
vt 0.03362318 0.37416807
vt 0.028740369 0.334129
vt 0.028740369 0.334129
vt 0.028740369 0.334129
vt 0.028740369 0.334129
vt 0.03362318 0.37416807
vt 0.03362318 0.37416807
vt 0.03362318 0.37416807
vt 0.03362318 0.37416807
vt 0.03362318 0.37416807
vt 0.03362318 0.37416807
vt 0.03362318 0.37416807
vt 0.03362318 0.37416807
vt 0.03362318 0.37416807
vt 0.03362318 0.37416807
vt 0.03362318 0.37416807
vt 0.03362318 0.37416807
vt 0.028740369 0.334129
vt 0.028740369 0.334129
vt 0.028740369 0.334129
vt 0.028740369 0.334129
vt 0.03362318 0.37416807
vt 0.03362318 0.37416807
vt 0.03362318 0.37416807
vt 0.03362318 0.37416807
vt 0.03362318 0.37416807
vt 0.03362318 0.37416807
vt 0.03362318 0.37416807
vt 0.03362318 0.37416807
vt 0.03362318 0.37416807
vt 0.03362318 0.37416807
vt 0.03362318 0.37416807
vt 0.03362318 0.37416807
vt 0.03362318 0.37416807
vt 0.03362318 0.37416807
vt 0.03362318 0.37416807
vt 0.03362318 0.37416807
vt 0.03362318 0.37416807
vt 0.03362318 0.37416807
vt 0.03362318 0.37416807
vt 0.03362318 0.37416807
vt 0.03362318 0.37416807
vt 0.03362318 0.37416807
vt 0.03362318 0.37416807
vt 0.03362318 0.37416807
vt 0.03362318 0.37416807
vt 0.03362318 0.37416807
vt 0.03362318 0.37416807
vt 0.03362318 0.37416807
vt 0.028740369 0.334129
vt 0.028740369 0.334129
vt 0.028740369 0.334129
vt 0.028740369 0.334129
vt 0.03362318 0.37416807
vt 0.03362318 0.37416807
vt 0.03362318 0.37416807
vt 0.03362318 0.37416807
vt 0.028740369 0.334129
vt 0.028740369 0.334129
vt 0.028740369 0.334129
vt 0.028740369 0.334129
vt 0.028740369 0.334129
vt 0.028740369 0.334129
vt 0.028740369 0.334129
vt 0.028740369 0.334129
vt 0.028740369 0.334129
vt 0.028740369 0.334129
vt 0.028740369 0.334129
vt 0.028740369 0.334129
vt 0.028740369 0.334129
vt 0.028740369 0.334129
vt 0.028740369 0.334129
vt 0.028740369 0.334129
vt 0.028740369 0.334129
vt 0.028740369 0.334129
vt 0.028740369 0.334129
vt 0.028740369 0.334129
vt 0.03362318 0.37416807
vt 0.03362318 0.37416807
vt 0.03362318 0.37416807
vt 0.03362318 0.37416807
vt 0.03362318 0.37416807
vt 0.03362318 0.37416807
vt 0.03362318 0.37416807
vt 0.03362318 0.37416807
vt 0.028740369 0.334129
vt 0.028740369 0.334129
vt 0.028740369 0.334129
vt 0.028740369 0.334129
vt 0.028740369 0.334129
vt 0.028740369 0.334129
vt 0.028740369 0.334129
vt 0.028740369 0.334129
vt 0.028740369 0.334129
vt 0.028740369 0.334129
vt 0.028740369 0.334129
vt 0.028740369 0.334129
vt 0.028740369 0.334129
vt 0.028740369 0.334129
vt 0.028740369 0.334129
vt 0.028740369 0.334129
vt 0.028740369 0.334129
vt 0.028740369 0.334129
vt 0.028740369 0.334129
vt 0.028740369 0.334129
vt 0.028740369 0.334129
vt 0.028740369 0.334129
vt 0.028740369 0.334129
vt 0.028740369 0.334129
vt 0.028740369 0.334129
vt 0.028740369 0.334129
vt 0.028740369 0.334129
vt 0.028740369 0.334129
vt 0.03362318 0.37416807
vt 0.03362318 0.37416807
vt 0.03362318 0.37416807
vt 0.03362318 0.37416807
vt 0.03362318 0.37416807
vt 0.03362318 0.37416807
vt 0.03362318 0.37416807
vt 0.03362318 0.37416807
vt 0.028740369 0.334129
vt 0.028740369 0.334129
vt 0.028740369 0.334129
vt 0.028740369 0.334129
vt 0.03362318 0.37416807
vt 0.03362318 0.37416807
vt 0.03362318 0.37416807
vt 0.03362318 0.37416807
vt 0.028740369 0.334129
vt 0.028740369 0.334129
vt 0.028740369 0.334129
vt 0.028740369 0.334129
vt 0.03362318 0.37416807
vt 0.03362318 0.37416807
vt 0.03362318 0.37416807
vt 0.03362318 0.37416807
vt 0.03362318 0.37416807
vt 0.03362318 0.37416807
vt 0.03362318 0.37416807
vt 0.03362318 0.37416807
vt 0.03362318 0.37416807
vt 0.03362318 0.37416807
vt 0.03362318 0.37416807
vt 0.03362318 0.37416807
vt 0.028740369 0.334129
vt 0.028740369 0.334129
vt 0.028740369 0.334129
vt 0.028740369 0.334129
vt 0.03362318 0.37416807
vt 0.03362318 0.37416807
vt 0.03362318 0.37416807
vt 0.03362318 0.37416807
vt 0.03362318 0.37416807
vt 0.03362318 0.37416807
vt 0.03362318 0.37416807
vt 0.03362318 0.37416807
vt 0.03362318 0.37416807
vt 0.03362318 0.37416807
vt 0.03362318 0.37416807
vt 0.03362318 0.37416807
vt 0.03362318 0.37416807
vt 0.03362318 0.37416807
vt 0.03362318 0.37416807
vt 0.03362318 0.37416807
vt 0.03362318 0.37416807
vt 0.03362318 0.37416807
vt 0.03362318 0.37416807
vt 0.03362318 0.37416807
vt 0.03362318 0.37416807
vt 0.03362318 0.37416807
vt 0.03362318 0.37416807
vt 0.03362318 0.37416807
vt 0.03362318 0.37416807
vt 0.03362318 0.37416807
vt 0.03362318 0.37416807
vt 0.03362318 0.37416807
vt 0.028740369 0.334129
vt 0.028740369 0.334129
vt 0.028740369 0.334129
vt 0.028740369 0.334129
vt 0.03362318 0.37416807
vt 0.03362318 0.37416807
vt 0.03362318 0.37416807
vt 0.03362318 0.37416807
vt 0.028740369 0.334129
vt 0.028740369 0.334129
vt 0.028740369 0.334129
vt 0.028740369 0.334129
vt 0.028740369 0.334129
vt 0.028740369 0.334129
vt 0.028740369 0.334129
vt 0.028740369 0.334129
vt 0.028740369 0.334129
vt 0.028740369 0.334129
vt 0.028740369 0.334129
vt 0.028740369 0.334129
vt 0.028740369 0.334129
vt 0.028740369 0.334129
vt 0.028740369 0.334129
vt 0.028740369 0.334129
vt 0.028740369 0.334129
vt 0.028740369 0.334129
vt 0.028740369 0.334129
vt 0.028740369 0.334129
vt 0.03362318 0.37416807
vt 0.03362318 0.37416807
vt 0.03362318 0.37416807
vt 0.03362318 0.37416807
vt 0.03362318 0.37416807
vt 0.03362318 0.37416807
vt 0.03362318 0.37416807
vt 0.03362318 0.37416807
vt 0.028740369 0.334129
vt 0.028740369 0.334129
vt 0.028740369 0.334129
vt 0.028740369 0.334129
vt 0.028740369 0.334129
vt 0.028740369 0.334129
vt 0.028740369 0.334129
vt 0.028740369 0.334129
vt 0.028740369 0.334129
vt 0.028740369 0.334129
vt 0.028740369 0.334129
vt 0.028740369 0.334129
vt 0.269463 0.6568829
vt 0.269463 0.6568829
vt 0.269463 0.6568829
vt 0.269463 0.6568829
vt 0.269463 0.6568829
vt 0.269463 0.6568829
vt 0.269463 0.6568829
vt 0.269463 0.6568829
vt 0.269463 0.6568829
vt 0.269463 0.6568829
vt 0.269463 0.6568829
vt 0.269463 0.6568829
vn 0.41763353 0.9041878 -0.08959155
vn 0.41763353 0.9041878 -0.08959155
vn 0.41763353 0.9041878 -0.08959155
vn 0.36141157 -0.929485 -0.07375176
vn 0.36141157 -0.929485 -0.07375176
vn 0.36141157 -0.929485 -0.07375176
vn -0.1000834 -0.98008865 -0.17149246
vn -0.1000834 -0.98008865 -0.17149246
vn -0.1000834 -0.98008865 -0.17149246
vn -0.10059799 0.97193044 -0.21267647
vn -0.10059799 0.97193044 -0.21267647
vn -0.10059799 0.97193044 -0.21267647
vn 0.80306715 0 -0.59588856
vn 0.80306715 0 -0.59588856
vn 0.80306715 0 -0.59588856
vn -0.37938857 0.8284396 -0.4120099
vn -0.37938857 0.8284396 -0.4120099
vn -0.37938857 0.8284396 -0.4120099
vn 0.35910434 0.82844 -0.42980358
vn 0.35910434 0.82844 -0.42980358
vn 0.35910434 0.82844 -0.42980358
vn -0.31718224 -0.86237633 -0.39459145
vn -0.31718224 -0.86237633 -0.39459145
vn -0.31718224 -0.86237633 -0.39459145
vn -0.83083355 0 -0.556521
vn -0.83083355 0 -0.556521
vn -0.83083355 0 -0.556521
vn 0.29781133 -0.862376 -0.40940946
vn 0.29781133 -0.862376 -0.40940946
vn 0.29781133 -0.862376 -0.40940946
vn 0.18793908 0.9041882 0.38356557
vn 0.18793908 0.9041882 0.38356557
vn 0.18793908 0.9041882 0.38356557
vn 0.1589741 -0.9294844 0.33284542
vn 0.1589741 -0.9294844 0.33284542
vn 0.1589741 -0.9294844 0.33284542
vn 0.14219376 -0.9800883 -0.13859276
vn 0.14219376 -0.9800883 -0.13859276
vn 0.14219376 -0.9800883 -0.13859276
vn 0.18202886 0.9719311 -0.14904882
vn 0.18202886 0.9719311 -0.14904882
vn 0.18202886 0.9719311 -0.14904882
vn -0.2252726 0.90418696 0.36290234
vn -0.2252726 0.90418696 0.36290234
vn -0.2252726 0.90418696 0.36290234
vn -0.19138943 -0.9294839 0.31532478
vn -0.19138943 -0.9294839 0.31532478
vn -0.19138943 -0.9294839 0.31532478
vn -0.12765796 -0.9800884 -0.15208624
vn -0.12765796 -0.9800884 -0.15208624
vn -0.12765796 -0.9800884 -0.15208624
vn -0.16624689 0.97193176 -0.16646533
vn -0.16624689 0.97193176 -0.16646533
vn -0.16624689 0.97193176 -0.16646533
vn 0.21527939 0 -0.97655255
vn 0.21527939 0 -0.97655255
vn 0.21527939 0 -0.97655255
vn 0.21527939 0 -0.97655255
vn -0.9121897 0 0.4097682
vn -0.9121897 0 0.4097682
vn -0.9121897 0 0.4097682
vn -0.9121897 0 0.4097682
vn -0.84723514 0 0.5312181
vn -0.84723514 0 0.5312181
vn -0.84723514 0 0.5312181
vn -0.84723514 0 0.5312181
vn 0.2602972 0 -0.9655285
vn 0.2602972 0 -0.9655285
vn 0.2602972 0 -0.9655285
vn 0.2602972 0 -0.9655285
vn 0.9653905 0 -0.2608088
vn 0.9653905 0 -0.2608088
vn 0.9653905 0 -0.2608088
vn 0.9653905 0 -0.2608088
vn 0.999974 0 0.007210801
vn 0.999974 0 0.007210801
vn 0.999974 0 0.007210801
vn 0.999974 0 0.007210801
vn 0.999974 0 0.007210818
vn 0.999974 0 0.007210818
vn -0.23527408 0 0.9719291
vn -0.23527408 0 0.9719291
vn -0.23527408 0 0.9719291
vn -0.23527408 0 0.9719291
vn -0.9306184 0 0.36599115
vn -0.9306184 0 0.36599115
vn -0.9306184 0 0.36599115
vn -0.9306184 0 0.36599115
vn 0.9496085 0 -0.31343836
vn 0.9496085 0 -0.31343836
vn 0.9496085 0 -0.31343836
vn 0.9496085 0 -0.31343836
vn -0.7083251 0 -0.7058864
vn -0.7083251 0 -0.7058864
vn -0.7083251 0 -0.7058864
vn -0.7083251 0 -0.7058864
vn -0.15264721 0 0.9882808
vn -0.15264721 0 0.9882808
vn -0.15264721 0 0.9882808
vn -0.15264721 0 0.9882808
vn 0.9855348 0 -0.1694733
vn 0.9855348 0 -0.1694733
vn 0.9855348 0 -0.1694733
vn 0.9855348 0 -0.1694733
vn 0.86382604 0 -0.50379014
vn 0.86382604 0 -0.50379014
vn 0.86382604 0 -0.50379014
vn 0.86382604 0 -0.50379014
vn -0.18512906 -0.95169216 -0.2449678
vn -0.18512906 -0.95169216 -0.2449678
vn -0.18512906 -0.95169216 -0.2449678
vn -0.18512906 -0.95169216 -0.2449678
vn 0.2654343 0.9444581 -0.19376144
vn 0.2654343 0.9444581 -0.19376144
vn 0.2654343 0.9444581 -0.19376144
vn 0.2654343 0.9444581 -0.19376144
vn -0.06795672 -0.93206686 0.35585576
vn -0.06795672 -0.93206686 0.35585576
vn -0.06795672 -0.93206686 0.35585576
vn -0.06795672 -0.93206686 0.35585576
vn -0.1596585 -0.8575783 0.48894638
vn -0.1596585 -0.8575783 0.48894638
vn -0.1596585 -0.8575783 0.48894638
vn -0.1596585 -0.8575783 0.48894638
vn 0.19699405 -0.97740275 -0.07666285
vn 0.19699405 -0.97740275 -0.07666285
vn 0.19699405 -0.97740275 -0.07666285
vn 0.19699405 -0.97740275 -0.07666285
vn -0.08197521 0.8994542 0.42925796
vn -0.08197521 0.8994542 0.42925796
vn -0.08197521 0.8994542 0.42925796
vn -0.08197521 0.8994542 0.42925796
vn -0.1726318 0.827062 0.5349454
vn -0.1726318 0.827062 0.5349454
vn -0.1726318 0.827062 0.5349454
vn -0.1726318 0.827062 0.5349454
vn 0.23047605 0.972548 -0.032109845
vn 0.23047605 0.972548 -0.032109845
vn 0.23047605 0.972548 -0.032109845
vn 0.23047605 0.972548 -0.032109845
vn -0.22848299 -0.96871644 0.09687111
vn -0.22848299 -0.96871644 0.09687111
vn -0.22848299 -0.96871644 0.09687111
vn -0.22848299 -0.96871644 0.09687111
vn 0.20893098 -0.9775714 -0.026493667
vn 0.20893098 -0.9775714 -0.026493667
vn 0.20893098 -0.9775714 -0.026493667
vn 0.20893098 -0.9775714 -0.026493667
vn -0.24980135 0.9628007 0.10302471
vn -0.24980135 0.9628007 0.10302471
vn -0.24980135 0.9628007 0.10302471
vn -0.24980135 0.9628007 0.10302471
vn 0.121285275 0.8630644 -0.49031582
vn 0.121285275 0.8630644 -0.49031582
vn 0.121285275 0.8630644 -0.49031582
vn 0.121285275 0.8630644 -0.49031582
vn -0.19760852 -0.97718686 0.0778238
vn -0.19760852 -0.97718686 0.0778238
vn -0.19760852 -0.97718686 0.0778238
vn -0.19760852 -0.97718686 0.0778238
vn 0.10181678 -0.90565604 -0.41160724
vn 0.10181678 -0.90565604 -0.41160724
vn 0.10181678 -0.90565604 -0.41160724
vn 0.10181678 -0.90565604 -0.41160724
vn -0.20146482 0.9465166 -0.2520285
vn -0.20146482 0.9465166 -0.2520285
vn -0.20146482 0.9465166 -0.2520285
vn -0.20146482 0.9465166 -0.2520285
vn 0.2477736 -0.94977593 -0.19113892
vn 0.2477736 -0.94977593 -0.19113892
vn 0.2477736 -0.94977593 -0.19113892
vn 0.2477736 -0.94977593 -0.19113892
vn 0.33937368 -0.9406489 0.002269591
vn 0.33937368 -0.9406489 0.002269591
vn 0.33937368 -0.9406489 0.002269591
vn 0.33937368 -0.9406489 0.002269591
vn 0.22943187 0.96944696 -0.08679663
vn 0.22943187 0.96944696 -0.08679663
vn 0.22943187 0.96944696 -0.08679663
vn 0.22943187 0.96944696 -0.08679663
vn -0.23339222 0.9677874 0.09442284
vn -0.23339222 0.9677874 0.09442284
vn -0.23339222 0.9677874 0.09442284
vn -0.23339222 0.9677874 0.09442284
vn -0.109700546 0.9919493 0.063262865
vn -0.109700546 0.9919493 0.063262865
vn -0.109700546 0.9919493 0.063262865
vn -0.109700546 0.9919493 0.063262865
vn -0.09551933 -0.993749 0.05778268
vn -0.09551933 -0.993749 0.05778268
vn -0.09551933 -0.993749 0.05778268
vn -0.09551933 -0.993749 0.05778268
vn -0.40759906 0.9131592 -0.0018102459
vn -0.40759906 0.9131592 -0.0018102459
vn -0.40759906 0.9131592 -0.0018102459
vn -0.40759906 0.9131592 -0.0018102459
vn -0.99998724 0 -0.0050582243
vn -0.99998724 0 -0.0050582243
vn -0.99998724 0 -0.0050582243
vn -0.99998724 0 -0.0050582243
vn -0.99998724 0 -0.005058092
vn -0.99998724 0 -0.005058092
vn 0.33629295 -0.9417557 0.0017860046
vn 0.33629295 -0.9417557 0.0017860046
vn 0.33629295 -0.9417557 0.0017860046
vn 0.33629295 -0.9417557 0.0017860046
vn -0.3052652 -0.7736648 0.5552081
vn -0.3052652 -0.7736648 0.5552081
vn -0.3052652 -0.7736648 0.5552081
vn -0.3052652 -0.7736648 0.5552081
vn 0.17988127 0.7940474 0.58063024
vn 0.17988127 0.7940474 0.58063024
vn 0.17988127 0.7940474 0.58063024
vn 0.17988127 0.7940474 0.58063024
vn -0.35179818 0.7526767 0.55652106
vn -0.35179818 0.7526767 0.55652106
vn -0.35179818 0.7526767 0.55652106
vn -0.35179818 0.7526767 0.55652106
vn 0.13015522 -0.8088306 0.5734568
vn 0.13015522 -0.8088306 0.5734568
vn 0.13015522 -0.8088306 0.5734568
vn 0.13015522 -0.8088306 0.5734568
vn 0.9998877 0 -0.014988704
vn 0.9998877 0 -0.014988704
vn 0.9998877 0 -0.014988704
vn 0.9998877 0 -0.014988704
vn -0.40717375 0.91333026 0.0061035696
vn -0.40717375 0.91333026 0.0061035696
vn -0.40717375 0.91333026 0.0061035696
vn -0.40717375 0.91333026 0.0061035696
vn -0.8714834 0 0.49042496
vn -0.8714834 0 0.49042496
vn -0.8714834 0 0.49042496
vn -0.8714834 0 0.49042496
vn -0.31127226 -0.89419186 0.32176146
vn -0.31127226 -0.89419186 0.32176146
vn -0.31127226 -0.89419186 0.32176146
vn -0.31127226 -0.89419186 0.32176146
vn 0.4071728 0.9133308 -0.006103793
vn 0.4071728 0.9133308 -0.006103793
vn 0.4071728 0.9133308 -0.006103793
vn 0.4071728 0.9133308 -0.006103793
vn -0.3359173 -0.9418781 0.0050358158
vn -0.3359173 -0.9418781 0.0050358158
vn -0.3359173 -0.9418781 0.0050358158
vn -0.3359173 -0.9418781 0.0050358158
vn -0.9998877 0 0.014988704
vn -0.9998877 0 0.014988704
vn -0.9998877 0 0.014988704
vn -0.9998877 0 0.014988704
vn 0.33591843 -0.9418776 -0.005035363
vn 0.33591843 -0.9418776 -0.005035363
vn 0.33591843 -0.9418776 -0.005035363
vn 0.33591843 -0.9418776 -0.005035363
vn 0.32640874 -0.8941913 0.30639714
vn 0.32640874 -0.8941913 0.30639714
vn 0.32640874 -0.8941913 0.30639714
vn 0.32640874 -0.8941913 0.30639714
vn -0.37631002 0.86212695 0.33930507
vn -0.37631002 0.86212695 0.33930507
vn -0.37631002 0.86212695 0.33930507
vn -0.37631002 0.86212695 0.33930507
vn 0.8940913 0 0.44788468
vn 0.8940913 0 0.44788468
vn 0.8940913 0 0.44788468
vn 0.8940913 0 0.44788468
vn 0.3922138 0.8621272 0.32078803
vn 0.3922138 0.8621272 0.32078803
vn 0.3922138 0.8621272 0.32078803
vn 0.3922138 0.8621272 0.32078803
vn -0.99999297 0 -0.0037443659
vn -0.99999297 0 -0.0037443659
vn -0.99999297 0 -0.0037443659
vn -0.99999297 0 -0.0037443659
vn -0.99999416 0 -0.0034201224
vn -0.99999416 0 -0.0034201224
vn -0.99999416 0 -0.0034201224
vn -0.99999416 0 -0.0034201224
vn -0.99999416 0 -0.0034201792
vn -0.99999416 0 -0.0034201792
vn -0.99999416 0 -0.0034201792
vn -0.99999416 0 -0.0034201792
vn -0.99999416 0 -0.0034202028
vn -0.99999416 0 -0.0034202028
vn -0.99999416 0 -0.0034202028
vn -0.99999416 0 -0.0034202028
vn -0.99999416 0 -0.0034201888
vn -0.99999416 0 -0.0034201888
vn -0.99999416 0 -0.0034201888
vn -0.99999416 0 -0.0034201888
vn -0.999992 0 -0.00399683
vn -0.999992 0 -0.00399683
vn -0.999992 0 -0.00399683
vn -0.999992 0 -0.00399683
vn 0.33885023 -0.9408387 0.0017753686
vn 0.33885023 -0.9408387 0.0017753686
vn 0.33885023 -0.9408387 0.0017753686
vn 0.33885023 -0.9408387 0.0017753686
vn 0.3383331 -0.9410252 0.0015299515
vn 0.3383331 -0.9410252 0.0015299515
vn 0.3383331 -0.9410252 0.0015299515
vn 0.3383331 -0.9410252 0.0015299515
vn 0.33782956 -0.94120604 0.0015277074
vn 0.33782956 -0.94120604 0.0015277074
vn 0.33782956 -0.94120604 0.0015277074
vn 0.33782956 -0.94120604 0.0015277074
vn 0.33732727 -0.9413862 0.0015254342
vn 0.33732727 -0.9413862 0.0015254342
vn 0.33732727 -0.9413862 0.0015254342
vn 0.33732727 -0.9413862 0.0015254342
vn 0.33682656 -0.94156545 0.0015233486
vn 0.33682656 -0.94156545 0.0015233486
vn 0.33682656 -0.94156545 0.0015233486
vn 0.33682656 -0.94156545 0.0015233486
vn -0.33628833 -0.9417578 -0.001493325
vn -0.33628833 -0.9417578 -0.001493325
vn -0.33628833 -0.9417578 -0.001493325
vn -0.33628833 -0.9417578 -0.001493325
vn 0.99998343 0 0.005756171
vn 0.99998343 0 0.005756171
vn 0.99998343 0 0.005756171
vn 0.99998343 0 0.005756171
vn 0.9999882 0 0.004875726
vn 0.9999882 0 0.004875726
vn 0.9999882 0 0.004875726
vn 0.9999882 0 0.004875726
vn 0.9999882 0 0.004875704
vn 0.9999882 0 0.004875704
vn 0.9999882 0 0.004875704
vn 0.9999882 0 0.004875704
vn 0.9999882 0 0.00487573
vn 0.9999882 0 0.00487573
vn 0.9999882 0 0.00487573
vn 0.9999882 0 0.00487573
vn 0.9999882 0 0.004875805
vn 0.9999882 0 0.004875805
vn 0.9999882 0 0.004875805
vn 0.9999882 0 0.004875805
vn 0.99998355 0 0.0057360493
vn 0.99998355 0 0.0057360493
vn 0.99998355 0 0.0057360493
vn 0.99998355 0 0.0057360493
vn -0.4105661 0.9118292 -0.0017381663
vn -0.4105661 0.9118292 -0.0017381663
vn -0.4105661 0.9118292 -0.0017381663
vn -0.4105661 0.9118292 -0.0017381663
vn -0.40996194 0.91210127 -0.0015556253
vn -0.40996194 0.91210127 -0.0015556253
vn -0.40996194 0.91210127 -0.0015556253
vn -0.40996194 0.91210127 -0.0015556253
vn -0.40937892 0.9123632 -0.0015533591
vn -0.40937892 0.9123632 -0.0015533591
vn -0.40937892 0.9123632 -0.0015533591
vn -0.40937892 0.9123632 -0.0015533591
vn -0.40879712 0.912624 -0.0015512863
vn -0.40879712 0.912624 -0.0015512863
vn -0.40879712 0.912624 -0.0015512863
vn -0.40879712 0.912624 -0.0015512863
vn -0.40821692 0.91288364 -0.0015490283
vn -0.40821692 0.91288364 -0.0015490283
vn -0.40821692 0.91288364 -0.0015490283
vn -0.40821692 0.91288364 -0.0015490283
vn 0.4076021 0.9131571 0.0021644135
vn 0.4076021 0.9131571 0.0021644135
vn 0.4076021 0.9131571 0.0021644135
vn 0.4076021 0.9131571 0.0021644135
vn 0.41110963 0.91158175 0.0027488344
vn 0.41110963 0.91158175 0.0027488344
vn 0.41110963 0.91158175 0.0027488344
vn 0.41110963 0.91158175 0.0027488344
vn 0.41051412 0.9118517 0.0021505803
vn 0.41051412 0.9118517 0.0021505803
vn 0.41051412 0.9118517 0.0021505803
vn 0.41051412 0.9118517 0.0021505803
vn 0.40992597 0.91211694 0.001853418
vn 0.40992597 0.91211694 0.001853418
vn 0.40992597 0.91211694 0.001853418
vn 0.40992597 0.91211694 0.001853418
vn 0.40935248 0.91237444 0.0018508964
vn 0.40935248 0.91237444 0.0018508964
vn 0.40935248 0.91237444 0.0018508964
vn 0.40935248 0.91237444 0.0018508964
vn 0.40878063 0.91263086 0.0018482828
vn 0.40878063 0.91263086 0.0018482828
vn 0.40878063 0.91263086 0.0018482828
vn 0.40878063 0.91263086 0.0018482828
vn 0.40821004 0.9128862 0.0018457369
vn 0.40821004 0.9128862 0.0018457369
vn 0.40821004 0.9128862 0.0018457369
vn 0.40821004 0.9128862 0.0018457369
vn -0.3394215 -0.9406324 -0.0019042925
vn -0.3394215 -0.9406324 -0.0019042925
vn -0.3394215 -0.9406324 -0.0019042925
vn -0.3394215 -0.9406324 -0.0019042925
vn -0.33889356 -0.9408237 -0.0014344811
vn -0.33889356 -0.9408237 -0.0014344811
vn -0.33889356 -0.9408237 -0.0014344811
vn -0.33889356 -0.9408237 -0.0014344811
vn -0.3383628 -0.9410148 -0.0012836425
vn -0.3383628 -0.9410148 -0.0012836425
vn -0.3383628 -0.9410148 -0.0012836425
vn -0.3383628 -0.9410148 -0.0012836425
vn -0.33785066 -0.9411989 -0.0012816967
vn -0.33785066 -0.9411989 -0.0012816967
vn -0.33785066 -0.9411989 -0.0012816967
vn -0.33785066 -0.9411989 -0.0012816967
vn -0.33733973 -0.9413821 -0.0012798016
vn -0.33733973 -0.9413821 -0.0012798016
vn -0.33733973 -0.9413821 -0.0012798016
vn -0.33733973 -0.9413821 -0.0012798016
vn -0.33683047 -0.9415645 -0.0012779564
vn -0.33683047 -0.9415645 -0.0012779564
vn -0.33683047 -0.9415645 -0.0012779564
vn -0.33683047 -0.9415645 -0.0012779564
vn -0.99998724 0 -0.0050580017
vn -0.99998724 0 -0.0050580017
vn -0.99998724 0 -0.0050580017
vn -0.99998724 0 -0.0050580017
vn -0.99999416 0 -0.003420408
vn -0.99999416 0 -0.003420408
vn -0.99999416 0 -0.003420408
vn -0.99999416 0 -0.003420408
vn -0.99999416 0 -0.003420304
vn -0.99999416 0 -0.003420304
vn -0.99999416 0 -0.003420304
vn -0.99999416 0 -0.003420304
vn -0.99999416 0 -0.003420031
vn -0.99999416 0 -0.003420031
vn -0.99999416 0 -0.003420031
vn -0.99999416 0 -0.003420031
vn -0.99999416 0 -0.0034201574
vn -0.99999416 0 -0.0034201574
vn -0.99999416 0 -0.0034201574
vn -0.99999416 0 -0.0034201574
vn -0.99999416 0 -0.0034201136
vn -0.99999416 0 -0.0034201136
vn -0.99999416 0 -0.0034201136
vn -0.99999416 0 -0.0034201136
vn -0.33913347 -0.94073635 -0.0019011329
vn -0.33913347 -0.94073635 -0.0019011329
vn -0.33913347 -0.94073635 -0.0019011329
vn -0.33913347 -0.94073635 -0.0019011329
vn -0.33861962 -0.9409225 -0.0012831938
vn -0.33861962 -0.9409225 -0.0012831938
vn -0.33861962 -0.9409225 -0.0012831938
vn -0.33861962 -0.9409225 -0.0012831938
vn -0.33810678 -0.9411069 -0.0012815103
vn -0.33810678 -0.9411069 -0.0012815103
vn -0.33810678 -0.9411069 -0.0012815103
vn -0.33810678 -0.9411069 -0.0012815103
vn -0.3375952 -0.94129056 -0.0012793215
vn -0.3375952 -0.94129056 -0.0012793215
vn -0.3375952 -0.94129056 -0.0012793215
vn -0.3375952 -0.94129056 -0.0012793215
vn -0.33708498 -0.9414734 -0.0012777201
vn -0.33708498 -0.9414734 -0.0012777201
vn -0.33708498 -0.9414734 -0.0012777201
vn -0.33708498 -0.9414734 -0.0012777201
vn -0.33657625 -0.9416553 -0.0012752535
vn -0.33657625 -0.9416553 -0.0012752535
vn -0.33657625 -0.9416553 -0.0012752535
vn -0.33657625 -0.9416553 -0.0012752535
vn 0.999974 0 0.007210956
vn 0.999974 0 0.007210956
vn 0.999974 0 0.007210956
vn 0.999974 0 0.007210956
vn 0.9999882 0 0.0048758476
vn 0.9999882 0 0.0048758476
vn 0.9999882 0 0.0048758476
vn 0.9999882 0 0.0048758476
vn 0.9999882 0 0.0048757135
vn 0.9999882 0 0.0048757135
vn 0.9999882 0 0.0048757135
vn 0.9999882 0 0.0048757135
vn 0.9999882 0 0.004875994
vn 0.9999882 0 0.004875994
vn 0.9999882 0 0.004875994
vn 0.9999882 0 0.004875994
vn 0.9999882 0 0.004875532
vn 0.9999882 0 0.004875532
vn 0.9999882 0 0.004875532
vn 0.9999882 0 0.004875532
vn 0.9999882 0 0.0048756353
vn 0.9999882 0 0.0048756353
vn 0.9999882 0 0.0048756353
vn 0.9999882 0 0.0048756353
vn 0.41078755 0.911727 0.002744629
vn 0.41078755 0.911727 0.002744629
vn 0.41078755 0.911727 0.002744629
vn 0.41078755 0.911727 0.002744629
vn 0.4102132 0.91198784 0.0018531842
vn 0.4102132 0.91198784 0.0018531842
vn 0.4102132 0.91198784 0.0018531842
vn 0.4102132 0.91198784 0.0018531842
vn 0.40963912 0.91224575 0.0018507187
vn 0.40963912 0.91224575 0.0018507187
vn 0.40963912 0.91224575 0.0018507187
vn 0.40963912 0.91224575 0.0018507187
vn 0.40906644 0.9125027 0.0018478796
vn 0.40906644 0.9125027 0.0018478796
vn 0.40906644 0.9125027 0.0018478796
vn 0.40906644 0.9125027 0.0018478796
vn 0.4084952 0.91275865 0.0018455527
vn 0.4084952 0.91275865 0.0018455527
vn 0.4084952 0.91275865 0.0018455527
vn 0.4084952 0.91275865 0.0018455527
vn 0.4079253 0.9130134 0.0018425008
vn 0.4079253 0.9130134 0.0018425008
vn 0.4079253 0.9130134 0.0018425008
vn 0.4079253 0.9130134 0.0018425008
vn -0.41083926 0.91170496 -0.0023032678
vn -0.41083926 0.91170496 -0.0023032678
vn -0.41083926 0.91170496 -0.0023032678
vn -0.41083926 0.91170496 -0.0023032678
vn -0.41025415 0.91196984 -0.001555195
vn -0.41025415 0.91196984 -0.001555195
vn -0.41025415 0.91196984 -0.001555195
vn -0.41025415 0.91196984 -0.001555195
vn -0.40967032 0.9122324 -0.0015531089
vn -0.40967032 0.9122324 -0.0015531089
vn -0.40967032 0.9122324 -0.0015531089
vn -0.40967032 0.9122324 -0.0015531089
vn -0.40908808 0.9124935 -0.0015505916
vn -0.40908808 0.9124935 -0.0015505916
vn -0.40908808 0.9124935 -0.0015505916
vn -0.40908808 0.9124935 -0.0015505916
vn -0.40850666 0.91275406 -0.0015483453
vn -0.40850666 0.91275406 -0.0015483453
vn -0.40850666 0.91275406 -0.0015483453
vn -0.40850666 0.91275406 -0.0015483453
vn -0.40792722 0.91301316 -0.0015461993
vn -0.40792722 0.91301316 -0.0015461993
vn -0.40792722 0.91301316 -0.0015461993
vn -0.40792722 0.91301316 -0.0015461993
vn 0.33909112 -0.9407508 0.002265659
vn 0.33909112 -0.9407508 0.002265659
vn 0.33909112 -0.9407508 0.002265659
vn 0.33909112 -0.9407508 0.002265659
vn 0.33858582 -0.9409343 0.0015300947
vn 0.33858582 -0.9409343 0.0015300947
vn 0.33858582 -0.9409343 0.0015300947
vn 0.33858582 -0.9409343 0.0015300947
vn 0.33808148 -0.9411157 0.0015280057
vn 0.33808148 -0.9411157 0.0015280057
vn 0.33808148 -0.9411157 0.0015280057
vn 0.33808148 -0.9411157 0.0015280057
vn 0.3375784 -0.9412962 0.0015260425
vn 0.3375784 -0.9412962 0.0015260425
vn 0.3375784 -0.9412962 0.0015260425
vn 0.3375784 -0.9412962 0.0015260425
vn 0.33707684 -0.9414758 0.0015227487
vn 0.33707684 -0.9414758 0.0015227487
vn 0.33707684 -0.9414758 0.0015227487
vn 0.33707684 -0.9414758 0.0015227487
vn 0.33657682 -0.94165474 0.0015203146
vn 0.33657682 -0.94165474 0.0015203146
vn 0.33657682 -0.94165474 0.0015203146
vn 0.33657682 -0.94165474 0.0015203146
vn -0.41116643 0.91155744 -0.002307061
vn -0.41116643 0.91155744 -0.002307061
vn -0.41116643 0.91155744 -0.002307061
vn -0.41116643 0.91155744 -0.002307061
vn 0.99962735 0 -0.027299657
vn 0.99962735 0 -0.027299657
vn 0.99962735 0 -0.027299657
vn 0.99962735 0 -0.027299657
vn -0.61822385 0 -0.786002
vn -0.61822385 0 -0.786002
vn -0.61822385 0 -0.786002
vn -0.61822385 0 -0.786002
vn -0.72035843 0 -0.69360197
vn -0.72035843 0 -0.69360197
vn -0.72035843 0 -0.69360197
vn -0.72035843 0 -0.69360197
vn 0.9998186 0 0.019047838
vn 0.9998186 0 0.019047838
vn 0.9998186 0 0.019047838
vn 0.9998186 0 0.019047838
vn 0.48655432 0 0.87365025
vn 0.48655432 0 0.87365025
vn 0.48655432 0 0.87365025
vn 0.48655432 0 0.87365025
vn -0.999977 0 0.00677932
vn -0.999977 0 0.00677932
vn -0.999977 0 0.00677932
vn -0.999977 0 0.00677932
vn -0.5802037 0 -0.81447136
vn -0.5802037 0 -0.81447136
vn -0.5802037 0 -0.81447136
vn -0.5802037 0 -0.81447136
vn 0.5338041 0 0.84560806
vn 0.5338041 0 0.84560806
vn 0.5338041 0 0.84560806
vn 0.5338041 0 0.84560806
vn 0.5136155 0 -0.8580205
vn 0.5136155 0 -0.8580205
vn 0.5136155 0 -0.8580205
vn 0.5136155 0 -0.8580205
vn -0.9958591 0 0.09091129
vn -0.9958591 0 0.09091129
vn -0.9958591 0 0.09091129
vn -0.9958591 0 0.09091129
vn 0.40280268 0 0.9152869
vn 0.40280268 0 0.9152869
vn 0.40280268 0 0.9152869
vn 0.40280268 0 0.9152869
vn 0.69775736 0 0.7163342
vn 0.69775736 0 0.7163342
vn 0.69775736 0 0.7163342
vn 0.69775736 0 0.7163342
vn 0.19292094 -0.95169175 -0.23888133
vn 0.19292094 -0.95169175 -0.23888133
vn 0.19292094 -0.95169175 -0.23888133
vn 0.19292094 -0.95169175 -0.23888133
vn 0.2522058 0.94445825 0.21069142
vn 0.2522058 0.94445825 0.21069142
vn 0.2522058 0.94445825 0.21069142
vn 0.2522058 0.94445825 0.21069142
vn -0.36172578 -0.9320672 0.020127645
vn -0.36172578 -0.9320672 0.020127645
vn -0.36172578 -0.9320672 0.020127645
vn -0.36172578 -0.9320672 0.020127645
vn -0.5130486 -0.8575762 -0.036663387
vn -0.5130486 -0.8575762 -0.036663387
vn -0.5130486 -0.8575762 -0.036663387
vn -0.5130486 -0.8575762 -0.036663387
vn 0.12203236 -0.97740275 0.17260332
vn 0.12203236 -0.97740275 0.17260332
vn 0.12203236 -0.97740275 0.17260332
vn 0.12203236 -0.97740275 0.17260332
vn -0.43633932 0.89945453 0.02427865
vn -0.43633932 0.89945453 0.02427865
vn -0.43633932 0.89945453 0.02427865
vn -0.43633932 0.89945453 0.02427865
vn -0.5608156 0.8270625 -0.038125668
vn -0.5608156 0.8270625 -0.038125668
vn -0.5608156 0.8270625 -0.038125668
vn -0.5608156 0.8270625 -0.038125668
vn 0.08689886 0.9725479 0.21586803
vn 0.08689886 0.9725479 0.21586803
vn 0.08689886 0.9725479 0.21586803
vn 0.08689886 0.9725479 0.21586803
vn -0.14925528 -0.96871644 -0.19827084
vn -0.14925528 -0.96871644 -0.19827084
vn -0.14925528 -0.96871644 -0.19827084
vn -0.14925528 -0.96871644 -0.19827084
vn 0.07623978 -0.9775713 0.19632047
vn 0.07623978 -0.9775713 0.19632047
vn 0.07623978 -0.9775713 0.19632047
vn 0.07623978 -0.9775713 0.19632047
vn -0.16038297 0.9628008 -0.21746692
vn -0.16038297 0.9628008 -0.21746692
vn -0.16038297 0.9628008 -0.21746692
vn -0.16038297 0.9628008 -0.21746692
vn 0.50509167 0.8630652 -0.0009028256
vn 0.50509167 0.8630652 -0.0009028256
vn 0.50509167 0.8630652 -0.0009028256
vn 0.50509167 0.8630652 -0.0009028256
vn -0.12330642 -0.97718686 -0.17292033
vn -0.12330642 -0.97718686 -0.17292033
vn -0.12330642 -0.97718686 -0.17292033
vn -0.12330642 -0.97718686 -0.17292033
vn 0.42401507 -0.90565485 -0.0007572597
vn 0.42401507 -0.90565485 -0.0007572597
vn 0.42401507 -0.90565485 -0.0007572597
vn 0.42401507 -0.90565485 -0.0007572597
vn 0.1958201 0.9465166 -0.25643894
vn 0.1958201 0.9465166 -0.25643894
vn 0.1958201 0.9465166 -0.25643894
vn 0.1958201 0.9465166 -0.25643894
vn 0.24539134 -0.94977546 0.19418952
vn 0.24539134 -0.94977546 0.19418952
vn 0.24539134 -0.94977546 0.19418952
vn 0.24539134 -0.94977546 0.19418952
vn 0.13970864 0.9694472 0.20162739
vn 0.13970864 0.9694472 0.20162739
vn 0.13970864 0.9694472 0.20162739
vn 0.13970864 0.9694472 0.20162739
vn -0.14806715 0.96778774 -0.20362484
vn -0.14806715 0.96778774 -0.20362484
vn -0.14806715 0.96778774 -0.20362484
vn -0.14806715 0.96778774 -0.20362484
vn -0.0879176 0.9919493 -0.09114255
vn -0.0879176 0.9919493 -0.09114255
vn -0.0879176 0.9919493 -0.09114255
vn -0.0879176 0.9919493 -0.09114255
vn -0.07916817 -0.99374914 -0.078708015
vn -0.07916817 -0.99374914 -0.078708015
vn -0.07916817 -0.99374914 -0.078708015
vn -0.07916817 -0.99374914 -0.078708015
vn -0.99191576 0 -0.12689808
vn -0.99191576 0 -0.12689808
vn -0.99191576 0 -0.12689808
vn -0.99191576 0 -0.12689808
vn 0.69355977 0 -0.7203991
vn 0.69355977 0 -0.7203991
vn 0.69355977 0 -0.7203991
vn 0.69355977 0 -0.7203991
vn 0.78596556 0 -0.61827034
vn 0.78596556 0 -0.61827034
vn 0.78596556 0 -0.61827034
vn 0.78596556 0 -0.61827034
vn -0.9967303 0 -0.080799714
vn -0.9967303 0 -0.080799714
vn -0.9967303 0 -0.080799714
vn -0.9967303 0 -0.080799714
vn -0.5712913 0 0.8207473
vn -0.5712913 0 0.8207473
vn -0.5712913 0 0.8207473
vn -0.5712913 0 0.8207473
vn 0.9943112 0 0.10651363
vn 0.9943112 0 0.10651363
vn 0.9943112 0 0.10651363
vn 0.9943112 0 0.10651363
vn 0.6585691 0 -0.75252014
vn 0.6585691 0 -0.75252014
vn 0.6585691 0 -0.75252014
vn 0.6585691 0 -0.75252014
vn -0.61550826 0 0.7881305
vn -0.61550826 0 0.7881305
vn -0.61550826 0 0.7881305
vn -0.61550826 0 0.7881305
vn -0.42544594 0 -0.9049838
vn -0.42544594 0 -0.9049838
vn -0.42544594 0 -0.9049838
vn -0.42544594 0 -0.9049838
vn 0.9818201 0 0.18981385
vn 0.9818201 0 0.18981385
vn 0.9818201 0 0.18981385
vn 0.9818201 0 0.18981385
vn -0.49211225 0 0.8705318
vn -0.49211225 0 0.8705318
vn -0.49211225 0 0.8705318
vn -0.49211225 0 0.8705318
vn -0.7657452 0 0.643144
vn -0.7657452 0 0.643144
vn -0.7657452 0 0.643144
vn -0.7657452 0 0.643144
vn -0.16812357 -0.951692 -0.25693738
vn -0.16812357 -0.951692 -0.25693738
vn -0.16812357 -0.951692 -0.25693738
vn -0.16812357 -0.951692 -0.25693738
vn -0.27196983 0.9444579 0.18447688
vn -0.27196983 0.9444579 0.18447688
vn -0.27196983 0.9444579 0.18447688
vn -0.27196983 0.9444579 0.18447688
vn 0.35791412 -0.93206674 0.05611675
vn 0.35791412 -0.93206674 0.05611675
vn 0.35791412 -0.93206674 0.05611675
vn 0.35791412 -0.93206674 0.05611675
vn 0.51414496 -0.85757726 0.014707106
vn 0.51414496 -0.85757726 0.014707106
vn 0.51414496 -0.85757726 0.014707106
vn 0.51414496 -0.85757726 0.014707106
vn -0.13864334 -0.97740275 0.15956779
vn -0.13864334 -0.97740275 0.15956779
vn -0.13864334 -0.97740275 0.15956779
vn -0.13864334 -0.97740275 0.15956779
vn 0.43173715 0.8994559 0.06769115
vn 0.43173715 0.8994559 0.06769115
vn 0.43173715 0.8994559 0.06769115
vn 0.43173715 0.8994559 0.06769115
vn 0.56182146 0.82706225 0.01801762
vn 0.56182146 0.82706225 0.01801762
vn 0.56182146 0.82706225 0.01801762
vn 0.56182146 0.82706225 0.01801762
vn -0.1080033 0.972548 0.20612033
vn -0.1080033 0.972548 0.20612033
vn -0.1080033 0.972548 0.20612033
vn -0.1080033 0.972548 0.20612033
vn 0.16829342 -0.96871626 -0.18239033
vn 0.16829342 -0.96871626 -0.18239033
vn 0.16829342 -0.96871626 -0.18239033
vn 0.16829342 -0.96871626 -0.18239033
vn -0.095445134 -0.9775714 0.18773443
vn -0.095445134 -0.9775714 0.18773443
vn -0.095445134 -0.9775714 0.18773443
vn -0.095445134 -0.9775714 0.18773443
vn 0.18127851 0.96280116 -0.20038
vn 0.18127851 0.96280116 -0.20038
vn 0.18127851 0.96280116 -0.20038
vn 0.18127851 0.96280116 -0.20038
vn -0.50248593 0.8630626 -0.051291525
vn -0.50248593 0.8630626 -0.051291525
vn -0.50248593 0.8630626 -0.051291525
vn -0.50248593 0.8630626 -0.051291525
vn 0.13994473 -0.9771867 -0.15975524
vn 0.13994473 -0.9771867 -0.15975524
vn 0.13994473 -0.9771867 -0.15975524
vn 0.13994473 -0.9771867 -0.15975524
vn -0.42182583 -0.90565383 -0.04305819
vn -0.42182583 -0.90565383 -0.04305819
vn -0.42182583 -0.90565383 -0.04305819
vn -0.42182583 -0.90565383 -0.04305819
vn -0.16925879 0.94651645 -0.2746964
vn -0.16925879 0.94651645 -0.2746964
vn -0.16925879 0.94651645 -0.2746964
vn -0.16925879 0.94651645 -0.2746964
vn -0.2635398 -0.9497761 0.16873647
vn -0.2635398 -0.9497761 0.16873647
vn -0.2635398 -0.9497761 0.16873647
vn -0.2635398 -0.9497761 0.16873647
vn -0.15912993 0.96944684 0.18668306
vn -0.15912993 0.96944684 0.18668306
vn -0.15912993 0.96944684 0.18668306
vn -0.15912993 0.96944684 0.18668306
vn 0.16764325 0.96778786 -0.18783621
vn 0.16764325 0.96778786 -0.18783621
vn 0.16764325 0.96778786 -0.18783621
vn 0.16764325 0.96778786 -0.18783621
vn 0.0965706 0.99194956 -0.08191547
vn 0.0965706 0.99194956 -0.08191547
vn 0.0965706 0.99194956 -0.08191547
vn 0.0965706 0.99194956 -0.08191547
vn 0.08662802 -0.9937489 -0.07041755
vn 0.08662802 -0.9937489 -0.07041755
vn 0.08662802 -0.9937489 -0.07041755
vn 0.08662802 -0.9937489 -0.07041755
vn -0.024087096 0 -0.9997098
vn -0.024087096 0 -0.9997098
vn -0.024087096 0 -0.9997098
vn -0.024087096 0 -0.9997098
vn -0.024086632 0 -0.9997098
vn -0.024083905 0 -0.9997099
vn -0.024086632 0 -0.9997098
vn -0.024083905 0 -0.9997099
vn -0.024086632 0 -0.9997098
vn -0.024083905 0 -0.9997099
vn -0.024086632 0 -0.9997098
vn -0.024083905 0 -0.9997099
g Sword11_0
f 3/3/3 2/2/2 1/1/1
f 6/6/6 5/5/5 4/4/4
f 9/9/9 8/8/8 7/7/7
f 12/12/12 11/11/11 10/10/10
f 15/15/15 14/14/14 13/13/13
f 18/18/18 17/17/17 16/16/16
f 21/21/21 20/20/20 19/19/19
f 24/24/24 23/23/23 22/22/22
f 27/27/27 26/26/26 25/25/25
f 30/30/30 29/29/29 28/28/28
f 33/33/33 32/32/32 31/31/31
f 36/36/36 35/35/35 34/34/34
f 39/39/39 38/38/38 37/37/37
f 42/42/42 41/41/41 40/40/40
f 45/45/45 44/44/44 43/43/43
f 48/48/48 47/47/47 46/46/46
f 51/51/51 50/50/50 49/49/49
f 54/54/54 53/53/53 52/52/52
f 57/57/57 56/56/56 55/55/55
f 58/58/58 57/57/57 55/55/55
f 61/61/61 60/60/60 59/59/59
f 62/62/62 61/61/61 59/59/59
f 65/65/65 64/64/64 63/63/63
f 66/66/66 65/65/65 63/63/63
f 69/69/69 68/68/68 67/67/67
f 70/70/70 69/69/69 67/67/67
f 73/73/73 72/72/72 71/71/71
f 74/74/74 73/73/73 71/71/71
f 77/77/77 76/76/76 75/75/75
f 78/78/78 77/77/77 75/75/75
f 78/78/78 75/75/75 79/79/79
f 80/80/80 78/78/78 79/79/79
f 83/83/83 82/82/82 81/81/81
f 84/84/84 83/83/83 81/81/81
f 87/87/87 86/86/86 85/85/85
f 88/88/88 87/87/87 85/85/85
f 91/91/91 90/90/90 89/89/89
f 92/92/92 91/91/91 89/89/89
f 95/95/95 94/94/94 93/93/93
f 96/96/96 95/95/95 93/93/93
f 99/99/99 98/98/98 97/97/97
f 100/100/100 99/99/99 97/97/97
f 103/103/103 102/102/102 101/101/101
f 104/104/104 103/103/103 101/101/101
f 107/107/107 106/106/106 105/105/105
f 108/108/108 107/107/107 105/105/105
f 111/111/111 110/110/110 109/109/109
f 112/112/112 111/111/111 109/109/109
f 115/115/115 114/114/114 113/113/113
f 116/116/116 115/115/115 113/113/113
f 119/119/119 118/118/118 117/117/117
f 120/120/120 119/119/119 117/117/117
f 123/123/123 122/122/122 121/121/121
f 124/124/124 123/123/123 121/121/121
f 127/127/127 126/126/126 125/125/125
f 128/128/128 127/127/127 125/125/125
f 131/131/131 130/130/130 129/129/129
f 132/132/132 131/131/131 129/129/129
f 135/135/135 134/134/134 133/133/133
f 136/136/136 135/135/135 133/133/133
f 139/139/139 138/138/138 137/137/137
f 140/140/140 139/139/139 137/137/137
f 143/143/143 142/142/142 141/141/141
f 144/144/144 143/143/143 141/141/141
f 147/147/147 146/146/146 145/145/145
f 148/148/148 147/147/147 145/145/145
f 151/151/151 150/150/150 149/149/149
f 152/152/152 151/151/151 149/149/149
f 155/155/155 154/154/154 153/153/153
f 156/156/156 155/155/155 153/153/153
f 159/159/159 158/158/158 157/157/157
f 160/160/160 159/159/159 157/157/157
f 163/163/163 162/162/162 161/161/161
f 164/164/164 163/163/163 161/161/161
f 167/167/167 166/166/166 165/165/165
f 168/168/168 167/167/167 165/165/165
f 171/171/171 170/170/170 169/169/169
f 172/172/172 171/171/171 169/169/169
f 175/175/175 174/174/174 173/173/173
f 176/176/176 175/175/175 173/173/173
f 179/179/179 178/178/178 177/177/177
f 180/180/180 179/179/179 177/177/177
f 183/183/183 182/182/182 181/181/181
f 184/184/184 183/183/183 181/181/181
f 187/187/187 186/186/186 185/185/185
f 188/188/188 187/187/187 185/185/185
f 191/191/191 190/190/190 189/189/189
f 192/192/192 191/191/191 189/189/189
f 195/195/195 194/194/194 193/193/193
f 196/196/196 195/195/195 193/193/193
f 199/199/199 198/198/198 197/197/197
f 200/200/200 199/199/199 197/197/197
f 200/200/200 197/197/197 201/201/201
f 202/202/202 200/200/200 201/201/201
f 205/205/205 204/204/204 203/203/203
f 206/206/206 205/205/205 203/203/203
f 209/209/209 208/208/208 207/207/207
f 210/210/210 209/209/209 207/207/207
f 213/213/213 212/212/212 211/211/211
f 214/214/214 213/213/213 211/211/211
f 217/217/217 216/216/216 215/215/215
f 218/218/218 217/217/217 215/215/215
f 221/221/221 220/220/220 219/219/219
f 222/222/222 221/221/221 219/219/219
f 225/225/225 224/224/224 223/223/223
f 226/226/226 225/225/225 223/223/223
f 229/229/229 228/228/228 227/227/227
f 230/230/230 229/229/229 227/227/227
f 233/233/233 232/232/232 231/231/231
f 234/234/234 233/233/233 231/231/231
f 237/237/237 236/236/236 235/235/235
f 238/238/238 237/237/237 235/235/235
f 241/241/241 240/240/240 239/239/239
f 242/242/242 241/241/241 239/239/239
f 245/245/245 244/244/244 243/243/243
f 246/246/246 245/245/245 243/243/243
f 249/249/249 248/248/248 247/247/247
f 250/250/250 249/249/249 247/247/247
f 253/253/253 252/252/252 251/251/251
f 254/254/254 253/253/253 251/251/251
f 257/257/257 256/256/256 255/255/255
f 258/258/258 257/257/257 255/255/255
f 261/261/261 260/260/260 259/259/259
f 262/262/262 261/261/261 259/259/259
f 265/265/265 264/264/264 263/263/263
f 266/266/266 265/265/265 263/263/263
f 269/269/269 268/268/268 267/267/267
f 270/270/270 269/269/269 267/267/267
f 273/273/273 272/272/272 271/271/271
f 274/274/274 273/273/273 271/271/271
f 277/277/277 276/276/276 275/275/275
f 278/278/278 277/277/277 275/275/275
f 281/281/281 280/280/280 279/279/279
f 282/282/282 281/281/281 279/279/279
f 285/285/285 284/284/284 283/283/283
f 286/286/286 285/285/285 283/283/283
f 289/289/289 288/288/288 287/287/287
f 290/290/290 289/289/289 287/287/287
f 293/293/293 292/292/292 291/291/291
f 294/294/294 293/293/293 291/291/291
f 297/297/297 296/296/296 295/295/295
f 298/298/298 297/297/297 295/295/295
f 301/301/301 300/300/300 299/299/299
f 302/302/302 301/301/301 299/299/299
f 305/305/305 304/304/304 303/303/303
f 306/306/306 305/305/305 303/303/303
f 309/309/309 308/308/308 307/307/307
f 310/310/310 309/309/309 307/307/307
f 313/313/313 312/312/312 311/311/311
f 314/314/314 313/313/313 311/311/311
f 317/317/317 316/316/316 315/315/315
f 318/318/318 317/317/317 315/315/315
f 321/321/321 320/320/320 319/319/319
f 322/322/322 321/321/321 319/319/319
f 325/325/325 324/324/324 323/323/323
f 326/326/326 325/325/325 323/323/323
f 329/329/329 328/328/328 327/327/327
f 330/330/330 329/329/329 327/327/327
f 333/333/333 332/332/332 331/331/331
f 334/334/334 333/333/333 331/331/331
f 337/337/337 336/336/336 335/335/335
f 338/338/338 337/337/337 335/335/335
f 341/341/341 340/340/340 339/339/339
f 342/342/342 341/341/341 339/339/339
f 345/345/345 344/344/344 343/343/343
f 346/346/346 345/345/345 343/343/343
f 349/349/349 348/348/348 347/347/347
f 350/350/350 349/349/349 347/347/347
f 353/353/353 352/352/352 351/351/351
f 354/354/354 353/353/353 351/351/351
f 357/357/357 356/356/356 355/355/355
f 358/358/358 357/357/357 355/355/355
f 361/361/361 360/360/360 359/359/359
f 362/362/362 361/361/361 359/359/359
f 365/365/365 364/364/364 363/363/363
f 366/366/366 365/365/365 363/363/363
f 369/369/369 368/368/368 367/367/367
f 370/370/370 369/369/369 367/367/367
f 373/373/373 372/372/372 371/371/371
f 374/374/374 373/373/373 371/371/371
f 377/377/377 376/376/376 375/375/375
f 378/378/378 377/377/377 375/375/375
f 381/381/381 380/380/380 379/379/379
f 382/382/382 381/381/381 379/379/379
f 385/385/385 384/384/384 383/383/383
f 386/386/386 385/385/385 383/383/383
f 389/389/389 388/388/388 387/387/387
f 390/390/390 389/389/389 387/387/387
f 393/393/393 392/392/392 391/391/391
f 394/394/394 393/393/393 391/391/391
f 397/397/397 396/396/396 395/395/395
f 398/398/398 397/397/397 395/395/395
f 401/401/401 400/400/400 399/399/399
f 402/402/402 401/401/401 399/399/399
f 405/405/405 404/404/404 403/403/403
f 406/406/406 405/405/405 403/403/403
f 409/409/409 408/408/408 407/407/407
f 410/410/410 409/409/409 407/407/407
f 413/413/413 412/412/412 411/411/411
f 414/414/414 413/413/413 411/411/411
f 417/417/417 416/416/416 415/415/415
f 418/418/418 417/417/417 415/415/415
f 421/421/421 420/420/420 419/419/419
f 422/422/422 421/421/421 419/419/419
f 425/425/425 424/424/424 423/423/423
f 426/426/426 425/425/425 423/423/423
f 429/429/429 428/428/428 427/427/427
f 430/430/430 429/429/429 427/427/427
f 433/433/433 432/432/432 431/431/431
f 434/434/434 433/433/433 431/431/431
f 437/437/437 436/436/436 435/435/435
f 438/438/438 437/437/437 435/435/435
f 441/441/441 440/440/440 439/439/439
f 442/442/442 441/441/441 439/439/439
f 445/445/445 444/444/444 443/443/443
f 446/446/446 445/445/445 443/443/443
f 449/449/449 448/448/448 447/447/447
f 450/450/450 449/449/449 447/447/447
f 453/453/453 452/452/452 451/451/451
f 454/454/454 453/453/453 451/451/451
f 457/457/457 456/456/456 455/455/455
f 458/458/458 457/457/457 455/455/455
f 461/461/461 460/460/460 459/459/459
f 462/462/462 461/461/461 459/459/459
f 465/465/465 464/464/464 463/463/463
f 466/466/466 465/465/465 463/463/463
f 469/469/469 468/468/468 467/467/467
f 470/470/470 469/469/469 467/467/467
f 473/473/473 472/472/472 471/471/471
f 474/474/474 473/473/473 471/471/471
f 477/477/477 476/476/476 475/475/475
f 478/478/478 477/477/477 475/475/475
f 481/481/481 480/480/480 479/479/479
f 482/482/482 481/481/481 479/479/479
f 485/485/485 484/484/484 483/483/483
f 486/486/486 485/485/485 483/483/483
f 489/489/489 488/488/488 487/487/487
f 490/490/490 489/489/489 487/487/487
f 493/493/493 492/492/492 491/491/491
f 494/494/494 493/493/493 491/491/491
f 497/497/497 496/496/496 495/495/495
f 498/498/498 497/497/497 495/495/495
f 501/501/501 500/500/500 499/499/499
f 502/502/502 501/501/501 499/499/499
f 505/505/505 504/504/504 503/503/503
f 506/506/506 505/505/505 503/503/503
f 509/509/509 508/508/508 507/507/507
f 510/510/510 509/509/509 507/507/507
f 513/513/513 512/512/512 511/511/511
f 514/514/514 513/513/513 511/511/511
f 517/517/517 516/516/516 515/515/515
f 518/518/518 517/517/517 515/515/515
f 521/521/521 520/520/520 519/519/519
f 522/522/522 521/521/521 519/519/519
f 525/525/525 524/524/524 523/523/523
f 526/526/526 525/525/525 523/523/523
f 529/529/529 528/528/528 527/527/527
f 530/530/530 529/529/529 527/527/527
f 533/533/533 532/532/532 531/531/531
f 534/534/534 533/533/533 531/531/531
f 537/537/537 536/536/536 535/535/535
f 538/538/538 537/537/537 535/535/535
f 541/541/541 540/540/540 539/539/539
f 542/542/542 541/541/541 539/539/539
f 545/545/545 544/544/544 543/543/543
f 546/546/546 545/545/545 543/543/543
f 549/549/549 548/548/548 547/547/547
f 550/550/550 549/549/549 547/547/547
f 553/553/553 552/552/552 551/551/551
f 554/554/554 553/553/553 551/551/551
f 557/557/557 556/556/556 555/555/555
f 558/558/558 557/557/557 555/555/555
f 561/561/561 560/560/560 559/559/559
f 562/562/562 561/561/561 559/559/559
f 565/565/565 564/564/564 563/563/563
f 566/566/566 565/565/565 563/563/563
f 569/569/569 568/568/568 567/567/567
f 570/570/570 569/569/569 567/567/567
f 573/573/573 572/572/572 571/571/571
f 574/574/574 573/573/573 571/571/571
f 577/577/577 576/576/576 575/575/575
f 578/578/578 577/577/577 575/575/575
f 581/581/581 580/580/580 579/579/579
f 582/582/582 581/581/581 579/579/579
f 585/585/585 584/584/584 583/583/583
f 586/586/586 585/585/585 583/583/583
f 589/589/589 588/588/588 587/587/587
f 590/590/590 589/589/589 587/587/587
f 593/593/593 592/592/592 591/591/591
f 594/594/594 593/593/593 591/591/591
f 597/597/597 596/596/596 595/595/595
f 598/598/598 597/597/597 595/595/595
f 601/601/601 600/600/600 599/599/599
f 602/602/602 601/601/601 599/599/599
f 605/605/605 604/604/604 603/603/603
f 606/606/606 605/605/605 603/603/603
f 609/609/609 608/608/608 607/607/607
f 610/610/610 609/609/609 607/607/607
f 613/613/613 612/612/612 611/611/611
f 614/614/614 613/613/613 611/611/611
f 617/617/617 616/616/616 615/615/615
f 618/618/618 617/617/617 615/615/615
f 621/621/621 620/620/620 619/619/619
f 622/622/622 621/621/621 619/619/619
f 625/625/625 624/624/624 623/623/623
f 626/626/626 625/625/625 623/623/623
f 629/629/629 628/628/628 627/627/627
f 630/630/630 629/629/629 627/627/627
f 633/633/633 632/632/632 631/631/631
f 634/634/634 633/633/633 631/631/631
f 637/637/637 636/636/636 635/635/635
f 638/638/638 637/637/637 635/635/635
f 641/641/641 640/640/640 639/639/639
f 642/642/642 641/641/641 639/639/639
f 645/645/645 644/644/644 643/643/643
f 646/646/646 645/645/645 643/643/643
f 649/649/649 648/648/648 647/647/647
f 650/650/650 649/649/649 647/647/647
f 653/653/653 652/652/652 651/651/651
f 654/654/654 653/653/653 651/651/651
f 657/657/657 656/656/656 655/655/655
f 658/658/658 657/657/657 655/655/655
f 661/661/661 660/660/660 659/659/659
f 662/662/662 661/661/661 659/659/659
f 665/665/665 664/664/664 663/663/663
f 666/666/666 665/665/665 663/663/663
f 669/669/669 668/668/668 667/667/667
f 670/670/670 669/669/669 667/667/667
f 673/673/673 672/672/672 671/671/671
f 674/674/674 673/673/673 671/671/671
f 677/677/677 676/676/676 675/675/675
f 678/678/678 677/677/677 675/675/675
f 681/681/681 680/680/680 679/679/679
f 682/682/682 681/681/681 679/679/679
f 685/685/685 684/684/684 683/683/683
f 686/686/686 685/685/685 683/683/683
f 689/689/689 688/688/688 687/687/687
f 690/690/690 689/689/689 687/687/687
f 693/693/693 692/692/692 691/691/691
f 694/694/694 693/693/693 691/691/691
f 697/697/697 696/696/696 695/695/695
f 698/698/698 697/697/697 695/695/695
f 701/701/701 700/700/700 699/699/699
f 702/702/702 701/701/701 699/699/699
f 705/705/705 704/704/704 703/703/703
f 706/706/706 705/705/705 703/703/703
f 709/709/709 708/708/708 707/707/707
f 710/710/710 709/709/709 707/707/707
f 713/713/713 712/712/712 711/711/711
f 714/714/714 713/713/713 711/711/711
f 717/717/717 716/716/716 715/715/715
f 718/718/718 717/717/717 715/715/715
f 721/721/721 720/720/720 719/719/719
f 722/722/722 721/721/721 719/719/719
f 725/725/725 724/724/724 723/723/723
f 726/726/726 725/725/725 723/723/723
f 729/729/729 728/728/728 727/727/727
f 730/730/730 729/729/729 727/727/727
f 733/733/733 732/732/732 731/731/731
f 734/734/734 733/733/733 731/731/731
f 737/737/737 736/736/736 735/735/735
f 738/738/738 737/737/737 735/735/735
f 741/741/741 740/740/740 739/739/739
f 742/742/742 741/741/741 739/739/739
f 745/745/745 744/744/744 743/743/743
f 746/746/746 745/745/745 743/743/743
f 749/749/749 748/748/748 747/747/747
f 750/750/750 749/749/749 747/747/747
f 753/753/753 752/752/752 751/751/751
f 754/754/754 753/753/753 751/751/751
f 757/757/757 756/756/756 755/755/755
f 758/758/758 757/757/757 755/755/755
f 761/761/761 760/760/760 759/759/759
f 762/762/762 761/761/761 759/759/759
f 765/765/765 764/764/764 763/763/763
f 766/766/766 765/765/765 763/763/763
f 769/769/769 768/768/768 767/767/767
f 770/770/770 769/769/769 767/767/767
f 773/773/773 772/772/772 771/771/771
f 774/774/774 773/773/773 771/771/771
f 777/777/777 776/776/776 775/775/775
f 778/778/778 777/777/777 775/775/775
f 781/781/781 780/780/780 779/779/779
f 782/782/782 781/781/781 779/779/779
f 785/785/785 784/784/784 783/783/783
f 786/786/786 785/785/785 783/783/783
f 789/789/789 788/788/788 787/787/787
f 790/790/790 789/789/789 787/787/787
f 793/793/793 792/792/792 791/791/791
f 794/794/794 793/793/793 791/791/791
f 797/797/797 796/796/796 795/795/795
f 798/798/798 797/797/797 795/795/795
f 801/801/801 800/800/800 799/799/799
f 802/802/802 801/801/801 799/799/799
f 805/805/805 804/804/804 803/803/803
f 806/806/806 805/805/805 803/803/803
f 809/809/809 808/808/808 807/807/807
f 810/810/810 809/809/809 807/807/807
f 813/813/813 812/812/812 811/811/811
f 814/814/814 813/813/813 811/811/811
f 817/817/817 816/816/816 815/815/815
f 818/818/818 817/817/817 815/815/815
f 821/821/821 820/820/820 819/819/819
f 820/820/820 822/822/822 819/819/819
f 823/823/823 820/820/820 821/821/821
f 819/819/819 822/822/822 824/824/824
f 825/825/825 823/823/823 821/821/821
f 822/822/822 826/826/826 824/824/824
f 827/827/827 823/823/823 825/825/825
f 824/824/824 826/826/826 828/828/828
f 829/829/829 827/827/827 825/825/825
f 826/826/826 830/830/830 828/828/828
f 830/830/830 827/827/827 829/829/829
f 828/828/828 830/830/830 829/829/829
