g Fance_Small_center
v -0.49999982 2.4080286 0.49995232
v -0.49999982 2.4080286 -0.5000033
v 0.49999982 2.4080286 -0.49994704
v 0.49999982 2.4080286 0.49999636
v -0.49999982 0.008028588 0.4999527
v 0.49999982 0.008028588 0.49999675
v 0.49999982 0.008028426 -0.49994665
v -0.49999982 0.008028426 -0.50000286
v -0.49999982 2.4080286 0.49995232
v 0.49999982 2.4080286 0.49999636
v 0.49999982 0.008028588 0.49999675
v -0.49999982 0.008028588 0.4999527
v -0.49999982 2.4080286 -0.5000033
v -0.49999982 2.4080286 0.49995232
v -0.49999982 0.008028588 0.4999527
v -0.49999982 0.008028426 -0.50000286
v 0.49999982 2.4080286 -0.49994704
v -0.49999982 2.4080286 -0.5000033
v -0.49999982 0.008028426 -0.50000286
v 0.49999982 0.008028426 -0.49994665
v 0.49999982 2.4080286 0.49999636
v 0.49999982 2.4080286 -0.49994704
v 0.49999982 0.008028426 -0.49994665
v 0.49999982 0.008028588 0.49999675
vt 0.10393517 0.8240473
vt 0.10393515 0.82404727
vt 0.10393517 0.8240472
vt 0.10393517 0.82404727
vt 0.120987326 0.90698284
vt 0.120987326 0.9069828
vt 0.120987326 0.9069827
vt 0.12098731 0.9069828
vt 0.10393517 0.8240473
vt 0.10393517 0.82404727
vt 0.10393517 0.82404727
vt 0.10393517 0.8240473
vt 0.10393515 0.82404727
vt 0.10393517 0.8240473
vt 0.10393517 0.8240473
vt 0.10393515 0.82404727
vt 0.10393517 0.8240472
vt 0.10393515 0.82404727
vt 0.10393515 0.82404727
vt 0.10393517 0.8240472
vt 0.10393517 0.82404727
vt 0.10393517 0.8240472
vt 0.10393517 0.8240472
vt 0.10393517 0.82404727
vn -0 1 0
vn -0 1 0
vn -0 1 0
vn -0 1 0
vn -0 -1 0
vn -0 -1 0
vn -0 -1 0
vn -0 -1 0
vn -4.400811E-05 0 1
vn -4.400811E-05 0 1
vn -4.400811E-05 0 1
vn -4.400811E-05 0 1
vn -1 0 0
vn -1 0 0
vn -1 0 0
vn -1 0 0
vn 5.6227065E-05 0 -1
vn 5.6227065E-05 0 -1
vn 5.6227065E-05 0 -1
vn 5.6227065E-05 0 -1
vn 1 0 0
vn 1 0 0
vn 1 0 0
vn 1 0 0
g Fance_Small_center_0
f 3/3/3 2/2/2 1/1/1
f 4/4/4 3/3/3 1/1/1
f 7/7/7 6/6/6 5/5/5
f 8/8/8 7/7/7 5/5/5
f 11/11/11 10/10/10 9/9/9
f 12/12/12 11/11/11 9/9/9
f 15/15/15 14/14/14 13/13/13
f 16/16/16 15/15/15 13/13/13
f 19/19/19 18/18/18 17/17/17
f 20/20/20 19/19/19 17/17/17
f 23/23/23 22/22/22 21/21/21
f 24/24/24 23/23/23 21/21/21
